<svg width="161" height="120" viewBox="0 0 161 120" fill="none" xmlns="http://www.w3.org/2000/svg">
<path d="M29.204 52.8735C34.501 52.8735 38.7914 48.578 38.7914 43.2822C38.7914 37.9873 34.501 33.6934 29.204 33.6934C23.9083 33.6934 19.6172 37.9873 19.6172 43.2822C19.6172 48.578 23.9083 52.8735 29.204 52.8735Z" fill="white"/>
<path d="M57.7592 42.6558C56.2248 41.12 53.7352 41.12 52.2015 42.6558L38.5501 56.3072C36.415 58.1247 34.3778 58.2642 34.3778 58.2642H24.3922C21.6744 57.8684 20.5106 56.4557 20.5106 56.4557L6.71024 42.6558C5.17443 41.12 2.68464 41.12 1.1517 42.6558C-0.383901 44.1916 -0.383901 46.6805 1.1517 48.2143L17.2588 64.3229V114.893C17.2588 117.714 19.5474 119.999 22.367 119.999C25.189 119.999 27.4796 117.714 27.4796 114.893V92.7503H27.4876C27.5007 91.7826 28.2852 91.0016 29.2573 91.0016C30.2322 91.0016 31.0253 91.7935 31.0253 92.7713C31.0253 92.8277 31.0124 92.882 31.0079 92.9376V114.893C31.0079 117.714 33.2964 119.999 36.1155 119.999C38.9417 119.999 41.2274 117.714 41.2274 114.893V64.7476L57.7592 48.2143C59.295 46.6805 59.295 44.1916 57.7592 42.6558Z" fill="white"/>
<path d="M79.9964 26.6615C87.362 26.6615 93.3286 20.6934 93.3286 13.3328C93.3286 5.96865 87.362 0 79.9964 0C72.6352 0 66.668 5.96865 66.668 13.3328C66.668 20.6934 72.6352 26.6615 79.9964 26.6615Z" fill="white"/>
<path d="M119.705 12.4567C117.571 10.323 114.105 10.323 111.975 12.4567L92.9922 31.4364C90.0233 33.9658 87.1885 34.1613 87.1885 34.1613H73.3083C69.5303 33.6105 67.9127 31.6469 67.9127 31.6469L48.7218 12.4567C46.5896 10.323 43.1272 10.323 40.9929 12.4567C38.8578 14.5918 38.8578 18.0528 40.9929 20.1878L63.3865 42.5837V112.896C63.3865 116.819 66.5701 120 70.495 120C74.4201 120 77.6002 116.819 77.6002 112.896V82.1077H77.6131C77.632 80.7637 78.7249 79.6794 80.0709 79.6794C81.4258 79.6794 82.526 80.7803 82.526 82.1372C82.526 82.2191 82.5115 82.295 82.5049 82.3703V112.896C82.5049 116.819 85.6896 120 89.6116 120C93.5393 120 96.7158 116.819 96.7158 112.896V43.1735L119.705 20.1878C121.837 18.0528 121.837 14.5918 119.705 12.4567Z" fill="white"/>
<path d="M130.647 52.8735C135.943 52.8735 140.233 48.578 140.233 43.2822C140.233 37.9873 135.943 33.6934 130.647 33.6934C125.353 33.6934 121.059 37.9873 121.059 43.2822C121.059 48.578 125.353 52.8735 130.647 52.8735Z" fill="white"/>
<path d="M159.203 42.6558C157.67 41.12 155.18 41.12 153.644 42.6558L139.993 56.3072C137.856 58.1247 135.821 58.2642 135.821 58.2642H125.837C123.117 57.8684 121.953 56.4557 121.953 56.4557L108.153 42.6558C106.619 41.12 104.13 41.12 102.595 42.6558C101.06 44.1916 101.06 46.6805 102.595 48.2143L118.7 64.3229V114.893C118.7 117.714 120.988 119.999 123.808 119.999C126.634 119.999 128.922 117.714 128.922 114.893V92.7503H128.928C128.944 91.7826 129.728 91.0016 130.702 91.0016C131.675 91.0016 132.466 91.7935 132.466 92.7713C132.466 92.8277 132.455 92.882 132.449 92.9376V114.893C132.449 117.714 134.742 119.999 137.56 119.999C140.385 119.999 142.67 117.714 142.67 114.893V64.7476L159.203 48.2143C160.739 46.6805 160.739 44.1916 159.203 42.6558Z" fill="white"/>
</svg>
