<svg width="143" height="120" viewBox="0 0 143 120" fill="none" xmlns="http://www.w3.org/2000/svg">
<path d="M53.1532 77.3764L63.6864 76.9306V73.1358L53.1532 74.2348V77.3764ZM90.561 75.2502L93.8151 75.0464L91.171 71.1405L90.561 75.2502ZM17.7083 79.02V77.4681L2.53517 77.3484L92.0083 68.1563L97.9772 77.3484L17.7083 79.02ZM70.2229 50.1371V56.3242L88.8677 52.4718V44.8609L70.2229 50.1371ZM45.2308 57.2097L21.634 63.8869L21.8184 66.3266L45.2308 61.489V57.2097ZM47.3687 61.0466L67.4181 56.9043V50.9309L47.3687 56.6042V61.0466ZM139.443 60.8523L136.586 63.7523V64.1366L137.301 68.6371C141.86 65.4534 139.443 60.8523 139.443 60.8523ZM127.581 62.7638L119.072 60.8532L120.552 63.9726L128.792 68.156C128.792 68.156 129.449 63.9726 127.581 62.7638ZM138.317 77.8991H104.736L104.239 75.919H115.832C125.935 75.919 116.821 59.4531 116.821 59.4531C104.14 36.7489 89.2934 41.7587 89.2934 41.7587L42.3172 55.4219L2.53987 66.7699L90.5751 38.7876C136.137 32.4503 141.888 65.1264 141.888 65.1264C145.748 79.0866 138.317 77.8991 138.317 77.8991ZM92.1266 44.0753V52.5829L113.24 60.8532C113.24 60.8532 105.843 45.2348 92.1266 44.0753ZM87.3069 79.6047L85.8974 79.6292L86.2427 84.855L76.9155 94.3245L77.0007 94.7003C77.5352 97.0406 78.0839 99.6565 78.1974 100.525C77.6062 100.868 75.9459 101.588 74.527 102.151L74.1487 102.3L73.5385 106.339L64.2634 117.121L60.0255 116.649L56.6485 118.175L53.7066 112.768L55.1065 110.981L51.6728 106.623L48.9863 95.5266L45.0369 85.7289L46.9477 80.2981L45.4437 80.3241L43.5329 85.7634L47.6477 95.9543L50.3437 107.105L53.3187 110.986L52.0276 112.626L56.0336 120L60.2526 118.09L64.8451 118.601L74.8723 106.949L75.4209 103.309C79.3656 101.729 79.4838 101.38 79.5879 101.069C79.6541 100.866 79.7677 100.528 78.4575 94.7627L87.69 85.3919L87.3069 79.6047ZM32.451 50.7654L35.5915 53.7868L36.7456 54.1017L39.2099 53.3156L36.3105 52.5238L32.8247 49.1729L23.9185 51.9721L14.8563 52.7966L10.5333 48.9549L8.39065 48.5016L5.83188 42.2308L2.26555 38.5868L4.10073 29.0327L1.77834 26.7122L7.51086 17.4345L13.2765 14.6168L12.794 9.1548L16.4408 7.78486L18.886 3.83032L24.4718 4.89663L28.5915 1.90457L38.8882 1.44122L40.6051 4.0624L40.0517 7.4011L47.7755 8.97178L52.931 13.1183L58.2045 11.9942L57.5803 8.25049L61.1796 8.42159L69.0688 11.8005L72.5547 9.62605L76.0595 11.3773L75.4399 13.5352L72.673 14.5412L76.5088 23.625L80.969 31.1796L87.0845 38.0248L88.5509 37.5573L82.0995 30.3542L77.7622 22.9953L74.5459 15.3584L76.5987 14.6125L77.7338 10.6409L72.4743 8.01465L68.9506 10.2174L61.6195 7.07912L55.9059 6.76289L56.5965 10.8995L53.2904 11.6029L48.3903 7.66051L41.6599 6.29205L42.0807 3.7518L39.626 0L28.1044 0.518556L24.1361 3.40007L18.2002 2.26609L15.4947 6.63627L11.2947 8.21498L11.7914 13.7773L6.52704 16.3492L0 26.9192L2.57768 29.4996L0.742628 39.0539L4.58313 42.893L7.36433 49.7245L9.87577 50.2549L14.3785 54.253L24.1219 53.3666L32.451 50.7654ZM91.9752 93.277L92.0224 90.5793L93.7204 87.1867L95.513 87.1177L99.0415 82.6342L99.7557 86.2848L98.9044 86.9504L97.457 91.5176L94.4489 101.671L92.292 102.372L90.2677 97.647L91.9752 93.277ZM95.584 102.78L98.805 91.9302L100.12 87.7889L101.298 86.8591L99.836 79.3504L94.8083 85.7365L92.8313 85.813L90.613 90.247V92.8893L88.7447 97.6721L91.5069 104.108L95.584 102.78Z" fill="white"/>
</svg>
