<svg width="140" height="120" viewBox="0 0 140 120" fill="none" xmlns="http://www.w3.org/2000/svg">
<path d="M20.4702 23.774C31.085 17.7019 48.4294 13.9378 67.3812 13.5222L63.7923 106.752H78.1011L74.513 13.5237C93.7695 13.9563 111.255 17.8231 121.807 24.0571C122.16 24.2653 122.545 24.3635 122.926 24.3635C123.682 24.3635 124.418 23.9748 124.83 23.2746C125.45 22.2228 125.1 20.8654 124.049 20.2455C112.829 13.6166 94.4347 9.52037 74.3432 9.09812L74.1132 3.12346C74.0835 1.39148 72.6758 0 70.9449 0C69.216 0 67.8105 1.39148 67.7809 3.12346L67.5509 9.09581C47.7865 9.50163 29.5526 13.4828 18.2823 19.9297C17.2225 20.5355 16.8546 21.8875 17.4584 22.9482C18.0643 24.0112 19.4134 24.3776 20.4702 23.774Z" fill="white"/>
<path d="M3.78584 73.3959C4.63582 73.7429 5.59912 73.3326 5.94328 72.4837L21.1452 34.9808L36.3553 72.4837C36.6162 73.1283 37.2355 73.5185 37.8904 73.5185C38.0973 73.5185 38.3088 73.4797 38.5119 73.3959C39.3597 73.0524 39.7668 72.0832 39.4234 71.2343L22.6782 29.9486C22.1715 28.6975 20.1171 28.6975 19.6107 29.9486L2.8751 71.2343C2.53094 72.0838 2.93881 73.0524 3.78584 73.3959Z" fill="white"/>
<path d="M21.1484 95.3673C32.8288 95.3673 42.2978 86.8134 42.2978 76.2583H0C0 86.8134 9.46815 95.3673 21.1484 95.3673Z" fill="white"/>
<path d="M117.313 29.9486L100.577 71.2343C100.233 72.0838 100.641 73.0524 101.488 73.3959C102.338 73.7429 103.302 73.3326 103.645 72.4837L118.847 34.9808L134.059 72.4837C134.321 73.1283 134.94 73.5185 135.595 73.5185C135.801 73.5185 136.013 73.4797 136.216 73.3959C137.064 73.0509 137.471 72.0832 137.127 71.2343L120.381 29.9486C119.874 28.6975 117.819 28.6975 117.313 29.9486Z" fill="white"/>
<path d="M97.7021 76.2583C97.7021 86.8134 107.17 95.3673 118.851 95.3673C130.531 95.3673 140 86.8134 140 76.2583H97.7021Z" fill="white"/>
<path d="M89.1951 111.701H52.6993C48.1255 111.701 44.4209 115.417 44.4209 120H97.4735C97.4735 115.417 93.7667 111.701 89.1951 111.701Z" fill="white"/>
</svg>
