<svg width="147" height="120" viewBox="0 0 147 120" fill="none" xmlns="http://www.w3.org/2000/svg">
<path d="M65.5879 14.3994C65.5879 15.257 66.2798 15.9533 67.1375 15.9533H122.178C123.033 15.9533 123.728 15.257 123.728 14.3994V14.1287C123.728 13.5265 123.38 12.9771 122.836 12.7218L96.0701 0.146015C95.6592 -0.0455292 95.1841 -0.049361 94.7738 0.138893L66.4977 12.9829C65.9435 13.2357 65.5879 13.7888 65.5879 14.3994Z" fill="white"/>
<path d="M117.48 22.9424H72.3437C71.5714 22.9424 70.9434 22.3104 70.9434 21.5329V20.7689C70.9434 19.9919 71.5714 19.3594 72.3437 19.3594H117.48C118.253 19.3594 118.884 19.9919 118.884 20.7689V21.5329C118.884 22.3104 118.253 22.9424 117.48 22.9424Z" fill="white"/>
<path d="M73.938 26.6035H77.6375C78.1699 26.6035 78.6059 27.0259 78.6272 27.5598L79.5775 55.2411C79.5948 55.8015 79.1479 56.2663 78.5886 56.2663H72.9877C72.4256 56.2663 71.9781 55.8015 71.9987 55.2411L72.9483 27.5598C72.9671 27.0259 73.4036 26.6035 73.938 26.6035Z" fill="white"/>
<path d="M86.6877 26.6035H90.3861C90.9198 26.6035 91.357 27.0259 91.3751 27.5598L92.3267 55.2411C92.3453 55.8015 91.8978 56.2663 91.3384 56.2663H85.7368C85.1755 56.2663 84.7286 55.8015 84.7466 55.2411L85.7002 27.5598C85.7175 27.0259 86.154 26.6035 86.6877 26.6035Z" fill="white"/>
<path d="M99.4388 26.6035H103.138C103.671 26.6035 104.107 27.0259 104.126 27.5598L105.076 55.2411C105.096 55.8015 104.649 56.2663 104.089 56.2663H98.4865C97.9264 56.2663 97.4802 55.8015 97.4976 55.2411L98.4506 27.5598C98.4685 27.0259 98.9052 26.6035 99.4388 26.6035Z" fill="white"/>
<path d="M112.189 26.6035H115.888C116.42 26.6035 116.856 27.0259 116.875 27.5598L117.826 55.2411C117.846 55.8015 117.399 56.2663 116.84 56.2663H111.237C110.677 56.2663 110.228 55.8015 110.248 55.2411L111.201 27.5598C111.218 27.0259 111.654 26.6035 112.189 26.6035Z" fill="white"/>
<path d="M123.307 60.5356C124.478 60.5356 125.429 61.4886 125.429 62.6633C125.429 63.8394 124.478 64.7931 123.307 64.7931H66.0062C64.8341 64.7931 63.8838 63.8394 63.8838 62.6633C63.8838 61.4886 64.8341 60.5356 66.0062 60.5356H123.307Z" fill="white"/>
<path d="M22.3711 83.9115C22.3711 83.9115 44.8489 71 54.7681 71C64.6847 71 69.6453 73.1167 75.1324 75.5488C80.6214 77.9842 102.995 86.1329 102.995 86.1329C102.995 86.1329 107.108 88.2508 105.525 91.7405C103.941 95.235 100.143 95.444 97.3992 95.444C94.6551 95.444 77.5616 89.6243 72.284 91.4232C72.284 91.4232 91.5938 97.987 98.88 97.987C106.159 97.987 109.958 94.3866 109.958 89.6243C109.958 84.8644 108.058 84.969 108.058 84.969C108.058 84.969 129.588 78.9377 136.552 78.9377C143.518 78.9377 147 81.689 147 84.4945C147 87.2966 138.137 92.168 125.157 97.0353C112.179 101.902 94.2371 111.215 90.0165 110.581C85.7966 109.946 56.0392 102.008 48.7544 102.008C39.1509 102.008 30.6025 105.501 30.6025 105.501L22.3711 83.9115Z" fill="white"/>
<path d="M22.5137 113.017C21.0298 113.017 19.8223 111.81 19.8223 110.318C19.8223 108.825 21.0298 107.617 22.5137 107.617C24.0002 107.617 25.2033 108.825 25.2033 110.318C25.2033 111.81 24.0002 113.017 22.5137 113.017ZM18.2567 82.1143L0 89.5234L11.8178 120L30.4982 112.591L18.2567 82.1143Z" fill="white"/>
</svg>
