<svg width="145" height="120" viewBox="0 0 145 120" fill="none" xmlns="http://www.w3.org/2000/svg">
<path d="M119.572 51.3067L118.305 50.0118C139.389 29.3919 130.859 13.8514 130.489 13.1969L132.06 12.2974C132.162 12.464 141.722 29.6567 119.572 51.3067ZM143.117 33.7265C143.117 33.7265 141.451 37.1537 137.773 37.6649C134.098 38.1718 131.614 35.7013 131.614 35.7013C131.614 35.7013 132.958 32.7315 136.729 32.2092C140.503 31.6944 143.117 33.7265 143.117 33.7265ZM145 20.7581C145 20.7581 144.512 24.5384 141.19 26.1906C137.857 27.8364 134.719 26.2761 134.719 26.2761C134.719 26.2761 135.06 23.036 138.472 21.3505C141.881 19.6573 145 20.7581 145 20.7581ZM130.711 10.9891C130.711 10.9891 127.557 10.1615 126.402 6.54371C125.246 2.9209 126.812 0 126.812 0C126.812 0 130.479 1.05257 131.607 4.58711C132.73 8.11465 130.711 10.9891 130.711 10.9891ZM119.787 30.069C119.787 30.069 123.089 30.3316 125.524 33.2547C127.954 36.1806 126.945 39.2782 126.945 39.2782C126.945 39.2782 123.435 39.4258 121.07 36.5775C118.704 33.7201 119.787 30.069 119.787 30.069ZM121.84 21.3782C121.84 21.3782 125.115 20.84 128.174 23.1036C131.235 25.361 130.989 28.6146 130.989 28.6146C130.989 28.6146 127.618 29.5911 124.637 27.3889C121.655 25.1845 121.84 21.3782 121.84 21.3782ZM120.508 13.3452C120.508 13.3452 123.492 11.914 127.066 13.2259C130.632 14.5413 131.317 17.7263 131.317 17.7263C131.317 17.7263 128.365 19.6109 124.878 18.33C121.396 17.0535 120.508 13.3452 120.508 13.3452ZM136.905 11.2349C139.305 8.28415 142.61 7.98615 142.61 7.98615C142.61 7.98615 143.739 11.631 141.398 14.5122C139.063 17.3895 135.556 17.2772 135.556 17.2772C135.556 17.2772 134.514 14.1904 136.905 11.2349ZM105.25 48.9914C104.079 48.9914 103.132 48.0454 103.132 46.8761C103.132 45.7063 104.079 44.758 105.25 44.758C106.419 44.758 107.369 45.7063 107.369 46.8761C107.369 48.0454 106.419 48.9914 105.25 48.9914ZM109.407 40.9749C96.5235 26.5803 83.6406 45.9915 83.6406 45.9915C80.147 52.536 73.5929 59.5162 73.5929 59.5162C60.4921 42.0673 49.8152 36.5831 46.62 35.2387C45.7139 34.8589 44.8204 34.4402 43.9636 33.9516C27.2436 24.4354 26.4243 11.746 26.4243 11.746C12.6653 30.069 34.0679 48.392 34.0679 48.392C31.6658 48.392 18.9984 41.6301 18.9984 41.6301C17.6872 58.6442 37.125 68.8955 37.125 68.8955C33.192 70.2045 21.4026 64.3145 21.4026 64.3145C20.3089 75.2203 43.2398 90.3096 43.2398 90.3096C35.5962 103.871 0 94.6337 0 94.6337C24.2399 122.554 51.5372 119.935 51.5372 119.935C105.042 117.538 107.225 58.8609 107.225 58.8609C110.718 45.9915 121.24 45.9278 121.24 45.9278C117.747 45.9278 109.407 40.9749 109.407 40.9749Z" fill="white"/>
</svg>
