<svg width="145" height="120" viewBox="0 0 145 120" fill="none" xmlns="http://www.w3.org/2000/svg">
<path d="M70.1395 90.7525L55.6633 115.903C54.6154 117.725 55.928 120 58.0258 120H86.9755C89.0754 120 90.3849 117.725 89.3371 115.903L74.8614 90.7525C73.8114 88.9302 71.1879 88.9302 70.1395 90.7525Z" fill="white"/>
<path d="M143.857 84.324H1.14261C0.511958 84.324 0 83.8105 0 83.1779C0 82.5448 0.511958 82.0312 1.14261 82.0312H143.857C144.488 82.0312 145 82.5448 145 83.1779C145 83.8105 144.488 84.324 143.857 84.324Z" fill="white"/>
<path d="M97.6419 11.2209C97.2918 11.2209 97.0052 10.9344 97.0052 10.5836C97.0052 10.2314 97.2918 9.94643 97.6419 9.94643C97.9911 9.94643 98.2772 10.2314 98.2772 10.5836C98.2772 10.9344 97.9911 11.2209 97.6419 11.2209ZM98.889 8.80602C95.0229 4.46873 91.157 10.3161 91.157 10.3161C90.1101 12.2895 88.1444 14.3911 88.1444 14.3911C84.2133 9.13468 81.0076 7.48237 80.0503 7.07774C79.7785 6.96261 79.5092 6.83743 79.2538 6.68955C74.2358 3.82117 73.9907 0 73.9907 0C69.863 5.51932 76.2831 11.0402 76.2831 11.0402C75.5633 11.0402 71.7628 9.00324 71.7628 9.00324C71.3702 14.1283 77.2005 17.2183 77.2005 17.2183C76.022 17.6137 72.4826 15.8371 72.4826 15.8371C72.1549 19.1243 79.0351 23.6701 79.0351 23.6701C76.7428 27.7553 66.0615 24.9748 66.0615 24.9748C73.336 33.3865 81.5262 32.5959 81.5262 32.5959C97.5781 31.875 98.2349 14.1939 98.2349 14.1939C99.2817 10.3161 101.773 10.2505 101.773 10.2505C100.724 10.2505 98.889 8.80602 98.889 8.80602Z" fill="white"/>
<path d="M69.0579 78.8135C68.8531 78.8135 68.6524 78.7251 68.5131 78.5608L66.383 76.0433C66.1629 75.7835 66.1558 75.4045 66.3656 75.1359L66.8551 74.5121L65.2262 72.4371C65.1632 72.3565 65.1176 72.2626 65.093 72.1629L63.4211 65.2223L60.9423 59.0688C60.8773 58.9071 60.8727 58.7279 60.9306 58.564L62.8103 53.1998L58.6796 44.5421C58.6229 44.4251 58.6002 44.2935 58.6125 44.1641L59.0119 39.9629L56.2479 39.2046C56.1329 39.1727 56.0268 39.1132 55.9409 39.0295L54.1916 37.3417L49.2746 38.8928C49.226 38.9072 49.1753 38.9176 49.1251 38.9221L43.2687 39.4567C43.0711 39.4833 42.876 39.4084 42.7296 39.279L40.1342 36.9659L38.8754 36.6983C38.644 36.649 38.451 36.4877 38.3609 36.2669L36.7427 32.2824L34.5634 30.097C34.3961 29.9286 34.3229 29.6878 34.3674 29.4536L35.4363 23.8789L34.1827 22.6239C33.9486 22.3877 33.9062 22.0222 34.0802 21.7403L37.8823 15.5626C37.953 15.446 38.0548 15.3536 38.1762 15.2957L41.157 13.8343L40.8954 10.8936C40.8673 10.5727 41.0552 10.2712 41.3561 10.1583L43.5615 9.32703L45.0318 6.94288C45.1874 6.69079 45.4879 6.57115 45.7731 6.61642L49.0417 7.24331L51.3012 5.59711C51.414 5.51502 51.5491 5.46729 51.6888 5.46103L58.4554 5.15507C58.7053 5.14328 58.9473 5.26701 59.086 5.47908L60.3787 7.46251C60.4775 7.61359 60.5154 7.79524 60.4857 7.97296L60.2953 9.12063L64.104 9.897C64.2166 9.92102 64.321 9.96993 64.4101 10.0418L67.5272 12.5593C67.8354 12.8073 67.8835 13.2597 67.6362 13.5668C67.3885 13.8758 66.9401 13.9268 66.6313 13.6757L63.6498 11.2669L59.3359 10.3878C58.9586 10.3104 58.7098 9.94723 58.7723 9.56675L59.0297 8.01357L58.1125 6.60608L51.9669 6.88336L49.6308 8.58661C49.4712 8.7032 49.27 8.74162 49.0775 8.71033L45.9881 8.11779L44.6493 10.2897C44.5654 10.4238 44.4405 10.5265 44.2926 10.5834L42.3683 11.309L42.6243 14.1967C42.6504 14.4941 42.4921 14.7744 42.2265 14.9044L38.9891 16.4909L35.593 22.0103L36.714 23.1344C36.8815 23.3028 36.9552 23.5431 36.9102 23.7773L35.8417 29.3525L37.8552 31.37C37.9232 31.4388 37.9755 31.5193 38.0123 31.6072L39.5419 35.3745L40.6159 35.601C40.7368 35.6266 40.8494 35.6851 40.942 35.7674L43.4474 38.0015L48.9188 37.5013L54.1675 35.8458C54.4143 35.7643 54.6902 35.833 54.8775 36.0134L56.8008 37.87L59.9686 38.7388C60.3044 38.8302 60.5251 39.1506 60.4919 39.4983L60.0537 44.1026L64.2268 52.849C64.3088 53.0191 64.3195 53.2163 64.2565 53.3955L62.3685 58.7833L64.7792 64.7863L66.4455 71.6725L68.3258 74.0685C68.5295 74.3283 68.5295 74.6954 68.3258 74.9552L67.8502 75.5611L69.2545 77.2207L71.1203 76.3744C71.2376 76.322 71.3656 76.3031 71.4936 76.3159L73.8719 76.5818L80.0832 69.7834L79.7571 67.6818C79.7059 67.3531 79.8855 67.0338 80.1917 66.9085C81.1863 66.4998 82.3534 65.9832 82.8265 65.7281C82.8188 65.1822 82.7722 63.4832 82.7133 61.9567C82.7042 61.7225 82.8101 61.4986 82.9964 61.3568L88.6076 57.0986L88.192 53.0776L86.7622 47.0674C86.708 46.8353 86.7714 46.5909 86.9326 46.4162L95.7209 36.8507L97.318 31.6863L92.4676 33.2471C92.0893 33.3714 91.6883 33.1624 91.568 32.785C91.4477 32.4076 91.6541 32.0046 92.0298 31.8835L98.1893 29.8999C98.4443 29.8162 98.7212 29.8835 98.9106 30.073C99.0995 30.2609 99.1696 30.5386 99.0898 30.7939L97.0374 37.43C97.0068 37.5312 96.953 37.6251 96.8809 37.7026L88.2416 47.1075L89.5983 52.8389L90.0702 57.3539C90.0963 57.6028 89.9898 57.8477 89.7911 57.9987L84.156 62.2744C84.2952 66.0074 84.2277 66.2117 84.1826 66.3474C84.0792 66.6564 84.01 66.8654 81.2549 68.0176L81.5482 69.9026C81.5816 70.1178 81.5154 70.3375 81.369 70.4968L74.6798 77.8179C74.5257 77.9863 74.2999 78.0714 74.0736 78.0462L71.531 77.7629L69.3521 78.7509C69.2569 78.7923 69.1577 78.8135 69.0579 78.8135Z" fill="white"/>
</svg>
