<svg width="155" height="120" viewBox="0 0 155 120" fill="none" xmlns="http://www.w3.org/2000/svg">
<path d="M103.118 32.5764L109.648 30.0815L107.576 36.7584L98.5978 46.5012L98.8644 52.6379L99.2302 58.0851L93.4202 63.9861C93.4202 63.9861 94.2633 67.7037 94.189 67.935C94.1146 68.1657 91.6032 69.1604 91.6032 69.1604L91.2375 71.5658L85.1979 78.5919L82.4323 78.2837L80.0575 79.359L77.8811 75.3568L78.7243 74.2826L76.7339 71.7493L75.041 64.7662L72.5112 58.4751L74.5077 52.7972L70.2107 43.8161L70.6695 38.9835L67.2963 38.0613L65.219 36.0657L59.8493 37.7556L53.9399 38.2927L51.1805 35.8375L49.7234 35.5294L48.0306 31.3851L45.7301 29.0825L46.8835 23.0978L45.3457 21.5636L49.184 15.3469L52.6378 13.6596L52.3278 10.2066L54.7833 9.28328L56.3954 6.67642L60.0043 7.36531L62.5342 5.52539L69.3612 5.21777L70.6695 7.21344L70.3657 9.0551L74.886 9.97533L78.036 12.5092L80.721 11.9362L80.3116 9.46872L83.1888 9.60513L87.9882 11.6627L90.1771 10.291L92.924 11.6627L92.3722 13.5826L90.8654 14.1301L93.0605 19.341L95.8011 24.0031L101.63 30.5324L100.588 31.8031L103.118 32.5764Z" fill="white"/>
<path d="M107.038 55.4971L107.714 58.9929L107.081 59.4919L106.219 62.2149L104.266 68.7975L102.312 69.4326L100.818 65.9375L101.953 63.0329V61.3983L103.174 58.9475L104.359 58.9022L107.038 55.4971Z" fill="white"/>
<path d="M129.075 84.6804C129.075 84.6804 130.798 82.0368 133.229 81.2653C134.767 80.7778 138.704 79.1847 146.505 85.6669C146.505 85.6669 136.175 95.1349 129.075 84.6804Z" fill="white"/>
<path d="M107.335 94.6556C107.335 94.6556 105.177 92.587 105.09 89.8256C105.003 87.0641 104.284 83.2802 111.639 76.2002C111.639 76.2002 118.125 89.11 107.335 94.6556Z" fill="white"/>
<path d="M122.056 84.4151C122.056 84.4151 119.389 83.2599 118.453 80.6925C117.517 78.1252 115.669 74.8269 120.407 65.458C120.407 65.458 130.502 75.2287 122.056 84.4151Z" fill="white"/>
<path d="M136.355 18.969C136.355 18.969 135.207 17.2202 135.542 15.3586C135.877 13.4971 135.939 10.8442 141.861 7.3584C141.861 7.3584 144.36 17.0918 136.355 18.969Z" fill="white"/>
<path d="M132.226 19.9337C132.226 19.9337 130.651 21.5634 128.703 21.5546C126.762 21.5454 124.071 22.0037 119.52 16.0468C119.52 16.0468 128.945 11.3332 132.226 19.9337Z" fill="white"/>
<path d="M134.997 31.7897C134.997 31.7897 133.447 33.5106 131.494 33.4655C129.54 33.4208 126.843 33.8617 122.167 27.3813C122.167 27.3813 131.55 22.4949 134.997 31.7897Z" fill="white"/>
<path d="M137.447 40.8506C137.447 40.8506 135.897 42.572 133.943 42.5261C131.996 42.4815 129.293 42.9223 124.617 36.4426C124.617 36.4426 134.005 31.5555 137.447 40.8506Z" fill="white"/>
<path d="M116.096 95.0238C116.096 95.0238 117.783 92.4906 120.294 92.139C122.812 91.7887 126.197 90.6563 133.334 97.993C133.334 97.993 122.154 106.231 116.096 95.0238Z" fill="white"/>
<path d="M136.02 73.4617C136.02 73.4617 136.974 70.6847 139.188 69.6727C141.396 68.6607 144.229 66.6949 152.439 71.4263C152.439 71.4263 144.136 82.0249 136.02 73.4617Z" fill="white"/>
<path d="M133.255 70.7645C133.255 70.7645 130.545 71.0137 128.759 69.267C126.973 67.5208 124.133 65.5742 124.53 55.4487C124.53 55.4487 136.864 59.0883 133.255 70.7645Z" fill="white"/>
<path d="M139.641 60.8886C139.641 60.8886 140.062 58.222 141.892 56.908C143.715 55.5933 145.947 53.3094 154.045 56.0373C154.045 56.0373 148.241 67.068 139.641 60.8886Z" fill="white"/>
<path d="M140.589 49.7481C140.589 49.7481 141.017 47.0817 142.846 45.7677C144.669 44.453 146.902 42.1691 155 44.8976C155 44.8976 149.196 55.9283 140.589 49.7481Z" fill="white"/>
<path d="M136.269 55.491C136.269 55.491 133.919 56.3641 131.984 55.2486C130.049 54.1336 127.141 53.0949 125.441 44.0381C125.441 44.0381 137.1 44.2873 136.269 55.491Z" fill="white"/>
<path d="M139.423 27.4347C139.423 27.4347 139.43 25.1607 140.775 23.7889C142.115 22.4178 143.665 20.1805 150.728 21.187C150.728 21.187 147.355 31.2217 139.423 27.4347Z" fill="white"/>
<path d="M140.242 39.3974C140.242 39.3974 140.255 36.8154 141.774 35.2581C143.299 33.7005 145.061 31.1604 153.079 32.3032C153.079 32.3032 149.253 43.698 140.242 39.3974Z" fill="white"/>
<path d="M131.611 11.7024C133.732 2.79864 124.257 0 124.257 0C122.837 9.03346 127.766 11.5598 130.172 12.2512C133.099 18.0945 140.311 35.7308 136.088 60.9816C130.693 93.2906 97.2216 97.7641 79.4441 104.978C70.484 108.613 64.2088 111.391 58.4856 115.777C57.357 116.645 57.2392 118.337 58.2624 119.34C59.0746 120.141 60.3458 120.227 61.2448 119.521C66.8937 115.07 72.8217 111.873 82.7676 107.765C82.7801 107.762 82.7862 107.759 82.7987 107.756C117.045 95.7909 132.975 88.2639 137.713 61.3332C141.873 37.6595 134.643 18.3886 131.611 11.7024Z" fill="white"/>
<path d="M25.9196 84.6804C25.9196 84.6804 24.202 82.0368 21.7651 81.2653C20.2335 80.7778 16.296 79.1847 8.48926 85.6669C8.48926 85.6669 18.8259 95.1349 25.9196 84.6804Z" fill="white"/>
<path d="M47.6594 94.6556C47.6594 94.6556 49.8174 92.587 49.9042 89.8256C49.9972 87.0641 50.7166 83.2802 43.3619 76.2002C43.3619 76.2002 36.8755 89.11 47.6594 94.6556Z" fill="white"/>
<path d="M32.9382 84.4151C32.9382 84.4151 35.611 83.2599 36.5474 80.6925C37.4838 78.1252 39.3318 74.8269 34.5878 65.458C34.5878 65.458 24.4984 75.2287 32.9382 84.4151Z" fill="white"/>
<path d="M18.6401 18.969C18.6401 18.969 19.7872 17.2202 19.4524 15.3586C19.1175 13.4971 19.0618 10.8442 13.1334 7.3584C13.1334 7.3584 10.6343 17.0918 18.6401 18.969Z" fill="white"/>
<path d="M22.7749 19.9337C22.7749 19.9337 24.3499 21.5634 26.2909 21.5546C28.2319 21.5454 30.9295 22.0037 35.475 16.0468C35.475 16.0468 26.0492 11.3332 22.7749 19.9337Z" fill="white"/>
<path d="M19.9971 31.7897C19.9971 31.7897 21.5536 33.5106 23.5008 33.4655C25.4542 33.4208 28.1518 33.8617 32.8274 27.3813C32.8274 27.3813 23.445 22.4949 19.9971 31.7897Z" fill="white"/>
<path d="M17.5479 40.8506C17.5479 40.8506 19.1042 42.572 21.0515 42.5261C23.0048 42.4815 25.7024 42.9223 30.378 36.4426C30.378 36.4426 20.9956 31.5555 17.5479 40.8506Z" fill="white"/>
<path d="M38.8972 95.0238C38.8972 95.0238 37.2107 92.4906 34.6993 92.139C32.1881 91.7887 28.8024 90.6563 21.6592 97.993C21.6592 97.993 32.8453 106.231 38.8972 95.0238Z" fill="white"/>
<path d="M18.9805 73.4617C18.9805 73.4617 18.0255 70.6847 15.8119 69.6727C13.5983 68.6607 10.7707 66.6949 2.55469 71.4263C2.55469 71.4263 10.8575 82.0249 18.9805 73.4617Z" fill="white"/>
<path d="M21.7399 70.7645C21.7399 70.7645 24.4498 71.0137 26.2357 69.267C28.0217 67.5208 30.8618 65.5742 30.4712 55.4487C30.4712 55.4487 18.1307 59.0883 21.7399 70.7645Z" fill="white"/>
<path d="M15.3593 60.8886C15.3593 60.8886 14.9315 58.222 13.1084 56.908C11.2792 55.5933 9.04695 53.3094 0.94873 56.0373C0.94873 56.0373 6.75263 67.068 15.3593 60.8886Z" fill="white"/>
<path d="M14.4043 49.7481C14.4043 49.7481 13.9765 47.0817 12.1534 45.7677C10.3242 44.453 8.09189 42.1691 0 44.8976C0 44.8976 5.79757 55.9283 14.4043 49.7481Z" fill="white"/>
<path d="M18.7324 55.491C18.7324 55.491 21.0764 56.3641 23.0111 55.2486C24.9459 54.1336 27.8542 53.0949 29.5535 44.0381C29.5535 44.0381 17.9014 44.2873 18.7324 55.491Z" fill="white"/>
<path d="M15.5706 27.4347C15.5706 27.4347 15.5644 25.1607 14.225 23.7889C12.8793 22.4178 11.3289 20.1805 4.27197 21.187C4.27197 21.187 7.63927 31.2217 15.5706 27.4347Z" fill="white"/>
<path d="M14.7525 39.3974C14.7525 39.3974 14.7464 36.8154 13.2209 35.2581C11.6955 33.7005 9.93433 31.1604 1.91602 32.3032C1.91602 32.3032 5.74843 43.698 14.7525 39.3974Z" fill="white"/>
<path d="M96.5084 115.777C90.7913 111.391 84.5098 108.613 75.556 104.978C57.7723 97.7641 24.3069 93.2906 18.9061 60.9816C14.6896 35.7308 21.8947 18.0945 24.8277 12.2512C27.2337 11.5598 32.1631 9.03346 30.7371 0C30.7371 0 21.2623 2.79864 23.3829 11.7024C20.3507 18.3886 13.1206 37.6595 17.2876 61.3332C22.0188 88.2639 37.9547 95.7909 72.2014 107.756C72.2076 107.759 72.2201 107.762 72.2262 107.765C82.1723 111.873 88.1064 115.07 93.749 119.521C94.6482 120.227 95.9194 120.141 96.7377 119.34C97.7547 118.337 97.6431 116.645 96.5084 115.777Z" fill="white"/>
</svg>
