<svg width="71" height="120" viewBox="0 0 71 120" fill="none" xmlns="http://www.w3.org/2000/svg">
<path d="M36.3083 109.193L35.5237 109.932L34.7389 109.193C33.9732 108.475 15.9783 91.356 15.7698 71.4854C15.5439 49.9294 34.0562 36.0937 34.8449 35.5149L35.5237 35.0176L36.2027 35.5149C36.9911 36.0937 55.5033 49.9294 55.2774 71.4854C55.068 91.356 37.074 108.475 36.3083 109.193ZM58.489 89.9646C61.1313 84.1119 62.9327 77.7437 63.0095 71.1746C63.1775 56.8341 56.0094 45.058 48.9523 36.9564C48.9534 36.9574 48.9544 36.9579 48.955 36.9589L53.4955 29.7229C55.8619 30.3216 58.787 28.9097 61.4309 24.7506C66.7993 16.3122 72.2998 1.07454 70.7268 0.0820369C68.8588 -1.09085 57.6657 10.5635 52.2979 19.0035C50.0879 22.4768 49.7775 26.1946 51.2495 28.2276L47.0762 34.8781C47.0766 34.8791 47.0772 34.8796 47.0783 34.8806C41.0092 28.4124 35.5237 24.8 35.5237 24.8C35.5237 24.8 30.0191 28.4257 23.9373 34.9158C23.9387 34.9138 23.9408 34.9118 23.9424 34.9096L19.749 28.2276C21.2215 26.1946 20.9113 22.4768 18.7031 19.0035C13.3353 10.5635 2.13975 -1.09085 0.273778 0.0820369C-1.30109 1.07454 4.19983 16.3122 9.56921 24.7506C12.2115 28.9093 15.1382 30.321 17.5031 29.7229L22.0642 36.9921C15.0169 45.0921 7.87022 56.8555 8.03718 71.1746C8.11355 77.7274 9.90563 84.0814 12.5379 89.9219L0.210329 109.57C-0.188651 110.197 -0.00120701 111.027 0.628769 111.425C1.25932 111.822 2.09518 111.634 2.49416 111.007L13.9239 92.7903C21.9996 108.611 35.5237 120 35.5237 120C35.5237 120 49.0235 108.63 57.1014 92.8316L68.5058 111.007C68.9054 111.634 69.7398 111.822 70.3708 111.425C71.0013 111.027 71.1888 110.197 70.7898 109.57L58.489 89.9646Z" fill="white"/>
<path d="M35.5225 81.4023L28.9003 72.3988L35.5225 63.396L42.1487 72.3988L35.5225 81.4023ZM35.5225 93.2824L31.746 88.1496L35.5225 83.0149L39.3003 88.1496L35.5225 93.2824ZM35.5225 51.3482L39.3003 56.4814L35.5225 61.6146L31.746 56.4814L35.5225 51.3482ZM35.524 37.8799C32.2039 40.59 17.8666 53.3536 18.0566 71.4613C18.2302 88.0605 32.0487 103.212 35.5235 106.759C38.9982 103.212 52.8161 88.0605 52.9904 71.4613C53.1809 53.3266 38.8456 40.5859 35.524 37.8799Z" fill="white"/>
</svg>
