<svg width="116" height="120" viewBox="0 0 116 120" fill="none" xmlns="http://www.w3.org/2000/svg">
<path d="M94.1881 35.6895C93.01 37.5704 91.3617 38.9719 89.4952 39.8524C89.3266 36.264 87.8739 32.7294 85.1133 30.0175C82.1084 27.0657 78.1623 25.685 74.2669 25.8338C74.5278 25.1309 74.8629 24.4447 75.2756 23.7874C78.5526 18.5495 85.4432 16.9662 90.6654 20.2528C95.8881 23.5393 97.4652 30.4516 94.1881 35.6895ZM85.9786 40.857C83.5543 41.1298 81.0254 40.6214 78.7983 39.2199C75.3292 37.0371 73.4809 33.2544 73.583 29.4263C76.8007 29.0624 80.1474 30.1001 82.6413 32.5517C84.9526 34.8212 86.0594 37.8474 85.9786 40.857ZM82.8079 48.3811C78.4945 52.8003 71.4256 52.8747 67.0207 48.5465C62.6158 44.2222 62.5421 37.1323 66.8555 32.7129C67.8076 31.7413 68.8979 30.989 70.06 30.4391C70.285 35.0899 72.6898 39.559 76.9207 42.2213C79.5206 43.8584 82.4336 44.5736 85.2848 44.4619C84.756 45.8882 83.9361 47.2276 82.8079 48.3811ZM94.2776 12.646L97.1074 15.7259L94.0711 18.3717C93.5884 17.9748 93.0859 17.5946 92.5426 17.2514C85.6674 12.9271 76.5972 15.0066 72.283 21.9022C71.3737 23.3574 70.7648 24.9119 70.4086 26.4952C68.1778 27.198 66.0817 28.4424 64.3315 30.2365C58.9414 35.7555 58.7653 44.4372 63.7165 50.1752L63.1159 49.584L60.4055 52.3622L57.361 49.3732L54.4697 52.3332L57.5144 55.3222L54.804 58.1003L57.7563 60.9982L60.467 58.2243L63.5115 61.2133L66.4028 58.2492L63.3582 55.2602L66.0685 52.4862L65.4676 51.8951C71.292 56.7402 79.9421 56.3805 85.3323 50.8615C87.3149 48.8317 88.5768 46.3677 89.1542 43.784C92.3657 42.7669 95.2505 40.6544 97.1804 37.5704C100.4 32.4235 100.057 26.0528 96.8192 21.3524L99.7905 18.7645L102.556 21.7865L104.117 12.4146L94.2776 12.646Z" fill="white"/>
<path d="M58.7055 99.5901L57.5315 99.6355L56.3127 102.079V103.712L55.1836 106.61L56.6737 110.095L58.6153 109.462L60.5571 102.893L61.4149 100.177L62.0469 99.681L61.3696 96.1919L58.7055 99.5901Z" fill="white"/>
<path d="M114.16 71.7801H63.6796L63.9715 70.8374L61.5039 71.7801H55.5908L55.9965 71.2881L50.1954 64.7728L47.467 60.1219L45.2848 54.9213L46.7852 54.3755L47.331 52.4615L44.603 51.0931L44.4282 51.2006V1.84792H114.16V71.7801ZM116 0H42.5878V52.3539L42.4203 52.4615L37.6466 50.4069L34.7822 50.2704L35.1915 52.7343L32.5196 53.3048L29.3896 50.7789L24.8878 49.857L25.1916 48.0214L23.8936 46.033L17.1 46.3389L14.5806 48.1745L10.9944 47.484L9.39014 50.0885L6.94653 51.0063L7.25278 54.4542L3.81703 56.1367L0 62.3378L1.52683 63.8674L0.382553 69.8411L2.67274 72.1356L4.35253 76.2696L5.80225 76.5797L8.54954 79.0271L14.4289 78.4938L19.772 76.807L21.8343 78.7956L25.1916 79.7175L24.7334 84.5378L29.0088 93.5005L27.0236 99.1642L29.5442 105.44L31.2227 112.406L33.2067 114.936L32.367 116.006L34.5303 120L36.8964 118.925L39.6453 119.235L45.6563 112.224L46.0173 109.822C46.0173 109.822 48.5141 108.834 48.5911 108.602C48.6674 108.371 47.8237 104.663 47.8237 104.663L53.6032 98.7757L53.2421 93.3392L52.9787 87.2167L61.9116 77.4975L63.1087 73.628H116V0Z" fill="white"/>
</svg>
