<svg width="96" height="120" viewBox="0 0 96 120" fill="none" xmlns="http://www.w3.org/2000/svg">
<path d="M77.4269 78.7558C72.1847 81.7663 69.5323 82.798 67.6289 82.798C60.6033 82.798 58.5488 68.9728 58.1619 66.285C57.7756 63.5972 57.4228 59.6025 55.7353 59.6025C54.0471 59.6025 53.8955 74.3272 53.8955 74.3272C54.5899 99.6814 59.1883 117.311 59.8311 118.813C60.3965 120.136 61.2907 119.263 61.3696 118.157C61.3696 118.157 61.5387 112.766 61.7613 107.432C62.0514 100.48 64.508 98.6073 65.6108 98.6073C66.713 98.6073 68.3337 99.8719 68.3337 99.8719C68.3337 99.8719 76.3711 106.84 78.7355 108.692C81.0979 110.554 81.6837 111.094 82.4492 110.485C83.2135 109.872 81.9032 108.438 81.9032 108.438C81.9032 108.438 75.4303 99.4592 75.4303 93.3375C75.4303 87.2212 81.0463 82.4541 82.8576 81.1367C84.6674 79.8193 86.3843 77.8139 85.6353 76.6553C84.8862 75.4913 82.6708 75.7452 77.4269 78.7558Z" fill="white"/>
<path d="M74.7403 72.258C74.7403 69.0729 72.1743 66.4961 69.0086 66.4961C65.8428 66.4961 63.2769 69.0729 63.2769 72.258C63.2769 75.4431 65.8428 78.0197 69.0086 78.0197C72.1743 78.0197 74.7403 75.4431 74.7403 72.258Z" fill="white"/>
<path d="M45.5576 34.5444C43.1472 34.5444 42.6451 40.2427 42.0925 44.0786C41.5419 47.9146 38.6099 67.6498 28.5824 67.6498C25.8651 67.6498 22.0799 66.1735 14.5958 61.8774C7.11438 57.5758 3.95127 57.2213 2.88217 58.8773C1.81368 60.5334 4.26446 63.4011 6.84699 65.2741C9.42878 67.1577 17.4468 73.9618 17.4468 82.6919C17.4468 91.4219 8.20765 104.242 8.20765 104.242C8.20765 104.242 6.33744 106.289 7.42907 107.162C8.52144 108.035 9.35672 107.258 12.7314 104.612C16.1039 101.961 27.5737 92.0144 27.5737 92.0144C27.5737 92.0144 29.8872 90.2049 31.4621 90.2049C33.0366 90.2049 36.5417 92.8822 36.9571 102.803C37.2749 110.416 37.5145 118.115 37.5145 118.115C37.626 119.691 38.9062 120.935 39.7117 119.051C40.6265 116.903 47.1931 91.7446 48.181 55.5599C48.181 55.5599 47.9648 34.5444 45.5576 34.5444Z" fill="white"/>
<path d="M34.794 52.6078C34.794 48.063 31.1315 44.3804 26.6135 44.3804C22.0956 44.3804 18.4326 48.063 18.4326 52.6078C18.4326 57.1473 22.0956 60.8299 26.6135 60.8299C31.1315 60.8299 34.794 57.1473 34.794 52.6078Z" fill="white"/>
<path d="M48.0007 0C21.5333 0 0 21.6453 0 48.2479C0 48.8987 0.526418 49.4278 1.17489 49.4278C1.82395 49.4278 2.35037 48.8987 2.35037 48.2479C2.35037 22.9468 22.8292 2.36501 48.0007 2.36501C73.1718 2.36501 93.6496 22.9468 93.6496 48.2479C93.6496 55.0679 92.1974 61.6288 89.3349 67.7503C89.0586 68.3376 89.3112 69.0413 89.8976 69.3218C90.0598 69.3959 90.2297 69.4328 90.3971 69.4328C90.8388 69.4328 91.2609 69.1789 91.4615 68.7556C94.4724 62.3218 96 55.4225 96 48.2479C96 21.6453 74.4668 0 48.0007 0Z" fill="white"/>
</svg>
