<svg width="115" height="120" viewBox="0 0 115 120" fill="none" xmlns="http://www.w3.org/2000/svg">
<path d="M73.6187 67.2552L73.9906 69.1716L73.6437 69.4455L73.1726 70.9389L72.1068 74.548L71.0411 74.8964L70.223 72.98L70.8427 71.387V70.4909L71.5118 69.1469L72.1565 69.1222L73.6187 67.2552ZM69.3554 68.6738L66.1828 71.9094C66.1828 71.9094 66.6462 73.9483 66.604 74.0754C66.5618 74.202 65.1913 74.7474 65.1913 74.7474L64.9928 76.0668L61.6932 79.9189L60.1842 79.7503L58.8852 80.3399L57.698 78.1456L58.1585 77.5565L57.0696 76.1674L56.1481 72.3379L54.7644 68.888L55.8545 65.774L53.5075 60.8497L53.7588 58.1999L51.9159 57.6941L50.7839 56.5997L47.8506 57.526L44.6234 57.8208L43.1152 56.4744L42.319 56.3054L41.3971 54.0328L40.1398 52.7702L40.7682 49.4885L39.9297 48.6466L42.0249 45.2387L43.9114 44.3124L43.7432 42.4194L45.0843 41.9131L45.965 40.4835L47.9337 40.8611L49.317 39.8523L53.0461 39.6838L53.7588 40.7782L53.5919 41.7878L56.0633 42.2926L57.7814 43.6818L59.2479 43.368L59.0235 42.0146L60.596 42.0896L63.2167 43.2175L64.4146 42.4658L65.9125 43.2175L65.6129 44.2704L64.7888 44.5708L65.9872 47.4283L67.4846 49.9845L70.6692 53.5657L70.0988 54.2623L71.4794 54.6862L75.047 53.3175L73.9165 56.9793L69.0127 62.3222L69.1574 65.6872L69.3554 68.6738ZM75.9871 21.0303L72.56 13.7324C72.4319 13.4605 72.4278 13.1466 72.5484 12.8704C72.6684 12.5957 72.9018 12.3862 73.1874 12.2963L80.3603 10.045C80.9075 9.87329 81.4882 10.1806 81.657 10.7274C81.8276 11.2759 81.5234 11.8595 80.9776 12.0299L76.4718 13.4442C89.935 19.0213 100.323 30.0099 105.123 43.8853C105.31 44.4283 105.024 45.0198 104.484 45.2079C104.372 45.247 104.257 45.2661 104.145 45.2661C103.716 45.2661 103.315 44.9969 103.167 44.5675C98.5529 31.2292 88.5549 20.6722 75.6012 15.3339L77.8597 20.1423C78.1037 20.6621 77.882 21.2818 77.3649 21.5272C77.2225 21.5948 77.0728 21.626 76.9244 21.626C76.5358 21.626 76.1637 21.4053 75.9871 21.0303ZM107.597 82.9819C107.777 83.5272 107.483 84.1149 106.94 84.296C106.832 84.3329 106.722 84.3491 106.614 84.3491C106.18 84.3491 105.776 84.0725 105.632 83.6371L104.145 79.1376C98.8233 92.7512 88.061 103.37 74.3287 108.427C74.2104 108.469 74.0904 108.493 73.9721 108.493C73.5501 108.493 73.1535 108.232 73.0001 107.808C72.8029 107.272 73.079 106.672 73.6154 106.476C86.8158 101.614 97.1552 91.3946 102.25 78.2955L97.4989 80.6468C96.9878 80.901 96.3658 80.6901 96.1126 80.1728C95.86 79.6586 96.0704 79.036 96.5834 78.7813L103.791 75.2145C104.06 75.0804 104.373 75.0725 104.648 75.1889C104.925 75.3039 105.137 75.534 105.232 75.8199L107.597 82.9819ZM42.7615 107.524C42.8963 107.794 42.9093 108.106 42.7962 108.386C42.683 108.665 42.4558 108.879 42.1729 108.977L35.0654 111.426C34.9546 111.464 34.8414 111.482 34.7302 111.482C34.3002 111.482 33.8976 111.208 33.7507 110.779C33.5652 110.234 33.8536 109.643 34.3943 109.457L38.8579 107.92C25.2495 102.709 14.5702 92.007 9.39938 78.2685C9.1972 77.7306 9.46656 77.1313 10.0022 76.9283C10.5356 76.7252 11.1329 76.9944 11.3364 77.5318C16.3075 90.7403 26.5848 101.021 39.6778 106.006L37.2895 101.263C37.0317 100.751 37.2367 100.126 37.7469 99.867C38.2556 99.6034 38.8807 99.8116 39.1381 100.326L42.7615 107.524ZM7.19286 36.2917C7.02959 35.7403 7.34167 35.1623 7.88932 34.9984C8.4375 34.8364 9.01447 35.1493 9.17669 35.6984L10.5222 40.2421C16.2648 26.8021 27.3537 16.5276 41.2389 11.9056C41.7792 11.7184 42.3672 12.0192 42.5472 12.5649C42.7271 13.1103 42.4331 13.6989 41.89 13.8792C28.5431 18.3223 17.8912 28.2104 12.3915 41.1428L17.2109 38.942C17.7316 38.704 18.3461 38.9354 18.5821 39.4579C18.8186 39.9805 18.5887 40.5975 18.0684 40.8345L10.7539 44.174C10.6181 44.2359 10.4716 44.2672 10.3255 44.2672C10.1789 44.2672 10.0324 44.2359 9.89603 44.174C9.62378 44.0493 9.41831 43.8122 9.33352 43.5239L7.19286 36.2917ZM66.0507 17.9358C66.0507 18.9036 65.5308 19.7823 64.5644 19.7823H50.3372C49.3708 19.7823 48.8505 18.9036 48.8505 17.9358C48.8505 13.7641 53.2038 9.06804 57.4503 9.06804C61.6965 9.06804 66.0507 13.6756 66.0507 17.9358ZM53.5117 3.79828C53.5117 1.70964 55.2137 0 57.2945 0C59.3741 0 61.0746 1.70964 61.0746 3.79828C61.0746 5.8873 59.3741 7.59549 57.2945 7.59549C55.2137 7.59549 53.5117 5.8873 53.5117 3.79828ZM66.0507 118.151C66.0507 119.124 65.5308 120 64.5644 120H50.3372C49.3708 120 48.8505 119.124 48.8505 118.151C48.8505 113.978 53.2038 109.284 57.4503 109.284C61.6965 109.284 66.0507 113.895 66.0507 118.151ZM57.2945 107.813C55.2137 107.813 53.5117 106.104 53.5117 104.015C53.5117 101.926 55.2137 100.216 57.2945 100.216C59.3741 100.216 61.0746 101.926 61.0746 104.015C61.0746 106.104 59.3741 107.813 57.2945 107.813ZM115 66.7379C115 67.7084 114.48 68.5857 113.514 68.5857H99.2852C98.3188 68.5857 97.7979 67.7084 97.7979 66.7379C97.7979 62.569 102.152 57.8716 106.399 57.8716C110.645 57.8716 115 62.4792 115 66.7379ZM106.242 48.8035C108.322 48.8035 110.024 50.5117 110.024 52.6004C110.024 54.689 108.322 56.399 106.242 56.399C104.162 56.399 102.461 54.689 102.461 52.6004C102.461 50.5117 104.162 48.8035 106.242 48.8035ZM15.7133 68.5857H1.48679C0.519786 68.5857 0 67.7084 0 66.7379C0 62.569 4.35179 57.8716 8.59933 57.8716C12.8456 57.8716 17.2006 62.4792 17.2006 66.7379C17.2006 67.7084 16.6798 68.5857 15.7133 68.5857ZM4.66111 52.6004C4.66111 50.5117 6.3627 48.8035 8.44355 48.8035C10.5235 48.8035 12.224 50.5117 12.224 52.6004C12.224 54.689 10.5235 56.399 8.44355 56.399C6.3627 56.399 4.66111 54.689 4.66111 52.6004ZM56.2228 77.3282L56.4027 77.5574L56.2228 77.7875V77.3282ZM82.4912 78.4246C79.2255 77.5233 76.1531 76.7741 73.0506 76.193C73.0988 76.0193 73.1331 75.8306 73.1795 75.655L70.2685 76.606L69.8665 75.6644C68.9997 75.5382 68.12 75.4236 67.2258 75.3253C67.0218 75.4544 66.7802 75.5837 66.4393 75.7315L66.2984 76.667L65.779 77.2733C67.3501 77.4218 68.8806 77.6016 70.3668 77.8345C68.0156 84.859 64.2871 89.89 59.9588 91.3895C59.4075 91.4379 58.8523 91.47 58.293 91.4886V82.1287L58.2837 82.1328L56.2228 78.3212V91.4886C55.6635 91.47 55.1084 91.4379 54.5571 91.3895C50.2158 89.8858 46.4788 84.8283 44.129 77.772C47.8623 77.203 51.6428 76.938 55.8791 76.8901L55.7984 76.7877L55.3263 74.8238C51.0894 74.8918 47.2807 75.1763 43.5155 75.7659C42.3148 71.5025 41.5992 66.6294 41.5143 61.4411H52.2581L52.0963 61.1012L52.2619 59.3618H41.5143C41.524 58.754 41.5732 58.1677 41.6002 57.5689L41.3169 57.5083L40.2238 54.8147L39.7382 54.3266C39.5846 55.9687 39.4705 57.6391 39.4437 59.3618H26.298C26.5105 52.9073 28.6865 46.9454 32.2494 42.0603C35.2991 42.9008 38.1813 43.5979 41.0789 44.1596L42.4521 43.4862L42.3125 41.9126C42.2722 42.0305 42.2263 42.1421 42.1863 42.261C39.3694 41.7408 36.5773 41.0776 33.6463 40.285C37.6606 35.5419 43.0605 32.0199 49.2146 30.3574C46.4863 32.8954 44.1846 36.7145 42.4947 41.4092L44.1587 40.7814L45.2907 38.9433L45.7114 39.0239C48.0093 34.0824 51.0904 30.6139 54.5571 29.4129C55.1084 29.3649 55.6635 29.3323 56.2228 29.3137V40.91L56.668 41.0008L57.5774 41.737L57.3798 40.5485L58.293 40.592V29.3137C58.8523 29.3323 59.4075 29.3649 59.9588 29.4129C64.2402 30.8966 67.9345 35.8335 70.2898 42.7388C69.3253 42.8818 68.357 43.0047 67.3789 43.109L66.7713 45.2442C68.1673 45.1096 69.5488 44.9522 70.916 44.7431C71.6338 47.2309 72.163 49.9496 72.5201 52.8034L74.5295 52.0326C74.1743 49.3363 73.6642 46.7684 72.9917 44.3901C75.9783 43.8472 79.028 43.1067 82.3276 42.1469C85.8535 47.0161 88.0057 52.9454 88.2173 59.3618H75.0721C75.0637 58.8453 75.022 58.3502 75.0026 57.8408L71.6988 61.4411H73.0019C72.9755 63.0501 72.8688 64.6148 72.7251 66.1544L74.3974 64.0196L74.8114 66.152C74.9474 64.6139 75.047 63.0501 75.0721 61.4411H88.2173C88.0094 67.7569 85.9194 73.5994 82.4912 78.4246ZM65.3012 90.4455C68.2605 87.6929 70.7286 83.4489 72.4455 78.1982C75.311 78.7258 78.1492 79.4016 81.1339 80.2105C77.0946 85.1111 71.5893 88.7467 65.3012 90.4455ZM33.3661 80.1923C36.4186 79.3168 39.2619 78.6328 42.0463 78.126C43.7641 83.4108 46.2423 87.6798 49.2146 90.446C42.9185 88.7448 37.4069 85.1021 33.3661 80.1923ZM26.298 61.4411H39.4437C39.5263 66.764 40.2358 71.7381 41.4453 76.1175C38.435 76.6753 35.3589 77.4345 32.0177 78.4157C28.5932 73.5924 26.5059 67.7532 26.298 61.4411ZM80.9492 40.3781C77.9395 41.2304 75.1296 41.893 72.3712 42.3848C70.6576 37.2361 68.2187 33.0713 65.3012 30.3574C71.4961 32.031 76.9271 35.5875 80.9492 40.3781ZM57.2578 26.5153C38.6497 26.5153 23.511 41.7171 23.511 60.4012C23.511 79.0858 38.6497 94.2875 57.2578 94.2875C75.866 94.2875 91.0044 79.0858 91.0044 60.4012C91.0044 41.7171 75.866 26.5153 57.2578 26.5153Z" fill="white"/>
</svg>
