<svg width="100" height="120" viewBox="0 0 100 120" fill="none" xmlns="http://www.w3.org/2000/svg">
<path d="M64.5644 76.5586L49.9119 105.214L35.2602 76.5586C14.8455 82.2574 0 99.5477 0 120H99.8236C99.8236 99.5477 84.9791 82.2574 64.5644 76.5586Z" fill="white"/>
<path d="M91.3385 13.2569L97.5701 11.7132L51.7051 0L5.20801 11.5924L51.2183 23.1953L88.9834 13.8403V29.7403C88.1607 30.456 87.0425 31.9623 87.1491 34.8336C87.2197 36.7091 88.4839 38.8764 89.3853 40.1934C89.8136 40.8194 90.7334 40.801 91.1407 40.1617C92.021 38.7815 93.2472 36.4986 93.1771 34.6084C93.0901 32.274 92.1865 30.9117 91.3385 30.1305V13.2569Z" fill="white"/>
<path d="M78.738 51.9072C74.2795 52.5634 70.6752 50.9605 68.0464 47.0875C67.0406 45.6071 65.5052 44.6398 63.7224 44.3633C61.9282 44.0848 60.0779 44.5701 58.6492 45.6951C45.3204 56.181 27.2322 52.5544 23.6325 51.6914C23.133 49.7405 22.8402 47.7157 22.8402 45.6255C22.8402 39.9703 24.7333 34.8157 28.4232 30.2683C31.6658 34.2029 40.1986 36.9023 50.5557 36.9023C61.2515 36.9023 70.3044 33.8501 73.4004 29.6365C77.384 34.4894 79.5897 40.128 79.5897 45.6255C79.5897 47.7938 79.2738 49.8897 78.738 51.9072ZM51.215 71.929C38.8515 71.929 28.3377 64.5481 24.4585 54.299C26.7322 54.7774 30.6341 55.413 35.3357 55.413C42.746 55.413 52.1158 53.8302 60.1054 47.5459C61.0226 46.8233 62.2045 46.5079 63.3617 46.6904C64.492 46.8659 65.464 47.4762 66.0981 48.4103C68.1819 51.4794 71.8824 54.8281 77.9409 54.3772C74.038 64.585 63.548 71.929 51.215 71.929ZM74.4247 27.5051C74.5048 27.1558 74.5476 26.803 74.5476 26.4449V19.8421L51.213 25.6222L27.0012 19.5166V26.7191C27.0012 27.1692 27.0851 27.608 27.2063 28.0393C22.7574 33.1907 20.4854 39.1012 20.4854 45.6255C20.4854 61.4278 34.2703 74.2839 51.215 74.2839C68.1598 74.2839 81.9448 61.4278 81.9448 45.6255C81.9448 39.2857 79.3328 32.7989 74.5902 27.3601L74.4247 27.5051Z" fill="white"/>
</svg>
