<svg width="120" height="120" viewBox="0 0 120 120" fill="none" xmlns="http://www.w3.org/2000/svg">
<path d="M77.4324 67.4957C77.1005 66.3689 76.6954 65.3892 76.2226 64.5548C75.7479 63.7231 75.0681 62.9102 74.1836 62.1153C73.3006 61.3203 72.5057 60.6794 71.8008 60.1933C71.0958 59.7048 70.128 59.161 68.8972 58.5574C67.6664 57.9559 66.6945 57.5062 65.9758 57.2116C65.2586 56.9169 64.2192 56.5132 62.8625 56.0018C61.6572 55.5408 60.7605 55.1883 60.1682 54.9438C59.5809 54.6998 58.8044 54.3541 57.8437 53.9049C56.8825 53.4578 56.1638 53.0593 55.6911 52.7135C55.217 52.3677 54.7094 51.9461 54.1729 51.4465C53.6336 50.9462 53.2562 50.4141 53.0366 49.8493C52.8203 49.2872 52.7098 48.6723 52.7098 48.0037C52.7098 46.2619 53.4792 44.8393 55.0189 43.7359C56.5556 42.6344 58.5425 42.084 60.977 42.084C62.0537 42.084 63.1505 42.2319 64.2662 42.5266C65.3788 42.8216 66.3348 43.1531 67.1279 43.5267C67.9248 43.8974 68.6736 44.3072 69.3791 44.7569C70.0841 45.2039 70.5848 45.5447 70.8795 45.7754C71.1741 46.0061 71.3609 46.1601 71.4372 46.2362C71.7707 46.492 72.1143 46.5821 72.474 46.5058C72.8587 46.4803 73.1533 46.2751 73.3585 45.8905L76.4738 40.2772C76.7802 39.7636 76.7158 39.2771 76.2805 38.8163C76.1259 38.6617 75.9351 38.4822 75.704 38.2766C75.4743 38.0724 74.974 37.7011 74.204 37.1625C73.4346 36.6253 72.6213 36.143 71.764 35.7188C70.9051 35.2979 69.7895 34.8692 68.4184 34.4338C67.047 33.996 65.63 33.7034 64.1695 33.5488V26.7811C64.1695 26.4219 64.0535 26.1263 63.8238 25.8961C63.5931 25.6659 63.2978 25.5503 62.9388 25.5503H57.747C57.4145 25.5503 57.127 25.6725 56.8825 25.9166C56.6385 26.1586 56.5168 26.447 56.5168 26.7811V33.7008C52.4929 34.4702 49.2262 36.1869 46.7119 38.8531C44.2023 41.5193 42.9438 44.6209 42.9438 48.1577C42.9438 49.2089 43.0549 50.209 43.2712 51.1559C43.4902 52.1058 43.7598 52.958 44.0799 53.7136C44.4002 54.4697 44.8545 55.2134 45.4438 55.9444C46.0336 56.6745 46.5917 57.3016 47.1171 57.827C47.6424 58.3523 48.3295 58.8981 49.175 59.4608C50.0201 60.0256 50.744 60.4813 51.3456 60.8267C51.9497 61.1724 52.7487 61.5694 53.7482 62.0185C54.7489 62.4651 55.5377 62.8059 56.1131 63.037C56.6917 63.2678 57.4795 63.5881 58.4796 63.9977C59.8628 64.537 60.8874 64.9519 61.556 65.2465C62.222 65.5416 63.0671 65.9514 64.0933 66.4772C65.1184 67.0031 65.8669 67.4839 66.3421 67.9198C66.8168 68.3551 67.2449 68.8922 67.6302 69.5352C68.0149 70.1757 68.2082 70.853 68.2082 71.5718C68.2082 73.597 67.4204 75.1597 65.8418 76.2611C64.2662 77.3645 62.441 77.916 60.3641 77.916C59.4152 77.916 58.4678 77.8142 57.5189 77.6065C54.1871 76.9405 51.0734 75.3398 48.1769 72.8025L48.0988 72.7243C47.8685 72.4424 47.5595 72.3279 47.1774 72.3785C46.7672 72.4317 46.4725 72.5841 46.292 72.8419L42.331 78.0311C41.9463 78.5447 41.9744 79.07 42.4093 79.6072C42.5362 79.7616 42.7623 79.9918 43.082 80.3009C43.4022 80.6067 43.9992 81.0891 44.8708 81.7434C45.7415 82.3971 46.6889 83.0104 47.7141 83.5886C48.7391 84.1645 50.0411 84.7338 51.6172 85.2986C53.1933 85.8634 54.8276 86.2593 56.5208 86.49V93.219C56.5208 93.553 56.6411 93.8405 56.8851 94.085C57.1296 94.327 57.4171 94.4492 57.7521 94.4492H62.9408C63.2999 94.4492 63.5951 94.3341 63.8262 94.1034C64.0559 93.8733 64.1705 93.5786 64.1705 93.219V86.49C68.2476 85.8246 71.5614 84.0751 74.1119 81.2411C76.6606 78.4085 77.9373 75.0334 77.9373 71.1114C77.9347 69.8298 77.7686 68.6247 77.4324 67.4957Z" fill="white"/>
<path d="M59.9995 2.28414C28.1751 2.28414 2.28398 28.1746 2.28398 59.9995C2.28398 91.8245 28.1751 117.713 59.9995 117.713C91.8235 117.713 117.714 91.8245 117.714 59.9995C117.714 28.1746 91.8235 2.28414 59.9995 2.28414ZM59.9995 120C26.9155 120 0 93.0845 0 59.9995C0 26.9151 26.9155 0 59.9995 0C93.0829 0 119.998 26.9151 119.998 59.9995C119.998 93.0845 93.0829 120 59.9995 120Z" fill="white"/>
</svg>
