<svg width="169" height="120" viewBox="0 0 169 120" fill="none" xmlns="http://www.w3.org/2000/svg">
<path d="M137.098 97.3295C137.114 97.3182 137.13 97.3069 137.141 97.2956C137.254 97.2011 137.372 97.1111 137.49 97.0264C137.506 97.0168 137.517 97.0081 137.533 96.9989C137.657 96.9165 137.775 96.8361 137.904 96.7638C137.926 96.751 137.952 96.7412 137.974 96.7294C138.092 96.6625 138.216 96.5983 138.345 96.5418C138.393 96.5196 138.442 96.5029 138.49 96.4824C138.592 96.4393 138.694 96.3956 138.802 96.3594C138.963 96.3046 139.125 96.2581 139.291 96.2199C139.302 96.1896 139.313 96.1599 139.329 96.1309C139.243 95.9093 139.178 95.6979 139.13 95.4897C139.087 95.292 139.055 95.0945 139.033 94.8972C139.028 94.8502 139.028 94.8039 139.022 94.7564C139.006 94.5985 139.001 94.4415 139.001 94.2852C139.001 94.2389 139.001 94.1941 139.006 94.1488C139.012 93.9789 139.022 93.8112 139.044 93.6441C139.049 93.615 139.049 93.5859 139.055 93.5573C139.087 93.3551 139.125 93.1544 139.178 92.9582C139.103 92.825 139.012 92.6892 138.91 92.5495C137.963 92.2783 137.119 91.7602 136.474 91.0365C136.324 91.0111 136.184 91.0096 136.039 91.0015C135.931 90.9961 135.823 90.9827 135.721 90.9863C135.496 90.9929 135.27 91.0181 135.055 91.0689C134.824 91.1228 134.603 91.2015 134.394 91.2954C134.329 91.3244 134.27 91.3605 134.205 91.394C134.066 91.4641 133.931 91.5401 133.807 91.6258C133.732 91.6766 133.662 91.7305 133.592 91.7854C133.49 91.8669 133.394 91.9537 133.302 92.0448C133.227 92.116 133.157 92.1877 133.092 92.2653C132.969 92.4066 132.851 92.5511 132.754 92.7086C132.732 92.7376 132.721 92.7673 132.7 92.7969C132.603 92.9614 132.517 93.1329 132.447 93.312C132.431 93.3427 132.421 93.3728 132.41 93.4025C132.334 93.6004 132.275 93.8058 132.238 94.0151C132.232 94.0501 132.227 94.0857 132.221 94.1213C132.184 94.3338 132.168 94.5499 132.173 94.7683C132.173 94.7975 132.173 94.8272 132.179 94.8568C132.184 95.0859 132.211 95.3172 132.265 95.5486C132.313 95.7621 132.388 95.9658 132.469 96.1648C132.485 96.1972 132.496 96.229 132.512 96.2602C132.598 96.4479 132.7 96.6275 132.818 96.8005C132.829 96.8156 132.84 96.8312 132.851 96.847C133.076 96.9116 133.291 96.9942 133.506 97.0874C133.528 97.096 133.544 97.1041 133.566 97.1138C133.996 97.3073 134.394 97.5586 134.759 97.86C134.775 97.8741 134.791 97.8881 134.807 97.9016C134.985 98.0547 135.157 98.2164 135.313 98.3933C135.587 98.4353 135.856 98.4483 136.13 98.4306C136.141 98.4068 136.162 98.3858 136.178 98.3632C136.248 98.2559 136.324 98.1512 136.404 98.0499C136.426 98.0245 136.447 98.0003 136.469 97.975C136.555 97.8709 136.641 97.7695 136.738 97.6725C136.754 97.6541 136.775 97.6373 136.791 97.6196C136.888 97.5187 136.99 97.4212 137.098 97.3295ZM128.195 97.7841C128.222 97.763 128.249 97.741 128.275 97.7205C128.458 97.5786 128.652 97.447 128.856 97.3301C128.867 97.3257 128.878 97.3214 128.883 97.3154C129.071 97.2113 129.265 97.1203 129.464 97.0383C129.512 97.0195 129.555 97.0012 129.603 96.9839C129.813 96.9041 130.028 96.8334 130.254 96.7811C130.496 96.7246 130.743 96.6928 130.985 96.6717C131.007 96.6695 131.033 96.6625 131.055 96.6604C131.044 96.6335 131.039 96.6049 131.028 96.5774C130.942 96.353 130.867 96.1228 130.813 95.885C130.775 95.7113 130.743 95.5373 130.722 95.363C130.716 95.328 130.716 95.293 130.711 95.2579C130.695 95.1183 130.684 94.9786 130.679 94.8389C130.679 94.8174 130.684 94.7958 130.684 94.7743C130.679 94.6216 130.684 94.4701 130.695 94.318C130.695 94.317 130.695 94.3144 130.695 94.3127C130.732 93.8069 130.845 93.3103 131.028 92.837C131.028 92.8336 131.028 92.8299 131.028 92.8267C131.087 92.6768 131.152 92.5279 131.227 92.3839C131.297 92.2406 131.372 92.1009 131.458 91.9656C131.41 91.9234 131.367 91.8722 131.318 91.8334C131.297 91.8184 131.281 91.8022 131.259 91.7871C130.636 91.3191 129.872 91.0505 129.076 91.0397L128.921 91.0376C128.679 91.0457 128.431 91.0706 128.189 91.1276C128.076 91.1525 127.974 91.1854 127.867 91.2204C127.851 91.2372 127.835 91.25 127.818 91.2651C127.743 91.3331 127.668 91.3978 127.593 91.462C127.517 91.5218 127.448 91.5785 127.372 91.6339C127.297 91.6894 127.222 91.7461 127.141 91.798C127.044 91.8647 126.937 91.9234 126.835 91.9823C126.711 92.0535 126.582 92.1188 126.448 92.1796C126.383 92.2082 126.324 92.2416 126.259 92.2681C126.163 92.3699 126.082 92.4821 126.001 92.5938L125.964 92.6514C125.706 93.0256 125.523 93.4387 125.415 93.8684C125.41 93.8986 125.405 93.9309 125.399 93.9622C125.362 94.1331 125.335 94.3056 125.319 94.4793C125.319 94.5386 125.313 94.5968 125.313 94.6567C125.308 94.812 125.313 94.9688 125.329 95.1247C125.378 95.5981 125.501 96.0716 125.743 96.5181C125.781 96.5422 125.813 96.5714 125.845 96.5972C125.915 96.6474 125.98 96.6992 126.05 96.7531C126.109 96.8043 126.173 96.8561 126.233 96.9095C126.302 96.9703 126.367 97.0335 126.431 97.0983C126.485 97.151 126.539 97.2045 126.593 97.26C126.657 97.3289 126.716 97.4001 126.781 97.4735C126.829 97.5317 126.872 97.591 126.921 97.6503C126.974 97.7252 127.028 97.8003 127.082 97.8773C127.109 97.9135 127.136 97.9474 127.157 97.9841C127.329 98.0855 127.507 98.1723 127.684 98.2435C127.695 98.2273 127.716 98.2143 127.732 98.1998C127.878 98.052 128.028 97.9135 128.195 97.7841ZM134.157 99.3612C134.076 99.2738 134.001 99.1832 133.915 99.1045C133.834 99.0334 133.748 98.9752 133.662 98.9114C133.49 98.7783 133.302 98.6614 133.103 98.5616C133.012 98.5125 132.92 98.4592 132.818 98.4187C132.711 98.3749 132.598 98.3464 132.485 98.313C132.383 98.2817 132.281 98.2483 132.173 98.2267C132.098 98.2094 132.017 98.1977 131.942 98.1863C131.754 98.1599 131.566 98.1416 131.378 98.1442C131.34 98.1442 131.302 98.1497 131.259 98.1512C131.039 98.161 130.813 98.1847 130.593 98.2365C130.356 98.2909 130.136 98.3702 129.92 98.4639C129.861 98.4914 129.802 98.527 129.743 98.5578C129.598 98.6317 129.458 98.7115 129.324 98.8031C129.259 98.85 129.195 98.9012 129.13 98.9519C129.017 99.0398 128.91 99.1341 128.813 99.2345C128.749 99.3013 128.684 99.3698 128.619 99.4415C128.34 99.7667 128.114 100.131 127.958 100.531L127.947 100.554C127.878 100.747 127.824 100.949 127.781 101.152C127.77 101.206 127.765 101.26 127.754 101.314C127.727 101.504 127.711 101.696 127.711 101.891C127.711 101.953 127.716 102.014 127.722 102.074C127.732 102.288 127.754 102.501 127.802 102.716C128.265 104.722 130.27 105.978 132.27 105.514C134.27 105.05 135.517 103.04 135.055 101.034C134.904 100.382 134.582 99.8205 134.157 99.3612ZM142.56 103.337C142.544 103.296 142.528 103.255 142.512 103.214C142.409 102.963 142.323 102.703 142.259 102.431C142.205 102.191 142.173 101.951 142.151 101.711C142.146 101.652 142.141 101.592 142.135 101.531C142.124 101.3 142.124 101.07 142.141 100.842C142.146 100.797 142.151 100.754 142.157 100.709C142.178 100.516 142.21 100.325 142.254 100.137C142.264 100.073 142.275 100.009 142.297 99.9446C142.35 99.729 142.42 99.517 142.501 99.3105C142.512 99.2917 142.512 99.2717 142.522 99.2529C142.431 99.2215 142.345 99.1763 142.259 99.1401C142.146 99.0948 142.033 99.0511 141.926 98.9978C141.818 98.9455 141.716 98.883 141.614 98.8231C141.495 98.754 141.377 98.6889 141.264 98.61C141.194 98.5643 141.135 98.5104 141.071 98.4607C140.737 98.2062 140.426 97.9232 140.162 97.5964C139.974 97.6094 139.802 97.6347 139.635 97.6735C139.383 97.7322 139.135 97.818 138.904 97.927C138.888 97.9351 138.872 97.9464 138.856 97.9539C138.646 98.0573 138.442 98.1787 138.254 98.3201C138.221 98.3427 138.194 98.3724 138.168 98.3961C138.001 98.5287 137.84 98.6716 137.7 98.8306C137.657 98.8775 137.624 98.9298 137.587 98.9778C137.469 99.1249 137.356 99.277 137.264 99.4426C136.802 100.235 136.625 101.192 136.845 102.153C137.307 104.159 139.307 105.414 141.313 104.951C141.931 104.807 142.495 104.512 142.958 104.089C142.947 104.073 142.942 104.055 142.931 104.039C142.791 103.816 142.667 103.583 142.56 103.337ZM150.968 100.413C150.619 98.9093 149.409 97.8282 147.979 97.5754L147.963 97.5743C147.834 97.5516 147.694 97.5522 147.56 97.5441C147.436 97.5355 147.312 97.5236 147.189 97.5279C146.958 97.5366 146.732 97.5614 146.501 97.6153C146.259 97.6704 146.033 97.7517 145.813 97.8476C145.716 97.8914 145.63 97.9523 145.538 98.0029C145.425 98.0671 145.307 98.1264 145.2 98.2013C145.098 98.2768 145.001 98.3675 144.899 98.4543C144.823 98.5221 144.743 98.5853 144.673 98.658C144.571 98.7638 144.479 98.883 144.393 99.001C144.329 99.0851 144.259 99.1627 144.2 99.2523C144.157 99.3175 144.13 99.3898 144.092 99.4577C144.022 99.5774 143.958 99.6993 143.909 99.8271C143.861 99.937 143.829 100.051 143.796 100.165C143.77 100.246 143.743 100.328 143.727 100.411C143.694 100.556 143.667 100.701 143.651 100.847C143.646 100.894 143.646 100.942 143.64 100.989C143.608 101.488 143.673 101.992 143.834 102.47C143.861 102.539 143.882 102.611 143.909 102.679C143.952 102.793 144.011 102.901 144.071 103.012C144.119 103.108 144.173 103.203 144.232 103.294C144.291 103.382 144.35 103.468 144.42 103.552C145.28 104.653 146.726 105.228 148.178 104.892C150.178 104.428 151.431 102.419 150.968 100.413ZM144.538 96.8513C144.565 96.8323 144.592 96.8114 144.624 96.7924C144.834 96.6636 145.06 96.5488 145.291 96.4501C145.334 96.4306 145.382 96.4144 145.425 96.3961C145.662 96.3024 145.909 96.2188 146.162 96.1599C146.372 96.1115 146.581 96.0808 146.786 96.058C146.829 96.0533 146.872 96.0511 146.915 96.0484C147.097 96.0332 147.28 96.0279 147.468 96.0322C147.479 96.0328 147.495 96.0306 147.511 96.0311C147.92 95.2427 148.038 94.3487 147.839 93.4716C147.436 91.7327 145.877 90.562 144.162 90.5819C144.119 90.583 144.071 90.5885 144.028 90.59C143.807 90.6013 143.592 90.6229 143.372 90.6742C142.77 90.8127 142.248 91.1045 141.807 91.4808C141.694 91.5779 141.576 91.6695 141.479 91.7807C141.431 91.8302 141.399 91.889 141.356 91.9407C141.243 92.0799 141.124 92.2206 141.033 92.3786C140.796 92.7625 140.635 93.1885 140.549 93.636C140.538 93.6926 140.538 93.7508 140.533 93.808C140.506 93.9675 140.495 94.1299 140.495 94.295C140.495 94.3628 140.495 94.4313 140.501 94.4998C140.512 94.7165 140.533 94.9349 140.581 95.1538C140.614 95.2843 140.657 95.4106 140.7 95.5367C140.727 95.6181 140.759 95.7017 140.796 95.7911C140.888 95.9933 140.996 96.1859 141.114 96.3681L141.146 96.4166C141.296 96.6367 141.469 96.8372 141.657 97.0179C141.657 97.0179 141.662 97.0183 141.662 97.0195C141.839 97.1915 142.038 97.3414 142.248 97.4729C142.264 97.482 142.275 97.4929 142.291 97.5014C142.49 97.6245 142.705 97.7258 142.925 97.8084C142.969 97.8239 143.017 97.8363 143.06 97.8504C143.146 97.88 143.243 97.8935 143.334 97.9167C143.34 97.9101 143.345 97.9048 143.35 97.8978C143.689 97.4939 144.087 97.1403 144.538 96.8513ZM130.458 84.8498C130.292 84.9834 130.136 85.1269 129.99 85.2865C129.953 85.3324 129.92 85.3846 129.878 85.4322C129.765 85.5804 129.652 85.733 129.555 85.8985C129.453 86.0704 129.361 86.2447 129.286 86.4301V86.435C129.211 86.6399 129.152 86.8539 129.109 87.0713C129.098 87.1312 129.093 87.1926 129.087 87.253C129.06 87.4136 129.05 87.5776 129.05 87.7426C129.05 87.8083 129.05 87.8741 129.05 87.9399C129.06 88.1621 129.082 88.3848 129.136 88.608C129.211 88.9375 129.34 89.2594 129.512 89.5699C129.517 89.571 129.517 89.5721 129.523 89.5721C129.775 89.5958 130.028 89.6405 130.275 89.702C130.297 89.7073 130.318 89.7133 130.345 89.7193C130.571 89.7792 130.791 89.853 131.007 89.942C131.039 89.9565 131.076 89.9699 131.109 89.9846C131.308 90.0714 131.496 90.1717 131.684 90.2827C131.727 90.3086 131.77 90.3323 131.813 90.3592C131.985 90.4682 132.146 90.59 132.308 90.7212C132.345 90.7508 132.388 90.7745 132.426 90.8063C132.426 90.8057 132.426 90.8042 132.426 90.8031C132.571 90.6726 132.727 90.5518 132.888 90.4379C132.942 90.3991 133.001 90.3641 133.055 90.3274C133.162 90.2564 133.275 90.189 133.388 90.1263C133.458 90.0892 133.523 90.0535 133.592 90.0201C133.711 89.9614 133.829 89.9096 133.953 89.8605C134.017 89.8351 134.076 89.8076 134.141 89.7856C134.329 89.7187 134.523 89.6593 134.716 89.6135C134.958 89.5576 135.205 89.5273 135.447 89.5085C135.474 89.5062 135.496 89.4993 135.523 89.497C135.42 89.2447 135.34 88.9838 135.275 88.7174C135.216 88.4608 135.184 88.2041 135.162 87.9497C135.157 87.901 135.157 87.8537 135.152 87.8057C135.141 87.5527 135.146 87.3014 135.168 87.0529C135.173 87.0184 135.178 86.9851 135.184 86.9499C135.243 86.4166 135.383 85.9023 135.598 85.4196C135.603 85.4072 135.608 85.3938 135.614 85.3803C135.598 85.3631 135.587 85.3431 135.571 85.3259C135.523 85.2677 135.463 85.2148 135.41 85.1593C135.34 85.0886 135.27 85.0164 135.195 84.9516C135.141 84.9047 135.082 84.8622 135.028 84.8185C134.942 84.7549 134.861 84.6912 134.77 84.6346C134.721 84.6012 134.668 84.5721 134.614 84.5419C134.512 84.4821 134.404 84.4249 134.297 84.3769C134.254 84.3586 134.216 84.3424 134.173 84.3257C134.044 84.2733 133.915 84.2249 133.781 84.1865C133.759 84.1807 133.732 84.1747 133.711 84.1704C133.211 84.0382 132.679 84.0075 132.146 84.0981L131.888 84.1419C131.646 84.2001 131.415 84.2793 131.195 84.3829C131.178 84.3898 131.168 84.4006 131.152 84.4081C130.937 84.5122 130.732 84.6329 130.544 84.7759C130.512 84.798 130.49 84.8271 130.458 84.8498ZM132.474 82.5538C132.63 82.5457 132.781 82.5512 132.931 82.5566C132.958 82.5576 132.979 82.556 133.001 82.557C133.146 82.5647 133.286 82.5803 133.426 82.5986C133.517 82.6105 133.609 82.6261 133.7 82.6423C133.818 82.6639 133.937 82.6843 134.055 82.714C134.248 82.7647 134.442 82.8256 134.635 82.8996C134.705 82.9254 134.77 82.9582 134.84 82.9879C134.99 83.0542 135.141 83.127 135.286 83.2078C135.35 83.2424 135.41 83.2775 135.474 83.3141C135.824 83.5299 136.157 83.7827 136.453 84.0809C136.458 84.0798 136.458 84.0787 136.458 84.0777C136.635 83.8797 136.824 83.6954 137.028 83.5255C137.033 83.5201 137.039 83.5148 137.044 83.5094C137.431 83.188 137.872 82.9205 138.35 82.72C138.393 82.7027 138.431 82.6871 138.474 82.6709C138.694 82.5841 138.926 82.5069 139.168 82.4508C139.168 82.4497 139.173 82.4482 139.173 82.4476C139.506 81.7074 139.587 80.884 139.404 80.0952C138.942 78.0882 136.936 76.8335 134.937 77.2972C133.813 77.5577 132.942 78.3147 132.463 79.2761C132.394 79.406 132.329 79.5349 132.281 79.6697C132.243 79.7689 132.221 79.8719 132.195 79.9743C132.162 80.0989 132.125 80.223 132.103 80.3497C132.082 80.4785 132.082 80.6116 132.076 80.7438C132.066 80.8473 132.055 80.9508 132.055 81.0566C132.066 81.2942 132.093 81.5359 132.146 81.7769C132.195 81.9747 132.345 82.2983 132.474 82.5538ZM138.549 84.2927C138.415 84.3672 138.275 84.4373 138.152 84.5284C138.082 84.5802 138.028 84.6438 137.963 84.6988C137.834 84.8072 137.705 84.9149 137.598 85.0401C137.549 85.0896 137.517 85.1457 137.479 85.1965C137.361 85.3437 137.243 85.4962 137.146 85.6634C137.055 85.8225 136.969 85.9836 136.904 86.1547C136.872 86.2323 136.85 86.3132 136.829 86.3919C136.791 86.5067 136.754 86.6231 136.727 86.743C136.705 86.8447 136.689 86.9484 136.673 87.0525C136.662 87.1624 136.657 87.2739 136.651 87.3857C136.646 87.5339 136.646 87.6816 136.657 87.83C136.668 87.9701 136.684 88.1109 136.711 88.2515C136.732 88.3545 136.754 88.4554 136.781 88.5563C136.802 88.6269 136.824 88.6964 136.85 88.7649C136.883 88.8695 136.92 88.9729 136.969 89.0749C136.996 89.1331 137.022 89.1898 137.055 89.2464C137.108 89.3564 137.168 89.4669 137.232 89.5721C137.264 89.6222 137.302 89.6681 137.334 89.7165L137.474 89.8853C137.99 90.5211 138.716 90.9729 139.512 91.16L139.7 91.2037C139.791 91.2203 139.888 91.2447 139.985 91.2544C139.995 91.2344 140.017 91.2161 140.028 91.1956C140.071 91.1374 140.119 91.0819 140.162 91.0252C140.227 90.9492 140.286 90.8748 140.35 90.8031C140.388 90.7604 140.431 90.7199 140.469 90.6779C140.549 90.5971 140.624 90.5194 140.711 90.4428C140.743 90.4117 140.78 90.3803 140.813 90.3496C140.904 90.2703 141.001 90.1937 141.098 90.1216C141.13 90.0962 141.168 90.0708 141.2 90.0465C141.302 89.9748 141.404 89.907 141.512 89.8422C141.549 89.8206 141.581 89.798 141.619 89.7764C141.727 89.715 141.839 89.6589 141.947 89.6049C141.99 89.5851 142.028 89.5644 142.071 89.5456C142.184 89.4944 142.302 89.4492 142.42 89.4066C142.463 89.3914 142.501 89.3737 142.544 89.359C142.705 89.3052 142.866 89.2572 143.033 89.2184C143.253 89.1683 143.468 89.1369 143.689 89.1148C143.7 89.1132 143.716 89.1088 143.732 89.1077C144.081 88.3551 144.173 87.5139 143.985 86.6992C143.522 84.6922 141.517 83.4382 139.517 83.9013C139.264 83.9601 139.028 84.0437 138.797 84.1466C138.705 84.1876 138.63 84.2453 138.549 84.2927ZM120.012 96.3892C120.233 96.25 120.464 96.1254 120.706 96.0204C120.749 96.0025 120.786 95.9874 120.829 95.9707C121.077 95.8704 121.335 95.7826 121.604 95.7205C121.872 95.6585 122.141 95.6241 122.405 95.6068C122.448 95.6047 122.496 95.5987 122.539 95.597C122.803 95.5846 123.066 95.5949 123.324 95.6219C123.34 95.6241 123.362 95.6219 123.378 95.6235C123.539 95.4822 123.689 95.3216 123.829 95.1441C123.824 95.0966 123.829 95.0499 123.824 95.0029C123.824 94.9597 123.824 94.9172 123.824 94.8735C123.819 94.6469 123.829 94.4227 123.856 94.199C123.862 94.1525 123.862 94.1073 123.872 94.062C123.937 93.581 124.061 93.1103 124.259 92.6638C124.227 92.6638 124.195 92.6568 124.163 92.6557C123.964 92.6514 123.765 92.6363 123.566 92.6088C123.523 92.6024 123.485 92.5992 123.448 92.5932C123.222 92.5561 123.001 92.5036 122.786 92.439C122.738 92.4249 122.695 92.4083 122.647 92.3921C122.453 92.3289 122.27 92.2557 122.087 92.1715C122.061 92.1576 122.028 92.1461 121.996 92.1316C121.797 92.0324 121.604 91.9192 121.415 91.7963C121.372 91.7671 121.329 91.738 121.292 91.7078C121.12 91.5898 120.958 91.4635 120.808 91.3255C120.786 91.3078 120.765 91.2937 120.749 91.2771C120.582 91.1233 120.432 90.9573 120.281 90.7837C120.249 90.7427 120.217 90.7005 120.184 90.658C120.05 90.4882 119.926 90.3108 119.813 90.1231C119.803 90.1103 119.792 90.0977 119.786 90.0853C119.668 89.8869 119.571 89.6756 119.48 89.4594C119.469 89.4335 119.453 89.4114 119.442 89.3861C117.83 90.0913 116.894 91.8718 117.303 93.6506C117.615 94.9996 118.641 96.0569 119.964 96.4144C119.98 96.4048 119.996 96.3995 120.012 96.3892ZM125.829 98.6861C125.808 98.6565 125.792 98.6262 125.77 98.5961C125.647 98.4295 125.507 98.2764 125.362 98.1345C125.324 98.1017 125.292 98.0693 125.254 98.0379C124.743 97.5812 124.12 97.267 123.437 97.1424C123.216 97.1014 122.991 97.0863 122.77 97.0868C122.743 97.0868 122.716 97.0804 122.69 97.081C122.437 97.0868 122.19 97.1181 121.937 97.1759C121.69 97.2335 121.448 97.316 121.222 97.4223C121.195 97.433 121.173 97.4498 121.152 97.4616C120.953 97.5597 120.76 97.6719 120.577 97.8062C119.416 98.6635 118.803 100.16 119.147 101.655C119.609 103.662 121.614 104.917 123.614 104.453C124.808 104.177 125.775 103.341 126.233 102.203C126.227 102.191 126.233 102.181 126.233 102.169C126.222 102.04 126.222 101.913 126.222 101.787C126.222 101.744 126.222 101.702 126.227 101.66C126.232 101.544 126.238 101.43 126.254 101.315C126.259 101.262 126.265 101.209 126.27 101.157C126.286 101.049 126.302 100.943 126.324 100.837C126.335 100.782 126.351 100.727 126.362 100.672C126.388 100.567 126.415 100.463 126.448 100.361C126.453 100.34 126.458 100.319 126.464 100.299C126.448 100.191 126.431 100.083 126.405 99.9737C126.297 99.4971 126.093 99.0663 125.829 98.6861ZM124.614 82.2147C125.84 82.2929 126.985 82.8106 127.861 83.6441C127.867 83.6463 127.867 83.6489 127.872 83.6517C128.001 83.7789 128.13 83.9132 128.249 84.0534C128.265 84.0734 128.281 84.0933 128.297 84.1127C128.404 84.2437 128.507 84.3795 128.603 84.522C128.614 84.5397 128.63 84.5553 128.641 84.5743C128.781 84.3887 128.942 84.2178 129.103 84.0529C129.125 84.035 129.141 84.0178 129.157 84.0005C129.485 83.6818 129.861 83.4058 130.27 83.1809C130.302 83.1643 130.329 83.1491 130.361 83.1329C130.533 83.0429 130.711 82.9621 130.899 82.8904C130.915 82.8844 130.926 82.8763 130.942 82.8704C130.867 82.6773 130.802 82.4779 130.748 82.2761C130.722 82.1948 130.7 82.1306 130.695 82.1133C130.635 81.8561 130.603 81.5995 130.582 81.3439C130.582 81.2959 130.576 81.2485 130.571 81.2005C130.56 80.9471 130.566 80.6963 130.587 80.4478C130.593 80.4132 130.598 80.3798 130.603 80.3448C130.662 79.8109 130.808 79.2966 131.017 78.8151C131.028 78.7994 131.028 78.7833 131.033 78.7682C130.146 77.7032 128.711 77.2066 127.345 77.5237C125.275 78.0035 124.001 80.1615 124.614 82.2147ZM122.41 84.2238C121.045 85.0271 120.276 86.6448 120.652 88.2747C121.114 90.2811 123.12 91.5358 125.12 91.0727C125.249 91.0424 125.378 91.0036 125.501 90.9599L125.582 90.9277C126.093 90.7372 126.55 90.4418 126.931 90.0503L126.991 89.9868C127.276 89.6832 127.512 89.3315 127.684 88.9407C127.684 88.9375 127.684 88.933 127.679 88.9294C127.636 88.7255 127.603 88.5211 127.582 88.3178C127.576 88.2592 127.576 88.2009 127.571 88.1427C127.56 87.9836 127.555 87.8251 127.555 87.6677C127.56 87.6109 127.56 87.5544 127.56 87.4977C127.582 87.0755 127.657 86.663 127.776 86.2668C127.781 86.2468 127.781 86.2263 127.791 86.2053C127.727 86.0199 127.641 85.8484 127.55 85.6801C127.523 85.6267 127.496 85.5717 127.469 85.5194C127.383 85.3797 127.286 85.2494 127.189 85.1227C127.157 85.0817 127.13 85.0342 127.093 84.9943C126.964 84.8465 126.824 84.7123 126.679 84.5872C126.593 84.5175 126.507 84.4578 126.415 84.3953C126.34 84.3424 126.27 84.288 126.19 84.2405C126.093 84.1812 125.991 84.1306 125.888 84.0803C125.808 84.0414 125.727 84.0054 125.641 83.9725C125.539 83.9309 125.437 83.8932 125.329 83.8609C125.232 83.8334 125.136 83.8123 125.044 83.7918C124.942 83.7703 124.84 83.746 124.738 83.7336C124.609 83.718 124.474 83.7153 124.345 83.7131C124.27 83.7115 124.2 83.7018 124.125 83.705C124.12 83.7057 124.12 83.7046 124.12 83.7046C124.061 83.7067 124.001 83.7223 123.948 83.7272C123.485 81.3898 122.211 79.2691 120.346 77.5852C123.577 76.1012 125.544 72.6601 125.071 69.0652C121.695 70.1938 119.491 73.3913 119.501 76.8847C117.141 75.0752 114.05 73.896 110.62 73.7121L110.534 75.3135C116.679 75.6462 121.587 79.4444 122.41 84.2238ZM107.389 36.6913C107.367 36.6768 107.346 36.6644 107.324 36.6497C107.346 36.6638 107.367 36.6772 107.389 36.6913ZM106.83 36.3899C106.749 36.3543 106.669 36.3317 106.583 36.3031C106.669 36.3317 106.749 36.3554 106.83 36.3899ZM107.728 40.395C107.728 39.0887 106.943 37.9951 105.911 37.7557C105.486 38.4366 105.013 39.0934 104.502 39.7156L102.034 42.6968L103.115 38.978C103.432 37.9012 103.658 36.7803 103.798 35.6404C102.126 33.8929 100.776 31.2125 100.056 28.2125C99.7817 27.0527 99.6043 25.8772 99.5452 24.7302C95.9914 28.3806 88.8895 32.0563 84.7553 32.0563C80.664 32.0563 73.5352 28.3601 69.9655 24.7061C69.9064 25.8621 69.7343 27.0461 69.4547 28.2146C68.7396 31.2136 67.3848 33.8929 65.7182 35.642C65.858 36.7894 66.0838 37.9099 66.3957 38.978L67.4816 42.69L65.014 39.7173C64.5032 39.1015 64.0302 38.4443 63.6001 37.7557C62.5678 37.994 61.7883 39.0881 61.7883 40.395C61.7883 41.8768 62.7936 43.0829 64.0302 43.0829C64.3258 43.0829 64.6055 43.0176 64.8743 42.8905L65.6861 42.5012L65.9764 43.3542C68.702 51.3397 76.2716 56.7059 84.7983 56.7059C93.3142 56.7059 100.873 51.3488 103.615 43.3751L103.9 42.5475L104.696 42.9039C104.964 43.0242 105.222 43.0829 105.48 43.0829C106.066 43.0829 106.615 42.8171 107.034 42.3351C107.48 41.8233 107.728 41.1348 107.728 40.395ZM62.9818 36.2858C63.014 36.2734 63.0516 36.2583 63.0893 36.2476C63.0516 36.2589 63.014 36.273 62.9818 36.2858ZM105.491 36.1019C105.733 36.1026 105.97 36.1344 106.196 36.1834C105.97 36.1327 105.733 36.1026 105.491 36.1019ZM108.018 36.0433C108.018 36.0433 107.986 36.4417 107.894 37.0801C108.76 37.8684 109.324 39.0535 109.324 40.395C109.324 41.523 108.943 42.5874 108.244 43.3914C107.513 44.2277 106.534 44.6882 105.48 44.6882C105.271 44.6882 105.066 44.6676 104.862 44.6288C101.701 52.8446 93.7336 58.3104 84.7983 58.3104C75.8524 58.3104 67.8849 52.8409 64.729 44.6181C64.5032 44.6644 64.272 44.6882 64.0302 44.6882C61.912 44.6882 60.1861 42.7621 60.1861 40.395C60.1861 38.7888 60.9873 37.402 62.1647 36.6659C62.1647 36.6665 62.1647 36.6665 62.1647 36.6665C62.1216 36.3683 62.0571 36.0966 62.0195 35.7914C62.0195 35.7914 58.5625 33.7942 60.2937 27.8064C60.2937 27.8064 58.068 23.9781 60.9335 19.2467C60.9335 19.2467 60.0517 16.1716 63.7667 11.9125C63.7667 11.9125 63.3904 5.99912 69.7343 5.99912C69.7343 5.99912 71.7827 0.571503 75.4706 2.81188C75.4706 2.81188 77.949 -2.16913 82.75 2.27051C82.75 2.27051 84.0671 -2.28087 87.9541 1.5043C87.9541 1.5043 91.024 -0.611505 94.0992 2.81188C94.0992 2.81188 99.0075 1.5043 100.034 6.23526C100.034 6.23526 106.583 6.94537 105.765 13.0961C105.765 13.0961 110.271 13.8056 108.427 19.0099C108.427 19.0099 112.996 23.0318 108.867 27.0532C108.867 27.0532 112.314 31.7852 108.018 36.0433ZM169 107.847H0C1.40844 114.77 7.52666 120 14.8381 120H154.162C161.479 120 167.597 114.77 169 107.847ZM52.8262 86.6065C51.5575 86.339 50.251 86.8793 49.5413 87.9663L44.0254 96.4027C41.8749 95.9443 40.6384 96.8286 40.6384 96.8286C40.6384 96.8286 42.4234 94.9614 42.1867 93.1561L48.2673 86.9371C49.1757 86.0075 49.4231 84.6146 48.8909 83.4279C48.235 81.9576 48.4608 80.1387 50.2564 77.9011C50.4392 77.6725 54.7563 72.2977 56.1379 70.5799C56.3691 70.2919 56.7885 70.2472 57.0788 70.4801C57.3798 70.725 57.4282 71.1697 57.1809 71.4745L51.7349 78.2607C51.4876 78.567 51.5359 79.014 51.8423 79.2605C52.1488 79.5069 52.5897 79.4583 52.837 79.1526L58.2884 72.3668C58.5304 72.0616 58.9766 72.0136 59.2776 72.2584L59.2884 72.2638C59.5895 72.5091 59.6378 72.9534 59.3905 73.2591L53.9445 80.0451C53.6971 80.3507 53.7456 80.7976 54.0519 81.0446C54.3531 81.291 54.7993 81.2426 55.0466 80.9367L60.4979 74.1509C60.74 73.8463 61.1862 73.7983 61.4873 74.0432L61.4926 74.0481C61.7991 74.2928 61.8474 74.7382 61.6001 75.0434L56.1487 81.8286C55.9067 82.1349 55.9552 82.5824 56.2562 82.8288C56.5626 83.0753 57.0088 83.0273 57.2562 82.721L62.7077 75.9352C62.9495 75.63 63.3957 75.582 63.6969 75.8273C63.9817 76.0598 64.0302 76.4809 63.799 76.7693C62.4174 78.4862 58.1003 83.862 57.9174 84.09C56.1218 86.3277 54.396 86.9386 52.8262 86.6065ZM42.805 103.293C43.2136 103.245 46.2296 102.988 45.864 105.896H22.1713C22.1713 105.896 28.7732 95.1166 34.73 93.2984C34.73 93.2984 41.3319 89.4023 40.5578 95.1166C40.5578 95.1166 31.8807 100.701 32.2678 101.09C32.6602 101.48 42.6276 93.0386 47.1597 99.6627C47.1597 99.6627 48.5736 102.76 42.805 103.293ZM72.1105 74.9146L74.0729 85.721C71.4492 86.5401 69.2073 87.4714 67.3903 88.3373C64.6108 86.8761 62.8313 85.3642 62.7613 84.9625C62.6269 84.2238 66.1914 78.5024 72.1105 74.9146ZM80.1748 72.0438C83.293 71.4739 86.379 71.8049 89.153 72.5394C89.1477 72.7006 89.1207 72.8602 89.1315 73.0219C89.1907 74.2292 89.4971 75.3804 89.7928 76.4939C89.8895 76.8518 89.981 77.2061 90.0669 77.5549C90.2874 78.4996 90.5508 79.4357 90.8143 80.3712C91.0884 81.3418 91.3573 82.3113 91.5831 83.2904C91.6046 83.3848 91.6153 83.4856 91.6368 83.5815C90.9379 83.5504 90.2283 83.5254 89.395 83.5071C84.6263 83.4004 80.2824 84.0615 76.5245 85.0282L74.5352 74.0539C76.2501 73.1379 78.1373 72.4148 80.1748 72.0438ZM128.152 105.853C127.512 105.319 127.055 104.655 126.749 103.938C126.743 103.946 126.738 103.956 126.732 103.963C124.921 106.145 121.69 106.442 119.512 104.626C118.512 103.79 117.926 102.653 117.749 101.459C115.572 102.556 112.787 102.88 112.787 102.88C93.1045 105.972 72.9008 103.419 72.9008 103.419C60.3797 102.485 61.1162 97.6627 63.17 94.4012C63.6807 93.5917 64.2775 92.8871 64.9279 92.2799C65.9817 93.2182 67.7289 95.0966 68.5246 97.7802C68.5246 97.7802 69.2073 95.3107 66.5892 91.0273C66.9494 90.8127 67.315 90.6175 67.6913 90.4537C68.116 90.2649 68.5461 90.0849 68.9763 89.9102C69.9332 90.6969 72.0353 92.6994 72.9331 95.7211C72.9331 95.7211 73.5997 93.3033 71.0783 89.1041C72.0192 88.7643 72.9546 88.4537 73.8847 88.1756C74.8147 88.9341 76.976 90.9497 77.8846 94.0215C77.8846 94.0215 78.5405 91.6642 76.1212 87.5565C76.7555 87.397 77.3846 87.2534 78.0082 87.1199L77.9814 87.1517C77.9814 87.1517 81.2554 89.3682 82.4275 93.3404C82.4275 93.3404 83.1049 90.8925 80.5296 86.6436C81.6908 86.4544 82.8361 86.3061 83.965 86.1978C84.9489 87.0147 86.9917 89 87.8735 91.965C87.8735 91.965 88.4703 89.8029 86.4004 86.0182C87.3144 85.9723 88.2176 85.9529 89.0992 85.9529C89.8357 86.5122 92.3411 88.6122 93.341 91.985C93.341 91.985 93.9378 89.8168 91.8626 86.0214C92.7282 86.0662 93.583 86.132 94.4216 86.2133C95.3893 87.0158 97.4645 89.0107 98.3516 92.0034C98.3516 92.0034 98.9054 90.0303 97.1474 86.5455C98.1904 86.6992 99.2064 86.8772 100.185 87.0751C101.212 87.9546 103.11 89.8886 103.948 92.7216C103.948 92.7216 104.448 90.9082 102.948 87.701C103.97 87.9582 104.943 88.2327 105.868 88.5175C106.927 89.4733 108.62 91.3287 109.4 93.9584C109.4 93.9584 109.851 92.3338 108.625 89.4383C109.959 89.9204 111.152 90.4057 112.19 90.8607C113.249 91.8626 114.792 93.6522 115.523 96.1217C115.523 96.1217 115.916 94.7186 114.986 92.1909C115.308 92.3581 115.588 92.507 115.83 92.6401C115.91 91.7154 116.227 90.8618 116.733 90.1431C111.459 86.6265 102.964 84.448 93.8948 83.7503C94.2389 83.7767 94.5883 83.7902 94.9325 83.821C94.8733 83.4026 94.798 82.9847 94.7013 82.5685C94.4701 81.5408 94.1798 80.5211 93.8948 79.5015C93.8733 79.4271 93.8572 79.3521 93.8357 79.2778C93.7657 79.021 93.7013 78.7627 93.6313 78.5056C93.6313 78.5093 93.6313 78.5126 93.6313 78.5163C93.4754 77.9491 93.3142 77.383 93.1798 76.8113C93.0883 76.4367 92.9862 76.0538 92.8841 75.6673C92.6314 74.7139 92.3679 73.7294 92.325 72.8602C92.3196 72.6844 92.3518 72.5108 92.3841 72.3365C92.3788 72.3365 92.3733 72.3399 92.3679 72.3399C91.782 72.3399 91.2497 71.9867 91.0401 71.4216C90.8519 70.9018 90.5831 70.0174 90.4648 69.0217C90.3143 67.8203 90.3842 66.4528 91.1046 65.3244C91.524 64.6687 92.3949 64.475 93.0507 64.8973C93.3626 65.0979 93.583 65.4127 93.6636 65.7832C93.7442 66.1493 93.6798 66.5268 93.4754 66.8438C93.3786 66.9996 93.3142 67.2472 93.2712 67.5324C93.2659 67.5663 93.2604 67.6013 93.2604 67.6375C93.2442 67.7858 93.2389 67.947 93.2389 68.1217C93.2389 68.2467 93.2389 68.3692 93.2497 68.5067C93.2604 68.5951 93.2765 68.6917 93.2873 68.7854C93.3465 69.2723 93.4539 69.8056 93.6744 70.4084C93.7066 70.3869 93.7336 70.3545 93.7657 70.3346C94.6367 69.8039 95.7496 69.7954 96.5991 70.3141C97.3409 70.7681 98.0774 71.4696 98.7925 72.1484C99.0828 72.4234 99.3678 72.6957 99.6528 72.9524C100.341 73.5741 101.008 74.2243 101.669 74.8751C102.427 75.6123 103.179 76.3493 103.964 77.0487C105.308 78.2441 106.857 79.1402 108.351 80.0078L109.389 80.6159C109.808 80.8657 110.244 81.1078 110.679 81.3509C111.797 81.9774 112.857 82.5679 113.701 83.3141C115.114 84.5619 116.104 86.3482 116.485 88.3443C116.588 88.9089 116.62 89.481 116.615 90.0525C116.657 90.0806 116.695 90.1118 116.733 90.1393C117.276 89.3671 118.023 88.747 118.899 88.369C118.808 87.983 118.749 87.5857 118.749 87.1715C118.749 86.6265 118.862 86.1163 119.018 85.6267C118.33 83.7918 117.233 82.1553 115.814 80.9045C114.711 79.9318 113.453 79.227 112.233 78.547C111.824 78.3185 111.421 78.092 111.023 77.8574L109.953 77.2298C109.588 77.0184 109.222 76.8034 108.857 76.5854C108.427 76.3294 108.013 76.063 107.604 75.7902C107.497 75.719 107.394 75.6473 107.287 75.5739C106.867 75.2785 106.454 74.9739 106.088 74.646C105.341 73.9818 104.62 73.2785 103.905 72.5771C103.265 71.95 102.62 71.3267 101.959 70.7233C102.056 66.3321 103.588 63.1056 104.577 62.4272C108.496 58.4382 111.663 66.2269 115.529 73.0479C116.491 73.3681 117.416 73.7401 118.276 74.2011C118.953 71.7872 120.534 69.6972 122.722 68.4026C120.356 65.6775 115.502 61.5418 105.545 56.3053C105.545 56.3053 101.889 52.8695 96.1797 58.1378C96.1797 58.1378 89.7874 62.9919 84.3036 61.7095C78.8253 62.9919 72.4331 58.1378 72.4331 58.1378C66.7236 52.8695 63.0678 56.3053 63.0678 56.3053C44.3427 66.1536 41.4502 71.7122 41.4502 71.7122C38.9556 75.7433 32.7301 87.7754 32.7301 87.7754C31.8968 89.9985 31.1388 91.9385 30.4398 93.6781C25.2464 98.1243 20.8003 105.657 20.8003 105.657L20.5908 106.007H47.7673V106.005H128.378C128.302 105.951 128.227 105.912 128.152 105.853ZM69.0784 85.0325C70.1536 84.8362 70.8686 83.8032 70.6751 82.7249C70.4762 81.6464 69.4493 80.9324 68.374 81.1293C67.2989 81.325 66.5838 82.3571 66.7827 83.4365C66.9763 84.5139 68.0086 85.2283 69.0784 85.0325ZM137.227 105.059C136.791 104.695 136.453 104.264 136.168 103.806C135.974 104.293 135.727 104.766 135.372 105.191C135.108 105.506 134.813 105.77 134.501 106.005H137.479C137.479 106.005 137.479 105.766 137.393 105.176C137.34 105.134 137.281 105.104 137.227 105.059ZM123.754 79.1278C123.485 78.7185 123.19 78.3233 122.878 77.941C124.259 76.8836 125.324 75.4811 125.985 73.8939C126.292 74.4886 126.625 75.1765 126.98 75.9368C126.087 76.2258 125.259 76.751 124.614 77.5285C124.211 78.0154 123.948 78.5639 123.754 79.1278Z" fill="white"/>
</svg>
