<svg width="95" height="120" viewBox="0 0 95 120" fill="none" xmlns="http://www.w3.org/2000/svg">
<path d="M22.409 32.2725H74.1108C76.1304 32.2725 77.7793 30.6237 77.7793 28.6092C77.7793 26.5937 76.1304 24.945 74.1108 24.945H73.1793C73.1793 14.6304 66.9115 5.77809 57.9825 1.98177L54.3424 12.2126C54.0574 13.0111 53.1735 13.4315 52.3751 13.1469C51.5768 12.8648 51.1539 11.9794 51.439 11.1819L55.0742 0.96005C52.8979 0.339584 50.5978 0 48.2219 0C45.3992 0 42.6905 0.475033 40.1577 1.33854L43.6647 11.1819C43.9451 11.9794 43.5269 12.8648 42.7285 13.1469C41.9302 13.4315 41.0416 13.0111 40.7612 12.2126L37.3113 2.50947C28.9953 6.5561 23.2691 15.0802 23.2691 24.945H22.409C20.3941 24.945 18.7451 26.5937 18.7451 28.6092C18.7451 30.6237 20.3941 32.2725 22.409 32.2725Z" fill="white"/>
<path d="M25.6214 94.3061H36.4751V82.2393H43.0756L40.462 78.0211C40.462 78.0211 32.3693 77.5034 29.8508 71.8892C21.9196 71.3197 15.6469 73.8155 12.7816 75.2452C5.31136 80.0842 -1.51253 88.9051 0.29329 104.949C0.29329 104.949 1.42426 116.238 14.6491 114.946V106.723H25.6214V94.3061Z" fill="white"/>
<path d="M82.541 75.4537C79.8941 74.0851 73.4219 71.3272 65.1534 71.8921C62.6301 77.5039 54.5422 78.0211 54.5422 78.0211L51.9238 82.2393H58.5291V94.306H69.3779V106.723H80.3504V114.946C93.5752 116.238 94.7062 104.949 94.7062 104.949C96.4881 89.1327 89.8829 80.3368 82.541 75.4537Z" fill="white"/>
<path d="M36.4559 70.1219L32.1934 61.3318C32.1934 61.3318 37.9956 69.0441 48.4167 68.6811C58.8331 69.0441 64.64 61.3318 64.64 61.3318L60.6151 69.6256C69.5678 67.8351 77.0285 69.93 81.3577 71.7554C74.0395 64.1121 72.0437 37.2295 72.0437 37.2295H69.0832C69.0832 52.7748 59.8453 65.3856 48.4167 65.4972C36.9881 65.3856 27.7455 52.7748 27.7455 37.2295H24.785C24.785 37.2295 24.4476 61.2775 18.2129 70.1627C22.9412 68.8944 29.2803 68.2185 36.4559 70.1219Z" fill="white"/>
<path d="M28.957 96.9951H46.5158V106.899H28.957V96.9951Z" fill="white"/>
<path d="M17.5098 110.096H35.7528V120H17.5098V110.096Z" fill="white"/>
<path d="M38.5234 110.096H56.7663V120H38.5234V110.096Z" fill="white"/>
<path d="M59.5361 110.096H77.779V120H59.5361V110.096Z" fill="white"/>
<path d="M49.2627 96.9951H66.8214V106.899H49.2627V96.9951Z" fill="white"/>
<path d="M38.9414 84.6753H56.0629V94.5807H38.9414V84.6753Z" fill="white"/>
</svg>
