<svg width="121" height="120" viewBox="0 0 121 120" fill="none" xmlns="http://www.w3.org/2000/svg">
<path d="M69.5512 59.3396L52.9036 30.3314L69.5512 1.32229H102.837L119.484 30.3314L102.837 59.3396H69.5512ZM51.444 89.0103H18.1584L1.51549 60.0021L18.1584 30.9907H51.444L68.0916 60.0021L51.444 89.0103ZM121 30.3314L103.592 0H68.7911L51.7659 29.6693H17.403L0 60.0021L17.403 90.3317H52.2042L69.2295 60.6614H103.592L121 30.3314Z" fill="white"/>
<path d="M86.1944 35.8406C83.1727 35.8406 80.7198 33.3737 80.7198 30.3297C80.7198 27.2886 83.1727 24.8218 86.1944 24.8218C89.2209 24.8218 91.6691 27.2886 91.6691 30.3297C91.6691 33.3737 89.2209 35.8406 86.1944 35.8406ZM86.1944 21.4644C81.326 21.4644 77.3857 25.4338 77.3857 30.3297C77.3857 35.2268 81.326 39.1952 86.1944 39.1952C91.0627 39.1952 95.0031 35.2268 95.0031 30.3297C95.0031 25.4338 91.0627 21.4644 86.1944 21.4644Z" fill="white"/>
<path d="M86.9491 19.5137V12.814C86.9491 12.3935 86.6087 12.0527 86.1937 12.0527C85.774 12.0527 85.4336 12.3935 85.4336 12.814V19.5137C85.69 19.4965 85.9418 19.4861 86.1937 19.4861C86.4502 19.4861 86.702 19.4965 86.9491 19.5137Z" fill="white"/>
<path d="M94.3313 23.2211L99.0412 18.4819C99.3349 18.1847 99.3349 17.7052 99.0412 17.4076C98.7427 17.1102 98.2624 17.1102 97.9686 17.4076L93.2588 22.1433C93.6412 22.4793 94.0002 22.8359 94.3313 23.2211Z" fill="white"/>
<path d="M103.601 29.5688H96.9424C96.961 29.8228 96.975 30.0728 96.975 30.3299C96.975 30.5867 96.961 30.8406 96.9424 31.0911H103.601C104.016 31.0911 104.357 30.7504 104.357 30.3299C104.357 29.9106 104.016 29.5688 103.601 29.5688Z" fill="white"/>
<path d="M79.1299 22.1435L74.42 17.4068C74.1263 17.1098 73.6506 17.1098 73.3521 17.4068C73.0584 17.7044 73.0584 18.1848 73.3521 18.4824L78.062 23.2203C78.3931 22.8361 78.7475 22.4795 79.1299 22.1435Z" fill="white"/>
<path d="M78.0574 37.4419L73.3521 42.1804C73.0584 42.4769 73.0584 42.9578 73.3521 43.2554C73.5014 43.4028 73.6926 43.4783 73.8884 43.4783C74.0797 43.4783 74.2754 43.4028 74.42 43.2554L79.1299 38.5165C78.7475 38.1833 78.3931 37.8234 78.0574 37.4419Z" fill="white"/>
<path d="M85.4385 41.1465V47.8464C85.4385 48.2668 85.7742 48.6075 86.1939 48.6075C86.609 48.6075 86.9493 48.2668 86.9493 47.8464V41.1465C86.7023 41.1658 86.4505 41.1756 86.1939 41.1756C85.9421 41.1756 85.6903 41.1658 85.4385 41.1465Z" fill="white"/>
<path d="M75.4457 29.5688H68.7867C68.3718 29.5688 68.0312 29.9106 68.0312 30.3299C68.0312 30.7504 68.3718 31.0911 68.7867 31.0911H75.4457C75.4271 30.8406 75.4177 30.5867 75.4177 30.3299C75.4177 30.0728 75.4271 29.8228 75.4457 29.5688Z" fill="white"/>
<path d="M93.2588 38.5165L97.9733 43.2553C98.1179 43.4027 98.309 43.4792 98.5049 43.4792C98.6961 43.4792 98.8873 43.4027 99.0364 43.2553C99.3349 42.9578 99.3349 42.4779 99.0364 42.1803L94.3313 37.4409C94.0002 37.8239 93.6412 38.1838 93.2588 38.5165Z" fill="white"/>
<path d="M97.6094 84.448C97.6094 85.4945 97.6282 89.9921 94.7183 93.4307C92.2609 96.333 88.4417 98.118 87.2852 98.7256C87.0474 98.8514 86.9122 98.9199 86.9122 98.9199V94.562C86.9122 94.562 86.6884 89.2333 90.8153 86.1678C94.3547 83.5414 97.6094 81.8663 97.6094 81.8663V84.448ZM97.6094 97.7904C97.6094 98.8377 97.6282 103.333 94.7183 106.776C92.2609 109.676 88.4417 111.46 87.2852 112.07C87.0474 112.196 86.9122 112.257 86.9122 112.257V107.898C86.9122 107.898 86.6884 102.579 90.8153 99.5107C94.3547 96.8811 97.6094 95.2101 97.6094 95.2101V97.7904ZM86.1054 87.3057H86.0635C86.0635 87.3057 82.2583 83.6235 82.2583 77.8575C82.2583 71.7714 86.0635 68.405 86.0635 68.405H86.1054C86.1054 68.405 89.9106 72.0876 89.9106 77.8575C89.9106 83.9407 86.1054 87.3057 86.1054 87.3057ZM85.4712 94.562V98.9199C85.4712 98.9199 85.3407 98.8514 85.1028 98.7256C83.9465 98.118 80.1226 96.333 77.6651 93.4307C74.7553 89.9921 74.7739 85.4945 74.7785 84.448V81.8663C74.7785 81.8663 78.0288 83.5414 81.5682 86.1678C85.6951 89.2333 85.4712 94.562 85.4712 94.562ZM85.4712 107.898V112.257C85.4712 112.257 85.3407 112.196 85.1028 112.07C83.9465 111.46 80.1226 109.676 77.6651 106.776C74.7553 103.333 74.7739 98.8377 74.7785 97.7904V95.2101C74.7785 95.2101 78.0288 96.8811 81.5682 99.5107C85.6951 102.579 85.4712 107.898 85.4712 107.898ZM103.215 60.6621H69.1735L52.1436 90.3323L69.1735 120H103.215L120.24 90.3323L103.215 60.6621Z" fill="white"/>
<path d="M24.8411 70.9132C22.7986 70.9132 21.1431 69.2487 21.1431 67.1912C21.1431 65.1388 22.7986 63.4738 24.8411 63.4738C26.8835 63.4738 28.539 65.1388 28.539 67.1912C28.539 69.2487 26.8835 70.9132 24.8411 70.9132ZM24.8411 60.1436C20.9706 60.1436 17.8369 63.2984 17.8369 67.1912C17.8369 71.0869 20.9706 74.2429 24.8411 74.2429C28.7068 74.2429 31.8452 71.0869 31.8452 67.1912C31.8452 63.2984 28.7068 60.1436 24.8411 60.1436Z" fill="white"/>
<path d="M49.1262 71.765C47.6061 71.765 46.3749 70.5238 46.3749 68.9946C46.3749 67.4653 47.6061 66.2251 49.1262 66.2251C50.6464 66.2251 51.8822 67.4653 51.8822 68.9946C51.8822 70.5238 50.6464 71.765 49.1262 71.765ZM49.1262 63.7476C46.2491 63.7476 43.9082 66.0961 43.9082 68.9946C43.9082 71.8927 46.2491 74.243 49.1262 74.243C52.0081 74.243 54.3443 71.8927 54.3443 68.9946C54.3443 66.0961 52.0081 63.7476 49.1262 63.7476Z" fill="white"/>
<path d="M41.334 53.9552H36.7501L34.1807 45.5727H35.659C35.5797 45.2917 35.4584 45.0405 35.314 44.8196C34.7777 43.9974 33.831 43.5376 32.8518 43.5376H24.7844C24.1596 43.5376 23.5488 43.7431 23.0824 44.1589C23.0684 44.1669 23.0544 44.1777 23.0451 44.1894C22.4949 44.6891 22.1918 45.409 22.1918 46.1536V51.526H21.3664C20.4477 51.526 19.7017 52.2773 19.7017 53.2021V57.4812C19.0394 57.7801 18.4939 58.155 18.0788 58.4872C17.5752 58.8912 17.5239 59.6364 17.9716 60.0999C18.1908 60.3253 18.4146 60.5584 18.5917 60.7428C18.7643 60.9212 19.0488 60.9212 19.2213 60.7391C19.9627 59.939 20.8628 59.3975 21.7394 59.0329C24.0384 58.0706 26.631 58.1868 28.8554 59.3069C33.6818 61.7391 33.6399 67.2714 33.6399 67.2714H42.663C44.2999 60.3773 51.4625 62.4931 51.4625 62.4931C52.0826 58.5764 49.5925 59.5158 49.5925 59.5158V56.148C49.5925 56.1377 49.5925 56.124 49.5925 56.1129C49.5412 54.9341 48.5573 54.0181 47.3821 54.0181H42.9009V49.6401C42.9009 49.6401 43.0035 47.8588 40.7046 47.9128C40.5273 47.9175 40.3735 48.0296 40.3735 48.2061V49.2112C40.3735 49.3641 40.4854 49.4922 40.6393 49.503C40.9424 49.5269 41.3947 49.6246 41.3947 50.0159C41.3947 50.0159 41.2735 53.9552 41.334 53.9552Z" fill="white"/>
<path d="M26.6543 45.6187L26.9666 51.6616C26.9666 51.6616 30.2588 51.114 31.2895 54.0374H34.647L32.3247 45.6187C32.3247 45.6187 26.7849 45.6187 26.6543 45.6187Z" fill="white"/>
</svg>
