<svg width="125" height="120" viewBox="0 0 125 120" fill="none" xmlns="http://www.w3.org/2000/svg">
<path d="M123.306 79.2707C114.625 79.2707 106.871 74.9797 102.682 68.0934C98.4996 74.9797 90.739 79.2707 82.0589 79.2707C74.2354 79.2707 66.9661 75.4793 62.5 69.2173C58.0339 75.4793 50.7648 79.2707 42.9349 79.2707C34.2548 79.2707 26.5005 74.9797 22.3116 68.0934C18.129 74.9797 10.3683 79.2707 1.68826 79.2707C0.755833 79.2707 0 78.5163 0 77.5848C0 76.6529 0.755833 75.8985 1.68826 75.8985C10.3558 75.8985 17.6628 71.2323 20.7493 63.7208C21.0075 63.0878 21.625 62.6748 22.3116 62.6748C22.9981 62.6748 23.6154 63.0878 23.8738 63.7208C26.9666 71.2323 34.2673 75.8985 42.9349 75.8985C50.4688 75.8985 57.3977 71.8131 61.0135 65.2368C61.6119 64.1588 63.3882 64.1588 63.9803 65.2368C67.6023 71.8131 74.525 75.8985 82.0589 75.8985C90.7327 75.8985 98.0334 71.2323 101.12 63.7208C101.378 63.0878 101.996 62.6748 102.682 62.6748C103.369 62.6748 103.986 63.0878 104.251 63.7208C107.337 71.2323 114.638 75.8985 123.306 75.8985C124.244 75.8985 125 76.6529 125 77.5848C125 78.5163 124.244 79.2707 123.306 79.2707Z" fill="white"/>
<path d="M123.306 99.6352C114.625 99.6352 106.871 95.3422 102.682 88.4586C98.4996 95.3422 90.739 99.6352 82.0589 99.6352C74.2354 99.6352 66.9661 95.8432 62.5 89.5825C58.0339 95.8432 50.7648 99.6352 42.9349 99.6352C34.2548 99.6352 26.5005 95.3422 22.3116 88.4586C18.129 95.3422 10.3683 99.6352 1.68826 99.6352C0.755833 99.6352 0 98.8796 0 97.9481C0 97.0167 0.755833 96.2618 1.68826 96.2618C10.3558 96.2618 17.6628 91.5968 20.7493 84.0859C21.0075 83.453 21.625 83.04 22.3116 83.04C22.9981 83.04 23.6154 83.453 23.8738 84.0859C26.9666 91.5968 34.2673 96.2618 42.9349 96.2618C50.4688 96.2618 57.3977 92.1777 61.0135 85.6019C61.6119 84.5247 63.3882 84.5247 63.9803 85.6019C67.6023 92.1777 74.525 96.2618 82.0589 96.2618C90.7327 96.2618 98.0334 91.5968 101.12 84.0859C101.378 83.453 101.996 83.04 102.682 83.04C103.369 83.04 103.986 83.453 104.251 84.0859C107.337 91.5968 114.638 96.2618 123.306 96.2618C124.244 96.2618 125 97.0167 125 97.9481C125 98.8796 124.244 99.6352 123.306 99.6352Z" fill="white"/>
<path d="M123.306 120C114.625 120 106.871 115.707 102.682 108.822C98.4996 115.707 90.739 120 82.0589 120C74.2354 120 66.9661 116.209 62.5 109.948C58.0339 116.209 50.7648 120 42.9349 120C34.2548 120 26.5005 115.707 22.3116 108.822C18.129 115.707 10.3683 120 1.68826 120C0.755833 120 0 119.245 0 118.313C0 117.382 0.755833 116.628 1.68826 116.628C10.3558 116.628 17.6628 111.961 20.7493 104.451C21.0075 103.817 21.625 103.404 22.3116 103.404C22.9981 103.404 23.6154 103.817 23.8738 104.451C26.9666 111.961 34.2673 116.628 42.9349 116.628C50.4688 116.628 57.3977 112.543 61.0135 105.968C61.6119 104.89 63.3882 104.89 63.9803 105.968C67.6023 112.543 74.525 116.628 82.0589 116.628C90.7327 116.628 98.0334 111.961 101.12 104.451C101.378 103.817 101.996 103.404 102.682 103.404C103.369 103.404 103.986 103.817 104.251 104.451C107.337 111.961 114.638 116.628 123.306 116.628C124.244 116.628 125 117.382 125 118.313C125 119.245 124.244 120 123.306 120Z" fill="white"/>
<path d="M119.482 4.0982L98.8779 23.8994C96.2449 19.247 76.3712 0 52.321 0C46.9605 0 41.8078 0.959247 37.0078 2.48845V46.9049C41.8078 48.4423 46.9605 49.407 52.321 49.407C76.7679 49.407 96.7677 29.0565 98.9788 25.2136L119.426 44.673C119.993 32.7668 114.185 24.7486 114.185 24.7486C120.497 14.3923 119.482 4.0982 119.482 4.0982Z" fill="white"/>
<path d="M21.543 27.8096C18.7084 27.8096 16.4155 25.5198 16.4155 22.6947C16.4155 19.8675 18.7084 17.5797 21.543 17.5797C24.3714 17.5797 26.6705 19.8675 26.6705 22.6947C26.6705 25.5198 24.3714 27.8096 21.543 27.8096ZM5.45508 24.7047C5.45508 26.5475 17.1965 39.4532 33.9522 45.8422V3.54834C17.1965 9.9071 5.45508 22.7695 5.45508 24.7047Z" fill="white"/>
</svg>
