<svg width="110" height="120" viewBox="0 0 110 120" fill="none" xmlns="http://www.w3.org/2000/svg">
<path d="M82.7661 59.6528C81.1949 62.2018 76.0943 63.9668 76.0943 63.9668C54.0264 69.3607 56.8715 85.0517 56.8715 85.0517C59.6082 81.4257 64.9211 80.1858 67.8843 79.7678C70.8852 79.3456 73.7635 78.2562 76.217 76.4861C85.1394 70.0547 82.7661 59.6528 82.7661 59.6528Z" fill="white"/>
<path d="M56.8849 67.683C58.876 65.0439 62.7451 64.1408 64.9015 63.8366C67.0861 63.5284 69.1811 62.7369 70.9693 61.4465C77.4618 56.765 75.7349 49.1919 75.7349 49.1919C74.5931 51.0475 70.8797 52.3321 70.8797 52.3321C54.8135 56.2583 56.8849 67.683 56.8849 67.683Z" fill="white"/>
<path d="M33.9066 63.9668C33.9066 63.9668 28.806 62.2018 27.2395 59.6528C27.2395 59.6528 24.8661 70.0547 33.7839 76.4861C36.2422 78.2562 39.1204 79.3456 42.1166 79.7678C45.0797 80.1858 50.3927 81.4257 53.1293 85.0517C53.1293 85.0517 55.9745 69.3607 33.9066 63.9668Z" fill="white"/>
<path d="M39.0021 61.4465C40.7904 62.7369 42.8854 63.5284 45.0699 63.8366C47.2262 64.1408 51.0953 65.0439 53.0865 67.683C53.0865 67.683 55.1578 56.2583 39.0918 52.3321C39.0918 52.3321 35.3784 51.0475 34.2366 49.1919C34.2366 49.1919 32.5096 56.765 39.0021 61.4465Z" fill="white"/>
<path d="M54.9879 54.9795C55.1484 54.8063 65.2033 43.9383 55.087 33.8209L55.0823 34.3417L55.087 33.8096C44.8859 44.0087 54.9879 54.9917 54.9879 54.9917V54.9795Z" fill="white"/>
<path d="M54.1113 55.7178H55.8663V96.2072H54.1113V55.7178Z" fill="white"/>
<path d="M64.727 10.8925L64.7647 0L44.3766 11.6738L64.6798 23.4916L64.7175 13.0306C89.2579 17.607 107.896 39.1656 107.896 65.0075C107.896 94.1704 84.1667 117.896 55.0023 117.896C25.8379 117.896 2.1091 94.1704 2.1091 65.0075C2.1091 42.361 16.5003 22.2394 37.9265 14.9375C38.4738 14.7498 38.7711 14.1512 38.5824 13.6006C38.3936 13.0504 37.7944 12.757 37.2424 12.9438C14.9667 20.5373 0 41.4594 0 65.0075C0 95.3318 24.6726 120 55.0023 120C85.3274 120 110 95.3318 110 65.0075C110 38.003 90.4281 15.499 64.727 10.8925Z" fill="white"/>
</svg>
