<svg width="121" height="120" viewBox="0 0 121 120" fill="none" xmlns="http://www.w3.org/2000/svg">
<path d="M0.228516 29.8528C0.228516 31.6342 1.66914 33.0788 3.44457 33.0788H117.555C119.331 33.0788 120.769 31.6342 120.769 29.8528V29.2947C120.769 28.0457 120.048 26.9048 118.917 26.3757L63.4265 0.302969C62.5757 -0.0943735 61.5941 -0.101739 60.7368 0.285938L2.11771 26.9182C0.969149 27.4385 0.228516 28.5883 0.228516 29.8528Z" fill="white"/>
<path d="M107.813 47.5646H14.2426C12.6344 47.5646 11.335 46.2564 11.335 44.6448V43.0606C11.335 41.45 12.6344 40.1416 14.2426 40.1416H107.813C109.422 40.1416 110.723 41.45 110.723 43.0606V44.6448C110.723 46.2564 109.422 47.5646 107.813 47.5646Z" fill="white"/>
<path d="M117.7 120H3.30006C1.47666 120 0 118.519 0 116.691C0 114.862 1.47666 113.381 3.30006 113.381H117.7C119.523 113.381 121 114.862 121 116.691C121 118.519 119.523 120 117.7 120Z" fill="white"/>
<path d="M98.4763 110.137C96.0468 110.137 94.0771 108.162 94.0771 105.725V54.9201C94.0771 52.4829 96.0468 50.5073 98.4763 50.5073C100.906 50.5073 102.876 52.4829 102.876 54.9201V105.725C102.876 108.162 100.906 110.137 98.4763 110.137Z" fill="white"/>
<path d="M22.5231 110.137C20.0937 110.137 18.123 108.162 18.123 105.725V54.9201C18.123 52.4829 20.0937 50.5073 22.5231 50.5073C24.9534 50.5073 26.9231 52.4829 26.9231 54.9201V105.725C26.9231 108.162 24.9534 110.137 22.5231 110.137Z" fill="white"/>
<path d="M68.4675 91.9445C67.0314 93.436 64.9552 94.3166 62.2396 94.5814V98.4068H58.7791V94.6013C54.2519 94.1714 51.4515 91.7333 50.37 87.293L55.7214 86.0026C56.218 88.7941 57.8595 90.1885 60.6454 90.1885C61.9469 90.1885 62.9107 89.8906 63.5242 89.2944C64.137 88.6947 64.4437 87.9751 64.4437 87.1285C64.4437 86.254 64.137 85.5898 63.5242 85.142C62.9107 84.6898 61.544 84.116 59.4303 83.4236C57.5285 82.8122 56.0407 82.2118 54.9697 81.6107C53.8995 81.016 53.0279 80.1799 52.3621 79.1058C51.6925 78.0295 51.3591 76.7753 51.3591 75.349C51.3591 73.4766 51.9577 71.7872 53.1492 70.2863C54.3413 68.7919 56.218 67.8741 58.7791 67.5427V64.5874H62.2396V67.545C66.1081 67.9726 68.6139 69.9957 69.7484 73.6205L64.9832 75.4299C64.0505 72.9458 62.618 71.7057 60.6689 71.7057C59.6919 71.7057 58.9077 71.983 58.32 72.5376C57.7258 73.0933 57.4338 73.7642 57.4338 74.5566C57.4338 75.3624 57.7177 75.9792 58.2861 76.4114C58.8537 76.8419 60.0791 77.3727 61.9469 78.0087C64.0017 78.7034 65.6145 79.3609 66.7838 79.979C67.9508 80.5972 68.8836 81.4512 69.5812 82.5386C70.2768 83.6297 70.628 84.8995 70.628 86.3561C70.628 88.5918 69.9052 90.4554 68.4675 91.9445ZM60.3844 55.8389C46.2687 55.8389 34.8242 67.3137 34.8242 81.4726C34.8242 95.6309 46.2687 107.106 60.3844 107.106C74.5023 107.106 85.9448 95.6309 85.9448 81.4726C85.9448 67.3137 74.5023 55.8389 60.3844 55.8389Z" fill="white"/>
</svg>
