<?xml version="1.0" encoding="UTF-8"?>
<svg width="1000px" height="1000px" viewBox="0 0 1000 1000" version="1.1" xmlns="http://www.w3.org/2000/svg" xmlns:xlink="http://www.w3.org/1999/xlink">
    <!-- Generator: Sketch 53.2 (72643) - https://sketchapp.com -->
    <title>_16</title>
    <desc>Created with Sketch.</desc>
    <g id="_16" stroke="none" stroke-width="1" fill="none" fill-rule="evenodd">
        <g id="TheGlobalGoals_Icons_Color_Goal_16" fill-rule="nonzero">
            <rect id="Rectangle" fill="#00689D" x="0.2997003" y="0.14985015" width="998.811189" height="998.851149"></rect>
            <polygon id="Path" fill="#FFFFFF" points="77.1428571 120.46953 77.1428571 155.814186 77.4525475 155.814186 101.208791 131.158841 101.508492 131.158841 101.508492 285.314685 135.374625 285.314685 135.374625 83.9260739 108.351648 83.9260739"></polygon>
            <path d="M253.896104,236.913087 L253.896104,207.202797 C253.896104,174.235764 240.829171,157.592408 216.473526,157.592408 C202.207792,157.592408 193.596404,164.125874 188.551449,173.936064 L188.261738,173.936064 L188.261738,130.569431 C188.261738,118.381618 192.107892,109.77023 204.295704,109.77023 C216.483516,109.77023 220.03996,116.903097 220.03996,129.370629 L220.03996,142.757243 L250.929071,142.757243 L250.929071,132.047952 C250.929071,102.347652 241.128871,81.5584416 203.696304,81.5584416 C168.051948,81.5584416 154.685315,104.435564 154.685315,135.924076 L154.685315,233.936064 C154.685315,265.124875 168.361638,287.702298 203.996004,287.702298 C239.96004,287.702298 253.946054,268.101898 253.946054,236.913087 L253.896104,236.913087 Z M220.37962,239.91009 C220.37962,252.677323 215.624376,260.0999 204.045954,260.0999 C192.757243,260.0999 188.311688,252.387612 188.311688,239.91009 L188.311688,203.046953 C188.891109,191.758242 193.646354,184.625375 204.345654,184.625375 C215.914086,184.625375 220.37962,191.758242 220.37962,204.835165 L220.37962,239.91009 Z" id="Shape" fill="#FFFFFF"></path>
            <g id="Group" transform="translate(294.705295, 486.513487)" fill="#FFFFFF">
                <path d="M350.789211,3.996004 C350.789211,3.996004 342.387612,15.1548452 344.795205,26.033966 C347.202797,36.9130869 359.66034,43.3766234 359.66034,43.3766234 C359.66034,43.3766234 368.061938,32.2177822 365.654346,21.3486513 C363.246753,10.4795205 350.789211,3.996004 350.789211,3.996004" id="Path"></path>
                <path d="M337.092907,67.7722278 C337.092907,67.7722278 345.494505,56.6033966 343.086913,45.7342657 C340.679321,34.8651349 328.231768,28.3916084 328.231768,28.3916084 C328.231768,28.3916084 319.82018,39.5504496 322.237762,50.4295704 C324.655345,61.3086913 337.102897,67.7722278 337.102897,67.7722278" id="Path"></path>
                <path d="M371.628372,55.8241758 C371.628372,55.8241758 380.4995,64.8151848 390.609391,63.8761239 C400.719281,62.9370629 408.201798,52.5774226 408.201798,52.5774226 C408.201798,52.5774226 399.340659,43.5864136 389.220779,44.5154845 C379.100899,45.4445554 371.628372,55.8241758 371.628372,55.8241758" id="Path"></path>
                <path d="M386.173826,7.99200799 C377.952048,16.3336663 379.110889,31.0989011 379.110889,31.0989011 C379.110889,31.0989011 393.606394,32.3576424 401.848152,24.025974 C410.08991,15.6943057 408.911089,0.919080919 408.911089,0.919080919 C408.911089,0.919080919 394.405594,-0.33966034 386.173826,7.99200799" id="Path"></path>
                <path d="M368.031968,89.000999 C378.101898,90.1998002 387.572428,81.5484515 387.572428,81.5484515 C387.572428,81.5484515 380.709291,70.9290709 370.629371,69.7802198 C360.549451,68.6313686 351.078921,77.2427572 351.078921,77.2427572 C351.078921,77.2427572 357.942058,87.8121878 368.011988,89.000999" id="Path"></path>
                <path d="M377.022977,263.966034 L301.748252,263.966034 C295.866778,263.966034 291.098901,268.733911 291.098901,274.615385 C291.098901,280.496859 295.866778,285.264735 301.748252,285.264735 L377.022977,285.264735 C382.904451,285.264735 387.672328,280.496859 387.672328,274.615385 C387.672328,268.733911 382.904451,263.966034 377.022977,263.966034" id="Path"></path>
                <path d="M377.022977,381.358641 L301.748252,381.358641 C295.866778,381.358641 291.098901,386.126518 291.098901,392.007992 C291.098901,397.889466 295.866778,402.657343 301.748252,402.657343 L377.022977,402.657343 C382.904451,402.657343 387.672328,397.889466 387.672328,392.007992 C387.672328,386.126518 382.904451,381.358641 377.022977,381.358641" id="Path"></path>
                <path d="M38.4715285,238.111888 C36.7554992,237.571257 35.0113306,237.124376 33.2467532,236.773227 C33.2467532,236.773227 35.1748252,237.372627 38.4715285,238.111888" id="Path"></path>
                <path d="M374.255744,292.707293 L304.495504,292.707293 C301.150383,292.707288 298.437079,295.416121 298.431568,298.761239 L298.431568,319.89011 L252.897103,324.885115 L186.373626,323.366633 L186.373626,282.717283 C195.315238,281.580567 204.16054,279.784125 212.837163,277.342657 C276.883117,259.280719 290.849151,206.333666 289.450549,169.7003 C288.061938,132.387612 300,117.902098 317.152847,111.458541 C321.761152,109.754739 326.521231,108.493636 331.368631,107.692308 C331.558442,116.853147 333.366633,127.512488 337.512488,140.1998 C339.040959,140.11988 340.509491,139.99001 342.057942,139.83017 C337.732268,126.843157 335.884116,116.163836 335.784216,107.052947 C340.819694,106.417284 345.904328,106.263407 350.969031,106.593407 C345.844565,103.614989 341.005576,100.170511 336.513487,96.3036963 C339.390609,78.6413586 349.92008,67.7922078 360.759241,56.6933067 C366.753247,50.5894106 372.877123,44.2857143 377.742258,36.7732268 L373.966034,34.3356643 C369.370629,41.4685315 363.346653,47.6123876 357.542458,53.5564436 C346.973027,64.3756244 336.293706,75.4245754 332.677323,92.967033 C328.815841,89.4836018 325.144221,85.795307 321.678322,81.9180819 C305.884116,64.2157842 285.554446,77.2127872 256.573427,104.205794 C227.592408,131.198801 191.098901,132.107892 155.474525,95.6643357 C108.521479,47.5524476 67.4825175,47.8321678 39.3706294,50.5594406 C58.6013986,58.7512488 65.3446553,76.7232767 75.0649351,122.397602 C85.2647353,170.34965 111.028971,192.007992 146.183816,194.995005 C126.613387,201.918082 125.644356,212.977023 99.4205794,231.078921 C78.9310689,245.204795 50.1198801,240.739261 38.4815185,238.071928 C59.9200799,244.765235 85.3246753,267.252747 108.051948,275.034965 C121.461059,279.605881 135.394479,282.462383 149.52048,283.536464 L149.52048,322.437562 L30.3396603,319.72028 L30.3396603,346.853147 L252.907093,341.758242 L298.441558,346.753247 L298.441558,367.862138 C298.447039,371.210505 301.157141,373.925072 304.505495,373.936064 L374.265734,373.936064 C377.615718,373.925098 380.328695,371.212122 380.33966,367.862138 L380.33966,298.761239 C380.328643,295.410605 377.606392,292.701764 374.255744,292.707293 L374.255744,292.707293 Z M160.46953,284.195804 C165.464535,284.275724 170.40959,284.125874 175.394605,283.786214 L175.394605,323.116883 L160.46953,322.777223 L160.46953,284.195804 Z" id="Shape"></path>
                <path d="M23.8161838,342.457542 C23.8161838,348.181818 19.8201798,352.817183 14.9050949,352.817183 L9.54045954,352.817183 C4.62537463,352.817183 0.619380619,348.181818 0.619380619,342.457542 L0.619380619,323.676324 C0.619380619,317.952048 4.61538462,313.316683 9.54045954,313.316683 L14.9050949,313.316683 C19.8201798,313.316683 23.8161838,317.952048 23.8161838,323.676324 L23.8161838,342.457542 Z" id="Path"></path>
            </g>
            <g id="Group" transform="translate(318.681319, 81.918082)" fill="#FFFFFF">
                <path d="M0.37962038,1.88811189 L20.7292707,1.88811189 C34.5754246,1.88811189 39.6403596,8.75124875 39.6403596,20.1898102 L39.6403596,37.4025974 C39.6403596,48.8411588 34.5754246,55.8241758 20.7292707,55.8241758 L14.1058941,55.8241758 L14.1058941,83.5264735 L0.37962038,83.5264735 L0.37962038,1.88811189 Z M14.1058941,13.0869131 L14.1058941,45.2347652 L19.1708292,45.2347652 C23.8661339,45.2347652 25.9140859,42.9470529 25.9140859,38.4915085 L25.9140859,19.7102897 C25.9140859,15.2547453 23.8661339,13.0869131 19.1708292,13.0869131 L14.1058941,13.0869131 Z" id="Shape"></path>
                <polygon id="Path" points="45.6543457 1.88811189 78.4115884 1.88811189 78.4115884 13.0869131 59.3806194 13.0869131 59.3806194 36.4435564 72.987013 36.4435564 72.987013 47.5224775 59.3806194 47.5224775 59.3806194 72.3276723 78.4115884 72.3276723 78.4115884 83.5264735 45.6543457 83.5264735"></polygon>
                <path d="M83.7062937,83.5264735 L99.1208791,1.88811189 L114.775225,1.88811189 L130.2997,83.5264735 L116.213786,83.5264735 L113.686314,68.5414585 L99.1208791,68.5414585 L96.7132867,83.5264735 L83.7062937,83.5264735 Z M100.899101,57.6323676 L111.888112,57.6323676 L106.473526,24.8851149 L106.353646,24.8851149 L100.899101,57.6323676 Z" id="Shape"></path>
                <path d="M134.865135,62.4475524 L134.865135,22.977023 C134.865135,10.2097902 140.859141,0.939060939 155.334665,0.939060939 C170.509491,0.939060939 174.725275,9.37062937 174.725275,21.4085914 L174.725275,31.038961 L162.207792,31.038961 L162.207792,20.3096903 C162.207792,15.2547453 160.529471,12.3176823 155.584416,12.3176823 C150.639361,12.3176823 148.591409,15.8141858 148.591409,20.7492507 L148.591409,64.5754246 C148.591409,69.5104895 150.639361,73.006993 155.584416,73.006993 C160.529471,73.006993 162.207792,69.8801199 162.207792,65.014985 L162.207792,50.04995 L174.735265,50.04995 L174.735265,64.1358641 C174.735265,75.8141858 169.92008,84.4855145 155.344655,84.4855145 C140.769231,84.4855145 134.865135,75.0949051 134.865135,62.4475524 Z" id="Path"></path>
                <polygon id="Path" points="182.197802 1.88811189 214.955045 1.88811189 214.955045 13.0869131 195.974026 13.0869131 195.974026 36.4435564 209.58042 36.4435564 209.58042 47.5224775 195.924076 47.5224775 195.924076 72.3276723 214.905095 72.3276723 214.905095 83.5264735 182.197802 83.5264735"></polygon>
                <polygon id="Path" points="236.983017 71.4785215 229.99001 89.9000999 222.287712 89.9000999 223.976024 70.3996004 236.963037 70.3996004"></polygon>
                <path d="M295.144855,1.88811189 L295.144855,64.9350649 C295.144855,76.7432567 289.96004,84.4455544 276.233766,84.4455544 C262.027972,84.4455544 258.181818,76.6233766 258.181818,66.2637363 L258.181818,50.04995 L271.168831,50.04995 L271.168831,66.5434565 C271.168831,70.6393606 272.617383,73.046953 276.223776,73.046953 C279.83017,73.046953 281.408591,70.6393606 281.408591,66.4235764 L281.408591,1.88811189 L295.144855,1.88811189 Z" id="Path"></path>
                <path d="M343.306693,1.88811189 L343.306693,63.6563437 C343.306693,76.2937063 337.882118,84.4855145 323.916084,84.4855145 C309.470529,84.4855145 303.446553,76.2937063 303.446553,63.6563437 L303.446553,1.88811189 L317.172827,1.88811189 L317.172827,64.9350649 C317.172827,69.7602398 319.100899,73.006993 323.916084,73.006993 C328.731269,73.006993 330.669331,69.8001998 330.669331,64.9350649 L330.669331,1.88811189 L343.306693,1.88811189 Z" id="Path"></path>
                <path d="M351.008991,65.9340659 L351.008991,54.9450549 L363.776224,54.9450549 L363.776224,66.1438561 C363.776224,70.7192807 365.824176,73.3666334 370.519481,73.3666334 C374.855145,73.3666334 376.783217,70.4795205 376.783217,66.1438561 L376.783217,63.016983 C376.783217,58.3216783 374.855145,55.4245754 370.639361,51.4485514 L362.567433,43.3866134 C354.745255,35.6843157 351.128871,30.979021 351.128871,21.5884116 L351.128871,18.8211788 C351.128871,8.71128871 357.032967,0.839160839 370.3996,0.839160839 C384.125874,0.839160839 389.54046,7.58241758 389.54046,19.3806194 L389.54046,26.003996 L377.022977,26.003996 L377.022977,18.981019 C377.022977,14.2857143 374.855145,11.988012 370.519481,11.988012 C366.663337,11.988012 364.015984,14.1558442 364.015984,18.7312687 L364.015984,20.4195804 C364.015984,24.995005 366.543457,27.6423576 370.519481,31.4985015 L379.310689,40.1598402 C386.773227,47.7522478 390.38961,52.3276723 390.38961,61.3586414 L390.38961,65.3546454 C390.38961,76.5434565 384.395604,84.4955045 370.40959,84.4955045 C356.423576,84.4955045 351.008991,76.6633367 351.008991,65.9340659 Z" id="Path"></path>
                <polygon id="Path" points="396.603397 1.88811189 433.096903 1.88811189 433.096903 13.0869131 421.818182 13.0869131 421.818182 83.5264735 407.972028 83.5264735 407.972028 13.0869131 396.603397 13.0869131"></polygon>
                <polygon id="Path" points="440.11988 1.88811189 453.846154 1.88811189 453.846154 83.5264735 440.11988 83.5264735"></polygon>
                <path d="M462.387612,62.4475524 L462.387612,22.977023 C462.387612,10.2097902 468.381618,0.939060939 482.857143,0.939060939 C498.031968,0.939060939 502.247752,9.37062937 502.247752,21.4085914 L502.247752,31.038961 L489.72028,31.038961 L489.72028,20.3096903 C489.72028,15.2547453 488.041958,12.3176823 483.096903,12.3176823 C478.151848,12.3176823 476.103896,15.8141858 476.103896,20.7492507 L476.103896,64.5754246 C476.103896,69.5104895 478.101898,73.006993 483.096903,73.006993 C488.091908,73.006993 489.72028,69.8801199 489.72028,65.014985 L489.72028,50.04995 L502.247752,50.04995 L502.247752,64.1358641 C502.247752,75.8141858 497.432567,84.4855145 482.857143,84.4855145 C468.281718,84.4855145 462.387612,75.0949051 462.387612,62.4475524 Z" id="Path"></path>
                <polygon id="Path" points="510.30969 1.88811189 543.066933 1.88811189 543.066933 13.0869131 524.035964 13.0869131 524.035964 36.4435564 537.642358 36.4435564 537.642358 47.5224775 524.035964 47.5224775 524.035964 72.3276723 543.066933 72.3276723 543.066933 83.5264735 510.30969 83.5264735"></polygon>
            </g>
            <g id="Group" transform="translate(316.683317, 201.798202)" fill="#FFFFFF">
                <path d="M0.699300699,83.3766234 L16.1138861,1.73826174 L31.7682318,1.73826174 L47.2927073,83.3766234 L33.2067932,83.3766234 L30.6793207,68.4515485 L16.1138861,68.4515485 L13.7062937,83.3766234 L0.699300699,83.3766234 Z M17.9220779,57.4925075 L28.9110889,57.4925075 L23.4965035,24.7452547 L23.3766234,24.7452547 L17.9220779,57.4925075 Z" id="Shape"></path>
                <polygon id="Path" points="65.7142857 32.0879121 65.7142857 83.3766234 54.1558442 83.3766234 54.1558442 1.73826174 67.6423576 1.73826174 82.4575425 48.5814186 82.4575425 1.73826174 93.9060939 1.73826174 93.9060939 83.3766234 81.8581419 83.3766234"></polygon>
                <path d="M143.986014,23.6563437 L143.986014,61.4685315 C143.986014,73.986014 138.811189,83.3766234 124.115884,83.3766234 L102.897103,83.3766234 L102.897103,1.73826174 L124.085914,1.73826174 C138.861139,1.73826174 143.986014,10.989011 143.986014,23.6563437 Z M122.427572,72.1778222 C128.091908,72.1778222 130.25974,68.8111888 130.25974,63.8761239 L130.25974,21.1288711 C130.25974,16.3136863 128.091908,12.9370629 122.427572,12.9370629 L116.653347,12.9370629 L116.653347,72.1778222 L122.427572,72.1778222 Z" id="Shape"></path>
                <path d="M166.143856,65.8041958 L166.143856,54.8151848 L178.901099,54.8151848 L178.901099,66.013986 C178.901099,70.5894106 180.949051,73.2367632 185.644356,73.2367632 C189.98002,73.2367632 191.908092,70.3496503 191.908092,66.013986 L191.908092,62.9370629 C191.908092,58.2417582 189.98002,55.3546454 185.764236,51.3786214 L177.702298,43.3166833 C169.87013,35.6043956 166.263736,30.9090909 166.263736,21.5184815 L166.263736,18.7512488 C166.263736,8.63136863 172.157842,0.769230769 185.524476,0.769230769 C199.250749,0.769230769 204.675325,7.51248751 204.675325,19.3106893 L204.675325,25.974026 L192.147852,25.974026 L192.147852,18.8711289 C192.147852,14.1758242 189.98002,11.8781219 185.644356,11.8781219 C181.798202,11.8781219 179.140859,14.045954 179.140859,18.6213786 L179.140859,20.3096903 C179.140859,24.8851149 181.668332,27.5324675 185.644356,31.3786214 L194.435564,40.04995 C201.898102,47.6423576 205.514486,52.2177822 205.514486,61.2487512 L205.514486,65.2447552 C205.514486,76.4435564 199.52048,84.3956044 185.534466,84.3956044 C171.548452,84.3956044 166.143856,76.5134865 166.143856,65.8041958 Z" id="Path"></path>
                <polygon id="Path" points="210.569431 1.73826174 247.052947 1.73826174 247.052947 12.987013 235.764236 12.987013 235.764236 83.4265734 221.888112 83.4265734 221.888112 12.987013 210.569431 12.987013"></polygon>
                <path d="M268.371628,45.954046 L268.371628,83.3966034 L254.645355,83.3966034 L254.645355,1.73826174 L274.625375,1.73826174 C288.471528,1.73826174 293.536464,8.6013986 293.536464,20.03996 L293.536464,30.5194805 C293.536464,39.3106893 290.3996,44.5054945 282.547453,46.2937063 L295.704296,83.3766234 L281.248751,83.3766234 L268.371628,45.954046 Z M268.371628,12.987013 L268.371628,38.3916084 L272.947053,38.3916084 C277.642358,38.3916084 279.68032,35.984016 279.68032,31.6583417 L279.68032,19.5604396 C279.68032,15.1048951 277.682318,12.9370629 272.947053,12.9370629 L268.371628,12.987013 Z" id="Shape"></path>
                <path d="M302.197802,62.3076923 L302.197802,22.8171828 C302.197802,10.04995 308.461538,0.779220779 322.917083,0.779220779 C337.372627,0.779220779 343.746254,10.04995 343.746254,22.8171828 L343.746254,62.3076923 C343.746254,74.955045 337.482517,84.3456543 322.917083,84.3456543 C308.351648,84.3456543 302.197802,74.9250749 302.197802,62.3076923 Z M330.01998,64.4755245 L330.01998,20.6493506 C330.01998,15.7142857 327.852148,12.2177822 322.917083,12.2177822 C317.982018,12.2177822 315.924076,15.7142857 315.924076,20.6493506 L315.924076,64.4755245 C315.924076,69.4105894 318.081918,72.9070929 322.917083,72.9070929 C327.752248,72.9070929 330.01998,69.4105894 330.01998,64.4755245 Z" id="Shape"></path>
                <polygon id="Path" points="364.335664 32.0879121 364.335664 83.3766234 352.777223 83.3766234 352.777223 1.73826174 366.263736 1.73826174 381.068931 48.5814186 381.068931 1.73826174 392.507493 1.73826174 392.507493 83.3766234 380.519481 83.3766234"></polygon>
                <path d="M422.247752,39.7902098 L441.758242,39.7902098 L441.758242,83.3766234 L431.878122,83.3766234 L431.878122,74.4655345 C430.07992,80.6093906 426.223776,84.3456543 418.761239,84.3456543 C406.963037,84.3456543 401.538462,74.955045 401.538462,62.3076923 L401.538462,22.8171828 C401.538462,10.04995 407.682318,0.779220779 422.127872,0.779220779 C437.302697,0.779220779 441.758242,9.21078921 441.758242,21.2487512 L441.758242,28.4715285 L429.230769,28.4715285 L429.230769,20.1698302 C429.230769,15.1048951 427.302697,12.1778222 422.367632,12.1778222 C417.432567,12.1778222 415.264735,15.6743257 415.264735,20.6093906 L415.264735,64.4355644 C415.264735,69.3706294 417.312687,72.8671329 422.007992,72.8671329 C426.463536,72.8671329 428.751249,70.3396603 428.751249,65.034965 L428.751249,50.6293706 L422.247752,50.6293706 L422.247752,39.7902098 Z" id="Path"></path>
                <polygon id="Path" points="2.997003 122.777223 16.7232767 122.777223 16.7232767 204.415584 2.997003 204.415584"></polygon>
                <polygon id="Path" points="37.4225774 153.116883 37.4225774 204.415584 25.8641359 204.415584 25.8641359 122.777223 39.3506494 122.777223 54.1558442 169.61039 54.1558442 122.777223 65.6043956 122.777223 65.6043956 204.415584 53.5564436 204.415584"></polygon>
                <path d="M73.9260739,186.813187 L73.9260739,175.824176 L86.6933067,175.824176 L86.6933067,187.022977 C86.6933067,191.598402 88.7412587,194.245754 93.4365634,194.245754 C97.7722278,194.245754 99.6903097,191.358641 99.6903097,187.022977 L99.6903097,183.896104 C99.6903097,179.200799 97.7722278,176.303696 93.5564436,172.337662 L85.4845155,164.265734 C77.6623377,156.563437 74.045954,151.868132 74.045954,142.467532 L74.045954,139.7003 C74.045954,129.59041 79.95005,121.718282 93.3166833,121.718282 C107.042957,121.718282 112.457542,128.461538 112.457542,140.25974 L112.457542,146.883117 L99.9000999,146.883117 L99.9000999,139.86014 C99.9000999,135.164835 97.7322677,132.867133 93.3966034,132.867133 C89.5404595,132.867133 86.8931069,135.034965 86.8931069,139.61039 L86.8931069,141.298701 C86.8931069,145.874126 89.4205794,148.521479 93.3966034,152.377622 L102.187812,161.048951 C109.65035,168.631369 113.256743,173.206793 113.256743,182.237762 L113.256743,186.233766 C113.256743,197.432567 107.262737,205.374625 93.2767233,205.374625 C79.2907093,205.374625 73.9260739,197.552448 73.9260739,186.813187 Z" id="Path"></path>
                <polygon id="Path" points="118.341658 122.777223 154.845155 122.777223 154.845155 133.976024 143.506494 133.976024 143.506494 204.415584 129.66034 204.415584 129.66034 133.976024 118.341658 133.976024"></polygon>
                <polygon id="Path" points="162.407592 122.777223 176.133866 122.777223 176.133866 204.415584 162.407592 204.415584"></polygon>
                <polygon id="Path" points="183.716284 122.777223 220.1998 122.777223 220.1998 133.976024 208.881119 133.976024 208.881119 204.415584 195.034965 204.415584 195.034965 133.976024 183.716284 133.976024"></polygon>
                <path d="M267.642358,122.777223 L267.642358,184.545455 C267.642358,197.182817 262.227772,205.374625 248.261738,205.374625 C233.806194,205.374625 227.792208,197.182817 227.792208,184.545455 L227.792208,122.777223 L241.518482,122.777223 L241.518482,185.864136 C241.518482,190.689311 243.446553,193.936064 248.261738,193.936064 C253.076923,193.936064 255.004995,190.689311 255.004995,185.864136 L255.004995,122.777223 L267.642358,122.777223 Z" id="Path"></path>
                <polygon id="Path" points="275.114885 122.777223 311.598402 122.777223 311.598402 133.976024 300.27972 133.976024 300.27972 204.415584 286.433566 204.415584 286.433566 133.976024 275.114885 133.976024"></polygon>
                <polygon id="Path" points="319.180819 122.777223 332.907093 122.777223 332.907093 204.415584 319.180819 204.415584"></polygon>
                <path d="M342.057942,183.336663 L342.057942,143.856144 C342.057942,131.088911 348.321678,121.818182 362.767233,121.818182 C377.212787,121.818182 383.616384,131.078921 383.616384,143.856144 L383.616384,183.346653 C383.616384,195.994006 377.352647,205.384615 362.787213,205.384615 C348.221778,205.384615 342.057942,195.984016 342.057942,183.336663 Z M369.87013,185.504496 L369.87013,141.678322 C369.87013,136.743257 367.702298,133.246753 362.767233,133.246753 C357.832168,133.246753 355.774226,136.743257 355.774226,141.678322 L355.774226,185.504496 C355.774226,190.43956 357.942058,193.936064 362.767233,193.936064 C367.592408,193.936064 369.87013,190.43956 369.87013,185.504496 Z" id="Shape"></path>
                <polygon id="Path" points="404.185814 153.116883 404.185814 204.415584 392.607393 204.415584 392.607393 122.777223 406.093906 122.777223 420.909091 169.61039 420.909091 122.777223 432.367632 122.777223 432.367632 204.415584 420.31968 204.415584"></polygon>
                <path d="M440.669331,186.813187 L440.669331,175.824176 L453.436563,175.824176 L453.436563,187.022977 C453.436563,191.598402 455.484515,194.245754 460.17982,194.245754 C464.515485,194.245754 466.443556,191.358641 466.443556,187.022977 L466.443556,183.896104 C466.443556,179.200799 464.515485,176.303696 460.2997,172.337662 L452.227772,164.265734 C444.405594,156.563437 440.789211,151.868132 440.789211,142.467532 L440.789211,139.7003 C440.789211,129.59041 446.693307,121.718282 460.05994,121.718282 C473.786214,121.718282 479.200799,128.461538 479.200799,140.25974 L479.200799,146.883117 L466.683317,146.883117 L466.683317,139.86014 C466.683317,135.164835 464.515485,132.867133 460.17982,132.867133 C456.323676,132.867133 453.676324,135.034965 453.676324,139.61039 L453.676324,141.298701 C453.676324,145.874126 456.203796,148.521479 460.17982,152.377622 L468.971029,161.048951 C476.433566,168.631369 480.04995,173.206793 480.04995,182.237762 L480.04995,186.233766 C480.04995,197.432567 474.055944,205.374625 460.06993,205.374625 C446.083916,205.374625 440.669331,197.552448 440.669331,186.813187 Z" id="Path"></path>
            </g>
        </g>
    </g>
</svg>