<?xml version="1.0" encoding="UTF-8"?>
<svg width="1000px" height="1000px" viewBox="0 0 1000 1000" version="1.1" xmlns="http://www.w3.org/2000/svg" xmlns:xlink="http://www.w3.org/1999/xlink">
    <!-- Generator: Sketch 53.2 (72643) - https://sketchapp.com -->
    <title>_4</title>
    <desc>Created with Sketch.</desc>
    <g id="_4" stroke="none" stroke-width="1" fill="none" fill-rule="evenodd">
        <g id="TheGlobalGoals_Icons_Color_Goal_4" fill-rule="nonzero">
            <rect id="Rectangle" fill="#C5192D" x="0" y="0" width="999.96" height="1000"></rect>
            <path d="M301.21,165.45 L301.21,171 L327.13,175.83 L327.13,165.57 L317,163.63 C324,160.26 327.13,153.27 327.13,144.34 L327.13,104.78 C327.13,92.01 320.86,82.72 306.29,82.72 C291.72,82.72 285.55,92 285.55,104.78 L285.55,144.34 C285.55,155.43 290.25,163.52 301.21,165.45 L301.21,165.45 Z M299.3,102.62 C299.3,97.68 301.46,94.19 306.3,94.19 C311.14,94.19 313.4,97.68 313.4,102.62 L313.4,147.24 C313.4,152.06 311.24,155.69 306.3,155.69 C301.36,155.69 299.3,152.06 299.3,147.24 L299.3,102.62 Z" id="Shape" fill="#FFFFFF"></path>
            <path d="M356.68,166.42 C370.68,166.42 376.1,158.21 376.1,145.55 L376.1,83.68 L363.43,83.68 L363.43,146.88 C363.43,151.7 361.5,154.96 356.68,154.96 C351.86,154.96 349.93,151.7 349.93,146.88 L349.93,83.68 L336.18,83.68 L336.18,145.55 C336.18,158.21 342.18,166.42 356.68,166.42" id="Path" fill="#FFFFFF"></path>
            <path d="M396.46,150.49 L411,150.49 L413.54,165.49 L427.65,165.49 L412.13,83.68 L396.46,83.68 L381,165.45 L394,165.45 L396.46,150.49 Z M403.68,106.72 L403.82,106.72 L409.24,139.52 L398.24,139.52 L403.68,106.72 Z" id="Shape" fill="#FFFFFF"></path>
            <polygon id="Path" fill="#FFFFFF" points="464.69 154.23 448.31 154.23 448.31 83.68 434.56 83.68 434.56 165.45 464.69 165.45"></polygon>
            <rect id="Rectangle" fill="#FFFFFF" x="471.07" y="83.68" width="13.74" height="81.76"></rect>
            <polygon id="Path" fill="#FFFFFF" points="502.61 165.45 516.46 165.45 516.46 94.9 527.8 94.9 527.8 83.68 491.29 83.68 491.29 94.9 502.61 94.9"></polygon>
            <polygon id="Path" fill="#FFFFFF" points="547.31 165.45 561.06 165.45 561.06 134.33 576.24 83.68 563.1 83.68 554.78 114.68 554.66 114.68 546.35 83.68 532 83.68 547.31 134.33"></polygon>
            <polygon id="Path" fill="#FFFFFF" points="318.31 274.13 299.27 274.13 299.27 249.27 312.88 249.27 312.88 238.19 299.27 238.19 299.27 214.79 318.31 214.79 318.31 203.57 285.53 203.57 285.53 285.33 318.31 285.33"></polygon>
            <path d="M367.85,263.38 L367.85,225.52 C367.85,212.86 362.68,203.52 347.97,203.52 L326.74,203.52 L326.74,285.29 L348,285.29 C362.71,285.29 367.88,275.88 367.88,263.29 L367.85,263.38 Z M340.52,274.03 L340.52,214.78 L346.31,214.78 C351.97,214.78 354.13,218.16 354.13,222.98 L354.13,265.8 C354.13,270.74 351.97,274.12 346.31,274.12 L340.52,274.03 Z" id="Shape" fill="#FFFFFF"></path>
            <path d="M376.9,203.57 L376.9,265.44 C376.9,278.11 382.9,286.3 397.39,286.3 C411.39,286.3 416.8,278.11 416.8,265.44 L416.8,203.57 L404.15,203.57 L404.15,266.76 C404.15,271.59 402.21,274.84 397.39,274.84 C392.57,274.84 390.64,271.59 390.64,266.76 L390.64,203.57 L376.9,203.57 Z" id="Path" fill="#FFFFFF"></path>
            <path d="M425.84,264.23 C425.84,276.89 431.84,286.3 446.34,286.3 C460.84,286.3 465.74,277.62 465.74,265.91 L465.74,251.81 L453.21,251.81 L453.21,266.88 C453.21,271.71 451.52,274.88 446.58,274.88 C441.64,274.88 439.58,271.39 439.58,266.43 L439.58,222.51 C439.58,217.56 441.58,214.06 446.58,214.06 C451.58,214.06 453.21,216.95 453.21,222.06 L453.21,232.79 L465.74,232.79 L465.74,223.1 C465.74,211.1 461.52,202.6 446.34,202.6 C431.87,202.6 425.84,211.89 425.84,224.67 L425.84,264.23 Z" id="Path" fill="#FFFFFF"></path>
            <path d="M485.38,270.37 L500,270.37 L502.53,285.37 L516.6,285.37 L501.05,203.61 L485.38,203.61 L469.94,285.37 L482.94,285.37 L485.38,270.37 Z M492.6,226.6 L492.72,226.6 L498.15,259.4 L487.15,259.4 L492.6,226.6 Z" id="Shape" fill="#FFFFFF"></path>
            <polygon id="Path" fill="#FFFFFF" points="514.89 214.79 526.21 214.79 526.21 285.33 540.08 285.33 540.08 214.79 551.4 214.79 551.4 203.57 514.89 203.57"></polygon>
            <rect id="Rectangle" fill="#FFFFFF" x="559" y="203.57" width="13.75" height="81.77"></rect>
            <path d="M602.65,286.3 C617.22,286.3 623.48,276.9 623.48,264.22 L623.48,224.67 C623.48,211.89 617.22,202.61 602.65,202.61 C588.08,202.61 581.92,211.89 581.92,224.67 L581.92,264.22 C581.92,276.9 588.18,286.3 602.65,286.3 L602.65,286.3 Z M595.65,222.5 C595.65,217.56 597.82,214.07 602.65,214.07 C607.48,214.07 609.76,217.56 609.76,222.5 L609.76,266.39 C609.76,271.39 607.59,274.84 602.65,274.84 C597.71,274.84 595.65,271.35 595.65,266.39 L595.65,222.5 Z" id="Shape" fill="#FFFFFF"></path>
            <polygon id="Path" fill="#FFFFFF" points="644.12 233.95 660.28 285.35 672.34 285.35 672.34 203.56 660.88 203.56 660.88 250.48 646.05 203.56 632.56 203.56 632.56 285.35 644.12 285.35"></polygon>
            <path d="M156.65,285.43 L188.76,285.43 L188.76,252.72 L202.45,252.72 L202.45,226.26 L188.76,226.26 L188.76,83.8 L155.45,83.8 L96.87,231.9 L96.87,252.72 L156.65,252.72 L156.65,285.43 Z M126.65,226.26 L156.98,143.26 L157.28,143.26 L157.28,226.26 L126.65,226.26 Z" id="Shape" fill="#FFFFFF"></path>
            <g id="Group" transform="translate(220.000000, 402.000000)" fill="#FFFFFF">
                <polygon id="Path" points="218.3 134.19 38.96 30.63 38.96 365.63 218.3 419.74"></polygon>
                <polygon id="Path" points="238.03 134.87 238.03 419.86 418.53 365.59 418.53 30.64"></polygon>
                <path d="M559.32,22.15 C559.486949,14.4608106 555.480304,7.28317122 548.847702,3.38957362 C542.215101,-0.504023975 533.994899,-0.504023975 527.362298,3.38957362 C520.729696,7.28317122 516.723051,14.4608106 516.89,22.15 L516.89,45 L559.32,45 L559.32,22.15 Z" id="Path"></path>
                <polygon id="Path" points="522.16 359.69 516.89 359.69 538.12 433.85 559.31 359.69 554.04 359.69 559.31 359.69 559.31 61.64 554.04 61.64 548.77 61.64 543.19 61.64 532.63 61.64 527.42 61.64 522.16 61.64 516.88 61.64 516.88 359.69"></polygon>
                <polygon id="Path" points="457.06 45.02 437.83 29.83 437.83 374.72 238.56 439.11 229.34 439.11 227.51 439.11 218.3 439.11 19.92 383.68 19.92 29.83 0.68 45.02 0.68 397.17 217.39 457.17 227.51 457.17 229.34 457.17 239.46 457.17 439.4 393.69 457.06 388.49"></polygon>
            </g>
        </g>
    </g>
</svg>