<?xml version="1.0" encoding="UTF-8"?>
<svg width="1000px" height="1000px" viewBox="0 0 1000 1000" version="1.1" xmlns="http://www.w3.org/2000/svg" xmlns:xlink="http://www.w3.org/1999/xlink">
    <!-- Generator: Sketch 53.2 (72643) - https://sketchapp.com -->
    <title>_7</title>
    <desc>Created with Sketch.</desc>
    <g id="_7" stroke="none" stroke-width="1" fill="none" fill-rule="evenodd">
        <g id="TheGlobalGoals_Icons_Color_Goal_7" transform="translate(1.000000, 0.000000)" fill-rule="nonzero">
            <rect id="_Path_" fill="#FCC30B" x="0" y="0.978043912" width="998.003992" height="998.033932"></rect>
            <polygon id="_Path_2" fill="#FFFFFF" points="102.365269 112.225549 154.610778 112.225549 109.481038 285.848303 143.033932 285.848303 187.255489 115.788423 187.255489 84.6207585 102.365269 84.6207585"></polygon>
            <g id="Group" transform="translate(243.512974, 374.251497)" fill="#FFFFFF">
                <path d="M255.489022,110.269461 C196.31493,110.245239 142.95422,145.872745 120.293422,200.535913 C97.6326248,255.199082 110.1354,318.130514 151.970667,359.980056 C193.805933,401.829599 256.733095,414.353845 311.403992,391.7117 C366.074889,369.069554 401.720599,315.721003 401.716567,256.546906 C401.722081,175.777306 336.258619,110.291505 255.489022,110.269461 L255.489022,110.269461 Z M244.660679,168.053892 C244.660679,163.193613 249.540918,157.824351 255.548902,157.824351 C261.556886,157.824351 266.377246,163.193613 266.377246,168.053892 L266.377246,218.283433 C266.377246,223.123752 261.536926,228.433134 255.548902,228.433134 C249.560878,228.433134 244.660679,223.123752 244.660679,218.283433 L244.660679,168.053892 Z M255.489022,331.497006 C217.928341,331.437527 186.030745,303.978411 180.385859,266.844282 C174.740973,229.710152 197.037928,194.012737 232.884232,182.794411 L232.884232,211.127745 C212.363398,221.58906 201.696689,244.760134 207.093461,267.152512 C212.490233,289.54489 232.541559,305.312632 255.575067,305.276945 C278.608574,305.241258 298.610944,289.411459 303.938303,267.002465 C309.265662,244.593471 298.527204,221.455561 277.974052,211.057884 L277.974052,182.724551 C313.916203,193.85124 336.329011,229.577229 330.706333,266.77974 C325.083656,303.982252 293.114031,331.489041 255.489022,331.497006 L255.489022,331.497006 Z" id="_Compound_Path_"></path>
                <path d="M87.5548902,255.269461 C87.5548902,248.632735 81.6766467,243.293413 76.3173653,243.293413 L12.255489,243.293413 C6.85628743,243.293413 0.928143713,248.662675 0.928143713,255.269461 C0.928143713,261.876248 6.85628743,267.315369 12.255489,267.315369 L76.3173653,267.315369 C81.6766467,267.315369 87.5548902,261.916168 87.5548902,255.269461" id="_Path_3"></path>
                <path d="M510.0499,255.269461 C510.0499,248.632735 504.171657,243.293413 498.812375,243.293413 L434.760479,243.293413 C429.361277,243.293413 423.433134,248.662675 423.433134,255.269461 C423.433134,261.876248 429.361277,267.315369 434.760479,267.315369 L498.812375,267.315369 C504.171657,267.315369 510.0499,261.916168 510.0499,255.269461" id="_Path_4"></path>
                <path d="M255.489022,87.3552894 C262.105788,87.3552894 267.46507,81.4770459 267.46507,76.1177645 L267.46507,12.0558882 C267.46507,6.65668663 262.085828,0.728542914 255.489022,0.728542914 C248.892216,0.728542914 243.423154,6.65668663 243.423154,12.0558882 L243.423154,76.1177645 C243.423154,81.4770459 248.842315,87.3552894 255.489022,87.3552894" id="_Path_5"></path>
                <path d="M255.489022,509.840319 C262.105788,509.840319 267.46507,503.962076 267.46507,498.602794 L267.46507,434.550898 C267.46507,429.161677 262.085828,423.223553 255.489022,423.223553 C248.892216,423.223553 243.423154,429.161677 243.423154,434.550898 L243.423154,498.602794 C243.423154,503.962076 248.842315,509.840319 255.489022,509.840319" id="_Path_6"></path>
                <path d="M109.780439,171.846307 C113.083832,166.087824 110.658683,158.512974 105.988024,155.878244 L50.3992016,124.061876 C45.7085828,121.377246 37.9041916,123.063872 34.6007984,128.852295 C31.2974052,134.640719 33.7724551,142.255489 38.4530938,144.94012 L94.0518962,176.756487 C98.7025948,179.421158 106.487026,177.654691 109.780439,171.876248" id="_Path_7"></path>
                <path d="M476.437126,381.706587 C479.720559,375.968064 477.295409,368.373253 472.644711,365.738523 L417.055888,333.922156 C412.365269,331.247505 404.550898,332.924152 401.257485,338.722555 C397.964072,344.520958 400.419162,352.125749 405.0998,354.800399 L460.698603,386.616766 C465.349301,389.281437 473.133733,387.51497 476.437126,381.736527" id="_Path_8"></path>
                <path d="M338.932136,109.550898 C344.680639,112.834331 352.255489,110.409182 354.9002,105.758483 L386.706587,50.1596806 C389.401198,45.4690619 387.704591,37.6546906 381.926148,34.3612774 C376.147705,31.0678643 368.512974,33.5229541 365.838323,38.2135729 L334.051896,93.8123752 C331.387226,98.4730539 333.153693,106.257485 338.932136,109.560878" id="_Path_9"></path>
                <path d="M129.071856,476.237525 C134.820359,479.520958 142.39521,477.095808 145.03992,472.43513 L176.846307,416.846307 C179.530938,412.165669 177.844311,404.341317 172.055888,401.047904 C166.267465,397.754491 158.682635,400.199601 156.007984,404.9002 L124.191617,460.489022 C121.526946,465.139721 123.293413,472.934132 129.071856,476.237525" id="_Path_10"></path>
                <path d="M171.796407,109.690619 C177.53493,106.387226 179.271457,98.6127745 176.596806,93.9620758 L144.660679,38.4331337 C141.966068,33.752495 134.361277,31.2974052 128.612774,34.6007984 C122.864271,37.9041916 121.117764,45.748503 123.822355,50.4291417 L155.758483,105.948104 C158.443114,110.598802 166.037924,113.003992 171.816367,109.690619" id="_Path_11"></path>
                <path d="M382.40519,475.948104 C388.153693,472.644711 389.88024,464.870259 387.215569,460.229541 L355.279441,404.700599 C352.58483,400.00998 344.98004,397.55489 339.221557,400.858283 C333.463074,404.161677 331.726547,412.005988 334.441118,416.696607 L366.377246,472.215569 C369.051896,476.866267 376.656687,479.261477 382.42515,475.948104" id="_Path_12"></path>
                <path d="M401.087824,171.586826 C404.391218,177.335329 412.155689,179.061876 416.806387,176.397206 L472.325349,144.461078 C477.015968,141.766467 479.491018,134.151697 476.177645,128.403194 C472.864271,122.654691 465.03992,120.918164 460.349301,123.612774 L404.830339,155.548902 C400.169661,158.223553 397.774451,165.838323 401.087824,171.596806" id="_Path_13"></path>
                <path d="M34.8303393,382.235529 C38.1337325,387.984032 45.8982036,389.710579 50.5588822,387.035928 L106.077844,355.0998 C110.758483,352.40519 113.233533,344.790419 109.91018,339.041916 C106.586826,333.293413 98.7724551,331.556886 94.0918164,334.241517 L38.5728543,366.177645 C33.9121756,368.842315 31.5169661,376.467066 34.8303393,382.225549" id="_Path_14"></path>
            </g>
            <g id="_Group_" transform="translate(282.435130, 82.834331)" fill="#FFFFFF">
                <path d="M0.479041916,83.2335329 L15.8782435,1.66666667 L31.5269461,1.66666667 L47.0459082,83.2335329 L32.9341317,83.2335329 L30.4091816,68.3233533 L15.8782435,68.3233533 L13.4730539,83.2335329 L0.479041916,83.2335329 Z M17.6846307,57.3652695 L28.6626747,57.3652695 L23.253493,24.6407186 L23.1337325,24.6407186 L17.6846307,57.3652695 Z" id="_Compound_Path_2"></path>
                <polygon id="_Compound_Path_3" points="52.0958084 1.66666667 84.2215569 1.66666667 84.2215569 12.8542914 65.8083832 12.8542914 65.8083832 36.1976048 79.5309381 36.1976048 79.5309381 47.2654691 65.8083832 47.2654691 65.8083832 83.1936128 52.0958084 83.1936128"></polygon>
                <polygon id="_Compound_Path_4" points="89.6307385 1.66666667 121.756487 1.66666667 121.756487 12.8542914 103.343313 12.8542914 103.343313 36.1976048 117.065868 36.1976048 117.065868 47.2654691 103.343313 47.2654691 103.343313 83.1936128 89.6307385 83.1936128"></polygon>
                <path d="M125.968064,62.1856287 L125.968064,22.7145709 C125.968064,9.98003992 132.225549,0.698602794 146.706587,0.698602794 C161.187625,0.698602794 167.52495,9.96007984 167.52495,22.7145709 L167.52495,62.1856287 C167.52495,74.8203593 161.267465,84.2015968 146.706587,84.2015968 C132.145709,84.2015968 125.968064,74.8502994 125.968064,62.1856287 Z M153.762475,64.3512974 L153.762475,20.5489022 C153.762475,15.6187625 151.596806,12.1257485 146.656687,12.1257485 C141.716567,12.1257485 139.670659,15.6187625 139.670659,20.5489022 L139.670659,64.3512974 C139.670659,69.2814371 141.836327,72.7744511 146.656687,72.7744511 C151.477046,72.7744511 153.762475,69.2814371 153.762475,64.3512974 L153.762475,64.3512974 Z" id="_Compound_Path_5"></path>
                <path d="M188.403194,45.8183633 L188.403194,83.2335329 L174.650699,83.2335329 L174.650699,1.66666667 L194.610778,1.66666667 C208.502994,1.66666667 213.572854,8.52295409 213.572854,19.9600798 L213.572854,30.4291417 C213.572854,39.2115768 210.449102,44.4011976 202.59481,46.1876248 L215.708583,83.243513 L201.277445,83.243513 L188.403194,45.8183633 Z M188.403194,12.8842315 L188.403194,38.2634731 L192.974052,38.2634731 C197.674651,38.2634731 199.720559,35.8582834 199.720559,31.5269461 L199.720559,19.5508982 C199.720559,15.0998004 197.674651,12.9341317 192.974052,12.9341317 L188.403194,12.8842315 Z" id="_Compound_Path_6"></path>
                <path d="M261.477046,23.5628743 L261.477046,61.3373253 C261.477046,73.8522954 256.307385,83.2335329 241.626747,83.2335329 L220.409182,83.2335329 L220.409182,1.66666667 L241.586826,1.66666667 C256.267465,1.66666667 261.477046,10.9780439 261.477046,23.5628743 Z M239.94012,72.0459082 C245.598802,72.0459082 247.764471,68.6826347 247.764471,63.742515 L247.764471,21.0279441 C247.764471,16.2175649 245.598802,12.8542914 239.94012,12.8542914 L234.161677,12.8542914 L234.161677,72.0459082 L239.94012,72.0459082 Z" id="_Compound_Path_7"></path>
                <path d="M264.680639,83.2335329 L280.07984,1.66666667 L295.728543,1.66666667 L311.247505,83.2335329 L297.165669,83.2335329 L294.640719,68.3233533 L280.07984,68.3233533 L277.674651,83.2335329 L264.680639,83.2335329 Z M281.886228,57.3652695 L292.864271,57.3652695 L287.42515,24.6407186 L287.305389,24.6407186 L281.886228,57.3652695 Z" id="_Compound_Path_8"></path>
                <path d="M316.297405,1.66666667 L336.147705,1.66666667 C349.870259,1.66666667 354.441118,8.03393214 354.441118,19.6307385 L354.441118,27.9441118 C354.441118,34.8003992 351.906188,39.1317365 346.257485,40.9181637 C353.113772,42.4750499 356.487026,47.0558882 356.487026,54.510978 L356.487026,65.3393214 C356.487026,76.8862275 351.307385,83.3033932 337.59481,83.3033932 L316.297405,83.3033932 L316.297405,1.66666667 Z M330.00998,36.0778443 L334.830339,36.0778443 C339.281437,36.0778443 341.327345,33.7824351 341.327345,29.4510978 L341.327345,19.4710579 C341.327345,15.0199601 339.331337,12.8542914 334.710579,12.8542914 L330.00998,12.8542914 L330.00998,36.0778443 Z M330.00998,46.5369261 L330.00998,72.0459082 L335.998004,72.0459082 C340.568862,72.0459082 342.734531,69.760479 342.734531,65.4291417 L342.734531,53.1536926 C342.734531,48.8223553 340.688623,46.5369261 335.878244,46.5369261 L330.00998,46.5369261 Z" id="_Compound_Path_9"></path>
                <polygon id="_Compound_Path_10" points="362.734531 1.66666667 376.457086 1.66666667 376.457086 72.0459082 392.814371 72.0459082 392.814371 83.2335329 362.734531 83.2335329"></polygon>
                <polygon id="_Compound_Path_11" points="398.463074 1.66666667 431.197605 1.66666667 431.197605 12.8542914 412.175649 12.8542914 412.175649 36.1976048 425.768463 36.1976048 425.768463 47.2654691 412.175649 47.2654691 412.175649 72.0459082 431.137725 72.0459082 431.137725 83.2335329 398.403194 83.2335329"></polygon>
                <path d="M447.794411,83.2335329 L463.193613,1.66666667 L478.832335,1.66666667 L494.361277,83.2335329 L480.279441,83.2335329 L477.754491,68.3233533 L463.193613,68.3233533 L460.788423,83.2335329 L447.794411,83.2335329 Z M465,57.3652695 L475.978044,57.3652695 L470.568862,24.6407186 L470.439122,24.6407186 L465,57.3652695 Z" id="_Compound_Path_12"></path>
                <polygon id="_Compound_Path_13" points="510.978044 31.9860279 510.978044 83.2335329 499.411178 83.2335329 499.411178 1.66666667 512.884232 1.66666667 527.684631 48.4630739 527.684631 1.66666667 539.111776 1.66666667 539.111776 83.2335329 527.085828 83.2335329"></polygon>
                <path d="M587.355289,23.5628743 L587.355289,61.3373253 C587.355289,73.8522954 582.185629,83.2335329 567.50499,83.2335329 L546.327345,83.2335329 L546.327345,1.66666667 L567.50499,1.66666667 C582.185629,1.66666667 587.355289,10.9780439 587.355289,23.5628743 Z M565.868263,72.0459082 C571.526946,72.0459082 573.692615,68.6826347 573.692615,63.742515 L573.692615,21.0279441 C573.692615,16.2175649 571.526946,12.8542914 565.868263,12.8542914 L560.0998,12.8542914 L560.0998,72.0459082 L565.868263,72.0459082 Z" id="_Compound_Path_14"></path>
            </g>
            <g id="_Group_2" transform="translate(284.431138, 203.592814)" fill="#FFFFFF">
                <path d="M0.538922156,61.2075848 L0.538922156,21.9560878 C0.538922156,9.27145709 6.52694611,0 20.8882236,0 C35.9680639,0 40.1596806,8.38323353 40.1596806,20.3493014 L40.1596806,29.9401198 L27.7045908,29.9401198 L27.7045908,19.3113772 C27.7045908,14.3213573 26.0279441,11.4171657 21.1277445,11.4171657 C16.2275449,11.4171657 14.1417166,14.8802395 14.1417166,19.7904192 L14.1417166,63.3632735 C14.1417166,68.2734531 16.1377246,71.7365269 21.1277445,71.7365269 C26.1177645,71.7365269 27.7045908,68.6227545 27.7045908,63.8423154 L27.7045908,48.9021956 L40.1596806,48.9021956 L40.1596806,62.8742515 C40.1596806,74.4810379 35.3692615,83.1037924 20.8882236,83.1037924 C6.40718563,83.1037924 0.538922156,73.7724551 0.538922156,61.2075848 Z" id="_Compound_Path_15"></path>
                <polygon id="_Compound_Path_16" points="48.7724551 0.998003992 62.4151697 0.998003992 62.4151697 71.0179641 78.6926148 71.0179641 78.6926148 82.1556886 48.752495 82.1556886"></polygon>
                <polygon id="_Compound_Path_17" points="86.1177645 0.998003992 118.672655 0.998003992 118.672655 12.1357285 99.8003992 12.1357285 99.8003992 35.3493014 113.323353 35.3493014 113.323353 46.3273453 99.8003992 46.3273453 99.8003992 70.9780439 118.762475 70.9780439 118.762475 82.1157685 86.1177645 82.1157685"></polygon>
                <path d="M125.01996,82.1556886 L140.339321,0.998003992 L155.898204,0.998003992 L171.337325,82.1556886 L157.365269,82.1556886 L154.850299,67.3153693 L140.339321,67.3153693 L137.944112,82.1556886 L125.01996,82.1556886 Z M142.135729,56.4171657 L153.023952,56.4171657 L147.634731,23.8622754 L147.51497,23.8622754 L142.135729,56.4171657 Z" id="_Compound_Path_18"></path>
                <polygon id="_Compound_Path_19" points="189.620758 31.1676647 189.620758 82.1556886 178.153693 82.1556886 178.153693 0.998003992 191.616766 0.998003992 206.337325 47.5648703 206.337325 0.998003992 217.704591 0.998003992 217.704591 82.1556886 205.728543 82.1556886"></polygon>
                <polygon id="_Compound_Path_20" points="254.161677 0.998003992 286.716567 0.998003992 286.716567 12.1357285 267.804391 12.1357285 267.804391 35.3493014 281.327345 35.3493014 281.327345 46.3273453 267.804391 46.3273453 267.804391 70.9780439 286.716567 70.9780439 286.716567 82.1157685 254.161677 82.1157685"></polygon>
                <polygon id="_Compound_Path_21" points="306.387226 31.1676647 306.387226 82.1556886 294.860279 82.1556886 294.860279 0.998003992 308.263473 0.998003992 322.984032 47.5648703 322.984032 0.998003992 334.331337 0.998003992 334.331337 82.1556886 322.355289 82.1556886"></polygon>
                <polygon id="_Compound_Path_22" points="343.213573 0.998003992 375.768463 0.998003992 375.768463 12.1357285 356.856287 12.1357285 356.856287 35.3493014 370.379242 35.3493014 370.379242 46.3273453 356.856287 46.3273453 356.856287 70.9780439 375.768463 70.9780439 375.768463 82.1157685 343.213573 82.1157685"></polygon>
                <path d="M397.674651,44.9101796 L397.674651,82.1357285 L384.021956,82.1357285 L384.021956,0.998003992 L403.892216,0.998003992 C417.664671,0.998003992 422.684631,7.8243513 422.684631,19.1916168 L422.684631,29.6107784 C422.684631,38.3433134 419.570858,43.493014 411.796407,45.2894212 L424.840319,82.1556886 L410.479042,82.1556886 L397.674651,44.9101796 Z M397.674651,12.1157685 L397.674651,37.3652695 L402.195609,37.3652695 C406.866267,37.3652695 408.902196,34.9700599 408.902196,30.6686627 L408.902196,18.6926148 C408.902196,14.261477 406.906188,12.1157685 402.195609,12.1157685 L397.674651,12.1157685 Z" id="_Compound_Path_23"></path>
                <path d="M451.886228,38.8223553 L471.277445,38.8223553 L471.277445,82.1556886 L461.467066,82.1556886 L461.467066,73.2934132 C459.670659,79.4011976 455.838323,83.1137725 448.423154,83.1137725 C436.686627,83.1137725 431.307385,73.7724551 431.307385,61.2075848 L431.307385,21.9560878 C431.307385,9.27145709 437.40519,0 451.766467,0 C466.856287,0 471.277445,8.38323353 471.277445,20.3493014 L471.277445,27.5349301 L458.832335,27.5349301 L458.832335,19.2714571 C458.832335,14.2814371 456.916168,11.3772455 452.015968,11.3772455 C447.115768,11.3772455 444.9501,14.8403194 444.9501,19.750499 L444.9501,63.3233533 C444.9501,68.2335329 446.946108,71.6966068 451.646707,71.6966068 C456.077844,71.6966068 458.353293,69.1816367 458.353293,63.9221557 L458.353293,49.6007984 L451.886228,49.6007984 L451.886228,38.8223553 Z" id="_Compound_Path_24"></path>
                <polygon id="_Compound_Path_25" points="506.586826 51.2674651 506.586826 82.1556886 492.944112 82.1556886 492.944112 51.2674651 477.744511 0.998003992 492.015968 0.998003992 500.279441 31.7664671 500.399202 31.7664671 508.622754 0.998003992 521.666667 0.998003992"></polygon>
            </g>
        </g>
    </g>
</svg>