<?xml version="1.0" encoding="UTF-8"?>
<svg width="1000px" height="1000px" viewBox="0 0 1000 1000" version="1.1" xmlns="http://www.w3.org/2000/svg" xmlns:xlink="http://www.w3.org/1999/xlink">
    <!-- Generator: Sketch 53.2 (72643) - https://sketchapp.com -->
    <title>_9</title>
    <desc>Created with Sketch.</desc>
    <g id="_9" stroke="none" stroke-width="1" fill="none" fill-rule="evenodd">
        <g id="TheGlobalGoals_Icons_Color_Goal_9" transform="translate(1.000000, 0.000000)" fill-rule="nonzero">
            <rect id="_Path_" fill="#FD6925" x="0" y="0.988023952" width="998.003992" height="998.023952"></rect>
            <path d="M182.784431,135.259481 C182.784431,104.101796 169.131737,81.5668663 133.542914,81.5668663 C97.6147705,81.5668663 83.7025948,101.137725 83.7025948,132.285429 L83.7025948,161.956088 C83.7025948,194.89022 96.746507,211.497006 121.087824,211.497006 C135.329341,211.497006 143.922156,204.96008 148.962076,195.189621 L149.251497,195.189621 L149.251497,238.522954 C149.251497,250.688623 144.510978,259.291417 132.355289,259.291417 C120.199601,259.291417 115.768463,252.135729 115.768463,239.670659 L115.768463,226.327345 L84.8802395,226.327345 L84.8802395,237.015968 C84.8802395,266.666667 95.5688623,287.43513 132.954092,287.43513 C168.532934,287.43513 182.784431,264.590818 182.784431,233.143713 L182.784431,135.259481 Z M149.251497,166.107784 C148.662675,177.37525 143.922156,184.491018 133.283433,184.491018 C121.726547,184.491018 117.315369,177.37525 117.315369,164.321357 L117.315369,129.321357 C117.315369,116.566866 122.045908,109.151697 133.632735,109.151697 C144.9002,109.151697 149.341317,116.856287 149.341317,129.321357 L149.251497,166.107784 Z" id="_Compound_Path_" fill="#FFFFFF"></path>
            <path d="M748.383234,656.966068 L629.740519,588.493014 L629.740519,451.516966 C629.745588,448.644417 628.225888,445.984942 625.748503,444.530938 L503.093812,373.672655 C500.590131,372.224773 497.503681,372.224773 495,373.672655 L372.255489,444.510978 C369.778104,445.964982 368.258404,448.624457 368.263473,451.497006 L368.263473,588.493014 L249.620758,656.966068 C247.121835,658.406431 245.578243,661.067798 245.568862,663.952096 L245.568862,805.668663 C245.580285,808.552408 247.123329,811.212829 249.620758,812.654691 L372.285429,883.512974 C374.79185,884.95061 377.872821,884.95061 380.379242,883.512974 L499.001996,814.98004 L617.60479,883.453094 C620.111211,884.89073 623.192182,884.89073 625.698603,883.453094 L748.383234,812.59481 C750.880663,811.152949 752.423707,808.492527 752.43513,805.608782 L752.43513,663.892216 C752.408583,661.028241 750.866744,658.392683 748.383234,656.966068 Z M490.898204,791.616766 L392.51497,734.800399 L490.908184,677.994012 L490.898204,791.616766 Z M605.469062,593.173653 L507.085828,649.9501 L507.085828,536.357285 L605.469062,593.173653 Z M490.908184,649.96008 L392.52495,593.163673 L490.908184,536.357285 L490.908184,649.96008 Z M515.189621,663.932136 L621.656687,602.51497 L728.153693,663.972056 L621.656687,725.459082 L515.189621,663.932136 Z M613.562874,579.101796 L515.189621,522.285429 L613.562874,465.489022 L613.562874,579.101796 Z M482.824351,522.285429 L384.431138,579.101796 L384.431138,465.538922 L482.824351,522.285429 Z M368.263473,862.42515 L261.776447,800.958084 L261.776447,677.994012 L368.263473,739.520958 L368.263473,862.42515 Z M384.441118,862.42515 L384.441118,748.822355 L482.834331,805.638723 L384.441118,862.42515 Z M736.267465,800.958084 L629.740519,862.42515 L629.740519,739.520958 L736.247505,678.033932 L736.267465,800.958084 Z" id="_Compound_Path_2" fill="#FFFFFF"></path>
            <g id="_Group_" transform="translate(235.528942, 84.830339)" fill="#FFFFFF">
                <polygon id="_Compound_Path_3" points="0.0698602794 1.37724551 13.1437126 1.37724551 13.1437126 79.2215569 0.0698602794 79.2215569"></polygon>
                <polygon id="_Compound_Path_4" points="30.00998 30.2894212 30.00998 79.1916168 18.9620758 79.1916168 18.9620758 1.34730539 31.8063872 1.34730539 45.9181637 45.9780439 45.9181637 1.37724551 56.8862275 1.37724551 56.8862275 79.2215569 45.3892216 79.2215569"></polygon>
                <path d="M101.716567,22.2654691 L101.716567,58.2834331 C101.716567,70.259481 96.7864271,79.1716567 82.754491,79.1716567 L62.5948104,79.1716567 L62.5948104,1.32734531 L82.8343313,1.32734531 C96.8063872,1.37724551 101.716567,10.2195609 101.716567,22.2654691 Z M81.1776447,68.502994 C86.5768463,68.502994 88.6427146,65.2894212 88.6427146,60.5788423 L88.6427146,19.8502994 C88.6427146,15.259481 86.5768463,12.0558882 81.1776447,12.0558882 L75.6786427,12.0558882 L75.6786427,68.502994 L81.1776447,68.502994 Z" id="_Compound_Path_5"></path>
                <path d="M145.429142,1.37724551 L145.429142,60.259481 C145.429142,72.3053892 140.269461,80.1097804 126.956088,80.1097804 C113.193613,80.1097804 107.45509,72.3053892 107.45509,60.259481 L107.45509,1.37724551 L120.538922,1.37724551 L120.538922,61.497006 C120.538922,66.0878244 122.365269,69.1916168 126.956088,69.1916168 C131.546906,69.1916168 133.383234,66.0878244 133.383234,61.497006 L133.383234,1.37724551 L145.429142,1.37724551 Z" id="_Compound_Path_6"></path>
                <path d="M150.479042,62.4151697 L150.479042,51.9760479 L162.674651,51.9760479 L162.674651,62.6447106 C162.674651,67.005988 164.620758,69.5309381 169.091816,69.5309381 C173.223553,69.5309381 175.07984,66.7764471 175.07984,62.6447106 L175.07984,59.6506986 C175.07984,55.1796407 173.243513,52.4251497 169.231537,48.6726547 L161.546906,40.9780439 C154.081836,33.6427146 150.638723,29.1616766 150.638723,20.2195609 L150.638723,17.5748503 C150.638723,7.94411178 156.267465,0.479041916 169.001996,0.479041916 C182.075848,0.479041916 187.245509,6.90618762 187.245509,18.1536926 L187.245509,24.4610778 L175.269461,24.4610778 L175.269461,17.6946108 C175.269461,13.2135729 173.203593,11.0379242 169.071856,11.0379242 C165.399202,11.0379242 162.884232,13.1037924 162.884232,17.4650699 L162.884232,19.0718563 C162.884232,23.4331337 165.289421,25.9580838 169.071856,29.6207585 L177.45509,37.8842315 C184.560878,45.1097804 188.003992,49.4710579 188.003992,58.0738523 L188.003992,61.8762475 C188.003992,72.5449102 182.265469,80.1197605 168.962076,80.1197605 C155.658683,80.1197605 150.479042,72.6247505 150.479042,62.4151697 Z" id="_Compound_Path_7"></path>
                <polygon id="_Compound_Path_8" points="188.802395 1.37724551 223.552894 1.37724551 223.552894 12.0558882 212.774451 12.0558882 212.774451 79.1716567 199.600798 79.1716567 199.600798 12.0558882 188.822355 12.0558882"></polygon>
                <path d="M240.998004,43.4830339 L240.998004,79.1716567 L227.924152,79.1716567 L227.924152,1.32734531 L246.966068,1.32734531 C260.159681,1.32734531 264.98004,7.8742515 264.98004,18.7724551 L264.98004,28.752495 C264.98004,37.1257485 261.986028,42.0558882 254.540918,43.7824351 L267.045908,79.1217565 L253.273453,79.1217565 L240.998004,43.4830339 Z M240.998004,12.0558882 L240.998004,36.257485 L245.359281,36.257485 C249.830339,36.257485 251.786427,33.9620758 251.786427,29.8303393 L251.786427,18.3632735 C251.786427,14.1117764 249.790419,12.0558882 245.359281,12.0558882 L240.998004,12.0558882 Z" id="_Compound_Path_9"></path>
                <polygon id="_Compound_Path_10" points="292.974052 49.5708583 292.974052 79.1716567 279.89022 79.1716567 279.89022 49.5708583 265.319361 1.37724551 278.972056 1.37724551 286.896208 30.8682635 287.005988 30.8682635 294.92016 1.37724551 307.38523 1.37724551"></polygon>
                <polygon id="_Compound_Path_11" points="318.672655 67.6946108 312.015968 85.249501 304.680639 85.249501 306.277445 66.6666667 318.672655 66.6666667"></polygon>
                <polygon id="_Compound_Path_12" points="334.740519 1.37724551 347.814371 1.37724551 347.814371 79.2215569 334.740519 79.2215569"></polygon>
                <polygon id="_Compound_Path_13" points="364.680639 30.2894212 364.680639 79.1916168 353.702595 79.1916168 353.702595 1.34730539 366.556886 1.34730539 380.668663 45.9780439 380.668663 1.37724551 391.566866 1.37724551 391.566866 79.2215569 380.08982 79.2215569"></polygon>
                <polygon id="_Compound_Path_14" points="408.273453 30.2894212 408.273453 79.1916168 397.295409 79.1916168 397.295409 1.34730539 410.139721 1.34730539 424.251497 45.9780439 424.251497 1.37724551 435.129741 1.37724551 435.129741 79.2215569 423.652695 79.2215569"></polygon>
                <path d="M440.858283,59.0918164 L440.858283,21.4570858 C440.858283,9.30139721 446.846307,0.499001996 460.588822,0.499001996 C474.331337,0.499001996 480.439122,9.34131737 480.439122,21.4570858 L480.439122,59.0918164 C480.439122,71.1377246 474.451098,80.0499002 460.588822,80.0499002 C446.726547,80.0499002 440.858283,71.1377246 440.858283,59.0918164 Z M467.365269,61.1576846 L467.365269,19.3912176 C467.365269,14.6906188 465.299401,11.4071856 460.588822,11.4071856 C455.878244,11.4071856 453.942116,14.7305389 453.942116,19.3912176 L453.942116,61.1576846 C453.942116,65.8582834 456.007984,69.1916168 460.588822,69.1916168 C465.169661,69.1916168 467.365269,65.8682635 467.365269,61.1576846 Z" id="_Compound_Path_15"></path>
                <polygon id="_Compound_Path_16" points="528.053892 1.37724551 513.253493 79.2215569 499.001996 79.2215569 484.211577 1.37724551 497.51497 1.37724551 506.497006 55.6487026 506.606786 55.6487026 515.788423 1.37724551"></polygon>
                <path d="M523.952096,79.1716567 L538.632735,1.32734531 L553.602794,1.32734531 L568.403194,79.1716567 L554.89022,79.1716567 L552.47505,64.9401198 L538.602794,64.9401198 L536.317365,79.1716567 L523.952096,79.1716567 Z M540.359281,54.500998 L550.798403,54.500998 L545.638723,23.2934132 L545.518962,23.2934132 L540.359281,54.500998 Z" id="_Compound_Path_17"></path>
                <polygon id="_Compound_Path_18" points="564.770459 1.37724551 599.530938 1.37724551 599.530938 12.0558882 588.742515 12.0558882 588.742515 79.1716567 575.548902 79.1716567 575.548902 12.0558882 564.770459 12.0558882"></polygon>
                <polygon id="_Compound_Path_19" points="603.892216 1.37724551 616.966068 1.37724551 616.966068 79.2215569 603.892216 79.2215569"></polygon>
                <path d="M622.814371,59.0918164 L622.814371,21.4570858 C622.814371,9.30139721 628.802395,0.499001996 642.55489,0.499001996 C656.307385,0.499001996 662.39521,9.34131737 662.39521,21.4570858 L662.39521,59.0918164 C662.39521,71.1377246 656.407186,80.0499002 642.55489,80.0499002 C628.702595,80.0499002 622.814371,71.1377246 622.814371,59.0918164 Z M649.321357,61.1576846 L649.321357,19.3912176 C649.321357,14.6906188 647.255489,11.4071856 642.55489,11.4071856 C637.854291,11.4071856 635.898204,14.7305389 635.898204,19.3912176 L635.898204,61.1576846 C635.898204,65.8582834 637.964072,69.1916168 642.55489,69.1916168 C647.145709,69.1916168 649.321357,65.8682635 649.321357,61.1576846 L649.321357,61.1576846 Z" id="_Compound_Path_20"></path>
                <polygon id="_Compound_Path_21" points="679.151697 30.2894212 679.151697 79.1916168 668.173653 79.1916168 668.173653 1.34730539 681.027944 1.34730539 695.139721 45.9780439 695.139721 1.37724551 706.037924 1.37724551 706.037924 79.2215569 694.560878 79.2215569"></polygon>
            </g>
            <g id="_Group_2" transform="translate(233.532934, 204.590818)" fill="#FFFFFF">
                <path d="M0,79.2814371 L14.6806387,1.49700599 L29.5409182,1.49700599 L44.3413174,79.2814371 L30.9381238,79.2814371 L28.5329341,65.0598802 L14.6307385,65.0598802 L12.3353293,79.2814371 L0,79.2814371 Z M16.3972056,54.6207585 L26.8463074,54.6207585 L21.6766467,23.4131737 L21.5668663,23.4131737 L16.3972056,54.6207585 Z" id="_Compound_Path_22"></path>
                <polygon id="_Compound_Path_23" points="60.1796407 30.4091816 60.1796407 79.3113772 49.2015968 79.3113772 49.2015968 1.49700599 62.0558882 1.49700599 76.1676647 46.1277445 76.1676647 1.49700599 87.0259481 1.49700599 87.0259481 79.2814371 75.5489022 79.2814371"></polygon>
                <path d="M133.033932,22.3752495 L133.033932,58.4031936 C133.033932,70.3792415 128.093812,79.2814371 114.071856,79.2814371 L93.9121756,79.2814371 L93.9121756,1.49700599 L114.101796,1.49700599 C128.093812,1.49700599 133.033932,10.3293413 133.033932,22.3752495 Z M112.49501,68.6127745 C117.884232,68.6127745 119.9501,65.3992016 119.9501,60.6986028 L119.9501,19.9600798 C119.9501,15.3692615 117.884232,12.1556886 112.49501,12.1556886 L106.986028,12.1556886 L106.986028,68.6027944 L112.49501,68.6127745 Z" id="_Compound_Path_24"></path>
                <polygon id="_Compound_Path_25" points="151.387226 1.49700599 164.471058 1.49700599 164.471058 79.2814371 151.387226 79.2814371"></polygon>
                <polygon id="_Compound_Path_26" points="182.47505 30.4091816 182.47505 79.3113772 171.497006 79.3113772 171.497006 1.49700599 184.341317 1.49700599 198.453094 46.1277445 198.453094 1.49700599 209.351297 1.49700599 209.351297 79.2814371 197.854291 79.2814371"></polygon>
                <polygon id="_Compound_Path_27" points="216.207585 1.49700599 246.846307 1.49700599 246.846307 12.1656687 229.291417 12.1656687 229.291417 34.4311377 242.365269 34.4311377 242.365269 44.9800399 229.291417 44.9800399 229.291417 79.2814371 216.207585 79.2814371"></polygon>
                <path d="M265.07984,43.6027944 L265.07984,79.2814371 L252.005988,79.2814371 L252.005988,1.49700599 L271.047904,1.49700599 C284.241517,1.49700599 289.061876,8.03393214 289.061876,18.9421158 L289.061876,28.9221557 C289.061876,37.2954092 286.067864,42.2255489 278.622754,43.9520958 L291.127745,79.2814371 L277.355289,79.2814371 L265.07984,43.6027944 Z M265.07984,12.1656687 L265.07984,36.3772455 L269.461078,36.3772455 C273.932136,36.3772455 275.888224,34.0818363 275.888224,29.9500998 L275.888224,18.4830339 C275.888224,14.2315369 273.892216,12.1656687 269.461078,12.1656687 L265.07984,12.1656687 Z" id="_Compound_Path_28"></path>
                <path d="M293.532934,79.2814371 L308.223553,1.49700599 L323.133733,1.49700599 L337.934132,79.2814371 L324.510978,79.2814371 L322.105788,65.0598802 L308.223553,65.0598802 L305.928144,79.2814371 L293.532934,79.2814371 Z M309.94012,54.6207585 L320.359281,54.6207585 L315.199601,23.4131737 L315.08982,23.4131737 L309.94012,54.6207585 Z" id="_Compound_Path_29"></path>
                <path d="M340.918164,62.5349301 L340.918164,52.0958084 L353.083832,52.0958084 L353.083832,62.7644711 C353.083832,67.1257485 355.07984,69.6506986 359.500998,69.6506986 C363.632735,69.6506986 365.489022,66.8962076 365.489022,62.7644711 L365.489022,59.7704591 C365.489022,55.2994012 363.652695,52.5449102 359.640719,48.7924152 L351.956088,41.0978044 C344.500998,33.762475 341.057884,29.2814371 341.057884,20.3293413 L341.057884,17.6946108 C341.057884,8.05389222 346.676647,0.598802395 359.411178,0.598802395 C372.48503,0.598802395 377.654691,7.0259481 377.654691,18.2734531 L377.654691,24.5808383 L365.678643,24.5808383 L365.678643,17.8143713 C365.678643,13.3333333 363.612774,11.1576846 359.481038,11.1576846 C355.808383,11.1576846 353.293413,13.2235529 353.293413,17.5848303 L353.293413,19.1916168 C353.293413,23.5429142 355.698603,26.0678643 359.481038,29.740519 L367.864271,38.003992 C374.97006,45.2295409 378.413174,49.5908184 378.413174,58.1936128 L378.413174,61.9860279 C378.413174,72.6546906 372.674651,80.2195609 359.371257,80.2195609 C346.067864,80.2195609 340.918164,72.744511 340.918164,62.5349301 Z" id="_Compound_Path_30"></path>
                <polygon id="_Compound_Path_31" points="381.536926 1.49700599 416.297405 1.49700599 416.297405 12.1656687 405.508982 12.1656687 405.508982 79.2814371 392.315369 79.2814371 392.315369 12.1656687 381.536926 12.1656687"></polygon>
                <path d="M434.88024,43.6027944 L434.88024,79.2814371 L421.806387,79.2814371 L421.806387,1.49700599 L440.848303,1.49700599 C454.041916,1.49700599 458.812375,8.03393214 458.812375,18.9421158 L458.812375,28.9221557 C458.812375,37.2954092 455.818363,42.2255489 448.373253,43.9520958 L460.878244,79.2814371 L447.105788,79.2814371 L434.88024,43.6027944 Z M434.88024,12.1656687 L434.88024,36.3772455 L439.241517,36.3772455 C443.712575,36.3772455 445.668663,34.0818363 445.668663,29.9500998 L445.668663,18.4830339 C445.668663,14.2315369 443.672655,12.1656687 439.241517,12.1656687 L434.88024,12.1656687 Z" id="_Compound_Path_32"></path>
                <path d="M503.373253,1.49700599 L503.373253,60.3792415 C503.373253,72.4251497 498.213573,80.2195609 484.9002,80.2195609 C471.137725,80.2195609 465.399202,72.4251497 465.399202,60.3792415 L465.399202,1.49700599 L478.483034,1.49700599 L478.483034,61.6167665 C478.483034,66.2075848 480.319361,69.3013972 484.9002,69.3013972 C489.481038,69.3013972 491.327345,66.2075848 491.327345,61.6167665 L491.327345,1.49700599 L503.373253,1.49700599 Z" id="_Compound_Path_33"></path>
                <path d="M510.259481,59.2115768 L510.259481,21.5768463 C510.259481,9.41117764 515.998004,0.618762475 529.760479,0.618762475 C544.221557,0.618762475 548.233533,8.60279441 548.233533,20.1197605 L548.233533,29.3013972 L536.257485,29.3013972 L536.257485,19.0518962 C536.257485,14.2315369 534.650699,11.4770459 529.94012,11.4770459 C525.229541,11.4770459 523.293413,14.8103792 523.293413,19.510978 L523.293413,61.2774451 C523.293413,65.9780439 525.289421,69.261477 529.94012,69.261477 C534.590818,69.261477 536.257485,66.2674651 536.257485,61.6966068 L536.257485,47.3952096 L548.233533,47.3952096 L548.233533,60.8183633 C548.233533,71.9461078 543.642715,80.1996008 529.760479,80.1996008 C515.878244,80.1996008 510.259481,71.257485 510.259481,59.2115768 Z" id="_Compound_Path_34"></path>
                <polygon id="_Compound_Path_35" points="550.419162 1.49700599 585.179641 1.49700599 585.179641 12.1656687 574.391218 12.1656687 574.391218 79.2814371 561.197605 79.2814371 561.197605 12.1656687 550.419162 12.1656687"></polygon>
                <path d="M628.662675,1.49700599 L628.662675,60.3792415 C628.662675,72.4251497 623.502994,80.2195609 610.189621,80.2195609 C596.417166,80.2195609 590.688623,72.4251497 590.688623,60.3792415 L590.688623,1.49700599 L603.792415,1.49700599 L603.792415,61.6167665 C603.792415,66.2075848 605.628743,69.3013972 610.219561,69.3013972 C614.810379,69.3013972 616.646707,66.2075848 616.646707,61.6167665 L616.646707,1.49700599 L628.662675,1.49700599 Z" id="_Compound_Path_36"></path>
                <path d="M648.622754,43.6027944 L648.622754,79.2814371 L635.548902,79.2814371 L635.548902,1.49700599 L654.590818,1.49700599 C667.784431,1.49700599 672.60479,8.03393214 672.60479,18.9421158 L672.60479,28.9221557 C672.60479,37.2954092 669.610778,42.2255489 662.165669,43.9520958 L674.650699,79.2814371 L660.878244,79.2814371 L648.622754,43.6027944 Z M648.622754,12.1656687 L648.622754,36.3772455 L652.984032,36.3772455 C657.45509,36.3772455 659.411178,34.0818363 659.411178,29.9500998 L659.411178,18.4830339 C659.411178,14.2315369 657.41517,12.1656687 652.984032,12.1656687 L648.622754,12.1656687 Z" id="_Compound_Path_37"></path>
                <polygon id="_Compound_Path_38" points="679.141717 1.49700599 710.349301 1.49700599 710.349301 12.1656687 692.225549 12.1656687 692.225549 34.4311377 705.199601 34.4311377 705.199601 44.9800399 692.225549 44.9800399 692.225549 68.6127745 710.349301 68.6127745 710.349301 79.2814371 679.141717 79.2814371"></polygon>
            </g>
        </g>
    </g>
</svg>