<svg width="104" height="104" viewBox="0 0 104 104" fill="none" xmlns="http://www.w3.org/2000/svg">
<rect x="0.5" y="0.5" width="103" height="103" fill="#F8F8F8" stroke="#73BD46"/>
<path d="M14.496 32.32C12.768 32.32 11.4453 31.8293 10.528 30.848C9.61067 29.8667 9.152 28.48 9.152 26.688V15.104C9.152 11.2213 10.944 9.28 14.528 9.28C16.2347 9.28 17.536 9.77067 18.432 10.752C19.328 11.712 19.776 13.0987 19.776 14.912V15.328H16.448V14.688C16.448 13.216 15.84 12.48 14.624 12.48C13.9627 12.48 13.472 12.6827 13.152 13.088C12.832 13.4933 12.672 14.208 12.672 15.232V19.52H12.736C13.3547 18.2187 14.4213 17.568 15.936 17.568C17.216 17.568 18.1867 18.0053 18.848 18.88C19.5093 19.7547 19.84 21.024 19.84 22.688V26.688C19.84 28.48 19.3813 29.8667 18.464 30.848C17.5467 31.8293 16.224 32.32 14.496 32.32ZM14.496 29.12C15.712 29.12 16.32 28.3947 16.32 26.944V22.976C16.32 21.504 15.712 20.768 14.496 20.768C13.28 20.768 12.672 21.504 12.672 22.976V26.944C12.672 28.3947 13.28 29.12 14.496 29.12Z" fill="#73BD46"/>
<path d="M52.0002 32C40.9544 32 32 40.9544 32 52.0002C32 63.0464 40.9544 72 52.0002 72C63.0452 72 72 63.0464 72 52.0002C72 40.9544 63.0452 32 52.0002 32ZM52.0004 68.4019C42.9413 68.4019 35.5984 61.0586 35.5984 52.0002C35.5984 42.9418 42.9413 35.5989 52.0004 35.5989C61.0576 35.5989 68.4013 42.9418 68.4013 52.0002C68.4013 61.0586 61.0576 68.4019 52.0004 68.4019H52.0004Z" fill="#73BD46"/>
<path d="M67.4782 40.9998C67.5851 41.0202 67.6867 41.0624 67.7766 41.1237C67.8665 41.1851 67.9427 41.2644 68.0006 41.3565C68.1789 41.6211 68.2226 41.8728 68.1315 42.1118C68.0886 42.2324 68.0125 42.3383 67.912 42.4175L67.6906 42.0893C67.743 42.033 67.7824 41.9659 67.806 41.8927C67.8183 41.8348 67.8179 41.7748 67.8047 41.7171C67.7915 41.6593 67.7659 41.6051 67.7297 41.5582C67.6939 41.5016 67.6443 41.455 67.5856 41.4227C67.5269 41.3904 67.461 41.3735 67.394 41.3735C67.252 41.37 67.0923 41.4265 66.9167 41.5455C66.7411 41.6642 66.6332 41.7895 66.594 41.9212C66.5746 41.9825 66.5695 42.0475 66.5792 42.1111C66.589 42.1746 66.6132 42.2351 66.6502 42.2878C66.6806 42.3395 66.7227 42.3834 66.7732 42.4158C66.8237 42.4482 66.8811 42.4683 66.9408 42.4744C67.0219 42.4783 67.1029 42.465 67.1785 42.4353L67.3979 42.7595C67.2227 42.8454 67.0231 42.8678 66.8333 42.8228C66.6407 42.7742 66.4747 42.6523 66.3706 42.4831C66.2176 42.2577 66.1705 42.0315 66.2274 41.8042C66.2864 41.5768 66.4424 41.3776 66.6956 41.2067C66.9693 41.0224 67.2301 40.9534 67.4782 40.9998" fill="#F8F8F8"/>
<path d="M67.8125 44.5985C67.6164 44.538 67.4562 44.3873 67.334 44.1457C67.2111 43.9053 67.1829 43.6877 67.2494 43.4928C67.323 43.2394 67.5113 43.0357 67.8145 42.8819C68.1226 42.7245 68.3979 42.6918 68.6406 42.7838C68.8367 42.8443 68.9962 42.995 69.1191 43.2358C69.2417 43.477 69.2709 43.6949 69.2041 43.8891C69.1361 44.139 68.9467 44.3419 68.6378 44.4996C68.3349 44.6539 68.0598 44.6868 67.8125 44.5985M67.9557 44.247C68.1008 44.277 68.2683 44.2437 68.4583 44.1469C68.6477 44.05 68.7723 43.935 68.8343 43.7993C68.8651 43.7346 68.8799 43.6635 68.8773 43.5919C68.8748 43.5203 68.855 43.4504 68.8197 43.3881C68.7895 43.3231 68.7445 43.2662 68.6882 43.2219C68.632 43.1776 68.5661 43.1471 68.4958 43.133C68.3503 43.1025 68.1827 43.1354 67.9928 43.2326C67.8034 43.3287 67.6777 43.4454 67.6164 43.581C67.5865 43.6464 67.5724 43.7178 67.5752 43.7896C67.5781 43.8614 67.5977 43.9315 67.6326 43.9943C67.6626 44.059 67.7075 44.1156 67.7637 44.1595C67.8199 44.2035 67.8857 44.2334 67.9557 44.247" fill="#F8F8F8"/>
<path d="M70.1173 45.7274L70.3127 46.2621L68.5332 46.9094L68.4071 46.563L69.6096 46.1252C69.6456 46.1126 69.6938 46.0956 69.7555 46.0734C69.8192 46.0513 69.8666 46.0343 69.9014 46.0216L68.2853 46.2292L68.1544 45.8674L69.5258 44.9899C69.4922 45.0018 69.4435 45.0196 69.3802 45.0437C69.3189 45.0674 69.2715 45.0852 69.2367 45.0979L68.033 45.536L67.9072 45.1888L69.6863 44.5415L69.8828 45.0825L68.6012 45.9153L70.1173 45.7274Z" fill="#F8F8F8"/>
<path d="M70.76 48.0478L70.8881 48.6022L69.0438 49.0281L68.96 48.6686L70.208 48.3803C70.244 48.3724 70.2946 48.3614 70.3582 48.3471C70.4235 48.3329 70.4741 48.3218 70.5093 48.3143L68.8801 48.3218L68.7939 47.9481L70.2625 47.2435C70.2269 47.2518 70.1771 47.264 70.1127 47.2798C70.049 47.2957 69.9984 47.3071 69.962 47.315L68.7152 47.6041L68.6313 47.2442L70.4773 46.8184L70.6058 47.3791L69.2328 48.0502L70.76 48.0478Z" fill="#F8F8F8"/>
<path d="M70.9789 49.1816L71.0209 49.5814L69.863 49.7036C69.766 49.7073 69.6712 49.7333 69.5858 49.7795C69.4846 49.8377 69.4423 49.9476 69.4589 50.1074C69.4763 50.2671 69.5395 50.3644 69.6503 50.4012C69.7441 50.4279 69.8427 50.4334 69.9389 50.4174L71.0956 50.2956L71.1375 50.6962L69.9813 50.8176C69.7808 50.8377 69.6214 50.8239 69.5032 50.7737C69.2869 50.6788 69.1614 50.4685 69.1267 50.143C69.0931 49.8159 69.1714 49.5842 69.3644 49.4454C69.4688 49.3718 69.6214 49.324 69.8211 49.3038L70.9789 49.1816Z" fill="#F8F8F8"/>
<path d="M71.1646 51.2427V51.6579L69.8434 52.4112H71.1646V52.7801H69.272V52.3847L70.6173 51.6112H69.272V51.2427H71.1646Z" fill="#F8F8F8"/>
<path d="M69.2031 53.4769L69.2383 53.0854L71.1238 53.2511L71.0898 53.6422L69.2031 53.4769Z" fill="#F8F8F8"/>
<path d="M70.8688 55.4196L70.537 55.3729L70.6149 54.8122L69.0723 54.5947L69.128 54.2008L70.6702 54.4175L70.7497 53.854L71.0815 53.9007L70.8688 55.4196Z" fill="#F8F8F8"/>
<path d="M70.5677 56.8321L70.4668 57.2695L69.4577 56.3865L68.7637 56.2263L68.853 55.8408L69.547 56.0001L70.8457 55.6284L70.7405 56.0828L69.8492 56.2801L70.5677 56.8321Z" fill="#F8F8F8"/>
<path d="M36.6831 40.6445L36.9457 40.2827L38.8715 40.8525L38.6192 41.2001L38.2324 41.0708L37.8236 41.6343L38.0616 41.9693L37.8184 42.3042L36.6831 40.6445ZM37.6223 41.3567L37.9046 40.9676L37.1624 40.7209L37.6223 41.3567Z" fill="#F8F8F8"/>
<path d="M37.6606 39.4091L38.5765 38.4272L38.8197 38.6546L38.1719 39.3486L38.4907 39.646L39.0569 39.0378L39.2982 39.262L38.7311 39.8702L39.312 40.4112L39.0435 40.6991L37.6606 39.4091Z" fill="#F8F8F8"/>
<path d="M39.8573 37.3362C39.9294 37.3118 40.0063 37.305 40.0816 37.3164C40.1437 37.3257 40.204 37.3447 40.2603 37.3726C40.3203 37.4044 40.3736 37.4475 40.4173 37.4995C40.4781 37.5696 40.5205 37.6537 40.5407 37.7443C40.5517 37.7929 40.5531 37.8432 40.5447 37.8923C40.5363 37.9415 40.5182 37.9885 40.4916 38.0306C40.5679 38.0004 40.6523 37.9976 40.7305 38.0227C40.8231 38.0648 40.9039 38.129 40.9658 38.2097L41.0488 38.3054C41.0863 38.3508 41.1274 38.393 41.1718 38.4316C41.1891 38.446 41.2092 38.4565 41.2309 38.4624C41.2526 38.4684 41.2753 38.4696 41.2975 38.466L41.3288 38.5016L40.9998 38.7871C40.9634 38.7637 40.9341 38.7436 40.914 38.7282C40.8711 38.6939 40.8309 38.6563 40.7937 38.6159L40.6759 38.4846C40.596 38.3944 40.5264 38.3481 40.4679 38.3462C40.4094 38.3434 40.337 38.3798 40.2488 38.4565L39.9408 38.7242L40.4276 39.2845L40.1361 39.5384L38.894 38.1097L39.5952 37.4999C39.6721 37.4302 39.7609 37.3748 39.8573 37.3362ZM39.4014 38.1038L39.7351 38.4881L40.0732 38.1935C40.1275 38.1518 40.1721 38.0989 40.2041 38.0385C40.2409 37.9598 40.2227 37.8807 40.1535 37.8005C40.078 37.7135 39.9985 37.681 39.9155 37.7008C39.8528 37.7215 39.7958 37.7563 39.7486 37.8024L39.4014 38.1038Z" fill="#F8F8F8"/>
<path d="M41.8326 38.1215L41.5183 38.3588L40.3794 36.8455L40.6934 36.6094L41.8326 38.1215Z" fill="#F8F8F8"/>
<path d="M41.3144 36.389C41.3367 36.2824 41.3807 36.1815 41.4437 36.0927C41.5067 36.0038 41.5874 35.9289 41.6806 35.8726C41.9471 35.6994 42.1993 35.6601 42.4371 35.7548C42.557 35.8 42.6617 35.878 42.7396 35.9798L42.4078 36.1961C42.352 36.1429 42.2853 36.1023 42.2125 36.077C42.1069 36.0474 41.9962 36.0703 41.8771 36.1482C41.82 36.1829 41.7725 36.2315 41.7391 36.2894C41.7057 36.3473 41.6875 36.4127 41.6861 36.4796C41.6806 36.622 41.7344 36.7825 41.8499 36.9601C41.9657 37.1388 42.0892 37.2486 42.2204 37.2895C42.2812 37.3101 42.3461 37.3163 42.4097 37.3077C42.4734 37.2991 42.5342 37.2758 42.5874 37.2396C42.6397 37.2104 42.6844 37.1692 42.7177 37.1193C42.7511 37.0695 42.7721 37.0125 42.7791 36.9529C42.7843 36.8716 42.7723 36.7901 42.744 36.7137L43.0722 36.5006C43.155 36.6773 43.1739 36.8773 43.1256 37.0664C43.0729 37.258 42.9484 37.4219 42.778 37.524C42.5498 37.6711 42.3232 37.7153 42.097 37.6537C41.8704 37.5908 41.6743 37.4322 41.507 37.1748C41.3279 36.8976 41.263 36.6362 41.3144 36.389" fill="#F8F8F8"/>
<path d="M43.2925 34.9735L43.6907 34.771L45.1475 36.1535L44.7651 36.3488L44.4804 36.057L43.8584 36.3737L43.9185 36.7794L43.5499 36.9677L43.2925 34.9735ZM43.8058 36.0344L44.2332 35.8161L43.6848 35.2602L43.8058 36.0344Z" fill="#F8F8F8"/>
<path d="M44.6997 34.2798L45.0896 34.1374L46.2502 35.1216L45.7978 33.8796L46.1439 33.7534L46.7916 35.5329L46.4203 35.6685L45.2336 34.6689L45.6935 35.9327L45.3478 36.0588L44.6997 34.2798Z" fill="#F8F8F8"/>
<path d="M48.8291 33.1551C48.9656 33.1736 49.092 33.2372 49.1882 33.3358C49.2682 33.4148 49.3315 33.5091 49.3744 33.613C49.415 33.7104 49.4452 33.8118 49.4646 33.9155C49.5102 34.1338 49.4971 34.3603 49.4266 34.5719C49.3325 34.8278 49.1455 34.9804 48.8627 35.0299L48.0592 35.1714L47.731 33.3065L48.5341 33.1654C48.6313 33.147 48.7308 33.1436 48.8291 33.1551M48.1659 33.5648L48.3807 34.7807L48.7393 34.7175C48.9236 34.6846 49.0355 34.5719 49.0766 34.3778C49.0987 34.2567 49.0975 34.1326 49.0731 34.012C49.0395 33.8222 48.9845 33.6818 48.9054 33.5913C48.8291 33.4995 48.7023 33.4693 48.525 33.5007L48.1659 33.5648Z" fill="#F8F8F8"/>
<path d="M51.1978 33.2064L50.1993 33.276L50.2262 33.6774L51.1436 33.6129L51.1666 33.9408L50.2499 34.0052L50.2832 34.4912L51.3291 34.4177L51.3524 34.7581L49.9217 34.8578L49.79 32.968L51.1749 32.8711L51.1978 33.2064Z" fill="#F8F8F8"/>
<path d="M52.812 32.8848L53.2224 32.8994L52.511 34.7691L52.1374 34.756L51.564 32.8413L51.9863 32.8563L52.3469 34.3076L52.812 32.8848Z" fill="#F8F8F8"/>
<path d="M54.9046 33.3989L53.9077 33.2941L53.8662 33.6939L54.7813 33.7904L54.7465 34.1174L53.8318 34.0209L53.7808 34.5053L54.824 34.6145L54.7876 34.9538L53.3608 34.8035L53.559 32.9204L54.9394 33.0655L54.9046 33.3989Z" fill="#F8F8F8"/>
<path d="M55.46 33.1699L55.8471 33.2522L55.5248 34.7719L56.4411 34.9668L56.3707 35.2998L55.0669 35.0226L55.46 33.1699Z" fill="#F8F8F8"/>
<path d="M58.0501 35.659C57.8686 35.7539 57.6499 35.7611 57.3917 35.6768C57.1342 35.5934 56.961 35.4589 56.8705 35.2747C56.7431 35.0437 56.7323 34.7665 56.838 34.4431C56.9452 34.1133 57.1167 33.8955 57.3525 33.7898C57.5344 33.6933 57.7535 33.687 58.0113 33.7712C58.2684 33.8546 58.4419 33.9879 58.5333 34.173C58.661 34.3976 58.6705 34.6744 58.5637 35.0046C58.459 35.3273 58.2877 35.5454 58.0501 35.659ZM57.9042 35.3083C58.0271 35.2264 58.1219 35.0842 58.1885 34.8816C58.2537 34.6795 58.2597 34.5095 58.2075 34.3707C58.1837 34.3033 58.1441 34.2426 58.092 34.1937C58.0399 34.1448 57.9768 34.1091 57.9081 34.0895C57.8405 34.065 57.7681 34.0567 57.6967 34.0654C57.6253 34.074 57.557 34.0994 57.4972 34.1394C57.3731 34.2196 57.277 34.3616 57.2117 34.5645C57.1457 34.7673 57.1394 34.9385 57.1928 35.0769C57.2179 35.1442 57.2584 35.2046 57.3111 35.2534C57.3637 35.3021 57.4271 35.3379 57.4961 35.3577C57.5631 35.3823 57.6351 35.3907 57.706 35.3821C57.777 35.3735 57.8449 35.3482 57.9042 35.3083" fill="#F8F8F8"/>
<path d="M60.0511 35.8179C59.9095 35.8547 59.7438 35.8278 59.5536 35.7396L59.189 35.5696L58.9019 36.1865L58.5444 36.0204L59.3456 34.3042L60.093 34.6526C60.265 34.7333 60.3817 34.8412 60.4422 34.9776C60.5042 35.1141 60.4912 35.275 60.4046 35.4601C60.3105 35.6629 60.1918 35.7824 60.0511 35.8179M60.0665 35.0729C60.0288 35.0049 59.9685 34.9521 59.8961 34.9239L59.5623 34.7684L59.3278 35.2734L59.6608 35.4296C59.7297 35.4669 59.8099 35.4775 59.8862 35.4593C59.9235 35.4457 59.9574 35.4242 59.9855 35.3962C60.0136 35.3682 60.0353 35.3344 60.0491 35.2972C60.0902 35.2074 60.0961 35.133 60.0665 35.0729" fill="#F8F8F8"/>
<path d="M62.1331 35.7298L62.6259 36.0142L61.6792 37.6541L61.3596 37.4698L62.0007 36.361C62.0185 36.3285 62.0442 36.2843 62.0778 36.2285C62.1118 36.17 62.1391 36.1265 62.1569 36.0948L61.052 37.2918L60.7186 37.1001L61.2046 35.546C61.1876 35.5764 61.1623 35.6219 61.1295 35.6792C61.0967 35.7378 61.0714 35.7824 61.0536 35.8141L60.4126 36.9233L60.0942 36.739L61.0401 35.0991L61.5388 35.3874L61.0923 36.8482L62.1331 35.7298Z" fill="#F8F8F8"/>
<path d="M64.0122 37.4767L63.2122 36.8737L62.9702 37.194L63.7054 37.748L63.5072 38.0106L62.7717 37.4569L62.4795 37.8457L63.3166 38.4764L63.1114 38.7485L61.9658 37.8848L63.1051 36.373L64.2147 37.2078L64.0122 37.4767Z" fill="#F8F8F8"/>
<path d="M64.6089 37.5522L64.913 37.8358L64.5622 39.3163L65.4638 38.3498L65.7335 38.6006L64.442 39.9858L64.153 39.7161L64.5045 38.2051L63.5875 39.189L63.3174 38.9371L64.6089 37.5522Z" fill="#F8F8F8"/>
<path d="M66.9973 39.9881L66.7485 40.2123L66.3697 39.7916L65.2114 40.8343L64.9453 40.5382L66.1024 39.4958L65.7216 39.0723L65.9715 38.8477L66.9973 39.9881Z" fill="#F8F8F8"/>
<path d="M68.0239 59.0292C68.024 58.865 68.0727 58.7045 68.164 58.568C68.2553 58.4315 68.385 58.3251 68.5367 58.2623C68.6885 58.1995 68.8554 58.1831 69.0165 58.2152C69.1775 58.2473 69.3254 58.3265 69.4415 58.4427C69.5576 58.5588 69.6366 58.7068 69.6685 58.8679C69.7005 59.029 69.6839 59.1959 69.621 59.3476C69.5581 59.4993 69.4516 59.6289 69.315 59.7201C69.1783 59.8112 69.0178 59.8598 68.8536 59.8597C68.6334 59.8595 68.4224 59.772 68.2668 59.6162C68.1112 59.4605 68.0239 59.2494 68.0239 59.0292" fill="#F8F8F8"/>
<path d="M37.4627 64.1133C37.2591 64.088 37.0758 63.9672 36.913 63.7511C36.7501 63.5344 36.6841 63.3256 36.7165 63.1219C36.7454 62.8601 36.8954 62.6269 37.1665 62.4224C37.4433 62.2136 37.7092 62.1333 37.9641 62.1816C38.167 62.2084 38.3497 62.3283 38.513 62.5446C38.6755 62.7609 38.7412 62.9705 38.7099 63.1733C38.6866 63.43 38.5355 63.6629 38.2591 63.8725C37.9875 64.0761 37.7221 64.1576 37.4627 64.1133M37.5434 63.7424C37.6913 63.7463 37.8504 63.6844 38.0207 63.5565C38.1907 63.4288 38.2938 63.293 38.3299 63.1492C38.349 63.0802 38.3513 63.0075 38.3366 62.9374C38.3218 62.8673 38.2905 62.8018 38.2453 62.7462C38.2043 62.6874 38.15 62.639 38.0868 62.6052C38.0235 62.5713 37.9532 62.5528 37.8815 62.5513C37.7328 62.5461 37.573 62.6078 37.4034 62.7364C37.2326 62.8649 37.1294 63.0005 37.0934 63.1452C37.0753 63.2147 37.0738 63.2873 37.0889 63.3574C37.104 63.4276 37.1353 63.4932 37.1804 63.549C37.2211 63.6078 37.2753 63.656 37.3385 63.6896C37.4016 63.7233 37.4718 63.7413 37.5434 63.7424" fill="#F8F8F8"/>
<path d="M39.294 63.5955L38.6878 64.5283L38.5083 64.7763L38.759 64.611L39.6914 64.0075L39.9821 64.3077L39.3577 65.2223L39.1809 65.4742L39.43 65.3141L40.3941 64.7344L40.6737 65.0238L38.9409 65.9559L38.6787 65.6842L39.3166 64.7506L39.5333 64.4477L39.2236 64.6545L38.2678 65.2591L38.0132 64.9945L39.0018 63.293L39.294 63.5955Z" fill="#F8F8F8"/>
<path d="M41.0136 65.2407L41.3557 65.5274L40.6526 67.4093L40.324 67.1337L40.4806 66.7564L39.9463 66.3084L39.596 66.5223L39.2788 66.2562L41.0136 65.2407ZM40.2378 66.1269L40.6063 66.4353L40.9037 65.7133L40.2378 66.1269Z" fill="#F8F8F8"/>
<path d="M42.8688 66.6955C42.9096 66.7599 42.9349 66.8329 42.9428 66.9087C42.9485 66.9712 42.9446 67.0343 42.9313 67.0957C42.9154 67.1617 42.8866 67.2239 42.8467 67.2788C42.7927 67.3545 42.721 67.4159 42.6379 67.4575C42.5935 67.4801 42.5452 67.4936 42.4955 67.4973C42.4459 67.501 42.3961 67.4949 42.3488 67.4793C42.3965 67.546 42.4196 67.6272 42.4141 67.709C42.3963 67.8092 42.3534 67.9032 42.2895 67.9823L42.2172 68.0863C42.1815 68.1333 42.1503 68.1836 42.1242 68.2366C42.1146 68.2566 42.1093 68.2784 42.1088 68.3007C42.1082 68.3229 42.1124 68.345 42.1211 68.3655L42.0938 68.4046L41.7375 68.1551C41.7517 68.1144 41.7644 68.0816 41.7743 68.057C41.7966 68.0071 41.8235 67.9593 41.8545 67.9143L41.9534 67.7688C42.021 67.6683 42.0491 67.59 42.0368 67.5319C42.0254 67.4753 41.9721 67.4135 41.8771 67.3464L41.5425 67.1123L41.1162 67.7205L40.8003 67.4983L41.8862 65.9478L42.6466 66.48C42.7331 66.5379 42.8084 66.6109 42.8688 66.6955M42.0135 66.4389L41.7221 66.8553L42.0886 67.1123C42.1426 67.1546 42.2048 67.1851 42.2713 67.2017C42.3571 67.2179 42.4291 67.1823 42.4896 67.0957C42.556 67.0008 42.5691 66.9166 42.5296 66.8403C42.4941 66.7847 42.4466 66.7377 42.3908 66.7027L42.0135 66.4389Z" fill="#F8F8F8"/>
<path d="M44.2075 67.4376C44.3017 67.5378 44.3597 67.6667 44.3724 67.8037C44.3849 67.9155 44.3748 68.0285 44.3427 68.1363C44.313 68.2376 44.2726 68.3354 44.2221 68.4281C44.1207 68.6265 43.9681 68.7942 43.78 68.9137C43.5455 69.0537 43.3027 69.0541 43.054 68.9153L42.3398 68.5207L43.2581 66.8638L43.9714 67.2596C44.0585 67.3069 44.138 67.3669 44.2075 67.4376M43.434 67.3375L42.8349 68.4186L43.1537 68.5954C43.3174 68.686 43.4751 68.6678 43.6294 68.5428C43.7229 68.4629 43.8003 68.3658 43.8575 68.2569C43.9513 68.0885 43.9963 67.9437 43.9924 67.8251C43.99 67.7057 43.9101 67.6017 43.7531 67.5147L43.434 67.3375Z" fill="#F8F8F8"/>
<path d="M44.4448 68.9632C44.4214 69.0292 44.4162 69.1002 44.4298 69.1689C44.4566 69.2661 44.5409 69.3464 44.684 69.4101C44.7533 69.4432 44.8274 69.4649 44.9035 69.4745C45.0213 69.4824 45.1016 69.439 45.1447 69.3409C45.1576 69.3143 45.1629 69.2846 45.1601 69.2552C45.1572 69.2257 45.1463 69.1976 45.1285 69.174C45.0719 69.1024 45.0045 69.0399 44.9288 68.9889L44.7643 68.866C44.6022 68.7457 44.4982 68.6457 44.4507 68.5666C44.3689 68.4357 44.3669 68.2847 44.442 68.115C44.4727 68.0415 44.5192 67.9756 44.5781 67.9219C44.6369 67.8682 44.7068 67.828 44.7829 67.8042C44.9411 67.752 45.1293 67.7745 45.3476 67.8718C45.5168 67.9416 45.658 68.0658 45.7485 68.2249C45.8344 68.3784 45.8407 68.548 45.7648 68.7351L45.4176 68.5801C45.438 68.5341 45.4452 68.4833 45.4384 68.4334C45.4316 68.3836 45.4111 68.3366 45.3792 68.2977C45.328 68.2377 45.263 68.191 45.1898 68.1617C45.1131 68.1225 45.0265 68.1073 44.9411 68.1178C44.9072 68.1227 44.8753 68.1364 44.8484 68.1575C44.8215 68.1786 44.8005 68.2063 44.7876 68.238C44.7741 68.2662 44.7688 68.2977 44.7724 68.3288C44.7761 68.3599 44.7885 68.3893 44.8082 68.4136C44.8658 68.478 44.9307 68.5356 45.0016 68.5852L45.2681 68.79C45.365 68.8579 45.4467 68.9451 45.5081 69.0463C45.5407 69.112 45.5575 69.1845 45.5571 69.2579C45.5567 69.3313 45.5391 69.4036 45.5058 69.469C45.4732 69.5447 45.4242 69.6122 45.3622 69.6666C45.3002 69.7209 45.2268 69.7607 45.1475 69.783C44.9806 69.8332 44.7872 69.8092 44.5674 69.711C44.342 69.611 44.1874 69.4801 44.1039 69.3203C44.063 69.2415 44.0413 69.1542 44.0405 69.0654C44.0398 68.9766 44.06 68.8889 44.0996 68.8094L44.4448 68.9632Z" fill="#F8F8F8"/>
<path d="M47.3105 68.5835L47.7423 68.6998L47.9001 70.7019L47.4853 70.5911L47.4683 70.1835L46.7948 70.0035L46.5675 70.3452L46.1685 70.238L47.3105 68.5835ZM46.9827 69.7152L47.4461 69.8398L47.4101 69.0588L46.9827 69.7152Z" fill="#F8F8F8"/>
<path d="M49.2318 69.1922C49.3187 69.1264 49.4183 69.0791 49.5243 69.0533C49.6302 69.0275 49.7404 69.0238 49.8479 69.0424C50.1638 69.0867 50.3789 69.2231 50.4964 69.4497C50.5566 69.5628 50.5845 69.6903 50.5771 69.8182L50.1852 69.7629C50.178 69.6864 50.1543 69.6125 50.1156 69.5462C50.0563 69.454 49.9562 69.3983 49.8162 69.3797C49.7503 69.3683 49.6825 69.3738 49.6193 69.3956C49.556 69.4175 49.4993 69.455 49.4544 69.5046C49.3563 69.6082 49.2915 69.7652 49.263 69.9748C49.2334 70.1848 49.2547 70.3493 49.3251 70.4663C49.3579 70.5217 49.4029 70.5687 49.4567 70.6039C49.5105 70.639 49.5717 70.6614 49.6355 70.6692C49.6943 70.6813 49.7551 70.6794 49.8131 70.6638C49.8711 70.6481 49.9245 70.6191 49.9693 70.579C50.0259 70.5205 50.0701 70.4511 50.099 70.375L50.4873 70.4296C50.4332 70.6171 50.3163 70.7804 50.1563 70.8922C49.9906 71.0018 49.7891 71.0435 49.5936 71.0085C49.3243 70.9705 49.1243 70.8543 48.9937 70.6597C48.8636 70.464 48.8199 70.2147 48.8624 69.9119C48.9087 69.5845 49.0329 69.3449 49.2318 69.1922" fill="#F8F8F8"/>
<path d="M52.1872 70.9591C52.0389 71.101 51.8294 71.1674 51.5588 71.1584C51.2887 71.1485 51.0855 71.0678 50.9467 70.9163C50.7608 70.7281 50.6746 70.4647 50.6861 70.1251C50.6979 69.7791 50.8039 69.5216 51.0012 69.3544C51.1491 69.2128 51.3584 69.1464 51.6292 69.1551C51.8989 69.1645 52.1029 69.2456 52.2413 69.3982C52.426 69.579 52.5118 69.8415 52.5007 70.1883C52.4889 70.528 52.3844 70.7849 52.1872 70.9591M51.9487 70.6629C52.046 70.551 52.097 70.388 52.1057 70.1753C52.1124 69.9621 52.0721 69.7972 51.9831 69.6778C51.9414 69.6198 51.8865 69.5725 51.8229 69.5399C51.7593 69.5073 51.6888 69.4903 51.6173 69.4904C51.5456 69.4855 51.4738 69.4974 51.4075 69.5252C51.3413 69.553 51.2824 69.5959 51.2357 69.6505C51.1385 69.7628 51.0864 69.9256 51.0795 70.1389C51.0712 70.3521 51.1131 70.5181 51.2021 70.6368C51.2446 70.6947 51.3002 70.7417 51.3643 70.7741C51.4284 70.8066 51.4992 70.8235 51.5711 70.8234C51.6422 70.8283 51.7135 70.8163 51.7791 70.7884C51.8447 70.7605 51.9028 70.7175 51.9487 70.6629" fill="#F8F8F8"/>
<path d="M53.9156 69.1283L54.4834 69.0781L54.6479 70.9648L54.281 70.996L54.1699 69.7203C54.1663 69.6843 54.1619 69.6329 54.1572 69.5665C54.1517 69.4997 54.1477 69.4487 54.1453 69.4135L53.9263 71.028L53.5443 71.0613L53.0504 69.5092C53.0539 69.5451 53.0591 69.5965 53.0662 69.663C53.0721 69.7282 53.0769 69.7792 53.0808 69.816L53.1919 71.0917L52.8246 71.1245L52.6597 69.2371L53.2327 69.1869L53.706 70.6409L53.9156 69.1283Z" fill="#F8F8F8"/>
<path d="M55.9085 68.798L56.4649 68.6802L56.8575 70.5324L56.4981 70.6091L56.2312 69.3556C56.2237 69.32 56.2138 69.269 56.1999 69.2045C56.1881 69.1389 56.1778 69.0891 56.1703 69.0539L56.1505 70.6831L55.7736 70.7622L55.0963 69.2824C55.103 69.3168 55.114 69.3671 55.1287 69.4323C55.1429 69.4976 55.1552 69.5474 55.1619 69.583L55.4288 70.8361L55.0674 70.9132L54.6743 69.0606L55.2374 68.9412L55.8836 70.326L55.9085 68.798Z" fill="#F8F8F8"/>
<path d="M58.5689 69.8104C58.4784 69.9954 58.3044 70.1295 58.0469 70.2125C57.7899 70.2964 57.5712 70.29 57.3889 70.1943C57.1509 70.0816 56.9793 69.8636 56.8741 69.5403C56.7673 69.2101 56.778 68.9329 56.9061 68.7087C56.997 68.5244 57.171 68.3903 57.4281 68.3065C57.6859 68.2227 57.9046 68.229 58.0869 68.3255C58.3226 68.4315 58.4937 68.6495 58.6002 68.9796C58.7046 69.303 58.6941 69.58 58.5689 69.8104ZM58.2447 69.613C58.2965 69.4746 58.2901 69.3042 58.2245 69.1021C58.1585 68.9001 58.0634 68.7581 57.9394 68.6762C57.8804 68.6359 57.8126 68.6102 57.7417 68.6013C57.6708 68.5925 57.5988 68.6007 57.5317 68.6252C57.4626 68.6449 57.3991 68.6807 57.3466 68.7296C57.294 68.7786 57.2537 68.8393 57.2292 68.9068C57.1754 69.0448 57.1825 69.2156 57.2478 69.4189C57.3138 69.6214 57.4083 69.7637 57.5341 69.8448C57.5946 69.8822 57.6625 69.9059 57.7332 69.9144C57.8038 69.9229 57.8755 69.9158 57.9431 69.8937C58.0108 69.8717 58.0728 69.8351 58.1249 69.7867C58.1769 69.7382 58.2178 69.6789 58.2447 69.613" fill="#F8F8F8"/>
<path d="M58.4141 68.0178L58.7933 67.8489L60.0199 68.7501L59.4818 67.5421L59.8187 67.3926L60.589 69.1222L60.228 69.2832L58.974 68.3689L59.5213 69.598L59.184 69.7478L58.4141 68.0178Z" fill="#F8F8F8"/>
<path d="M60.4702 67.1255L61.6087 66.4146L61.7843 66.6965L60.9795 67.1995L61.2105 67.5692L61.9148 67.1287L62.0891 67.4079L61.3849 67.848L61.8048 68.5211L61.4723 68.7295L60.4702 67.1255Z" fill="#F8F8F8"/>
<path d="M61.6763 66.3675L62.0013 66.1307L62.6854 67.073C62.7378 67.1551 62.8078 67.2245 62.8903 67.2763C62.9911 67.3336 63.1078 67.3158 63.2379 67.2205C63.3668 67.1272 63.4202 67.0224 63.3972 66.9085C63.3725 66.8141 63.3279 66.726 63.2663 66.6503L62.5818 65.7095L62.9077 65.4727L63.5914 66.4142C63.7104 66.5771 63.7768 66.7222 63.7923 66.8496C63.8184 67.0849 63.6991 67.2985 63.4344 67.4906C63.1687 67.6844 62.9278 67.7323 62.7119 67.6345C62.5957 67.58 62.4782 67.472 62.3604 67.3095L61.6763 66.3675Z" fill="#F8F8F8"/>
<path d="M64.0732 64.4058L64.2974 64.6553L63.8762 65.0341L64.919 66.1924L64.6228 66.4585L63.5804 65.301L63.1573 65.6815L62.9331 65.4319L64.0732 64.4058Z" fill="#F8F8F8"/>
<path d="M64.1147 64.3719L64.3892 64.0781L65.2402 64.8717C65.3071 64.9423 65.389 64.997 65.4798 65.0319C65.5901 65.0694 65.7009 65.0291 65.8104 64.9112C65.9191 64.7946 65.952 64.6819 65.9073 64.5751C65.8657 64.4867 65.805 64.4085 65.7297 64.3462L64.8787 63.5525L65.1524 63.2583L66.0046 64.0523C66.1505 64.1892 66.2442 64.3189 66.2833 64.4415C66.3537 64.6665 66.2782 64.8994 66.0544 65.1394C65.8306 65.3794 65.6036 65.472 65.3738 65.4182C65.2493 65.387 65.1131 65.3029 64.9653 65.1659L64.1147 64.3719Z" fill="#F8F8F8"/>
<path d="M66.0627 62.1336C66.1285 62.0948 66.2024 62.0719 66.2786 62.0668C66.3412 62.0635 66.4038 62.0696 66.4645 62.085C66.5302 62.1034 66.5916 62.1343 66.6456 62.1759C66.719 62.2327 66.7774 62.3063 66.816 62.3906C66.8582 62.4821 66.8628 62.5865 66.8287 62.6813C66.8964 62.6355 66.9779 62.6148 67.0592 62.6228C67.1585 62.6447 67.2509 62.6907 67.3281 62.7568L67.4302 62.8335C67.4763 62.8702 67.5254 62.903 67.5769 62.9316C67.5967 62.9416 67.6184 62.9475 67.6406 62.9487C67.6627 62.95 67.6849 62.9468 67.7058 62.9391L67.7441 62.9668L67.4828 63.3144C67.4412 63.2998 67.4092 63.2855 67.3855 63.2749C67.3364 63.2508 67.2895 63.2223 67.2455 63.1898L67.1031 63.0854C67.0059 63.0147 66.928 62.9838 66.8706 62.9945C66.8125 63.0036 66.7488 63.0546 66.6788 63.1475L66.4333 63.4734L67.0256 63.9206L66.7943 64.2294L65.2817 63.0894L65.8405 62.3475C65.9011 62.2635 65.9764 62.191 66.0627 62.1336M65.7768 62.9787L66.1837 63.2847L66.4526 62.9269C66.4961 62.8743 66.5287 62.8137 66.5487 62.7485C66.5673 62.6639 66.5349 62.5892 66.4495 62.5251C66.3581 62.4567 66.2735 62.4405 66.196 62.4776C66.139 62.5109 66.0903 62.5568 66.0536 62.6117L65.7768 62.9787Z" fill="#F8F8F8"/>
<path d="M67.3322 60.7069L66.8007 61.5566L67.1427 61.7702L67.6291 60.9904L67.9079 61.164L67.4211 61.9446L67.8332 62.202L68.3892 61.3135L68.6774 61.4942L67.917 62.7105L66.3115 61.7069L67.0474 60.5293L67.3322 60.7069Z" fill="#F8F8F8"/>
<path d="M34.4995 58.9703C34.4996 58.8061 34.5483 58.6457 34.6396 58.5093C34.7308 58.3728 34.8604 58.2665 35.0121 58.2037C35.1637 58.141 35.3306 58.1246 35.4916 58.1566C35.6525 58.1886 35.8004 58.2677 35.9165 58.3837C36.0325 58.4998 36.1116 58.6477 36.1436 58.8086C36.1756 58.9696 36.1592 59.1365 36.0965 59.2881C36.0337 59.4398 35.9274 59.5694 35.7909 59.6606C35.6545 59.7519 35.4941 59.8006 35.3299 59.8007C35.2209 59.8008 35.1128 59.7794 35.012 59.7377C34.9112 59.696 34.8197 59.6348 34.7425 59.5577C34.6654 59.4805 34.6042 59.389 34.5625 59.2882C34.5208 59.1874 34.4994 59.0793 34.4995 58.9703" fill="#F8F8F8"/>
<path d="M34.6229 56.4765C34.6899 56.4569 34.7504 56.4195 34.7977 56.3682C34.861 56.2883 34.8763 56.1723 34.8436 56.0202C34.8301 55.9443 34.8039 55.8713 34.7661 55.8043C34.744 55.7593 34.7072 55.7233 34.6618 55.7021C34.6164 55.6809 34.5652 55.6758 34.5166 55.6876C34.4877 55.6932 34.4608 55.7064 34.4388 55.726C34.4168 55.7455 34.4005 55.7707 34.3916 55.7987C34.367 55.8868 34.3559 55.9782 34.3588 56.0696L34.3572 56.2744C34.354 56.4765 34.3346 56.6201 34.3002 56.7043C34.2401 56.847 34.1203 56.9384 33.9384 56.9771C33.8609 56.9953 33.7804 56.9963 33.7025 56.9801C33.6245 56.9639 33.5511 56.9309 33.4872 56.8834C33.3516 56.7861 33.2589 56.6207 33.2092 56.3871C33.166 56.2093 33.1835 56.022 33.259 55.8553C33.3326 55.6947 33.467 55.5915 33.6624 55.5421L33.7415 55.9146C33.6922 55.9248 33.6468 55.9486 33.6104 55.9833C33.5739 56.0179 33.5478 56.0621 33.5351 56.1107C33.5166 56.188 33.517 56.2686 33.5363 56.3456C33.55 56.4301 33.5886 56.5085 33.647 56.571C33.671 56.5955 33.7009 56.6133 33.7338 56.6227C33.7667 56.6321 33.8015 56.6328 33.8348 56.6248C33.8656 56.6193 33.8942 56.6051 33.9172 56.5839C33.9402 56.5626 33.9566 56.5353 33.9645 56.505C33.9829 56.4206 33.9913 56.3343 33.9894 56.2479L33.9985 55.9122C33.9965 55.7936 34.0194 55.6758 34.0657 55.5666C34.0994 55.5015 34.1481 55.4453 34.2076 55.4026C34.2672 55.3599 34.3361 55.332 34.4086 55.321C34.4887 55.3022 34.5721 55.3018 34.6524 55.32C34.7327 55.3382 34.8078 55.3743 34.8721 55.4258C35.0112 55.531 35.1054 55.7018 35.156 55.9383C35.207 56.1787 35.1924 56.3812 35.1117 56.5426C35.0722 56.622 35.0144 56.691 34.943 56.7438C34.8716 56.7966 34.7888 56.8317 34.7012 56.8463L34.6229 56.4765Z" fill="#F8F8F8"/>
<path d="M34.5993 53.4936C34.7579 53.6229 34.8491 53.8225 34.873 54.0923C34.8959 54.3612 34.8413 54.5743 34.7069 54.7294C34.5439 54.9362 34.2924 55.0548 33.9543 55.0841C33.6095 55.1145 33.3402 55.0418 33.1516 54.8654C32.9918 54.7369 32.9009 54.5368 32.8768 54.2671C32.8534 53.997 32.9088 53.7851 33.0429 53.6292C33.1991 53.4244 33.4503 53.3066 33.7966 53.2757C34.1343 53.2469 34.402 53.3188 34.5993 53.4936M34.3336 53.7653C34.2102 53.683 34.0433 53.651 33.8306 53.67C33.619 53.6886 33.4596 53.7489 33.3525 53.8511C33.2999 53.8996 33.2596 53.96 33.2351 54.0272C33.2105 54.0944 33.2024 54.1664 33.2113 54.2374C33.2148 54.3091 33.2351 54.379 33.2706 54.4414C33.3061 54.5038 33.3559 54.5569 33.4158 54.5965C33.5391 54.6791 33.7076 54.7112 33.9199 54.6922C34.1327 54.6736 34.2917 54.6131 34.3988 54.5099C34.449 54.4594 34.4876 54.3986 34.5119 54.3317C34.5361 54.2648 34.5455 54.1933 34.5393 54.1224C34.5331 54.0515 34.5114 53.9828 34.4759 53.9211C34.4404 53.8594 34.3918 53.8062 34.3336 53.7653" fill="#F8F8F8"/>
<path d="M32.8345 52.8814L32.8412 52.4793L34.0058 52.4998C34.1027 52.5071 34.2001 52.4929 34.2909 52.4583C34.3984 52.412 34.4526 52.3088 34.4562 52.1479C34.4578 51.9877 34.4075 51.8829 34.302 51.8331C34.2121 51.7953 34.1151 51.7776 34.0176 51.7813L32.8542 51.7615L32.8618 51.3594L34.0247 51.3791C34.2264 51.3831 34.3818 51.4167 34.4933 51.4812C34.6958 51.6022 34.7955 51.826 34.7891 52.1538C34.7836 52.4812 34.6771 52.7022 34.4696 52.8166C34.3573 52.8767 34.1987 52.9059 33.9979 52.902L32.8345 52.8814Z" fill="#F8F8F8"/>
<path d="M33.0622 49.4419L33.3947 49.4826L33.3255 50.0445L34.8717 50.2348L34.8235 50.6302L33.2769 50.4396L33.2077 51.0051L32.8735 50.9643L33.0622 49.4419Z" fill="#F8F8F8"/>
<path d="M34.9508 49.4757L33.0981 49.0822L33.18 48.6983L33.8867 48.8493L34.0405 48.1253L33.3342 47.9754L33.4157 47.5898L35.2679 47.9841L35.1865 48.3689L34.3592 48.1929L34.205 48.9165L35.0318 49.0929L34.9508 49.4757Z" fill="#F8F8F8"/>
<path d="M34.3174 45.8298L34.0074 46.7828L34.3898 46.9077L34.6737 46.033L34.9869 46.1339L34.703 47.0086L35.1656 47.1596L35.4895 46.1627L35.813 46.2675L35.3701 47.6326L33.5688 47.0469L33.9983 45.7266L34.3174 45.8298Z" fill="#F8F8F8"/>
<path d="M34.7398 44.1158C34.795 44.0636 34.8616 44.0248 34.9343 44.0027C34.9945 43.9851 35.0571 43.9769 35.1198 43.9782C35.1876 43.9814 35.2542 43.9977 35.3159 44.026C35.4008 44.0644 35.4748 44.1232 35.5314 44.1972C35.5619 44.2367 35.5844 44.2817 35.5974 44.3298C35.6104 44.378 35.6138 44.4282 35.6074 44.4776C35.6631 44.4175 35.7384 44.3792 35.8197 44.3693C35.9217 44.3676 36.0225 44.3917 36.1127 44.4392L36.229 44.4907C36.2818 44.5166 36.337 44.5372 36.3939 44.5523C36.4155 44.5581 36.4382 44.5592 36.4603 44.5556C36.4824 44.5519 36.5034 44.5435 36.522 44.531L36.5643 44.5508L36.388 44.9482C36.3449 44.9419 36.3105 44.9363 36.2848 44.9308C36.2317 44.9178 36.1797 44.9006 36.1293 44.8794L35.9672 44.8102C35.8561 44.7627 35.7738 44.7501 35.7197 44.7726C35.6659 44.7951 35.6153 44.8588 35.5686 44.9648L35.4009 45.3385L36.0795 45.6402L35.9225 45.9945L34.1929 45.2242L34.5705 44.3748C34.6106 44.2788 34.668 44.1911 34.7398 44.1158M34.6508 45.0047L35.115 45.2111L35.2973 44.8015C35.3288 44.7406 35.3469 44.6737 35.3503 44.6053C35.3499 44.5195 35.3013 44.4539 35.204 44.4112C35.0992 44.3645 35.013 44.3685 34.9462 44.4211C34.898 44.4664 34.8609 44.5223 34.8378 44.5844L34.6508 45.0047Z" fill="#F8F8F8"/>
<path d="M35.0654 43.3107L35.2794 42.9556L36.8006 42.9896L35.6669 42.309L35.8579 41.9927L37.48 42.9678L37.2767 43.3071L35.7258 43.2771L36.8781 43.9707L36.6883 44.2866L35.0654 43.3107Z" fill="#F8F8F8"/>
<path d="M37.9639 61.9026L37.6795 62.0797L37.3786 61.5993L36.0582 62.4257L35.8467 62.0876L37.1678 61.2623L36.8665 60.7791L37.1504 60.6016L37.9639 61.9026Z" fill="#F8F8F8"/>
<path d="M57.1264 53.8122H57.1272V45.7469C57.1272 44.6187 58.0383 43.5154 59.1629 43.5154C60.2911 43.5154 61.2022 44.6187 61.2022 45.7469H63.1135C63.1139 45.2279 63.0121 44.7138 62.8137 44.2341C62.6154 43.7544 62.3245 43.3185 61.9576 42.9513C61.5907 42.5841 61.1551 42.2928 60.6755 42.094C60.196 41.8953 59.682 41.793 59.1629 41.793C58.6439 41.793 58.1299 41.8953 57.6503 42.094C57.1708 42.2928 56.7352 42.5841 56.3683 42.9513C56.0014 43.3185 55.7105 43.7544 55.5121 44.2341C55.3138 44.7138 55.212 45.2279 55.2124 45.7469V54.1819C55.212 54.8291 55.3708 55.4666 55.6748 56.038C55.9789 56.6094 56.4188 57.0973 56.9558 57.4586C57.0675 57.2131 57.1257 56.9465 57.1264 56.6767V53.8122Z" fill="#73BD46"/>
<path d="M59.4162 56.3923V56.6765C59.4152 57.1734 59.3257 57.6661 59.1519 58.1316C59.1555 58.1316 59.159 58.1322 59.1627 58.1322C60.2104 58.1321 61.2152 57.7159 61.9561 56.975C62.697 56.2342 63.1132 55.2294 63.1132 54.1816H61.202C61.202 55.2205 60.424 56.2422 59.4162 56.3923Z" fill="#73BD46"/>
<path d="M50.7563 54.9517V60.6027H52.9789L50.8162 54.9517H50.7563Z" fill="#73BD46"/>
<path d="M57.4125 48.9929H57.4117V56.6768C57.4118 56.9662 57.3548 57.2527 57.2442 57.52C57.1335 57.7873 56.9712 58.0302 56.7666 58.2348C56.562 58.4394 56.3191 58.6017 56.0518 58.7123C55.7845 58.823 55.498 58.88 55.2086 58.8799H54.8428L55.4962 60.5879C56.484 60.5155 57.4078 60.072 58.082 59.3465C58.7562 58.621 59.1308 57.6672 59.1307 56.6768V48.4412C59.1309 47.8156 58.9812 47.199 58.6943 46.643C58.4074 46.0871 57.9915 45.6079 57.4814 45.2456C57.4365 45.409 57.4134 45.5776 57.4125 45.747L57.4125 48.9929Z" fill="#73BD46"/>
<path d="M55.1103 44.5156H50.7563V48.1979L52.6675 53.1938V46.2382H54.9268V45.747C54.9268 45.3298 54.9887 44.9148 55.1103 44.5156V44.5156Z" fill="#73BD46"/>
<path d="M49.7985 46.4941H47.8873L46.7983 49.3408C47.3374 49.6431 47.8661 49.9599 48.3362 50.3217L48.8447 48.9926L50.4712 53.2527H50.1622C50.2081 53.4902 50.2391 53.7303 50.2549 53.9717C50.2532 54.2045 50.2307 54.4368 50.1877 54.6657H51.0122L53.8986 62.2073H55.8098L49.7985 46.4941Z" fill="#73BD46"/>
<path d="M47.773 53.9596L47.774 53.9474C47.7959 53.7148 47.7796 53.4802 47.7259 53.2528H47.215L47.4535 52.6295C47.3644 52.4941 47.2623 52.3677 47.1487 52.252C46.8059 51.9202 46.4264 51.6286 46.0175 51.3828L41.8765 62.2074H43.7877L46.6741 54.6658H47.6344C47.7251 54.4456 47.7722 54.2099 47.773 53.9718L47.773 53.9596Z" fill="#73BD46"/>
<path d="M42.7984 53.9722H40.8872C40.8872 55.5458 41.8835 56.906 43.3402 57.5828L43.9713 55.9333C43.2645 55.5112 42.7984 54.7912 42.7984 53.9722Z" fill="#73BD46"/>
<path d="M43.0367 45.8823C43.0367 44.5761 44.2147 43.5156 45.6668 43.5156C47.1189 43.5156 48.2969 44.5761 48.2969 45.8823H50.2081C50.2081 43.6259 48.1759 41.793 45.6668 41.793C43.1577 41.793 41.1255 43.6259 41.1255 45.8823C41.1575 47.039 41.7697 48.2669 42.6559 48.9822C44.1364 50.2742 46.0619 50.7653 47.3502 52.0501C47.8805 52.5946 48.1225 53.2246 48.0585 53.972C48.0585 54.9634 47.3753 55.809 46.409 56.1572L45.693 58.028C48.0781 57.9048 49.9697 56.1412 49.9697 53.972C49.9341 53.3954 49.8131 52.794 49.5462 52.2494C48.3539 49.2563 42.784 48.936 43.0367 45.8823Z" fill="#73BD46"/>
</svg>
