<?xml version="1.0" encoding="UTF-8"?>
<svg width="1000px" height="1000px" viewBox="0 0 1000 1000" version="1.1" xmlns="http://www.w3.org/2000/svg" xmlns:xlink="http://www.w3.org/1999/xlink">
    <!-- Generator: Sketch 53.2 (72643) - https://sketchapp.com -->
    <title>_10</title>
    <desc>Created with Sketch.</desc>
    <g id="_10" stroke="none" stroke-width="1" fill="none" fill-rule="evenodd">
        <g id="TheGlobalGoals_Icons_Color_Goal_10" fill-rule="nonzero">
            <rect id="Rectangle" fill="#DD1367" x="0" y="0" width="1000" height="1000"></rect>
            <path d="M333.15,128.52 L346.26,166.61 L361,166.61 L347.66,128.88 C355.61,127.06 358.8,121.78 358.8,112.88 L358.8,102.19 C358.8,90.55 353.65,83.57 339.56,83.57 L319.18,83.57 L319.18,166.57 L333.18,166.57 L333.15,128.52 Z M333.15,94.96 L337.8,94.96 C342.59,94.96 344.67,97.16 344.67,101.71 L344.67,114 C344.67,118.4 342.59,120.86 337.8,120.86 L333.15,120.86 L333.15,94.96 Z" id="Shape" fill="#FFFFFF"></path>
            <polygon id="Path" fill="#FFFFFF" points="400.89 155.22 381.53 155.22 381.53 130 395.37 130 395.37 118.72 381.53 118.72 381.53 94.96 400.89 94.96 400.89 83.57 367.56 83.57 367.56 166.61 400.89 166.61"></polygon>
            <path d="M431.13,83.57 L409.59,83.57 L409.59,166.57 L431.13,166.57 C446.07,166.57 451.34,157.02 451.34,144.28 L451.34,105.87 C451.34,93 446.07,83.57 431.13,83.57 L431.13,83.57 Z M437.38,146.77 C437.38,151.77 435.19,155.22 429.38,155.22 L423.51,155.22 L423.51,95 L429.38,95 C435.15,95 437.38,98.42 437.38,103.32 L437.38,146.77 Z" id="Shape" fill="#FFFFFF"></path>
            <path d="M474.5,83.57 L460.5,83.57 L460.5,146.4 C460.5,159.26 466.62,167.58 481.32,167.58 C495.53,167.58 501.04,159.26 501.04,146.4 L501.04,83.57 L488.2,83.57 L488.2,147.75 C488.2,152.64 486.25,155.96 481.35,155.96 C476.45,155.96 474.5,152.64 474.5,147.75 L474.5,83.57 Z" id="Path" fill="#FFFFFF"></path>
            <path d="M510.26,105 L510.26,145.16 C510.26,158.02 516.39,167.57 531.07,167.57 C545.75,167.57 550.78,158.76 550.78,146.88 L550.78,132.56 L538.06,132.56 L538.06,147.87 C538.06,152.77 536.34,155.94 531.33,155.94 C526.32,155.94 524.21,152.4 524.21,147.38 L524.21,102.8 C524.21,97.8 526.3,94.22 531.33,94.22 C536.36,94.22 538.06,97.16 538.06,102.31 L538.06,113.21 L550.78,113.21 L550.78,103.42 C550.78,91.16 546.51,82.6 531.07,82.6 C516.39,82.6 510.26,92.03 510.26,105.01" id="Path" fill="#FFFFFF"></path>
            <polygon id="Path" fill="#FFFFFF" points="559.62 166.6 592.93 166.6 592.93 155.22 573.59 155.22 573.59 129.99 587.42 129.99 587.42 118.72 573.59 118.72 573.59 94.96 592.93 94.96 592.93 83.57 559.62 83.57"></polygon>
            <path d="M601.62,83.57 L601.62,166.57 L623.18,166.57 C638.12,166.57 643.39,157.02 643.39,144.28 L643.39,105.87 C643.39,93 638.12,83.57 623.18,83.57 L601.62,83.57 Z M629.43,103.28 L629.43,146.77 C629.43,151.77 627.22,155.22 621.43,155.22 L615.55,155.22 L615.55,95 L621.43,95 C627.18,95 629.43,98.43 629.43,103.32 L629.43,103.28 Z" id="Shape" fill="#FFFFFF"></path>
            <rect id="Rectangle" fill="#FFFFFF" x="319.19" y="202.38" width="13.96" height="83.03"></rect>
            <polygon id="Path" fill="#FFFFFF" points="382.65 202.37 371.01 202.37 371.01 250.02 355.94 202.37 342.23 202.37 342.23 285.41 353.98 285.41 353.98 233.24 370.39 285.41 382.65 285.41"></polygon>
            <polygon id="Path" fill="#FFFFFF" points="423.8 213.77 423.8 202.38 390.5 202.38 390.5 285.41 423.8 285.41 423.8 274.01 404.46 274.01 404.46 248.79 418.29 248.79 418.29 237.53 404.46 237.53 404.46 213.77"></polygon>
            <path d="M450,201.4 C435.31,201.4 428.93,210.82 428.93,223.8 L428.93,264 C428.93,275.27 433.7,283.46 444.86,285.44 L444.86,291.07 L471.19,295.97 L471.19,285.54 L460.9,283.54 C468,280.12 471.19,273.01 471.19,263.94 L471.19,223.8 C471.19,210.8 464.82,201.4 450,201.4 L450,201.4 Z M457.22,266.93 C457.22,271.82 455.02,275.49 450,275.49 C444.98,275.49 442.89,271.82 442.89,266.93 L442.89,221.61 C442.89,216.61 445.11,213.03 450,213.03 C454.89,213.03 457.22,216.58 457.22,221.61 L457.22,266.93 Z" id="Shape" fill="#FFFFFF"></path>
            <path d="M479,202.38 L479,265.21 C479,278.07 485.13,286.39 499.83,286.39 C514.04,286.39 519.55,278.07 519.55,265.21 L519.55,202.38 L506.69,202.38 L506.69,266.55 C506.69,271.45 504.69,274.76 499.83,274.76 C494.97,274.76 492.97,271.45 492.97,266.55 L492.97,202.38 L479,202.38 Z" id="Path" fill="#FFFFFF"></path>
            <path d="M539.74,202.38 L524.07,285.38 L537.3,285.38 L539.74,270.18 L554.57,270.18 L557.14,285.38 L571.46,285.38 L555.67,202.38 L539.74,202.38 Z M541.58,259.09 L547.09,225.77 L547.21,225.77 L552.72,259.09 L541.58,259.09 Z" id="Shape" fill="#FFFFFF"></path>
            <polygon id="Path" fill="#FFFFFF" points="577.1 202.38 577.1 285.4 607.72 285.4 607.72 274.02 591.06 274.02 591.06 202.38"></polygon>
            <rect id="Rectangle" fill="#FFFFFF" x="613.97" y="202.38" width="13.96" height="83.03"></rect>
            <polygon id="Path" fill="#FFFFFF" points="659.91 285.41 659.91 213.77 671.41 213.77 671.41 202.38 634.3 202.38 634.3 213.77 645.82 213.77 645.82 285.41"></polygon>
            <rect id="Rectangle" fill="#FFFFFF" x="677.78" y="202.38" width="13.96" height="83.04"></rect>
            <polygon id="Path" fill="#FFFFFF" points="733.02 274.02 713.67 274.02 713.67 248.79 727.51 248.79 727.51 237.53 713.67 237.53 713.67 213.77 733.02 213.77 733.02 202.38 699.7 202.38 699.7 285.4 733.02 285.4"></polygon>
            <path d="M738.51,256.39 L738.51,267.53 C738.51,278.44 744.02,286.39 758.23,286.39 C772.44,286.39 778.56,278.3 778.56,266.91 L778.56,262.91 C778.56,253.74 774.88,249.08 767.3,241.36 L758.35,232.54 C754.35,228.61 751.74,225.93 751.74,221.28 L751.74,219.56 C751.74,214.9 754.43,212.71 758.35,212.71 C762.77,212.71 764.96,215.02 764.96,219.8 L764.96,227 L777.71,227 L777.71,220.25 C777.71,208.25 772.2,201.4 758.23,201.4 C744.64,201.4 738.64,209.4 738.64,219.64 L738.64,222.46 C738.64,232.01 742.3,236.79 750.28,244.62 L758.47,252.84 C762.77,256.84 764.72,259.84 764.72,264.6 L764.72,267.78 C764.72,272.19 762.72,275.13 758.35,275.13 C753.58,275.13 751.49,272.44 751.49,267.78 L751.49,256.39 L738.51,256.39 Z" id="Path" fill="#FFFFFF"></path>
            <polygon id="Path" fill="#FFFFFF" points="96.48 131.03 96.48 285.52 130.41 285.52 130.41 83.69 103.32 83.69 72.07 120.31 72.07 155.74 72.36 155.74 96.17 131.03"></polygon>
            <path d="M254.25,233.43 L254.25,135.78 C254.25,104.23 238.48,81.31 203.94,81.31 C169.71,81.31 153.94,104.23 153.94,135.78 L153.94,233.43 C153.94,264.68 169.73,287.9 203.94,287.9 C238.48,287.9 254.25,264.68 254.25,233.43 M187.86,238.79 L187.86,130.43 C187.86,118.22 192.32,109.59 203.94,109.59 C215.85,109.59 220.31,118.22 220.31,130.43 L220.31,238.79 C220.31,251 215.85,259.62 203.94,259.62 C192.32,259.62 187.86,251 187.86,238.79" id="Shape" fill="#FFFFFF"></path>
            <g id="Group" transform="translate(238.000000, 366.000000)" fill="#FFFFFF">
                <g transform="translate(167.000000, 173.000000)" id="Path">
                    <path d="M187.3,118.55 L2.68,118.55 C1.51342449,118.625084 0.622960554,119.622403 0.68,120.79 L0.68,176.28 C0.617297478,177.451399 1.50932873,178.454934 2.68,178.53 L187.3,178.53 C188.470671,178.454934 189.362703,177.451399 189.3,176.28 L189.3,120.79 C189.357039,119.622403 188.466576,118.625084 187.3,118.55"></path>
                    <path d="M187.3,0.48 L2.68,0.48 C1.51342449,0.555083519 0.622960554,1.55240313 0.68,2.72 L0.68,58.21 C0.611712798,59.3833453 1.50674063,60.3902516 2.68,60.46 L187.3,60.46 C188.473259,60.3902516 189.368287,59.3833453 189.3,58.21 L189.3,2.72 C189.357039,1.55240313 188.466576,0.555083519 187.3,0.48"></path>
                </g>
                <g id="Path">
                    <path d="M351.7,89.61 L263.08,1 C262.480695,0.410421352 261.519305,0.410421352 260.92,1 L172.3,89.61 C171.863998,90.0475092 171.733827,90.7042687 171.969993,91.2750028 C172.206159,91.8457369 172.762336,92.2184906 173.38,92.22 L350.62,92.22 C351.237664,92.2184906 351.793841,91.8457369 352.030007,91.2750028 C352.266173,90.7042687 352.136002,90.0475092 351.7,89.61 L351.7,89.61 Z"></path>
                    <path d="M434.9,352.21 L523.52,263.59 C523.808848,263.302819 523.971262,262.912316 523.971262,262.505 C523.971262,262.097684 523.808848,261.707181 523.52,261.42 L434.9,172.8 C434.462491,172.363998 433.805731,172.233827 433.234997,172.469993 C432.664263,172.706159 432.291509,173.262336 432.29,173.88 L432.29,351.13 C432.291509,351.747664 432.664263,352.303841 433.234997,352.540007 C433.805731,352.776173 434.462491,352.646002 434.9,352.21 L434.9,352.21 Z"></path>
                    <path d="M172.3,435.41 L260.92,524 C261.205467,524.288248 261.594317,524.450421 262,524.450421 C262.405683,524.450421 262.794533,524.288248 263.08,524 L351.7,435.38 C352.143189,434.943455 352.277941,434.282033 352.040862,433.706897 C351.803783,433.131761 351.242078,432.757427 350.62,432.76 L173.38,432.76 C172.744263,432.74414 172.164996,433.123184 171.924989,433.71209 C171.684982,434.300996 171.834281,434.976965 172.3,435.41 L172.3,435.41 Z"></path>
                    <path d="M89.1,172.8 L0.48,261.42 C0.1911518,261.707181 0.0287376882,262.097684 0.0287376882,262.505 C0.0287376882,262.912316 0.1911518,263.302819 0.48,263.59 L89.1,352.21 C89.5375092,352.646002 90.1942687,352.776173 90.7650028,352.540007 C91.3357369,352.303841 91.7084906,351.747664 91.71,351.13 L91.71,173.88 C91.7084906,173.262336 91.3357369,172.706159 90.7650028,172.469993 C90.1942687,172.233827 89.5375092,172.363998 89.1,172.8 Z"></path>
                </g>
            </g>
        </g>
    </g>
</svg>