<?xml version="1.0" encoding="UTF-8"?>
<svg width="1000px" height="1000px" viewBox="0 0 1000 1000" version="1.1" xmlns="http://www.w3.org/2000/svg" xmlns:xlink="http://www.w3.org/1999/xlink">
    <!-- Generator: Sketch 53.2 (72643) - https://sketchapp.com -->
    <title>_12</title>
    <desc>Created with Sketch.</desc>
    <g id="_12" stroke="none" stroke-width="1" fill="none" fill-rule="evenodd">
        <g id="TheGlobalGoals_Icons_Color_Goal_12" transform="translate(1.000000, 0.000000)" fill-rule="nonzero">
            <rect id="_Path_" fill="#BF8B2E" x="0" y="0.968063872" width="998.003992" height="998.063872"></rect>
            <polygon id="_Path_2" fill="#FFFFFF" points="99.6207585 132.115768 99.9301397 132.115768 99.9301397 286.157685 133.762475 286.157685 133.762475 84.9201597 106.726547 84.9201597 75.5788423 121.437126 75.5788423 156.746507 75.8682635 156.746507"></polygon>
            <path d="M153.932136,126.487026 L153.932136,150.808383 L184.790419,150.808383 L184.790419,125.578842 C184.790419,113.423154 190.778443,109.860279 197.854291,109.860279 C204.391218,109.860279 210.01996,112.52495 210.01996,125 L210.01996,141.606786 C210.01996,158.243513 208.542914,164.760479 197.54491,176.337325 L178.582834,196.526946 C160.189621,216.117764 153.343313,229.171657 153.343313,249.061876 L153.343313,286.167665 L241.167665,286.167665 L241.167665,258.552894 L185.678643,258.552894 L185.678643,249.061876 C185.678643,233.323353 191.317365,227.39521 199.92016,218.193613 L221.556886,195.339321 C239.071856,176.646707 242.934132,164.760479 242.934132,144.580838 L242.934132,125 C242.934132,96.1976048 228.962076,82.5548902 198.702595,82.5548902 C169.021956,82.5548902 153.892216,98.2834331 153.892216,126.467066" id="_Path_3" fill="#FFFFFF"></path>
            <path d="M776.996008,535.608782 C736.297405,503.463074 687.49501,500 668.403194,500 C658.333333,500 649.011976,500.898204 642.185629,502.52495 L639.510978,503.143713 C613.732535,509.231537 570.588822,519.421158 520.359281,581.756487 L518.882236,583.582834 C518.080894,584.678915 517.641326,585.99762 517.62475,587.355289 C517.628938,588.51487 517.935059,589.653367 518.512974,590.658683 L519.650699,592.52495 C527.940785,606.397206 534.827013,618.443114 540.309381,628.662675 C541.296082,630.580039 543.152801,631.898503 545.288231,632.198178 C547.42366,632.497852 549.571565,631.741375 551.047904,630.169661 C551.397206,629.710579 551.756487,629.221557 552.045908,628.852295 C595.379242,568.862275 629.371257,560.878244 651.866267,555.558882 L654.690619,554.89022 C659.227782,554.019071 663.844009,553.627695 668.463074,553.722555 C678.922156,553.722555 715.279441,555.459082 743.642715,577.854291 C768.882236,597.814371 781.676647,629.590818 781.676647,672.41517 C781.676647,744.191617 746.956088,772.215569 717.804391,783.033932 C706.406078,787.239321 694.344812,789.362212 682.195609,789.301397 C663.702436,789.205735 645.455565,785.052834 628.742515,777.135729 L626.656687,776.137725 C601.596806,765.259481 564.181637,742.57485 528.802395,671.536926 C456.287425,525.828343 395.369261,512.075848 355.02994,502.944112 L352.914172,502.47505 C349.820359,501.766467 341.097804,500.139721 326.966068,500.139721 C303.612774,500.139721 258.682635,504.730539 220.179641,535.469062 C193.892216,556.427146 162.53493,597.175649 162.53493,672.195609 C162.53493,717.874251 171.946108,748.043912 196.067864,779.770459 C200.598802,785.958084 242.62475,840.229541 323.313373,840.229541 C335.681839,840.188266 348.018749,838.978634 360.159681,836.616766 C374.89022,833.802395 397.62475,826.516966 423.033932,807.894212 L444.241517,827.035928 C446.776211,829.172338 450.528085,828.998439 452.854291,826.636727 C453.872086,825.560923 454.421275,824.125135 454.381238,822.644711 L470.788423,721.566866 L470.788423,720.389222 C470.773717,718.70341 470.04905,717.101897 468.792415,715.978044 C467.639799,714.911497 466.11,714.347698 464.540918,714.411178 L464.540918,714.411178 L366.077844,741.516966 L364.201597,741.826347 C362.99294,742.076246 361.897313,742.70982 361.077844,743.632735 C359.976446,744.831218 359.400859,746.420853 359.479617,748.046657 C359.558376,749.672461 360.284921,751.199017 361.497006,752.285429 L381.886228,770.728543 C371.167665,777.305389 360.449102,781.706587 350.02994,783.702595 C341.426863,785.37204 332.685664,786.227448 323.922156,786.257485 C268.163673,786.257485 240.728543,749.660679 239.600798,748.113772 L239.051896,747.355289 C222.085828,725.06986 216.357285,706.097804 216.357285,672.165669 C216.357285,629.191617 228.932136,597.315369 253.732535,577.55489 C281.327345,555.538922 316.836327,553.822355 327.075848,553.822355 C331.760712,553.737824 336.442057,554.129051 341.047904,554.99002 L343.223553,555.479042 C375.419162,562.774451 419.510978,572.754491 480.648703,695.548902 C512.934132,760.419162 553.423154,802.774451 604.311377,825.129741 C610.229541,828.123752 641.796407,843.203593 682.255489,843.203593 C700.816995,843.263637 719.238888,839.995019 736.646707,833.552894 C766.367265,822.46507 835.528942,784.550898 835.528942,672.45509 C835.499002,597.52495 803.682635,556.686627 776.996008,535.608782 Z" id="_Path_4" fill="#FFFFFF"></path>
            <g id="_Group_" transform="translate(318.363273, 82.834331)" fill="#FFFFFF">
                <path d="M13.8123752,45.8083832 L13.8123752,83.2235529 L0.0998003992,83.2235529 L0.0998003992,1.64670659 L20.0598802,1.64670659 C33.9321357,1.64670659 38.9221557,8.50299401 38.9221557,19.9600798 L38.9221557,30.4291417 C38.9221557,39.2115768 35.7884232,44.4011976 27.9441118,46.1876248 L41.0578842,83.243513 L26.6866267,83.243513 L13.8123752,45.8083832 Z M13.8123752,12.8742515 L13.8123752,38.2235529 L18.3832335,38.2235529 C23.0838323,38.2235529 25.1297405,35.8183633 25.1297405,31.4870259 L25.1297405,19.510978 C25.1297405,15.0598802 23.0838323,12.8942116 18.3832335,12.8942116 L13.8123752,12.8742515 Z" id="_Compound_Path_"></path>
                <polygon id="_Compound_Path_2" points="46.2974052 1.64670659 79.0219561 1.64670659 79.0219561 12.8443114 60.0598802 12.8443114 60.0598802 36.1776447 73.6526946 36.1776447 73.6526946 47.255489 60.0199601 47.255489 60.0199601 72.0359281 78.9820359 72.0359281 78.9820359 83.2235529 46.2974052 83.2235529"></polygon>
                <path d="M85.5189621,65.6586826 L85.5189621,54.6806387 L98.2734531,54.6806387 L98.2734531,65.8682635 C98.2734531,70.4391218 100.269461,73.0938124 105.00998,73.0938124 C109.341317,73.0938124 111.267465,70.1996008 111.267465,65.8682635 L111.267465,62.7744511 C111.267465,58.0838323 109.341317,55.1896208 105.129741,51.2175649 L97.0758483,43.1636727 C89.251497,35.4590818 85.6387226,30.7684631 85.6387226,21.3772455 L85.6387226,18.6127745 C85.6387226,8.50299401 91.5369261,0.648702595 104.89022,0.648702595 C118.612774,0.648702595 124.021956,7.38522954 124.021956,19.1716567 L124.021956,25.7984032 L111.506986,25.7984032 L111.506986,18.6926148 C111.506986,14.001996 109.341317,11.7065868 105.00998,11.7065868 C101.167665,11.7065868 98.5129741,13.8722555 98.5129741,18.4431138 L98.5129741,20.1297405 C98.5129741,24.7005988 101.037924,27.3453094 105.00998,31.1976048 L113.772455,39.9201597 C121.237525,47.50499 124.850299,52.0758483 124.850299,61.0978044 L124.850299,65.0898204 C124.850299,76.2774451 118.862275,84.2215569 104.89022,84.2215569 C90.9181637,84.2215569 85.5189621,76.3672655 85.5189621,65.6586826 Z" id="_Compound_Path_3"></path>
                <path d="M131.736527,1.64670659 L152.065868,1.64670659 C165.898204,1.64670659 170.958084,8.50299401 170.958084,19.9401198 L170.958084,37.1457086 C170.958084,48.5728543 165.898204,55.5489022 152.065868,55.5489022 L145.449102,55.5489022 L145.449102,83.2235529 L131.736527,83.2235529 L131.736527,1.64670659 Z M145.449102,12.8443114 L145.449102,44.9600798 L150.499002,44.9600798 C155.189621,44.9600798 157.235529,42.6746507 157.235529,38.2235529 L157.235529,19.4610778 C157.235529,15.00998 155.189621,12.8443114 150.499002,12.8443114 L145.449102,12.8443114 Z" id="_Compound_Path_4"></path>
                <path d="M177.924152,62.1656687 L177.924152,22.7045908 C177.924152,9.9500998 184.181637,0.688622754 198.612774,0.688622754 C213.043912,0.688622754 219.431138,9.9500998 219.431138,22.7045908 L219.431138,62.1656687 C219.431138,74.8003992 213.173653,84.1916168 198.612774,84.1916168 C184.051896,84.1916168 177.924152,74.8502994 177.924152,62.1656687 Z M205.718563,64.3313373 L205.718563,20.5389222 C205.718563,15.6087824 203.552894,12.1157685 198.612774,12.1157685 C193.672655,12.1157685 191.626747,15.6087824 191.626747,20.5389222 L191.626747,64.3313373 C191.626747,69.2714571 193.792415,72.754491 198.612774,72.754491 C203.433134,72.754491 205.718563,69.2714571 205.718563,64.3313373 L205.718563,64.3313373 Z" id="_Compound_Path_5"></path>
                <polygon id="_Compound_Path_6" points="238.682635 31.9361277 238.682635 83.1936128 227.135729 83.1936128 227.135729 1.64670659 240.608782 1.64670659 255.409182 48.4530938 255.409182 1.64670659 266.836327 1.64670659 266.836327 83.2235529 254.800399 83.2235529"></polygon>
                <path d="M273.932136,65.6586826 L273.932136,54.6806387 L286.686627,54.6806387 L286.686627,65.8682635 C286.686627,70.4391218 288.682635,73.0938124 293.423154,73.0938124 C297.754491,73.0938124 299.680639,70.1996008 299.680639,65.8682635 L299.680639,62.7744511 C299.680639,58.0838323 297.754491,55.1896208 293.542914,51.2175649 L285.479042,43.1636727 C277.664671,35.4590818 274.051896,30.7684631 274.051896,21.3772455 L274.051896,18.6127745 C274.051896,8.50299401 279.9501,0.648702595 293.303393,0.648702595 C307.015968,0.648702595 312.43513,7.38522954 312.43513,19.1716567 L312.43513,25.7984032 L299.92016,25.7984032 L299.92016,18.6926148 C299.92016,14.001996 297.754491,11.7065868 293.423154,11.7065868 C289.570858,11.7065868 286.926148,13.8722555 286.926148,18.4431138 L286.926148,20.1297405 C286.926148,24.7005988 289.451098,27.3453094 293.423154,31.1976048 L302.205589,39.8602794 C309.670659,47.4451098 313.273453,52.0159681 313.273453,61.0379242 L313.273453,65.0299401 C313.273453,76.2175649 307.285429,84.1616766 293.313373,84.1616766 C279.341317,84.1616766 273.932136,76.3672655 273.932136,65.6586826 Z" id="_Compound_Path_7"></path>
                <polygon id="_Compound_Path_8" points="320.129741 1.64670659 333.852295 1.64670659 333.852295 83.2235529 320.129741 83.2235529"></polygon>
                <path d="M341.666667,1.64670659 L361.526946,1.64670659 C375.239521,1.64670659 379.810379,8.0239521 379.810379,19.6107784 L379.810379,27.9141717 C379.810379,34.7704591 377.285429,39.1017964 371.626747,40.8882236 C378.483034,42.4451098 381.856287,47.0159681 381.856287,54.4810379 L381.856287,65.3093812 C381.856287,76.8562874 376.686627,83.2734531 362.964072,83.2734531 L341.666667,83.2734531 L341.666667,1.64670659 Z M355.389222,36.0578842 L360.199601,36.0578842 C364.650699,36.0578842 366.696607,33.7724551 366.696607,29.4411178 L366.696607,19.4610778 C366.696607,15.00998 364.700599,12.8443114 360.07984,12.8443114 L355.389222,12.8443114 L355.389222,36.0578842 Z M355.389222,46.5269461 L355.389222,72.0359281 L361.377246,72.0359281 C365.958084,72.0359281 368.123752,69.750499 368.123752,65.4191617 L368.123752,53.1437126 C368.123752,48.8123752 366.127745,46.5269461 361.257485,46.5269461 L355.389222,46.5269461 Z" id="_Compound_Path_9"></path>
                <polygon id="_Compound_Path_10" points="388.592814 1.64670659 402.305389 1.64670659 402.305389 72.0359281 418.672655 72.0359281 418.672655 83.2235529 388.592814 83.2235529"></polygon>
                <polygon id="_Compound_Path_11" points="424.810379 1.64670659 457.53493 1.64670659 457.53493 12.8443114 438.522954 12.8443114 438.522954 36.1776447 452.095808 36.1776447 452.095808 47.255489 438.522954 47.255489 438.522954 72.0359281 457.53493 72.0359281 457.53493 83.2235529 424.810379 83.2235529"></polygon>
            </g>
            <g id="_Group_2" transform="translate(318.363273, 202.594810)" fill="#FFFFFF">
                <path d="M0.0998003992,62.1856287 L0.0998003992,22.7245509 C0.0998003992,9.97005988 6.08782435,0.708582834 20.5489022,0.708582834 C35.7085828,0.708582834 39.9201597,9.13173653 39.9201597,21.1576846 L39.9201597,30.7884232 L27.4151697,30.7884232 L27.4151697,20.0798403 C27.4151697,15.0199601 25.7285429,12.0958084 20.7884232,12.0958084 C15.8483034,12.0958084 13.8023952,15.5888224 13.8023952,20.5189621 L13.8023952,64.3113772 C13.8023952,69.241517 15.8483034,72.7345309 20.7884232,72.7345309 C25.7285429,72.7345309 27.4151697,69.6107784 27.4151697,64.750499 L27.4151697,49.7904192 L39.9201597,49.7904192 L39.9201597,63.8722555 C39.9201597,75.5389222 35.1097804,84.2015968 20.5489022,84.2015968 C5.98802395,84.2015968 0.0998003992,74.8502994 0.0998003992,62.1856287 Z" id="_Compound_Path_12"></path>
                <path d="M48.5828343,62.1856287 L48.5828343,22.7245509 C48.5828343,9.97005988 54.8403194,0.708582834 69.2814371,0.708582834 C83.7225549,0.708582834 90.0998004,9.97005988 90.0998004,22.7245509 L90.0998004,62.1856287 C90.0998004,74.8203593 83.8423154,84.2015968 69.2814371,84.2015968 C54.7205589,84.2015968 48.5828343,74.8502994 48.5828343,62.1856287 Z M76.3772455,64.3512974 L76.3772455,20.5588822 C76.3772455,15.6287425 74.2115768,12.1357285 69.2814371,12.1357285 C64.3512974,12.1357285 62.2954092,15.6287425 62.2954092,20.5588822 L62.2954092,64.3512974 C62.2954092,69.2814371 64.4610778,72.7744511 69.2814371,72.7744511 C74.1017964,72.7744511 76.3772455,69.2814371 76.3772455,64.3512974 L76.3772455,64.3512974 Z" id="_Compound_Path_13"></path>
                <polygon id="_Compound_Path_14" points="110.668663 31.9860279 110.668663 83.243513 99.1117764 83.243513 99.1117764 1.66666667 112.59481 1.66666667 127.39521 48.4730539 127.39521 1.66666667 138.822355 1.66666667 138.822355 83.243513 126.746507 83.243513"></polygon>
                <path d="M147.125749,65.6786427 L147.125749,54.7005988 L159.88024,54.7005988 L159.88024,65.8882236 C159.88024,70.4590818 161.876248,73.1037924 166.616766,73.1037924 C170.948104,73.1037924 172.874251,70.2195609 172.874251,65.8882236 L172.874251,62.754491 C172.874251,58.0638723 170.948104,55.1796407 166.736527,51.2075848 L158.682635,43.1736527 C150.858283,35.4790419 147.255489,30.7884232 147.255489,21.3972056 L147.255489,18.6327345 C147.255489,8.52295409 153.143713,0.668662675 166.506986,0.668662675 C180.219561,0.668662675 185.638723,7.40518962 185.638723,19.1916168 L185.638723,25.8083832 L173.113772,25.8083832 L173.113772,18.7125749 C173.113772,14.0219561 170.948104,11.7265469 166.616766,11.7265469 C162.764471,11.7265469 160.11976,13.8922156 160.11976,18.4630739 L160.11976,20.1497006 C160.11976,24.7205589 162.644711,27.3652695 166.616766,31.2175649 L175.399202,39.8802395 C182.854291,47.4550898 186.467066,52.0259481 186.467066,61.0578842 L186.467066,65.0499002 C186.467066,76.237525 180.479042,84.1716567 166.506986,84.1716567 C152.53493,84.1716567 147.125749,76.3872255 147.125749,65.6786427 Z" id="_Compound_Path_15"></path>
                <path d="M234.710579,1.66666667 L234.710579,63.3932136 C234.710579,76.0279441 229.301397,84.2015968 215.339321,84.2015968 C200.898204,84.2015968 194.89022,76.0279441 194.89022,63.3932136 L194.89022,1.66666667 L208.582834,1.66666667 L208.582834,64.7105788 C208.582834,69.5309381 210.508982,72.7744511 215.319361,72.7744511 C220.129741,72.7744511 222.055888,69.5309381 222.055888,64.7105788 L222.055888,1.66666667 L234.710579,1.66666667 Z" id="_Compound_Path_16"></path>
                <polygon id="_Compound_Path_17" points="281.516966 30.2994012 281.157685 30.2994012 271.886228 83.243513 265.469062 83.243513 255.289421 30.2994012 255.03992 30.2994012 255.03992 83.243513 243.732535 83.243513 243.732535 1.66666667 259.700599 1.66666667 268.602794 47.6247505 268.722555 47.6247505 276.706587 1.66666667 294.041916 1.66666667 294.041916 83.243513 281.516966 83.243513"></polygon>
                <path d="M303.053892,1.66666667 L323.353293,1.66666667 C337.185629,1.66666667 342.245509,8.52295409 342.245509,19.9600798 L342.245509,37.1656687 C342.245509,48.5928144 337.185629,55.5688623 323.353293,55.5688623 L316.766467,55.5688623 L316.766467,83.243513 L303.053892,83.243513 L303.053892,1.66666667 Z M316.766467,12.8542914 L316.766467,44.9800399 L321.816367,44.9800399 C326.516966,44.9800399 328.552894,42.6946108 328.552894,38.243513 L328.552894,19.4710579 C328.552894,15.0199601 326.556886,12.8542914 321.816367,12.8542914 L316.766467,12.8542914 Z" id="_Compound_Path_18"></path>
                <polygon id="_Compound_Path_19" points="346.726547 1.66666667 383.233533 1.66666667 383.233533 12.8542914 371.866267 12.8542914 371.866267 83.243513 358.033932 83.243513 358.033932 12.8542914 346.726547 12.8542914"></polygon>
                <polygon id="_Compound_Path_20" points="389.680639 1.66666667 403.393214 1.66666667 403.393214 83.243513 389.680639 83.243513"></polygon>
                <path d="M411.327345,62.1856287 L411.327345,22.7245509 C411.327345,9.97005988 417.58483,0.708582834 432.025948,0.708582834 C446.467066,0.708582834 452.844311,9.97005988 452.844311,22.7245509 L452.844311,62.1856287 C452.844311,74.8203593 446.586826,84.2015968 432.025948,84.2015968 C417.46507,84.2015968 411.327345,74.8502994 411.327345,62.1856287 Z M439.121756,64.3512974 L439.121756,20.5588822 C439.121756,15.6287425 436.956088,12.1357285 432.025948,12.1357285 C427.095808,12.1357285 425.03992,15.6287425 425.03992,20.5588822 L425.03992,64.3512974 C425.03992,69.2814371 427.205589,72.7744511 432.025948,72.7744511 C436.846307,72.7744511 439.121756,69.2814371 439.121756,64.3512974 Z" id="_Compound_Path_21"></path>
                <polygon id="_Compound_Path_22" points="472.335329 31.9860279 472.335329 83.243513 460.778443 83.243513 460.778443 1.66666667 474.251497 1.66666667 489.021956 48.4730539 489.021956 1.66666667 500.459082 1.66666667 500.459082 83.243513 488.453094 83.243513"></polygon>
            </g>
            <g id="_Group_3" transform="translate(315.369261, 322.355289)" fill="#FFFFFF">
                <path d="M0.928143713,83.2734531 L16.3273453,1.69660679 L31.9361277,1.69660679 L47.4650699,83.2734531 L33.4131737,83.2734531 L30.9381238,68.3532934 L16.3273453,68.3532934 L13.9720559,83.2734531 L0.928143713,83.2734531 Z M18.1337325,57.4051896 L29.1117764,57.4051896 L23.6926148,24.6706587 L23.5728543,24.6706587 L18.1337325,57.4051896 Z" id="_Compound_Path_23"></path>
                <polygon id="_Compound_Path_24" points="65.0499002 32.0159681 65.0499002 83.2734531 53.502994 83.2734531 53.502994 1.69660679 66.9760479 1.69660679 81.7764471 48.493014 81.7764471 1.69660679 93.2135729 1.69660679 93.2135729 83.2734531 81.1776447 83.2734531"></polygon>
                <path d="M142.41517,23.5928144 L142.41517,61.3672655 C142.41517,73.8822355 137.245509,83.2734531 122.56487,83.2734531 L101.387226,83.2734531 L101.387226,1.69660679 L122.56487,1.69660679 C137.245509,1.69660679 142.41517,10.9780439 142.41517,23.5928144 Z M120.878244,72.0758483 C126.536926,72.0758483 128.702595,68.7125749 128.702595,63.7724551 L128.702595,21.0678643 C128.702595,16.247505 126.536926,12.8842315 120.878244,12.8842315 L115.0998,12.8842315 L115.0998,72.0758483 L120.878244,72.0758483 Z" id="_Compound_Path_25"></path>
                <path d="M163.592814,1.69660679 L183.922156,1.69660679 C197.764471,1.69660679 202.814371,8.55289421 202.814371,19.9800399 L202.814371,37.1856287 C202.814371,48.6127745 197.764471,55.5988024 183.922156,55.5988024 L177.305389,55.5988024 L177.305389,83.2734531 L163.592814,83.2734531 L163.592814,1.69660679 Z M177.305389,12.8842315 L177.305389,45.00998 L182.355289,45.00998 C187.055888,45.00998 189.101796,42.7245509 189.101796,38.2734531 L189.101796,19.500998 C189.101796,15.0499002 187.055888,12.8842315 182.355289,12.8842315 L177.305389,12.8842315 Z" id="_Compound_Path_26"></path>
                <path d="M223.992016,45.8483034 L223.992016,83.2734531 L210.269461,83.2734531 L210.269461,1.69660679 L230.229541,1.69660679 C244.061876,1.69660679 249.111776,8.55289421 249.111776,19.9800399 L249.111776,30.4491018 C249.111776,39.2315369 245.988024,44.4211577 238.133733,46.2075848 L251.247505,83.2734531 L236.866267,83.2734531 L223.992016,45.8483034 Z M223.992016,12.9141717 L223.992016,38.3033932 L228.542914,38.3033932 C233.233533,38.3033932 235.279441,35.8982036 235.279441,31.5568862 L235.279441,19.5808383 C235.279441,15.1297405 233.283433,12.9640719 228.542914,12.9640719 L223.992016,12.9141717 Z" id="_Compound_Path_27"></path>
                <path d="M256.956088,62.2155689 L256.956088,22.744511 C256.956088,9.99001996 263.213573,0.728542914 277.644711,0.728542914 C292.075848,0.728542914 298.463074,9.99001996 298.463074,22.744511 L298.463074,62.2155689 C298.463074,74.8502994 292.205589,84.2315369 277.644711,84.2315369 C263.083832,84.2315369 256.956088,74.8502994 256.956088,62.2155689 Z M284.750499,64.3812375 L284.750499,20.5788423 C284.750499,15.6487026 282.58483,12.1556886 277.644711,12.1556886 C272.704591,12.1556886 270.658683,15.6487026 270.658683,20.5788423 L270.658683,64.3812375 C270.658683,69.3113772 272.824351,72.8043912 277.644711,72.8043912 C282.46507,72.8043912 284.750499,69.3113772 284.750499,64.3812375 Z" id="_Compound_Path_28"></path>
                <path d="M347.674651,23.5928144 L347.674651,61.3672655 C347.674651,73.8822355 342.49501,83.2734531 327.824351,83.2734531 L306.646707,83.2734531 L306.646707,1.69660679 L327.824351,1.69660679 C342.49501,1.69660679 347.674651,10.9780439 347.674651,23.5928144 Z M326.137725,72.0758483 C331.796407,72.0758483 333.952096,68.7125749 333.952096,63.7724551 L333.952096,21.0678643 C333.952096,16.247505 331.796407,12.8842315 326.137725,12.8842315 L320.359281,12.8842315 L320.359281,72.0758483 L326.137725,72.0758483 Z" id="_Compound_Path_29"></path>
                <path d="M395.678643,1.69660679 L395.678643,63.4131737 C395.678643,76.0479042 390.259481,84.2315369 376.307385,84.2315369 C361.866267,84.2315369 355.848303,76.0479042 355.848303,63.4131737 L355.848303,1.69660679 L369.570858,1.69660679 L369.570858,64.740519 C369.570858,69.5508982 371.497006,72.8043912 376.307385,72.8043912 C381.117764,72.8043912 383.043912,69.5508982 383.043912,64.740519 L383.043912,1.69660679 L395.678643,1.69660679 Z" id="_Compound_Path_30"></path>
                <path d="M403.862275,62.2155689 L403.862275,22.744511 C403.862275,9.99001996 409.850299,0.728542914 424.311377,0.728542914 C439.471058,0.728542914 443.682635,9.15169661 443.682635,21.1876248 L443.682635,30.8083832 L431.137725,30.8083832 L431.137725,20.0998004 C431.137725,15.0499002 429.461078,12.1157685 424.520958,12.1157685 C419.580838,12.1157685 417.53493,15.6087824 417.53493,20.5389222 L417.53493,64.3413174 C417.53493,69.2714571 419.580838,72.7644711 424.520958,72.7644711 C429.461078,72.7644711 431.137725,69.6307385 431.137725,64.7804391 L431.137725,49.8203593 L443.652695,49.8203593 L443.652695,63.8722555 C443.652695,75.5389222 438.842315,84.2015968 424.281437,84.2015968 C409.720559,84.2015968 403.862275,74.8502994 403.862275,62.2155689 Z" id="_Compound_Path_31"></path>
                <polygon id="_Compound_Path_32" points="449.94012 1.69660679 486.397206 1.69660679 486.397206 12.8842315 475.0499 12.8842315 475.0499 83.2734531 461.247505 83.2734531 461.247505 12.8842315 449.94012 12.8842315"></polygon>
                <polygon id="_Compound_Path_33" points="492.894212 1.69660679 506.606786 1.69660679 506.606786 83.2734531 492.894212 83.2734531"></polygon>
                <path d="M514.550898,62.2155689 L514.550898,22.744511 C514.550898,9.99001996 520.798403,0.728542914 535.239521,0.728542914 C549.680639,0.728542914 556.057884,9.99001996 556.057884,22.744511 L556.057884,62.2155689 C556.057884,74.8502994 549.800399,84.2315369 535.239521,84.2315369 C520.678643,84.2315369 514.550898,74.8502994 514.550898,62.2155689 Z M542.335329,64.3812375 L542.335329,20.5788423 C542.335329,15.6487026 540.169661,12.1556886 535.239521,12.1556886 C530.309381,12.1556886 528.253493,15.6487026 528.253493,20.5788423 L528.253493,64.3812375 C528.253493,69.3113772 530.419162,72.8043912 535.239521,72.8043912 C540.05988,72.8043912 542.335329,69.3113772 542.335329,64.3812375 L542.335329,64.3812375 Z" id="_Compound_Path_34"></path>
                <polygon id="_Compound_Path_35" points="575.548902 32.0159681 575.548902 83.2734531 563.992016 83.2734531 563.992016 1.69660679 577.47505 1.69660679 592.275449 48.493014 592.275449 1.69660679 603.702595 1.69660679 603.702595 83.2734531 591.666667 83.2734531"></polygon>
            </g>
        </g>
    </g>
</svg>