<?xml version="1.0" encoding="UTF-8"?>
<svg width="1000px" height="1000px" viewBox="0 0 1000 1000" version="1.1" xmlns="http://www.w3.org/2000/svg" xmlns:xlink="http://www.w3.org/1999/xlink">
    <!-- Generator: Sketch 53.2 (72643) - https://sketchapp.com -->
    <title>_17</title>
    <desc>Created with Sketch.</desc>
    <g id="_17" stroke="none" stroke-width="1" fill="none" fill-rule="evenodd">
        <g id="TheGlobalGoals_Icons_Color_Goal_17" fill-rule="nonzero">
            <rect id="Rectangle" fill="#19486A" x="0" y="0" width="1000" height="1000"></rect>
            <path d="M319.11,83.68 L339.49,83.68 C353.35,83.68 358.41,90.55 358.41,102.02 L358.41,119.26 C358.41,130.73 353.35,137.72 339.49,137.72 L332.86,137.72 L332.86,165.46 L319.11,165.46 L319.11,83.68 Z M332.86,94.89 L332.86,127.1 L337.91,127.1 C342.62,127.1 344.65,124.81 344.65,120.34 L344.65,101.53 C344.65,97.08 342.65,94.89 337.91,94.89 L332.86,94.89 Z" id="Shape" fill="#FFFFFF"></path>
            <path d="M360.1,165.46 L375.54,83.68 L391.2,83.68 L406.74,165.46 L392.65,165.46 L390.12,150.46 L375.54,150.46 L373.12,165.46 L360.1,165.46 Z M377.35,139.52 L388.35,139.52 L382.92,106.71 L382.8,106.71 L377.35,139.52 Z" id="Shape" fill="#FFFFFF"></path>
            <path d="M427.38,128 L427.38,165.51 L413.64,165.51 L413.64,83.68 L433.64,83.68 C447.5,83.68 452.56,90.55 452.56,102.02 L452.56,112.51 C452.56,121.31 449.43,126.51 441.56,128.31 L454.7,165.46 L440.25,165.46 L427.38,128 Z M427.38,94.94 L427.38,120.39 L432,120.39 C436.71,120.39 438.76,117.98 438.76,113.64 L438.76,101.53 C438.76,97.08 436.76,94.89 432,94.89 L427.38,94.94 Z" id="Shape" fill="#FFFFFF"></path>
            <polygon id="Path" fill="#FFFFFF" points="457.46 83.68 493.99 83.68 493.99 94.89 482.65 94.89 482.65 165.46 468.79 165.46 468.79 94.89 457.46 94.89"></polygon>
            <polygon id="Path" fill="#FFFFFF" points="514.27 114.08 514.27 165.46 502.7 165.46 502.7 83.68 516.18 83.68 531.03 130.59 531.03 83.68 542.47 83.68 542.47 165.46 530.42 165.46"></polygon>
            <polygon id="Path" fill="#FFFFFF" points="553.76 83.68 586.54 83.68 586.54 94.89 567.51 94.89 567.51 118.29 581.13 118.29 581.13 129.4 567.51 129.4 567.51 154.24 586.54 154.24 586.54 165.46 553.76 165.46"></polygon>
            <path d="M608.85,128 L608.85,165.51 L595.11,165.51 L595.11,83.68 L615.11,83.68 C628.99,83.68 634.04,90.55 634.04,102.02 L634.04,112.51 C634.04,121.31 630.9,126.51 623.04,128.31 L636.18,165.46 L621.74,165.46 L608.85,128 Z M608.85,94.94 L608.85,120.39 L613.44,120.39 C618.14,120.39 620.19,117.98 620.19,113.64 L620.19,101.53 C620.19,97.08 618.14,94.89 613.44,94.89 L608.85,94.94 Z" id="Shape" fill="#FFFFFF"></path>
            <path d="M640.9,147.84 L640.9,136.84 L653.69,136.84 L653.69,148.05 C653.69,152.64 655.69,155.29 660.42,155.29 C664.77,155.29 666.69,152.39 666.69,148.05 L666.69,145 C666.69,140.29 664.77,137.39 660.53,133.41 L652.47,125.32 C644.63,117.62 641.02,112.9 641.02,103.51 L641.02,100.73 C641.02,90.59 646.93,82.73 660.3,82.73 C674.04,82.73 679.48,89.48 679.48,101.31 L679.48,107.94 L666.93,107.94 L666.93,100.83 C666.93,96.11 664.77,93.83 660.42,93.83 C656.56,93.83 653.92,96.01 653.92,100.59 L653.92,102.28 C653.92,106.87 656.46,109.51 660.42,113.37 L669.22,122.05 C676.7,129.65 680.3,134.23 680.3,143.28 L680.3,147.28 C680.3,158.51 674.3,166.45 660.3,166.45 C646.3,166.45 640.9,158.62 640.9,147.88" id="Path" fill="#FFFFFF"></path>
            <polygon id="Path" fill="#FFFFFF" points="715.77 129.4 702.52 129.4 702.52 165.46 688.76 165.46 688.76 83.68 702.52 83.68 702.52 118.31 715.77 118.31 715.77 83.68 729.62 83.68 729.62 165.46 715.77 165.46"></polygon>
            <rect id="Rectangle" fill="#FFFFFF" x="738.68" y="83.68" width="13.74" height="81.77"></rect>
            <path d="M761.58,83.68 L782,83.68 C795.87,83.68 800.93,90.55 800.93,102.02 L800.93,119.26 C800.93,130.73 795.87,137.72 782,137.72 L775.38,137.72 L775.38,165.46 L761.58,165.46 L761.58,83.68 Z M775.33,94.89 L775.33,127.1 L780.33,127.1 C785.04,127.1 787.09,124.81 787.09,120.34 L787.09,101.53 C787.09,97.08 785.09,94.89 780.33,94.89 L775.33,94.89 Z" id="Shape" fill="#FFFFFF"></path>
            <path d="M806.25,147.84 L806.25,136.84 L819,136.84 L819,148.05 C819,152.64 821.05,155.29 825.76,155.29 C830.09,155.29 832.03,152.39 832.03,148.05 L832.03,145 C832.03,140.29 830.09,137.39 825.88,133.41 L817.8,125.32 C809.97,117.62 806.35,112.9 806.35,103.51 L806.35,100.73 C806.35,90.59 812.27,82.73 825.63,82.73 C839.38,82.73 844.79,89.48 844.79,101.31 L844.79,107.94 L832.29,107.94 L832.29,100.83 C832.29,96.11 830.11,93.83 825.78,93.83 C821.92,93.83 819.28,96.01 819.28,100.59 L819.28,102.28 C819.28,106.87 821.79,109.51 825.78,113.37 L834.58,122.05 C842.05,129.65 845.66,134.23 845.66,143.28 L845.66,147.28 C845.66,158.51 839.66,166.45 825.66,166.45 C811.66,166.45 806.26,158.62 806.26,147.88" id="Path" fill="#FFFFFF"></path>
            <polygon id="Path" fill="#FFFFFF" points="149.63 83.81 149.63 285.42 115.73 285.42 115.73 131.09 115.43 131.09 91.64 155.77 91.35 155.77 91.35 120.38 122.58 83.81"></polygon>
            <polygon id="Path" fill="#FFFFFF" points="165.1 83.81 250.16 83.81 250.16 115.03 205.84 285.42 172.22 285.42 217.43 111.46 165.1 111.46"></polygon>
            <polygon id="Path" fill="#FFFFFF" points="319.13 202.46 351.83 202.46 351.83 213.84 333.09 213.84 333.09 237.6 347.05 237.6 347.05 248.85 333.09 248.85 333.09 285.46 319.13 285.46"></polygon>
            <path d="M356.72,264 L356.72,223.88 C356.72,210.88 363.08,201.48 377.72,201.48 C392.36,201.48 399,210.91 399,223.88 L399,264 C399,276.85 392.64,286.4 377.82,286.4 C363,286.4 356.82,276.85 356.82,264 M385.09,266.2 L385.09,221.68 C385.09,216.68 382.89,213.11 377.87,213.11 C372.85,213.11 370.78,216.66 370.78,221.68 L370.78,266.24 C370.78,271.24 372.97,274.81 377.87,274.81 C382.77,274.81 385.09,271.26 385.09,266.24" id="Shape" fill="#FFFFFF"></path>
            <path d="M422,247.39 L422,285.46 L408,285.46 L408,202.46 L428.32,202.46 C442.4,202.46 447.55,209.46 447.55,221.07 L447.55,231.72 C447.55,240.65 444.36,245.92 436.41,247.72 L449.74,285.43 L435.07,285.43 L422,247.39 Z M422,213.84 L422,239.68 L426.65,239.68 C431.42,239.68 433.51,237.23 433.51,232.82 L433.51,220.57 C433.51,216.04 431.42,213.84 426.65,213.84 L422,213.84 Z" id="Shape" fill="#FFFFFF"></path>
            <polygon id="Path" fill="#FFFFFF" points="469.63 202.46 506.72 202.46 506.72 213.84 495.22 213.84 495.22 285.46 481.14 285.46 481.14 213.84 469.63 213.84"></polygon>
            <polygon id="Path" fill="#FFFFFF" points="540.63 248.85 527.16 248.85 527.16 285.46 513.21 285.46 513.21 202.46 527.16 202.46 527.16 237.6 540.63 237.6 540.63 202.46 554.71 202.46 554.71 285.46 540.63 285.46"></polygon>
            <polygon id="Path" fill="#FFFFFF" points="563.79 202.46 597.09 202.46 597.09 213.84 577.75 213.84 577.75 237.6 591.58 237.6 591.58 248.85 577.75 248.85 577.75 274.08 597.09 274.08 597.09 285.46 563.79 285.46"></polygon>
            <path d="M641.68,241.14 L661.51,241.14 L661.51,285.46 L651.51,285.46 L651.51,276.4 C649.68,282.65 645.76,286.4 638.17,286.4 C626.17,286.4 620.66,276.85 620.66,264 L620.66,223.88 C620.66,210.88 626.9,201.48 641.6,201.48 C657.02,201.48 661.6,210.05 661.6,222.29 L661.6,229.63 L648.78,229.63 L648.78,221.19 C648.78,216.05 646.78,213.11 641.78,213.11 C636.78,213.11 634.56,216.66 634.56,221.68 L634.56,266.24 C634.56,271.24 636.63,274.81 641.42,274.81 C645.94,274.81 648.27,272.23 648.27,266.81 L648.27,252.16 L641.66,252.16 L641.68,241.14 Z" id="Path" fill="#FFFFFF"></path>
            <path d="M669.47,264 L669.47,223.88 C669.47,210.88 675.83,201.48 690.47,201.48 C705.11,201.48 711.66,210.91 711.66,223.88 L711.66,264 C711.66,276.85 705.29,286.4 690.47,286.4 C675.65,286.4 669.47,276.85 669.47,264 M697.75,266.2 L697.75,221.68 C697.75,216.68 695.54,213.11 690.52,213.11 C685.5,213.11 683.43,216.66 683.43,221.68 L683.43,266.24 C683.43,271.24 685.63,274.81 690.52,274.81 C695.41,274.81 697.75,271.26 697.75,266.24" id="Shape" fill="#FFFFFF"></path>
            <path d="M715.62,285.46 L731.29,202.46 L747.21,202.46 L763,285.46 L748.67,285.46 L746.11,270.27 L731.29,270.27 L728.85,285.46 L715.62,285.46 Z M733.12,259.14 L744.27,259.14 L738.75,225.84 L738.64,225.84 L733.12,259.14 Z" id="Shape" fill="#FFFFFF"></path>
            <polygon id="Path" fill="#FFFFFF" points="770.99 202.46 784.95 202.46 784.95 274.08 801.59 274.08 801.59 285.46 770.99 285.46"></polygon>
            <path d="M806.6,267.59 L806.6,256.45 L819.6,256.45 L819.6,267.83 C819.6,272.48 821.69,275.18 826.45,275.18 C830.87,275.18 832.83,272.23 832.83,267.83 L832.83,264.65 C832.83,259.87 830.83,256.94 826.58,252.89 L818.39,244.7 C810.39,236.86 806.76,232.09 806.76,222.53 L806.76,219.72 C806.76,209.44 812.76,201.48 826.34,201.48 C840.34,201.48 845.81,208.33 845.81,220.33 L845.81,227.06 L833.05,227.06 L833.05,219.85 C833.05,215.07 830.84,212.74 826.42,212.74 C822.51,212.74 819.82,214.95 819.82,219.6 L819.82,221.31 C819.82,225.96 822.4,228.66 826.42,232.58 L835.36,241.39 C842.96,249.1 846.64,253.75 846.64,262.93 L846.64,266.93 C846.64,278.32 840.51,286.4 826.31,286.4 C812.11,286.4 806.6,278.4 806.6,267.55" id="Path" fill="#FFFFFF"></path>
            <path d="M748.26,606.48 C748.26,536.25 692.39,478.88 622.79,476.34 C604.412719,424.273453 555.199579,389.454952 499.985,389.454952 C444.770421,389.454952 395.557281,424.273453 377.18,476.34 C307.59,478.88 251.74,536.26 251.74,606.48 C251.743695,646.624704 270.294341,684.515856 302,709.14 C298.598795,720.892518 296.868493,733.065222 296.86,745.3 C296.86,817.08 355.29,875.51 427.12,875.51 C453.364592,875.535181 478.99715,867.583857 500.62,852.71 C521.992545,867.038796 547.148708,874.676856 572.88,874.65 C644.7,874.65 703.13,816.22 703.13,744.43 C703.12815,732.449178 701.469095,720.526192 698.2,709 C729.779388,684.359828 748.246024,646.544908 748.26,606.49 M604,519.7 C604,571.84 565.41,615 515.32,622.46 C514.449937,617.170315 513.995216,611.820647 513.96,606.46 C514.037739,554.988697 551.73392,511.307375 602.64,503.7 C603.505921,508.9902 603.960615,514.339545 604,519.7 M500.47,818.93 C480.429838,799.554788 469.031006,772.929286 468.842883,745.055077 C468.65476,717.180868 479.693179,690.403937 499.47,670.76 C519.517722,690.131073 530.921845,716.758068 531.109986,744.634836 C531.298126,772.511604 520.254436,799.2901 500.47,818.93 M397.33,503.71 C447.42,511.16 486,554.33 486,606.48 C485.961479,611.840909 485.503413,617.190579 484.63,622.48 C434.56,615 396,571.84 396,519.7 C396.040305,514.339587 396.494993,508.990313 397.36,503.7 M474.89,653 C462.501227,677.914132 440.614059,696.799717 414.15429,705.406477 C387.694522,714.013237 358.885208,711.618063 334.21,698.76 C346.598773,673.845868 368.485941,654.960283 394.94571,646.353523 C421.405478,637.746763 450.214792,640.141937 474.89,653 M524.76,652.3 C549.570983,639.2677 578.601314,636.835773 605.234755,645.558475 C631.868196,654.281177 653.835446,673.415289 666.13,698.6 C641.319017,711.6323 612.288686,714.064227 585.655245,705.341525 C559.021804,696.618823 537.054554,677.484711 524.76,652.3 M500,415.69 C541.387647,415.735225 578.819599,440.286816 595.35,478.23 C553.568778,485.698893 518.015302,512.989494 500,551.42 C481.998197,512.978642 446.438217,485.683047 404.65,478.23 C421.182476,440.288565 458.613131,415.737824 500,415.69 M278,606.48 C278.068978,553.373687 318.077017,508.820749 370.87,503.06 C365.334759,545.197961 380.81629,587.371399 412.3,615.92 C369.955599,620.810962 332.669285,646.075454 312.43,683.59 C290.531348,663.936797 278.014771,635.904465 278,606.48 M323.09,745.3 C323.089179,738.05365 323.850026,730.827283 325.36,723.74 C363.367359,742.122612 407.934622,740.903277 444.88,720.47 C437.046532,761.999342 449.947538,804.740222 479.45,835 C447.32173,853.844051 407.561233,854.035182 375.253281,835.500882 C342.94533,816.966582 323.040308,782.546765 323.09,745.3 M676.91,744.43 C676.964265,781.465488 657.291047,815.7271 625.277837,834.349258 C593.264628,852.971415 553.756823,853.135539 521.59,834.78 C550.607112,804.311069 563.036811,761.657143 554.93,720.37 C591.964031,740.937327 636.699747,742.157697 674.8,723.64 C676.203658,730.480956 676.910602,737.446525 676.91,744.43 M588.49,615.15 C615.114626,590.552017 630.250401,555.948192 630.24,519.7 C630.226118,514.135959 629.862065,508.578307 629.15,503.06 C669.871798,507.376482 704.253047,535.224505 716.932664,574.161944 C729.61228,613.099383 718.221668,655.85259 687.85,683.32 C667.831148,645.750884 630.746303,620.307306 588.49,615.15" id="Shape" fill="#FFFFFF"></path>
        </g>
    </g>
</svg>