<?xml version="1.0" encoding="UTF-8"?>
<svg width="50px" height="48px" viewBox="0 0 50 48" version="1.1" xmlns="http://www.w3.org/2000/svg" xmlns:xlink="http://www.w3.org/1999/xlink">
    <!-- Generator: Sketch 51.2 (57519) - http://www.bohemiancoding.com/sketch -->
    <title>d3</title>
    <desc>Created with Sketch.</desc>
    <defs>
        <path d="M0,1.0658141e-14 L4.03639078,1.0658141e-14 C17.1241697,1.14697655e-14 27.7339108,10.745166 27.7339108,24 C27.7339108,37.254834 17.1241697,48 4.03639078,48 L0,48 L1.38775556e-15,37.4505495 L4.03639078,37.4505495 C11.3712999,37.4505495 17.3174185,31.4285333 17.3174185,24 C17.3174185,16.5714667 11.3712999,10.5494505 4.03639078,10.5494505 L1.85034074e-15,10.5494505 L0,1.0658141e-14 Z M18.8804132,0 L35.5468009,6.28824465e-15 C41.1529484,-5.54457917e-05 46.2534146,3.28327915 48.6331164,8.42408351 C51.0128183,13.5648879 50.242425,19.6356902 46.6565108,24 C50.242425,28.3643098 51.0128183,34.4351121 48.6331164,39.5759165 C46.2534146,44.7167208 41.1529484,48.0000554 35.5468009,48 L18.8804132,48 C22.9814373,45.3983655 26.3456183,41.7634041 28.6439998,37.4505495 L35.5462801,37.4505495 C36.9883437,37.4505495 38.3208654,36.6713979 39.0418972,35.4065934 C39.762929,34.141789 39.762929,32.5834857 39.0418972,31.3186813 C38.3208654,30.0538769 36.9883437,29.2747252 35.5462801,29.2747253 L31.5098893,29.2747253 C32.1623095,25.7892804 32.1623095,22.2107196 31.5098893,18.7252747 L35.5462801,18.7252747 C36.9883437,18.7252748 38.3208653,17.9461231 39.0418971,16.6813187 C39.7629289,15.4165143 39.7629289,13.858211 39.0418971,12.5934066 C38.3208653,11.3286022 36.9883437,10.5494505 35.5462801,10.5494505 L28.6439998,10.5494505 C26.3456183,6.23659594 22.9814373,2.6016345 18.8804132,0 Z" id="path-1"></path>
        <linearGradient x1="45%" y1="55.3333333%" x2="59.3333333%" y2="69.6666667%" id="linearGradient-3">
            <stop stop-color="#F9A03C" offset="0%"></stop>
            <stop stop-color="#F7974E" offset="100%"></stop>
        </linearGradient>
        <linearGradient x1="39%" y1="30.6666667%" x2="60%" y2="51.6666667%" id="linearGradient-4">
            <stop stop-color="#B84E51" offset="0%"></stop>
            <stop stop-color="#F68E48" offset="100%"></stop>
        </linearGradient>
        <linearGradient x1="34%" y1="33.3333333%" x2="62.3333333%" y2="62%" id="linearGradient-5">
            <stop stop-color="#F26D58" offset="0%"></stop>
            <stop stop-color="#F9A03C" offset="100%"></stop>
        </linearGradient>
    </defs>
    <g id="Page-1" stroke="none" stroke-width="1" fill="none" fill-rule="evenodd">
        <g id="Artboard" transform="translate(-630.000000, -5469.000000)">
            <g id="d3" transform="translate(630.000000, 5469.000000)">
                <mask id="mask-2" fill="white">
                    <use xlink:href="#path-1"></use>
                </mask>
                <g id="Shape"></g>
                <g id="Group" mask="url(#mask-2)">
                    <g transform="translate(-67.000000, -53.000000)" id="Shape">
                        <polygon stroke="none" fill="url(#linearGradient-3)" fill-rule="nonzero" points="0 0 0 158 157.58427 158"></polygon>
                        <polygon stroke="none" fill="url(#linearGradient-4)" fill-rule="nonzero" points="29.4157303 0 187 0 187 158"></polygon>
                        <path d="M14.7078652,0 L172.292135,158" stroke="url(#linearGradient-5)" stroke-width="40" fill="none"></path>
                    </g>
                </g>
            </g>
        </g>
    </g>
</svg>