<?xml version="1.0" encoding="UTF-8"?>
<svg width="192px" height="192px" viewBox="0 0 192 192" version="1.1" xmlns="http://www.w3.org/2000/svg" xmlns:xlink="http://www.w3.org/1999/xlink">
    <!-- Generator: Sketch 51.2 (57519) - http://www.bohemiancoding.com/sketch -->
    <title>Artboard 2</title>
    <desc>Created with Sketch.</desc>
    <defs></defs>
    <g id="Artboard-2" stroke="none" stroke-width="1" fill="none" fill-rule="evenodd">
        <rect id="Rectangle-7" fill="#FFFFFF" x="0" y="0" width="192" height="192"></rect>
        <g id="logo_neg" transform="translate(2.000000, 84.000000)" fill="#D34126" fill-rule="nonzero">
            <path d="M2.85912163,1 L8.80149096,1.03227355 C11.9089685,1.03227355 14.637422,2.12532772 16.9955051,4.31058676 C19.3501268,6.4966951 20.5287356,9.18474207 20.5287356,12.375577 C20.5287356,15.5647133 19.375222,18.3011706 17.0742521,20.579853 C14.7715515,22.8602341 11.9825234,24 8.70457159,24 L2.82796898,24 C1.51955738,24 0.707857596,23.7384144 0.386812158,23.2152432 C0.128072034,22.776153 0,22.1077508 0,21.2083379 L0,3.76193641 C0,3.25914848 0.0155763285,2.89309848 0.0484596887,2.66293711 C0.0804776973,2.43277575 0.180858481,2.16014918 0.353063446,1.84845464 C0.652475094,1.28281821 1.48753937,1 2.85912163,1 M12.9802738,16.7673276 C14.2220533,15.6487944 14.8425104,14.2414977 14.8425104,12.5462871 C14.8425104,10.8519257 14.2367643,9.43613604 13.0278681,8.29467154 C11.8172412,7.15575496 10.3971993,6.58417341 8.77206901,6.58417341 L5.68622526,6.58417341 L5.68622526,18.4455532 L8.80149096,18.4455522 C10.3461435,18.4464015 11.7358982,17.8875595 12.9802738,16.7673276" id="Shape"></path>
            <path d="M34.3116137,8.70665567 C34.4405322,7.56916018 35.2982348,7 36.8838446,7 C37.7319003,7 38.3589528,7.06104037 38.7737722,7.18394597 C39.1850836,7.30520184 39.4718615,7.51884312 39.6358598,7.82322009 C39.7989812,8.12924679 39.8954508,8.39815435 39.9287767,8.63159251 C39.9612256,8.86503067 39.9770115,9.21560035 39.9770115,9.6816518 L39.9770115,20.3480435 C39.9770115,20.8165696 39.9603486,21.1663144 39.9287767,21.3997525 C39.8954508,21.6331907 39.8024892,21.9020983 39.6507688,22.2073001 C39.347328,22.7360417 38.6045119,23 37.4214435,23 C36.2383751,23 35.4464472,22.8630716 35.0447828,22.5892148 C34.6422414,22.3145332 34.4098373,21.9128216 34.3440625,21.3849049 C33.5424877,22.4621849 32.2015599,23 30.3247873,23 C28.4453836,23 26.7054225,22.1974017 25.0987647,20.5930298 C23.492984,18.9878332 22.6896552,17.1228025 22.6896552,14.9995876 C22.6896552,12.8788472 23.497369,11.0187658 25.1136737,9.42346755 C26.7299784,7.82899417 28.5058964,7.03216992 30.4379198,7.03216992 C31.175474,7.03216992 31.8490073,7.15342579 32.4558889,7.39758726 C33.0627706,7.64092385 33.4863599,7.87023767 33.72578,8.08222921 C33.964323,8.29504563 34.1598933,8.50373769 34.3116137,8.70665567 M28.3866249,15.0449554 C28.3866249,15.7155746 28.6681408,16.321029 29.2338036,16.8588442 C29.7968353,17.3966593 30.4800157,17.6663917 31.2824675,17.6663917 C32.0866734,17.6663917 32.7531908,17.3908852 33.2864047,16.8431716 C33.8169876,16.2938083 34.0844716,15.6908285 34.0844716,15.0301077 C34.0844716,14.3702119 33.8292656,13.7565087 33.3179766,13.1873486 C32.8066876,12.6181884 32.1243842,12.3336083 31.2666816,12.3336083 C30.408979,12.3336083 29.7152747,12.6181884 29.1838147,13.1873486 C28.6506008,13.7565087 28.3866249,14.3751611 28.3866249,15.0449554" id="Shape"></path>
            <path d="M53.2348942,13.1078019 L51.0563271,12.9839982 L51.0563271,17.278386 C51.0563271,17.8376081 51.1511652,18.2435495 51.3399382,18.4919991 C51.5287112,18.7404487 51.8863864,18.8650946 52.4120606,18.8650946 C52.9395412,18.8650946 53.3405709,18.8802542 53.619666,18.9114157 C53.8996642,18.9434193 54.1959204,19.041957 54.5093378,19.2078708 C55.0232701,19.4773754 55.2806879,20.172192 55.2806879,21.2923206 C55.2806879,22.5994181 54.9663672,23.3978256 54.3422421,23.6875431 C54.0071474,23.8340862 53.7090848,23.9216752 53.4534734,23.9519945 C53.1978621,23.9839982 52.8212193,24 52.3298675,24 C50.0040756,24 48.2391833,23.5115229 47.0306747,22.5370952 C45.8230694,21.5635097 45.2206215,19.9144782 45.2206215,17.5900008 L45.2206215,12.9848404 C44.7943016,13.0471633 44.3381754,13.079167 43.8459204,13.079167 C43.3563751,13.079167 42.9481195,12.9031468 42.6229603,12.5485797 C42.2987042,12.1965393 42.137931,11.5952071 42.137931,10.7445831 C42.137931,9.89395911 42.1930275,9.27662507 42.3050268,8.89258097 C42.4161228,8.50853687 42.5714767,8.23397902 42.7747013,8.06806523 C43.1323765,7.7985606 43.5785672,7.66380828 44.11508,7.66380828 L45.2215247,7.78845418 L45.2215247,4.58219126 C45.2215247,4.10550494 45.2386859,3.75346451 45.2730083,3.52438558 C45.3073306,3.29699104 45.4121042,3.04769926 45.5909418,2.77735242 C45.879069,2.25939821 46.7407411,2 48.1723451,2 C49.6933678,2 50.5983945,2.3840441 50.8865217,3.1512901 C50.9994242,3.48395988 51.0563271,4.01286272 51.0563271,4.73799862 L51.0563271,7.78845418 C52.0372242,7.70507618 52.7841873,7.66380828 53.283668,7.66380828 C53.7876649,7.66380828 54.1670174,7.67981012 54.4253384,7.71012939 C54.6809497,7.74213307 54.9772059,7.8398285 55.3132038,8.00658449 C55.8939744,8.27524692 56.183908,9.07449659 56.183908,10.4018069 C56.183908,11.7080622 55.8831357,12.5073118 55.2797846,12.7978715 C54.9419803,12.9435725 54.6484337,13.0311615 54.3901128,13.0623229 C54.1345015,13.0926422 53.7479232,13.1078019 53.2348942,13.1078019" id="Shape"></path>
            <path d="M67.805277,8.70665567 C67.9341889,7.56916018 68.793602,7 70.3782544,7 C71.2253901,7 71.8524108,7.06104037 72.2645783,7.18394597 C72.6776227,7.30520184 72.965263,7.51884312 73.1266222,7.82322009 C73.2906122,8.12924679 73.3879539,8.39815435 73.4221551,8.63159251 C73.4546023,8.86503067 73.4712644,9.21560035 73.4712644,9.6816518 L73.4712644,20.3480435 C73.4712644,20.8165696 73.4546023,21.1663144 73.4221551,21.3997525 C73.3879539,21.6331907 73.295874,21.9020983 73.1441612,22.2073001 C72.8389819,22.7360417 72.0970805,23 70.9140721,23 C69.7310638,23 68.939176,22.8630716 68.537532,22.5892148 C68.1358879,22.3145332 67.9034956,21.9128216 67.8386012,21.3849049 C67.03619,22.4621849 65.6962072,23 63.8195298,23 C61.9402215,23 60.2003486,22.1974017 58.5920185,20.5930298 C56.9871961,18.9878332 56.183908,17.1228025 56.183908,14.9995876 C56.183908,12.8788472 56.9915809,11.0187658 58.6086805,9.42346755 C60.2249032,7.82899417 61.9981003,7.03216992 63.9317797,7.03216992 C64.6692964,7.03216992 65.3427956,7.15342579 65.9496464,7.39758726 C66.5564972,7.64092385 66.980942,7.87023767 67.219473,8.08222921 C67.457127,8.29504563 67.6518104,8.50373769 67.805277,8.70665567 M61.8779579,15.0449554 C61.8779579,15.7155746 62.1603365,16.321029 62.7250936,16.8588442 C63.2889738,17.3966593 63.9721195,17.6663917 64.7762845,17.6663917 C65.5804496,17.6663917 66.2460562,17.3908852 66.78012,16.8431716 C67.310676,16.2938083 67.5755155,15.6908285 67.5755155,15.0301077 C67.5755155,14.3702119 67.3203225,13.7565087 66.8116903,13.1873486 C66.3004272,12.6181884 65.6164046,12.3336083 64.7604994,12.3336083 C63.9028402,12.3336083 63.2091711,12.6181884 62.6786151,13.1873486 C62.1445513,13.7565087 61.8779579,14.3751611 61.8779579,15.0449554" id="Shape"></path>
            <path d="M90.1196974,2.60958106 L98.8526253,19.882623 C99.2184936,20.5847723 99.4022989,21.1118033 99.4022989,21.4620401 C99.4022989,22.2052459 98.7777094,22.8763934 97.5259171,23.4738069 C96.7924383,23.8248816 96.2175024,24 95.7993672,24 C95.3777476,24 95.032786,23.9078324 94.7636115,23.7209836 C94.4926947,23.5349727 94.2993072,23.3389071 94.1808356,23.1327869 C94.0614928,22.9275046 93.8942387,22.6174863 93.6808155,22.2052459 L91.9995636,18.8620765 L83.0384036,18.8620765 L81.3562806,22.2052459 C81.1411152,22.6174863 80.9738611,22.9174499 80.8545183,23.102623 C80.7360467,23.2886339 80.5444014,23.4796721 80.2726135,23.6748998 C80.003439,23.8701275 79.6593485,23.9698361 79.2377289,23.9698361 C78.8161092,23.9698361 78.2411733,23.7947177 77.5076945,23.4444809 C76.2559022,22.8663388 75.6321839,22.2052459 75.6321839,21.462878 C75.6321839,21.1126412 75.8133758,20.5856102 76.1818575,19.8834608 L84.9156564,2.57941712 C85.1517286,2.10517304 85.5132413,1.72309654 85.9993235,1.4340255 C86.4845345,1.14495446 86.9967502,1 87.5342281,1 C88.6980378,1.00083789 89.5595705,1.53708561 90.1196974,2.60958106 Z M87.5019969,10.0391257 L85.3677651,14.28051 L89.6684599,14.28051 L87.5019969,10.0391257 Z" id="Shape"></path>
            <path d="M106.31243,15.5162508 C106.31243,16.4126082 106.616041,17.1071141 107.220645,17.6014792 C107.823504,18.0975548 108.467368,18.3455927 109.147874,18.3455927 C109.829253,18.3455927 110.465265,18.1497283 111.059399,17.7588549 C111.652661,17.3696921 112.132505,17.1738277 112.498932,17.1738277 C113.147158,17.1738277 113.934975,17.7331958 114.862383,18.8493661 C115.359676,19.4617629 115.609195,20.0074462 115.609195,20.4932582 C115.609195,21.2938217 115.015061,22.0405011 113.827664,22.7367176 C112.595773,23.579191 111.083828,24 109.291827,24 C107.284333,24 105.350997,23.2952304 103.493563,21.8831254 C102.608033,21.2091467 101.883904,20.3076575 101.32554,19.1820789 C100.762813,18.055645 100.482759,16.8120346 100.482759,15.452103 C100.482759,14.0947374 100.762813,12.8631012 101.32554,11.755484 C101.884776,10.6504327 102.608905,9.76006239 103.493563,9.08522842 C105.286436,7.69536124 107.197089,7 109.226394,7 C110.047364,7 110.846523,7.11033407 111.62387,7.33185752 C112.402091,7.55338096 112.975286,7.76977259 113.339968,7.9801771 L113.859945,8.29578386 C114.248183,8.54809821 114.551793,8.74909439 114.766414,8.89620648 C115.328268,9.3178708 115.609195,9.79684041 115.609195,10.3339706 C115.609195,10.8711008 115.383232,11.4766553 114.928689,12.1514892 C114.151341,13.3095693 113.405401,13.8886094 112.693487,13.8886094 C112.283438,13.8886094 111.701518,13.6576776 110.945109,13.1941034 C110.555999,12.8357315 110.001124,12.6552626 109.276123,12.6552626 C108.552867,12.6552626 107.877595,12.9092876 107.252925,13.4156269 C106.627383,13.9211109 106.31243,14.6224592 106.31243,15.5162508" id="Shape"></path>
            <path d="M127.783052,13.1078019 L125.605185,12.9839982 L125.605185,17.278386 C125.605185,17.8376081 125.699089,18.2435495 125.888705,18.4919991 C126.077417,18.7404487 126.434977,18.8650946 126.961385,18.8650946 C127.485988,18.8650946 127.887791,18.8802542 128.168603,18.9114157 C128.447608,18.9434193 128.742866,19.041957 129.056183,19.2078708 C129.569047,19.4773754 129.827285,20.172192 129.827285,21.2923206 C129.827285,22.5994181 129.512162,23.3978256 128.889141,23.6875431 C128.553251,23.8340862 128.25709,23.9216752 128.000658,23.9519945 C127.745128,23.9839982 127.368607,24 126.879219,24 C124.553271,24 122.788946,23.5115229 121.582632,22.5370952 C120.374512,21.5635097 119.771355,19.9144782 119.771355,17.5900008 L119.771355,12.9848404 C119.346978,13.0471633 118.887386,13.079167 118.396193,13.079167 C117.905902,13.079167 117.496874,12.9031468 117.173626,12.5485797 C116.850377,12.1965393 116.689655,11.5952071 116.689655,10.7445831 C116.689655,9.89395911 116.744734,9.27662507 116.855794,8.89258097 C116.966855,8.50853687 117.123964,8.23397902 117.326221,8.06806523 C117.683781,7.7985606 118.131634,7.66380828 118.666169,7.66380828 L119.773161,7.78845418 L119.773161,4.58219126 C119.773161,4.10550494 119.789413,3.75346451 119.823725,3.52438558 C119.858036,3.29699104 119.962776,3.04769926 120.142459,2.77735242 C120.431397,2.25939821 121.291889,2 122.723935,2 C124.244469,2 125.149205,2.3840441 125.438143,3.1512901 C125.549203,3.48395988 125.607893,4.01286272 125.607893,4.73799862 L125.607893,7.78845418 C126.590281,7.70507618 127.33249,7.66380828 127.835421,7.66380828 C128.339256,7.66380828 128.71939,7.67981012 128.977628,7.71012939 C129.232254,7.74213307 129.527512,7.8398285 129.863402,8.00658449 C130.444889,8.27524692 130.735632,9.07449659 130.735632,10.4018069 C130.735632,11.7080622 130.433151,12.5073118 129.830896,12.7978715 C129.495909,12.9435725 129.199748,13.0311615 128.941511,13.0623229 C128.68237,13.0926422 128.295916,13.1078019 127.783052,13.1078019" id="Shape"></path>
            <path d="M138.759802,19.3571903 L147.766533,19.3571903 C148.495313,19.3571903 149.025173,19.4344856 149.356113,19.5916242 C149.688837,19.7487628 149.908274,19.9950883 150.019776,20.3280523 C150.127711,20.6644139 150.183908,21.1077997 150.183908,21.6616072 C150.183908,22.2171135 150.128603,22.6621981 150.019776,22.9951621 C149.908274,23.3315237 149.720057,23.5608612 149.456911,23.6848733 C149.034986,23.8946746 148.464093,24 147.733528,24 L135.811675,24 C134.264911,24 133.360402,23.6033311 133.095472,22.8074452 C132.963453,22.4727823 132.896552,21.9402098 132.896552,21.2063299 L132.896552,3.76139301 C132.896552,3.28063372 132.914392,2.91879016 132.947397,2.67841052 C132.978618,2.43803087 133.083876,2.16112711 133.261388,1.84684984 C133.570027,1.28115075 134.431719,1 135.844679,1 C137.389659,1 138.306656,1.38647611 138.593886,2.16027772 C138.703605,2.51617549 138.759802,3.05894084 138.759802,3.79197134 L138.759802,19.3571903 Z" id="Shape"></path>
            <path d="M161.804975,8.70665567 C161.935628,7.56916018 162.7932,7 164.377691,7 C165.224741,7 165.854329,7.06104037 166.264701,7.18394597 C166.67858,7.30520184 166.966191,7.51884312 167.127534,7.82322009 C167.290631,8.12924679 167.387962,8.39815435 167.421283,8.63159251 C167.45285,8.86503067 167.471264,9.21560035 167.471264,9.6816518 L167.471264,20.3480435 C167.471264,20.8165696 167.45285,21.1663144 167.421283,21.3997525 C167.387962,21.6331907 167.294138,21.9020983 167.144194,22.2073001 C166.839046,22.7360417 166.098097,23 164.914332,23 C163.730566,23 162.939636,22.8630716 162.537156,22.5892148 C162.136429,22.3145332 161.903184,21.9128216 161.838296,21.3849049 C161.036843,22.4621849 159.696119,23 157.818755,23 C155.939638,23 154.199941,22.1974017 152.591774,20.5930298 C150.987115,18.9878332 150.183908,17.1228025 150.183908,14.9995876 C150.183908,12.8788472 150.992376,11.0187658 152.609311,9.42346755 C154.226247,7.82899417 155.998387,7.03216992 157.931871,7.03216992 C158.670189,7.03216992 159.34362,7.15342579 159.948656,7.39758726 C160.556322,7.64092385 160.980724,7.87023767 161.21923,8.08222921 C161.457737,8.29504563 161.653278,8.50373769 161.804975,8.70665567 M155.880888,15.0449554 C155.880888,15.7155746 156.162361,16.321029 156.727937,16.8588442 C157.290884,17.3966593 157.973083,17.6663917 158.77892,17.6663917 C159.580373,17.6663917 160.246789,17.3908852 160.781676,16.8431716 C161.311301,16.2938083 161.577867,15.6908285 161.577867,15.0301077 C161.577867,14.3702119 161.3227,13.7565087 160.813243,13.1873486 C160.302032,12.6181884 159.618955,12.3336083 158.760506,12.3336083 C157.902934,12.3336083 157.209335,12.6181884 156.67971,13.1873486 C156.1457,13.7565087 155.880888,14.3751611 155.880888,15.0449554" id="Shape"></path>
            <path d="M180.192237,7.67828343 C182.138876,7.67828343 183.927345,8.49701984 185.554993,10.1336512 C187.183525,11.771124 188,13.6736554 188,15.838721 C188,18.004628 187.191478,19.9004277 185.571782,21.5278031 C183.954737,23.1551785 182.214868,23.9680247 180.356592,23.9680247 C178.498316,23.9680247 177.173753,23.4715658 176.387322,22.4761237 C176.212363,23.4917607 175.271296,24 173.565888,24 C172.187424,24 171.34444,23.7206367 171.040471,23.1610686 C170.887603,22.84973 170.794821,22.5754155 170.762127,22.3372835 C170.729433,22.0991515 170.712644,21.7415329 170.712644,21.2644275 L170.712644,2.70359722 C170.712644,2.22733329 170.729433,1.86971461 170.762127,1.63242409 C170.794821,1.39429213 170.888486,1.13007503 171.040471,0.839772807 C171.345323,0.279363299 172.199795,0 173.599466,0 C174.977047,0 175.808543,0.279363299 176.093073,0.839772807 C176.268032,1.15026997 176.3723,1.42458453 176.404111,1.66355796 C176.436805,1.90168992 176.454478,2.2593086 176.454478,2.736414 L176.454478,9.20215974 C177.325738,8.18652268 178.573425,7.67828343 180.192237,7.67828343 M177.32132,17.7193745 C177.8568,18.2789426 178.52836,18.5591473 179.339533,18.5591473 C180.148055,18.5591473 180.837287,18.2789426 181.405462,17.7193745 C181.975404,17.158965 182.259933,16.5379707 182.259933,15.8538672 C182.259933,15.1697637 181.995728,14.5437206 181.470851,13.9723722 C180.945974,13.4035481 180.245255,13.1182946 179.37046,13.1182946 C178.497433,13.1182946 177.802015,13.4085969 177.289509,13.9883599 C176.777003,14.5681229 176.517216,15.1966903 176.517216,15.8698548 C176.517216,16.5438609 176.786723,17.158965 177.32132,17.7193745" id="Shape"></path>
        </g>
    </g>
</svg>