<?xml version="1.0" encoding="UTF-8"?>
<svg width="196px" height="200px" viewBox="0 0 196 200" version="1.1" xmlns="http://www.w3.org/2000/svg" xmlns:xlink="http://www.w3.org/1999/xlink">
    <!-- Generator: Sketch 51.2 (57519) - http://www.bohemiancoding.com/sketch -->
    <title>Group 2</title>
    <desc>Created with Sketch.</desc>
    <defs></defs>
    <g id="Page-1" stroke="none" stroke-width="1" fill="none" fill-rule="evenodd">
        <g id="Artboard-2" transform="translate(-179.000000, -293.000000)">
            <g id="Group-2" transform="translate(179.000000, 293.000000)">
                <path d="M2.4358406,198.317591 L194.544604,198.317591" id="Line" stroke="#E53521" stroke-width="2" stroke-linecap="square"></path>
                <polygon id="Rectangle-6" fill="#1A486A" points="2.91611251 163.434038 51.3314564 150.563021 99.2652128 51.2961302 147.044269 96.1190192 195.024876 0 195.024876 195.159468 2.91611251 195.159468"></polygon>
                <path d="M98.0099502,101.905929 L290.118713,101.905929" id="Line" stroke="#EEEEEE" stroke-width="1.93236715" stroke-linecap="square" stroke-dasharray="3.864734299516908" transform="translate(194.064332, 101.905929) rotate(-270.000000) translate(-194.064332, -101.905929) "></path>
                <path d="M49.9827595,101.905929 L242.091523,101.905929" id="Line" stroke="#EEEEEE" stroke-width="1.93236715" stroke-linecap="square" stroke-dasharray="3.864734299516908" transform="translate(146.037141, 101.905929) rotate(-270.000000) translate(-146.037141, -101.905929) "></path>
                <path d="M1.95556869,101.905929 L194.064332,101.905929" id="Line" stroke="#EEEEEE" stroke-width="1.93236715" stroke-linecap="square" stroke-dasharray="3.864734299516908" transform="translate(98.009950, 101.905929) rotate(-270.000000) translate(-98.009950, -101.905929) "></path>
                <path d="M-46.0716221,101.905929 L146.037141,101.905929" id="Line" stroke="#EEEEEE" stroke-width="1.93236715" stroke-linecap="square" stroke-dasharray="3.864734299516908" transform="translate(49.982759, 101.905929) rotate(-270.000000) translate(-49.982759, -101.905929) "></path>
                <path d="M-94.0988129,101.905929 L98.0099502,101.905929" id="Line" stroke="#EEEEEE" stroke-width="1.93236715" stroke-linecap="square" stroke-dasharray="3.864734299516908" transform="translate(1.955569, 101.905929) rotate(-270.000000) translate(-1.955569, -101.905929) "></path>
            </g>
        </g>
    </g>
</svg>