<?xml version="1.0" encoding="UTF-8"?>
<svg width="286px" height="200px" viewBox="0 0 286 200" version="1.1" xmlns="http://www.w3.org/2000/svg" xmlns:xlink="http://www.w3.org/1999/xlink">
    <!-- Generator: Sketch 51.2 (57519) - http://www.bohemiancoding.com/sketch -->
    <title>undraw_pcsocial_16rw</title>
    <desc>Created with Sketch.</desc>
    <defs>
        <linearGradient x1="50.0053865%" y1="100.038499%" x2="50.0053865%" y2="-0.115495669%" id="linearGradient-1">
            <stop stop-color="#808080" stop-opacity="0.25" offset="0%"></stop>
            <stop stop-color="#808080" stop-opacity="0.12" offset="54%"></stop>
            <stop stop-color="#808080" stop-opacity="0.1" offset="100%"></stop>
        </linearGradient>
        <linearGradient x1="50%" y1="100.013359%" x2="50%" y2="1.38627195e-13%" id="linearGradient-2">
            <stop stop-color="#808080" stop-opacity="0.25" offset="0%"></stop>
            <stop stop-color="#808080" stop-opacity="0.12" offset="54%"></stop>
            <stop stop-color="#808080" stop-opacity="0.1" offset="100%"></stop>
        </linearGradient>
        <linearGradient x1="49.9916637%" y1="100.034691%" x2="49.9916637%" y2="0.00270660875%" id="linearGradient-3">
            <stop stop-color="#808080" stop-opacity="0.25" offset="0%"></stop>
            <stop stop-color="#808080" stop-opacity="0.12" offset="54%"></stop>
            <stop stop-color="#808080" stop-opacity="0.1" offset="100%"></stop>
        </linearGradient>
        <linearGradient x1="50.0016014%" y1="100%" x2="50.0016014%" y2="-1.70530257e-13%" id="linearGradient-4">
            <stop stop-color="#808080" stop-opacity="0.25" offset="0%"></stop>
            <stop stop-color="#808080" stop-opacity="0.12" offset="54%"></stop>
            <stop stop-color="#808080" stop-opacity="0.1" offset="100%"></stop>
        </linearGradient>
        <linearGradient x1="0%" y1="49.9816251%" x2="100%" y2="49.9816251%" id="linearGradient-5">
            <stop stop-color="#808080" stop-opacity="0.25" offset="0%"></stop>
            <stop stop-color="#808080" stop-opacity="0.12" offset="54%"></stop>
            <stop stop-color="#808080" stop-opacity="0.1" offset="100%"></stop>
        </linearGradient>
        <linearGradient x1="50%" y1="100%" x2="50%" y2="0%" id="linearGradient-6">
            <stop stop-color="#808080" stop-opacity="0.25" offset="0%"></stop>
            <stop stop-color="#808080" stop-opacity="0.12" offset="54%"></stop>
            <stop stop-color="#808080" stop-opacity="0.1" offset="100%"></stop>
        </linearGradient>
        <linearGradient x1="50.0015233%" y1="100%" x2="50.0015233%" y2="0%" id="linearGradient-7">
            <stop stop-color="#808080" stop-opacity="0.25" offset="0%"></stop>
            <stop stop-color="#808080" stop-opacity="0.12" offset="54%"></stop>
            <stop stop-color="#808080" stop-opacity="0.1" offset="100%"></stop>
        </linearGradient>
        <linearGradient x1="50.0036348%" y1="100%" x2="50.0036348%" y2="0%" id="linearGradient-8">
            <stop stop-color="#808080" stop-opacity="0.25" offset="0%"></stop>
            <stop stop-color="#808080" stop-opacity="0.12" offset="54%"></stop>
            <stop stop-color="#808080" stop-opacity="0.1" offset="100%"></stop>
        </linearGradient>
        <linearGradient x1="50.005983%" y1="100%" x2="50.005983%" y2="0.0102564103%" id="linearGradient-9">
            <stop stop-color="#808080" stop-opacity="0.25" offset="0%"></stop>
            <stop stop-color="#808080" stop-opacity="0.12" offset="54%"></stop>
            <stop stop-color="#808080" stop-opacity="0.1" offset="100%"></stop>
        </linearGradient>
        <linearGradient x1="50%" y1="100%" x2="50%" y2="-0.0158227848%" id="linearGradient-10">
            <stop stop-color="#808080" stop-opacity="0.25" offset="0%"></stop>
            <stop stop-color="#808080" stop-opacity="0.12" offset="54%"></stop>
            <stop stop-color="#808080" stop-opacity="0.1" offset="100%"></stop>
        </linearGradient>
    </defs>
    <g id="Page-1" stroke="none" stroke-width="1" fill="none" fill-rule="evenodd">
        <g id="Artboard-2" transform="translate(-1020.000000, -293.000000)" fill-rule="nonzero">
            <g id="undraw_pcsocial_16rw" transform="translate(1020.000000, 293.000000)">
                <path d="M30.9392933,38.0633484 L31.7879795,39.3092006 L33.7873754,37.9517345 L35.0649351,40.3650075 L33.3162187,41.5535445 L37.5596497,47.785822 L34.8112353,49.6500754 L30.5647841,43.4147813 L29.3174268,44.2624434 L27.7861673,42.0241327 L29.0335246,41.1764706 L28.1908789,39.9426848 C28.1908789,39.9426848 26.3515554,37.7254902 28.320749,35.8431373 L31.0691634,33.9788839 L32.4282694,35.9758673 L31.1809121,36.8235294 C30.7771932,37.1030532 30.6700208,37.6529868 30.9392933,38.0633484 Z" id="Shape" fill="url(#linearGradient-1)"></path>
                <path d="M31.5433404,37.158371 L32.3920266,38.4042232 L34.3914225,37.0467572 L35.6689822,39.4600302 L33.9202658,40.6485671 L38.1636968,46.8808446 L35.4152824,48.745098 L31.1688312,42.5098039 L29.9214739,43.3574661 L28.3902144,41.1191554 L29.6375717,40.2714932 L28.794926,39.0377074 C28.794926,39.0377074 26.9556025,36.8205128 28.9247961,34.9381599 L31.6732105,33.0739065 L33.0323165,35.0708899 L31.7849592,35.918552 C31.3812403,36.1980758 31.2740679,36.7480094 31.5433404,37.158371 Z" id="Shape" fill="#3B5998"></path>
                <path d="M94.8353972,9.65309201 L96.345515,9.35143288 C96.345515,9.35143288 95.077016,10.7692308 94.8353972,10.8597285 C94.8128491,11.1609673 94.8128491,11.4634671 94.8353972,11.7647059 C91.935971,24.1930618 81.2443371,18.7028658 81.2443371,18.7028658 C85.140441,18.7933635 85.4726669,17.1945701 85.4726669,17.1945701 C83.2074902,16.8627451 82.7544548,15.3846154 82.7544548,15.3846154 C83.1752674,15.6063362 83.6957091,15.4763827 83.9625491,15.0829563 C81.5161583,14.4494721 81.8483842,12.066365 81.8483842,12.066365 C82.2844267,12.3808097 82.7940019,12.5781617 83.3282996,12.6395173 C83.0564784,12.3076923 80.7610994,9.56259427 82.1504077,8.14479638 C82.1504077,8.14479638 83.8417397,11.1613876 88.281486,11.4328808 L88.5835095,11.372549 C88.5321555,11.155282 88.5118193,10.9318536 88.5231048,10.7088989 C88.5231048,8.95958073 89.9429206,7.54147813 91.6943522,7.54147813 C93.8085171,7.54147813 94.2615524,8.74811463 94.2615524,8.74811463 L95.7716702,7.84313725 C95.7414678,7.84313725 95.5904561,9.35143288 94.8353972,9.65309201 Z" id="Shape" fill="url(#linearGradient-2)"></path>
                <path d="M95.4394443,8.74811463 L96.9495621,8.44645551 C96.9495621,8.44645551 95.6810631,9.86425339 95.4394443,9.95475113 C95.4168962,10.2559899 95.4168962,10.5584897 95.4394443,10.8597285 C92.5400181,23.2880845 81.8483842,17.7978884 81.8483842,17.7978884 C85.7444881,17.8883861 86.076714,16.2895928 86.076714,16.2895928 C83.8115373,15.9577677 83.358502,14.479638 83.358502,14.479638 C83.7793145,14.7013588 84.2997562,14.5714054 84.5665962,14.1779789 C82.1202054,13.5444947 82.4524313,11.1613876 82.4524313,11.1613876 C82.8884738,11.4758323 83.3980491,11.6731843 83.9323467,11.73454 C83.6605255,11.4027149 81.3651465,8.65761689 82.7544548,7.239819 C82.7544548,7.239819 84.4457868,10.2564103 88.8855331,10.5279035 L89.1875566,10.4675716 C89.1362026,10.2503047 89.1158664,10.0268762 89.1271519,9.80392157 C89.1271519,8.05460336 90.5469677,6.63650075 92.2983993,6.63650075 C94.4125642,6.63650075 94.8655995,7.84313725 94.8655995,7.84313725 L96.3757173,6.93815988 C96.345515,6.93815988 96.1945032,8.44645551 95.4394443,8.74811463 Z" id="Shape" fill="#00ACED"></path>
                <path d="M200.492298,21.7978884 L202.147387,16.1116139 C202.147387,16.1116139 202.17457,14.8325792 201.02688,14.561086 C199.879191,14.2895928 199.450317,14.3529412 198.752643,14.811463 L197.012987,20.7782805 L194.113561,19.933635 L196.732105,10.9562594 L199.631531,11.800905 L199.241921,13.1342383 C199.241921,13.1342383 200.752039,11.5595777 202.639686,12.2684766 C204.403503,12.907994 205.415282,14.3951735 205.022652,16.826546 L205.080036,16.8446456 L203.388704,22.6365008 L200.492298,21.7978884 Z M193.597101,8.7933635 C192.636315,8.51347259 192.084615,7.5086456 192.364844,6.54901961 C192.645074,5.58939362 193.651114,5.03835946 194.6119,5.31825038 C195.572685,5.59814129 196.124385,6.60296828 195.844156,7.56259427 C195.709585,8.02342292 195.397241,8.41198372 194.975837,8.64279772 C194.554432,8.87361173 194.058486,8.92777186 193.597101,8.7933635 Z M192.086983,19.3514329 L189.187557,18.5067873 L191.806101,9.52941176 L194.705527,10.3740573 L192.086983,19.3514329 Z" id="Shape" fill="url(#linearGradient-3)"></path>
                <path d="M201.096346,20.892911 L202.751435,15.2066365 C202.751435,15.2066365 202.778617,13.9276018 201.630927,13.6561086 C200.483238,13.3846154 200.054364,13.4479638 199.35669,13.9064857 L197.617034,19.8733032 L194.717608,19.0286576 L197.336152,10.0512821 L200.235578,10.8959276 L199.845968,12.2292609 C199.845968,12.2292609 201.356086,10.6546003 203.243733,11.3634992 C205.007551,12.0030166 206.01933,13.4901961 205.626699,15.9215686 L205.684083,15.9396682 L203.992751,21.7315234 L201.096346,20.892911 Z M194.201148,7.88838612 C193.240362,7.60849521 192.688663,6.60366822 192.968892,5.64404223 C193.249121,4.68441624 194.255162,4.13338209 195.215947,4.413273 C196.176732,4.69316392 196.728432,5.6979909 196.448203,6.65761689 C196.313632,7.11844554 196.001289,7.50700634 195.579884,7.73782035 C195.158479,7.96863435 194.662533,8.02279448 194.201148,7.88838612 Z M192.69103,18.4464555 L189.791604,17.60181 L192.410148,8.62443439 L195.309574,9.46907994 L192.69103,18.4464555 Z" id="Shape" fill="#0077B5"></path>
                <path d="M255.813953,33.0316742 C255.481728,34.6304676 255.240109,36.8024133 251.887647,37.5565611 C251.887647,37.5565611 249.924494,38.0693816 249.290245,36.6515837 C248.897614,38.1900452 248.504983,39.6078431 248.263365,39.9698341 C247.809217,40.7075583 247.304646,41.4131052 246.753247,42.081448 C246.753247,42.081448 247.025068,39.3665158 247.05527,38.7631976 C247.085473,37.8280543 247.961341,33.6349925 247.961341,33.6349925 C247.961341,33.6349925 247.145877,30.678733 249.169435,30.3167421 C249.169435,30.3167421 250.830565,29.9245852 250.377529,32.1266968 C250.377529,32.1266968 250.045304,33.5746606 249.622471,35.2337858 L249.773482,35.4449472 C250.012253,35.9187672 250.459304,36.2536506 250.981577,36.3499246 C251.79704,36.4404223 253.941407,34.9924585 254.001812,32.428356 C254.062217,29.8642534 253.518574,29.1402715 251.2836,28.5067873 C249.048626,27.8733032 247.145877,28.959276 246.451223,30.9200603 C245.665962,33.1523379 246.300211,33.6953243 246.753247,34.2383107 L246.451223,35.7466063 C246.451223,35.7466063 244.276654,35.0226244 244.337058,32.7300151 C244.397463,30.4374057 245.696164,26.9984917 250.377529,26.9984917 C255.058895,26.9984917 256.146179,31.4027149 255.813953,33.0316742 Z" id="Shape" fill="url(#linearGradient-4)"></path>
                <path d="M256.418001,32.1266968 C256.085775,33.7254902 255.844156,35.8974359 252.491694,36.6515837 C252.491694,36.6515837 250.528541,37.1644042 249.894292,35.7466063 C249.501661,37.2850679 249.109031,38.7028658 248.867412,39.0648567 C248.413264,39.802581 247.908693,40.5081278 247.357294,41.1764706 C247.357294,41.1764706 247.629115,38.4615385 247.659317,37.8582202 C247.68952,36.9230769 248.565388,32.7300151 248.565388,32.7300151 C248.565388,32.7300151 247.749924,29.7737557 249.773482,29.4117647 C249.773482,29.4117647 251.434612,29.0196078 250.981577,31.2217195 C250.981577,31.2217195 250.649351,32.6696833 250.226518,34.3288084 L250.377529,34.5399698 C250.6163,35.0137898 251.063351,35.3486732 251.585624,35.4449472 C252.401087,35.5354449 254.545455,34.0874811 254.605859,31.5233786 C254.666264,28.959276 254.122622,28.2352941 251.887647,27.60181 C249.652673,26.9683258 247.749924,28.0542986 247.05527,30.015083 C246.270009,32.2473605 246.904259,32.7903469 247.357294,33.3333333 L247.05527,34.841629 C247.05527,34.841629 244.880701,34.1176471 244.941105,31.8250377 C245.00151,29.5324284 246.300211,26.0935143 250.981577,26.0935143 C255.662942,26.0935143 256.750227,30.4977376 256.418001,32.1266968 Z" id="Shape" fill="#BD081C"></path>
                <path d="M146.632437,7.84313725 L144.669284,7.84313725 L144.669284,9.80392157 C144.662934,10.0511495 144.463775,10.250068 144.216249,10.2564103 L143.914225,10.2564103 C143.666699,10.250068 143.46754,10.0511495 143.46119,9.80392157 L143.46119,7.84313725 L141.498037,7.84313725 C141.25051,7.83679498 141.051351,7.63787646 141.045002,7.39064857 L141.045002,7.08898944 C141.051351,6.84176154 141.25051,6.64284303 141.498037,6.63650075 L143.46119,6.63650075 L143.46119,4.67571644 C143.46754,4.42848854 143.666699,4.22957003 143.914225,4.22322775 L144.216249,4.22322775 C144.463775,4.22957003 144.662934,4.42848854 144.669284,4.67571644 L144.669284,6.63650075 L146.632437,6.63650075 C146.879964,6.64284303 147.079123,6.84176154 147.085473,7.08898944 L147.085473,7.39064857 C147.079123,7.63787646 146.879964,7.83679498 146.632437,7.84313725 Z M139.806705,2.53695324 C140.215849,3.06349876 140.438877,3.71055973 140.440954,4.37707391 C140.407148,5.66886508 139.596064,6.81254244 138.387194,7.27300151 C138.477801,7.57466063 138.779825,7.90648567 139.534884,8.4494721 C140.984597,9.50527903 141.045002,11.4660633 141.045002,11.4660633 L141.045002,11.6168929 C141.045002,13.1855204 139.142253,14.4826546 136.816672,14.4826546 C134.49109,14.4826546 132.588342,13.1855204 132.588342,11.6168929 C132.588342,10.1085973 134.309876,8.87179487 136.514648,8.75113122 L136.514648,7.51432881 C134.823316,7.30316742 133.494413,5.97586727 133.494413,4.37707391 C133.494413,2.62745098 135.034733,1.20965309 136.967683,1.20965309 L137.118695,1.20965309 C137.118695,1.20965309 140.591966,0.938159879 141.045002,0.907993967 C141.498037,0.877828054 141.347025,1.51131222 141.347025,1.51131222 L139.806705,2.53695324 Z M134.702507,11.4630468 C134.702507,12.4585219 135.729387,13.2730015 136.967683,13.2730015 C138.20598,13.2730015 139.23286,12.4585219 139.23286,11.4630468 C139.23286,10.4675716 138.20598,9.65309201 136.967683,9.65309201 C135.729387,9.65309201 134.702507,10.4675716 134.702507,11.4630468 Z M138.387194,4.07239819 C138.145575,2.92609351 137.299909,2.11161388 136.514648,2.26244344 C135.729387,2.413273 135.306554,3.49924585 135.548173,4.64555053 C135.789792,5.7918552 136.635458,6.60633484 137.420719,6.45550528 C138.20598,6.30467572 138.628813,5.25188537 138.387194,4.07239819 Z" id="Shape" fill="url(#linearGradient-5)"></path>
                <path d="M147.236484,6.93815988 L145.273331,6.93815988 L145.273331,8.89894419 C145.266981,9.14617209 145.067823,9.3450906 144.820296,9.35143288 L144.518272,9.35143288 C144.270746,9.3450906 144.071587,9.14617209 144.065237,8.89894419 L144.065237,6.93815988 L142.102084,6.93815988 C141.854557,6.9318176 141.655399,6.73289909 141.649049,6.48567119 L141.649049,6.18401207 C141.655399,5.93678417 141.854557,5.73786566 142.102084,5.73152338 L144.065237,5.73152338 L144.065237,3.77073906 C144.071587,3.52351117 144.270746,3.32459266 144.518272,3.31825038 L144.820296,3.31825038 C145.067823,3.32459266 145.266981,3.52351117 145.273331,3.77073906 L145.273331,5.73152338 L147.236484,5.73152338 C147.484011,5.73786566 147.68317,5.93678417 147.68952,6.18401207 L147.68952,6.48567119 C147.68317,6.73289909 147.484011,6.9318176 147.236484,6.93815988 Z M140.410752,1.63197587 C140.819896,2.15852139 141.042924,2.80558235 141.045002,3.47209653 C141.011195,4.76388771 140.200111,5.90756506 138.991241,6.36802413 C139.081848,6.66968326 139.383872,7.0015083 140.138931,7.54449472 C141.588644,8.60030166 141.649049,10.561086 141.649049,10.561086 L141.649049,10.7119155 C141.649049,12.280543 139.7463,13.5776772 137.420719,13.5776772 C135.095137,13.5776772 133.192389,12.280543 133.192389,10.7119155 C133.192389,9.20361991 134.913923,7.9668175 137.118695,7.84615385 L137.118695,6.60935143 C135.427363,6.39819005 134.09846,5.07088989 134.09846,3.47209653 C134.09846,1.7224736 135.63878,0.304675716 137.571731,0.304675716 L137.722742,0.304675716 C137.722742,0.304675716 141.196013,0.0331825038 141.649049,0.00301659125 C142.102084,-0.0271493213 141.951072,0.606334842 141.951072,0.606334842 L140.410752,1.63197587 Z M135.306554,10.5580694 C135.306554,11.5535445 136.333434,12.3680241 137.571731,12.3680241 C138.810027,12.3680241 139.836907,11.5535445 139.836907,10.5580694 C139.836907,9.56259427 138.810027,8.74811463 137.571731,8.74811463 C136.333434,8.74811463 135.306554,9.56259427 135.306554,10.5580694 Z M138.991241,3.16742081 C138.749622,2.02111614 137.903957,1.2066365 137.118695,1.35746606 C136.333434,1.50829563 135.910601,2.59426848 136.15222,3.74057315 C136.393839,4.88687783 137.239505,5.70135747 138.024766,5.5505279 C138.810027,5.39969834 139.23286,4.34690799 138.991241,3.16742081 Z" id="Shape" fill="#D34836"></path>
                <rect id="Rectangle-path" fill="url(#linearGradient-6)" x="0" y="187.987934" width="285.714286" height="11.9577677"></rect>
                <rect id="Rectangle-path" fill="#F5F5F5" x="0.969495621" y="187.987934" width="283.449109" height="10.0180995"></rect>
                <path d="M166.034431,146.349925 C166.034431,146.349925 170.144971,174.051282 194.388402,183.288084 L96.179402,183.288084 C120.422833,174.054299 124.533374,146.349925 124.533374,146.349925 L166.034431,146.349925 Z" id="Shape" fill="#E0E0E0"></path>
                <rect id="Rectangle-path" fill="url(#linearGradient-7)" x="95.6871036" y="183.288084" width="99.1331924" height="5.85218703"></rect>
                <rect id="Rectangle-path" fill="#F5F5F5" x="96.179402" y="183.288084" width="98.2059801" height="4.5158371"></rect>
                <path d="M225.140441,46.7571644 L65.4273633,46.7571644 C64.5676079,46.7643285 63.7460114,47.1127558 63.1437434,47.7256148 C62.5414755,48.3384738 62.2080006,49.1654303 62.2168529,50.0241327 L62.2168529,143.930618 C62.2168529,150.835596 67.7016007,156.431373 74.4669284,156.431373 L216.091815,156.431373 C222.857143,156.431373 228.341891,150.835596 228.341891,143.930618 L228.341891,50.0241327 C228.360339,48.2392896 226.927425,46.7770499 225.140441,46.7571644 Z" id="Shape" fill="url(#linearGradient-8)"></path>
                <path d="M67.4811235,49.3906486 L223.086681,49.3906486 C224.879813,49.3906486 226.333434,50.8425155 226.333434,52.6334842 L226.333434,138.962293 L64.23135,138.962293 L64.23135,52.6334842 C64.2313497,51.7729078 64.5738319,50.9476224 65.1833696,50.3393859 C65.7929073,49.7311495 66.6195079,49.389848 67.4811235,49.3906486 Z" id="Shape" fill="#FFFFFF"></path>
                <path d="M213.908185,153.737557 L76.6596195,153.737557 C69.7956758,153.737557 64.23135,148.179945 64.23135,141.324284 L64.23135,138.962293 L226.336454,138.962293 L226.336454,141.324284 C226.336454,148.179945 220.772128,153.737557 213.908185,153.737557 Z" id="Shape" fill="#F5F5F5"></path>
                <rect id="Rectangle-path" fill="#004D81" x="72.244035" y="56.6455505" width="146.692842" height="72.3076923"></rect>
                <path d="M56.2367865,188.633484 L33.7148898,188.633484 C32.9642762,188.633484 32.3557838,188.025726 32.3557838,187.276018 L32.3557838,159.221719 L57.5958925,159.221719 L57.5958925,187.276018 C57.5958925,188.025726 56.9874,188.633484 56.2367865,188.633484 Z" id="Shape" fill="url(#linearGradient-9)"></path>
                <path d="M32.7604953,181.200603 C28.6137119,181.200603 25.2370885,176.923077 25.2370885,171.668175 C25.2370885,166.413273 28.6106916,162.135747 32.7604953,162.135747 C36.910299,162.135747 40.2839021,166.413273 40.2839021,171.668175 C40.2839021,176.923077 36.910299,181.200603 32.7604953,181.200603 Z M32.7604953,163.86727 C29.5348837,163.86727 26.910299,167.366516 26.910299,171.668175 C26.910299,175.969834 29.5348837,179.46908 32.7604953,179.46908 C35.9861069,179.46908 38.6106916,175.969834 38.6106916,171.668175 C38.6106916,167.366516 35.9891272,163.86727 32.7604953,163.86727 Z" id="Shape" fill="url(#linearGradient-10)"></path>
                <path d="M33.0051344,180.392157 C28.9912413,180.392157 25.7233464,176.404223 25.7233464,171.505279 C25.7233464,166.606335 28.9882211,162.618401 33.0051344,162.618401 C37.0220477,162.618401 40.2869224,166.606335 40.2869224,171.505279 C40.2869224,176.404223 37.0190275,180.392157 33.0051344,180.392157 Z M33.0051344,164.232278 C29.8822108,164.232278 27.3421927,167.493213 27.3421927,171.505279 C27.3421927,175.517345 29.8822108,178.778281 33.0051344,178.778281 C36.128058,178.778281 38.6590154,175.514329 38.6590154,171.505279 C38.6590154,167.496229 36.128058,164.226244 33.0051344,164.226244 L33.0051344,164.232278 Z" id="Shape" fill="#E53521"></path>
                <path d="M32.9205678,159.547511 L57.0371489,159.547511 L57.0371489,186.307692 C57.0371489,187.0574 56.4286564,187.665158 55.6780429,187.665158 L34.2766536,187.665158 C33.5260401,187.665158 32.9175476,187.0574 32.9175476,186.307692 L32.9175476,159.547511 L32.9205678,159.547511 Z" id="Shape" fill="#E53521"></path>
            </g>
        </g>
    </g>
</svg>