<?xml version="1.0" encoding="UTF-8"?>
<svg width="199px" height="196px" viewBox="0 0 199 196" version="1.1" xmlns="http://www.w3.org/2000/svg" xmlns:xlink="http://www.w3.org/1999/xlink">
    <!-- Generator: Sketch 51.2 (57519) - http://www.bohemiancoding.com/sketch -->
    <title>undraw_file_searching_duff</title>
    <desc>Created with Sketch.</desc>
    <defs>
        <linearGradient x1="50%" y1="100%" x2="50%" y2="4.71651335e-15%" id="linearGradient-1">
            <stop stop-color="#808080" stop-opacity="0.25" offset="0%"></stop>
            <stop stop-color="#808080" stop-opacity="0.12" offset="54%"></stop>
            <stop stop-color="#808080" stop-opacity="0.1" offset="100%"></stop>
        </linearGradient>
        <linearGradient x1="50%" y1="100%" x2="50%" y2="-1.76357095e-14%" id="linearGradient-2">
            <stop stop-color="#808080" stop-opacity="0.25" offset="0%"></stop>
            <stop stop-color="#808080" stop-opacity="0.12" offset="54%"></stop>
            <stop stop-color="#808080" stop-opacity="0.1" offset="100%"></stop>
        </linearGradient>
        <rect id="path-3" x="0.15547398" y="0.20729864" width="41.3992658" height="27.9075794"></rect>
        <rect id="path-5" x="0.15547398" y="0.120924206" width="41.3992658" height="27.9075794"></rect>
        <linearGradient x1="-9.43302669e-15%" y1="50%" x2="100%" y2="50%" id="linearGradient-7">
            <stop stop-color="#808080" stop-opacity="0.25" offset="0%"></stop>
            <stop stop-color="#808080" stop-opacity="0.12" offset="54%"></stop>
            <stop stop-color="#808080" stop-opacity="0.1" offset="100%"></stop>
        </linearGradient>
        <linearGradient x1="0.00629643622%" y1="50.0018066%" x2="100.006296%" y2="50.0018066%" id="linearGradient-8">
            <stop stop-color="#808080" stop-opacity="0.25" offset="0%"></stop>
            <stop stop-color="#808080" stop-opacity="0.12" offset="54%"></stop>
            <stop stop-color="#808080" stop-opacity="0.1" offset="100%"></stop>
        </linearGradient>
        <linearGradient x1="50.0002221%" y1="100.000449%" x2="50.0002221%" y2="0.00140337287%" id="linearGradient-9">
            <stop stop-color="#B3B3B3" stop-opacity="0.25" offset="0%"></stop>
            <stop stop-color="#B3B3B3" stop-opacity="0.1" offset="54%"></stop>
            <stop stop-color="#B3B3B3" stop-opacity="0.05" offset="100%"></stop>
        </linearGradient>
        <linearGradient x1="49.9800916%" y1="99.9486916%" x2="49.9800916%" y2="0%" id="linearGradient-10">
            <stop stop-color="#000000" stop-opacity="0.12" offset="0%"></stop>
            <stop stop-color="#000000" stop-opacity="0.09" offset="55%"></stop>
            <stop stop-color="#000000" stop-opacity="0.02" offset="100%"></stop>
        </linearGradient>
        <linearGradient x1="49.9885247%" y1="100.005627%" x2="49.9885247%" y2="0.0076852476%" id="linearGradient-11">
            <stop stop-color="#000000" stop-opacity="0.12" offset="0%"></stop>
            <stop stop-color="#000000" stop-opacity="0.09" offset="55%"></stop>
            <stop stop-color="#000000" stop-opacity="0.02" offset="100%"></stop>
        </linearGradient>
    </defs>
    <g id="Page-1" stroke="none" stroke-width="1" fill="none" fill-rule="evenodd">
        <g id="Artboard-2" transform="translate(-621.000000, -296.000000)">
            <g id="undraw_file_searching_duff" transform="translate(621.000000, 296.000000)">
                <g id="Group" opacity="0.5" transform="translate(0.702512, 8.838048)" fill="url(#linearGradient-1)" fill-rule="nonzero">
                    <rect id="Rectangle-path" x="0.0431872166" y="0.0604621032" width="129.112503" height="173.497445"></rect>
                </g>
                <rect id="Rectangle-path" fill="#F2F2F2" fill-rule="nonzero" x="2.42712157" y="11.2536529" width="125.078817" height="167.445476"></rect>
                <rect id="Rectangle-path" fill="#E0E0E0" fill-rule="nonzero" x="12.1787951" y="18.3133233" width="43.0375009" height="4.84848485"></rect>
                <rect id="Rectangle-path" fill="#E53521" fill-rule="nonzero" opacity="0.7" x="12.1787951" y="24.3652919" width="43.0375009" height="4.84848485"></rect>
                <rect id="Rectangle-path" fill="#E0E0E0" fill-rule="nonzero" x="61.6051249" y="18.3133233" width="43.0375009" height="1.34456201"></rect>
                <rect id="Rectangle-path" fill="#E0E0E0" fill-rule="nonzero" x="68.3279349" y="56.6462967" width="43.0375009" height="1.34456201"></rect>
                <rect id="Rectangle-path" fill="#E0E0E0" fill-rule="nonzero" x="69.3385158" y="60.3431224" width="43.0375009" height="1.34456201"></rect>
                <rect id="Rectangle-path" fill="#E0E0E0" fill-rule="nonzero" x="71.3567984" y="64.0428273" width="43.0375009" height="1.34456201"></rect>
                <rect id="Rectangle-path" fill="#E0E0E0" fill-rule="nonzero" x="68.3279349" y="116.158281" width="43.0375009" height="1.34456201"></rect>
                <rect id="Rectangle-path" fill="#E0E0E0" fill-rule="nonzero" x="69.3385158" y="119.857986" width="43.0375009" height="1.34456201"></rect>
                <rect id="Rectangle-path" fill="#E0E0E0" fill-rule="nonzero" x="71.3567984" y="123.554812" width="43.0375009" height="1.34456201"></rect>
                <g id="Group" opacity="0.5" transform="translate(12.507018, 42.811992)" fill="url(#linearGradient-2)" fill-rule="nonzero">
                    <rect id="Rectangle-path" x="0.00863744332" y="0.0460663644" width="45.7266249" height="46.4003455"></rect>
                </g>
                <rect id="Rectangle-path" fill="#F5F5F5" fill-rule="nonzero" x="12.8035701" y="43.8686389" width="45.006838" height="44.3820629"></rect>
                <g id="Group" opacity="0.5" transform="translate(14.234507, 46.554884)" fill="url(#linearGradient-1)" fill-rule="nonzero">
                    <rect id="Rectangle-path" x="0.15547398" y="0.00287914777" width="41.9779745" height="28.9152811"></rect>
                </g>
                <rect id="e1f34465-d008-41db-868b-e00503fb87b3" fill="#FFFFFF" fill-rule="nonzero" x="14.6778953" y="46.8946232" width="41.3992658" height="27.9075794"></rect>
                <g id="Clipped" transform="translate(66.059166, 64.117685)">
                    <mask id="mask-4" fill="white">
                        <use xlink:href="#path-3"></use>
                    </mask>
                    <g id="cf34cfb5-9399-4bae-9cea-d47bbef6cb3a"></g>
                    <g id="Group" mask="url(#mask-4)" fill="#E53521" fill-rule="nonzero" opacity="0.4">
                        <g transform="translate(-56.431296, -16.411142)">
                            <polygon id="Shape" points="1.54034406 26.087958 11.9657381 9.94745555 16.3362845 17.0071259 25.7510977 7.25833153 33.8213489 17.0071259 40.8810192 2.55092493 59.0369251 31.466206 0.195782049 29.4479234"></polygon>
                            <circle id="Oval" cx="9.61059526" cy="3.22176636" r="3.02598431"></circle>
                        </g>
                    </g>
                </g>
                <g id="Group" opacity="0.5" transform="translate(12.507018, 102.122436)" fill="url(#linearGradient-2)" fill-rule="nonzero">
                    <rect id="Rectangle-path" x="0.00863744332" y="0.250485856" width="45.7266249" height="46.4003455"></rect>
                </g>
                <rect id="Rectangle-path" fill="#F5F5F5" fill-rule="nonzero" x="12.8035701" y="103.380623" width="45.006838" height="44.3820629"></rect>
                <g id="Group" opacity="0.5" transform="translate(14.234507, 105.865328)" fill="url(#linearGradient-1)" fill-rule="nonzero">
                    <rect id="Rectangle-path" x="0.15547398" y="0.20729864" width="41.9779745" height="28.9152811"></rect>
                </g>
                <rect id="c95ac4f6-be4d-44a3-92c2-5c8066e2b531" fill="#FFFFFF" fill-rule="nonzero" x="14.6778953" y="106.406608" width="41.3992658" height="27.9075794"></rect>
                <g id="Clipped" transform="translate(66.059166, 123.716044)">
                    <mask id="mask-6" fill="white">
                        <use xlink:href="#path-5"></use>
                    </mask>
                    <g id="7439734d-5f7c-428f-88ce-e68b86a45c07"></g>
                    <g id="Group" mask="url(#mask-6)" fill="#BDBDBD" fill-rule="nonzero" opacity="0.4">
                        <g transform="translate(-56.431296, -16.411142)">
                            <polygon id="Shape" points="1.54034406 26.0015835 11.9657381 9.86108112 16.3362845 16.9236306 25.7510977 7.1719571 33.8213489 16.9236306 40.8810192 2.46455049 59.0369251 31.3798316 0.195782049 29.3644281"></polygon>
                            <circle id="Oval" cx="9.61059526" cy="3.13827107" r="3.02598431"></circle>
                        </g>
                    </g>
                </g>
                <g id="Group" opacity="0.5" transform="translate(19.416973, 0.200605)" fill="url(#linearGradient-7)" fill-rule="nonzero">
                    <rect id="Rectangle-path" transform="translate(80.510804, 97.793820) rotate(-78.760000) translate(-80.510804, -97.793820) " x="-6.23791831" y="33.2375683" width="173.497445" height="129.112503"></rect>
                </g>
                <rect id="Rectangle-path" fill="#FFFFFF" fill-rule="nonzero" transform="translate(99.728809, 97.270202) rotate(-78.760000) translate(-99.728809, -97.270202) " x="16.0060713" y="34.7307935" width="167.445476" height="125.078817"></rect>
                <rect id="Rectangle-path" fill="#E0E0E0" fill-rule="nonzero" transform="translate(105.521378, 23.377813) rotate(11.240000) translate(-105.521378, -23.377813) " x="61.1378753" y="20.9535704" width="88.767005" height="4.84848485"></rect>
                <rect id="Rectangle-path" fill="#E0E0E0" fill-rule="nonzero" transform="translate(80.748197, 148.039325) rotate(11.240000) translate(-80.748197, -148.039325) " x="36.3646945" y="145.615083" width="88.767005" height="4.84848485"></rect>
                <rect id="Rectangle-path" fill="#E0E0E0" fill-rule="nonzero" transform="translate(69.344405, 153.655394) rotate(11.240000) translate(-69.344405, -153.655394) " x="35.0479965" y="151.231152" width="68.5928165" height="4.84848485"></rect>
                <rect id="Rectangle-path" fill="#E53521" fill-rule="nonzero" opacity="0.7" transform="translate(46.730254, 157.048219) rotate(11.240000) translate(-46.730254, -157.048219) " x="33.9540354" y="154.623976" width="25.5524365" height="4.84848485"></rect>
                <rect id="Rectangle-path" fill="#E53521" fill-rule="nonzero" opacity="0.7" transform="translate(82.244643, 26.638624) rotate(11.240000) translate(-82.244643, -26.638624) " x="60.0536119" y="24.2143813" width="44.3820629" height="4.84848485"></rect>
                <rect id="Rectangle-path" fill="#E0E0E0" fill-rule="nonzero" transform="translate(98.219338, 37.696396) rotate(11.240000) translate(-98.219338, -37.696396) " x="58.2078211" y="35.2721541" width="80.0230332" height="4.84848485"></rect>
                <rect id="Rectangle-path" fill="#3AD29F" fill-rule="nonzero" opacity="0.7" transform="translate(67.029680, 39.384437) rotate(11.240000) translate(-67.029680, -39.384437) " x="57.2794461" y="36.9601942" width="19.5004679" height="4.84848485"></rect>
                <rect id="Rectangle-path" fill="#E0E0E0" fill-rule="nonzero" transform="translate(99.492749, 53.720326) rotate(11.240000) translate(-99.492749, -53.720326) " x="55.1092464" y="51.2960833" width="88.767005" height="4.84848485"></rect>
                <g id="Group" opacity="0.5" transform="translate(54.830490, 74.482617)" fill="url(#linearGradient-8)" fill-rule="nonzero">
                    <rect id="Rectangle-path" transform="translate(43.554393, 30.405230) rotate(-78.760000) translate(-43.554393, -30.405230) " x="20.6910801" y="-9.43785639" width="45.7266249" height="79.6861729"></rect>
                </g>
                <rect id="Rectangle-path" fill="#FFFFFF" fill-rule="nonzero" transform="translate(98.431716, 104.723327) rotate(11.240000) translate(-98.431716, -104.723327) " x="59.0924806" y="82.3638658" width="78.6784712" height="44.7189232"></rect>
                <rect id="Rectangle-path" fill="#E0E0E0" fill-rule="nonzero" transform="translate(97.985339, 61.307805) rotate(11.240000) translate(-97.985339, -61.307805) " x="53.6018362" y="58.8835626" width="88.767005" height="4.84848485"></rect>
                <rect id="Rectangle-path" fill="#E53521" fill-rule="nonzero" transform="translate(72.710955, 99.611853) rotate(11.240000) translate(-72.710955, -99.611853) " x="67.8351183" y="83.3043604" width="9.7516735" height="32.614986"></rect>
                <rect id="Rectangle-path" fill="#3AD29F" fill-rule="nonzero" transform="translate(88.810481, 108.297175) rotate(11.240000) translate(-88.810481, -108.297175) " x="83.9346447" y="97.3693695" width="9.7516735" height="21.8556107"></rect>
                <rect id="Rectangle-path" fill="#F55F44" fill-rule="nonzero" transform="translate(104.978754, 116.651911) rotate(11.240000) translate(-104.978754, -116.651911) " x="100.102917" y="110.768372" width="9.7516735" height="11.7670769"></rect>
                <rect id="Rectangle-path" fill="#FDD835" fill-rule="nonzero" transform="translate(123.307228, 114.124555) rotate(11.240000) translate(-123.307228, -114.124555) " x="118.431391" y="102.187609" width="9.7516735" height="23.8738933"></rect>
                <path d="M158.321457,72.1821781 C149.940551,63.4653542 138.396932,58.4990247 126.305021,58.4079736 C114.213111,58.3169225 102.596013,63.1088537 94.0847909,71.6984812 C77.097819,88.8236522 76.8099043,116.708198 93.4254661,134.196142 C108.497021,150.059822 132.811597,152.743062 150.97963,140.547542 L183.424746,174.294033 C184.261233,175.163619 185.644201,175.190686 186.514072,174.354495 L194.598719,166.580796 C195.468305,165.74431 195.495372,164.361341 194.659181,163.491471 L162.222702,129.747859 C175.060585,112.154058 173.415728,87.8830078 158.321457,72.1821781 Z M148.215648,126.439718 C135.434583,138.726975 115.112762,138.326909 102.825199,125.546138 C90.5376355,112.765367 90.9372148,92.4435368 103.717692,80.1556675 C116.498169,67.8677983 136.820009,68.2668911 149.108184,81.0470741 C155.009551,87.1847262 158.230903,95.4153898 158.063518,103.928256 C157.896133,112.441121 154.353724,120.538792 148.215648,126.439718 Z" id="Shape" fill="url(#linearGradient-9)" fill-rule="nonzero"></path>
                <path d="M102.189592,94.3660117 C98.5791406,94.3660117 98.5733823,99.9774707 102.189592,99.9774707 C105.805801,99.9774707 105.805801,94.3660117 102.189592,94.3660117 Z" id="Shape" fill="url(#linearGradient-10)" fill-rule="nonzero"></path>
                <path d="M127.356223,76.3914921 C117.639099,76.1726769 108.797236,81.0470741 104.095588,88.4061758 C102.561002,90.807385 106.917153,92.9293169 108.443101,90.5396243 C112.335709,84.4473476 119.732239,80.577773 127.733391,80.7793133 C136.117469,80.9894911 143.747211,85.7861513 147.786655,92.4427409 C149.318362,94.9677535 153.334773,92.6730728 151.817462,90.1624559 C146.905636,82.1008422 137.392932,76.6304614 127.356223,76.3914921 Z" id="Shape" fill="url(#linearGradient-11)" fill-rule="nonzero"></path>
                <path d="M161.842655,70.4777226 C153.461749,61.7608987 141.91813,56.7945692 129.826219,56.7035181 C117.734308,56.612467 106.11721,61.4043982 97.6059886,69.9940258 C80.6190168,87.1191967 80.331102,115.003743 96.9466638,132.491686 C112.018968,148.354439 136.333471,151.036454 154.500828,138.840207 L186.943065,172.589577 C187.779551,173.459164 189.16252,173.48623 190.03239,172.65004 L198.117037,164.876341 C198.986624,164.039854 199.01369,162.656886 198.177499,161.787015 L165.732383,128.040524 C178.571717,110.450008 176.931772,86.1810113 161.842655,70.4777226 Z M151.736846,124.712229 C138.955781,136.999487 118.63396,136.599421 106.346397,123.81865 C94.0588333,111.037878 94.4584126,90.7160481 107.23889,78.4281789 C120.019367,66.1403096 140.341207,66.5394025 152.629382,79.3195854 C158.530748,85.4572375 161.7521,93.6879012 161.584716,102.200767 C161.417331,110.713633 157.874922,118.811303 151.736846,124.712229 Z" id="Shape" fill="#004D81" fill-rule="nonzero"></path>
                <path d="M105.71079,92.658677 C102.100338,92.658677 102.09458,98.270136 105.71079,98.270136 C109.326999,98.270136 109.326999,92.658677 105.71079,92.658677 Z" id="Shape" fill="#E53521" fill-rule="nonzero"></path>
                <path d="M130.87742,74.6870366 C121.160297,74.4682214 112.318434,79.3426186 107.616785,86.7017203 C106.0822,89.1029295 110.43835,91.2248614 111.964299,88.8351688 C115.856906,82.7428921 123.253437,78.8733175 131.254589,79.0748578 C139.638667,79.2850356 147.268409,84.0816958 151.307853,90.7382855 C152.839559,93.2632981 156.855971,90.9686173 155.33866,88.4580004 C150.418196,80.3733535 140.917009,74.9029727 130.87742,74.6870366 Z" id="Shape" fill="#E53521" fill-rule="nonzero"></path>
            </g>
        </g>
    </g>
</svg>