<?xml version="1.0" encoding="UTF-8"?>
<svg width="81px" height="48px" viewBox="0 0 81 48" version="1.1" xmlns="http://www.w3.org/2000/svg" xmlns:xlink="http://www.w3.org/1999/xlink">
    <!-- Generator: Sketch 51.2 (57519) - http://www.bohemiancoding.com/sketch -->
    <title>next-js-seeklogo.com</title>
    <desc>Created with Sketch.</desc>
    <defs></defs>
    <g id="Page-1" stroke="none" stroke-width="1" fill="none" fill-rule="evenodd">
        <g id="Artboard" transform="translate(-599.000000, -5389.000000)" fill="#000000" fill-rule="nonzero">
            <g id="next-js-seeklogo.com" transform="translate(599.000000, 5389.000000)">
                <path d="M19.1125876,12.5190777 L34.3899303,12.5190777 L34.3899303,13.7118126 L20.5130106,13.7118126 L20.5130106,22.6887123 L33.5624076,22.6887123 L33.5624076,23.8814471 L20.5130106,23.8814471 L20.5130106,33.7372041 L34.5490694,33.7372041 L34.5490694,34.9299389 L19.1125876,34.9299389 L19.1125876,12.5190777 Z M35.7585258,12.5190777 L37.3817433,12.5190777 L44.5748256,22.3748347 L51.9270468,12.5190777 L61.9272663,0 L45.4978316,23.4106307 L53.9640258,34.9299389 L52.2771527,34.9299389 L44.5748256,24.4464269 L36.8406708,34.9299389 L35.1856254,34.9299389 L43.715475,23.4106307 L35.7585258,12.5190777 Z M54.5687541,13.7118126 L54.5687541,12.5190777 L71.9785593,12.5190777 L71.9785593,13.7118126 L63.9579544,13.7118126 L63.9579544,34.9299389 L62.5575311,34.9299389 L62.5575311,13.7118126 L54.5687541,13.7118126 Z M0,12.5190777 L1.75052887,12.5190777 L25.8892975,48 L15.9138988,34.9299389 L1.46407869,14.2140168 L1.40042309,34.9299389 L0,34.9299389 L0,12.5190777 Z M71.8374611,33.3772623 C71.5513448,33.3772623 71.3367573,33.1595046 71.3367573,32.8780949 C71.3367573,32.5966848 71.5513448,32.3789271 71.8374611,32.3789271 C72.1269838,32.3789271 72.338165,32.5966848 72.338165,32.8780949 C72.338165,33.1595046 72.1269838,33.3772623 71.8374611,33.3772623 Z M73.2135451,32.0640157 L73.9628977,32.0640157 C73.973116,32.4626799 74.2694512,32.7306895 74.705438,32.7306895 C75.1925171,32.7306895 75.4684151,32.4425791 75.4684151,31.9032101 L75.4684151,28.4860894 L76.2313924,28.4860894 L76.2313924,31.9065603 C76.2313924,32.8780949 75.6591595,33.4375644 74.7122503,33.4375644 C73.8232456,33.4375644 73.2135451,32.8948454 73.2135451,32.0640157 Z M77.2293938,32.0204645 L77.9855587,32.0204645 C78.0502755,32.4794307 78.5066994,32.770891 79.1640861,32.770891 C79.777193,32.770891 80.2268044,32.45933 80.2268044,32.0305147 C80.2268044,31.6620018 79.940688,31.4408939 79.2901134,31.2901384 L78.6565702,31.1393833 C77.7675653,30.9350259 77.3622335,30.5129109 77.3622335,29.802686 C77.3622335,28.9417054 78.0775249,28.3688352 79.1504615,28.3688352 C80.148463,28.3688352 80.8773787,28.9417054 80.9216586,29.7557842 L80.1791183,29.7557842 C80.1075893,29.3102185 79.7124759,29.0321587 79.140243,29.0321587 C78.5373548,29.0321587 78.1354295,29.3169187 78.1354295,29.7524342 C78.1354295,30.0974963 78.3942964,30.2951532 79.0346525,30.4425586 L79.5762301,30.573213 C80.5844501,30.8043715 81,31.2063854 81,31.9333613 C81,32.8579941 80.2710843,33.4375644 79.1061816,33.4375644 C78.0162141,33.4375644 77.2838924,32.8847948 77.2293938,32.0204645 Z" id="Shape"></path>
            </g>
        </g>
    </g>
</svg>