<?xml version="1.0" encoding="UTF-8"?>
<svg width="47px" height="48px" viewBox="0 0 47 48" version="1.1" xmlns="http://www.w3.org/2000/svg" xmlns:xlink="http://www.w3.org/1999/xlink">
    <!-- Generator: Sketch 51.2 (57519) - http://www.bohemiancoding.com/sketch -->
    <title>postgresql</title>
    <desc>Created with Sketch.</desc>
    <defs></defs>
    <g id="Page-1" stroke="none" stroke-width="1" fill="none" fill-rule="evenodd">
        <g id="Artboard" transform="translate(-1017.000000, -5309.000000)" fill-rule="nonzero">
            <g id="postgresql" transform="translate(1017.000000, 5309.000000)">
                <path d="M46.2398765,28.7429091 C45.9615394,27.8976364 45.2324228,27.3089091 44.2895216,27.1676364 C43.8449074,27.1010909 43.3357407,27.1294545 42.7331906,27.254 C41.6829437,27.4712727 40.9037809,27.554 40.3351389,27.57 C42.4815085,23.9363636 44.2267824,19.7927273 45.2315162,15.8921818 C46.8562076,9.58509091 45.9880131,6.71181818 44.9734877,5.41218182 C42.2885764,1.97218182 38.3713657,0.124181818 33.6456173,0.0676363636 C31.1246258,0.0367272727 28.9115278,0.535818182 27.7570177,0.894727273 C26.6821103,0.704545455 25.526331,0.598363636 24.313615,0.578727273 C22.0403164,0.542363636 20.0317554,1.03927273 18.3154938,2.06054545 C17.3653395,1.73836364 15.8403781,1.28418182 14.0793287,0.994363636 C9.9374537,0.312545455 6.59922068,0.843818182 4.15746914,2.57345455 C1.20074846,4.66763636 -0.169903549,8.30618182 0.083591821,13.388 C0.16410108,15.0014545 1.0642091,19.9105455 2.48146219,24.5661818 C3.2959838,27.2421818 4.1645409,29.4643636 5.06301698,31.1716364 C6.33720293,33.5925455 7.70060185,35.0181818 9.23118441,35.5301818 C10.0890432,35.8167273 11.6477315,36.0174545 13.2871103,34.6483636 C13.4949113,34.9007273 13.7721605,35.1514545 14.1400733,35.3843636 C14.6073534,35.6798182 15.1787153,35.9212727 15.7493519,36.0643636 C17.8057832,36.5798182 19.7320216,36.4509091 21.3753897,35.7283636 C21.385544,36.0214545 21.393341,36.3014545 21.3998688,36.5432727 C21.4107485,36.9354545 21.4216281,37.32 21.4359529,37.6796364 C21.5333256,40.1112727 21.6983333,42.002 22.1871914,43.3249091 C22.2140278,43.3976364 22.2501119,43.5085455 22.2881906,43.6261818 C22.5320756,44.3749091 22.9398804,45.6283636 23.9774344,46.61 C25.0517978,47.6269091 26.3513696,47.9387273 27.5416011,47.9387273 C28.1385301,47.9387273 28.7080787,47.8601818 29.207635,47.7529091 C30.9882677,47.3701818 33.0106096,46.7872727 34.4735571,44.6985455 C35.8567207,42.724 36.5290818,39.75 36.6507523,35.064 C36.6665278,34.9314545 36.681034,34.8049091 36.6949961,34.6843636 L36.7240085,34.4367273 L37.0498534,34.4654545 L37.1338079,34.4710909 C38.9474421,34.554 41.1650733,34.1683636 42.5270216,33.534 C43.6031983,33.0332727 47.0518596,31.2076364 46.2398765,28.7429091" id="Shape" fill="#000000"></path>
                <path d="M43.1388194,29.2221818 C37.7461497,30.3376364 37.3753356,28.5069091 37.3753356,28.5069091 C43.0690085,20.0354545 45.4492901,9.28218182 43.3953974,6.65036364 C37.7916628,-0.528727273 28.0915664,2.86654545 27.9296412,2.95454545 L27.8776003,2.964 C26.8121219,2.74218182 25.6198958,2.61018182 24.2797068,2.58818182 C21.8397685,2.54818182 19.9887809,3.22963636 18.5842207,4.29763636 C18.5842207,4.29763636 1.28016975,-2.85036364 2.08508102,13.2874545 C2.25625386,16.7205455 6.99251929,39.2643636 12.6415856,32.4550909 C14.706358,29.9650909 16.7015008,27.8598182 16.7015008,27.8598182 C17.6922724,28.5198182 18.8785147,28.8565455 20.1220563,28.7356364 L20.2187037,28.6534545 C20.1886034,28.9625455 20.2023843,29.2649091 20.2573264,29.6229091 C18.8019946,31.2532727 19.2297454,31.5394545 16.3205324,32.14 C13.376686,32.7483636 15.1060031,33.8312727 16.2351273,34.1145455 C17.603966,34.4576364 20.7706636,34.9438182 22.9103241,31.9403636 L22.8251003,32.2830909 C23.3951929,32.7410909 23.7955633,35.2618182 23.7284722,37.5470909 C23.6613812,39.8321818 23.6165934,41.4010909 24.0657407,42.6265455 C24.5152508,43.852 24.9629475,46.6092727 28.7875,45.7876364 C31.9830285,45.1009091 33.6390895,43.3214545 33.8695563,40.3530909 C34.0329321,38.2429091 34.4030208,38.5549091 34.4262307,36.6681818 L34.7230633,35.7750909 C35.0652276,32.9145455 34.7774614,31.9916364 36.7461304,32.4209091 L37.2248341,32.4630909 C38.6736381,32.5290909 40.5703202,32.2292727 41.6834877,31.7105455 C44.0802701,30.5952727 45.501875,28.7329091 43.1384568,29.2221818 L43.1388194,29.2221818" id="Shape" fill="#336791"></path>
                <path d="M19.5971142,14.8227273 C19.1111574,14.7549091 18.6710764,14.8176364 18.4484066,14.9867273 C18.3232909,15.0818182 18.2844869,15.192 18.2739699,15.2678182 C18.2460455,15.4687273 18.3863927,15.6909091 18.4727045,15.8054545 C18.7167708,16.1298182 19.07326,16.3527273 19.4261227,16.4018182 C19.4772569,16.4090909 19.5282099,16.4123636 19.5788002,16.4123636 C20.1672068,16.4123636 20.7023032,15.9529091 20.7494483,15.6138182 C20.8083796,15.1890909 20.1934992,14.906 19.5971142,14.8229091 M35.6960648,14.8361818 C35.6496451,14.5032727 35.0588812,14.4083636 34.4982176,14.4865455 C33.9382793,14.5647273 33.3953858,14.8181818 33.4407176,15.1518182 C33.476983,15.4112727 33.9442631,15.8541818 34.497311,15.8541818 C34.5440934,15.8541818 34.5912384,15.8510909 34.6387461,15.8443636 C35.0079282,15.7930909 35.278831,15.558 35.4075733,15.4225455 C35.6034066,15.216 35.7169174,14.9858182 35.6960648,14.8361818" id="Shape" fill="#FFFFFF"></path>
                <path d="M44.933233,29.0954545 C44.727608,28.472 44.0657639,28.2714545 42.966196,28.4990909 C39.7014005,29.1747273 38.5322029,28.7067273 38.1483333,28.4232727 C40.6860069,24.5469091 42.7736265,19.8610909 43.8998495,15.4892727 C44.433314,13.4183636 44.7279707,11.4950909 44.7520872,9.92745455 C44.7787423,8.20690909 44.4864429,6.94254545 43.8837114,6.17018182 C41.4535648,3.05654545 37.8868596,1.38636364 33.5694599,1.34054545 C30.6013156,1.30709091 28.093561,2.06872727 27.6074228,2.28290909 C26.5836497,2.02763636 25.467581,1.87090909 24.2525077,1.85090909 C22.0243596,1.81472727 20.0983025,2.34963636 18.5037114,3.44 C17.8110417,3.18145455 16.0209799,2.56527273 13.8318171,2.21163636 C10.0471566,1.60072727 7.03966435,2.06363636 4.89347608,3.58818182 C2.33259259,5.40745455 1.15033951,8.65945455 1.37935571,13.2536364 C1.45641975,14.7992727 2.33476852,19.5541818 3.72083333,24.1078182 C5.54534722,30.1012727 7.5287037,33.4941818 9.61541667,34.1921818 C9.85966435,34.2738182 10.1412654,34.3309091 10.4518789,34.3309091 C11.2130903,34.3309091 12.1463812,33.9869091 13.1173881,32.8163636 C14.301738,31.3917368 15.5268718,30.0017029 16.7912577,28.648 C17.6115818,29.0894545 18.5127778,29.336 19.4344637,29.3607273 C19.436277,29.3849091 19.4386343,29.4090909 19.4408102,29.4330909 C19.2821535,29.6227967 19.1267932,29.81525 18.9747994,30.0103636 C18.3361651,30.8232727 18.2032523,30.9925455 16.1475463,31.4169091 C15.5627662,31.538 14.0096991,31.8589091 13.9868519,32.9505455 C13.9621914,34.1432727 15.8227894,34.6441818 16.0347608,34.6972727 C16.7734877,34.8827273 17.4851968,34.9741818 18.1639043,34.9741818 C19.8145255,34.9741818 21.2671373,34.4301818 22.4279938,33.3776364 C22.3922724,37.6296364 22.5690664,41.8194545 23.078233,43.096 C23.4952855,44.1410909 24.5139815,46.6950909 27.7318133,46.6949091 C28.2039892,46.6949091 28.7236728,46.6398182 29.2953974,46.5169091 C32.6537577,45.7950909 34.1121721,44.3067273 34.6762809,41.0254545 C34.9781906,39.2718182 35.4962423,35.0843636 35.739946,32.8381818 C36.2541898,32.9990909 36.9162153,33.0727273 37.6319136,33.0725455 C39.1245988,33.0725455 40.8470255,32.7545455 41.9271914,32.2518182 C43.1406327,31.6867273 45.3303395,30.3001818 44.933233,29.0954545 Z M36.9356173,13.9172727 C36.9245563,14.5803636 36.8335301,15.1823636 36.737064,15.8107273 C36.6331636,16.4865455 36.5258179,17.1852727 36.4988002,18.0334545 C36.4721451,18.8589091 36.5749576,19.7170909 36.6743248,20.5470909 C36.8752353,22.2234545 37.0814043,23.9492727 36.2833835,25.6521818 C36.1508223,25.4166615 36.0327395,25.1732381 35.9297955,24.9232727 C35.8306096,24.6821818 35.6151929,24.2949091 35.3169097,23.7589091 C34.1565972,21.6723636 31.4394097,16.7861818 32.8303704,14.7923636 C33.2447029,14.1989091 34.2962191,13.5887273 36.9356173,13.9172727 Z M33.7362809,2.68327273 C37.6047145,2.76890909 40.6647917,4.22 42.8312886,6.996 C44.4929707,9.12527273 42.6631983,18.8138182 37.366088,27.1721818 C37.3128172,27.1042617 37.2592647,27.0365642 37.2054321,26.9690909 L37.138341,26.8850909 C38.5071798,24.6183636 38.2395409,22.3756364 38.001277,20.3872727 C37.9033603,19.5712727 37.8108835,18.8005455 37.834456,18.0765455 C37.8587539,17.3092727 37.9599344,16.6510909 38.0578511,16.0147273 C38.178071,15.2305455 38.3004668,14.4190909 38.26674,13.4625455 C38.2919444,13.3621818 38.3020988,13.2436364 38.2888619,13.1029091 C38.2027315,12.1856364 37.158287,9.44036364 35.0295062,6.95563636 C33.8650231,5.59654545 32.1668943,4.07563636 29.8482639,3.04981818 C30.8455633,2.84254545 32.2093248,2.64927273 33.7362809,2.68327273 Z M12.0898071,31.9596364 C11.0199769,33.2494545 10.28125,33.0021818 10.0382716,32.9210909 C8.45528549,32.3916364 6.61844136,29.0367273 4.99900849,23.7167273 C3.59771219,19.1134545 2.77883873,14.4845455 2.71392361,13.1865455 C2.50938657,9.08145455 3.50179012,6.22054545 5.66375386,4.68309091 C9.18222608,2.18127273 14.9669252,3.67872727 17.291358,4.43818182 C17.2579938,4.47127273 17.223179,4.50218182 17.1901775,4.53581818 C13.3757793,8.39836364 13.4662616,14.9976364 13.4756906,15.4010909 C13.4753279,15.5567273 13.4883835,15.7770909 13.5061535,16.0801818 C13.571794,17.1901818 13.6940085,19.256 13.3676196,21.5954545 C13.0644406,23.7694545 13.7328125,25.8972727 15.2010185,27.4334545 C15.3516981,27.5908071 15.5100705,27.740567 15.6755517,27.8821818 C15.0220486,28.584 13.601713,30.136 12.0898071,31.9596364 Z M16.1658603,26.5063636 C14.9825193,25.2681818 14.4450656,23.546 14.6911265,21.7809091 C15.0356481,19.3096364 14.9085378,17.1572727 14.8401775,16.0009091 C14.8305671,15.8390909 14.8220448,15.6972727 14.8171489,15.5854545 C15.3743673,15.09 17.9566474,13.7027273 19.798206,14.1258182 C20.6384761,14.3187273 21.150544,14.8925455 21.3634221,15.8794545 C22.4651659,20.9890909 21.5092091,23.1187273 20.7411073,24.8301818 C20.5828086,25.1827273 20.4332137,25.516 20.3055594,25.8607273 L20.2065548,26.1272727 C19.9559606,26.8010909 19.7227739,27.4276364 19.5782562,28.0225455 C18.3202083,28.0189091 17.0964313,27.48 16.1658603,26.5061818 L16.1658603,26.5063636 Z M16.3589738,33.3972727 C15.9916049,33.3052727 15.6612269,33.1454545 15.4673881,33.0129091 C15.6293133,32.9365455 15.9174421,32.8325455 16.4171798,32.7292727 C18.8355401,32.2301818 19.2090741,31.8778182 20.0246836,30.8394545 C20.2116319,30.6012727 20.4236034,30.3314545 20.7171721,30.0027273 L20.7175347,30.0023636 C21.1547145,29.5114545 21.3547184,29.5947273 21.7173727,29.7456364 C22.011304,29.8674545 22.2976196,30.2369091 22.413669,30.6434545 C22.4686111,30.8354545 22.5302623,31.1998182 22.3284452,31.4834545 C20.6246952,33.8754545 18.1419637,33.8447273 16.3589738,33.3972727 Z M29.0154282,45.2067273 C26.0568943,45.8423636 25.0093673,44.3287273 24.3190548,42.5983636 C23.873534,41.4812727 23.6544907,36.4438182 23.8098881,30.8807273 C23.8118827,30.8067273 23.8013657,30.7352727 23.7810571,30.668 C23.7628906,30.5351583 23.7352582,30.4037918 23.6983719,30.2749091 C23.4673611,29.4654545 22.9043403,28.7883636 22.2288966,28.5076364 C21.9605324,28.3961818 21.4680478,28.1916364 20.876196,28.3434545 C21.0023997,27.822 21.2212616,27.2330909 21.4586188,26.5954545 L21.5581674,26.3272727 C21.6702276,26.0249091 21.8109375,25.7116364 21.9596258,25.38 C22.7634491,23.5894545 23.8642863,21.1369091 22.6695216,15.5963636 C22.2220062,13.5210909 20.7275077,12.5076364 18.4620062,12.7430909 C17.1038657,12.884 15.8612307,13.4334545 15.2414545,13.7485455 C15.108179,13.8161818 14.9863272,13.8816364 14.8724537,13.9452727 C15.0454398,11.8543636 15.6989429,7.94672727 18.1435957,5.47436364 C19.6828819,3.918 21.7327855,3.14927273 24.2303858,3.19072727 C29.1516049,3.27145455 32.3074228,5.80381818 34.0884182,7.91418182 C35.6231713,9.73254545 36.4541937,11.5643636 36.785841,12.5523636 C34.291686,12.298 32.5953704,12.7916364 31.735517,14.0243636 C29.8647647,16.7058182 32.7589275,21.9101818 34.1498881,24.4114545 C34.4050154,24.8698182 34.6251466,25.266 34.6944136,25.4343636 C35.1473688,26.5350909 35.7337809,27.27 36.1618943,27.8063636 C36.2931752,27.9707273 36.4204668,28.1301818 36.5172955,28.2694545 C35.7618866,28.4878182 34.4050154,28.9923636 34.5286806,31.5143636 C34.4289506,32.7798182 33.7197801,38.7045455 33.359483,40.7978182 C32.8838619,43.5632727 31.8689738,44.5932727 29.0154282,45.2069091 L29.0154282,45.2067273 Z M41.3645332,31.0365455 C40.5920795,31.396 39.2993981,31.6656364 38.0714506,31.7236364 C36.7151235,31.7872727 36.0246296,31.5712727 35.8621605,31.4383636 C35.7860031,29.8667273 36.3693326,29.7025455 36.9867515,29.5287273 C37.0837616,29.5014545 37.1784144,29.4747273 37.2698032,29.4427273 C37.3265586,29.4890909 37.3887539,29.5350909 37.4569329,29.5801818 C38.5470718,30.3016364 40.4914429,30.3794545 43.2365548,29.8112727 L43.2666551,29.8052727 C42.896385,30.1523636 42.2628279,30.6181818 41.3645332,31.0365455 Z" id="Shape" fill="#FFFFFF"></path>
            </g>
        </g>
    </g>
</svg>