<?xml version="1.0" encoding="UTF-8"?>
<svg width="54px" height="48px" viewBox="0 0 54 48" version="1.1" xmlns="http://www.w3.org/2000/svg" xmlns:xlink="http://www.w3.org/1999/xlink">
    <!-- Generator: Sketch 51.2 (57519) - http://www.bohemiancoding.com/sketch -->
    <title>react-logo</title>
    <desc>Created with Sketch.</desc>
    <defs></defs>
    <g id="Page-1" stroke="none" stroke-width="1" fill="none" fill-rule="evenodd">
        <g id="Artboard" transform="translate(-626.000000, -5309.000000)" fill="#61DAFB" fill-rule="nonzero">
            <g id="react-logo" transform="translate(626.000000, 5309.000000)">
                <path d="M53.4857143,24.0054932 C53.4857143,20.4348821 49.0485586,17.0510414 42.2456467,14.9526207 C43.8155495,7.96520943 43.1178149,2.40604257 40.043422,0.626230259 C39.3347854,0.20874342 38.5062256,0.0109864958 37.6013511,0.0109864958 L37.6013511,2.46097505 C38.1028478,2.46097505 38.5062256,2.55985351 38.8441908,2.74662394 C40.3268767,3.60357061 40.9701008,6.86655985 40.468604,11.0634012 C40.3486809,12.0961318 40.1524431,13.1837949 39.9125968,14.293431 C37.7757848,13.7660792 35.4427348,13.3595789 32.9897618,13.095903 C31.517978,11.0634012 29.9916837,9.21766995 28.4544872,7.60265507 C32.0085726,4.27374685 35.3446159,2.44998856 37.6122532,2.44998856 L37.6122532,0 C37.6122532,0 37.6122532,0 37.6122532,0 C34.6141751,0 30.6894182,2.15335317 26.7210529,5.88876173 C22.7526877,2.17532616 18.8279308,0.0439459831 15.8298527,0.0439459831 L15.8298527,2.49393454 C18.0865879,2.49393454 21.4335333,4.30670634 24.9876187,7.61364157 C23.4613243,9.22865644 21.93503,11.0634012 20.4850504,13.095903 C18.0211752,13.3595789 15.6881253,13.7660792 13.5513133,14.3044175 C13.3005649,13.2057679 13.1152292,12.1400778 12.9844039,11.1183337 C12.4720051,6.92149233 13.1043271,3.65850309 14.5761109,2.79056992 C14.903174,2.592813 15.3283559,2.50492103 15.8298527,2.50492103 L15.8298527,0.0549324788 C15.8298527,0.0549324788 15.8298527,0.0549324788 15.8298527,0.0549324788 C14.9140761,0.0549324788 14.0855163,0.252689403 13.3659775,0.670176242 C10.3024868,2.44998856 9.6156543,7.99816892 11.1964591,14.9636072 C4.41535146,17.0730144 0,20.4458686 0,24.0054932 C0,27.5761044 4.43715567,30.9599451 11.2400676,33.0583658 C9.67016481,40.0457771 10.3678994,45.6049439 13.4422922,47.3847562 C14.1509289,47.8022431 14.9794887,48 15.8952653,48 C18.8933434,48 22.8181003,45.8466468 26.7864656,42.1112383 C30.7548308,45.8246738 34.6795877,47.956054 37.6776658,47.956054 C38.5934424,47.956054 39.4220022,47.7582971 40.141541,47.3408103 C43.2050317,45.5609979 43.8918642,40.0128176 42.3110593,33.0473793 C49.0703628,30.9489586 53.4857143,27.5651179 53.4857143,24.0054932 Z M39.291177,16.6775006 C38.8877992,18.0947585 38.3863025,19.5559625 37.8193932,21.0171664 C37.372407,20.1382467 36.9036166,19.2593271 36.3912178,18.3804074 C35.889721,17.5014878 35.355518,16.6445411 34.821315,15.8095674 C36.3694135,16.0402838 37.8630016,16.3259327 39.291177,16.6775006 Z M34.2980141,28.3781186 C33.4476501,29.8612955 32.5754819,31.2675669 31.6706074,32.5749599 C30.0461942,32.7177844 28.3999767,32.7946899 26.7428571,32.7946899 C25.0966397,32.7946899 23.4504222,32.7177844 21.8369111,32.5859464 C20.9320366,31.2785534 20.0489663,29.8832685 19.1986023,28.411078 C18.3700425,26.9718471 17.6177974,25.5106432 16.930965,24.0384527 C17.6068953,22.5662623 18.3700425,21.0940719 19.1877002,19.6548409 C20.0380642,18.171664 20.9102324,16.7653925 21.8151069,15.4579995 C23.4395201,15.3151751 25.0857376,15.2382696 26.7428571,15.2382696 C28.3890746,15.2382696 30.0352921,15.3151751 31.6488032,15.447013 C32.5536777,16.754406 33.436748,18.149691 34.287112,19.6218814 C35.1156718,21.0611124 35.8679168,22.5223163 36.5547493,23.9945068 C35.8679168,25.4666972 35.1156718,26.9388876 34.2980141,28.3781186 Z M37.8193932,26.9498741 C38.4081067,28.4220645 38.9096034,29.894255 39.3238833,31.3224994 C37.8957079,31.6740673 36.3912178,31.9707027 34.8322171,32.2014191 C35.3664201,31.3554589 35.9006231,30.4875257 36.4021199,29.5976196 C36.9036166,28.7186999 37.372407,27.8287938 37.8193932,26.9498741 Z M26.7646613,38.6724651 C25.7507658,37.6177615 24.7368703,36.4422065 23.7338769,35.1567864 C24.7150661,35.2007324 25.7180595,35.2336919 26.731955,35.2336919 C27.7567527,35.2336919 28.7706482,35.2117189 29.7627395,35.1567864 C28.7815503,36.4422065 27.7676548,37.6177615 26.7646613,38.6724651 Z M18.6534972,32.2014191 C17.1053986,31.9707027 15.6118106,31.6850538 14.1836352,31.3334859 C14.587013,29.916228 15.0885097,28.455024 15.655419,26.9938201 C16.1024052,27.8727398 16.5711956,28.7516594 17.0835944,29.6305791 C17.5959932,30.5094987 18.1192942,31.3664454 18.6534972,32.2014191 Z M26.7101508,9.3385214 C27.7240464,10.393225 28.7379419,11.56878 29.7409353,12.8542 C28.7597461,12.8102541 27.7567527,12.7772946 26.7428571,12.7772946 C25.7180595,12.7772946 24.704164,12.7992676 23.7120727,12.8542 C24.6932619,11.56878 25.7071574,10.393225 26.7101508,9.3385214 Z M18.6425951,15.8095674 C18.1083921,16.6555276 17.574189,17.5234607 17.0726923,18.4133669 C16.5711956,19.2922866 16.1024052,20.1712062 15.655419,21.0501259 C15.0667055,19.5779355 14.5652088,18.105745 14.1509289,16.6775006 C15.5791043,16.3369192 17.0835944,16.0402838 18.6425951,15.8095674 Z M8.77619242,29.5646601 C4.91684817,27.9056992 2.42026673,25.7303731 2.42026673,24.0054932 C2.42026673,22.2806134 4.91684817,20.0943008 8.77619242,18.4463264 C9.71377322,18.039826 10.7385708,17.6772717 11.7960748,17.3366903 C12.4174946,19.4900435 13.2351523,21.7312886 14.2490478,24.0274662 C13.2460544,26.3126574 12.4392988,28.542916 11.8287811,30.6852827 C10.7494729,30.3447013 9.72467532,29.9711604 8.77619242,29.5646601 Z M14.6415235,45.2643626 C13.1588376,44.4074159 12.5156135,41.1444266 13.0171102,36.9475853 C13.1370334,35.9148547 13.3332712,34.8271916 13.5731175,33.7175555 C15.7099295,34.2449073 18.0429794,34.6514076 20.4959525,34.9150835 C21.9677363,36.9475853 23.4940306,38.7933165 25.0312271,40.4083314 C21.4771417,43.7372396 18.1410984,45.5609979 15.8734611,45.5609979 C15.3828665,45.5500114 14.9685866,45.451133 14.6415235,45.2643626 Z M40.5013103,36.8926528 C41.0137092,41.0894942 40.3813872,44.3524834 38.9096034,45.2204166 C38.5825403,45.4181735 38.1573583,45.5060655 37.6558616,45.5060655 C35.3991264,45.5060655 32.052181,43.6932937 28.4980956,40.3863584 C30.02439,38.7713436 31.5506843,36.9365988 33.0006639,34.904097 C35.464539,34.6404211 37.797589,34.2339208 39.934401,33.6955825 C40.1851494,34.8052186 40.3813872,35.8709087 40.5013103,36.8926528 Z M44.6986198,29.5646601 C43.761039,29.9711604 42.7362413,30.3337148 41.6787374,30.6742962 C41.0573176,28.520943 40.2396599,26.2796979 39.2257644,23.9835203 C40.2287578,21.6983291 41.0355134,19.4680705 41.6460311,17.3257038 C42.7253392,17.6662852 43.7501369,18.039826 44.7095219,18.4463264 C48.5688661,20.1052873 51.0654476,22.2806134 51.0654476,24.0054932 C51.0545455,25.7303731 48.557964,27.9166857 44.6986198,29.5646601 Z" id="Shape"></path>
                <circle id="Oval" cx="27.0857143" cy="24.3428571" r="5.14285714"></circle>
            </g>
        </g>
    </g>
</svg>