<?xml version="1.0" encoding="UTF-8"?>
<svg width="173px" height="21px" viewBox="0 0 173 21" version="1.1" xmlns="http://www.w3.org/2000/svg" xmlns:xlink="http://www.w3.org/1999/xlink">
    <!-- Generator: Sketch 51.2 (57519) - http://www.bohemiancoding.com/sketch -->
    <title>victory</title>
    <desc>Created with Sketch.</desc>
    <defs></defs>
    <g id="Page-1" stroke="none" stroke-width="1" fill="none" fill-rule="evenodd">
        <g id="Artboard" transform="translate(-507.000000, -5563.000000)" fill="#000000" fill-rule="nonzero">
            <g id="victory" transform="translate(507.000000, 5563.000000)">
                <polygon id="Shape" points="0 1 8.69839142 1 8.69839142 1.38514443 5.57372654 1.38514443 11.8230563 17.3411279 17.9879357 1.38514443 14.919571 1.38514443 14.919571 1 21 1 21 1.38514443 18.4664879 1.38514443 10.8941019 21 10.1903485 21 2.53351206 1.38514443 0 1.38514443"></polygon>
                <polygon id="Shape" points="27 20.6113322 30.1040911 20.6113322 30.1040911 1.3933505 27 1.3933505 27 1 36 1 36 1.3933505 32.9005697 1.3933505 32.9005697 20.6113322 36 20.6113322 36 21 27 21"></polygon>
                <path d="M62,20.5721115 L61.5711132,20.5721115 C61.4346536,20.4193565 61.281195,20.2822272 61.113634,20.1633116 C60.869956,20.0241409 60.5889214,19.9618323 60.30828,19.9847553 C59.9923577,19.9898047 59.6790409,20.042087 59.3790253,20.1398174 L58.2353272,20.4922311 C57.7607025,20.6348779 57.2787146,20.7525155 56.7914084,20.8446448 C56.2069381,20.9524828 55.6132717,21.0044112 55.0186764,20.9997069 C53.8204277,21.0000728 52.6326107,20.780169 51.5161011,20.3512656 C50.308299,19.871164 49.2134379,19.1514512 48.2994503,18.2367832 C47.3404589,17.2815215 46.5482483,16.176486 45.9548693,14.9663839 C45.2989333,13.6019459 44.9727004,12.1061508 45.0017876,10.5964536 C45.0011377,7.85132607 46.0472586,5.20630044 47.9325139,3.18636767 C48.8453628,2.21072067 49.9429553,1.42057334 51.1634609,0.860437074 C52.4323944,0.281496307 53.8159309,-0.0122106122 55.2140582,0.000547579646 C55.7432759,-0.00626654397 56.2713635,0.0505383791 56.786643,0.169706169 C57.2044124,0.270125628 57.6151065,0.397263569 58.0161184,0.550312994 C58.3782895,0.691278485 58.7118681,0.818147426 59.0168542,0.930919819 C59.2995499,1.03953818 59.5998382,1.09684671 59.9032202,1.10007841 C60.1875871,1.12433419 60.4725248,1.06025606 60.7181051,0.91682327 C60.8792902,0.795471931 61.0277573,0.658523223 61.1612881,0.508023347 L61.5901749,0.508023347 L61.5901749,6.14664298 L61.2851887,6.14664298 C61.1123454,5.4285985 60.89268,4.72230289 60.6275623,4.03216062 C60.3716466,3.35543296 59.9938817,2.72984308 59.5124567,2.18551269 C59.0059995,1.62736793 58.3834781,1.18342542 57.6873052,0.883931322 C56.8228988,0.530384497 55.8921049,0.36220246 54.9567261,0.390552104 C54.0659426,0.369875788 53.1803435,0.52980799 52.354813,0.860437074 C51.6709035,1.14675016 51.0531815,1.56720106 50.5391924,2.09623454 C50.0364411,2.61951613 49.6329369,3.22745897 49.3478402,3.89119513 C49.0482598,4.58993303 48.8230779,5.31745768 48.6759176,6.06206369 C48.5229333,6.82509308 48.4226293,7.59747819 48.3756969,8.37389773 C48.3280428,9.15703935 48.3042158,9.89475875 48.3042158,10.5870559 C48.2668254,12.2350456 48.4267783,13.8816292 48.7807566,15.492655 C49.0984505,16.7895375 49.5511643,17.8138868 50.1388981,18.5657027 C50.6705931,19.2805545 51.4003449,19.8287902 52.2404432,20.1445162 C53.11119,20.4539793 54.0312147,20.6067666 54.9567261,20.5956058 C56.2275017,20.5956058 57.2600069,20.4170495 58.0542417,20.0599369 C58.7826343,19.7421605 59.428007,19.2648915 59.9413435,18.6643786 C60.417654,18.0888594 60.7841668,17.4329377 61.0230912,16.7284525 C61.2708925,16.0048296 61.4901013,15.2859056 61.6807176,14.5716805 L61.9952346,14.5716805 L61.9952346,20.5721115 L62,20.5721115 Z" id="Shape"></path>
                <path d="M73.9961644,20.6116051 L77.0980822,20.6116051 L77.0980822,1.40711277 L75.4679452,1.40711277 C75.0470198,1.41084815 74.6268492,1.44368191 74.210411,1.50538138 C73.7103648,1.58545687 73.2327,1.77040681 72.8084932,2.04819841 C72.2603689,2.42179142 71.7943293,2.9043584 71.4391781,3.46607394 C70.9226045,4.29380215 70.5405578,5.19891811 70.3073973,6.1474029 L70,6.1474029 L70,1 L87,1 L87,6.1474029 L86.6926027,6.1474029 C86.4586007,5.20066745 86.0765928,4.29722289 85.5608219,3.47075339 C85.2033032,2.90654719 84.734023,2.42231505 84.1821918,2.04819841 C83.7537768,1.76863439 83.2711786,1.58361828 82.7663014,1.50538138 C82.3498599,1.44371129 81.9296913,1.41087769 81.5087671,1.40711277 L79.8786301,1.40711277 L79.8786301,20.6116051 L82.9991781,20.6116051 L82.9991781,21 L73.9961644,21 L73.9961644,20.6116051 Z" id="Shape"></path>
                <path d="M96.0006798,10.5139227 C95.9835771,9.07572975 96.2893944,7.65146651 96.8964351,6.34217858 C97.4688035,5.10885231 98.2566721,3.98319116 99.224441,3.01605826 C100.147176,2.09421794 101.23301,1.34447049 102.429042,0.803342621 C103.544633,0.283555385 104.762645,0.00936735525 105.997693,0 C107.273533,0.00246825281 108.533618,0.276561532 109.690887,0.803342621 C110.889614,1.33987472 111.976256,2.09018062 112.895488,3.01605826 C113.85002,3.9790034 114.614912,5.10664009 115.151642,6.34217858 C115.725073,7.66038523 116.01376,9.08082949 115.999496,10.5139227 C115.99766,11.838232 115.734133,13.1496399 115.223494,14.3756048 C114.722824,15.6084763 114.002681,16.7442464 113.096674,17.7299126 C112.199351,18.7073248 111.123917,19.5119134 109.925604,20.1023572 C108.707353,20.7026411 107.361015,21.0102013 105.997693,20.999658 C104.615453,21.0115608 103.248816,20.7126394 102.00272,20.1258467 C100.799836,19.5608493 99.7210269,18.7709113 98.8268598,17.8003812 C97.9267446,16.818289 97.2202199,15.6809415 96.7431508,14.4460734 C96.2492167,13.1918412 95.9974451,11.8584506 96.0006798,10.5139227 Z M99.3058733,10.5139227 C99.2892041,11.9945438 99.404607,13.4737578 99.6507631,14.9346561 C99.8268435,16.0488501 100.216958,17.1201412 100.800396,18.0916517 C101.296528,18.8962186 102.013688,19.5474709 102.869734,19.9708157 C104.868199,20.7974945 107.122396,20.7974945 109.120861,19.9708157 C109.982795,19.5504941 110.705369,18.8988507 111.20457,18.0916517 C111.787638,17.1199719 112.177728,16.0487518 112.354203,14.9346561 C112.601951,13.4738945 112.718957,11.9946807 112.703883,10.5139227 C112.706256,9.25679159 112.619827,8.00100934 112.445215,6.75559467 C112.299147,5.62885737 111.964109,4.53356372 111.453657,3.51403673 C110.990629,2.59360529 110.286366,1.81048394 109.41306,1.24494617 C108.538061,0.678065019 107.399606,0.394624445 105.997693,0.394624445 C104.59578,0.394624445 103.462114,0.676499049 102.596697,1.24024826 C101.723313,1.80570013 101.019031,2.588844 100.556099,3.50933882 C100.045647,4.52886581 99.7106088,5.62415946 99.5645407,6.75089676 C99.3897084,7.99786446 99.3032786,9.25522394 99.3058733,10.5139227 Z" id="Shape"></path>
                <path d="M124,20.4340618 L127.21351,20.4340618 L127.21351,1.47200174 L124,1.47200174 L124,1.0838894 L129.500603,1.0838894 C129.732207,1.0838894 129.963812,1.07926902 130.195416,1.07002825 C130.427021,1.06078748 130.658625,1.04692632 130.890229,1.02844478 C131.121834,1.02844478 131.353438,1.0238244 131.585042,1.01458363 C131.816647,1.00534286 132.048251,1.00072247 132.279855,1.00072247 C133.286659,0.99261003 134.292798,1.05282584 135.290712,1.18091749 C136.182446,1.31273302 137.020738,1.67180565 137.717732,2.22050411 C138.345209,2.65446363 138.844043,3.2372227 139.165259,3.91156502 C139.428774,4.46979272 139.571568,5.07331878 139.585042,5.68579286 C139.573068,6.04608305 139.51967,6.40401273 139.425814,6.7531018 C139.293581,7.23817788 139.056915,7.69142825 138.731001,8.08377268 C138.305178,8.59287542 137.778895,9.01676279 137.182147,9.33127663 C136.347695,9.7569953 135.431789,10.0163376 134.489747,10.0936402 L134.489747,10.1490848 C134.798552,10.1860479 135.218335,10.2553536 135.749095,10.3570021 C136.308256,10.4678565 136.852243,10.639942 137.370326,10.8698648 C137.924678,11.1130224 138.437175,11.4355181 138.890229,11.8262845 C139.363598,12.2397567 139.704893,12.7732346 139.874548,13.3648727 C139.996899,13.7769738 140.077688,14.1993632 140.115802,14.6262378 C140.164053,15.0975171 140.202654,15.5826575 140.231604,16.0816591 C140.260555,16.5806607 140.289505,17.0611807 140.318456,17.5232192 C140.337996,17.9118127 140.391256,18.2981767 140.477684,18.6783155 C140.584867,19.1386707 140.770722,19.578912 141.027744,19.9812641 C141.288148,20.3722215 141.750928,20.5955672 142.234017,20.5634326 C142.500967,20.5607132 142.765417,20.5138187 143.015682,20.424821 C143.288679,20.3309285 143.536065,20.1793189 143.739445,19.9812641 L144,20.2862095 C143.903498,20.3601356 143.792521,20.437142 143.667069,20.5172287 C143.515707,20.6111822 143.353869,20.6886681 143.18456,20.748248 C142.955195,20.8314023 142.717519,20.891784 142.475271,20.928443 C142.13528,20.9787125 141.79152,21.0018938 141.447527,20.9977488 C140.792078,21.0160927 140.138474,20.9222115 139.517491,20.7205257 C139.038588,20.5577718 138.613803,20.2754301 138.287093,19.9027175 C137.96233,19.5115887 137.730195,19.0575582 137.606755,18.5720466 C137.448673,17.965792 137.346949,17.3473266 137.302774,16.7238926 L137.114596,14.2242643 C137.085516,13.4720979 136.888059,12.7346868 136.535585,12.0619242 C136.280885,11.6005728 135.907152,11.2092942 135.44994,10.9253095 C135.058634,10.6932954 134.618797,10.5465935 134.161641,10.4956136 C133.777177,10.4530049 133.390631,10.4298708 133.003619,10.4263079 L130.108565,10.4263079 L130.108565,20.4340618 L133.322075,20.4340618 L133.322075,20.8175537 L124,20.8175537 L124,20.4340618 Z M130.108565,10.0381955 L132.762364,10.0381955 C133.261822,10.0435587 133.759363,9.97816603 134.238842,9.84413936 C134.676123,9.71873544 135.070765,9.48434267 135.382388,9.16494277 C135.732456,8.78721764 135.985285,8.33624124 136.120627,7.84813304 C136.31167,7.16127312 136.399405,6.4518275 136.381182,5.74123748 C136.411489,4.95401541 136.278656,4.16884157 135.99035,3.43104498 C135.780438,2.91387263 135.430744,2.45942121 134.977081,2.11423526 C134.566602,1.82073867 134.091144,1.62155091 133.587455,1.53206675 C133.086422,1.44071497 132.577584,1.39431016 132.067551,1.3934552 C131.720145,1.3934552 131.367913,1.39807558 131.010856,1.40731635 C130.705689,1.412675 130.401145,1.43581974 130.098914,1.47662213 L130.098914,10.0381955 L130.108565,10.0381955 Z" id="Shape"></path>
                <polygon id="Shape" points="152.79096 20.6113322 155.9242 20.6113322 155.9242 12.5476469 149.568267 1.3933505 147 1.3933505 147 1 155.644068 1 155.644068 1.3933505 152.819209 1.3933505 158.468927 11.283306 163.80791 1.3933505 160.954802 1.3933505 160.954802 1 167 1 167 1.3933505 164.259887 1.3933505 158.749058 11.6485601 158.749058 20.6113322 161.884652 20.6113322 161.884652 21 152.79096 21"></polygon>
                <polygon id="Shape" points="169 1 171 1 171 1.21485411 170.16184 1.21485411 170.16184 3 169.83816 3 169.83816 1.21485411 169 1.21485411 169 1"></polygon>
                <polygon id="Shape" points="171.358247 1 172.012887 2.35364238 172.662371 1 173 1 173 3 172.755155 3 172.755155 1.35496689 172.087629 2.74834437 171.92268 2.74834437 171.244845 1.33377483 171.244845 3 171 3 171 1 171.350515 1"></polygon>
            </g>
        </g>
    </g>
</svg>