<?xml version="1.0" encoding="UTF-8"?>
<svg width="230px" height="68px" viewBox="0 0 230 68" version="1.1" xmlns="http://www.w3.org/2000/svg" xmlns:xlink="http://www.w3.org/1999/xlink">
    <!-- Generator: Sketch 53.2 (72643) - https://sketchapp.com -->
    <title>Artboard</title>
    <desc>Created with Sketch.</desc>
    <g id="Artboard" stroke="none" stroke-width="1" fill="none" fill-rule="evenodd">
        <path d="M111.16,28.42 L111.16,25.72 L116.02,25.72 L116.02,36.58 L113.56,36.58 L113.56,34.36 C113.11,35.89 112.15,36.82 110.29,36.82 C107.35,36.82 106,34.48 106,31.33 L106,21.49 C106,18.31 107.53,16 111.13,16 C114.91,16 116.02,18.1 116.02,21.1 L116.02,22.9 L112.9,22.9 L112.9,20.83 C112.9,19.57 112.42,18.85 111.19,18.85 C109.96,18.85 109.42,19.72 109.42,20.95 L109.42,31.87 C109.42,33.1 109.93,33.97 111.1,33.97 C112.21,33.97 112.78,33.34 112.78,32.02 L112.78,28.42 L111.16,28.42 Z M122.18,33.97 C123.41,33.97 123.95,33.1 123.95,31.87 L123.95,20.95 C123.95,19.72 123.41,18.85 122.18,18.85 C120.98,18.85 120.44,19.72 120.44,20.95 L120.44,31.87 C120.44,33.1 120.98,33.97 122.18,33.97 Z M122.18,36.82 C118.58,36.82 117.02,34.48 117.02,31.33 L117.02,21.49 C117.02,18.31 118.58,16 122.18,16 C125.81,16 127.37,18.31 127.37,21.49 L127.37,31.33 C127.37,34.48 125.81,36.82 122.18,36.82 Z M130.62,36.58 L127.38,36.58 L131.22,16.24 L135.12,16.24 L138.99,36.58 L135.48,36.58 L134.85,32.86 L131.22,32.86 L130.62,36.58 Z M133.02,21.97 L131.67,30.13 L134.4,30.13 L133.05,21.97 L133.02,21.97 Z M139.45,36.58 L139.45,16.24 L142.87,16.24 L142.87,33.79 L146.95,33.79 L146.95,36.58 L139.45,36.58 Z M149.37,19.03 L149.37,16.24 L158.46,16.24 L158.46,19.03 L155.64,19.03 L155.64,36.58 L152.19,36.58 L152.19,19.03 L149.37,19.03 Z M165.73,36.58 L162.52,27.25 L162.52,36.58 L159.1,36.58 L159.1,16.24 L164.08,16.24 C167.53,16.24 168.79,17.95 168.79,20.8 L168.79,23.41 C168.79,25.6 168.01,26.89 166.06,27.34 L169.33,36.58 L165.73,36.58 Z M163.66,19.03 L162.52,19.03 L162.52,25.36 L163.66,25.36 C164.83,25.36 165.34,24.76 165.34,23.68 L165.34,20.68 C165.34,19.57 164.83,19.03 163.66,19.03 Z M172.4,36.58 L169.16,36.58 L173,16.24 L176.9,16.24 L180.77,36.58 L177.26,36.58 L176.63,32.86 L173,32.86 L172.4,36.58 Z M174.8,21.97 L173.45,30.13 L176.18,30.13 L174.83,21.97 L174.8,21.97 Z M185.88,36.82 C182.28,36.82 180.78,34.48 180.78,31.33 L180.78,21.49 C180.78,18.31 182.28,16 185.88,16 C189.66,16 190.71,18.1 190.71,21.1 L190.71,23.5 L187.59,23.5 L187.59,20.83 C187.59,19.57 187.17,18.85 185.94,18.85 C184.71,18.85 184.2,19.72 184.2,20.95 L184.2,31.87 C184.2,33.1 184.71,33.97 185.94,33.97 C187.17,33.97 187.59,33.19 187.59,31.99 L187.59,28.24 L190.71,28.24 L190.71,31.75 C190.71,34.66 189.51,36.82 185.88,36.82 Z M198.61,36.58 L195.04,26.68 L195.04,36.58 L191.62,36.58 L191.62,16.24 L195.04,16.24 L195.04,25.18 L198.76,16.24 L202.12,16.24 L198.16,25.39 L202.21,36.58 L198.61,36.58 Z M202.55,36.58 L202.55,16.24 L210.71,16.24 L210.71,19.03 L205.97,19.03 L205.97,24.85 L209.36,24.85 L209.36,27.61 L205.97,27.61 L205.97,33.79 L210.71,33.79 L210.71,36.58 L202.55,36.58 Z M218.22,36.58 L215.01,27.25 L215.01,36.58 L211.59,36.58 L211.59,16.24 L216.57,16.24 C220.02,16.24 221.28,17.95 221.28,20.8 L221.28,23.41 C221.28,25.6 220.5,26.89 218.55,27.34 L221.82,36.58 L218.22,36.58 Z M216.15,19.03 L215.01,19.03 L215.01,25.36 L216.15,25.36 C217.32,25.36 217.83,24.76 217.83,23.68 L217.83,20.68 C217.83,19.57 217.32,19.03 216.15,19.03 Z" id="GOALTRACKER" fill="#000000" fill-rule="nonzero"></path>
        <g id="Group" transform="translate(7.000000, 4.000000)" fill-rule="nonzero">
            <rect id="Rectangle" fill-opacity="0" fill="#D8D8D8" x="0" y="0" width="96" height="60"></rect>
            <circle id="Oval" fill="#E5243B" cx="45" cy="29.9" r="7.4"></circle>
            <circle id="Oval-Copy" fill="#56C02B" cx="23.95" cy="7.55" r="4.35"></circle>
            <circle id="Oval-Copy-7" fill="#DD1367" cx="26.65" cy="39.15" r="3.95"></circle>
            <circle id="Oval-Copy-8" fill="#FCC30B" cx="76.35" cy="24.65" r="2.55"></circle>
            <circle id="Oval-Copy-9" fill="#FD6925" cx="66.55" cy="31.15" r="3.75"></circle>
            <circle id="Oval-Copy-8" fill="#A21942" cx="59.3" cy="36.5" r="1.9"></circle>
            <circle id="Oval-Copy-5" fill="#DDA63A" cx="66.75" cy="44.65" r="5.05"></circle>
            <circle id="Oval-Copy-3" fill="#C5192D" cx="87.35" cy="30.15" r="3.75"></circle>
            <circle id="Oval-Copy-2" fill="#4C9F38" cx="44.95" cy="43.35" r="2.55"></circle>
            <circle id="Oval-Copy-13" fill="#0A97D9" cx="54.25" cy="20.55" r="2.55"></circle>
            <circle id="Oval-Copy-14" fill="#00689D" cx="43.75" cy="11.35" r="5.05"></circle>
            <circle id="Oval-Copy-12" fill="#3F7E44" cx="30.2" cy="27.9" r="3.1"></circle>
            <circle id="Oval-Copy-11" fill="#BF8B2E" cx="36.15" cy="49.35" r="2.55"></circle>
            <circle id="Oval-Copy-10" fill="#FD9D24" cx="19.2" cy="28.9" r="1.9"></circle>
            <circle id="Oval-Copy-15" fill="#19486A" cx="34.05" cy="40.85" r="1.85"></circle>
            <circle id="Oval-Copy-6" fill="#26BDE2" cx="9.15" cy="40.65" r="5.05"></circle>
            <circle id="Oval-Copy-4" fill="#FF3A21" cx="60.15" cy="8.85" r="2.15"></circle>
        </g>
        <path d="M148.138,45.771 C148.138,46.847672 147.639338,47.7514963 146.642,48.4825 C145.644662,49.2135037 144.415007,49.579 142.953,49.579 C142.567665,49.579 142.035003,49.5336671 141.355,49.443 L139.723,53.676 C139.666333,53.8233341 139.581334,54.0556651 139.468,54.373 L139.366,54.628 C139.354667,54.6393334 139.343333,54.6563332 139.332,54.679 C139.332,54.7583337 139.405666,54.798 139.553,54.798 L140.862,54.781 C140.975334,54.8036668 141.032,54.8489997 141.032,54.917 C141.032,55.0303339 140.941334,55.0813334 140.76,55.07 L140.318,55.053 L136.986,55.019 C136.702665,55.019 136.498667,55.0274999 136.374,55.0445 C136.249333,55.0615001 136.209666,55.07 136.255,55.07 C136.084999,55.07 136,55.0190005 136,54.917 C136,54.8036661 136.073666,54.747 136.221,54.747 C136.289,54.747 136.351333,54.7526666 136.408,54.764 L137.292,54.781 C137.484668,54.781 137.631999,54.6875009 137.734,54.5005 C137.836001,54.3134991 137.988999,53.9536693 138.193,53.421 L141.695,44.428 C141.740334,44.3033327 141.853666,44.008669 142.035,43.544 C141.967,43.5326666 141.893334,43.527 141.814,43.527 C141.666666,43.527 141.485334,43.5383332 141.27,43.561 C141.054666,43.5836668 140.918667,43.595 140.862,43.595 C140.589999,43.595 140.454,43.5383339 140.454,43.425 C140.454,43.3116661 140.567332,43.255 140.794,43.255 L140.93,43.255 C141.020667,43.2663334 141.116999,43.272 141.219,43.272 L141.423,43.272 C141.615668,43.272 141.819666,43.2663334 142.035,43.255 L142.358,43.238 C143.956008,43.238 145.12333,43.3059993 145.86,43.442 C147.378674,43.7253348 148.138,44.5016603 148.138,45.771 Z M146.438,45.533 C146.438,44.8416632 146.259502,44.3430015 145.9025,44.037 C145.545498,43.7309985 144.964671,43.578 144.16,43.578 C144.046666,43.578 143.888001,43.5949998 143.684,43.629 L141.508,49.103 C142.086003,49.2163339 142.522332,49.273 142.817,49.273 C143.769005,49.273 144.610496,48.8933371 145.3415,48.134 C146.072504,47.3746629 146.438,46.5076715 146.438,45.533 Z M152.694,43.136 C152.694,43.1586668 152.665667,43.2379993 152.609,43.374 C152.575,43.4646671 152.518334,43.6006658 152.439,43.782 L148.631,53.081 C148.347665,53.7723368 148.206,54.219999 148.206,54.424 C148.206,54.7300015 148.409998,54.883 148.818,54.883 C149.226002,54.883 149.633998,54.6450024 150.042,54.169 C150.212001,53.964999 150.319666,53.863 150.365,53.863 C150.444334,53.863 150.484,53.9026663 150.484,53.982 C150.484,54.1293341 150.297002,54.3673317 149.923,54.696 C149.492331,55.0813353 148.937003,55.274 148.257,55.274 C147.327662,55.274 146.863,54.9283368 146.863,54.237 C146.863,54.0103322 147.004665,53.5513368 147.288,52.86 L151.096,43.578 C151.13,43.5099997 151.147,43.4703334 151.147,43.459 C151.147,43.3569995 151.039334,43.306 150.824,43.306 C150.325331,43.306 150.076,43.2606671 150.076,43.17 C150.076,43.1019997 150.126999,43.068 150.229,43.068 C150.331001,43.068 150.486832,43.0736666 150.6965,43.085 C150.906168,43.0963334 151.061999,43.102 151.164,43.102 C151.651336,43.102 152.013999,43.0793336 152.252,43.034 C152.376667,43.0113332 152.461666,43 152.507,43 C152.631667,43 152.694,43.0453329 152.694,43.136 Z M159.205,47.794 C159.205,47.8280002 159.159667,47.946999 159.069,48.151 L156.825,53.251 C156.609666,53.7383358 156.502,54.112332 156.502,54.373 C156.502,54.6676681 156.649332,54.815 156.944,54.815 C157.386002,54.815 157.827998,54.5146697 158.27,53.914 C158.360667,53.7893327 158.428666,53.727 158.474,53.727 C158.519334,53.727 158.542,53.7496664 158.542,53.795 C158.542,53.9196673 158.417335,54.1179986 158.168,54.39 C157.669331,54.9226693 157.074337,55.189 156.383,55.189 C156.031665,55.189 155.745501,55.1040009 155.5245,54.934 C155.303499,54.7639992 155.193,54.5430014 155.193,54.271 C155.193,54.1009992 155.232666,53.9026678 155.312,53.676 C154.597996,54.7300053 153.770671,55.257 152.83,55.257 C152.240664,55.257 151.759002,55.0671686 151.385,54.6875 C151.010998,54.3078314 150.824,53.8233363 150.824,53.234 C150.824,52.5879968 151.039331,51.8796705 151.47,51.109 C151.900669,50.3383295 152.472996,49.6356698 153.187,49.001 C154.161672,48.1396624 155.056996,47.709 155.873,47.709 C156.723004,47.709 157.198999,48.1169959 157.301,48.933 L157.726,48.032 C157.816667,47.8506658 157.896,47.76 157.964,47.76 C157.986667,47.76 158.054666,47.7713332 158.168,47.794 C158.281334,47.8166668 158.360666,47.828 158.406,47.828 C158.655335,47.828 158.847999,47.7940003 158.984,47.726 C159.029334,47.6919998 159.069,47.675 159.103,47.675 C159.171,47.675 159.205,47.7146663 159.205,47.794 Z M157.063,49.239 C157.063,48.8876649 156.958168,48.6043344 156.7485,48.389 C156.538832,48.1736656 156.269668,48.066 155.941,48.066 C155.37433,48.066 154.830336,48.40033 154.309,49.069 C153.70833,49.8283371 153.226668,50.6301624 152.864,51.4745 C152.501332,52.3188376 152.32,53.0583302 152.32,53.693 C152.32,54.4636705 152.63733,54.849 153.272,54.849 C153.634668,54.849 154.028498,54.6506687 154.4535,54.254 C154.878502,53.8573314 155.232665,53.3586697 155.516,52.758 L156.842,49.902 C156.989334,49.5846651 157.063,49.3636673 157.063,49.239 Z M164.713,47.913 C164.713,48.0716675 164.475002,48.1566666 163.999,48.168 L163.353,48.185 L163.047,48.185 L160.752,53.336 C160.502665,53.8913361 160.378,54.2426659 160.378,54.39 C160.378,54.6280012 160.553665,54.747 160.905,54.747 C161.415003,54.747 161.868331,54.4750027 162.265,53.931 C162.355667,53.8176661 162.423666,53.761 162.469,53.761 C162.559667,53.761 162.605,53.8006663 162.605,53.88 C162.605,54.0273341 162.418002,54.2653317 162.044,54.594 C161.613331,54.9680019 161.09767,55.155 160.497,55.155 C160.088998,55.155 159.757501,55.053001 159.5025,54.849 C159.247499,54.644999 159.12,54.3843349 159.12,54.067 C159.12,53.862999 159.250332,53.4833361 159.511,52.928 L161.738,48.151 L161.041,48.151 C160.848332,48.151 160.752,48.1113337 160.752,48.032 C160.752,47.8846659 160.831333,47.811 160.99,47.811 L161.143,47.811 C161.199667,47.8223334 161.290333,47.828 161.415,47.828 C161.573667,47.828 161.726666,47.8223334 161.874,47.811 L162.163,47.08 C162.265001,46.8306654 162.344333,46.706 162.401,46.706 C162.457667,46.706 162.545499,46.7173332 162.6645,46.74 C162.783501,46.7626668 162.877,46.774 162.945,46.774 C163.069667,46.774 163.250999,46.7173339 163.489,46.604 C163.534334,46.5813332 163.574,46.57 163.608,46.57 C163.664667,46.57 163.693,46.5926664 163.693,46.638 L163.132,47.862 L163.54,47.845 L164.186,47.811 C164.242667,47.811 164.310666,47.8053334 164.39,47.794 C164.469334,47.7826666 164.514667,47.777 164.526,47.777 C164.650667,47.777 164.713,47.8223329 164.713,47.913 Z M171.938,44.105 C171.938,44.5470022 171.728335,44.768 171.309,44.768 C171.161666,44.768 171.034167,44.7198338 170.9265,44.6235 C170.818833,44.5271662 170.765,44.4166673 170.765,44.292 C170.765,44.2013329 170.838666,44.0710009 170.986,43.901 C171.031334,43.8103329 171.054,43.736667 171.054,43.68 C171.054,43.3966652 170.816002,43.255 170.34,43.255 C169.841331,43.255 169.439002,43.4674979 169.133,43.8925 C168.826998,44.3175021 168.441669,45.1816601 167.977,46.485 L167.518,47.777 L169.269,47.777 C169.325667,47.7656666 169.399333,47.76 169.49,47.76 C169.614667,47.76 169.677,47.8223327 169.677,47.947 C169.677,48.0716673 169.597667,48.134 169.439,48.134 L167.45,48.117 L165.971,52.163 C164.905661,55.0756812 163.868672,57.1099942 162.86,58.266 C162.451998,58.730669 162.075168,59.0564991 161.7295,59.2435 C161.383832,59.4305009 160.973002,59.524 160.497,59.524 C159.533662,59.524 159.052,59.2010032 159.052,58.555 C159.052,58.090331 159.301331,57.858 159.8,57.858 C160.140002,57.858 160.31,57.9996653 160.31,58.283 C160.31,58.3736671 160.253334,58.4926659 160.14,58.64 C160.072,58.7193337 160.038,58.7929997 160.038,58.861 C160.038,59.1103346 160.207998,59.235 160.548,59.235 C161.137336,59.235 161.641665,58.9516695 162.061,58.385 C162.389668,57.9316644 162.820331,56.9513409 163.353,55.444 L165.92,48.151 L165.529,48.151 L164.679,48.168 C164.588333,48.1793334 164.486334,48.185 164.373,48.185 C164.236999,48.185 164.169,48.1396671 164.169,48.049 C164.169,47.8789991 164.310665,47.7770002 164.594,47.743 C164.616667,47.743 164.820665,47.7486666 165.206,47.76 L165.818,47.777 L166.056,47.777 C166.736003,46.1563252 167.291331,45.0513363 167.722,44.462 C168.436004,43.4986619 169.336995,43.017 170.425,43.017 C170.878336,43.017 171.243832,43.1161657 171.5215,43.3145 C171.799168,43.5128343 171.938,43.7763317 171.938,44.105 Z M175.389,50.463 C175.389,51.7890066 174.782673,52.9846613 173.57,54.05 C172.617995,54.8886709 171.626338,55.308 170.595,55.308 C169.89233,55.308 169.314336,55.0643358 168.861,54.577 C168.407664,54.0896642 168.181,53.4606705 168.181,52.69 C168.181,52.0326634 168.367998,51.3583368 168.742,50.667 C169.116002,49.9756632 169.614664,49.3863358 170.238,48.899 C171.212672,48.1396629 172.153329,47.76 173.06,47.76 C173.751337,47.76 174.312331,48.0093308 174.743,48.508 C175.173669,49.0066692 175.389,49.6583293 175.389,50.463 Z M174.08,49.358 C174.08,48.4966624 173.694671,48.066 172.924,48.066 C171.983329,48.066 171.167337,48.7403266 170.476,50.089 C169.818663,51.3810065 169.49,52.593661 169.49,53.727 C169.49,54.5770043 169.869663,55.002 170.629,55.002 C171.581005,55.002 172.37433,54.3900061 173.009,53.166 C173.723004,51.7833264 174.08,50.5140058 174.08,49.358 Z M182.614,48.508 C182.614,48.7346678 182.540334,48.9301658 182.393,49.0945 C182.245666,49.2588342 182.075668,49.341 181.883,49.341 C181.701666,49.341 181.611,49.2786673 181.611,49.154 L181.645,48.984 C181.667667,48.9159997 181.679,48.853667 181.679,48.797 C181.679,48.5249986 181.543001,48.389 181.271,48.389 C180.942332,48.389 180.483336,48.7063302 179.894,49.341 C179.304664,49.9756698 178.749336,50.8653276 178.228,52.01 L177.004,54.696 C176.890666,54.956668 176.794334,55.087 176.715,55.087 C176.488332,55.0529998 176.312667,55.036 176.188,55.036 C175.995332,55.036 175.842334,55.0473332 175.729,55.07 L175.627,55.07 C175.524999,55.07 175.474,55.0473336 175.474,55.002 C175.474,54.9906666 175.491,54.9680002 175.525,54.934 L175.61,54.764 L178.483,48.236 C178.483,48.1453329 178.409334,48.1 178.262,48.1 L178.194,48.1 C178.148666,48.1113334 178.075001,48.117 177.973,48.117 L177.803,48.117 C177.632999,48.117 177.548,48.0773337 177.548,47.998 C177.548,47.9299997 177.842664,47.8846668 178.432,47.862 C179.021336,47.8393332 179.417999,47.7883337 179.622,47.709 C179.712667,47.6863332 179.763667,47.675 179.775,47.675 C179.843,47.675 179.877,47.7089997 179.877,47.777 C179.877,47.833667 179.803334,48.0433315 179.656,48.406 L179.027,49.936 C180.069672,48.4853261 180.987663,47.76 181.781,47.76 C182.336336,47.76 182.614,48.0093308 182.614,48.508 Z M192.729,49.018 C192.729,49.3240015 192.587335,49.7999968 192.304,50.446 L191.046,53.302 C190.841999,53.766669 190.74,54.100999 190.74,54.305 C190.74,54.5316678 190.870332,54.645 191.131,54.645 C191.527669,54.645 191.912998,54.4353354 192.287,54.016 C192.423001,53.8686659 192.530666,53.795 192.61,53.795 C192.678,53.795 192.712,53.8176664 192.712,53.863 C192.712,53.9990007 192.519335,54.2029986 192.134,54.475 C191.56733,54.883002 191.046002,55.087 190.57,55.087 C190.252665,55.087 189.994834,55.0048342 189.7965,54.8405 C189.598166,54.6761658 189.499,54.463668 189.499,54.203 C189.499,53.9196653 189.623665,53.4890029 189.873,52.911 L191.114,50.038 C191.408668,49.3579966 191.556,48.916001 191.556,48.712 C191.556,48.3153314 191.386002,48.117 191.046,48.117 C190.513331,48.117 189.941003,48.4966629 189.329,49.256 C188.932331,49.7433358 188.428003,50.7066595 187.816,52.146 L186.796,54.543 C186.637333,54.9170019 186.518334,55.104 186.439,55.104 C186.382333,55.104 186.337,55.0983334 186.303,55.087 C186.132999,55.0643332 185.985667,55.053 185.861,55.053 C185.793,55.053 185.699501,55.0614999 185.5805,55.0785 C185.461499,55.0955001 185.373667,55.104 185.317,55.104 C185.237666,55.104 185.198,55.0756669 185.198,55.019 C185.198,54.9849998 185.220666,54.9226671 185.266,54.832 C185.311334,54.7413329 185.373666,54.6110008 185.453,54.441 L187.221,50.242 C187.595002,49.3579956 187.782,48.7800014 187.782,48.508 C187.782,48.1906651 187.612002,48.032 187.272,48.032 C186.829998,48.032 186.286003,48.4003297 185.64,49.137 C185.447332,49.3636678 185.147002,49.7603305 184.739,50.327 C184.591666,50.531001 184.382001,50.9559968 184.11,51.602 L182.835,54.594 C182.698999,54.9113349 182.597,55.07 182.529,55.07 C182.472333,55.07 182.427,55.0643334 182.393,55.053 C182.211666,55.0303332 182.104,55.019 182.07,55.019 C181.718665,55.019 181.509,55.0359998 181.441,55.07 C181.418333,55.0813334 181.384334,55.087 181.339,55.087 C181.282333,55.087 181.254,55.058667 181.254,55.002 C181.310667,54.8773327 181.378666,54.7413341 181.458,54.594 L184.144,48.355 C184.178,48.298333 184.195,48.2586668 184.195,48.236 C184.195,48.1339995 184.093001,48.083 183.889,48.083 C183.571665,48.083 183.413,48.0263339 183.413,47.913 C183.413,47.8336663 183.469666,47.794 183.583,47.794 C183.685001,47.794 183.843666,47.8053332 184.059,47.828 C184.274334,47.8506668 184.432999,47.862 184.535,47.862 C185.045003,47.862 185.367999,47.8223337 185.504,47.743 L185.606,47.709 C185.674,47.709 185.708,47.7486663 185.708,47.828 C185.708,47.8506668 185.657001,47.9753322 185.555,48.202 C185.475666,48.3606675 185.368001,48.6383314 185.232,49.035 L185.147,49.273 C185.249001,49.1596661 185.464332,48.9216685 185.793,48.559 C186.303003,47.9809971 186.92633,47.692 187.663,47.692 C188.127669,47.692 188.456332,47.8109988 188.649,48.049 C188.841668,48.2870012 188.949333,48.7063303 188.972,49.307 C189.697337,48.2416613 190.479329,47.709 191.318,47.709 C191.748669,47.709 192.091499,47.8279988 192.3465,48.066 C192.601501,48.3040012 192.729,48.6213314 192.729,49.018 Z" id="Platform" fill="#757575" fill-rule="nonzero"></path>
    </g>
</svg>