<svg width="230" height="68" viewBox="0 0 230 68" fill="none" xmlns="http://www.w3.org/2000/svg">
<path d="M138.109 50.2422L138.984 46.3125H139.25C139.214 46.6927 139.195 47.0078 139.195 47.2578C139.195 47.9714 139.422 48.5521 139.875 49C140.333 49.4479 140.93 49.6719 141.664 49.6719C142.346 49.6719 142.865 49.4635 143.219 49.0469C143.573 48.625 143.75 48.1406 143.75 47.5938C143.75 47.2396 143.669 46.9167 143.508 46.625C143.263 46.1927 142.609 45.4323 141.547 44.3438C141.031 43.8229 140.701 43.4349 140.555 43.1797C140.315 42.7578 140.195 42.3151 140.195 41.8516C140.195 41.112 140.471 40.4792 141.023 39.9531C141.576 39.4271 142.284 39.1641 143.148 39.1641C143.44 39.1641 143.716 39.1927 143.977 39.25C144.138 39.2812 144.432 39.3854 144.859 39.5625C145.161 39.6823 145.328 39.7474 145.359 39.7578C145.432 39.7734 145.513 39.7812 145.602 39.7812C145.753 39.7812 145.883 39.7422 145.992 39.6641C146.102 39.5859 146.229 39.4193 146.375 39.1641H146.672L145.859 42.6797H145.594C145.615 42.3672 145.625 42.1146 145.625 41.9219C145.625 41.2917 145.417 40.776 145 40.375C144.583 39.974 144.034 39.7734 143.352 39.7734C142.81 39.7734 142.37 39.9323 142.031 40.25C141.693 40.5677 141.523 40.9349 141.523 41.3516C141.523 41.7161 141.63 42.0651 141.844 42.3984C142.062 42.7266 142.56 43.2656 143.336 44.0156C144.117 44.7604 144.622 45.3438 144.852 45.7656C145.081 46.1823 145.195 46.6276 145.195 47.1016C145.195 47.638 145.052 48.1589 144.766 48.6641C144.484 49.1641 144.078 49.5521 143.547 49.8281C143.016 50.1042 142.435 50.2422 141.805 50.2422C141.492 50.2422 141.201 50.2135 140.93 50.1562C140.659 50.099 140.227 49.9583 139.633 49.7344C139.43 49.6562 139.26 49.6172 139.125 49.6172C138.818 49.6172 138.578 49.8255 138.406 50.2422H138.109ZM153.398 45.375C153.398 46.1562 153.19 46.9297 152.773 47.6953C152.362 48.4609 151.786 49.0677 151.047 49.5156C150.307 49.9635 149.589 50.1875 148.891 50.1875C148.177 50.1875 147.594 49.9609 147.141 49.5078C146.693 49.0495 146.469 48.4583 146.469 47.7344C146.469 46.9688 146.688 46.2005 147.125 45.4297C147.568 44.6589 148.156 44.0495 148.891 43.6016C149.63 43.1536 150.344 42.9297 151.031 42.9297C151.719 42.9297 152.284 43.1562 152.727 43.6094C153.174 44.0625 153.398 44.651 153.398 45.375ZM152.102 44.8359C152.102 44.3516 151.982 43.9818 151.742 43.7266C151.508 43.4661 151.203 43.3359 150.828 43.3359C150.062 43.3359 149.357 43.8854 148.711 44.9844C148.07 46.0781 147.75 47.1667 147.75 48.25C147.75 48.7448 147.875 49.1276 148.125 49.3984C148.375 49.6641 148.69 49.7969 149.07 49.7969C149.805 49.7969 150.492 49.2526 151.133 48.1641C151.779 47.0703 152.102 45.9609 152.102 44.8359ZM157.469 42.9297L156.453 46.4531C156.906 45.625 157.292 45.0026 157.609 44.5859C158.104 43.9401 158.586 43.4714 159.055 43.1797C159.331 43.013 159.62 42.9297 159.922 42.9297C160.182 42.9297 160.398 43.013 160.57 43.1797C160.742 43.3464 160.828 43.5599 160.828 43.8203C160.828 44.0755 160.768 44.4089 160.648 44.8203L160.094 46.8047C160.943 45.2161 161.747 44.1016 162.508 43.4609C162.93 43.1068 163.346 42.9297 163.758 42.9297C163.997 42.9297 164.193 43.013 164.344 43.1797C164.5 43.3411 164.578 43.5938 164.578 43.9375C164.578 44.2396 164.531 44.5599 164.438 44.8984L163.578 47.9375C163.391 48.599 163.297 48.9661 163.297 49.0391C163.297 49.112 163.32 49.1745 163.367 49.2266C163.398 49.263 163.44 49.2812 163.492 49.2812C163.544 49.2812 163.635 49.2318 163.766 49.1328C164.062 48.9036 164.341 48.6016 164.602 48.2266L164.859 48.3906C164.729 48.599 164.497 48.8854 164.164 49.25C163.836 49.6146 163.555 49.862 163.32 49.9922C163.086 50.1224 162.87 50.1875 162.672 50.1875C162.49 50.1875 162.336 50.125 162.211 50C162.091 49.875 162.031 49.7214 162.031 49.5391C162.031 49.2891 162.138 48.7865 162.352 48.0312L163.062 45.5234C163.224 44.9453 163.31 44.625 163.32 44.5625C163.336 44.4635 163.344 44.3672 163.344 44.2734C163.344 44.1432 163.315 44.0417 163.258 43.9688C163.195 43.8958 163.125 43.8594 163.047 43.8594C162.828 43.8594 162.596 43.9714 162.352 44.1953C161.633 44.8568 160.961 45.7839 160.336 46.9766C159.924 47.763 159.539 48.7708 159.18 50H158L159.336 45.2734C159.482 44.763 159.555 44.4219 159.555 44.25C159.555 44.1094 159.526 44.0052 159.469 43.9375C159.411 43.8698 159.341 43.8359 159.258 43.8359C159.086 43.8359 158.904 43.8984 158.711 44.0234C158.398 44.2266 157.995 44.6615 157.5 45.3281C157.01 45.9948 156.63 46.6328 156.359 47.2422C156.229 47.5286 155.919 48.4479 155.43 50H154.273L155.719 44.9375L155.906 44.2812C155.943 44.1823 155.961 44.1094 155.961 44.0625C155.961 43.9479 155.909 43.8464 155.805 43.7578C155.701 43.6641 155.568 43.6172 155.406 43.6172C155.339 43.6172 155.151 43.6484 154.844 43.7109L154.773 43.4219L157.469 42.9297ZM173.07 42.9297L171.547 48.2266L171.375 48.9375C171.359 49.0052 171.352 49.0625 171.352 49.1094C171.352 49.1927 171.378 49.2656 171.43 49.3281C171.471 49.375 171.523 49.3984 171.586 49.3984C171.654 49.3984 171.742 49.3568 171.852 49.2734C172.055 49.1224 172.326 48.8099 172.664 48.3359L172.93 48.5234C172.57 49.0651 172.201 49.4792 171.82 49.7656C171.44 50.0469 171.089 50.1875 170.766 50.1875C170.542 50.1875 170.372 50.1302 170.258 50.0156C170.148 49.9062 170.094 49.7448 170.094 49.5312C170.094 49.276 170.151 48.9401 170.266 48.5234L170.43 47.9375C169.747 48.8281 169.12 49.4505 168.547 49.8047C168.135 50.0599 167.732 50.1875 167.336 50.1875C166.956 50.1875 166.628 50.0312 166.352 49.7188C166.076 49.401 165.938 48.9661 165.938 48.4141C165.938 47.5859 166.185 46.7135 166.68 45.7969C167.18 44.875 167.812 44.138 168.578 43.5859C169.177 43.1484 169.742 42.9297 170.273 42.9297C170.591 42.9297 170.854 43.013 171.062 43.1797C171.276 43.3464 171.438 43.6224 171.547 44.0078L171.828 43.1172L173.07 42.9297ZM170.289 43.3359C169.956 43.3359 169.602 43.4922 169.227 43.8047C168.695 44.2474 168.221 44.9036 167.805 45.7734C167.393 46.6432 167.188 47.4297 167.188 48.1328C167.188 48.487 167.276 48.7682 167.453 48.9766C167.63 49.1797 167.833 49.2812 168.062 49.2812C168.63 49.2812 169.247 48.862 169.914 48.0234C170.805 46.9089 171.25 45.7656 171.25 44.5938C171.25 44.151 171.164 43.8307 170.992 43.6328C170.82 43.4349 170.586 43.3359 170.289 43.3359ZM178.32 38.8906L175.648 48.1875C175.518 48.651 175.453 48.9349 175.453 49.0391C175.453 49.1172 175.477 49.1823 175.523 49.2344C175.576 49.2865 175.638 49.3125 175.711 49.3125C175.81 49.3125 175.917 49.2682 176.031 49.1797C176.302 48.9661 176.586 48.6354 176.883 48.1875L177.117 48.4297C176.622 49.1276 176.167 49.6146 175.75 49.8906C175.443 50.0885 175.151 50.1875 174.875 50.1875C174.677 50.1875 174.51 50.1198 174.375 49.9844C174.245 49.849 174.18 49.6927 174.18 49.5156C174.18 49.3281 174.263 48.9427 174.43 48.3594L176.547 41.0312C176.719 40.4323 176.805 40.0885 176.805 40C176.805 39.875 176.755 39.7734 176.656 39.6953C176.557 39.612 176.404 39.5703 176.195 39.5703C176.076 39.5703 175.893 39.5885 175.648 39.625V39.3359L178.32 38.8906ZM181.594 39.8281C181.812 39.8281 181.997 39.9036 182.148 40.0547C182.299 40.2057 182.375 40.3906 182.375 40.6094C182.375 40.8229 182.297 41.0078 182.141 41.1641C181.99 41.3151 181.807 41.3906 181.594 41.3906C181.38 41.3906 181.195 41.3151 181.039 41.1641C180.888 41.0078 180.812 40.8229 180.812 40.6094C180.812 40.3906 180.888 40.2057 181.039 40.0547C181.19 39.9036 181.375 39.8281 181.594 39.8281ZM181.695 42.9297L180.148 48.4062C180.044 48.776 179.992 48.9974 179.992 49.0703C179.992 49.1536 180.016 49.2214 180.062 49.2734C180.115 49.3255 180.174 49.3516 180.242 49.3516C180.32 49.3516 180.414 49.3099 180.523 49.2266C180.82 48.9922 181.12 48.6589 181.422 48.2266L181.695 48.4062C181.341 48.9479 180.924 49.4036 180.445 49.7734C180.091 50.0495 179.753 50.1875 179.43 50.1875C179.216 50.1875 179.042 50.125 178.906 50C178.771 49.8698 178.703 49.7083 178.703 49.5156C178.703 49.3229 178.768 49.0026 178.898 48.5547L179.914 45.0547C180.081 44.4818 180.164 44.1224 180.164 43.9766C180.164 43.862 180.122 43.7682 180.039 43.6953C179.961 43.6224 179.852 43.5859 179.711 43.5859C179.596 43.5859 179.359 43.6146 179 43.6719V43.3672L181.695 42.9297ZM189.977 42.9297L188.453 48.2266L188.281 48.9375C188.266 49.0052 188.258 49.0625 188.258 49.1094C188.258 49.1927 188.284 49.2656 188.336 49.3281C188.378 49.375 188.43 49.3984 188.492 49.3984C188.56 49.3984 188.648 49.3568 188.758 49.2734C188.961 49.1224 189.232 48.8099 189.57 48.3359L189.836 48.5234C189.477 49.0651 189.107 49.4792 188.727 49.7656C188.346 50.0469 187.995 50.1875 187.672 50.1875C187.448 50.1875 187.279 50.1302 187.164 50.0156C187.055 49.9062 187 49.7448 187 49.5312C187 49.276 187.057 48.9401 187.172 48.5234L187.336 47.9375C186.654 48.8281 186.026 49.4505 185.453 49.8047C185.042 50.0599 184.638 50.1875 184.242 50.1875C183.862 50.1875 183.534 50.0312 183.258 49.7188C182.982 49.401 182.844 48.9661 182.844 48.4141C182.844 47.5859 183.091 46.7135 183.586 45.7969C184.086 44.875 184.719 44.138 185.484 43.5859C186.083 43.1484 186.648 42.9297 187.18 42.9297C187.497 42.9297 187.76 43.013 187.969 43.1797C188.182 43.3464 188.344 43.6224 188.453 44.0078L188.734 43.1172L189.977 42.9297ZM187.195 43.3359C186.862 43.3359 186.508 43.4922 186.133 43.8047C185.602 44.2474 185.128 44.9036 184.711 45.7734C184.299 46.6432 184.094 47.4297 184.094 48.1328C184.094 48.487 184.182 48.7682 184.359 48.9766C184.536 49.1797 184.74 49.2812 184.969 49.2812C185.536 49.2812 186.154 48.862 186.82 48.0234C187.711 46.9089 188.156 45.7656 188.156 44.5938C188.156 44.151 188.07 43.8307 187.898 43.6328C187.727 43.4349 187.492 43.3359 187.195 43.3359Z" fill="#7B7B7B"/>
<path d="M51.3333 42.6296C55.5881 42.6296 59.037 39.1804 59.037 34.9258C59.037 30.6711 55.5881 27.2222 51.3333 27.2222C47.0786 27.2222 43.6296 30.6711 43.6296 34.9258C43.6296 39.1804 47.0786 42.6296 51.3333 42.6296Z" fill="#E5243B"/>
<path d="M29.1852 16.6296C31.8444 16.6296 34 14.474 34 11.8148C34 9.15564 31.8444 7 29.1852 7C26.526 7 24.3704 9.15564 24.3704 11.8148C24.3704 14.474 26.526 16.6296 29.1852 16.6296Z" fill="#56C02B"/>
<path d="M31.5927 49.3703C33.9859 49.3703 35.9259 47.4302 35.9259 45.0369C35.9259 42.6437 33.9859 40.7036 31.5927 40.7036C29.1996 40.7036 27.2593 42.6437 27.2593 45.0369C27.2593 47.4302 29.1996 49.3703 31.5927 49.3703Z" fill="#DD1367"/>
<path d="M84.5556 32.037C85.8853 32.037 86.963 30.9593 86.963 29.6296C86.963 28.3001 85.8853 27.2222 84.5556 27.2222C83.2259 27.2222 82.1482 28.3001 82.1482 29.6296C82.1482 30.9593 83.2259 32.037 84.5556 32.037Z" fill="#FCC30B"/>
<path d="M74.4444 40.7037C76.5715 40.7037 78.2962 38.979 78.2962 36.8519C78.2962 34.7245 76.5715 33 74.4444 33C72.317 33 70.5925 34.7245 70.5925 36.8519C70.5925 38.979 72.317 40.7037 74.4444 40.7037Z" fill="#FD6925"/>
<path d="M66.7405 44.5555C67.8042 44.5555 68.6665 43.6931 68.6665 42.6294C68.6665 41.5658 67.8042 40.7036 66.7405 40.7036C65.6768 40.7036 64.8147 41.5658 64.8147 42.6294C64.8147 43.6931 65.6768 44.5555 66.7405 44.5555Z" fill="#A21942"/>
<path d="M73.963 56.1111C76.8881 56.1111 79.2593 53.7399 79.2593 50.815C79.2593 47.8898 76.8881 45.5186 73.963 45.5186C71.038 45.5186 68.6667 47.8898 68.6667 50.815C68.6667 53.7399 71.038 56.1111 73.963 56.1111Z" fill="#DDA63A"/>
<path d="M96.1112 39.7406C98.5045 39.7406 100.444 37.8006 100.444 35.4073C100.444 33.014 98.5045 31.074 96.1112 31.074C93.7181 31.074 91.7778 33.014 91.7778 35.4073C91.7778 37.8006 93.7181 39.7406 96.1112 39.7406Z" fill="#C5192D"/>
<path d="M51.3332 52.2592C52.9286 52.2592 54.2221 50.9659 54.2221 49.3703C54.2221 47.7747 52.9286 46.4814 51.3332 46.4814C49.7376 46.4814 48.4443 47.7747 48.4443 49.3703C48.4443 50.9659 49.7376 52.2592 51.3332 52.2592Z" fill="#4C9F38"/>
<path d="M60.9629 28.1852C62.5582 28.1852 63.8518 26.8917 63.8518 25.2964C63.8518 23.7007 62.5582 22.4075 60.9629 22.4075C59.3672 22.4075 58.074 23.7007 58.074 25.2964C58.074 26.8917 59.3672 28.1852 60.9629 28.1852Z" fill="#0A97D9"/>
<path d="M49.8889 21.4445C52.8139 21.4445 55.1851 18.8576 55.1851 15.6668C55.1851 12.4757 52.8139 9.88892 49.8889 9.88892C46.9638 9.88892 44.5925 12.4757 44.5925 15.6668C44.5925 18.8576 46.9638 21.4445 49.8889 21.4445Z" fill="#00689D"/>
<path d="M35.4442 36.8518C37.3058 36.8518 38.8147 35.3427 38.8147 33.4815C38.8147 31.6202 37.3058 30.1111 35.4442 30.1111C33.5829 30.1111 32.074 31.6202 32.074 33.4815C32.074 35.3427 33.5829 36.8518 35.4442 36.8518Z" fill="#3F7E44"/>
<path d="M41.7036 58.9999C43.2992 58.9999 44.5925 57.7067 44.5925 56.1111C44.5925 54.5154 43.2992 53.2222 41.7036 53.2222C40.1082 53.2222 38.8147 54.5154 38.8147 56.1111C38.8147 57.7067 40.1082 58.9999 41.7036 58.9999Z" fill="#BF8B2E"/>
<path d="M24.3703 35.889C25.4339 35.889 26.2962 35.0268 26.2962 33.9631C26.2962 32.8995 25.4339 32.0371 24.3703 32.0371C23.3067 32.0371 22.4443 32.8995 22.4443 33.9631C22.4443 35.0268 23.3067 35.889 24.3703 35.889Z" fill="#FD9D24"/>
<path d="M39.7777 48.4075C40.8415 48.4075 41.7037 47.5452 41.7037 46.4815C41.7037 45.418 40.8415 44.5557 39.7777 44.5557C38.714 44.5557 37.8518 45.418 37.8518 46.4815C37.8518 47.5452 38.714 48.4075 39.7777 48.4075Z" fill="#19486A"/>
<path d="M13.2963 52.2593C16.2214 52.2593 18.5926 49.8881 18.5926 46.963C18.5926 44.038 16.2214 41.6667 13.2963 41.6667C10.3712 41.6667 8 44.038 8 46.963C8 49.8881 10.3712 52.2593 13.2963 52.2593Z" fill="#26BDE2"/>
<path d="M67.2221 15.6666C68.5518 15.6666 69.6295 14.5889 69.6295 13.2592C69.6295 11.9295 68.5518 10.8518 67.2221 10.8518C65.8924 10.8518 64.8147 11.9295 64.8147 13.2592C64.8147 14.5889 65.8924 15.6666 67.2221 15.6666Z" fill="#FF3A21"/>
<path d="M110.713 24.112H112.279V27.592C112.279 28.868 111.728 29.477 110.655 29.477C109.524 29.477 109.031 28.636 109.031 27.447V16.891C109.031 15.702 109.553 14.861 110.742 14.861C111.931 14.861 112.395 15.557 112.395 16.775V18.776H115.411V17.036C115.411 14.136 114.338 12.106 110.684 12.106C107.204 12.106 105.725 14.339 105.725 17.413V26.925C105.725 29.97 107.03 32.232 109.872 32.232C111.67 32.232 112.598 31.333 113.033 29.854V32H115.411V21.502H110.713V24.112Z" fill="black"/>
<path d="M121.843 29.477C120.683 29.477 120.161 28.636 120.161 27.447V16.891C120.161 15.702 120.683 14.861 121.843 14.861C123.032 14.861 123.554 15.702 123.554 16.891V27.447C123.554 28.636 123.032 29.477 121.843 29.477ZM121.843 32.232C125.352 32.232 126.86 29.97 126.86 26.925V17.413C126.86 14.339 125.352 12.106 121.843 12.106C118.363 12.106 116.855 14.339 116.855 17.413V26.925C116.855 29.97 118.363 32.232 121.843 32.232Z" fill="black"/>
<path d="M130.482 32L131.062 28.404H134.571L135.18 32H138.573L134.832 12.338H131.062L127.35 32H130.482ZM132.802 17.877H132.831L134.136 25.765H131.497L132.802 17.877Z" fill="black"/>
<path d="M139.511 32H146.761V29.303H142.817V12.338H139.511V32Z" fill="black"/>
<path d="M150.066 15.035H152.792V32H156.127V15.035H158.853V12.338H150.066V15.035Z" fill="black"/>
<path d="M166.367 32H169.847L166.686 23.068C168.571 22.633 169.326 21.386 169.326 19.269V16.746C169.326 13.991 168.107 12.338 164.772 12.338H159.958V32H163.264V22.981L166.367 32ZM164.366 15.035C165.497 15.035 165.99 15.557 165.99 16.63V19.53C165.99 20.574 165.497 21.154 164.366 21.154H163.264V15.035H164.366Z" fill="black"/>
<path d="M173.302 32L173.882 28.404H177.391L178 32H181.393L177.652 12.338H173.882L170.17 32H173.302ZM175.622 17.877H175.651L176.956 25.765H174.317L175.622 17.877Z" fill="black"/>
<path d="M186.837 32.232C190.346 32.232 191.506 30.144 191.506 27.331V23.938H188.49V27.563C188.49 28.723 188.084 29.477 186.895 29.477C185.706 29.477 185.213 28.636 185.213 27.447V16.891C185.213 15.702 185.706 14.861 186.895 14.861C188.084 14.861 188.49 15.557 188.49 16.775V19.356H191.506V17.036C191.506 14.136 190.491 12.106 186.837 12.106C183.357 12.106 181.907 14.339 181.907 17.413V26.925C181.907 29.97 183.357 32.232 186.837 32.232Z" fill="black"/>
<path d="M199.624 32H203.104L199.189 21.183L203.017 12.338H199.769L196.173 20.98V12.338H192.867V32H196.173V22.43L199.624 32Z" fill="black"/>
<path d="M203.912 32H211.8V29.303H207.218V23.329H210.495V20.661H207.218V15.035H211.8V12.338H203.912V32Z" fill="black"/>
<path d="M219.553 32H223.033L219.872 23.068C221.757 22.633 222.511 21.386 222.511 19.269V16.746C222.511 13.991 221.293 12.338 217.958 12.338H213.144V32H216.45V22.981L219.553 32ZM217.552 15.035C218.683 15.035 219.176 15.557 219.176 16.63V19.53C219.176 20.574 218.683 21.154 217.552 21.154H216.45V15.035H217.552Z" fill="black"/>
<path fill-rule="evenodd" clip-rule="evenodd" d="M110.513 24.312V21.302H115.611V32.2H112.833V30.8614C112.637 31.2098 112.392 31.5107 112.089 31.7537C111.534 32.198 110.805 32.432 109.872 32.432C108.39 32.432 107.291 31.8384 106.57 30.8373C105.856 29.8452 105.525 28.472 105.525 26.925V17.413C105.525 15.8472 105.901 14.4677 106.747 13.4769C107.598 12.4807 108.899 11.906 110.684 11.906C112.547 11.906 113.796 12.4249 114.571 13.3555C115.34 14.2785 115.611 15.5677 115.611 17.036V18.976H112.195V16.775C112.195 16.1853 112.081 15.7616 111.859 15.4872C111.643 15.2215 111.296 15.061 110.742 15.061C110.199 15.061 109.834 15.2499 109.598 15.5529C109.356 15.864 109.231 16.3217 109.231 16.891V27.447C109.231 28.0184 109.35 28.4777 109.58 28.7892C109.802 29.0912 110.145 29.277 110.655 29.277C111.153 29.277 111.496 29.1367 111.719 28.8816C111.946 28.621 112.079 28.2058 112.079 27.592V24.312H110.513ZM112.833 30.4112C112.336 31.5557 111.431 32.232 109.872 32.232C107.03 32.232 105.725 29.97 105.725 26.925V17.413C105.725 14.339 107.204 12.106 110.684 12.106C114.338 12.106 115.411 14.136 115.411 17.036V18.776H112.395V16.775C112.395 15.557 111.931 14.861 110.742 14.861C109.553 14.861 109.031 15.702 109.031 16.891V27.447C109.031 28.636 109.524 29.477 110.655 29.477C111.728 29.477 112.279 28.868 112.279 27.592V24.112H110.713V21.502H115.411V32H113.033V29.854C112.975 30.0502 112.909 30.2362 112.833 30.4112ZM120.725 28.7861C120.958 29.0894 121.317 29.277 121.843 29.277C122.385 29.277 122.751 29.0881 122.986 28.7851C123.228 28.474 123.354 28.0163 123.354 27.447V16.891C123.354 16.3217 123.228 15.864 122.986 15.5529C122.751 15.2499 122.385 15.061 121.843 15.061C121.317 15.061 120.958 15.2486 120.725 15.5519C120.486 15.8634 120.361 16.3218 120.361 16.891V27.447C120.361 28.0163 120.486 28.4746 120.725 28.7861ZM125.819 30.851C124.957 31.85 123.643 32.432 121.843 32.432C120.057 32.432 118.749 31.8496 117.892 30.8506C117.039 29.8567 116.655 28.4775 116.655 26.925V17.413C116.655 15.8463 117.039 14.4668 117.892 13.4762C118.75 12.4806 120.058 11.906 121.843 11.906C123.642 11.906 124.957 12.4803 125.818 13.4759C126.676 14.4666 127.06 15.8464 127.06 17.413V26.925C127.06 28.4775 126.676 29.857 125.819 30.851ZM130.652 32.2H127.108L130.896 12.138H134.997L138.814 32.2H135.01L134.401 28.604H131.232L130.652 32.2ZM131.061 28.404L130.481 32H127.349L131.061 12.338H134.831L138.572 32H135.179L134.57 28.404H131.061ZM134.135 25.765H131.496L132.801 17.877H132.83L134.135 25.765ZM132.816 19.0147L131.732 25.565H133.9L132.816 19.0147ZM139.311 32.2V12.138H143.017V29.103H146.961V32.2H139.311ZM146.761 29.303V32H139.511V12.338H142.817V29.303H146.761ZM149.866 15.235V12.138H159.053V15.235H156.327V32.2H152.592V15.235H149.866ZM150.066 15.035V12.338H158.853V15.035H156.127V32H152.792V15.035H150.066ZM166.225 32.2L163.464 24.1771V32.2H159.758V12.138H164.772C166.47 12.138 167.671 12.5589 168.444 13.371C169.216 14.1812 169.525 15.3434 169.525 16.746V19.269C169.525 20.348 169.334 21.2341 168.879 21.9109C168.454 22.5417 167.816 22.9686 166.948 23.2081L169.999 31.8281L173.716 12.138H177.817L181.634 32.2H177.831L177.222 28.604H174.052L173.472 32.2H166.225ZM173.882 28.404H177.391L178 32H181.393L177.652 12.338H173.882L170.17 32H173.302L173.882 28.404ZM166.686 23.068C166.753 23.0527 166.818 23.0364 166.881 23.0191C168.623 22.5442 169.325 21.3115 169.325 19.269V16.746C169.325 13.991 168.107 12.338 164.772 12.338H159.958V32H163.264V22.981L166.367 32H169.847L166.686 23.068ZM165.461 15.5716C165.249 15.3596 164.905 15.235 164.366 15.235H163.464V20.954H164.366C164.9 20.954 165.244 20.8176 165.458 20.595C165.673 20.3708 165.79 20.024 165.79 19.53V16.63C165.79 16.1201 165.673 15.7834 165.461 15.5716ZM176.956 25.765H174.317L175.622 17.877H175.651L176.956 25.765ZM175.636 19.0147L174.553 25.565H176.72L175.636 19.0147ZM191.706 23.738V27.331C191.706 28.7599 191.412 30.0398 190.641 30.9645C189.863 31.8962 188.632 32.432 186.837 32.432C185.05 32.432 183.757 31.8494 182.914 30.8493C182.075 29.8549 181.707 28.4758 181.707 26.925V17.413C181.707 15.848 182.075 14.4686 182.914 13.4776C183.757 12.4808 185.051 11.906 186.837 11.906C188.7 11.906 189.935 12.4249 190.696 13.357C191.45 14.2804 191.706 15.5697 191.706 17.036V19.556H188.29V16.775C188.29 16.1806 188.189 15.7565 187.979 15.4829C187.778 15.2211 187.449 15.061 186.895 15.061C186.353 15.061 185.995 15.2495 185.767 15.5509C185.532 15.8616 185.413 16.3195 185.413 16.891V27.447C185.413 28.0185 185.532 28.4764 185.767 28.7871C185.995 29.0885 186.353 29.277 186.895 29.277C187.443 29.277 187.775 29.1057 187.978 28.835C188.19 28.5526 188.29 28.1263 188.29 27.563V23.738H191.706ZM191.506 17.036C191.506 14.136 190.491 12.106 186.837 12.106C183.357 12.106 181.907 14.339 181.907 17.413V26.925C181.907 29.97 183.357 32.232 186.837 32.232C190.346 32.232 191.506 30.144 191.506 27.331V23.938H188.49V27.563C188.49 28.723 188.084 29.477 186.895 29.477C185.706 29.477 185.213 28.636 185.213 27.447V16.891C185.213 15.702 185.706 14.861 186.895 14.861C188.084 14.861 188.49 15.557 188.49 16.775V19.356H191.506V17.036ZM199.483 32.2L196.373 23.5742V32.2H192.667V12.138H196.373V19.9788L199.635 12.138H203.321L199.404 21.1896L203.389 32.2H199.483ZM199.188 21.183L203.017 12.338H199.769L196.173 20.98V12.338H192.867V32H196.173V22.43L199.624 32H203.104L199.188 21.183ZM203.711 32.2V12.138H211.999V15.235H207.417V20.461H210.694V23.529H207.417V29.103H211.999V32.2H203.711ZM211.799 29.303V32H203.911V12.338H211.799V15.035H207.217V20.661H210.494V23.329H207.217V29.303H211.799ZM219.41 32.2L216.65 24.1771V32.2H212.944V12.138H217.958C219.656 12.138 220.857 12.5589 221.63 13.371C222.401 14.1812 222.711 15.3434 222.711 16.746V19.269C222.711 20.348 222.519 21.2341 222.064 21.9109C221.64 22.5417 221.002 22.9686 220.134 23.2081L223.316 32.2H219.41ZM219.872 23.068C219.938 23.0527 220.003 23.0364 220.067 23.0191C221.809 22.5442 222.511 21.3115 222.511 19.269V16.746C222.511 13.991 221.293 12.338 217.958 12.338H213.144V32H216.45V22.981L219.553 32H223.033L219.872 23.068ZM218.647 15.5716C218.435 15.3596 218.091 15.235 217.552 15.235H216.65V20.954H217.552C218.085 20.954 218.43 20.8176 218.644 20.595C218.859 20.3708 218.976 20.024 218.976 19.53V16.63C218.976 16.1201 218.858 15.7834 218.647 15.5716ZM120.161 27.447C120.161 28.636 120.683 29.477 121.843 29.477C123.032 29.477 123.554 28.636 123.554 27.447V16.891C123.554 15.702 123.032 14.861 121.843 14.861C120.683 14.861 120.161 15.702 120.161 16.891V27.447ZM126.86 26.925C126.86 29.97 125.352 32.232 121.843 32.232C118.363 32.232 116.855 29.97 116.855 26.925V17.413C116.855 14.339 118.363 12.106 121.843 12.106C125.352 12.106 126.86 14.339 126.86 17.413V26.925ZM165.99 16.63C165.99 15.557 165.497 15.035 164.366 15.035H163.264V21.154H164.366C165.497 21.154 165.99 20.574 165.99 19.53V16.63ZM219.176 16.63C219.176 15.557 218.683 15.035 217.552 15.035H216.45V21.154H217.552C218.683 21.154 219.176 20.574 219.176 19.53V16.63Z" fill="black"/>
</svg>
