<svg width="195" height="58" viewBox="0 0 195 58" fill="none" xmlns="http://www.w3.org/2000/svg">
<path d="M107.93 0.341739C107.93 0.738012 107.662 0.792049 104.198 1.08025C102.935 1.18832 100.141 1.42248 97.9786 1.62062C95.8162 1.81876 93.0223 2.05292 91.7593 2.161C86.8795 2.57528 65.1023 4.50261 64.0689 4.61069C63.1312 4.71876 62.959 4.79081 62.959 5.07901C62.959 5.42125 63.0547 5.43926 63.9732 5.33119C64.509 5.27715 66.7863 5.061 68.987 4.86286C71.2068 4.66473 80.8324 3.81814 90.3815 2.97156C99.9497 2.12497 107.853 1.4405 107.93 1.4405C108.025 1.4405 108.121 1.62062 108.159 1.81876C108.217 2.17901 108.255 2.17901 108.944 1.5846L109.69 0.972173L108.905 0.485838C107.987 -0.09056 107.93 -0.108572 107.93 0.341739Z" fill="#404040"/>
<path d="M44.4922 6.32245C40.8562 6.64667 18.1031 8.66407 2.64085 10.015C1.45439 10.1231 1.33957 10.1051 1.33957 9.79885C1.33957 9.52866 1.22475 9.56469 0.727205 10.051L0.0957031 10.6274L0.669795 11.0597C1.26302 11.51 1.58834 11.528 1.41612 11.0957C1.3013 10.8436 0.861159 10.8796 13.0128 9.81686C16.9549 9.47462 21.5476 9.06034 23.2125 8.91624C24.8582 8.77214 27.5947 8.51997 29.2787 8.37587C30.9627 8.23177 33.7184 7.97959 35.4024 7.83549C37.0864 7.6914 39.8612 7.43922 41.5834 7.29512C46.8842 6.8268 46.6929 6.86282 46.6929 6.46655C46.6929 6.2504 46.578 6.12431 46.3675 6.14233C46.1762 6.16034 45.3342 6.23239 44.4922 6.32245Z" fill="#404040"/>
<path d="M0.650472 47.6067L0.133789 48.021L0.727018 48.6515C1.30111 49.2278 1.32025 49.2459 1.33938 48.8496C1.33938 48.4353 1.39679 48.4173 2.25794 48.5254C2.75549 48.5794 6.12349 48.8676 9.75941 49.1738C19.4424 49.9483 22.466 50.2005 28.4174 50.7049C44.1093 52.0198 46.731 52.2359 46.8075 52.2359C46.8458 52.2359 46.884 52.0738 46.884 51.8757C46.884 51.6595 46.7501 51.5154 46.5779 51.5154C46.4248 51.5154 44.4154 51.3533 42.1382 51.1552C39.861 50.9751 36.0146 50.6508 33.5842 50.4527C20.5715 49.3719 15.5386 48.9577 9.47237 48.4533C1.47334 47.8049 1.28197 47.7869 1.41593 47.4446C1.56902 47.0664 1.2437 47.1384 0.650472 47.6067Z" fill="#404040"/>
<path d="M62.959 53.2268C62.959 53.5871 63.0355 53.6051 69.4654 54.1094C72.5655 54.3616 78.0767 54.8119 81.7127 55.1181C85.3486 55.4243 91.2426 55.9107 94.8211 56.1989C98.3996 56.5051 102.724 56.8653 104.447 57.0094C106.169 57.1535 107.7 57.2796 107.853 57.2796C108.006 57.2796 108.121 57.4417 108.121 57.6399C108.121 57.838 108.159 58.0001 108.197 58.0001C108.408 58.0001 109.652 57.2256 109.652 57.1175C109.652 57.0454 109.384 56.7572 109.059 56.451C108.504 55.9467 108.465 55.9467 108.217 56.2709C107.968 56.5771 107.815 56.5951 105.442 56.397C104.064 56.2709 101.021 56.0187 98.6867 55.8386C91.9889 55.2802 77.4452 54.0734 70.4222 53.497C62.9398 52.8666 62.959 52.8666 62.959 53.2268Z" fill="#404040"/>
<path d="M116.143 2.3418H118.669V17.4722H116.143V2.3418Z" fill="black"/>
<path d="M120.404 4.86328H123.045L125.092 12.4105H125.131V4.86328H127.006V17.472H124.843L122.317 8.26763H122.279V17.472H120.404V4.86328Z" fill="black"/>
<path d="M130.216 6.66452H128.015V4.86328H134.522V6.66452H132.321V17.472H130.216V6.66452Z" fill="black"/>
<path d="M135.541 4.86328H141.281V6.66452H137.646V9.99682H140.535V11.7981H137.646V15.6707H141.281V17.472H135.541V4.86328Z" fill="black"/>
<path d="M145.478 17.6525C144.457 17.6525 143.679 17.3824 143.144 16.842C142.608 16.2896 142.34 15.5031 142.34 14.4824V7.85378C142.34 6.83307 142.608 6.05254 143.144 5.51217C143.679 4.95978 144.457 4.68359 145.478 4.68359C146.499 4.68359 147.277 4.95978 147.813 5.51217C148.349 6.05254 148.617 6.83307 148.617 7.85378V8.93453H146.626V7.72769C146.626 6.89912 146.263 6.48484 145.536 6.48484C144.808 6.48484 144.445 6.89912 144.445 7.72769V14.6265C144.445 15.443 144.808 15.8513 145.536 15.8513C146.263 15.8513 146.626 15.443 146.626 14.6265V12.1587H145.574V10.3575H148.617V14.4824C148.617 15.5031 148.349 16.2896 147.813 16.842C147.277 17.3824 146.499 17.6525 145.478 17.6525Z" fill="black"/>
<path d="M149.968 4.86328H153.087C154.171 4.86328 154.962 5.10344 155.46 5.58378C155.957 6.0521 156.206 6.7786 156.206 7.76328V8.53782C156.206 9.84672 155.747 10.6753 154.828 11.0235V11.0596C155.339 11.2037 155.696 11.4979 155.9 11.9422C156.117 12.3865 156.225 12.9809 156.225 13.7254V15.9409C156.225 16.3012 156.238 16.5954 156.264 16.8235C156.289 17.0397 156.353 17.2558 156.455 17.472H154.312C154.235 17.2678 154.184 17.0757 154.159 16.8956C154.133 16.7155 154.12 16.3912 154.12 15.9229V13.6173C154.12 13.0409 154.018 12.6386 153.814 12.4105C153.623 12.1823 153.285 12.0682 152.8 12.0682H152.073V17.472H149.968V4.86328ZM152.838 10.267C153.259 10.267 153.572 10.1649 153.776 9.9608C153.993 9.75666 154.101 9.41443 154.101 8.93409V7.96142C154.101 7.50511 154.012 7.17487 153.833 6.97073C153.667 6.7666 153.4 6.66452 153.03 6.66452H152.073V10.267H152.838Z" fill="black"/>
<path d="M159.312 4.86328H162.164L164.345 17.472H162.24L161.858 14.9682V15.0043H159.466L159.083 17.472H157.131L159.312 4.86328ZM161.609 13.2931L160.671 7.0608H160.633L159.714 13.2931H161.609Z" fill="black"/>
<path d="M166.134 6.66452H163.934V4.86328H170.44V6.66452H168.239V17.472H166.134V6.66452Z" fill="black"/>
<path d="M171.459 4.86328H177.2V6.66452H173.564V9.99682H176.454V11.7981H173.564V15.6707H177.2V17.472H171.459V4.86328Z" fill="black"/>
<path d="M178.411 4.86328H181.626C182.672 4.86328 183.456 5.12747 183.979 5.65583C184.502 6.18419 184.764 6.95872 184.764 7.97943V14.3558C184.764 15.3765 184.502 16.1511 183.979 16.6794C183.456 17.2078 182.672 17.472 181.626 17.472H178.411V4.86328ZM181.587 15.6707C181.932 15.6707 182.193 15.5747 182.372 15.3825C182.563 15.1904 182.659 14.8782 182.659 14.4459V7.88937C182.659 7.45707 182.563 7.14486 182.372 6.95272C182.193 6.76058 181.932 6.66452 181.587 6.66452H180.516V15.6707H181.587Z" fill="black"/>
<path d="M116.143 21.4346H118.669V36.565H116.143V21.4346Z" fill="black"/>
<path d="M120.404 23.9561H123.045L125.092 31.5033H125.131V23.9561H127.006V36.5647H124.843L122.317 27.3604H122.279V36.5647H120.404V23.9561Z" fill="black"/>
<path d="M128.57 23.9561H131.785C132.831 23.9561 133.616 24.2203 134.139 24.7486C134.662 25.2769 134.924 26.0514 134.924 27.0722V33.4486C134.924 34.4694 134.662 35.2439 134.139 35.7722C133.616 36.3005 132.831 36.5647 131.785 36.5647H128.57V23.9561ZM131.747 34.7635C132.091 34.7635 132.353 34.6675 132.532 34.4753C132.723 34.2831 132.819 33.971 132.819 33.5387V26.9821C132.819 26.5498 132.723 26.2377 132.532 26.0455C132.353 25.8533 132.091 25.7573 131.747 25.7573H130.675V34.7635H131.747Z" fill="black"/>
<path d="M136.344 23.9561H138.449V36.5647H136.344V23.9561Z" fill="black"/>
<path d="M142.992 36.7453C141.984 36.7453 141.212 36.4751 140.677 35.9348C140.154 35.3944 139.892 34.6319 139.892 33.6472V26.8745C139.892 25.8898 140.154 25.1273 140.677 24.5869C141.212 24.0466 141.984 23.7764 142.992 23.7764C144 23.7764 144.766 24.0466 145.289 24.5869C145.824 25.1273 146.092 25.8898 146.092 26.8745V28.2074H144.102V26.7484C144.102 25.9679 143.751 25.5776 143.05 25.5776C142.348 25.5776 141.997 25.9679 141.997 26.7484V33.7913C141.997 34.5599 142.348 34.9441 143.05 34.9441C143.751 34.9441 144.102 34.5599 144.102 33.7913V31.8639H146.092V33.6472C146.092 34.6319 145.824 35.3944 145.289 35.9348C144.766 36.4751 144 36.7453 142.992 36.7453Z" fill="black"/>
<path d="M148.978 23.9561H151.829L154.011 36.5647H151.906L151.523 34.061V34.097H149.131L148.748 36.5647H146.796L148.978 23.9561ZM151.274 32.3859L150.337 26.1536H150.298L149.38 32.3859H151.274Z" fill="black"/>
<path d="M155.8 25.7573H153.599V23.9561H160.105V25.7573H157.905V36.5647H155.8V25.7573Z" fill="black"/>
<path d="M164.092 36.7453C163.059 36.7453 162.268 36.4692 161.719 35.9167C161.171 35.3643 160.896 34.5838 160.896 33.5751V26.9466C160.896 25.9379 161.171 25.1574 161.719 24.6049C162.268 24.0525 163.059 23.7764 164.092 23.7764C165.126 23.7764 165.917 24.0525 166.465 24.6049C167.014 25.1574 167.288 25.9379 167.288 26.9466V33.5751C167.288 34.5838 167.014 35.3643 166.465 35.9167C165.917 36.4692 165.126 36.7453 164.092 36.7453ZM164.092 34.9441C164.819 34.9441 165.183 34.5298 165.183 33.7012V26.8205C165.183 25.9919 164.819 25.5776 164.092 25.5776C163.365 25.5776 163.001 25.9919 163.001 26.8205V33.7012C163.001 34.5298 163.365 34.9441 164.092 34.9441Z" fill="black"/>
<path d="M168.712 23.9561H171.831C172.916 23.9561 173.707 24.1962 174.204 24.6766C174.702 25.1449 174.95 25.8713 174.95 26.8561V27.6306C174.95 28.9396 174.491 29.7681 173.573 30.1163V30.1523C174.083 30.2964 174.44 30.5906 174.644 31.0349C174.861 31.4793 174.97 32.0737 174.97 32.8182V35.0337C174.97 35.3939 174.982 35.6881 175.008 35.9163C175.033 36.1325 175.097 36.3486 175.199 36.5647H173.056C172.979 36.3607 172.928 36.1685 172.903 35.9884C172.877 35.8082 172.865 35.484 172.865 35.0157V32.7101C172.865 32.1337 172.763 31.7315 172.558 31.5033C172.367 31.275 172.029 31.161 171.544 31.161H170.817V36.5647H168.712V23.9561ZM171.582 29.3598C172.003 29.3598 172.316 29.2577 172.52 29.0536C172.737 28.8495 172.845 28.5073 172.845 28.0269V27.0542C172.845 26.5979 172.756 26.2676 172.577 26.0635C172.412 25.8594 172.144 25.7573 171.774 25.7573H170.817V29.3598H171.582Z" fill="black"/>
<path d="M116.143 40.5283H122.825V42.6898H118.669V46.9047H121.929V49.0662H118.669V55.6588H116.143V40.5283Z" fill="black"/>
<path d="M123.879 43.0498H126.999C128.083 43.0498 128.874 43.2899 129.372 43.7703C129.869 44.2386 130.118 44.9651 130.118 45.9498V46.7243C130.118 48.0333 129.659 48.8619 128.74 49.2101V49.2461C129.25 49.3902 129.607 49.6843 129.812 50.1287C130.028 50.5731 130.137 51.1675 130.137 51.9119V54.1274C130.137 54.4877 130.15 54.7818 130.175 55.0101C130.201 55.2262 130.265 55.4424 130.367 55.6585H128.223C128.147 55.4544 128.096 55.2622 128.07 55.0821C128.045 54.902 128.032 54.5778 128.032 54.1094V51.8038C128.032 51.2274 127.93 50.8252 127.726 50.597C127.534 50.3688 127.196 50.2548 126.712 50.2548H125.984V55.6585H123.879V43.0498ZM126.75 48.4535C127.171 48.4535 127.483 48.3514 127.688 48.1473C127.904 47.9432 128.013 47.601 128.013 47.1206V46.1479C128.013 45.6917 127.923 45.3613 127.745 45.1573C127.579 44.9532 127.311 44.851 126.941 44.851H125.984V48.4535H126.75Z" fill="black"/>
<path d="M133.224 43.0498H136.075L138.257 55.6585H136.152L135.769 53.1548V53.1908H133.377L132.994 55.6585H131.042L133.224 43.0498ZM135.52 51.4796L134.583 45.2473H134.544L133.626 51.4796H135.52Z" fill="black"/>
<path d="M139.278 43.0498H142.283L143.622 52.074H143.661L145 43.0498H148.005V55.6585H146.014V46.1119H145.976L144.445 55.6585H142.685L141.154 46.1119H141.115V55.6585H139.278V43.0498Z" fill="black"/>
<path d="M149.575 43.0498H155.316V44.851H151.68V48.1833H154.57V49.9846H151.68V53.8573H155.316V55.6585H149.575V43.0498Z" fill="black"/>
<path d="M156.03 43.0498H158.058L158.996 52.7405H159.034L160.029 43.0498H162.326L163.321 52.7405H163.359L164.297 43.0498H166.115L164.756 55.6585H162.134L161.177 47.1566H161.139L160.182 55.6585H157.388L156.03 43.0498Z" fill="black"/>
<path d="M170.222 55.8381C169.189 55.8381 168.398 55.562 167.849 55.0095C167.301 54.4571 167.026 53.6766 167.026 52.6679V46.0393C167.026 45.0306 167.301 44.2502 167.849 43.6977C168.398 43.1453 169.189 42.8691 170.222 42.8691C171.256 42.8691 172.047 43.1453 172.595 43.6977C173.144 44.2502 173.418 45.0306 173.418 46.0393V52.6679C173.418 53.6766 173.144 54.4571 172.595 55.0095C172.047 55.562 171.256 55.8381 170.222 55.8381ZM170.222 54.0368C170.949 54.0368 171.313 53.6226 171.313 52.794V45.9132C171.313 45.0847 170.949 44.6704 170.222 44.6704C169.495 44.6704 169.131 45.0847 169.131 45.9132V52.794C169.131 53.6226 169.495 54.0368 170.222 54.0368Z" fill="black"/>
<path d="M174.841 43.0498H177.96C179.045 43.0498 179.836 43.2899 180.333 43.7703C180.831 44.2386 181.08 44.9651 181.08 45.9498V46.7243C181.08 48.0333 180.621 48.8619 179.702 49.2101V49.2461C180.212 49.3902 180.569 49.6843 180.774 50.1287C180.99 50.5731 181.099 51.1675 181.099 51.9119V54.1274C181.099 54.4877 181.112 54.7818 181.137 55.0101C181.163 55.2262 181.226 55.4424 181.329 55.6585H179.185C179.109 55.4544 179.058 55.2622 179.032 55.0821C179.007 54.902 178.994 54.5778 178.994 54.1094V51.8038C178.994 51.2274 178.892 50.8252 178.688 50.597C178.496 50.3688 178.158 50.2548 177.673 50.2548H176.946V55.6585H174.841V43.0498ZM177.712 48.4535C178.133 48.4535 178.445 48.3514 178.649 48.1473C178.866 47.9432 178.975 47.601 178.975 47.1206V46.1479C178.975 45.6917 178.885 45.3613 178.707 45.1573C178.541 44.9532 178.273 44.851 177.903 44.851H176.946V48.4535H177.712Z" fill="black"/>
<path d="M182.56 43.0498H184.665V48.3635L187.344 43.0498H189.449L186.942 47.679L189.487 55.6585H187.286L185.507 50.0386L184.665 51.6417V55.6585H182.56V43.0498Z" fill="black"/>
<path d="M15.6919 47.733V10.7175L29.7572 9.63672V48.9939L15.6919 47.733Z" fill="#606062"/>
<path d="M0.191406 46.3812V11.9914L14.3523 10.9873V47.5525L0.191406 46.3812Z" fill="#373435"/>
<path d="M31.001 49.2592V9.44849L45.1619 8.28613V50.6153L31.001 49.2592Z" fill="#A9ABAE"/>
<path d="M46.8843 53.7877V4.15139L62.9589 2.70215V55.4785L46.8843 53.7877Z" fill="#1D5DA9"/>
<path d="M64.1069 51.4443V7.05958L78.2679 5.76367V52.9562L64.1069 51.4443Z" fill="#366FB5"/>
<path d="M79.7988 52.7873V5.52256L93.9598 4.14258V54.3972L79.7988 52.7873Z" fill="#5083C2"/>
<path d="M95.2993 54.3045V3.99051L109.46 2.52148V56.0184L95.2993 54.3045Z" fill="#689BD2"/>
<path d="M7.86367 33.1284C7.77992 33.1284 7.70518 33.1407 7.63941 33.165C7.57163 33.1875 7.51083 33.2297 7.45702 33.2916C7.4012 33.3516 7.34737 33.437 7.29554 33.5478C7.24173 33.6566 7.18591 33.7972 7.1281 33.97C7.06432 34.1613 6.99256 34.3396 6.91282 34.5046C6.83307 34.6698 6.7404 34.8151 6.63475 34.9408C6.52909 35.0648 6.4075 35.1613 6.26995 35.2308C6.13042 35.3002 5.96895 35.335 5.78557 35.335C5.60616 35.335 5.4427 35.2993 5.2952 35.228C5.14767 35.1548 5.02111 35.0516 4.91545 34.9183C4.80781 34.7852 4.72508 34.6285 4.66727 34.4484C4.60946 34.2665 4.58057 34.0656 4.58057 33.8461C4.58057 33.5422 4.63937 33.2794 4.75698 33.058C4.8746 32.8348 5.03406 32.6621 5.2354 32.5402C5.43673 32.4182 5.66298 32.3573 5.91413 32.3573V33.1284C5.77858 33.1284 5.65898 33.1556 5.55532 33.21C5.45167 33.2626 5.36994 33.3433 5.31014 33.4521C5.25034 33.5589 5.22043 33.694 5.22043 33.8574C5.22043 34.015 5.24537 34.1463 5.2952 34.2513C5.34503 34.3545 5.41281 34.4324 5.49852 34.485C5.58423 34.5356 5.67991 34.561 5.78557 34.561C5.86529 34.561 5.93705 34.5431 6.00085 34.5075C6.06264 34.4718 6.12145 34.4183 6.17725 34.3472C6.23108 34.2758 6.28191 34.1876 6.32975 34.0826C6.3756 33.9756 6.42145 33.8518 6.4673 33.711C6.53906 33.4858 6.61879 33.2887 6.70651 33.12C6.79421 32.9492 6.89387 32.8076 7.00551 32.6951C7.11714 32.5805 7.24273 32.4951 7.38225 32.4389C7.52179 32.3807 7.68026 32.3516 7.85768 32.3516C8.04506 32.3516 8.2125 32.3863 8.36001 32.4559C8.50751 32.5252 8.6331 32.6246 8.73675 32.7541C8.84041 32.8835 8.91915 33.0393 8.97296 33.2214C9.0268 33.4015 9.0537 33.6031 9.0537 33.8264C9.0537 34.0253 9.0258 34.2223 8.96998 34.4174C8.91217 34.6107 8.82646 34.7861 8.71283 34.9437C8.59722 35.1013 8.45171 35.2271 8.27629 35.3209C8.09887 35.4148 7.89157 35.4616 7.65435 35.4616V34.6847C7.7919 34.6847 7.9095 34.6642 8.00719 34.6229C8.10287 34.5797 8.1816 34.5197 8.24339 34.4428C8.30319 34.3639 8.34705 34.272 8.37495 34.167C8.40287 34.0618 8.41682 33.9484 8.41682 33.8264C8.41682 33.6688 8.3939 33.5393 8.34805 33.4381C8.30021 33.3349 8.23441 33.2579 8.15071 33.2072C8.06697 33.1547 7.97129 33.1284 7.86367 33.1284Z" fill="white"/>
<path d="M8.99416 30.5309V31.4145L8.3483 31.409V30.5309C8.3483 30.2925 8.29248 30.0928 8.18086 29.9314C8.06723 29.77 7.90478 29.6481 7.69348 29.5656C7.48018 29.4829 7.22504 29.4416 6.92802 29.4416H6.70376C6.47452 29.4416 6.2722 29.4651 6.09679 29.5121C5.92137 29.5589 5.77386 29.6284 5.65426 29.7203C5.53466 29.8104 5.44395 29.922 5.38216 30.0551C5.32037 30.1884 5.28946 30.3414 5.28946 30.5139V31.4315H4.64062V30.5139C4.64062 30.24 4.68946 29.9905 4.78713 29.7653C4.88481 29.5384 5.02534 29.3422 5.20875 29.177C5.39014 29.0101 5.60742 28.8825 5.86057 28.7943C6.11373 28.7042 6.39679 28.6592 6.70975 28.6592H6.92802C7.23899 28.6592 7.52205 28.7042 7.7772 28.7943C8.03035 28.8825 8.24765 29.0101 8.42904 29.177C8.61044 29.3422 8.74998 29.5393 8.84765 29.7682C8.94532 29.997 8.99416 30.2513 8.99416 30.5309ZM4.64062 30.9812H8.99416V31.7552H4.64062V30.9812Z" fill="white"/>
<path d="M6.74244 24.8037H8.43781C8.51953 24.8637 8.60824 24.9584 8.70392 25.0879C8.79961 25.2157 8.88233 25.3826 8.95209 25.5889C9.01987 25.7953 9.05376 26.0487 9.05376 26.3488C9.05376 26.6096 9.00791 26.8479 8.91622 27.0637C8.82253 27.2795 8.68597 27.4652 8.50657 27.621C8.32717 27.7767 8.1079 27.8968 7.84876 27.9813C7.58963 28.0656 7.29361 28.1079 6.96071 28.1079H6.67367C6.34077 28.1079 6.04475 28.0685 5.78562 27.9897C5.52648 27.9091 5.30721 27.7945 5.12781 27.6462C4.9484 27.4962 4.81185 27.317 4.71817 27.1088C4.62448 26.8986 4.57764 26.664 4.57764 26.4052C4.57764 26.0581 4.63843 25.7728 4.76003 25.5496C4.88162 25.3244 5.04906 25.1517 5.26236 25.0317C5.47366 24.9116 5.71685 24.8365 5.99193 24.8066V25.5608C5.84043 25.5815 5.70787 25.6227 5.59426 25.6847C5.47864 25.7467 5.38894 25.8347 5.32514 25.9491C5.25937 26.0619 5.22648 26.2081 5.22648 26.3883C5.22648 26.5403 5.25838 26.6745 5.32216 26.7907C5.38594 26.907 5.47864 27.0046 5.60023 27.0834C5.72182 27.1623 5.87233 27.2222 6.05173 27.2635C6.23114 27.3029 6.43645 27.3227 6.6677 27.3227H6.96071C7.19395 27.3227 7.40125 27.3001 7.58265 27.255C7.76205 27.21 7.91355 27.1453 8.03714 27.0608C8.15873 26.9746 8.25142 26.8687 8.31521 26.7429C8.377 26.6152 8.4079 26.4708 8.4079 26.3094C8.4079 26.1631 8.39495 26.0421 8.36904 25.9464C8.34112 25.8488 8.30824 25.771 8.27037 25.7128C8.23248 25.6546 8.1956 25.6096 8.15972 25.5777H7.34344V26.3911H6.74244V24.8037Z" fill="white"/>
<path d="M38.0994 34.5698C38.0156 34.5698 37.941 34.5821 37.8752 34.6064C37.8074 34.6289 37.7466 34.6711 37.6928 34.733C37.6369 34.793 37.5831 34.8784 37.5313 34.9892C37.4775 35.098 37.4216 35.2386 37.3638 35.4114C37.3001 35.6027 37.2284 35.781 37.1486 35.946C37.0688 36.1112 36.9761 36.2565 36.8705 36.3823C36.7649 36.5062 36.6432 36.6027 36.5058 36.6723C36.3661 36.7416 36.2048 36.7764 36.0212 36.7764C35.8419 36.7764 35.6785 36.7407 35.531 36.6694C35.3834 36.5962 35.2569 36.493 35.1513 36.3597C35.0436 36.2266 34.9609 36.0699 34.9031 35.8898C34.8453 35.7079 34.8164 35.507 34.8164 35.2875C34.8164 34.9836 34.8752 34.7208 34.9927 34.4994C35.1103 34.2762 35.2697 34.1035 35.4711 33.9816C35.6724 33.8596 35.8988 33.7987 36.1498 33.7987V34.5698C36.0143 34.5698 35.8947 34.597 35.791 34.6514C35.6875 34.704 35.6056 34.7847 35.5459 34.8935C35.4862 35.0003 35.4561 35.1354 35.4561 35.2988C35.4561 35.4564 35.481 35.5877 35.531 35.6927C35.5807 35.796 35.6485 35.8738 35.7342 35.9264C35.8199 35.977 35.9156 36.0024 36.0212 36.0024C36.101 36.0024 36.1728 35.9845 36.2365 35.9489C36.2983 35.9132 36.3573 35.8597 36.413 35.7886C36.4667 35.7172 36.5176 35.629 36.5655 35.524C36.6114 35.417 36.6571 35.2932 36.7031 35.1524C36.7748 34.9272 36.8546 34.7302 36.9423 34.5614C37.0299 34.3906 37.1296 34.249 37.2412 34.1365C37.3529 34.0219 37.4785 33.9365 37.618 33.8803C37.7575 33.8221 37.9159 33.793 38.0933 33.793C38.2809 33.793 38.4483 33.8277 38.5958 33.8973C38.7432 33.9666 38.8689 34.066 38.9725 34.1955C39.0762 34.3249 39.1548 34.4807 39.2088 34.6628C39.2626 34.8429 39.2893 35.0445 39.2893 35.2678C39.2893 35.4667 39.2616 35.6637 39.2057 35.8588C39.1479 36.0521 39.0622 36.2275 38.9485 36.3851C38.8329 36.5427 38.6875 36.6685 38.512 36.7623C38.3346 36.8562 38.1274 36.903 37.8901 36.903V36.1261C38.0277 36.1261 38.1452 36.1056 38.243 36.0643C38.3387 36.0211 38.4173 35.9611 38.4791 35.8842C38.539 35.8053 38.5828 35.7135 38.6108 35.6084C38.6385 35.5033 38.6525 35.3898 38.6525 35.2678C38.6525 35.1102 38.6297 34.9807 38.5838 34.8795C38.5359 34.7763 38.4701 34.6994 38.3865 34.6486C38.3027 34.5961 38.207 34.5698 38.0994 34.5698Z" fill="white"/>
<path d="M35.5368 31.5669L39.2295 32.7348V33.5539L34.876 32.0228V31.4994L35.5368 31.5669ZM39.2295 30.5903L35.5368 31.764L34.876 31.8342V31.3079L39.2295 29.7686V30.5903ZM37.6119 30.6438H38.2608V32.8418H37.6119V30.6438Z" fill="white"/>
<path d="M39.2295 28.1217V29.0054L38.5837 28.9998V28.1217C38.5837 27.8834 38.5278 27.6836 38.4162 27.5222C38.3025 27.3608 38.1401 27.2389 37.9288 27.1564C37.7156 27.0737 37.4603 27.0325 37.1634 27.0325H36.9391C36.7098 27.0325 36.5075 27.0559 36.3321 27.1029C36.1568 27.1497 36.0092 27.2192 35.8896 27.3111C35.77 27.4012 35.6793 27.5129 35.6175 27.646C35.5557 27.7793 35.5249 27.9322 35.5249 28.1047V29.0223H34.876V28.1047C34.876 27.8308 34.9248 27.5813 35.0226 27.3561C35.1202 27.1292 35.2606 26.933 35.4441 26.7679C35.6255 26.6009 35.8427 26.4734 36.0959 26.3851C36.3491 26.295 36.6321 26.25 36.945 26.25H37.1634C37.4743 26.25 37.7573 26.295 38.0126 26.3851C38.2658 26.4734 38.483 26.6009 38.6644 26.7679C38.8458 26.933 38.9853 27.1301 39.0829 27.359C39.1807 27.5878 39.2295 27.8421 39.2295 28.1217ZM34.876 28.572H39.2295V29.346H34.876V28.572Z" fill="white"/>
<path d="M36.9782 22.3945H38.6737C38.7554 22.4545 38.844 22.5494 38.9397 22.6788C39.0354 22.8065 39.1182 22.9735 39.1879 23.1799C39.2556 23.3861 39.2895 23.6396 39.2895 23.9396C39.2895 24.2005 39.2437 24.4388 39.1521 24.6545C39.0583 24.8703 38.9219 25.056 38.7424 25.2119C38.5631 25.3675 38.3438 25.4876 38.0847 25.5721C37.8254 25.6566 37.5295 25.6987 37.1965 25.6987H36.9095C36.5765 25.6987 36.2807 25.6593 36.0214 25.5806C35.7623 25.4999 35.543 25.3853 35.3636 25.2371C35.1841 25.087 35.0477 24.9078 34.9539 24.6996C34.8604 24.4894 34.8135 24.2549 34.8135 23.996C34.8135 23.6489 34.8743 23.3636 34.9958 23.1404C35.1174 22.9153 35.2848 22.7425 35.4982 22.6226C35.7094 22.5024 35.9527 22.4273 36.2277 22.3974V23.1516C36.0763 23.1723 35.9437 23.2136 35.83 23.2755C35.7144 23.3373 35.6247 23.4256 35.5609 23.5401C35.4951 23.6525 35.4622 23.799 35.4622 23.9791C35.4622 24.1311 35.4942 24.2653 35.5579 24.3815C35.6218 24.4978 35.7144 24.5955 35.8361 24.6742C35.9576 24.7531 36.1082 24.8131 36.2876 24.8543C36.4669 24.8938 36.6722 24.9134 36.9036 24.9134H37.1965C37.4298 24.9134 37.6371 24.8911 37.8185 24.846C37.9978 24.801 38.1493 24.7361 38.273 24.6517C38.3945 24.5654 38.4873 24.4595 38.551 24.3337C38.6128 24.206 38.6438 24.0616 38.6438 23.9004C38.6438 23.7539 38.6308 23.6329 38.6048 23.5372C38.577 23.4396 38.5441 23.3618 38.5062 23.3036C38.4683 23.2454 38.4314 23.2004 38.3956 23.1685H37.5793V23.982H36.9782V22.3945Z" fill="white"/>
<path d="M51.7163 38.1045H56.0698V38.8812L53.0499 40.6234H56.0698V41.3973H51.7163V40.6234L54.7393 38.8756H51.7163V38.1045Z" fill="white"/>
<path d="M56.0698 36.0924V36.9761L55.424 36.9705V36.0924C55.424 35.8541 55.3681 35.6543 55.2565 35.4929C55.1429 35.3315 54.9804 35.2096 54.7691 35.1271C54.556 35.0444 54.3007 35.0032 54.0037 35.0032H53.7794C53.5502 35.0032 53.3479 35.0266 53.1724 35.0736C52.9971 35.1204 52.8496 35.19 52.73 35.2818C52.6104 35.3719 52.5197 35.4836 52.4578 35.6167C52.396 35.75 52.3652 35.9029 52.3652 36.0754V36.993H51.7163V36.0754C51.7163 35.8015 51.7651 35.552 51.8629 35.3268C51.9605 35.0999 52.1009 34.9037 52.2845 34.7386C52.4659 34.5716 52.6831 34.4441 52.9363 34.3558C53.1894 34.2657 53.4725 34.2207 53.7853 34.2207H54.0037C54.3147 34.2207 54.5977 34.2657 54.853 34.3558C55.1061 34.4441 55.3233 34.5716 55.5047 34.7386C55.6862 34.9037 55.8257 35.1008 55.9233 35.3297C56.021 35.5585 56.0698 35.8128 56.0698 36.0924ZM51.7163 36.5427H56.0698V37.3167H51.7163V36.5427Z" fill="white"/>
<path d="M54.4821 31.9858V33.0413H53.8362V31.9858C53.8362 31.8132 53.8064 31.6735 53.7465 31.5665C53.6847 31.4577 53.6011 31.3779 53.4954 31.3273C53.3877 31.2767 53.2652 31.2513 53.1276 31.2513C52.994 31.2513 52.8695 31.2767 52.7539 31.3273C52.6383 31.3779 52.5445 31.4577 52.4728 31.5665C52.401 31.6735 52.3652 31.8132 52.3652 31.9858V32.7879H56.0698V33.5619H51.7163V31.9858C51.7163 31.6668 51.7772 31.3948 51.8987 31.1697C52.0183 30.9425 52.1848 30.77 52.3979 30.6518C52.6094 30.5317 52.8505 30.4717 53.1217 30.4717C53.4026 30.4717 53.6449 30.5317 53.8483 30.6518C54.0515 30.77 54.2081 30.9425 54.3177 31.1697C54.4274 31.3948 54.4821 31.6668 54.4821 31.9858Z" fill="white"/>
<path d="M55.4477 25.749H56.0696V28.524H55.5374L54.0094 27.1929C53.842 27.054 53.6965 26.9443 53.5729 26.8636C53.4493 26.7829 53.3377 26.7257 53.238 26.692C53.1364 26.6563 53.0398 26.6385 52.9481 26.6385C52.8145 26.6385 52.6978 26.661 52.5981 26.706C52.4965 26.7511 52.4178 26.8166 52.3619 26.9029C52.3061 26.9874 52.2783 27.0915 52.2783 27.2154C52.2783 27.3523 52.3122 27.4696 52.3799 27.5672C52.4456 27.6628 52.5374 27.736 52.6549 27.7868C52.7726 27.8354 52.9071 27.8599 53.0587 27.8599V28.6056C52.8015 28.6056 52.5673 28.5494 52.356 28.4368C52.1426 28.3243 51.9723 28.1629 51.8447 27.9528C51.717 27.7426 51.6533 27.493 51.6533 27.2041C51.6533 26.9227 51.7031 26.6844 51.8028 26.4892C51.9006 26.2941 52.0401 26.1458 52.2215 26.0446C52.4029 25.9432 52.6191 25.8926 52.8702 25.8926C53.0097 25.8926 53.1473 25.9142 53.283 25.9572C53.4185 26.0005 53.553 26.0615 53.6866 26.1403C53.818 26.2172 53.9516 26.309 54.0873 26.416C54.2228 26.523 54.3613 26.6421 54.5027 26.7736L55.4477 27.5728V25.749Z" fill="white"/>
<path d="M53.519 22.5186H54.2515C54.5864 22.5186 54.8725 22.5504 55.1096 22.6142C55.3469 22.678 55.5413 22.7698 55.6927 22.89C55.8422 23.0101 55.9529 23.1537 56.0247 23.3206C56.0944 23.4876 56.1292 23.6733 56.1292 23.8778C56.1292 24.0411 56.1074 24.193 56.0636 24.3338C56.0176 24.4745 55.948 24.6012 55.8542 24.7137C55.7585 24.8245 55.637 24.9202 55.4895 25.0008C55.3419 25.0796 55.1655 25.1406 54.9602 25.1837C54.7548 25.2251 54.5187 25.2456 54.2515 25.2456H53.519C53.1841 25.2456 52.899 25.2138 52.6638 25.15C52.4286 25.0842 52.2363 24.9915 52.0868 24.8713C51.9372 24.7512 51.8287 24.6078 51.7607 24.4408C51.6911 24.2737 51.6562 24.088 51.6562 23.8835C51.6562 23.7184 51.6781 23.5663 51.7219 23.4275C51.7657 23.2868 51.8346 23.1611 51.9282 23.0505C52.02 22.9379 52.1396 22.8421 52.287 22.7633C52.4326 22.6846 52.6079 22.6245 52.8132 22.5832C53.0167 22.54 53.2518 22.5186 53.519 22.5186ZM54.3591 23.2616H53.4084C53.2409 23.2616 53.0953 23.2709 52.9717 23.2897C52.8462 23.3066 52.7396 23.3318 52.6519 23.3657C52.5641 23.3994 52.4933 23.4417 52.4395 23.4923C52.3838 23.5429 52.3429 23.6011 52.317 23.6668C52.291 23.7324 52.2782 23.8046 52.2782 23.8835C52.2782 23.981 52.299 24.0683 52.341 24.1453C52.3808 24.2222 52.4445 24.2868 52.5323 24.3394C52.62 24.392 52.7365 24.4324 52.8821 24.4605C53.0257 24.4868 53.2009 24.4999 53.4084 24.4999H54.3591C54.5267 24.4999 54.6731 24.4915 54.7986 24.4745C54.9244 24.4558 55.0319 24.4295 55.1217 24.3958C55.2114 24.3601 55.2851 24.3178 55.3429 24.269C55.3988 24.2184 55.4407 24.1602 55.4684 24.0946C55.4944 24.0289 55.5073 23.9567 55.5073 23.8778C55.5073 23.7783 55.4864 23.6912 55.4445 23.6161C55.4028 23.5391 55.3369 23.4745 55.2472 23.4219C55.1555 23.3695 55.0369 23.33 54.8915 23.3037C54.7439 23.2756 54.5665 23.2616 54.3591 23.2616Z" fill="white"/>
<path d="M53.543 21.125V20.7057C53.543 20.5574 53.5161 20.4355 53.4623 20.3398C53.4064 20.2422 53.3308 20.17 53.2351 20.1231C53.1373 20.0743 53.0248 20.0498 52.8972 20.0498C52.7717 20.0498 52.663 20.0714 52.5713 20.1147C52.4775 20.1577 52.4058 20.2235 52.356 20.3117C52.3041 20.398 52.2783 20.5086 52.2783 20.6437C52.2783 20.7527 52.3011 20.853 52.347 20.9449C52.3928 21.0349 52.4586 21.1071 52.5443 21.1615C52.6281 21.2141 52.7288 21.2404 52.8463 21.2404V21.9862C52.6111 21.9862 52.4048 21.9282 52.2274 21.8118C52.0479 21.6936 51.9075 21.534 51.8058 21.3334C51.7042 21.1325 51.6533 20.9083 51.6533 20.6606C51.6533 20.3904 51.7012 20.1541 51.7968 19.9515C51.8904 19.7468 52.029 19.5883 52.2125 19.4758C52.3958 19.3614 52.6232 19.3041 52.8941 19.3041C53.0237 19.3041 53.1532 19.3331 53.283 19.3913C53.4104 19.4477 53.526 19.5311 53.6297 19.6418C53.7313 19.7506 53.8142 19.8848 53.8779 20.0442C53.9397 20.2018 53.9705 20.3829 53.9705 20.5875V21.125H53.543ZM54.1529 21.125H53.7313V20.5875C53.7313 20.3567 53.7602 20.1568 53.818 19.988C53.8739 19.8173 53.9537 19.6766 54.0572 19.5658C54.159 19.455 54.2775 19.3735 54.4132 19.321C54.5487 19.2666 54.6941 19.2393 54.8497 19.2393C55.0531 19.2393 55.2343 19.2749 55.3939 19.3463C55.5514 19.4176 55.685 19.5179 55.7944 19.6474C55.9041 19.7749 55.9879 19.9252 56.0457 20.0977C56.1016 20.2703 56.1293 20.4571 56.1293 20.6579C56.1293 20.8323 56.1044 21.0021 56.0547 21.1673C56.0028 21.3305 55.9261 21.4778 55.8245 21.6092C55.7208 21.7405 55.5912 21.8446 55.4358 21.9215C55.2783 21.9984 55.0958 22.0369 54.8885 22.0369V21.2911C55.0081 21.2911 55.1147 21.2639 55.2085 21.2095C55.3023 21.1533 55.3759 21.0762 55.4297 20.9787C55.4816 20.8793 55.5074 20.7676 55.5074 20.6437C55.5074 20.5068 55.4816 20.3895 55.4297 20.2919C55.3759 20.1925 55.3001 20.1165 55.2025 20.064C55.1028 20.0115 54.9842 19.9852 54.8466 19.9852C54.6832 19.9852 54.5506 20.0143 54.449 20.0725C54.3473 20.1305 54.2725 20.2141 54.2247 20.3229C54.1768 20.4299 54.1529 20.5574 54.1529 20.7057V21.125Z" fill="white"/>
<path d="M53.519 15.9326H54.2515C54.5864 15.9326 54.8725 15.9645 55.1096 16.0283C55.3469 16.0921 55.5413 16.1841 55.6927 16.3041C55.8422 16.4242 55.9529 16.5678 56.0247 16.7347C56.0944 16.9017 56.1292 17.0875 56.1292 17.292C56.1292 17.4552 56.1074 17.6072 56.0636 17.7479C56.0176 17.8887 55.948 18.0154 55.8542 18.128C55.7585 18.2385 55.637 18.3342 55.4895 18.4149C55.3419 18.4938 55.1655 18.5547 54.9602 18.5979C54.7548 18.6391 54.5187 18.6599 54.2515 18.6599H53.519C53.1841 18.6599 52.899 18.628 52.6638 18.564C52.4286 18.4985 52.2363 18.4055 52.0868 18.2856C51.9372 18.1654 51.8287 18.0219 51.7607 17.8549C51.6911 17.6879 51.6562 17.5021 51.6562 17.2976C51.6562 17.1325 51.6781 16.9805 51.7219 16.8417C51.7657 16.701 51.8346 16.5752 51.9282 16.4645C52.02 16.352 52.1396 16.2563 52.287 16.1775C52.4326 16.0987 52.6079 16.0386 52.8132 15.9974C53.0167 15.9542 53.2518 15.9326 53.519 15.9326ZM54.3591 16.6756H53.4084C53.2409 16.6756 53.0953 16.685 52.9717 16.7038C52.8462 16.7207 52.7396 16.746 52.6519 16.7798C52.5641 16.8135 52.4933 16.8558 52.4395 16.9064C52.3838 16.9571 52.3429 17.0152 52.317 17.0809C52.291 17.1466 52.2782 17.2188 52.2782 17.2976C52.2782 17.3952 52.299 17.4824 52.341 17.5594C52.3808 17.6363 52.4445 17.701 52.5323 17.7536C52.62 17.8061 52.7365 17.8464 52.8821 17.8746C53.0257 17.9009 53.2009 17.914 53.4084 17.914H54.3591C54.5267 17.914 54.6731 17.9055 54.7986 17.8887C54.9244 17.8699 55.0319 17.8436 55.1217 17.8099C55.2114 17.7742 55.2851 17.732 55.3429 17.6832C55.3988 17.6325 55.4407 17.5744 55.4684 17.5087C55.4944 17.443 55.5073 17.3708 55.5073 17.292C55.5073 17.1925 55.4864 17.1053 55.4445 17.0303C55.4028 16.9533 55.3369 16.8886 55.2472 16.8361C55.1555 16.7835 55.0369 16.7441 54.8915 16.7179C54.7439 16.6897 54.5665 16.6756 54.3591 16.6756Z" fill="white"/>
<path d="M71.3219 35.1381V36.1937H70.6761V35.1381C70.6761 34.9656 70.6462 34.8258 70.5863 34.7188C70.5245 34.61 70.4409 34.5302 70.3353 34.4796C70.2275 34.429 70.1051 34.4036 69.9675 34.4036C69.8339 34.4036 69.7093 34.429 69.5937 34.4796C69.4781 34.5302 69.3844 34.61 69.3126 34.7188C69.2409 34.8258 69.2051 34.9656 69.2051 35.1381V35.9402H72.9097V36.7142H68.5562V35.1381C68.5562 34.8191 68.617 34.5472 68.7385 34.322C68.8581 34.0949 69.0246 33.9223 69.2378 33.8041C69.4493 33.684 69.6904 33.624 69.9615 33.624C70.2425 33.624 70.4847 33.684 70.6881 33.8041C70.8914 33.9223 71.0479 34.0949 71.1576 34.322C71.2672 34.5472 71.3219 34.8191 71.3219 35.1381Z" fill="white"/>
<path d="M70.6584 29.8193H72.3538C72.4356 29.8793 72.5242 29.9741 72.6198 30.1036C72.7155 30.2311 72.7984 30.3981 72.868 30.6045C72.9358 30.8109 72.9697 31.0642 72.9697 31.3644C72.9697 31.6253 72.9239 31.8636 72.8323 32.0794C72.7385 32.2951 72.602 32.4809 72.4225 32.6367C72.2432 32.7923 72.0239 32.9124 71.7648 32.9969C71.5055 33.0812 71.2097 33.1235 70.8767 33.1235H70.5897C70.2567 33.1235 69.9608 33.0841 69.7015 33.0052C69.4424 32.9245 69.2231 32.8101 69.0438 32.6619C68.8643 32.5118 68.7279 32.3326 68.6341 32.1244C68.5405 31.9142 68.4937 31.6797 68.4937 31.4208C68.4937 31.0735 68.5545 30.7884 68.676 30.5652C68.7975 30.3401 68.965 30.1673 69.1784 30.0472C69.3896 29.9272 69.6328 29.8521 69.9078 29.822V30.5764C69.7565 30.5971 69.6239 30.6384 69.5102 30.7003C69.3946 30.7621 69.3048 30.8504 69.2411 30.9647C69.1753 31.0773 69.1424 31.2238 69.1424 31.4039C69.1424 31.5559 69.1743 31.6899 69.2381 31.8063C69.302 31.9226 69.3946 32.0203 69.5163 32.099C69.6378 32.1779 69.7884 32.2379 69.9677 32.2791C70.147 32.3186 70.3524 32.3382 70.5837 32.3382H70.8767C71.11 32.3382 71.3172 32.3157 71.4986 32.2706C71.678 32.2256 71.8295 32.161 71.9531 32.0765C72.0746 31.9902 72.1675 31.8841 72.2312 31.7584C72.293 31.6308 72.324 31.4864 72.324 31.325C72.324 31.1787 72.311 31.0577 72.285 30.962C72.2572 30.8644 72.2243 30.7866 72.1864 30.7284C72.1485 30.6702 72.1116 30.6252 72.0758 30.5933H71.2594V31.4066H70.6584V29.8193Z" fill="white"/>
<path d="M72.9097 27.8629V28.7466L72.2638 28.7408V27.8629C72.2638 27.6246 72.208 27.4246 72.0964 27.2632C71.9827 27.102 71.8203 26.9799 71.609 26.8974C71.3958 26.8149 71.1405 26.7737 70.8435 26.7737H70.6192C70.39 26.7737 70.1877 26.7971 70.0122 26.8439C69.837 26.8909 69.6894 26.9603 69.5698 27.0523C69.4502 27.1424 69.3595 27.2539 69.2977 27.3872C69.2359 27.5203 69.2051 27.6732 69.2051 27.8459V28.7635H68.5562V27.8459C68.5562 27.572 68.6049 27.3225 68.7027 27.0974C68.8003 26.8702 68.9408 26.6742 69.1243 26.5091C69.3057 26.3421 69.5229 26.2144 69.7761 26.1263C70.0293 26.0362 70.3123 25.9912 70.6252 25.9912H70.8435C71.1545 25.9912 71.4375 26.0362 71.6928 26.1263C71.946 26.2144 72.1632 26.3421 72.3446 26.5091C72.526 26.6742 72.6655 26.8711 72.7631 27.1001C72.8609 27.329 72.9097 27.5831 72.9097 27.8629ZM68.5562 28.3132H72.9097V29.087H68.5562V28.3132Z" fill="white"/>
<path d="M71.3219 23.7565V24.8118H70.6761V23.7565C70.6761 23.5838 70.6462 23.444 70.5863 23.337C70.5245 23.2282 70.4409 23.1486 70.3353 23.0978C70.2275 23.0472 70.1051 23.0218 69.9675 23.0218C69.8339 23.0218 69.7093 23.0472 69.5937 23.0978C69.4781 23.1486 69.3844 23.2282 69.3126 23.337C69.2409 23.444 69.2051 23.5838 69.2051 23.7565V24.5586H72.9097V25.3326H68.5562V23.7565C68.5562 23.4375 68.617 23.1653 68.7385 22.9402C68.8581 22.7132 69.0246 22.5407 69.2378 22.4223C69.4493 22.3023 69.6904 22.2422 69.9615 22.2422C70.2425 22.2422 70.4847 22.3023 70.6881 22.4223C70.8914 22.5407 71.0479 22.7132 71.1576 22.9402C71.2672 23.1653 71.3219 23.4375 71.3219 23.7565Z" fill="white"/>
<path d="M88.4102 35.1303V36.0141L87.7643 36.0084V35.1303C87.7643 34.892 87.7084 34.6922 87.5969 34.5308C87.4832 34.3694 87.3207 34.2475 87.1095 34.165C86.8963 34.0825 86.641 34.0411 86.344 34.0411H86.1197C85.8905 34.0411 85.6882 34.0647 85.5127 34.1115C85.3374 34.1583 85.1899 34.2279 85.0703 34.3197C84.9507 34.4098 84.86 34.5215 84.7982 34.6548C84.7364 34.7879 84.7056 34.9408 84.7056 35.1135V36.0309H84.0566V35.1135C84.0566 34.8396 84.1054 34.5899 84.2032 34.3648C84.3008 34.1378 84.4413 33.9416 84.6248 33.7766C84.8062 33.6097 85.0234 33.482 85.2766 33.3939C85.5298 33.3038 85.8128 33.2588 86.1257 33.2588H86.344C86.655 33.2588 86.938 33.3038 87.1933 33.3939C87.4465 33.482 87.6637 33.6097 87.8451 33.7766C88.0265 33.9416 88.166 34.1387 88.2636 34.3676C88.3614 34.5966 88.4102 34.8507 88.4102 35.1303ZM84.0566 35.5806H88.4102V36.3546H84.0566V35.5806Z" fill="white"/>
<path d="M88.4102 31.3756V32.2593L87.7643 32.2535V31.3756C87.7643 31.1373 87.7084 30.9373 87.5969 30.7759C87.4832 30.6147 87.3207 30.4926 87.1095 30.4101C86.8963 30.3276 86.641 30.2864 86.344 30.2864H86.1197C85.8905 30.2864 85.6882 30.3098 85.5127 30.3566C85.3374 30.4036 85.1899 30.473 85.0703 30.565C84.9507 30.6551 84.86 30.7666 84.7982 30.8999C84.7364 31.033 84.7056 31.1859 84.7056 31.3586V32.2762H84.0566V31.3586C84.0566 31.0847 84.1054 30.8352 84.2032 30.6101C84.3008 30.3829 84.4413 30.1869 84.6248 30.0218C84.8062 29.8548 85.0234 29.7271 85.2766 29.639C85.5298 29.5489 85.8128 29.5039 86.1257 29.5039H86.344C86.655 29.5039 86.938 29.5489 87.1933 29.639C87.4465 29.7271 87.6637 29.8548 87.8451 30.0218C88.0265 30.1869 88.166 30.3838 88.2636 30.6128C88.3614 30.8417 88.4102 31.0958 88.4102 31.3756ZM84.0566 31.8259H88.4102V32.5997H84.0566V31.8259Z" fill="white"/>
<path d="M84.0566 28.5075V27.8377L87.3338 26.7175L84.0566 25.6002V24.9276L88.4102 26.4502V26.9877L84.0566 28.5075ZM84.0566 28.8453V28.1894L87.0676 28.0713H88.4102V28.8453H84.0566ZM84.0566 25.2484V24.5898H88.4102V25.3637H87.0676L84.0566 25.2484Z" fill="white"/>
<path d="M99.5571 34.2686H103.911V35.0425H99.5571V34.2686Z" fill="white"/>
<path d="M103.911 32.2084V33.0923L103.265 33.0867V32.2084C103.265 31.9703 103.209 31.7703 103.097 31.609C102.984 31.4477 102.821 31.3256 102.61 31.2431C102.397 31.1606 102.142 31.1194 101.845 31.1194H101.62C101.391 31.1194 101.189 31.1428 101.013 31.1896C100.838 31.2366 100.69 31.306 100.571 31.3978C100.451 31.4879 100.36 31.5996 100.299 31.7329C100.237 31.866 100.206 32.0189 100.206 32.1917V33.109H99.5571V32.1917C99.5571 31.9177 99.6059 31.668 99.7037 31.4429C99.8013 31.2159 99.9418 31.0199 100.125 30.8548C100.307 30.6878 100.524 30.5601 100.777 30.472C101.03 30.3819 101.313 30.3369 101.626 30.3369H101.845C102.155 30.3369 102.438 30.3819 102.694 30.472C102.947 30.5601 103.164 30.6878 103.346 30.8548C103.527 31.0199 103.666 31.2168 103.764 31.4458C103.862 31.6747 103.911 31.9289 103.911 32.2084ZM99.5571 32.6587H103.911V33.4327H99.5571V32.6587Z" fill="white"/>
<path d="M102.323 28.1022V29.1575H101.677V28.1022C101.677 27.9295 101.647 27.7897 101.587 27.6829C101.526 27.5739 101.442 27.4943 101.336 27.4435C101.229 27.3929 101.106 27.3677 100.968 27.3677C100.835 27.3677 100.71 27.3929 100.595 27.4435C100.479 27.4943 100.385 27.5739 100.314 27.6829C100.242 27.7897 100.206 27.9295 100.206 28.1022V28.9043H103.911V29.6783H99.5571V28.1022C99.5571 27.7832 99.618 27.511 99.7395 27.2859C99.8591 27.0589 100.026 26.8864 100.239 26.768C100.45 26.6481 100.691 26.5879 100.963 26.5879C101.243 26.5879 101.486 26.6481 101.689 26.768C101.892 26.8864 102.049 27.0589 102.159 27.2859C102.268 27.511 102.323 27.7832 102.323 28.1022Z" fill="white"/>
<path d="M17.7399 37.607L21.4326 38.7751V39.5939L17.0791 38.0628V37.5394L17.7399 37.607ZM21.4326 36.6303L17.7399 37.804L17.0791 37.8744V37.3481L21.4326 35.8086V36.6303ZM19.815 36.6838H20.464V38.8819H19.815V36.6838Z" fill="white"/>
<path d="M19.1813 32.2393H20.8768C20.9585 32.2994 21.0471 32.3942 21.1428 32.5235C21.2385 32.6512 21.3214 32.8182 21.391 33.0246C21.4588 33.231 21.4926 33.4843 21.4926 33.7844C21.4926 34.0452 21.4469 34.2835 21.3552 34.4993C21.2615 34.7151 21.125 34.9008 20.9455 35.0566C20.7662 35.2124 20.5469 35.3324 20.2878 35.4168C20.0285 35.5013 19.7327 35.5435 19.3997 35.5435H19.1126C18.7797 35.5435 18.4837 35.504 18.2246 35.4253C17.9654 35.3446 17.7462 35.2302 17.5668 35.082C17.3874 34.9318 17.2508 34.7527 17.1571 34.5443C17.0634 34.3343 17.0166 34.0996 17.0166 33.8407C17.0166 33.4936 17.0774 33.2085 17.199 32.9852C17.3206 32.76 17.488 32.5874 17.7013 32.4673C17.9126 32.3472 18.1558 32.2722 18.4309 32.2421V32.9965C18.2794 33.017 18.1468 33.0583 18.0332 33.1202C17.9176 33.1822 17.8279 33.2703 17.7641 33.3848C17.6983 33.4974 17.6654 33.6437 17.6654 33.8238C17.6654 33.9758 17.6973 34.11 17.7611 34.2264C17.8249 34.3426 17.9176 34.4402 18.0392 34.5191C18.1608 34.5978 18.3113 34.6578 18.4907 34.6992C18.6701 34.7385 18.8754 34.7583 19.1067 34.7583H19.3997C19.633 34.7583 19.8402 34.7358 20.0216 34.6907C20.2009 34.6457 20.3525 34.5809 20.4761 34.4966C20.5976 34.4101 20.6904 34.3042 20.7542 34.1785C20.816 34.0509 20.847 33.9065 20.847 33.7451C20.847 33.5987 20.834 33.4776 20.8079 33.382C20.7802 33.2843 20.7473 33.2065 20.7094 33.1483C20.6715 33.0902 20.6346 33.0451 20.5988 33.0133H19.7824V33.8267H19.1813V32.2393Z" fill="white"/>
<path d="M20.7868 28.792H21.4326V30.9704H20.7868V28.792ZM17.0791 30.7339H21.4326V31.5079H17.0791V30.7339ZM18.8761 29.0762H19.5071V30.9704H18.8761V29.0762ZM17.0791 28.8005H17.7279V30.9704H17.0791V28.8005Z" fill="white"/>
<path d="M17.0791 24.9609H21.4326V25.7378L18.4127 27.4798H21.4326V28.2538H17.0791V27.4798L20.1021 25.732H17.0791V24.9609Z" fill="white"/>
<path d="M21.4326 22.9486V23.8323L20.7868 23.8267V22.9486C20.7868 22.7103 20.7309 22.5106 20.6193 22.3492C20.5057 22.1878 20.3432 22.0658 20.1319 21.9834C19.9188 21.9009 19.6635 21.8594 19.3665 21.8594H19.1422C18.913 21.8594 18.7107 21.883 18.5353 21.9299C18.3598 21.9767 18.2123 22.0462 18.0927 22.1381C17.9731 22.2281 17.8824 22.3398 17.8206 22.4731C17.7588 22.6062 17.7279 22.7591 17.7279 22.9317V23.8493H17.0791V22.9317C17.0791 22.6579 17.1279 22.4083 17.2256 22.1831C17.3233 21.9562 17.4638 21.76 17.6472 21.595C17.8286 21.428 18.0459 21.3003 18.299 21.2122C18.5522 21.1222 18.8353 21.0771 19.1481 21.0771H19.3665C19.6774 21.0771 19.9605 21.1222 20.2158 21.2122C20.4689 21.3003 20.6861 21.428 20.8675 21.595C21.0489 21.76 21.1885 21.9571 21.2861 22.186C21.3838 22.4149 21.4326 22.6691 21.4326 22.9486ZM17.0791 23.399H21.4326V24.1729H17.0791V23.399Z" fill="white"/>
<path d="M17.7399 18.8511L21.4326 20.0192V20.8382L17.0791 19.3072V18.7836L17.7399 18.8511ZM21.4326 17.8746L17.7399 19.0482L17.0791 19.1186V18.5923L21.4326 17.0527V17.8746ZM19.815 17.928H20.464V20.126H19.815V17.928Z" fill="white"/>
<path d="M27.1259 33.8545H27.7478V36.6295H27.2157L25.6876 35.2984C25.5202 35.1595 25.3747 35.0498 25.2511 34.9691C25.1275 34.8884 25.0159 34.8311 24.9162 34.7974C24.8146 34.7618 24.718 34.7439 24.6263 34.7439C24.4927 34.7439 24.376 34.7665 24.2763 34.8115C24.1747 34.8565 24.096 34.9221 24.0402 35.0084C23.9843 35.0928 23.9565 35.197 23.9565 35.3209C23.9565 35.4578 23.9904 35.575 24.0582 35.6727C24.1238 35.7683 24.2156 35.8414 24.3331 35.8922C24.4508 35.9409 24.5854 35.9654 24.7369 35.9654V36.7111C24.4797 36.7111 24.2455 36.6549 24.0342 36.5423C23.8209 36.4297 23.6505 36.2683 23.5229 36.0583C23.3953 35.8481 23.3315 35.5985 23.3315 35.3095C23.3315 35.0282 23.3813 34.7899 23.481 34.5946C23.5788 34.3995 23.7183 34.2513 23.8997 34.1501C24.0811 34.0487 24.2974 33.9981 24.5484 33.9981C24.6879 33.9981 24.8255 34.0197 24.9612 34.0627C25.0967 34.1059 25.2312 34.167 25.3648 34.2457C25.4963 34.3226 25.6298 34.4145 25.7655 34.5215C25.901 34.6285 26.0395 34.7475 26.181 34.879L27.1259 35.6782V33.8545Z" fill="white"/>
<path d="M25.1972 30.624H25.9298C26.2646 30.624 26.5507 30.6559 26.7878 30.7197C27.0251 30.7834 27.2195 30.8753 27.3709 30.9954C27.5204 31.1156 27.6312 31.2591 27.7029 31.4261C27.7726 31.5931 27.8074 31.7788 27.8074 31.9832C27.8074 32.1466 27.7856 32.2985 27.7418 32.4393C27.6959 32.58 27.6262 32.7066 27.5324 32.8192C27.4367 32.93 27.3152 33.0256 27.1677 33.1063C27.0201 33.185 26.8437 33.2461 26.6384 33.2891C26.433 33.3306 26.1969 33.3511 25.9298 33.3511H25.1972C24.8623 33.3511 24.5772 33.3192 24.342 33.2555C24.1068 33.1897 23.9145 33.0969 23.765 32.9768C23.6154 32.8567 23.5069 32.7133 23.439 32.5463C23.3693 32.3792 23.3345 32.1934 23.3345 31.989C23.3345 31.8238 23.3563 31.6718 23.4001 31.5329C23.4439 31.3923 23.5128 31.2665 23.6064 31.1559C23.6983 31.0434 23.8179 30.9475 23.9652 30.8688C24.1108 30.7901 24.2861 30.7299 24.4915 30.6887C24.6949 30.6455 24.9301 30.624 25.1972 30.624ZM26.0373 31.367H25.0866C24.9192 31.367 24.7735 31.3764 24.6499 31.3951C24.5244 31.4121 24.4178 31.4373 24.3301 31.4711C24.2423 31.5048 24.1715 31.5472 24.1177 31.5978C24.062 31.6484 24.0211 31.7066 23.9953 31.7723C23.9692 31.8379 23.9564 31.9101 23.9564 31.989C23.9564 32.0864 23.9773 32.1738 24.0192 32.2507C24.059 32.3276 24.1227 32.3923 24.2105 32.4449C24.2982 32.4975 24.4147 32.5378 24.5603 32.5659C24.7039 32.5922 24.8792 32.6054 25.0866 32.6054H26.0373C26.2049 32.6054 26.3513 32.5969 26.4769 32.58C26.6026 32.5613 26.7101 32.535 26.7999 32.5013C26.8896 32.4656 26.9633 32.4233 27.0211 32.3745C27.077 32.3239 27.1189 32.2657 27.1466 32.2001C27.1727 32.1344 27.1855 32.0621 27.1855 31.9832C27.1855 31.8838 27.1646 31.7966 27.1227 31.7215C27.081 31.6446 27.0152 31.5799 26.9254 31.5273C26.8338 31.4749 26.7151 31.4355 26.5697 31.4092C26.4221 31.3811 26.2447 31.367 26.0373 31.367Z" fill="white"/>
<path d="M23.3584 27.9757V27.8745H23.9954V27.9224C23.9954 28.1493 24.0322 28.3491 24.1061 28.5218C24.1797 28.6926 24.2835 28.8351 24.417 28.9496C24.5485 29.0622 24.705 29.1476 24.8864 29.2058C25.0657 29.264 25.2621 29.293 25.4755 29.293H26.181C26.3465 29.293 26.4922 29.2769 26.6177 29.245C26.7413 29.2114 26.8458 29.1654 26.9315 29.1072C27.0154 29.0471 27.0781 28.9777 27.12 28.899C27.162 28.8183 27.1828 28.7301 27.1828 28.6344C27.1828 28.5388 27.162 28.4523 27.12 28.3754C27.0781 28.2985 27.0194 28.2329 26.9436 28.1785C26.8659 28.1221 26.7752 28.08 26.6715 28.0517C26.5678 28.0218 26.4543 28.0067 26.3307 28.0067C26.209 28.0067 26.0964 28.0207 25.9927 28.049C25.889 28.0771 25.7983 28.1184 25.7206 28.1728C25.641 28.2272 25.5801 28.2947 25.5382 28.3754C25.4944 28.4543 25.4724 28.5444 25.4724 28.6456C25.4724 28.7769 25.5053 28.8942 25.5711 28.9974C25.6349 29.1006 25.7187 29.1822 25.8224 29.2423C25.9259 29.3023 26.0356 29.3351 26.1512 29.3409L26.0197 29.5912C25.8501 29.5819 25.6948 29.5482 25.5532 29.49C25.4117 29.4298 25.2881 29.3502 25.1825 29.2508C25.0768 29.1494 24.9951 29.0303 24.9372 28.8933C24.8794 28.7544 24.8505 28.6006 24.8505 28.4318C24.8505 28.2365 24.8905 28.0658 24.9701 27.9195C25.048 27.7732 25.1545 27.6522 25.29 27.5564C25.4257 27.4589 25.582 27.3856 25.7594 27.337C25.9349 27.2882 26.1204 27.2637 26.3157 27.2637C26.5249 27.2637 26.7203 27.2956 26.9017 27.3595C27.0831 27.4213 27.2416 27.5113 27.377 27.6297C27.5127 27.7478 27.6184 27.8905 27.6941 28.0575C27.7699 28.2245 27.8076 28.412 27.8076 28.6204C27.8076 28.8398 27.7638 29.0368 27.6761 29.2114C27.5885 29.3839 27.4668 29.5322 27.3114 29.6561C27.1558 29.7798 26.9744 29.8746 26.7672 29.9403C26.5599 30.0059 26.3356 30.0388 26.0943 30.0388H25.7774C25.4366 30.0388 25.1197 29.9947 24.8265 29.9065C24.5336 29.8184 24.2775 29.688 24.0582 29.5152C23.8368 29.3409 23.6655 29.1251 23.5438 28.868C23.4202 28.611 23.3584 28.3136 23.3584 27.9757Z" fill="white"/>
<path d="M25.2213 25.9375V25.5181C25.2213 25.3699 25.1943 25.248 25.1405 25.1523C25.0846 25.0547 25.009 24.9825 24.9134 24.9356C24.8156 24.8868 24.703 24.8623 24.5754 24.8623C24.4499 24.8623 24.3412 24.8839 24.2495 24.9272C24.1557 24.9702 24.084 25.036 24.0342 25.124C23.9824 25.2105 23.9565 25.3211 23.9565 25.4562C23.9565 25.565 23.9793 25.6655 24.0252 25.7574C24.071 25.8474 24.1368 25.9196 24.2225 25.974C24.3064 26.0266 24.407 26.0529 24.5245 26.0529V26.7987C24.2893 26.7987 24.083 26.7405 23.9056 26.6241C23.7261 26.5059 23.5857 26.3465 23.4841 26.1457C23.3824 25.945 23.3315 25.7208 23.3315 25.4731C23.3315 25.2029 23.3794 24.9664 23.4751 24.7638C23.5686 24.5593 23.7072 24.4008 23.8907 24.2883C24.074 24.1737 24.3014 24.1166 24.5723 24.1166C24.7019 24.1166 24.8315 24.1456 24.9612 24.2038C25.0886 24.2602 25.2042 24.3436 25.308 24.4543C25.4096 24.5631 25.4924 24.6973 25.5562 24.8567C25.618 25.0143 25.6488 25.1954 25.6488 25.4V25.9375H25.2213ZM25.8311 25.9375H25.4096V25.4C25.4096 25.1691 25.4385 24.9693 25.4963 24.8005C25.5521 24.6298 25.6319 24.4889 25.7355 24.3783C25.8373 24.2675 25.9557 24.1859 26.0914 24.1334C26.2269 24.079 26.3723 24.0518 26.5279 24.0518C26.7313 24.0518 26.9125 24.0874 27.0721 24.1588C27.2296 24.2301 27.3632 24.3304 27.4727 24.4599C27.5823 24.5874 27.6661 24.7377 27.7239 24.9102C27.7798 25.0828 27.8075 25.2696 27.8075 25.4702C27.8075 25.6448 27.7827 25.8146 27.7329 25.9796C27.6811 26.143 27.6043 26.2902 27.5027 26.4217C27.399 26.553 27.2694 26.6571 27.114 26.734C26.9566 26.8109 26.774 26.8493 26.5667 26.8493V26.1036C26.6863 26.1036 26.7929 26.0764 26.8867 26.022C26.9805 25.9656 27.0542 25.8887 27.1079 25.7912C27.1598 25.6916 27.1856 25.5801 27.1856 25.4562C27.1856 25.3193 27.1598 25.202 27.1079 25.1044C27.0542 25.005 26.9784 24.929 26.8808 24.8764C26.7811 24.8239 26.6624 24.7977 26.5248 24.7977C26.3614 24.7977 26.2288 24.8267 26.1272 24.8848C26.0256 24.943 25.9507 25.0266 25.9029 25.1354C25.8551 25.2424 25.8311 25.3699 25.8311 25.5181V25.9375Z" fill="white"/>
</svg>
