<?xml version="1.0" encoding="UTF-8"?>
<svg width="240px" height="60px" viewBox="0 0 240 60" version="1.1" xmlns="http://www.w3.org/2000/svg" xmlns:xlink="http://www.w3.org/1999/xlink">
    <!-- Generator: Sketch 55.2 (78181) - https://sketchapp.com -->
    <title>Artboard</title>
    <desc>Created with Sketch.</desc>
    <g id="Artboard" stroke="none" stroke-width="1" fill="none" fill-rule="evenodd">
        <g id="Group-2" transform="translate(7.000000, 3.000000)" fill-rule="nonzero">
            <g id="GT-logo-tanzania">
                <g id="Group">
                    <rect id="Rectangle" fill-opacity="0" fill="#D8D8D8" x="0" y="0" width="96" height="60"></rect>
                    <circle id="Oval" fill="#E5243B" cx="45" cy="29.9" r="7.4"></circle>
                    <circle id="Oval-Copy" fill="#56C02B" cx="23.95" cy="7.55" r="4.35"></circle>
                    <circle id="Oval-Copy-7" fill="#DD1367" cx="26.65" cy="39.15" r="3.95"></circle>
                    <circle id="Oval-Copy-8" fill="#FCC30B" cx="76.35" cy="24.65" r="2.55"></circle>
                    <circle id="Oval-Copy-9" fill="#FD6925" cx="66.55" cy="31.15" r="3.75"></circle>
                    <circle id="Oval-Copy-8" fill="#A21942" cx="59.3" cy="36.5" r="1.9"></circle>
                    <circle id="Oval-Copy-5" fill="#DDA63A" cx="66.75" cy="44.65" r="5.05"></circle>
                    <circle id="Oval-Copy-3" fill="#C5192D" cx="87.35" cy="30.15" r="3.75"></circle>
                    <circle id="Oval-Copy-2" fill="#4C9F38" cx="44.95" cy="43.35" r="2.55"></circle>
                    <circle id="Oval-Copy-13" fill="#0A97D9" cx="54.25" cy="20.55" r="2.55"></circle>
                    <circle id="Oval-Copy-14" fill="#00689D" cx="43.75" cy="11.35" r="5.05"></circle>
                    <circle id="Oval-Copy-12" fill="#3F7E44" cx="30.2" cy="27.9" r="3.1"></circle>
                    <circle id="Oval-Copy-11" fill="#BF8B2E" cx="36.15" cy="49.35" r="2.55"></circle>
                    <circle id="Oval-Copy-10" fill="#FD9D24" cx="19.2" cy="28.9" r="1.9"></circle>
                    <circle id="Oval-Copy-15" fill="#19486A" cx="34.05" cy="40.85" r="1.85"></circle>
                    <circle id="Oval-Copy-6" fill="#26BDE2" cx="9.15" cy="40.65" r="5.05"></circle>
                    <circle id="Oval-Copy-4" fill="#FF3A21" cx="60.15" cy="8.85" r="2.15"></circle>
                </g>
                <path d="M104.565,24.84 L104.565,22.14 L109.425,22.14 L109.425,33 L106.965,33 L106.965,30.78 C106.515,32.31 105.555,33.24 103.695,33.24 C100.755,33.24 99.405,30.9 99.405,27.75 L99.405,17.91 C99.405,14.73 100.935,12.42 104.535,12.42 C108.315,12.42 109.425,14.52 109.425,17.52 L109.425,19.32 L106.305,19.32 L106.305,17.25 C106.305,15.99 105.825,15.27 104.595,15.27 C103.365,15.27 102.825,16.14 102.825,17.37 L102.825,28.29 C102.825,29.52 103.335,30.39 104.505,30.39 C105.615,30.39 106.185,29.76 106.185,28.44 L106.185,24.84 L104.565,24.84 Z M115.585,30.39 C116.815,30.39 117.355,29.52 117.355,28.29 L117.355,17.37 C117.355,16.14 116.815,15.27 115.585,15.27 C114.385,15.27 113.845,16.14 113.845,17.37 L113.845,28.29 C113.845,29.52 114.385,30.39 115.585,30.39 Z M115.585,33.24 C111.985,33.24 110.425,30.9 110.425,27.75 L110.425,17.91 C110.425,14.73 111.985,12.42 115.585,12.42 C119.215,12.42 120.775,14.73 120.775,17.91 L120.775,27.75 C120.775,30.9 119.215,33.24 115.585,33.24 Z M124.025,33 L120.785,33 L124.625,12.66 L128.525,12.66 L132.395,33 L128.885,33 L128.255,29.28 L124.625,29.28 L124.025,33 Z M126.425,18.39 L125.075,26.55 L127.805,26.55 L126.455,18.39 L126.425,18.39 Z M132.855,33 L132.855,12.66 L136.275,12.66 L136.275,30.21 L140.355,30.21 L140.355,33 L132.855,33 Z M142.775,15.45 L142.775,12.66 L151.865,12.66 L151.865,15.45 L149.045,15.45 L149.045,33 L145.595,33 L145.595,15.45 L142.775,15.45 Z M159.135,33 L155.925,23.67 L155.925,33 L152.505,33 L152.505,12.66 L157.485,12.66 C160.935,12.66 162.195,14.37 162.195,17.22 L162.195,19.83 C162.195,22.02 161.415,23.31 159.465,23.76 L162.735,33 L159.135,33 Z M157.065,15.45 L155.925,15.45 L155.925,21.78 L157.065,21.78 C158.235,21.78 158.745,21.18 158.745,20.1 L158.745,17.1 C158.745,15.99 158.235,15.45 157.065,15.45 Z M165.805,33 L162.565,33 L166.405,12.66 L170.305,12.66 L174.175,33 L170.665,33 L170.035,29.28 L166.405,29.28 L165.805,33 Z M168.205,18.39 L166.855,26.55 L169.585,26.55 L168.235,18.39 L168.205,18.39 Z M179.285,33.24 C175.685,33.24 174.185,30.9 174.185,27.75 L174.185,17.91 C174.185,14.73 175.685,12.42 179.285,12.42 C183.065,12.42 184.115,14.52 184.115,17.52 L184.115,19.92 L180.995,19.92 L180.995,17.25 C180.995,15.99 180.575,15.27 179.345,15.27 C178.115,15.27 177.605,16.14 177.605,17.37 L177.605,28.29 C177.605,29.52 178.115,30.39 179.345,30.39 C180.575,30.39 180.995,29.61 180.995,28.41 L180.995,24.66 L184.115,24.66 L184.115,28.17 C184.115,31.08 182.915,33.24 179.285,33.24 Z M192.015,33 L188.445,23.1 L188.445,33 L185.025,33 L185.025,12.66 L188.445,12.66 L188.445,21.6 L192.165,12.66 L195.525,12.66 L191.565,21.81 L195.615,33 L192.015,33 Z M195.955,33 L195.955,12.66 L204.115,12.66 L204.115,15.45 L199.375,15.45 L199.375,21.27 L202.765,21.27 L202.765,24.03 L199.375,24.03 L199.375,30.21 L204.115,30.21 L204.115,33 L195.955,33 Z M211.625,33 L208.415,23.67 L208.415,33 L204.995,33 L204.995,12.66 L209.975,12.66 C213.425,12.66 214.685,14.37 214.685,17.22 L214.685,19.83 C214.685,22.02 213.905,23.31 211.955,23.76 L215.225,33 L211.625,33 Z M209.555,15.45 L208.415,15.45 L208.415,21.78 L209.555,21.78 C210.725,21.78 211.235,21.18 211.235,20.1 L211.235,17.1 C211.235,15.99 210.725,15.45 209.555,15.45 Z" id="GOALTRACKER" fill="#000000"></path>
            </g>
            <path d="M130.64,42.86 C130.946668,42.86 131.176666,42.9299993 131.33,43.07 C131.483334,43.2100007 131.56,43.3933322 131.56,43.62 C131.56,43.820001 131.500001,43.9899993 131.38,44.13 C131.259999,44.2700007 131.100001,44.34 130.9,44.34 C130.833333,44.34 130.756667,44.3233335 130.67,44.29 C130.583333,44.2566665 130.52,44.206667 130.48,44.14 C130.333333,44.3000008 130.236667,44.4933322 130.19,44.72 C130.143333,44.9466678 130.12,45.1866654 130.12,45.44 C130.12,45.7866684 130.203332,46.1199984 130.37,46.44 C130.536668,46.76 130.776665,47.0399988 131.09,47.28 C131.403335,47.5200012 131.779998,47.7133326 132.22,47.86 C132.660002,48.0066674 133.146664,48.08 133.68,48.08 C134.586671,48.08 135.35333,47.8733354 135.98,47.46 C136.60667,47.0466646 137.113331,46.5166699 137.5,45.87 C137.886669,45.2233301 138.166666,44.5066706 138.34,43.72 C138.513334,42.9333294 138.606667,42.173337 138.62,41.44 C138.633333,40.2533274 138.749999,39.1866714 138.97,38.24 C139.190001,37.2933286 139.503331,36.4900033 139.91,35.83 C140.316669,35.1699967 140.82333,34.6600018 141.43,34.3 C142.03667,33.9399982 142.733329,33.76 143.52,33.76 C144.22667,33.76 144.799998,33.9299983 145.24,34.27 C145.680002,34.6100017 145.9,35.0533306 145.9,35.6 C145.9,36.0266688 145.750001,36.3466656 145.45,36.56 C145.149999,36.7733344 144.793335,36.88 144.38,36.88 C144.526667,36.6533322 144.636666,36.4333344 144.71,36.22 C144.783334,36.0066656 144.82,35.7400016 144.82,35.42 C144.82,34.9399976 144.680001,34.5833345 144.4,34.35 C144.119999,34.1166655 143.786669,34 143.4,34 C142.879997,34 142.436668,34.1033323 142.07,34.31 C141.703331,34.5166677 141.393335,34.7999982 141.14,35.16 C140.886665,35.5200018 140.683334,35.9399976 140.53,36.42 C140.376666,36.9000024 140.253334,37.4099973 140.16,37.95 C140.066666,38.4900027 139.996667,39.0466638 139.95,39.62 C139.903333,40.1933362 139.86,40.76 139.82,41.32 C139.726666,42.6933402 139.483335,43.8299955 139.09,44.73 C138.696665,45.6300045 138.213336,46.346664 137.64,46.88 C137.066664,47.413336 136.42667,47.7866656 135.72,48 C135.01333,48.2133344 134.28667,48.32 133.54,48.32 C132.939997,48.32 132.390003,48.2233343 131.89,48.03 C131.389997,47.8366657 130.960002,47.5700017 130.6,47.23 C130.239998,46.8899983 129.963334,46.486669 129.77,46.02 C129.576666,45.553331 129.48,45.0400028 129.48,44.48 C129.48,44.013331 129.586666,43.6266682 129.8,43.32 C130.013334,43.0133318 130.293332,42.86 130.64,42.86 Z M145.82,41.12 C145.259997,41.8933372 144.746669,42.5699971 144.28,43.15 C143.813331,43.7300029 143.413335,44.2499977 143.08,44.71 C142.746665,45.1700023 142.490001,45.5899981 142.31,45.97 C142.129999,46.3500019 142.04,46.7199982 142.04,47.08 C142.04,47.6400028 142.273331,47.92 142.74,47.92 C143.180002,47.92 143.646664,47.7233353 144.14,47.33 C144.633336,46.9366647 145.136664,46.4200032 145.65,45.78 C146.163336,45.1399968 146.689997,44.4133374 147.23,43.6 C147.770003,42.7866626 148.306664,41.96 148.84,41.12 L150.22,41.12 C149.979999,41.4400016 149.670002,41.8599974 149.29,42.38 C148.909998,42.9000026 148.533335,43.4433305 148.16,44.01 C147.786665,44.5766695 147.466668,45.1299973 147.2,45.67 C146.933332,46.2100027 146.8,46.6666648 146.8,47.04 C146.8,47.306668 146.869999,47.5199992 147.01,47.68 C147.150001,47.8400008 147.353332,47.92 147.62,47.92 C148.100002,47.92 148.606664,47.7400018 149.14,47.38 C149.673336,47.0199982 150.169998,46.5633361 150.63,46.01 C151.090002,45.4566639 151.479998,44.8533366 151.8,44.2 C152.120002,43.5466634 152.306666,42.9333362 152.36,42.36 C152.266666,42.226666 152.203333,42.093334 152.17,41.96 C152.136666,41.826666 152.12,41.7066672 152.12,41.6 C152.12,41.1733312 152.319998,40.96 152.72,40.96 C153.000001,40.96 153.189999,41.0799988 153.29,41.32 C153.39,41.5600012 153.44,41.8533316 153.44,42.2 C153.44,42.3733342 153.426667,42.5433325 153.4,42.71 C153.373333,42.8766675 153.346667,43.0333326 153.32,43.18 C153.493334,43.3400008 153.696665,43.4899993 153.93,43.63 C154.163335,43.7700007 154.459998,43.84 154.82,43.84 C155.300002,43.84 155.706665,43.7433343 156.04,43.55 C156.373335,43.3566657 156.633332,43.0866684 156.82,42.74 L157,42.86 C156.546664,43.6733374 155.806672,44.08 154.78,44.08 C154.486665,44.08 154.210001,44.0233339 153.95,43.91 C153.689999,43.7966661 153.460001,43.6466676 153.26,43.46 C153.046666,44.0200028 152.720002,44.5766639 152.28,45.13 C151.839998,45.6833361 151.346669,46.1866644 150.8,46.64 C150.253331,47.0933356 149.683336,47.46 149.09,47.74 C148.496664,48.0200014 147.940003,48.16 147.42,48.16 C146.979998,48.16 146.606668,48.0400012 146.3,47.8 C145.993332,47.5599988 145.84,47.206669 145.84,46.74 C145.84,46.4866654 145.873333,46.2633343 145.94,46.07 C146.006667,45.8766657 146.053333,45.7333338 146.08,45.64 L146.04,45.6 C145.773332,45.9466684 145.500001,46.2766651 145.22,46.59 C144.939999,46.9033349 144.656668,47.1766655 144.37,47.41 C144.083332,47.6433345 143.793335,47.826666 143.5,47.96 C143.206665,48.093334 142.906668,48.16 142.6,48.16 C142.093331,48.16 141.713335,48.0300013 141.46,47.77 C141.206665,47.5099987 141.08,47.1600022 141.08,46.72 C141.08,46.3999984 141.159999,46.0633351 141.32,45.71 C141.480001,45.3566649 141.706665,44.9566689 142,44.51 C142.293335,44.0633311 142.649998,43.5633361 143.07,43.01 C143.490002,42.4566639 143.966664,41.8266702 144.5,41.12 L145.82,41.12 Z M160.46,41.76 C160.46,41.5733324 160.410001,41.4333338 160.31,41.34 C160.21,41.2466662 160.086667,41.2 159.94,41.2 C159.659999,41.2 159.356668,41.3099989 159.03,41.53 C158.703332,41.7500011 158.380002,42.0233317 158.06,42.35 C157.739998,42.6766683 157.450001,43.0266648 157.19,43.4 C156.929999,43.7733352 156.733334,44.1066652 156.6,44.4 C156.893335,44.3466664 157.259998,44.2433341 157.7,44.09 C158.140002,43.9366659 158.563331,43.7466678 158.97,43.52 C159.376669,43.2933322 159.726665,43.0300015 160.02,42.73 C160.313335,42.4299985 160.46,42.1066684 160.46,41.76 Z M163.7,42.82 C163.499999,43.153335 163.250001,43.519998 162.95,43.92 C162.649999,44.320002 162.310002,44.7166647 161.93,45.11 C161.549998,45.5033353 161.143336,45.8833315 160.71,46.25 C160.276665,46.6166685 159.826669,46.9433319 159.36,47.23 C158.893331,47.5166681 158.423336,47.7433325 157.95,47.91 C157.476664,48.0766675 157.013336,48.16 156.56,48.16 C155.999997,48.16 155.566668,48.0166681 155.26,47.73 C154.953332,47.4433319 154.8,47.033336 154.8,46.5 C154.8,45.9133304 154.976665,45.2966699 155.33,44.65 C155.683335,44.0033301 156.133331,43.4066694 156.68,42.86 C157.226669,42.3133306 157.826663,41.8600018 158.48,41.5 C159.133337,41.1399982 159.759997,40.96 160.36,40.96 C160.693335,40.96 160.953332,41.0299993 161.14,41.17 C161.326668,41.3100007 161.42,41.513332 161.42,41.78 C161.42,42.1000016 161.246668,42.4099985 160.9,42.71 C160.553332,43.0100015 160.130002,43.2833321 159.63,43.53 C159.129998,43.7766679 158.593336,43.9966657 158.02,44.19 C157.446664,44.3833343 156.940002,44.5266662 156.5,44.62 C156.353333,44.886668 156.233334,45.186665 156.14,45.52 C156.046666,45.853335 156,46.186665 156,46.52 C156,46.6800008 156.016666,46.8366659 156.05,46.99 C156.083334,47.1433341 156.136666,47.2833327 156.21,47.41 C156.283334,47.5366673 156.383333,47.6399996 156.51,47.72 C156.636667,47.8000004 156.793332,47.84 156.98,47.84 C157.420002,47.84 157.936664,47.6966681 158.53,47.41 C159.123336,47.1233319 159.726664,46.7400024 160.34,46.26 C160.953336,45.7799976 161.539997,45.2333364 162.1,44.62 C162.660003,44.0066636 163.139998,43.3733366 163.54,42.72 L163.7,42.82 Z M174.66,34.16 C174.139997,34.9866708 173.573336,35.8599954 172.96,36.78 C172.346664,37.7000046 171.733336,38.6133288 171.12,39.52 C170.506664,40.4266712 169.91667,41.3033291 169.35,42.15 C168.783331,42.9966709 168.280002,43.7733298 167.84,44.48 C167.399998,45.1866702 167.050001,45.7966641 166.79,46.31 C166.529999,46.8233359 166.4,47.1999988 166.4,47.44 C166.4,47.5866674 166.436666,47.7033329 166.51,47.79 C166.583334,47.8766671 166.693333,47.92 166.84,47.92 C167.173335,47.92 167.553331,47.786668 167.98,47.52 C168.406669,47.253332 168.919997,46.8333362 169.52,46.26 C170.040003,45.7533308 170.546664,45.1900031 171.04,44.57 C171.533336,43.9499969 171.959998,43.340003 172.32,42.74 L172.48,42.82 C172.359999,43.0333344 172.203334,43.2833319 172.01,43.57 C171.816666,43.8566681 171.603335,44.1533318 171.37,44.46 C171.136665,44.7666682 170.886668,45.0766651 170.62,45.39 C170.353332,45.7033349 170.080001,45.9999986 169.8,46.28 C169.266664,46.8266694 168.740003,47.2766649 168.22,47.63 C167.699997,47.9833351 167.220002,48.16 166.78,48.16 C166.353331,48.16 166.036668,48.0700009 165.83,47.89 C165.623332,47.7099991 165.52,47.4800014 165.52,47.2 C165.52,46.9466654 165.573333,46.7000012 165.68,46.46 C165.786667,46.2199988 165.893333,46.0066676 166,45.82 L165.96,45.8 C165.746666,46.0400012 165.510001,46.2966653 165.25,46.57 C164.989999,46.8433347 164.713335,47.0999988 164.42,47.34 C164.126665,47.5800012 163.816668,47.7766659 163.49,47.93 C163.163332,48.0833341 162.826668,48.16 162.48,48.16 C161.999998,48.16 161.630001,48.0133348 161.37,47.72 C161.109999,47.4266652 160.98,47.080002 160.98,46.68 C160.98,46.1199972 161.173331,45.50667 161.56,44.84 C161.946669,44.17333 162.429997,43.5533362 163.01,42.98 C163.590003,42.4066638 164.21333,41.9266686 164.88,41.54 C165.54667,41.1533314 166.166664,40.96 166.74,40.96 C167.166669,40.96 167.506665,41.093332 167.76,41.36 C168.013335,41.626668 168.133333,41.9666646 168.12,42.38 L168.18,42.38 L173.34,34.16 L174.66,34.16 Z M167.56,42.4 C167.56,42.0799984 167.506667,41.8000012 167.4,41.56 C167.293333,41.3199988 167.046669,41.2 166.66,41.2 C166.393332,41.2 166.096668,41.2933324 165.77,41.48 C165.443332,41.6666676 165.113335,41.9133318 164.78,42.22 C164.446665,42.5266682 164.123335,42.8766647 163.81,43.27 C163.496665,43.6633353 163.220001,44.0633313 162.98,44.47 C162.739999,44.8766687 162.546667,45.2733314 162.4,45.66 C162.253333,46.0466686 162.18,46.3933318 162.18,46.7 C162.18,46.9800014 162.233333,47.2133324 162.34,47.4 C162.446667,47.5866676 162.639999,47.68 162.92,47.68 C163.160001,47.68 163.436665,47.5866676 163.75,47.4 C164.063335,47.2133324 164.393332,46.9700015 164.74,46.67 C165.086668,46.3699985 165.426665,46.0266686 165.76,45.64 C166.093335,45.2533314 166.393332,44.8666686 166.66,44.48 C166.926668,44.0933314 167.143332,43.7166685 167.31,43.35 C167.476668,42.9833315 167.56,42.666668 167.56,42.4 Z M176,41.76 C176,41.5733324 175.95,41.4333338 175.85,41.34 C175.75,41.2466662 175.626667,41.2 175.48,41.2 C175.199999,41.2 174.896668,41.3099989 174.57,41.53 C174.243332,41.7500011 173.920002,42.0233317 173.6,42.35 C173.279998,42.6766683 172.990001,43.0266648 172.73,43.4 C172.469999,43.7733352 172.273334,44.1066652 172.14,44.4 C172.433335,44.3466664 172.799998,44.2433341 173.24,44.09 C173.680002,43.9366659 174.103331,43.7466678 174.51,43.52 C174.916669,43.2933322 175.266665,43.0300015 175.56,42.73 C175.853335,42.4299985 176,42.1066684 176,41.76 Z M179.24,42.82 C179.039999,43.153335 178.790002,43.519998 178.49,43.92 C178.189999,44.320002 177.850002,44.7166647 177.47,45.11 C177.089998,45.5033353 176.683335,45.8833315 176.25,46.25 C175.816665,46.6166685 175.366669,46.9433319 174.9,47.23 C174.433331,47.5166681 173.963336,47.7433325 173.49,47.91 C173.016664,48.0766675 172.553336,48.16 172.1,48.16 C171.539997,48.16 171.106668,48.0166681 170.8,47.73 C170.493332,47.4433319 170.34,47.033336 170.34,46.5 C170.34,45.9133304 170.516665,45.2966699 170.87,44.65 C171.223335,44.0033301 171.673331,43.4066694 172.22,42.86 C172.766669,42.3133306 173.366663,41.8600018 174.02,41.5 C174.673337,41.1399982 175.299997,40.96 175.9,40.96 C176.233335,40.96 176.493332,41.0299993 176.68,41.17 C176.866668,41.3100007 176.96,41.513332 176.96,41.78 C176.96,42.1000016 176.786668,42.4099985 176.44,42.71 C176.093332,43.0100015 175.670003,43.2833321 175.17,43.53 C174.669998,43.7766679 174.133336,43.9966657 173.56,44.19 C172.986664,44.3833343 172.480002,44.5266662 172.04,44.62 C171.893333,44.886668 171.773334,45.186665 171.68,45.52 C171.586666,45.853335 171.54,46.186665 171.54,46.52 C171.54,46.6800008 171.556667,46.8366659 171.59,46.99 C171.623334,47.1433341 171.676666,47.2833327 171.75,47.41 C171.823334,47.5366673 171.923333,47.6399996 172.05,47.72 C172.176667,47.8000004 172.333332,47.84 172.52,47.84 C172.960002,47.84 173.476664,47.6966681 174.07,47.41 C174.663336,47.1233319 175.266664,46.7400024 175.88,46.26 C176.493336,45.7799976 177.079997,45.2333364 177.64,44.62 C178.200003,44.0066636 178.679998,43.3733366 179.08,42.72 L179.24,42.82 Z M181.06,41.12 L178.42,44.78 L178.46,44.82 C178.740001,44.486665 179.066665,44.0966689 179.44,43.65 C179.813335,43.2033311 180.213331,42.780002 180.64,42.38 C181.066669,41.979998 181.509998,41.6433347 181.97,41.37 C182.430002,41.0966653 182.886664,40.96 183.34,40.96 C183.740002,40.96 184.049999,41.0699989 184.27,41.29 C184.490001,41.5100011 184.6,41.7933316 184.6,42.14 C184.6,42.3533344 184.523334,42.6066652 184.37,42.9 C184.216666,43.1933348 184.026668,43.506665 183.8,43.84 C183.573332,44.173335 183.326668,44.5133316 183.06,44.86 C182.793332,45.2066684 182.546668,45.5366651 182.32,45.85 C182.093332,46.1633349 181.903334,46.4499987 181.75,46.71 C181.596666,46.9700013 181.52,47.1866658 181.52,47.36 C181.52,47.7333352 181.706665,47.92 182.08,47.92 C182.506669,47.92 182.959998,47.7766681 183.44,47.49 C183.92,47.2033319 184.49333,46.7200034 185.16,46.04 C185.426668,45.773332 185.696665,45.4800016 185.97,45.16 C186.243335,44.8399984 186.506665,44.5233349 186.76,44.21 C187.013335,43.8966651 187.243332,43.6000014 187.45,43.32 C187.656668,43.0399986 187.819999,42.8066676 187.94,42.62 L188.08,42.7 C187.813332,43.100002 187.470002,43.5766639 187.05,44.13 C186.629998,44.6833361 186.173336,45.226664 185.68,45.76 C185.386665,46.0800016 185.086668,46.3866652 184.78,46.68 C184.473332,46.9733348 184.166668,47.2299989 183.86,47.45 C183.553332,47.6700011 183.250001,47.8433327 182.95,47.97 C182.649998,48.0966673 182.353335,48.16 182.06,48.16 C181.673331,48.16 181.353335,48.0533344 181.1,47.84 C180.846665,47.6266656 180.72,47.3333352 180.72,46.96 C180.72,46.559998 180.879998,46.1233357 181.2,45.65 C181.520002,45.1766643 181.873331,44.7000024 182.26,44.22 C182.646669,43.7399976 182.999998,43.2800022 183.32,42.84 C183.640002,42.3999978 183.8,42.013335 183.8,41.68 C183.8,41.5199992 183.746667,41.4000004 183.64,41.32 C183.533333,41.2399996 183.393334,41.2 183.22,41.2 C182.886665,41.2 182.513335,41.3233321 182.1,41.57 C181.686665,41.8166679 181.263335,42.1433313 180.83,42.55 C180.396664,42.9566687 179.963336,43.4099975 179.53,43.91 C179.096664,44.4100025 178.693335,44.9099975 178.32,45.41 C177.946665,45.9100025 177.613335,46.3899977 177.32,46.85 C177.026665,47.3100023 176.806667,47.6933318 176.66,48 L175.42,48 C175.766668,47.4133304 176.136665,46.8166697 176.53,46.21 C176.923335,45.6033303 177.313331,45.0033363 177.7,44.41 C178.086669,43.8166637 178.456665,43.2433361 178.81,42.69 C179.163335,42.1366639 179.479999,41.6333356 179.76,41.18 L181.06,41.12 Z" id="Sweden" fill="#757575"></path>
        </g>
    </g>
</svg>