<?xml version="1.0" encoding="UTF-8"?>
<svg width="220px" height="60px" viewBox="0 0 220 60" version="1.1" xmlns="http://www.w3.org/2000/svg" xmlns:xlink="http://www.w3.org/1999/xlink">
    <!-- Generator: Sketch 61 (89581) - https://sketch.com -->
    <title>Group 2 Copy</title>
    <desc>Created with Sketch.</desc>
    <g id="Page-1" stroke="none" stroke-width="1" fill="none" fill-rule="evenodd">
        <g id="Group-2-Copy" transform="translate(-4.000000, -3.000000)" fill-rule="nonzero">
            <g id="GT-logo-tanzania-Copy">
                <g id="Group">
                    <rect id="Rectangle" fill-opacity="0" fill="#D8D8D8" x="0" y="0" width="96" height="60"></rect>
                    <circle id="Oval" fill="#E5243B" cx="45" cy="29.9" r="7.4"></circle>
                    <circle id="Oval-Copy" fill="#56C02B" cx="23.95" cy="7.55" r="4.35"></circle>
                    <circle id="Oval-Copy-7" fill="#DD1367" cx="26.65" cy="39.15" r="3.95"></circle>
                    <circle id="Oval-Copy-8" fill="#FCC30B" cx="76.35" cy="24.65" r="2.55"></circle>
                    <circle id="Oval-Copy-9" fill="#FD6925" cx="66.55" cy="31.15" r="3.75"></circle>
                    <circle id="Oval-Copy-8" fill="#A21942" cx="59.3" cy="36.5" r="1.9"></circle>
                    <circle id="Oval-Copy-5" fill="#DDA63A" cx="66.75" cy="44.65" r="5.05"></circle>
                    <circle id="Oval-Copy-3" fill="#C5192D" cx="87.35" cy="30.15" r="3.75"></circle>
                    <circle id="Oval-Copy-2" fill="#4C9F38" cx="44.95" cy="43.35" r="2.55"></circle>
                    <circle id="Oval-Copy-13" fill="#0A97D9" cx="54.25" cy="20.55" r="2.55"></circle>
                    <circle id="Oval-Copy-14" fill="#00689D" cx="43.75" cy="11.35" r="5.05"></circle>
                    <circle id="Oval-Copy-12" fill="#3F7E44" cx="30.2" cy="27.9" r="3.1"></circle>
                    <circle id="Oval-Copy-11" fill="#BF8B2E" cx="36.15" cy="49.35" r="2.55"></circle>
                    <circle id="Oval-Copy-10" fill="#FD9D24" cx="19.2" cy="28.9" r="1.9"></circle>
                    <circle id="Oval-Copy-15" fill="#19486A" cx="34.05" cy="40.85" r="1.85"></circle>
                    <circle id="Oval-Copy-6" fill="#26BDE2" cx="9.15" cy="40.65" r="5.05"></circle>
                    <circle id="Oval-Copy-4" fill="#FF3A21" cx="60.15" cy="8.85" r="2.15"></circle>
                </g>
                <path d="M104.565,24.84 L104.565,22.14 L109.425,22.14 L109.425,33 L106.965,33 L106.965,30.78 C106.515,32.31 105.555,33.24 103.695,33.24 C100.755,33.24 99.405,30.9 99.405,27.75 L99.405,17.91 C99.405,14.73 100.935,12.42 104.535,12.42 C108.315,12.42 109.425,14.52 109.425,17.52 L109.425,19.32 L106.305,19.32 L106.305,17.25 C106.305,15.99 105.825,15.27 104.595,15.27 C103.365,15.27 102.825,16.14 102.825,17.37 L102.825,28.29 C102.825,29.52 103.335,30.39 104.505,30.39 C105.615,30.39 106.185,29.76 106.185,28.44 L106.185,24.84 L104.565,24.84 Z M115.585,30.39 C116.815,30.39 117.355,29.52 117.355,28.29 L117.355,17.37 C117.355,16.14 116.815,15.27 115.585,15.27 C114.385,15.27 113.845,16.14 113.845,17.37 L113.845,28.29 C113.845,29.52 114.385,30.39 115.585,30.39 Z M115.585,33.24 C111.985,33.24 110.425,30.9 110.425,27.75 L110.425,17.91 C110.425,14.73 111.985,12.42 115.585,12.42 C119.215,12.42 120.775,14.73 120.775,17.91 L120.775,27.75 C120.775,30.9 119.215,33.24 115.585,33.24 Z M124.025,33 L120.785,33 L124.625,12.66 L128.525,12.66 L132.395,33 L128.885,33 L128.255,29.28 L124.625,29.28 L124.025,33 Z M126.425,18.39 L125.075,26.55 L127.805,26.55 L126.455,18.39 L126.425,18.39 Z M132.855,33 L132.855,12.66 L136.275,12.66 L136.275,30.21 L140.355,30.21 L140.355,33 L132.855,33 Z M142.775,15.45 L142.775,12.66 L151.865,12.66 L151.865,15.45 L149.045,15.45 L149.045,33 L145.595,33 L145.595,15.45 L142.775,15.45 Z M159.135,33 L155.925,23.67 L155.925,33 L152.505,33 L152.505,12.66 L157.485,12.66 C160.935,12.66 162.195,14.37 162.195,17.22 L162.195,19.83 C162.195,22.02 161.415,23.31 159.465,23.76 L162.735,33 L159.135,33 Z M157.065,15.45 L155.925,15.45 L155.925,21.78 L157.065,21.78 C158.235,21.78 158.745,21.18 158.745,20.1 L158.745,17.1 C158.745,15.99 158.235,15.45 157.065,15.45 Z M165.805,33 L162.565,33 L166.405,12.66 L170.305,12.66 L174.175,33 L170.665,33 L170.035,29.28 L166.405,29.28 L165.805,33 Z M168.205,18.39 L166.855,26.55 L169.585,26.55 L168.235,18.39 L168.205,18.39 Z M179.285,33.24 C175.685,33.24 174.185,30.9 174.185,27.75 L174.185,17.91 C174.185,14.73 175.685,12.42 179.285,12.42 C183.065,12.42 184.115,14.52 184.115,17.52 L184.115,19.92 L180.995,19.92 L180.995,17.25 C180.995,15.99 180.575,15.27 179.345,15.27 C178.115,15.27 177.605,16.14 177.605,17.37 L177.605,28.29 C177.605,29.52 178.115,30.39 179.345,30.39 C180.575,30.39 180.995,29.61 180.995,28.41 L180.995,24.66 L184.115,24.66 L184.115,28.17 C184.115,31.08 182.915,33.24 179.285,33.24 Z M192.015,33 L188.445,23.1 L188.445,33 L185.025,33 L185.025,12.66 L188.445,12.66 L188.445,21.6 L192.165,12.66 L195.525,12.66 L191.565,21.81 L195.615,33 L192.015,33 Z M195.955,33 L195.955,12.66 L204.115,12.66 L204.115,15.45 L199.375,15.45 L199.375,21.27 L202.765,21.27 L202.765,24.03 L199.375,24.03 L199.375,30.21 L204.115,30.21 L204.115,33 L195.955,33 Z M211.625,33 L208.415,23.67 L208.415,33 L204.995,33 L204.995,12.66 L209.975,12.66 C213.425,12.66 214.685,14.37 214.685,17.22 L214.685,19.83 C214.685,22.02 213.905,23.31 211.955,23.76 L215.225,33 L211.625,33 Z M209.555,15.45 L208.415,15.45 L208.415,21.78 L209.555,21.78 C210.725,21.78 211.235,21.18 211.235,20.1 L211.235,17.1 C211.235,15.99 210.725,15.45 209.555,15.45 Z" id="GOALTRACKER" fill="#000000"></path>
            </g>
            <path d="M95.38,50.182 C96.446,50.182 97.3126667,49.8526667 97.98,49.194 C98.5173333,48.6653333 99.1543333,47.4693333 99.891,45.606 L99.891,45.606 L101.074,42.629 C101.247333,42.187 101.351333,41.9183333 101.386,41.823 C101.481333,41.5456667 101.568,41.3745 101.646,41.3095 C101.724,41.2445 101.884333,41.212 102.127,41.212 C102.231,41.212 102.309,41.2163333 102.361,41.225 L102.361,41.225 L102.517,41.225 C102.664333,41.225 102.738,41.186 102.738,41.108 C102.738,41.056 102.694667,41.03 102.608,41.03 C102.512667,41.03 102.426,41.0343333 102.348,41.043 L102.348,41.043 L100.567,41.03 L100.372,41.03 C100.233333,41.03 100.164,41.0646667 100.164,41.134 C100.164,41.1946667 100.203,41.225 100.281,41.225 C100.341667,41.225 100.406667,41.2206667 100.476,41.212 L100.476,41.212 L100.593,41.212 C100.913667,41.212 101.074,41.303 101.074,41.485 C101.074,41.5803333 100.948333,41.9486667 100.697,42.59 L100.697,42.59 L99.553,45.528 C98.981,46.9926667 98.487,48.0196667 98.071,48.609 C97.4556667,49.4756667 96.6236667,49.909 95.575,49.909 C95.211,49.909 94.912,49.805 94.678,49.597 C94.444,49.389 94.327,49.1203333 94.327,48.791 C94.327,48.297 94.5436667,47.504 94.977,46.412 L94.977,46.412 L96.576,42.382 C96.7146667,42.044 96.823,41.7666667 96.901,41.55 C96.9703333,41.42 97.0353333,41.3376667 97.096,41.303 C97.1306667,41.2683333 97.2693333,41.2466667 97.512,41.238 C97.7893333,41.2293333 97.9496667,41.2206667 97.993,41.212 C98.0363333,41.2033333 98.058,41.1686667 98.058,41.108 C98.058,41.056 98.0103333,41.03 97.915,41.03 L97.915,41.03 L96.42,41.043 L95.172,41.03 L95.055,41.03 C94.9163333,41.03 94.847,41.069 94.847,41.147 C94.847,41.199 94.8903333,41.225 94.977,41.225 L94.977,41.225 L95.367,41.225 C95.5836667,41.251 95.692,41.3376667 95.692,41.485 C95.692,41.5283333 95.6746667,41.5803333 95.64,41.641 C95.5273333,41.8923333 95.4406667,42.096 95.38,42.252 L95.38,42.252 L93.742,46.282 C93.3173333,47.3306667 93.105,48.1063333 93.105,48.609 C93.105,49.0856667 93.3108333,49.467 93.7225,49.753 C94.1341667,50.039 94.6866667,50.182 95.38,50.182 Z M100.932393,50.039 C101.001726,50.039 101.05806,49.974 101.101393,49.844 L101.101393,49.844 L102.167393,47.374 C102.505393,46.594 102.87806,45.9873333 103.285393,45.554 C103.822726,44.982 104.290726,44.696 104.689393,44.696 C104.992726,44.696 105.144393,44.8433333 105.144393,45.138 C105.144393,45.3373333 105.018726,45.7186667 104.767393,46.282 L104.767393,46.282 L103.727393,48.609 C103.562726,48.9816667 103.480393,49.2416667 103.480393,49.389 C103.480393,49.571 103.56706,49.7205 103.740393,49.8375 C103.913726,49.9545 104.134726,50.013 104.403393,50.013 C104.845393,50.013 105.261393,49.8786667 105.651393,49.61 C105.937393,49.4106667 106.080393,49.259 106.080393,49.155 C106.080393,49.1116667 106.054393,49.09 106.002393,49.09 C105.976393,49.09 105.941726,49.103 105.898393,49.129 C105.430393,49.5276667 105.07506,49.727 104.832393,49.727 C104.63306,49.727 104.533393,49.636 104.533393,49.454 C104.533393,49.3586667 104.59406,49.1723333 104.715393,48.895 L104.715393,48.895 L105.768393,46.516 C105.993726,46.0046667 106.106393,45.645 106.106393,45.437 C106.106393,45.1336667 105.99806,44.8845 105.781393,44.6895 C105.564726,44.4945 105.28306,44.397 104.936393,44.397 C104.338393,44.397 103.718726,44.735 103.077393,45.411 C102.947393,45.5496667 102.847726,45.658 102.778393,45.736 L102.778393,45.736 L103.259393,44.514 C103.26806,44.4966667 103.272393,44.475 103.272393,44.449 C103.272393,44.397 103.246393,44.371 103.194393,44.371 C103.17706,44.371 103.13806,44.384 103.077393,44.41 C102.93006,44.4793333 102.622393,44.514 102.154393,44.514 C102.08506,44.514 101.985393,44.5053333 101.855393,44.488 C101.725393,44.4706667 101.63006,44.462 101.569393,44.462 C101.47406,44.462 101.426393,44.4923333 101.426393,44.553 C101.426393,44.6396667 101.556393,44.6873333 101.816393,44.696 C102.024393,44.7046667 102.132726,44.7393333 102.141393,44.8 C102.12406,44.8346667 102.102393,44.8736667 102.076393,44.917 L102.076393,44.917 L100.087393,49.701 L99.9963929,49.896 C99.9703929,49.9306667 99.9573929,49.9566667 99.9573929,49.974 C99.9573929,50.0173333 99.9877262,50.039 100.048393,50.039 C100.08306,50.039 100.113393,50.0346667 100.139393,50.026 C100.30406,50.0086667 100.42106,50 100.490393,50 C100.568393,50 100.620393,50.0043333 100.646393,50.013 C100.819726,50.0303333 100.91506,50.039 100.932393,50.039 Z M109.851786,42.603 C110.189786,42.603 110.358786,42.421 110.358786,42.057 C110.358786,41.6843333 110.189786,41.498 109.851786,41.498 C109.453119,41.498 109.253786,41.6756667 109.253786,42.031 C109.253786,42.1956667 109.310119,42.3321667 109.422786,42.4405 C109.535452,42.5488333 109.678452,42.603 109.851786,42.603 Z M107.381786,50.169 C107.841119,50.169 108.252786,50.013 108.616786,49.701 C108.859452,49.493 108.980786,49.337 108.980786,49.233 C108.980786,49.181 108.954786,49.155 108.902786,49.155 C108.859452,49.155 108.798786,49.207 108.720786,49.311 C108.608119,49.4756667 108.445619,49.6165 108.233286,49.7335 C108.020952,49.8505 107.832452,49.909 107.667786,49.909 C107.425119,49.909 107.303786,49.792 107.303786,49.558 C107.303786,49.4453333 107.403452,49.1593333 107.602786,48.7 L107.602786,48.7 L109.097786,45.281 C109.236452,44.9603333 109.336119,44.748 109.396786,44.644 C109.440119,44.566 109.461786,44.514 109.461786,44.488 C109.461786,44.4186667 109.431452,44.384 109.370786,44.384 C109.336119,44.384 109.275452,44.4013333 109.188786,44.436 C109.041452,44.4966667 108.785786,44.527 108.421786,44.527 C108.153119,44.527 107.958119,44.5183333 107.836786,44.501 C107.715452,44.4836667 107.650452,44.475 107.641786,44.475 C107.572452,44.475 107.537786,44.514 107.537786,44.592 C107.537786,44.6353333 107.572452,44.6656667 107.641786,44.683 C108.023119,44.709 108.213786,44.761 108.213786,44.839 C108.213786,44.865 108.200786,44.8953333 108.174786,44.93 L108.130911,44.995 C108.088661,45.0665 108.051286,45.1575 108.018786,45.268 L108.018786,45.268 L106.666786,48.284 C106.450119,48.7693333 106.341786,49.1203333 106.341786,49.337 C106.341786,49.5796667 106.439286,49.779 106.634286,49.935 C106.829286,50.091 107.078452,50.169 107.381786,50.169 Z M110.087179,50.091 C110.546512,50.091 110.940845,49.948 111.270179,49.662 C111.556179,49.4106667 111.699179,49.2286667 111.699179,49.116 C111.699179,49.0553333 111.664512,49.025 111.595179,49.025 C111.560512,49.025 111.508512,49.0683333 111.439179,49.155 C111.135845,49.571 110.789179,49.779 110.399179,49.779 C110.130512,49.779 109.996179,49.688 109.996179,49.506 C109.996179,49.3933333 110.091512,49.1246667 110.282179,48.7 L110.282179,48.7 L112.037179,44.761 L112.271179,44.761 L112.765179,44.748 C113.129179,44.7393333 113.311179,44.6743333 113.311179,44.553 C113.311179,44.4836667 113.263512,44.449 113.168179,44.449 C113.159512,44.449 113.124845,44.4533333 113.064179,44.462 C113.003512,44.4706667 112.951512,44.475 112.908179,44.475 L112.908179,44.475 L112.414179,44.501 L112.102179,44.514 L112.388179,43.89 C112.483512,43.682 112.531179,43.578 112.531179,43.578 C112.531179,43.5433333 112.509512,43.526 112.466179,43.526 C112.440179,43.526 112.409845,43.5346667 112.375179,43.552 C112.193179,43.6386667 112.054512,43.682 111.959179,43.682 C111.907179,43.682 111.835679,43.6733333 111.744679,43.656 C111.653679,43.6386667 111.586512,43.63 111.543179,43.63 C111.499845,43.63 111.439179,43.7253333 111.361179,43.916 L111.361179,43.916 L111.140179,44.475 C111.027512,44.4836667 110.910512,44.488 110.789179,44.488 C110.693845,44.488 110.624512,44.4836667 110.581179,44.475 L110.581179,44.475 L110.464179,44.475 C110.342845,44.475 110.282179,44.5313333 110.282179,44.644 C110.282179,44.7046667 110.355845,44.735 110.503179,44.735 L110.503179,44.735 L111.036179,44.735 L109.333179,48.388 C109.133845,48.8126667 109.034179,49.103 109.034179,49.259 C109.034179,49.5016667 109.131679,49.701 109.326679,49.857 C109.521679,50.013 109.775179,50.091 110.087179,50.091 Z M114.014571,50.169 C114.517238,50.169 115.002571,50 115.470571,49.662 C115.877905,49.3673333 116.081571,49.1203333 116.081571,48.921 C116.081571,48.8776667 116.059905,48.856 116.016571,48.856 C115.981905,48.856 115.908238,48.9166667 115.795571,49.038 C115.292905,49.5926667 114.777238,49.87 114.248571,49.87 C113.563905,49.87 113.221571,49.4843333 113.221571,48.713 C113.221571,48.141 113.381905,47.5213333 113.702571,46.854 C114.040571,46.8973333 114.348238,46.919 114.625571,46.919 C115.396905,46.919 116.033905,46.7651667 116.536571,46.4575 C117.039238,46.1498333 117.290571,45.762 117.290571,45.294 C117.290571,44.7046667 116.909238,44.41 116.146571,44.41 C115.418571,44.41 114.590905,44.8086667 113.663571,45.606 C112.606238,46.516 112.077571,47.4563333 112.077571,48.427 C112.077571,48.9296667 112.259571,49.3456667 112.623571,49.675 C112.987571,50.0043333 113.451238,50.169 114.014571,50.169 Z M114.157571,46.698 C114.027571,46.698 113.910571,46.6936667 113.806571,46.685 C114.213905,45.931 114.660238,45.3633333 115.145571,44.982 C115.414238,44.774 115.687238,44.67 115.964571,44.67 C116.233238,44.67 116.367571,44.8043333 116.367571,45.073 C116.367571,45.5323333 116.103238,45.9266667 115.574571,46.256 C115.115238,46.5506667 114.642905,46.698 114.157571,46.698 Z M118.318964,50.169 C118.717631,50.169 119.064298,50.0715 119.358964,49.8765 C119.653631,49.6815 119.961298,49.3543333 120.281964,48.895 C120.264631,49.0336667 120.255964,49.1593333 120.255964,49.272 C120.255964,49.8266667 120.580964,50.104 121.230964,50.104 C121.742298,50.104 122.179964,49.9393333 122.543964,49.61 C122.838631,49.3413333 122.985964,49.1333333 122.985964,48.986 C122.985964,48.9166667 122.955631,48.882 122.894964,48.882 C122.860298,48.882 122.795298,48.9556667 122.699964,49.103 C122.405298,49.5623333 122.049964,49.792 121.633964,49.792 C121.356631,49.792 121.217964,49.6706667 121.217964,49.428 C121.217964,49.298 121.330631,48.96 121.555964,48.414 L121.555964,48.414 L124.519964,41.225 C124.580631,41.095 124.628298,40.9953333 124.662964,40.926 C124.680298,40.8913333 124.693298,40.861 124.701964,40.835 C124.701964,40.783 124.675964,40.757 124.623964,40.757 C124.606631,40.757 124.571964,40.7656667 124.519964,40.783 C124.424631,40.8176667 124.212298,40.835 123.882964,40.835 C123.787631,40.835 123.633798,40.8306667 123.421464,40.822 C123.209131,40.8133333 123.046631,40.809 122.933964,40.809 L122.777964,40.809 C122.682631,40.809 122.634964,40.835 122.634964,40.887 C122.634964,40.939 122.717298,40.9693333 122.881964,40.978 C123.159298,40.9953333 123.321798,41.0105 123.369464,41.0235 C123.417131,41.0365 123.440964,41.0733333 123.440964,41.134 C123.440964,41.1686667 123.423631,41.2076667 123.388964,41.251 L123.388964,41.251 L121.906964,44.813 L121.815964,45.008 L121.737964,45.164 C121.555964,44.6353333 121.187631,44.371 120.632964,44.371 C119.835631,44.371 118.999298,44.7826667 118.123964,45.606 C117.153298,46.516 116.667964,47.4823333 116.667964,48.505 C116.667964,48.999 116.821798,49.3998333 117.129464,49.7075 C117.437131,50.0151667 117.833631,50.169 118.318964,50.169 Z M118.630964,49.792 C118.058964,49.792 117.772964,49.4756667 117.772964,48.843 C117.772964,48.141 118.089298,47.283 118.721964,46.269 C119.389298,45.1943333 120.043631,44.657 120.684964,44.657 C120.910298,44.657 121.113964,44.735 121.295964,44.891 C121.477964,45.047 121.568964,45.2246667 121.568964,45.424 C121.568964,45.528 121.482298,45.801 121.308964,46.243 L121.308964,46.243 L121.009964,47.01 C120.758631,47.6686667 120.459631,48.245 120.112964,48.739 C119.627631,49.441 119.133631,49.792 118.630964,49.792 Z M131.03575,50.156 C131.304417,50.156 131.534083,50.0931667 131.72475,49.9675 C131.915417,49.8418333 132.01075,49.6923333 132.01075,49.519 C132.01075,49.389 131.950083,49.324 131.82875,49.324 C131.733417,49.324 131.651083,49.363 131.58175,49.441 C131.512417,49.519 131.47775,49.6056667 131.47775,49.701 C131.47775,49.7963333 131.469083,49.8526667 131.45175,49.87 C131.391083,49.922 131.326083,49.948 131.25675,49.948 C131.04875,49.948 130.94475,49.7833333 130.94475,49.454 C130.94475,49.2893333 130.95775,49.0423333 130.98375,48.713 L130.98375,48.713 L131.07475,47.569 C131.083417,47.4563333 131.08775,47.3306667 131.08775,47.192 C131.08775,46.5853333 131.001083,46.1628333 130.82775,45.9245 C130.654417,45.6861667 130.290417,45.489 129.73575,45.333 L129.73575,45.333 L129.31975,45.216 C130.20375,45.1813333 130.86675,45.0816667 131.30875,44.917 C131.872083,44.709 132.31625,44.4121667 132.64125,44.0265 C132.96625,43.6408333 133.12875,43.2226667 133.12875,42.772 C133.12875,42.0873333 132.808083,41.5933333 132.16675,41.29 C131.93275,41.1773333 131.690083,41.1123333 131.43875,41.095 C131.28275,41.0776667 130.758417,41.0603333 129.86575,41.043 L129.86575,41.043 L129.22875,41.03 C129.090083,41.03 128.95575,41.0256667 128.82575,41.017 C128.69575,41.0083333 128.63075,41.004 128.63075,41.004 C128.18875,41.004 127.92875,41.0083333 127.85075,41.017 C127.77275,41.0256667 127.73375,41.0603333 127.73375,41.121 C127.73375,41.1643333 127.777083,41.1946667 127.86375,41.212 C128.392417,41.212 128.65675,41.2943333 128.65675,41.459 C128.65675,41.511 128.639417,41.5716667 128.60475,41.641 L128.60475,41.641 L125.73175,48.973 C125.558417,49.4063333 125.41975,49.649 125.31575,49.701 C125.194417,49.779 124.96475,49.8223333 124.62675,49.831 C124.384083,49.8396667 124.26275,49.87 124.26275,49.922 C124.26275,49.9913333 124.319083,50.026 124.43175,50.026 C124.53575,50.026 124.69175,50.0195 124.89975,50.0065 C125.10775,49.9935 125.26375,49.987 125.36775,49.987 C125.402417,49.987 125.60175,49.9913333 125.96575,50 C126.685083,50.0173333 127.196417,50.026 127.49975,50.026 C127.690417,50.026 127.78575,49.9826667 127.78575,49.896 C127.78575,49.8526667 127.75975,49.831 127.70775,49.831 L127.70775,49.831 L127.40875,49.844 C127.38275,49.844 127.30475,49.8353333 127.17475,49.818 C126.871417,49.7833333 126.71975,49.701 126.71975,49.571 C126.71975,49.5536667 126.73275,49.5146667 126.75875,49.454 L126.75875,49.454 L128.38375,45.346 C128.92975,45.3806667 129.26775,45.4196667 129.39775,45.463 C129.770417,45.6016667 129.95675,45.8876667 129.95675,46.321 C129.95675,46.5116667 129.939417,46.7543333 129.90475,47.049 L129.90475,47.049 L129.78775,48.05 C129.753083,48.3446667 129.73575,48.6046667 129.73575,48.83 C129.73575,49.714 130.169083,50.156 131.03575,50.156 Z M128.85175,45.112 C128.713083,45.112 128.59175,45.1076667 128.48775,45.099 L128.48775,45.099 L129.76175,41.81 C129.81375,41.68 129.883083,41.5413333 129.96975,41.394 C130.030417,41.29 130.130083,41.238 130.26875,41.238 C130.73675,41.238 131.04875,41.2726667 131.20475,41.342 C131.655417,41.5413333 131.88075,42.018 131.88075,42.772 C131.88075,43.4566667 131.596917,44.0178333 131.02925,44.4555 C130.461583,44.8931667 129.73575,45.112 128.85175,45.112 Z M134.456143,50.169 C134.95881,50.169 135.444143,50 135.912143,49.662 C136.319476,49.3673333 136.523143,49.1203333 136.523143,48.921 C136.523143,48.8776667 136.501476,48.856 136.458143,48.856 C136.423476,48.856 136.34981,48.9166667 136.237143,49.038 C135.734476,49.5926667 135.21881,49.87 134.690143,49.87 C134.005476,49.87 133.663143,49.4843333 133.663143,48.713 C133.663143,48.141 133.823476,47.5213333 134.144143,46.854 C134.482143,46.8973333 134.78981,46.919 135.067143,46.919 C135.838476,46.919 136.475476,46.7651667 136.978143,46.4575 C137.48081,46.1498333 137.732143,45.762 137.732143,45.294 C137.732143,44.7046667 137.35081,44.41 136.588143,44.41 C135.860143,44.41 135.032476,44.8086667 134.105143,45.606 C133.04781,46.516 132.519143,47.4563333 132.519143,48.427 C132.519143,48.9296667 132.701143,49.3456667 133.065143,49.675 C133.429143,50.0043333 133.89281,50.169 134.456143,50.169 Z M134.599143,46.698 C134.469143,46.698 134.352143,46.6936667 134.248143,46.685 C134.655476,45.931 135.10181,45.3633333 135.587143,44.982 C135.85581,44.774 136.12881,44.67 136.406143,44.67 C136.67481,44.67 136.809143,44.8043333 136.809143,45.073 C136.809143,45.5323333 136.54481,45.9266667 136.016143,46.256 C135.55681,46.5506667 135.084476,46.698 134.599143,46.698 Z M134.777119,53.2507222 L134.860536,53.25 L135.380536,53.237 C135.562536,53.2283333 135.748869,53.2196667 135.939536,53.211 C136.104202,53.2023333 136.182202,53.198 136.173536,53.198 L136.173536,53.198 L136.563536,53.224 C136.840869,53.2413333 137.074869,53.25 137.265536,53.25 C137.482202,53.25 137.590536,53.2153333 137.590536,53.146 C137.590536,53.0853333 137.274202,53.042 136.641536,53.016 C136.736869,52.8513333 136.823536,52.6606667 136.901536,52.444 C136.927536,52.34 136.975202,52.2056667 137.044536,52.041 L137.044536,52.041 L138.136536,49.35 C138.344536,49.8786667 138.743202,50.143 139.332536,50.143 C140.251202,50.143 141.122202,49.6901667 141.945536,48.7845 C142.768869,47.8788333 143.180536,46.9233333 143.180536,45.918 C143.180536,45.4673333 143.031036,45.099 142.732036,44.813 C142.433036,44.527 142.053869,44.384 141.594536,44.384 C141.308536,44.384 141.046369,44.4468333 140.808036,44.5725 C140.569702,44.6981667 140.251202,44.9386667 139.852536,45.294 C140.095202,44.7566667 140.216536,44.462 140.216536,44.41 C140.216536,44.358 140.190536,44.332 140.138536,44.332 C140.121202,44.332 140.077869,44.3406667 140.008536,44.358 C139.800536,44.41 139.349869,44.436 138.656536,44.436 L138.448536,44.436 C138.344536,44.436 138.292536,44.4663333 138.292536,44.527 C138.292536,44.5963333 138.370536,44.631 138.526536,44.631 C138.621869,44.631 138.691202,44.6266667 138.734536,44.618 L138.734536,44.618 L138.864536,44.618 C138.968536,44.618 139.020536,44.6526667 139.020536,44.722 C139.020536,44.7393333 138.946869,44.9256667 138.799536,45.281 L138.799536,45.281 L135.887536,52.275 C135.740202,52.6216667 135.627536,52.8253333 135.549536,52.886 C135.471536,52.9466667 135.272202,52.9856667 134.951536,53.003 C134.708869,53.0116667 134.587536,53.0593333 134.587536,53.146 C134.587536,53.224 134.678536,53.2586667 134.860536,53.25 L134.777119,53.2507222 Z M139.241536,49.883 C138.998869,49.883 138.790869,49.8006667 138.617536,49.636 C138.444202,49.4713333 138.357536,49.2763333 138.357536,49.051 C138.357536,48.9383333 138.405202,48.765 138.500536,48.531 L138.500536,48.531 L138.929536,47.465 C139.284869,46.5723333 139.644536,45.918 140.008536,45.502 C140.476536,44.9646667 140.935869,44.696 141.386536,44.696 C141.845869,44.696 142.075536,44.9516667 142.075536,45.463 C142.075536,46.1996667 141.798202,47.0836667 141.243536,48.115 C140.610869,49.2936667 139.943536,49.883 139.241536,49.883 Z M147.341929,50.143 C147.662595,50.143 147.974595,50.052 148.277929,49.87 C148.789262,49.558 149.044929,49.298 149.044929,49.09 C149.044929,49.038 149.018929,49.012 148.966929,49.012 C148.932262,49.012 148.867262,49.0683333 148.771929,49.181 C148.381929,49.6316667 148.026595,49.857 147.705929,49.857 C147.480595,49.857 147.367929,49.74 147.367929,49.506 C147.367929,49.3413333 147.515262,48.9166667 147.809929,48.232 L147.809929,48.232 L149.265929,44.839 L149.356929,44.631 C149.374262,44.5876667 149.382929,44.566 149.382929,44.566 C149.382929,44.5313333 149.361262,44.514 149.317929,44.514 C149.300595,44.514 149.270262,44.5226667 149.226929,44.54 C149.157595,44.566 149.005929,44.579 148.771929,44.579 L148.771929,44.579 L148.667929,44.579 C148.477262,44.5616667 148.386262,44.553 148.394929,44.553 C148.342929,44.553 148.295262,44.605 148.251929,44.709 L148.251929,44.709 L147.419929,46.685 C147.021262,47.6383333 146.518595,48.427 145.911929,49.051 C145.374595,49.6056667 144.936929,49.883 144.598929,49.883 C144.278262,49.883 144.117929,49.7573333 144.117929,49.506 C144.117929,49.298 144.226262,48.947 144.442929,48.453 L144.442929,48.453 L144.962929,47.257 C145.196929,46.7196667 145.331262,46.4033333 145.365929,46.308 C145.513262,45.918 145.673595,45.5388333 145.846929,45.1705 C146.020262,44.8021667 146.106929,44.5833333 146.106929,44.514 C146.106929,44.462 146.085262,44.436 146.041929,44.436 C146.024595,44.436 145.989929,44.4446667 145.937929,44.462 C145.721262,44.54 145.387595,44.579 144.936929,44.579 C144.867595,44.579 144.767929,44.5703333 144.637929,44.553 C144.507929,44.5356667 144.408262,44.527 144.338929,44.527 C144.278262,44.527 144.247929,44.5573333 144.247929,44.618 C144.247929,44.7133333 144.386595,44.761 144.663929,44.761 C144.871929,44.761 144.975929,44.7956667 144.975929,44.865 C144.975929,44.8823333 144.962929,44.9126667 144.936929,44.956 C144.824262,45.1813333 144.750595,45.333 144.715929,45.411 L144.715929,45.411 L143.376929,48.414 C143.186262,48.8386667 143.090929,49.168 143.090929,49.402 C143.090929,49.6186667 143.199262,49.7941667 143.415929,49.9285 C143.632595,50.0628333 143.909929,50.13 144.247929,50.13 C144.681262,50.13 145.047429,50.0303333 145.346429,49.831 C145.645429,49.6316667 146.085262,49.1983333 146.665929,48.531 L146.665929,48.531 L146.509929,48.973 C146.431929,49.1896667 146.392929,49.35 146.392929,49.454 C146.392929,49.636 146.488262,49.7963333 146.678929,49.935 C146.869595,50.0736667 147.090595,50.143 147.341929,50.143 Z M150.723321,50.169 C151.711321,50.169 152.658155,49.7248333 153.563821,48.8365 C154.469488,47.9481667 154.922321,47.0186667 154.922321,46.048 C154.922321,45.5713333 154.772821,45.177 154.473821,44.865 C154.174821,44.553 153.795655,44.397 153.336321,44.397 C152.850988,44.397 152.452321,44.54 152.140321,44.826 L152.140321,44.826 L151.802321,45.138 C151.767655,45.164 151.724321,45.203 151.672321,45.255 C151.819655,44.9776667 151.936655,44.735 152.023321,44.527 L152.023321,44.527 L153.258321,41.498 C153.353655,41.264 153.444655,41.082 153.531321,40.952 C153.557321,40.9086667 153.570321,40.874 153.570321,40.848 C153.570321,40.796 153.535655,40.77 153.466321,40.77 L153.466321,40.77 L153.375321,40.77 L153.102321,40.796 C153.015655,40.8046667 152.612655,40.809 151.893321,40.809 C151.676655,40.809 151.568321,40.8393333 151.568321,40.9 C151.568321,40.952 151.602988,40.978 151.672321,40.978 C152.148988,40.9606667 152.387321,40.9996667 152.387321,41.095 C152.387321,41.1036667 152.365655,41.1405 152.322321,41.2055 C152.278988,41.2705 152.244321,41.3506667 152.218321,41.446 L152.218321,41.446 L149.475321,47.712 C149.215321,48.31 149.085321,48.7086667 149.085321,48.908 C149.085321,49.2546667 149.243488,49.5515 149.559821,49.7985 C149.876155,50.0455 150.263988,50.169 150.723321,50.169 Z M150.749321,49.974 C150.289988,49.974 150.060321,49.8006667 150.060321,49.454 C150.060321,49.2026667 150.211988,48.7086667 150.515321,47.972 L150.515321,47.972 L150.827321,47.218 C151.537988,45.4933333 152.326655,44.631 153.193321,44.631 C153.643988,44.631 153.869321,44.93 153.869321,45.528 C153.869321,46.1433333 153.596321,46.971 153.050321,48.011 C152.365655,49.3196667 151.598655,49.974 150.749321,49.974 Z M155.950714,50.182 C156.470714,50.182 156.895381,50.0346667 157.224714,49.74 C157.510714,49.4886667 157.653714,49.3066667 157.653714,49.194 C157.653714,49.1333333 157.623381,49.103 157.562714,49.103 C157.528048,49.103 157.445714,49.181 157.315714,49.337 C157.003714,49.701 156.691714,49.883 156.379714,49.883 C156.067714,49.883 155.911714,49.766 155.911714,49.532 C155.911714,49.376 156.020048,49.0336667 156.236714,48.505 L156.236714,48.505 L159.148714,41.394 C159.209381,41.2553333 159.252714,41.1513333 159.278714,41.082 C159.322048,40.978 159.343714,40.9173333 159.343714,40.9 C159.343714,40.8306667 159.296048,40.796 159.200714,40.796 C159.166048,40.796 159.101048,40.8046667 159.005714,40.822 C158.823714,40.8566667 158.546381,40.874 158.173714,40.874 C158.095714,40.874 157.976548,40.8696667 157.816214,40.861 C157.655881,40.8523333 157.536714,40.848 157.458714,40.848 C157.380714,40.848 157.341714,40.874 157.341714,40.926 C157.341714,40.9953333 157.532381,41.03 157.913714,41.03 C158.078381,41.03 158.160714,41.069 158.160714,41.147 C158.160714,41.1556667 158.147714,41.186 158.121714,41.238 L158.121714,41.238 L155.209714,48.336 C154.993048,48.8646667 154.884714,49.2156667 154.884714,49.389 C154.884714,49.9176667 155.240048,50.182 155.950714,50.182 Z M161.191107,42.603 C161.529107,42.603 161.698107,42.421 161.698107,42.057 C161.698107,41.6843333 161.529107,41.498 161.191107,41.498 C160.79244,41.498 160.593107,41.6756667 160.593107,42.031 C160.593107,42.1956667 160.64944,42.3321667 160.762107,42.4405 C160.874774,42.5488333 161.017774,42.603 161.191107,42.603 Z M158.721107,50.169 C159.18044,50.169 159.592107,50.013 159.956107,49.701 C160.198774,49.493 160.320107,49.337 160.320107,49.233 C160.320107,49.181 160.294107,49.155 160.242107,49.155 C160.198774,49.155 160.138107,49.207 160.060107,49.311 C159.94744,49.4756667 159.78494,49.6165 159.572607,49.7335 C159.360274,49.8505 159.171774,49.909 159.007107,49.909 C158.76444,49.909 158.643107,49.792 158.643107,49.558 C158.643107,49.4453333 158.742774,49.1593333 158.942107,48.7 L158.942107,48.7 L160.437107,45.281 C160.575774,44.9603333 160.67544,44.748 160.736107,44.644 C160.77944,44.566 160.801107,44.514 160.801107,44.488 C160.801107,44.4186667 160.770774,44.384 160.710107,44.384 C160.67544,44.384 160.614774,44.4013333 160.528107,44.436 C160.380774,44.4966667 160.125107,44.527 159.761107,44.527 C159.49244,44.527 159.29744,44.5183333 159.176107,44.501 C159.054774,44.4836667 158.989774,44.475 158.981107,44.475 C158.911774,44.475 158.877107,44.514 158.877107,44.592 C158.877107,44.6353333 158.911774,44.6656667 158.981107,44.683 C159.36244,44.709 159.553107,44.761 159.553107,44.839 C159.553107,44.865 159.540107,44.8953333 159.514107,44.93 C159.45344,45.008 159.40144,45.1206667 159.358107,45.268 L159.358107,45.268 L158.006107,48.284 C157.78944,48.7693333 157.681107,49.1203333 157.681107,49.337 C157.681107,49.5796667 157.778607,49.779 157.973607,49.935 C158.168607,50.091 158.417774,50.169 158.721107,50.169 Z M162.3365,50.169 C162.951833,50.169 163.5065,49.922 164.0005,49.428 C164.225833,49.2026667 164.3385,49.038 164.3385,48.934 C164.3385,48.882 164.316833,48.856 164.2735,48.856 C164.2215,48.856 164.152167,48.908 164.0655,49.012 C163.562833,49.61 163.0645,49.909 162.5705,49.909 C161.911833,49.909 161.5825,49.545 161.5825,48.817 C161.5825,47.9676667 161.890167,47.0533333 162.5055,46.074 C163.1035,45.1206667 163.723167,44.644 164.3645,44.644 C164.5725,44.644 164.761,44.6981667 164.93,44.8065 C165.099,44.9148333 165.1835,45.0383333 165.1835,45.177 C165.1835,45.2723333 165.148833,45.32 165.0795,45.32 C165.036167,45.3113333 164.984167,45.294 164.9235,45.268 L164.9235,45.268 L164.8195,45.255 C164.5855,45.255 164.4685,45.359 164.4685,45.567 C164.4685,45.6796667 164.516167,45.7815 164.6115,45.8725 C164.706833,45.9635 164.815167,46.009 164.9365,46.009 C165.291833,46.009 165.4695,45.7966667 165.4695,45.372 C165.4695,45.086 165.369833,44.8541667 165.1705,44.6765 C164.971167,44.4988333 164.711167,44.41 164.3905,44.41 C163.541167,44.41 162.717833,44.8043333 161.9205,45.593 C160.949833,46.5463333 160.4645,47.478 160.4645,48.388 C160.4645,48.9253333 160.635667,49.3565 160.978,49.6815 C161.320333,50.0065 161.773167,50.169 162.3365,50.169 Z M168.709286,50.208 C169.497952,50.208 170.256286,49.8873333 170.984286,49.246 C171.911619,48.4313333 172.375286,47.517 172.375286,46.503 C172.375286,45.8876667 172.210619,45.3893333 171.881286,45.008 C171.551952,44.6266667 171.122952,44.436 170.594286,44.436 C169.900952,44.436 169.181619,44.7263333 168.436286,45.307 C167.959619,45.6796667 167.578286,46.1303333 167.292286,46.659 C167.006286,47.1876667 166.863286,47.7033333 166.863286,48.206 C166.863286,48.7953333 167.036619,49.2763333 167.383286,49.649 C167.729952,50.0216667 168.171952,50.208 168.709286,50.208 Z M168.735286,49.974 C168.154619,49.974 167.864286,49.649 167.864286,48.999 C167.864286,48.1323333 168.115619,47.205 168.618286,46.217 C169.146952,45.1856667 169.770952,44.67 170.490286,44.67 C171.079619,44.67 171.374286,44.9993333 171.374286,45.658 C171.374286,46.542 171.101286,47.5126667 170.555286,48.57 C170.069952,49.506 169.463286,49.974 168.735286,49.974 Z M170.153679,53.432 C170.517679,53.432 170.831845,53.3605 171.096179,53.2175 C171.360512,53.0745 171.648679,52.8253333 171.960679,52.47 C172.732012,51.586 173.525012,50.0303333 174.339679,47.803 L174.339679,47.803 L175.470679,44.709 L176.991679,44.722 C177.113012,44.722 177.173679,44.6743333 177.173679,44.579 C177.173679,44.4836667 177.126012,44.436 177.030679,44.436 C176.961345,44.436 176.905012,44.4403333 176.861679,44.449 L176.861679,44.449 L175.522679,44.449 L175.873679,43.461 C176.229012,42.4643333 176.523679,41.8035 176.757679,41.4785 C176.991679,41.1535 177.299345,40.991 177.680679,40.991 C178.044679,40.991 178.226679,41.0993333 178.226679,41.316 C178.226679,41.3593333 178.209345,41.4156667 178.174679,41.485 C178.062012,41.615 178.005679,41.7146667 178.005679,41.784 C178.005679,41.8793333 178.046845,41.9638333 178.129179,42.0375 C178.211512,42.1111667 178.309012,42.148 178.421679,42.148 C178.742345,42.148 178.902679,41.979 178.902679,41.641 C178.902679,41.3896667 178.796512,41.1881667 178.584179,41.0365 C178.371845,40.8848333 178.092345,40.809 177.745679,40.809 C176.913679,40.809 176.224679,41.1773333 175.678679,41.914 C175.349345,42.3646667 174.924679,43.2096667 174.404679,44.449 L174.404679,44.449 L174.222679,44.449 L173.754679,44.436 C173.460012,44.4273333 173.304012,44.423 173.286679,44.423 C173.070012,44.449 172.961679,44.527 172.961679,44.657 C172.961679,44.7263333 173.013679,44.761 173.117679,44.761 C173.204345,44.761 173.282345,44.7566667 173.351679,44.748 L173.351679,44.748 L174.001679,44.735 L174.300679,44.735 L172.337679,50.312 C171.930345,51.4646667 171.601012,52.2143333 171.349679,52.561 C171.029012,52.9943333 170.643345,53.211 170.192679,53.211 C169.932679,53.211 169.802679,53.1156667 169.802679,52.925 C169.802679,52.873 169.828679,52.8166667 169.880679,52.756 C169.967345,52.6433333 170.010679,52.5523333 170.010679,52.483 C170.010679,52.2663333 169.880679,52.158 169.620679,52.158 C169.239345,52.158 169.048679,52.3356667 169.048679,52.691 C169.048679,53.185 169.417012,53.432 170.153679,53.432 Z M178.437464,50.026 C178.619464,50.026 178.771131,50.0173333 178.892464,50 C179.256464,49.9826667 179.598798,49.974 179.919464,49.974 C180.413464,49.974 180.842464,49.9826667 181.206464,50 C181.388464,50.0086667 181.501131,50.013 181.544464,50.013 C181.691798,50.013 181.765464,49.9653333 181.765464,49.87 C181.765464,49.818 181.726464,49.792 181.648464,49.792 C181.093798,49.792 180.816464,49.6923333 180.816464,49.493 C180.816464,49.4583333 180.844631,49.376 180.900964,49.246 C180.957298,49.116 181.020131,48.9643333 181.089464,48.791 L181.089464,48.791 L184.105464,41.264 C184.313464,41.2466667 184.538798,41.238 184.781464,41.238 C185.180131,41.238 185.461798,41.2596667 185.626464,41.303 C186.033798,41.407 186.237464,41.68 186.237464,42.122 C186.237464,42.3473333 186.200631,42.5965 186.126964,42.8695 C186.053298,43.1425 186.016464,43.2963333 186.016464,43.331 C186.016464,43.4003333 186.051131,43.435 186.120464,43.435 C186.198464,43.435 186.289464,43.253 186.393464,42.889 C186.540798,42.3603333 186.748798,41.7233333 187.017464,40.978 C185.717464,41.004 184.547464,41.017 183.507464,41.017 C181.635464,41.017 180.552131,41.0083333 180.257464,40.991 C180.118798,41.303 179.993131,41.5673333 179.880464,41.784 C179.689798,42.2086667 179.546798,42.525 179.451464,42.733 L179.451464,42.733 L179.256464,43.175 C179.230464,43.2356667 179.217464,43.279 179.217464,43.305 C179.217464,43.357 179.239131,43.383 179.282464,43.383 C179.351798,43.383 179.412464,43.331 179.464464,43.227 C179.819798,42.551 180.123131,42.096 180.374464,41.862 C180.807798,41.4546667 181.470798,41.251 182.363464,41.251 L182.363464,41.251 L182.883464,41.251 L179.945464,48.674 C179.737464,49.2026667 179.574964,49.5233333 179.457964,49.636 C179.340964,49.7486667 179.122131,49.805 178.801464,49.805 L178.801464,49.805 L178.671464,49.805 C178.619464,49.7963333 178.580464,49.792 178.554464,49.792 C178.381131,49.792 178.294464,49.844 178.294464,49.948 C178.294464,50 178.342131,50.026 178.437464,50.026 Z M186.251857,50.169 C186.97119,50.169 187.603857,49.766 188.149857,48.96 C188.08919,49.1333333 188.058857,49.285 188.058857,49.415 C188.058857,49.623 188.143357,49.792 188.312357,49.922 C188.481357,50.052 188.70019,50.117 188.968857,50.117 C189.497524,50.117 189.952524,49.9133333 190.333857,49.506 C190.524524,49.298 190.619857,49.1463333 190.619857,49.051 C190.619857,49.0163333 190.602524,48.999 190.567857,48.999 C190.53319,48.999 190.48119,49.0466667 190.411857,49.142 C190.073857,49.6013333 189.735857,49.831 189.397857,49.831 C189.172524,49.831 189.059857,49.7183333 189.059857,49.493 C189.059857,49.2936667 189.14219,49.0076667 189.306857,48.635 L189.306857,48.635 L191.022857,44.735 C191.09219,44.579 191.126857,44.488 191.126857,44.462 C191.126857,44.4013333 191.100857,44.371 191.048857,44.371 C191.022857,44.371 190.992524,44.384 190.957857,44.41 C190.853857,44.462 190.706524,44.488 190.515857,44.488 C190.48119,44.488 190.420524,44.4793333 190.333857,44.462 C190.24719,44.4446667 190.19519,44.436 190.177857,44.436 C190.125857,44.436 190.06519,44.5053333 189.995857,44.644 L189.995857,44.644 L189.670857,45.333 C189.592857,44.709 189.228857,44.397 188.578857,44.397 C187.954857,44.397 187.27019,44.7263333 186.524857,45.385 C185.978857,45.8703333 185.54119,46.4076667 185.211857,46.997 C184.882524,47.5863333 184.717857,48.128 184.717857,48.622 C184.717857,49.0726667 184.860857,49.4431667 185.146857,49.7335 C185.432857,50.0238333 185.80119,50.169 186.251857,50.169 Z M186.589857,49.857 C186.104524,49.857 185.861857,49.5623333 185.861857,48.973 C185.861857,48.4876667 186.000524,47.9221667 186.277857,47.2765 C186.55519,46.6308333 186.923524,46.0176667 187.382857,45.437 C187.781524,44.9256667 188.197524,44.67 188.630857,44.67 C188.88219,44.67 189.088024,44.7523333 189.248357,44.917 C189.40869,45.0816667 189.488857,45.2983333 189.488857,45.567 C189.488857,45.6623333 189.432524,45.8313333 189.319857,46.074 L189.319857,46.074 L188.305857,48.258 C188.08919,48.7173333 187.818357,49.0986667 187.493357,49.402 C187.168357,49.7053333 186.86719,49.857 186.589857,49.857 Z M191.46625,50.039 C191.535583,50.039 191.591917,49.974 191.63525,49.844 L191.63525,49.844 L192.70125,47.374 C193.03925,46.594 193.411917,45.9873333 193.81925,45.554 C194.356583,44.982 194.824583,44.696 195.22325,44.696 C195.526583,44.696 195.67825,44.8433333 195.67825,45.138 C195.67825,45.3373333 195.552583,45.7186667 195.30125,46.282 L195.30125,46.282 L194.26125,48.609 C194.096583,48.9816667 194.01425,49.2416667 194.01425,49.389 C194.01425,49.571 194.100917,49.7205 194.27425,49.8375 C194.447583,49.9545 194.668583,50.013 194.93725,50.013 C195.37925,50.013 195.79525,49.8786667 196.18525,49.61 C196.47125,49.4106667 196.61425,49.259 196.61425,49.155 C196.61425,49.1116667 196.58825,49.09 196.53625,49.09 C196.51025,49.09 196.475583,49.103 196.43225,49.129 C195.96425,49.5276667 195.608917,49.727 195.36625,49.727 C195.166917,49.727 195.06725,49.636 195.06725,49.454 C195.06725,49.3586667 195.127917,49.1723333 195.24925,48.895 L195.24925,48.895 L196.30225,46.516 C196.527583,46.0046667 196.64025,45.645 196.64025,45.437 C196.64025,45.1336667 196.531917,44.8845 196.31525,44.6895 C196.098583,44.4945 195.816917,44.397 195.47025,44.397 C194.87225,44.397 194.252583,44.735 193.61125,45.411 C193.48125,45.5496667 193.381583,45.658 193.31225,45.736 L193.31225,45.736 L193.79325,44.514 C193.801917,44.4966667 193.80625,44.475 193.80625,44.449 C193.80625,44.397 193.78025,44.371 193.72825,44.371 C193.710917,44.371 193.671917,44.384 193.61125,44.41 C193.463917,44.4793333 193.15625,44.514 192.68825,44.514 C192.618917,44.514 192.51925,44.5053333 192.38925,44.488 C192.25925,44.4706667 192.163917,44.462 192.10325,44.462 C192.007917,44.462 191.96025,44.4923333 191.96025,44.553 C191.96025,44.6396667 192.09025,44.6873333 192.35025,44.696 C192.55825,44.7046667 192.666583,44.7393333 192.67525,44.8 C192.657917,44.8346667 192.63625,44.8736667 192.61025,44.917 L192.61025,44.917 L190.62125,49.701 L190.53025,49.896 C190.50425,49.9306667 190.49125,49.9566667 190.49125,49.974 C190.49125,50.0173333 190.521583,50.039 190.58225,50.039 C190.616917,50.039 190.64725,50.0346667 190.67325,50.026 C190.837917,50.0086667 190.954917,50 191.02425,50 C191.10225,50 191.15425,50.0043333 191.18025,50.013 C191.353583,50.0303333 191.448917,50.039 191.46625,50.039 Z M200.047643,50.286 C200.281643,50.286 200.56331,50.1343333 200.892643,49.831 C201.282643,49.467 201.477643,49.0336667 201.477643,48.531 C201.477643,48.2016667 201.334643,48.037 201.048643,48.037 C200.753976,48.037 200.606643,48.1756667 200.606643,48.453 C200.606643,48.5743333 200.65431,48.661 200.749643,48.713 C201.009643,48.791 201.139643,48.9123333 201.139643,49.077 C201.139643,49.2243333 201.08981,49.35 200.990143,49.454 C200.890476,49.558 200.77131,49.61 200.632643,49.61 C200.493976,49.61 200.27731,49.5493333 199.982643,49.428 C199.193976,49.1073333 198.621976,48.947 198.266643,48.947 C198.084643,48.947 197.824643,48.9903333 197.486643,49.077 C198.318643,48.1063333 199.518976,46.945 201.087643,45.593 C201.269643,45.437 201.44731,45.281 201.620643,45.125 C201.86331,44.8996667 201.984643,44.7046667 201.984643,44.54 C201.984643,44.3753333 201.932643,44.293 201.828643,44.293 C201.715976,44.293 201.659643,44.3406667 201.659643,44.436 C201.659643,44.462 201.663976,44.4836667 201.672643,44.501 C201.68131,44.553 201.685643,44.5876667 201.685643,44.605 C201.685643,44.8043333 201.425643,44.904 200.905643,44.904 C200.13431,44.904 199.349976,44.7393333 198.552643,44.41 C198.30131,44.306 198.153976,44.254 198.110643,44.254 C198.04131,44.254 197.993643,44.319 197.967643,44.449 C197.759643,45.125 197.61231,45.5453333 197.525643,45.71 C197.490976,45.7793333 197.473643,45.827 197.473643,45.853 C197.473643,45.9136667 197.503976,45.944 197.564643,45.944 C197.642643,45.944 197.70331,45.8833333 197.746643,45.762 C197.850643,45.4586667 197.919976,45.2766667 197.954643,45.216 C197.98931,45.1553333 198.036976,45.125 198.097643,45.125 C198.13231,45.125 198.18431,45.1466667 198.253643,45.19 C198.669643,45.4586667 199.13331,45.593 199.644643,45.593 C200.051976,45.593 200.49831,45.5106667 200.983643,45.346 C200.740976,45.5626667 200.545976,45.7316667 200.398643,45.853 C199.52331,46.5723333 198.569976,47.4996667 197.538643,48.635 C197.243976,48.9643333 197.018643,49.2113333 196.862643,49.376 C196.680643,49.584 196.589643,49.7573333 196.589643,49.896 C196.589643,49.9826667 196.641643,50.026 196.745643,50.026 C196.88431,50.026 196.966643,49.9393333 196.992643,49.766 C197.018643,49.6186667 197.083643,49.545 197.187643,49.545 C197.317643,49.545 198.00231,49.727 199.241643,50.091 C199.683643,50.221 199.95231,50.286 200.047643,50.286 Z M203.208036,50.169 C203.927369,50.169 204.560036,49.766 205.106036,48.96 C205.045369,49.1333333 205.015036,49.285 205.015036,49.415 C205.015036,49.623 205.099536,49.792 205.268536,49.922 C205.437536,50.052 205.656369,50.117 205.925036,50.117 C206.453702,50.117 206.908702,49.9133333 207.290036,49.506 C207.480702,49.298 207.576036,49.1463333 207.576036,49.051 C207.576036,49.0163333 207.558702,48.999 207.524036,48.999 C207.489369,48.999 207.437369,49.0466667 207.368036,49.142 C207.030036,49.6013333 206.692036,49.831 206.354036,49.831 C206.128702,49.831 206.016036,49.7183333 206.016036,49.493 C206.016036,49.2936667 206.098369,49.0076667 206.263036,48.635 L206.263036,48.635 L207.979036,44.735 C208.048369,44.579 208.083036,44.488 208.083036,44.462 C208.083036,44.4013333 208.057036,44.371 208.005036,44.371 C207.979036,44.371 207.948702,44.384 207.914036,44.41 C207.810036,44.462 207.662702,44.488 207.472036,44.488 C207.437369,44.488 207.376702,44.4793333 207.290036,44.462 C207.203369,44.4446667 207.151369,44.436 207.134036,44.436 C207.082036,44.436 207.021369,44.5053333 206.952036,44.644 L206.952036,44.644 L206.627036,45.333 C206.549036,44.709 206.185036,44.397 205.535036,44.397 C204.911036,44.397 204.226369,44.7263333 203.481036,45.385 C202.935036,45.8703333 202.497369,46.4076667 202.168036,46.997 C201.838702,47.5863333 201.674036,48.128 201.674036,48.622 C201.674036,49.0726667 201.817036,49.4431667 202.103036,49.7335 C202.389036,50.0238333 202.757369,50.169 203.208036,50.169 Z M203.546036,49.857 C203.060702,49.857 202.818036,49.5623333 202.818036,48.973 C202.818036,48.4876667 202.956702,47.9221667 203.234036,47.2765 C203.511369,46.6308333 203.879702,46.0176667 204.339036,45.437 C204.737702,44.9256667 205.153702,44.67 205.587036,44.67 C205.838369,44.67 206.044202,44.7523333 206.204536,44.917 C206.364869,45.0816667 206.445036,45.2983333 206.445036,45.567 C206.445036,45.6623333 206.388702,45.8313333 206.276036,46.074 L206.276036,46.074 L205.262036,48.258 C205.045369,48.7173333 204.774536,49.0986667 204.449536,49.402 C204.124536,49.7053333 203.823369,49.857 203.546036,49.857 Z M208.422429,50.039 C208.491762,50.039 208.548095,49.974 208.591429,49.844 L208.591429,49.844 L209.657429,47.374 C209.995429,46.594 210.368095,45.9873333 210.775429,45.554 C211.312762,44.982 211.780762,44.696 212.179429,44.696 C212.482762,44.696 212.634429,44.8433333 212.634429,45.138 C212.634429,45.3373333 212.508762,45.7186667 212.257429,46.282 L212.257429,46.282 L211.217429,48.609 C211.052762,48.9816667 210.970429,49.2416667 210.970429,49.389 C210.970429,49.571 211.057095,49.7205 211.230429,49.8375 C211.403762,49.9545 211.624762,50.013 211.893429,50.013 C212.335429,50.013 212.751429,49.8786667 213.141429,49.61 C213.427429,49.4106667 213.570429,49.259 213.570429,49.155 C213.570429,49.1116667 213.544429,49.09 213.492429,49.09 C213.466429,49.09 213.431762,49.103 213.388429,49.129 C212.920429,49.5276667 212.565095,49.727 212.322429,49.727 C212.123095,49.727 212.023429,49.636 212.023429,49.454 C212.023429,49.3586667 212.084095,49.1723333 212.205429,48.895 L212.205429,48.895 L213.258429,46.516 C213.483762,46.0046667 213.596429,45.645 213.596429,45.437 C213.596429,45.1336667 213.488095,44.8845 213.271429,44.6895 C213.054762,44.4945 212.773095,44.397 212.426429,44.397 C211.828429,44.397 211.208762,44.735 210.567429,45.411 C210.437429,45.5496667 210.337762,45.658 210.268429,45.736 L210.268429,45.736 L210.749429,44.514 C210.758095,44.4966667 210.762429,44.475 210.762429,44.449 C210.762429,44.397 210.736429,44.371 210.684429,44.371 C210.667095,44.371 210.628095,44.384 210.567429,44.41 C210.420095,44.4793333 210.112429,44.514 209.644429,44.514 C209.575095,44.514 209.475429,44.5053333 209.345429,44.488 C209.215429,44.4706667 209.120095,44.462 209.059429,44.462 C208.964095,44.462 208.916429,44.4923333 208.916429,44.553 C208.916429,44.6396667 209.046429,44.6873333 209.306429,44.696 C209.514429,44.7046667 209.622762,44.7393333 209.631429,44.8 C209.614095,44.8346667 209.592429,44.8736667 209.566429,44.917 L209.566429,44.917 L207.577429,49.701 L207.486429,49.896 C207.460429,49.9306667 207.447429,49.9566667 207.447429,49.974 C207.447429,50.0173333 207.477762,50.039 207.538429,50.039 C207.573095,50.039 207.603429,50.0346667 207.629429,50.026 C207.794095,50.0086667 207.911095,50 207.980429,50 C208.058429,50 208.110429,50.0043333 208.136429,50.013 C208.309762,50.0303333 208.405095,50.039 208.422429,50.039 Z M217.341821,42.603 C217.679821,42.603 217.848821,42.421 217.848821,42.057 C217.848821,41.6843333 217.679821,41.498 217.341821,41.498 C216.943155,41.498 216.743821,41.6756667 216.743821,42.031 C216.743821,42.1956667 216.800155,42.3321667 216.912821,42.4405 C217.025488,42.5488333 217.168488,42.603 217.341821,42.603 Z M214.871821,50.169 C215.331155,50.169 215.742821,50.013 216.106821,49.701 C216.349488,49.493 216.470821,49.337 216.470821,49.233 C216.470821,49.181 216.444821,49.155 216.392821,49.155 C216.349488,49.155 216.288821,49.207 216.210821,49.311 C216.098155,49.4756667 215.935655,49.6165 215.723321,49.7335 C215.510988,49.8505 215.322488,49.909 215.157821,49.909 C214.915155,49.909 214.793821,49.792 214.793821,49.558 C214.793821,49.4453333 214.893488,49.1593333 215.092821,48.7 L215.092821,48.7 L216.587821,45.281 C216.726488,44.9603333 216.826155,44.748 216.886821,44.644 C216.930155,44.566 216.951821,44.514 216.951821,44.488 C216.951821,44.4186667 216.921488,44.384 216.860821,44.384 C216.826155,44.384 216.765488,44.4013333 216.678821,44.436 C216.531488,44.4966667 216.275821,44.527 215.911821,44.527 C215.643155,44.527 215.448155,44.5183333 215.326821,44.501 C215.205488,44.4836667 215.140488,44.475 215.131821,44.475 C215.062488,44.475 215.027821,44.514 215.027821,44.592 C215.027821,44.6353333 215.062488,44.6656667 215.131821,44.683 C215.513155,44.709 215.703821,44.761 215.703821,44.839 C215.703821,44.865 215.690821,44.8953333 215.664821,44.93 L215.620946,44.995 C215.578696,45.0665 215.541321,45.1575 215.508821,45.268 L215.508821,45.268 L214.156821,48.284 C213.940155,48.7693333 213.831821,49.1203333 213.831821,49.337 C213.831821,49.5796667 213.929321,49.779 214.124321,49.935 C214.319321,50.091 214.568488,50.169 214.871821,50.169 Z M218.045214,50.169 C218.764548,50.169 219.397214,49.766 219.943214,48.96 C219.882548,49.1333333 219.852214,49.285 219.852214,49.415 C219.852214,49.623 219.936714,49.792 220.105714,49.922 C220.274714,50.052 220.493548,50.117 220.762214,50.117 C221.290881,50.117 221.745881,49.9133333 222.127214,49.506 C222.317881,49.298 222.413214,49.1463333 222.413214,49.051 C222.413214,49.0163333 222.395881,48.999 222.361214,48.999 C222.326548,48.999 222.274548,49.0466667 222.205214,49.142 C221.867214,49.6013333 221.529214,49.831 221.191214,49.831 C220.965881,49.831 220.853214,49.7183333 220.853214,49.493 C220.853214,49.2936667 220.935548,49.0076667 221.100214,48.635 L221.100214,48.635 L222.816214,44.735 C222.885548,44.579 222.920214,44.488 222.920214,44.462 C222.920214,44.4013333 222.894214,44.371 222.842214,44.371 C222.816214,44.371 222.785881,44.384 222.751214,44.41 C222.647214,44.462 222.499881,44.488 222.309214,44.488 C222.274548,44.488 222.213881,44.4793333 222.127214,44.462 C222.040548,44.4446667 221.988548,44.436 221.971214,44.436 C221.919214,44.436 221.858548,44.5053333 221.789214,44.644 L221.789214,44.644 L221.464214,45.333 C221.386214,44.709 221.022214,44.397 220.372214,44.397 C219.748214,44.397 219.063548,44.7263333 218.318214,45.385 C217.772214,45.8703333 217.334548,46.4076667 217.005214,46.997 C216.675881,47.5863333 216.511214,48.128 216.511214,48.622 C216.511214,49.0726667 216.654214,49.4431667 216.940214,49.7335 C217.226214,50.0238333 217.594548,50.169 218.045214,50.169 Z M218.383214,49.857 C217.897881,49.857 217.655214,49.5623333 217.655214,48.973 C217.655214,48.4876667 217.793881,47.9221667 218.071214,47.2765 C218.348548,46.6308333 218.716881,46.0176667 219.176214,45.437 C219.574881,44.9256667 219.990881,44.67 220.424214,44.67 C220.675548,44.67 220.881381,44.7523333 221.041714,44.917 C221.202048,45.0816667 221.282214,45.2983333 221.282214,45.567 C221.282214,45.6623333 221.225881,45.8313333 221.113214,46.074 L221.113214,46.074 L220.099214,48.258 C219.882548,48.7173333 219.611714,49.0986667 219.286714,49.402 C218.961714,49.7053333 218.660548,49.857 218.383214,49.857 Z" id="UnitedRepublicofTanzania" fill="#757575"></path>
        </g>
    </g>
</svg>