<svg width="120" height="120" viewBox="0 0 120 120" fill="none" xmlns="http://www.w3.org/2000/svg">
<path d="M60.0006 0C26.8631 0 0 26.8631 0 60.0006C0 93.1393 26.8631 120 60.0006 120C93.1357 120 120 93.1393 120 60.0006C120 26.8631 93.1357 0 60.0006 0ZM60.0013 109.206C32.8239 109.206 10.7951 87.1757 10.7951 60.0006C10.7951 32.8255 32.8239 10.7967 60.0013 10.7967C87.1728 10.7967 109.204 32.8255 109.204 60.0006C109.204 87.1757 87.1728 109.206 60.0013 109.206H60.0013Z" fill="#9BE270"/>
<path d="M106.435 26.999C106.755 27.0601 107.06 27.1866 107.33 27.3707C107.599 27.5548 107.828 27.7926 108.002 28.0691C108.537 28.8627 108.668 29.618 108.394 30.335C108.266 30.6966 108.038 31.0145 107.736 31.252L107.072 30.2673C107.229 30.0986 107.347 29.8973 107.418 29.6777C107.455 29.5039 107.454 29.324 107.414 29.1507C107.375 28.9774 107.298 28.8148 107.189 28.6741C107.082 28.5044 106.933 28.3646 106.757 28.2677C106.581 28.1708 106.383 28.1201 106.182 28.1201C105.756 28.1094 105.277 28.2791 104.75 28.6361C104.223 28.992 103.9 29.3681 103.782 29.7632C103.724 29.9471 103.708 30.142 103.738 30.3327C103.767 30.5235 103.84 30.7049 103.951 30.8629C104.042 31.0181 104.168 31.1496 104.32 31.2469C104.471 31.3441 104.643 31.4044 104.822 31.4228C105.066 31.4345 105.309 31.3945 105.535 31.3054L106.194 32.2782C105.668 32.5358 105.069 32.6029 104.5 32.468C103.922 32.3221 103.424 31.9565 103.112 31.4489C102.653 30.7727 102.512 30.0941 102.682 29.412C102.859 28.7299 103.327 28.1324 104.087 27.6195C104.908 27.0666 105.69 26.8598 106.435 26.999" fill="#73BD46"/>
<path d="M107.438 37.795C106.85 37.6135 106.369 37.1615 106.003 36.4367C105.634 35.7154 105.549 35.0625 105.749 34.4781C105.969 33.7176 106.534 33.1067 107.444 32.6452C108.368 32.173 109.194 32.075 109.922 32.351C110.511 32.5325 110.989 32.9845 111.358 33.707C111.725 34.4306 111.813 35.0843 111.613 35.6668C111.409 36.4165 110.84 37.0251 109.914 37.4984C109.005 37.9611 108.18 38.06 107.438 37.795ZM107.868 36.7404C108.303 36.8305 108.806 36.7305 109.375 36.4402C109.944 36.1496 110.317 35.8044 110.504 35.3975C110.596 35.2034 110.64 34.99 110.632 34.7752C110.625 34.5604 110.566 34.3507 110.46 34.1637C110.369 33.9688 110.234 33.7981 110.065 33.6651C109.896 33.5322 109.699 33.4409 109.488 33.3985C109.051 33.3072 108.548 33.4056 107.979 33.6975C107.411 33.9857 107.034 34.3357 106.85 34.7426C106.76 34.9386 106.718 35.1529 106.726 35.3683C106.735 35.5836 106.794 35.7939 106.898 35.9823C106.988 36.1764 107.123 36.3463 107.292 36.4781C107.46 36.6099 107.657 36.6998 107.868 36.7404" fill="#73BD46"/>
<path d="M114.352 41.1828L114.938 42.7867L109.6 44.7287L109.221 43.6895L112.829 42.3762C112.937 42.3383 113.081 42.2872 113.267 42.2208C113.458 42.1544 113.6 42.1034 113.704 42.0654L108.856 42.6882L108.463 41.6028L112.577 38.9703C112.476 39.0059 112.331 39.0593 112.141 39.1316C111.957 39.2028 111.814 39.2562 111.71 39.2942L108.099 40.6086L107.722 39.567L113.059 37.625L113.649 39.2479L109.804 41.7463L114.352 41.1828Z" fill="#73BD46"/>
<path d="M116.28 48.1429L116.664 49.8061L111.131 51.0838L110.879 50.0054L114.623 49.1406C114.731 49.1168 114.883 49.0836 115.074 49.0409C115.27 48.9982 115.422 48.965 115.527 48.9424L110.64 48.965L110.381 47.8439L114.787 45.7299C114.68 45.7548 114.531 45.7916 114.338 45.839C114.147 45.8865 113.995 45.9209 113.886 45.9446L110.145 46.8118L109.894 45.7323L115.431 44.4546L115.817 46.1368L111.698 48.15L116.28 48.1429Z" fill="#73BD46"/>
<path d="M116.937 51.5454L117.063 52.7448L113.589 53.1114C113.298 53.1225 113.014 53.2005 112.757 53.3391C112.454 53.5135 112.327 53.8433 112.377 54.3226C112.429 54.8019 112.619 55.0937 112.951 55.204C113.232 55.2841 113.528 55.3008 113.817 55.2527L117.287 54.8873L117.413 56.089L113.944 56.4532C113.342 56.5137 112.864 56.4722 112.509 56.3215C111.861 56.0368 111.484 55.4061 111.38 54.4294C111.279 53.4483 111.514 52.7531 112.093 52.3367C112.406 52.116 112.864 51.9725 113.463 51.912L116.937 51.5454Z" fill="#73BD46"/>
<path d="M117.494 57.7285V58.9741L113.531 61.2341H117.494V62.3409H111.816V61.1546L115.852 58.8342H111.816V57.7285H117.494Z" fill="#73BD46"/>
<path d="M111.609 64.4293L111.715 63.2549L117.371 63.752L117.269 64.9252L111.609 64.4293Z" fill="#73BD46"/>
<path d="M116.606 70.2592L115.611 70.1192L115.845 68.437L111.217 67.7845L111.384 66.6029L116.011 67.253L116.249 65.5625L117.244 65.7025L116.606 70.2592Z" fill="#73BD46"/>
<path d="M115.703 74.4945L115.401 75.8065L112.373 73.1575L110.291 72.677L110.559 71.5204L112.641 71.9984L116.537 70.8833L116.221 72.2464L113.547 72.8384L115.703 74.4945Z" fill="#73BD46"/>
<path d="M14.0498 25.9331L14.8375 24.8477L20.6149 26.5571L19.858 27.5999L18.6978 27.212L17.4712 28.9025L18.1853 29.9073L17.4557 30.9121L14.0498 25.9331ZM16.8673 28.0697L17.7144 26.9024L15.4876 26.1621L16.8673 28.0697Z" fill="#73BD46"/>
<path d="M16.9814 22.2259L19.729 19.2803L20.4586 19.9624L18.5154 22.0444L19.4715 22.9365L21.1703 21.112L21.894 21.7846L20.1928 23.6092L21.9355 25.232L21.13 26.0957L16.9814 22.2259Z" fill="#73BD46"/>
<path d="M23.5725 16.0091C23.7887 15.9358 24.0194 15.9155 24.2451 15.9498C24.4316 15.9777 24.6125 16.0345 24.7814 16.1182C24.9614 16.2136 25.1214 16.3429 25.2523 16.4991C25.4347 16.7093 25.5619 16.9617 25.6225 17.2334C25.6557 17.3792 25.6598 17.5301 25.6346 17.6775C25.6093 17.8249 25.5552 17.9659 25.4754 18.0923C25.7043 18.0017 25.9575 17.9933 26.1919 18.0686C26.4697 18.1947 26.7122 18.3875 26.8978 18.6297L27.1469 18.9168C27.2593 19.0528 27.3827 19.1794 27.5158 19.2952C27.5677 19.3384 27.6282 19.3699 27.6933 19.3877C27.7583 19.4055 27.8265 19.4092 27.8931 19.3984L27.9868 19.5052L26.9998 20.3617C26.8906 20.2917 26.8029 20.2312 26.7423 20.185C26.6137 20.082 26.4931 19.9694 26.3817 19.848L26.0282 19.4542C25.7885 19.1837 25.5798 19.0449 25.4042 19.039C25.2286 19.0307 25.0115 19.1398 24.747 19.37L23.8228 20.1731L25.2832 21.8541L24.4089 22.6157L20.6826 18.3295L22.786 16.5002C23.0169 16.2911 23.2832 16.1248 23.5725 16.0091ZM22.2047 18.3118L23.2059 19.4649L24.2202 18.581C24.3829 18.4559 24.5168 18.2973 24.6129 18.116C24.7232 17.8799 24.6686 17.6427 24.461 17.4018C24.2345 17.1408 23.996 17.0436 23.7469 17.1029C23.559 17.1651 23.3877 17.2694 23.2462 17.4078L22.2047 18.3118Z" fill="#73BD46"/>
<path d="M29.4974 18.3646L28.5543 19.0764L25.1377 14.5364L26.0796 13.8281L29.4974 18.3646Z" fill="#73BD46"/>
<path d="M27.9438 13.1652C28.0107 12.8453 28.1427 12.5427 28.3317 12.2761C28.5207 12.0095 28.7626 11.7848 29.0423 11.6158C29.8419 11.0962 30.5984 10.9784 31.3118 11.2623C31.6714 11.3982 31.9857 11.632 32.2193 11.9373L31.224 12.5862C31.0564 12.4267 30.8565 12.305 30.6379 12.2292C30.3212 12.1402 29.989 12.209 29.6319 12.4427C29.4605 12.5468 29.3181 12.6925 29.2179 12.8662C29.1177 13.04 29.063 13.2363 29.0589 13.4368C29.0423 13.8639 29.2037 14.3456 29.5501 14.8782C29.8977 15.4144 30.2682 15.7438 30.6617 15.8664C30.8442 15.9283 31.0387 15.9471 31.2297 15.9211C31.4207 15.8952 31.6031 15.8253 31.7626 15.7169C31.9196 15.6293 32.0537 15.5056 32.1537 15.3561C32.2537 15.2066 32.3168 15.0355 32.3379 14.8569C32.3535 14.6129 32.3175 14.3683 32.2323 14.1391L33.217 13.4997C33.4656 14.0299 33.5222 14.63 33.3771 15.1973C33.2193 15.7721 32.8458 16.2638 32.3344 16.5699C31.6499 17.0112 30.9701 17.1441 30.2915 16.959C29.6118 16.7704 29.0233 16.2947 28.5215 15.5224C27.9841 14.6908 27.7896 13.9066 27.9438 13.1652" fill="#73BD46"/>
<path d="M33.877 8.91892L35.0716 8.31152L39.442 12.4589L38.2948 13.045L37.4407 12.1694L35.5746 13.1197L35.7549 14.3369L34.6493 14.9016L33.877 8.91892ZM35.4168 12.1018L36.6992 11.447L35.0538 9.779L35.4168 12.1018Z" fill="#73BD46"/>
<path d="M38.0986 6.83828L39.2683 6.4112L42.7502 9.36395L41.393 5.63771L42.4311 5.25928L44.3743 10.5977L43.2603 11.0046L39.7002 8.00562L41.0799 11.7971L40.043 12.1755L38.0986 6.83828Z" fill="#73BD46"/>
<path d="M50.4878 3.46476C50.8973 3.52029 51.2764 3.71112 51.565 4.0069C51.805 4.24388 51.9951 4.52668 52.1237 4.83852C52.2455 5.13067 52.3362 5.43487 52.3942 5.74605C52.5311 6.401 52.4918 7.08054 52.2803 7.71535C51.998 8.4829 51.4368 8.94082 50.5886 9.08911L48.178 9.51381L47.1934 3.91912L49.6028 3.4956C49.8945 3.44061 50.1929 3.43021 50.4878 3.46476M48.4983 4.69378L49.1425 8.34172L50.2185 8.15191C50.7713 8.05345 51.1071 7.71535 51.2304 7.13286C51.2967 6.76973 51.2931 6.39729 51.2198 6.03551C51.1189 5.46608 50.954 5.04494 50.7168 4.77326C50.4878 4.49804 50.1074 4.40748 49.5755 4.5016L48.4983 4.69378Z" fill="#73BD46"/>
<path d="M57.5934 3.61879L54.598 3.82759L54.6786 5.03171L57.4309 4.83833L57.4997 5.82179L54.7498 6.01516L54.8495 7.47315L57.9873 7.2525L58.0573 8.27392L53.7652 8.57287L53.3701 2.90344L57.5246 2.61279L57.5934 3.61879Z" fill="#73BD46"/>
<path d="M62.4364 2.65491L63.6678 2.69881L61.5336 8.30774L60.4125 8.26859L58.6924 2.52441L59.9594 2.56949L61.0413 6.9233L62.4364 2.65491Z" fill="#73BD46"/>
<path d="M68.7144 4.19669L65.7237 3.88231L65.5991 5.08168L68.3443 5.37114L68.2399 6.35223L65.4959 6.06276L65.3429 7.51601L68.4724 7.84343L68.3633 8.8613L64.083 8.41049L64.6774 2.76123L68.8188 3.19661L68.7144 4.19669Z" fill="#73BD46"/>
<path d="M70.3794 3.50977L71.5408 3.75652L70.574 8.31555L73.3227 8.9004L73.1115 9.89929L69.2002 9.06768L70.3794 3.50977Z" fill="#73BD46"/>
<path d="M78.1497 10.9766C77.6052 11.2613 76.9492 11.2827 76.1745 11.03C75.4022 10.7797 74.8826 10.3763 74.6109 9.82351C74.2289 9.1307 74.1965 8.29909 74.5136 7.32868C74.8351 6.33929 75.3496 5.68602 76.057 5.36887C76.6028 5.07941 77.26 5.06043 78.0335 5.31311C78.8046 5.56343 79.3254 5.96321 79.5994 6.51842C79.9826 7.19225 80.0111 8.02267 79.6908 9.01325C79.3764 9.98129 78.8627 10.6357 78.1497 10.9766ZM77.712 9.92435C78.0809 9.67878 78.3652 9.2521 78.5649 8.64431C78.7607 8.0381 78.7785 7.52798 78.6219 7.11158C78.5505 6.90946 78.4317 6.7274 78.2754 6.58064C78.1192 6.43389 77.93 6.32672 77.7238 6.26811C77.5211 6.19447 77.3038 6.16963 77.0897 6.1956C76.8755 6.22157 76.6705 6.29762 76.4912 6.41758C76.1187 6.65841 75.8305 7.0843 75.6347 7.69289C75.4366 8.30147 75.4176 8.81514 75.5778 9.23036C75.6531 9.43207 75.7747 9.61333 75.9327 9.7596C76.0907 9.90587 76.2808 10.0131 76.4877 10.0726C76.6889 10.1465 76.9048 10.1715 77.1177 10.1458C77.3305 10.12 77.5342 10.0441 77.712 9.92436" fill="#73BD46"/>
<path d="M84.1537 11.4529C83.729 11.5632 83.2319 11.4825 82.6613 11.218L81.5675 10.7079L80.7062 12.5585L79.6338 12.0603L82.0373 6.91162L84.2794 7.95677C84.7955 8.19878 85.1454 8.52265 85.3269 8.93192C85.5132 9.3412 85.4741 9.82404 85.2142 10.3792C84.9319 10.9878 84.576 11.3461 84.1537 11.4529M84.1999 9.21782C84.0869 9.01364 83.9061 8.85542 83.6886 8.77058L82.6874 8.30436L81.9839 9.8193L82.9828 10.2879C83.1896 10.3997 83.4303 10.4314 83.659 10.3769C83.7709 10.3362 83.8726 10.2716 83.957 10.1876C84.0414 10.1036 84.1065 10.0022 84.1477 9.89048C84.2711 9.62118 84.2889 9.39815 84.1999 9.21783" fill="#73BD46"/>
<path d="M90.3999 11.1886L91.878 12.0415L89.038 16.9612L88.0794 16.4084L90.0025 13.0819C90.0559 12.9847 90.133 12.8518 90.2338 12.6845C90.3358 12.5089 90.4177 12.3785 90.4711 12.2835L87.1565 15.8745L86.1564 15.2992L87.6144 10.6369C87.5634 10.7283 87.4875 10.8647 87.389 11.0367C87.2905 11.2123 87.2146 11.3464 87.1612 11.4413L85.2382 14.7689L84.2832 14.2161L87.1209 9.29639L88.6168 10.1612L87.2775 14.5435L90.3999 11.1886Z" fill="#73BD46"/>
<path d="M96.0367 16.4297L93.6367 14.6205L92.9107 15.5815L95.1161 17.2435L94.5217 18.0312L92.3152 16.3704L91.4385 17.5365L93.9499 19.4287L93.3342 20.2449L89.8975 17.654L93.3153 13.1187L96.6441 15.623L96.0367 16.4297Z" fill="#73BD46"/>
<path d="M97.8267 16.6558L98.739 17.5064L97.6867 21.9479L100.392 19.0486L101.201 19.8007L97.3261 23.9564L96.4589 23.1473L97.5135 18.6144L94.7624 21.5659L93.9521 20.8103L97.8267 16.6558Z" fill="#73BD46"/>
<path d="M104.992 23.9648L104.246 24.6375L103.109 23.3752L99.6343 26.5035L98.8359 25.615L102.307 22.4878L101.165 21.2173L101.914 20.5435L104.992 23.9648Z" fill="#73BD46"/>
<path d="M108.071 81.0877C108.071 80.5951 108.218 80.1135 108.491 79.704C108.765 79.2944 109.154 78.9753 109.61 78.7869C110.065 78.5985 110.566 78.5494 111.049 78.6457C111.532 78.742 111.976 78.9795 112.324 79.328C112.672 79.6765 112.909 80.1205 113.005 80.6037C113.101 81.087 113.051 81.5878 112.862 82.0429C112.674 82.4979 112.354 82.8867 111.944 83.1602C111.535 83.4336 111.053 83.5794 110.56 83.579C109.9 83.5786 109.267 83.3159 108.8 82.8487C108.333 82.3816 108.071 81.7481 108.071 81.0877Z" fill="#73BD46"/>
<path d="M16.3876 96.3393C15.7767 96.2634 15.227 95.9012 14.7387 95.2527C14.2499 94.6026 14.0518 93.9762 14.149 93.3652C14.2356 92.5799 14.6857 91.8804 15.4991 91.2666C16.3295 90.6403 17.1271 90.3994 17.8919 90.5442C18.5005 90.6248 19.0486 90.9843 19.5385 91.6332C20.0261 92.2821 20.223 92.9109 20.1293 93.5195C20.0593 94.2894 19.6061 94.9881 18.7769 95.6169C17.9619 96.2278 17.1659 96.4722 16.3876 96.3393M16.6297 95.2266C17.0733 95.2384 17.5506 95.0526 18.0615 94.669C18.5717 94.2858 18.8809 93.8785 18.9892 93.4471C19.0465 93.24 19.0534 93.0221 19.0092 92.8118C18.965 92.6015 18.8711 92.4048 18.7354 92.2382C18.6124 92.0616 18.4495 91.9166 18.2598 91.815C18.0701 91.7133 17.8591 91.658 17.644 91.6534C17.1979 91.638 16.7186 91.823 16.2097 92.2086C15.6972 92.5941 15.3876 93.001 15.2796 93.4352C15.2255 93.6435 15.2209 93.8615 15.2662 94.0719C15.3116 94.2822 15.4055 94.479 15.5406 94.6465C15.6629 94.8229 15.8255 94.9675 16.0149 95.0684C16.2043 95.1693 16.4151 95.2235 16.6297 95.2266" fill="#73BD46"/>
<path d="M21.8825 94.7869L20.0639 97.5855L19.5253 98.3293L20.2774 97.8334L23.0748 96.0231L23.9467 96.9235L22.0735 99.6675L21.5433 100.423L22.2906 99.9427L25.1829 98.2035L26.0216 99.0719L20.8232 101.868L20.0366 101.053L21.9502 98.2522L22.6003 97.3435L21.6714 97.9639L18.804 99.7778L18.04 98.9841L21.0058 93.8794L21.8825 94.7869Z" fill="#73BD46"/>
<path d="M27.0413 99.7227L28.0675 100.583L25.9582 106.228L24.9724 105.402L25.4421 104.27L23.8394 102.926L22.7883 103.568L21.8369 102.769L27.0413 99.7227ZM24.7137 102.381L25.8194 103.307L26.7115 101.14L24.7137 102.381Z" fill="#73BD46"/>
<path d="M32.606 104.087C32.7282 104.28 32.8042 104.499 32.8279 104.726C32.8449 104.914 32.8333 105.103 32.7935 105.287C32.7456 105.485 32.6594 105.672 32.5396 105.836C32.3776 106.064 32.1626 106.248 31.9132 106.373C31.7801 106.44 31.635 106.481 31.4861 106.492C31.3373 106.503 31.1877 106.485 31.046 106.438C31.189 106.638 31.2582 106.882 31.2418 107.127C31.1883 107.428 31.0597 107.709 30.8681 107.947L30.651 108.259C30.5439 108.4 30.4505 108.551 30.3722 108.71C30.3432 108.77 30.3274 108.835 30.3258 108.902C30.3241 108.969 30.3367 109.035 30.3627 109.096L30.2808 109.214L29.212 108.465C29.2547 108.343 29.2926 108.245 29.3223 108.171C29.3893 108.021 29.4699 107.878 29.5631 107.743L29.8597 107.306C30.0626 107.005 30.1468 106.77 30.11 106.596C30.0756 106.426 29.9159 106.241 29.6307 106.039L28.6271 105.337L27.3483 107.162L26.4004 106.495L29.658 101.843L31.9393 103.44C32.1987 103.614 32.4246 103.833 32.606 104.087M30.04 103.317L29.1657 104.566L30.2654 105.337C30.4272 105.464 30.614 105.555 30.8135 105.605C31.0709 105.654 31.2868 105.547 31.4684 105.287C31.6677 105.002 31.7068 104.75 31.5882 104.521C31.4817 104.354 31.3395 104.213 31.1718 104.108L30.04 103.317Z" fill="#73BD46"/>
<path d="M36.6225 106.313C36.9051 106.614 37.0792 107.001 37.1172 107.412C37.1547 107.747 37.1244 108.086 37.0282 108.409C36.9389 108.713 36.8177 109.007 36.6664 109.285C36.3622 109.88 35.9043 110.383 35.3401 110.742C34.6366 111.162 33.9082 111.163 33.162 110.746L31.0195 109.562L33.7742 104.592L35.9143 105.779C36.1754 105.921 36.4141 106.101 36.6225 106.313M34.3021 106.013L32.5048 109.256L33.461 109.787C33.9521 110.058 34.4254 110.004 34.8881 109.629C35.1686 109.389 35.4009 109.098 35.5726 108.771C35.8538 108.266 35.989 107.832 35.9772 107.476C35.97 107.117 35.7304 106.805 35.2594 106.544L34.3021 106.013Z" fill="#73BD46"/>
<path d="M37.3339 110.888C37.2638 111.086 37.2482 111.299 37.2888 111.505C37.3695 111.797 37.6221 112.038 38.0516 112.229C38.2593 112.328 38.4816 112.393 38.71 112.422C39.0635 112.446 39.3043 112.315 39.4337 112.021C39.4723 111.941 39.4883 111.852 39.4797 111.764C39.4711 111.676 39.4384 111.591 39.385 111.521C39.2152 111.306 39.0131 111.118 38.7859 110.965L38.2924 110.596C37.806 110.236 37.494 109.936 37.3517 109.698C37.1061 109.306 37.1002 108.853 37.3256 108.344C37.4177 108.123 37.557 107.925 37.7337 107.764C37.9103 107.603 38.12 107.483 38.3482 107.411C38.8227 107.255 39.3874 107.322 40.0422 107.614C40.5501 107.823 40.9734 108.196 41.2452 108.673C41.5026 109.134 41.5216 109.643 41.2938 110.204L40.2522 109.739C40.3134 109.601 40.3351 109.448 40.3148 109.299C40.2944 109.149 40.2329 109.008 40.1371 108.892C39.9837 108.712 39.7886 108.571 39.5689 108.484C39.3389 108.366 39.079 108.32 38.8227 108.352C38.7212 108.367 38.6254 108.408 38.5447 108.471C38.464 108.534 38.4011 108.618 38.3624 108.713C38.3217 108.797 38.3059 108.892 38.3168 108.985C38.3277 109.078 38.3649 109.166 38.4241 109.239C38.597 109.433 38.7916 109.605 39.0042 109.754L39.8038 110.369C40.0945 110.572 40.3397 110.834 40.5239 111.137C40.6218 111.335 40.6721 111.552 40.6709 111.772C40.6696 111.993 40.6168 112.209 40.5168 112.406C40.4192 112.633 40.272 112.835 40.0861 112.998C39.9001 113.161 39.68 113.281 39.442 113.347C38.9413 113.498 38.3612 113.426 37.7016 113.132C37.0254 112.831 36.5616 112.439 36.3113 111.959C36.1886 111.723 36.1234 111.461 36.1212 111.195C36.1189 110.928 36.1795 110.665 36.2982 110.427L37.3339 110.888Z" fill="#73BD46"/>
<path d="M45.932 109.75L47.2274 110.098L47.7008 116.105L46.4563 115.772L46.4053 114.549L44.385 114.01L43.7029 115.035L42.5059 114.713L45.932 109.75ZM44.9485 113.145L46.3389 113.518L46.2309 111.175L44.9485 113.145Z" fill="#73BD46"/>
<path d="M51.6953 111.575C51.9562 111.378 52.2548 111.236 52.5728 111.159C52.8907 111.081 53.2212 111.07 53.5436 111.126C54.4915 111.258 55.1368 111.668 55.4892 112.348C55.6698 112.687 55.7536 113.069 55.7312 113.453L54.5555 113.287C54.5341 113.058 54.4629 112.836 54.3467 112.637C54.1688 112.361 53.8687 112.193 53.4487 112.138C53.2508 112.103 53.0476 112.12 52.8578 112.185C52.668 112.251 52.4979 112.363 52.3632 112.512C52.069 112.823 51.8744 113.294 51.789 113.923C51.7001 114.553 51.7641 115.046 51.9753 115.398C52.0736 115.563 52.2087 115.705 52.3701 115.81C52.5316 115.916 52.7151 115.983 52.9065 116.006C53.083 116.042 53.2654 116.037 53.4393 115.99C53.6132 115.943 53.7736 115.856 53.9078 115.736C54.0778 115.56 54.2102 115.352 54.2969 115.124L55.4619 115.287C55.2995 115.85 54.949 116.34 54.4689 116.675C53.9719 117.004 53.3674 117.129 52.7808 117.024C51.9729 116.91 51.373 116.561 50.9811 115.978C50.5908 115.39 50.4596 114.643 50.5873 113.734C50.7261 112.752 51.0986 112.033 51.6953 111.575" fill="#73BD46"/>
<path d="M60.562 116.877C60.1171 117.303 59.4887 117.502 58.6769 117.475C57.8666 117.445 57.2569 117.203 56.8405 116.749C56.2829 116.184 56.0243 115.394 56.0587 114.375C56.0943 113.337 56.4122 112.564 57.0042 112.063C57.4479 111.638 58.0758 111.439 58.8881 111.465C59.6971 111.493 60.3093 111.736 60.7245 112.194C61.2785 112.736 61.5359 113.524 61.5027 114.565C61.4671 115.584 61.1535 116.354 60.562 116.877M59.8466 115.988C60.1385 115.652 60.2915 115.164 60.3176 114.525C60.3378 113.886 60.2168 113.391 59.9498 113.033C59.8247 112.859 59.6599 112.717 59.4691 112.619C59.2783 112.521 59.0669 112.471 58.8525 112.471C58.6374 112.456 58.4218 112.492 58.2231 112.575C58.0243 112.658 57.8478 112.787 57.7077 112.951C57.4158 113.288 57.2596 113.776 57.2391 114.416C57.2142 115.056 57.3399 115.554 57.6068 115.91C57.7344 116.083 57.9011 116.225 58.0934 116.322C58.2857 116.419 58.4982 116.47 58.7137 116.47C58.9271 116.484 59.141 116.448 59.3378 116.365C59.5347 116.281 59.709 116.152 59.8466 115.988" fill="#73BD46"/>
<path d="M65.7463 111.385L67.4498 111.234L67.9433 116.894L66.8424 116.988L66.5091 113.161C66.4984 113.053 66.4854 112.899 66.4711 112.699C66.4545 112.499 66.4426 112.346 66.4355 112.24L65.7783 117.084L64.6323 117.184L63.1506 112.527C63.1613 112.635 63.1767 112.79 63.1981 112.989C63.2159 113.185 63.2301 113.338 63.242 113.448L63.5753 117.275L62.4732 117.374L61.9785 111.711L63.6975 111.561L65.1175 115.923L65.7463 111.385Z" fill="#73BD46"/>
<path d="M71.725 110.395L73.3941 110.041L74.5721 115.598L73.4938 115.828L72.693 112.067C72.6705 111.96 72.6408 111.807 72.5993 111.614C72.5637 111.417 72.5329 111.268 72.5103 111.162L72.451 116.05L71.3204 116.287L69.2883 111.848C69.3084 111.951 69.3417 112.102 69.3855 112.297C69.4283 112.493 69.465 112.643 69.4852 112.749L70.286 116.509L69.2017 116.74L68.0225 111.182L69.7118 110.824L71.6502 114.978L71.725 110.395Z" fill="#73BD46"/>
<path d="M79.7063 113.431C79.4346 113.986 78.9126 114.388 78.1403 114.638C77.3692 114.889 76.7132 114.87 76.1663 114.583C75.4521 114.245 74.9373 113.591 74.6217 112.621C74.3014 111.63 74.3334 110.799 74.7178 110.126C74.9907 109.573 75.5126 109.171 76.2837 108.92C77.0572 108.668 77.7133 108.687 78.2602 108.976C78.9672 109.294 79.4805 109.948 79.8 110.939C80.1132 111.909 80.082 112.74 79.7063 113.431ZM78.7335 112.839C78.8889 112.424 78.8699 111.913 78.673 111.306C78.4749 110.7 78.1898 110.274 77.8177 110.029C77.6407 109.908 77.4374 109.831 77.2247 109.804C77.0119 109.777 76.7959 109.802 76.5946 109.876C76.3873 109.935 76.1969 110.042 76.0392 110.189C75.8814 110.336 75.7607 110.518 75.687 110.72C75.5257 111.134 75.547 111.647 75.7428 112.257C75.9409 112.864 76.2244 113.291 76.6017 113.534C76.7833 113.647 76.9871 113.718 77.1991 113.743C77.411 113.769 77.6259 113.747 77.8289 113.681C78.0318 113.615 78.2179 113.505 78.3741 113.36C78.5303 113.215 78.653 113.037 78.7335 112.839" fill="#73BD46"/>
<path d="M79.2422 108.053L80.3799 107.547L84.0598 110.25L82.4453 106.626L83.456 106.178L85.767 111.367L84.6839 111.85L80.922 109.107L82.5639 112.794L81.552 113.243L79.2422 108.053Z" fill="#73BD46"/>
<path d="M85.4102 105.376L88.8256 103.243L89.3523 104.089L86.9381 105.598L87.631 106.707L89.7438 105.386L90.267 106.223L88.1541 107.544L89.414 109.563L88.4163 110.188L85.4102 105.376Z" fill="#73BD46"/>
<path d="M89.0293 103.103L90.0044 102.392L92.0568 105.219C92.2138 105.466 92.4237 105.674 92.6713 105.829C92.9738 106.001 93.3238 105.948 93.7141 105.662C94.1008 105.382 94.261 105.068 94.1922 104.726C94.118 104.443 93.9841 104.179 93.7995 103.951L91.746 101.129L92.7235 100.418L94.7746 103.243C95.1317 103.732 95.331 104.167 95.3773 104.549C95.4556 105.255 95.0977 105.896 94.3037 106.472C93.5065 107.054 92.784 107.197 92.1363 106.904C91.7875 106.74 91.4351 106.416 91.0816 105.929L89.0293 103.103Z" fill="#73BD46"/>
<path d="M96.22 97.2153L96.8926 97.9639L95.6292 99.1004L98.7575 102.575L97.869 103.374L94.7418 99.9012L93.4725 101.042L92.7998 100.294L96.22 97.2153Z" fill="#73BD46"/>
<path d="M96.3438 97.1156L97.1671 96.2342L99.72 98.6151C99.9209 98.8268 100.167 98.9909 100.439 99.0956C100.77 99.2083 101.102 99.0873 101.431 98.7337C101.757 98.3838 101.855 98.0457 101.721 97.7254C101.597 97.46 101.415 97.2254 101.189 97.0385L98.6357 94.6575L99.4567 93.7749L102.013 96.157C102.451 96.5675 102.732 96.9566 102.85 97.3244C103.061 97.9994 102.834 98.6981 102.163 99.4182C101.491 100.138 100.81 100.416 100.121 100.255C99.7473 100.161 99.3388 99.9086 98.8955 99.4977L96.3438 97.1156Z" fill="#73BD46"/>
<path d="M102.189 90.3999C102.386 90.2833 102.608 90.2146 102.836 90.1994C103.024 90.1895 103.212 90.2079 103.394 90.2539C103.591 90.3092 103.775 90.4018 103.937 90.5268C104.157 90.697 104.333 90.9181 104.449 91.171C104.575 91.4454 104.589 91.7585 104.487 92.0429C104.69 91.9055 104.934 91.8434 105.178 91.8673C105.476 91.933 105.753 92.0711 105.985 92.2695L106.291 92.4996C106.429 92.6095 106.577 92.7079 106.731 92.7939C106.791 92.8239 106.856 92.8414 106.922 92.8453C106.989 92.8491 107.055 92.8393 107.118 92.8164L107.233 92.8994L106.449 93.9422C106.324 93.8983 106.228 93.8556 106.157 93.8236C106.01 93.7513 105.869 93.666 105.737 93.5685L105.31 93.2553C105.018 93.043 104.784 92.9504 104.612 92.9825C104.438 93.0098 104.247 93.1628 104.037 93.4416L103.3 94.4191L105.077 95.7608L104.383 96.6874L99.8457 93.2672L101.522 91.0417C101.704 90.7894 101.93 90.572 102.189 90.3999M101.331 92.935L102.552 93.8532L103.358 92.7796C103.489 92.6219 103.587 92.4401 103.647 92.2446C103.702 91.9907 103.605 91.7665 103.349 91.5743C103.075 91.3691 102.821 91.3204 102.588 91.432C102.417 91.5318 102.271 91.6693 102.161 91.8341L101.331 92.935Z" fill="#73BD46"/>
<path d="M105.996 86.1206L104.402 88.6699L105.428 89.3106L106.887 86.9711L107.724 87.4919L106.263 89.8337L107.5 90.606L109.167 87.9404L110.032 88.4825L107.751 92.1316L102.935 89.1208L105.142 85.5879L105.996 86.1206Z" fill="#73BD46"/>
<path d="M7.49902 80.9093C7.49926 80.4169 7.64547 79.9357 7.91917 79.5263C8.19288 79.117 8.58179 78.7981 9.03675 78.6097C9.4917 78.4214 9.99228 78.3722 10.4752 78.4683C10.9581 78.5644 11.4017 78.8016 11.7499 79.1497C12.098 79.4979 12.3352 79.9415 12.4313 80.4244C12.5274 80.9073 12.4782 81.4079 12.2899 81.8629C12.1016 82.3178 11.7826 82.7067 11.3733 82.9804C10.964 83.2541 10.4827 83.4004 9.9903 83.4006C9.66306 83.4009 9.33899 83.3366 9.03661 83.2115C8.73423 83.0864 8.45948 82.9029 8.22809 82.6715C7.9967 82.4401 7.81321 82.1654 7.6881 81.863C7.563 81.5606 7.49875 81.2365 7.49902 80.9093Z" fill="#73BD46"/>
<path d="M7.86926 73.43C8.07029 73.3712 8.25154 73.2589 8.39361 73.105C8.58343 72.8653 8.6293 72.5173 8.53123 72.061C8.4909 71.8335 8.41228 71.6145 8.29871 71.4133C8.23235 71.2785 8.12202 71.1704 7.98593 71.1067C7.84983 71.0431 7.69611 71.0278 7.55014 71.0633C7.46344 71.08 7.38286 71.1198 7.31688 71.1785C7.2509 71.2371 7.20198 71.3125 7.17526 71.3967C7.10154 71.661 7.06834 71.935 7.0768 72.2093L7.07205 72.8238C7.06256 73.43 7.00443 73.8607 6.90122 74.1133C6.7209 74.5416 6.36145 74.8156 5.81574 74.9319C5.58324 74.9863 5.34168 74.9893 5.1079 74.9408C4.87411 74.8922 4.65374 74.7932 4.46214 74.6507C4.05523 74.3589 3.77724 73.8626 3.62815 73.1619C3.49849 72.6283 3.5511 72.0666 3.77763 71.5663C3.99828 71.0847 4.40163 70.775 4.98768 70.6267L5.22495 71.7443C5.07721 71.775 4.94098 71.8464 4.83158 71.9503C4.72218 72.0543 4.64395 72.1867 4.60569 72.3327C4.55036 72.5645 4.55158 72.8061 4.60924 73.0374C4.65063 73.2906 4.76623 73.526 4.94141 73.7136C5.01338 73.7869 5.10313 73.8403 5.20189 73.8685C5.30065 73.8968 5.40506 73.899 5.50492 73.8749C5.59735 73.8584 5.68312 73.8158 5.75209 73.7521C5.82105 73.6884 5.87031 73.6063 5.89404 73.5154C5.9492 73.2622 5.97429 73.0034 5.96877 72.7443L5.99606 71.7371C5.98992 71.3812 6.05863 71.028 6.19773 70.7003C6.29875 70.505 6.44464 70.3363 6.62343 70.2083C6.80221 70.0802 7.00881 69.9964 7.22627 69.9636C7.46669 69.9071 7.71681 69.906 7.9577 69.9605C8.19859 70.015 8.42393 70.1235 8.61664 70.278C9.03423 70.5935 9.31657 71.106 9.46842 71.8154C9.62146 72.5367 9.57756 73.1441 9.33555 73.6281C9.217 73.8666 9.04357 74.0735 8.8295 74.2319C8.61544 74.3903 8.36684 74.4956 8.10415 74.5392L7.86926 73.43Z" fill="#73BD46"/>
<path d="M7.79841 64.4803C8.27413 64.8683 8.54777 65.467 8.61935 66.2764C8.68816 67.0831 8.52444 67.7226 8.12109 68.1876C7.63233 68.808 6.87783 69.1639 5.86352 69.2517C4.82905 69.3431 4.02117 69.1248 3.45529 68.5957C2.97602 68.2101 2.70316 67.6099 2.6308 66.8008C2.56081 65.9905 2.72689 65.3547 3.12905 64.8873C3.59765 64.2727 4.35136 63.9192 5.39018 63.8267C6.4033 63.7401 7.20644 63.956 7.79841 64.4803M7.00121 65.2953C6.63107 65.0486 6.13045 64.9525 5.49221 65.0094C4.85752 65.0652 4.37944 65.2463 4.05794 65.5528C3.90015 65.6983 3.77939 65.8794 3.70572 66.081C3.63205 66.2826 3.60761 66.4989 3.63443 66.7118C3.64482 66.9269 3.70576 67.1366 3.81233 67.3237C3.91889 67.5109 4.06807 67.6703 4.24776 67.789C4.61789 68.0369 5.12326 68.133 5.76032 68.0761C6.39856 68.0203 6.87546 67.8388 7.19695 67.5292C7.34759 67.3778 7.46335 67.1953 7.53613 66.9946C7.60891 66.7938 7.63696 66.5795 7.61832 66.3668C7.59968 66.154 7.53479 65.9479 7.4282 65.7628C7.32161 65.5778 7.17588 65.4182 7.00121 65.2953" fill="#73BD46"/>
<path d="M2.50391 62.6443L2.52407 61.4378L6.01779 61.4995C6.30859 61.5213 6.60064 61.4788 6.87313 61.3749C7.19581 61.2361 7.35833 60.9265 7.36901 60.4437C7.37376 59.9632 7.22309 59.6488 6.90634 59.4993C6.6368 59.3858 6.34564 59.3328 6.05338 59.3439L2.56322 59.2846L2.58576 58.0781L6.07473 58.1374C6.67976 58.1493 7.14598 58.2501 7.48053 58.4435C8.08792 58.8065 8.38687 59.478 8.36789 60.4614C8.35129 61.4437 8.03177 62.1065 7.40935 62.4497C7.07243 62.63 6.59672 62.7178 5.99406 62.706L2.50391 62.6443Z" fill="#73BD46"/>
<path d="M3.18599 52.3262L4.18368 52.4484L3.97608 54.1341L8.6146 54.7047L8.46986 55.8911L3.83016 55.3193L3.62256 57.0157L2.62012 56.8935L3.18599 52.3262Z" fill="#73BD46"/>
<path d="M8.85186 52.4261L3.29395 51.2457L3.53951 50.0938L5.65947 50.547L6.12095 48.3748L4.00218 47.9252L4.24656 46.7686L9.80329 47.9513L9.55891 49.1056L7.07712 48.5777L6.61446 50.7487L9.09506 51.2778L8.85186 52.4261Z" fill="#73BD46"/>
<path d="M6.95274 41.4874L6.02266 44.3464L7.16983 44.7213L8.02161 42.0971L8.96118 42.3996L8.1094 45.0238L9.49739 45.477L10.469 42.4862L11.4394 42.8006L10.1107 46.8958L4.70703 45.1389L5.99538 41.1777L6.95274 41.4874Z" fill="#73BD46"/>
<path d="M8.21881 36.3459C8.38455 36.1892 8.58433 36.0731 8.80248 36.0066C8.98312 35.9539 9.17074 35.9291 9.35887 35.933C9.56238 35.9428 9.76212 35.9915 9.94728 36.0766C10.2019 36.1918 10.424 36.3683 10.5938 36.5902C10.6853 36.7085 10.7526 36.8437 10.7917 36.9881C10.8308 37.1324 10.8409 37.2831 10.8216 37.4313C10.9889 37.2511 11.2146 37.136 11.4586 37.1063C11.7647 37.1013 12.067 37.1735 12.3377 37.3163L12.6865 37.4705C12.8449 37.5482 13.0106 37.6102 13.1812 37.6556C13.2461 37.673 13.314 37.6763 13.3803 37.6652C13.4466 37.6542 13.5098 37.629 13.5656 37.5915L13.6925 37.6508L13.1634 38.8431C13.0341 38.8241 12.9309 38.8075 12.8538 38.7909C12.6945 38.7518 12.5386 38.7003 12.3875 38.6367L11.9012 38.4291C11.5678 38.2867 11.321 38.2487 11.1585 38.3164C10.9972 38.384 10.8453 38.575 10.7053 38.8929L10.2023 40.014L12.2381 40.9191L11.7671 41.9821L6.57812 39.6711L7.71106 37.1229C7.83143 36.8351 8.00352 36.5717 8.21881 36.3459M7.95189 39.0127L9.34463 39.632L9.89153 38.4029C9.98596 38.2204 10.0402 38.0198 10.0505 37.8145C10.0493 37.5571 9.9034 37.3602 9.61156 37.232C9.29719 37.0921 9.03857 37.1039 8.83808 37.2617C8.69345 37.3978 8.58221 37.5655 8.51303 37.7517L7.95189 39.0127Z" fill="#73BD46"/>
<path d="M9.19629 33.9315L9.83809 32.8662L14.4019 32.9682L11.0007 30.9266L11.5737 29.9775L16.44 32.903L15.8302 33.9209L11.1775 33.8307L14.6344 35.9115L14.065 36.8594L9.19629 33.9315Z" fill="#73BD46"/>
<path d="M17.8916 89.7072L17.0386 90.2387L16.1358 88.7973L12.1747 91.2767L11.54 90.2624L15.5035 87.7865L14.5996 86.3369L15.4513 85.8042L17.8916 89.7072Z" fill="#73BD46"/>
<path d="M75.3787 65.436H75.381V41.2403C75.381 37.8557 78.1143 34.5458 81.4883 34.5458C84.8729 34.5458 87.6062 37.8557 87.6062 41.2403H93.3399C93.3413 39.6831 93.0357 38.1409 92.4407 36.7018C91.8457 35.2627 90.973 33.9549 89.8723 32.8533C88.7717 31.7517 87.4647 30.8778 86.0261 30.2816C84.5875 29.6853 83.0456 29.3784 81.4883 29.3784C79.9311 29.3784 78.3891 29.6853 76.9505 30.2816C75.5119 30.8778 74.205 31.7517 73.1043 32.8533C72.0037 33.9549 71.1309 35.2627 70.5359 36.7018C69.9409 38.1409 69.6354 39.6831 69.6367 41.2403V66.5451C69.6356 68.4869 70.112 70.3992 71.0241 72.1134C71.9361 73.8277 73.2558 75.2913 74.8668 76.3754C75.202 75.6387 75.3765 74.8391 75.3787 74.0297V65.436Z" fill="#9BE270"/>
<path d="M82.249 73.1769V74.0296C82.2459 75.5202 81.9774 76.9984 81.4561 78.3949C81.467 78.3949 81.4776 78.3965 81.4886 78.3965C84.6318 78.3964 87.6462 77.1477 89.8688 74.9251C92.0914 72.7026 93.3401 69.6881 93.3402 66.5449H87.6065C87.6065 69.6616 85.2725 72.7266 82.249 73.1769Z" fill="#9BE270"/>
<path d="M56.2686 68.8535V85.8065H62.9364L56.4481 68.8535H56.2686Z" fill="#9BE270"/>
<path d="M76.2374 50.9776H76.2351V74.0295C76.2353 74.8975 76.0645 75.757 75.7325 76.559C75.4004 77.361 74.9136 78.0896 74.2998 78.7034C73.6861 79.3172 72.9574 79.804 72.1554 80.136C71.3535 80.4681 70.4939 80.6389 69.6259 80.6386H68.5283L70.4886 85.7627C73.4519 85.5456 76.2233 84.2151 78.2459 82.0386C80.2685 79.8621 81.3925 77.0007 81.3921 74.0295V49.3227C81.3926 47.4458 80.9437 45.596 80.0829 43.9282C79.2221 42.2603 77.9744 40.8228 76.4443 39.7358C76.3096 40.226 76.2401 40.7318 76.2374 41.2401L76.2374 50.9776Z" fill="#9BE270"/>
<path d="M69.3305 37.5459H56.2686V48.5928L62.0022 63.5803V42.7136H68.7798V41.2401C68.78 39.9883 68.9656 38.7434 69.3305 37.5459Z" fill="#9BE270"/>
<path d="M53.3961 43.4824H47.6625L44.3955 52.0223C46.0126 52.9292 47.5989 53.8796 49.009 54.9651L50.5346 50.9777L55.4141 63.7582H54.487C54.6249 64.4706 54.7178 65.191 54.7651 65.915C54.76 66.6136 54.6926 67.3104 54.5636 67.997H57.037L65.6961 90.6218H71.4298L53.3961 43.4824Z" fill="#9BE270"/>
<path d="M47.3185 65.8782L47.3217 65.8417C47.3872 65.1439 47.3384 64.4401 47.1772 63.7581H45.6446L46.36 61.8881C46.0926 61.4819 45.7863 61.1026 45.4455 60.7556C44.4171 59.7602 43.2787 58.8854 42.0521 58.1479L29.6289 90.6216H35.3625L44.0217 67.9968H46.9028C47.1748 67.3363 47.316 66.6292 47.3185 65.9148L47.3185 65.8782Z" fill="#9BE270"/>
<path d="M32.3947 65.915H26.6611C26.6611 70.6358 29.6501 74.7165 34.0202 76.7469L35.9133 71.7985C33.793 70.5321 32.3947 68.3721 32.3947 65.915Z" fill="#9BE270"/>
<path d="M33.1106 41.6459C33.1106 37.7274 36.6447 34.5457 41.0009 34.5457C45.3572 34.5457 48.8913 37.7274 48.8913 41.6459H54.6249C54.6249 34.8767 48.5283 29.3779 41.0009 29.3779C33.4736 29.3779 27.377 34.8767 27.377 41.6459C27.4731 45.116 29.3095 48.7996 31.9681 50.9457C36.4098 54.8215 42.1861 56.2949 46.0512 60.1493C47.6421 61.7829 48.3681 63.6728 48.1759 65.915C48.1759 68.8892 46.1263 71.426 43.2275 72.4705L41.0795 78.0831C48.2348 77.7134 53.9095 72.4226 53.9095 65.915C53.8028 64.1853 53.4397 62.3809 52.6389 60.7473C49.0621 51.7678 32.3525 50.8069 33.1106 41.6459Z" fill="#9BE270"/>
</svg>
