<svg width="194" height="137" viewBox="0 0 194 137" fill="none" xmlns="http://www.w3.org/2000/svg">
<path fill-rule="evenodd" clip-rule="evenodd" d="M144.878 36.1339C144.898 36.9772 145.268 36.1384 145.355 37.9471L144.953 38.6834L144.955 38.8443C145.626 39.9633 148.17 41.9322 149.449 41.8303C151.497 40.9539 154.939 32.1203 154.937 32.1268C154.919 32.1858 145.84 35.7408 144.878 36.1339ZM184.027 16.0255L184.363 16.8189L167.798 23.9529C166.511 23.1511 166.416 21.3171 166.452 19.8821C166.43 19.5422 167.291 17.0939 167.804 16.6366L167.799 16.4595C167.746 15.0635 167.04 15.4611 167.141 14.5951C166.947 10.7962 164.262 10.0534 161.946 8.84609L161.538 8.96937L159.008 8.91419C157.022 8.8305 155.523 11.306 154.383 12.9447L154.538 13.2808C153.671 14.0378 153.44 13.6259 152.853 15.175C152.912 15.2464 153.01 15.2568 153.036 15.3839C153.169 16.0287 154.546 16.9999 155.646 17.345C156.461 20.5192 156.14 21.8919 158.302 24.2578C159.247 24.7677 160.01 24.3869 159.985 26.1767C158.688 25.1589 155.875 27.4462 154.918 28.381C154.805 29.8789 154.858 29.0369 154.502 29.4177L154.3 29.4287L142.666 34.263C140.337 33.2555 138.383 33.1336 138.234 36.3571C137.768 36.5497 136.068 37.4255 135.718 37.5773C133.34 38.6094 134.687 40.7275 136.656 40.4369C137.044 40.3791 138.919 39.179 139.423 38.9669C142.569 41.4736 148.058 46.5251 149.066 47.5189C150.942 47.4872 152.535 46.5524 153.983 45.1699C154.048 45.094 154.141 44.9734 154.186 44.9507C154.369 44.8553 154.606 45.2329 154.475 45.2205C154.591 47.3185 154.209 48.9773 154.192 51.8421C154.528 52.7918 155.181 56.8483 155.262 58.0451L155.22 60.1632C154.959 62.8204 152.99 64.6757 153.287 66.5615C153.22 69.244 153.228 72.1483 153.153 74.9236L153.284 82.1406C152.786 85.8831 153.374 89.0825 153.181 90.5071C153.737 90.5071 153.527 90.404 153.477 91.102L153.359 91.5347C154.714 92.6349 153.798 97.1747 153.892 98.995C153.787 102.028 151.719 104.824 151.787 107.681C151.796 107.689 153.031 108.734 151.741 108.367C151.763 108.896 151.899 108.773 151.401 108.795C151.461 109.412 149.723 112.804 149.657 112.665C149.628 112.605 148.136 113.927 147.625 114.306C147.109 114.297 146.042 115.072 144.801 114.989C141.505 116.748 144.746 118.509 145.342 118.341C147.384 119.486 150.077 118.344 151.161 118.389L151.435 118.446C151.435 117.886 151.32 118.076 151.969 118.086L151.786 118.087C154.15 116.516 157.723 118.11 158.725 118.07L158.957 118.098C160.03 116.959 160.91 117.423 160.982 115.482C160.384 115.624 160.64 115.262 160.658 114.869C160.577 113.942 159.827 110.86 160.951 111.118L160.957 110.851C161.553 110.016 160.082 108.2 160.65 105.605C161.323 105.793 162.365 90.9775 162.757 90.1095L162.686 89.7021C162.453 87.0767 163.813 83.6631 164.121 81.2765C164.508 80.6245 163.637 80.7406 164.505 80.7406C165.617 81.7293 166.245 87.5645 167.125 89.7319C167.065 93.3505 170.421 95.3654 170.145 98.1997L170.207 107.921C170.578 108.236 172.471 113.761 171.219 113.761C171.161 116.591 163.575 114.975 164.428 119.428L166.234 118.093C168.599 119.894 170.458 119.734 173.611 119.832L173.559 118.809C173.559 118.381 177.086 118.07 177.373 118.093L177.619 117.155L177.698 117.113C178.16 116.561 178.819 116.7 178.467 114.37L178.509 114.06C178.023 114.06 178.169 114.169 178.172 113.637C177.862 108.611 179.571 109.589 179.805 104.362L179.728 99.8993L179.728 99.6943C179.008 99.6943 178.342 93.3031 178.052 92.2224C178.055 92.1666 174.988 83.1091 175.025 82.5993C175 79.8273 174.555 75.5496 174.624 73.1493L174.687 72.7289C173.092 69.1506 175.523 68.1438 175.201 66.1879L175.674 65.6326L175.845 62.23C176.248 61.5508 176.226 61.7435 176.238 60.6303L176.312 60.014L176.089 59.4808C175.8 58.3455 176.005 56.8119 175.949 55.412L176.005 51.9828C176.491 49.218 177.064 46.7003 176.969 43.7999L177.022 32.0295C177.161 28.3369 174.349 26.2007 171.35 25.3132L185.527 19.5701L185.915 20.4874L188.731 19.6635C189.686 22.9019 191.375 32.974 191.336 41.4495C191.709 42.6769 196.059 33.3399 191.239 17.9444C193.85 17.0122 192.232 13.4579 189.705 14.4329C183.761 1.52333 170.023 -0.497416 169.771 0.0896772C173.212 0.620331 180.688 5.18858 186.542 14.8935L184.027 16.0255Z" fill="white"/>
<path fill-rule="evenodd" clip-rule="evenodd" d="M27.9853 41.9867C-7.68119 44.7055 -1.03942 70.5843 34.6865 69.0482C41.9518 68.7348 62.728 63.787 57.9282 52.712C53.9955 43.6377 36.4723 41.3399 27.9853 41.9867ZM21.4101 63.2901V47.772H32.0641C34.2072 47.772 35.8353 47.9121 36.9491 48.1904C38.0623 48.4687 38.952 48.9604 39.6181 49.6643C40.2836 50.3695 40.6137 51.1499 40.6137 52.0023C40.6137 53.1038 40.06 54.0315 38.9578 54.7873C37.8556 55.5418 36.1545 56.0192 33.8492 56.2242C34.6937 56.4843 35.332 56.7451 35.7687 56.9975C36.6972 57.5463 37.5752 58.2365 38.3983 59.0643L42.5552 63.2901H38.5824L35.405 60.0608C34.4811 59.126 33.7148 58.4136 33.1159 57.9187C32.5118 57.4243 31.9743 57.0805 31.4994 56.8827C31.029 56.6868 30.5419 56.5498 30.0496 56.4707C29.6917 56.424 29.1044 56.3981 28.2819 56.3981H24.5998V63.2901H21.4101ZM24.5998 54.6206H31.4264C32.8814 54.6206 34.0114 54.5239 34.8287 54.3286C35.6447 54.1366 36.2662 53.8265 36.6855 53.3958C37.1113 52.9702 37.3239 52.5084 37.3239 52.0056C37.3239 51.2725 36.9149 50.6647 36.0924 50.1924C35.2699 49.7188 33.972 49.484 32.1985 49.484H24.5998V54.6206Z" fill="white"/>
<path fill-rule="evenodd" clip-rule="evenodd" d="M4.2822 92.9327C5.61702 108.935 55.5304 109.999 58.4042 93.1766C59.3791 87.4724 56.8245 91.0819 54.7996 92.5363C43.2767 100.806 19.3857 100.783 7.96682 92.5721C5.43545 90.7511 3.81896 87.379 4.2822 92.9327Z" fill="white"/>
<path fill-rule="evenodd" clip-rule="evenodd" d="M58.1489 80.6611C56.473 81.631 54.8255 83.5817 52.5002 84.8882C50.3494 86.0968 47.818 87.0673 45.4482 87.7432C35.0449 90.7105 21.6076 90.3433 11.7387 85.6719C9.43924 84.584 7.70193 83.3812 5.81148 81.6913C4.24149 80.2881 4.24083 80.1947 4.25762 82.8694C4.26732 84.3686 4.53417 85.424 5.31594 86.7117C15.108 102.851 63.2382 97.3592 58.1489 80.6611Z" fill="white"/>
<path fill-rule="evenodd" clip-rule="evenodd" d="M58.1834 98.8682C57.399 99.2146 54.1874 102.144 52.4688 103.096C44.9057 107.285 36.1015 108.016 27.6597 107.716C20.7059 107.469 11.0669 104.92 5.83428 99.9068C4.29336 98.4303 4.28434 98.3686 4.25591 100.958C4.23911 102.51 4.49044 103.508 5.27091 104.846C14.5461 120.724 62.8559 116.003 58.1834 98.8682Z" fill="white"/>
<path fill-rule="evenodd" clip-rule="evenodd" d="M58.1697 62.4629C55.2965 63.9614 54.4779 66.9066 45.4928 69.5502C35.3441 72.5356 21.5075 72.1321 11.8634 67.5339C9.97878 66.6355 7.36729 65.0792 5.91037 63.5878C2.84728 60.4505 4.48124 67.0779 5.2475 68.3929C14.7133 84.6278 63.2511 79.2596 58.1697 62.4629Z" fill="white"/>
<path fill-rule="evenodd" clip-rule="evenodd" d="M58.1908 71.5508C55.8758 72.6899 55.1399 75.4288 46.8733 78.2021C37.5839 81.3173 25.0304 81.2628 15.7319 78.1814C9.46039 76.1022 9.32923 74.8353 4.5792 71.4658C0.0772791 83.2395 23.9818 87.3666 31.2916 87.3601C39.5467 87.3543 60.9935 83.9543 58.1908 71.5508Z" fill="white"/>
<path d="M0 118.093H64.7229L64.6525 119.779C64.3204 127.662 67.9572 130.975 74.2217 131.258C81.2207 131.574 80.3401 128.482 91.9606 123.719L92.7159 123.41L93.4124 123.838C98.384 126.646 105.477 126.669 107.148 118.093C106.162 110.831 110.223 110.016 115.264 110.913C116.174 90.9728 131.515 97.9726 136.367 106.026C151.384 105.831 150.225 109.711 152.076 118.093H186.694V124.182L109.628 125.48C108.379 129.582 106.357 129.403 103.483 130.477C100.54 131.578 96.8767 131.566 92.4271 128.971C80.7349 133.717 81.4637 136.768 74.0834 136.435C66.2839 136.083 61.5675 132.902 61.413 123.932H0V118.093Z" fill="white"/>
</svg>
