<svg width="241" height="115" viewBox="0 0 241 115" fill="none" xmlns="http://www.w3.org/2000/svg">
<path fill-rule="evenodd" clip-rule="evenodd" d="M128.235 92.178L136.804 92.1495L136.806 101.32L128.238 101.34L128.235 92.178ZM0 110.778H167.933L168.377 107.633L170.325 107.907L169.919 110.778H229.201V48.2634C222.768 49.796 222.912 50.1013 218.602 49.197C214.495 48.3361 211.344 46.4086 209.133 43.4294C206.382 44.4856 203.167 43.5674 201.425 41.033L189.437 49.2785L186.626 45.1917L183.398 47.4127L175.115 35.3718L178.344 33.1508L174.056 26.9171L213.19 0L228.571 22.3621L212.175 33.6389C214.004 36.2966 213.593 39.8322 211.355 42.0085C213.192 44.3866 215.781 45.933 219.135 46.6369C223.201 47.489 222.879 47.1404 229.201 45.5697V34.3876H237.527V110.778H241V114.942H0V110.778ZM177.198 59.2217L175.25 58.9464L175.8 55.0512L177.747 55.3257L177.198 59.2217ZM170.599 105.959L168.652 105.685L169.202 101.79L171.149 102.065L170.599 105.959ZM171.424 100.117L169.477 99.8422L170.027 95.9478L171.974 96.223L171.424 100.117ZM172.249 94.275L170.301 94.0005L170.852 90.1052L172.799 90.3798L172.249 94.275ZM173.073 88.4333L171.126 88.158L171.676 84.2628L173.623 84.5373L173.073 88.4333ZM173.898 82.5901L171.951 82.3149L172.501 78.4204L174.448 78.6956L173.898 82.5901ZM174.723 76.7476L172.775 76.4732L173.326 72.5786L175.273 72.8539L174.723 76.7476ZM175.548 70.9058L173.6 70.6306L174.15 66.7362L176.098 67.0114L175.548 70.9058ZM176.373 65.0641L174.425 64.7889L174.975 60.8945L176.922 61.1682L176.373 65.0641ZM160.533 42.2749L160.206 40.3349L164.085 39.6802L164.412 41.6202L160.533 42.2749ZM3.43866 68.7723L3.11123 66.8323L6.99028 66.1783L7.3177 68.1183L3.43866 68.7723ZM9.25686 67.7902L8.9303 65.851L12.8093 65.197L13.1366 67.1362L9.25686 67.7902ZM15.0758 66.8089L14.7485 64.8689L18.6276 64.2149L18.955 66.1549L15.0758 66.8089ZM20.8949 65.8275L20.5674 63.8876L24.4465 63.2322L24.7739 65.1721L20.8949 65.8275ZM26.7131 64.8455L26.3856 62.9055L30.2655 62.2508L30.5921 64.1899L26.7131 64.8455ZM32.532 63.8627L32.2047 61.9242L36.0837 61.2688L36.4112 63.2087L32.532 63.8627ZM38.3511 62.8812L38.0236 60.9414L41.9027 60.2881L42.2301 62.2273L38.3511 62.8812ZM44.1693 61.9L43.8418 59.9601L47.721 59.3068L48.0483 61.246L44.1693 61.9ZM49.9882 60.9187L49.6609 58.9787L53.5399 58.3256L53.8674 60.2647L49.9882 60.9187ZM55.8065 59.9373L55.4791 57.9974L59.3582 57.3442L59.6849 59.2833L55.8065 59.9373ZM61.6247 58.9568L61.2973 57.0169L65.1756 56.3629L65.5031 58.3021L61.6247 58.9568ZM67.4429 57.9753L67.1157 56.0355L70.994 55.3815L71.3213 57.3199L67.4429 57.9753ZM73.2604 56.9941L72.9339 55.0542L76.8122 54.3995L77.1395 56.3387L73.2604 56.9941ZM79.0786 56.0127L78.7521 54.0728L82.6304 53.4181L82.9578 55.3573L79.0786 56.0127ZM84.897 55.0314L84.5696 53.0915L88.4486 52.4368L88.776 54.376L84.897 55.0314ZM90.7152 54.0501L90.3878 52.1102L94.267 51.4555L94.5942 53.3947L90.7152 54.0501ZM96.5334 53.0687L96.2061 51.1281L100.085 50.4742L100.412 52.4133L96.5334 53.0687ZM102.352 52.0867L102.024 50.1468L105.903 49.4928L106.231 51.4327L102.352 52.0867ZM108.17 51.1053L107.843 49.1655L111.722 48.5115L112.049 50.4514L108.17 51.1053ZM113.988 50.124L113.661 48.1841L117.54 47.5309L117.867 49.4701L113.988 50.124ZM119.806 49.1427L119.479 47.2028L123.358 46.5496L123.685 48.4888L119.806 49.1427ZM125.625 48.1614L125.297 46.2215L129.176 45.5683L129.503 47.5074L125.625 48.1614ZM131.443 47.1801L131.116 45.2401L134.994 44.5869L135.321 46.5261L131.443 47.1801ZM137.261 46.1995L136.934 44.2596L140.812 43.6056L141.139 45.544L137.261 46.1995ZM143.079 45.2181L142.752 43.2782L146.63 42.6242L146.958 44.5641L143.079 45.2181ZM148.897 44.2368L148.57 42.2976L152.449 41.6422L152.776 43.5821L148.897 44.2368ZM154.715 43.2554L154.388 41.3163L158.267 40.6624L158.594 42.6007L154.715 43.2554ZM8.22557 100.114L12.9444 100.097L12.9451 105.148L8.22714 105.16L8.22557 100.114ZM22.9822 100.06H25.0506V105.472H22.9822V100.06ZM10.4936 87.0717C10.4811 87.1304 10.4995 87.118 10.4415 87.1121C10.4482 87.1701 10.4635 87.1605 10.4092 87.1554C10.4172 87.2105 10.4298 87.1988 10.374 87.1951C10.3821 87.2524 10.3952 87.2413 10.3402 87.2354C10.3453 87.2919 10.3601 87.2802 10.3065 87.2765C10.3146 87.3309 10.3256 87.3161 10.2691 87.3147C10.275 87.3697 10.2888 87.3595 10.2367 87.3558C10.2433 87.4131 10.2565 87.4005 10.2014 87.3954L9.80004 87.7807C9.81105 87.8394 9.82349 87.8263 9.76477 87.8204C9.77725 87.8799 9.79123 87.8704 9.73252 87.8623C9.73986 87.9195 9.75373 87.907 9.69868 87.9026C9.70749 87.9569 9.71861 87.943 9.66356 87.9416C9.6643 87.9951 9.6774 87.9826 9.62529 87.9804C9.63336 88.0377 9.64736 88.0267 9.59231 88.0208C9.59745 88.0803 9.61068 88.0648 9.54902 88.0648L9.06964 88.5587C9.0579 88.6255 9.07858 88.6131 9.01545 88.6036C9.0272 88.6652 9.04181 88.6534 8.98162 88.6439C8.99263 88.7048 9.00735 88.693 8.94937 88.6872C8.95744 88.7451 8.97205 88.7357 8.91553 88.7276C8.92361 88.7841 8.93616 88.7717 8.88185 88.7687C8.88845 88.8223 8.90018 88.809 8.84587 88.8076C8.85247 88.8648 8.86635 88.8553 8.81203 88.848C8.81644 88.9045 8.83049 88.8927 8.77691 88.8883C8.78278 88.9419 8.79523 88.9287 8.74165 88.928C8.74752 88.9845 8.76139 88.9728 8.70781 88.9699C8.71295 89.0249 8.72615 89.0124 8.67183 89.008C8.67697 89.0645 8.69102 89.052 8.63671 89.0476C8.64478 89.1048 8.65794 89.0931 8.60216 89.0873C8.60803 89.1445 8.62196 89.1327 8.56618 89.1268C8.57425 89.1841 8.58745 89.1709 8.5302 89.1665C8.53827 89.2245 8.55371 89.215 8.49866 89.2098L8.30714 89.3545C8.31815 89.4147 8.32991 89.4021 8.26972 89.3903C8.27706 89.4483 8.29169 89.4373 8.23517 89.4315C8.24398 89.4909 8.25943 89.4821 8.20292 89.474C8.21319 89.5298 8.22347 89.5144 8.16622 89.5129C8.17503 89.5701 8.18747 89.5577 8.13095 89.5526C8.14196 89.612 8.1574 89.6018 8.09942 89.593C8.10162 89.6495 8.11625 89.6384 8.06487 89.6347C8.07367 89.692 8.08612 89.6803 8.0296 89.6737C8.03547 89.7295 8.04795 89.717 7.9929 89.7126C7.99951 89.7706 8.01425 89.7603 7.95993 89.7537C7.96727 89.8154 7.97897 89.797 7.91291 89.797L5.47903 92.3446C5.47169 92.4055 5.49012 92.3939 5.43287 92.3887C5.43947 92.4445 5.45267 92.4335 5.39689 92.4269C5.40276 92.4826 5.4175 92.4724 5.36391 92.4694C5.37125 92.5267 5.38443 92.5141 5.32865 92.509C5.33452 92.5626 5.34698 92.5494 5.29267 92.5464C5.30074 92.6073 5.31609 92.5978 5.25884 92.589C5.26324 92.647 5.27869 92.6382 5.22658 92.6294C5.23759 92.6867 5.25009 92.6734 5.19504 92.6727C5.20825 92.7351 5.21932 92.7197 5.15619 92.7101C5.16353 92.7674 5.17743 92.7572 5.12164 92.7498C5.12972 92.8086 5.14365 92.7982 5.08566 92.7894C5.093 92.8459 5.10629 92.8335 5.05197 92.8291C5.06372 92.8944 5.07981 92.8849 5.01743 92.8717C5.0299 92.9355 5.04383 92.926 4.98144 92.9091L4.85816 92.9722C4.86917 93.0316 4.88315 93.0199 4.8259 93.0155C4.83324 93.0727 4.84644 93.0602 4.78992 93.0543C4.798 93.1116 4.81117 93.0999 4.75466 93.0947C4.76126 93.1491 4.77442 93.1381 4.72011 93.1345C4.72818 93.1917 4.74148 93.1799 4.6857 93.1747C4.69011 93.2283 4.7033 93.2167 4.64972 93.2145C4.65486 93.2673 4.668 93.2547 4.61589 93.2547C4.62249 93.3098 4.63497 93.298 4.57919 93.2922C4.58433 93.3494 4.59838 93.3392 4.54407 93.3319C4.54921 93.3854 4.56161 93.3743 4.51024 93.3721C4.51684 93.4272 4.52928 93.4148 4.47497 93.4118C4.48231 93.4728 4.4985 93.464 4.44272 93.4551C4.45152 93.5139 4.46626 93.5036 4.40974 93.4963C4.42002 93.5587 4.43535 93.5491 4.37663 93.5389C4.38764 93.5998 4.40155 93.588 4.34136 93.5791C4.35458 93.6371 4.36571 93.6232 4.30552 93.6158C4.31653 93.6782 4.33043 93.668 4.27098 93.6563C4.28272 93.7209 4.29808 93.7121 4.23643 93.6981C4.24964 93.7613 4.26213 93.748 4.19901 93.7363C4.21222 93.7979 4.2247 93.7861 4.16231 93.7744C4.17479 93.8353 4.18723 93.8237 4.12705 93.8134C4.13659 93.8721 4.14908 93.8602 4.08963 93.8492C4.09991 93.9109 4.11244 93.8977 4.05078 93.8889C4.06253 93.9469 4.07422 93.9344 4.01623 93.9271C4.02431 93.9843 4.03607 93.9711 3.97882 93.9652L3.86801 94.0409C3.87241 94.0937 3.88557 94.0819 3.83346 94.0805C3.83859 94.134 3.85191 94.1224 3.79833 94.1195C3.80641 94.1782 3.82032 94.1656 3.76307 94.1605C3.76821 94.214 3.78207 94.2038 3.72995 94.2009C3.73876 94.2537 3.74988 94.2404 3.69483 94.2404C3.7007 94.3014 3.71748 94.2933 3.66243 94.2837C3.67124 94.3432 3.68745 94.3337 3.62946 94.3249C3.64121 94.3865 3.65438 94.3741 3.5942 94.3646C3.60521 94.4226 3.61623 94.4086 3.55678 94.4013C3.40191 94.4952 3.38866 94.5906 3.25875 94.6655C3.26242 94.7198 3.27719 94.7095 3.22434 94.7051C3.23315 94.7601 3.24556 94.7469 3.19051 94.7462C3.19858 94.8035 3.21104 94.791 3.15453 94.7859L3.12156 94.8262C3.1289 94.8827 3.14204 94.871 3.08772 94.8673C3.0936 94.9224 3.10537 94.9077 3.04959 94.9048C3.05693 94.9635 3.0724 94.9539 3.01662 94.9466C3.02323 95.0031 3.03637 94.9913 2.98279 94.9869C2.99013 95.0441 3.00345 95.0318 2.94767 95.0259C2.95794 95.0883 2.97469 95.0794 2.9167 95.0706C2.92698 95.133 2.93589 95.111 2.86323 95.111L2.30544 95.715L5.13698 95.7305L5.13928 109.828L16.2979 109.838C16.223 109.349 16.2751 102.498 16.2751 101.262C16.2751 100.983 16.2149 100.264 16.3544 100.069L21.3491 100.055L21.3536 109.842L28.5619 109.828L28.5642 95.718L31.4061 95.7084L30.8388 95.1103C30.7676 95.1103 30.7764 95.1316 30.7852 95.0699C30.7272 95.0794 30.7434 95.0883 30.7537 95.0259C30.6994 95.0318 30.7125 95.0434 30.7191 94.9862C30.6648 94.9906 30.6787 95.0024 30.6846 94.9466C30.6288 94.9539 30.6443 94.9635 30.6509 94.9048C30.5958 94.9077 30.6076 94.9224 30.6135 94.8673C30.5592 94.871 30.5723 94.8827 30.5796 94.8262L30.5467 94.7859C30.4901 94.791 30.5033 94.8035 30.5107 94.7462C30.4556 94.7469 30.468 94.7601 30.4768 94.7051C30.424 94.7095 30.438 94.7198 30.4424 94.6655C30.3133 94.5899 30.2986 94.4938 30.1437 94.402C30.085 94.4093 30.0967 94.4226 30.1077 94.3639C30.049 94.3727 30.0636 94.3829 30.0739 94.322C30.0174 94.3301 30.0321 94.3417 30.0395 94.283C29.9837 94.2933 29.9998 94.3021 30.0064 94.2404C29.952 94.2404 29.9632 94.2537 29.9712 94.2009C29.9199 94.2038 29.9337 94.214 29.9381 94.1605C29.8809 94.1656 29.8949 94.1782 29.903 94.1195C29.8494 94.1224 29.8626 94.134 29.8677 94.0805C29.8164 94.0812 29.8295 94.0937 29.8332 94.0409C29.7781 94.0453 29.792 94.057 29.7986 93.9997C29.7429 94.0049 29.7591 94.0173 29.7525 93.9593L29.4156 93.6224C29.3371 93.6224 29.3466 93.646 29.3605 93.5777C29.3004 93.588 29.3142 93.5982 29.326 93.5373C29.2687 93.5476 29.2849 93.5572 29.293 93.4956C29.2365 93.5029 29.2497 93.5131 29.2585 93.4551C29.2027 93.464 29.2189 93.4728 29.2262 93.4118C29.1719 93.4148 29.1843 93.4272 29.191 93.3721C29.1396 93.3743 29.1529 93.3854 29.1573 93.3319C29.1022 93.3392 29.1169 93.3494 29.122 93.2922C29.0662 93.298 29.0787 93.3098 29.0846 93.2547C29.0332 93.2547 29.0463 93.2673 29.0515 93.2145C28.9979 93.2167 29.0111 93.229 29.0148 93.1755C28.959 93.1799 28.9723 93.1917 28.9804 93.1345C28.9246 93.1396 28.9385 93.1513 28.9465 93.094C28.8908 93.0984 28.904 93.1094 28.9128 93.0522C28.8556 93.0595 28.8688 93.072 28.8769 93.0148C28.8211 93.0184 28.8349 93.0287 28.8445 92.9715C28.749 92.923 28.7543 92.8974 28.6501 92.8291C28.5958 92.8328 28.6082 92.8437 28.6162 92.7887C28.5575 92.7982 28.5715 92.81 28.5795 92.7498C28.5245 92.7572 28.5392 92.7667 28.5473 92.7087C28.4842 92.7182 28.4958 92.7322 28.5076 92.672C28.4511 92.6735 28.4636 92.6859 28.4753 92.6294C28.4232 92.6382 28.4394 92.6462 28.4431 92.589C28.3851 92.5978 28.4012 92.6074 28.4092 92.545C28.3557 92.5494 28.3681 92.5619 28.3733 92.5083C28.3175 92.5142 28.3301 92.526 28.3374 92.4694C28.2838 92.4724 28.2977 92.4826 28.3043 92.4269C28.2485 92.4335 28.261 92.4445 28.2683 92.388C28.2118 92.3932 28.2302 92.404 28.2222 92.3439C22.3533 86.2599 23.2428 87.082 16.8432 80.4167L10.4936 87.0717ZM41.4102 97.4685C43.4111 97.4619 45.4118 97.4546 47.4127 97.4487C47.4127 99.589 47.4134 101.731 47.4141 103.872C45.4133 103.877 43.4125 103.881 41.4124 103.886C41.4117 101.747 41.411 99.6073 41.4102 97.4685ZM60.1803 97.401C61.0567 97.401 61.9338 97.401 62.8109 97.401C62.8109 99.6954 62.8109 101.99 62.8109 104.285C61.9338 104.285 61.0567 104.285 60.1803 104.285C60.1803 101.99 60.1803 99.6954 60.1803 97.401ZM44.2956 80.8799C44.2801 80.9555 44.3029 80.9402 44.2288 80.9321C44.2376 81.0047 44.2566 80.9921 44.1876 80.9863C44.1986 81.0575 44.2141 81.0406 44.1429 81.0354C44.1532 81.1096 44.1708 81.0964 44.1003 81.0883C44.1069 81.1595 44.1253 81.1464 44.0577 81.142C44.068 81.2095 44.0812 81.1912 44.01 81.189C44.0173 81.2587 44.0356 81.2446 43.9688 81.2424C43.9769 81.3144 43.9946 81.2997 43.9241 81.2923C43.7538 81.4553 43.5835 81.6175 43.4132 81.7812C43.4272 81.856 43.4433 81.84 43.3685 81.8312C43.3839 81.909 43.4022 81.8957 43.3273 81.8854C43.3369 81.9581 43.3545 81.9434 43.2848 81.9376C43.295 82.0066 43.309 81.9889 43.2393 81.9867C43.2408 82.0543 43.2576 82.0389 43.1916 82.0352C43.2011 82.1093 43.2195 82.0953 43.149 82.0872C43.1556 82.1628 43.1725 82.1431 43.094 82.1431C42.8906 82.3523 42.6881 82.5622 42.4848 82.7706C42.4687 82.8558 42.495 82.8411 42.415 82.8287C42.4304 82.9072 42.4488 82.8932 42.3724 82.8807C42.3864 82.957 42.4047 82.9424 42.3306 82.935C42.3416 83.0099 42.3599 82.9959 42.288 82.9864C42.2983 83.0576 42.3144 83.0422 42.2447 83.0385C42.2543 83.1083 42.269 83.0899 42.1993 83.0891C42.2073 83.1611 42.2257 83.148 42.1567 83.1399C42.1626 83.2104 42.1802 83.1971 42.112 83.1912C42.12 83.2587 42.1354 83.2426 42.0664 83.2411C42.0745 83.3123 42.092 83.2984 42.0245 83.294C42.0311 83.3645 42.0474 83.349 41.9784 83.3432C41.985 83.4144 42.0026 83.3996 41.9344 83.3938C41.9439 83.4664 41.9607 83.451 41.8895 83.4444C41.8976 83.5163 41.9145 83.5031 41.844 83.4943C41.8543 83.5655 41.8704 83.5509 41.7985 83.5436C41.8087 83.6184 41.8279 83.6052 41.7582 83.5993C41.6767 83.6603 41.5959 83.7219 41.5145 83.7836C41.5284 83.8592 41.5431 83.8437 41.4667 83.8297C41.4763 83.9031 41.4939 83.8893 41.4227 83.8812C41.4337 83.9575 41.4535 83.9458 41.3823 83.9362C41.394 84.0052 41.4081 83.9876 41.3347 83.984C41.3464 84.0581 41.3625 84.0419 41.2898 84.0353C41.3038 84.1109 41.3237 84.0985 41.2495 84.0882C41.2525 84.1594 41.2716 84.1453 41.2063 84.1409C41.2173 84.2129 41.2333 84.1982 41.1607 84.1908C41.1687 84.2606 41.185 84.2444 41.1152 84.24C41.1233 84.3119 41.1416 84.2988 41.0726 84.2922C41.0815 84.37 41.0961 84.3465 41.0124 84.3465C39.9812 85.4262 38.9492 86.5065 37.9173 87.5862C37.9077 87.6625 37.9311 87.6487 37.8585 87.6428C37.8673 87.7147 37.8835 87.6986 37.8123 87.692C37.8204 87.7632 37.8387 87.75 37.7712 87.7456C37.78 87.8175 37.7968 87.8028 37.7256 87.7955C37.7337 87.8637 37.7491 87.8483 37.6801 87.8439C37.6904 87.921 37.7102 87.9099 37.6376 87.8974C37.6427 87.9715 37.6625 87.9599 37.5957 87.9503C37.6104 88.0215 37.6266 88.0054 37.5554 88.0039C37.573 88.0832 37.587 88.0649 37.5063 88.0524C37.5158 88.125 37.5333 88.1111 37.4621 88.1023C37.4724 88.1771 37.49 88.1639 37.4174 88.1522C37.4262 88.2234 37.4431 88.2079 37.3734 88.2035C37.3888 88.2864 37.4093 88.2747 37.3308 88.2564C37.3455 88.3378 37.3638 88.3246 37.2845 88.3055C37.2316 88.3327 37.1796 88.3591 37.1275 88.3855C37.1407 88.4611 37.159 88.4465 37.0864 88.4392C37.0959 88.5118 37.1121 88.4971 37.0409 88.489C37.0512 88.5624 37.068 88.5464 36.9961 88.5412C37.0049 88.6109 37.021 88.5955 36.9528 88.5911C36.9623 88.6645 36.9792 88.6483 36.908 88.6424C36.9139 88.7114 36.93 88.6967 36.8625 88.6923C36.8691 88.7598 36.8852 88.7452 36.8199 88.7445C36.8279 88.8157 36.8442 88.7988 36.773 88.7937C36.7796 88.8656 36.7971 88.8516 36.7281 88.8428C36.734 88.9104 36.7509 88.8963 36.6848 88.8949C36.6936 88.9631 36.7098 88.9478 36.6401 88.9449C36.6497 89.0212 36.6701 89.0101 36.5997 88.9991C36.61 89.0747 36.629 89.0615 36.5571 89.052C36.5703 89.1313 36.5894 89.1188 36.5145 89.1049C36.5292 89.1834 36.5469 89.1687 36.4705 89.1562C36.4867 89.2303 36.5014 89.2142 36.4244 89.2039C36.4383 89.2832 36.4567 89.2692 36.3804 89.256C36.3958 89.3382 36.4155 89.3258 36.3369 89.3089C36.3538 89.3889 36.3701 89.372 36.2893 89.3573C36.3062 89.4359 36.3223 89.4197 36.2423 89.4065C36.2584 89.4821 36.2747 89.4675 36.1969 89.4542C36.2101 89.5306 36.2254 89.5158 36.1498 89.4997C36.163 89.579 36.1792 89.5614 36.1007 89.5504C36.1153 89.6246 36.1307 89.6091 36.0558 89.6003C36.0668 89.673 36.0823 89.6553 36.0089 89.6472C35.9619 89.6802 35.915 89.7118 35.8687 89.7441C35.8739 89.8109 35.89 89.797 35.824 89.7933C35.8306 89.8637 35.8474 89.8477 35.7791 89.8447C35.7901 89.9181 35.807 89.9042 35.7351 89.8954C35.741 89.9651 35.7586 89.9512 35.6925 89.9482C35.7028 90.015 35.7175 89.9974 35.6478 89.9974C35.6551 90.076 35.6771 90.0649 35.6067 90.0532C35.6184 90.1303 35.6382 90.117 35.5648 90.1052C35.5795 90.1838 35.5964 90.1692 35.5194 90.156C35.534 90.2286 35.5479 90.2118 35.4723 90.2044C35.2749 90.3219 35.2588 90.4421 35.0929 90.5383C35.098 90.6088 35.1164 90.5948 35.0496 90.5889C35.0606 90.6586 35.076 90.6433 35.0063 90.6404C35.0166 90.7145 35.0326 90.6983 34.9607 90.691C34.9468 90.7079 34.9328 90.7255 34.9181 90.7432C34.9277 90.8144 34.9454 90.7996 34.8764 90.7959C34.883 90.8642 34.8977 90.8481 34.828 90.8422C34.8368 90.9171 34.8558 90.9053 34.7854 90.8965C34.7935 90.9685 34.8111 90.953 34.7428 90.9479C34.7516 91.0205 34.7684 91.0043 34.6972 90.9985C34.7104 91.077 34.7318 91.0667 34.6584 91.0542C34.6716 91.1335 34.6826 91.1064 34.5901 91.1064C34.3531 91.3626 34.1167 91.618 33.8804 91.8749C35.0804 91.8801 36.2812 91.8874 37.482 91.8933C37.4828 97.8708 37.4841 103.847 37.4856 109.824C42.2161 109.829 46.9467 109.834 51.6779 109.838C51.5832 109.214 51.6492 100.501 51.6492 98.9306C51.6492 98.5739 51.5728 97.6587 51.7497 97.4106C53.8673 97.4055 55.9848 97.3996 58.1031 97.3937C58.1045 101.543 58.1068 105.693 58.1082 109.842C61.1645 109.835 64.2208 109.829 67.2764 109.824C67.2778 103.842 67.2785 97.8583 67.28 91.8764C68.4844 91.872 69.6896 91.869 70.8948 91.8653C70.654 91.6114 70.4133 91.3582 70.1726 91.1035C70.0816 91.1035 70.0933 91.1306 70.105 91.0535C70.0309 91.0638 70.0516 91.0763 70.064 90.9985C69.9951 91.0043 70.0125 91.0183 70.0206 90.9472C69.9516 90.9523 69.9685 90.9677 69.9766 90.8965C69.9061 90.9053 69.9252 90.9171 69.934 90.8422C69.8636 90.8481 69.8782 90.8642 69.8856 90.7959C69.8166 90.7996 69.8343 90.8144 69.8439 90.7432C69.8292 90.7255 69.8152 90.7079 69.8013 90.691C69.7293 90.6983 69.7454 90.7145 69.7557 90.6404C69.686 90.6433 69.7014 90.6586 69.7124 90.5889C69.6456 90.5948 69.6632 90.6088 69.6691 90.5383C69.504 90.4421 69.4856 90.3211 69.2889 90.2044C69.2133 90.2132 69.2287 90.2285 69.2433 90.1551C69.1685 90.1654 69.1868 90.1787 69.2001 90.1031C69.1281 90.1126 69.1465 90.1258 69.156 90.0509C69.0848 90.0648 69.1061 90.076 69.1135 89.9974C69.0445 89.9974 69.0584 90.015 69.0695 89.9482C69.0034 89.9512 69.021 89.9651 69.0269 89.8954C68.9549 89.9042 68.9719 89.9181 68.9829 89.8447C68.9146 89.8477 68.9314 89.8637 68.938 89.7933C68.8719 89.797 68.8888 89.8109 68.894 89.7441C68.8235 89.75 68.8412 89.7648 68.85 89.6914C68.7788 89.6987 68.8 89.7133 68.7912 89.6406C68.6481 89.4967 68.505 89.3544 68.3626 89.2113C68.2635 89.2113 68.2746 89.2414 68.2922 89.1548C68.2159 89.1673 68.2342 89.1812 68.2489 89.1042C68.1762 89.1174 68.1968 89.1276 68.2063 89.0513C68.1344 89.0593 68.1513 89.074 68.163 88.9991C68.0918 89.0101 68.1123 89.0212 68.1219 88.9449C68.0529 88.9478 68.0683 88.9631 68.0771 88.8949C68.0111 88.8963 68.028 88.9104 68.0346 88.8428C67.9641 88.8516 67.9824 88.8656 67.989 88.7937C67.9178 88.7988 67.934 88.8157 67.9421 88.7445C67.8761 88.7452 67.8929 88.7598 67.8995 88.6923C67.832 88.6967 67.8481 88.7114 67.8532 88.6432C67.782 88.6483 67.7989 88.6645 67.8092 88.5911C67.7388 88.5977 67.7556 88.6123 67.7659 88.5396C67.6947 88.5455 67.7123 88.5595 67.7234 88.4876C67.6507 88.4964 67.6668 88.5118 67.677 88.4392C67.6066 88.4436 67.6243 88.4575 67.636 88.3848C67.5149 88.3239 67.5215 88.2908 67.3886 88.2028C67.3196 88.2079 67.3365 88.2226 67.3453 88.1522C67.2712 88.1639 67.2889 88.1779 67.2992 88.1023C67.2287 88.1111 67.2477 88.1242 67.258 88.0494C67.178 88.0619 67.1927 88.0795 67.2074 88.0032C67.1362 88.0047 67.1523 88.0208 67.167 87.9496C67.1009 87.9599 67.1207 87.9701 67.1251 87.8974C67.0525 87.9092 67.073 87.9202 67.0833 87.8431C67.0143 87.8468 67.0298 87.8623 67.0371 87.7948C66.9659 87.8014 66.982 87.8175 66.9908 87.7456C66.9233 87.75 66.9409 87.7632 66.9497 87.692C66.8785 87.6986 66.8947 87.7139 66.9035 87.6412C66.8316 87.6478 66.8543 87.6625 66.8447 87.5862C59.3802 79.8486 60.5113 80.8938 52.3715 72.4149C49.6792 75.2371 46.9878 78.0592 44.2956 80.8799ZM80.6274 94.8233C83.0555 94.8145 85.4834 94.8072 87.9122 94.7991C87.9129 97.3974 87.9136 99.997 87.9143 102.595C85.4856 102.602 83.0576 102.608 80.6296 102.613C80.6289 100.016 80.6282 97.4201 80.6274 94.8233ZM103.409 94.7418C104.474 94.7418 105.539 94.7418 106.603 94.7418C106.603 97.5257 106.603 100.311 106.603 103.096C105.539 103.096 104.474 103.096 103.409 103.096C103.409 100.311 103.409 97.5257 103.409 94.7418ZM84.1292 74.6888C84.1094 74.7806 84.138 74.7615 84.0485 74.7505C84.0588 74.8415 84.0823 74.8254 83.9986 74.8166C84.0111 74.9039 84.0302 74.8841 83.9435 74.8782C83.956 74.967 83.9772 74.9501 83.8914 74.9406C83.9002 75.0279 83.9222 75.0118 83.84 75.0059C83.8532 75.0881 83.8686 75.0661 83.782 75.0631C83.7915 75.149 83.8128 75.1314 83.7321 75.1278C83.7431 75.2151 83.7629 75.1975 83.6778 75.1887C83.4715 75.3861 83.2653 75.5843 83.0583 75.7832C83.0752 75.8735 83.0943 75.8544 83.0033 75.8434C83.0224 75.9366 83.0444 75.9211 82.9541 75.9079C82.9651 75.9967 82.9863 75.9792 82.9019 75.9719C82.9144 76.0548 82.9313 76.0342 82.8469 76.0328C82.8483 76.1135 82.869 76.0944 82.789 76.09C82.8007 76.1795 82.8228 76.1626 82.7376 76.1538C82.7457 76.2455 82.7655 76.2206 82.6708 76.2206C82.4242 76.476 82.1776 76.7293 81.931 76.9832C81.9119 77.086 81.9434 77.0683 81.8465 77.0536C81.8656 77.1476 81.8868 77.1315 81.7944 77.1161C81.812 77.2086 81.834 77.1916 81.7445 77.1821C81.757 77.2723 81.779 77.257 81.6924 77.2453C81.7049 77.3319 81.7247 77.312 81.6403 77.3098C81.6513 77.392 81.6689 77.3722 81.5845 77.3693C81.5948 77.4574 81.6169 77.4412 81.5324 77.4309C81.5398 77.5168 81.5618 77.5006 81.4788 77.4933C81.4884 77.5762 81.5067 77.5564 81.4238 77.5549C81.4333 77.6401 81.4545 77.6233 81.3723 77.6174C81.3804 77.7033 81.401 77.685 81.3166 77.6784C81.3246 77.7635 81.3459 77.7459 81.2622 77.74C81.274 77.8273 81.2946 77.809 81.208 77.8002C81.2176 77.8883 81.2388 77.8705 81.1537 77.861C81.1662 77.9491 81.1853 77.9293 81.0987 77.9219C81.1097 78.0122 81.1338 77.9975 81.0486 77.9887C80.9503 78.0636 80.852 78.1378 80.7536 78.2126C80.7698 78.3051 80.7882 78.286 80.6957 78.2691C80.7067 78.3587 80.7287 78.3403 80.6421 78.3315C80.6553 78.4247 80.6795 78.41 80.5922 78.3983C80.6076 78.4827 80.6238 78.4607 80.5357 78.4563C80.5489 78.5452 80.5687 78.5268 80.4807 78.518C80.4983 78.6112 80.5217 78.595 80.4322 78.5818C80.4351 78.6684 80.4586 78.6516 80.3793 78.6471C80.3925 78.7352 80.4123 78.7162 80.3243 78.7059C80.3338 78.7903 80.3529 78.7712 80.2685 78.7668C80.278 78.8557 80.3008 78.838 80.2172 78.8299C80.2282 78.9239 80.2465 78.896 80.1445 78.896C78.8916 80.2076 77.6393 81.5178 76.3872 82.8287C76.3754 82.9219 76.4034 82.9035 76.316 82.8962C76.3263 82.9835 76.346 82.9652 76.2594 82.9564C76.2697 83.0423 76.2917 83.0253 76.2095 83.0209C76.2213 83.109 76.2411 83.0906 76.1545 83.0818C76.164 83.1655 76.1824 83.1465 76.0987 83.1406C76.1112 83.236 76.1362 83.2205 76.0474 83.2058C76.0533 83.2946 76.0775 83.2815 75.9968 83.2691C76.0144 83.3564 76.0342 83.3372 75.9483 83.335C75.9689 83.4311 75.9857 83.4092 75.8888 83.3931C75.8999 83.4826 75.9218 83.4664 75.8352 83.4547C75.847 83.5464 75.8683 83.5288 75.7802 83.5163C75.7912 83.6015 75.8117 83.5831 75.7273 83.5773C75.7456 83.6771 75.7707 83.6631 75.6745 83.6411C75.6929 83.7416 75.7157 83.7247 75.6188 83.702C75.5556 83.7335 75.4918 83.7659 75.4287 83.7989C75.4448 83.8892 75.4667 83.8716 75.3779 83.8635C75.3897 83.9524 75.4102 83.9333 75.3229 83.9245C75.3354 84.0133 75.356 83.9949 75.2694 83.9868C75.2797 84.072 75.2995 84.0536 75.2158 84.0485C75.2283 84.1366 75.2481 84.1182 75.1622 84.1101C75.1688 84.1945 75.1893 84.1762 75.1071 84.1703C75.1145 84.2533 75.1351 84.2349 75.0551 84.2341C75.0654 84.32 75.0844 84.301 74.9985 84.2929C75.0058 84.3817 75.0278 84.3641 74.9434 84.3545C74.9508 84.436 74.9714 84.4184 74.8914 84.4162C74.9017 84.5006 74.9215 84.48 74.8371 84.4778C74.8488 84.571 74.8738 84.5564 74.7872 84.5432C74.8004 84.6349 74.8238 84.6188 74.7364 84.6086C74.7518 84.7032 74.7754 84.6885 74.6844 84.6716C74.7027 84.7671 74.724 84.7502 74.6308 84.7333C74.6513 84.825 74.6682 84.8038 74.575 84.7921C74.5919 84.8882 74.6139 84.8713 74.5214 84.8559C74.5405 84.9542 74.564 84.9402 74.4686 84.9189C74.4892 85.0165 74.5089 84.9961 74.4113 84.9777C74.4318 85.0731 74.451 85.0533 74.3541 85.0372C74.3732 85.1304 74.393 85.1112 74.299 85.0958C74.3152 85.189 74.3343 85.1692 74.2418 85.1509C74.2573 85.247 74.2778 85.2257 74.1816 85.2125C74.2 85.3021 74.2183 85.283 74.128 85.2727C74.1412 85.3601 74.1596 85.3411 74.0708 85.3308C74.0143 85.3689 73.957 85.4078 73.9005 85.4475C73.9064 85.5289 73.9269 85.5121 73.8469 85.5091C73.8542 85.5928 73.8748 85.5745 73.7926 85.5686C73.805 85.6596 73.8256 85.6413 73.7382 85.631C73.7448 85.7154 73.7669 85.6992 73.6869 85.6948C73.7001 85.7762 73.717 85.755 73.6326 85.755C73.6414 85.8504 73.6678 85.8379 73.5827 85.8211C73.5966 85.915 73.6202 85.9004 73.5321 85.8864C73.5497 85.9804 73.5703 85.962 73.477 85.9474C73.4939 86.0369 73.5115 86.0155 73.4197 86.0053C73.1804 86.1491 73.1599 86.2951 72.9595 86.4111C72.9661 86.4955 72.9874 86.4801 72.9066 86.4728C72.9198 86.5579 72.939 86.5389 72.8546 86.536C72.8663 86.6248 72.8862 86.6064 72.7981 86.5969C72.7812 86.6189 72.7643 86.6394 72.7474 86.6593C72.7591 86.7466 72.7797 86.729 72.696 86.7253C72.7049 86.8083 72.7224 86.787 72.6373 86.7804C72.6475 86.8721 72.6711 86.8559 72.586 86.8456C72.5955 86.933 72.6167 86.9162 72.5331 86.9081C72.5448 86.9962 72.5653 86.9786 72.4794 86.9698C72.4949 87.0659 72.5207 87.0527 72.4311 87.038C72.4473 87.1342 72.4612 87.1011 72.3481 87.1011C72.0611 87.4108 71.7741 87.7228 71.4871 88.034C72.9441 88.0406 74.4011 88.0486 75.8587 88.0567C75.8602 95.3106 75.861 102.566 75.8625 109.821C81.6051 109.826 87.347 109.832 93.0889 109.838C92.9744 109.08 93.0543 98.505 93.0543 96.5973C93.0543 96.1665 92.9618 95.0545 93.1769 94.7528C95.7473 94.7462 98.3177 94.7403 100.888 94.733C100.89 99.7696 100.892 104.805 100.895 109.842C104.604 109.834 108.314 109.828 112.023 109.821C112.025 102.559 112.026 95.2967 112.027 88.0355C113.49 88.0311 114.952 88.0267 116.415 88.0223C116.123 87.7147 115.83 87.4057 115.539 87.0982C115.428 87.0982 115.442 87.1305 115.456 87.0366C115.366 87.0498 115.391 87.0644 115.407 86.9698C115.323 86.9778 115.344 86.9953 115.354 86.9073C115.27 86.9146 115.291 86.9315 115.3 86.8456C115.215 86.8559 115.238 86.8721 115.249 86.7804C115.164 86.787 115.182 86.8083 115.19 86.7253C115.106 86.729 115.127 86.7466 115.138 86.6593C115.121 86.6394 115.105 86.6189 115.088 86.5969C115 86.6064 115.02 86.6248 115.032 86.536C114.947 86.5389 114.967 86.5579 114.979 86.4728C114.898 86.4801 114.92 86.4955 114.927 86.4111C114.727 86.2951 114.705 86.1484 114.466 86.006C114.374 86.0155 114.393 86.0361 114.41 85.9451C114.319 85.9583 114.342 85.9752 114.358 85.882C114.271 85.8959 114.293 85.9121 114.305 85.8203C114.219 85.8372 114.244 85.8504 114.253 85.7564C114.169 85.7549 114.186 85.7762 114.199 85.6948C114.119 85.6992 114.141 85.7154 114.147 85.631C114.06 85.6413 114.081 85.6596 114.094 85.5686C114.011 85.5745 114.031 85.5928 114.039 85.5084C113.959 85.5106 113.98 85.5282 113.986 85.4475C113.901 85.4556 113.923 85.4731 113.932 85.3843C113.847 85.3923 113.872 85.4107 113.861 85.3219C113.688 85.1487 113.514 84.974 113.341 84.8022C113.22 84.8022 113.234 84.8375 113.256 84.7326C113.164 84.7472 113.185 84.7649 113.203 84.6702C113.115 84.6856 113.14 84.7002 113.152 84.6056C113.064 84.6166 113.085 84.6342 113.099 84.5432C113.012 84.5564 113.038 84.571 113.049 84.4778C112.965 84.48 112.983 84.5006 112.994 84.4162C112.915 84.4184 112.935 84.436 112.942 84.3545C112.858 84.3641 112.88 84.3817 112.888 84.2929C112.801 84.301 112.821 84.32 112.831 84.2341C112.751 84.2349 112.771 84.2533 112.779 84.1703C112.697 84.1762 112.717 84.1945 112.723 84.1108C112.637 84.1189 112.657 84.1366 112.67 84.0485C112.584 84.0551 112.605 84.0742 112.617 83.9861C112.531 83.9927 112.552 84.0103 112.566 83.9215C112.477 83.9332 112.497 83.9516 112.509 83.8628C112.423 83.868 112.445 83.8856 112.459 83.796C112.312 83.7234 112.32 83.6823 112.159 83.5758C112.075 83.5832 112.095 83.6008 112.106 83.5156C112.017 83.5296 112.038 83.5472 112.051 83.4547C111.965 83.4657 111.988 83.4812 112.001 83.3909C111.904 83.4056 111.921 83.4275 111.94 83.3343C111.852 83.3357 111.872 83.3564 111.89 83.2683C111.809 83.2808 111.834 83.2946 111.839 83.2058C111.751 83.219 111.776 83.2337 111.788 83.139C111.705 83.1442 111.724 83.1641 111.733 83.0811C111.645 83.0899 111.665 83.1083 111.676 83.0209C111.595 83.0253 111.616 83.043 111.626 82.9564C111.54 82.9652 111.559 82.9836 111.57 82.8955C111.483 82.9035 111.511 82.9219 111.499 82.8279C102.438 73.436 103.812 74.705 93.9315 64.4131C90.6638 67.8386 87.3969 71.2641 84.1292 74.6888ZM168.245 40.0964L172.535 37.1459L180.818 49.1868L176.528 52.1381L168.245 40.0964ZM155.031 92.0818H158.786V101.908H155.031V92.0818ZM132.355 68.497C132.332 68.6049 132.365 68.5829 132.259 68.5704C132.272 68.6761 132.299 68.657 132.2 68.6474C132.216 68.7494 132.238 68.7267 132.136 68.7201C132.15 68.8243 132.176 68.8053 132.075 68.7928C132.085 68.8955 132.112 68.8771 132.015 68.869C132.029 68.9674 132.048 68.9424 131.946 68.9366C131.957 69.0378 131.983 69.0181 131.888 69.0144C131.9 69.1164 131.924 69.0952 131.824 69.0849L131.095 69.7836C131.115 69.8908 131.138 69.8674 131.03 69.8549C131.053 69.965 131.079 69.9466 130.972 69.9319C130.986 70.0354 131.011 70.014 130.911 70.0074C130.926 70.1036 130.946 70.0802 130.846 70.0765C130.848 70.1734 130.873 70.1513 130.778 70.1462C130.792 70.2504 130.818 70.2313 130.718 70.2203C130.727 70.3289 130.751 70.2989 130.639 70.2989L129.769 71.1958C129.747 71.3177 129.784 71.2963 129.67 71.2787C129.692 71.3895 129.717 71.3706 129.609 71.3537C129.629 71.4608 129.655 71.441 129.55 71.4292C129.565 71.5364 129.591 71.5173 129.488 71.5041C129.503 71.6061 129.526 71.5841 129.427 71.5797C129.44 71.6774 129.461 71.6523 129.362 71.6501C129.374 71.7536 129.399 71.7353 129.3 71.7228C129.309 71.8248 129.334 71.8036 129.237 71.7962C129.248 71.8938 129.27 71.8696 129.173 71.8689C129.184 71.9694 129.209 71.9489 129.112 71.943C129.121 72.0428 129.146 72.0215 129.046 72.0127C129.056 72.114 129.081 72.0941 128.983 72.0861C128.996 72.1888 129.021 72.1669 128.919 72.1573C128.93 72.2601 128.955 72.241 128.855 72.2286C128.869 72.3313 128.892 72.3085 128.79 72.2997C128.804 72.4061 128.831 72.3885 128.732 72.3782L128.384 72.6417C128.404 72.7511 128.425 72.7269 128.316 72.7078C128.33 72.8135 128.355 72.7922 128.253 72.7819C128.269 72.8898 128.297 72.873 128.195 72.859C128.213 72.9596 128.232 72.9338 128.128 72.9294C128.144 73.0329 128.167 73.011 128.064 73.0007C128.084 73.11 128.111 73.0924 128.006 73.0762C128.01 73.1775 128.037 73.1578 127.944 73.1519C127.96 73.2554 127.983 73.2333 127.879 73.223C127.891 73.3214 127.913 73.2987 127.813 73.2935C127.825 73.397 127.852 73.3779 127.753 73.3684C127.766 73.4792 127.788 73.4455 127.668 73.4455L123.249 78.0703C123.236 78.1811 123.269 78.1591 123.164 78.1503C123.178 78.253 123.201 78.2309 123.099 78.2207C123.111 78.3227 123.136 78.3037 123.04 78.2971C123.054 78.402 123.078 78.3799 122.976 78.3682C122.987 78.4665 123.009 78.4438 122.91 78.4387C122.924 78.5495 122.954 78.5319 122.849 78.515C122.856 78.6199 122.885 78.6032 122.789 78.5892C122.811 78.6913 122.833 78.6691 122.733 78.6662C122.757 78.7792 122.778 78.7536 122.662 78.736C122.676 78.841 122.701 78.8203 122.6 78.8071C122.614 78.9143 122.639 78.8945 122.535 78.8791C122.549 78.9796 122.572 78.9584 122.473 78.9503C122.494 79.0692 122.524 79.0523 122.411 79.0273C122.433 79.144 122.459 79.1258 122.345 79.0971L122.121 79.2108C122.141 79.318 122.166 79.2982 122.063 79.2894C122.077 79.3929 122.099 79.3709 121.997 79.3599C122.012 79.4641 122.036 79.442 121.934 79.4324C121.946 79.5337 121.969 79.5117 121.871 79.5044C121.885 79.6086 121.91 79.5873 121.808 79.5785C121.816 79.6769 121.84 79.6549 121.743 79.6498C121.752 79.7467 121.776 79.7246 121.682 79.7239C121.694 79.8244 121.717 79.8016 121.616 79.7928C121.624 79.8971 121.65 79.8765 121.551 79.8648C121.56 79.9617 121.583 79.9404 121.489 79.9382C121.502 80.0366 121.525 80.0139 121.426 80.0094C121.44 80.1203 121.469 80.1027 121.368 80.0887C121.383 80.1959 121.41 80.1775 121.307 80.1643C121.326 80.2758 121.354 80.2582 121.247 80.2391C121.267 80.3507 121.293 80.3294 121.183 80.3118C121.207 80.4182 121.227 80.394 121.117 80.3807C121.137 80.4938 121.163 80.474 121.055 80.4534C121.077 80.5716 121.105 80.5541 120.993 80.5291C121.017 80.6436 121.04 80.6208 120.925 80.5988C120.949 80.7111 120.971 80.6876 120.858 80.6677C120.881 80.7778 120.903 80.7552 120.794 80.7375C120.812 80.8454 120.834 80.8248 120.725 80.8028C120.744 80.9143 120.768 80.8901 120.655 80.8755C120.677 80.9804 120.698 80.957 120.592 80.9453C120.607 81.0488 120.629 81.026 120.524 81.0128L120.324 81.1507C120.331 81.2476 120.355 81.2256 120.261 81.2219C120.27 81.3218 120.294 81.2998 120.197 81.2932C120.212 81.3989 120.236 81.3783 120.133 81.3673C120.142 81.4657 120.167 81.4465 120.074 81.4421C120.088 81.5376 120.108 81.5134 120.009 81.5141C120.02 81.6242 120.05 81.6087 119.95 81.5911C119.967 81.7012 119.995 81.6837 119.89 81.6668C119.912 81.7776 119.936 81.757 119.826 81.7379C119.846 81.8428 119.867 81.8195 119.759 81.807C119.477 81.9765 119.454 82.149 119.217 82.2841C119.225 82.3846 119.25 82.3655 119.155 82.3575C119.171 82.4573 119.194 82.4345 119.094 82.4316C119.108 82.5358 119.131 82.5137 119.028 82.5034L118.968 82.5768C118.981 82.6781 119.006 82.6569 118.907 82.6525C118.918 82.7501 118.939 82.7266 118.838 82.72C118.851 82.8257 118.879 82.8087 118.778 82.7963C118.789 82.8983 118.814 82.8778 118.716 82.8689C118.73 82.9732 118.754 82.9519 118.653 82.9409C118.671 83.0547 118.702 83.0378 118.596 83.0209C118.615 83.1347 118.631 83.0943 118.498 83.0943L117.486 84.1924L122.628 84.2188L122.632 109.816L142.893 109.837C142.758 108.946 142.852 96.5077 142.852 94.2654C142.852 93.7567 142.742 92.4504 142.996 92.0959L152.065 92.0716L152.073 109.842L165.162 109.816L165.166 84.1953L170.326 84.1784L169.296 83.0914C169.166 83.0914 169.182 83.1303 169.199 83.0195C169.094 83.0364 169.122 83.0539 169.141 82.9409C169.042 82.9497 169.067 82.9703 169.079 82.8682C168.981 82.8763 169.004 82.8976 169.016 82.7963C168.915 82.8087 168.943 82.8257 168.956 82.72C168.855 82.7266 168.876 82.7501 168.886 82.6525C168.788 82.6569 168.813 82.6781 168.826 82.5768L168.766 82.5034C168.663 82.5137 168.686 82.5358 168.7 82.4316C168.601 82.4345 168.623 82.4573 168.639 82.3575C168.543 82.3655 168.569 82.3846 168.577 82.2841C168.341 82.1483 168.315 81.975 168.035 81.8077C167.927 81.8202 167.948 81.8429 167.969 81.7364C167.862 81.7526 167.888 81.7717 167.908 81.6623C167.805 81.6777 167.831 81.6961 167.845 81.5897C167.743 81.6087 167.773 81.6249 167.784 81.5141C167.685 81.5134 167.705 81.5376 167.721 81.4421C167.627 81.4465 167.652 81.4657 167.66 81.3673C167.558 81.3783 167.582 81.3989 167.597 81.2932C167.5 81.2998 167.523 81.3218 167.533 81.2219C167.439 81.2256 167.463 81.2468 167.47 81.1507C167.37 81.1595 167.395 81.1808 167.408 81.0759C167.306 81.0854 167.336 81.1067 167.323 81.0032L166.711 80.3911C166.57 80.3911 166.586 80.4329 166.611 80.3103C166.503 80.3287 166.528 80.3478 166.549 80.237C166.446 80.2553 166.475 80.2714 166.489 80.1605C166.386 80.1738 166.41 80.1944 166.426 80.0887C166.325 80.1027 166.355 80.1203 166.368 80.0094C166.269 80.0139 166.291 80.0366 166.304 79.9382C166.211 79.9404 166.234 79.9617 166.243 79.8648C166.143 79.8765 166.169 79.8971 166.178 79.7928C166.077 79.8016 166.1 79.8244 166.111 79.7239C166.018 79.7246 166.041 79.7467 166.051 79.6498C165.954 79.6549 165.978 79.6769 165.985 79.5792C165.883 79.588 165.908 79.6094 165.922 79.5044C165.821 79.5139 165.845 79.5345 165.86 79.4317C165.758 79.4398 165.784 79.4604 165.8 79.3569C165.695 79.3701 165.719 79.3922 165.733 79.2865C165.632 79.2938 165.657 79.3143 165.675 79.2101C165.502 79.122 165.511 79.0757 165.322 78.9495C165.224 78.9576 165.246 78.9797 165.259 78.8784C165.154 78.8953 165.179 78.915 165.194 78.8071C165.094 78.8196 165.12 78.838 165.135 78.7316C165.022 78.7492 165.041 78.7756 165.063 78.6648C164.961 78.6684 164.983 78.6913 165.005 78.5892C164.91 78.6032 164.939 78.6192 164.945 78.5143C164.841 78.5311 164.87 78.5481 164.885 78.4373C164.787 78.4424 164.809 78.4651 164.82 78.3675C164.717 78.3777 164.741 78.3998 164.754 78.2964C164.657 78.3037 164.683 78.3227 164.694 78.2207C164.593 78.2309 164.616 78.2523 164.629 78.1496C164.526 78.1591 164.559 78.1804 164.545 78.0703C153.889 67.0247 155.503 68.5176 143.883 56.4121L132.355 68.497Z" fill="white"/>
</svg>
