<svg width="154" height="126" viewBox="0 0 154 126" fill="none" xmlns="http://www.w3.org/2000/svg">
<path fill-rule="evenodd" clip-rule="evenodd" d="M129.224 5.84434C128.803 4.68601 128.171 3.00116 127.75 2.15873C126.907 0.473883 119.22 -0.579157 117.851 0.684479C117.43 1.10569 117.114 2.47464 117.114 3.73828C117.114 7.31858 115.851 7.73979 113.429 4.686L111.217 1.94811L107.321 4.26479C103.109 6.79207 102.793 7.52918 104.478 10.6883C105.847 13.2155 103.214 14.6898 100.792 12.689C98.7914 11.0042 96.7907 12.4784 94.8952 17.1118C93.6316 20.1655 93.7369 20.5868 95.8429 21.9557C99.2126 24.1671 98.7914 26.3784 95.0005 26.3784C91.9467 26.3784 91.8414 26.4837 91.8414 31.6436C91.8414 36.8034 91.9467 36.9087 95.0005 36.9087C98.6861 36.9087 99.4232 39.5413 96.0535 40.5943C93.421 41.4368 93.421 42.8057 96.1589 47.3337C97.5278 49.6504 98.8967 50.7034 100.055 50.2822C100.407 50.1856 100.734 50.094 101.039 50.0088C103.008 49.4578 104.017 49.1755 104.458 49.5544C104.922 49.9526 104.759 51.0808 104.425 53.3944C104.375 53.7349 104.322 54.1011 104.267 54.4943C104.057 55.6527 105.426 57.1269 107.847 58.4958L111.849 60.6019L113.429 58.1799C115.745 54.9156 117.114 55.2315 117.114 59.1277V62.2868L122.695 61.9709C127.75 61.6549 128.171 61.4443 128.487 58.7065C128.908 55.2315 130.066 55.1262 132.067 58.1799L133.541 60.3913L137.964 57.9693C141.229 56.1792 142.282 55.0208 141.755 53.7572C139.86 49.2292 139.86 48.0709 141.966 48.9133C146.704 50.914 147.231 50.7034 149.547 46.4913L151.969 42.2792L149.232 40.489C146.178 38.4883 146.704 36.9087 150.285 36.9087C152.18 36.9087 152.917 36.1716 153.444 33.7496C154.391 29.2216 153.233 26.3784 150.285 26.3784C146.599 26.3784 146.178 24.5883 149.126 22.5875C151.759 20.9027 151.759 20.7974 150.074 17.6383C147.231 11.8466 146.599 11.4254 143.861 13.2156C141.018 15.0057 139.649 13.7421 141.334 10.6883C141.943 9.51322 142.301 8.82381 142.206 8.20375C142.071 7.32349 141.024 6.58301 138.491 4.79131L134.489 2.05342L132.172 5.00191C129.961 7.63449 129.856 7.73979 129.224 5.84434ZM63.9361 51.6512L39.5058 35.3292L14.9702 19.0072H7.59899H0.227783V24.1671V29.3269L23.4997 44.8065L46.877 60.286L23.605 75.6603L0.333083 91.1398L0.227783 96.089V101.144H8.02021H15.9179L40.4535 84.8216L64.9892 68.4996H81.4164C97.5278 68.4996 98.1596 68.3943 104.478 65.4459L111.007 62.2868L107.005 60.286C104.688 59.1277 101.529 56.7057 99.8445 54.9156L96.6854 51.6512H80.3634H63.9361ZM91.3149 41.7527C89.5247 35.8557 89.3141 27.4315 90.6831 22.3769L91.7361 19.0072H58.3551C37.7157 19.0072 25.5005 19.4284 26.1323 19.9549C26.6588 20.4815 36.1361 26.9049 47.0876 34.1708L67.0952 47.439H80.0475C87.1028 47.439 92.8945 47.3337 92.8945 47.1231C92.8945 47.0504 92.5433 45.874 92.0487 44.2172C91.8267 43.4737 91.5759 42.6334 91.3149 41.7527ZM37.0838 60.1807C37.0838 59.8648 29.3967 54.4943 19.9194 48.3868C12.5985 43.5335 5.92005 39.2586 3.04645 37.4192C2.24141 36.9039 1.73499 36.5797 1.59672 36.4875C0.543689 35.8557 0.227783 40.9102 0.227783 59.9701C0.227783 73.3436 0.543692 84.2951 0.964904 84.2951C2.12324 84.2951 37.0838 60.9178 37.0838 60.1807ZM124.485 67.0254C124.485 65.3405 123.748 64.2875 122.169 63.8663C119.01 63.0239 115.535 63.0239 114.692 63.9716C114.271 64.2875 113.955 65.7618 113.955 67.0254C113.955 70.6057 112.165 71.0269 110.164 68.0784C108.479 65.4459 108.374 65.4459 105.215 67.1307C99.4232 69.9739 99.1073 70.5004 100.897 73.3436C102.477 75.5549 102.477 75.8708 101.003 76.5027C100.055 76.8186 98.3702 76.608 97.2119 75.8709C95.3164 74.9231 94.7899 75.239 92.8945 78.1875C90.2619 82.505 90.2619 83.9792 92.8945 85.5587C96.0535 87.5595 95.527 89.5602 91.8414 89.5602C88.7876 89.5602 88.6823 89.6656 88.6823 94.8254C88.6823 99.9853 88.7876 100.091 91.8414 100.091C95.527 100.091 96.0535 102.091 92.8945 104.092C90.2619 105.672 90.2619 106.409 92.9998 111.042C95.1058 114.728 95.2111 114.728 98.1596 113.253C101.635 111.463 103.109 112.622 101.319 115.886C99.8445 118.624 101.003 120.309 105.636 122.204C108.479 123.468 109.006 123.363 110.375 121.256C112.586 118.097 113.955 118.519 113.955 122.204C113.955 125.258 114.06 125.363 119.22 125.363C124.064 125.363 124.485 125.153 124.485 122.836C124.485 119.045 126.591 118.308 128.803 121.256L130.698 123.784L134.7 121.467C138.701 119.045 138.912 118.519 137.543 113.885C136.911 111.674 137.016 111.463 138.807 112.095C143.44 114.096 144.072 113.885 146.388 109.778L148.705 105.566L146.072 103.881C142.597 101.565 142.703 100.091 146.494 100.091C149.126 100.091 149.653 99.564 150.179 96.5102C151.022 91.8769 150.074 89.5602 147.126 89.5602C143.44 89.5602 143.019 87.7701 145.967 85.7693L148.6 84.0845L146.494 79.8724C145.019 76.9239 143.861 75.7656 142.597 76.1868C142.244 76.2838 141.915 76.3759 141.609 76.4614C139.645 77.0109 138.639 77.2925 138.208 76.9158C137.755 76.5199 137.937 75.3971 138.311 73.0943L138.311 73.0941C138.367 72.7481 138.427 72.3755 138.491 71.9746C138.596 70.8163 137.227 69.3421 134.7 67.9731L130.698 65.8671L128.803 68.3943C126.591 71.2375 124.485 70.6057 124.485 67.0254ZM90.0513 79.5565C91.6308 76.8186 92.8945 74.3966 92.8945 74.186C92.8945 73.9754 86.8922 73.7648 79.521 73.7648H66.0422L45.5081 87.4542L24.974 101.144H55.6172H86.2604L86.7869 92.93C87.1028 86.5065 87.9452 83.4527 90.0513 79.5565ZM112.376 44.9116C100.898 36.0661 104.583 18.1646 118.588 14.6896C122.695 13.7419 127.223 14.479 131.33 16.7957C141.966 22.798 141.966 37.9616 131.541 45.754C126.802 49.229 117.535 48.8078 112.376 44.9116ZM116.693 33.7495C116.377 33.7495 115.745 32.1699 115.219 30.3798C114.798 28.4843 113.639 26.7995 112.797 26.7995C110.059 26.4836 107.637 27.5366 107.637 29.0108C107.637 30.4851 111.744 42.1737 112.481 43.1214C112.691 43.3321 118.588 41.0154 125.538 37.8563C137.964 32.2752 139.438 31.0116 137.227 27.5366C136.385 26.1677 134.7 26.5889 126.697 29.8533C121.432 31.9593 116.904 33.7495 116.693 33.7495ZM109.638 80.5042C102.372 85.4535 100.055 96.405 104.794 103.25C108.795 109.252 112.27 111.147 119.22 111.147C126.17 111.147 129.645 109.252 133.752 103.25C138.701 95.8785 135.648 83.6633 127.645 79.5565C122.801 77.0292 114.06 77.4504 109.638 80.5042Z" fill="white"/>
</svg>
