<svg width="156" height="145" viewBox="0 0 156 145" fill="none" xmlns="http://www.w3.org/2000/svg">
<path fill-rule="evenodd" clip-rule="evenodd" d="M65.8702 96.4413C65.5174 96.4413 65.6855 96.5613 65.6965 96.9694C65.6965 96.9737 64.9871 97.9071 64.8686 98.0439C63.848 98.8754 54.0582 101.813 54.0582 101.859L53.9309 101.823L53.7409 101.849C53.3634 102.025 53.5315 101.895 53.2893 102.225C53.6304 102.684 53.8399 102.677 54.3105 103.065C55.577 105.216 63.7258 106.547 63.9891 106.366L64.4575 106.412C68.7734 106.345 71.3223 106.564 75.8862 106.52L76.3569 106.785L76.8757 106.714C77.1725 106.721 77.1281 106.807 77.099 106.545L77.3536 106.585C77.6657 106.608 77.5885 106.681 77.5885 106.37L77.6314 106.38C78.0155 106.396 77.9573 106.512 77.9573 106.204L78.0715 106.177C78.1304 106.182 84.0714 106.357 84.1718 106.349C86.8669 107.911 86.4421 110.324 84.1776 109.951L83.7418 110.188C83.122 110.245 74.0539 113.815 73.3264 114.32L73.3607 114.335L73.0718 114.338L73.0254 114.565L72.7925 114.531C72.4855 114.504 72.5299 114.418 72.564 114.693C72.0948 115.016 61.3136 116.924 60.3228 116.676L59.535 116.687C58.4387 117.21 52.4607 118.336 51.1629 118.341L50.6414 118.407L50.1096 118.161C47.2268 118.102 44.8626 117.742 41.7063 117.811C39.2992 117.813 35.9282 117.241 32.5667 117.232C31.2239 117.237 25.4911 117.018 24.4166 117.112C23.7416 116.726 19.6847 116.691 18.9965 117.143L18.6291 117.064L18.0304 117.008L12.2139 117.222L3.98593 117.906C-1.51494 112.014 -0.79987 102.577 3.98593 96.3496L5.02394 95.7204C5.02394 96.0885 27.1663 102.279 29.1529 102.205C32.179 102.235 33.1357 101.725 35.0372 101.672C35.3609 101.672 35.3034 101.765 35.3034 101.487C35.9334 101.608 37.6021 99.6827 38.3361 99.3568C39.8026 98.3464 41.7245 98.3842 42.5799 97.8903L42.8425 97.8772C44.6174 97.531 47.6386 97.4626 48.9909 96.933C51.1106 97.304 56.6544 94.3725 57.3979 94.4613L57.7492 94.254C58.6331 93.8372 61.6271 93.3431 62.5065 93.4093L64.1353 93.4413C65.2294 93.0143 65.9153 95.3959 65.8702 96.4413Z" fill="white"/>
<path fill-rule="evenodd" clip-rule="evenodd" d="M107.81 34.699C109.196 34.6816 112.935 36.0302 114.349 36.8806L114.45 36.8581C122.213 42.0818 126.611 40.8939 127.934 42.2324C129.256 43.4035 134.042 50.2217 135.215 51.27C135.864 52.6958 140.923 59.7774 142.344 60.6176C143.725 62.5162 143.94 62.8056 145.728 63.6465C147.702 64.8243 152.008 65.5467 153.78 66.5527C158.297 71.991 149.469 80.8242 143.996 80.5354C141.362 78.3342 139.617 77.2831 137.021 76.2538C135.34 76.3294 130.792 74.7262 128.519 74.5305C127.284 73.9173 118.537 71.8789 117.703 71.9204C115.118 70.9711 111.742 68.2643 110.28 67.9202C110.421 67.1651 103.143 62.0892 101.979 61.66C101.979 60.4488 100.618 60.264 99.7279 60.1054C99.7097 58.6564 100.268 58.1239 101.846 57.4845L104.324 57.5012C105.403 57.5609 111.073 60.8255 112.89 61.9254C117.135 63.0951 115.547 62.3722 118.705 61.2905C119.956 60.3863 120.533 57.3535 121.067 56.9047L120.888 54.5573C120.785 54.454 119.614 51.1332 118.112 49.3241C117.926 48.9458 117.728 48.5916 117.517 48.2599C115.417 48.1369 112.038 48.1901 111.091 49.5853L110.793 49.5977C110.4 49.6391 109.987 51.0387 107.149 51.3791C105.898 51.2969 105.44 51.0896 104.46 50.1527C105.426 49.4623 107.795 46.5977 108.881 46.2325C109.91 46.223 112.385 45.4629 114.569 45.3618C114.339 45.2185 114.101 45.081 113.851 44.9486C113.689 44.8002 113.423 44.5747 113.091 44.3056C110.738 44.2008 107.901 42.3146 106.556 45.3487L106.486 45.4178C105.802 45.4178 103.791 49.6878 103.831 50.2392L103.877 50.6058C103.33 51.1471 102.422 53.4654 102.415 53.7855C100.531 55.5815 100.599 55.4586 97.9916 55.5721C98.0163 54.1616 97.8198 53.3243 98.3632 52.0542C98.6731 50.1316 100.26 46.3401 100.179 45.6142C100.621 45.121 102.023 42.2193 101.949 41.5348L103.464 40.0827L102.84 40.0653C101.459 39.5947 98.6826 39.5583 96.7207 39.1109C94.1303 38.4359 92.5977 36.3925 92.5045 36.3925C93.101 34.9675 92.335 34.3491 95.1968 34.1738C96.8379 35.0795 105.283 34.7601 107.81 34.699ZM111.644 43.1882L111.608 43.162C111.616 43.1758 111.627 43.1846 111.644 43.1882ZM109.524 41.7733L109.349 41.6766C109.352 41.7813 109.385 41.7871 109.524 41.7733Z" fill="white"/>
<path fill-rule="evenodd" clip-rule="evenodd" d="M101.584 64.2831C106.688 69.6901 104.033 80.4854 95.6552 88.3926C87.2766 96.3013 76.3469 98.3293 71.2432 92.9223C66.1395 87.5153 68.7946 76.7201 77.1725 68.8114C85.5511 60.9042 96.4808 58.8768 101.584 64.2831ZM73.3287 82.2006L90.1062 66.3644L94.6352 71.1639C95.5459 72.1285 96.0864 73.0059 96.2589 73.7908C96.432 74.5771 96.2793 75.4791 95.8007 76.4982C95.3227 77.5159 94.6186 78.4609 93.6969 79.3302C92.5061 80.4548 91.2672 81.1532 89.9826 81.4274C88.6972 81.7009 87.4584 81.4216 86.2559 80.5923C86.3337 81.239 86.3243 81.7919 86.2356 82.2458C86.0377 83.2256 85.6653 84.3247 85.1204 85.5396L82.3184 91.7249L80.6299 89.9354L82.77 85.2078C83.3891 83.838 83.8329 82.7659 84.1137 81.9912C84.3908 81.215 84.5334 80.6221 84.5457 80.2053C84.5574 79.795 84.4992 79.4342 84.3755 79.1323C84.2729 78.9235 84.0518 78.6325 83.7019 78.2622L82.1365 76.6038L74.6846 83.6366L73.3287 82.2006ZM84.0575 74.7896L86.9593 77.8644C87.5777 78.5198 88.1647 78.9293 88.7226 79.0988C89.277 79.2712 89.8772 79.2349 90.5202 78.9847C91.1618 78.741 91.7517 78.3649 92.2943 77.852C93.0872 77.1042 93.5695 76.3018 93.7317 75.4478C93.8932 74.5945 93.5949 73.7697 92.8413 72.9717L89.6109 69.5491L84.0575 74.7896Z" fill="white"/>
<path d="M74.2148 0C94.1887 0 112.273 8.09637 125.363 21.1858C138.453 34.276 146.55 52.3616 146.55 72.3348C146.55 92.3094 138.453 110.393 125.363 123.484C112.273 136.573 94.1887 144.671 74.2148 144.671C54.2416 144.671 36.156 136.573 23.0658 123.484C9.9771 110.393 1.87929 92.3094 1.87929 72.3348C1.87929 52.3616 9.9771 34.276 23.0658 21.1858C36.156 8.09637 54.2416 0 74.2148 0ZM121.437 25.1125C109.352 13.0283 92.656 5.55323 74.2148 5.55323C55.7736 5.55323 39.0767 13.0283 26.9926 25.1125C14.9091 37.1974 7.43323 53.8936 7.43323 72.3348C7.43323 90.7767 14.9091 107.473 26.9926 119.557C39.0767 131.641 55.7736 139.116 74.2148 139.116C92.656 139.116 109.352 131.641 121.437 119.557C133.521 107.473 140.995 90.7767 140.995 72.3348C140.995 53.8936 133.521 37.1974 121.437 25.1125Z" fill="white"/>
<path d="M104.283 11.0609L77.235 65.2643C76.2042 66.0237 75.1937 66.8639 74.2183 67.7841C67.6582 73.9746 64.609 81.9356 66.042 87.6947L64.4125 90.9602C64.2241 90.9646 64.0277 90.9835 63.8262 91.0271L62.6019 91.0038C61.1819 90.9296 57.9354 91.505 56.7227 92.0768L56.6217 92.1248L56.5343 92.1758C56.1779 92.258 55.7931 92.3802 55.3923 92.5228L97.6869 7.7627L104.283 11.0609ZM49.6281 120.59L42.8942 134.083L36.2993 130.786L41.5718 120.219H41.707C44.3723 120.16 46.9453 120.469 49.5488 120.554L49.6281 120.59Z" fill="white"/>
</svg>
