<svg width="92" height="156" viewBox="0 0 92 156" fill="none" xmlns="http://www.w3.org/2000/svg">
<path d="M45.2223 36.8132C45.4991 66.5682 45.6375 68.921 45.9143 48.992C46.3295 25.4648 46.4679 24.496 49.2358 24.496C50.7582 24.496 55.1868 22.2817 59.2003 19.6521C65.4281 15.3619 67.3656 14.8083 74.9774 14.8083C81.7588 14.8083 83.6963 14.3931 83.6963 12.7324C83.6963 11.0716 81.7588 10.6564 74.9774 10.6564C67.504 10.6564 65.4281 10.1029 59.4771 6.08938C55.602 3.45987 50.8966 1.10714 48.8206 0.691959L44.9456 -1.90735e-05L45.2223 36.8132ZM54.91 8.02692C58.5083 10.3796 61.553 12.4556 61.553 12.7324C61.553 13.8395 47.4367 22.0049 46.7447 21.1745C45.7759 20.2057 45.4991 20.3441 52.1421 16.0539L57.2628 12.594L51.7269 9.27248C46.8831 6.22778 44.8072 3.73666 47.2983 3.73666C47.7135 3.73666 51.1734 5.6742 54.91 8.02692Z" fill="white"/>
<path d="M57.4011 1.5215C57.4011 1.79829 59.4771 3.45904 62.1066 4.98139C65.4281 7.05732 69.0263 7.8877 75.2541 7.8877C83.2811 7.8877 83.6963 7.7493 83.6963 4.42781C83.6963 0.967919 83.6963 0.967919 70.5487 0.967919C63.3521 0.967919 57.4011 1.24471 57.4011 1.5215Z" fill="white"/>
<path d="M61.9682 20.4816C59.4771 22.1424 57.4011 23.6647 57.4011 23.9415C57.4011 24.2183 63.3521 24.4951 70.5487 24.4951C83.6963 24.4951 83.6963 24.4951 83.6963 21.0352C83.6963 17.7137 83.4195 17.5753 75.1158 17.5753C68.6112 17.5753 65.1513 18.4057 61.9682 20.4816Z" fill="white"/>
<path d="M19.3424 28.6476C15.0521 30.3083 12.8378 33.6298 13.3914 37.9201C14.2217 45.8086 27.2309 46.9158 29.1685 39.1656C30.6908 32.7994 24.8782 26.5716 19.3424 28.6476Z" fill="white"/>
<path d="M67.3656 30.9998C60.0306 37.2276 65.2896 47.0537 74.5621 44.701C79.406 43.4554 81.3435 39.5804 79.406 34.5981C77.0533 28.2319 72.3478 26.848 67.3656 30.9998Z" fill="white"/>
<path d="M5.36438 51.2056C1.6277 54.3887 1.35091 55.4959 0.93572 65.8756C0.243742 80.4071 1.35091 87.0501 4.534 86.4965C6.47154 86.0813 7.02512 84.1438 7.30191 75.0097C7.8555 58.9558 10.3466 58.4022 10.3466 74.3177V87.1885L13.5297 84.4206C17.128 80.9607 26.8157 75.7016 29.3068 75.7016C30.414 75.7016 31.1059 73.9025 31.2443 71.1346C31.2443 68.7819 31.7979 65.4604 32.4899 63.938C33.3203 61.8621 33.7355 62.8309 33.7355 67.6747C33.8739 74.3177 34.4274 75.0097 38.5793 73.4873C40.24 72.7953 40.7936 70.581 40.7936 63.246C40.7936 50.2369 38.9945 48.8529 22.2486 48.2993C10.2082 47.7458 9.10106 48.0225 5.36438 51.2056Z" fill="white"/>
<path d="M60.5842 48.8532C54.7715 50.0988 51.8652 55.773 51.8652 65.4607C51.8652 70.3045 52.4188 74.318 53.1108 74.318C53.8028 74.318 55.3251 74.7332 56.5707 75.1484C58.3698 75.8404 58.785 74.7332 58.785 68.7822C58.785 64.4919 59.3386 62.0008 60.169 62.5544C60.9993 62.9696 61.5529 66.4295 61.5529 70.0277C61.5529 75.702 61.9681 76.8091 65.0128 78.1931C66.9503 79.1618 71.6558 82.7601 75.3925 86.22L82.3123 92.7246V78.0547C82.3123 69.751 82.8658 62.9696 83.6962 62.5544C84.5266 62.0008 85.0802 65.1839 85.0802 71.1349C85.0802 83.1753 86.0489 86.7736 89.3704 86.7736C91.7231 86.7736 91.9999 85.528 91.9999 72.3805C91.9999 57.2954 90.8928 51.7595 87.4329 50.3756C84.5266 49.2684 64.1824 48.1612 60.5842 48.8532Z" fill="white"/>
<path d="M36.5033 78.608C23.6325 80.5456 12.4224 89.1261 6.74821 101.305C3.01153 109.332 2.59634 111.685 5.36426 111.685C6.47142 111.685 7.71698 109.609 8.13217 106.979C10.2081 95.9075 24.6012 83.7287 38.0256 81.7911C51.5884 79.7152 66.1199 85.8046 74.0084 96.7379C78.7139 103.242 79.1291 104.765 75.946 104.765C74.0084 104.765 74.0084 105.18 75.3924 106.979C76.4996 108.086 78.2987 109.609 79.6827 110.439C81.7586 111.546 82.589 110.993 84.3881 107.533C86.464 103.519 86.464 103.381 83.6961 103.381C82.1738 103.381 80.9282 102.55 80.9282 101.582C80.9282 100.751 78.7139 97.0146 76.0844 93.4164C68.0574 82.4831 51.45 76.2553 36.5033 78.608Z" fill="white"/>
<path d="M56.9859 94.6624C53.8028 95.216 53.3876 95.6312 54.7715 97.292C57.2627 100.337 45.6374 115.007 41.624 113.761C31.9363 110.993 32.0747 110.993 25.0165 119.989C19.7575 126.632 18.6503 128.846 20.0343 130.092C21.2798 131.337 23.079 130.092 28.1996 124.417C34.289 117.498 34.981 117.221 38.5793 118.466C45.0838 120.958 46.7446 120.127 53.9412 110.993C57.6778 106.011 61.1377 101.997 61.5529 101.997C61.9681 101.997 63.2137 102.828 64.1824 103.658C65.7048 105.181 65.9816 104.627 65.1512 100.752C64.736 98.2607 64.3208 95.6312 64.3208 94.9392C64.3208 93.6937 63.9056 93.6937 56.9859 94.6624Z" fill="white"/>
<path d="M1.62767 119.85C-0.586654 123.587 -0.586654 123.864 1.90447 124.556C3.28842 124.832 4.81077 126.908 5.36435 128.984C7.0251 135.35 13.9449 144.346 20.8647 148.775C41.0704 162.199 69.4415 154.864 80.0979 133.551C83.5578 126.631 84.9418 115.837 82.4507 115.837C81.7587 115.837 80.9283 118.328 80.3747 121.511C76.0845 148.498 42.8695 161.092 20.7263 144.208C11.7305 137.426 4.25719 122.756 9.79301 122.756C11.8689 122.756 11.8689 122.341 8.96264 119.297C4.81077 115.006 4.53398 115.006 1.62767 119.85Z" fill="white"/>
</svg>
