<svg width="160" height="125" viewBox="0 0 160 125" fill="none" xmlns="http://www.w3.org/2000/svg">
<path fill-rule="evenodd" clip-rule="evenodd" d="M5.74487 0H48.3817V122.833H5.74487V0ZM13.2693 95.6772H21.6293V113.224H13.2693V95.6772ZM13.2693 73.4292C16.0557 73.4292 18.8421 73.4292 21.6293 73.4292C21.6293 79.2773 21.6293 85.127 21.6293 90.9759C18.8421 90.9759 16.0557 90.9759 13.2693 90.9759C13.2693 85.127 13.2693 79.2773 13.2693 73.4292ZM13.2693 51.1813C16.0557 51.1813 18.8421 51.1813 21.6293 51.1813C21.6293 57.0295 21.6293 62.8784 21.6293 68.7288C18.8421 68.7288 16.0557 68.7288 13.2693 68.7288C13.2693 62.8784 13.2693 57.0295 13.2693 51.1813ZM13.2693 28.9334C16.0557 28.9334 18.8421 28.9334 21.6293 28.9334C21.6293 34.7816 21.6293 40.6304 21.6293 46.4808C18.8421 46.4808 16.0557 46.4808 13.2693 46.4808C13.2693 40.6304 13.2693 34.7816 13.2693 28.9334ZM13.2693 6.68549H21.6293V24.2329H13.2693V6.68549ZM31.2437 95.6772H39.6036V113.224H31.2437V95.6772ZM31.2437 73.4292C34.0301 73.4292 36.8165 73.4292 39.6036 73.4292C39.6036 79.2773 39.6036 85.127 39.6036 90.9759C36.8165 90.9759 34.0301 90.9759 31.2437 90.9759C31.2437 85.127 31.2437 79.2773 31.2437 73.4292ZM31.2437 51.1813C34.0301 51.1813 36.8165 51.1813 39.6036 51.1813C39.6036 57.0295 39.6036 62.8784 39.6036 68.7288C36.8165 68.7288 34.0301 68.7288 31.2437 68.7288C31.2437 62.8784 31.2437 57.0295 31.2437 51.1813ZM31.2437 28.9334C34.0301 28.9334 36.8165 28.9334 39.6036 28.9334C39.6036 34.7816 39.6036 40.6304 39.6036 46.4808C36.8165 46.4808 34.0301 46.4808 31.2437 46.4808C31.2437 40.6304 31.2437 34.7816 31.2437 28.9334ZM31.2437 6.68549H39.6036V24.2329H31.2437V6.68549Z" fill="white"/>
<path fill-rule="evenodd" clip-rule="evenodd" d="M54.3545 34.5772L82.2552 8.22754V122.111H54.3545V34.5772ZM59.0903 40.7745H76.9153V50.8445H59.0903V40.7745ZM59.0903 56.364C65.0315 56.364 70.9734 56.364 76.9153 56.364C76.9153 59.72 76.9153 63.0766 76.9153 66.4347C70.9734 66.4347 65.0315 66.4347 59.0903 66.4347C59.0903 63.0766 59.0903 59.72 59.0903 56.364ZM59.0903 71.9536C65.0315 71.9536 70.9734 71.9536 76.9153 71.9536C76.9153 75.3095 76.9153 78.6661 76.9153 82.0243C70.9734 82.0243 65.0315 82.0243 59.0903 82.0243C59.0903 78.6661 59.0903 75.3095 59.0903 71.9536ZM59.0903 87.5429C65.0315 87.5429 70.9734 87.5429 76.9153 87.5429C76.9153 90.8996 76.9153 94.2556 76.9153 97.6138C70.9734 97.6138 65.0315 97.6138 59.0903 97.6138C59.0903 94.2556 59.0903 90.8996 59.0903 87.5429ZM59.0903 103.132H76.9153V113.203H59.0903V103.132Z" fill="white"/>
<path fill-rule="evenodd" clip-rule="evenodd" d="M0.102539 119.787H152.782V124.435H0.102539V119.787Z" fill="white"/>
<path fill-rule="evenodd" clip-rule="evenodd" d="M124.52 34.7947C84.094 37.8623 91.6221 67.0606 132.115 65.3274C140.35 64.9739 163.899 59.3914 158.459 46.8957C154.001 36.6574 134.14 34.065 124.52 34.7947ZM117.067 58.8307V41.3221H129.143C131.572 41.3221 133.417 41.4809 134.68 41.7942C135.942 42.1082 136.95 42.663 137.705 43.4571C138.459 44.2528 138.834 45.1333 138.834 46.095C138.834 47.3379 138.206 48.3845 136.957 49.2372C135.707 50.0885 133.779 50.6272 131.166 50.8585C132.124 51.152 132.847 51.4462 133.342 51.731C134.394 52.3502 135.39 53.1289 136.323 54.0629L141.034 58.8307H136.531L132.93 55.1872C131.883 54.1325 131.014 53.3289 130.335 52.7704C129.651 52.2127 129.041 51.8247 128.503 51.6014C127.97 51.3804 127.418 51.226 126.86 51.1367C126.454 51.084 125.788 51.0553 124.856 51.0553H120.683V58.8307H117.067ZM120.683 49.0491H128.42C130.069 49.0491 131.35 48.94 132.277 48.7197C133.201 48.5031 133.906 48.1533 134.381 47.6673C134.864 47.1871 135.105 46.666 135.105 46.0988C135.105 45.2717 134.641 44.5858 133.709 44.053C132.777 43.5187 131.306 43.2537 129.295 43.2537H120.683V49.0491Z" fill="white"/>
<path fill-rule="evenodd" clip-rule="evenodd" d="M97.6541 92.2774C99.167 110.332 155.741 111.532 158.998 92.5525C160.103 86.1166 157.208 90.189 154.913 91.83C141.852 101.16 114.773 101.134 101.83 91.8704C98.9612 89.8158 97.129 86.0112 97.6541 92.2774Z" fill="white"/>
<path fill-rule="evenodd" clip-rule="evenodd" d="M158.709 78.4307C156.81 79.5249 154.942 81.7259 152.307 83.2C149.869 84.5636 147 85.6585 144.314 86.4212C132.522 89.7691 117.292 89.3548 106.106 84.0842C103.499 82.8567 101.53 81.4997 99.3876 79.5938C97.6081 78.0098 97.6074 77.9045 97.6264 80.9222C97.6374 82.6138 97.9399 83.8046 98.826 85.2575C109.925 103.467 164.478 97.2707 158.709 78.4307Z" fill="white"/>
<path fill-rule="evenodd" clip-rule="evenodd" d="M158.748 98.9717C157.859 99.3625 154.218 102.667 152.271 103.742C143.698 108.468 133.719 109.293 124.151 108.955C116.269 108.676 105.344 105.8 99.413 100.143C97.6664 98.4776 97.6562 98.4082 97.6239 101.329C97.6049 103.081 97.8898 104.207 98.7744 105.716C109.287 123.631 164.044 118.305 158.748 98.9717Z" fill="white"/>
<path fill-rule="evenodd" clip-rule="evenodd" d="M158.733 57.8975C155.476 59.5882 154.548 62.9112 144.364 65.8939C132.861 69.2622 117.178 68.807 106.247 63.619C104.111 62.6053 101.151 60.8493 99.4997 59.1666C96.0279 55.627 97.8799 63.1045 98.7484 64.5881C109.477 82.9055 164.492 76.8487 158.733 57.8975Z" fill="white"/>
<path fill-rule="evenodd" clip-rule="evenodd" d="M158.757 68.1516C156.133 69.4369 155.299 72.527 145.929 75.6561C135.4 79.1708 121.171 79.1095 110.632 75.6328C103.524 73.2869 103.375 71.8573 97.9911 68.0557C92.8884 81.3396 119.983 85.9961 128.268 85.9888C137.625 85.9822 161.933 82.1462 158.757 68.1516Z" fill="white"/>
</svg>
