<svg width="194" height="146" viewBox="0 0 194 146" fill="none" xmlns="http://www.w3.org/2000/svg">
<path fill-rule="evenodd" clip-rule="evenodd" d="M38.6025 73.042H95.7776V105.34H66.1144V82.9083H50.9187V105.34H38.6025V73.042ZM79.8629 81.4613C85.0589 81.4613 89.27 84.3762 89.27 87.9733C89.27 91.5697 85.0589 94.4854 79.8629 94.4854C74.6676 94.4854 70.4565 91.5697 70.4565 87.9733C70.4565 84.3762 74.6676 81.4613 79.8629 81.4613Z" fill="white"/>
<path fill-rule="evenodd" clip-rule="evenodd" d="M67.025 35.7266L32.1694 71.0791H102.211L67.025 35.7266Z" fill="white"/>
<path fill-rule="evenodd" clip-rule="evenodd" d="M145.85 79.9784C138.605 80.5427 136.409 82.7327 135.189 84.1517C134.159 85.801 132.979 88.0472 131.369 89.1989C128.745 92.1472 113.548 105.675 109.76 105.244C111.78 103.496 113.134 101.849 114.781 99.694C115.911 97.7536 120.176 90.2654 120.171 89.3033C120.132 89.0049 120.928 87.5125 121.188 86.7675C122.928 83.8895 124.2 75.1808 124.08 72.7457L123.608 67.3194C122.999 66.1151 123.493 65.8597 122.796 64.7991C122.754 63.5823 120.525 59.6357 119.612 58.9425L119.26 58.6573C118.293 57.7782 116.888 56.8236 116.253 56.1563C115.235 55.626 112.5 54.6677 112.559 54.2285C111.946 54.384 112.254 54.7921 112.558 55.218C114.701 57.1317 116.605 60.0615 116.811 62.9269C117.303 63.426 117.588 65.042 116.986 65.4323C117.296 67.3697 115.796 71.4949 114.526 72.6606L112.332 75.0978C112.065 75.5962 112.615 75.2298 111.691 75.7904C108.487 79.6408 104.618 81.347 100.765 88.5634C100.081 89.4781 97.909 93.798 98.3667 100.51C95.3021 105.379 98.8747 109.561 89.1736 115.116L93.5217 119.921C101.871 109.028 105.186 114.61 111.018 111.954L111.44 111.922C118.157 111.442 123.473 108.514 128.286 103.881C131.09 100.529 134.71 94.5734 137.528 91.8947C143.824 85.9084 156.205 89.6196 156.709 97.8069C157.984 93.0782 156.41 78.9912 145.85 79.9784Z" fill="white"/>
<path fill-rule="evenodd" clip-rule="evenodd" d="M134.483 69.8878L131.591 67.3868L131.244 67.0898L130.18 67.2358C129.701 67.8327 129.453 67.9526 128.907 68.5614C128.283 69.256 128.321 69.399 127.805 70.047L127.876 70.795C128.862 71.6341 130.319 72.7592 131.179 73.8841L131.264 73.9093L131.837 74.1018L132.179 74.0285L132.622 73.727C133.469 73.1886 134.209 72.3511 134.593 71.4416C134.52 70.9343 134.387 71.0425 134.844 71.0069L134.811 70.2678L134.483 69.8878Z" fill="white"/>
<path fill-rule="evenodd" clip-rule="evenodd" d="M136.696 79.3192L133.52 76.5419L133.031 76.2539L132.345 76.3413L131.904 76.6471L129.641 79.1689L129.655 79.4874L129.788 80.5249L129.769 80.7656C130.221 80.7308 130.112 80.6197 130.129 81.0581L130.453 81.3396L130.789 81.6107L131.117 81.8913L131.439 82.1823L131.765 82.4608L132.101 82.7334L132.429 83.0141L132.759 83.2918C134.03 83.5288 133.295 83.4214 133.692 83.7413L134.555 83.7769L134.936 83.471L135.216 83.157L135.5 82.8319L135.79 82.512L136.079 82.192L136.359 81.8647L136.643 81.5381L136.847 81.1573C136.721 80.6671 136.616 80.7893 137.104 80.7507L137.05 79.6103L136.696 79.3192Z" fill="white"/>
<path fill-rule="evenodd" clip-rule="evenodd" d="M127.739 81.5871C126.791 82.0441 125.833 83.163 125.47 84.1525C125.57 84.6509 125.683 84.5295 125.196 84.568L125.261 85.3671L125.601 85.7463L128.878 88.4665C129.313 88.4383 129.194 88.3369 129.228 88.7746C131.186 88.4968 132.683 85.4878 132.819 85.4774C132.644 83.3682 129.598 81.3657 127.739 81.5871Z" fill="white"/>
<path fill-rule="evenodd" clip-rule="evenodd" d="M127.578 71.4959L127.223 71.1826L126.231 71.353L124.566 72.9185C124.684 74.2331 124.428 74.9886 124.515 76.2787L127.208 78.5538L127.428 78.5056L128.473 78.4754L130.983 75.9077C131.562 74.5465 128.713 72.966 127.578 71.4959Z" fill="white"/>
<path fill-rule="evenodd" clip-rule="evenodd" d="M140.298 74.4683L140.025 74.1336L139.697 73.8537L139.37 73.573L139.042 73.2923L138.714 73.0124L138.386 72.7317L138.058 72.4502L137.713 72.194C137.279 72.2525 137.397 72.3466 137.363 71.9082L137.092 71.9666L136.074 72.0244L135.925 72.034L133.875 74.3358L133.904 74.638L133.967 75.5852L134.01 75.8904C134.629 76.7621 136.466 78.3439 137.481 78.6757L138.293 78.6121C139.207 78.1774 140.011 77.1931 140.474 76.3274C140.422 75.8756 140.316 75.9881 140.754 75.9547L140.626 74.8143C140.145 74.8514 140.263 74.9579 140.298 74.4683Z" fill="white"/>
<path fill-rule="evenodd" clip-rule="evenodd" d="M124.796 86.6698C124.34 86.7246 124.447 86.838 124.413 86.4092L123.525 86.487C123.559 86.921 123.654 86.804 123.207 86.8122C122.379 87.3632 121.604 88.2407 121.316 89.1738L121.34 90.4041L121.362 90.5847C121.819 90.5492 121.71 90.4366 121.73 90.8743L122.05 91.1616L122.378 91.4424L122.707 91.7223L123.034 92.0038L123.368 92.2763L123.703 92.5495L124.031 92.8287C125.231 93.082 124.575 92.9843 124.948 93.2953L125.78 93.3086L126.141 92.9998L126.442 92.6822L126.72 92.3622L127.003 92.0266L127.291 91.7097L127.569 91.3802L127.775 91.0277C127.637 90.4796 127.529 90.6263 128.092 90.5833L128.115 90.5173L127.982 89.5916C127.469 88.5822 125.801 87.1675 124.796 86.6698Z" fill="white"/>
<path fill-rule="evenodd" clip-rule="evenodd" d="M132.254 65.2542L132.324 66.2577L132.336 66.5072L132.685 66.7842L133.013 67.065L133.341 67.3449L133.669 67.6264L133.997 67.907L134.324 68.1862L134.652 68.4676L134.98 68.7475L135.654 68.9986L135.916 69.2986L136.519 69.246L136.862 68.9327L137.117 68.6129C137.07 68.1833 136.969 68.2922 137.387 68.2625L137.678 67.9388L137.954 67.6167L138.229 67.2789L138.484 66.9442C138.406 66.4873 138.305 66.6102 138.751 66.5487L138.725 65.6008C137.917 64.478 136.126 62.7984 134.8 62.6191C133.727 63.0028 132.65 64.2314 132.254 65.2542Z" fill="white"/>
<path fill-rule="evenodd" clip-rule="evenodd" d="M125.96 62.0858L125.496 61.8525L124.719 61.9014L124.322 62.2199L123.487 63.1382L123.571 63.8995L123.584 64.7757L124.04 66.0369L124.155 67.4537L124.489 67.7329L124.827 68.0061L125.161 68.2757L125.961 68.7542L127.032 68.7704L127.343 68.4454C128.156 67.8211 128.885 67.0197 129.197 66.0399L129.153 64.9563C128.656 63.9499 126.996 62.5812 125.96 62.0858Z" fill="white"/>
<path fill-rule="evenodd" clip-rule="evenodd" d="M139.785 67.4771C139.401 68.0977 139.172 68.2858 138.704 68.8176C138.039 69.573 138.16 69.4085 137.9 70.1787L137.944 70.986C138.372 71.8947 140.165 73.4012 141.13 73.7848C141.635 73.6834 141.518 73.564 141.556 74.0469L142.058 74.0121L142.42 73.6914C142.359 73.2781 142.269 73.387 142.686 73.3626L142.985 73.0493L143.276 72.7323L143.544 72.3962C143.5 71.9763 143.406 72.0873 143.826 72.0651L144.105 71.7392L144.393 71.4007L144.396 71.3304L144.299 70.3862C143.791 69.6456 143.141 69.2205 142.466 68.6265C141.301 67.603 141.373 67.2816 139.785 67.4771Z" fill="white"/>
<path fill-rule="evenodd" clip-rule="evenodd" d="M128.926 57.8936C128.96 58.3238 129.052 58.2016 128.601 58.2164C127.812 58.8148 127.049 59.6398 126.712 60.5493L126.757 61.4758L126.738 61.7594L127.099 62.0424L127.433 62.3016L127.74 62.5919L128.083 62.8844L128.417 63.1429L128.724 63.434L129.066 63.7258L129.401 63.985L130.147 64.4856L130.983 64.4834L131.277 64.1286L133.145 61.7602L133.142 60.9159C132.46 59.7584 130.339 57.9506 128.926 57.8936Z" fill="white"/>
<path fill-rule="evenodd" clip-rule="evenodd" d="M149.513 74.6613L149.185 74.3798L148.858 74.0992L148.53 73.8199L148.198 73.5414L147.868 73.2644L147.545 72.9823L147.214 72.6994L146.872 72.4283L146.55 72.1484L146.271 72.1587L145.546 72.2017L145.344 72.2157L143.203 75.0418L143.144 75.4463L143.446 75.8477L146.559 78.6197L147.896 78.4035L148.242 78.1198L148.54 77.8058L148.83 77.4837L149.113 77.1578L149.396 76.8327L149.667 76.4935L149.945 76.1579L149.926 75.9165L149.863 75.2455L149.846 74.9404L149.513 74.6613Z" fill="white"/>
<path fill-rule="evenodd" clip-rule="evenodd" d="M137.116 56.6238L136.803 56.3297L136.475 56.049L136.147 55.7676L135.816 55.4921L135.494 55.2011L135.172 54.9189L134.835 54.6464L134.505 54.3694L134.175 54.082L134.001 54.102L133.132 54.1872L132.911 54.1961L130.923 56.5061L130.951 56.703L131.01 57.5947L131.035 57.7139L134.375 60.5371L134.53 60.5415L135.209 60.4653C136.173 59.9395 137.061 58.8944 137.499 57.8813L137.407 56.9903L137.116 56.6238Z" fill="white"/>
<path fill-rule="evenodd" clip-rule="evenodd" d="M147.575 65.6286L147.313 65.2842L146.988 65.0014L146.66 64.7207L146.332 64.4407L146.011 64.1504L145.684 63.8712L145.346 63.6023L145.018 63.3209L144.638 63.1158C144.139 63.2417 144.258 63.3535 144.22 62.8662L143.542 62.9691L141.224 65.6383L141.279 66.2071C141.819 66.1656 141.657 66.0633 141.609 66.6558L141.866 67.0047L142.194 67.2862L142.522 67.5668L142.849 67.8467L143.177 68.1282L143.51 68.4007L143.839 68.6829L144.166 68.9613C145.305 69.1991 144.711 69.1183 145.058 69.419L145.524 69.3613C145.489 68.9132 145.41 69.0702 145.933 69.0546L146.268 68.765L146.563 68.446L146.844 68.1185L147.125 67.7911L147.405 67.4631L147.656 67.0987C147.591 66.6173 147.466 66.7218 147.904 66.6885L147.889 65.9871C147.41 66.0234 147.532 66.1256 147.575 65.6286Z" fill="white"/>
<path fill-rule="evenodd" clip-rule="evenodd" d="M152.836 70.1081L152.516 69.8304L152.179 69.5541L151.852 69.2667L151.533 68.9882L151.195 68.7135L150.867 68.4328L150.543 68.1417L150.218 67.8685L149.859 67.6656C149.301 67.8152 149.45 67.9233 149.406 67.3486L148.681 67.3909L146.414 70.0452L146.505 70.8027L149.787 73.7407L149.897 73.7674L150.898 73.5785C151.772 73.103 152.495 72.2485 152.928 71.3531C152.87 70.9021 152.763 71.0123 153.195 70.9797L153.144 70.4769L152.836 70.1081Z" fill="white"/>
<path fill-rule="evenodd" clip-rule="evenodd" d="M142.259 61.2033L141.981 60.8975C141.559 60.9478 141.667 61.0419 141.653 60.6168C141.23 60.6671 141.34 60.7605 141.324 60.3354C140.897 60.3879 141.01 60.479 141.002 60.0406L140.681 59.7717C140.241 59.8369 140.348 59.9361 140.336 59.5007C139.909 59.5547 140.02 59.6481 140.009 59.2156C139.592 59.2637 139.701 59.357 139.684 58.9371C139.239 58.9956 139.355 59.0845 139.383 58.6201L139.075 58.6601L138.497 58.6949L138.156 58.7356L136.239 61.0063L136.268 61.3862L136.317 61.8499L136.304 62.2194L136.625 62.5112L136.952 62.7897L137.287 63.0652L137.61 63.3526L137.931 63.6391L138.264 63.9124L138.593 64.1946L138.92 64.4731C139.903 64.7849 139.343 64.5938 139.659 64.9952L140.363 64.9478C140.319 64.3828 140.196 64.519 140.773 64.5804L141.112 64.3427L141.385 64.0235L141.645 63.6791C141.603 63.2503 141.508 63.3658 141.941 63.3429L142.225 63.0356L142.425 62.6727C142.304 62.1439 142.194 62.2824 142.726 62.2409L142.662 61.5722C142.095 61.6159 142.213 61.7551 142.259 61.2033Z" fill="white"/>
<path fill-rule="evenodd" clip-rule="evenodd" d="M154.887 65.0601L154.559 64.781L154.231 64.4995L153.904 64.2188L153.575 63.9389L153.247 63.6574L152.91 63.3849L152.577 63.0931L152.439 63.085L151.498 63.1531L151.374 63.1768L149.662 65.149L149.667 65.2571L149.747 66.2658L149.77 66.3769L150.106 66.6628L150.429 66.9532L150.757 67.233L151.082 67.5167L151.419 67.7915L151.745 68.0655L152.068 68.3558L152.941 68.5091L153.607 68.4691C154.432 68.1128 154.994 67.4508 155.29 66.591L155.188 65.8837L155.175 65.4097L154.887 65.0601Z" fill="white"/>
<path fill-rule="evenodd" clip-rule="evenodd" d="M140.871 53.2542C140.432 53.289 140.544 53.3875 140.554 52.9394C140.111 53.0194 140.223 53.1142 140.205 52.6691C139.77 52.7587 139.877 52.8498 139.871 52.4099C139.44 52.4721 139.549 52.5647 139.543 52.1292C139.112 52.1914 139.221 52.2847 139.215 51.8493C138.784 51.91 138.893 52.0033 138.887 51.5686L138.501 51.3153L138.068 51.1309L137.542 51.1931L135.377 53.5785L135.419 54.2251C135.861 54.1903 135.716 54.1125 135.697 54.6146L135.991 54.9538C136.408 54.9087 136.299 54.8154 136.319 55.2338C136.736 55.1886 136.627 55.0953 136.647 55.5145C137.064 55.4701 136.955 55.376 136.975 55.7959C137.392 55.7507 137.282 55.6567 137.302 56.0751C137.72 56.0299 137.61 55.9367 137.63 56.3566L138.335 56.8712C140.072 56.7416 141.251 55.2952 141.164 53.5637C140.736 53.5978 140.843 53.6918 140.871 53.2542Z" fill="white"/>
<path fill-rule="evenodd" clip-rule="evenodd" d="M120.575 91.2812L120.214 91.3479C120.284 91.7242 118.674 94.7976 118.344 95.1442L118.371 95.393L120.735 97.6918H121.326L121.616 97.3475L122.16 97.0171C122.124 96.5624 122.014 96.6786 122.453 96.6364L123.871 95.0635L123.775 94.097L120.575 91.2812Z" fill="white"/>
<path fill-rule="evenodd" clip-rule="evenodd" d="M147.7 59.1963L146.761 59.2644L145.081 61.1707C145.163 61.6566 145.281 61.544 144.822 61.5795L144.876 62.1335L145.238 62.4394L147.881 64.6263L148.939 64.6567L148.997 64.6145C148.962 64.1583 148.847 64.2664 149.278 64.2368L149.558 63.9094L149.85 63.5895L150.137 63.2688L150.389 62.92C150.316 62.4667 150.225 62.5957 150.692 62.5594C150.643 61.0508 148.969 59.7621 147.7 59.1963Z" fill="white"/>
<path fill-rule="evenodd" clip-rule="evenodd" d="M145.404 57.2269L145.074 56.9492L144.748 56.6663L144.418 56.3886L144.093 56.1056L143.768 55.8146L143.444 55.5421C143.023 55.5806 143.127 55.6753 143.14 55.251L142.86 55.2628L142.172 55.3295L141.883 55.3865L140.247 57.3469L140.27 58.3319L143.203 60.7714L144.042 60.6381L145.792 58.7392L145.789 58.4037L145.754 57.7831L145.74 57.4757C145.326 57.5528 145.433 57.6424 145.404 57.2269Z" fill="white"/>
<path fill-rule="evenodd" clip-rule="evenodd" d="M152.817 57.1903L152.495 56.9044L152.168 56.6245L151.839 56.3438L151.511 56.0624L151.177 55.7928L150.746 55.655L149.796 55.6543L149.604 55.6662L148.158 57.3614L148.161 57.5258L148.228 58.31L148.239 58.5397L150.555 60.5185L150.668 60.523L151.66 60.4467L151.788 60.4341C151.755 60.0105 151.658 60.1186 152.086 60.1149L152.372 59.7809C152.309 59.3551 152.217 59.4625 152.647 59.4595L152.948 59.1432L153.236 58.8055L153.215 58.6633L153.073 57.568L152.817 57.1903Z" fill="white"/>
<path fill-rule="evenodd" clip-rule="evenodd" d="M148.806 53.9013L148.543 53.5584L148.222 53.268L147.898 52.9866L147.561 52.7148L147.24 52.4245L146.885 52.1875C146.425 52.286 146.537 52.3897 146.502 51.9424L145.626 52.0112L143.943 54.0168L144.027 54.8344C144.453 54.8018 144.343 54.7055 144.336 55.144L144.638 55.4676L144.963 55.7513L145.289 56.0349L145.619 56.3126L145.949 56.5904L146.759 56.7778L147.04 57.0843L147.051 57.0725C147.016 56.6133 146.919 56.7474 147.402 56.7229L147.773 56.743L148.124 56.4363C148.073 56.0142 147.98 56.1238 148.404 56.1075C148.354 55.6861 148.261 55.7957 148.685 55.7794L148.944 55.4069L149.144 54.9855L149.113 54.3145C148.618 54.3523 148.767 54.4449 148.806 53.9013Z" fill="white"/>
<path fill-rule="evenodd" clip-rule="evenodd" d="M156.941 60.9548L156.685 60.6355L156.359 60.3519L156.029 60.0742L155.701 59.795L155.374 59.5143L155.011 59.3388C154.401 59.5276 154.562 59.6439 154.513 59.0137L153.849 59.0396L152.182 61.097L152.266 61.6991L152.552 62.1301L152.848 62.4648L153.176 62.7448L153.496 63.0329L153.827 63.3158L154.16 63.5869L154.969 64.0601L155.577 64.0379C155.539 63.541 155.44 63.6838 155.974 63.7098L156.315 63.4417L156.607 63.124L156.887 62.7967L157.127 62.4397C157.045 61.9879 156.948 62.1064 157.399 62.0716L157.329 61.3487C156.756 61.3924 156.884 61.525 156.941 60.9548Z" fill="white"/>
<path fill-rule="evenodd" clip-rule="evenodd" d="M144.482 50.3156L144.192 50.0171C143.764 50.0741 143.873 50.1682 143.86 49.7386C143.434 49.7927 143.545 49.886 143.534 49.4542C143.109 49.5038 143.223 49.5942 143.215 49.1572L142.894 48.8877C142.437 48.9551 142.552 49.0484 142.58 48.5781L142.272 48.6181L141.753 48.6692L141.383 48.7077L140.011 50.3459L139.998 51.4472L140.021 51.5442C140.456 51.5109 140.349 51.4087 140.353 51.8419L140.669 52.1426C141.086 52.0967 140.977 52.0034 140.996 52.4218C141.414 52.3766 141.304 52.2833 141.324 52.7032C141.742 52.658 141.633 52.564 141.653 52.9839L142.357 53.4972C143.809 53.4142 144.368 52.7684 144.962 51.4976L144.839 50.6688C144.328 50.7125 144.448 50.8281 144.482 50.3156Z" fill="white"/>
<path fill-rule="evenodd" clip-rule="evenodd" d="M145.626 78.8862C144.932 78.9677 143.388 76.8933 143.011 77.0066C142.484 77.114 142.603 77.2421 142.565 76.7451L141.854 76.8318L141.442 77.1296L139.486 79.5164L139.495 79.6787L139.75 80.5407L139.806 80.6192L140.352 80.3014L140.751 80.2511L141.439 79.8838L144.506 79.6164L145.844 79.5527L145.934 79.1772C145.498 79.2402 145.605 79.3313 145.626 78.8862Z" fill="white"/>
<path fill-rule="evenodd" clip-rule="evenodd" d="M124.695 77.4541L124.25 77.4926C124.404 77.9488 123.519 82.8575 123.239 82.8783L123.261 83.6685C124.618 83.6204 126.26 81.9193 126.691 80.6913L126.639 79.1857C126.265 79.2138 125.132 77.8911 124.695 77.4541Z" fill="white"/>
<path fill-rule="evenodd" clip-rule="evenodd" d="M155.963 55.4688L154.552 57.1166C154.734 58.3608 155.751 59.1755 156.875 59.7117L157.648 59.6709L157.861 59.6806C157.827 59.2414 157.724 59.3502 158.162 59.3443C158.1 58.9133 158.007 59.0222 158.443 59.017C158.381 58.5859 158.287 58.6948 158.723 58.6888C158.661 58.2526 158.569 58.3734 159.014 58.3393L158.974 58.1564L158.88 57.3928C158.249 56.5315 157.355 55.5161 155.963 55.4688Z" fill="white"/>
<path fill-rule="evenodd" clip-rule="evenodd" d="M151.283 50.6877L150.954 50.4085L150.624 50.1308L150.299 49.8464L149.971 49.5664L149.595 49.3184L148.845 49.3361L147.388 51.0284C147.497 52.2341 148.512 52.891 149.561 53.5775L150.563 53.4324L150.919 53.1472C150.881 52.7325 150.789 52.8414 151.214 52.8377L151.514 52.5207L151.721 52.1023L151.67 51.201L151.617 50.9469L151.283 50.6877Z" fill="white"/>
<path fill-rule="evenodd" clip-rule="evenodd" d="M145.193 46.249L143.748 47.871C143.95 49.2522 145.075 49.9646 146.05 50.4542L146.931 50.2919L147.272 50.0283L147.563 49.7069L147.851 49.3877L148.033 48.99V48.1828C147.703 47.6503 147.543 47.4266 146.865 46.8845C146.05 46.2335 146.207 46.2705 145.193 46.249Z" fill="white"/>
<path fill-rule="evenodd" clip-rule="evenodd" d="M154.809 53.8675L154.475 53.5898L154.145 53.3157L153.824 53.0328L153.491 52.7484L153.144 52.4656L152.411 52.4062L150.962 54.0608C151.123 55.2991 152.121 56.0286 153.214 56.6447L154.127 56.6003L154.212 56.5632C154.177 56.1248 154.07 56.2315 154.494 56.2093L154.785 55.8871L155.066 55.5597L155.375 55.2287L155.372 55.0895L155.274 54.3066L155.174 54.0904L154.809 53.8675Z" fill="white"/>
<path fill-rule="evenodd" clip-rule="evenodd" d="M117.023 97.678L116.747 98.0239L116.441 98.3543L116.224 98.9696L115.93 99.3126L115.634 99.6413L115.397 100.235L115.07 100.529C114.855 101.209 114.8 100.851 115.086 101.634C116.114 101.841 115.402 101.831 116.376 101.471L116.419 101.445L116.721 101.061L117.248 100.757C117.213 100.307 117.107 100.42 117.554 100.407L117.869 100.413L118.163 100.07L118.471 99.7532L118.734 99.7354L119.018 99.3681C119.353 98.723 119.129 98.7052 118.417 98.0676C117.763 97.4825 117.447 96.99 117.023 97.678Z" fill="white"/>
<path fill-rule="evenodd" clip-rule="evenodd" d="M153.596 48.6619L153.275 48.359L152.947 48.079L152.598 47.808L152.24 47.5547C150.867 47.6865 150.653 48.1309 150.576 49.4469L152.322 50.883L152.881 50.8437L153.144 50.5127L153.938 49.8224L153.898 48.9863L153.596 48.6619Z" fill="white"/>
<path fill-rule="evenodd" clip-rule="evenodd" d="M159.203 53.3929L158.861 53.1011L158.526 52.8419L158.182 52.5694L157.811 52.3213L157.242 52.3264L157.097 52.6752L156.468 53.4544L156.134 53.621C156.571 54.8408 157.387 55.5873 158.692 55.5555L159.012 55.2681L159.32 54.9274L159.579 54.5934L159.512 53.684L159.203 53.3929Z" fill="white"/>
<path fill-rule="evenodd" clip-rule="evenodd" d="M156.23 50.8824L155.903 50.5973L155.571 50.3195L155.168 50.0781L154.126 50.1011L153.455 50.8395L153.449 50.9194L153.639 51.883L155.394 53.2131L156.689 52.134L156.23 50.8824Z" fill="white"/>
<path fill-rule="evenodd" clip-rule="evenodd" d="M149.408 45.2891L148.701 45.3387L147.859 46.1422L147.95 47.0413L149.501 48.3589L150.227 48.287L151.037 47.2716L151.014 46.6295L149.408 45.2891Z" fill="white"/>
<path fill-rule="evenodd" clip-rule="evenodd" d="M159.065 50.0117L158.469 50.0592C157.578 50.8546 157.887 50.4442 157.767 51.3848C158.903 52.0543 158.415 52.2402 159.816 52.4712L160.583 51.744L160.536 51.1404L159.065 50.0117Z" fill="white"/>
<path fill-rule="evenodd" clip-rule="evenodd" d="M156.924 47.998L156.034 48.1261L155.705 48.4409L155.461 48.8423L155.481 49.437L155.771 49.7592L156.094 50.0406L156.433 50.3102L157.424 50.4464L158.241 49.5259L156.924 47.998Z" fill="white"/>
<path fill-rule="evenodd" clip-rule="evenodd" d="M152.159 44.1074L151.463 44.2519L151.121 44.5207L150.924 44.9036L150.963 45.4375L151.197 45.8108L151.517 46.1004L151.851 46.3707L152.256 46.5447C153.186 46.187 153.344 46.1692 153.409 45.108L152.159 44.1074Z" fill="white"/>
<path fill-rule="evenodd" clip-rule="evenodd" d="M154.411 46.0967C153.533 46.5329 153.562 46.4678 153.253 47.412L153.472 47.7986L153.799 48.0778L154.137 48.3466L154.417 48.6281L155.191 48.534C155.054 48.0956 154.96 48.1993 155.405 48.1793L155.623 47.8379L155.686 47.1543L154.411 46.0967Z" fill="white"/>
<path fill-rule="evenodd" clip-rule="evenodd" d="M158.78 45.9531L157.891 46.082L157.562 46.3952L157.318 46.7974L157.338 47.3921L157.627 47.7142L157.951 47.9957L158.289 48.2645L159.281 48.4008L160.098 47.481L158.78 45.9531Z" fill="white"/>
<path fill-rule="evenodd" clip-rule="evenodd" d="M156.268 44.0498C155.391 44.4853 155.419 44.4201 155.11 45.3651L155.329 45.7517L155.656 46.0302L155.994 46.3005L156.273 46.5812L157.048 46.4871C156.91 46.0487 156.817 46.1531 157.261 46.1324L157.48 45.7909L157.543 45.1074L156.268 44.0498Z" fill="white"/>
<path fill-rule="evenodd" clip-rule="evenodd" d="M159.238 43.3584L158.349 43.4866L158.021 43.7998L157.775 44.2027L157.795 44.7974L158.085 45.1196L158.409 45.401L158.747 45.6706L159.739 45.8061L160.556 44.8855L159.238 43.3584Z" fill="white"/>
<path fill-rule="evenodd" clip-rule="evenodd" d="M20.054 20.9307H66.2689V28.8892H29.1907V115.633H66.2689V123.459H20.054V20.9307Z" fill="white"/>
<path fill-rule="evenodd" clip-rule="evenodd" d="M174.837 20.9307H128.622V28.8892H165.7V115.633H128.622V123.459H174.837V20.9307Z" fill="white"/>
<path fill-rule="evenodd" clip-rule="evenodd" d="M13.8078 129.487H174.244V136.622H13.8078V145.214L0.79248 133.053L13.8078 120.894V129.487Z" fill="white"/>
<path fill-rule="evenodd" clip-rule="evenodd" d="M180.087 8.59321H19.6504V15.7289H180.087V24.3206L193.102 12.16L180.087 0V8.59321Z" fill="white"/>
</svg>
