<svg width="209" height="134" viewBox="0 0 209 134" fill="none" xmlns="http://www.w3.org/2000/svg">
<path fill-rule="evenodd" clip-rule="evenodd" d="M77.6698 1.86133C78.8376 2.06188 79.995 2.29056 81.1406 2.55179L79.9624 2.68499C80.2925 3.15713 79.696 2.96992 80.4109 3.16825C81.3603 3.43467 80.4464 3.27112 80.9496 3.07279L81.2834 3.10907C82.3594 3.43172 81.0192 2.92404 81.5764 3.24522C81.9487 3.45983 81.7052 3.34955 81.7341 3.35991C81.7622 3.36879 81.7415 3.41834 82.0057 3.28439L82.5592 3.03802C82.7664 3.05801 82.9892 3.06386 83.2201 3.06238C83.9128 3.24443 84.5988 3.43833 85.2819 3.64184C83.9542 3.91713 82.7605 4.45369 81.6416 5.29364C82.3246 5.84793 82.8086 5.5571 82.6192 6.58206L81.0037 6.14837L81.7556 7.08824C81.3041 7.59887 81.9413 7.22663 81.1213 7.59073L81.6675 8.08585C80.0017 8.36707 81.2568 7.80535 80.5508 8.83623L79.7471 8.76815C78.6711 8.66825 79.5317 8.61865 79.01 9.01531C79.7471 9.1241 79.1565 8.81183 79.5865 9.43347L79.4074 9.61176L78.3506 9.12704L77.8511 8.85618L78.0057 9.40456L78.4069 9.61696L78.5815 9.59405L79.3075 10.1432L79.6309 10.5827L79.2276 11.0223L78.697 10.8773L77.8814 10.4495L77.4026 10.2793L77.2228 10.804L76.1949 10.9853C76.4768 11.2554 76.0402 11.2599 76.6566 11.2717C77.1384 11.2799 76.8431 11.2636 77.2302 11.1304L77.672 11.0534L78.0427 11.5618C73.9407 12.8917 75.6546 12.1672 72.5968 12.9279C71.4941 13.201 69.6129 15.1362 68.3734 14.4317C68.3667 14.428 68.3171 14.4006 68.3112 14.3962C68.3112 14.3962 66.4907 15.211 66.2753 15.6047L66.0348 16.1338C65.8246 16.4343 65.4894 16.6118 65.1305 16.8486C63.6748 17.8077 63.0865 20.8241 61.77 19.1613C62.1119 18.8897 62.0186 19.5809 61.9513 18.9252L61.7936 18.5463L60.0908 18.8275C59.3781 17.1935 58.14 13.8449 59.6919 12.6371C60.9315 11.6706 60.8456 13.2077 61.7692 11.7875C61.676 11.2014 61.9024 11.5633 61.3651 11.3035L60.3646 10.9779C60.153 10.1609 60.3002 10.8528 60.5777 10.5583L61.1269 10.5761C61.1269 11.0933 61.0262 10.9276 61.6153 10.8447L61.7137 10.8403C62.2547 10.5369 61.861 10.7344 61.3289 9.93444L60.1781 9.97592C61.1483 10.2594 60.1863 10.1091 60.466 9.69617C60.671 9.01607 60.8375 8.18428 60.3868 7.40131C59.2679 5.8265 56.8146 7.04235 55.2354 6.74633C55.3708 6.60868 55.4174 6.35338 55.5566 6.22462C54.2067 6.36819 55.4204 6.30895 54.8913 5.93301L55.1081 5.94855L57.2461 5.85163C56.6777 5.26626 56.8413 5.61923 54.4628 5.48602L55.3923 4.88069C56.7724 5.00649 57.5302 4.55579 58.832 4.50843C59.2353 4.91323 59.1791 4.75709 59.7252 4.37227C59.9162 3.99633 60.0531 3.71657 60.2603 3.44794C61.2904 3.741 61.0203 3.86979 61.4954 3.21855C63.0584 3.81281 61.8417 2.59545 66.1333 2.88185C68.6294 3.0491 73.5396 1.95753 77.6698 1.86133ZM104.482 13.0115C118.727 23.1405 128.75 38.8168 131.406 56.8894C131.283 56.29 131.153 55.5536 130.961 54.5102C130.305 54.7151 131.064 54.5834 130.117 55.2354C129.266 55.0467 128.787 54.7352 128.303 54.0491L128.977 53.2973C127.593 53.2262 126.422 52.2626 125.821 51.1496C124.216 51.1511 122.7 51.3864 121.332 51.2325C120.608 51.1504 119.96 51.1926 119.24 50.9373C118.005 50.4992 118.474 50.6945 117.965 49.543C117.123 49.802 117.388 50.8359 114.639 49.4357C113.378 48.7941 113.025 48.1969 112.582 46.8137C111.614 46.7508 111.464 46.4726 110.789 46.9987C110.747 47.5071 111.225 48.5136 111.691 48.9658C112.878 50.1188 112.517 49.4934 112.797 51.2821L113.379 50.8018C113.56 50.4962 113.016 50.5058 113.742 50.582C114.041 51.8682 113.452 52.6031 115.238 52.1998C116.478 51.9193 116.094 51.5256 117.232 50.639C117.476 50.0655 116.875 50.2068 117.721 50.2179V50.9928C118.513 53.059 119.158 51.8075 120.617 53.6776C120.493 55.0785 120.142 54.2408 120.156 55.917C118.767 55.1584 120.253 55.8474 118.147 57.773L115.294 59.262C114.765 60.2751 115.402 59.9569 114.496 60.261C113.679 60.6688 112.424 61.4392 111.844 61.6723C111.462 61.827 110.591 62.0794 110.202 62.2296C109.413 62.5345 109.623 62.7187 108.728 62.9348C107.83 62.8578 108.194 62.775 107.931 63.2449C107.909 63.5431 107.581 64.1589 108.971 65.0395C110.333 64.4652 109.406 64.5437 111.378 64.3727C113.028 64.2307 112.845 63.874 114.069 63.6882C114.289 65.1846 113.05 68.5236 112.254 69.8927C111.146 71.7998 109.541 72.1758 107.973 73.8949C106.996 74.9672 104.595 79.2424 104.541 80.476C104.47 82.079 104.507 83.992 105.999 84.7653C105.683 89.7014 106.431 88.2421 103.247 90.8293C102.673 91.2977 102.614 91.3976 102.184 91.957C101.499 92.8503 101.751 92.3937 100.906 93.0124C101.012 94.6464 101.293 95.1171 101.145 97.0064L98.8372 98.5775C98.8365 99.8186 99.2161 98.8661 98.7025 100.662C98.2134 102.376 98.3836 101.412 97.2491 102.348C96.102 103.294 96.1864 104.305 94.73 105.339C94.0573 102.92 91.9186 101.151 89.3824 101.151C88.1939 101.151 87.0942 101.542 86.1891 102.203C85.4965 100.664 84.6469 98.6937 84.5026 97.4075C84.3553 96.0872 84.7239 95.9614 83.9217 94.7589C80.2666 89.2877 83.4636 86.6325 83.7004 85.3493C83.6523 84.5337 83.505 84.4286 83.4184 83.8026C83.1061 81.538 84.1296 83.2571 82.2166 79.9188C81.444 78.5719 80.3458 76.8743 79.7064 75.5858C81.1014 72.175 80.0024 74.7895 80.3998 72.8299C80.6418 71.6392 80.7705 70.8459 79.1676 70.7956L76.9453 70.541L76.7803 69.7225C75.9329 67.3514 72.3615 69.2437 70.9665 70.0585C67.993 69.3481 69.3687 69.2511 66.5847 70.6268C65.297 70.1488 64.141 68.9869 63.0302 68.1928C61.0891 66.806 60.6821 64.4904 59.6431 63.3056C59.3604 62.9852 59.6423 63.5105 59.3078 62.9289C58.0283 60.6947 59.5616 60.1752 59.2656 58.1038C59.054 56.626 59.4558 56.6452 59.3034 55.7934C59.0133 54.166 59.1287 55.2295 59.6594 53.8034C60.0834 52.6623 59.7541 52.7482 60.5563 51.5389C63.1279 47.6641 61.7774 49.4135 63.5845 48.4892C65.1749 47.6737 64.5977 45.5401 65.5923 44.4049C66.4426 43.4377 66.3057 44.5795 67.1974 42.8611C67.5563 42.1714 68.0248 41.5417 68.4644 41.0207C68.0892 40.55 68.2283 40.7483 67.9338 40.14L66.3893 40.0498L65.8816 40.305L66.1621 39.8906C66.2554 39.2801 66.2879 39.5132 66.1636 38.9589C65.4361 35.7072 66.3279 39.5998 66.4603 36.1963C66.4907 35.4186 66.3516 34.9346 66.4034 34.2841C67.9885 33.823 67.2181 33.7875 69.1282 34.0361C69.6854 34.1094 71.6762 34.3677 72.0277 34.2937C72.2867 33.5033 72.5612 32.1313 72.2083 31.5437L71.5111 30.4891L71.2788 30.5476L69.9496 29.7861C71.1122 29.0386 70.942 29.7055 72.1838 29.5197L72.4584 28.5761C73.6217 29.143 74.5483 28.5354 74.549 27.3795L72.9831 27.6215C72.4355 27.896 72.3 28.0137 71.6621 27.6259L71.3853 27.6829C70.8769 27.876 70.6867 27.8642 70.2042 28.1195L69.5264 28.3142L69.9045 27.8864C70.9435 27.0043 71.127 27.4934 71.8449 26.8133L70.9909 26.8467L69.98 26.8385C70.4492 25.8616 70.1554 26.9813 70.7918 25.7647L70.5195 25.1956C70.6098 25.22 70.7896 25.294 70.8259 25.2881C71.1855 25.2259 70.9827 25.2792 71.2218 25.1157L71.4253 25.254L71.7798 24.7294L71.2573 24.3541C71.0197 23.9042 71.3409 24.0219 70.7215 24.0278C70.2464 24.0722 70.3271 24.2099 70.3271 23.8043C70.868 23.3063 70.7385 23.3648 70.3744 22.9089L69.9023 23.3884C70.1509 22.493 69.8549 23.1597 70.3552 22.3834L69.9852 22.2643L69.5877 22.2858L69.9852 22.2643L70.0303 22.0172L70.057 21.6205L70.2716 21.3229L70.5513 21.1979C71.039 21.3067 70.8451 21.3334 70.7222 20.762L71.449 20.896L71.6643 20.5104L71.9929 20.594L71.9441 20.6607L71.5548 21.0743L72.7226 21.4554L71.9093 22.7224C72.8639 23.4898 72.34 23.2404 72.9328 23.9635C73.7527 24.9625 73.5581 23.7688 73.7305 25.6256L74.8843 25.5324C74.6186 26.8489 74.4669 26.0851 74.2042 27.0575C75.1396 27.5526 76.5072 27.2981 76.8224 25.7514C77.7889 25.3977 77.3738 25.3318 78.3484 25.1808C79.1928 25.5671 78.1634 25.2541 79.215 24.9292C80.8024 24.4422 78.6829 25.2622 79.7944 24.7805C79.7286 23.5949 79.3489 23.4713 79.3563 22.3745C79.8847 21.8987 79.9928 22.0408 80.6869 21.559C80.778 21.6915 81.4617 21.9275 80.8527 22.9851L80.6144 23.2804C81.401 23.4713 80.9644 23.2175 81.2427 23.7518L80.3717 23.5069L80.6655 24.0278L81.2693 24.6405L82.9115 24.2965C83.2933 24.5681 83.2438 24.6716 83.8403 24.9455C85.6134 23.8709 85.5238 24.0537 87.2748 24.4615L88.1295 23.8147C88.1614 23.7962 88.2383 23.7666 88.2916 23.7399C88.0141 22.6217 87.4953 22.1096 88.7186 21.4946C89.5504 21.6057 89.1463 22.4841 90.1794 22.0912L90.6701 21.3208L89.6785 20.7783L89.5519 20.2099C91.0949 19.6386 91.6462 20.1744 93.1004 19.6068L93.9959 19.7282C93.466 19.1013 94.2319 19.5343 93.2862 19.1457C92.6179 18.8749 92.7067 19.1006 92.5987 19.1376C90.9876 18.9615 89.9338 19.9953 88.5617 19.2937C88.0326 18.9252 88.0385 18.5234 87.7825 17.1654L90.1957 15.2287C89.7991 14.7499 89.4031 14.519 88.7178 14.6744C88.3145 14.7662 88.2687 14.6603 87.9541 15.1495L87.63 16.0539C86.8796 17.2298 85.5712 16.0154 85.3551 18.6255L86.6102 19.518C85.7103 21.2556 84.7868 19.7859 85.2434 22.4834C84.2303 22.8911 83.9298 22.416 83.7048 23.2759L82.6599 23.3011C82.3269 22.8534 82.6525 23.0865 82.3691 23.2989C82.1152 23.8102 82.4342 23.8302 81.6949 24.141L81.4225 23.2478L82.0797 22.7742C82.184 22.8674 82.0508 23.4239 82.4571 22.7868C83.0299 21.8891 82.5355 22.4419 82.4119 22.174C81.7178 21.6145 81.9813 21.6656 81.5528 20.7221L81.1924 20.0664C79.8854 20.449 78.5016 22.3168 77.7164 19.9909L77.5136 17.9054C80.1526 15.8252 80.146 17.3867 82.5311 14.1283C83.044 13.4267 83.5679 13.3445 84.0482 12.6023L83.1283 12.7644L83.1668 12.5135C84.3109 11.7919 83.8684 12.065 85.0702 12.2649C85.478 11.4375 84.6403 12.1575 85.5882 11.5588C86.6894 10.8654 85.9353 11.4471 86.8892 11.3368C88.2797 11.177 87.0276 11.2687 88.0866 10.9253C88.4426 10.8114 89.153 10.7034 89.6577 10.5687L89.4542 11.1252L90.4784 10.8758L91.0149 10.6722L91.3184 11.009L92.364 10.8691L92.76 10.8891C92.6926 10.9335 92.4388 11.0897 92.4166 11.1178C92.0229 11.5996 92.3034 11.0364 92.3108 11.3931C93.318 11.6691 93.335 11.3272 94.334 11.7113C95.4041 12.0968 99.5528 12.2849 99.8392 13.8952C98.8587 14.7921 97.5792 14.3518 96.2419 14.2755L95.8445 13.9551L95.4079 13.9943L94.397 13.591C94.6611 14.6211 94.4954 14.0469 95.0704 14.2622L95.271 14.24L96.0095 14.8802C96.2744 15.9799 97.1151 16.1812 98.0801 15.9925C98.1127 15.9865 98.1889 15.9591 98.2378 15.9325C97.6087 15.726 97.437 16.1145 97.2187 15.1436L98.5131 15.4085C99.0518 15.8303 98.5368 15.6646 99.4751 15.6801L99.2731 14.7499C101.001 14.1127 99.5284 13.9418 101.599 14.2874C101.541 13.4563 101.909 13.7908 101.227 13.4474C101.634 13.4474 101.483 13.5274 101.476 13.0271L100.947 12.2752L101.216 12.2345C101.544 12.532 100.97 12.4491 102.112 12.5705L102.304 12.5579L102.673 12.66C102.62 12.7185 102.531 12.7155 102.504 12.8184C102.343 13.4659 102.462 12.8199 102.213 13.1033C101.902 13.4571 102.137 13.0211 101.963 13.4563C102.643 13.7642 102.679 13.5954 103.182 13.0678L103.377 13.0996C103.924 12.9613 103.624 13.0049 104.36 13.3149L104.482 13.0115ZM2.38818 52.6297C5.94113 36.1445 15.686 21.9631 29.0719 12.643C29.6965 12.9212 30.5727 13.2572 32.5982 12.993C33.302 12.0103 33.8799 10.7552 35.5273 11.7505C34.9345 13.0959 34.6866 11.7335 34.1153 13.2809C35.6576 13.3482 36.2488 11.9666 36.5397 10.6331C39.1565 9.52449 39.3193 7.61664 41.791 8.31524C40.772 9.18701 39.6841 9.05454 38.5778 10.0388C38.3927 11.4471 39.0381 10.4769 38.0982 11.6691L38.4482 11.8356C38.9137 11.994 38.7924 11.8904 39.1328 12.0924L38.7221 13.0063L38.9433 13.0493L39.226 13.0796L39.6923 12.9975C40.1407 13.7449 39.4332 13.0863 41.5786 12.4824L41.4861 11.5403L41.9768 11.4205L41.3566 11.0275L40.9644 11.0312L40.1015 10.5598L40.9748 10.5568C40.1881 10.0721 40.4715 10.5613 40.2273 9.93892C41.3241 8.76077 42.5052 8.56756 44.057 8.31965V8.6682C43.1179 8.80511 43.2696 8.71853 42.8604 9.39271C42.8197 9.42971 42.7427 9.43415 42.7324 9.50075L42.5666 9.67398C42.5621 9.67916 42.5377 9.71391 42.5289 9.73686C42.7901 10.7574 42.1751 10.4776 43.169 10.209L42.9374 9.50747C43.889 9.42829 43.1623 9.53997 43.6663 9.09373C44.4189 9.01972 44.6794 9.03158 45.2611 8.62751L46.1484 8.41215L45.8583 9.65989C48.4062 9.70651 46.6642 9.3365 48.017 9.27729C47.1437 9.09228 47.3236 9.27805 46.6198 8.88805C47.0409 8.52913 47.1038 8.60234 47.6884 8.57866L48.8325 8.7008C48.9694 9.46156 48.8747 8.8155 48.5854 9.07082C48.1502 9.02123 48.3293 8.9635 48.3293 9.52446C49.3069 9.60364 48.8214 9.74646 49.6495 10.3637L50.8329 10.1039L50.7078 10.9195C51.7135 10.9091 51.6092 11.0593 52.3403 11.3398L51.6144 11.7061L52.2567 11.9407C51.234 11.9992 51.6765 11.8326 51.1666 12.2974L52.7037 13.0463L54.0439 13.7553C54.3 13.9721 54.499 13.3808 54.1852 14.1053L52.9812 14.6922C51.9118 15.2909 53.426 14.5005 52.66 14.8683L52.3248 15.0193C51.9185 15.1665 52.5179 15.1532 51.4952 15.2109C51.1599 14.2814 51.6491 14.7425 50.6138 13.9995C50.3652 14.24 50.4984 14.0269 50.2653 14.4058C50.2645 14.4058 50.0529 14.8498 50.0358 14.8875C50.4554 15.6327 50.4932 15.8097 50.8728 16.6178C50.8447 16.6296 50.7885 16.5904 50.7818 16.6207L50.249 16.9338L49.3069 16.7828L48.2035 16.432L48.8229 17.1587C49.2277 18.2451 49.0005 17.4045 48.6853 17.7404C46.4999 17.4888 48.4114 16.7287 46.4703 17.0277L46.3238 16.5134C46.0041 15.658 46.6775 16.4809 45.8879 16.2093L45.6644 15.9614C44.5255 15.0363 44.3716 16.6614 42.8508 15.7038C43.1394 15.0319 43.6493 14.9031 44.1229 14.9741C45.2618 15.1451 44.5366 15.4034 45.9656 14.9157C46.3327 14.1542 45.711 15.5824 46.0744 14.5812L46.1787 14.3118C46.1884 14.2859 46.2157 14.2119 46.2394 14.1645C49.1307 13.4482 47.7928 12.5898 45.7591 10.7685C45.7155 10.8129 45.6533 10.8247 45.6289 10.9039C45.6022 10.986 45.5201 11.0067 45.4846 11.0297C45.2174 11.2051 45.5171 11.0667 44.9303 11.3383C43.8875 10.7803 44.2946 11.2547 43.9897 11.2828C43.1349 11.362 44.0962 10.707 43.1371 11.4515L43.5538 12.549C43.9638 12.8961 43.875 12.6045 43.5442 13.0049C43.4487 13.1203 43.2052 13.2373 42.9514 13.4585C41.3403 14.5183 41.085 13.3268 39.7522 14.2888C40.1903 14.7188 40.2251 14.6478 40.6602 14.9423C41.3551 15.4137 41.0961 15.3604 41.5594 15.7749C40.4797 16.2137 41.1938 15.7482 40.4493 16.6296C39.3407 16.6029 39.6922 16.3943 38.3224 16.6518L37.9383 16.2241L38.9233 15.2857C37.9073 14.539 38.5408 15.1118 38.3106 15.1895C36.6152 16.4779 35.941 16.1597 35.0211 16.3662C34.1427 16.5638 34.5726 16.6762 33.7356 17.0936C32.9408 17.4881 28.9698 18.7913 29.3746 20.8827L29.5026 22.009L30.253 22.2584C31.3453 22.3317 31.4327 22.5115 32.5967 23.0088C34.4394 23.7962 32.5198 23.4595 35.3948 23.7385L34.5719 25.778C34.2811 26.3819 34.4838 25.5989 34.159 26.3767C35.2631 27.2677 34.0642 27.0613 35.3009 27.6984L35.7649 27.1293C36.0091 26.8577 35.958 26.965 36.2511 26.6105L37.1547 24.1455C42.3335 22.1363 39.858 21.7004 40.2258 20.6347C40.8919 19.8369 41.3033 20.0671 41.6667 19.3019C42.4104 17.736 41.9908 17.2039 45.9604 17.4429L46.4192 18.473L47.5833 18.809C47.63 18.8238 47.7143 18.8497 47.775 18.8808C46.6294 19.8717 47.328 19.0828 46.7871 20.3446L47.4819 20.9907C49.7546 20.6651 49.3839 19.8074 50.7618 19.2035C51.0127 20.2817 51.0749 20.3535 51.365 21.2534C51.7187 22.3494 50.875 21.9949 51.2384 23.3507C51.94 24.0463 51.903 23.31 52.8325 24.141L53.9543 25.4835C53.2935 26.2739 53.7116 26.1036 52.6963 26.8792C51.9562 27.1782 51.2036 27.4846 51.0171 28.178C51.8667 29.3051 52.1161 27.6548 52.4247 29.3436C52.5335 29.9327 52.603 31.0212 52.1235 31.2876L51.4693 31.517C51.3339 31.0168 51.359 31.1041 51.564 30.7052L51.2732 30.6216L50.8573 30.8258L50.6375 30.7992C51.0282 30.0977 50.8351 30.5661 50.5798 30.3064L50.34 30.2708L48.5158 30.2183C47.4812 29.8638 49.2277 28.6331 49.594 28.1906C47.8453 27.9027 47.9193 28.235 46.3675 28.4126L45.2655 28.0433C45.7695 28.645 45.3432 28.2254 45.7902 28.514C45.8346 28.5436 45.9012 28.5776 45.9478 28.6094L46.4755 28.9869C45.7406 29.3221 46.0026 29.2244 45.4757 28.9017C45.5778 28.4407 45.657 28.5436 45.1871 28.6435C44.1207 28.1603 42.1137 29.6669 40.9244 30.3167L41.0288 30.4729C42.5385 29.9489 43.724 28.8211 45.4912 29.4997C45.3003 30.629 45.543 29.9444 44.4189 30.5083C44.9917 31.0604 44.7771 30.2397 44.8607 31.6636C45.4039 31.1411 45.2685 31.4216 46.0833 31.6584C46.1136 31.7154 46.1514 31.7479 46.1721 31.8315C46.1928 31.9107 46.252 31.9596 46.2808 31.9818C46.6079 32.246 46.0796 32.0129 46.7493 32.246L46.9151 32.2482L47.7521 31.3417L48.1125 32.2223C48.0777 32.2526 47.9704 32.2009 47.9452 32.2793C47.8372 32.6131 47.8757 32.2948 47.5182 32.4946C47.3828 32.6145 43.1749 34.3033 42.9744 34.2981C42.8737 33.3175 43.388 33.3546 44.2199 32.9683C44.3723 32.8358 44.3908 32.613 44.5854 32.4354L43.556 32.5169C43.2578 32.5657 39.9831 34.0976 39.3452 34.3914C37.8858 35.0626 38.7642 35.5222 38.7132 35.9855C38.6828 36.2652 39.1187 35.9647 38.5459 36.2518C37.9568 36.5471 38.1389 36.1312 36.6077 36.3206L36.5707 36.8964L35.403 36.8505L34.2219 38.4919C33.4744 38.321 33.8482 39.1106 33.6868 37.6853L33.373 39.5857L32.8691 40.3184C32.6789 40.0786 32.4124 40.4346 32.8461 39.881L32.8047 38.5282C31.6791 40.0586 32.7921 41.0865 31.9203 41.5098L32.1305 41.9849L31.8042 42.2262C30.2819 42.6088 27.5415 44.547 26.8451 45.2478C24.679 47.4302 27.5763 49.3721 25.536 51.8386C25.4827 51.8009 25.4131 51.6647 25.3946 51.7054L24.9602 51.0911C23.5741 48.6816 24.6657 48.6246 24.2557 47.8809C23.4905 47.203 20.3505 46.5207 19.2264 46.6643L18.812 47.9267C18.7935 47.9711 18.7624 48.0533 18.7231 48.1095C16.8027 47.8705 16.7502 47.1023 14.4324 47.9267C10.4865 49.3276 12.3218 49.7132 11.117 52.1561C10.8794 52.6394 10.5723 53.6783 10.5582 54.2238C10.5072 56.1878 11.3945 56.0768 11.5018 57.9972L12.2004 57.6998C12.341 57.7782 12.6548 58.038 12.9501 58.3236L13.4415 58.1179C14.499 57.9706 13.8596 58.1408 14.2881 57.7501L15.313 57.8359C16.8634 56.273 16.1189 57.3541 16.4616 55.5899L20.1063 54.9498C19.5993 56.4432 18.9748 55.4774 18.8231 57.6665L18.2074 58.0475C18.0963 57.864 18.5411 57.6664 17.9232 57.8803C17.8114 58.4316 17.7285 57.867 17.975 58.798C17.7359 59.7719 17.2016 60.2181 17.195 60.5615L19.8132 60.5889C21.5531 60.1952 20.6954 60.6363 22.1207 61.1787C21.6456 63.1169 20.3564 64.7627 22.114 66.6121C22.3937 66.9074 22.0903 67.609 24.3896 66.6388C25.6411 66.1104 26.2028 66.3405 26.615 67.6267C28.1328 67.0539 27.5881 66.9347 28.3311 65.7255C28.9646 64.6924 28.3778 65.3059 29.3546 65.0055C29.7661 64.8804 30.1761 64.7724 30.6031 64.6258C31.1433 64.1011 31.1388 64.0575 31.8485 63.9324L31.6576 64.4726L31.5718 66.4908C32.3614 65.562 31.3202 65.9964 32.3177 65.0787C33.3116 64.1655 32.5923 65.3992 33.3183 63.7163C34.7207 65.3015 33.9503 65.5531 38.523 65.6767L39.3082 65.1624C39.303 63.8947 39.3074 64.5896 39.8995 64.4223C40.083 64.8434 40.0978 64.0286 40.0253 64.8619C39.9291 65.9623 40.0105 65.0728 39.8107 65.2963L39.6049 66.117L40.2887 66.521C40.9422 67.2211 40.3605 67.1168 41.1457 67.5379C41.6911 67.8294 41.9124 67.529 42.4756 68.1366C42.7627 68.4466 43.5812 70.3804 43.9379 69.9046C45.0139 70.1059 47.798 69.1393 49.2817 72.2993C49.9019 73.6173 49.7339 73.0135 50.3725 73.8668L50.1454 75.2765L50.8395 75.5629L51.3709 76.0705C51.3931 76.109 51.4219 76.1897 51.4412 76.226L52.0029 76.1764L52.0887 76.078L52.7436 76.1098C54.926 76.6522 54.1297 76.9327 55.0874 78.0924C56.711 77.4789 59.6357 78.0124 61.0025 79.3134C61.7581 80.0335 62.3361 80.0735 62.7742 80.4635C63.714 81.296 63.4491 83.935 62.678 84.9755C62.2162 85.6008 61.8225 85.6201 61.4206 86.3993C60.594 88.0067 61.522 86.9966 60.1374 88.006C60.1063 89.9915 60.3646 90.7619 59.8451 92.8592C58.4642 98.4347 58.0749 96.4439 56.1168 97.3867C55.8059 97.537 55.464 97.8248 55.2243 97.9358C54.2015 98.4072 52.8872 97.6946 53.0745 101.643C53.1374 102.972 52.518 103.553 51.7883 104.667C51.5322 105.327 51.7579 105.195 51.2244 105.424L51.5455 104.684C51.3672 104.077 51.6906 104.468 51.097 104.345C49.8427 106.459 51.2525 109.986 46.2623 107.763C46.5754 108.496 48.1546 109.358 48.2738 109.886C47.9104 112.584 46.528 111.379 44.4256 112.243C44.5839 112.49 44.8415 113.714 44.5736 114.145C44.2043 114.738 43.1712 114.096 42.5103 113.937C43.2349 116.084 43.2193 114.527 44.285 115.749L43.5797 116.229C43.0772 116.953 43.4613 116.348 43.2467 117.181C43.0957 117.764 43.2556 117.472 42.9758 117.924L42.2239 118.65C43.3606 120.075 43.2067 119.1 44.2739 119.843C44.3242 121.405 44.211 120.238 43.6796 121.479L42.9174 123.033L43.7965 123.988L43.0114 124.583L43.9031 124.959C45.0161 125.35 45.9678 126.275 47.0579 126.41C46.861 126.654 47.0712 126.59 46.6294 126.937C46.0115 127.082 46.4518 127.626 44.0178 126.963C42.1033 126.441 40.8704 125.977 40.086 124.819C39.377 123.769 39.3792 124.312 38.9115 123.794C38.6466 123.501 38.4786 122.814 38.17 122.355C37.8836 121.93 37.5143 121.512 37.2257 121.085L37.7289 120L36.3636 119.104L37.4226 118.189C37.4877 116.968 36.96 116.025 36.687 114.834L36.0557 114.778C35.662 114.421 36.5678 114.38 35.5969 114.514L35.269 114.965L35.0751 114.226C35.0699 113.52 34.9893 114.008 35.3408 113.814L35.5169 113.611C35.5058 112.692 35.6501 113.17 35.2616 112.553C35.1047 111.624 34.6097 111.379 34.5793 110.62C34.5556 109.989 35.047 109.282 35.1047 108.214C35.2031 106.371 34.4934 105.187 34.2922 103.329C34.0043 100.684 34.4291 95.4701 33.6676 93.2403C32.929 91.0742 28.4754 90.6427 27.5985 88.1421C26.8755 86.0804 25.1164 82.2484 22.9162 81.6149C23.4047 80.368 22.9717 80.6921 22.8837 79.4799L24.0359 78.2345L23.0805 77.6269C23.6533 73.9082 25.7854 73.6447 26.1769 72.6138L26.3463 69.2392L25.7906 67.8369C25.6507 67.253 25.2666 67.2878 24.6509 67.0147C23.2211 68.85 24.4555 67.9908 23.7244 68.6716L21.6352 67.6223L20.9166 67.5986C20.8959 66.4959 21.0269 67.1538 20.6547 66.521C20.2676 66.4093 19.6356 66.1962 19.37 65.9497C19.3337 64.0663 19.1931 65.0625 18.3635 63.7556C18.3309 63.706 18.2984 63.6438 18.2687 63.5912L18.0216 63.0584C18.0023 63.0169 17.9757 62.9333 17.9454 62.8749C16.748 63.3811 16.6592 62.493 15.1584 62.3457C13.6309 62.1962 14.3103 61.3985 13.0552 60.3402C11.0896 59.9843 11.7438 60.9153 10.3185 60.6289L6.82031 59.0141C5.50081 58.0787 3.9356 58.2969 3.55892 56.8509C3.61146 55.3893 4.38851 54.8269 3.22738 53.5985C2.87734 53.2285 2.60502 52.9102 2.38818 52.6297ZM98.9933 47.6197L98.4065 47.3917L101.164 52.4114C101.486 53.1544 100.985 53.2188 101.712 54.0736C102.256 54.7159 102.443 54.3851 102.695 55.507C103.676 59.8703 103.303 56.5808 104.195 59.4152C104.339 59.8762 104.732 61.0277 105.042 60.2706C105.333 59.8444 104.729 60.133 105.45 59.8459C105.709 60.1049 105.65 60.0864 105.818 60.4771C106.137 61.6471 106.386 62.1378 107.406 62.7157L107.704 62.9407L107.945 62.8127C107.96 62.7247 107.77 62.6055 107.764 62.6558C107.758 62.7113 107.705 62.5352 107.667 62.4797C107.619 61.5191 107.157 58.8113 106.635 58.1719C105.839 57.1988 106.144 57.4689 105.625 56.4972C105.135 55.5818 104.826 55.9318 104.101 55.1044C103.894 54.1439 104.183 53.7531 103.808 52.9627C103.34 51.977 103.232 52.3685 102.417 51.9637C102.369 51.177 102.531 51.2762 102.01 50.6494C101.252 49.7398 101.159 49.0516 100.565 48.6261C99.2701 47.7018 100.516 49.2744 99.4314 48.37C98.9889 47.9993 99.1066 48.1999 98.9933 47.6197ZM82.9825 39.7723L82.9788 39.7678L82.9833 39.7723L82.8597 39.6435L82.9825 39.7723ZM27.4275 57.4807L26.5706 57.4059C26.3537 58.1941 26.4536 57.5754 26.7356 57.8396L27.0664 58.0535C27.597 58.0387 27.7184 58.0505 28.1343 57.7567L27.4275 57.4807ZM34.1427 56.8716C33.971 56.4454 34.2197 56.7888 33.6372 56.6097C32.6774 56.0006 31.9122 56.0591 30.6534 56.1242L31.1855 56.9493C30.8117 57.2528 31.5059 57.315 30.2516 57.2617C29.5574 57.4497 29.9925 57.1166 29.6647 57.6147L30.2863 57.9173C30.5697 57.7656 30.9701 57.7427 31.3135 57.5354C31.8212 57.7641 31.7583 57.7138 32.1142 58.0683L32.8928 57.534C33.3005 57.833 34.2315 57.7863 34.7051 57.3031L34.1427 56.8716ZM30.6349 54.8691C30.1257 55.4826 30.922 55.0326 30.9287 55.0341C31.6628 55.3553 30.9057 54.5428 30.6349 54.8691ZM27.4949 51.9548L27.7287 52.549C27.8819 52.2812 28.2645 52.9094 27.7465 51.9822L27.6866 51.2525L27.2455 51.6329C27.2233 52.0665 27.1034 51.997 27.4949 51.9548ZM23.0598 54.4073C23.0376 55.1385 23.3181 54.8713 23.4602 54.4517C23.6326 53.9462 23.0665 54.2156 23.0598 54.4073ZM22.6439 53.1899C22.2953 53.2003 22.3775 53.1093 22.3908 53.4549L21.6108 54.3814C22.396 54.3081 21.9749 54.6219 22.6032 53.9019L23.2899 53.6769L24.1995 53.7982C24.5214 54.3 24.232 54.129 25.1985 54.2726C27.2803 54.6545 26.1132 55.0623 27.6866 55.4153C27.3128 56.2256 27.1545 55.6684 27.486 56.1738L29.641 56.1264L30.2012 55.8356C29.846 55.1858 29.4094 55.1414 28.7973 54.8025C27.6984 54.7359 28.1876 54.6678 27.318 54.0935C26.908 53.8219 26.4729 53.7324 25.9534 53.5097C24.0478 52.6919 24.3615 53.2758 22.6439 53.1899ZM51.0519 76.4835L51.3738 76.895L50.9661 77.1333L51.0519 76.4835ZM39.5428 64.8093C39.4288 64.2254 40.0837 64.8804 39.7485 64.8604C39.7485 64.8604 39.7248 64.8589 39.7241 64.8589C39.5613 64.8263 39.6878 65.556 39.5428 64.8093ZM35.5147 57.5724C36.0579 58.0446 35.9292 58.183 36.7469 57.5724C36.0231 57.1284 36.1696 57.1388 35.5147 57.5724ZM27.4275 57.4807C26.2916 57.6125 26.9406 57.4548 26.7356 57.8396L27.4275 57.4807ZM79.7182 35.8959L80.2562 35.9506L80.2666 36.3577C80.5752 36.6884 80.5441 36.1697 80.4634 37.1606L80.2666 36.3577L79.9905 36.4339L79.7182 35.8959ZM49.0767 122.806L49.2558 123.409L50.1794 122.726C50.2179 122.677 50.2786 122.604 50.2874 122.576C50.2926 122.556 50.2608 122.507 50.263 122.45C50.2675 122.368 50.1616 122.384 50.1091 122.351C49.557 121.917 49.1382 122.112 48.3308 122.096C48.1702 123.017 48.316 122.179 47.9918 122.991C48.8888 123.121 48.1731 123.169 48.7815 122.849L48.7245 122.311L48.9295 122.647L49.0767 122.806ZM79.2816 36.9652C79.7449 37.7955 79.6383 37.3205 79.471 38.3647C80.6277 37.9687 79.1958 38.5823 80.1275 38.1693C79.7915 38.6215 80.3739 38.4675 79.5702 38.5645C79.1439 37.8836 79.3238 37.928 79.2816 36.9652ZM94.2815 35.6687L95.6084 36.1431C95.1488 36.8261 95.3753 36.5109 94.9609 36.8062L94.8543 36.4028L94.2815 35.6687ZM98.6648 33.2784L98.2503 33.5648L98.021 33.1873L98.6648 33.2784ZM97.605 32.881L97.1743 32.4369L97.4674 32.2134L97.605 32.881ZM107.667 97.7805L108.713 98.7196C109.331 98.6167 109.887 98.3532 110.568 98.1571C110.889 96.7066 111.51 94.6782 112.03 93.281C113.659 88.8911 112.305 89.7325 113.54 89.5408C113.54 88.2051 113.455 87.2341 112.592 86.281L111.519 87.8498C109.867 91.0468 107.832 88.2746 108.362 92.4462C108.567 94.0647 107.98 93.8198 107.363 95.0482L107.667 97.7805ZM97.7627 42.2862C98.4368 41.5802 98.627 41.885 99.4403 41.461C98.9564 42.4534 98.9016 42.5555 97.7627 42.2862ZM91.0986 41.7503C91.6507 41.5283 92.5831 41.5535 93.1048 41.9931C92.4691 42.2477 91.6092 42.0434 91.0986 41.7503ZM94.1971 40.2844L93.6059 40.775C93.8552 39.1291 94.2149 40.1142 93.2299 39.4822C93.3646 39.3786 93.2721 39.2357 93.4401 38.9523C94.1224 39.366 93.8471 39.3371 94.1971 40.2844ZM93.1293 37.8304L92.6075 38.0139L92.8628 37.5151C92.8451 37.9429 92.7296 37.8644 93.1293 37.8304ZM90.975 38.6385L91.8327 39.1521C91.4338 39.4533 92.5498 39.3652 91.1452 39.3689C91.2407 38.7377 91.3317 39.1536 90.975 38.6385ZM83.9039 33.0371L83.2297 32.8861L83.1232 32.26L82.9152 32.2852C83.044 32.0225 82.8974 32.0032 83.1232 32.26L83.5257 32.653C83.5842 32.7108 83.7263 33.0193 83.7773 32.912C83.7966 32.8728 83.8595 32.9971 83.9039 33.0371ZM85.0539 35.6591L85.7325 36.4665C84.9259 36.0432 85.031 36.4879 85.0539 35.6591ZM82.9833 39.7723H82.9825H82.9833ZM95.1363 40.5352C94.7418 40.9407 94.7914 40.5397 94.7729 41.3478C94.1335 40.6455 94.6323 41.3374 94.3925 40.7713C94.2785 40.5012 94.3688 40.5611 94.2756 40.2844C94.7396 40.2066 94.1417 40.1904 94.6308 40.3465C95.0408 40.4782 94.8195 40.4109 95.1363 40.5352ZM90.582 40.4383C89.412 40.3021 89.4216 40.5108 89.1937 39.2572L90.6834 39.9698C90.6834 40.0054 90.6679 40.0867 90.6649 40.1171C90.6605 40.1814 90.5961 40.3177 90.582 40.4383ZM74.0332 38.6844C73.9784 38.1404 73.675 38.4002 74.3233 38.2337L74.0332 38.6844ZM76.3895 37.3167C76.0787 37.5846 75.6687 38.0716 75.0604 37.914C75.0049 37.7896 74.5527 38.1345 75.107 37.6061C75.5296 37.2035 75.0656 37.7127 76.3895 37.3167ZM44.0711 124.53C43.8328 124.229 44.0985 124.079 43.71 124.554L44.0711 124.53ZM47.963 13.9995C47.963 13.9995 47.9792 13.1492 49.0715 14.0343C49.0442 14.058 49.4046 14.3828 48.4522 14.3384C47.7328 14.3059 48.3507 14.4013 47.963 13.9995Z" fill="white"/>
<path d="M89.3825 101.686C90.7863 101.686 92.0569 102.28 92.9761 103.237C93.8893 104.191 94.4562 105.509 94.4562 106.961C94.4562 108.412 93.8893 109.731 92.9761 110.684C92.0569 111.642 90.7863 112.236 89.3825 112.236C87.9793 112.236 86.7079 111.642 85.7895 110.684C84.8763 109.731 84.3087 108.412 84.3087 106.961C84.3087 105.509 84.8763 104.191 85.7895 103.237C86.7079 102.28 87.9793 101.686 89.3825 101.686ZM92.3818 103.807C91.6144 103.009 90.5532 102.511 89.3825 102.511C88.2124 102.511 87.1505 103.009 86.3838 103.807C85.6134 104.612 85.1353 105.727 85.1353 106.961C85.1353 108.193 85.6134 109.31 86.3838 110.113C87.1505 110.913 88.2124 111.41 89.3825 111.41C90.5532 111.41 91.6144 110.913 92.3818 110.113C93.1515 109.31 93.6303 108.193 93.6303 106.961C93.6303 105.727 93.1515 104.612 92.3818 103.807Z" fill="white"/>
<path fill-rule="evenodd" clip-rule="evenodd" d="M89.383 103.706C91.1021 103.706 92.4956 105.164 92.4956 106.961C92.4956 108.758 91.1021 110.216 89.383 110.216C87.6639 110.216 86.2704 108.758 86.2704 106.961C86.2704 105.164 87.6639 103.706 89.383 103.706Z" fill="white"/>
<path d="M66.5106 0C84.8762 0 101.506 7.44633 113.542 19.4809C125.577 31.517 133.022 48.145 133.022 66.5106C133.022 84.8762 125.576 101.507 113.542 113.542C101.506 125.576 84.8762 133.023 66.5106 133.023C48.1442 133.023 31.5169 125.577 19.4801 113.542C7.44557 101.507 0 84.8762 0 66.5106C0 48.145 7.44483 31.517 19.4801 19.4809C31.5169 7.44559 48.1442 0 66.5106 0ZM112.253 20.7693C100.547 9.06481 84.3745 1.82351 66.5106 1.82351C48.6482 1.82351 32.4753 9.06481 20.7693 20.7693C9.06404 32.4761 1.82272 48.6482 1.82272 66.5106C1.82272 84.3752 9.06404 100.548 20.7693 112.253C32.4753 123.958 48.6482 131.199 66.5106 131.199C84.3745 131.199 100.547 123.958 112.253 112.253C123.958 100.548 131.198 84.3752 131.198 66.5106C131.198 48.6482 123.958 32.4761 112.253 20.7693Z" fill="white"/>
<path fill-rule="evenodd" clip-rule="evenodd" d="M106.927 104.09L104.793 109.863C117.041 114.191 127.861 115.703 136.27 112.778C157.591 105.36 162.388 85.0031 164.274 81.3799C163.028 99.5472 148.914 114.411 138.145 118.158C128.354 121.564 116.254 119.974 102.814 115.219L100.746 120.814L94.3837 109.452L106.927 104.09Z" fill="white"/>
<path fill-rule="evenodd" clip-rule="evenodd" d="M153.643 21.7666C158.596 19.4125 164.135 18.0938 169.983 18.0938C178.233 18.0938 185.87 20.7172 192.108 25.1723C191.89 25.3765 191.671 25.5956 191.454 25.8338C190.145 27.268 186.93 32.9953 186.857 34.6471C186.762 36.7947 186.812 39.3567 188.81 40.3927C188.387 47.0043 189.388 45.0491 185.124 48.5147C184.354 49.1408 184.276 49.2769 183.7 50.0259C182.783 51.221 183.119 50.6105 181.988 51.4386C182.13 53.6276 182.506 54.2582 182.307 56.7884L179.217 58.8931C179.215 60.5537 179.725 59.2779 179.037 61.6852C178.382 63.9801 178.61 62.688 177.09 63.9416C175.554 65.2101 175.667 66.5636 173.716 67.9497C172.815 64.7091 169.95 62.3409 166.553 62.3409C164.962 62.3409 163.488 62.8619 162.277 63.7485C161.349 61.6874 160.211 59.0485 160.018 57.3249C159.82 55.5569 160.314 55.3875 159.239 53.7779C154.343 46.4493 158.626 42.8948 158.943 41.1742C158.879 40.0826 158.682 39.9413 158.565 39.1021C158.146 36.0709 159.518 38.3732 156.955 33.9011C155.921 32.0969 154.449 29.8234 153.594 28.0962C155.462 23.5294 153.99 27.0313 154.522 24.4071C154.801 23.0343 154.967 22.0559 153.643 21.7666ZM191.044 57.8259L192.445 59.0825C193.273 58.9449 194.016 58.5926 194.93 58.3292C195.359 56.388 196.191 53.6691 196.887 51.7976C199.069 45.9187 197.256 47.045 198.91 46.7897C198.91 44.9995 198.796 43.6985 197.64 42.4219L196.203 44.5244C193.99 48.8048 191.265 45.0935 191.974 50.6808C192.248 52.8469 191.464 52.5198 190.636 54.1649L191.044 57.8259Z" fill="white"/>
<path d="M166.553 63.0557C168.434 63.0557 170.136 63.8519 171.366 65.1352C172.59 66.4117 173.35 68.1789 173.35 70.1223C173.35 72.0664 172.59 73.8321 171.366 75.1102C170.136 76.3919 168.434 77.1882 166.553 77.1882C164.674 77.1882 162.971 76.3919 161.741 75.1102C160.517 73.8321 159.757 72.0664 159.757 70.1223C159.757 68.1789 160.517 66.4117 161.741 65.1352C162.971 63.8519 164.674 63.0557 166.553 63.0557ZM170.57 65.8996C169.543 64.828 168.121 64.1635 166.553 64.1635C164.986 64.1635 163.563 64.828 162.537 65.8996C161.505 66.9756 160.865 68.4698 160.865 70.1223C160.865 71.7741 161.505 73.2682 162.537 74.3457C163.563 75.4158 164.986 76.0819 166.553 76.0819C168.121 76.0819 169.543 75.4158 170.57 74.3457C171.602 73.2682 172.243 71.7741 172.243 70.1223C172.243 68.4698 171.602 66.9756 170.57 65.8996Z" fill="white"/>
<path fill-rule="evenodd" clip-rule="evenodd" d="M166.555 65.7627C168.857 65.7627 170.724 67.7142 170.724 70.1223C170.724 72.5297 168.857 74.4812 166.555 74.4812C164.252 74.4812 162.385 72.5297 162.385 70.1223C162.385 67.7142 164.252 65.7627 166.555 65.7627Z" fill="white"/>
<path d="M169.984 95.2172C159.21 95.2172 149.455 90.848 142.395 83.7887C135.334 76.728 130.965 66.9734 130.965 56.1984C130.965 45.4263 135.334 35.6696 142.395 28.6104C149.455 21.5496 159.21 17.1826 169.984 17.1826C180.756 17.1826 190.512 21.5496 197.572 28.6104C204.632 35.6696 209 45.4263 209 56.1984C209 66.9734 204.632 76.7279 197.572 83.7879C190.512 90.8479 180.756 95.2172 169.984 95.2172ZM143.683 82.4995C150.413 89.2302 159.712 93.3929 169.984 93.3929C180.254 93.3929 189.554 89.2302 196.283 82.4995C203.013 75.7689 207.177 66.4695 207.177 56.1984C207.177 45.9288 203.013 36.6295 196.283 29.8988C189.554 23.1688 180.254 19.0053 169.984 19.0053C159.712 19.0053 150.413 23.1688 143.683 29.8988C136.952 36.6295 132.789 45.9288 132.789 56.1984C132.789 66.4695 136.952 75.7689 143.683 82.4995Z" fill="white"/>
</svg>
