<svg width="242" height="129" viewBox="0 0 242 129" fill="none" xmlns="http://www.w3.org/2000/svg">
<path fill-rule="evenodd" clip-rule="evenodd" d="M40.0859 73.7432H75.902V93.9752H57.3206V79.9243H47.8011V93.9752H40.0859V73.7432ZM65.9329 79.0173C69.1874 79.0173 71.8256 80.8428 71.8256 83.0959C71.8256 85.3498 69.1874 87.176 65.9329 87.176C62.6783 87.176 60.0401 85.3498 60.0401 83.0959C60.0401 80.8428 62.6783 79.0173 65.9329 79.0173Z" fill="white"/>
<path fill-rule="evenodd" clip-rule="evenodd" d="M57.8912 50.3672L36.0559 72.5122H79.9326L57.8912 50.3672Z" fill="white"/>
<path fill-rule="evenodd" clip-rule="evenodd" d="M184.692 55.8669C165.964 57.2891 169.452 70.8224 188.211 70.018C192.026 69.8552 202.935 67.2666 200.415 61.4758C198.351 56.7305 189.149 55.5283 184.692 55.8669ZM181.24 67.0079V58.8916H186.835C187.959 58.8916 188.814 58.9654 189.399 59.1115C189.984 59.2569 190.451 59.5133 190.801 59.8816C191.151 60.2499 191.323 60.6577 191.323 61.1036C191.323 61.6797 191.033 62.1667 190.454 62.5609C189.875 62.955 188.982 63.2054 187.771 63.3127C188.215 63.4481 188.55 63.5844 188.779 63.7175C189.267 64.0036 189.728 64.3651 190.16 64.7981L192.343 67.0079H190.257L188.588 65.3193C188.104 64.83 187.701 64.4579 187.386 64.1992C187.07 63.9397 186.787 63.7602 186.538 63.6567C186.29 63.5539 186.035 63.4832 185.777 63.4413C185.588 63.417 185.28 63.404 184.848 63.404H182.915V67.0079H181.24ZM182.915 62.4742H186.5C187.263 62.4742 187.856 62.4231 188.286 62.3204C188.715 62.2215 189.04 62.0579 189.261 61.8342C189.484 61.6105 189.596 61.3692 189.596 61.1067C189.596 60.7224 189.381 60.4051 188.949 60.1578C188.518 59.9105 187.836 59.788 186.905 59.788H182.915V62.4742Z" fill="white"/>
<path fill-rule="evenodd" clip-rule="evenodd" d="M172.247 82.5095C172.947 90.8783 199.157 91.4353 200.665 82.6373C201.177 79.6544 199.836 81.5424 198.772 82.3026C192.722 86.627 180.177 86.6156 174.181 82.3209C172.852 81.3697 172.003 79.6057 172.247 82.5095Z" fill="white"/>
<path fill-rule="evenodd" clip-rule="evenodd" d="M200.531 76.0918C199.651 76.5986 198.786 77.6198 197.565 78.3024C196.435 78.9347 195.107 79.4422 193.862 79.7953C188.4 81.3476 181.343 81.1543 176.161 78.7117C174.954 78.1433 174.042 77.514 173.049 76.6306C172.225 75.897 172.224 75.8475 172.233 77.2469C172.238 78.0299 172.378 78.5816 172.789 79.2565C177.931 87.6954 203.203 84.8236 200.531 76.0918Z" fill="white"/>
<path fill-rule="evenodd" clip-rule="evenodd" d="M200.549 85.6123C200.137 85.7926 198.451 87.3251 197.548 87.822C193.577 90.0128 188.954 90.3955 184.522 90.2387C180.87 90.1094 175.809 88.7762 173.061 86.1548C172.252 85.3832 172.247 85.3505 172.233 86.7042C172.223 87.5169 172.355 88.0382 172.765 88.7375C177.635 97.0409 203.003 94.5732 200.549 85.6123Z" fill="white"/>
<path fill-rule="evenodd" clip-rule="evenodd" d="M200.542 66.5752C199.033 67.3582 198.603 68.8984 193.885 70.2803C188.556 71.8425 181.291 71.6316 176.227 69.2263C175.238 68.7568 173.867 67.9426 173.101 67.1626C171.493 65.522 172.351 68.9874 172.753 69.676C177.724 78.1659 203.21 75.3588 200.542 66.5752Z" fill="white"/>
<path fill-rule="evenodd" clip-rule="evenodd" d="M200.553 71.3271C199.338 71.9222 198.951 73.3542 194.611 74.8046C189.733 76.4337 183.141 76.4057 178.259 74.794C174.965 73.7074 174.897 73.0446 172.402 71.2822C170.038 77.4398 182.591 79.5978 186.429 79.594C190.763 79.591 202.024 77.8126 200.553 71.3271Z" fill="white"/>
<path fill-rule="evenodd" clip-rule="evenodd" d="M136.931 16.9199H163.585V93.7439H136.931V16.9199ZM141.635 76.759H146.861V87.734H141.635V76.759ZM141.635 62.8436C143.377 62.8436 145.119 62.8436 146.861 62.8436C146.861 66.5022 146.861 70.1601 146.861 73.8187C145.119 73.8187 143.377 73.8187 141.635 73.8187C141.635 70.1601 141.635 66.5022 141.635 62.8436ZM141.635 48.9298C143.377 48.9298 145.119 48.9298 146.861 48.9298C146.861 52.5884 146.861 56.2454 146.861 59.9041C145.119 59.9041 143.377 59.9041 141.635 59.9041C141.635 56.2454 141.635 52.5884 141.635 48.9298ZM141.635 35.0151C143.377 35.0151 145.119 35.0151 146.861 35.0151C146.861 38.6737 146.861 42.3316 146.861 45.9902C145.119 45.9902 143.377 45.9902 141.635 45.9902C141.635 42.3316 141.635 38.6737 141.635 35.0151ZM141.635 21.0998H146.861V32.0749H141.635V21.0998ZM152.871 76.759H158.098V87.734H152.871V76.759ZM152.871 62.8436C154.613 62.8436 156.355 62.8436 158.098 62.8436C158.098 66.5022 158.098 70.1601 158.098 73.8187C156.355 73.8187 154.613 73.8187 152.871 73.8187C152.871 70.1601 152.871 66.5022 152.871 62.8436ZM152.871 48.9298C154.613 48.9298 156.355 48.9298 158.098 48.9298C158.098 52.5884 158.098 56.2454 158.098 59.9041C156.355 59.9041 154.613 59.9041 152.871 59.9041C152.871 56.2454 152.871 52.5884 152.871 48.9298ZM152.871 35.0151C154.613 35.0151 156.355 35.0151 158.098 35.0151C158.098 38.6737 158.098 42.3316 158.098 45.9902C156.355 45.9902 154.613 45.9902 152.871 45.9902C152.871 42.3316 152.871 38.6737 152.871 35.0151ZM152.871 21.0998H158.098V32.0749H152.871V21.0998Z" fill="white"/>
<path fill-rule="evenodd" clip-rule="evenodd" d="M119.233 47.7988H135.173V93.7438H119.233V47.7988ZM122.046 83.5852H125.171V90.1498H122.046V83.5852ZM122.046 75.2636C123.088 75.2636 124.13 75.2636 125.171 75.2636C125.171 77.4513 125.171 79.6398 125.171 81.8267C124.13 81.8267 123.088 81.8267 122.046 81.8267C122.046 79.6398 122.046 77.4513 122.046 75.2636ZM122.046 66.9426C123.088 66.9426 124.13 66.9426 125.171 66.9426C125.171 69.1296 125.171 71.3181 125.171 73.5058C124.13 73.5058 123.088 73.5058 122.046 73.5058C122.046 71.3181 122.046 69.1296 122.046 66.9426ZM122.046 58.6202C123.088 58.6202 124.13 58.6202 125.171 58.6202C125.171 60.8087 125.171 62.9956 125.171 65.1841C124.13 65.1841 123.088 65.1841 122.046 65.1841C122.046 62.9956 122.046 60.8087 122.046 58.6202ZM122.046 50.2986H125.171V56.8617H122.046V50.2986ZM128.766 83.5852H131.891V90.1498H128.766V83.5852ZM128.766 75.2636C129.808 75.2636 130.849 75.2636 131.891 75.2636C131.891 77.4513 131.891 79.6398 131.891 81.8267C130.849 81.8267 129.808 81.8267 128.766 81.8267C128.766 79.6398 128.766 77.4513 128.766 75.2636ZM128.766 66.9426C129.808 66.9426 130.849 66.9426 131.891 66.9426C131.891 69.1296 131.891 71.3181 131.891 73.5058C130.849 73.5058 129.808 73.5058 128.766 73.5058C128.766 71.3181 128.766 69.1296 128.766 66.9426ZM128.766 58.6202C129.808 58.6202 130.849 58.6202 131.891 58.6202C131.891 60.8087 131.891 62.9956 131.891 65.1841C130.849 65.1841 129.808 65.1841 128.766 65.1841C128.766 62.9956 128.766 60.8087 128.766 58.6202ZM128.766 50.2986H131.891V56.8617H128.766V50.2986Z" fill="white"/>
<path fill-rule="evenodd" clip-rule="evenodd" d="M87.4782 43.7723L87.412 43.792C87.412 43.9351 87.4379 43.8803 87.2583 43.8704L87.237 43.8628C87.237 44.0218 87.269 43.9686 87.0863 43.9534L87.081 43.9473C87.081 44.0957 87.1114 44.0462 86.9395 44.0409L86.9486 44.0454C86.9486 44.2128 86.9912 44.1832 86.8314 44.1466L86.7059 44.1847L86.6077 44.2471C86.626 44.3734 86.645 44.3361 86.508 44.308C86.5301 44.4396 86.5628 44.4183 86.4372 44.3985C86.4646 44.524 86.4936 44.4982 86.368 44.4906C86.3954 44.6214 86.4296 44.5986 86.3056 44.5887L86.1306 44.8178C86.1694 44.9845 86.2143 44.9555 86.0606 44.9555L86.0613 44.9563C86.0629 45.1313 86.1161 45.1039 85.9769 45.1039L85.9814 45.1214C85.986 45.3002 86.0408 45.2744 85.903 45.2744L85.9175 45.3162L85.8308 45.4859L85.7273 45.6389L85.741 45.702C85.7554 45.8725 85.8049 45.8443 85.6596 45.8443L85.6573 45.836L85.5766 45.9866L85.5523 46.0665L85.4762 46.1989L85.4876 46.2621L85.4138 46.3975L85.4084 46.3891L85.3301 46.5481L85.3057 46.6228L85.2372 46.7712L85.2517 46.8145C85.2631 46.9857 85.3118 46.9553 85.1642 46.9553L85.1809 46.9979C85.1962 47.1744 85.2487 47.147 85.1018 47.147L85.0987 47.1547L85.0805 47.1988L84.9884 47.3274L84.9991 47.3753C85.0013 47.5473 85.0538 47.5207 84.9184 47.5207L84.9298 47.5519C84.9321 47.7223 84.9839 47.6965 84.8492 47.6965V47.698L84.7685 47.8494L84.7495 47.9262L84.6734 48.07L84.6886 48.121C84.7 48.2983 84.754 48.2717 84.6102 48.2717L84.6072 48.2459C84.6041 48.4315 84.662 48.4049 84.5189 48.4049L84.5098 48.4909C84.5144 48.6529 84.5623 48.6271 84.4253 48.6271L84.4322 48.6735L84.3568 48.8204L84.3599 48.8143C84.3553 49.0022 84.4139 48.9779 84.2731 48.9779L84.2906 49.0061L84.213 49.1536L84.1902 49.2366L84.1171 49.3842L84.1263 49.4124C84.1346 49.5859 84.1871 49.5585 84.0456 49.5585L84.0464 49.5714L83.968 49.716L83.9451 49.7981L83.8698 49.942L83.8805 49.9815C83.8873 50.152 83.9391 50.1254 83.7998 50.1254L83.8128 50.1741L83.7214 50.3301L83.6248 50.5028L83.6324 50.5431C83.6377 50.7227 83.6933 50.6983 83.5578 50.6983L83.4848 50.8749C83.4833 51.0309 83.5297 51.005 83.3996 51.005L83.3881 51.1047C83.3958 51.2744 83.4475 51.2478 83.3105 51.2478L83.3212 51.2812L83.2253 51.4501L83.1325 51.626L83.1408 51.6564C83.1431 51.8238 83.1949 51.7995 83.061 51.7995L83.0625 51.7979C83.0579 51.9881 83.118 51.9638 82.9795 51.9638L82.9453 52.2073L82.8137 52.3534L82.8228 52.4036L82.7528 52.5574L82.749 52.5414C82.7406 52.7202 82.7969 52.6958 82.6615 52.6958L82.6538 52.7902C82.6637 52.9545 82.7117 52.9271 82.5717 52.9271L82.58 52.9728L82.5062 53.1204L82.4986 53.0976L82.4134 53.2582L82.2665 53.7125C82.2734 53.8844 82.3266 53.8609 82.1912 53.8609L82.2064 53.8973L82.0108 54.217L82.02 54.2763C82.0276 54.4445 82.0778 54.4194 81.9454 54.4194L81.9386 54.4125L81.8586 54.5624L81.8427 54.6477L81.7651 54.7877L81.7704 54.8135L81.695 54.9703L81.7103 55.0098L81.517 55.3515L81.5315 55.3842C81.5413 55.5623 81.5946 55.5349 81.45 55.5349L81.4652 55.5722C81.4789 55.7465 81.5299 55.7168 81.3815 55.7168L81.3519 55.7655C81.3572 55.9322 81.4074 55.9055 81.2704 55.9055L81.2195 56.1299C81.2286 56.3141 81.2842 56.2867 81.1381 56.2867L81.1495 56.302L80.9577 56.6505L80.9745 56.6916C80.9889 56.8712 81.0414 56.8429 80.8923 56.8429H80.8907L80.8086 56.9876L80.7903 57.0613C80.6777 57.4038 80.5643 57.9015 80.3322 58.151L80.3489 58.1837L80.2226 58.3344L80.2325 58.3709C80.2356 58.5452 80.2881 58.5186 80.1496 58.5186L80.161 58.5513L79.9746 58.8907L79.97 58.8968L79.8163 59.2316L79.8368 59.262C79.8307 59.4302 79.8825 59.4059 79.7516 59.4059L79.7364 59.4895L79.6588 59.6318L79.674 59.6783C79.6831 59.8541 79.7356 59.8259 79.5895 59.8259L79.5903 59.8015L79.2616 60.5252L79.2775 60.5739L79.1992 60.7131L79.1794 60.7976C79.1832 60.962 79.2342 60.9384 79.1048 60.9384L79.1223 60.9992L79.0196 61.1735L79.0591 61.2656L78.9359 61.5661L78.9207 62.2054L79.0538 62.5211L79.0416 62.5493L79.1056 62.7167L79.0926 62.7753L79.4427 63.3642L79.4419 63.3825L80.1823 64.0803L80.218 64.0666C80.3832 64.0666 80.3558 64.0172 80.3558 64.1519L80.3733 64.1526L81.0231 64.387L81.8929 64.4288L82.1805 64.2971L82.2627 64.3307L82.4217 64.2477L82.6645 64.1701L82.6515 64.1609L82.911 63.9715L82.9072 63.9616C83.1066 63.7044 83.0975 63.8284 83.2908 63.6466C83.5107 63.4411 83.3364 63.4822 83.6103 63.263L83.6309 63.3171L83.7755 63.0515L83.7968 62.9746C83.7915 62.7981 83.7382 62.8255 83.8797 62.8255L83.8721 62.8065C83.8637 62.6269 83.809 62.6521 83.9505 62.6521L83.9376 62.6101L84.0578 62.4572L84.0456 62.4192C84.038 62.2464 83.9863 62.2738 84.1263 62.2738L84.1164 62.2236C84.108 62.0531 84.057 62.079 84.1909 62.079L84.181 62.0425L84.3051 61.8911L84.4291 61.4938L84.6224 61.1643L84.6087 61.1126C84.5988 60.9452 84.5501 60.9726 84.6894 60.9726L84.6924 60.9787L84.7723 60.8197L84.7411 60.7382L84.8712 60.5929L84.9214 60.3775L85.0698 60.0321L85.0767 60.0458L85.2037 59.873L85.165 59.8061C85.1558 59.6273 85.1018 59.6546 85.2456 59.6546V59.6638C85.2479 59.4857 85.1923 59.5123 85.3323 59.5123L85.3423 59.4279C85.3354 59.256 85.2859 59.2856 85.4305 59.2856L85.4184 59.2598L85.5606 58.9143L85.5446 58.8815L85.6687 58.7263L85.6618 58.6928C85.658 58.5277 85.6078 58.552 85.7387 58.552L85.7273 58.5087C85.7098 58.3329 85.658 58.361 85.8057 58.361L85.811 58.3527L85.8901 58.2196L85.9122 58.1274L85.9883 57.989L85.9769 57.9433C85.9754 57.7812 85.9259 57.8048 86.0552 57.8048L86.0598 57.8109L86.1359 57.6564L86.1588 57.578L86.2318 57.4319L86.2166 57.3916C86.2044 57.2143 86.1526 57.2433 86.3025 57.2433L86.3011 57.2539C86.3041 57.072 86.247 57.0963 86.3855 57.0963L86.4015 57.0218C86.4007 56.8521 86.3482 56.8765 86.4806 56.8765L86.4692 56.83C86.4639 56.6573 86.4106 56.6824 86.5491 56.6824L86.5316 56.6459C86.5187 56.4663 86.4662 56.4952 86.6161 56.4952L86.6191 56.5059L86.696 56.3552L86.7135 56.2692C86.7074 56.1033 86.6579 56.1299 86.7934 56.1299L86.7812 56.0874C86.7682 55.9139 86.7173 55.9413 86.8603 55.9413L86.8443 55.8979L86.9745 55.7533L86.9615 55.7099C86.9593 55.538 86.906 55.5631 87.0384 55.5631L87.0308 55.5303C87.0255 55.3538 86.9714 55.3797 87.1092 55.3797L87.1343 55.3219C87.135 55.1666 87.0886 55.1918 87.2187 55.1918L87.2119 55.1545L87.2834 55.0129L87.2743 54.9657C87.2667 54.7907 87.2134 54.8151 87.3496 54.8151L87.3504 54.828C87.3534 54.6469 87.2971 54.672 87.4364 54.672L87.4189 54.6202L87.4394 54.5791L87.5315 54.4589L87.5239 54.4088L87.5954 54.2604L87.5817 54.2155C87.5695 54.0405 87.5185 54.0686 87.6654 54.0686L87.6555 54.0313L87.8465 53.701L87.8336 53.6622C87.8252 53.4849 87.7719 53.504 87.8998 53.5062C88.0953 55.0669 87.9979 56.8239 87.9979 58.4128V88.9722C87.9979 90.5428 87.8754 92.43 88.1204 93.9488L88.0679 94.1368L88.1729 94.33L88.1669 94.3476L88.2369 94.5081L88.2278 94.5417C88.3609 94.5417 88.3099 94.5157 88.3107 94.6839L88.5123 94.9731L88.9073 95.4548L89.013 95.5156L89.4133 95.7621L89.4384 95.7516C89.6211 95.7402 89.5914 95.6869 89.5914 95.8406L89.6119 95.8292L89.809 95.9273H89.9185L90.1659 96.0292L92.2227 96.0316L92.4761 95.9273L92.6138 95.9409L92.7721 95.826L92.8269 95.8482C92.8269 95.7013 92.798 95.7507 92.9677 95.7621L92.9988 95.7721L93.132 95.6884L93.161 95.6921C93.5947 95.3566 93.6441 95.1716 93.95 94.881L93.9592 94.8955C93.9675 94.735 93.9204 94.7638 94.0596 94.7638L94.0551 94.7509C94.0589 94.5797 94.0064 94.607 94.1471 94.607L94.1159 94.5378L94.2399 94.3765L94.2194 94.3317L94.3107 94.1276L94.2856 93.9824C94.3921 93.5875 94.434 91.8866 94.4462 89.8717L95.2223 69.9176L95.4909 93.8461L95.6066 94.1634L95.6119 94.2478C96.0647 94.9829 95.9627 95.2774 96.9801 95.7568L97.2662 95.9182H97.3538L97.6794 96.036L99.6647 96.0369L99.9798 95.9128L100.105 95.9365L100.616 95.6846C100.799 95.4905 100.977 95.3977 101.13 95.2272C101.288 95.0499 101.426 94.7738 101.604 94.6292L101.601 94.6093L101.677 94.4693L101.661 94.3978L101.763 94.2243L101.732 94.1566L101.847 93.8324L101.803 53.4104L101.868 53.2315L101.906 53.4012L101.974 53.5359L101.964 53.5633L102.088 53.7261L102.075 53.755C102.213 53.755 102.159 53.7284 102.155 53.9057L102.209 54.1241C102.346 54.1241 102.298 54.0967 102.295 54.2618L102.307 54.3433C102.445 54.3433 102.389 54.3174 102.392 54.4993L102.39 54.4962C102.537 54.4962 102.483 54.4673 102.476 54.6469L102.465 54.6613L102.623 54.9977L102.642 55.0396L102.639 55.0578L102.784 55.3926L102.772 55.4185C102.91 55.4185 102.859 55.3934 102.857 55.5608L102.877 55.6376L102.953 55.7906L102.957 55.7936C103.097 55.7936 103.049 55.7662 103.04 55.9291L103.027 55.9732L103.222 56.3035L103.204 56.3537L103.345 56.6946L103.337 56.7106L103.47 56.8605L103.441 56.9343L103.522 57.0872L103.525 57.0751C103.676 57.0751 103.624 57.0462 103.61 57.2242L103.596 57.263L103.778 57.6199L103.774 57.6298C103.92 57.6298 103.867 57.6016 103.858 57.7782L103.907 58.0118C104.042 58.0118 103.993 57.9844 103.989 58.1495L104.004 58.2317L104.087 58.3885L104.088 58.3786C104.233 58.3786 104.18 58.3497 104.171 58.5247L104.157 58.5589L104.414 59.087L104.407 59.1166L104.485 59.2589L104.472 59.3054L104.561 59.44L104.581 59.4865L104.573 59.5207L104.65 59.6699L104.655 59.6821C104.793 59.6821 104.745 59.6546 104.733 59.8205L104.723 59.8624C104.862 59.8624 104.814 59.835 104.806 60.0001L104.819 60.0846L104.898 60.2178L104.904 60.2361C105.042 60.2361 104.991 60.2109 104.982 60.3806L104.967 60.4194C105.098 60.4194 105.047 60.395 105.048 60.5617L105.034 60.6028L105.127 60.7322L105.149 60.7808L105.137 60.8143L105.219 60.9764L105.198 60.9954L105.4 61.331L105.389 61.366L105.467 61.5053L105.453 61.5502L105.538 61.7077L105.538 61.7016C105.672 61.7016 105.62 61.6757 105.618 61.8447L105.603 61.8933L105.733 62.0394L105.718 62.0714C105.86 62.0714 105.806 62.0448 105.797 62.2198L105.79 62.2555C105.931 62.2555 105.879 62.2289 105.869 62.4024L105.852 62.4481L105.983 62.5957L105.95 62.6627L106.035 62.7981L106.04 62.8072C106.175 62.8072 106.122 62.7829 106.116 62.9556L106.112 62.9762C106.461 63.4731 106.728 63.6899 107.145 64.0582L107.149 64.0544C107.313 64.0407 107.279 63.9981 107.279 64.1503L107.272 64.1557C107.452 64.161 107.426 64.1054 107.426 64.2447L107.465 64.2234L107.639 64.3436L107.706 64.3055L107.826 64.3253L108.04 64.4151L108.785 64.4136L109.084 64.2797L109.151 64.3139C109.355 64.1701 109.782 63.9495 110.051 63.8444L110.404 63.4746C110.502 63.2029 110.724 62.7608 110.864 62.5493L110.862 62.4527L110.978 62.1354L110.965 61.5106L110.886 61.2793L110.899 61.1598L110.797 60.9795L110.817 60.9186C110.687 60.9186 110.736 60.9437 110.736 60.7816L110.705 60.7307C110.564 60.7307 110.612 60.7588 110.625 60.5922L110.636 60.545C110.463 60.3631 110.538 60.5191 110.49 60.23L110.5 60.1759L110.307 59.8586L110.32 59.8068C110.187 59.8068 110.237 59.8328 110.241 59.6653L110.249 59.622L110.179 59.4834L110.154 59.4012C110.018 59.4012 110.071 59.4264 110.071 59.2552V59.2422C109.937 59.2422 109.985 59.2681 109.991 59.106L109.998 59.0764L109.926 58.9294L109.902 58.8481L109.824 58.6974L109.842 58.6738C109.699 58.6738 109.758 58.7004 109.753 58.5094L109.757 58.5132L109.681 58.3671L109.689 58.3207C109.555 58.3207 109.604 58.3481 109.605 58.1853L109.575 58.1442C109.422 58.1442 109.473 58.1731 109.49 57.9935L109.503 57.9699C109.354 57.9699 109.406 57.9981 109.419 57.8201L109.437 57.7729L109.361 57.6268L109.338 57.5529L109.259 57.4007L109.26 57.403C109.119 57.403 109.172 57.4304 109.178 57.2546L109.191 57.2242C109.053 57.2242 109.106 57.2509 109.11 57.0781L109.12 57.0317L109.027 56.9069L109.008 56.8612L109.024 56.8156C108.886 56.8156 108.944 56.8399 108.941 56.6573L108.942 56.6588C108.797 56.6588 108.847 56.6877 108.859 56.5165L108.873 56.4716L108.8 56.3309L108.775 56.254L108.696 56.1056L108.69 56.1109L108.614 55.9702L108.626 55.9237L108.55 55.7845L108.527 55.6932L108.447 55.56L108.441 55.5577C108.293 55.5577 108.345 55.5859 108.362 55.4086L108.373 55.3668C108.193 55.1864 108.139 54.93 108.048 54.6667L108.06 54.6385C107.913 54.6385 107.964 54.6674 107.972 54.4955L107.989 54.4452L107.895 54.3121L107.878 54.2618V54.2664C107.73 54.2664 107.782 54.2953 107.794 54.118L107.808 54.0884L107.668 53.7498L107.671 53.7125L107.483 53.3776L107.493 53.3449C107.356 53.3449 107.41 53.37 107.413 53.1935L107.423 53.1554L107.293 53.0109L107.33 52.9348C107.183 52.9348 107.243 52.9606 107.241 52.7658L107.179 52.606L107.075 52.4303L107.006 52.2583L106.958 52.065L106.848 51.893L106.831 51.8177L106.751 51.6701L106.747 51.6746C106.595 51.6746 106.646 51.7043 106.662 51.5271L106.691 51.4646L106.617 51.2927L106.502 51.1138L106.494 51.1351C106.329 51.1351 106.391 51.161 106.439 50.9632L106.349 50.7798L106.363 50.7509C106.221 50.7509 106.274 50.7782 106.281 50.6032L106.298 50.5606C106.169 50.5606 106.219 50.5857 106.2 50.4282L106.183 50.381L106.184 50.3758C106.033 50.3758 106.084 50.4054 106.096 50.2297L106.107 50.2091L106.003 50.0264L105.942 49.8453L105.852 49.678L105.863 49.6414C105.73 49.6414 105.781 49.6673 105.783 49.4991L105.794 49.4588L105.72 49.315L105.726 49.264L105.653 49.1323L105.611 49.0852C105.462 49.0852 105.512 49.1148 105.531 48.9421L105.548 48.8896C105.415 48.8896 105.465 48.9147 105.468 48.7496L105.475 48.7237L105.402 48.5768L105.38 48.4946L105.3 48.3372L105.298 48.3623C105.147 48.3623 105.201 48.3927 105.213 48.2116L105.231 48.1621C105.1 48.1621 105.151 48.1865 105.153 48.0183L105.163 47.9688C105.035 47.9688 105.083 47.9939 105.067 47.8418L105.052 47.7908H105.051C104.901 47.7908 104.952 47.8197 104.966 47.6439L104.979 47.612C104.841 47.612 104.894 47.6386 104.902 47.4643L104.912 47.4187C104.782 47.4187 104.833 47.443 104.835 47.2771L104.817 47.1973L104.737 47.0428L104.736 47.0458C104.601 47.0458 104.653 47.0717 104.657 46.899L104.667 46.8701C104.53 46.8701 104.581 46.8967 104.584 46.7278L104.571 46.641C104.44 46.641 104.491 46.6669 104.486 46.5018L104.482 46.498C104.336 46.498 104.389 46.5261 104.403 46.3503L104.419 46.3062C104.275 46.3062 104.326 46.3344 104.335 46.1624L104.349 46.119L104.275 45.9783L104.25 45.9044L104.17 45.7522L104.165 45.7591L104.091 45.6199L104.101 45.5605L104.025 45.4266L104.002 45.3436L103.921 45.2005L103.937 45.1678C103.797 45.1678 103.852 45.1953 103.848 45.0172L103.838 45.0332C103.686 45.0332 103.73 45.0621 103.775 44.8977L103.639 44.7676L102.893 44.028C102.73 44.0287 102.757 44.0774 102.757 43.9397L102.755 43.932C102.588 43.9275 102.613 43.98 102.613 43.8484L102.583 43.8613L102.397 43.7776L102.148 43.6817L102.1 43.7007L101.956 43.6901L96.1667 43.6924L96.2762 43.6543L96.398 43.6878L96.6362 43.5455L96.8546 43.5021C96.8546 43.3652 96.8302 43.4207 97.009 43.4268L97.0593 43.4397L97.3842 43.2396L97.4374 43.267C97.4374 43.1346 97.4123 43.1879 97.5797 43.1757L97.7197 43.1171L97.8339 43.0296L97.8362 43.0151C97.8362 42.8683 97.8019 42.9078 97.9549 42.917L97.9906 42.9223L98.2372 42.7655L98.1877 42.7373C98.3749 42.4436 98.7173 42.3622 99.04 41.9247C99.2089 41.6972 99.5605 41.2611 99.7401 41.0648L99.7347 41.0374L99.8641 40.7589L99.8702 40.765C99.8725 40.609 99.826 40.6357 99.9577 40.6357L99.9744 40.5573C99.9684 40.3853 99.9158 40.4104 100.054 40.4104L100.044 40.3716L100.197 39.9713L100.19 39.9363L100.224 39.8618L100.301 39.6936L100.289 39.5688L100.367 39.339L100.359 39.2279L100.461 38.8756L100.368 37.3172L100.286 37.0873L100.302 36.9519L100.208 36.7655L100.197 36.6749L100.117 36.4717L100.041 36.2838L100.059 36.245C99.925 36.245 99.9782 36.2686 99.9813 36.0974L99.9623 36.016C99.8253 36.016 99.8785 36.0426 99.8755 35.8691L99.8869 35.8432C99.7408 35.8432 99.7948 35.8721 99.7918 35.6941L99.7454 35.5822C99.6061 35.5822 99.6487 35.6142 99.6457 35.462L99.6373 35.4674C99.4897 35.4674 99.5392 35.4947 99.5704 35.3235L99.4973 35.2002L99.4836 35.201C99.3345 35.201 99.3664 35.236 99.403 35.0869L99.3223 34.9826L99.3017 35.0054C99.1351 35.0054 99.164 35.0488 99.196 34.8906L99.1404 34.7847L99.078 34.6858C98.9525 34.6988 98.9852 34.7224 99.0088 34.5923C98.8977 34.5915 98.9251 34.6173 98.9372 34.5024C98.8132 34.5177 98.8444 34.5413 98.865 34.4134C98.747 34.4225 98.7706 34.4515 98.7797 34.3389C98.6435 34.3632 98.6679 34.3936 98.6945 34.2612L98.5956 34.2004C98.4693 34.2308 98.4951 34.2612 98.4967 34.1372C98.3536 34.1684 98.3696 34.211 98.3917 34.0794C98.244 34.1091 98.26 34.1509 98.2851 34.017C98.139 34.0527 98.1877 34.0717 98.1877 33.9066L98.2364 33.8838C98.0804 33.8671 98.1048 33.9165 98.1139 33.7833C97.9716 33.8199 97.9975 33.8579 97.9975 33.7248L97.9564 33.7309L97.8369 33.6647L97.7182 33.5437C97.5622 33.5635 97.5889 33.6083 97.5889 33.4714L97.5539 33.4859C97.3766 33.4897 97.4047 33.5436 97.4047 33.3998L97.3971 33.4021L97.2366 33.2956L97.0562 33.2355L96.8721 33.1465L96.8705 33.1525L96.7024 33.0757L96.624 33.0704L96.4505 32.9935L96.3394 33.0026L96.0845 32.8802L95.9848 32.9349C95.7147 32.89 95.7831 32.9319 95.6028 32.7949L94.1722 32.8215L93.8815 32.9182H93.7986L93.6221 32.9852L93.492 32.9737L93.2964 33.0613L93.231 33.0803L93.0224 33.1663L92.849 33.2484L92.7858 33.2233C92.7858 33.3519 92.8117 33.3063 92.6572 33.3055L92.6017 33.3002L92.4692 33.3748H92.4373C92.4373 33.5072 92.4609 33.4653 92.3155 33.4272L92.0249 33.6213L91.897 33.6959L91.9 33.7095C91.9 33.8526 91.9312 33.8183 91.7829 33.7833L91.5599 33.9637C91.566 34.09 91.5911 34.0497 91.4504 34.0527L90.8796 34.5268C90.8629 34.6683 90.904 34.6425 90.7693 34.625C90.7936 34.7597 90.8286 34.7399 90.7016 34.7208L90.6498 34.8304C90.6826 34.9613 90.7153 34.9369 90.5889 34.9301C90.6239 35.0884 90.6612 35.0541 90.5091 35.0541L90.4877 35.026C90.4801 35.1743 90.525 35.1508 90.398 35.1447L90.3675 35.2748C90.4101 35.4346 90.4413 35.3951 90.277 35.3951L90.2739 35.4026L90.2169 35.5274L90.1172 35.6705L90.0282 35.8219C90.0746 36.0091 90.1301 35.981 89.9688 35.981L89.9185 35.9985L89.8409 36.1377L89.8524 36.1819C89.86 36.3538 89.9125 36.3294 89.7801 36.3294L89.8067 36.4025L89.6895 36.5677L89.7184 36.6354L89.6134 36.8157L89.6195 36.9344L89.5328 37.146L89.551 37.2723L89.443 37.6071L89.4787 37.6977L89.4666 38.9007L89.443 39.0537L89.5305 39.3367V39.5155L89.6218 39.7256L89.6256 39.9006C89.7687 39.9006 89.7078 39.8762 89.7063 40.0703L89.7664 40.3297L89.9148 40.6691L89.9216 40.6707C90.1651 40.8982 90.3447 41.2977 90.4847 41.6294L91.6687 42.7845C91.9716 42.8774 91.8673 42.8074 92.0424 42.987L92.0447 42.9885C92.2083 42.9839 92.174 42.9405 92.174 43.092L92.1709 43.1003L92.4578 43.2708L92.4845 43.2632C92.6557 43.2594 92.629 43.2077 92.629 43.3469L92.6602 43.337C92.8353 43.3309 92.8094 43.2769 92.8094 43.4162L92.8581 43.4024L93.0224 43.5166L93.0613 43.5006L93.253 43.6034L93.3078 43.5767L93.5041 43.6741L93.5992 43.633L93.7317 43.6939L87.8031 43.6962L87.6624 43.6786L87.4782 43.7723ZM94.2856 93.9824L94.348 92.3927C94.3343 93.0418 94.3145 93.5897 94.2856 93.9824ZM87.9081 53.5062H87.9097L87.8952 53.4743L87.9081 53.5062ZM87.8952 53.4743C88.2407 54.2337 88.0786 61.8044 88.0786 63.1817V83.7172C88.0786 87.0608 87.9584 90.6319 88.1204 93.9488L87.8952 53.4743Z" fill="white"/>
<path fill-rule="evenodd" clip-rule="evenodd" d="M231.361 69.3151C226.9 102.46 179.363 128.554 120.157 128.554C60.9508 128.554 11.6318 108.333 8.74627 74.316H14.171C17.1593 105.346 64.0319 123.148 120.157 123.148C176.282 123.148 221.297 99.4697 225.906 69.3151H216.323L228.217 55.2193L241.633 69.3151H231.361ZM120.157 0C175.034 0 221.285 16.3093 230.15 46.6998H224.535C215.44 19.3097 171.769 5.40656 120.157 5.40656C68.5442 5.40656 26.2107 25.5221 16.2248 52.2852H25.3098L11.8943 66.3809L0 51.5235L10.5581 52.2852C20.3088 22.5179 65.2806 0 120.157 0Z" fill="white"/>
</svg>
