<svg width="234" height="123" viewBox="0 0 234 123" fill="none" xmlns="http://www.w3.org/2000/svg">
<path fill-rule="evenodd" clip-rule="evenodd" d="M183.05 9.75213L182.011 9.3368C177.367 5.84525 166.735 0.526353 157.381 1.46336C138.324 3.23974 132.644 18.9758 132.574 33.1372C132.576 36.4051 135.939 45.4451 138.684 48.1585C145.935 55.9154 153.543 63.2845 161.042 70.774C166.366 76.0915 173.597 84.0416 179.785 89.5995C181.856 91.4597 184.222 91.6097 186.409 89.4909L226.708 49.4029L226.792 49.3352C230.138 44.3638 232.874 42.202 234 33.3755L233.95 26.6255C232.684 11.7872 222.76 -1.34043 200.682 0.843249C195.264 1.5573 187.123 7.1648 183.05 9.75213ZM191.448 33.8185H206.095V50.568H191.448V65.2148H174.698V50.568H160.052V33.8185H174.698V19.1725H191.448V33.8185ZM177.656 22.1299H188.49V36.7759H203.137V47.6105H188.49V62.2566H177.656V47.6105H163.01V36.7759H177.656V22.1299Z" fill="white"/>
<path fill-rule="evenodd" clip-rule="evenodd" d="M82.4885 84.2526C76.9327 84.9783 71.4979 85.3106 66.2744 85.2851C67.5663 96.7915 69.2647 107.422 75.5695 116.304C77.3051 119.616 76.7047 121.643 72.7519 121.828C59.0203 121.56 52.384 109.18 48.9893 91.614C48.4895 89.0274 47.1809 82.1542 41.7578 81.7797C33.1222 81.1415 29.0878 78.4674 22.2825 72.4789L8.37244 74.4389C6.12319 74.7551 4.02471 73.1748 3.70848 70.927L0.767034 50.0366C0.450084 47.7881 2.02975 45.6911 4.279 45.3735L19.6471 43.2102C28.6208 31.0626 48.6556 20.7373 73.0273 17.0556L78.0613 52.8083L71.8601 8.76611L80.1459 7.59961L85.7089 45.8536L88.0471 45.4631C89.2858 45.2569 90.4588 46.094 90.7597 47.2875C91.2974 46.0722 92.0494 45.2073 93.8418 44.9559C95.6342 44.7046 98.027 46.1648 98.3315 48.339C98.6361 50.5124 96.7869 52.5708 94.95 52.8287C93.1139 53.0859 92.0283 52.3835 91.1904 51.2425C90.9893 52.2305 90.171 53.0109 89.1342 53.1836L86.7953 53.5741L91.6129 89.0426L83.3264 90.2098L82.4885 84.2526Z" fill="white"/>
<path fill-rule="evenodd" clip-rule="evenodd" d="M105.331 45.9235L127.516 43.5176L127.804 46.1792L105.62 48.5851L105.331 45.9235Z" fill="white"/>
<path fill-rule="evenodd" clip-rule="evenodd" d="M96.5493 27.3788L115.093 14.9668L116.582 17.1912L98.0386 29.604L96.5493 27.3788Z" fill="white"/>
<path fill-rule="evenodd" clip-rule="evenodd" d="M102.877 66.2084L123.325 75.139L124.397 72.685L103.948 63.7559L102.877 66.2084Z" fill="white"/>
</svg>
