<svg width="231" height="141" viewBox="0 0 231 141" fill="none" xmlns="http://www.w3.org/2000/svg">
<path fill-rule="evenodd" clip-rule="evenodd" d="M20.5847 79.6659L20.7592 78.7955C19.7629 77.9934 18.2124 72.7955 18.3567 72.6417L18.1881 72.3871C17.7738 71.9324 20.311 67.4726 20.8967 66.6646C22.2168 65.0215 25.0836 61.6566 25.7937 60.8494C26.4059 60.0856 27.8709 58.7214 29.1535 57.1798C29.1365 55.5139 29.4301 54.4919 28.2337 53.2829C24.2977 53.3881 16.6709 62.0231 13.991 64.6926C13.512 66.2438 12.7834 66.7662 12.0572 68.5469C11.0645 67.4203 11.3362 66.1981 11.8512 64.6521C12.1743 64.257 13.7003 62.4263 13.3479 60.5301C15.5318 58.0761 17.4736 56.7752 19.9283 54.2476C20.8871 53.3882 20.7489 52.0916 20.6856 50.9106L19.038 49.3889C16.7732 49.4169 11.3986 54.5338 8.80043 56.3395C8.83207 54.7465 10.3517 50.6185 9.09045 49.6781C8.2288 48.3786 6.67623 47.7326 5.94408 48.9114L5.41564 49.3838L5.57761 50.1138C5.25016 50.4795 2.82194 54.8451 2.48125 55.8281C1.55338 57.6824 1.05073 65.0252 0.485615 65.8537C0.130212 67.9501 0.101544 69.0811 0 71.2606C0.0103015 71.3092 5.05807 79.9764 5.65924 80.515C6.52751 81.2899 10.1713 86.0389 9.63269 86.6128L9.84395 86.8579C10.2965 89.0793 12.1323 90.5855 13.7077 92.2198L16.2897 94.4405L21.7731 99.631L24.7708 102.411C26.3845 103.727 33.7987 112.21 34.6596 114.105C38.0672 116.815 41.6462 133.304 42.2724 137.973C49.2156 145.519 59.7969 136.096 59.206 132.463C58.3524 126.244 55.4039 114.435 53.5871 107.258C53.3156 106.973 48.2157 98.1491 47.304 96.6561L45.1016 94.3736C41.9927 89.1272 33.5742 90.7997 31.9355 87.6364C27.9687 83.4193 25.7583 76.2678 20.5847 79.6659Z" fill="white"/>
<path fill-rule="evenodd" clip-rule="evenodd" d="M146.708 80.9357L147.475 78.9652C147.556 79.8717 147.898 82.091 146.926 82.2838L146.417 82.5281L146.708 80.9357ZM43.4867 52.9928C45.781 49.0649 45.2902 53.4114 45.2895 41.6213L45.3961 32.6267C46.0311 30.6341 45.4977 31.9571 46.4962 30.6915C47.2983 42.809 46.7589 84.6826 47.0901 86.5324C47.9701 91.4514 53.9994 91.1909 55.5896 87.9628C56.853 85.3992 56.2186 61.1362 56.3783 54.0833C59.223 55.4269 58.087 62.4591 58.084 68.6474L58.0664 80.1124C58.0612 84.9688 56.9883 89.0585 60.9382 90.0401C68.7255 91.976 66.7402 83.074 66.7373 71.1044C66.7358 66.7917 66.0979 34.6303 67.1958 32.2381C68.0662 30.339 67.1015 31.8562 68.4002 30.7216C68.415 38.0585 67.8947 46.4432 69.5172 52.5726C75.6496 54.198 73.2831 48.3291 79.5067 60.6167C82.0954 65.727 79.1117 71.6673 77.8475 76.8372L80.9034 78.2831C80.868 82.8349 80.4788 86.528 81.8224 90.0989L86.514 90.2844C88.5 85.751 86.7407 80.4022 88.5531 77.8725C88.8592 81.8305 87.1946 92.767 93.0518 90.2895C95.647 89.1909 95.0761 86.5383 95.0297 83.3706C94.9304 76.5878 94.7876 79.5487 98.2695 76.8372C97.4837 73.4318 94.8177 67.1891 95.2541 63.8595C95.6043 61.173 99.9119 55.5078 101.097 52.2415C110.505 53.8345 106.751 46.8707 112.441 33.063C113.739 34.9842 106.871 57.3062 105.518 61.9029C104.136 66.5982 106.77 64.9772 112.633 65.1251L112.703 88.1027C125.845 98.8825 118.565 71.5996 121.455 65.2119C122.134 66.1663 121.858 65.2774 122.268 67.1228L122.614 88.7767C132.184 95.4462 130.535 82.7157 130.589 74.3802L130.71 65L138.067 64.777L129.94 33.4729C130.851 33.0542 131.215 33.517 133.552 35.0563C135.878 37.0585 140.607 39.6177 143.201 41.6361C144.449 42.6125 146.131 42.8656 147.115 42.0187C147.157 42.1725 147.235 42.3094 147.358 42.4197C147.015 43.004 154.341 46.0635 155.912 46.8118C160.106 49.0509 159.396 50.4616 163.237 50.36L158.809 52.6771L158.808 52.6779H158.807L158.223 52.9832C157.579 53.0435 156.589 53.1157 155.457 53.2032C147.216 53.4343 145.295 53.0369 144.708 61.8374C142.053 62.8234 141.808 63.7042 140.671 66.4356L138.731 70.9285C138.608 71.2699 138.563 71.4362 138.409 71.7453C138.083 72.395 138.273 72.0028 138.043 72.3553C137.489 72.32 134.786 71.9727 134.526 72.2847L133.362 74.4737C133.311 75.4001 134.276 76.0226 134.783 76.2905L134.064 77.2066C133.439 78.6076 134.595 78.7246 135.623 79.2455L136.368 80.0579C137.081 80.0233 137.039 80.0277 137.542 79.8541L137.649 80.2095C138.897 80.2787 139.824 80.8268 141.035 81.2999C142.878 82.0203 142.527 81.453 143.64 80.7444L145.718 81.6569C145.717 81.662 145.705 82.0424 145.681 82.5913C143.228 82.7915 141.298 84.8871 141.298 87.4448C141.298 90.1335 143.432 92.3138 146.067 92.3138C148.699 92.3138 150.834 90.1335 150.834 87.4448C150.834 86.241 150.406 85.141 149.698 84.2904C150.947 82.2124 150.601 78.6944 150.637 76.3427C151.934 76.3802 153.227 76.5061 154.525 76.5716C157.684 76.7334 157.707 77.0462 158.635 79.6363C158.972 80.5789 159.321 81.2831 159.797 82.1293C163.567 88.8253 171.604 92.4624 179.339 90.8259C181.218 90.4271 183.143 89.7509 184.649 88.8385C185.5 88.3234 186.248 87.8687 186.859 87.3933C188.292 86.28 187.471 86.8495 189.151 86.5545C189.534 85.375 189.228 85.3007 189.916 84.294C191.348 82.1962 192.053 81.5715 193.009 78.4354C194.931 72.1294 192.858 64.6056 188.368 60.5637C185.87 58.315 185.158 58.2936 182.758 56.9199L181.448 55.9803C181.419 55.956 184.58 42.6338 184.72 41.4734L184.844 40.8466C185.181 40.1556 185.476 39.9922 186.448 39.915C187.722 39.8767 188.971 40.241 190.507 40.7516C193.15 41.784 193.516 39.2446 191.52 38.631C190.557 38.3359 189.305 37.8061 188.356 37.5883C184.424 36.7267 184.57 38.5375 183.288 38.9489C181.624 39.4823 182.299 39.2527 181.187 34.372C181.045 33.7444 180.988 33.2587 180.999 32.8533C182.401 31.609 183.296 29.7106 183.296 27.5804C183.296 23.8336 180.521 20.7938 177.095 20.7938C173.67 20.7938 170.894 23.8336 170.894 27.5804C170.894 30.651 172.758 33.2448 175.314 34.0829C175.377 34.1954 175.46 34.2984 175.568 34.3919C174.985 35.6472 175.003 34.6023 174.21 35.5251C173.912 35.8731 173.809 36.5243 173.362 37.2057C172.698 38.2189 172.031 38.7494 171.345 39.9547C168.809 44.4072 167.985 46.7302 165.136 46.2195C162.55 45.3034 149.239 38.745 147.779 40.0629L147.779 40.0636C147.877 35.6825 141.336 33.8643 138.918 31.3978C133.747 27.1087 133.065 22.796 118.177 22.5164C106.874 22.5208 108.092 24.4509 104.005 37.3352C103.371 39.3307 102.787 41.1357 102.264 43.0386C100.027 51.1739 99.7332 45.0268 95.7215 51.1694C94.4536 53.1113 93.9841 53.7433 92.7487 55.4328L82.9608 55.6028C80.7688 51.6014 80.821 51.2047 77.7872 48.5182C74.9152 45.9745 75.3729 49.0068 75.3965 38.3447C75.4377 19.0051 74.9269 18.2089 53.4409 18.1544C49.6278 18.1287 46.4116 17.8933 43.6869 19.5776C41.5236 20.9146 39.2932 23.4009 38.6626 27.002C38.0254 30.6451 38.0615 46.998 38.8017 50.4682C39.1645 54.5159 41.0195 55.2856 43.4867 52.9928ZM176.053 71.0992C177.794 71.0992 179.205 72.5105 179.205 74.2508C179.205 75.9917 177.794 77.4023 176.053 77.4023C174.313 77.4023 172.901 75.9917 172.901 74.2508C172.901 72.5105 174.313 71.0992 176.053 71.0992ZM176.802 88.748C174.841 88.8753 172.859 88.6861 171.11 88.1681C167.777 87.1836 164.585 84.7863 162.671 81.9556L162.67 81.9541C162.03 81.0513 161.523 80.1094 161.145 79.13C161.071 79.0888 161.029 79.0498 160.843 78.5097C160.759 78.261 160.776 78.1779 160.796 78.0925C159.887 74.9226 160.26 71.3774 161.853 67.4775C161.871 67.2523 161.863 67.0514 161.868 66.749C162.285 66.3428 161.459 66.3921 162.334 66.3664C162.522 65.9558 162.725 65.5401 162.94 65.1206C162.885 65.1008 162.829 65.0787 162.769 65.0537L163.096 64.7902L163.311 64.4172C163.319 64.4084 164.157 63.3002 164.088 64.4039C176.719 64.1927 175.135 67.1184 179.233 58.822C179.722 58.8787 180.185 58.9875 180.625 59.1398C188.641 61.3554 192.781 69.5481 190.697 77.3574C190.585 77.7864 190.455 78.2014 190.309 78.6046C189.884 79.8048 189.304 80.9857 188.565 82.1277C188.292 82.5648 188.002 82.9865 187.721 83.3235L187.72 83.325L187.715 83.3301L187.677 83.3757C184.731 86.9216 180.787 88.5861 176.802 88.748ZM149.773 76.6944C149.725 76.9343 150.113 76.8865 149.339 76.9865C148.437 77.0013 148.823 77.0888 148.376 76.6952C148.629 76.2448 148.049 76.2007 148.996 76.1455C150.211 76.0719 149.625 76.5075 149.773 76.6944ZM150.79 72.8048L157.442 73.122L157.399 75.3729L150.732 74.9277L150.79 72.8048ZM148.532 73.8998C148.77 73.7637 148.663 73.6915 149.234 73.654C150.421 73.5738 149.588 73.601 149.827 73.8953C150.117 74.665 149.885 74.7813 149.817 75.0035C148.967 75.0882 150.129 75.2228 148.999 75.0256C148.396 74.9196 148.74 74.938 148.429 74.6915L148.532 73.8998ZM141.219 72.4767C141.296 71.2831 141.133 71.9344 141.976 71.7144C141.755 72.3237 141.932 72.2 141.219 72.4767ZM142.675 70.4951C142.794 70.9322 142.29 71.061 142.273 70.5319C142.256 70.0286 142.323 70.423 142.554 70.4245C143.249 70.4289 142.434 69.6099 142.675 70.4951ZM157.721 71.1898L157.373 71.9984L155.199 71.6011L150.098 71.4267C150.156 68.4186 149.677 68.5791 150.589 65.7873C156.387 66.1052 151.907 65.8514 155.847 68.142C156.829 68.7144 156.407 68.4502 157.031 69.3803C156.52 70.281 156.517 69.674 156.243 70.8123C156.916 71.0647 156.714 70.9859 157.526 70.615L157.721 71.1898ZM144.055 65.9035C143.857 65.685 143.409 65.5261 143.903 64.9485L144.055 65.9035ZM151.215 63.8057C151.415 63.4856 151.255 63.5166 151.454 63.8506C151.845 63.8043 151.749 63.713 151.771 64.0934C151.827 64.1332 151.921 64.1927 151.938 64.217C151.947 64.2303 151.936 64.3672 151.943 64.337C151.953 64.2907 151.839 64.4172 151.787 64.457L151.199 64.4275C151.145 64.3863 151.083 64.2988 151.075 64.2671C151.066 64.2421 151.03 64.1354 151.025 64.1096C150.935 63.6607 150.774 63.6681 151.215 63.8057ZM155.348 63.9624L155.306 64.6048L154.166 64.6085L153.732 64.387C153.32 64.426 153.404 64.5298 153.421 64.1368C153.088 63.6622 153.048 64.8756 153.16 63.5372C154.157 63.5033 154.68 63.4304 155.348 63.9624ZM85.0483 41.0871C83.4552 42.0798 83.4169 40.823 82.0894 44.0805C81.4772 45.5845 81.534 47.1025 82.2309 48.7787C83.5119 51.8545 87.2432 53.9045 91.5066 51.945C98.2776 48.8325 92.6133 36.372 85.0483 41.0871ZM118.734 5.26499C110.013 8.92203 114.197 22.1728 124.388 19.1471C133.037 16.5798 129.064 0.933924 118.734 5.26499ZM53.9575 1.02077C43.3911 7.12444 51.2437 19.6452 61.1347 14.969C69.3855 11.0677 62.6888 -4.02404 53.9575 1.02077Z" fill="white"/>
<path fill-rule="evenodd" clip-rule="evenodd" d="M209.815 78.7983L209.641 77.9286C210.638 77.1265 212.188 71.9286 212.044 71.7741L212.213 71.5195C212.626 71.0648 210.089 66.6057 209.503 65.7978C208.183 64.1539 205.317 60.7897 204.607 59.9832C203.994 59.218 202.529 57.8538 201.247 56.3122C201.264 54.6463 200.971 53.625 202.167 52.4153C206.102 52.5213 213.73 61.1555 216.409 63.8258C216.888 65.3754 217.617 65.8993 218.343 67.68C219.335 66.5535 219.065 65.3305 218.549 63.7853C218.226 63.3894 216.7 61.5587 217.053 59.6617C214.868 57.2092 212.927 55.9076 210.472 53.38C209.513 52.5213 209.651 51.224 209.715 50.0438L211.362 48.5221C213.628 48.55 219.002 53.6669 221.6 55.4726C221.568 53.8796 220.049 49.7517 221.31 48.8113C222.172 47.5118 223.724 46.865 224.456 48.0445L224.985 48.5169L224.823 49.2469C225.15 49.6119 227.579 53.9774 227.919 54.9612C228.847 56.8148 229.35 64.1576 229.914 64.9868C230.27 67.0825 230.299 68.2135 230.401 70.393C230.39 70.4416 225.342 79.1081 224.742 79.6467C223.873 80.4223 220.229 85.1713 220.768 85.7459L220.557 85.9902C220.104 88.2124 218.269 89.7172 216.692 91.3529L214.11 93.5736L208.627 98.7649L205.63 101.543C204.016 102.861 196.601 111.342 195.741 113.237C192.334 115.948 188.755 132.437 188.129 137.106C181.185 144.651 170.603 135.229 171.195 131.595C172.048 125.377 174.996 113.567 176.813 106.39C177.084 106.106 182.184 97.2815 183.096 95.7885L185.298 93.5059C188.408 88.2602 196.827 89.9321 198.465 86.7695C202.432 82.5525 204.642 75.4002 209.815 78.7983Z" fill="white"/>
</svg>
