<svg width="104" height="104" viewBox="0 0 104 104" fill="none" xmlns="http://www.w3.org/2000/svg">
<rect x="0.5" y="0.5" width="103" height="103" fill="#F8F8F8" stroke="#0456A4"/>
<path d="M14.24 14.912H10.56V12.416C11.5627 12.416 12.3627 12.3307 12.96 12.16C13.5787 11.9893 14.0693 11.712 14.432 11.328C14.7947 10.9227 15.1147 10.3467 15.392 9.6H17.76V32H14.24V14.912Z" fill="#0456A4"/>
<path fill-rule="evenodd" clip-rule="evenodd" d="M71.9174 51.0317C71.9254 51.3825 72.0794 51.0336 72.1154 51.786L71.9483 52.0923L71.9493 52.1592C72.2283 52.6247 73.2867 53.4438 73.8189 53.4014C74.6707 53.0368 76.1027 49.362 76.1019 49.3647C76.0943 49.3893 72.3176 50.8682 71.9174 51.0317V51.0317ZM88.203 42.6666L88.3428 42.9967L81.452 45.9644C80.9164 45.6308 80.8771 44.8679 80.8922 44.271C80.883 44.1296 81.241 43.1111 81.4544 42.9208L81.4523 42.8472C81.4303 42.2664 81.1365 42.4318 81.1784 42.0715C81.0978 40.4912 79.981 40.1822 79.0175 39.68L78.8476 39.7313L77.7951 39.7083C76.9692 39.6735 76.3456 40.7033 75.8713 41.385L75.9358 41.5248C75.5751 41.8397 75.4788 41.6684 75.2348 42.3128C75.2593 42.3425 75.3001 42.3468 75.3109 42.3997C75.3662 42.668 75.939 43.0719 76.3967 43.2155C76.7359 44.536 76.6023 45.107 77.5016 46.0912C77.8946 46.3034 78.212 46.1449 78.2018 46.8895C77.6621 46.4661 76.4921 47.4176 76.0938 47.8065C76.047 48.4296 76.0688 48.0794 75.9207 48.2378L75.8368 48.2424L70.9968 50.2534C70.0282 49.8343 69.2151 49.7836 69.1533 51.1245C68.9595 51.2047 68.2521 51.569 68.1067 51.6322C67.1174 52.0615 67.6777 52.9426 68.4967 52.8217C68.6582 52.7977 69.4385 52.2985 69.6478 52.2102C70.9568 53.253 73.24 55.3544 73.6593 55.7679C74.4398 55.7547 75.1026 55.3658 75.7049 54.7907C75.732 54.7591 75.7707 54.7089 75.7893 54.6995C75.8653 54.6598 75.964 54.8169 75.9094 54.8117C75.9578 55.6845 75.799 56.3746 75.7917 57.5663C75.9317 57.9614 76.2032 59.6489 76.2371 60.1468L76.2196 61.0279C76.111 62.1333 75.2918 62.9051 75.4154 63.6896C75.3875 64.8055 75.391 66.0137 75.3595 67.1682L75.4141 70.1705C75.2071 71.7274 75.4514 73.0583 75.3711 73.651C75.6028 73.651 75.5154 73.6081 75.4944 73.8984L75.4455 74.0784C76.0089 74.5361 75.6277 76.4247 75.667 77.1819C75.6234 78.4435 74.7631 79.6067 74.7913 80.7952C74.7951 80.7987 75.3087 81.2332 74.7722 81.0807C74.7814 81.3009 74.8378 81.2494 74.6306 81.2588C74.6556 81.5152 73.9326 82.9263 73.9055 82.8686C73.8934 82.8435 73.2725 83.3935 73.0602 83.5514C72.8454 83.5476 72.4014 83.8698 71.8854 83.8355C70.5141 84.5671 71.8623 85.2998 72.1103 85.2297C72.9596 85.706 74.0799 85.2313 74.5309 85.2496L74.6448 85.2737C74.6448 85.0408 74.5973 85.1198 74.8671 85.1239L74.7911 85.1242C75.7745 84.4708 77.2605 85.1339 77.6777 85.1171L77.7742 85.1287C78.2203 84.6551 78.5864 84.8478 78.6165 84.0406C78.3679 84.0997 78.474 83.9489 78.4816 83.7853C78.448 83.4 78.1362 82.1178 78.6036 82.2252L78.606 82.114C78.8538 81.7667 78.2421 81.0114 78.4783 79.9316C78.7581 80.0099 79.1917 73.8466 79.3548 73.4855L79.3255 73.3161C79.2285 72.2239 79.7942 70.8039 79.9222 69.811C80.0834 69.5398 79.7209 69.5881 80.0821 69.5881C80.5447 69.9994 80.8059 72.4268 81.172 73.3285C81.147 74.8338 82.5432 75.672 82.4285 76.8511L82.4543 80.8951C82.6083 81.0262 83.3961 83.3247 82.8752 83.3247C82.851 84.5018 79.6953 83.8296 80.0498 85.682L80.8013 85.1268C81.7853 85.876 82.5583 85.8093 83.8702 85.8501L83.8487 85.4245C83.8487 85.2467 85.3156 85.1171 85.435 85.1268L85.5376 84.7364L85.5704 84.7188C85.7626 84.4894 86.0367 84.5472 85.8903 83.5778L85.9077 83.4488C85.7056 83.4488 85.7661 83.4944 85.7674 83.2728C85.6387 81.1822 86.3496 81.5891 86.4469 79.4145L86.4149 77.5581L86.4146 77.4728C86.1155 77.4728 85.8384 74.8141 85.7177 74.3645C85.719 74.3413 84.4429 70.5734 84.4585 70.3613C84.448 69.2081 84.2628 67.4286 84.2916 66.4301L84.3179 66.2552C83.6543 64.7666 84.6655 64.3478 84.5316 63.5342L84.7284 63.3032L84.7993 61.8877C84.9673 61.6051 84.9579 61.6853 84.963 61.2222L84.9936 60.9658L84.9009 60.744C84.7808 60.2717 84.866 59.6338 84.8428 59.0514L84.8662 57.6249C85.0681 56.4747 85.3065 55.4273 85.267 54.2208L85.289 49.3243C85.3468 47.7882 84.1771 46.8995 82.9297 46.5303L88.8271 44.1412L88.9887 44.5228L90.1602 44.18C90.5572 45.5272 91.2598 49.7172 91.2436 53.243C91.399 53.7536 93.2086 49.8694 91.2033 43.4649C92.2897 43.0771 91.6164 41.5985 90.5653 42.0041C88.0926 36.6337 82.3777 35.7931 82.2726 36.0373C83.7043 36.2581 86.814 38.1584 89.2494 42.1957L88.203 42.6666V42.6666Z" fill="#0456A4"/>
<path fill-rule="evenodd" clip-rule="evenodd" d="M23.2898 53.4667C8.45251 54.5977 11.2155 65.3633 26.0775 64.7243C29.0998 64.5939 37.7427 62.5356 35.746 57.9285C34.11 54.1535 26.8204 53.1977 23.2898 53.4667ZM20.5545 62.3289V55.8734H24.9866C25.8781 55.8734 26.5554 55.9317 27.0187 56.0475C27.4818 56.1632 27.8519 56.3678 28.129 56.6606C28.4059 56.954 28.5432 57.2786 28.5432 57.6332C28.5432 58.0914 28.3129 58.4774 27.8543 58.7918C27.3958 59.1056 26.6881 59.3042 25.7292 59.3895C26.0804 59.4977 26.346 59.6062 26.5277 59.7112C26.9139 59.9395 27.2792 60.2267 27.6216 60.571L29.3509 62.3289H27.6982L26.3764 60.9855C25.992 60.5967 25.6733 60.3003 25.4241 60.0944C25.1728 59.8888 24.9492 59.7458 24.7516 59.6634C24.556 59.5819 24.3533 59.525 24.1485 59.4921C23.9996 59.4726 23.7553 59.4619 23.4132 59.4619H21.8814V62.3289H20.5545ZM21.8814 58.7224H24.7213C25.3265 58.7224 25.7966 58.6822 26.1366 58.601C26.4761 58.5211 26.7346 58.3921 26.9091 58.2129C27.0862 58.0359 27.1746 57.8437 27.1746 57.6346C27.1746 57.3296 27.0045 57.0768 26.6623 56.8803C26.3202 56.6833 25.7802 56.5856 25.0424 56.5856H21.8814V58.7224V58.7224Z" fill="#0456A4"/>
<path fill-rule="evenodd" clip-rule="evenodd" d="M13.4294 74.6607C13.9847 81.3175 34.7486 81.7601 35.9441 74.7622C36.3497 72.3892 35.287 73.8907 34.4446 74.4958C29.6511 77.9358 19.7125 77.9264 14.9622 74.5107C13.9091 73.7531 13.2367 72.3503 13.4294 74.6607V74.6607Z" fill="#0456A4"/>
<path fill-rule="evenodd" clip-rule="evenodd" d="M35.838 69.5552C35.1408 69.9586 34.4554 70.7701 33.4881 71.3136C32.5934 71.8164 31.5403 72.2201 30.5545 72.5013C26.2267 73.7357 20.6368 73.583 16.5313 71.6396C15.5748 71.1871 14.852 70.6867 14.0656 69.9837C13.4125 69.4 13.4122 69.3611 13.4192 70.4738C13.4232 71.0975 13.5343 71.5365 13.8595 72.0722C17.933 78.7863 37.9551 76.5016 35.838 69.5552V69.5552Z" fill="#0456A4"/>
<path fill-rule="evenodd" clip-rule="evenodd" d="M35.8524 77.1294C35.5261 77.2735 34.19 78.492 33.4751 78.8881C30.3288 80.6307 26.6663 80.9348 23.1545 80.8101C20.2617 80.7073 16.2519 79.647 14.0751 77.5614C13.4341 76.9472 13.4304 76.9216 13.4185 77.9986C13.4115 78.6444 13.5161 79.0595 13.8408 79.616C17.6993 86.2213 37.7961 84.2577 35.8524 77.1294V77.1294Z" fill="#0456A4"/>
<path fill-rule="evenodd" clip-rule="evenodd" d="M35.8465 61.9849C34.6513 62.6083 34.3107 63.8335 30.5729 64.9332C26.3511 66.1751 20.5951 66.0072 16.5831 64.0944C15.7991 63.7207 14.7127 63.0732 14.1066 62.4528C12.8324 61.1477 13.5121 63.9047 13.8309 64.4517C17.7687 71.2055 37.9604 68.9723 35.8465 61.9849V61.9849Z" fill="#0456A4"/>
<path fill-rule="evenodd" clip-rule="evenodd" d="M35.8554 65.7653C34.8924 66.2392 34.5863 67.3786 31.1473 68.5323C27.2829 69.8282 22.0607 69.8055 18.1925 68.5236C15.5836 67.6587 15.529 67.1317 13.553 65.73C11.6802 70.6278 21.6245 72.3447 24.6654 72.342C28.0995 72.3396 37.0213 70.9252 35.8554 65.7653Z" fill="#0456A4"/>
<path d="M11.6479 85.1272H38.5727L38.5434 85.8286C38.4053 89.1077 39.9182 90.486 42.5242 90.6039C45.4358 90.735 45.0694 89.4488 49.9036 87.4675L50.2178 87.3387L50.5075 87.5171C52.5757 88.6851 55.5265 88.6946 56.2213 85.1272C55.8114 82.1063 57.5007 81.767 59.5979 82.14C59.9763 73.8451 66.358 76.757 68.3768 80.1071C74.6238 80.0259 74.1414 81.6399 74.9117 85.1272H89.3128V87.6602L57.2531 88.1999C56.7336 89.9065 55.8923 89.832 54.6968 90.2787C53.4726 90.7366 51.9486 90.7318 50.0976 89.6523C45.2337 91.6267 45.5368 92.8959 42.4667 92.7572C39.222 92.6109 37.26 91.2877 37.1958 87.556H11.6479V85.1272V85.1272Z" fill="#0456A4"/>
</svg>
