<svg width="104" height="104" viewBox="0 0 104 104" fill="none" xmlns="http://www.w3.org/2000/svg">
<rect x="0.5" y="0.5" width="103" height="103" fill="#F8F8F8" stroke="#0456A4"/>
<path fill-rule="evenodd" clip-rule="evenodd" d="M55.4259 83.1542L58.9904 83.1423L58.9912 86.9574L55.4271 86.9653L55.4259 83.1542ZM2.07996 90.8919H71.9399L72.1246 89.5833L72.935 89.6975L72.7661 90.8919H97.4274V64.8857C94.7514 65.5232 94.8113 65.6502 93.0184 65.2741C91.31 64.9159 89.9992 64.1141 89.0792 62.8747C87.9348 63.3141 86.5975 62.9322 85.8726 61.8778L80.8859 65.308L79.7165 63.6079L78.3736 64.5318L74.9279 59.5228L76.2711 58.5988L74.4873 56.0056L90.7669 44.8081L97.1654 54.1107L90.3449 58.8019C91.1055 59.9075 90.9345 61.3783 90.0035 62.2836C90.7678 63.2729 91.845 63.9162 93.2401 64.2091C94.9316 64.5635 94.7976 64.4185 97.4274 63.7651V59.1133H100.891V90.8919H102.336V92.6238H2.07996V90.8919V90.8919ZM75.7941 69.4443L74.9838 69.3298L75.2128 67.7094L76.0228 67.8236L75.7941 69.4443V69.4443ZM73.0492 88.8871L72.2391 88.7729L72.4678 87.1528L73.2779 87.2673L73.0492 88.8871V88.8871ZM73.3924 86.457L72.5823 86.3425L72.811 84.7224L73.6211 84.8369L73.3924 86.457ZM73.7356 84.0265L72.9252 83.9123L73.1542 82.2919L73.9643 82.4061L73.7356 84.0265V84.0265ZM74.0785 81.5963L73.2684 81.4818L73.4971 79.8614L74.3072 79.9756L74.0785 81.5963V81.5963ZM74.4217 79.1656L73.6116 79.0511L73.8403 77.431L74.6504 77.5455L74.4217 79.1656ZM74.7649 76.7351L73.9545 76.6209L74.1835 75.0008L74.9935 75.1153L74.7649 76.7351V76.7351ZM75.1077 74.3049L74.2977 74.1904L74.5264 72.5704L75.3367 72.6849L75.1077 74.3049V74.3049ZM75.4509 71.8748L74.6409 71.7603L74.8696 70.1402L75.6796 70.2541L75.4509 71.8748ZM68.8618 62.3945L68.7256 61.5874L70.3393 61.3151L70.4755 62.1221L68.8618 62.3945ZM3.51044 73.4174L3.37423 72.6103L4.98791 72.3383L5.12412 73.1453L3.51044 73.4174ZM5.93081 73.0088L5.79496 72.2021L7.40864 71.9301L7.54479 72.7368L5.93081 73.0088V73.0088ZM8.35148 72.6006L8.21534 71.7936L9.82902 71.5215L9.96523 72.3285L8.35148 72.6006ZM10.7722 72.1923L10.636 71.3853L12.2497 71.1127L12.3859 71.9197L10.7722 72.1923ZM13.1926 71.7838L13.0564 70.9768L14.6704 70.7044L14.8063 71.5111L13.1926 71.7838V71.7838ZM15.6133 71.375L15.4771 70.5686L17.0908 70.2959L17.227 71.1029L15.6133 71.375ZM18.034 70.9667L17.8978 70.1597L19.5115 69.888L19.6477 70.6946L18.034 70.9667V70.9667ZM20.4544 70.5585L20.3182 69.7515L21.9319 69.4797L22.068 70.2864L20.4544 70.5585V70.5585ZM22.875 70.1503L22.7389 69.3432L24.3526 69.0715L24.4888 69.8782L22.875 70.1503V70.1503ZM25.2955 69.742L25.1593 68.935L26.7729 68.6633L26.9089 69.47L25.2955 69.742V69.742ZM27.7158 69.3341L27.5796 68.5271L29.193 68.2551L29.3292 69.0618L27.7158 69.3341V69.3341ZM30.1362 68.9259L30.0001 68.1189L31.6135 67.8468L31.7496 68.6532L30.1362 68.9259ZM32.5563 68.5176L32.4204 67.7107L34.0338 67.4383L34.17 68.245L32.5563 68.5176ZM34.9767 68.1094L34.8408 67.3024L36.4542 67.03L36.5904 67.8367L34.9767 68.1094ZM37.3971 67.7012L37.2609 66.8942L38.8746 66.6218L39.0108 67.4285L37.3971 67.7012ZM39.8175 67.293L39.6813 66.4859L41.295 66.2136L41.4312 67.0203L39.8175 67.293ZM42.2379 66.8847L42.1017 66.0774L43.7154 65.8054L43.8515 66.612L42.2379 66.8847ZM44.6582 66.4762L44.5221 65.6692L46.1358 65.3971L46.272 66.2041L44.6582 66.4762ZM47.0787 66.0679L46.9425 65.2609L48.5561 64.9889L48.6923 65.7959L47.0787 66.0679ZM49.499 65.6597L49.3628 64.8527L50.9766 64.5809L51.1127 65.3877L49.499 65.6597ZM51.9194 65.2515L51.7833 64.4445L53.3969 64.1727L53.5331 64.9794L51.9194 65.2515ZM54.3398 64.8433L54.2036 64.0362L55.8173 63.7645L55.9532 64.5712L54.3398 64.8433ZM56.7602 64.435L56.624 63.628L58.2374 63.3563L58.3736 64.163L56.7602 64.435ZM59.1806 64.0271L59.0444 63.2201L60.6578 62.948L60.794 63.7544L59.1806 64.0271ZM61.6007 63.6188L61.4648 62.8119L63.0782 62.5398L63.2143 63.3468L61.6007 63.6188ZM64.021 63.2106L63.8849 62.4039L65.4986 62.1313L65.6347 62.9382L64.021 63.2106ZM66.4414 62.8024L66.3053 61.9957L67.9189 61.7236L68.0552 62.53L66.4414 62.8024ZM5.50179 86.4555L7.46482 86.4484L7.46512 88.5497L5.50245 88.5546L5.50179 86.4555ZM11.6406 86.4332H12.501V88.6844H11.6406V86.4332ZM6.44529 81.0299C6.4401 81.0544 6.44776 81.0492 6.42364 81.0467C6.42639 81.0709 6.43276 81.0669 6.41016 81.0648C6.41352 81.0877 6.41876 81.0828 6.39555 81.0813C6.39891 81.1051 6.40438 81.1005 6.38148 81.098C6.38362 81.1215 6.38975 81.1167 6.36746 81.1151C6.37082 81.1377 6.37541 81.1316 6.3519 81.131C6.35434 81.1539 6.3601 81.1497 6.33842 81.1481C6.34117 81.1719 6.34665 81.1667 6.32375 81.1646L6.15677 81.3249C6.16135 81.3493 6.16653 81.3438 6.1421 81.3414C6.14729 81.3661 6.15311 81.3622 6.12868 81.3588C6.13174 81.3826 6.13751 81.3774 6.11461 81.3756C6.11827 81.3982 6.1229 81.3924 6.1 81.3918C6.1003 81.4141 6.10575 81.4089 6.08408 81.408C6.08743 81.4318 6.09326 81.4272 6.07036 81.4248C6.0725 81.4495 6.078 81.4431 6.05235 81.4431L5.85293 81.6485C5.84804 81.6763 5.85664 81.6712 5.83038 81.6672C5.83527 81.6928 5.84135 81.6879 5.81631 81.684C5.82089 81.7093 5.82701 81.7044 5.80289 81.702C5.80625 81.7261 5.81233 81.7221 5.78882 81.7188C5.79218 81.7423 5.7974 81.7371 5.7748 81.7359C5.77755 81.7582 5.78243 81.7527 5.75984 81.7521C5.76258 81.7759 5.76836 81.7719 5.74576 81.7689C5.74759 81.7924 5.75344 81.7875 5.73115 81.7856C5.73359 81.8079 5.73877 81.8025 5.71648 81.8022C5.71892 81.8257 5.7247 81.8208 5.70241 81.8196C5.70454 81.8425 5.71003 81.8373 5.68744 81.8354C5.68958 81.8589 5.69542 81.8537 5.67283 81.8519C5.67619 81.8757 5.68166 81.8708 5.65846 81.8684C5.6609 81.8922 5.66669 81.8873 5.64349 81.8849C5.64685 81.9087 5.65233 81.9032 5.62852 81.9014C5.63188 81.9255 5.6383 81.9215 5.6154 81.9194L5.53572 81.9796C5.5403 82.0046 5.5452 81.9994 5.52016 81.9945C5.52321 82.0186 5.5293 82.014 5.50579 82.0116C5.50945 82.0363 5.51588 82.0327 5.49237 82.0293C5.49664 82.0525 5.50092 82.0461 5.4771 82.0455C5.48077 82.0693 5.48594 82.0641 5.46243 82.062C5.46701 82.0867 5.47343 82.0825 5.44931 82.0788C5.45023 82.1023 5.45631 82.0977 5.43494 82.0962C5.4386 82.12 5.44378 82.1151 5.42027 82.1124C5.42271 82.1356 5.4279 82.1304 5.405 82.1285C5.40775 82.1527 5.41388 82.1484 5.39129 82.1457C5.39434 82.1713 5.39921 82.1637 5.37173 82.1637L4.35923 83.2234C4.35618 83.2488 4.36385 83.244 4.34003 83.2418C4.34278 83.265 4.34827 83.2604 4.32506 83.2577C4.3275 83.2809 4.33363 83.2766 4.31134 83.2754C4.3144 83.2992 4.31988 83.294 4.29667 83.2918C4.29912 83.3141 4.3043 83.3086 4.28171 83.3074C4.28506 83.3328 4.29145 83.3288 4.26763 83.3251C4.26946 83.3492 4.27589 83.3456 4.25421 83.3419C4.25879 83.3658 4.26399 83.3603 4.24109 83.36C4.24659 83.3859 4.25119 83.3795 4.22493 83.3755C4.22799 83.3993 4.23377 83.3951 4.21056 83.392C4.21392 83.4165 4.21971 83.4122 4.19559 83.4085C4.19865 83.432 4.20417 83.4268 4.18158 83.425C4.18646 83.4522 4.19316 83.4482 4.16721 83.4427C4.1724 83.4693 4.17819 83.4653 4.15224 83.4583L4.10095 83.4845C4.10553 83.5093 4.11135 83.5044 4.08753 83.5025C4.09059 83.5264 4.09607 83.5211 4.07256 83.5187C4.07592 83.5425 4.0814 83.5377 4.05789 83.5355C4.06064 83.5581 4.06612 83.5536 4.04352 83.552C4.04688 83.5759 4.05241 83.5709 4.02921 83.5688C4.03104 83.5911 4.03653 83.5862 4.01424 83.5853C4.01638 83.6073 4.02184 83.6021 4.00017 83.6021C4.00291 83.625 4.0081 83.6201 3.9849 83.6176C3.98704 83.6415 3.99288 83.6372 3.97029 83.6342C3.97243 83.6564 3.97759 83.6518 3.95621 83.6509C3.95896 83.6738 3.96414 83.6687 3.94154 83.6674C3.9446 83.6928 3.95133 83.6891 3.92813 83.6854C3.93179 83.7099 3.93792 83.7056 3.91441 83.7026C3.91868 83.7285 3.92506 83.7245 3.90063 83.7203C3.90521 83.7456 3.911 83.7407 3.88596 83.737C3.89146 83.7612 3.89609 83.7554 3.87105 83.7523C3.87563 83.7783 3.88141 83.774 3.85668 83.7691C3.86157 83.796 3.86796 83.7923 3.84231 83.7865C3.84781 83.8128 3.853 83.8073 3.82674 83.8024C3.83224 83.828 3.83743 83.8231 3.81148 83.8183C3.81667 83.8436 3.82185 83.8387 3.79681 83.8345C3.80078 83.8589 3.80598 83.854 3.78124 83.8494C3.78552 83.875 3.79073 83.8696 3.76508 83.8659C3.76997 83.89 3.77483 83.8848 3.75071 83.8818C3.75407 83.9056 3.75896 83.9001 3.73514 83.8976L3.68905 83.9291C3.69088 83.9511 3.69635 83.9462 3.67467 83.9456C3.67681 83.9679 3.68235 83.963 3.66006 83.9618C3.66342 83.9862 3.66921 83.981 3.64539 83.9789C3.64753 84.0011 3.6533 83.9969 3.63162 83.9957C3.63528 84.0177 3.63991 84.0121 3.61701 84.0121C3.61945 84.0375 3.62643 84.0341 3.60353 84.0301C3.60719 84.0549 3.61393 84.0509 3.58981 84.0473C3.5947 84.0729 3.60018 84.0677 3.57514 84.0638C3.57972 84.0879 3.58431 84.0821 3.55958 84.079C3.49515 84.1181 3.48964 84.1578 3.43559 84.1889C3.43712 84.2115 3.44327 84.2072 3.42128 84.2054C3.42495 84.2283 3.43011 84.2228 3.40721 84.2225C3.41057 84.2463 3.41575 84.2412 3.39224 84.239L3.37852 84.2558C3.38158 84.2793 3.38704 84.2744 3.36445 84.2729C3.36689 84.2958 3.37179 84.2897 3.34859 84.2885C3.35164 84.3129 3.35808 84.3089 3.33487 84.3059C3.33762 84.3294 3.34309 84.3245 3.3208 84.3227C3.32385 84.3465 3.32939 84.3413 3.30619 84.3389C3.31046 84.3648 3.31743 84.3611 3.2933 84.3575C3.29758 84.3834 3.30129 84.3743 3.27106 84.3743L3.03902 84.6255L4.21694 84.632L4.2179 90.4966L8.85988 90.5009C8.82873 90.2972 8.8504 87.4471 8.8504 86.9333C8.8504 86.8169 8.82536 86.518 8.88337 86.4368L10.9612 86.431L10.963 90.5023L13.9617 90.4966L13.9627 84.6268L15.1449 84.6228L14.9089 84.374C14.8793 84.374 14.8829 84.3828 14.8866 84.3572C14.8625 84.3612 14.8692 84.3648 14.8735 84.3389C14.8509 84.3413 14.8564 84.3462 14.8591 84.3224C14.8365 84.3242 14.8423 84.3291 14.8447 84.3059C14.8215 84.3089 14.828 84.3129 14.8307 84.2885C14.8078 84.2897 14.8127 84.2958 14.8152 84.2729C14.7926 84.2744 14.798 84.2793 14.8011 84.2558L14.7874 84.239C14.7639 84.2412 14.7693 84.2463 14.7724 84.2225C14.7495 84.2228 14.7547 84.2283 14.7583 84.2054C14.7363 84.2072 14.7422 84.2115 14.744 84.1889C14.6903 84.1575 14.6842 84.1175 14.6197 84.0793C14.5953 84.0824 14.6002 84.0879 14.6048 84.0635C14.5803 84.0671 14.5864 84.0714 14.5907 84.0461C14.5672 84.0494 14.5733 84.0543 14.5764 84.0298C14.5532 84.0341 14.5599 84.0378 14.5626 84.0121C14.54 84.0121 14.5446 84.0177 14.548 83.9957C14.5266 83.9969 14.5324 84.0011 14.5342 83.9789C14.5104 83.981 14.5162 83.9862 14.5196 83.9618C14.4973 83.963 14.5028 83.9679 14.5049 83.9456C14.4836 83.9459 14.489 83.9511 14.4906 83.9291C14.4677 83.9309 14.4734 83.9358 14.4762 83.912C14.453 83.9141 14.4597 83.9193 14.457 83.8952L14.3168 83.755C14.2842 83.755 14.2881 83.7648 14.2939 83.7364C14.2689 83.7407 14.2747 83.745 14.2796 83.7196C14.2558 83.7239 14.2625 83.7279 14.2659 83.7023C14.2423 83.7053 14.2478 83.7096 14.2515 83.6854C14.2283 83.6891 14.235 83.6928 14.2381 83.6674C14.2155 83.6687 14.2206 83.6738 14.2234 83.6509C14.202 83.6518 14.2075 83.6564 14.2094 83.6342C14.1865 83.6372 14.1926 83.6415 14.1947 83.6176C14.1715 83.6201 14.1767 83.625 14.1791 83.6021C14.1578 83.6021 14.1632 83.6073 14.1654 83.5853C14.1431 83.5862 14.1486 83.5914 14.1501 83.5691C14.1269 83.5709 14.1324 83.5759 14.1358 83.552C14.1126 83.5542 14.1184 83.559 14.1217 83.5352C14.0985 83.5371 14.104 83.5416 14.1077 83.5178C14.0839 83.5209 14.0894 83.5261 14.0927 83.5022C14.0695 83.5038 14.0753 83.5081 14.0793 83.4842C14.0396 83.4641 14.0417 83.4534 13.9984 83.425C13.9758 83.4265 13.981 83.4311 13.9843 83.4082C13.9599 83.4122 13.9657 83.4171 13.969 83.392C13.9461 83.3951 13.9523 83.399 13.9556 83.3749C13.9294 83.3789 13.9342 83.3847 13.9391 83.3597C13.9156 83.3603 13.9208 83.3655 13.9257 83.3419C13.904 83.3456 13.9107 83.3489 13.9123 83.3251C13.8882 83.3288 13.8948 83.3328 13.8982 83.3068C13.8759 83.3087 13.8811 83.3138 13.8832 83.2916C13.86 83.294 13.8653 83.2989 13.8683 83.2754C13.846 83.2766 13.8518 83.2809 13.8545 83.2577C13.8313 83.2604 13.8365 83.265 13.8396 83.2415C13.8161 83.2437 13.8237 83.2482 13.8204 83.2231C11.3789 80.6922 11.7489 81.0342 9.08673 78.2615L6.44529 81.0299V81.0299ZM19.3066 85.355C20.139 85.3523 20.9713 85.3492 21.8036 85.3468C21.8036 86.2371 21.8039 87.1284 21.8042 88.0191C20.9719 88.0209 20.1396 88.0227 19.3075 88.0248C19.3072 87.1348 19.3069 86.2448 19.3066 85.355ZM27.115 85.3269C27.4795 85.3269 27.8444 85.3269 28.2093 85.3269C28.2093 86.2814 28.2093 87.2359 28.2093 88.1907C27.8444 88.1907 27.4795 88.1907 27.115 88.1907C27.115 87.2359 27.115 86.2814 27.115 85.3269ZM20.5069 78.4541C20.5005 78.4856 20.51 78.4792 20.4791 78.4759C20.4828 78.5061 20.4907 78.5008 20.462 78.4984C20.4666 78.528 20.473 78.521 20.4434 78.5188C20.4477 78.5497 20.455 78.5442 20.4257 78.5409C20.4284 78.5705 20.4361 78.565 20.408 78.5632C20.4122 78.5912 20.4177 78.5836 20.3881 78.5827C20.3912 78.6117 20.3988 78.6059 20.371 78.605C20.3744 78.6349 20.3817 78.6288 20.3524 78.6257C20.2816 78.6935 20.2107 78.761 20.1398 78.8291C20.1457 78.8602 20.1524 78.8535 20.1212 78.8499C20.1277 78.8823 20.1353 78.8767 20.1041 78.8724C20.1081 78.9027 20.1154 78.8966 20.0864 78.8941C20.0907 78.9228 20.0965 78.9155 20.0675 78.9146C20.0681 78.9427 20.0751 78.9363 20.0477 78.9347C20.0516 78.9656 20.0593 78.9598 20.0299 78.9564C20.0327 78.9878 20.0397 78.9797 20.007 78.9797C19.9225 79.0667 19.8382 79.154 19.7536 79.2407C19.7469 79.2761 19.7579 79.27 19.7246 79.2648C19.731 79.2975 19.7386 79.2917 19.7069 79.2865C19.7127 79.3182 19.7203 79.3121 19.6895 79.3091C19.6941 79.3402 19.7017 79.3344 19.6718 79.3304C19.676 79.36 19.6828 79.3537 19.6538 79.3521C19.6577 79.3811 19.6639 79.3735 19.6349 79.3732C19.6382 79.4031 19.6458 79.3977 19.6171 79.3943C19.6196 79.4236 19.6269 79.4181 19.5985 79.4156C19.6019 79.4437 19.6083 79.437 19.5796 79.4364C19.5829 79.466 19.5902 79.4602 19.5622 79.4584C19.5649 79.4877 19.5717 79.4813 19.543 79.4789C19.5457 79.5085 19.553 79.5024 19.5246 79.4999C19.5286 79.5301 19.5356 79.5237 19.506 79.521C19.5093 79.5509 19.5164 79.5454 19.4871 79.5417C19.4914 79.5713 19.498 79.5653 19.4681 79.5622C19.4724 79.5934 19.4804 79.5879 19.4514 79.5854C19.4175 79.6108 19.3839 79.6364 19.35 79.6621C19.3558 79.6935 19.3619 79.6871 19.3301 79.6813C19.3341 79.7118 19.3414 79.706 19.3118 79.7027C19.3164 79.7344 19.3246 79.7295 19.295 79.7256C19.2999 79.7543 19.3057 79.747 19.2752 79.7454C19.2801 79.7763 19.2868 79.7695 19.2565 79.7668C19.2623 79.7982 19.2706 79.7931 19.2398 79.7888C19.241 79.8184 19.2489 79.8126 19.2218 79.8107C19.2263 79.8407 19.233 79.8345 19.2028 79.8315C19.2062 79.8605 19.2129 79.8538 19.1839 79.8519C19.1872 79.8819 19.1949 79.8764 19.1662 79.8737C19.1698 79.906 19.1759 79.8963 19.1411 79.8963C18.7121 80.3454 18.2828 80.7948 17.8535 81.244C17.8496 81.2757 17.8593 81.27 17.8291 81.2675C17.8327 81.2974 17.8395 81.2907 17.8099 81.288C17.8132 81.3176 17.8209 81.3121 17.7928 81.3103C17.7964 81.3402 17.8034 81.3341 17.7738 81.331C17.7772 81.3594 17.7836 81.353 17.7549 81.3512C17.7592 81.3832 17.7674 81.3786 17.7372 81.3734C17.7393 81.4043 17.7476 81.3994 17.7198 81.3954C17.7259 81.4251 17.7326 81.4183 17.703 81.4177C17.7103 81.4507 17.7161 81.4431 17.6826 81.4379C17.6865 81.4681 17.6938 81.4623 17.6642 81.4586C17.6685 81.4898 17.6758 81.4843 17.6456 81.4794C17.6493 81.509 17.6563 81.5026 17.6273 81.5008C17.6337 81.5353 17.6422 81.5304 17.6096 81.5228C17.6157 81.5566 17.6233 81.5512 17.5903 81.5432C17.5683 81.5545 17.5467 81.5655 17.525 81.5765C17.5305 81.6079 17.5381 81.6018 17.5079 81.5988C17.5119 81.629 17.5186 81.6229 17.489 81.6195C17.4933 81.6501 17.5002 81.6434 17.4703 81.6413C17.474 81.6703 17.4807 81.6638 17.4523 81.662C17.4563 81.6925 17.4633 81.6858 17.4337 81.6834C17.4361 81.7121 17.4428 81.7059 17.4147 81.7041C17.4175 81.7322 17.4242 81.7261 17.397 81.7258C17.4004 81.7554 17.4071 81.7484 17.3775 81.7463C17.3803 81.7762 17.3876 81.7704 17.3589 81.7667C17.3613 81.7948 17.3683 81.789 17.3408 81.7884C17.3445 81.8168 17.3512 81.8104 17.3222 81.8092C17.3262 81.8409 17.3347 81.8363 17.3054 81.8317C17.3097 81.8632 17.3176 81.8577 17.2877 81.8537C17.2932 81.8867 17.3011 81.8815 17.27 81.8757C17.2761 81.9084 17.2834 81.9023 17.2517 81.8971C17.2584 81.9279 17.2645 81.9212 17.2325 81.9169C17.2383 81.9499 17.2459 81.9441 17.2142 81.9386C17.2206 81.9728 17.2288 81.9676 17.1961 81.9606C17.2031 81.9939 17.2099 81.9869 17.1763 81.9808C17.1833 82.0134 17.19 82.0067 17.1568 82.0012C17.1635 82.0327 17.1702 82.0266 17.1378 82.0211C17.1433 82.0528 17.1497 82.0467 17.1183 82.04C17.1238 82.073 17.1305 82.0657 17.0978 82.0611C17.1039 82.0919 17.1103 82.0855 17.0792 82.0818C17.0837 82.1121 17.0902 82.1047 17.0597 82.1013C17.0401 82.1151 17.0206 82.1282 17.0013 82.1417C17.0035 82.1694 17.0102 82.1636 16.9827 82.1621C16.9855 82.1914 16.9925 82.1847 16.9641 82.1835C16.9686 82.2141 16.9757 82.2082 16.9458 82.2046C16.9482 82.2336 16.9555 82.2278 16.928 82.2266C16.9323 82.2544 16.9385 82.247 16.9094 82.247C16.9125 82.2797 16.9216 82.2751 16.8923 82.2702C16.8972 82.3023 16.9054 82.2968 16.8749 82.2919C16.881 82.3245 16.8881 82.3185 16.856 82.313C16.8621 82.3432 16.8679 82.3362 16.8364 82.3331C16.7543 82.382 16.7476 82.432 16.6786 82.472C16.6807 82.5013 16.6884 82.4955 16.6606 82.4931C16.6652 82.5221 16.6716 82.5157 16.6426 82.5145C16.6468 82.5453 16.6535 82.5386 16.6236 82.5355C16.6178 82.5426 16.612 82.5499 16.6059 82.5573C16.6099 82.5869 16.6172 82.5807 16.5885 82.5792C16.5913 82.6076 16.5974 82.6009 16.5684 82.5985C16.5721 82.6296 16.58 82.6247 16.5507 82.6211C16.554 82.651 16.5614 82.6446 16.533 82.6424C16.5366 82.6726 16.5436 82.6659 16.514 82.6635C16.5195 82.6961 16.5284 82.6919 16.4978 82.6867C16.5033 82.7196 16.5079 82.7084 16.4695 82.7084C16.3708 82.8149 16.2725 82.9212 16.1742 83.0281C16.6734 83.0302 17.173 83.0333 17.6725 83.0357C17.6728 85.5224 17.6734 88.0084 17.674 90.495C19.6419 90.4971 21.6098 90.499 23.578 90.5009C23.5386 90.2413 23.566 86.6163 23.566 85.9632C23.566 85.8148 23.5343 85.4341 23.6078 85.3309C24.4887 85.3288 25.3696 85.3263 26.2508 85.3239C26.2514 87.0499 26.2524 88.7763 26.253 90.5023C27.5244 90.4996 28.7958 90.4971 30.0669 90.495C30.0675 88.0062 30.0678 85.5172 30.0684 83.0287C30.5695 83.0268 31.0708 83.0256 31.5722 83.0241C31.472 82.9184 31.3719 82.8131 31.2717 82.7072C31.2339 82.7072 31.2388 82.7184 31.2437 82.6864C31.2128 82.6906 31.2214 82.6958 31.2266 82.6635C31.1979 82.6659 31.2052 82.6717 31.2085 82.6421C31.1798 82.6443 31.1869 82.6507 31.1902 82.6211C31.1609 82.6247 31.1688 82.6296 31.1725 82.5985C31.1432 82.6009 31.1493 82.6076 31.1524 82.5792C31.1237 82.5807 31.131 82.5869 31.135 82.5573C31.1289 82.5499 31.1231 82.5426 31.1173 82.5355C31.0874 82.5386 31.094 82.5453 31.0983 82.5145C31.0693 82.5157 31.0757 82.5221 31.0803 82.4931C31.0525 82.4955 31.0599 82.5013 31.0623 82.472C30.9936 82.432 30.986 82.3817 30.9042 82.3331C30.8727 82.3368 30.8791 82.3432 30.8852 82.3126C30.854 82.3169 30.8617 82.3224 30.8672 82.291C30.8373 82.295 30.8449 82.3004 30.8489 82.2693C30.8193 82.2751 30.8281 82.2797 30.8312 82.247C30.8025 82.247 30.8083 82.2544 30.8128 82.2266C30.7854 82.2278 30.7927 82.2336 30.7951 82.2046C30.7652 82.2082 30.7722 82.2141 30.7768 82.1835C30.7484 82.1847 30.7554 82.1914 30.7582 82.1621C30.7307 82.1636 30.7377 82.1694 30.7399 82.1417C30.7105 82.1441 30.7179 82.1502 30.7215 82.1197C30.6919 82.1228 30.7008 82.1288 30.6971 82.0986C30.6376 82.0388 30.578 81.9795 30.5188 81.92C30.4776 81.92 30.4822 81.9325 30.4895 81.8965C30.4577 81.9017 30.4654 81.9075 30.4715 81.8754C30.4413 81.8809 30.4498 81.8852 30.4538 81.8534C30.4239 81.8568 30.4309 81.8629 30.4358 81.8317C30.4062 81.8363 30.4147 81.8409 30.4187 81.8092C30.39 81.8104 30.3964 81.8168 30.4 81.7884C30.3726 81.789 30.3796 81.7948 30.3823 81.7667C30.353 81.7704 30.3606 81.7762 30.3634 81.7463C30.3338 81.7484 30.3405 81.7554 30.3439 81.7258C30.3164 81.7261 30.3234 81.7322 30.3262 81.7041C30.2981 81.7059 30.3048 81.7121 30.3069 81.6837C30.2773 81.6858 30.2843 81.6925 30.2886 81.662C30.2593 81.6648 30.2663 81.6708 30.2706 81.6406C30.241 81.643 30.2483 81.6489 30.2529 81.6189C30.2226 81.6226 30.2293 81.629 30.2336 81.5988C30.2043 81.6006 30.2117 81.6064 30.2166 81.5762C30.1662 81.5508 30.1689 81.5371 30.1136 81.5005C30.0849 81.5026 30.0919 81.5087 30.0956 81.4794C30.0648 81.4843 30.0721 81.4901 30.0764 81.4586C30.0471 81.4623 30.055 81.4678 30.0593 81.4366C30.026 81.4418 30.0321 81.4492 30.0382 81.4174C30.0086 81.4181 30.0153 81.4248 30.0214 81.3951C29.9939 81.3994 30.0022 81.4037 30.004 81.3734C29.9738 81.3783 29.9823 81.3829 29.9866 81.3508C29.9579 81.3524 29.9643 81.3588 29.9674 81.3307C29.9378 81.3335 29.9445 81.3402 29.9481 81.3103C29.92 81.3121 29.9274 81.3176 29.931 81.288C29.9014 81.2907 29.9081 81.2971 29.9118 81.2669C29.8819 81.2696 29.8913 81.2757 29.8874 81.244C26.7821 78.0251 27.2526 78.4599 23.8665 74.9327C22.7465 76.1067 21.6269 77.2807 20.5069 78.4541V78.4541ZM35.621 84.2546C36.631 84.2509 37.6411 84.2479 38.6514 84.2445C38.6517 85.3254 38.652 86.4069 38.6523 87.4878C37.642 87.4905 36.6319 87.493 35.6219 87.4951C35.6216 86.4148 35.6213 85.3349 35.621 84.2546ZM45.0982 84.2207C45.541 84.2207 45.984 84.2207 46.4267 84.2207C46.4267 85.3788 46.4267 86.5376 46.4267 87.696C45.984 87.696 45.541 87.696 45.0982 87.696C45.0982 86.5376 45.0982 85.3788 45.0982 84.2207ZM37.0777 75.8787C37.0695 75.9168 37.0814 75.9089 37.0441 75.9043C37.0484 75.9422 37.0582 75.9355 37.0234 75.9318C37.0286 75.9681 37.0365 75.9599 37.0005 75.9574C37.0057 75.9944 37.0145 75.9873 36.9788 75.9834C36.9824 76.0197 36.9916 76.013 36.9574 76.0106C36.9629 76.0448 36.9693 76.0356 36.9333 76.0344C36.9372 76.0701 36.9461 76.0628 36.9125 76.0613C36.9171 76.0976 36.9253 76.0903 36.8899 76.0866C36.8041 76.1687 36.7183 76.2512 36.6322 76.3339C36.6392 76.3715 36.6472 76.3635 36.6093 76.359C36.6173 76.3977 36.6264 76.3913 36.5889 76.3858C36.5934 76.4227 36.6023 76.4154 36.5672 76.4124C36.5723 76.4469 36.5794 76.4384 36.5443 76.4377C36.5449 76.4713 36.5534 76.4634 36.5202 76.4615C36.525 76.4988 36.5342 76.4917 36.4988 76.4881C36.5022 76.5262 36.5104 76.5159 36.471 76.5159C36.3684 76.6221 36.2658 76.7275 36.1632 76.8331C36.1553 76.8759 36.1684 76.8685 36.1281 76.8624C36.1361 76.9015 36.1449 76.8948 36.1064 76.8884C36.1137 76.9269 36.1229 76.9198 36.0857 76.9158C36.0908 76.9534 36.1 76.947 36.064 76.9421C36.0692 76.9782 36.0774 76.9699 36.0423 76.969C36.0469 77.0032 36.0542 76.9949 36.0191 76.9937C36.0234 77.0304 36.0326 77.0236 35.9975 77.0194C36.0005 77.0551 36.0097 77.0484 35.9752 77.0453C35.9791 77.0798 35.9868 77.0716 35.9523 77.071C35.9562 77.1064 35.965 77.0994 35.9308 77.097C35.9342 77.1327 35.9428 77.125 35.9076 77.1223C35.911 77.1577 35.9199 77.1504 35.885 77.1479C35.8899 77.1843 35.8985 77.1767 35.8625 77.173C35.8665 77.2096 35.8753 77.2022 35.8399 77.1983C35.8451 77.2349 35.853 77.2267 35.817 77.2236C35.8216 77.2612 35.8316 77.2551 35.7962 77.2514C35.7553 77.2826 35.7144 77.3134 35.6735 77.3446C35.6802 77.383 35.6878 77.3751 35.6494 77.3681C35.6539 77.4053 35.6631 77.3977 35.6271 77.394C35.6326 77.4328 35.6426 77.4267 35.6063 77.4218C35.6127 77.4569 35.6194 77.4478 35.5828 77.4459C35.5883 77.4829 35.5965 77.4752 35.5599 77.4716C35.5672 77.5104 35.577 77.5036 35.5398 77.4981C35.541 77.5342 35.5507 77.5271 35.5177 77.5253C35.5232 77.562 35.5315 77.554 35.4948 77.5498C35.4988 77.5849 35.5068 77.5769 35.4716 77.5751C35.4756 77.6121 35.4851 77.6047 35.4503 77.6014C35.4549 77.6404 35.4625 77.6288 35.4201 77.6288C34.8989 78.1745 34.3779 78.7195 33.857 79.2648C33.8521 79.3036 33.8638 79.296 33.8274 79.2929C33.8317 79.3293 33.8399 79.3216 33.8039 79.318C33.8082 79.3537 33.8173 79.3466 33.7831 79.3448C33.788 79.3814 33.7963 79.3738 33.7602 79.3701C33.7642 79.405 33.7718 79.397 33.737 79.3946C33.7422 79.4343 33.7526 79.4278 33.7157 79.4217C33.7181 79.4587 33.7282 79.4532 33.6946 79.448C33.702 79.4844 33.7102 79.4764 33.6745 79.4755C33.683 79.5155 33.69 79.5063 33.6497 79.4996C33.6543 79.5369 33.6634 79.5301 33.6274 79.5253C33.6323 79.5634 33.6412 79.5561 33.6045 79.5509C33.6091 79.5863 33.6176 79.5787 33.5825 79.5762C33.5901 79.6178 33.6006 79.6119 33.5606 79.6028C33.5682 79.6446 33.5777 79.6376 33.5374 79.6281C33.5111 79.6413 33.4845 79.6547 33.4583 79.6684C33.465 79.706 33.4741 79.6987 33.4372 79.6953C33.4421 79.7323 33.4506 79.7243 33.4143 79.7207C33.4195 79.7576 33.4281 79.75 33.392 79.7466C33.3963 79.782 33.4045 79.7744 33.3697 79.7723C33.3749 79.8089 33.3831 79.8013 33.3474 79.7979C33.3502 79.833 33.3587 79.8254 33.3245 79.823C33.3276 79.8575 33.3362 79.8498 33.3029 79.8495C33.3072 79.8852 33.315 79.8773 33.2793 79.8739C33.2824 79.9109 33.2915 79.9036 33.2564 79.8996C33.2595 79.9335 33.2681 79.9262 33.2348 79.9252C33.239 79.9603 33.2473 79.9518 33.2122 79.9509C33.2171 79.9897 33.2274 79.9836 33.1914 79.9781C33.1969 80.0162 33.2066 80.0095 33.1703 80.0053C33.1767 80.0447 33.1865 80.0385 33.1487 80.0315C33.1563 80.0712 33.1651 80.0642 33.1264 80.0572C33.1349 80.0953 33.1419 80.0865 33.1032 80.0816C33.1102 80.1216 33.1193 80.1146 33.0809 80.1081C33.0888 80.1491 33.0986 80.1432 33.0589 80.1344C33.0675 80.175 33.0757 80.1665 33.0351 80.1588C33.0436 80.1985 33.0516 80.1903 33.0113 80.1836C33.0192 80.2224 33.0274 80.2144 32.9884 80.208C32.9951 80.2467 33.003 80.2385 32.9646 80.2309C32.971 80.2709 32.9795 80.262 32.9395 80.2565C32.9471 80.2938 32.9548 80.2858 32.9172 80.2816C32.9227 80.3179 32.9304 80.31 32.8934 80.3057C32.8699 80.3216 32.8461 80.3378 32.8226 80.3543C32.825 80.3881 32.8335 80.3811 32.8003 80.3799C32.8033 80.4147 32.8119 80.4071 32.7777 80.4046C32.7829 80.4425 32.7914 80.4349 32.7551 80.4306C32.7578 80.4657 32.767 80.459 32.7337 80.4571C32.7392 80.491 32.7462 80.4822 32.7111 80.4822C32.7148 80.5219 32.7258 80.5167 32.6904 80.5097C32.6962 80.5487 32.7059 80.5427 32.6693 80.5369C32.6766 80.5759 32.6852 80.5683 32.6464 80.5622C32.6534 80.5995 32.6607 80.5906 32.6226 80.5863C32.523 80.6461 32.5145 80.7069 32.4311 80.7551C32.4339 80.7902 32.4427 80.7838 32.4091 80.7808C32.4146 80.8162 32.4226 80.8083 32.3875 80.8071C32.3924 80.844 32.4006 80.8364 32.364 80.8324C32.3569 80.8416 32.3499 80.8501 32.3429 80.8584C32.3477 80.8947 32.3563 80.8874 32.3215 80.8858C32.3252 80.9204 32.3325 80.9115 32.2971 80.9087C32.3013 80.9469 32.3111 80.9402 32.2757 80.9359C32.2797 80.9722 32.2885 80.9652 32.2537 80.9619C32.2586 80.9985 32.2671 80.9912 32.2314 80.9875C32.2378 81.0275 32.2486 81.022 32.2113 81.0159C32.218 81.0559 32.2238 81.0422 32.1768 81.0422C32.0574 81.171 31.938 81.3008 31.8186 81.4303C32.4247 81.433 33.0308 81.4363 33.6372 81.4397C33.6378 84.4573 33.6381 87.4756 33.6387 90.4935C36.0277 90.4957 38.4163 90.4984 40.8049 90.5009C40.7573 90.1854 40.7906 85.7862 40.7906 84.9926C40.7906 84.8134 40.7521 84.3508 40.8415 84.2253C41.9108 84.2225 42.9801 84.2201 44.0494 84.217C44.0503 86.3122 44.0512 88.4068 44.0521 90.5023C45.5953 90.499 47.1385 90.4966 48.6817 90.4935C48.6823 87.4725 48.6829 84.4515 48.6832 81.4309C49.2917 81.429 49.9 81.4272 50.5085 81.4254C50.387 81.2974 50.2654 81.1689 50.1442 81.041C50.0981 81.041 50.1039 81.0544 50.1097 81.0153C50.0721 81.0208 50.0825 81.0269 50.0892 80.9875C50.0541 80.9909 50.063 80.9982 50.0672 80.9615C50.0324 80.9646 50.041 80.9716 50.0449 80.9359C50.0092 80.9402 50.019 80.9469 50.0236 80.9087C49.9882 80.9115 49.9955 80.9204 49.9991 80.8858C49.964 80.8874 49.9729 80.8947 49.9775 80.8584C49.9705 80.8501 49.9635 80.8416 49.9564 80.8324C49.9198 80.8364 49.9283 80.844 49.9332 80.8071C49.8978 80.8083 49.906 80.8162 49.9112 80.7808C49.8776 80.7838 49.8868 80.7902 49.8895 80.7551C49.8065 80.7069 49.797 80.6458 49.6978 80.5866C49.6596 80.5906 49.6673 80.5991 49.6746 80.5613C49.6367 80.5667 49.6462 80.5738 49.6529 80.535C49.6166 80.5408 49.6258 80.5475 49.6307 80.5094C49.5949 80.5164 49.6053 80.5219 49.6092 80.4828C49.5741 80.4822 49.5814 80.491 49.5866 80.4571C49.5537 80.459 49.5625 80.4657 49.5653 80.4306C49.529 80.4349 49.5378 80.4425 49.543 80.4046C49.5085 80.4071 49.517 80.4147 49.5204 80.3796C49.4871 80.3805 49.4956 80.3878 49.4981 80.3543C49.4627 80.3576 49.4719 80.3649 49.4758 80.328C49.4401 80.3313 49.4508 80.339 49.4462 80.302C49.3741 80.23 49.3018 80.1573 49.2297 80.0858C49.1796 80.0858 49.1854 80.1005 49.1943 80.0569C49.1561 80.063 49.165 80.0703 49.1723 80.0309C49.1357 80.0373 49.146 80.0434 49.1512 80.004C49.1146 80.0086 49.1234 80.0159 49.1289 79.9781C49.0929 79.9836 49.1036 79.9897 49.1082 79.9509C49.0734 79.9518 49.081 79.9603 49.0856 79.9252C49.0526 79.9262 49.0609 79.9335 49.0639 79.8996C49.0288 79.9036 49.038 79.9109 49.0413 79.8739C49.0053 79.8773 49.0136 79.8852 49.0175 79.8495C48.9846 79.8498 48.9928 79.8575 48.9961 79.823C48.9619 79.8254 48.9702 79.833 48.9729 79.7982C48.9369 79.8016 48.9454 79.8089 48.9506 79.7723C48.9149 79.775 48.9235 79.783 48.9287 79.7463C48.893 79.7491 48.9015 79.7564 48.9073 79.7194C48.8703 79.7243 48.8786 79.732 48.8838 79.695C48.848 79.6972 48.8569 79.7045 48.863 79.6673C48.802 79.637 48.805 79.6199 48.7381 79.5757C48.7033 79.5787 48.7116 79.586 48.7161 79.5506C48.6789 79.5564 48.6877 79.5637 48.6932 79.5253C48.6575 79.5298 48.667 79.5363 48.6722 79.4987C48.6319 79.5048 48.6389 79.5139 48.6468 79.4752C48.6105 79.4758 48.6188 79.4844 48.6264 79.4477C48.5925 79.4529 48.6028 79.4587 48.605 79.4217C48.5683 79.4272 48.5787 79.4333 48.5839 79.3939C48.5491 79.3961 48.5571 79.4044 48.5607 79.3698C48.5244 79.3735 48.5327 79.3811 48.5372 79.3448C48.5033 79.3466 48.5122 79.354 48.5165 79.318C48.4804 79.3216 48.4887 79.3293 48.4933 79.2926C48.4569 79.296 48.4685 79.3036 48.4636 79.2645C44.6943 75.3575 45.2656 75.8854 41.1555 71.604C39.7961 73.029 38.437 74.454 37.0777 75.8787V75.8787ZM72.0699 61.4882L73.8547 60.2608L77.3001 65.2698L75.5154 66.4975L72.0699 61.4882V61.4882ZM66.5727 83.1141H68.1351V87.2017H66.5727V83.1141ZM57.1394 73.3029C57.13 73.3478 57.144 73.3386 57.0997 73.3334C57.1049 73.3774 57.1165 73.3694 57.0753 73.3654C57.0817 73.4079 57.0909 73.3984 57.0487 73.3957C57.0545 73.439 57.0652 73.4311 57.0231 73.4259C57.0274 73.4686 57.0383 73.461 56.998 73.4576C57.0042 73.4985 57.0121 73.4882 56.9697 73.4857C56.9742 73.5279 56.9849 73.5196 56.9452 73.5181C56.9504 73.5605 56.9605 73.5517 56.9187 73.5474L56.6155 73.8381C56.6237 73.8827 56.6332 73.8729 56.5886 73.8677C56.5981 73.9135 56.6088 73.9059 56.5645 73.8998C56.57 73.9428 56.5807 73.9339 56.5388 73.9312C56.5453 73.9712 56.5535 73.9615 56.512 73.9599C56.5129 74.0002 56.523 73.9911 56.4836 73.9889C56.4894 74.0323 56.5004 74.0243 56.4585 74.0198C56.4625 74.0649 56.4722 74.0524 56.4258 74.0524L56.064 74.4256C56.0546 74.4763 56.0701 74.4674 56.0228 74.46C56.032 74.5061 56.0424 74.4983 55.9972 74.4912C56.0057 74.5358 56.0164 74.5275 55.9727 74.5227C55.9788 74.5672 55.9898 74.5593 55.9471 74.5538C55.9532 74.5962 55.963 74.5871 55.9217 74.5853C55.9269 74.6259 55.9358 74.6155 55.8945 74.6146C55.8994 74.6576 55.9101 74.65 55.8689 74.6448C55.8726 74.6872 55.883 74.6784 55.8427 74.6753C55.8472 74.7159 55.8561 74.7059 55.8158 74.7056C55.8203 74.7474 55.8307 74.7388 55.7904 74.7364C55.7944 74.7779 55.8045 74.769 55.7633 74.7654C55.7673 74.8075 55.7776 74.7993 55.737 74.7959C55.7425 74.8387 55.7526 74.8295 55.7102 74.8255C55.715 74.8683 55.7254 74.8604 55.6836 74.8552C55.6897 74.8979 55.6992 74.8884 55.6564 74.8848C55.6622 74.929 55.6738 74.9217 55.6323 74.9174L55.4879 75.0271C55.4958 75.0726 55.5049 75.0625 55.4594 75.0546C55.4652 75.0985 55.4756 75.0897 55.4332 75.0854C55.4399 75.1303 55.4516 75.1233 55.4091 75.1175C55.4164 75.1593 55.4244 75.1486 55.381 75.1467C55.3877 75.1898 55.3975 75.1807 55.3544 75.1764C55.363 75.2219 55.3743 75.2145 55.3306 75.2078C55.3322 75.25 55.3435 75.2417 55.3047 75.2393C55.3114 75.2824 55.3208 75.2732 55.2778 75.2689C55.2827 75.3098 55.2918 75.3004 55.2503 75.2982C55.2552 75.3413 55.2665 75.3333 55.2253 75.3294C55.2307 75.3755 55.2396 75.3614 55.1898 75.3614L53.3514 77.2853C53.3459 77.3314 53.3597 77.3223 53.3163 77.3186C53.3218 77.3614 53.3316 77.3522 53.2891 77.3479C53.294 77.3903 53.3047 77.3824 53.2647 77.3797C53.2702 77.4233 53.2803 77.4142 53.2378 77.4093C53.2424 77.4502 53.2516 77.4407 53.2103 77.4386C53.2164 77.4847 53.2287 77.4774 53.185 77.4703C53.1881 77.514 53.2 77.507 53.1603 77.5012C53.1692 77.5437 53.1786 77.5345 53.1368 77.5332C53.1469 77.5803 53.1554 77.5696 53.1075 77.5623C53.1133 77.606 53.1237 77.5974 53.0815 77.5919C53.0873 77.6364 53.0977 77.6282 53.0543 77.6218C53.0601 77.6636 53.0699 77.6548 53.0287 77.6514C53.0375 77.7009 53.0498 77.6939 53.003 77.6835C53.0119 77.732 53.0229 77.7244 52.9756 77.7125L52.8825 77.7598C52.8904 77.8044 52.9011 77.7961 52.858 77.7925C52.8638 77.8355 52.8733 77.8264 52.8308 77.8218C52.8369 77.8652 52.847 77.856 52.8046 77.852C52.8095 77.8941 52.8193 77.885 52.7783 77.8819C52.7841 77.9253 52.7945 77.9164 52.752 77.9128C52.7554 77.9537 52.7655 77.9445 52.7252 77.9424C52.7289 77.9827 52.7386 77.9735 52.6999 77.9732C52.7047 78.0151 52.7142 78.0056 52.6721 78.0019C52.6757 78.0453 52.6864 78.0367 52.6452 78.0319C52.6488 78.0722 52.6586 78.0633 52.6195 78.0624C52.6247 78.1033 52.6342 78.0939 52.593 78.092C52.5988 78.1381 52.611 78.1308 52.5688 78.125C52.5753 78.1696 52.5865 78.1619 52.5438 78.1564C52.5514 78.2029 52.5631 78.1955 52.5185 78.1876C52.5271 78.234 52.5377 78.2251 52.4922 78.2178C52.502 78.2621 52.5105 78.252 52.4647 78.2465C52.473 78.2935 52.484 78.2853 52.4388 78.2767C52.4479 78.3259 52.4596 78.3186 52.4128 78.3082C52.4229 78.3558 52.4327 78.3464 52.3847 78.3372C52.3948 78.3839 52.404 78.3741 52.357 78.3659C52.3664 78.4117 52.3756 78.4023 52.3301 78.3949C52.3377 78.4398 52.3469 78.4312 52.3017 78.4221C52.3093 78.4685 52.3194 78.4584 52.2724 78.4523C52.2816 78.496 52.2904 78.4862 52.2461 78.4813C52.2525 78.5244 52.2617 78.5149 52.218 78.5094L52.1347 78.5668C52.1377 78.6071 52.1478 78.598 52.1084 78.5964C52.1124 78.638 52.1222 78.6288 52.0819 78.6261C52.088 78.67 52.0983 78.6615 52.0553 78.6569C52.0589 78.6978 52.0693 78.6899 52.0306 78.688C52.0367 78.7277 52.0449 78.7177 52.0037 78.718C52.0083 78.7638 52.0208 78.7573 51.9793 78.75C51.9863 78.7958 51.9979 78.7885 51.9542 78.7815C51.9634 78.8276 51.9734 78.819 51.9276 78.8111C51.9359 78.8547 51.9444 78.845 51.8995 78.8398C51.7823 78.9103 51.7729 78.9821 51.6742 79.0383C51.6776 79.0801 51.688 79.0722 51.6486 79.0688C51.655 79.1103 51.6645 79.1009 51.623 79.0996C51.6288 79.143 51.6385 79.1338 51.5955 79.1295L51.5707 79.1601C51.5762 79.2022 51.5863 79.1934 51.5454 79.1915C51.5496 79.2321 51.5585 79.2224 51.5167 79.2196C51.5219 79.2636 51.5335 79.2565 51.4916 79.2514C51.4962 79.2938 51.5066 79.2853 51.466 79.2816C51.4715 79.3249 51.4815 79.3161 51.4394 79.3115C51.447 79.3589 51.4599 79.3518 51.4159 79.3448C51.4238 79.3921 51.4303 79.3753 51.3753 79.3753L50.954 79.8321L53.0931 79.8431L53.0949 90.4917L61.5234 90.5005C61.4673 90.1298 61.5063 84.9553 61.5063 84.0225C61.5063 83.8109 61.4608 83.2675 61.5661 83.12L65.3389 83.1099L65.3422 90.5023L70.7872 90.4917L70.7891 79.8333L72.9356 79.8263L72.5072 79.3741C72.4532 79.3741 72.4599 79.3903 72.4669 79.3442C72.4229 79.3512 72.4349 79.3585 72.4428 79.3115C72.4016 79.3152 72.412 79.3237 72.4169 79.2813C72.3759 79.2846 72.3857 79.2935 72.3906 79.2514C72.3487 79.2565 72.3601 79.2636 72.3656 79.2196C72.3237 79.2224 72.3322 79.2321 72.3365 79.1915C72.2956 79.1934 72.306 79.2022 72.3115 79.1601L72.2865 79.1295C72.2437 79.1338 72.2535 79.143 72.2593 79.0996C72.2178 79.1009 72.2269 79.1103 72.2336 79.0688C72.194 79.0722 72.2046 79.0801 72.208 79.0383C72.11 78.9818 72.099 78.9097 71.9823 78.8401C71.9375 78.8453 71.9463 78.8547 71.9552 78.8105C71.9106 78.8172 71.9213 78.8251 71.9295 78.7796C71.8868 78.786 71.8975 78.7937 71.9036 78.7494C71.8611 78.7573 71.8736 78.7641 71.8782 78.718C71.837 78.7177 71.8453 78.7277 71.8517 78.688C71.8126 78.6899 71.8233 78.6978 71.8266 78.6569C71.7839 78.6615 71.794 78.67 71.8004 78.6261C71.7598 78.6288 71.7695 78.638 71.7738 78.5964C71.7347 78.598 71.7445 78.6068 71.7476 78.5668C71.7057 78.5705 71.7164 78.5793 71.7216 78.5357C71.6792 78.5396 71.6917 78.5485 71.6865 78.5054L71.4318 78.2508C71.3729 78.2508 71.3796 78.2682 71.3903 78.2172C71.3451 78.2248 71.3558 78.2328 71.3643 78.1867C71.3213 78.1943 71.3335 78.201 71.3393 78.1549C71.2965 78.1604 71.3066 78.169 71.3134 78.125C71.2712 78.1308 71.2835 78.1381 71.289 78.092C71.248 78.0939 71.2572 78.1033 71.2624 78.0624C71.2236 78.0633 71.2334 78.0722 71.237 78.0319C71.1955 78.0367 71.2062 78.0453 71.2102 78.0019C71.168 78.0056 71.1775 78.0151 71.1821 77.9732C71.1433 77.9735 71.1531 77.9827 71.157 77.9424C71.1167 77.9445 71.1268 77.9537 71.1296 77.9131C71.0874 77.9167 71.0975 77.9256 71.1036 77.8819C71.0615 77.8859 71.0715 77.8945 71.0776 77.8517C71.0355 77.8551 71.0459 77.8636 71.0526 77.8206C71.0093 77.8261 71.019 77.8353 71.0248 77.7913C70.983 77.7943 70.9934 77.8029 71.0007 77.7595C70.9286 77.7229 70.9323 77.7036 70.8539 77.6511C70.8129 77.6544 70.8224 77.6636 70.8279 77.6215C70.7839 77.6285 70.7943 77.6368 70.8007 77.5919C70.7589 77.5971 70.7699 77.6047 70.776 77.5604C70.729 77.5678 70.7372 77.5788 70.7463 77.5327C70.7036 77.5342 70.7131 77.5437 70.7219 77.5012C70.6826 77.507 70.6944 77.5137 70.6972 77.47C70.6538 77.4771 70.666 77.4841 70.6721 77.438C70.6312 77.4401 70.6404 77.4496 70.645 77.409C70.6022 77.4132 70.612 77.4224 70.6175 77.3794C70.5772 77.3824 70.5879 77.3903 70.5928 77.3479C70.5506 77.3522 70.5604 77.3611 70.5656 77.3183C70.5228 77.3223 70.5363 77.3311 70.5308 77.2853C66.0977 72.6904 66.7693 73.3114 61.9353 68.2755L57.1394 73.3029V73.3029Z" fill="#0456A4"/>
<path d="M14.24 14.912H10.56V12.416C11.5627 12.416 12.3627 12.3307 12.96 12.16C13.5787 11.9893 14.0693 11.712 14.432 11.328C14.7947 10.9227 15.1147 10.3467 15.392 9.6H17.76V32H14.24V14.912ZM27.2125 32.32C25.4845 32.32 24.1618 31.8293 23.2445 30.848C22.3272 29.8667 21.8685 28.48 21.8685 26.688V14.912C21.8685 13.12 22.3272 11.7333 23.2445 10.752C24.1618 9.77067 25.4845 9.28 27.2125 9.28C28.9405 9.28 30.2632 9.77067 31.1805 10.752C32.0978 11.7333 32.5565 13.12 32.5565 14.912V26.688C32.5565 28.48 32.0978 29.8667 31.1805 30.848C30.2632 31.8293 28.9405 32.32 27.2125 32.32ZM27.2125 29.12C28.4285 29.12 29.0365 28.384 29.0365 26.912V14.688C29.0365 13.216 28.4285 12.48 27.2125 12.48C25.9965 12.48 25.3885 13.216 25.3885 14.688V26.912C25.3885 28.384 25.9965 29.12 27.2125 29.12Z" fill="#0456A4"/>
</svg>
