<svg width="104" height="104" viewBox="0 0 104 104" fill="none" xmlns="http://www.w3.org/2000/svg">
<rect x="0.5" y="0.5" width="103" height="103" fill="#F8F8F8" stroke="#0456A4"/>
<path d="M14.24 14.912H10.56V12.416C11.5627 12.416 12.3627 12.3307 12.96 12.16C13.5787 11.9893 14.0693 11.712 14.432 11.328C14.7947 10.9227 15.1147 10.3467 15.392 9.6H17.76V32H14.24V14.912ZM27.0525 14.912H23.3725V12.416C24.3752 12.416 25.1752 12.3307 25.7725 12.16C26.3912 11.9893 26.8818 11.712 27.2445 11.328C27.6072 10.9227 27.9272 10.3467 28.2045 9.6H30.5725V32H27.0525V14.912Z" fill="#0456A4"/>
<path fill-rule="evenodd" clip-rule="evenodd" d="M77.6701 41.7333C77.4687 41.1796 77.1666 40.3741 76.9653 39.9713C76.5625 39.1659 72.8875 38.6624 72.233 39.2665C72.0317 39.4679 71.8806 40.1224 71.8806 40.7265C71.8806 42.4381 71.2765 42.6395 70.1186 41.1796L69.0614 39.8707L67.1987 40.9782C65.185 42.1864 65.034 42.5388 65.8395 44.0491C66.4939 45.2573 65.2354 45.9622 64.0775 45.0056C63.121 44.2001 62.1644 44.9049 61.2583 47.12C60.6542 48.58 60.7045 48.7813 61.7114 49.4358C63.3223 50.493 63.121 51.5502 61.3086 51.5502C59.8487 51.5502 59.7983 51.6006 59.7983 54.0674C59.7983 56.5342 59.8487 56.5845 61.3086 56.5845C63.0706 56.5845 63.423 57.8431 61.8121 58.3465C60.5535 58.7493 60.5535 59.4037 61.8624 61.5685C62.5169 62.676 63.1713 63.1794 63.7251 62.9781C63.8933 62.9319 64.0499 62.8881 64.1954 62.8473C65.1369 62.5839 65.6193 62.449 65.8302 62.6301C66.0519 62.8205 65.9739 63.3598 65.814 64.466C65.7905 64.6287 65.7652 64.8038 65.7388 64.9918C65.6381 65.5455 66.2926 66.2503 67.4505 66.9048L69.3635 67.9117L70.1186 66.7538C71.2262 65.1931 71.8806 65.3442 71.8806 67.2069V68.7171L74.5488 68.5661C76.9653 68.4151 77.1666 68.3144 77.3177 67.0055C77.519 65.3442 78.0728 65.2938 79.0293 66.7538L79.7341 67.811L81.8485 66.6531C83.4092 65.7973 83.9126 65.2435 83.6609 64.6394C82.7547 62.4746 82.7547 61.9209 83.7616 62.3236C86.027 63.2801 86.2787 63.1794 87.3863 61.1657L88.5441 59.152L87.2352 58.2962C85.7753 57.3396 86.027 56.5845 87.7387 56.5845C88.6448 56.5845 88.9972 56.2321 89.2489 55.0742C89.702 52.9095 89.1482 51.5502 87.7387 51.5502C85.9766 51.5502 85.7753 50.6944 87.1849 49.7379C88.4434 48.9324 88.4435 48.882 87.638 47.3718C86.2787 44.6029 85.9766 44.4015 84.6677 45.2574C83.3085 46.1132 82.654 45.5091 83.4595 44.0491C84.1643 42.6899 84.1643 42.6899 82.1002 41.2299L80.1872 39.921L79.0797 41.3306C78.0225 42.5892 77.9721 42.6395 77.6701 41.7333ZM46.4575 63.6325L34.7779 55.8294L23.048 48.0262H19.524H16V50.493V52.9598L27.1258 60.3602L38.3019 67.7606L27.1761 75.1107L16.0503 82.5111L16 84.8772V87.2937H19.7254H23.5011L35.231 79.4905L46.9609 71.6874H54.8144C62.5169 71.6874 62.8189 71.637 65.8395 70.2274L68.9607 68.7171L67.0477 67.7606C65.9402 67.2069 64.4299 66.049 63.6244 65.1931L62.1141 63.6325H54.311H46.4575ZM59.5466 58.9003C58.6908 56.0811 58.5901 52.0536 59.2446 49.6372L59.748 48.0262H43.7893C33.9221 48.0262 28.0823 48.2276 28.3844 48.4793C28.6361 48.731 33.1669 51.8019 38.4026 55.2756L47.9678 61.6188H54.1599C57.5329 61.6188 60.3018 61.5685 60.3018 61.4678C60.3018 61.433 60.1339 60.8705 59.8974 60.0784L59.8974 60.0783C59.7913 59.7229 59.6714 59.3212 59.5466 58.9003ZM33.62 67.7103C33.62 67.5593 29.945 64.9918 25.4141 62.0719C21.9142 59.7517 18.7214 57.708 17.3476 56.8286C16.9627 56.5822 16.7206 56.4272 16.6545 56.3831C16.151 56.0811 16 58.4975 16 67.6096C16 74.0032 16.151 79.2388 16.3524 79.2388C16.9062 79.2388 33.62 68.0627 33.62 67.7103ZM75.4046 70.9826C75.4046 70.1771 75.0522 69.6737 74.2971 69.4723C72.7868 69.0695 71.1255 69.0695 70.7227 69.5226C70.5214 69.6737 70.3703 70.3785 70.3703 70.9826C70.3703 72.6942 69.5145 72.8956 68.558 71.486C67.7525 70.2274 67.7022 70.2274 66.1919 71.0329C63.423 72.3922 63.272 72.6439 64.1278 74.0032C64.883 75.0604 64.883 75.2114 64.1782 75.5134C63.7251 75.6645 62.9196 75.5638 62.3658 75.2114C61.4597 74.7583 61.2079 74.9093 60.3018 76.3189C59.0432 78.383 59.0432 79.0878 60.3018 79.8429C61.8121 80.7994 61.5603 81.756 59.7983 81.756C58.3384 81.756 58.2881 81.8063 58.2881 84.2731C58.2881 86.7399 58.3384 86.7903 59.7983 86.7903C61.5603 86.7903 61.8121 87.7468 60.3018 88.7033C59.0432 89.4584 59.0432 89.8108 60.3521 92.0259C61.359 93.7879 61.4093 93.7879 62.8189 93.0831C64.4802 92.2273 65.185 92.7811 64.3292 94.3417C63.6244 95.6506 64.1782 96.4561 66.3933 97.3623C67.7525 97.9664 68.0042 97.916 68.6587 96.9092C69.7159 95.3989 70.3703 95.6003 70.3703 97.3623C70.3703 98.8222 70.4207 98.8726 72.8875 98.8726C75.2033 98.8726 75.4046 98.7719 75.4046 97.6643C75.4046 95.852 76.4115 95.4996 77.4687 96.9092L78.3749 98.1174L80.2879 97.0099C82.2009 95.852 82.3016 95.6003 81.6472 93.3852C81.3451 92.328 81.3954 92.2273 82.2513 92.5293C84.4664 93.4859 84.7684 93.3852 85.876 91.4218L86.9835 89.4081L85.7249 88.6026C84.0636 87.4951 84.114 86.7903 85.9263 86.7903C87.1849 86.7903 87.4366 86.5385 87.6883 85.0786C88.0911 82.8635 87.638 81.756 86.2284 81.756C84.4664 81.756 84.265 80.9001 85.6746 79.9436L86.9332 79.1381L85.9263 77.1244C85.2215 75.7148 84.6677 75.161 84.0636 75.3624C83.8952 75.4086 83.7385 75.4525 83.5928 75.4932L83.5912 75.4937C82.6523 75.7564 82.1712 75.8911 81.9651 75.711C81.7485 75.5217 81.8356 74.9849 82.0142 73.8839L82.0144 73.883C82.0412 73.7179 82.07 73.54 82.1002 73.3487C82.1506 72.7949 81.4961 72.0901 80.2879 71.4357L78.3749 70.4288L77.4687 71.637C76.4115 72.9963 75.4046 72.6942 75.4046 70.9826ZM58.9425 76.9734C59.6977 75.6645 60.3018 74.5066 60.3018 74.4059C60.3018 74.3052 57.4322 74.2045 53.9082 74.2045H47.4643L37.6475 80.7491L27.8306 87.2937H42.4804H57.1302L57.3819 83.3669C57.5329 80.296 57.9356 78.8361 58.9425 76.9734ZM69.6153 60.4105C64.1279 56.1817 65.8899 47.6234 72.5855 45.9621C74.5489 45.509 76.7136 45.8614 78.677 46.9689C83.7617 49.8385 83.7617 57.0879 78.7777 60.8132C76.5123 62.4746 72.0821 62.2732 69.6153 60.4105ZM71.6794 55.0741C71.5283 55.0741 71.2263 54.319 70.9746 53.4632C70.7732 52.557 70.2194 51.7515 69.8167 51.7515C68.5078 51.6005 67.3499 52.1039 67.3499 52.8087C67.3499 53.5135 69.3132 59.1016 69.6656 59.5547C69.7663 59.6554 72.5855 58.5478 75.9082 57.0375C81.8486 54.3693 82.5534 53.7652 81.4962 52.1039C81.0935 51.4495 80.288 51.6508 76.4619 53.2115C73.9448 54.2183 71.78 55.0741 71.6794 55.0741ZM68.3063 77.4265C64.8326 79.7926 63.7251 85.0283 65.9905 88.3006C67.9036 91.1701 69.5649 92.0763 72.8875 92.0763C76.2101 92.0763 77.8714 91.1701 79.8348 88.3006C82.2009 84.7766 80.741 78.9368 76.9149 76.9734C74.5992 75.7652 70.4207 75.9666 68.3063 77.4265Z" fill="#0456A4"/>
</svg>
