<svg width="104" height="104" viewBox="0 0 104 104" fill="none" xmlns="http://www.w3.org/2000/svg">
<rect x="0.5" y="0.5" width="103" height="103" fill="#F8F8F8" stroke="#0456A4"/>
<path fill-rule="evenodd" clip-rule="evenodd" d="M49.034 73.8638C48.8872 73.8638 48.9572 73.9137 48.9617 74.0835C48.9617 74.0853 48.6666 74.4736 48.6173 74.5305C48.1927 74.8764 44.1202 76.0983 44.1202 76.1174L44.0672 76.1025L43.9882 76.1134C43.8312 76.1866 43.9011 76.1325 43.8003 76.2699C43.9422 76.4608 44.0294 76.4578 44.2252 76.6194C44.752 77.5142 48.1419 78.0677 48.2514 77.9924L48.4463 78.0114C50.2417 77.9836 51.3021 78.0747 53.2006 78.0565L53.3965 78.1667L53.6123 78.1373C53.7357 78.1403 53.7173 78.176 53.7052 78.0671L53.8111 78.0838C53.9409 78.0932 53.9088 78.1237 53.9088 77.9942L53.9266 77.9984C54.0864 78.0051 54.0622 78.0532 54.0622 77.9249L54.1097 77.9137C54.1342 77.9158 56.6057 77.9887 56.6474 77.9854C57.7686 78.6351 57.5919 79.6389 56.6498 79.4837L56.4686 79.5823C56.2107 79.6062 52.4384 81.0914 52.1358 81.3015L52.15 81.3075L52.0299 81.3087L52.0105 81.4034L51.9137 81.3892C51.786 81.378 51.8044 81.342 51.8186 81.4564C51.6234 81.591 47.1384 82.3845 46.7263 82.2816L46.3985 82.2858C45.9425 82.5034 43.4556 82.9722 42.9158 82.974L42.6988 83.0015L42.4776 82.8992C41.2783 82.8747 40.2948 82.725 38.9818 82.7537C37.9804 82.7546 36.5781 82.5164 35.1797 82.5128C34.6211 82.5146 32.2363 82.4238 31.7893 82.4629C31.5085 82.3022 29.8208 82.2876 29.5345 82.4759L29.3817 82.4429L29.1326 82.4196L26.713 82.5085L23.2901 82.793C21.0018 80.3421 21.2992 76.4163 23.2901 73.8257L23.7219 73.5639C23.7219 73.717 32.9332 76.2923 33.7596 76.2614C35.0185 76.2741 35.4164 76.062 36.2074 76.0396C36.3421 76.0399 36.3182 76.0787 36.3182 75.9628C36.5803 76.013 37.2744 75.2122 37.5798 75.0767C38.1899 74.6563 38.9894 74.6721 39.3452 74.4666L39.4545 74.4612C40.1928 74.3171 41.4496 74.2887 42.0122 74.0684C42.894 74.2227 45.2002 73.0032 45.5095 73.0401L45.6557 72.9539C46.0233 72.7805 47.2688 72.575 47.6347 72.6025L48.3123 72.6158C48.7674 72.4382 49.0527 73.4289 49.034 73.8638V73.8638Z" fill="#0456A4"/>
<path fill-rule="evenodd" clip-rule="evenodd" d="M66.4809 48.1789C67.0574 48.1717 68.6128 48.7327 69.201 49.0865L69.2431 49.0771C72.4726 51.2502 74.3022 50.756 74.8526 51.3128C75.4025 51.8 77.3934 54.6364 77.8815 55.0724C78.1515 55.6656 80.2558 58.6115 80.8471 58.9611C81.4215 59.7509 81.5111 59.8713 82.2549 60.2211C83.0762 60.711 84.8673 61.0116 85.6045 61.4301C87.4837 63.6924 83.8112 67.367 81.5343 67.2469C80.4386 66.3312 79.7127 65.8939 78.6329 65.4657C77.9336 65.4972 76.0416 64.8302 75.096 64.7488C74.5821 64.4937 70.9432 63.6458 70.5964 63.663C69.5209 63.2681 68.1168 62.1421 67.5085 61.9989C67.5672 61.6848 64.5393 59.5732 64.0551 59.3947C64.0551 58.8909 63.4892 58.814 63.1188 58.748C63.1112 58.1452 63.3437 57.9237 63.9998 57.6577L65.0308 57.6646C65.4798 57.6895 67.8384 59.0476 68.594 59.5051C70.3601 59.9917 69.6995 59.691 71.0134 59.241C71.5339 58.8648 71.7736 57.6032 71.9957 57.4165L71.9215 56.44C71.8786 56.397 71.3914 55.0156 70.7668 54.263C70.6893 54.1056 70.607 53.9582 70.5192 53.8202C69.6453 53.7691 68.2397 53.7912 67.846 54.3716L67.7219 54.3768C67.5585 54.394 67.3866 54.9762 66.2058 55.1178C65.6856 55.0836 65.4949 54.9974 65.0873 54.6077C65.4892 54.3205 66.4748 53.1288 66.9266 52.9769C67.3545 52.9729 68.384 52.6567 69.2928 52.6146C69.1971 52.555 69.0978 52.4978 68.994 52.4428C68.9266 52.381 68.8158 52.2872 68.6778 52.1753C67.6989 52.1317 66.519 51.347 65.9592 52.6092L65.9301 52.6379C65.6456 52.6379 64.8089 54.4143 64.8256 54.6436L64.8449 54.7962C64.6174 55.0213 64.2394 55.9857 64.2367 56.1189C63.4529 56.866 63.4811 56.8149 62.3965 56.8621C62.4068 56.2754 62.3251 55.927 62.5511 55.3987C62.68 54.5989 63.34 53.0216 63.3065 52.7196C63.4901 52.5145 64.0736 51.3074 64.0427 51.0226L64.6731 50.4186L64.4134 50.4113C63.8391 50.2155 62.684 50.2004 61.8678 50.0143C60.7902 49.7335 60.1526 48.8834 60.1139 48.8834C60.362 48.2906 60.0434 48.0334 61.2339 47.9604C61.9166 48.3372 65.4296 48.2043 66.4809 48.1789V48.1789ZM68.0759 51.7104L68.0608 51.6995C68.0641 51.7053 68.0687 51.7089 68.0759 51.7104ZM67.1938 51.1218L67.1212 51.0816C67.1224 51.1252 67.136 51.1276 67.1938 51.1218Z" fill="#0456A4"/>
<path fill-rule="evenodd" clip-rule="evenodd" d="M63.8911 60.4858C66.0143 62.7351 64.9097 67.226 61.4246 70.5154C57.9391 73.8054 53.3923 74.6491 51.2692 72.3997C49.146 70.1504 50.2506 65.6596 53.7358 62.3696C57.2213 59.0802 61.768 58.2368 63.8911 60.4858ZM52.1368 67.9395L59.1162 61.3516L61.0002 63.3482C61.3791 63.7495 61.604 64.1145 61.6757 64.441C61.7477 64.7681 61.6842 65.1433 61.4851 65.5673C61.2863 65.9906 60.9933 66.3838 60.6099 66.7454C60.1145 67.2133 59.5992 67.5038 59.0648 67.6178C58.53 67.7316 58.0147 67.6154 57.5145 67.2704C57.5468 67.5395 57.5429 67.7695 57.506 67.9583C57.4237 68.3659 57.2688 68.8231 57.0421 69.3285L55.8764 71.9016L55.1741 71.1572L56.0643 69.1905C56.3219 68.6207 56.5065 68.1747 56.6233 67.8524C56.7386 67.5295 56.7979 67.2828 56.803 67.1094C56.8079 66.9388 56.7837 66.7887 56.7322 66.6631C56.6895 66.5762 56.5976 66.4552 56.452 66.3011L55.8008 65.6112L52.7008 68.5369L52.1368 67.9395ZM56.5999 64.8565L57.8071 66.1356C58.0643 66.4083 58.3085 66.5786 58.5406 66.6491C58.7712 66.7209 59.0209 66.7058 59.2884 66.6017C59.5553 66.5003 59.8007 66.3438 60.0264 66.1305C60.3563 65.8194 60.5569 65.4856 60.6244 65.1303C60.6916 64.7754 60.5675 64.4322 60.254 64.1003L58.9101 62.6764L56.5999 64.8565V64.8565Z" fill="#0456A4"/>
<path d="M52.5054 33.7441C60.8145 33.7441 68.3378 37.1122 73.783 42.5575C79.2285 48.003 82.5969 55.5266 82.5969 63.8354C82.5969 72.1449 79.2285 79.6678 73.783 85.1136C68.3378 90.5585 60.8145 93.9272 52.5054 93.9272C44.1965 93.9272 36.6729 90.5585 31.2274 85.1136C25.7825 79.6678 22.4138 72.1449 22.4138 63.8354C22.4138 55.5266 25.7825 48.003 31.2274 42.5575C36.6729 37.1122 44.1965 33.7441 52.5054 33.7441V33.7441ZM72.1498 44.1909C67.1225 39.1639 60.1769 36.0543 52.5054 36.0543C44.8338 36.0543 37.888 39.1639 32.8609 44.1909C27.8342 49.2183 24.7243 56.1639 24.7243 63.8354C24.7243 71.5073 27.8342 78.4528 32.8609 83.4798C37.888 88.5068 44.8338 91.6165 52.5054 91.6165C60.1769 91.6165 67.1225 88.5068 72.1498 83.4798C77.1768 78.4528 80.2862 71.5073 80.2862 63.8354C80.2862 56.1639 77.1768 49.2183 72.1498 44.1909V44.1909Z" fill="#0456A4"/>
<path d="M65.0136 38.3452L53.7618 60.8938C53.333 61.2097 52.9126 61.5593 52.5068 61.9421C49.7779 64.5173 48.5094 67.8291 49.1055 70.2249L48.4277 71.5833C48.3493 71.5851 48.2676 71.593 48.1837 71.6111L47.6744 71.6015C47.0837 71.5706 45.7332 71.81 45.2287 72.0478L45.1867 72.0678L45.1503 72.089C45.002 72.1232 44.842 72.174 44.6753 72.2333L62.2698 36.9731L65.0136 38.3452V38.3452ZM42.2773 83.9094L39.476 89.5222L36.7325 88.1508L38.9259 83.755H38.9822C40.0909 83.7302 41.1613 83.8591 42.2444 83.8942L42.2773 83.9094Z" fill="#0456A4"/>
<path d="M14.24 14.912H10.56V12.416C11.5627 12.416 12.3627 12.3307 12.96 12.16C13.5787 11.9893 14.0693 11.712 14.432 11.328C14.7947 10.9227 15.1147 10.3467 15.392 9.6H17.76V32H14.24V14.912ZM22.0605 29.568C22.0605 27.968 22.3165 26.6027 22.8285 25.472C23.3405 24.32 24.2578 23.0507 25.5805 21.664C26.8818 20.2773 27.7778 19.0933 28.2685 18.112C28.7805 17.1307 29.0365 16.1067 29.0365 15.04C29.0365 14.08 28.8765 13.4187 28.5565 13.056C28.2578 12.672 27.8098 12.48 27.2125 12.48C25.9965 12.48 25.3885 13.216 25.3885 14.688V17.088H22.0605V14.912C22.0605 13.0987 22.5085 11.712 23.4045 10.752C24.3005 9.77067 25.6018 9.28 27.3085 9.28C29.0152 9.28 30.3165 9.77067 31.2125 10.752C32.1085 11.712 32.5565 13.0987 32.5565 14.912C32.5565 16.2773 32.2258 17.6107 31.5645 18.912C30.9245 20.2133 29.8045 21.7067 28.2045 23.392C27.1592 24.5013 26.4552 25.408 26.0925 26.112C25.7298 26.7947 25.5485 27.5307 25.5485 28.32V28.8H32.2365V32H22.0605V29.568Z" fill="#0456A4"/>
</svg>
