<svg width="104" height="104" viewBox="0 0 104 104" fill="none" xmlns="http://www.w3.org/2000/svg">
<rect x="0.5" y="0.5" width="103" height="103" fill="#F8F8F8" stroke="#0456A4"/>
<path d="M53.4979 44.8729C53.6172 57.7019 53.6769 58.7163 53.7962 50.1238C53.9752 39.9799 54.0349 39.5622 55.2283 39.5622C55.8847 39.5622 57.7941 38.6075 59.5246 37.4738C62.2097 35.624 63.0451 35.3853 66.3269 35.3853C69.2508 35.3853 70.0862 35.2063 70.0862 34.4903C70.0862 33.7742 69.2508 33.5952 66.3269 33.5952C63.1048 33.5952 62.2097 33.3566 59.6439 31.6261C57.9731 30.4924 55.9444 29.478 55.0493 29.299L53.3785 29.0006L53.4979 44.8729ZM57.6748 32.4615C59.2262 33.4759 60.5389 34.3709 60.5389 34.4903C60.5389 34.9676 54.4526 38.4882 54.1543 38.1302C53.7366 37.7125 53.6172 37.7721 56.4814 35.9224L58.6892 34.4306L56.3024 32.9985C54.2139 31.6858 53.3189 30.6117 54.3929 30.6117C54.5719 30.6117 56.0637 31.4471 57.6748 32.4615Z" fill="#0456A4"/>
<path d="M58.7488 29.6565C58.7488 29.7759 59.6438 30.4919 60.7776 31.1483C62.2096 32.0433 63.7611 32.4014 66.4462 32.4014C69.9071 32.4014 70.0861 32.3417 70.0861 30.9096C70.0861 29.4179 70.0861 29.4179 64.4174 29.4179C61.3146 29.4179 58.7488 29.5372 58.7488 29.6565Z" fill="#0456A4"/>
<path d="M60.7179 37.8321C59.6438 38.5481 58.7488 39.2045 58.7488 39.3238C58.7488 39.4432 61.3146 39.5625 64.4174 39.5625C70.0861 39.5625 70.0861 39.5625 70.0861 38.0707C70.0861 36.6387 69.9667 36.579 66.3865 36.579C63.5821 36.579 62.0903 36.937 60.7179 37.8321Z" fill="#0456A4"/>
<path d="M42.3396 41.3519C40.4898 42.068 39.5351 43.5001 39.7738 45.3498C40.1318 48.751 45.7408 49.2284 46.5762 45.8869C47.2325 43.142 44.7264 40.4569 42.3396 41.3519Z" fill="#0456A4"/>
<path d="M63.0451 42.3666C59.8826 45.0518 62.1501 49.2884 66.1479 48.274C68.2364 47.7369 69.0718 46.0662 68.2364 43.9181C67.222 41.1732 65.1932 40.5765 63.0451 42.3666Z" fill="#0456A4"/>
<path d="M36.3129 51.0786C34.7018 52.451 34.5825 52.9283 34.4035 57.4036C34.1051 63.6689 34.5825 66.5331 35.9549 66.2944C36.7903 66.1154 37.029 65.28 37.1483 61.3418C37.387 54.4201 38.461 54.1814 38.461 61.0435V66.5928L39.8334 65.3994C41.3849 63.9076 45.5618 61.6402 46.6358 61.6402C47.1132 61.6402 47.4115 60.8644 47.4712 59.671C47.4712 58.6567 47.7099 57.2246 48.0082 56.5682C48.3663 55.6732 48.5453 56.0908 48.5453 58.1793C48.6049 61.0435 48.8436 61.3418 50.6337 60.6854C51.3498 60.3871 51.5884 59.4324 51.5884 56.2699C51.5884 50.6609 50.8127 50.0642 43.5927 49.8255C38.4014 49.5868 37.924 49.7062 36.3129 51.0786Z" fill="#0456A4"/>
<path d="M60.1213 50.0641C57.6151 50.6011 56.3621 53.0476 56.3621 57.2245C56.3621 59.3129 56.6007 61.0434 56.8991 61.0434C57.1974 61.0434 57.8538 61.2224 58.3908 61.4014C59.1666 61.6997 59.3456 61.2224 59.3456 58.6566C59.3456 56.8068 59.5842 55.7327 59.9423 55.9714C60.3003 56.1504 60.539 57.6422 60.539 59.1936C60.539 61.6401 60.718 62.1174 62.0307 62.7141C62.8661 63.1318 64.8949 64.6832 66.506 66.175L69.4895 68.9795V62.6545C69.4895 59.0743 69.7281 56.1504 70.0862 55.9714C70.4442 55.7327 70.6829 57.1052 70.6829 59.671C70.6829 64.8623 71.1006 66.4137 72.5326 66.4137C73.547 66.4137 73.6664 65.8767 73.6664 60.208C73.6664 53.704 73.189 51.3172 71.6973 50.7205C70.4442 50.2431 61.6727 49.7657 60.1213 50.0641Z" fill="#0456A4"/>
<path d="M49.7387 62.8932C44.1893 63.7285 39.3561 67.4281 36.9096 72.679C35.2985 76.1399 35.1195 77.1543 36.3129 77.1543C36.7903 77.1543 37.3273 76.2592 37.5063 75.1255C38.4013 70.3519 44.607 65.101 50.395 64.2656C56.2427 63.3705 62.508 65.996 65.9092 70.7099C67.938 73.5144 68.117 74.1708 66.7446 74.1708C65.9092 74.1708 65.9092 74.3498 66.5059 75.1255C66.9833 75.6029 67.759 76.2592 68.3557 76.6173C69.2508 77.0946 69.6088 76.8559 70.3845 75.3642C71.2795 73.6338 71.2795 73.5741 70.0861 73.5741C69.4298 73.5741 68.8927 73.2161 68.8927 72.7984C68.8927 72.4404 67.938 70.8293 66.8043 69.2779C63.3434 64.5639 56.183 61.8788 49.7387 62.8932Z" fill="#0456A4"/>
<path d="M58.5698 69.8148C57.1973 70.0535 57.0183 70.2325 57.615 70.9485C58.6891 72.2613 53.6768 78.5863 51.9464 78.0493C47.7695 76.8559 47.8291 76.8559 44.786 80.7344C42.5185 83.5986 42.0412 84.5533 42.6379 85.0903C43.1749 85.6274 43.9506 85.0903 46.1584 82.6439C48.7839 79.6604 49.0822 79.541 50.6336 80.0781C53.4381 81.1521 54.1542 80.7941 57.257 76.8559C58.8681 74.7078 60.3599 72.9773 60.5389 72.9773C60.7179 72.9773 61.2549 73.3353 61.6726 73.6934C62.329 74.3497 62.4483 74.1111 62.0903 72.4403C61.9113 71.3662 61.7323 70.2325 61.7323 69.9342C61.7323 69.3971 61.5533 69.3971 58.5698 69.8148Z" fill="#0456A4"/>
<path d="M34.7018 80.6747C33.7471 82.2858 33.7471 82.4052 34.8211 82.7035C35.4178 82.8228 36.0742 83.7179 36.3129 84.6129C37.0289 87.3578 40.0124 91.2363 42.9959 93.1458C51.7077 98.9338 63.9401 95.7712 68.5347 86.5821C70.0264 83.5986 70.6231 78.9443 69.5491 78.9443C69.2507 78.9443 68.8927 80.0184 68.654 81.3908C66.8043 93.0264 52.4834 98.4564 42.9362 91.1767C39.0577 88.2528 35.8355 81.9278 38.2223 81.9278C39.1174 81.9278 39.1174 81.7488 37.8643 80.436C36.0742 78.5863 35.9549 78.5863 34.7018 80.6747Z" fill="#0456A4"/>
<path d="M14.24 14.912H10.56V12.416C11.5627 12.416 12.3627 12.3307 12.96 12.16C13.5787 11.9893 14.0693 11.712 14.432 11.328C14.7947 10.9227 15.1147 10.3467 15.392 9.6H17.76V32H14.24V14.912ZM27.1165 32.32C25.3885 32.32 24.0765 31.84 23.1805 30.88C22.3058 29.92 21.8685 28.544 21.8685 26.752V24.928H25.1965V26.912C25.1965 28.384 25.8045 29.12 27.0205 29.12C27.6178 29.12 28.0658 28.9387 28.3645 28.576C28.6845 28.192 28.8445 27.5307 28.8445 26.592V24.768C28.8445 23.744 28.6632 23.0187 28.3005 22.592C27.9378 22.144 27.3512 21.92 26.5405 21.92H25.3565V18.72H26.6365C27.3405 18.72 27.8632 18.5387 28.2045 18.176C28.5672 17.8133 28.7485 17.2053 28.7485 16.352V14.72C28.7485 13.952 28.5885 13.3867 28.2685 13.024C27.9485 12.6613 27.5218 12.48 26.9885 12.48C25.8578 12.48 25.2925 13.1733 25.2925 14.56V16.032H21.9645V14.848C21.9645 13.056 22.4018 11.68 23.2765 10.72C24.1725 9.76 25.4525 9.28 27.1165 9.28C28.8018 9.28 30.0818 9.76 30.9565 10.72C31.8312 11.6587 32.2685 13.024 32.2685 14.816V15.616C32.2685 16.832 32.0658 17.8133 31.6605 18.56C31.2552 19.2853 30.6258 19.808 29.7725 20.128V20.192C30.6898 20.5333 31.3512 21.088 31.7565 21.856C32.1618 22.624 32.3645 23.6053 32.3645 24.8V26.784C32.3645 28.576 31.9165 29.952 31.0205 30.912C30.1458 31.8507 28.8445 32.32 27.1165 32.32Z" fill="#0456A4"/>
</svg>
