<svg width="104" height="104" viewBox="0 0 104 104" fill="none" xmlns="http://www.w3.org/2000/svg">
<path d="M0.5 0.5H103.5V103.5H0.5V0.5Z" fill="#F8F8F8" stroke="#0456A4"/>
<path fill-rule="evenodd" clip-rule="evenodd" d="M22.3579 40.2319H40.0948V91.3306H22.3579V40.2319ZM25.4881 80.0336H28.9658V87.3331H25.4881V80.0336ZM25.4881 70.7785C26.6472 70.7785 27.8064 70.7785 28.9658 70.7785C28.9658 73.2113 28.9658 75.6448 28.9658 78.0779C27.8064 78.0779 26.6472 78.0779 25.4881 78.0779C25.4881 75.6448 25.4881 73.2113 25.4881 70.7785ZM25.4881 61.5234C26.6472 61.5234 27.8064 61.5234 28.9658 61.5234C28.9658 63.9562 28.9658 66.3894 28.9658 68.8231C27.8064 68.8231 26.6472 68.8231 25.4881 68.8231C25.4881 66.3894 25.4881 63.9562 25.4881 61.5234ZM25.4881 52.2682C26.6472 52.2682 27.8064 52.2682 28.9658 52.2682C28.9658 54.7011 28.9658 57.1342 28.9658 59.5679C27.8064 59.5679 26.6472 59.5679 25.4881 59.5679C25.4881 57.1342 25.4881 54.7011 25.4881 52.2682V52.2682ZM25.4881 43.0131H28.9658V50.3128H25.4881V43.0131ZM32.9654 80.0336H36.4432V87.3331H32.9654V80.0336ZM32.9654 70.7785C34.1245 70.7785 35.2837 70.7785 36.4432 70.7785C36.4432 73.2113 36.4432 75.6448 36.4432 78.0779C35.2837 78.0779 34.1245 78.0779 32.9654 78.0779C32.9654 75.6448 32.9654 73.2113 32.9654 70.7785ZM32.9654 61.5234C34.1245 61.5234 35.2837 61.5234 36.4432 61.5234C36.4432 63.9562 36.4432 66.3894 36.4432 68.8231C35.2837 68.8231 34.1245 68.8231 32.9654 68.8231C32.9654 66.3894 32.9654 63.9562 32.9654 61.5234ZM32.9654 52.2682C34.1245 52.2682 35.2837 52.2682 36.4432 52.2682C36.4432 54.7011 36.4432 57.1342 36.4432 59.5679C35.2837 59.5679 34.1245 59.5679 32.9654 59.5679C32.9654 57.1342 32.9654 54.7011 32.9654 52.2682V52.2682ZM32.9654 43.0131H36.4432V50.3128H32.9654V43.0131Z" fill="#0456A4"/>
<path fill-rule="evenodd" clip-rule="evenodd" d="M42.5796 54.6163L54.1863 43.6548V91.0303H42.5796V54.6163ZM44.5497 57.1943H51.9649V61.3834H44.5497V57.1943V57.1943ZM44.5497 63.6796C47.0212 63.6796 49.493 63.6796 51.9649 63.6796C51.9649 65.0756 51.9649 66.472 51.9649 67.869C49.493 67.869 47.0212 67.869 44.5497 67.869C44.5497 66.472 44.5497 65.0756 44.5497 63.6796ZM44.5497 70.1648C47.0212 70.1648 49.493 70.1648 51.9649 70.1648C51.9649 71.5609 51.9649 72.9572 51.9649 74.3542C49.493 74.3542 47.0212 74.3542 44.5497 74.3542C44.5497 72.9572 44.5497 71.5609 44.5497 70.1648ZM44.5497 76.65C47.0212 76.65 49.493 76.65 51.9649 76.65C51.9649 78.0464 51.9649 79.4425 51.9649 80.8395C49.493 80.8395 47.0212 80.8395 44.5497 80.8395C44.5497 79.4425 44.5497 78.0464 44.5497 76.65ZM44.5497 83.1349H51.9649V87.3246H44.5497V83.1349Z" fill="#0456A4"/>
<path fill-rule="evenodd" clip-rule="evenodd" d="M20.0107 90.0635H83.5253V91.997H20.0107V90.0635Z" fill="#0456A4"/>
<path fill-rule="evenodd" clip-rule="evenodd" d="M71.7684 54.7065C54.9512 55.9826 58.0829 68.1292 74.9281 67.4081C78.3538 67.2611 88.15 64.9387 85.8869 59.7406C84.0325 55.4814 75.7701 54.403 71.7684 54.7065ZM68.6681 64.7055V57.4219H73.6916C74.7021 57.4219 75.4698 57.488 75.995 57.6183C76.5199 57.749 76.9393 57.9797 77.2534 58.3101C77.5672 58.6411 77.7229 59.0074 77.7229 59.4075C77.7229 59.9245 77.4618 60.3599 76.9421 60.7146C76.4224 61.0687 75.6203 61.2929 74.5333 61.3891C74.9315 61.5112 75.2325 61.6336 75.4384 61.752C75.8762 62.0096 76.2902 62.3336 76.6783 62.7221L78.6383 64.7055H76.7651L75.2669 63.1898C74.8312 62.7511 74.4699 62.4167 74.1875 62.1844C73.9027 61.9524 73.6492 61.791 73.4253 61.6981C73.2036 61.6062 72.9739 61.5419 72.7417 61.5048C72.573 61.4829 72.2961 61.471 71.9083 61.471H70.1721V64.7055H68.6681V64.7055ZM70.1721 60.6364H73.3909C74.077 60.6364 74.6098 60.591 74.9951 60.4993C75.3799 60.4092 75.673 60.2637 75.8707 60.0615C76.0714 59.8618 76.1717 59.645 76.1717 59.409C76.1717 59.065 75.9788 58.7797 75.591 58.558C75.2032 58.3357 74.5912 58.2255 73.755 58.2255H70.1721V60.6364V60.6364Z" fill="#0456A4"/>
<path fill-rule="evenodd" clip-rule="evenodd" d="M60.5922 78.6195C61.2216 86.1302 84.7564 86.6295 86.1114 78.7339C86.5711 76.0566 85.3666 77.7507 84.4118 78.4334C78.9786 82.3146 67.7137 82.304 62.3296 78.4501C61.136 77.5955 60.3738 76.0128 60.5922 78.6195Z" fill="#0456A4"/>
<path fill-rule="evenodd" clip-rule="evenodd" d="M85.991 72.8594C85.2007 73.3146 84.4239 74.2302 83.3275 74.8434C82.3134 75.4107 81.1198 75.8662 80.0024 76.1834C75.0971 77.5762 68.7613 77.4038 64.1079 75.2112C63.0237 74.7006 62.2045 74.1361 61.3132 73.3432C60.5729 72.6843 60.5726 72.6405 60.5805 73.8959C60.5851 74.5995 60.7109 75.095 61.0795 75.6994C65.6966 83.2746 88.3906 80.6968 85.991 72.8594Z" fill="#0456A4"/>
<path fill-rule="evenodd" clip-rule="evenodd" d="M86.007 81.4043C85.6371 81.5669 84.1228 82.9416 83.3124 83.3886C79.7464 85.3547 75.5951 85.6979 71.6147 85.5572C68.3359 85.4412 63.791 84.2448 61.3237 81.8918C60.5971 81.1988 60.5929 81.1699 60.5795 82.3851C60.5715 83.1137 60.6901 83.582 61.0581 84.2098C65.4314 91.6624 88.2101 89.447 86.007 81.4043Z" fill="#0456A4"/>
<path fill-rule="evenodd" clip-rule="evenodd" d="M86.0007 64.3174C84.646 65.0207 84.26 66.4031 80.0234 67.6439C75.2382 69.0451 68.714 68.8557 64.1667 66.6975C63.2781 66.2758 62.0467 65.5454 61.3598 64.8454C59.9155 63.3729 60.6859 66.4835 61.0472 67.1007C65.5105 74.7207 88.3967 72.2011 86.0007 64.3174V64.3174Z" fill="#0456A4"/>
<path fill-rule="evenodd" clip-rule="evenodd" d="M86.0108 68.5829C84.9193 69.1175 84.5723 70.4031 80.6745 71.7047C76.2944 73.1669 70.3753 73.1414 65.9909 71.695C63.0338 70.7192 62.972 70.1245 60.7323 68.543C58.6096 74.0691 69.8808 76.0062 73.3275 76.0032C77.2199 76.0004 87.3323 74.4046 86.0108 68.5829V68.5829Z" fill="#0456A4"/>
<path d="M9.248 29.568C9.248 27.968 9.504 26.6027 10.016 25.472C10.528 24.32 11.4453 23.0507 12.768 21.664C14.0693 20.2773 14.9653 19.0933 15.456 18.112C15.968 17.1307 16.224 16.1067 16.224 15.04C16.224 14.08 16.064 13.4187 15.744 13.056C15.4453 12.672 14.9973 12.48 14.4 12.48C13.184 12.48 12.576 13.216 12.576 14.688V17.088H9.248V14.912C9.248 13.0987 9.696 11.712 10.592 10.752C11.488 9.77067 12.7893 9.28 14.496 9.28C16.2027 9.28 17.504 9.77067 18.4 10.752C19.296 11.712 19.744 13.0987 19.744 14.912C19.744 16.2773 19.4133 17.6107 18.752 18.912C18.112 20.2133 16.992 21.7067 15.392 23.392C14.3467 24.5013 13.6427 25.408 13.28 26.112C12.9173 26.7947 12.736 27.5307 12.736 28.32V28.8H19.424V32H9.248V29.568Z" fill="#0456A4"/>
</svg>
