<svg width="104" height="104" viewBox="0 0 104 104" fill="none" xmlns="http://www.w3.org/2000/svg">
<rect x="0.5" y="0.5" width="103" height="103" fill="#F8F8F8" stroke="#0456A4"/>
<path fill-rule="evenodd" clip-rule="evenodd" d="M28.1226 62.7056H51.9074V76.1417H39.5675V66.81H33.2461V76.1417H28.1226V62.7056V62.7056ZM45.2869 66.208C47.4484 66.208 49.2002 67.4206 49.2002 68.917C49.2002 70.4131 47.4484 71.626 45.2869 71.626C43.1256 71.626 41.3738 70.4131 41.3738 68.917C41.3738 67.4206 43.1256 66.208 45.2869 66.208Z" fill="#0456A4"/>
<path fill-rule="evenodd" clip-rule="evenodd" d="M39.9465 47.1821L25.4465 61.8888H54.5838L39.9465 47.1821Z" fill="#0456A4"/>
<path fill-rule="evenodd" clip-rule="evenodd" d="M72.7373 65.5914C69.7236 65.8261 68.8101 66.7371 68.3027 67.3274C67.8741 68.0135 67.383 68.948 66.7133 69.4271C65.622 70.6536 59.3 76.2812 57.7241 76.1018C58.5646 75.3748 59.1278 74.6896 59.813 73.793C60.2831 72.9858 62.0571 69.8707 62.0549 69.4705C62.0389 69.3464 62.3701 68.7255 62.478 68.4156C63.202 67.2184 63.731 63.5955 63.6813 62.5825L63.4848 60.3252C63.2315 59.8242 63.437 59.718 63.1471 59.2768C63.1296 58.7706 62.2025 57.1288 61.8226 56.8404L61.6763 56.7218C61.2736 56.3561 60.6892 55.9589 60.4252 55.6814C60.0018 55.4608 58.8638 55.0621 58.8884 54.8794C58.6333 54.9441 58.7615 55.1139 58.8881 55.291C59.7794 56.0871 60.5718 57.3059 60.6571 58.4979C60.862 58.7056 60.9806 59.3778 60.7302 59.5402C60.8592 60.3461 60.2351 62.0622 59.7067 62.5472L58.7941 63.561C58.6829 63.7684 58.9118 63.6159 58.5273 63.8491C57.1945 65.4509 55.5851 66.1607 53.9824 69.1627C53.6977 69.5432 52.7941 71.3403 52.9845 74.1325C51.7096 76.1579 53.1958 77.8977 49.1602 80.2084L50.969 82.2076C54.4424 77.6759 55.8214 79.9979 58.2476 78.8931L58.4229 78.8799C61.2172 78.6802 63.4287 77.4624 65.431 75.5349C66.5974 74.1402 68.1034 71.6629 69.2756 70.5485C71.8947 68.0582 77.0454 69.6021 77.2549 73.008C77.7854 71.0409 77.1307 65.1807 72.7373 65.5914Z" fill="#0456A4"/>
<path fill-rule="evenodd" clip-rule="evenodd" d="M68.0088 61.3934L66.8057 60.353L66.6615 60.2295L66.2188 60.2902C66.0194 60.5385 65.9162 60.5884 65.6892 60.8416C65.4297 61.1306 65.4455 61.1901 65.2307 61.4597L65.2603 61.7708C65.6707 62.1199 66.2767 62.5879 66.6344 63.0559L66.6698 63.0664L66.9083 63.1465L67.0506 63.116L67.2345 62.9906C67.587 62.7666 67.8948 62.4182 68.0547 62.0398C68.0245 61.8288 67.969 61.8738 68.1591 61.859L68.1452 61.5515L68.0088 61.3934V61.3934Z" fill="#0456A4"/>
<path fill-rule="evenodd" clip-rule="evenodd" d="M68.9296 65.3171L67.6082 64.1618L67.4048 64.042L67.1192 64.0783L66.9359 64.2055L65.9944 65.2546L66.0005 65.3871L66.0557 65.8187L66.048 65.9189C66.2356 65.9044 66.1903 65.8582 66.1977 66.0405L66.3324 66.1576L66.4722 66.2704L66.6087 66.3871L66.7424 66.5082L66.878 66.624L67.0179 66.7375L67.1543 66.8542L67.2918 66.9697C67.8204 67.0683 67.5145 67.0237 67.6796 67.1568L68.0386 67.1716L68.1972 67.0443L68.3137 66.9137L68.4317 66.7785L68.5525 66.6454L68.6726 66.5122L68.7894 66.3761L68.9074 66.2402L68.9924 66.0818C68.9397 65.8779 68.896 65.9287 69.099 65.9127L69.0768 65.4383L68.9296 65.3171V65.3171Z" fill="#0456A4"/>
<path fill-rule="evenodd" clip-rule="evenodd" d="M65.2034 66.2604C64.8091 66.4505 64.4107 66.916 64.2594 67.3276C64.301 67.5349 64.3482 67.4845 64.1458 67.5005L64.1726 67.8329L64.3143 67.9906L65.6773 69.1222C65.8581 69.1105 65.8088 69.0683 65.823 69.2504C66.6373 69.1349 67.2602 67.8831 67.3166 67.8788C67.2439 67.0013 65.977 66.1683 65.2034 66.2604V66.2604Z" fill="#0456A4"/>
<path fill-rule="evenodd" clip-rule="evenodd" d="M65.1364 62.062L64.9885 61.9316L64.576 62.0025L63.8834 62.6538C63.9324 63.2006 63.8261 63.5149 63.8621 64.0516L64.9823 64.998L65.0738 64.978L65.5085 64.9654L66.5527 63.8973C66.7936 63.331 65.6084 62.6735 65.1364 62.062V62.062Z" fill="#0456A4"/>
<path fill-rule="evenodd" clip-rule="evenodd" d="M70.4279 63.2989L70.3145 63.1597L70.178 63.0432L70.0418 62.9264L69.9053 62.8097L69.7689 62.6933L69.6324 62.5765L69.4962 62.4594L69.3526 62.3528C69.1721 62.3771 69.2211 62.4163 69.2069 62.2339L69.0941 62.2582L68.6705 62.2822L68.6089 62.2862L67.7561 63.2438L67.7681 63.3695L67.794 63.7635L67.8119 63.8905C68.0697 64.2531 68.8338 64.9112 69.2562 65.0492L69.5939 65.0227C69.974 64.8419 70.3083 64.4324 70.5012 64.0723C70.4796 63.8843 70.4353 63.9311 70.6176 63.9172L70.5643 63.4428C70.3641 63.4582 70.4134 63.5025 70.4279 63.2989V63.2989Z" fill="#0456A4"/>
<path fill-rule="evenodd" clip-rule="evenodd" d="M63.9795 68.375C63.7894 68.3978 63.834 68.445 63.8199 68.2666L63.4505 68.299C63.4646 68.4795 63.5044 68.4309 63.3183 68.4342C62.9738 68.6635 62.6513 69.0285 62.5317 69.4167L62.5416 69.9285L62.5505 70.0036C62.7406 69.9888 62.6953 69.942 62.7037 70.1241L62.8371 70.2436L62.9735 70.3604L63.11 70.4768L63.2462 70.5939L63.3851 70.7073L63.5247 70.821L63.6612 70.9371C64.1603 71.0425 63.8873 71.0018 64.0426 71.1312L64.3886 71.1368L64.5386 71.0083L64.664 70.8762L64.7796 70.7431L64.8973 70.6035L65.0171 70.4716L65.1326 70.3345L65.2186 70.1879C65.161 69.9599 65.1163 70.0209 65.3505 70.003L65.36 69.9756L65.3045 69.5905C65.0913 69.1706 64.3972 68.5821 63.9795 68.375Z" fill="#0456A4"/>
<path fill-rule="evenodd" clip-rule="evenodd" d="M67.0818 59.4658L67.1107 59.8833L67.1157 59.9871L67.2611 60.1023L67.3973 60.2191L67.5338 60.3355L67.6702 60.4526L67.8067 60.5694L67.9429 60.6855L68.0794 60.8026L68.2159 60.919L68.4962 61.0235L68.605 61.1483L68.8561 61.1264L68.9987 60.9961L69.1047 60.863C69.085 60.6843 69.0431 60.7296 69.2172 60.7173L69.3382 60.5826L69.4528 60.4486L69.5675 60.3081L69.6734 60.1689C69.6408 59.9788 69.5989 60.0299 69.7847 60.0043L69.7736 59.61C69.4374 59.1429 68.6925 58.4442 68.141 58.3696C67.6946 58.5292 67.2466 59.0403 67.0818 59.4658V59.4658Z" fill="#0456A4"/>
<path fill-rule="evenodd" clip-rule="evenodd" d="M64.4633 58.1478L64.2701 58.0508L63.9469 58.0711L63.7818 58.2036L63.4346 58.5856L63.4697 58.9023L63.4749 59.2668L63.6644 59.7915L63.7125 60.3809L63.8514 60.497L63.9919 60.6107L64.1309 60.7228L64.4636 60.9219L64.9091 60.9286L65.0385 60.7934C65.3768 60.5337 65.6802 60.2003 65.8099 59.7927L65.7918 59.342C65.5847 58.9233 64.8943 58.3539 64.4633 58.1478V58.1478Z" fill="#0456A4"/>
<path fill-rule="evenodd" clip-rule="evenodd" d="M70.2148 60.3903C70.0549 60.6484 69.9597 60.7267 69.765 60.9479C69.4883 61.2621 69.5386 61.1937 69.4304 61.5141L69.4486 61.8499C69.6267 62.228 70.3729 62.8547 70.7743 63.0143C70.9844 62.972 70.9354 62.9224 70.9512 63.1233L71.16 63.1088L71.3107 62.9754C71.2854 62.8035 71.2481 62.8488 71.4213 62.8386L71.5458 62.7083L71.6668 62.5764L71.7784 62.4366C71.7599 62.2619 71.7208 62.3081 71.8958 62.2988L72.0116 62.1633L72.1314 62.0225L72.1327 61.9932L72.0923 61.6004C71.881 61.2923 71.6108 61.1155 71.3298 60.8684C70.8452 60.4426 70.8754 60.3089 70.2148 60.3903Z" fill="#0456A4"/>
<path fill-rule="evenodd" clip-rule="evenodd" d="M65.6972 56.4038C65.7114 56.5828 65.7496 56.532 65.562 56.5381C65.2339 56.7871 64.9165 57.1303 64.7764 57.5086L64.7949 57.894L64.7868 58.012L64.9372 58.1297L65.0761 58.2375L65.204 58.3583L65.3463 58.48L65.4853 58.5875L65.6131 58.7086L65.7555 58.83L65.8947 58.9378L66.2053 59.1461L66.5528 59.1452L66.6751 58.9976L67.4524 58.0123L67.4512 57.6611C67.1675 57.1796 66.2851 56.4275 65.6972 56.4038V56.4038Z" fill="#0456A4"/>
<path fill-rule="evenodd" clip-rule="evenodd" d="M74.2614 63.3793L74.1249 63.2622L73.9887 63.1455L73.8522 63.0293L73.7142 62.9135L73.5771 62.7982L73.4425 62.6809L73.3048 62.5632L73.1627 62.4504L73.0287 62.334L72.9126 62.3383L72.611 62.3561L72.5272 62.362L71.6362 63.5376L71.6118 63.7059L71.7375 63.8729L73.0324 65.026L73.5885 64.9361L73.7327 64.8181L73.8566 64.6874L73.977 64.5534L74.0947 64.4179L74.2127 64.2827L74.3255 64.1415L74.441 64.0019L74.433 63.9015L74.4068 63.6224L74.3997 63.4955L74.2614 63.3793Z" fill="#0456A4"/>
<path fill-rule="evenodd" clip-rule="evenodd" d="M69.1043 55.8752L68.974 55.7529L68.8375 55.6361L68.701 55.5191L68.5636 55.4045L68.4296 55.2834L68.2956 55.166L68.1554 55.0526L68.018 54.9374L67.8809 54.8179L67.8082 54.8262L67.4468 54.8616L67.355 54.8653L66.5281 55.8263L66.5395 55.9082L66.5641 56.2791L66.5746 56.3287L67.9638 57.5032L68.0285 57.505L68.311 57.4733C68.7121 57.2546 69.0812 56.8198 69.2636 56.3984L69.2251 56.0277L69.1043 55.8752V55.8752Z" fill="#0456A4"/>
<path fill-rule="evenodd" clip-rule="evenodd" d="M73.4552 59.6213L73.3461 59.4781L73.2108 59.3604L73.0744 59.2436L72.9379 59.1272L72.8045 59.0064L72.6686 58.8903L72.5278 58.7784L72.3913 58.6613L72.2333 58.576C72.0256 58.6284 72.0752 58.6749 72.0595 58.4722L71.7776 58.515L70.813 59.6253L70.8361 59.862C71.0607 59.8447 70.9932 59.8022 70.9735 60.0486L71.0801 60.1938L71.2166 60.3109L71.3531 60.4276L71.4892 60.544L71.6257 60.6611L71.7641 60.7745L71.9012 60.8919L72.037 61.0077C72.5109 61.1066 72.2638 61.073 72.4083 61.1981L72.6021 61.1741C72.5876 60.9877 72.5546 61.053 72.7721 61.0466L72.9114 60.9261L73.0343 60.7933L73.1511 60.6571L73.2678 60.5209L73.3846 60.3845L73.4891 60.2329C73.4616 60.0326 73.4099 60.0761 73.592 60.0622L73.5858 59.7704C73.3865 59.7855 73.4373 59.8281 73.4552 59.6213V59.6213Z" fill="#0456A4"/>
<path fill-rule="evenodd" clip-rule="evenodd" d="M75.6436 61.4848L75.5108 61.3693L75.3703 61.2544L75.2345 61.1348L75.1017 61.019L74.9612 60.9047L74.8247 60.7879L74.6898 60.6668L74.5548 60.5532L74.4054 60.4688C74.1731 60.531 74.2353 60.576 74.2169 60.3369L73.9152 60.3545L72.9722 61.4587L73.0101 61.7738L74.3755 62.996L74.4211 63.0071L74.8377 62.9285C75.2012 62.7307 75.5019 62.3752 75.6821 62.0028C75.6578 61.8151 75.6134 61.861 75.7933 61.8475L75.7718 61.6383L75.6436 61.4848Z" fill="#0456A4"/>
<path fill-rule="evenodd" clip-rule="evenodd" d="M71.2437 57.7807L71.1279 57.6534C70.9523 57.6744 70.9976 57.7135 70.9914 57.5367C70.8158 57.5576 70.8614 57.5964 70.8549 57.4196C70.6771 57.4415 70.7243 57.4794 70.7206 57.297L70.5872 57.1851C70.4042 57.2122 70.4489 57.2535 70.4436 57.0724C70.2662 57.0949 70.3121 57.1337 70.3077 56.9538C70.1343 56.9738 70.1796 57.0126 70.1725 56.8379C69.9873 56.8623 70.0357 56.8992 70.0471 56.7061L69.9189 56.7227L69.6786 56.7372L69.5369 56.7541L68.7393 57.6987L68.7516 57.8568L68.7716 58.0496L68.7664 58.2034L68.9001 58.3248L69.0359 58.4406L69.1752 58.5552L69.3095 58.6748L69.4432 58.794L69.5819 58.9077L69.7187 59.025L69.8545 59.1409C70.2634 59.2706 70.0308 59.1911 70.162 59.3581L70.455 59.3384C70.4365 59.1033 70.3854 59.16 70.6257 59.1855L70.7665 59.0866L70.8802 58.9539L70.9883 58.8106C70.9708 58.6322 70.9313 58.6803 71.1115 58.6707L71.2295 58.5429L71.3127 58.3919C71.2622 58.1719 71.2166 58.2295 71.4381 58.2123L71.4113 57.9341C71.1753 57.9523 71.2246 58.0102 71.2437 57.7807V57.7807Z" fill="#0456A4"/>
<path fill-rule="evenodd" clip-rule="evenodd" d="M76.4971 59.3851L76.3606 59.269L76.2241 59.1519L76.0879 59.0351L75.9514 58.9187L75.8149 58.8016L75.6745 58.6882L75.5361 58.5669L75.4788 58.5635L75.0872 58.5918L75.0355 58.6017L74.3235 59.4221L74.3253 59.4671L74.3589 59.8867L74.3682 59.9329L74.508 60.0519L74.6424 60.1726L74.7788 60.2891L74.9141 60.4071L75.0543 60.5214L75.1901 60.6354L75.3245 60.7561L75.6877 60.8199L75.9644 60.8033C76.3076 60.6551 76.5414 60.3797 76.6647 60.022L76.6221 59.7277L76.6169 59.5306L76.4971 59.3851V59.3851Z" fill="#0456A4"/>
<path fill-rule="evenodd" clip-rule="evenodd" d="M70.6665 54.4736C70.4838 54.4881 70.5303 54.5291 70.5347 54.3427C70.3501 54.376 70.3969 54.4154 70.3895 54.2303C70.2084 54.2675 70.2528 54.3054 70.2503 54.1224C70.071 54.1483 70.1166 54.1868 70.1141 54.0057C69.9345 54.0315 69.9801 54.0703 69.9776 53.8892C69.7983 53.9144 69.8436 53.9533 69.8411 53.7724L69.6806 53.6671L69.5004 53.5903L69.2816 53.6162L68.3811 54.6086L68.3984 54.8775C68.5823 54.8631 68.5219 54.8307 68.5139 55.0396L68.6362 55.1807C68.81 55.1619 68.7644 55.1231 68.7727 55.2972C68.9464 55.2784 68.9009 55.2395 68.9092 55.4139C69.0826 55.3954 69.0373 55.3563 69.0457 55.531C69.2191 55.5122 69.1735 55.4731 69.1818 55.6471C69.3556 55.6283 69.31 55.5895 69.3183 55.7642L69.6113 55.9783C70.3341 55.9244 70.8246 55.3227 70.7882 54.6024C70.6104 54.6166 70.6548 54.6557 70.6665 54.4736V54.4736Z" fill="#0456A4"/>
<path fill-rule="evenodd" clip-rule="evenodd" d="M62.2231 70.293L62.0728 70.3207C62.1021 70.4772 61.4323 71.7558 61.2952 71.9L61.3063 72.0035L62.2897 72.9598H62.5355L62.6563 72.8165L62.8824 72.6791C62.8677 72.4899 62.8218 72.5383 63.0044 72.5207L63.5944 71.8664L63.5544 71.4643L62.2231 70.293Z" fill="#0456A4"/>
<path fill-rule="evenodd" clip-rule="evenodd" d="M73.5074 56.9458L73.1167 56.9741L72.418 57.7672C72.4518 57.9693 72.5011 57.9224 72.3098 57.9372L72.3323 58.1677L72.483 58.2949L73.5825 59.2047L74.0228 59.2173L74.0468 59.1998C74.0323 59.01 73.9846 59.055 74.1636 59.0426L74.2804 58.9065L74.4017 58.7734L74.521 58.64L74.6257 58.4949C74.5955 58.3063 74.5576 58.3599 74.752 58.3448C74.7317 57.7173 74.0351 57.1812 73.5074 56.9458V56.9458Z" fill="#0456A4"/>
<path fill-rule="evenodd" clip-rule="evenodd" d="M72.5523 56.1262L72.4149 56.0107L72.2793 55.893L72.1419 55.7774L72.0067 55.6597L71.8714 55.5387L71.7368 55.4253C71.5618 55.4413 71.6049 55.4807 71.6101 55.3042L71.4937 55.3091L71.2078 55.3369L71.0873 55.3606L70.4067 56.1761L70.4163 56.5859L71.6366 57.6007L71.9857 57.5453L72.7134 56.7553L72.7125 56.6157L72.6977 56.3576L72.6918 56.2297C72.5196 56.2617 72.564 56.299 72.5523 56.1262V56.1262Z" fill="#0456A4"/>
<path fill-rule="evenodd" clip-rule="evenodd" d="M75.6359 56.1112L75.5019 55.9922L75.3657 55.8758L75.2293 55.759L75.0928 55.6419L74.9535 55.5298L74.7742 55.4725L74.3792 55.4722L74.2995 55.4771L73.6978 56.1823L73.699 56.2507L73.7267 56.577L73.7313 56.6725L74.6947 57.4957L74.7419 57.4976L75.1547 57.4658L75.208 57.4606C75.1941 57.2844 75.1538 57.3293 75.3319 57.3278L75.4508 57.1888C75.4246 57.0117 75.3864 57.0564 75.5654 57.0551L75.6905 56.9236L75.81 56.7831L75.8014 56.7239L75.7422 56.2683L75.6359 56.1112V56.1112Z" fill="#0456A4"/>
<path fill-rule="evenodd" clip-rule="evenodd" d="M73.9673 54.7431L73.8579 54.6005L73.7242 54.4797L73.5895 54.3626L73.4494 54.2496L73.316 54.1288L73.1681 54.0302C72.9767 54.0712 73.0233 54.1143 73.0088 53.9282L72.6443 53.9569L71.9443 54.7912L71.9792 55.1313C72.1566 55.1178 72.1107 55.0777 72.1076 55.2601L72.2333 55.3947L72.3686 55.5127L72.5041 55.6307L72.6415 55.7463L72.779 55.8618L73.1157 55.9397L73.2325 56.0673L73.2374 56.0623C73.2226 55.8713 73.1822 55.9271 73.3831 55.9169L73.5378 55.9253L73.6835 55.7977C73.6626 55.6221 73.6237 55.6677 73.8003 55.6609C73.7793 55.4856 73.7405 55.5312 73.917 55.5244L74.0246 55.3695L74.108 55.1942L74.0948 54.915C73.889 54.9308 73.9512 54.9693 73.9673 54.7431V54.7431Z" fill="#0456A4"/>
<path fill-rule="evenodd" clip-rule="evenodd" d="M77.3513 57.6771L77.245 57.5443L77.1095 57.4263L76.972 57.3108L76.8356 57.1947L76.6994 57.0779L76.5484 57.0049C76.2949 57.0834 76.3617 57.1318 76.3414 56.8696L76.065 56.8804L75.3718 57.7363L75.4066 57.9868L75.5256 58.1661L75.6488 58.3053L75.7853 58.4218L75.9184 58.5416L76.0561 58.6593L76.1944 58.7721L76.5309 58.9689L76.7841 58.9597C76.7681 58.753 76.7268 58.8124 76.9489 58.8232L77.091 58.7117L77.2124 58.5795L77.3288 58.4434L77.4286 58.2948C77.3947 58.1069 77.3544 58.1562 77.542 58.1417L77.5127 57.841C77.2746 57.8592 77.3279 57.9144 77.3513 57.6771V57.6771Z" fill="#0456A4"/>
<path fill-rule="evenodd" clip-rule="evenodd" d="M72.1684 53.2511L72.0479 53.1269C71.8699 53.1507 71.9151 53.1898 71.9099 53.0111C71.7328 53.0336 71.7787 53.0724 71.7744 52.8928C71.5975 52.9134 71.645 52.951 71.6416 52.7692L71.5079 52.6571C71.3178 52.6851 71.3655 52.724 71.3772 52.5283L71.2491 52.545L71.0331 52.5662L70.8793 52.5822L70.3088 53.2637L70.3032 53.7218L70.3128 53.7622C70.4939 53.7483 70.4493 53.7058 70.4508 53.8861L70.5824 54.0112C70.7558 53.9921 70.7105 53.9532 70.7185 54.1273C70.8923 54.1085 70.8467 54.0697 70.855 54.2444C71.0288 54.2256 70.9832 54.1864 70.9915 54.3611L71.2845 54.5747C71.8887 54.5401 72.1213 54.2715 72.368 53.7428L72.3169 53.398C72.1043 53.4162 72.1545 53.4643 72.1684 53.2511V53.2511Z" fill="#0456A4"/>
<path fill-rule="evenodd" clip-rule="evenodd" d="M72.6447 65.1368C72.356 65.1707 71.7134 64.3078 71.5565 64.3549C71.3375 64.3996 71.3871 64.4528 71.3711 64.2461L71.0753 64.2821L70.904 64.406L70.0903 65.399L70.094 65.4665L70.2003 65.8251L70.2234 65.8577L70.4505 65.7255L70.6166 65.7046L70.9028 65.5518L72.1786 65.4405L72.7353 65.4141L72.7726 65.2579C72.5911 65.284 72.6358 65.3219 72.6447 65.1368V65.1368Z" fill="#0456A4"/>
<path fill-rule="evenodd" clip-rule="evenodd" d="M63.937 64.541L63.7522 64.557C63.8162 64.7468 63.4481 66.7888 63.3313 66.7975L63.3405 67.1262C63.905 67.1062 64.588 66.3985 64.7676 65.8877L64.7457 65.2614C64.5902 65.2731 64.1191 64.7228 63.937 64.541V64.541Z" fill="#0456A4"/>
<path fill-rule="evenodd" clip-rule="evenodd" d="M76.9446 55.395L76.3574 56.0805C76.4332 56.5981 76.8562 56.937 77.3239 57.1601L77.6455 57.1431L77.7343 57.1471C77.7201 56.9644 77.6773 57.0097 77.8594 57.0073C77.8338 56.8279 77.795 56.8732 77.9761 56.8711C77.9506 56.6918 77.9114 56.737 78.0929 56.7346C78.067 56.5531 78.0288 56.6033 78.2137 56.5892L78.197 56.5131L78.1582 56.1954C77.8954 55.8371 77.5238 55.4147 76.9446 55.395V55.395Z" fill="#0456A4"/>
<path fill-rule="evenodd" clip-rule="evenodd" d="M74.9976 53.4061L74.8611 53.2899L74.7237 53.1744L74.5885 53.0561L74.452 52.9396L74.2955 52.8364L73.9837 52.8438L73.3777 53.5478C73.423 54.0494 73.8451 54.3226 74.2816 54.6082L74.6982 54.5479L74.8463 54.4292C74.8306 54.2567 74.7924 54.302 74.969 54.3005L75.0941 54.1686L75.18 53.9945L75.1588 53.6196L75.1369 53.5139L74.9976 53.4061V53.4061Z" fill="#0456A4"/>
<path fill-rule="evenodd" clip-rule="evenodd" d="M72.4644 51.5596L71.8633 52.2343C71.9474 52.8089 72.4154 53.1053 72.8208 53.3089L73.1871 53.2414L73.3292 53.1318L73.4503 52.9981L73.5701 52.8653L73.6456 52.6998V52.364C73.5085 52.1425 73.4419 52.0494 73.1597 51.8239C72.8208 51.5531 72.8861 51.5685 72.4644 51.5596V51.5596Z" fill="#0456A4"/>
<path fill-rule="evenodd" clip-rule="evenodd" d="M76.4645 54.729L76.3255 54.6134L76.1884 54.4994L76.0547 54.3817L75.9164 54.2634L75.7719 54.1458L75.4672 54.1211L74.8643 54.8094C74.9311 55.3245 75.3464 55.628 75.8012 55.8843L76.181 55.8658L76.2162 55.8504C76.2017 55.668 76.1573 55.7124 76.3335 55.7032L76.4546 55.5691L76.5714 55.4329L76.7002 55.2952L76.6989 55.2373L76.658 54.9117L76.6164 54.8217L76.4645 54.729V54.729Z" fill="#0456A4"/>
<path fill-rule="evenodd" clip-rule="evenodd" d="M60.7457 72.9539L60.631 73.0978L60.5035 73.2352L60.4132 73.4912L60.2909 73.6339L60.1677 73.7707L60.0691 74.0177L59.9332 74.1398C59.8439 74.4229 59.8211 74.2741 59.94 74.5997C60.3673 74.6857 60.0713 74.6817 60.4767 74.532L60.4943 74.5208L60.62 74.3613L60.8393 74.2347C60.8248 74.0476 60.7808 74.0948 60.9666 74.0892L61.0975 74.0917L61.2198 73.9488L61.348 73.8172L61.4573 73.8098L61.5757 73.657C61.7149 73.3886 61.6219 73.3812 61.3255 73.116C61.0534 72.8726 60.9222 72.6677 60.7457 72.9539V72.9539Z" fill="#0456A4"/>
<path fill-rule="evenodd" clip-rule="evenodd" d="M75.96 52.5631L75.8263 52.4371L75.6898 52.3207L75.5447 52.2079L75.3959 52.1025C74.8247 52.1574 74.7357 52.3422 74.7036 52.8897L75.4298 53.4871L75.6627 53.4708L75.7721 53.3331L76.1023 53.0459L76.0854 52.6981L75.96 52.5631V52.5631Z" fill="#0456A4"/>
<path fill-rule="evenodd" clip-rule="evenodd" d="M78.2926 54.5312L78.1503 54.4098L78.011 54.302L77.8677 54.1886L77.7134 54.0854L77.4768 54.0876L77.4164 54.2327L77.1548 54.5568L77.0159 54.6261C77.1976 55.1336 77.5372 55.4441 78.0797 55.4309L78.2131 55.3113L78.3413 55.1696L78.4488 55.0307L78.4211 54.6523L78.2926 54.5312V54.5312Z" fill="#0456A4"/>
<path fill-rule="evenodd" clip-rule="evenodd" d="M77.0555 53.4874L76.9196 53.3688L76.7816 53.2533L76.6137 53.1528L76.1802 53.1624L75.9014 53.4696L75.8989 53.5028L75.9778 53.9037L76.7077 54.457L77.2465 54.0081L77.0555 53.4874Z" fill="#0456A4"/>
<path fill-rule="evenodd" clip-rule="evenodd" d="M74.2178 51.1602L73.9238 51.1808L73.5732 51.5151L73.6111 51.8891L74.2563 52.4372L74.5585 52.4073L74.8956 51.9849L74.8857 51.7178L74.2178 51.1602Z" fill="#0456A4"/>
<path fill-rule="evenodd" clip-rule="evenodd" d="M78.2349 53.1245L77.9872 53.1442C77.6166 53.4751 77.7447 53.3044 77.6948 53.6957C78.1677 53.9742 77.9647 54.0516 78.5473 54.1477L78.8665 53.8452L78.8471 53.594L78.2349 53.1245Z" fill="#0456A4"/>
<path fill-rule="evenodd" clip-rule="evenodd" d="M77.3443 52.2876L76.9743 52.3409L76.8375 52.4718L76.7358 52.6388L76.7442 52.8862L76.8646 53.0202L76.9993 53.1373L77.1401 53.2494L77.5526 53.3061L77.8924 52.9232L77.3443 52.2876Z" fill="#0456A4"/>
<path fill-rule="evenodd" clip-rule="evenodd" d="M75.3623 50.6685L75.0727 50.7285L74.9303 50.8404L74.8484 50.9997L74.8644 51.2218L74.9621 51.3771L75.0949 51.4975L75.2341 51.61L75.4026 51.6824C75.7893 51.5336 75.8552 51.5262 75.882 51.0847L75.3623 50.6685Z" fill="#0456A4"/>
<path fill-rule="evenodd" clip-rule="evenodd" d="M76.2992 51.4961C75.9338 51.6776 75.9459 51.6505 75.8174 52.0433L75.9086 52.2041L76.0444 52.3202L76.1852 52.4321L76.3014 52.5492L76.6237 52.51C76.5664 52.3276 76.5275 52.3708 76.7124 52.3624L76.8033 52.2204L76.8295 51.9361L76.2992 51.4961V51.4961Z" fill="#0456A4"/>
<path fill-rule="evenodd" clip-rule="evenodd" d="M78.1165 51.4365L77.7465 51.4901L77.6097 51.6204L77.5081 51.7877L77.5164 52.0351L77.6368 52.1691L77.7715 52.2862L77.9123 52.3981L78.3248 52.4548L78.6646 52.0721L78.1165 51.4365Z" fill="#0456A4"/>
<path fill-rule="evenodd" clip-rule="evenodd" d="M77.0715 50.6445C76.7064 50.8257 76.7181 50.7986 76.5896 51.1917L76.6808 51.3525L76.8167 51.4684L76.9575 51.5808L77.0736 51.6976L77.3959 51.6585C77.3386 51.4761 77.2997 51.5195 77.4846 51.5109L77.5755 51.3688L77.6017 51.0845L77.0715 50.6445V50.6445Z" fill="#0456A4"/>
<path fill-rule="evenodd" clip-rule="evenodd" d="M78.307 50.3574L77.9369 50.4107L77.8005 50.541L77.6985 50.7087L77.7068 50.9561L77.8273 51.0901L77.9619 51.2071L78.1027 51.3193L78.5152 51.3757L78.8551 50.9927L78.307 50.3574Z" fill="#0456A4"/>
<path fill-rule="evenodd" clip-rule="evenodd" d="M20.4065 41.0273H39.6319V44.3381H24.2074V80.4234H39.6319V83.6793H20.4065V41.0273Z" fill="#0456A4"/>
<path fill-rule="evenodd" clip-rule="evenodd" d="M84.796 41.0273H65.5706V44.3381H80.9951V80.4234H65.5706V83.6793H84.796V41.0273Z" fill="#0456A4"/>
<path fill-rule="evenodd" clip-rule="evenodd" d="M17.8079 86.1861H84.5494V89.1545H17.8079V92.7286L12.3936 87.6698L17.8079 82.6113V86.1861Z" fill="#0456A4"/>
<path fill-rule="evenodd" clip-rule="evenodd" d="M86.98 35.8946H20.2385V38.8631H86.98V42.4372L92.3944 37.3784L86.98 32.3198V35.8946Z" fill="#0456A4"/>
<path d="M15.2 27.936H8.48V24.736L14.88 9.6H18.72V24.736H20.384V27.936H18.72V32H15.2V27.936ZM15.2 24.736V16H15.136L11.68 24.736H15.2Z" fill="#0456A4"/>
</svg>
