<svg width="104" height="104" viewBox="0 0 104 104" fill="none" xmlns="http://www.w3.org/2000/svg">
<rect x="0.5" y="0.5" width="103" height="103" fill="#F8F8F8" stroke="#0456A4"/>
<path fill-rule="evenodd" clip-rule="evenodd" d="M41.0466 38.9263C41.5324 39.0097 42.0139 39.1048 42.4905 39.2135L42.0004 39.2689C42.1377 39.4653 41.8895 39.3874 42.1869 39.47C42.5819 39.5808 42.2017 39.5127 42.4111 39.4302L42.5499 39.4453C42.9975 39.5796 42.44 39.3684 42.6718 39.502C42.8267 39.5912 42.7254 39.5454 42.7374 39.5497C42.7491 39.5534 42.7405 39.574 42.8504 39.5183L43.0806 39.4158C43.1668 39.4241 43.2595 39.4265 43.3556 39.4259C43.6437 39.5016 43.9291 39.5823 44.2133 39.667C43.661 39.7815 43.1644 40.0047 42.6989 40.3541C42.9831 40.5847 43.1844 40.4637 43.1056 40.8901L42.4335 40.7097L42.7463 41.1007C42.5585 41.3131 42.8236 41.1582 42.4825 41.3097L42.7097 41.5157C42.0167 41.6327 42.5388 41.399 42.2451 41.8278L41.9108 41.7995C41.4632 41.7579 41.8212 41.7373 41.6042 41.9023C41.9108 41.9476 41.6651 41.8177 41.844 42.0763L41.7695 42.1504L41.3299 41.9488L41.1221 41.8361L41.1864 42.0643L41.3533 42.1526L41.4259 42.1431L41.7279 42.3715L41.8625 42.5544L41.6947 42.7372L41.4739 42.6769L41.1347 42.499L40.9355 42.4282L40.8607 42.6464L40.4331 42.7218C40.5504 42.8342 40.3687 42.8361 40.6252 42.841C40.8256 42.8444 40.7027 42.8376 40.8638 42.7822L41.0476 42.7502L41.2018 42.9617C39.4953 43.5149 40.2083 43.2135 38.9363 43.53C38.4776 43.6436 37.695 44.4486 37.1793 44.1556C37.1766 44.154 37.1559 44.1426 37.1535 44.1408C37.1535 44.1408 36.3961 44.4797 36.3065 44.6435L36.2065 44.8636C36.1191 44.9886 35.9796 45.0625 35.8303 45.161C35.2247 45.56 34.98 46.8148 34.4323 46.123C34.5745 46.0101 34.5357 46.2976 34.5077 46.0249L34.4422 45.8672L33.7338 45.9842C33.4373 45.3045 32.9223 43.9114 33.5678 43.409C34.0835 43.0069 34.0478 43.6463 34.432 43.0556C34.3932 42.8117 34.4874 42.9623 34.2639 42.8542L33.8477 42.7188C33.7596 42.3789 33.8209 42.6667 33.9363 42.5442L34.1648 42.5516C34.1648 42.7668 34.1229 42.6978 34.368 42.6633L34.4089 42.6615C34.6339 42.5353 34.4702 42.6175 34.2488 42.2847L33.7701 42.3019C34.1737 42.4199 33.7735 42.3573 33.8899 42.1856C33.9751 41.9026 34.0444 41.5566 33.8569 41.2309C33.3914 40.5758 32.3709 41.0816 31.7139 40.9584C31.7703 40.9012 31.7897 40.795 31.8475 40.7414C31.286 40.8011 31.7909 40.7765 31.5708 40.6201L31.661 40.6266L32.5504 40.5862C32.3139 40.3427 32.382 40.4896 31.3925 40.4341L31.7792 40.1823C32.3533 40.2347 32.6686 40.0472 33.2101 40.0275C33.3779 40.1959 33.3545 40.1309 33.5817 39.9708C33.6611 39.8144 33.7181 39.6981 33.8043 39.5863C34.2328 39.7082 34.1205 39.7618 34.3181 39.4909C34.9683 39.7381 34.4622 39.2317 36.2474 39.3508C37.2858 39.4204 39.3285 38.9663 41.0466 38.9263V38.9263ZM52.2003 43.5648C58.1263 47.7784 62.2959 54.2998 63.4011 61.818C63.3497 61.5686 63.2958 61.2623 63.2158 60.8282C62.943 60.9135 63.2586 60.8587 62.8645 61.1299C62.5105 61.0514 62.3116 60.9218 62.1103 60.6364L62.3904 60.3236C61.8147 60.2941 61.3274 59.8932 61.0774 59.4302C60.4097 59.4308 59.7792 59.5287 59.2102 59.4647C58.9089 59.4305 58.6392 59.4481 58.3399 59.3419C57.8261 59.1596 58.021 59.2409 57.8095 58.7618C57.4591 58.8696 57.5693 59.2997 56.426 58.7172C55.9011 58.4503 55.7542 58.2018 55.5701 57.6265C55.1674 57.6003 55.105 57.4845 54.8242 57.7034C54.8069 57.9149 55.0055 58.3336 55.1995 58.5217C55.6933 59.0014 55.543 58.7412 55.6597 59.4853L55.9017 59.2855C55.9771 59.1584 55.7505 59.1624 56.0529 59.1941C56.1772 59.7291 55.9319 60.0348 56.675 59.8671C57.1907 59.7504 57.0309 59.5866 57.5044 59.2178C57.606 58.9792 57.356 59.038 57.7079 59.0426V59.365C58.0376 60.2245 58.3057 59.7039 58.9125 60.4818C58.8611 61.0646 58.7149 60.7161 58.7207 61.4134C58.1429 61.0979 58.7614 61.3845 57.8852 62.1855L56.6981 62.8049C56.4783 63.2264 56.7431 63.094 56.3662 63.2205C56.0267 63.3902 55.5045 63.7107 55.2632 63.8076C55.104 63.872 54.742 63.977 54.5801 64.0395C54.2519 64.1663 54.339 64.2429 53.9668 64.3328C53.5934 64.3008 53.7445 64.2663 53.6352 64.4618C53.6263 64.5859 53.4896 64.842 54.0681 65.2084C54.6345 64.9695 54.2488 65.0021 55.0692 64.931C55.7558 64.8719 55.6797 64.7235 56.1886 64.6462C56.2804 65.2687 55.765 66.6578 55.4337 67.2273C54.9726 68.0207 54.3051 68.1771 53.6528 68.8922C53.2464 69.3383 52.2477 71.1168 52.2253 71.63C52.1954 72.2968 52.2111 73.0926 52.8317 73.4143C52.7003 75.4677 53.0112 74.8607 51.6868 75.9369C51.4479 76.1318 51.4233 76.1733 51.2447 76.4061C50.9596 76.7777 51.0643 76.5877 50.7128 76.8451C50.7571 77.5249 50.8738 77.7207 50.8122 78.5066L49.8523 79.1602C49.852 79.6765 50.0099 79.2803 49.7963 80.0274C49.5928 80.7404 49.6636 80.3393 49.1916 80.7287C48.7144 81.1222 48.7495 81.5427 48.1437 81.9731C47.8638 80.9667 46.9741 80.2309 45.9191 80.2309C45.4247 80.2309 44.9672 80.3935 44.5907 80.6684C44.3025 80.0283 43.9491 79.2085 43.8891 78.6735C43.8278 78.1243 43.9811 78.0719 43.6474 77.5716C42.1269 75.2957 43.4568 74.1911 43.5554 73.6573C43.5354 73.318 43.4741 73.2743 43.4381 73.0138C43.3082 72.0718 43.7339 72.7869 42.9381 71.3982C42.6167 70.8379 42.1599 70.1316 41.8939 69.5957C42.4742 68.1767 42.017 69.2644 42.1823 68.4492C42.283 67.9539 42.3366 67.6239 41.6697 67.6029L40.7452 67.497L40.6766 67.1565C40.3241 66.1701 38.8384 66.9573 38.2581 67.2963C37.0211 67.0007 37.5934 66.9604 36.4352 67.5327C35.8996 67.3338 35.4187 66.8505 34.9566 66.5202C34.1491 65.9433 33.9798 64.98 33.5475 64.4871C33.4299 64.3538 33.5472 64.5723 33.4081 64.3304C32.8758 63.4009 33.5137 63.1849 33.3905 62.3232C33.3025 61.7084 33.4696 61.7163 33.4062 61.362C33.2855 60.685 33.3336 61.1274 33.5543 60.5342C33.7307 60.0595 33.5937 60.0952 33.9274 59.5922C34.9972 57.9802 34.4354 58.708 35.1872 58.3235C35.8488 57.9842 35.6086 57.0966 36.0224 56.6244C36.3761 56.222 36.3192 56.697 36.6901 55.9822C36.8394 55.6953 37.0343 55.4333 37.2172 55.2166C37.0611 55.0208 37.119 55.1033 36.9965 54.8502L36.354 54.8127L36.1428 54.9188L36.2594 54.7465C36.2982 54.4925 36.3118 54.5895 36.2601 54.3589C35.9574 53.0061 36.3284 54.6255 36.3835 53.2096C36.3961 52.8861 36.3383 52.6847 36.3598 52.4141C37.0192 52.2223 36.6987 52.2075 37.4933 52.311C37.7251 52.3415 38.5533 52.4489 38.6995 52.4181C38.8073 52.0893 38.9215 51.5186 38.7746 51.2741L38.4846 50.8354L38.388 50.8598L37.8351 50.543C38.3187 50.232 38.2479 50.5094 38.7645 50.4322L38.8787 50.0396C39.3626 50.2755 39.7481 50.0227 39.7484 49.5418L39.097 49.6425C38.8692 49.7567 38.8128 49.8057 38.5474 49.6443L38.4323 49.668C38.2208 49.7484 38.1417 49.7435 37.941 49.8497L37.659 49.9307L37.8163 49.7527C38.2485 49.3857 38.3249 49.5892 38.6235 49.3063L38.2682 49.3202L37.8477 49.3168C38.0429 48.9104 37.9206 49.3762 38.1854 48.8701L38.0721 48.6333C38.1097 48.6435 38.1845 48.6743 38.1996 48.6718C38.3492 48.6459 38.2648 48.6681 38.3643 48.6001L38.4489 48.6576L38.5964 48.4394L38.379 48.2833C38.2802 48.0961 38.4138 48.1451 38.1562 48.1475C37.9585 48.166 37.9921 48.2233 37.9921 48.0546C38.2171 47.8474 38.1632 47.8717 38.0118 47.6821L37.8153 47.8815C37.9188 47.509 37.7956 47.7864 38.0038 47.4635L37.8498 47.4139L37.6845 47.4228L37.8498 47.4139L37.8686 47.3111L37.8797 47.1461L37.969 47.0223L38.0853 46.9703C38.2882 47.0155 38.2076 47.0266 38.1565 46.789L38.4588 46.8447L38.5484 46.6843L38.685 46.7191L38.6647 46.7468L38.5028 46.9189L38.9886 47.0774L38.6503 47.6045C39.0474 47.9237 38.8294 47.82 39.076 48.1208C39.4171 48.5364 39.3362 48.0398 39.4079 48.8122L39.8879 48.7734C39.7773 49.3211 39.7142 49.0034 39.6049 49.4079C39.9941 49.6139 40.563 49.508 40.6941 48.8645C41.0962 48.7174 40.9235 48.69 41.3289 48.6272C41.6802 48.7879 41.252 48.6577 41.6894 48.5225C42.3498 48.3199 41.4681 48.661 41.9305 48.4606C41.9031 47.9674 41.7452 47.916 41.7482 47.4598C41.968 47.2618 42.013 47.3209 42.3018 47.1205C42.3396 47.1756 42.6241 47.2738 42.3707 47.7137L42.2716 47.8366C42.5988 47.916 42.4172 47.8104 42.533 48.0327L42.1706 47.9308L42.2928 48.1475L42.544 48.4024L43.2272 48.2593C43.386 48.3723 43.3654 48.4154 43.6136 48.5293C44.3512 48.0823 44.3139 48.1583 45.0423 48.3279L45.3979 48.0589C45.4111 48.0512 45.4431 48.0388 45.4653 48.0278C45.3499 47.5626 45.1341 47.3496 45.6429 47.0937C45.989 47.1399 45.8209 47.5054 46.2507 47.3419L46.4548 47.0214L46.0422 46.7957L45.9896 46.5593C46.6315 46.3216 46.8608 46.5445 47.4658 46.3084L47.8383 46.3589C47.6179 46.0981 47.9365 46.2782 47.5431 46.1166C47.2651 46.0039 47.302 46.0978 47.2571 46.1132C46.5868 46.0399 46.1484 46.47 45.5777 46.1782C45.3576 46.0248 45.36 45.8577 45.2535 45.2928L46.2574 44.4871C46.0924 44.2879 45.9277 44.1919 45.6426 44.2565C45.4748 44.2947 45.4558 44.2507 45.3249 44.4541L45.1901 44.8304C44.8779 45.3196 44.3336 44.8144 44.2437 45.9002L44.7659 46.2714C44.3915 46.9943 44.0073 46.3829 44.1972 47.505C43.7758 47.6747 43.6508 47.477 43.5572 47.8348L43.1225 47.8452C42.984 47.659 43.1194 47.7559 43.0015 47.8443C42.8959 48.057 43.0286 48.0653 42.7211 48.1946L42.6078 47.8231L42.8812 47.626C42.9246 47.6648 42.8692 47.8963 43.0382 47.6312C43.2764 47.2578 43.0708 47.4878 43.0194 47.3763C42.7306 47.1436 42.8402 47.1649 42.662 46.7723L42.512 46.4996C41.9684 46.6587 41.3927 47.4357 41.066 46.4682L40.9817 45.6006C42.0795 44.7352 42.0767 45.3848 43.069 44.0293C43.2823 43.7375 43.5003 43.7033 43.7001 43.3945L43.3174 43.4619L43.3334 43.3576C43.8093 43.0574 43.6253 43.171 44.1252 43.2541C44.2948 42.91 43.9463 43.2095 44.3407 42.9604C44.7988 42.672 44.4851 42.914 44.8819 42.8681C45.4604 42.8016 44.9395 42.8397 45.38 42.6969C45.5281 42.6495 45.8237 42.6046 46.0336 42.5485L45.949 42.78L46.375 42.6763L46.5982 42.5916L46.7244 42.7317L47.1594 42.6735L47.3242 42.6818C47.2961 42.7003 47.1906 42.7653 47.1813 42.777C47.0175 42.9774 47.1342 42.7431 47.1373 42.8915C47.5563 43.0063 47.5634 42.8641 47.979 43.0238C48.4241 43.1842 50.15 43.2625 50.2691 43.9324C49.8612 44.3055 49.3289 44.1223 48.7726 44.0906L48.6073 43.9573L48.4257 43.9736L48.0051 43.8058C48.115 44.2344 48.0461 43.9955 48.2853 44.0851L48.3687 44.0758L48.676 44.3421C48.7862 44.7996 49.1359 44.8833 49.5373 44.8048C49.5509 44.8024 49.5826 44.7909 49.6029 44.7799C49.3412 44.694 49.2698 44.8556 49.179 44.4517L49.7174 44.5619C49.9416 44.7374 49.7273 44.6684 50.1177 44.6749L50.0336 44.2879C50.7525 44.0229 50.1398 43.9517 51.0012 44.0955C50.9772 43.7498 51.1302 43.8889 50.8464 43.7461C51.0157 43.7461 50.9529 43.7793 50.9501 43.5712L50.73 43.2584L50.8417 43.2415C50.9784 43.3653 50.7395 43.3308 51.2146 43.3813L51.2943 43.376L51.4479 43.4185C51.4261 43.4428 51.3888 43.4416 51.3777 43.4844C51.3106 43.7538 51.3602 43.485 51.2564 43.6029C51.1271 43.7501 51.225 43.5688 51.1527 43.7498C51.4353 43.8778 51.4504 43.8077 51.6597 43.5881L51.741 43.6014C51.9685 43.5438 51.8435 43.562 52.1498 43.691L52.2003 43.5648V43.5648ZM9.72949 60.0459C11.2075 53.1881 15.2614 47.2886 20.8299 43.4114C21.0897 43.5272 21.4543 43.667 22.2969 43.5571C22.5896 43.1482 22.8301 42.6261 23.5154 43.0402C23.2688 43.5999 23.1656 43.0331 22.928 43.6768C23.5696 43.7048 23.8155 43.1301 23.9365 42.5753C25.0251 42.1141 25.0928 41.3205 26.1211 41.6111C25.6971 41.9738 25.2446 41.9186 24.7844 42.3281C24.7074 42.914 24.9758 42.5104 24.5849 43.0063L24.7305 43.0756C24.9241 43.1415 24.8736 43.0984 25.0152 43.1824L24.8444 43.5626L24.9364 43.5805L25.054 43.5931L25.248 43.5589C25.4345 43.8698 25.1402 43.5958 26.0327 43.3446L25.9942 42.9527L26.1983 42.9029L25.9404 42.7394L25.7772 42.7409L25.4182 42.5448L25.7815 42.5436C25.4543 42.342 25.5722 42.5455 25.4706 42.2865C25.9268 41.7964 26.4182 41.7161 27.0637 41.6129V41.7579C26.6731 41.8149 26.7362 41.7789 26.5659 42.0593C26.549 42.0747 26.517 42.0766 26.5127 42.1043L26.4437 42.1763C26.4419 42.1785 26.4317 42.1929 26.428 42.2025C26.5367 42.627 26.2809 42.5107 26.6943 42.3989L26.5979 42.1071C26.9939 42.0741 26.6915 42.1206 26.9012 41.9349C27.2143 41.9042 27.3226 41.9091 27.5646 41.741L27.9337 41.6514L27.8131 42.1705C28.873 42.1899 28.1483 42.0359 28.7111 42.0113C28.3478 41.9343 28.4226 42.0116 28.1298 41.8494C28.305 41.7001 28.3312 41.7305 28.5744 41.7207L29.0503 41.7715C29.1073 42.088 29.0679 41.8192 28.9475 41.9254C28.7665 41.9048 28.841 41.8808 28.841 42.1141C29.2477 42.1471 29.0457 42.2065 29.3902 42.4632L29.8825 42.3552L29.8305 42.6945C30.2488 42.6902 30.2054 42.7526 30.5096 42.8693L30.2076 43.0217L30.4748 43.1193C30.0493 43.1436 30.2334 43.0743 30.0213 43.2677L30.6607 43.5792L31.2183 43.8742C31.3248 43.9644 31.4076 43.7184 31.2771 44.0198L30.7762 44.2639C30.3313 44.513 30.9612 44.1842 30.6426 44.3372L30.5031 44.4C30.3341 44.4612 30.5835 44.4557 30.158 44.4797C30.0185 44.093 30.222 44.2848 29.7914 43.9757C29.6879 44.0758 29.7433 43.9871 29.6464 44.1448C29.646 44.1448 29.558 44.3295 29.5509 44.3452C29.7255 44.6552 29.7412 44.7288 29.8991 45.065C29.8874 45.0699 29.864 45.0535 29.8612 45.0662L29.6396 45.1964L29.2477 45.1336L28.7887 44.9877L29.0463 45.29C29.2147 45.7419 29.1202 45.3922 28.9891 45.532C28.08 45.4273 28.8752 45.1111 28.0677 45.2355L28.0067 45.0216C27.8737 44.6657 28.1538 45.008 27.8254 44.895L27.7324 44.7919C27.2586 44.4071 27.1946 45.0831 26.5619 44.6847C26.682 44.4052 26.8941 44.3516 27.0911 44.3812C27.5649 44.4523 27.2632 44.5598 27.8577 44.3569C28.0104 44.0401 27.7518 44.6343 27.9029 44.2177L27.9464 44.1057C27.9504 44.0949 27.9617 44.0641 27.9716 44.0444C29.1744 43.7464 28.6178 43.3893 27.7718 42.6317C27.7536 42.6501 27.7278 42.655 27.7176 42.688C27.7065 42.7221 27.6724 42.7308 27.6576 42.7403C27.5465 42.8133 27.6711 42.7557 27.427 42.8687C26.9932 42.6366 27.1625 42.8339 27.0357 42.8456C26.6801 42.8785 27.08 42.6061 26.6811 42.9158L26.8544 43.3723C27.0249 43.5167 26.988 43.3954 26.8504 43.562C26.8107 43.61 26.7094 43.6587 26.6038 43.7507C25.9336 44.1916 25.8274 43.6959 25.2729 44.0961C25.4552 44.275 25.4696 44.2454 25.6507 44.368C25.9397 44.5641 25.832 44.5419 26.0247 44.7143C25.5755 44.8969 25.8726 44.7032 25.5629 45.0699C25.1018 45.0588 25.248 44.972 24.6781 45.0791L24.5184 44.9012L24.9281 44.5108C24.5054 44.2002 24.769 44.4385 24.6732 44.4708C23.9679 45.0068 23.6875 44.8744 23.3048 44.9603C22.9394 45.0425 23.1182 45.0893 22.77 45.2629C22.4394 45.427 20.7874 45.9691 20.9558 46.8391L21.0091 47.3077L21.3213 47.4114C21.7757 47.4419 21.812 47.5167 22.2963 47.7236C23.0628 48.0512 22.2642 47.9111 23.4603 48.0272L23.1179 48.8756C22.9969 49.1268 23.0813 48.8011 22.9461 49.1247C23.4055 49.4953 22.9067 49.4094 23.4212 49.6745L23.6142 49.4377C23.7158 49.3248 23.6945 49.3694 23.8164 49.2219L24.1923 48.1965C26.3467 47.3607 25.3169 47.1793 25.47 46.736C25.747 46.4041 25.9182 46.4999 26.0694 46.1816C26.3788 45.5301 26.2042 45.3088 27.8555 45.4082L28.0464 45.8367L28.5307 45.9765C28.5501 45.9827 28.5852 45.9934 28.6104 46.0064C28.1338 46.4186 28.4245 46.0904 28.1994 46.6153L28.4885 46.8841C29.4339 46.7486 29.2797 46.3918 29.8529 46.1406C29.9573 46.5892 29.9831 46.619 30.1038 46.9934C30.251 47.4493 29.9 47.3018 30.0512 47.8658C30.343 48.1552 30.3276 47.8489 30.7143 48.1946L31.181 48.7531C30.9061 49.0819 31.08 49.0111 30.6577 49.3337C30.3498 49.4581 30.0367 49.5855 29.9591 49.874C30.3125 50.3429 30.4163 49.6564 30.5447 50.3589C30.5899 50.6039 30.6189 51.0568 30.4194 51.1676L30.1472 51.263C30.0909 51.0549 30.1014 51.0913 30.1866 50.9253L30.0656 50.8905L29.8926 50.9755L29.8012 50.9644C29.9637 50.6726 29.8834 50.8675 29.7772 50.7594L29.6774 50.7446L28.9186 50.7228C28.4882 50.5753 29.2147 50.0633 29.3671 49.8792C28.6397 49.7595 28.6704 49.8977 28.0249 49.9716L27.5665 49.818C27.7761 50.0683 27.5988 49.8937 27.7847 50.0138C27.8032 50.0261 27.8309 50.0402 27.8503 50.0535L28.0698 50.2105C27.7641 50.3499 27.8731 50.3093 27.6539 50.1751C27.6964 49.9833 27.7293 50.0261 27.5338 50.0677C27.0902 49.8666 26.2553 50.4934 25.7606 50.7637L25.804 50.8287C26.432 50.6107 26.9252 50.1415 27.6604 50.4238C27.5809 50.8936 27.6819 50.6088 27.2143 50.8434C27.4526 51.0731 27.3633 50.7317 27.3981 51.324C27.624 51.1067 27.5677 51.2233 27.9066 51.3218C27.9193 51.3455 27.935 51.3591 27.9436 51.3939C27.9522 51.4268 27.9768 51.4471 27.9888 51.4564C28.1249 51.5663 27.9051 51.4693 28.1837 51.5663L28.2527 51.5672L28.6009 51.1901L28.7508 51.5564C28.7363 51.5691 28.6917 51.5475 28.6812 51.5802C28.6363 51.719 28.6523 51.5866 28.5036 51.6697C28.4472 51.7196 26.6968 52.4221 26.6133 52.42C26.5715 52.0121 26.7854 52.0275 27.1315 51.8668C27.1949 51.8116 27.2026 51.719 27.2835 51.6451L26.8553 51.679C26.7312 51.6993 25.369 52.3366 25.1036 52.4588C24.4965 52.738 24.8619 52.9292 24.8407 53.1219C24.8281 53.2383 25.0094 53.1133 24.7711 53.2327C24.5261 53.3556 24.6018 53.1825 23.9648 53.2613L23.9494 53.5009L23.4636 53.4818L22.9723 54.1646C22.6614 54.0935 22.8168 54.422 22.7497 53.829L22.6192 54.6196L22.4095 54.9244C22.3304 54.8247 22.2196 54.9727 22.4 54.7425L22.3828 54.1797C21.9145 54.8163 22.3775 55.244 22.0149 55.42L22.1023 55.6177L21.9665 55.718C21.3333 55.8772 20.1933 56.6835 19.9036 56.975C19.0025 57.8829 20.2077 58.6907 19.359 59.7168C19.3368 59.7011 19.3079 59.6445 19.3002 59.6614L19.1195 59.4059C18.5429 58.4035 18.9969 58.3798 18.8264 58.0704C18.5081 57.7884 17.2018 57.5046 16.7342 57.5643L16.5618 58.0895C16.5541 58.108 16.5412 58.1421 16.5248 58.1655C15.7259 58.0661 15.7041 57.7465 14.7399 58.0895C13.0984 58.6723 13.8619 58.8327 13.3607 59.8489C13.2619 60.0499 13.1341 60.4821 13.1282 60.709C13.107 61.5261 13.4761 61.4799 13.5208 62.2788L13.8114 62.1551C13.8699 62.1877 14.0004 62.2957 14.1232 62.4146L14.3277 62.329C14.7676 62.2677 14.5016 62.3385 14.6798 62.176L15.1062 62.2117C15.7512 61.5615 15.4415 62.0113 15.584 61.2773L17.1002 61.0111C16.8893 61.6323 16.6295 61.2306 16.5664 62.1412L16.3103 62.2997C16.2641 62.2234 16.4491 62.1412 16.192 62.2302C16.1456 62.4595 16.1111 62.2246 16.2136 62.6119C16.1142 63.0171 15.8919 63.2027 15.8891 63.3456L16.9783 63.3569C17.7021 63.1932 17.3453 63.3766 17.9382 63.6023C17.7406 64.4086 17.2043 65.0933 17.9354 65.8626C18.0518 65.9854 17.9256 66.2773 18.8821 65.8737C19.4027 65.6539 19.6364 65.7496 19.8078 66.2847C20.4393 66.0464 20.2127 65.9968 20.5218 65.4938C20.7853 65.064 20.5412 65.3192 20.9475 65.1942C21.1187 65.1422 21.2893 65.0973 21.4669 65.0363C21.6916 64.818 21.6898 64.7999 21.985 64.7478L21.9056 64.9726L21.8699 65.8121C22.1983 65.4257 21.7652 65.6065 22.1802 65.2247C22.5936 64.8448 22.2944 65.358 22.5964 64.6579C23.1798 65.3174 22.8593 65.4221 24.7616 65.4735L25.0882 65.2595C25.0861 64.7321 25.0879 65.0212 25.3342 64.9516C25.4105 65.1268 25.4167 64.7878 25.3865 65.1345C25.3465 65.5923 25.3804 65.2222 25.2972 65.3152L25.2117 65.6566L25.4961 65.8247C25.768 66.1159 25.526 66.0725 25.8526 66.2477C26.0795 66.369 26.1716 66.244 26.4058 66.4968C26.5253 66.6258 26.8658 67.4302 27.0142 67.2323C27.4618 67.316 28.62 66.9139 29.2372 68.2285C29.4952 68.7768 29.4253 68.5256 29.691 68.8805L29.5965 69.467L29.8852 69.5861L30.1063 69.7973C30.1155 69.8133 30.1275 69.8469 30.1355 69.862L30.3692 69.8413L30.4049 69.8004L30.6774 69.8136C31.5852 70.0393 31.254 70.156 31.6523 70.6384C32.3278 70.3832 33.5444 70.6051 34.1131 71.1463C34.4274 71.4459 34.6678 71.4625 34.8501 71.6248C35.241 71.9711 35.1308 73.0689 34.8101 73.5018C34.6179 73.7619 34.4542 73.7699 34.287 74.0941C33.9431 74.7628 34.3292 74.3425 33.7532 74.7624C33.7402 75.5884 33.8477 75.9089 33.6316 76.7814C33.0571 79.1008 32.8952 78.2726 32.0806 78.6648C31.9513 78.7273 31.809 78.8471 31.7093 78.8933C31.2838 79.0894 30.7371 78.7929 30.815 80.4354C30.8411 80.9883 30.5835 81.2299 30.2799 81.6935C30.1734 81.9678 30.2673 81.9131 30.0453 82.0085L30.1789 81.7006C30.1047 81.4479 30.2393 81.6104 29.9924 81.5593C29.4706 82.4389 30.057 83.9061 27.9811 82.9813C28.1114 83.2861 28.7683 83.6448 28.8179 83.8646C28.6667 84.9867 28.0917 84.4858 27.217 84.8451C27.2829 84.9479 27.3901 85.4568 27.2786 85.6363C27.125 85.8829 26.6952 85.616 26.4203 85.5498C26.7217 86.4429 26.7152 85.7951 27.1586 86.3034L26.8652 86.5032C26.6561 86.8043 26.8159 86.5528 26.7266 86.8991C26.6638 87.1417 26.7303 87.0204 26.614 87.2082L26.3012 87.5102C26.774 88.1032 26.71 87.6974 27.1539 88.0068C27.1749 88.6564 27.1278 88.1709 26.9067 88.6872L26.5896 89.3337L26.9554 89.7311L26.6287 89.9783L26.9997 90.135C27.4627 90.2976 27.8586 90.6824 28.3121 90.7387C28.2302 90.84 28.3176 90.8132 28.1338 90.9579C27.8768 91.018 28.06 91.2445 27.0474 90.9684C26.251 90.7513 25.7381 90.5583 25.4118 90.0765C25.1168 89.64 25.1178 89.8656 24.9232 89.6501C24.813 89.5282 24.7431 89.2425 24.6147 89.0517C24.4956 88.8747 24.342 88.701 24.2219 88.5234L24.4312 88.0721L23.8632 87.6992L24.3038 87.3187C24.3309 86.8105 24.1114 86.4183 23.9978 85.9229L23.7352 85.8995C23.5714 85.7511 23.9482 85.7339 23.5443 85.7896L23.4079 85.9774L23.3273 85.6698C23.3251 85.3761 23.2916 85.5793 23.4378 85.4987L23.5111 85.414C23.5064 85.0317 23.5665 85.2308 23.4048 84.9741C23.3396 84.5874 23.1336 84.4858 23.121 84.17C23.1112 83.9074 23.3156 83.6134 23.3396 83.1688C23.3805 82.4023 23.0853 81.9097 23.0015 81.137C22.8818 80.0367 23.0585 77.8675 22.7417 76.9399C22.4345 76.0388 20.5818 75.8593 20.217 74.8191C19.9162 73.9614 19.1844 72.3673 18.2692 72.1038C18.4723 71.585 18.2923 71.7199 18.2556 71.2156L18.7349 70.6975L18.3375 70.4447C18.5758 68.8978 19.4627 68.7881 19.6256 68.3593L19.6961 66.9555L19.4649 66.3721C19.4067 66.1292 19.2469 66.1437 18.9908 66.0301C18.396 66.7936 18.9095 66.4361 18.6053 66.7194L17.7363 66.2828L17.4373 66.273C17.4287 65.8143 17.4832 66.0879 17.3283 65.8247C17.1673 65.7782 16.9044 65.6896 16.7939 65.587C16.7788 64.8036 16.7203 65.2179 16.3752 64.6743C16.3617 64.6536 16.3481 64.6278 16.3358 64.6059L16.233 64.3842C16.225 64.367 16.2139 64.3322 16.2013 64.3079C15.7032 64.5185 15.6662 64.149 15.0419 64.0878C14.4065 64.0256 14.6891 63.6937 14.167 63.2535C13.3493 63.1054 13.6214 63.4927 13.0285 63.3736L11.5733 62.7018C11.0243 62.3127 10.3732 62.4035 10.2165 61.8019C10.2384 61.1939 10.5616 60.96 10.0786 60.4489C9.93298 60.295 9.81969 60.1626 9.72949 60.0459V60.0459ZM49.9172 57.9617L49.6731 57.8669L50.8202 59.9551C50.9541 60.2642 50.7457 60.291 51.048 60.6466C51.2746 60.9138 51.3525 60.7762 51.4571 61.2429C51.8651 63.058 51.7099 61.6896 52.0812 62.8687C52.1412 63.0605 52.3047 63.5395 52.4337 63.2245C52.5547 63.0472 52.3031 63.1673 52.603 63.0479C52.7111 63.1556 52.6864 63.1479 52.7563 63.3104C52.889 63.7972 52.9927 64.0013 53.417 64.2417L53.541 64.3353L53.6411 64.2821C53.6476 64.2454 53.5684 64.1958 53.5657 64.2168C53.5635 64.2399 53.5413 64.1666 53.5256 64.1435C53.5056 63.7439 53.3132 62.6175 53.0962 62.3515C52.7649 61.9466 52.8921 62.059 52.676 61.6548C52.4722 61.274 52.3435 61.4196 52.0421 61.0754C51.9559 60.6758 52.0762 60.5132 51.9202 60.1844C51.7253 59.7744 51.6807 59.9372 51.3414 59.7688C51.3214 59.4416 51.3888 59.4828 51.1721 59.2221C50.8568 58.8437 50.8183 58.5574 50.5711 58.3804C50.0324 57.9959 50.5508 58.6501 50.0995 58.2739C49.9154 58.1197 49.9643 58.2031 49.9172 57.9617V57.9617ZM43.2567 54.6972L43.2552 54.6953L43.257 54.6972L43.2056 54.6436L43.2567 54.6972ZM20.1459 62.0639L19.7894 62.0328C19.6992 62.3607 19.7407 62.1033 19.858 62.2132L19.9956 62.3022C20.2164 62.296 20.2668 62.301 20.4399 62.1788L20.1459 62.0639ZM22.9394 61.8106C22.8679 61.6332 22.9714 61.7761 22.7291 61.7016C22.3298 61.4482 22.0115 61.4725 21.4878 61.4996L21.7092 61.8429C21.5537 61.9691 21.8425 61.995 21.3207 61.9728C21.0319 62.051 21.2129 61.9125 21.0765 62.1197L21.3351 62.2456C21.453 62.1824 21.6196 62.1729 21.7624 62.0867C21.9736 62.1818 21.9474 62.1609 22.0955 62.3084L22.4194 62.0861C22.589 62.2105 22.9763 62.1911 23.1733 61.99L22.9394 61.8106V61.8106ZM21.4801 60.9775C21.2683 61.2327 21.5996 61.0455 21.6023 61.0461C21.9077 61.1798 21.5928 60.8417 21.4801 60.9775ZM20.1739 59.7652L20.2712 60.0124C20.3349 59.9009 20.4941 60.1623 20.2786 59.7765L20.2536 59.473L20.0701 59.6312C20.0609 59.8116 20.011 59.7827 20.1739 59.7652V59.7652ZM18.3289 60.7854C18.3196 61.0896 18.4363 60.9784 18.4954 60.8039C18.5672 60.5936 18.3317 60.7057 18.3289 60.7854ZM18.1559 60.279C18.0109 60.2833 18.045 60.2454 18.0506 60.3892L17.7261 60.7746C18.0527 60.7441 17.8776 60.8747 18.1389 60.5751L18.4246 60.4815L18.803 60.532C18.9369 60.7407 18.8165 60.6696 19.2186 60.7294C20.0846 60.8882 19.5991 61.0579 20.2536 61.2047C20.0981 61.5418 20.0323 61.31 20.1702 61.5203L21.0667 61.5005L21.2997 61.3796C21.1519 61.1093 20.9703 61.0908 20.7157 60.9498C20.2585 60.9221 20.462 60.8938 20.1003 60.6549C19.9297 60.5419 19.7487 60.5046 19.5326 60.412C18.7399 60.0718 18.8704 60.3147 18.1559 60.279V60.279ZM29.9736 69.9691L30.1075 70.1403L29.9379 70.2394L29.9736 69.9691V69.9691ZM25.1858 65.1126C25.1384 64.8697 25.4108 65.1422 25.2714 65.1339C25.2714 65.1339 25.2615 65.1333 25.2612 65.1333C25.1935 65.1197 25.2461 65.4233 25.1858 65.1126ZM23.5101 62.1021C23.7361 62.2985 23.6825 62.3561 24.0227 62.1021C23.7216 61.9174 23.7826 61.9217 23.5101 62.1021ZM20.1459 62.0639C19.6733 62.1187 19.9433 62.0532 19.858 62.2132L20.1459 62.0639ZM41.8988 53.0847L42.1226 53.1074L42.1269 53.2767C42.2553 53.4144 42.2424 53.1986 42.2088 53.6108L42.1269 53.2767L42.0121 53.3085L41.8988 53.0847V53.0847ZM29.1519 89.2395L29.2264 89.49L29.6106 89.2059C29.6266 89.1856 29.6519 89.1554 29.6556 89.1434C29.6577 89.1351 29.6445 89.1148 29.6454 89.0911C29.6473 89.0569 29.6032 89.0637 29.5814 89.0498C29.3517 88.8694 29.1775 88.9504 28.8416 88.9439C28.7748 89.3269 28.8355 88.9784 28.7006 89.3164C29.0737 89.3703 28.776 89.3903 29.0291 89.2573L29.0054 89.0332L29.0907 89.173L29.1519 89.2395V89.2395ZM41.7171 53.5295C41.9099 53.8749 41.8655 53.6773 41.796 54.1117C42.2771 53.9469 41.6814 54.2022 42.069 54.0304C41.9293 54.2185 42.1715 54.1545 41.8372 54.1948C41.6599 53.9116 41.7347 53.93 41.7171 53.5295V53.5295ZM47.9571 52.9901L48.5091 53.1875C48.3179 53.4716 48.4121 53.3405 48.2397 53.4633L48.1954 53.2955L47.9571 52.9901V52.9901ZM49.7806 51.9958L49.6081 52.1149L49.5127 51.9579L49.7806 51.9958V51.9958ZM49.3397 51.8304L49.1605 51.6457L49.2824 51.5527L49.3397 51.8304ZM53.5256 78.8286L53.9607 79.2193C54.2177 79.1765 54.4489 79.0669 54.7324 78.9853C54.8657 78.3819 55.1244 77.5381 55.3405 76.9569C56.0181 75.1306 55.455 75.4807 55.9685 75.4009C55.9685 74.8453 55.9331 74.4414 55.5741 74.0448L55.1277 74.6975C54.4406 76.0274 53.5943 74.8742 53.8144 76.6096C53.8997 77.2829 53.6559 77.181 53.3988 77.692L53.5256 78.8286V78.8286ZM49.4053 55.743C49.6857 55.4493 49.7649 55.5761 50.1032 55.3997C49.9018 55.8126 49.8791 55.8551 49.4053 55.743ZM46.633 55.5201C46.8627 55.4277 47.2506 55.4382 47.4676 55.6211C47.2032 55.727 46.8454 55.642 46.633 55.5201ZM47.922 54.9102L47.676 55.1144C47.7798 54.4297 47.9294 54.8394 47.5196 54.5765C47.5757 54.5334 47.5372 54.474 47.6071 54.3561C47.8909 54.5282 47.7764 54.5162 47.922 54.9102ZM47.4778 53.8894L47.2607 53.9657L47.367 53.7582C47.3596 53.9362 47.3115 53.9035 47.4778 53.8894ZM46.5816 54.2256L46.9384 54.4392C46.7725 54.5645 47.2367 54.5279 46.6524 54.5294C46.6921 54.2668 46.73 54.4398 46.5816 54.2256ZM43.64 51.8954L43.3596 51.8326L43.3152 51.5721L43.2287 51.5826C43.2823 51.4733 43.2213 51.4653 43.3152 51.5721L43.4827 51.7356C43.507 51.7596 43.5661 51.888 43.5874 51.8434C43.5954 51.8271 43.6216 51.8788 43.64 51.8954ZM44.1184 52.9861L44.4007 53.322C44.0652 53.1459 44.1089 53.3309 44.1184 52.9861ZM43.257 54.6972H43.2567H43.257ZM48.3127 55.0146C48.1486 55.1833 48.1692 55.0165 48.1615 55.3526C47.8955 55.0605 48.103 55.3483 48.0033 55.1128C47.9559 55.0005 47.9934 55.0254 47.9546 54.9102C48.1477 54.8779 47.8989 54.8711 48.1024 54.9361C48.273 54.9909 48.1809 54.9629 48.3127 55.0146V55.0146ZM46.4181 54.9743C45.9314 54.9176 45.9354 55.0045 45.8406 54.4829L46.4603 54.7794C46.4603 54.7942 46.4538 54.828 46.4526 54.8407C46.4508 54.8674 46.424 54.9241 46.4181 54.9743ZM39.5338 54.2447C39.511 54.0184 39.3848 54.1264 39.6545 54.0572L39.5338 54.2447ZM40.514 53.6757C40.3847 53.7872 40.2142 53.9897 39.9611 53.9242C39.938 53.8725 39.7499 54.0159 39.9805 53.7961C40.1563 53.6286 39.9633 53.8404 40.514 53.6757ZM27.0696 89.9565C26.9704 89.8312 27.081 89.769 26.9193 89.9663L27.0696 89.9565ZM28.6886 43.9757C28.6886 43.9757 28.6954 43.622 29.1498 43.9902C29.1384 44.0001 29.2883 44.1352 28.8921 44.1167C28.5929 44.1032 28.8499 44.1429 28.6886 43.9757Z" fill="#0456A4"/>
<path d="M45.919 80.4531C46.503 80.4531 47.0316 80.7003 47.414 81.0987C47.7939 81.4952 48.0297 82.0435 48.0297 82.6475C48.0297 83.2512 47.7939 83.8001 47.414 84.1967C47.0316 84.595 46.503 84.8419 45.919 84.8419C45.3353 84.8419 44.8064 84.595 44.4244 84.1967C44.0445 83.8001 43.8083 83.2512 43.8083 82.6475C43.8083 82.0435 44.0445 81.4952 44.4244 81.0987C44.8064 80.7003 45.3353 80.4531 45.919 80.4531ZM47.1668 81.3358C46.8475 81.0036 46.4061 80.7964 45.919 80.7964C45.4323 80.7964 44.9905 81.0036 44.6716 81.3358C44.3511 81.6704 44.1522 82.1343 44.1522 82.6475C44.1522 83.1604 44.3511 83.625 44.6716 83.959C44.9905 84.2918 45.4323 84.4984 45.919 84.4984C46.4061 84.4984 46.8475 84.2918 47.1668 83.959C47.4869 83.625 47.6861 83.1604 47.6861 82.6475C47.6861 82.1343 47.4869 81.6704 47.1668 81.3358Z" fill="#0456A4"/>
<path fill-rule="evenodd" clip-rule="evenodd" d="M45.9194 81.2935C46.6345 81.2935 47.2142 81.8999 47.2142 82.6477C47.2142 83.3952 46.6345 84.0017 45.9194 84.0017C45.2042 84.0017 44.6245 83.3952 44.6245 82.6477C44.6245 81.8999 45.2042 81.2935 45.9194 81.2935Z" fill="#0456A4"/>
<path d="M36.4045 38.1519C44.0446 38.1519 50.9628 41.2495 55.9695 46.2559C60.9762 51.2629 64.0732 58.1802 64.0732 65.8203C64.0732 73.4604 60.9759 80.3789 55.9695 85.3853C50.9628 90.3916 44.0446 93.4893 36.4045 93.4893C28.7641 93.4893 21.8471 90.3919 16.8398 85.3853C11.8334 80.3789 8.73608 73.4604 8.73608 65.8203C8.73608 58.1802 11.8331 51.2629 16.8398 46.2559C21.8471 41.2492 28.7641 38.1519 36.4045 38.1519ZM55.4332 46.7919C50.5638 41.9228 43.8359 38.9104 36.4045 38.9104C28.9737 38.9104 22.2458 41.9228 17.3761 46.7919C12.5067 51.6619 9.49433 58.3895 9.49433 65.8203C9.49433 73.252 12.5067 79.9799 17.3761 84.8493C22.2458 89.7184 28.9737 92.7304 36.4045 92.7304C43.8359 92.7304 50.5638 89.7184 55.4332 84.8493C60.3026 79.9799 63.3146 73.252 63.3146 65.8203C63.3146 58.3895 60.3026 51.6619 55.4332 46.7919Z" fill="#0456A4"/>
<path fill-rule="evenodd" clip-rule="evenodd" d="M53.2177 81.4531L52.3298 83.855C57.4249 85.6554 61.9261 86.2843 65.4243 85.0674C74.2936 81.9814 76.2895 73.5131 77.0739 72.0059C76.5555 79.5635 70.684 85.7468 66.2041 87.3055C62.1311 88.7225 57.0976 88.0609 51.5063 86.083L50.6462 88.4104L47.9995 83.6838L53.2177 81.4531Z" fill="#0456A4"/>
<path fill-rule="evenodd" clip-rule="evenodd" d="M72.6517 47.2071C74.7119 46.2278 77.0162 45.6792 79.4489 45.6792C82.8809 45.6792 86.058 46.7706 88.6529 48.6239C88.5624 48.7088 88.4713 48.7999 88.3808 48.8991C87.8365 49.4957 86.4989 51.8782 86.4687 52.5654C86.429 53.4588 86.4499 54.5246 87.2811 54.9556C87.105 57.706 87.5216 56.8926 85.7477 58.3343C85.4275 58.5948 85.3949 58.6514 85.1554 58.963C84.7736 59.4602 84.9137 59.2062 84.443 59.5507C84.5021 60.4613 84.6588 60.7236 84.576 61.7762L83.2904 62.6517C83.2897 63.3426 83.5016 62.8118 83.2156 63.8133C82.9431 64.7679 83.0379 64.2304 82.4056 64.7519C81.7665 65.2796 81.8136 65.8427 81.0018 66.4193C80.6271 65.0712 79.4354 64.086 78.0223 64.086C77.3601 64.086 76.7472 64.3027 76.2432 64.6716C75.8571 63.8142 75.384 62.7164 75.3036 61.9994C75.2214 61.2639 75.4268 61.1934 74.9794 60.5238C72.943 57.4751 74.7245 55.9964 74.8563 55.2807C74.8298 54.8266 74.7476 54.7678 74.6993 54.4187C74.525 53.1577 75.0955 54.1154 74.0294 52.2551C73.5993 51.5045 72.987 50.5587 72.6311 49.8402C73.4081 47.9404 72.7961 49.3972 73.0172 48.3056C73.1332 47.7345 73.2022 47.3275 72.6517 47.2071V47.2071ZM88.2106 62.2078L88.793 62.7305C89.1375 62.6733 89.4469 62.5267 89.8271 62.4171C90.0054 61.6096 90.3517 60.4786 90.6411 59.7C91.549 57.2544 90.7947 57.7229 91.4825 57.6167C91.4825 56.872 91.4354 56.3308 90.9542 55.7997L90.3566 56.6744C89.4361 58.455 88.3023 56.9111 88.5972 59.2354C88.7114 60.1365 88.3851 60.0004 88.0406 60.6848L88.2106 62.2078V62.2078Z" fill="#0456A4"/>
<path d="M78.0221 64.3833C78.8044 64.3833 79.5125 64.7145 80.0244 65.2484C80.5333 65.7794 80.8495 66.5146 80.8495 67.323C80.8495 68.1318 80.5333 68.8663 80.0244 69.398C79.5125 69.9312 78.8044 70.2625 78.0221 70.2625C77.2402 70.2625 76.5318 69.9312 76.0201 69.398C75.5112 68.8663 75.1951 68.1318 75.1951 67.323C75.1951 66.5146 75.5112 65.7794 76.0201 65.2484C76.5318 64.7145 77.2402 64.3833 78.0221 64.3833ZM79.6932 65.5664C79.2659 65.1206 78.6745 64.8442 78.0221 64.8442C77.3701 64.8442 76.7784 65.1206 76.3514 65.5664C75.9222 66.014 75.6556 66.6356 75.6556 67.323C75.6556 68.0102 75.9222 68.6317 76.3514 69.08C76.7784 69.5251 77.3701 69.8022 78.0221 69.8022C78.6745 69.8022 79.2659 69.5251 79.6932 69.08C80.1223 68.6317 80.3889 68.0102 80.3889 67.323C80.3889 66.6356 80.1223 66.014 79.6932 65.5664Z" fill="#0456A4"/>
<path fill-rule="evenodd" clip-rule="evenodd" d="M78.0228 65.5093C78.9805 65.5093 79.757 66.3211 79.757 67.3229C79.757 68.3243 78.9805 69.1362 78.0228 69.1362C77.0647 69.1362 76.2883 68.3243 76.2883 67.3229C76.2883 66.3211 77.0647 65.5093 78.0228 65.5093Z" fill="#0456A4"/>
<path d="M79.4493 77.7622C74.9672 77.7622 70.909 75.9446 67.9721 73.0079C65.0348 70.0707 63.2175 66.0128 63.2175 61.5304C63.2175 57.0492 65.0348 52.9904 67.9721 50.0537C70.909 47.1165 74.9672 45.2998 79.4493 45.2998C83.9302 45.2998 87.989 47.1165 90.926 50.0537C93.8629 52.9904 95.6799 57.0492 95.6799 61.5304C95.6799 66.0128 93.8629 70.0706 90.926 73.0076C87.989 75.9446 83.9302 77.7622 79.4493 77.7622ZM68.5081 72.4716C71.3077 75.2716 75.1763 77.0033 79.4493 77.0033C83.7215 77.0033 87.5903 75.2716 90.3897 72.4716C93.1893 69.6717 94.9216 65.8031 94.9216 61.5304C94.9216 57.2582 93.1893 53.3897 90.3897 50.5897C87.5903 47.7901 83.7215 46.0581 79.4493 46.0581C75.1763 46.0581 71.3077 47.7901 68.5081 50.5897C65.7081 53.3897 63.9761 57.2582 63.9761 61.5304C63.9761 65.8031 65.7081 69.6717 68.5081 72.4716Z" fill="#0456A4"/>
<path d="M14.464 32.32C12.7573 32.32 11.456 31.84 10.56 30.88C9.664 29.8987 9.216 28.5013 9.216 26.688V24.928H12.544V26.944C12.544 28.3947 13.152 29.12 14.368 29.12C15.584 29.12 16.192 28.3947 16.192 26.944V21.92C16.192 20.448 15.584 19.712 14.368 19.712C13.152 19.712 12.544 20.448 12.544 21.92V22.112H9.216L9.856 9.6H19.136V12.8H12.992L12.704 18.144H12.768C13.4293 17.056 14.4427 16.512 15.808 16.512C17.088 16.512 18.0587 16.9493 18.72 17.824C19.3813 18.6987 19.712 19.968 19.712 21.632V26.688C19.712 28.5013 19.264 29.8987 18.368 30.88C17.472 31.84 16.1707 32.32 14.464 32.32Z" fill="#0456A4"/>
</svg>
