<svg width="104" height="104" viewBox="0 0 104 104" fill="none" xmlns="http://www.w3.org/2000/svg">
<rect x="0.5" y="0.5" width="103" height="103" fill="#F8F8F8" stroke="#0456A4"/>
<path fill-rule="evenodd" clip-rule="evenodd" d="M17.5078 70.4053H32.4073V78.8218H24.6774V72.9766H20.7173V78.8218H17.5078V70.4053ZM28.2601 72.5993C29.614 72.5993 30.7115 73.3587 30.7115 74.296C30.7115 75.2337 29.614 75.9933 28.2601 75.9933C26.9062 75.9933 25.8088 75.2337 25.8088 74.296C25.8088 73.3587 26.9062 72.5993 28.2601 72.5993Z" fill="#0456A4"/>
<path fill-rule="evenodd" clip-rule="evenodd" d="M24.9148 60.6807L15.8313 69.893H34.084L24.9148 60.6807Z" fill="#0456A4"/>
<path fill-rule="evenodd" clip-rule="evenodd" d="M77.6641 62.969C69.8731 63.5606 71.3239 69.1905 79.1278 68.8559C80.7147 68.7881 85.2531 67.7113 84.2047 65.3023C83.3459 63.3283 79.5181 62.8281 77.6641 62.969V62.969ZM76.2279 67.6036V64.2273H78.5552C79.023 64.2273 79.3788 64.258 79.622 64.3188C79.8654 64.3792 80.0597 64.4859 80.205 64.6391C80.3507 64.7923 80.4225 64.962 80.4225 65.1475C80.4225 65.3871 80.3016 65.5897 80.0607 65.7537C79.8201 65.9177 79.4485 66.0218 78.9449 66.0664C79.1294 66.1228 79.269 66.1795 79.3643 66.2349C79.5672 66.3539 79.759 66.5043 79.9385 66.6844L80.8467 67.6036H79.979L79.2848 66.9012C79.0832 66.6977 78.9157 66.5429 78.7847 66.4352C78.653 66.3273 78.5355 66.2526 78.4317 66.2095C78.3288 66.1668 78.2225 66.1374 78.1152 66.12C78.0367 66.1098 77.9085 66.1044 77.729 66.1044H76.9246V67.6036H76.2279V67.6036ZM76.9246 65.7176H78.4159C78.7334 65.7176 78.9803 65.6964 79.1588 65.6537C79.3374 65.6125 79.4729 65.5445 79.5647 65.4514C79.6574 65.3583 79.704 65.258 79.704 65.1488C79.704 64.9889 79.6147 64.8569 79.4349 64.754C79.2554 64.6511 78.9718 64.6002 78.5843 64.6002H76.9246V65.7176V65.7176Z" fill="#0456A4"/>
<path fill-rule="evenodd" clip-rule="evenodd" d="M72.4865 74.0519C72.7781 77.5333 83.6811 77.765 84.3088 74.105C84.5215 72.8642 83.9638 73.6496 83.5212 73.9658C81.0043 75.7648 75.7856 75.76 73.2912 73.9734C72.7385 73.5777 72.3852 72.8439 72.4865 74.0519Z" fill="#0456A4"/>
<path fill-rule="evenodd" clip-rule="evenodd" d="M84.2531 71.3823C83.8869 71.5931 83.5269 72.018 83.0192 72.3019C82.5491 72.565 81.9964 72.7761 81.4788 72.923C79.2063 73.5687 76.2709 73.4883 74.1152 72.4722C73.6128 72.2357 73.2336 71.974 72.8205 71.6064C72.4777 71.3013 72.4774 71.2807 72.4811 71.8628C72.483 72.1886 72.5413 72.4181 72.7122 72.6989C74.8512 76.2094 85.3645 75.0148 84.2531 71.3823V71.3823Z" fill="#0456A4"/>
<path fill-rule="evenodd" clip-rule="evenodd" d="M84.2602 75.3428C84.0889 75.4178 83.3875 76.0553 83.012 76.262C81.3599 77.1734 79.4369 77.3326 77.593 77.2674C76.0738 77.2136 73.9685 76.659 72.8254 75.5684C72.4886 75.2475 72.4867 75.2339 72.4807 75.797C72.4769 76.1351 72.5316 76.352 72.7022 76.6429C74.7282 80.0971 85.2811 79.0705 84.2602 75.3428V75.3428Z" fill="#0456A4"/>
<path fill-rule="evenodd" clip-rule="evenodd" d="M84.2574 67.4233C83.6297 67.7491 83.4508 68.3898 81.4882 68.9646C79.2714 69.6145 76.2489 69.5268 74.1423 68.5262C73.7308 68.3309 73.1604 67.9922 72.8419 67.6677C72.173 66.9852 72.5298 68.4268 72.6972 68.7133C74.7649 72.2451 85.3672 71.0773 84.2574 67.4233V67.4233Z" fill="#0456A4"/>
<path fill-rule="evenodd" clip-rule="evenodd" d="M84.2621 69.4005C83.7565 69.6481 83.5957 70.2438 81.7901 70.8471C79.761 71.5249 77.0187 71.5132 74.9877 70.8427C73.6177 70.3907 73.5892 70.115 72.5515 69.3818C71.568 71.9434 76.7899 72.8411 78.3865 72.8396C80.1896 72.8383 84.8743 72.0985 84.2621 69.4005V69.4005Z" fill="#0456A4"/>
<path fill-rule="evenodd" clip-rule="evenodd" d="M57.7954 46.7666H68.8833V78.7254H57.7954V46.7666ZM59.7523 71.6597H61.9261V76.2253H59.7523V71.6597ZM59.7523 65.8708C60.4769 65.8708 61.2015 65.8708 61.9261 65.8708C61.9261 67.3928 61.9261 68.9145 61.9261 70.4365C61.2015 70.4365 60.4769 70.4365 59.7523 70.4365C59.7523 68.9145 59.7523 67.3928 59.7523 65.8708V65.8708ZM59.7523 60.0827C60.4769 60.0827 61.2015 60.0827 61.9261 60.0827C61.9261 61.6047 61.9261 63.126 61.9261 64.648C61.2015 64.648 60.4769 64.648 59.7523 64.648C59.7523 63.126 59.7523 61.6047 59.7523 60.0827ZM59.7523 54.2942C60.4769 54.2942 61.2015 54.2942 61.9261 54.2942C61.9261 55.8162 61.9261 57.3379 61.9261 58.8599C61.2015 58.8599 60.4769 58.8599 59.7523 58.8599C59.7523 57.3379 59.7523 55.8162 59.7523 54.2942ZM59.7523 48.5054H61.9261V53.0711H59.7523V48.5054ZM64.4265 71.6597H66.6006V76.2253H64.4265V71.6597ZM64.4265 65.8708C65.1511 65.8708 65.8757 65.8708 66.6006 65.8708C66.6006 67.3928 66.6006 68.9145 66.6006 70.4365C65.8757 70.4365 65.1511 70.4365 64.4265 70.4365C64.4265 68.9145 64.4265 67.3928 64.4265 65.8708V65.8708ZM64.4265 60.0827C65.1511 60.0827 65.8757 60.0827 66.6006 60.0827C66.6006 61.6047 66.6006 63.126 66.6006 64.648C65.8757 64.648 65.1511 64.648 64.4265 64.648C64.4265 63.126 64.4265 61.6047 64.4265 60.0827ZM64.4265 54.2942C65.1511 54.2942 65.8757 54.2942 66.6006 54.2942C66.6006 55.8162 66.6006 57.3379 66.6006 58.8599C65.8757 58.8599 65.1511 58.8599 64.4265 58.8599C64.4265 57.3379 64.4265 55.8162 64.4265 54.2942ZM64.4265 48.5054H66.6006V53.0711H64.4265V48.5054Z" fill="#0456A4"/>
<path fill-rule="evenodd" clip-rule="evenodd" d="M50.4329 59.6123H57.064V78.7254H50.4329V59.6123ZM51.6032 74.4994H52.9032V77.2303H51.6032V74.4994ZM51.6032 71.0376C52.0365 71.0376 52.4699 71.0376 52.9032 71.0376C52.9032 71.9477 52.9032 72.8581 52.9032 73.7679C52.4699 73.7679 52.0365 73.7679 51.6032 73.7679C51.6032 72.8581 51.6032 71.9477 51.6032 71.0376ZM51.6032 67.5761C52.0365 67.5761 52.4699 67.5761 52.9032 67.5761C52.9032 68.4859 52.9032 69.3963 52.9032 70.3064C52.4699 70.3064 52.0365 70.3064 51.6032 70.3064C51.6032 69.3963 51.6032 68.4859 51.6032 67.5761V67.5761ZM51.6032 64.114C52.0365 64.114 52.4699 64.114 52.9032 64.114C52.9032 65.0244 52.9032 65.9342 52.9032 66.8446C52.4699 66.8446 52.0365 66.8446 51.6032 66.8446C51.6032 65.9342 51.6032 65.0244 51.6032 64.114ZM51.6032 60.6522H52.9032V63.3825H51.6032V60.6522ZM54.3986 74.4994H55.6987V77.2303H54.3986V74.4994ZM54.3986 71.0376C54.832 71.0376 55.2654 71.0376 55.6987 71.0376C55.6987 71.9477 55.6987 72.8581 55.6987 73.7679C55.2654 73.7679 54.832 73.7679 54.3986 73.7679C54.3986 72.8581 54.3986 71.9477 54.3986 71.0376ZM54.3986 67.5761C54.832 67.5761 55.2654 67.5761 55.6987 67.5761C55.6987 68.4859 55.6987 69.3963 55.6987 70.3064C55.2654 70.3064 54.832 70.3064 54.3986 70.3064C54.3986 69.3963 54.3986 68.4859 54.3986 67.5761V67.5761ZM54.3986 64.114C54.832 64.114 55.2654 64.114 55.6987 64.114C55.6987 65.0244 55.6987 65.9342 55.6987 66.8446C55.2654 66.8446 54.832 66.8446 54.3986 66.8446C54.3986 65.9342 54.3986 65.0244 54.3986 64.114ZM54.3986 60.6522H55.6987V63.3825H54.3986V60.6522Z" fill="#0456A4"/>
<path fill-rule="evenodd" clip-rule="evenodd" d="M37.223 57.9372L37.1955 57.9454C37.1955 58.0049 37.2063 57.9821 37.1315 57.978L37.1227 57.9748C37.1227 58.041 37.136 58.0188 37.06 58.0125L37.0578 58.01C37.0578 58.0717 37.0705 58.0511 36.9989 58.0489L37.0027 58.0508C37.0027 58.1205 37.0204 58.1081 36.954 58.0929L36.9017 58.1088L36.8609 58.1347C36.8685 58.1873 36.8764 58.1717 36.8194 58.16C36.8286 58.2148 36.8422 58.2059 36.79 58.1977C36.8014 58.2499 36.8134 58.2392 36.7612 58.236C36.7726 58.2904 36.7868 58.2809 36.7352 58.2768L36.6624 58.3721C36.6786 58.4415 36.6972 58.4294 36.6333 58.4294L36.6336 58.4297C36.6342 58.5025 36.6564 58.4911 36.5985 58.4911L36.6004 58.4984C36.6023 58.5728 36.6251 58.5621 36.5678 58.5621L36.5738 58.5795L36.5377 58.65L36.4947 58.7137L36.5003 58.74C36.5064 58.8109 36.5269 58.7991 36.4665 58.7991L36.4655 58.7957L36.432 58.8583L36.4218 58.8916L36.3902 58.9467L36.3949 58.9729L36.3642 59.0293L36.362 59.0258L36.3294 59.0919L36.3193 59.123L36.2908 59.1847L36.2968 59.2027C36.3016 59.274 36.3218 59.2613 36.2604 59.2613L36.2674 59.279C36.2737 59.3525 36.2955 59.3411 36.2344 59.3411L36.2332 59.3443L36.2256 59.3626L36.1873 59.4161L36.1917 59.436C36.1927 59.5076 36.2145 59.4965 36.1581 59.4965L36.1629 59.5095C36.1639 59.5804 36.1854 59.5697 36.1293 59.5697V59.5703L36.0958 59.6333L36.0879 59.6652L36.0562 59.7251L36.0625 59.7463C36.0673 59.82 36.0898 59.809 36.0299 59.809L36.0287 59.7982C36.0274 59.8754 36.0515 59.8643 35.992 59.8643L35.9882 59.9001C35.9901 59.9675 36.01 59.9568 35.953 59.9568L35.9559 59.9761L35.9245 60.0372L35.9258 60.0346C35.9239 60.1128 35.9483 60.1027 35.8897 60.1027L35.897 60.1144L35.8647 60.1758L35.8552 60.2103L35.8248 60.2718L35.8286 60.2835C35.8321 60.3556 35.8539 60.3442 35.7951 60.3442L35.7954 60.3496L35.7628 60.4098L35.7533 60.4439L35.7219 60.5038L35.7264 60.5202C35.7292 60.5911 35.7508 60.5801 35.6928 60.5801L35.6982 60.6003L35.6602 60.6652L35.62 60.7371L35.6232 60.7538C35.6254 60.8286 35.6485 60.8184 35.5922 60.8184L35.5618 60.8919C35.5611 60.9568 35.5804 60.946 35.5263 60.946L35.5216 60.9875C35.5247 61.0581 35.5463 61.047 35.4893 61.047L35.4937 61.0609L35.4538 61.1312L35.4152 61.2043L35.4187 61.217C35.4196 61.2866 35.4412 61.2765 35.3855 61.2765L35.3861 61.2758C35.3842 61.355 35.4092 61.3448 35.3516 61.3448L35.3373 61.4462L35.2826 61.5069L35.2864 61.5278L35.2572 61.5918L35.2557 61.5851C35.2522 61.6595 35.2756 61.6494 35.2193 61.6494L35.2161 61.6886C35.2202 61.757 35.2401 61.7456 35.1819 61.7456L35.1854 61.7646L35.1547 61.826L35.1515 61.8165L35.1161 61.8833L35.055 62.0723C35.0578 62.1438 35.08 62.134 35.0236 62.134L35.03 62.1492L34.9486 62.2822L34.9524 62.3069C34.9556 62.3768 34.9765 62.3664 34.9214 62.3664L34.9185 62.3635L34.8853 62.4259L34.8786 62.4613L34.8464 62.5196L34.8486 62.5303L34.8172 62.5956L34.8236 62.612L34.7432 62.7542L34.7492 62.7678C34.7533 62.8418 34.7755 62.8304 34.7153 62.8304L34.7216 62.846C34.7273 62.9185 34.7485 62.9061 34.6868 62.9061L34.6745 62.9264C34.6767 62.9957 34.6976 62.9846 34.6406 62.9846L34.6194 63.078C34.6232 63.1546 34.6463 63.1432 34.5855 63.1432L34.5903 63.1495L34.5105 63.2945L34.5175 63.3116C34.5235 63.3863 34.5453 63.3746 34.4833 63.3746H34.4826L34.4485 63.4347L34.4408 63.4654C34.394 63.6079 34.3468 63.8149 34.2503 63.9188L34.2573 63.9324L34.2047 63.995L34.2088 64.0102C34.2101 64.0827 34.2319 64.0716 34.1743 64.0716L34.1791 64.0853L34.1015 64.2264L34.0996 64.229L34.0357 64.3683L34.0442 64.3809C34.0417 64.4509 34.0632 64.4408 34.0088 64.4408L34.0024 64.4756L33.9701 64.5348L33.9765 64.5541C33.9803 64.6272 34.0021 64.6155 33.9413 64.6155L33.9416 64.6053L33.8049 64.9064L33.8115 64.9266L33.7789 64.9846L33.7707 65.0197C33.7723 65.0881 33.7935 65.0783 33.7397 65.0783L33.747 65.1036L33.7042 65.1761L33.7207 65.2144L33.6694 65.3394L33.6631 65.6054L33.7185 65.7367L33.7134 65.7484L33.74 65.8181L33.7346 65.8424L33.8802 66.0874L33.8799 66.095L34.1879 66.3853L34.2028 66.3796C34.2715 66.3796 34.2601 66.3591 34.2601 66.4151L34.2674 66.4154L34.5377 66.5129L34.8995 66.5303L35.0192 66.4755L35.0534 66.4895L35.1195 66.455L35.2205 66.4227L35.2151 66.4189L35.3231 66.3401L35.3215 66.336C35.4044 66.229 35.4006 66.2805 35.4811 66.2049C35.5725 66.1194 35.5 66.1365 35.614 66.0453L35.6225 66.0678L35.6827 65.9574L35.6916 65.9254C35.6893 65.8519 35.6672 65.8633 35.7261 65.8633L35.7229 65.8554C35.7194 65.7807 35.6966 65.7912 35.7555 65.7912L35.7501 65.7737L35.8001 65.7101L35.7951 65.6943C35.7919 65.6224 35.7704 65.6338 35.8286 65.6338L35.8245 65.6129C35.821 65.542 35.7998 65.5528 35.8555 65.5528L35.8514 65.5376L35.903 65.4746L35.9546 65.3094L36.035 65.1723L36.0293 65.1508C36.0252 65.0811 36.0049 65.0925 36.0629 65.0925L36.0641 65.0951L36.0974 65.0289L36.0844 64.995L36.1385 64.9346L36.1594 64.845L36.2211 64.7013L36.224 64.707L36.2769 64.6351L36.2607 64.6073C36.2569 64.5329 36.2344 64.5443 36.2943 64.5443V64.5481C36.2952 64.474 36.2721 64.4851 36.3303 64.4851L36.3345 64.4499C36.3316 64.3784 36.311 64.3907 36.3712 64.3907L36.3661 64.38L36.4253 64.2363L36.4187 64.2226L36.4703 64.1581L36.4674 64.1441C36.4658 64.0754 36.445 64.0856 36.4994 64.0856L36.4947 64.0675C36.4874 63.9944 36.4658 64.0061 36.5273 64.0061L36.5295 64.0027L36.5624 63.9473L36.5716 63.9089L36.6032 63.8513L36.5985 63.8323C36.5978 63.7649 36.5773 63.7747 36.6311 63.7747L36.633 63.7773L36.6646 63.713L36.6741 63.6804L36.7045 63.6196L36.6982 63.6028C36.6931 63.5291 36.6716 63.5411 36.734 63.5411L36.7333 63.5455C36.7346 63.4699 36.7109 63.48 36.7685 63.48L36.7751 63.449C36.7748 63.3784 36.753 63.3885 36.808 63.3885L36.8033 63.3692C36.8011 63.2973 36.7789 63.3078 36.8365 63.3078L36.8292 63.2926C36.8239 63.2179 36.802 63.2299 36.8644 63.2299L36.8656 63.2344L36.8976 63.1717L36.9049 63.1359C36.9024 63.0669 36.8818 63.078 36.9381 63.078L36.9331 63.0603C36.9277 62.9881 36.9065 62.9995 36.966 62.9995L36.9593 62.9814L37.0135 62.9213L37.0081 62.9033C37.0071 62.8317 36.985 62.8422 37.0401 62.8422L37.0369 62.8285C37.0347 62.7551 37.0122 62.7659 37.0695 62.7659L37.0799 62.7418C37.0803 62.6772 37.061 62.6877 37.1151 62.6877L37.1122 62.6722L37.142 62.6133L37.1382 62.5937C37.135 62.5208 37.1129 62.531 37.1695 62.531L37.1698 62.5364C37.1711 62.461 37.1477 62.4715 37.2056 62.4715L37.1983 62.4499L37.2069 62.4328L37.2452 62.3828L37.242 62.362L37.2718 62.3002L37.2661 62.2816C37.261 62.2087 37.2398 62.2204 37.3009 62.2204L37.2968 62.2049L37.3762 62.0675L37.3709 62.0514C37.3674 61.9776 37.3452 61.9856 37.3984 61.9865C37.4798 62.6358 37.4392 63.3667 37.4392 64.0276V76.7404C37.4392 77.3937 37.3883 78.1788 37.4902 78.8106L37.4684 78.8888L37.512 78.9692L37.5095 78.9765L37.5386 79.0433L37.5348 79.0572C37.5902 79.0572 37.569 79.0465 37.5693 79.1164L37.6532 79.2367L37.8175 79.4371L37.8615 79.4624L38.028 79.565L38.0385 79.5606C38.1145 79.5558 38.1021 79.5337 38.1021 79.5976L38.1106 79.5929L38.1926 79.6337H38.2382L38.3411 79.6761L39.1967 79.6771L39.3022 79.6337L39.3595 79.6393L39.4253 79.5916L39.4481 79.6008C39.4481 79.5397 39.4361 79.5602 39.5066 79.565L39.5196 79.5691L39.575 79.5343L39.587 79.5358C39.7675 79.3962 39.788 79.3193 39.9153 79.1984L39.9191 79.2045C39.9226 79.1377 39.903 79.1497 39.9609 79.1497L39.959 79.1443C39.9606 79.0731 39.9387 79.0845 39.9973 79.0845L39.9843 79.0556L40.0359 78.9886L40.0274 78.9699L40.0654 78.885L40.0549 78.8246C40.0992 78.6603 40.1166 77.9528 40.1217 77.1145L40.4446 68.8136L40.5563 78.7679L40.6044 78.8999L40.6067 78.935C40.795 79.2408 40.7526 79.3633 41.1758 79.5627L41.2948 79.6299H41.3313L41.4667 79.6789L42.2926 79.6793L42.4237 79.6277L42.4759 79.6375L42.6883 79.5327C42.7643 79.452 42.8387 79.4134 42.902 79.3425C42.9678 79.2687 43.0251 79.1538 43.0992 79.0937L43.0979 79.0854L43.1299 79.0271L43.1229 78.9974L43.1657 78.9252L43.1527 78.8971L43.2005 78.7622L43.1821 61.9466L43.209 61.8722L43.2252 61.9428L43.2534 61.9989L43.2489 62.0103L43.3005 62.078L43.2951 62.09C43.3527 62.09 43.3303 62.0789 43.3284 62.1527L43.3512 62.2436C43.4081 62.2436 43.3879 62.2322 43.3866 62.3008L43.392 62.3347C43.4493 62.3347 43.4259 62.324 43.4271 62.3996L43.4262 62.3983C43.4873 62.3983 43.4651 62.3863 43.462 62.461L43.4575 62.467L43.5231 62.6069L43.5313 62.6244L43.53 62.632L43.5902 62.7713L43.5854 62.782C43.6427 62.782 43.6215 62.7716 43.6206 62.8412L43.6291 62.8732L43.6604 62.9368L43.662 62.9381C43.7203 62.9381 43.7006 62.9267 43.6965 62.9944L43.6911 63.0128L43.7725 63.1502L43.7649 63.1711L43.8235 63.3129L43.8203 63.3195L43.8757 63.3819L43.8633 63.4126L43.8972 63.4762L43.8985 63.4712C43.9612 63.4712 43.9396 63.4591 43.9339 63.5332L43.9279 63.5493L44.0039 63.6978L44.002 63.7019C44.0628 63.7019 44.0409 63.6902 44.0368 63.7636L44.0574 63.8608C44.1134 63.8608 44.0932 63.8494 44.0916 63.9181L44.0976 63.9523L44.1324 64.0175L44.1327 64.0134C44.1929 64.0134 44.171 64.0014 44.1672 64.0742L44.1615 64.0884L44.2682 64.3081L44.2654 64.3204L44.2977 64.3796L44.2926 64.399L44.3296 64.455L44.3379 64.4743L44.3344 64.4885L44.3667 64.5506L44.3686 64.5557C44.4262 64.5557 44.4059 64.5442 44.4012 64.6133L44.3967 64.6307C44.4547 64.6307 44.4347 64.6193 44.4312 64.688L44.4366 64.7231L44.4699 64.7785L44.4721 64.7861C44.5294 64.7861 44.5082 64.7757 44.5047 64.8462L44.4984 64.8624C44.5528 64.8624 44.5316 64.8523 44.5319 64.9216L44.5262 64.9387L44.5648 64.9925L44.574 65.0127L44.5693 65.0267L44.6031 65.0941L44.5943 65.102L44.6785 65.2416L44.6737 65.2562L44.7063 65.3141L44.7006 65.3328L44.7361 65.3983L44.7358 65.3958C44.7915 65.3958 44.77 65.385 44.769 65.4553L44.763 65.4755L44.8171 65.5363L44.8108 65.5496C44.8697 65.5496 44.8475 65.5385 44.8437 65.6113L44.8409 65.6262C44.8994 65.6262 44.8779 65.6152 44.8735 65.6873L44.8665 65.7063L44.921 65.7677L44.9073 65.7956L44.9425 65.8519L44.9447 65.8557C45.0007 65.8557 44.9789 65.8456 44.9764 65.9175L44.9748 65.926C45.1197 66.1327 45.2309 66.2229 45.4043 66.3761L45.4062 66.3746C45.4743 66.3689 45.4604 66.3511 45.4604 66.4144L45.4572 66.4167C45.5322 66.4189 45.5214 66.3958 45.5214 66.4537L45.5376 66.4448L45.6101 66.4949L45.6379 66.479L45.6876 66.4872L45.7766 66.5246L46.0865 66.524L46.2109 66.4683L46.2391 66.4825C46.3236 66.4227 46.5015 66.3309 46.6132 66.2872L46.7601 66.1334C46.801 66.0203 46.8931 65.8364 46.9516 65.7484L46.9507 65.7082L46.9988 65.5762L46.9937 65.3163L46.9608 65.2201L46.9662 65.1704L46.9238 65.0954L46.932 65.0701C46.8779 65.0701 46.8981 65.0805 46.8984 65.0131L46.8855 64.9919C46.8266 64.9919 46.8469 65.0036 46.8519 64.9343L46.8567 64.9146C46.7845 64.839 46.8158 64.9039 46.7959 64.7836L46.8 64.7611L46.7196 64.6291L46.7253 64.6076C46.6699 64.6076 46.6908 64.6183 46.6924 64.5487L46.6959 64.5307L46.6664 64.473L46.6563 64.4388C46.5996 64.4388 46.6215 64.4493 46.6215 64.3781V64.3727C46.5658 64.3727 46.586 64.3834 46.5882 64.316L46.5914 64.3037L46.5613 64.2426L46.5512 64.2087L46.5189 64.146L46.5265 64.1362C46.4667 64.1362 46.4914 64.1473 46.4895 64.0678L46.4911 64.0694L46.4594 64.0086L46.4626 63.9893C46.4072 63.9893 46.4274 64.0007 46.4277 63.933L46.4154 63.9159C46.3515 63.9159 46.373 63.9279 46.3799 63.8532L46.3853 63.8434C46.3233 63.8434 46.3448 63.8551 46.3505 63.7811L46.3578 63.7614L46.3261 63.7007L46.3166 63.6699L46.2837 63.6066L46.2843 63.6076C46.2258 63.6076 46.2476 63.619 46.2502 63.5458L46.2555 63.5332C46.1982 63.5332 46.2201 63.5443 46.2217 63.4724L46.2261 63.4531L46.1872 63.4012L46.1796 63.3822L46.1859 63.3632C46.1286 63.3632 46.1527 63.3733 46.1517 63.2974L46.152 63.298C46.0916 63.298 46.1125 63.31 46.1175 63.2388L46.1232 63.2201L46.0928 63.1616L46.0824 63.1296L46.0498 63.0679L46.0473 63.0701L46.0156 63.0115L46.0203 62.9922L45.989 62.9343L45.9792 62.8963L45.9459 62.8409L45.9434 62.8399C45.882 62.8399 45.9035 62.8517 45.9108 62.7779L45.9152 62.7605C45.8405 62.6855 45.8181 62.5788 45.7801 62.4693L45.7851 62.4575C45.724 62.4575 45.7449 62.4696 45.7484 62.398L45.7557 62.3771L45.7164 62.3217L45.7092 62.3008V62.3028C45.6478 62.3028 45.6696 62.3148 45.6743 62.241L45.68 62.2287L45.6218 62.0878L45.6234 62.0723L45.5452 61.933L45.5493 61.9194C45.492 61.9194 45.5145 61.9298 45.5161 61.8564L45.5199 61.8406L45.4661 61.7804L45.4812 61.7488C45.4201 61.7488 45.4452 61.7595 45.4442 61.6785L45.4186 61.612L45.3752 61.5389L45.3467 61.4674L45.3265 61.387L45.2809 61.3154L45.2739 61.2841L45.2404 61.2227L45.2388 61.2246C45.1755 61.2246 45.1967 61.2369 45.2033 61.1632L45.2157 61.1372L45.185 61.0657L45.1368 60.9913L45.1337 61.0001C45.065 61.0001 45.0906 61.0109 45.1109 60.9286L45.0732 60.8523L45.0789 60.8403C45.02 60.8403 45.0419 60.8517 45.045 60.7789L45.052 60.7611C44.9985 60.7611 45.0191 60.7716 45.0112 60.7061L45.0042 60.6864L45.0048 60.6842C44.9418 60.6842 44.963 60.6966 44.9681 60.6235L44.9726 60.6149L44.9295 60.5389L44.9039 60.4636L44.8665 60.394L44.8709 60.3787C44.8159 60.3787 44.8371 60.3895 44.838 60.3195L44.8425 60.3028L44.8114 60.2429L44.8143 60.2217L44.7839 60.167L44.7662 60.1474C44.7044 60.1474 44.725 60.1597 44.7329 60.0878L44.7402 60.066C44.6848 60.066 44.7057 60.0764 44.707 60.0078L44.7098 59.997L44.6794 59.9359L44.6702 59.9017L44.637 59.8362L44.6361 59.8466C44.5734 59.8466 44.5955 59.8593 44.6006 59.7839L44.6082 59.7634C44.5537 59.7634 44.575 59.7735 44.5759 59.7035L44.58 59.6829C44.5268 59.6829 44.5465 59.6934 44.5398 59.6301L44.5338 59.6089H44.5335C44.4708 59.6089 44.492 59.6209 44.498 59.5478L44.5034 59.5345C44.4461 59.5345 44.468 59.5456 44.4711 59.4731L44.4756 59.4541C44.4214 59.4541 44.4426 59.4642 44.4436 59.3952L44.436 59.362L44.4028 59.2977L44.4021 59.299C44.3461 59.299 44.3676 59.3097 44.3692 59.2379L44.3736 59.2259C44.3167 59.2259 44.3379 59.2369 44.3391 59.1667L44.3337 59.1306C44.2793 59.1306 44.3005 59.1414 44.2983 59.0727L44.2964 59.0711C44.2359 59.0711 44.2578 59.0828 44.2638 59.0097L44.2704 58.9913C44.2103 58.9913 44.2315 59.003 44.2356 58.9315L44.2413 58.9134L44.2103 58.8549L44.2002 58.8241L44.1669 58.7608L44.1647 58.7637L44.134 58.7058L44.1381 58.6811L44.1065 58.6254L44.097 58.5908L44.0631 58.5313L44.0697 58.5177C44.0118 58.5177 44.0346 58.5291 44.033 58.4551L44.0286 58.4617C43.9653 58.4617 43.9836 58.4737 44.0023 58.4054L43.946 58.3512L43.6358 58.0436C43.5677 58.0439 43.5791 58.0641 43.5791 58.0068L43.5781 58.0036C43.5088 58.0017 43.5189 58.0236 43.5189 57.9688L43.5066 57.9742L43.4294 57.9394L43.3255 57.8995L43.3056 57.9074L43.2458 57.903L40.8374 57.9039L40.883 57.8881L40.9337 57.902L41.0327 57.8428L41.1236 57.8248C41.1236 57.7678 41.1135 57.7909 41.1878 57.7935L41.2087 57.7988L41.3439 57.7156L41.3661 57.727C41.3661 57.6719 41.3556 57.6941 41.4253 57.689L41.4835 57.6646L41.531 57.6282L41.5319 57.6222C41.5319 57.5611 41.5177 57.5776 41.5813 57.5814L41.5962 57.5836L41.6988 57.5184L41.6782 57.5067C41.7561 57.3845 41.8985 57.3506 42.0327 57.1686C42.103 57.0739 42.2493 56.8926 42.324 56.8109L42.3217 56.7995L42.3756 56.6836L42.3781 56.6862C42.379 56.6213 42.3597 56.6324 42.4145 56.6324L42.4215 56.5997C42.4189 56.5282 42.3971 56.5387 42.4547 56.5387L42.4503 56.5225L42.5139 56.356L42.511 56.3414L42.5253 56.3104L42.5573 56.2404L42.5525 56.1885L42.5848 56.093L42.5816 56.0467L42.6237 55.9001L42.5851 55.2519L42.5509 55.1563L42.5579 55.0999L42.5186 55.0224L42.5139 54.9847L42.4806 54.9002L42.4493 54.822L42.4566 54.8058C42.4009 54.8058 42.423 54.8156 42.4243 54.7444L42.4164 54.7106C42.3594 54.7106 42.3816 54.7216 42.3803 54.6495L42.385 54.6387C42.3243 54.6387 42.3467 54.6507 42.3455 54.5767L42.3262 54.5301C42.2682 54.5301 42.286 54.5434 42.2847 54.4801L42.2812 54.4823C42.2198 54.4823 42.2404 54.4937 42.2534 54.4225L42.223 54.3712L42.2173 54.3715C42.1552 54.3715 42.1685 54.3861 42.1837 54.3241L42.1502 54.2807L42.1416 54.2902C42.0723 54.2902 42.0843 54.3082 42.0976 54.2424L42.0745 54.1984L42.0486 54.1572C41.9963 54.1626 42.0099 54.1724 42.0198 54.1183C41.9735 54.118 41.9849 54.1287 41.99 54.0809C41.9384 54.0873 41.9514 54.0971 41.9599 54.0439C41.9109 54.0477 41.9207 54.0597 41.9245 54.0129C41.8678 54.023 41.8779 54.0357 41.889 53.9806L41.8479 53.9553C41.7953 53.9679 41.8061 53.9806 41.8067 53.929C41.7472 53.942 41.7538 53.9597 41.763 53.9049C41.7016 53.9173 41.7083 53.9347 41.7187 53.879C41.6579 53.8939 41.6782 53.9018 41.6782 53.8331L41.6984 53.8236C41.6336 53.8166 41.6437 53.8372 41.6475 53.7818C41.5883 53.797 41.5991 53.8128 41.5991 53.7574L41.582 53.76L41.5323 53.7324L41.4829 53.6821C41.418 53.6903 41.4291 53.709 41.4291 53.652L41.4145 53.658C41.3407 53.6596 41.3525 53.6821 41.3525 53.6222L41.3493 53.6232L41.2825 53.5789L41.2075 53.5539L41.1309 53.5169L41.1302 53.5194L41.0603 53.4874L41.0277 53.4852L40.9555 53.4532L40.9093 53.457L40.8032 53.4061L40.7618 53.4288C40.6494 53.4102 40.6779 53.4276 40.6029 53.3706L40.0077 53.3817L39.8868 53.4219H39.8523L39.7789 53.4497L39.7248 53.445L39.6434 53.4814L39.6162 53.4893L39.5294 53.5251L39.4573 53.5593L39.431 53.5488C39.431 53.6023 39.4417 53.5833 39.3775 53.583L39.3544 53.5808L39.2993 53.6118H39.286C39.286 53.6669 39.2958 53.6495 39.2353 53.6336L39.1144 53.7144L39.0612 53.7454L39.0625 53.7511C39.0625 53.8106 39.0755 53.7963 39.0138 53.7818L38.921 53.8568C38.9236 53.9094 38.934 53.8926 38.8754 53.8938L38.638 54.0911C38.6311 54.1499 38.6482 54.1392 38.5921 54.1319C38.6023 54.1879 38.6168 54.1797 38.5639 54.1718L38.5424 54.2174C38.556 54.2718 38.5696 54.2617 38.5171 54.2588C38.5317 54.3247 38.5472 54.3104 38.4839 54.3104L38.475 54.2987C38.4718 54.3604 38.4905 54.3506 38.4376 54.3481L38.425 54.4022C38.4427 54.4687 38.4557 54.4523 38.3873 54.4523L38.3861 54.4554L38.3623 54.5073L38.3208 54.5669L38.2838 54.6298C38.3031 54.7077 38.3262 54.696 38.2591 54.696L38.2382 54.7033L38.2059 54.7612L38.2107 54.7796C38.2138 54.8511 38.2357 54.841 38.1806 54.841L38.1917 54.8714L38.1429 54.9401L38.155 54.9682L38.1113 55.0433L38.1138 55.0926L38.0777 55.1806L38.0853 55.2332L38.0404 55.3725L38.0552 55.4101L38.0502 55.9106L38.0404 55.9742L38.0768 56.092V56.1664L38.1148 56.2538L38.1163 56.3266C38.1759 56.3266 38.1505 56.3164 38.1499 56.3971L38.1749 56.5051L38.2366 56.6463L38.2395 56.6469C38.3408 56.7416 38.4155 56.9077 38.4737 57.0458L38.9663 57.5263C39.0923 57.5649 39.0489 57.5358 39.1217 57.6105L39.1227 57.6111C39.1907 57.6092 39.1765 57.5912 39.1765 57.6542L39.1752 57.6577L39.2945 57.7286L39.3056 57.7254C39.3769 57.7238 39.3658 57.7023 39.3658 57.7602L39.3788 57.7561C39.4516 57.7536 39.4408 57.7311 39.4408 57.789L39.4611 57.7833L39.5294 57.8308L39.5456 57.8242L39.6254 57.8669L39.6481 57.8558L39.7298 57.8963L39.7694 57.8792L39.8245 57.9046L37.3582 57.9055L37.2996 57.8982L37.223 57.9372V57.9372ZM40.0549 78.8246L40.0809 78.1633C40.0752 78.4333 40.0669 78.6613 40.0549 78.8246ZM37.4019 61.9865H37.4025L37.3965 61.9732L37.4019 61.9865V61.9865ZM37.3965 61.9732C37.5402 62.2891 37.4728 65.4385 37.4728 66.0115V74.5543C37.4728 75.9452 37.4228 77.4308 37.4902 78.8106L37.3965 61.9732V61.9732Z" fill="#0456A4"/>
<path fill-rule="evenodd" clip-rule="evenodd" d="M97.0782 68.5631C95.2222 82.3515 75.4472 93.2064 50.8172 93.2064C26.1876 93.2064 5.67085 84.7946 4.47048 70.6435H6.72718C7.97028 83.5518 27.4693 90.9576 50.8172 90.9576C74.1655 90.9576 92.8915 81.1074 94.8088 68.5631H90.8225L95.7705 62.6993L101.351 68.5631H97.0782V68.5631ZM50.8172 39.728C73.646 39.728 92.8867 46.5127 96.5742 59.1552H94.2384C90.4553 47.7609 72.288 41.9772 50.8172 41.9772C29.3464 41.9772 11.7357 50.3452 7.58157 61.4787H11.3609L5.78006 67.3425L0.832031 61.1618L5.22419 61.4787C9.2805 49.0955 27.9887 39.728 50.8172 39.728V39.728Z" fill="#0456A4"/>
<path d="M14.496 32.32C12.768 32.32 11.4453 31.8293 10.528 30.848C9.61067 29.8667 9.152 28.48 9.152 26.688V15.104C9.152 11.2213 10.944 9.28 14.528 9.28C16.2347 9.28 17.536 9.77067 18.432 10.752C19.328 11.712 19.776 13.0987 19.776 14.912V15.328H16.448V14.688C16.448 13.216 15.84 12.48 14.624 12.48C13.9627 12.48 13.472 12.6827 13.152 13.088C12.832 13.4933 12.672 14.208 12.672 15.232V19.52H12.736C13.3547 18.2187 14.4213 17.568 15.936 17.568C17.216 17.568 18.1867 18.0053 18.848 18.88C19.5093 19.7547 19.84 21.024 19.84 22.688V26.688C19.84 28.48 19.3813 29.8667 18.464 30.848C17.5467 31.8293 16.224 32.32 14.496 32.32ZM14.496 29.12C15.712 29.12 16.32 28.3947 16.32 26.944V22.976C16.32 21.504 15.712 20.768 14.496 20.768C13.28 20.768 12.672 21.504 12.672 22.976V26.944C12.672 28.3947 13.28 29.12 14.496 29.12Z" fill="#0456A4"/>
</svg>
