<svg width="104" height="104" viewBox="0 0 104 104" fill="none" xmlns="http://www.w3.org/2000/svg">
<rect x="0.5" y="0.5" width="103" height="103" fill="#F8F8F8" stroke="#0456A4"/>
<path fill-rule="evenodd" clip-rule="evenodd" d="M79.8928 47.6248L79.4603 47.452C77.5286 45.9995 73.1057 43.7868 69.2144 44.1766C61.2867 44.9156 58.9236 51.4618 58.8945 57.353C58.8954 58.7124 60.2946 62.473 61.4364 63.6018C64.4529 66.8287 67.6176 69.8942 70.7372 73.0099C72.952 75.2219 75.9603 78.5292 78.5343 80.8413C79.3957 81.6151 80.3802 81.6775 81.2898 80.7961L98.0543 64.1195L98.0895 64.0913C99.4811 62.0232 100.62 61.1239 101.088 57.4521L101.067 54.6441C100.54 48.4713 96.4121 43.0102 87.2274 43.9187C84.9735 44.2157 81.5872 46.5484 79.8928 47.6248V47.6248ZM83.3861 57.6363H89.4792V64.6041H83.3861V70.6972H76.4183V64.6041H70.3256V57.6363H76.4183V51.5436H83.3861V57.6363ZM77.6486 52.7739H82.1558V58.8666H88.2489V63.3738H82.1558V69.4666H77.6486V63.3738H71.5559V58.8666H77.6486V52.7739Z" fill="#0456A4"/>
<path fill-rule="evenodd" clip-rule="evenodd" d="M38.0591 78.6167C35.7479 78.9186 33.487 79.0568 31.3141 79.0462C31.8515 83.8328 32.558 88.2552 35.1808 91.95C35.9028 93.3276 35.653 94.1709 34.0087 94.2479C28.2963 94.1366 25.5356 88.9866 24.1235 81.679C23.9155 80.603 23.3712 77.7437 21.1151 77.5879C17.5227 77.3224 15.8444 76.21 13.0134 73.7188L7.22683 74.5341C6.29114 74.6657 5.41817 74.0083 5.28662 73.0732L4.06298 64.3828C3.93113 63.4474 4.58827 62.5751 5.52396 62.4429L11.9171 61.543C15.6501 56.4896 23.9846 52.1943 34.1232 50.6627L36.2174 65.5358L33.6377 47.2143L37.0846 46.729L39.3988 62.6427L40.3715 62.4802C40.8868 62.3944 41.3748 62.7427 41.4999 63.2392C41.7236 62.7336 42.0364 62.3738 42.7821 62.2692C43.5277 62.1647 44.5231 62.7721 44.6498 63.6766C44.7765 64.5807 44.0072 65.437 43.2431 65.5443C42.4793 65.6513 42.0277 65.3591 41.6791 64.8844C41.5954 65.2955 41.255 65.6201 40.8237 65.6919L39.8507 65.8544L41.8549 80.6093L38.4077 81.0949L38.0591 78.6167V78.6167Z" fill="#0456A4"/>
<path fill-rule="evenodd" clip-rule="evenodd" d="M47.5618 62.6723L56.7904 61.6714L56.9105 62.7786L47.6818 63.7795L47.5618 62.6723Z" fill="#0456A4"/>
<path fill-rule="evenodd" clip-rule="evenodd" d="M43.9084 54.9573L51.6225 49.7939L52.2421 50.7193L44.528 55.883L43.9084 54.9573Z" fill="#0456A4"/>
<path fill-rule="evenodd" clip-rule="evenodd" d="M46.5405 71.1111L55.0472 74.8262L55.4931 73.8054L46.9861 70.0908L46.5405 71.1111Z" fill="#0456A4"/>
<path d="M14.4 32.32C12.6293 32.32 11.264 31.8507 10.304 30.912C9.36533 29.952 8.896 28.576 8.896 26.784V24.8C8.896 23.6907 9.07733 22.7627 9.44 22.016C9.80267 21.248 10.3893 20.6507 11.2 20.224V20.16C10.4533 19.7547 9.89867 19.2 9.536 18.496C9.19467 17.7707 9.024 16.8533 9.024 15.744V14.816C9.024 13.024 9.48267 11.6587 10.4 10.72C11.3387 9.76 12.672 9.28 14.4 9.28C16.128 9.28 17.4507 9.76 18.368 10.72C19.3067 11.6587 19.776 13.024 19.776 14.816V15.744C19.776 17.8773 19.0507 19.3493 17.6 20.16V20.224C18.4107 20.6507 18.9973 21.248 19.36 22.016C19.7227 22.7627 19.904 23.6907 19.904 24.8V26.784C19.904 28.576 19.424 29.952 18.464 30.912C17.5253 31.8507 16.1707 32.32 14.4 32.32ZM14.4 18.72C15.6373 18.72 16.256 17.9733 16.256 16.48V14.72C16.256 13.2267 15.6373 12.48 14.4 12.48C13.1627 12.48 12.544 13.2267 12.544 14.72V16.48C12.544 17.9733 13.1627 18.72 14.4 18.72ZM14.4 29.12C15.7227 29.12 16.384 28.2773 16.384 26.592V24.448C16.384 22.7627 15.7227 21.92 14.4 21.92C13.0773 21.92 12.416 22.7627 12.416 24.448V26.592C12.416 28.2773 13.0773 29.12 14.4 29.12Z" fill="#0456A4"/>
</svg>
