<svg width="104" height="104" viewBox="0 0 104 104" fill="none" xmlns="http://www.w3.org/2000/svg">
<rect x="0.5" y="0.5" width="103" height="103" fill="#F8F8F8" stroke="#0456A4"/>
<path fill-rule="evenodd" clip-rule="evenodd" d="M13.1393 68.7171L13.2119 68.3551C12.7974 68.0214 12.1524 65.8591 12.2124 65.7951L12.1423 65.6892C11.97 65.5 13.0254 63.6447 13.2691 63.3086C13.8182 62.6251 15.0108 61.2253 15.3062 60.8895C15.5609 60.5718 16.1703 60.0042 16.7039 59.363C16.6968 58.6699 16.819 58.2448 16.3213 57.7418C14.6839 57.7856 11.5111 61.3777 10.3963 62.4883C10.197 63.1335 9.89396 63.3509 9.59183 64.0916C9.1789 63.623 9.29189 63.1145 9.50616 62.4714C9.64054 62.307 10.2754 61.5455 10.1288 60.7566C11.0373 59.7358 11.8451 59.1946 12.8662 58.1431C13.2651 57.7856 13.2076 57.2462 13.1812 56.7549L12.4959 56.1219C11.5537 56.1336 9.31788 58.2622 8.23703 59.0134C8.25019 58.3507 8.88234 56.6334 8.35768 56.2422C7.99923 55.7016 7.35336 55.4329 7.04879 55.9233L6.82896 56.1198L6.89633 56.4235C6.76012 56.5756 5.74998 58.3917 5.60825 58.8006C5.22225 59.572 5.01315 62.6266 4.77807 62.9713C4.63022 63.8434 4.61829 64.3139 4.57605 65.2206C4.58034 65.2408 6.68021 68.8463 6.93029 69.0704C7.29149 69.3927 8.80732 71.3683 8.58325 71.6071L8.67113 71.709C8.85939 72.6331 9.62311 73.2597 10.2785 73.9396L11.3526 74.8634L13.6336 77.0226L14.8807 78.1791C15.552 78.7267 18.6363 82.2555 18.9945 83.0437C20.412 84.1711 21.9009 91.0305 22.1614 92.9731C25.0498 96.1118 29.4515 92.1922 29.2057 90.6807C28.8507 88.0938 27.6241 83.1811 26.8683 80.1954C26.7553 80.077 24.6338 76.4062 24.2545 75.7851L23.3383 74.8356C22.045 72.653 18.5429 73.3488 17.8612 72.0329C16.211 70.2786 15.2915 67.3036 13.1393 68.7171Z" fill="#0456A4"/>
<path fill-rule="evenodd" clip-rule="evenodd" d="M65.6067 69.2454L65.9257 68.4257C65.9593 68.8028 66.1016 69.726 65.6973 69.8062L65.4857 69.9078L65.6067 69.2454ZM22.6665 57.6212C23.621 55.9872 23.4168 57.7953 23.4165 52.8906L23.4609 49.1489C23.725 48.3199 23.5031 48.8703 23.9185 48.3438C24.2522 53.3847 24.0278 70.8041 24.1656 71.5737C24.5317 73.62 27.0399 73.5116 27.7013 72.1687C28.2269 71.1022 27.963 61.0088 28.0294 58.0748C29.2128 58.6338 28.7403 61.5592 28.739 64.1335L28.7317 68.9029C28.7295 70.9232 28.2832 72.6245 29.9264 73.0328C33.1659 73.8382 32.34 70.135 32.3388 65.1556C32.3382 63.3615 32.0728 49.9824 32.5295 48.9872C32.8916 48.1972 32.4903 48.8284 33.0306 48.3563C33.0367 51.4085 32.8203 54.8965 33.4952 57.4464C36.0463 58.1226 35.0619 55.6811 37.6509 60.7927C38.7278 62.9186 37.4865 65.3898 36.9607 67.5405L38.2319 68.1419C38.2172 70.0355 38.0553 71.5718 38.6142 73.0573L40.5659 73.1345C41.3921 71.2486 40.6602 69.0235 41.4142 67.9711C41.5415 69.6176 40.849 74.1673 43.2856 73.1366C44.3653 72.6796 44.1277 71.5761 44.1085 70.2583C44.0671 67.4367 44.0077 68.6684 45.4562 67.5405C45.1293 66.1238 44.0203 63.5268 44.2018 62.1417C44.3475 61.0241 46.1394 58.6674 46.6326 57.3086C50.5461 57.9713 48.9843 55.0744 51.3517 49.3304C51.8917 50.1296 49.0345 59.4156 48.4716 61.3278C47.8968 63.281 48.9923 62.6067 51.4314 62.6682L51.4607 72.2269C56.9277 76.7113 53.8991 65.3616 55.1015 62.7043C55.384 63.1013 55.269 62.7316 55.4398 63.4993L55.5833 72.5073C59.5645 75.2818 58.8785 69.9859 58.9012 66.5184L58.9514 62.6162L62.0118 62.5234L58.6312 49.5009C59.0102 49.3267 59.1614 49.5192 60.1338 50.1596C61.1014 50.9925 63.0688 52.0571 64.1478 52.8968C64.667 53.303 65.3667 53.4083 65.7759 53.0559C65.7934 53.1199 65.8259 53.1769 65.877 53.2228C65.7343 53.4658 68.7819 54.7386 69.4354 55.0499C71.1802 55.9814 70.8848 56.5682 72.4827 56.5259L70.6405 57.4898L70.6402 57.4902H70.6399L70.3969 57.6172C70.1288 57.6423 69.7173 57.6723 69.2462 57.7087C65.8179 57.8048 65.0186 57.6395 64.7747 61.3005C63.6702 61.7107 63.568 62.0771 63.0954 63.2134L62.2882 65.0824C62.2371 65.2245 62.2181 65.2936 62.1541 65.4222C62.0185 65.6925 62.0975 65.5293 62.002 65.676C61.7715 65.6613 60.6472 65.5168 60.5388 65.6466L60.0546 66.5572C60.0335 66.9426 60.4348 67.2016 60.646 67.313L60.3466 67.6941C60.0867 68.2769 60.5676 68.3256 60.9952 68.5423L61.3053 68.8802C61.6019 68.8659 61.5845 68.8677 61.7936 68.7955L61.8382 68.9433C62.3571 68.9721 62.7427 69.2001 63.2466 69.3969C64.0134 69.6966 63.8674 69.4606 64.3302 69.1658L65.1947 69.5454C65.1943 69.5476 65.1894 69.7058 65.1793 69.9342C64.1591 70.0174 63.3559 70.8892 63.3559 71.9532C63.3559 73.0717 64.2439 73.9787 65.3398 73.9787C66.435 73.9787 67.323 73.0717 67.323 71.9532C67.323 71.4524 67.1451 70.9948 66.8507 70.641C67.3701 69.7765 67.2259 68.313 67.2409 67.3347C67.7806 67.3503 68.3187 67.4027 68.8584 67.4299C70.1728 67.4973 70.182 67.6274 70.5683 68.7049C70.7085 69.097 70.8536 69.3899 71.0516 69.7419C72.6198 72.5275 75.9634 74.0405 79.1811 73.3598C79.9629 73.1938 80.7637 72.9125 81.3902 72.533C81.7441 72.3187 82.0551 72.1295 82.3095 71.9318C82.9055 71.4687 82.5638 71.7056 83.263 71.5828C83.4221 71.0922 83.2951 71.0612 83.5813 70.6425C84.177 69.7698 84.47 69.5099 84.8679 68.2053C85.6675 65.582 84.8049 62.4521 82.9373 60.7707C81.8981 59.8352 81.6018 59.8263 80.6033 59.2548L80.0584 58.864C80.0465 58.8539 81.3612 53.3118 81.4197 52.8291L81.4714 52.5683C81.6116 52.2809 81.7343 52.2129 82.1383 52.1808C82.6685 52.1649 83.188 52.3164 83.8268 52.5288C84.9266 52.9583 85.0788 51.9019 84.2484 51.6467C83.848 51.5239 83.327 51.3035 82.9321 51.2129C81.2966 50.8545 81.3572 51.6078 80.824 51.7789C80.1316 52.0008 80.4123 51.9053 79.9501 49.8749C79.8907 49.6138 79.8671 49.4118 79.8717 49.2431C80.4548 48.7255 80.8274 47.9358 80.8274 47.0496C80.8274 45.4909 79.6727 44.2264 78.2478 44.2264C76.8229 44.2264 75.668 45.4909 75.668 47.0496C75.668 48.327 76.4433 49.406 77.5067 49.7546C77.5331 49.8015 77.5676 49.8443 77.6123 49.8832C77.3699 50.4054 77.3773 49.9707 77.0476 50.3546C76.9236 50.4994 76.8807 50.7703 76.6946 51.0537C76.4185 51.4752 76.1412 51.6959 75.8556 52.1973C74.8008 54.0496 74.458 55.0159 73.2727 54.8035C72.1968 54.4224 66.6593 51.6941 66.0523 52.2423L66.052 52.2426C66.0928 50.4201 63.3718 49.6637 62.366 48.6377C60.215 46.8534 59.9309 45.0593 53.7379 44.943C49.0355 44.9448 49.5424 45.7477 47.842 51.1076C47.5784 51.9377 47.3354 52.6886 47.1181 53.4802C46.1872 56.8645 46.0651 54.3073 44.3962 56.8627C43.8688 57.6705 43.6735 57.9334 43.1595 58.6362L39.0878 58.7069C38.1759 57.0423 38.1976 56.8773 36.9355 55.7598C35.7408 54.7016 35.9312 55.963 35.941 51.5276C35.9582 43.4823 35.7457 43.1511 26.8075 43.1284C25.2213 43.1177 23.8833 43.0198 22.7498 43.7204C21.8499 44.2766 20.922 45.3109 20.6597 46.809C20.3946 48.3245 20.4097 55.1274 20.7176 56.5709C20.8685 58.2548 21.6402 58.575 22.6665 57.6212V57.6212ZM77.814 65.1534C78.5383 65.1534 79.1254 65.7406 79.1254 66.4645C79.1254 67.1887 78.5383 67.7755 77.814 67.7755C77.0901 67.7755 76.503 67.1887 76.503 66.4645C76.503 65.7406 77.0901 65.1534 77.814 65.1534ZM78.1256 72.4953C77.3099 72.5483 76.4856 72.4696 75.7577 72.2541C74.3713 71.8445 73.0435 70.8473 72.2473 69.6697L72.247 69.6691C71.9807 69.2935 71.7697 68.9017 71.6124 68.4942C71.5818 68.4771 71.5641 68.4609 71.4869 68.2362C71.4517 68.1327 71.459 68.0982 71.4673 68.0626C71.0893 66.744 71.2441 65.2692 71.9069 63.6468C71.9145 63.5531 71.9112 63.4696 71.9133 63.3438C72.0866 63.1748 71.7431 63.1953 72.1071 63.1846C72.1854 63.0138 72.2696 62.8408 72.3593 62.6664C72.3364 62.6581 72.3128 62.6489 72.288 62.6385L72.4242 62.5289L72.5136 62.3737C72.5169 62.3701 72.8656 61.9091 72.8368 62.3682C78.0911 62.2804 77.4321 63.4974 79.137 60.0461C79.3403 60.0697 79.5331 60.115 79.7162 60.1783C83.0509 61.1 84.773 64.5082 83.9061 67.7568C83.8593 67.9353 83.8054 68.108 83.7448 68.2757C83.5679 68.775 83.3264 69.2662 83.0191 69.7413C82.9055 69.9231 82.7849 70.0985 82.6679 70.2387L82.6676 70.2394L82.6655 70.2415L82.6496 70.2605C81.4242 71.7356 79.7835 72.428 78.1256 72.4953V72.4953ZM66.8816 67.4811C66.8617 67.5808 67.023 67.5609 66.7013 67.6026C66.3257 67.6087 66.4864 67.6451 66.3006 67.4814C66.4056 67.294 66.1644 67.2757 66.5584 67.2527C67.0637 67.2221 66.82 67.4033 66.8816 67.4811ZM67.3046 65.863L70.0718 65.9949L70.054 66.9313L67.2805 66.7461L67.3046 65.863ZM66.3655 66.3185C66.4644 66.2619 66.4197 66.2318 66.6575 66.2162C67.1513 66.1829 66.8047 66.1942 66.9039 66.3166C67.0248 66.6368 66.9281 66.6852 66.9 66.7776C66.5464 66.8128 67.0297 66.8689 66.5599 66.7868C66.3089 66.7427 66.4518 66.7504 66.3226 66.6478L66.3655 66.3185V66.3185ZM63.3231 65.7265C63.3553 65.23 63.2873 65.5009 63.6381 65.4094C63.5463 65.6628 63.6197 65.6114 63.3231 65.7265ZM63.9289 64.9021C63.9785 65.084 63.7688 65.1375 63.7618 64.9174C63.7547 64.7081 63.7826 64.8721 63.8784 64.8728C64.1677 64.8746 63.8285 64.5339 63.9289 64.9021V64.9021ZM70.1878 65.1911L70.0433 65.5275L69.1388 65.3622L67.0169 65.2897C67.041 64.0383 66.8415 64.1051 67.2211 62.9437C69.6332 63.0759 67.7693 62.9703 69.4085 63.9232C69.8171 64.1614 69.6414 64.0515 69.901 64.4384C69.6882 64.813 69.6874 64.5605 69.5732 65.0341C69.853 65.1391 69.7691 65.1063 70.1067 64.952L70.1878 65.1911V65.1911ZM64.5032 62.992C64.4205 62.9011 64.2344 62.835 64.4398 62.5947L64.5032 62.992ZM67.4816 62.1193C67.5645 61.9862 67.4981 61.9991 67.5811 62.138C67.7436 62.1187 67.7035 62.0808 67.7126 62.239C67.7359 62.2556 67.7751 62.2804 67.7821 62.2905C67.7861 62.296 67.7815 62.3529 67.7843 62.3404C67.7886 62.3211 67.7411 62.3737 67.7194 62.3903L67.4748 62.378C67.4525 62.3609 67.4268 62.3245 67.4231 62.3113C67.4197 62.3009 67.4044 62.2565 67.4026 62.2458C67.3649 62.059 67.2982 62.0621 67.4816 62.1193V62.1193ZM69.2007 62.1845L69.1835 62.4518L68.709 62.4533L68.5287 62.3612C68.357 62.3774 68.3922 62.4206 68.3992 62.2571C68.2606 62.0597 68.2441 62.5644 68.2906 62.0076C68.7054 61.9936 68.923 61.9632 69.2007 62.1845ZM39.9562 52.6684C39.2934 53.0814 39.2775 52.5585 38.7253 53.9137C38.4706 54.5393 38.4942 55.1708 38.7841 55.8681C39.317 57.1476 40.8693 58.0004 42.6428 57.1853C45.4596 55.8905 43.1032 50.7069 39.9562 52.6684V52.6684ZM53.9692 37.7664C50.3413 39.2877 52.0821 44.8 56.3217 43.5413C59.9196 42.4734 58.2669 35.9647 53.9692 37.7664ZM27.0224 36.0008C22.6268 38.5399 25.8935 43.7486 30.0081 41.8033C33.4404 40.1803 30.6546 33.9022 27.0224 36.0008Z" fill="#0456A4"/>
<path fill-rule="evenodd" clip-rule="evenodd" d="M91.8592 68.3556L91.7867 67.9939C92.2014 67.6602 92.8461 65.4979 92.7861 65.4336L92.8565 65.3277C93.0285 65.1385 91.9731 63.2835 91.7294 62.9474C91.1803 62.2636 89.9877 60.8641 89.6926 60.5286C89.4376 60.2102 88.8282 59.6427 88.2947 59.0015C88.302 58.3084 88.1799 57.8836 88.6773 57.3803C90.3146 57.4244 93.4877 61.0162 94.6022 62.1271C94.8015 62.7717 95.1045 62.9897 95.4066 63.7304C95.8196 63.2618 95.707 62.7531 95.4924 62.1103C95.358 61.9456 94.7231 61.184 94.8701 60.3948C93.9612 59.3746 93.1537 58.8331 92.1325 57.7816C91.7334 57.4244 91.791 56.8848 91.8176 56.3938L92.5027 55.7607C93.4452 55.7724 95.6809 57.901 96.7614 58.6522C96.7483 57.9895 96.1162 56.2723 96.6409 55.8811C96.9996 55.3405 97.6452 55.0714 97.9497 55.5621L98.1698 55.7586L98.1025 56.0623C98.2384 56.2141 99.2489 58.0302 99.3903 58.4394C99.7763 59.2105 99.9856 62.2651 100.22 62.6101C100.368 63.4819 100.38 63.9524 100.423 64.859C100.418 64.8793 98.3183 68.4845 98.0685 68.7086C97.7073 69.0312 96.1912 71.0068 96.4156 71.2459L96.3277 71.3475C96.1394 72.2719 95.3757 72.8979 94.7201 73.5784L93.646 74.5022L91.3649 76.6618L90.1181 77.8176C89.4468 78.3655 86.3622 81.894 86.0041 82.6822C84.5868 83.8099 83.098 90.6693 82.8375 92.6119C79.9491 95.7503 75.547 91.8307 75.7931 90.3192C76.1479 87.7326 77.3744 82.8196 78.1302 79.8339C78.2431 79.7158 80.3647 76.0447 80.744 75.4236L81.6602 74.474C82.9538 72.2918 86.4559 72.9873 87.1373 71.6717C88.7878 69.9174 89.707 66.9421 91.8592 68.3556V68.3556Z" fill="#0456A4"/>
<path d="M14.272 32.32C12.5653 32.32 11.264 31.84 10.368 30.88C9.472 29.8987 9.024 28.5013 9.024 26.688V26.272H12.352V26.912C12.352 28.384 12.96 29.12 14.176 29.12C14.8373 29.12 15.328 28.9173 15.648 28.512C15.968 28.1067 16.128 27.392 16.128 26.368V22.08H16.064C15.4453 23.3813 14.3787 24.032 12.864 24.032C11.584 24.032 10.6133 23.5947 9.952 22.72C9.29067 21.8453 8.96 20.576 8.96 18.912V14.912C8.96 13.12 9.41867 11.7333 10.336 10.752C11.2533 9.77067 12.576 9.28 14.304 9.28C16.032 9.28 17.3547 9.77067 18.272 10.752C19.1893 11.7333 19.648 13.12 19.648 14.912V26.496C19.648 30.3787 17.856 32.32 14.272 32.32ZM14.304 20.832C15.52 20.832 16.128 20.096 16.128 18.624V14.656C16.128 13.2053 15.52 12.48 14.304 12.48C13.088 12.48 12.48 13.2053 12.48 14.656V18.624C12.48 20.096 13.088 20.832 14.304 20.832Z" fill="#0456A4"/>
</svg>
