<?xml version="1.0" encoding="UTF-8"?>
<svg width="1000px" height="1000px" viewBox="0 0 1000 1000" version="1.1" xmlns="http://www.w3.org/2000/svg" xmlns:xlink="http://www.w3.org/1999/xlink">
    <!-- Generator: Sketch 53.2 (72643) - https://sketchapp.com -->
    <title>_13</title>
    <desc>Created with Sketch.</desc>
    <g id="_13" stroke="none" stroke-width="1" fill="none" fill-rule="evenodd">
        <g id="TheGlobalGoals_Icons_Color_Goal_13" fill-rule="nonzero">
            <rect id="Rectangle" fill="#3F7E44" x="0" y="0" width="1000" height="1000"></rect>
            <polygon id="Path" fill="#FFFFFF" points="126.22 83.88 126.22 285.42 92.33 285.42 92.33 131.15 92.03 131.15 68.26 155.82 67.95 155.82 67.95 120.44 99.16 83.88"></polygon>
            <path d="M238,127.59 L238,145.12 C238,162.05 228.79,173.35 214.82,177.82 C231.76,181.68 239.82,193.57 239.82,212 L239.82,241.73 C239.82,269.66 224.96,287.8 190.77,287.8 C156.28,287.8 144.08,268.18 144.08,237.56 L144.08,211.11 L175,211.11 L175,240 C175,251.89 179.15,259.6 190.76,259.6 C201.15,259.6 205.9,252.18 205.9,241.47 L205.9,208.14 C205.9,197.43 201.15,191.79 189.27,191.79 L175,191.79 L175,165.93 L187.79,165.93 C198.79,165.93 205.9,160.27 205.9,149.58 L205.9,127.88 C205.9,116.88 202.05,109.75 191.35,109.75 C180.65,109.75 176.79,116.88 176.79,129.36 L176.79,149.87 L145.83,149.87 L145.83,132 C145.83,102.27 158.02,81.46 193.1,81.46 C224.32,81.46 237.99,99.01 237.99,127.55" id="Path" fill="#FFFFFF"></path>
            <path d="M867.09,626 C840.74,589.09 721.56,441.55 500,441.55 C278.44,441.55 159.32,589.09 132.93,626 C131.81,627.58 130.84,629 130.06,630.11 C130.84,631.3 131.81,632.66 132.93,634.26 C159.32,671.23 278.46,818.78 500,818.78 C721.54,818.78 840.74,671.23 867.09,634.3 C868.24,632.7 869.19,631.3 869.94,630.15 C869.193333,628.99 868.243333,627.62 867.09,626.04 M376.45,534.84 C378.45,531.91 385.08,523.55 385.88,522.49 C387.59,520.29 390.98,519.84 393.35,519.42 C395.72,519 398.84,520.29 399.22,522.06 C399.6,523.83 398.31,530.69 397.15,531.87 C393.9,535.24 385.44,540 380.78,539.25 C377.17,538.7 375.78,535.91 376.45,534.84 M368.53,550.58 C368.88,550.16 369.2,549.82 369.33,549.65 C372.12,546.47 377.67,545.79 381.5,545.19 C385.33,544.59 390.5,546.47 391.08,549.02 C391.66,551.57 381.45,556.22 379.57,558.02 C374.24,562.93 365.9,572.93 361.02,574.02 C359.680041,574.359375 358.263247,574.214153 357.02,573.61 C360.200698,565.634017 364.047632,557.940148 368.52,550.61 M451.43,720.69 C448.43,732.49 444.93,736.74 441.95,740.46 C438.97,744.18 427.95,749.03 420.95,748.51 C413.95,747.99 412.95,729.26 412.95,719.62 C412.95,716.3 408.24,726.16 405.78,706.11 C404.21,693.28 395.97,707.45 395.39,698.89 C394.81,690.33 390.69,692.05 386.39,686.71 C382.09,681.37 376.71,687.23 370.69,689.93 C364.67,692.63 367.17,693.99 358.69,691.31 C358.47,691.24 358.36,691.18 358.15,691.1 C350.08293,672.090286 345.926972,651.650589 345.93,631 C345.93,625.79 346.21,620.66 346.7,615.6 C346.970865,615.091304 347.288929,614.609185 347.65,614.16 C355.81,604.5 355.65,602.24 355.65,602.24 L364.65,599.12 C364.65,599.12 379.07,601.34 389.93,605.43 C398.88,608.78 412.93,616.37 421.16,613.03 C427.09,610.59 431.72,607.35 431.16,602.42 C430.5,596.23 425.62,594.76 419.72,598.93 C417.55,600.47 412.91,589.6 409.27,590.16 C405.63,590.72 413.77,602.92 410.69,603.44 C407.61,603.96 401.38,590.7 400.32,588.55 C399.26,586.4 394.47,581.09 390.16,585.15 C381.06,593.8 366.28,593.27 363.31,595.5 C354.31,602.26 351.89,593.27 352.09,587.8 C352.45,586.55 352.82,585.29 353.22,584.05 C356.17,580.8 366.76,579.72 370.4,582.14 C374.4,584.81 377.26,581.46 378.82,579.84 C380.38,578.22 379.82,575.69 378.82,573.57 C377.82,571.45 380.82,569.85 382.88,569.3 C384.94,568.75 391.83,563.93 394.58,562.3 C397.33,560.67 411.58,558.97 418.01,562.17 C423.232659,564.929748 429.676463,563.629279 433.42,559.06 C436.566736,555.310555 440.355853,552.151264 444.61,549.73 C446.85,548.73 439.1,541.46 432.74,549.34 C426.38,557.22 423.11,557.9 420.11,557.9 C417.11,557.9 399.29,553.46 397.11,547.83 C394.93,542.2 402.69,537.99 409.26,534.83 C415.83,531.67 433.83,531.74 438.43,530.7 C447.78,528.65 459.74,523.95 465.76,528.05 C471.78,532.15 440.61,539.17 450.85,544.7 C454.49,546.7 470.95,535.23 476.6,532.29 C489.87,525.45 463.73,523.19 467.12,509.29 C470.95,493.57 435.05,499.65 417.12,500.99 C459.165865,474.09243 511.625607,469.194858 557.923722,487.844751 C604.221837,506.494644 638.638795,546.388049 650.3,594.92 C650.390804,597.326856 650.138268,599.734375 649.55,602.07 C648.15,607.63 637.55,612.41 631.48,603.46 C629.92,601.2 623.3,594.95 623.48,605.64 C623.66,616.33 633.88,617.43 624.01,623.85 C614.14,630.27 612.35,628.72 607.79,630.34 C603.23,631.96 598.79,642.97 599.92,648.86 C601.05,654.75 615.09,670.86 604.65,670.18 C602.2,669.99 583.76,657.4 580.72,649.3 C577.5,640.77 574,632.43 571.51,626 C569.02,619.57 562.51,618 556.97,621.73 C551.43,625.46 558.5,629.24 554.55,637.28 C550.6,645.32 547.79,652.47 542,645.84 C526.93,628.58 505,637.09 501.61,617.84 C499.76,607.43 490.79,608.43 483.29,602.53 C475.79,596.63 471.56,593.53 470.29,597.72 C469.18,601.45 493.88,621.04 495.64,626.05 C498.27,633.51 488.25,640.05 480.91,641.85 C473.57,643.65 470.39,637.74 463.19,630.24 C455.99,622.74 452.86,617.42 452.36,623.3 C451.64,631.79 459.19,644.3 466.51,648.92 C472.76,652.87 479.76,654.66 477.73,661.08 C475.7,667.5 477.73,663.88 470.73,670.8 C463.73,677.72 462.39,679.99 462.9,689.6 C463.41,699.21 460.9,699.79 459.39,707.8 C457.88,715.81 454.39,708.88 451.39,720.63 M617,659.12 C622.18,658.7 630,665.89 626.93,668.65 C623.86,671.41 616.12,670.39 612.21,667.33 C608.3,664.27 614.66,659.33 617,659.12 M610.43,654.38 C608.77,653.76 607.3,652.18 606.04,648.38 C604.78,644.58 607.97,642.38 611.04,643.95 C614.11,645.52 618.32,650.28 618.32,652.8 C618.32,655.32 612.09,655.03 610.39,654.36 M542.28,654.09 C539.23,656.81 531.43,655.81 527.53,652.77 C523.63,649.73 529.99,644.77 532.31,644.56 C537.5,644.09 545.31,651.35 542.31,654.09 M479.31,684.74 C477.19,688.21 471.38,714.16 467.49,711.14 C463.6,708.12 469.07,681.04 470.19,678.98 C476.29,667.8 489.47,668.35 479.31,684.74 M500.31,785.32 C485.631518,785.323826 471.027613,783.232743 456.94,779.11 C454.672686,777.315558 453.90395,774.215952 455.07,771.57 C459.84,759.12 474.07,754.24 485.29,753.16 C510.29,750.72 543.21,769.41 548.44,766.39 C553.67,763.37 564.27,749.62 579.79,750.2 C590.39,750.61 590.31,752.39 593.87,753.73 C567.005989,774.262476 534.122063,785.365546 500.31,785.32 M609.16,740.4 C607.49088,739.966648 605.869431,739.36698 604.32,738.61 C595.89,734.32 596.9,741.17 592.76,739.61 C588.62,738.05 597.43,728.46 584.99,736.61 C572.55,744.76 575.94,735.35 570.54,721.61 C565.14,707.87 576.76,692.18 586.54,688.61 C599.95,683.76 608.27,682.77 614.54,681.22 C633.08,676.59 637,665.59 640.36,672.28 C641,673.53 641.61,674.73 642.17,675.85 C643.672388,679.025152 644.470619,682.487564 644.51,686 C636.706323,706.448071 624.646673,725.004526 609.13,740.44 M651.41,662.53 C647.27,661.4 629.94,637.44 643.64,621.68 C645.92,619.09 639.04,611.46 640.92,611.31 C648.42,610.73 652.4,615.38 654.37,622.08 C654.52,625.08 654.64,628.02 654.64,631.08 C654.636752,641.66249 653.554489,652.217072 651.41,662.58" id="Shape" fill="#FFFFFF"></path>
            <path d="M319.1,145.6 L319.1,105.23 C319.1,92.23 325.25,82.71 340.02,82.71 C355.53,82.71 359.84,91.32 359.84,103.63 L359.84,113.48 L347,113.48 L347,102.48 C347,97.31 345.28,94.36 340.23,94.36 C335.18,94.36 333.13,98 333.13,103 L333.13,147.8 C333.13,152.8 335.22,156.41 340.27,156.41 C345.32,156.41 347.04,153.21 347.04,148.29 L347.04,132.92 L359.84,132.92 L359.84,147.32 C359.84,159.26 354.92,168.12 340.02,168.12 C325.12,168.12 319.1,158.52 319.1,145.6 Z" id="Path" fill="#FFFFFF"></path>
            <polygon id="Path" fill="#FFFFFF" points="368.69 83.69 382.69 83.69 382.69 155.69 399.43 155.69 399.43 167.14 368.69 167.14"></polygon>
            <polygon id="Path" fill="#FFFFFF" points="407.07 83.69 421.07 83.69 421.07 167.14 407.07 167.14"></polygon>
            <polygon id="Path" fill="#FFFFFF" points="470.21 113 469.84 113 460.37 167.15 453.84 167.15 443.38 113 443.13 113 443.13 167.15 431.57 167.15 431.57 83.69 447.93 83.69 457.04 130.69 457.17 130.69 465.29 83.69 483 83.69 483 167.14 470.21 167.14"></polygon>
            <path d="M490,167.14 L505.76,83.69 L521.76,83.69 L537.64,167.14 L523.24,167.14 L520.65,151.87 L505.77,151.87 L503.3,167.14 L490,167.14 Z M507.6,140.68 L518.81,140.68 L513.27,107.2 L513.14,107.2 L507.6,140.68 Z" id="Shape" fill="#FFFFFF"></path>
            <polygon id="Path" fill="#FFFFFF" points="535.77 83.69 573.07 83.69 573.07 95.14 561.5 95.14 561.5 167.14 547.34 167.14 547.34 95.14 535.77 95.14"></polygon>
            <polygon id="Path" fill="#FFFFFF" points="580.81 83.69 614.29 83.69 614.29 95.14 594.84 95.14 594.84 119 608.75 119 608.75 130.32 594.84 130.32 594.84 155.67 614.29 155.67 614.29 167.12 580.81 167.12"></polygon>
            <path d="M316.65,285.42 L332.41,202 L348.41,202 L364.29,285.44 L349.89,285.44 L347.3,270.18 L332.41,270.18 L329.94,285.44 L316.65,285.42 Z M334.25,259 L345.46,259 L339.92,225.53 L339.79,225.53 L334.25,259 Z" id="Shape" fill="#FFFFFF"></path>
            <path d="M368.32,263.89 L368.32,223.52 C368.32,210.47 374.48,201 389.25,201 C404.75,201 409.06,209.61 409.06,221.92 L409.06,231.76 L396.26,231.76 L396.26,220.81 C396.26,215.64 394.54,212.69 389.49,212.69 C384.44,212.69 382.35,216.26 382.35,221.3 L382.35,266.1 C382.35,271.1 384.45,274.72 389.49,274.72 C394.53,274.72 396.26,271.52 396.26,266.59 L396.26,251.21 L409.06,251.21 L409.06,265.61 C409.06,277.55 404.14,286.41 389.25,286.41 C374.36,286.41 368.32,276.81 368.32,263.89 Z" id="Path" fill="#FFFFFF"></path>
            <polygon id="Path" fill="#FFFFFF" points="414 202 451.3 202 451.3 213.45 439.69 213.45 439.69 285.45 425.53 285.45 425.53 213.45 414 213.45"></polygon>
            <polygon id="Path" fill="#FFFFFF" points="459 202 473 202 473 285.44 459 285.44"></polygon>
            <path d="M482.37,263.89 L482.37,223.52 C482.37,210.47 488.78,201 503.54,201 C518.3,201 524.84,210.47 524.84,223.52 L524.84,263.89 C524.84,276.81 518.43,286.41 503.54,286.41 C488.65,286.41 482.37,276.81 482.37,263.89 Z M510.81,266.1 L510.81,221.3 C510.81,216.3 508.59,212.69 503.54,212.69 C498.49,212.69 496.4,216.26 496.4,221.3 L496.4,266.1 C496.4,271.1 498.62,274.72 503.54,274.72 C508.46,274.72 510.81,271.15 510.81,266.1 L510.81,266.1 Z" id="Shape" fill="#FFFFFF"></path>
            <polygon id="Path" fill="#FFFFFF" points="545.86 233 545.86 285.43 534.05 285.43 534.05 202 547.84 202 563 249.85 563 202 574.7 202 574.7 285.44 562.36 285.44"></polygon>
        </g>
    </g>
</svg>