<?xml version="1.0" encoding="UTF-8"?>
<svg width="1000px" height="1000px" viewBox="0 0 1000 1000" version="1.1" xmlns="http://www.w3.org/2000/svg" xmlns:xlink="http://www.w3.org/1999/xlink">
    <!-- Generator: Sketch 53.2 (72643) - https://sketchapp.com -->
    <title>_2</title>
    <desc>Created with Sketch.</desc>
    <g id="_2" stroke="none" stroke-width="1" fill="none" fill-rule="evenodd">
        <g id="TheGlobalGoals_Icons_Color_Goal_2" transform="translate(0.000000, -1.000000)" fill-rule="nonzero">
            <rect id="_Path_" fill="#DDA63A" x="0" y="0.98" width="1000" height="1000.04"></rect>
            <path d="M187,258.76 L131.41,258.76 L131.41,249.24 C131.41,233.49 137.06,227.54 145.68,218.32 L167.38,195.42 C184.93,176.69 188.8,164.79 188.8,144.56 L188.8,124.94 C188.8,96.1 174.8,82.41 144.49,82.41 C114.76,82.41 99.58,98.17 99.58,126.41 L99.58,150.8 L130.52,150.8 L130.52,125.52 C130.52,113.34 136.46,109.76 143.61,109.76 C150.14,109.76 155.79,112.45 155.79,124.94 L155.79,141.59 C155.79,158.25 154.3,164.79 143.3,176.38 L124.3,196.6 C105.84,216.24 99,229.33 99,249.24 L99,286.42 L187,286.42 L187,258.76 Z" id="_Path_2" fill="#FFFFFF"></path>
            <g id="Group" transform="translate(230.000000, 412.000000)" fill="#FFFFFF">
                <path d="M183.12,438.72 L183.12,452.79 C183.092815,452.89136 183.076061,452.995233 183.07,453.1 C183.075331,453.211421 183.092086,453.322001 183.12,453.43 C183.267643,456.919332 186.108067,459.689623 189.6,459.75 C189.6,459.75 189.68,459.75 189.73,459.75 L189.89,459.75 L354.89,459.75 C354.89,459.75 354.98,459.75 355.03,459.75 L355.18,459.75 C358.779143,459.679449 361.664403,456.749801 361.68,453.15 C361.68,453.15 361.68,453.15 361.68,453.15 C361.673845,453.133902 361.673845,453.116098 361.68,453.1 L361.68,437.14 C454.54,406.7 524.11,331.44 539.41,239.72 C539.41,239.52 539.47,239.34 539.5,239.17 C539.55422,238.866187 539.584314,238.558561 539.59,238.25 C539.592659,236.480192 538.890783,234.782106 537.639339,233.530661 C536.387894,232.279217 534.689808,231.577341 532.92,231.58 L7.14,231.58 C5.3675433,231.574685 3.66586014,232.275068 2.41066353,233.526513 C1.15546692,234.777957 0.449992032,236.477535 0.45,238.25 L0.8,241.25 C16.87,333.84 88.34,409.52 183.12,438.72" id="_Path_3"></path>
                <path d="M361.49,7.2 C359.32,10.28 308.49,83.41 362.62,142.54 C387.43,169.68 385.28,193.62 378.2,209.79 L412.9,209.79 C419.9,185.92 417.02,155.97 388.9,125.19 C349.04,81.61 389.41,22.72 390.02,21.81 C394.78,15.09 392.23,6.43 384.39,2.39 C376.55,-1.65 366.32,0.52 361.54,7.2" id="_Path_4"></path>
                <path d="M273.61,209.79 L308.32,209.79 C315.32,185.91 312.43,155.97 284.26,125.19 C244.38,81.61 284.72,22.74 285.36,21.78 C290.09,15.09 287.59,6.44 279.72,2.39 C271.85,-1.66 261.66,0.51 256.9,7.2 C254.72,10.27 203.9,83.41 258.03,142.54 C282.84,169.68 280.67,193.63 273.61,209.79" id="_Path_5"></path>
                <path d="M152.29,7.2 C150.09,10.28 99.29,83.41 153.41,142.54 C178.23,169.69 176.08,193.63 169.01,209.79 L203.71,209.79 C210.71,185.93 207.83,155.98 179.63,125.19 C139.76,81.61 180.13,22.72 180.77,21.79 C185.48,15.09 182.97,6.43 175.1,2.39 C167.23,-1.65 157.05,0.51 152.29,7.2" id="_Path_6"></path>
            </g>
            <g id="_Group_" transform="translate(284.000000, 83.000000)" fill="#FFFFFF">
                <polygon id="_Compound_Path_" points="15.06 72.31 35.91 72.31 35.91 83.52 0.71 83.52 0.71 72.31 22.29 13 2.88 13 2.88 1.79 36.76 1.79 36.76 13"></polygon>
                <polygon id="_Compound_Path_2" points="45.2 1.79 78 1.79 78 13 58.94 13 58.94 36.39 72.56 36.39 72.56 47.48 58.94 47.48 58.94 72.31 78 72.31 78 83.52 45.2 83.52"></polygon>
                <path d="M100.29,46 L100.29,83.49 L86.54,83.49 L86.54,1.79 L106.54,1.79 C120.4,1.79 125.47,8.66 125.47,20.11 L125.47,30.6 C125.47,39.4 122.33,44.6 114.47,46.39 L127.62,83.52 L113.19,83.52 L100.29,46 Z M100.29,13 L100.29,38.44 L104.87,38.44 C109.57,38.44 111.62,36.02 111.62,31.68 L111.62,19.63 C111.62,15.17 109.57,13 104.87,13 L100.29,13 Z" id="_Compound_Path_3"></path>
                <path d="M134.16,62.43 L134.16,22.88 C134.16,10.1 140.43,0.82 154.9,0.82 C169.37,0.82 175.76,10.1 175.76,22.88 L175.76,62.43 C175.76,75.09 169.49,84.49 154.9,84.49 C140.31,84.49 134.16,75.09 134.16,62.43 Z M162,64.6 L162,20.71 C162,15.77 159.83,12.27 154.89,12.27 C149.95,12.27 147.89,15.77 147.89,20.71 L147.89,64.6 C147.89,69.54 150.06,73.04 154.89,73.04 C159.72,73.04 162,69.54 162,64.6 Z" id="_Compound_Path_4"></path>
            </g>
            <g id="_Group_2" transform="translate(285.000000, 203.000000)" fill="#FFFFFF">
                <polygon id="_Compound_Path_5" points="27.49 47.23 14.22 47.23 14.22 83.23 0.48 83.23 0.48 1.54 14.22 1.54 14.22 36.14 27.49 36.14 27.49 1.54 41.35 1.54 41.35 83.28 27.49 83.28"></polygon>
                <path d="M90.29,1.54 L90.29,63.38 C90.29,76.04 84.87,84.24 70.88,84.24 C56.42,84.24 50.39,76.04 50.39,63.38 L50.39,1.54 L64.13,1.54 L64.13,64.71 C64.13,69.53 66.06,72.79 70.88,72.79 C75.7,72.79 77.64,69.53 77.64,64.71 L77.64,1.54 L90.29,1.54 Z" id="_Compound_Path_6"></path>
                <polygon id="_Compound_Path_7" points="110.91 31.92 110.91 83.28 99.33 83.28 99.33 1.54 112.84 1.54 127.67 48.44 127.67 1.54 139.12 1.54 139.12 83.28 127.06 83.28"></polygon>
                <path d="M168.89,39.63 L188.43,39.63 L188.43,83.28 L178.54,83.28 L178.54,74.36 C176.73,80.5 172.87,84.24 165.4,84.24 C153.58,84.24 148.16,74.84 148.16,62.18 L148.16,22.64 C148.16,9.86 154.31,0.57 168.77,0.57 C183.96,0.57 188.43,9.01 188.43,21.07 L188.43,28.3 L175.89,28.3 L175.89,20 C175.89,14.94 173.96,12.05 169.02,12.05 C164.08,12.05 161.9,15.54 161.9,20.49 L161.9,64.37 C161.9,69.31 163.95,72.81 168.65,72.81 C173.11,72.81 175.41,70.28 175.41,64.97 L175.41,50.49 L168.89,50.49 L168.89,39.63 Z" id="_Compound_Path_8"></path>
                <polygon id="_Compound_Path_9" points="197.46 1.54 230.26 1.54 230.26 12.75 211.21 12.75 211.21 36.14 224.83 36.14 224.83 47.23 211.21 47.23 211.21 72.07 230.26 72.07 230.26 83.28 197.46 83.28"></polygon>
                <path d="M252.56,45.78 L252.56,83.28 L238.81,83.28 L238.81,1.54 L258.81,1.54 C272.67,1.54 277.73,8.41 277.73,19.86 L277.73,30.35 C277.73,39.15 274.6,44.35 266.73,46.14 L279.87,83.28 L265.46,83.28 L252.56,45.78 Z M252.56,12.78 L252.56,38.22 L257.14,38.22 C261.84,38.22 263.89,35.81 263.89,31.47 L263.89,19.38 C263.89,14.92 261.89,12.75 257.14,12.75 L252.56,12.78 Z" id="_Compound_Path_10"></path>
            </g>
        </g>
    </g>
</svg>