<?xml version="1.0" encoding="UTF-8"?>
<svg width="1000px" height="1000px" viewBox="0 0 1000 1000" version="1.1" xmlns="http://www.w3.org/2000/svg" xmlns:xlink="http://www.w3.org/1999/xlink">
    <!-- Generator: Sketch 53.2 (72643) - https://sketchapp.com -->
    <title>_3</title>
    <desc>Created with Sketch.</desc>
    <g id="_3" stroke="none" stroke-width="1" fill="none" fill-rule="evenodd">
        <g id="TheGlobalGoals_Icons_Color_Goal_3" transform="translate(1.000000, 0.000000)" fill-rule="nonzero">
            <rect id="_Path_" fill="#4C9F38" x="0" y="0.978043912" width="998.003992" height="998.033932"></rect>
            <g id="Group" transform="translate(95.808383, 81.836327)" fill="#FFFFFF">
                <path d="M46.6067864,206.726547 C80.748503,206.726547 95.5888224,188.612774 95.5888224,160.718563 L95.5888224,131.047904 C95.5888224,112.644711 87.6047904,100.768463 70.6387226,96.9161677 C84.6107784,92.4650699 93.7824351,81.1776447 93.7824351,64.2714571 L93.7824351,46.756487 C93.7824351,18.2634731 80.1297405,0.758483034 48.9720559,0.758483034 C13.9421158,0.758483034 1.76646707,21.5169661 1.76646707,51.2075848 L1.76646707,69.011976 L32.6347305,69.011976 L32.6347305,48.5329341 C32.6347305,36.0678643 36.506986,28.9520958 47.1856287,28.9520958 C57.8642715,28.9520958 61.7165669,36.0678643 61.7165669,47.0459082 L61.7165669,68.7125749 C61.7165669,79.4011976 54.6007984,85.0299401 43.6327345,85.0299401 L30.8582834,85.0299401 L30.8582834,110.868263 L45.1097804,110.868263 C56.9760479,110.868263 61.7165669,116.497006 61.7165669,127.185629 L61.7165669,160.429142 C61.7165669,171.107784 56.9760479,178.542914 46.5868263,178.542914 C35.0199601,178.542914 30.8582834,170.808383 30.8582834,158.942116 L30.8582834,130.159681 L0,130.159681 L0,156.566866 C0,187.145709 12.1556886,206.726547 46.5768463,206.726547" id="_Path_2"></path>
                <g transform="translate(68.862275, 294.411178)">
                    <path d="M668.922156,248.502994 C668.922156,220.419162 650.958084,197.60479 623.612774,197.60479 C609.97006,197.60479 593.502994,212.57485 584.560878,221.746507 C575.578842,212.53493 560.249501,197.58483 546.636727,197.58483 C519.351297,197.58483 500.219561,220.349301 500.219561,248.483034 C500.177169,261.889155 505.373494,274.781484 514.700599,284.411178 L514.700599,284.411178 L584.660679,354.500998 L654.520958,284.491018 L654.461078,284.441118 C663.779685,274.803416 668.968267,261.908948 668.922156,248.502994 Z" id="_Path_3"></path>
                    <g id="_Group_">
                        <path d="M371.067864,468.942116 L370.349301,468.942116 C365.028899,468.622495 360.63164,464.676131 359.740519,459.421158 L324.201597,252.42515 L270.369261,352.225549 C268.014288,356.585973 263.128391,358.94454 258.249336,358.076195 C253.370281,357.207851 249.598151,353.30838 248.892216,348.403194 L226.037924,188.672655 L184.231537,282.58483 C182.385844,286.734313 178.273977,289.411716 173.732535,289.421158 L11.2275449,289.421158 C5.15151056,289.062657 0.407712393,284.030713 0.407712393,277.944112 C0.407712393,271.85751 5.15151056,266.825567 11.2275449,266.467066 L166.267465,266.467066 L221.267465,142.944112 C223.341651,138.268056 228.257978,135.527031 233.326131,136.220982 C238.394284,136.914933 242.39285,140.876618 243.133733,145.938124 L266.696607,310.608782 L319.780439,212.175649 C322.112851,207.870098 326.916414,205.514357 331.748684,206.306237 C336.580954,207.098118 340.381375,210.863823 341.217565,215.688623 L374.151697,407.37525 L494.061876,8.98203593 C495.432295,4.44683288 499.444404,1.21666888 504.167605,0.845875536 C508.890806,0.475082195 513.357823,3.03959513 515.419162,7.30538922 L578.522954,138.133733 C580.398494,141.841824 580.125164,146.273743 577.808192,149.72327 C575.491219,153.172796 571.491891,155.102043 567.349887,154.768279 C563.207883,154.434516 559.569069,151.889786 557.834331,148.113772 L507.55489,43.9121756 L382.055888,460.758483 C380.601666,465.6131 376.135612,468.939317 371.067864,468.942116 L371.067864,468.942116 Z" id="_Path_4"></path>
                    </g>
                </g>
                <g id="_Group_2" transform="translate(188.622754, 0.998004)">
                    <path d="M21.1876248,39.7105788 L40.6886228,39.7105788 L40.6886228,83.2734531 L30.8183633,83.2734531 L30.8183633,74.3612774 C29.011976,80.499002 25.1596806,84.2315369 17.7045908,84.2315369 C5.90818363,84.2315369 0.499001996,74.8502994 0.499001996,62.2155689 L0.499001996,22.744511 C0.499001996,9.99001996 6.63672655,0.728542914 21.0678643,0.728542914 C36.2275449,0.728542914 40.6886228,9.15169661 40.6886228,21.1876248 L40.6886228,28.4031936 L28.1736527,28.4031936 L28.1736527,20.0998004 C28.1736527,15.0499002 26.247505,12.1157685 21.3173653,12.1157685 C16.3872255,12.1157685 14.2115768,15.6087824 14.2115768,20.5389222 L14.2115768,64.3413174 C14.2115768,69.2714571 16.257485,72.7644711 20.9481038,72.7644711 C25.3992016,72.7644711 27.6946108,70.239521 27.6946108,64.9401198 L27.6946108,50.5389222 L21.1876248,50.5389222 L21.1876248,39.7105788 Z" id="_Compound_Path_"></path>
                    <path d="M49.7005988,62.2155689 L49.7005988,22.744511 C49.7005988,9.99001996 55.9580838,0.728542914 70.3992016,0.728542914 C84.8403194,0.728542914 91.2175649,9.98003992 91.2175649,22.744511 L91.2175649,62.2155689 C91.2175649,74.8502994 84.9600798,84.2315369 70.3992016,84.2315369 C55.8383234,84.2315369 49.7005988,74.8502994 49.7005988,62.2155689 Z M77.49501,64.3812375 L77.49501,20.5788423 C77.49501,15.6487026 75.3293413,12.1556886 70.3992016,12.1556886 C65.4690619,12.1556886 63.4131737,15.6487026 63.4131737,20.5788423 L63.4131737,64.3812375 C63.4131737,69.3113772 65.5788423,72.8043912 70.3992016,72.8043912 C75.2195609,72.8043912 77.49501,69.3113772 77.49501,64.3812375 L77.49501,64.3812375 Z" id="_Compound_Path_2"></path>
                    <path d="M100.239521,62.2155689 L100.239521,22.744511 C100.239521,9.99001996 106.497006,0.728542914 120.938124,0.728542914 C135.379242,0.728542914 141.716567,9.98003992 141.716567,22.744511 L141.716567,62.2155689 C141.716567,74.8502994 135.459082,84.2315369 120.908184,84.2315369 C106.357285,84.2315369 100.239521,74.8502994 100.239521,62.2155689 Z M128.033932,64.3812375 L128.033932,20.5788423 C128.033932,15.6487026 125.868263,12.1556886 120.938124,12.1556886 C116.007984,12.1556886 113.952096,15.6487026 113.952096,20.5788423 L113.952096,64.3812375 C113.952096,69.3113772 116.117764,72.8043912 120.938124,72.8043912 C125.758483,72.8043912 128.033932,69.3113772 128.033932,64.3812375 Z" id="_Compound_Path_3"></path>
                    <path d="M191.796407,23.5928144 L191.796407,61.3672655 C191.796407,73.8822355 186.626747,83.2734531 171.946108,83.2734531 L150.768463,83.2734531 L150.768463,1.69660679 L171.946108,1.69660679 C186.626747,1.69660679 191.796407,10.9780439 191.796407,23.5928144 Z M170.259481,72.0758483 C175.918164,72.0758483 178.083832,68.7125749 178.083832,63.7724551 L178.083832,21.0678643 C178.083832,16.247505 175.918164,12.8842315 170.259481,12.8842315 L164.491018,12.8842315 L164.491018,72.0758483 L170.259481,72.0758483 Z" id="_Compound_Path_4"></path>
                    <polygon id="_Compound_Path_5" points="246.427146 47.2954092 233.193613 47.2954092 233.193613 83.2734531 219.471058 83.2734531 219.471058 1.69660679 233.193613 1.69660679 233.193613 36.2275449 246.427146 36.2275449 246.427146 1.69660679 260.259481 1.69660679 260.259481 83.2734531 246.427146 83.2734531"></polygon>
                    <polygon id="_Compound_Path_6" points="269.281437 1.69660679 302.015968 1.69660679 302.015968 12.8842315 283.053892 12.8842315 283.053892 36.2275449 296.646707 36.2275449 296.646707 47.2954092 283.003992 47.2954092 283.003992 72.0758483 301.966068 72.0758483 301.966068 83.2734531 269.231537 83.2734531"></polygon>
                    <path d="M308.383234,83.2734531 L323.792415,1.69660679 L339.431138,1.69660679 L354.9501,83.2734531 L340.868263,83.2734531 L338.323353,68.3532934 L323.792415,68.3532934 L321.357285,83.2734531 L308.383234,83.2734531 Z M325.588822,57.4051896 L336.566866,57.4051896 L331.157685,24.6706587 L331.037924,24.6706587 L325.588822,57.4051896 Z" id="_Compound_Path_7"></path>
                    <polygon id="_Compound_Path_8" points="361.806387 1.69660679 375.518962 1.69660679 375.518962 72.0758483 391.886228 72.0758483 391.886228 83.2734531 361.806387 83.2734531"></polygon>
                    <polygon id="_Compound_Path_9" points="389.96008 1.69660679 426.417166 1.69660679 426.417166 12.8842315 415.10978 12.8842315 415.10978 83.2734531 401.267465 83.2734531 401.267465 12.8842315 389.96008 12.8842315"></polygon>
                    <polygon id="_Compound_Path_10" points="460.948104 47.2954092 447.714571 47.2954092 447.714571 83.2734531 434.001996 83.2734531 434.001996 1.69660679 447.714571 1.69660679 447.714571 36.2275449 460.948104 36.2275449 460.948104 1.69660679 474.780439 1.69660679 474.780439 83.2734531 460.948104 83.2734531"></polygon>
                </g>
                <g id="_Group_3" transform="translate(186.626747, 120.758483)">
                    <path d="M0.429141717,83.1237525 L15.8283433,1.54690619 L31.4670659,1.54690619 L46.9860279,83.1237525 L32.9341317,83.1237525 L30.4091816,68.1536926 L15.8283433,68.1536926 L13.4231537,83.1237525 L0.429141717,83.1237525 Z M17.6347305,57.255489 L28.6127745,57.255489 L23.1936128,24.5309381 L23.0738523,24.5309381 L17.6347305,57.255489 Z" id="_Compound_Path_11"></path>
                    <polygon id="_Compound_Path_12" points="65.3992016 31.8662675 65.3992016 83.1237525 53.8922156 83.1237525 53.8922156 1.54690619 67.3752495 1.54690619 82.1656687 48.3532934 82.1656687 1.54690619 93.6027944 1.54690619 93.6027944 83.1237525 81.5169661 83.1237525"></polygon>
                    <path d="M143.602794,23.4530938 L143.602794,61.2275449 C143.602794,73.742515 138.433134,83.1237525 123.752495,83.1237525 L102.57485,83.1237525 L102.57485,1.54690619 L123.752495,1.54690619 C138.433134,1.54690619 143.602794,10.8183633 143.602794,23.4530938 Z M122.065868,71.9361277 C127.724551,71.9361277 129.89022,68.5728543 129.89022,63.6327345 L129.89022,20.9580838 C129.89022,16.1477046 127.724551,12.7844311 122.065868,12.7844311 L116.287425,12.7844311 L116.287425,71.9760479 L122.065868,71.9361277 Z" id="_Compound_Path_13"></path>
                    <polygon id="_Compound_Path_14" points="196.057884 32.7145709 188.363273 83.1237525 175.489022 83.1237525 164.510978 1.54690619 177.744511 1.54690619 184.121756 53.2834331 184.241517 53.2834331 191.097804 1.54690619 202.285429 1.54690619 209.870259 53.2834331 209.99002 53.2834331 216.247505 1.54690619 227.794411 1.54690619 217.205589 83.1237525 204.231537 83.1237525 196.167665 32.7145709"></polygon>
                    <polygon id="_Compound_Path_15" points="234.92016 1.54690619 267.644711 1.54690619 267.644711 12.744511 248.682635 12.744511 248.682635 36.0778443 262.275449 36.0778443 262.275449 47.1556886 248.642715 47.1556886 248.642715 71.9361277 267.60479 71.9361277 267.60479 83.1237525 234.92016 83.1237525"></polygon>
                    <polygon id="_Compound_Path_16" points="276.187625 1.54690619 289.91018 1.54690619 289.91018 71.9361277 306.267465 71.9361277 306.267465 83.1237525 276.187625 83.1237525"></polygon>
                    <polygon id="_Compound_Path_17" points="313.732535 1.54690619 327.44511 1.54690619 327.44511 71.9361277 343.812375 71.9361277 343.812375 83.1237525 313.732535 83.1237525"></polygon>
                    <polygon id="_Compound_Path_18" points="342.005988 34.9301397 361.277445 34.9301397 361.277445 45.9081836 342.005988 45.9081836"></polygon>
                    <path d="M369.441118,1.54690619 L389.291417,1.54690619 C403.003992,1.54690619 407.57485,7.9241517 407.57485,19.510978 L407.57485,27.8143713 C407.57485,34.6706587 405.0499,39.001996 399.401198,40.7884232 C406.257485,42.3453094 409.620758,46.9161677 409.620758,54.3812375 L409.620758,65.2095808 C409.620758,76.756487 404.451098,83.1736527 390.738523,83.1736527 L369.441118,83.1736527 L369.441118,1.54690619 Z M383.153693,35.9281437 L387.964072,35.9281437 C392.41517,35.9281437 394.461078,33.6427146 394.461078,29.3113772 L394.461078,19.3313373 C394.461078,14.8802395 392.46507,12.7145709 387.844311,12.7145709 L383.153693,12.7145709 L383.153693,35.9281437 Z M383.153693,46.3972056 L383.153693,71.9061876 L389.141717,71.9061876 C393.712575,71.9061876 395.878244,69.6207585 395.878244,65.2894212 L395.878244,53.0139721 C395.878244,48.6826347 393.832335,46.3972056 389.021956,46.3972056 L383.153693,46.3972056 Z" id="_Compound_Path_19"></path>
                    <polygon id="_Compound_Path_20" points="417.684631 1.54690619 450.409182 1.54690619 450.409182 12.744511 431.447106 12.744511 431.447106 36.0778443 445.0499 36.0778443 445.0499 47.1556886 431.397206 47.1556886 431.397206 71.9361277 450.359281 71.9361277 450.359281 83.1237525 417.684631 83.1237525"></polygon>
                    <polygon id="_Compound_Path_21" points="458.952096 1.54690619 472.664671 1.54690619 472.664671 83.1237525 458.952096 83.1237525"></polygon>
                    <polygon id="_Compound_Path_22" points="493.363273 31.8662675 493.363273 83.1237525 481.816367 83.1237525 481.816367 1.54690619 495.289421 1.54690619 510.08982 48.3532934 510.08982 1.54690619 521.516966 1.54690619 521.516966 83.1237525 509.540918 83.1237525"></polygon>
                    <path d="M551.237525,39.5708583 L570.728543,39.5708583 L570.728543,83.1237525 L560.878244,83.1237525 L560.878244,74.2215569 C559.071856,80.3592814 555.229541,84.0918164 547.764471,84.0918164 C535.978044,84.0918164 530.558882,74.7005988 530.558882,62.0658683 L530.558882,22.6047904 C530.558882,9.8502994 536.696607,0.588822355 551.137725,0.588822355 C566.297405,0.588822355 570.748503,9.01197605 570.748503,21.0379242 L570.748503,28.2634731 L558.213573,28.2634731 L558.213573,19.9600798 C558.213573,14.9101796 556.287425,11.9760479 551.357285,11.9760479 C546.427146,11.9760479 544.251497,15.4690619 544.251497,20.3992016 L544.251497,64.2015968 C544.251497,69.1317365 546.247505,72.6147705 550.998004,72.6147705 C555.449102,72.6147705 557.734531,70.0898204 557.734531,64.8003992 L557.734531,50.3992016 L551.237525,50.3992016 L551.237525,39.5708583 Z" id="_Compound_Path_23"></path>
                </g>
            </g>
        </g>
    </g>
</svg>