<?xml version="1.0" encoding="UTF-8"?>
<svg width="1000px" height="1000px" viewBox="0 0 1000 1000" version="1.1" xmlns="http://www.w3.org/2000/svg" xmlns:xlink="http://www.w3.org/1999/xlink">
    <!-- Generator: Sketch 53.2 (72643) - https://sketchapp.com -->
    <title>_6</title>
    <desc>Created with Sketch.</desc>
    <g id="_6" stroke="none" stroke-width="1" fill="none" fill-rule="evenodd">
        <g id="TheGlobalGoals_Icons_Color_Goal_6" fill-rule="nonzero">
            <rect id="Rectangle" fill="#26BDE2" x="0" y="0" width="1000" height="1000"></rect>
            <path d="M151.31,288.09 C187.31,288.09 201.26,268.45 201.26,237.22 L201.26,207.48 C201.26,174.48 188.18,157.82 163.78,157.82 C149.51,157.82 140.89,164.38 135.83,174.19 L135.54,174.19 L135.54,130.77 C135.54,118.56 139.41,109.95 151.6,109.95 C163.79,109.95 167.36,117.09 167.36,129.58 L167.36,143 L198.29,143 L198.29,132.25 C198.29,102.51 188.47,81.7 151,81.7 C115.32,81.7 101.93,104.59 101.93,136.11 L101.93,234.25 C101.93,265.48 115.61,288.09 151.31,288.09 L151.31,288.09 Z M135.54,203.32 C136.13,192.03 140.89,184.89 151.6,184.89 C163.19,184.89 167.65,192.03 167.65,205.12 L167.65,240.21 C167.65,252.99 162.91,260.43 151.31,260.43 C139.99,260.43 135.54,252.7 135.54,240.21 L135.54,203.32 Z" id="Shape" fill="#FFFFFF"></path>
            <path d="M306.49,165.73 C321.08,165.73 325.89,157.06 325.89,145.35 L325.89,131.24 L313.35,131.24 L313.35,146.32 C313.35,151.14 311.68,154.32 306.72,154.32 C301.76,154.32 299.72,150.83 299.72,145.88 L299.72,101.98 C299.72,97.04 301.79,93.54 306.72,93.54 C311.65,93.54 313.35,96.43 313.35,101.54 L313.35,112.27 L325.89,112.27 L325.89,102.62 C325.89,90.57 321.68,82.12 306.49,82.12 C292,82 286,91.32 286,104.11 L286,143.66 C286,156.33 292,165.73 306.5,165.73" id="Path" fill="#FFFFFF"></path>
            <polygon id="Path" fill="#FFFFFF" points="364.73 153.56 348.34 153.56 348.34 83 334.57 83 334.57 164.78 364.73 164.78"></polygon>
            <polygon id="Path" fill="#FFFFFF" points="404.99 153.56 385.94 153.56 385.94 128.72 399.56 128.72 399.56 117.61 385.94 117.61 385.94 94.22 404.99 94.22 404.99 83 372.2 83 372.2 164.78 404.99 164.78"></polygon>
            <path d="M426.82,149.82 L441.4,149.82 L443.94,164.82 L458,164.82 L442.47,83 L426.82,83 L411.38,164.77 L424.38,164.77 L426.82,149.82 Z M434.05,106 L434.17,106 L439.6,138.79 L428.6,138.79 L434.05,106 Z" id="Shape" fill="#FFFFFF"></path>
            <polygon id="Path" fill="#FFFFFF" points="476.49 113.4 492.64 164.78 504.69 164.78 504.69 83 493.24 83 493.24 129.92 478.42 83 464.91 83 464.91 164.78 476.49 164.78"></polygon>
            <polygon id="Path" fill="#FFFFFF" points="555.76 164.77 563.48 114.24 563.59 114.24 571.67 164.77 584.7 164.77 595.3 83.01 583.74 83.01 577.46 134.86 577.34 134.86 569.75 83.01 558.54 83.01 551.67 134.86 551.55 134.86 545.15 83.01 531.88 83.01 542.87 164.77"></polygon>
            <path d="M610.91,149.82 L625.51,149.82 L628.03,164.82 L642.14,164.82 L626.58,83 L610.91,83 L595.5,164.77 L608.5,164.77 L610.91,149.82 Z M618.16,106 L618.27,106 L623.7,138.79 L612.7,138.79 L618.16,106 Z" id="Shape" fill="#FFFFFF"></path>
            <polygon id="Path" fill="#FFFFFF" points="651.75 164.77 665.62 164.77 665.62 94.22 676.95 94.22 676.95 83 640.42 83 640.42 94.22 651.75 94.22"></polygon>
            <polygon id="Path" fill="#FFFFFF" points="716.22 153.56 697.17 153.56 697.17 128.72 710.79 128.72 710.79 117.61 697.17 117.61 697.17 94.22 716.22 94.22 716.22 83 683.43 83 683.43 164.78 716.22 164.78"></polygon>
            <path d="M737.41,127.25 L750.3,164.78 L764.78,164.78 L751.63,127.62 C759.47,125.83 762.63,120.62 762.63,111.83 L762.63,101.34 C762.63,89.88 757.57,83 743.7,83 L723.7,83 L723.7,164.78 L737.44,164.78 L737.41,127.25 Z M737.41,94.25 L742,94.25 C746.68,94.25 748.74,96.42 748.74,100.87 L748.74,112.9 C748.74,117.25 746.68,119.67 742,119.67 L737.41,119.67 L737.41,94.25 Z" id="Shape" fill="#FFFFFF"></path>
            <path d="M299.82,270.38 L314.41,270.38 L316.94,285.33 L331,285.33 L315.43,203.57 L299.82,203.57 L284.39,285.33 L297.39,285.33 L299.82,270.38 Z M307.05,226.6 L307.19,226.6 L312.6,259.41 L301.6,259.41 L307.05,226.6 Z" id="Shape" fill="#FFFFFF"></path>
            <polygon id="Path" fill="#FFFFFF" points="336.69 203.57 336.69 285.35 348.26 285.35 348.26 233.97 364.41 285.35 376.45 285.35 376.45 203.57 365.02 203.57 365.02 250.49 350.19 203.57"></polygon>
            <path d="M386.52,285.34 L407.72,285.34 C422.42,285.34 427.61,275.93 427.61,263.39 L427.61,225.52 C427.61,212.87 422.42,203.58 407.72,203.58 L386.52,203.58 L386.52,285.34 Z M400.25,214.78 L406,214.78 C411.68,214.78 413.83,218.16 413.83,222.99 L413.83,265.81 C413.83,270.74 411.68,274.12 406,274.12 L400.22,274.12 L400.25,214.78 Z" id="Shape" fill="#FFFFFF"></path>
            <path d="M458.15,256.76 L458.15,267.76 C458.15,278.48 463.59,286.34 477.56,286.34 C491.53,286.34 497.56,278.34 497.56,267.15 L497.56,263.15 C497.56,254.15 493.96,249.52 486.49,241.92 L477.68,233.24 C473.68,229.39 471.17,226.72 471.17,222.16 L471.17,220.45 C471.17,215.87 473.82,213.71 477.68,213.71 C482.02,213.71 484.19,216 484.19,220.71 L484.19,227.84 L496.73,227.84 L496.73,221.19 C496.73,209.37 491.31,202.62 477.56,202.62 C464.18,202.62 458.28,210.46 458.28,220.62 L458.28,223.38 C458.28,232.79 461.9,237.5 469.73,245.21 L477.8,253.3 C482.02,257.3 483.94,260.17 483.94,264.86 L483.94,268 C483.94,272.34 482.02,275.24 477.68,275.24 C472.99,275.24 470.94,272.59 470.94,268 L470.94,256.76 L458.15,256.76 Z" id="Path" fill="#FFFFFF"></path>
            <path d="M514.52,285.34 L516.93,270.34 L531.52,270.34 L534.05,285.34 L548.15,285.34 L532.59,203.58 L516.93,203.58 L501.51,285.34 L514.52,285.34 Z M524.17,226.62 L524.29,226.62 L529.71,259.41 L518.71,259.41 L524.17,226.62 Z" id="Shape" fill="#FFFFFF"></path>
            <polygon id="Path" fill="#FFFFFF" points="583.24 250.49 568.41 203.58 554.9 203.58 554.9 285.35 566.49 285.35 566.49 233.97 582.63 285.35 594.68 285.35 594.68 203.58 583.24 203.58"></polygon>
            <rect id="Rectangle" fill="#FFFFFF" x="605.85" y="203.57" width="13.75" height="81.77"></rect>
            <polygon id="Path" fill="#FFFFFF" points="651.02 285.35 651.02 214.79 662.36 214.79 662.36 203.59 625.84 203.59 625.84 214.79 637.16 214.79 637.16 285.35"></polygon>
            <path d="M690.31,203.58 L674.66,203.58 L659.22,285.34 L672.22,285.34 L674.65,270.39 L689.22,270.39 L691.75,285.34 L705.85,285.34 L690.31,203.58 Z M676.45,259.41 L681.89,226.62 L682,226.62 L687.43,259.41 L676.45,259.41 Z" id="Shape" fill="#FFFFFF"></path>
            <polygon id="Path" fill="#FFFFFF" points="738.01 203.58 701.49 203.58 701.49 214.79 712.83 214.79 712.83 285.35 726.7 285.35 726.7 214.79 738.01 214.79"></polygon>
            <rect id="Rectangle" fill="#FFFFFF" x="745.52" y="203.57" width="13.74" height="81.77"></rect>
            <path d="M788.91,286.32 C803.5,286.32 809.75,276.91 809.75,264.24 L809.75,224.68 C809.75,211.89 803.5,202.61 788.91,202.61 C774.32,202.61 768.16,211.89 768.16,224.68 L768.16,264.24 C768.16,276.91 774.45,286.32 788.91,286.32 L788.91,286.32 Z M781.91,222.51 C781.91,217.57 784.07,214.07 788.91,214.07 C793.75,214.07 796.02,217.57 796.02,222.51 L796.02,266.41 C796.02,271.35 793.85,274.85 788.91,274.85 C783.97,274.85 781.91,271.35 781.91,266.41 L781.91,222.51 Z" id="Shape" fill="#FFFFFF"></path>
            <polygon id="Path" fill="#FFFFFF" points="858.47 285.35 858.47 203.59 847.02 203.59 847.02 250.49 832.19 203.59 818.68 203.59 818.68 285.35 830.26 285.35 830.26 233.96 846.41 285.35"></polygon>
            <path d="M684.65,404.36 C683.810107,403.438114 682.617056,402.917974 681.37,402.93 L318.57,402.93 C317.323826,402.883139 316.124356,403.407375 315.312303,404.353797 C314.50025,405.300219 314.164344,406.565414 314.4,407.79 L375.4,776.42 C375.745152,778.46209 377.50897,779.96007 379.58,779.97 L454.39,779.97 L459.51,839.97 L428.03,839.97 L501.28,913.21 L574.7,839.8 L543.23,839.8 L548.29,780 L624.42,780 C626.518848,780.008876 628.298831,778.459949 628.58,776.38 L685.58,407.82 C685.780082,406.586689 685.441442,405.326803 684.65,404.36 Z M544.43,699.47 C532.673875,710.214457 517.028229,715.67182 501.14,714.57 C485.235332,715.682215 469.570253,710.224377 457.8,699.47 C430.62,672.32 440.32,638.54 449.8,621.08 C455.64,610.15 497.4,547.44 501,542.08 L501,541.66 L501.16,541.86 L501.3,541.66 L501.3,542.08 C504.8,547.42 546.63,610.08 552.47,621.08 C561.92,638.54 571.59,672.32 544.43,699.47 Z M659.52,481.92 C649.69,477.59 637.22,479.15 625.26,483.99 C580.26,502.24 549.6,508.8 502.26,493.99 C472.44,484.65 444.54,465.11 411.57,476.99 C389.68,484.86 369.29,492.37 344.57,492.18 L330.28,418.92 L669.79,418.92 L659.52,481.92 Z" id="Shape" fill="#FFFFFF"></path>
        </g>
    </g>
</svg>