<?xml version="1.0" encoding="UTF-8"?>
<svg width="1000px" height="1000px" viewBox="0 0 1000 1000" version="1.1" xmlns="http://www.w3.org/2000/svg" xmlns:xlink="http://www.w3.org/1999/xlink">
    <!-- Generator: Sketch 53.2 (72643) - https://sketchapp.com -->
    <title>_8</title>
    <desc>Created with Sketch.</desc>
    <g id="_8" stroke="none" stroke-width="1" fill="none" fill-rule="evenodd">
        <g id="TheGlobalGoals_Icons_Color_Goal_8" transform="translate(2.000000, 0.000000)" fill-rule="nonzero">
            <rect id="_Path_" fill="#A21942" x="0" y="0.978043912" width="998.003992" height="998.033932"></rect>
            <path d="M193.912176,236.616766 L193.912176,214.660679 C193.912176,195.379242 187.095808,181.427146 171.357285,174.301397 C184.700599,167.784431 190.948104,155.908184 190.948104,139.291417 L190.948104,130.968064 C190.948104,99.510978 174.630739,82.5948104 143.463074,82.5948104 C112.60479,82.5948104 96.5568862,99.5608782 96.5568862,130.968064 L96.5568862,139.291417 C96.5568862,155.618762 102.54491,167.784431 115.518962,174.301397 C99.7904192,181.427146 93.253493,195.379242 93.253493,214.660679 L93.253493,236.616766 C93.253493,267.175649 107.804391,288.512974 143.423154,288.512974 C179.351297,288.512974 193.872255,267.135729 193.872255,236.616766 L193.912176,236.616766 Z M128.273453,128.832335 C128.273453,116.646707 132.44511,109.530938 143.423154,109.530938 C154.690619,109.530938 158.852295,116.646707 158.852295,128.832335 L158.852295,142.47505 C158.852295,154.640719 154.690619,161.786427 143.423154,161.786427 C132.44511,161.786427 128.273453,154.640719 128.273453,142.47505 L128.273453,128.832335 Z M160.07984,240.169661 C160.07984,252.345309 155.628743,260.948104 143.463074,260.948104 C131.586826,260.948104 127.135729,252.345309 127.135729,240.169661 L127.135729,207.52495 C127.135729,195.359281 131.586826,186.746507 143.463074,186.746507 C155.628743,186.746507 160.07984,195.359281 160.07984,207.52495 L160.07984,240.169661 Z" id="_Compound_Path_" fill="#FFFFFF"></path>
            <g id="Group" transform="translate(258.483034, 371.257485)" fill="#FFFFFF">
                <path d="M434.291417,120.758483 L332.854291,217.235529 C329.031936,221.037924 327.065868,223.842315 327.065868,231.726547 L327.065868,502.185629 C327.076865,505.374689 329.665212,507.954111 332.854291,507.954092 L437.644711,507.954092 C440.832163,507.954097 443.417649,505.373077 443.423154,502.185629 L443.423154,123.173653 C443.423154,119.98004 440.928144,114.191617 434.301397,120.738523" id="_Path_2"></path>
                <path d="M142.055888,246.506986 L40.6087824,342.944112 C36.7964072,346.756487 34.8203593,349.550898 34.8203593,357.42515 L34.8203593,502.135729 C34.8368345,505.320888 37.4235805,507.894254 40.6087824,507.894212 L145.399202,507.894212 C148.582769,507.894231 151.166648,505.319277 151.177645,502.135729 L151.177645,248.882236 C151.177645,245.678643 148.652695,239.840319 142.055888,246.457086" id="_Path_3"></path>
                <path d="M480.399202,3.71257485 C480.445475,2.89080104 480.132239,2.08949868 479.540918,1.51696607 C479.029693,1.03281648 478.366876,0.740190072 477.664671,0.688622754 L477.105788,0.688622754 L476.277445,0.688622754 L398.602794,18.2934132 L397.195609,18.4431138 C396.626653,18.560245 396.101451,18.8332118 395.678643,19.2315369 C394.544003,20.394512 394.544003,22.2501985 395.678643,23.4131737 L396.556886,24.2914172 L414.301397,42.0259481 L238.293413,218.033932 L157.005988,136.726547 C156.570288,136.280293 155.972982,136.028683 155.349301,136.028683 C154.725621,136.028683 154.128315,136.280293 153.692615,136.726547 L131.636727,158.792415 L1.30738523,289.111776 C0.409874183,290.033899 0.409874183,291.503027 1.30738523,292.42515 L23.3932136,314.500998 C23.8277904,314.937975 24.4186458,315.18367 25.0349301,315.18367 C25.6512144,315.18367 26.2420698,314.937975 26.6766467,314.500998 L155.419162,185.838323 L214.401198,244.840319 C214.457488,244.937977 214.520865,245.031374 214.590818,245.11976 L236.656687,267.155689 C237.09066,267.601365 237.686322,267.85275 238.308383,267.85275 C238.930444,267.85275 239.526106,267.601365 239.96008,267.155689 L439.670659,67.4051896 L458.293413,86.0179641 C458.839398,86.573258 459.585522,86.8860135 460.364271,86.8860135 C461.143021,86.8860135 461.889145,86.573258 462.43513,86.0179641 C462.95575,85.5134617 463.259929,84.8263762 463.283433,84.1017964 L463.283433,83.8622754 L480.339321,4.57085828 L480.399202,3.71257485 Z" id="_Path_4"></path>
                <path d="M288.752495,263.393214 L239.670659,312.874251 C238.744161,313.659491 237.371467,313.607528 236.506986,312.754491 L192.045908,267.46507 C183.902196,259.361277 182.145709,265.938124 182.145709,269.121756 L182.145709,502.165669 C182.143059,503.692914 182.747216,505.15866 183.82527,506.240457 C184.903324,507.322254 186.366966,507.931487 187.894212,507.934132 L292.684631,507.934132 C295.864288,507.923153 298.437641,505.345341 298.443114,502.165669 L298.443114,265.219561 C298.443114,262.035928 295.938124,256.177645 288.732535,263.393214" id="_Path_5"></path>
            </g>
            <g id="_Group_2" transform="translate(267.465070, 82.834331)" fill="#FFFFFF">
                <path d="M41.7165669,23.5628743 L41.7165669,61.3373253 C41.7165669,73.8522954 36.5369261,83.2335329 21.8662675,83.2335329 L0.688622754,83.2335329 L0.688622754,1.66666667 L21.8662675,1.66666667 C36.5369261,1.66666667 41.7165669,10.9780439 41.7165669,23.5628743 Z M20.1796407,72.0459082 C25.8383234,72.0459082 28.003992,68.6826347 28.003992,63.742515 L28.003992,21.0379242 C28.003992,16.2175649 25.8383234,12.8542914 20.1796407,12.8542914 L14.4011976,12.8542914 L14.4011976,72.0459082 L20.1796407,72.0459082 Z" id="_Compound_Path_2"></path>
                <polygon id="_Compound_Path_3" points="50.3792415 1.66666667 83.1037924 1.66666667 83.1037924 12.8542914 64.1417166 12.8542914 64.1417166 36.1976048 77.7345309 36.1976048 77.7345309 47.2654691 64.0918164 47.2654691 64.0918164 72.0459082 83.0538922 72.0459082 83.0538922 83.2335329 50.3792415 83.2335329"></polygon>
                <path d="M90.0798403,62.1856287 L90.0798403,22.7145709 C90.0798403,9.96007984 96.0678643,0.698602794 110.528942,0.698602794 C125.688623,0.698602794 129.9002,9.12175649 129.9002,21.1576846 L129.9002,30.7784431 L117.39521,30.7784431 L117.39521,20.0698603 C117.39521,15.0199601 115.708583,12.0858283 110.778443,12.0858283 C105.848303,12.0858283 103.792415,15.5788423 103.792415,20.508982 L103.792415,64.3113772 C103.792415,69.241517 105.838323,72.7345309 110.778443,72.7345309 C115.718563,72.7345309 117.39521,69.6007984 117.39521,64.750499 L117.39521,49.7904192 L129.9002,49.7904192 L129.9002,63.8722555 C129.9002,75.5489022 125.08982,84.2115768 110.528942,84.2115768 C95.9680639,84.2115768 90.0798403,74.8502994 90.0798403,62.1856287 Z" id="_Compound_Path_4"></path>
                <polygon id="_Compound_Path_5" points="138.203593 1.66666667 170.928144 1.66666667 170.928144 12.8542914 151.966068 12.8542914 151.966068 36.1976048 165.568862 36.1976048 165.568862 47.2654691 151.916168 47.2654691 151.916168 72.0459082 170.878244 72.0459082 170.878244 83.2335329 138.203593 83.2335329"></polygon>
                <polygon id="_Compound_Path_6" points="190.618762 31.9860279 190.618762 83.2335329 179.111776 83.2335329 179.111776 1.66666667 192.61477 1.66666667 207.41517 48.4630739 207.41517 1.66666667 218.842315 1.66666667 218.842315 83.2335329 206.786427 83.2335329"></polygon>
                <polygon id="_Compound_Path_7" points="225.908184 1.66666667 262.365269 1.66666667 262.365269 12.8542914 251.057884 12.8542914 251.057884 83.2335329 237.215569 83.2335329 237.215569 12.8542914 225.908184 12.8542914"></polygon>
                <polygon id="_Compound_Path_8" points="312.654691 32.8243513 304.96008 83.2335329 292.085828 83.2335329 281.107784 1.66666667 294.411178 1.66666667 300.788423 53.4031936 300.908184 53.4031936 307.764471 1.66666667 318.952096 1.66666667 326.526946 53.4031936 326.646707 53.4031936 332.904192 1.66666667 344.461078 1.66666667 333.832335 83.2335329 320.858283 83.2335329 312.794411 32.8243513"></polygon>
                <path d="M349.9501,62.1856287 L349.9501,22.7145709 C349.9501,9.96007984 356.207585,0.698602794 370.648703,0.698602794 C385.08982,0.698602794 391.457086,9.96007984 391.457086,22.7145709 L391.457086,62.1856287 C391.457086,74.8203593 385.199601,84.2015968 370.648703,84.2015968 C356.097804,84.2015968 349.9501,74.8502994 349.9501,62.1856287 Z M377.744511,64.3512974 L377.744511,20.5489022 C377.744511,15.6187625 375.578842,12.1257485 370.648703,12.1257485 C365.718563,12.1257485 363.662675,15.6187625 363.662675,20.5489022 L363.662675,64.3512974 C363.662675,69.2814371 365.828343,72.7744511 370.648703,72.7744511 C375.469062,72.7744511 377.744511,69.2814371 377.744511,64.3512974 Z" id="_Compound_Path_9"></path>
                <path d="M413.832335,45.8183633 L413.832335,83.2335329 L400.11976,83.2335329 L400.11976,1.66666667 L420.07984,1.66666667 C433.922156,1.66666667 438.972056,8.52295409 438.972056,19.9500998 L438.972056,30.4191617 C438.972056,39.2015968 435.848303,44.3912176 427.994012,46.1776447 L441.117764,83.2335329 L426.706587,83.2335329 L413.832335,45.8183633 Z M413.832335,12.8842315 L413.832335,38.2734531 L418.403194,38.2734531 C423.103792,38.2734531 425.149701,35.8582834 425.149701,31.5269461 L425.149701,19.5508982 C425.149701,15.0998004 423.153693,12.9341317 418.403194,12.9341317 L413.832335,12.8842315 Z" id="_Compound_Path_10"></path>
                <polygon id="_Compound_Path_11" points="460.998004 43.5329341 460.998004 83.2335329 447.285429 83.2335329 447.285429 1.66666667 460.998004 1.66666667 460.998004 37.5149701 475.968064 1.66666667 489.441118 1.66666667 473.562874 38.3632735 489.800399 83.2734531 475.319361 83.2734531"></polygon>
                <path d="M508.882236,83.2335329 L524.281437,1.66666667 L539.92016,1.66666667 L555.449102,83.2335329 L541.367265,83.2335329 L538.842315,68.3233533 L524.281437,68.3233533 L521.876248,83.2335329 L508.882236,83.2335329 Z M526.087824,57.3652695 L537.065868,57.3652695 L531.656687,24.6407186 L531.526946,24.6407186 L526.087824,57.3652695 Z" id="_Compound_Path_12"></path>
                <polygon id="_Compound_Path_13" points="571.566866 31.9860279 571.566866 83.2335329 560.00998 83.2335329 560.00998 1.66666667 573.493014 1.66666667 588.293413 48.4630739 588.293413 1.66666667 599.720559 1.66666667 599.720559 83.2335329 587.684631 83.2335329"></polygon>
                <path d="M649.770459,23.5628743 L649.770459,61.3373253 C649.770459,73.8522954 644.590818,83.2335329 629.91018,83.2335329 L608.782435,83.2335329 L608.782435,1.66666667 L629.9501,1.66666667 C644.590818,1.66666667 649.770459,10.9780439 649.770459,23.5628743 Z M628.233533,72.0459082 C633.882236,72.0459082 636.047904,68.6826347 636.047904,63.742515 L636.047904,21.0379242 C636.047904,16.2175649 633.882236,12.8542914 628.233533,12.8542914 L622.45509,12.8542914 L622.45509,72.0459082 L628.233533,72.0459082 Z" id="_Compound_Path_14"></path>
            </g>
            <g id="_Group_3" transform="translate(267.465070, 202.594810)" fill="#FFFFFF">
                <polygon id="_Compound_Path_15" points="0.688622754 1.70658683 33.4131737 1.70658683 33.4131737 12.8942116 14.4011976 12.8942116 14.4011976 36.237525 28.003992 36.237525 28.003992 47.3053892 14.4011976 47.3053892 14.4011976 72.0958084 33.4131737 72.0958084 33.4131737 83.2834331 0.688622754 83.2834331"></polygon>
                <path d="M39.4311377,62.2255489 L39.4311377,22.7644711 C39.4311377,10.00998 45.4191617,0.748502994 59.8802395,0.748502994 C75.0399202,0.748502994 79.251497,9.16167665 79.251497,21.1976048 L79.251497,30.8283433 L66.7365269,30.8283433 L66.7365269,20.1197605 C66.7365269,15.0598802 65.0598802,12.1357285 60.1197605,12.1357285 C55.1796407,12.1357285 53.1337325,15.6187625 53.1337325,20.5588822 L53.1337325,64.3512974 C53.1337325,69.2814371 55.1796407,72.7744511 60.1197605,72.7744511 C65.0598802,72.7744511 66.7365269,69.6506986 66.7365269,64.7904192 L66.7365269,49.8303393 L79.251497,49.8303393 L79.251497,63.8722555 C79.251497,75.5389222 74.4411178,84.2015968 59.8802395,84.2015968 C45.3193613,84.2015968 39.4311377,74.8502994 39.4311377,62.2255489 Z" id="_Compound_Path_16"></path>
                <path d="M86.7065868,62.2255489 L86.7065868,22.7644711 C86.7065868,10.00998 92.9640719,0.748502994 107.40519,0.748502994 C121.846307,0.748502994 128.223553,10.00998 128.223553,22.7644711 L128.223553,62.2255489 C128.223553,74.8602794 121.966068,84.241517 107.40519,84.241517 C92.8443114,84.241517 86.7065868,74.8502994 86.7065868,62.2255489 Z M114.500998,64.3912176 L114.500998,20.5988024 C114.500998,15.6586826 112.335329,12.1756487 107.40519,12.1756487 C102.47505,12.1756487 100.419162,15.6586826 100.419162,20.5988024 L100.419162,64.3912176 C100.419162,69.3213573 102.58483,72.8143713 107.40519,72.8143713 C112.225549,72.8143713 114.500998,69.3213573 114.500998,64.3912176 L114.500998,64.3912176 Z" id="_Compound_Path_17"></path>
                <polygon id="_Compound_Path_18" points="147.58483 32.0259481 147.58483 83.2834331 136.037924 83.2834331 136.037924 1.70658683 149.510978 1.70658683 164.311377 48.5129741 164.311377 1.70658683 175.738523 1.70658683 175.738523 83.2834331 163.672655 83.2834331"></polygon>
                <path d="M183.562874,62.2255489 L183.562874,22.7644711 C183.562874,10.00998 189.820359,0.748502994 204.251497,0.748502994 C218.682635,0.748502994 225.06986,10.00998 225.06986,22.7644711 L225.06986,62.2255489 C225.06986,74.8602794 218.812375,84.241517 204.251497,84.241517 C189.690619,84.241517 183.562874,74.8502994 183.562874,62.2255489 Z M211.357285,64.3912176 L211.357285,20.5988024 C211.357285,15.6586826 209.191617,12.1756487 204.251497,12.1756487 C199.311377,12.1756487 197.265469,15.6586826 197.265469,20.5988024 L197.265469,64.3912176 C197.265469,69.3213573 199.431138,72.8143713 204.251497,72.8143713 C209.071856,72.8143713 211.357285,69.3213573 211.357285,64.3912176 L211.357285,64.3912176 Z" id="_Compound_Path_19"></path>
                <polygon id="_Compound_Path_20" points="270.668663 30.3393214 270.309381 30.3393214 261.037924 83.2335329 254.660679 83.2335329 244.441118 30.3393214 244.191617 30.3393214 244.191617 83.2335329 232.884232 83.2335329 232.884232 1.70658683 248.852295 1.70658683 257.754491 47.6147705 257.874251 47.6147705 265.858283 1.70658683 283.193613 1.70658683 283.193613 83.2834331 270.668663 83.2834331"></polygon>
                <polygon id="_Compound_Path_21" points="290.998004 1.70658683 304.710579 1.70658683 304.710579 83.2834331 290.998004 83.2834331"></polygon>
                <path d="M312.37525,62.2255489 L312.37525,22.7644711 C312.37525,10.00998 318.363273,0.748502994 332.824351,0.748502994 C347.984032,0.748502994 352.195609,9.16167665 352.195609,21.1976048 L352.195609,30.8283433 L339.720559,30.8283433 L339.720559,20.1197605 C339.720559,15.0598802 338.033932,12.1357285 333.103792,12.1357285 C328.173653,12.1357285 326.117764,15.6187625 326.117764,20.5588822 L326.117764,64.3512974 C326.117764,69.2814371 328.163673,72.7744511 333.103792,72.7744511 C338.043912,72.7744511 339.720559,69.6506986 339.720559,64.7904192 L339.720559,49.8303393 L352.235529,49.8303393 L352.235529,63.8722555 C352.235529,75.5389222 347.42515,84.2015968 332.864271,84.2015968 C318.303393,84.2015968 312.37525,74.8502994 312.37525,62.2255489 Z" id="_Compound_Path_22"></path>
                <path d="M396.267465,39.7305389 L415.758483,39.7305389 L415.758483,83.2834331 L405.898204,83.2834331 L405.898204,74.3812375 C404.091816,80.5189621 400.239521,84.241517 392.784431,84.241517 C380.988024,84.241517 375.578842,74.8602794 375.578842,62.2255489 L375.578842,22.7644711 C375.578842,10.00998 381.706587,0.748502994 396.147705,0.748502994 C411.307385,0.748502994 415.758483,9.16167665 415.758483,21.1976048 L415.758483,28.4131737 L403.243513,28.4131737 L403.243513,20.1197605 C403.243513,15.0598802 401.317365,12.1357285 396.387226,12.1357285 C391.457086,12.1357285 389.291417,15.6187625 389.291417,20.5588822 L389.291417,64.3512974 C389.291417,69.2814371 391.287425,72.7744511 396.027944,72.7744511 C400.479042,72.7744511 402.764471,70.249501 402.764471,64.9500998 L402.764471,50.5588822 L396.267465,50.5588822 L396.267465,39.7305389 Z" id="_Compound_Path_23"></path>
                <path d="M437.295409,45.9081836 L437.295409,83.3233533 L423.572854,83.3233533 L423.572854,1.70658683 L443.532934,1.70658683 C457.365269,1.70658683 462.42515,8.56287425 462.42515,19.99002 L462.42515,30.4590818 C462.42515,39.241517 459.291417,44.4311377 451.447106,46.2275449 L464.570858,83.2834331 L450.169661,83.2834331 L437.295409,45.9081836 Z M437.295409,12.9740519 L437.295409,38.3632735 L441.866267,38.3632735 C446.556886,38.3632735 448.602794,35.9580838 448.602794,31.6267465 L448.602794,19.510978 C448.602794,15.0598802 446.606786,12.8942116 441.866267,12.8942116 L437.295409,12.9740519 Z" id="_Compound_Path_24"></path>
                <path d="M468.692615,62.2255489 L468.692615,22.7644711 C468.692615,10.00998 474.9501,0.748502994 489.391218,0.748502994 C503.832335,0.748502994 510.199601,10.00998 510.199601,22.7644711 L510.199601,62.2255489 C510.199601,74.8602794 503.952096,84.241517 489.391218,84.241517 C474.830339,84.241517 468.692615,74.8502994 468.692615,62.2255489 Z M496.487026,64.3912176 L496.487026,20.5988024 C496.487026,15.6586826 494.321357,12.1756487 489.391218,12.1756487 C484.461078,12.1756487 482.40519,15.6586826 482.40519,20.5988024 L482.40519,64.3912176 C482.40519,69.3213573 484.570858,72.8143713 489.391218,72.8143713 C494.211577,72.8143713 496.487026,69.3213573 496.487026,64.3912176 L496.487026,64.3912176 Z" id="_Compound_Path_25"></path>
                <polygon id="_Compound_Path_26" points="545.329341 32.8642715 537.634731 83.2834331 524.760479 83.2834331 513.782435 1.70658683 527.045908 1.70658683 533.423154 53.4431138 533.542914 53.4431138 540.399202 1.70658683 551.586826 1.70658683 559.171657 53.4431138 559.291417 53.4431138 565.548902 1.70658683 577.095808 1.70658683 566.506986 83.2834331 553.532934 83.2834331 545.469062 32.8642715"></polygon>
                <polygon id="_Compound_Path_27" points="581.307385 1.70658683 617.764471 1.70658683 617.764471 12.8942116 606.457086 12.8942116 606.457086 83.2834331 592.61477 83.2834331 592.61477 12.8942116 581.307385 12.8942116"></polygon>
                <polygon id="_Compound_Path_28" points="648.922156 47.3053892 635.728543 47.3053892 635.728543 83.2335329 621.966068 83.2335329 621.966068 1.70658683 635.728543 1.70658683 635.728543 36.237525 648.962076 36.237525 648.962076 1.70658683 662.794411 1.70658683 662.794411 83.2834331 648.922156 83.2834331"></polygon>
            </g>
        </g>
    </g>
</svg>