<?xml version="1.0" encoding="UTF-8"?>
<svg width="95px" height="95px" viewBox="0 0 95 95" version="1.1" xmlns="http://www.w3.org/2000/svg" xmlns:xlink="http://www.w3.org/1999/xlink">
    <!-- Generator: Sketch 53.2 (72643) - https://sketchapp.com -->
    <title>goal_7_target_7_b</title>
    <desc>Created with Sketch.</desc>
    <g id="goal_7_target_7_b" stroke="none" stroke-width="1" fill="none" fill-rule="evenodd">
        <g id="Group-52" fill-rule="nonzero">
            <rect id="Rectangle" fill="#FCC30B" x="-3.62376795e-13" y="-2.13162821e-14" width="94.8" height="94.8"></rect>
            <g id="Group" transform="translate(9.700000, 10.000000)" fill="#FFFFFF">
                <path d="M74.8,37.5 C74.8,17 58.2,0.4 37.7,0.4 C17.2,0.4 0.6,17 0.7,37.5 C0.7,52.7 10,66.3 24,71.9 C26.8,73.2 29.9,73.8 33,73.6 C35.2,73.5 39.2,72.7 39.2,66.4 L39.2,59.5 L40.2,59.5 C40.9,59.4 41.6,59.9 41.9,60.6 C42.2,61.3 42.4,61.9 42.7,62.6 C42.9,63.2 43.6,63.6 44.2,63.4 C45.9,63.1 47.5,62.5 49,61.8 C49.7,61.5 50,60.8 49.7,60.1 C49.7,60.1 49.7,60.1 49.7,60.1 C49.5,59.4 49.4,58.9 49.2,58.2 C49,57.5 49,56.8 49.6,56.4 C50.2,56 52.1,54.6 52.8,54 C53.4,53.5 54.2,53.4 54.8,53.9 C55.5,54.3 56,54.6 56.6,55 C57.1,55.4 57.9,55.3 58.3,54.8 C59.4,53.5 60.3,52.1 61,50.6 C61.4,50 61.2,49.2 60.6,48.8 C60,48.4 59.6,48 59,47.6 C58.4,47.2 58,46.6 58.3,45.9 C58.6,45.2 59.2,43.1 59.5,42.1 C59.7,41.4 60.3,40.9 61,40.8 C61.8,40.8 62.4,40.7 63.2,40.6 C63.9,40.6 64.4,40.1 64.5,39.4 C64.7,37.7 64.7,36.1 64.4,34.4 C64.4,33.7 63.8,33.1 63.1,33.2 C63.1,33.2 63.1,33.2 63.1,33.2 C62.4,33.2 61.8,33.1 61.1,33.1 C60.4,33.1 59.7,32.9 59.5,32.1 C59.2,30.8 58.8,29.6 58.2,28.3 C57.9,27.6 58.1,26.8 58.7,26.4 C59.3,25.9 59.8,25.5 60.3,25 C60.8,24.6 60.9,23.9 60.6,23.3 C59.8,21.8 58.8,20.5 57.6,19.3 C57.1,18.8 56.3,18.7 55.8,19.1 C55.2,19.5 54.8,19.8 54.2,20.2 C53.6,20.6 52.9,20.9 52.3,20.4 C51.2,19.6 49.8,18.6 49.1,18.1 C48.5,17.7 48.2,17 48.4,16.3 C48.6,15.5 48.7,15 48.9,14.2 C49.1,13.6 48.8,12.9 48.2,12.6 C46.7,11.9 45.1,11.4 43.4,11.1 C42.7,10.9 42,11.3 41.8,12 C41.8,12 41.8,12 41.8,12 C41.5,12.7 41.4,13.2 41.1,13.8 C40.8,14.4 40.5,15.1 39.7,15 C38.1,15 36.9,15 35.7,15 C35,15 34.4,14.6 34.1,14 C33.8,13.3 33.6,12.7 33.3,12 C33.1,11.4 32.4,11 31.8,11.2 C30.1,11.5 28.5,12.1 27,12.8 C26.3,13.1 26,13.8 26.3,14.5 C26.3,14.5 26.3,14.5 26.3,14.5 C26.5,15.2 26.6,15.7 26.8,16.4 C27,17.1 27.1,17.8 26.4,18.2 C25.7,18.6 24.1,19.8 23.2,20.6 C22.6,21.1 21.8,21.2 21.2,20.7 C20.5,20.3 20,20 19.4,19.6 C18.9,19.2 18.1,19.3 17.7,19.8 C16.6,21 15.6,22.4 14.8,23.9 C14.4,24.5 14.6,25.3 15.2,25.7 C15.2,25.7 15.2,25.7 15.2,25.7 C15.8,26.2 16.2,26.5 16.7,26.9 C17.2,27.3 17.7,27.9 17.4,28.6 C17.1,29.3 16.5,31.6 16.2,32.4 C16,33.1 15.4,33.6 14.7,33.7 C13.9,33.7 13.3,33.8 12.6,33.9 C11.9,33.9 11.4,34.4 11.3,35.1 C11.1,36.8 11.1,38.4 11.4,40.1 C11.4,40.8 12.1,41.3 12.8,41.3 C13.5,41.3 14.1,41.4 14.8,41.4 C15.5,41.4 16.2,41.6 16.4,42.4 C16.7,43.7 17.2,44.9 17.7,46.2 C18,46.9 17.8,47.7 17.2,48.1 C16.6,48.6 16.1,49 15.6,49.5 C15.1,49.9 14.9,50.6 15.3,51.2 C16.1,52.7 17.1,54 18.3,55.2 C18.8,55.7 19.6,55.8 20.1,55.4 C20.7,55 21.1,54.7 21.7,54.3 C22.3,53.9 23,53.6 23.6,54.1 C24.2,54.6 26.1,55.9 26.8,56.4 C27.4,56.8 27.7,57.5 27.5,58.2 C27.3,59 27.2,59.5 27,60.3 C26.8,60.9 27.1,61.6 27.7,61.9 C29.2,62.6 30.8,63.1 32.5,63.4 C33.2,63.6 33.9,63.2 34.1,62.5 C34.1,62.5 34.1,62.5 34.1,62.5 C34.4,61.8 34.5,61.3 34.8,60.7 C35.1,60.1 35.4,59.4 36.2,59.5 L36.8,59.5 L36.9,66.4 C37.2,68.7 35.7,70.8 33.4,71.2 C33.3,71.2 33.2,71.2 33,71.2 C30.2,71.4 27.5,70.8 25,69.6 C7.2,62.5 -1.4,42.3 5.7,24.6 C12.8,6.9 33,-1.8 50.7,5.3 C68.4,12.4 77.1,32.6 70,50.3 C69.9,50.5 69.8,50.7 69.7,50.9 C68.1,54.6 65.9,58 63.2,60.9 L63.2,60.9 C63.1,61 63,61.2 62.8,61.1 C61.7,60.6 60.5,60.4 59.3,60.7 C58.2,60.9 57.1,61.5 56.3,62.3 C56.1,62.5 53.8,65.3 53.8,65.3 C53.7,65.4 53.7,65.5 53.8,65.6 C53.8,65.6 53.8,65.6 53.8,65.6 L55.3,66.9 C55.4,67 55.4,67.1 55.3,67.2 C55.3,67.2 55.3,67.2 55.3,67.2 L53.3,69.7 C53.1,70 53.1,70.4 53.4,70.7 C53.6,71 54.1,71.1 54.4,70.8 C54.4,70.8 54.5,70.7 54.5,70.7 L56.6,68.1 C56.7,68 56.8,68 56.9,68.1 C56.9,68.1 56.9,68.1 56.9,68.1 C57.1,68.3 59.3,70.1 59.3,70.1 C59.3,70.1 59.4,70.2 59.3,70.3 L57.3,72.8 C57.1,73.2 57.1,73.6 57.4,73.9 C57.7,74.2 58.2,74.2 58.5,73.9 L60.6,71.2 C60.6,71.2 60.7,71 60.8,71.1 C60.9,71.2 62.3,72.3 62.3,72.3 C62.4,72.4 62.6,72.4 62.7,72.3 C62.7,72.3 62.7,72.3 62.7,72.3 C62.7,72.3 64.8,69.7 65.1,69.3 C65.7,68.4 66.1,67.3 66,66.2 C66,64.9 65.5,63.6 64.7,62.6 C64.7,62.6 64.6,62.5 64.8,62.3 L64.8,62.3 C71.3,55.9 74.8,46.9 74.8,37.5 L74.8,37.5 Z M21.5,37.6 C21.5,28.5 28.9,21.1 38,21.2 C47.1,21.2 54.5,28.6 54.4,37.7 C54.4,46.8 47,54.1 37.9,54.1 C28.9,54.1 21.5,46.7 21.5,37.6 C21.5,37.6 21.5,37.6 21.5,37.6 Z" id="Shape"></path>
                <path d="M25.8,32.9 C26.2,33.2 26.5,32.8 26.6,32.7 C26.7,32.6 26.7,32.3 26.6,32.1 C26.5,31.9 26.8,31.8 27,31.7 C27.2,31.6 27.8,31.2 28.1,31 C28.8,30.8 29.6,30.8 30.3,31 C30.8,31.3 31.4,31.1 31.8,30.7 C32.1,30.3 32.5,30.1 32.9,29.8 C33.1,29.7 32.4,29 31.8,29.8 C31.2,30.5 30.9,30.6 30.6,30.6 C30.3,30.6 28.6,30.2 28.4,29.6 C28.2,29 28.9,28.7 29.5,28.4 C30.4,28.2 31.3,28.1 32.3,28 C33.2,27.8 34.3,27.4 34.9,27.8 C35.5,28.2 32.5,28.8 33.5,29.4 C33.8,29.6 35.4,28.5 35.9,28.2 C37.1,27.6 34.7,27.3 35,26 C35.3,24.7 32.1,25 30.4,25.2 C29.6,25.7 28.8,26.3 28.1,27 C28.3,27 28.5,27.1 28.6,27.2 C28.6,27.5 28.6,27.8 28.4,28.1 C28,28.5 27.4,28.8 26.9,28.8 C26.8,28.8 26.7,28.7 26.6,28.7 C26.3,29 26.1,29.4 25.9,29.7 C26.2,29.5 26.6,29.4 27,29.3 C27.4,29.2 27.8,29.4 27.9,29.7 C28,30 27,30.4 26.8,30.5 C26.3,31 25.5,31.9 25.1,32 C25,32 24.9,32 24.8,32 C24.7,32.3 24.6,32.6 24.5,33 C24.7,32.8 25.3,32.7 25.8,32.9 Z" id="Path"></path>
                <path d="M42.5,50.3 C43,50 44,48.7 45.5,48.8 C46,48.8 46.4,48.9 46.8,49.1 C47.3,48.7 47.8,48.3 48.3,47.9 C48.1,47.9 48,47.8 47.8,47.7 C47,47.3 47.1,47.9 46.7,47.8 C46.3,47.7 47.2,46.8 46,47.5 C44.8,48.2 45.1,47.4 44.6,46.1 C44.3,44.9 44.9,43.5 46.1,43 C47,42.7 47.8,42.5 48.7,42.3 C50.5,41.9 50.8,40.8 51.1,41.5 L51.3,41.8 C51.4,42.1 51.5,42.4 51.5,42.7 C51.8,42 52,41.3 52.1,40.5 C51.7,40.3 50.1,38.1 51.4,36.7 C51.6,36.5 51,35.7 51.2,35.7 C51.8,35.7 52.3,36 52.4,36.6 C52.4,35.8 52.2,35.1 52.1,34.4 C52.1,34.6 52.1,34.7 52,34.9 C51.8,35.4 51.3,35.6 50.8,35.4 C50.6,35.3 50.4,35.2 50.3,35 C50.1,34.8 49.5,34.2 49.5,35.2 C49.5,36.2 50.5,36.3 49.5,36.9 C49,37.2 48.5,37.4 48,37.5 C47.5,37.9 47.2,38.6 47.2,39.2 C47.3,39.8 48.6,41.3 47.7,41.2 C46.8,40.8 46,40.1 45.5,39.2 C45.2,38.4 44.9,37.6 44.6,37 C44.4,36.5 44,36.3 43.5,36.5 C43.4,36.5 43.3,36.6 43.2,36.6 C42.7,36.9 43.4,37.3 43,38.1 C42.6,38.9 42.4,39.5 41.8,38.9 C40.4,37.3 38.3,38.1 38,36.3 C37.8,35.3 37,35.4 36.3,34.9 C35.6,34.4 35.2,34.1 35.1,34.5 C35,34.9 37.3,36.7 37.5,37.2 C37.7,37.9 36.8,38.5 36.1,38.7 C35.4,38.9 35.1,38.3 34.4,37.6 C33.7,36.9 33.4,36.4 33.4,36.9 C33.5,37.9 33.9,38.8 34.7,39.3 C35.3,39.7 35.9,39.8 35.7,40.5 C35.5,41.2 35.7,40.8 35,41.4 C34.4,41.8 34.2,42.5 34.3,43.2 C34.3,44.1 34.1,44.2 34,44.9 C33.9,45.6 33.5,45 33.2,46.1 C33.1,46.8 32.8,47.4 32.3,47.9 C31.7,48.4 31,48.7 30.3,48.7 C29.6,48.7 29.5,46.9 29.6,46 C29.6,45.7 29.1,46.6 28.9,44.7 C28.8,43.5 28,44.8 27.9,44 C27.8,43.2 27.5,43.3 27.1,42.8 C26.7,42.3 26.2,42.8 25.6,43.1 C25,43.4 25.3,43.5 24.5,43.2 L24.5,43.2 C26.2,47.2 29.6,50.3 33.8,51.5 C33.6,51.3 33.5,51 33.6,50.8 C34.2,49.8 35.3,49.1 36.5,49.1 C38.9,48.8 42,50.6 42.5,50.3 Z M49.9,41.1 C49.5,41.3 48.9,41.3 48.5,41 C48.1,40.7 48.7,40.2 49,40.2 C49.5,40.2 50.2,40.8 49.9,41.1 Z M48,39.2 C47.9,38.8 48.2,38.6 48.5,38.8 C48.8,39 49.1,39.3 49.2,39.6 C49.2,39.8 48.6,39.8 48.5,39.7 C48.4,39.6 48.1,39.5 48,39.2 Z M36,42.6 C35.8,42.9 35.2,45.4 34.9,45.1 C34.6,44.8 35.1,42.3 35.2,42.1 C35.8,41 37,41 36,42.6 Z M42,39.7 C41.5,39.9 41,39.9 40.6,39.6 C40.2,39.3 40.8,38.8 41.1,38.8 C41.5,38.8 42.3,39.5 42,39.7 Z" id="Shape"></path>
                <path d="M25.3,34.5 C26.1,34.6 26.9,34.8 27.7,35.1 C28.5,35.4 29.9,36.1 30.6,35.8 C31.2,35.6 31.6,35.3 31.6,34.8 C31.6,34.3 31.1,34.1 30.5,34.5 C30.3,34.7 29.9,33.6 29.5,33.7 C29.1,33.8 29.9,34.9 29.6,35 C29.3,35.1 28.7,33.8 28.6,33.6 C28.5,33.4 28.1,32.9 27.6,33.3 C26.7,34.1 25.4,34.1 25.1,34.3 C25,34.4 24.9,34.4 24.8,34.5 C24.2,34.7 24,34.2 24,33.7 C23.8,34.5 23.6,35.3 23.5,36.1 L23.6,36 C24.1,35.1 24.2,35 24.3,34.9 C24.4,34.8 24.8,34.7 24.8,34.7 L25.3,34.5 Z" id="Path"></path>
            </g>
        </g>
    </g>
</svg>