<?xml version="1.0" encoding="UTF-8"?>
<svg width="95px" height="95px" viewBox="0 0 95 95" version="1.1" xmlns="http://www.w3.org/2000/svg" xmlns:xlink="http://www.w3.org/1999/xlink">
    <!-- Generator: Sketch 53.2 (72643) - https://sketchapp.com -->
    <title>goal_8_target_8_9</title>
    <desc>Created with Sketch.</desc>
    <g id="goal_8_target_8_9" stroke="none" stroke-width="1" fill="none" fill-rule="evenodd">
        <g id="Group-61" fill-rule="nonzero">
            <rect id="Rectangle" fill="#A21942" x="-3.62376795e-13" y="-2.13162821e-14" width="94.8" height="94.8"></rect>
            <g id="Group" transform="translate(5.700000, 8.000000)" fill="#FFFFFF">
                <g transform="translate(24.000000, 48.000000)" id="Path">
                    <path d="M8.2,5.8 C9.6,5.8 10.7,4.7 10.7,3.3 C10.7,1.9 9.6,0.8 8.2,0.8 C6.8,0.8 5.7,1.9 5.7,3.3 C5.7,3.3 5.7,3.3 5.7,3.3 C5.7,4.7 6.8,5.8 8.2,5.8 C8.2,5.8 8.2,5.8 8.2,5.8 Z"></path>
                    <path d="M15.3,15.7 L13.2,9 C13.2,9 12.5,7 10.8,7 L5.5,7 C3.9,7 3.1,9 3.1,9 L1,15.7 C1,15.7 0.6,16.9 1.7,17.3 C2.8,17.7 3.1,16.4 3.1,16.4 L4.8,10.8 C4.8,10.8 4.9,10.4 5.2,10.5 C5.5,10.6 5.4,11.1 5.4,11.1 L2.5,21.7 L5.2,21.7 L5.2,29.2 C5.2,29.9 5.8,30.5 6.5,30.5 C7.2,30.5 7.8,29.9 7.8,29.2 C7.8,29.2 7.8,29.2 7.8,29.2 L7.8,21.6 L8.5,21.6 L8.5,29.2 C8.4,29.9 9,30.5 9.7,30.6 C10.4,30.7 11,30.1 11.1,29.4 C11.1,29.3 11.1,29.2 11.1,29.2 L11.1,21.6 L13.8,21.6 L11,10.9 C11,10.9 10.9,10.4 11.2,10.3 C11.5,10.2 11.6,10.6 11.6,10.6 L13.3,16.2 C13.3,16.2 13.6,17.4 14.7,17.1 C15.8,16.8 15.3,15.7 15.3,15.7 Z"></path>
                </g>
                <g transform="translate(58.000000, 60.000000)" id="Path">
                    <path d="M9.3,3.8 C8.9,3.6 8.5,3.8 8.3,4.1 C7.9,4.8 7.5,5.5 7,6.1 C6.8,6.3 6.6,6.4 6.4,6.4 L3.8,6.4 C3.5,6.4 3.3,6.3 3.1,6.1 C2.8,5.8 1.8,4 1.8,4 C1.7,3.8 1.4,3.6 1.1,3.7 C0.7,3.7 0.3,4 0.3,4.5 C0.3,4.5 0.3,4.5 0.3,4.5 C0.3,4.6 0.3,4.7 0.4,4.8 L2.5,8.6 C2.6,8.8 2.6,8.9 2.6,9.1 L2.6,9.7 L2.6,9.7 C2.6,9.9 2.6,10.1 2.5,10.3 L1.5,14.3 L2.6,14.3 L2.6,17.3 L2.6,17.3 C2.6,17.9 3,18.3 3.6,18.3 C4.2,18.3 4.6,17.9 4.6,17.3 L4.6,14.3 L5.2,14.3 C5.2,14.3 5.2,14.4 5.2,14.4 L5.2,17.2 C5.2,17.8 5.7,18.2 6.2,18.2 C6.7,18.2 7.2,17.7 7.2,17.2 L7.2,14.2 L8.3,14.2 L7.3,10.2 C7.3,10 7.2,9.8 7.2,9.7 L7.2,9.5 L7.2,9.5 L7.2,9 C7.2,8.8 7.3,8.7 7.3,8.5 L9.3,5 C9.3,5 9.4,4.8 9.5,4.6 C9.8,4.3 9.6,4 9.3,3.8 Z"></path>
                    <path d="M5,5.2 C6.2,5.2 7.1,4.4 7.2,3.2 C7.3,2 6.4,1.1 5.2,1 C4,0.9 3.1,1.8 3,3 C3,3 3,3.1 3,3.1 C3,4.2 3.9,5.1 5,5.2 Z"></path>
                </g>
                <g transform="translate(0.000000, 40.000000)">
                    <path d="M8.2,8.8 C6.8,8.8 5.7,9.9 5.7,11.3 C5.7,12.7 6.8,13.8 8.2,13.8 C9.6,13.8 10.7,12.7 10.7,11.3 C10.7,11.3 10.7,11.3 10.7,11.3 C10.7,9.9 9.5,8.8 8.2,8.8 Z" id="Path"></path>
                    <path d="M5.7,3.1 C5.6,3.5 5.5,3.9 5.5,4.3 C5.5,6.2 6.1,7.7 7.9,7.8 C9.7,7.9 10.4,6.3 10.4,4.4 C10.4,4 10.3,3.6 10.2,3.2 C10.7,3 11,2.7 10.9,2.4 C10.8,2.1 10.3,1.8 9.7,2 C9.6,2 9.6,2 9.5,2.1 C9,2.3 8.4,2.4 7.9,2.3 C7.4,2.3 6.9,2.2 6.4,2.1 L6.4,2.1 C5.8,1.9 5.3,2.1 5.2,2.5 C5.2,2.7 5.2,2.9 5.4,3.1 C5.5,3 5.6,3.1 5.7,3.1 Z M9.9,2.1 C10,2.1 10.1,2.1 10.2,2.1 C10.5,2.1 10.7,2.2 10.8,2.4 C10.9,2.6 10.6,2.8 10.3,3 C10.1,2.7 10,2.4 9.9,2.1 L9.9,2.1 Z M6,2.1 L6.2,2.1 C6,2.3 5.9,2.6 5.8,2.9 C5.7,2.9 5.6,2.8 5.6,2.7 C5.5,2.6 5.5,2.5 5.5,2.4 C5.5,2.2 5.7,2.1 6,2.1 L6,2.1 Z" id="Shape"></path>
                    <path d="M6.7,1.5 C7.1,1.6 7.6,1.7 8,1.7 C8.4,1.7 8.9,1.7 9.3,1.6 C9.4,1.6 9.5,1.5 9.5,1.4 C9.5,1.3 8.8,1.1 8,1.1 C7.2,1.1 6.5,1.2 6.5,1.4 C6.5,1.6 6.6,1.5 6.7,1.5 Z" id="Path"></path>
                    <path d="M10.9,18.4 C10.9,18.3 11,18.2 11.1,18.2 C13.3,17.7 13.9,16.9 14.2,15.3 L15.3,8.2 C15.3,7.6 14.9,7.2 14.3,7.2 C13.8,7.2 13.3,7.7 13.3,8.2 L12.2,14.3 C12,14.7 11.9,14.8 11.5,14.8 L5.5,14.8 C3.9,14.8 3.1,16.8 3.1,16.8 L1,23.6 C1,23.6 0.6,24.8 1.7,25.2 C2.8,25.6 3.1,24.3 3.1,24.3 L4.8,18.6 C4.8,18.6 4.9,18.2 5.2,18.3 C5.5,18.4 5.4,18.9 5.4,18.9 L2.5,29.5 L5.2,29.5 L5.2,37.1 C5.2,37.8 5.8,38.4 6.5,38.4 C7.2,38.4 7.8,37.8 7.8,37.1 L7.8,29.5 L8.5,29.5 L8.5,37.1 C8.6,37.8 9.2,38.4 9.9,38.3 C10.5,38.2 11,37.7 11.1,37.1 L11.1,29.5 L13.8,29.5 L11,19.1 C10.9,18.9 10.9,18.7 10.9,18.4 C10.9,18.5 10.9,18.5 10.9,18.4 L10.9,18.4 Z" id="Path"></path>
                </g>
                <g transform="translate(40.000000, 47.000000)" id="Path">
                    <path d="M14.1,6.7 L13.9,6.7 L8.1,6.7 L8,6.7 C6.2,6.9 4.8,8.4 4.8,10.2 L4.8,10.7 C4.8,10.8 4.8,10.8 4.7,10.7 L4.7,10.7 L3.4,9.4 L3.4,3.4 C3.4,3.2 3.3,3 3.1,3 C2.9,3 2.7,3.1 2.7,3.3 C2.7,3.3 2.7,3.4 2.7,3.4 L2.7,8.9 C2.4,8.8 2.1,8.9 1.8,9 L1.5,9.3 C1.2,9.7 1.3,10.2 1.6,10.6 L2.6,11.6 L2.6,25.6 L1.7,25.6 C1.4,25.6 1.1,25.7 0.9,25.9 C0.7,26.1 0.6,26.4 0.6,26.7 L0.6,31.4 L1.2,31.4 L1.2,26.7 C1.2,26.6 1.2,26.5 1.3,26.4 C1.4,26.3 1.5,26.3 1.7,26.3 L2,26.3 L2,31.5 L2.6,31.5 L2.6,26.3 L3.4,26.3 L3.4,31.5 L4,31.5 L4,26.3 L4.3,26.3 C4.4,26.3 4.5,26.3 4.6,26.4 C4.7,26.5 4.7,26.6 4.7,26.7 L4.7,31.5 L5.3,31.5 L5.3,26.7 C5.3,26.4 5.2,26.2 5,26 C4.8,25.8 4.5,25.7 4.2,25.7 L3.3,25.7 L3.3,12.3 L5,14 L5,14 L5,14 L5,14 C5.2,14.2 5.4,14.3 5.7,14.3 C6.3,14.3 6.7,13.9 6.7,13.3 L6.7,11.3 C6.7,11.1 6.8,10.7 7.2,10.7 C7.6,10.7 7.6,11 7.6,11.2 L7.6,14.4 L7.6,14.4 L7.6,29.9 C7.6,30.7 8.3,31.4 9.1,31.4 C9.9,31.4 10.6,30.7 10.6,29.9 C10.6,29.9 10.6,29.9 10.6,29.9 L10.6,19 C10.6,18.8 10.7,18.6 10.9,18.6 C10.9,18.6 10.9,18.6 11,18.6 L11,18.6 C11.2,18.6 11.4,18.8 11.4,19 C11.4,19 11.4,19 11.4,19.1 L11.4,30 C11.4,30.8 12.1,31.5 12.9,31.5 C13.7,31.5 14.4,30.8 14.4,30 L14.4,14.6 L14.4,14.6 L14.4,11.2 C14.4,11 14.5,10.7 14.8,10.7 C15.2,10.7 15.3,11 15.3,11.3 L15.3,14.5 L15.3,14.5 L15.3,17.4 C15.3,18 15.7,18.4 16.3,18.4 C16.9,18.4 17.3,18 17.3,17.4 L17.3,10.2 C17.2,8.4 15.9,6.9 14.1,6.7 Z"></path>
                    <path d="M11,5.7 C12.5,5.7 13.7,4.5 13.7,2.9 C13.7,1.3 12.5,0.2 10.9,0.2 C9.3,0.2 8.2,1.4 8.2,3 C8.2,3 8.2,3 8.2,3 C8.3,4.5 9.5,5.7 11,5.7 Z"></path>
                </g>
                <g transform="translate(14.000000, 64.000000)">
                    <rect id="Rectangle" x="0.1" y="8.4" width="11.4" height="5.9"></rect>
                    <path d="M9.1,1.7 L7.8,1.7 C7.8,0.8 7,0 6.1,0 C5.2,0 4.4,0.8 4.4,1.7 C4.4,1.7 4.4,1.7 4.4,1.7 L3.1,1.7 L3.1,7.7 L9,7.7 L9,1.7 L9.1,1.7 Z M4.9,1.7 C4.9,1 5.5,0.4 6.2,0.4 C6.9,0.4 7.5,1 7.5,1.7 L4.9,1.7 Z" id="Shape"></path>
                </g>
                <g transform="translate(68.000000, 47.000000)">
                    <path d="M7,5.5 C8.5,5.5 9.6,4.3 9.6,2.9 C9.6,1.5 8.4,0.3 7,0.3 C5.6,0.3 4.4,1.5 4.4,2.9 L4.4,2.9 C4.4,4.4 5.5,5.5 7,5.5 Z" id="Path"></path>
                    <path d="M14.1,19.3 C14.1,19.3 14.1,19.2 14.1,19.2 C14.1,18.6 13.6,18.1 13,18 C13.2,17.8 13.3,17.6 13.3,17.3 L13.3,10 C13.3,8.2 11.9,6.7 10.1,6.5 L9.9,6.5 L4.1,6.5 L3.9,6.5 C2.1,6.7 0.7,8.2 0.7,10 L0.7,17.3 C0.7,17.9 1.1,18.3 1.7,18.3 C2.3,18.3 2.7,17.9 2.7,17.3 L2.7,11 C2.7,10.8 2.8,10.4 3.2,10.4 C3.6,10.4 3.6,10.7 3.6,10.9 L3.6,29.7 C3.6,30.5 4.3,31.2 5.1,31.2 C5.9,31.2 6.6,30.5 6.6,29.7 L6.6,19 C6.6,18.8 6.8,18.6 7,18.6 C7,18.6 7,18.6 7,18.6 L7,18.6 C7.2,18.6 7.4,18.8 7.4,19 C7.4,19 7.4,19 7.4,19.1 L7.4,29.9 C7.4,30.7 8.1,31.4 8.9,31.4 C9.7,31.4 10.4,30.7 10.4,29.9 L10.4,11 C10.4,10.8 10.5,10.5 10.8,10.5 C11.1,10.5 11.3,10.8 11.3,11.1 L11.3,17.4 C11.3,17.9 11.7,18.4 12.2,18.4 C12,18.6 11.8,18.9 11.8,19.3 C11.8,19.3 11.8,19.4 11.8,19.4 L11.2,19.4 L11.2,27 L14.7,27 L14.7,19.3 L14.1,19.3 L14.1,19.3 Z M13.8,19.3 L12.1,19.3 C12.1,19.3 12.1,19.2 12.1,19.2 C12,18.7 12.4,18.3 12.9,18.2 C13.4,18.1 13.8,18.5 13.9,19 C13.9,19.1 13.9,19.1 13.9,19.2 C13.9,19.3 13.8,19.3 13.8,19.3 Z" id="Shape"></path>
                </g>
                <path d="M41.8,36 C51.6,36 59.6,28 59.5,18.2 C59.4,8.4 51.5,0.4 41.7,0.5 C31.9,0.5 24,8.5 23.9,18.3 C24,28.1 32,36 41.8,36 Z M50.9,31.6 L50.7,31.7 L50.1,32 C46.3,34.3 41.6,34.9 37.3,33.6 C37.1,33.4 37,33.1 37.1,32.8 C37.7,31.6 38.9,30.9 40.3,30.9 C42.9,30.7 46.4,32.6 46.9,32.3 C47.4,32 48.6,30.5 50.2,30.6 C50.7,30.6 51.2,30.7 51.6,31 L50.9,31.6 Z M38.8,23.3 C39.4,22.1 40.8,22.2 39.8,23.9 C39.6,24.3 39,27 38.6,26.7 C38.2,26.4 38.7,23.5 38.8,23.3 Z M45.3,19.7 C45.8,19.7 46.7,20.4 46.3,20.7 C45.8,21 45.2,20.9 44.8,20.6 C44.4,20.2 45,19.7 45.3,19.7 Z M53.3,29.7 C53.1,29.6 53,29.6 52.8,29.5 C51.9,29 52,29.8 51.6,29.6 C51.2,29.4 52.1,28.4 50.8,29.3 C49.5,30.2 49.8,29.2 49.3,27.7 C48.9,26.3 49.6,24.8 51,24.3 C52,24 52.9,23.7 53.9,23.5 C55.8,23 56.2,21.9 56.6,22.6 C56.7,22.7 56.7,22.9 56.8,23 C56.9,23.3 57,23.5 57,23.8 C56.2,26 54.9,28 53.3,29.7 L53.3,29.7 Z M53.4,20.7 C53.2,20.6 53.1,20.5 52.9,20.1 C52.8,19.9 52.9,19.7 53,19.6 C53.1,19.5 53.3,19.5 53.4,19.6 C53.8,19.8 54,20.1 54.2,20.5 C54.2,20.8 53.6,20.7 53.4,20.7 L53.4,20.7 Z M55.2,22.2 C54.7,22.4 54.1,22.4 53.7,22 C53.3,21.7 54,21.2 54.2,21.1 C54.7,21.1 55.5,21.9 55.2,22.2 L55.2,22.2 Z M57.9,17 C57.9,17.4 58,17.9 58,18.3 C58,19.4 57.9,20.4 57.7,21.5 C57.2,21.1 55.6,18.8 57,17.3 C57.2,17 56.5,16.2 56.7,16.2 C57.2,16.2 57.7,16.5 57.9,17 Z M30.6,6.6 L30.6,6.6 C30.9,6.6 31.3,6.7 31.3,6.9 C31.3,7.2 31.2,7.6 31.1,7.9 C30.6,8.4 30,8.6 29.4,8.7 C29.2,8.7 29.1,8.6 29,8.5 C29.5,7.8 30.1,7.2 30.6,6.6 Z M28.1,9.8 L28.1,9.8 C28.5,9.4 29,9.3 29.5,9.2 C29.9,9.1 30.4,9.3 30.5,9.6 C30.6,9.9 29.5,10.4 29.3,10.5 C28.8,11 27.9,12.1 27.4,12.2 C27.3,12.2 27.1,12.2 27,12.2 C27.3,11.4 27.7,10.6 28.1,9.8 Z M27.1,24.5 L27.1,24.5 C26.2,22.5 25.8,20.4 25.8,18.2 C25.8,17.7 25.8,15.7 26.7,15.1 C27,14.9 27.4,14.8 27.8,14.9 C28.7,15 29.6,15.3 30.4,15.6 C31.3,15.9 32.8,16.8 33.7,16.4 C34.3,16.2 34.8,15.8 34.7,15.3 C34.6,14.8 34.1,14.5 33.5,14.9 C33.3,15.1 32.8,13.9 32.4,14 C32,14.1 32.9,15.3 32.5,15.4 C32.1,15.5 31.5,14.1 31.4,13.8 C31.3,13.5 30.8,13 30.3,13.5 C29.3,14.4 28,14 27.4,14.3 C26.3,14.7 26.3,14.4 26.3,13.9 C26.3,13.7 26.3,13.6 26.4,13.5 C26.9,13.2 27.6,13.1 28.2,13.3 C28.6,13.6 28.9,13.2 29.1,13.1 C29.3,13 29.2,12.7 29.1,12.4 C29,12.1 29.3,12 29.5,12 C29.7,12 30.4,11.4 30.7,11.3 C31.5,11 32.3,11 33.1,11.3 C33.6,11.6 34.3,11.5 34.7,11 C35,10.6 35.4,10.3 35.9,10 C36.1,9.9 35.3,9.1 34.7,10 C34.1,10.9 33.7,10.9 33.4,10.9 C33.1,10.9 31.2,10.4 31,9.9 C30.8,9.4 31.6,8.9 32.3,8.5 C33.3,8.3 34.3,8.1 35.3,8.1 C36.3,7.9 37.5,7.4 38.1,7.8 C38.7,8.2 35.5,9 36.6,9.5 C37,9.7 38.7,8.5 39.3,8.2 C40.7,7.5 38,7.2 38.3,5.8 C38.7,4.1 35,4.8 33.1,4.9 C34.9,3.8 36.9,3 38.9,2.6 L39.7,2.5 L40.1,2.5 C40.6,2.5 41.1,2.4 41.6,2.4 C49.2,2.4 55.8,7.6 57.4,15.1 C57.4,15.2 57.4,15.3 57.4,15.4 C57.2,15.9 56.6,16.2 56,16 C55.8,15.9 55.6,15.8 55.5,15.5 C55.3,15.3 54.7,14.6 54.7,15.7 C54.7,16.8 55.8,16.9 54.8,17.6 C54.3,18 53.7,18.2 53.1,18.3 C52.5,18.8 52.2,19.5 52.3,20.2 C52.4,20.8 53.9,22.5 52.8,22.4 C51.8,21.9 50.9,21.2 50.3,20.2 C50,19.3 49.6,18.4 49.3,17.8 C49.1,17.3 48.5,17 48,17.2 C47.9,17.2 47.8,17.3 47.8,17.3 C47.2,17.7 48,18.1 47.6,18.9 C47.2,19.7 46.9,20.5 46.3,19.8 C44.7,18 42.4,18.9 42.1,16.9 C41.9,15.8 41,15.9 40.2,15.3 C39.4,14.7 39,14.3 38.8,14.8 C38.6,15.3 41.3,17.2 41.4,17.8 C41.7,18.6 40.6,19.3 39.9,19.5 C39.2,19.7 38.8,19 38,18.2 C37.2,17.4 36.9,16.9 36.9,17.5 C37,18.6 37.5,19.6 38.4,20.2 C39.1,20.6 39.8,20.8 39.6,21.5 C39.4,22.2 39.6,21.8 38.9,22.5 C38.3,22.9 37.9,23.7 38.1,24.5 C38.1,25.5 37.9,25.6 37.7,26.4 C37.5,27.2 37.2,26.5 36.9,27.7 C36.7,28.5 36.4,29.2 35.9,29.8 C35.3,30.3 34.5,30.6 33.7,30.6 C33,30.5 32.9,28.6 32.9,27.6 C32.9,27.3 32.4,28.3 32.1,26.2 C31.9,24.9 31.1,26.3 31,25.4 C30.9,24.5 30.5,24.7 30.1,24.1 C29.7,23.5 29.1,24.2 28.5,24.4 C27.9,24.6 28,24.8 27.1,24.5 L27.1,24.5 Z" id="Shape"></path>
            </g>
        </g>
        <g id="Group-61" fill-rule="nonzero">
            <rect id="Rectangle" fill="#A21942" x="-3.62376795e-13" y="-2.13162821e-14" width="94.8" height="94.8"></rect>
            <g id="Group" transform="translate(5.700000, 8.000000)" fill="#FFFFFF">
                <g transform="translate(24.000000, 48.000000)" id="Path">
                    <path d="M8.2,5.8 C9.6,5.8 10.7,4.7 10.7,3.3 C10.7,1.9 9.6,0.8 8.2,0.8 C6.8,0.8 5.7,1.9 5.7,3.3 C5.7,3.3 5.7,3.3 5.7,3.3 C5.7,4.7 6.8,5.8 8.2,5.8 C8.2,5.8 8.2,5.8 8.2,5.8 Z"></path>
                    <path d="M15.3,15.7 L13.2,9 C13.2,9 12.5,7 10.8,7 L5.5,7 C3.9,7 3.1,9 3.1,9 L1,15.7 C1,15.7 0.6,16.9 1.7,17.3 C2.8,17.7 3.1,16.4 3.1,16.4 L4.8,10.8 C4.8,10.8 4.9,10.4 5.2,10.5 C5.5,10.6 5.4,11.1 5.4,11.1 L2.5,21.7 L5.2,21.7 L5.2,29.2 C5.2,29.9 5.8,30.5 6.5,30.5 C7.2,30.5 7.8,29.9 7.8,29.2 C7.8,29.2 7.8,29.2 7.8,29.2 L7.8,21.6 L8.5,21.6 L8.5,29.2 C8.4,29.9 9,30.5 9.7,30.6 C10.4,30.7 11,30.1 11.1,29.4 C11.1,29.3 11.1,29.2 11.1,29.2 L11.1,21.6 L13.8,21.6 L11,10.9 C11,10.9 10.9,10.4 11.2,10.3 C11.5,10.2 11.6,10.6 11.6,10.6 L13.3,16.2 C13.3,16.2 13.6,17.4 14.7,17.1 C15.8,16.8 15.3,15.7 15.3,15.7 Z"></path>
                </g>
                <g transform="translate(58.000000, 60.000000)" id="Path">
                    <path d="M9.3,3.8 C8.9,3.6 8.5,3.8 8.3,4.1 C7.9,4.8 7.5,5.5 7,6.1 C6.8,6.3 6.6,6.4 6.4,6.4 L3.8,6.4 C3.5,6.4 3.3,6.3 3.1,6.1 C2.8,5.8 1.8,4 1.8,4 C1.7,3.8 1.4,3.6 1.1,3.7 C0.7,3.7 0.3,4 0.3,4.5 C0.3,4.5 0.3,4.5 0.3,4.5 C0.3,4.6 0.3,4.7 0.4,4.8 L2.5,8.6 C2.6,8.8 2.6,8.9 2.6,9.1 L2.6,9.7 L2.6,9.7 C2.6,9.9 2.6,10.1 2.5,10.3 L1.5,14.3 L2.6,14.3 L2.6,17.3 L2.6,17.3 C2.6,17.9 3,18.3 3.6,18.3 C4.2,18.3 4.6,17.9 4.6,17.3 L4.6,14.3 L5.2,14.3 C5.2,14.3 5.2,14.4 5.2,14.4 L5.2,17.2 C5.2,17.8 5.7,18.2 6.2,18.2 C6.7,18.2 7.2,17.7 7.2,17.2 L7.2,14.2 L8.3,14.2 L7.3,10.2 C7.3,10 7.2,9.8 7.2,9.7 L7.2,9.5 L7.2,9.5 L7.2,9 C7.2,8.8 7.3,8.7 7.3,8.5 L9.3,5 C9.3,5 9.4,4.8 9.5,4.6 C9.8,4.3 9.6,4 9.3,3.8 Z"></path>
                    <path d="M5,5.2 C6.2,5.2 7.1,4.4 7.2,3.2 C7.3,2 6.4,1.1 5.2,1 C4,0.9 3.1,1.8 3,3 C3,3 3,3.1 3,3.1 C3,4.2 3.9,5.1 5,5.2 Z"></path>
                </g>
                <g transform="translate(0.000000, 40.000000)">
                    <path d="M8.2,8.8 C6.8,8.8 5.7,9.9 5.7,11.3 C5.7,12.7 6.8,13.8 8.2,13.8 C9.6,13.8 10.7,12.7 10.7,11.3 C10.7,11.3 10.7,11.3 10.7,11.3 C10.7,9.9 9.5,8.8 8.2,8.8 Z" id="Path"></path>
                    <path d="M5.7,3.1 C5.6,3.5 5.5,3.9 5.5,4.3 C5.5,6.2 6.1,7.7 7.9,7.8 C9.7,7.9 10.4,6.3 10.4,4.4 C10.4,4 10.3,3.6 10.2,3.2 C10.7,3 11,2.7 10.9,2.4 C10.8,2.1 10.3,1.8 9.7,2 C9.6,2 9.6,2 9.5,2.1 C9,2.3 8.4,2.4 7.9,2.3 C7.4,2.3 6.9,2.2 6.4,2.1 L6.4,2.1 C5.8,1.9 5.3,2.1 5.2,2.5 C5.2,2.7 5.2,2.9 5.4,3.1 C5.5,3 5.6,3.1 5.7,3.1 Z M9.9,2.1 C10,2.1 10.1,2.1 10.2,2.1 C10.5,2.1 10.7,2.2 10.8,2.4 C10.9,2.6 10.6,2.8 10.3,3 C10.1,2.7 10,2.4 9.9,2.1 L9.9,2.1 Z M6,2.1 L6.2,2.1 C6,2.3 5.9,2.6 5.8,2.9 C5.7,2.9 5.6,2.8 5.6,2.7 C5.5,2.6 5.5,2.5 5.5,2.4 C5.5,2.2 5.7,2.1 6,2.1 L6,2.1 Z" id="Shape"></path>
                    <path d="M6.7,1.5 C7.1,1.6 7.6,1.7 8,1.7 C8.4,1.7 8.9,1.7 9.3,1.6 C9.4,1.6 9.5,1.5 9.5,1.4 C9.5,1.3 8.8,1.1 8,1.1 C7.2,1.1 6.5,1.2 6.5,1.4 C6.5,1.6 6.6,1.5 6.7,1.5 Z" id="Path"></path>
                    <path d="M10.9,18.4 C10.9,18.3 11,18.2 11.1,18.2 C13.3,17.7 13.9,16.9 14.2,15.3 L15.3,8.2 C15.3,7.6 14.9,7.2 14.3,7.2 C13.8,7.2 13.3,7.7 13.3,8.2 L12.2,14.3 C12,14.7 11.9,14.8 11.5,14.8 L5.5,14.8 C3.9,14.8 3.1,16.8 3.1,16.8 L1,23.6 C1,23.6 0.6,24.8 1.7,25.2 C2.8,25.6 3.1,24.3 3.1,24.3 L4.8,18.6 C4.8,18.6 4.9,18.2 5.2,18.3 C5.5,18.4 5.4,18.9 5.4,18.9 L2.5,29.5 L5.2,29.5 L5.2,37.1 C5.2,37.8 5.8,38.4 6.5,38.4 C7.2,38.4 7.8,37.8 7.8,37.1 L7.8,29.5 L8.5,29.5 L8.5,37.1 C8.6,37.8 9.2,38.4 9.9,38.3 C10.5,38.2 11,37.7 11.1,37.1 L11.1,29.5 L13.8,29.5 L11,19.1 C10.9,18.9 10.9,18.7 10.9,18.4 C10.9,18.5 10.9,18.5 10.9,18.4 L10.9,18.4 Z" id="Path"></path>
                </g>
                <g transform="translate(40.000000, 47.000000)" id="Path">
                    <path d="M14.1,6.7 L13.9,6.7 L8.1,6.7 L8,6.7 C6.2,6.9 4.8,8.4 4.8,10.2 L4.8,10.7 C4.8,10.8 4.8,10.8 4.7,10.7 L4.7,10.7 L3.4,9.4 L3.4,3.4 C3.4,3.2 3.3,3 3.1,3 C2.9,3 2.7,3.1 2.7,3.3 C2.7,3.3 2.7,3.4 2.7,3.4 L2.7,8.9 C2.4,8.8 2.1,8.9 1.8,9 L1.5,9.3 C1.2,9.7 1.3,10.2 1.6,10.6 L2.6,11.6 L2.6,25.6 L1.7,25.6 C1.4,25.6 1.1,25.7 0.9,25.9 C0.7,26.1 0.6,26.4 0.6,26.7 L0.6,31.4 L1.2,31.4 L1.2,26.7 C1.2,26.6 1.2,26.5 1.3,26.4 C1.4,26.3 1.5,26.3 1.7,26.3 L2,26.3 L2,31.5 L2.6,31.5 L2.6,26.3 L3.4,26.3 L3.4,31.5 L4,31.5 L4,26.3 L4.3,26.3 C4.4,26.3 4.5,26.3 4.6,26.4 C4.7,26.5 4.7,26.6 4.7,26.7 L4.7,31.5 L5.3,31.5 L5.3,26.7 C5.3,26.4 5.2,26.2 5,26 C4.8,25.8 4.5,25.7 4.2,25.7 L3.3,25.7 L3.3,12.3 L5,14 L5,14 L5,14 L5,14 C5.2,14.2 5.4,14.3 5.7,14.3 C6.3,14.3 6.7,13.9 6.7,13.3 L6.7,11.3 C6.7,11.1 6.8,10.7 7.2,10.7 C7.6,10.7 7.6,11 7.6,11.2 L7.6,14.4 L7.6,14.4 L7.6,29.9 C7.6,30.7 8.3,31.4 9.1,31.4 C9.9,31.4 10.6,30.7 10.6,29.9 C10.6,29.9 10.6,29.9 10.6,29.9 L10.6,19 C10.6,18.8 10.7,18.6 10.9,18.6 C10.9,18.6 10.9,18.6 11,18.6 L11,18.6 C11.2,18.6 11.4,18.8 11.4,19 C11.4,19 11.4,19 11.4,19.1 L11.4,30 C11.4,30.8 12.1,31.5 12.9,31.5 C13.7,31.5 14.4,30.8 14.4,30 L14.4,14.6 L14.4,14.6 L14.4,11.2 C14.4,11 14.5,10.7 14.8,10.7 C15.2,10.7 15.3,11 15.3,11.3 L15.3,14.5 L15.3,14.5 L15.3,17.4 C15.3,18 15.7,18.4 16.3,18.4 C16.9,18.4 17.3,18 17.3,17.4 L17.3,10.2 C17.2,8.4 15.9,6.9 14.1,6.7 Z"></path>
                    <path d="M11,5.7 C12.5,5.7 13.7,4.5 13.7,2.9 C13.7,1.3 12.5,0.2 10.9,0.2 C9.3,0.2 8.2,1.4 8.2,3 C8.2,3 8.2,3 8.2,3 C8.3,4.5 9.5,5.7 11,5.7 Z"></path>
                </g>
                <g transform="translate(14.000000, 64.000000)">
                    <rect id="Rectangle" x="0.1" y="8.4" width="11.4" height="5.9"></rect>
                    <path d="M9.1,1.7 L7.8,1.7 C7.8,0.8 7,0 6.1,0 C5.2,0 4.4,0.8 4.4,1.7 C4.4,1.7 4.4,1.7 4.4,1.7 L3.1,1.7 L3.1,7.7 L9,7.7 L9,1.7 L9.1,1.7 Z M4.9,1.7 C4.9,1 5.5,0.4 6.2,0.4 C6.9,0.4 7.5,1 7.5,1.7 L4.9,1.7 Z" id="Shape"></path>
                </g>
                <g transform="translate(68.000000, 47.000000)">
                    <path d="M7,5.5 C8.5,5.5 9.6,4.3 9.6,2.9 C9.6,1.5 8.4,0.3 7,0.3 C5.6,0.3 4.4,1.5 4.4,2.9 L4.4,2.9 C4.4,4.4 5.5,5.5 7,5.5 Z" id="Path"></path>
                    <path d="M14.1,19.3 C14.1,19.3 14.1,19.2 14.1,19.2 C14.1,18.6 13.6,18.1 13,18 C13.2,17.8 13.3,17.6 13.3,17.3 L13.3,10 C13.3,8.2 11.9,6.7 10.1,6.5 L9.9,6.5 L4.1,6.5 L3.9,6.5 C2.1,6.7 0.7,8.2 0.7,10 L0.7,17.3 C0.7,17.9 1.1,18.3 1.7,18.3 C2.3,18.3 2.7,17.9 2.7,17.3 L2.7,11 C2.7,10.8 2.8,10.4 3.2,10.4 C3.6,10.4 3.6,10.7 3.6,10.9 L3.6,29.7 C3.6,30.5 4.3,31.2 5.1,31.2 C5.9,31.2 6.6,30.5 6.6,29.7 L6.6,19 C6.6,18.8 6.8,18.6 7,18.6 C7,18.6 7,18.6 7,18.6 L7,18.6 C7.2,18.6 7.4,18.8 7.4,19 C7.4,19 7.4,19 7.4,19.1 L7.4,29.9 C7.4,30.7 8.1,31.4 8.9,31.4 C9.7,31.4 10.4,30.7 10.4,29.9 L10.4,11 C10.4,10.8 10.5,10.5 10.8,10.5 C11.1,10.5 11.3,10.8 11.3,11.1 L11.3,17.4 C11.3,17.9 11.7,18.4 12.2,18.4 C12,18.6 11.8,18.9 11.8,19.3 C11.8,19.3 11.8,19.4 11.8,19.4 L11.2,19.4 L11.2,27 L14.7,27 L14.7,19.3 L14.1,19.3 L14.1,19.3 Z M13.8,19.3 L12.1,19.3 C12.1,19.3 12.1,19.2 12.1,19.2 C12,18.7 12.4,18.3 12.9,18.2 C13.4,18.1 13.8,18.5 13.9,19 C13.9,19.1 13.9,19.1 13.9,19.2 C13.9,19.3 13.8,19.3 13.8,19.3 Z" id="Shape"></path>
                </g>
                <path d="M41.8,36 C51.6,36 59.6,28 59.5,18.2 C59.4,8.4 51.5,0.4 41.7,0.5 C31.9,0.5 24,8.5 23.9,18.3 C24,28.1 32,36 41.8,36 Z M50.9,31.6 L50.7,31.7 L50.1,32 C46.3,34.3 41.6,34.9 37.3,33.6 C37.1,33.4 37,33.1 37.1,32.8 C37.7,31.6 38.9,30.9 40.3,30.9 C42.9,30.7 46.4,32.6 46.9,32.3 C47.4,32 48.6,30.5 50.2,30.6 C50.7,30.6 51.2,30.7 51.6,31 L50.9,31.6 Z M38.8,23.3 C39.4,22.1 40.8,22.2 39.8,23.9 C39.6,24.3 39,27 38.6,26.7 C38.2,26.4 38.7,23.5 38.8,23.3 Z M45.3,19.7 C45.8,19.7 46.7,20.4 46.3,20.7 C45.8,21 45.2,20.9 44.8,20.6 C44.4,20.2 45,19.7 45.3,19.7 Z M53.3,29.7 C53.1,29.6 53,29.6 52.8,29.5 C51.9,29 52,29.8 51.6,29.6 C51.2,29.4 52.1,28.4 50.8,29.3 C49.5,30.2 49.8,29.2 49.3,27.7 C48.9,26.3 49.6,24.8 51,24.3 C52,24 52.9,23.7 53.9,23.5 C55.8,23 56.2,21.9 56.6,22.6 C56.7,22.7 56.7,22.9 56.8,23 C56.9,23.3 57,23.5 57,23.8 C56.2,26 54.9,28 53.3,29.7 L53.3,29.7 Z M53.4,20.7 C53.2,20.6 53.1,20.5 52.9,20.1 C52.8,19.9 52.9,19.7 53,19.6 C53.1,19.5 53.3,19.5 53.4,19.6 C53.8,19.8 54,20.1 54.2,20.5 C54.2,20.8 53.6,20.7 53.4,20.7 L53.4,20.7 Z M55.2,22.2 C54.7,22.4 54.1,22.4 53.7,22 C53.3,21.7 54,21.2 54.2,21.1 C54.7,21.1 55.5,21.9 55.2,22.2 L55.2,22.2 Z M57.9,17 C57.9,17.4 58,17.9 58,18.3 C58,19.4 57.9,20.4 57.7,21.5 C57.2,21.1 55.6,18.8 57,17.3 C57.2,17 56.5,16.2 56.7,16.2 C57.2,16.2 57.7,16.5 57.9,17 Z M30.6,6.6 L30.6,6.6 C30.9,6.6 31.3,6.7 31.3,6.9 C31.3,7.2 31.2,7.6 31.1,7.9 C30.6,8.4 30,8.6 29.4,8.7 C29.2,8.7 29.1,8.6 29,8.5 C29.5,7.8 30.1,7.2 30.6,6.6 Z M28.1,9.8 L28.1,9.8 C28.5,9.4 29,9.3 29.5,9.2 C29.9,9.1 30.4,9.3 30.5,9.6 C30.6,9.9 29.5,10.4 29.3,10.5 C28.8,11 27.9,12.1 27.4,12.2 C27.3,12.2 27.1,12.2 27,12.2 C27.3,11.4 27.7,10.6 28.1,9.8 Z M27.1,24.5 L27.1,24.5 C26.2,22.5 25.8,20.4 25.8,18.2 C25.8,17.7 25.8,15.7 26.7,15.1 C27,14.9 27.4,14.8 27.8,14.9 C28.7,15 29.6,15.3 30.4,15.6 C31.3,15.9 32.8,16.8 33.7,16.4 C34.3,16.2 34.8,15.8 34.7,15.3 C34.6,14.8 34.1,14.5 33.5,14.9 C33.3,15.1 32.8,13.9 32.4,14 C32,14.1 32.9,15.3 32.5,15.4 C32.1,15.5 31.5,14.1 31.4,13.8 C31.3,13.5 30.8,13 30.3,13.5 C29.3,14.4 28,14 27.4,14.3 C26.3,14.7 26.3,14.4 26.3,13.9 C26.3,13.7 26.3,13.6 26.4,13.5 C26.9,13.2 27.6,13.1 28.2,13.3 C28.6,13.6 28.9,13.2 29.1,13.1 C29.3,13 29.2,12.7 29.1,12.4 C29,12.1 29.3,12 29.5,12 C29.7,12 30.4,11.4 30.7,11.3 C31.5,11 32.3,11 33.1,11.3 C33.6,11.6 34.3,11.5 34.7,11 C35,10.6 35.4,10.3 35.9,10 C36.1,9.9 35.3,9.1 34.7,10 C34.1,10.9 33.7,10.9 33.4,10.9 C33.1,10.9 31.2,10.4 31,9.9 C30.8,9.4 31.6,8.9 32.3,8.5 C33.3,8.3 34.3,8.1 35.3,8.1 C36.3,7.9 37.5,7.4 38.1,7.8 C38.7,8.2 35.5,9 36.6,9.5 C37,9.7 38.7,8.5 39.3,8.2 C40.7,7.5 38,7.2 38.3,5.8 C38.7,4.1 35,4.8 33.1,4.9 C34.9,3.8 36.9,3 38.9,2.6 L39.7,2.5 L40.1,2.5 C40.6,2.5 41.1,2.4 41.6,2.4 C49.2,2.4 55.8,7.6 57.4,15.1 C57.4,15.2 57.4,15.3 57.4,15.4 C57.2,15.9 56.6,16.2 56,16 C55.8,15.9 55.6,15.8 55.5,15.5 C55.3,15.3 54.7,14.6 54.7,15.7 C54.7,16.8 55.8,16.9 54.8,17.6 C54.3,18 53.7,18.2 53.1,18.3 C52.5,18.8 52.2,19.5 52.3,20.2 C52.4,20.8 53.9,22.5 52.8,22.4 C51.8,21.9 50.9,21.2 50.3,20.2 C50,19.3 49.6,18.4 49.3,17.8 C49.1,17.3 48.5,17 48,17.2 C47.9,17.2 47.8,17.3 47.8,17.3 C47.2,17.7 48,18.1 47.6,18.9 C47.2,19.7 46.9,20.5 46.3,19.8 C44.7,18 42.4,18.9 42.1,16.9 C41.9,15.8 41,15.9 40.2,15.3 C39.4,14.7 39,14.3 38.8,14.8 C38.6,15.3 41.3,17.2 41.4,17.8 C41.7,18.6 40.6,19.3 39.9,19.5 C39.2,19.7 38.8,19 38,18.2 C37.2,17.4 36.9,16.9 36.9,17.5 C37,18.6 37.5,19.6 38.4,20.2 C39.1,20.6 39.8,20.8 39.6,21.5 C39.4,22.2 39.6,21.8 38.9,22.5 C38.3,22.9 37.9,23.7 38.1,24.5 C38.1,25.5 37.9,25.6 37.7,26.4 C37.5,27.2 37.2,26.5 36.9,27.7 C36.7,28.5 36.4,29.2 35.9,29.8 C35.3,30.3 34.5,30.6 33.7,30.6 C33,30.5 32.9,28.6 32.9,27.6 C32.9,27.3 32.4,28.3 32.1,26.2 C31.9,24.9 31.1,26.3 31,25.4 C30.9,24.5 30.5,24.7 30.1,24.1 C29.7,23.5 29.1,24.2 28.5,24.4 C27.9,24.6 28,24.8 27.1,24.5 L27.1,24.5 Z" id="Shape"></path>
            </g>
        </g>
    </g>
</svg>