<?xml version="1.0" encoding="UTF-8"?>
<svg width="95px" height="95px" viewBox="0 0 95 95" version="1.1" xmlns="http://www.w3.org/2000/svg" xmlns:xlink="http://www.w3.org/1999/xlink">
    <!-- Generator: Sketch 53.2 (72643) - https://sketchapp.com -->
    <title>goal_16_target_16_5</title>
    <desc>Created with Sketch.</desc>
    <g id="goal_16_target_16_5" stroke="none" stroke-width="1" fill="none" fill-rule="evenodd">
        <g id="Group-135" fill-rule="nonzero">
            <rect id="Rectangle" fill="#00689D" x="1.45661261e-12" y="-2.13162821e-14" width="94.8" height="94.8"></rect>
            <path d="M47.4,7.7 C25.8,7.7 8.3,25.2 8.3,46.8 C8.3,68.4 25.8,86 47.4,86 C69,86 86.5,68.5 86.5,46.9 C86.5,46.9 86.5,46.9 86.5,46.9 C86.6,25.2 69,7.7 47.4,7.7 Z M81.6,46.2 C77.8,44.3 67.8,39.4 65.6,38.4 C64.4,37.9 63.2,37.9 62.6,38.5 L62.6,34.7 L61.5,34.7 L72.5,23.7 C78.2,29.8 81.4,37.8 81.6,46.2 Z M67.9,45.4 C67.9,45.5 67.7,45.6 67.6,45.6 L62.5,45.6 L62.5,41.6 C62.7,41.9 63,42.2 63.4,42.4 L67.7,45 L67.7,45 C67.9,45.1 68,45.3 67.9,45.4 Z M14.1,54 L19.7,54 C19.9,54 20.1,53.8 20.1,53.6 L20.1,32.5 C20.1,32.3 19.9,32.1 19.7,32.1 C19.7,32.1 19.7,32.1 19.7,32.1 L16.7,32.1 C24.8,15.1 45.2,8 62.2,16.1 C64.6,17.2 66.8,18.6 68.8,20.3 L54.4,34.7 L38.2,34.7 C37,32.8 35.7,30.9 35.7,30.9 C35.7,30.9 35.4,30.2 33.8,30.2 C32.2,30.2 24.1,32.1 22.6,32.7 C22.6,32.7 21.9,32.9 21.9,33.4 L21.9,52.5 C21.9,52.8 22,53 22.2,53.2 C24.7,53.9 27.3,54.4 29.9,54.7 C30.6,54.8 31.2,54.9 31.7,54.9 C32.2,54.9 32.8,55 33.2,55 L34,55.1 L20.9,68.2 C17.5,64.1 15.2,59.2 14.1,54 Z M45.8,43.3 L45.6,43.1 L45.6,40.5 C46,40.6 46.2,40.9 46.2,41.3 L46.2,42.1 L47.6,42.1 L47.6,41.3 C47.6,41.1 47.6,40.9 47.5,40.6 C47.4,39.7 46.5,39 45.6,39.1 L45.6,38.6 L45.1,38.6 L45.1,39.1 C44,39.1 43.1,39.9 43,41 C43,41.1 43,41.1 43,41.2 L43,41.5 C43,42.4 43.4,43.3 44.2,43.9 C44.3,44 44.3,44 44.4,44.1 L44.7,44.4 L45.1,44.8 L45.1,47.7 C44.7,47.6 44.5,47.3 44.5,46.8 L44.5,45.5 L43,45.5 L43,46.8 C42.9,48 43.7,48.9 44.8,49 C44.9,49 44.9,49 45,49 L45,49.6 L45.5,49.6 L45.5,49 C46,49 46.5,48.8 46.9,48.5 C47,48.7 47.1,48.8 47.2,48.9 C47.3,49 47.5,49.2 47.7,49.3 C48.2,49.6 48.8,49.8 49.4,49.8 L60.3,49.8 C60.5,49.8 60.7,50 60.7,50.2 C60.7,50.4 60.5,50.6 60.3,50.6 L45.2,50.6 C44,50.5 43,51.3 42.7,52.4 L29.5,52.4 L29.5,36.4 L32.7,36.4 C32.8,36.4 32.9,36.5 32.9,36.5 L37.3,41 C37.3,41 38.9,42.2 40,41.4 C41.1,40.6 40.7,39 40.3,38 C40,37.4 39.7,36.9 39.3,36.3 L60.9,36.3 L60.9,45.6 L49.4,45.6 C48.8,45.6 48.2,45.8 47.7,46.1 C47.6,45.2 47.1,44.4 46.4,43.8 L45.8,43.3 Z M46.1,46.5 L46.1,46.9 C46.1,47.3 45.9,47.7 45.5,47.8 L45.5,45.3 C45.9,45.6 46.1,46.1 46.1,46.5 Z M45.1,40.5 L45.1,42.6 C44.8,42.3 44.5,41.9 44.5,41.4 L44.5,41.2 C44.4,40.9 44.7,40.6 45.1,40.5 C45.1,40.5 45.1,40.5 45.1,40.5 L45.1,40.5 Z M47.4,81 C38.8,81 30.5,77.8 24.2,71.9 L41.2,54.9 L42.2,54.8 C42.7,54.7 43.3,54.6 43.7,54.5 C44.1,54.8 44.7,54.9 45.2,54.9 L60.2,54.9 C60.4,54.9 60.5,55.1 60.5,55.3 C60.5,55.5 60.4,55.7 60.2,55.7 L47.8,55.7 C47.1,55.7 46.5,55.9 46,56.3 C45.5,56.7 45.3,57.2 45.2,57.8 C45.3,59.1 46.5,60 47.8,59.9 L60.3,59.9 C60.5,59.9 60.6,60.1 60.6,60.3 C60.6,60.5 60.4,60.6 60.3,60.6 L51.6,60.6 C51,60.6 50.3,60.8 49.8,61.2 C49.4,61.6 49.1,62.1 49.1,62.7 C49.2,64 50.3,64.9 51.6,64.8 L59.3,65 C63.2,65.1 67.2,65.2 67.5,65.2 C68.5,65.2 69.6,65.2 70.9,65.1 C71.7,65 72.6,65 73.5,64.9 C74.3,64.8 75.4,64.7 76.6,64.5 C70.4,74.8 59.3,81 47.4,81 Z" id="Shape" fill="#FFFFFF"></path>
        </g>
    </g>
</svg>