<?xml version="1.0" encoding="UTF-8"?>
<svg width="95px" height="95px" viewBox="0 0 95 95" version="1.1" xmlns="http://www.w3.org/2000/svg" xmlns:xlink="http://www.w3.org/1999/xlink">
    <!-- Generator: Sketch 53.2 (72643) - https://sketchapp.com -->
    <title>goal_11_target_11_a</title>
    <desc>Created with Sketch.</desc>
    <g id="goal_11_target_11_a" stroke="none" stroke-width="1" fill="none" fill-rule="evenodd">
        <g id="Group-90">
            <rect id="Rectangle" fill="#FD9D24" fill-rule="nonzero" x="-3.62376795e-13" y="-2.13162821e-14" width="94.8" height="94.8"></rect>
            <g id="Group" transform="translate(9.700000, 9.000000)">
                <g transform="translate(24.000000, 0.000000)" fill="#FFFFFF" fill-rule="nonzero">
                    <path d="M24.7,18.1 L1.1,18.1 C0.9,18.1 0.7,18.3 0.7,18.5 L0.7,19.5 C0.7,19.7 0.9,19.9 1.1,19.9 L24.8,19.9 C25,19.9 25.2,19.7 25.2,19.5 L25.2,18.5 C25.2,18.3 25,18.1 24.7,18.1 Z" id="Path"></path>
                    <path d="M24.7,35.9 L1.1,35.9 C0.9,35.9 0.7,36.1 0.7,36.3 L0.7,38.2 C0.7,38.4 0.9,38.6 1.1,38.6 L24.8,38.6 C25,38.6 25.2,38.4 25.2,38.2 L25.2,36.3 C25.2,36.1 25,35.9 24.7,35.9 Z" id="Path"></path>
                    <path d="M25.1,16.4 C23.8,10.8 18.9,6.7 12.9,6.7 C6.9,6.7 2,10.9 0.7,16.4 C0.7,16.4 0.7,16.5 0.7,16.6 C0.7,16.6 0.7,16.6 0.7,16.6 C0.7,16.8 0.9,16.9 1.1,17 C1.1,17 1.1,17 1.1,17 C1.1,17 1.1,17 1.1,17 L24.6,17 L24.7,17 L24.8,17 C25,17 25.2,16.8 25.2,16.6 L25.1,16.4 Z" id="Path"></path>
                    <path d="M24,21.2 L1.9,21.2 C1.7,21.2 1.5,21.4 1.5,21.6 L1.5,34.4 C1.5,34.6 1.7,34.8 1.9,34.8 L24,34.8 C24.2,34.8 24.4,34.6 24.4,34.4 L24.4,21.6 C24.5,21.4 24.3,21.2 24,21.2 Z M8.6,33.1 L4.8,33.1 L4.8,22.9 L8.6,22.9 L8.6,33.1 Z M15,33.1 L11.2,33.1 L11.2,22.9 L15,22.9 L15,33.1 Z M21.4,33.1 L17.6,33.1 L17.6,22.9 L21.4,22.9 L21.4,33.1 Z" id="Shape"></path>
                    <path d="M12.9,5.1 L12.9,0.5 L14,0.5 C14,0.5 15.1,0.4 15.9,1 C16.7,1.6 17.3,2.1 18.6,2.1 L20.3,2.1 L20.3,6.6 L18.5,6.6 C18.5,6.6 17.3,6.6 16.5,5.9 C16.1,5.6 15.6,5.2 14.2,5.1 C12.8,5 12.9,5.1 12.9,5.1 Z" id="Path"></path>
                </g>
                <g transform="translate(0.000000, 17.000000)">
                    <rect id="Rectangle" x="5.6" y="14.2" width="3.7" height="3.8"></rect>
                    <path d="M19.3,10.5 L2.5,10.5 C2.4,10.5 2.4,10.6 2.4,10.6 L2.4,21.7 C2.4,21.8 2.5,21.8 2.5,21.8 L12.2,21.8 L12.2,14.4 L16.2,14.4 L16.2,21.8 L19.3,21.8 C19.4,21.8 19.4,21.7 19.4,21.7 L19.3,10.5 C19.4,10.5 19.3,10.5 19.3,10.5 Z M9.2,18 L5.5,18 L5.5,14.2 L9.2,14.2 L9.2,18 Z" id="Shape" fill="#FFFFFF" fill-rule="nonzero"></path>
                    <path d="M1.4,9.6 C1.3,9.6 1.3,9.6 1.4,9.6" id="Path" stroke="#FFFFFF" stroke-linecap="round" stroke-linejoin="round"></path>
                    <path d="M11,1 L11,1 C10.8,0.8 10.8,0.8 10.7,0.8 C10.6,0.8 10.5,0.9 10.5,0.9 L10.3,1 L1.3,9.4 C1.2,9.5 1.2,9.5 1.4,9.6 L20.5,9.6 C20.6,9.6 20.6,9.6 20.6,9.5 L20.6,9.4 L11,1 Z" id="Path" fill="#FFFFFF" fill-rule="nonzero"></path>
                </g>
                <path d="M69.5,35.8 L69.5,38.6 C69.5,38.7 69.5,38.7 69.6,38.7 L70.9,38.7 C71,38.7 71,38.7 71,38.6 L71,38.6 L71,35.8 C73,35.4 74.4,33.6 74.3,31.6 C74.3,29.1 72.4,25 70.1,25 C67.8,25 66,29.1 66,31.6 C65.9,33.7 67.4,35.5 69.5,35.8 Z" id="Path" fill="#FFFFFF" fill-rule="nonzero"></path>
                <path d="M62.6,8.2 L62,8.2 L62,6.2 C62.3,6.1 62.6,5.8 62.6,5.4 C62.6,5 62.3,4.6 61.8,4.6 C61.4,4.6 61,4.9 61,5.4 C61,5.7 61.2,6 61.6,6.2 L61.6,8.2 L53.9,8.2 C53.8,8.2 53.7,8.3 53.7,8.4 L53.7,38.5 C53.7,38.6 53.8,38.7 53.9,38.7 L53.9,38.7 L62.7,38.7 C62.8,38.7 62.9,38.6 62.9,38.5 L62.9,38.5 L62.9,8.4 C62.8,8.3 62.7,8.2 62.6,8.2 Z M57.4,35.2 C57.4,35.3 57.3,35.3 57.3,35.3 L55.3,35.3 C55.2,35.3 55.2,35.2 55.2,35.2 L55.2,33 C55.2,32.9 55.3,32.9 55.3,32.9 L57.3,32.9 C57.4,32.9 57.4,33 57.4,33 L57.4,35.2 Z M57.4,30 C57.4,30.1 57.3,30.1 57.3,30.1 L55.3,30.1 C55.2,30.1 55.2,30 55.2,30 L55.2,27.8 C55.2,27.7 55.3,27.7 55.3,27.7 L57.3,27.7 C57.4,27.7 57.4,27.8 57.4,27.8 L57.4,30 Z M57.4,24.9 C57.4,25 57.3,25 57.3,25 L55.3,25 C55.2,25 55.2,24.9 55.2,24.9 L55.2,22.7 C55.2,22.6 55.3,22.6 55.3,22.6 L57.3,22.6 C57.4,22.6 57.4,22.7 57.4,22.7 L57.4,24.9 Z M57.4,19.7 C57.4,19.8 57.3,19.8 57.3,19.8 L55.3,19.8 C55.2,19.8 55.2,19.7 55.2,19.7 L55.2,17.5 C55.2,17.4 55.3,17.4 55.3,17.4 L57.3,17.4 C57.4,17.4 57.4,17.5 57.4,17.5 L57.4,19.7 Z M57.4,14.6 C57.4,14.7 57.3,14.7 57.3,14.7 L55.3,14.7 C55.2,14.7 55.2,14.6 55.2,14.6 L55.2,12.4 C55.2,12.3 55.3,12.3 55.3,12.3 L57.3,12.3 C57.4,12.3 57.4,12.4 57.4,12.4 L57.4,14.6 Z M61.3,35.2 C61.3,35.3 61.2,35.3 61.2,35.3 L59.2,35.3 C59.1,35.3 59.1,35.2 59.1,35.2 L59.1,33 C59.1,32.9 59.2,32.9 59.2,32.9 L61.2,32.9 C61.3,32.9 61.3,33 61.3,33 L61.3,35.2 Z M61.3,30 C61.3,30.1 61.2,30.1 61.2,30.1 L59.2,30.1 C59.1,30.1 59.1,30 59.1,30 L59.1,27.8 C59.1,27.7 59.2,27.7 59.2,27.7 L61.2,27.7 C61.3,27.7 61.3,27.8 61.3,27.8 L61.3,30 Z M61.3,24.9 C61.3,25 61.2,25 61.2,25 L59.2,25 C59.1,25 59.1,24.9 59.1,24.9 L59.1,22.7 C59.1,22.6 59.2,22.6 59.2,22.6 L61.2,22.6 C61.3,22.6 61.3,22.7 61.3,22.7 L61.3,24.9 Z M61.3,19.7 C61.3,19.8 61.2,19.8 61.2,19.8 L59.2,19.8 C59.1,19.8 59.1,19.7 59.1,19.7 L59.1,17.5 C59.1,17.4 59.2,17.4 59.2,17.4 L61.2,17.4 C61.3,17.4 61.3,17.5 61.3,17.5 L61.3,19.7 Z M61.3,14.6 C61.3,14.7 61.2,14.7 61.2,14.7 L59.2,14.7 C59.1,14.7 59.1,14.6 59.1,14.6 L59.1,12.4 C59.1,12.3 59.2,12.3 59.2,12.3 L61.2,12.3 C61.3,12.3 61.3,12.4 61.3,12.4 L61.3,14.6 Z" id="Shape" fill="#FFFFFF" fill-rule="nonzero"></path>
            </g>
            <g id="Group" transform="translate(30.700000, 54.000000)">
                <g transform="translate(19.000000, 0.000000)">
                    <polygon id="Path" points="3.6 13.5 2.9 14.4 10.8 14.4 10.1 13.5"></polygon>
                    <path d="M11.5,13.3 C12.5,12.9 13.1,12 13.1,11 L12.5,2.6 C12.5,1.2 11.4,0.1 10,0.1 L3.6,0.1 C2.2,0.1 1.1,1.2 1.1,2.6 L0.5,11 C0.5,12.1 1.2,13 2.1,13.3 L0,16.1 L1.6,16.1 L2.2,15.3 L11.5,15.3 L12.1,16.1 L13.7,16.1 L11.5,13.3 Z M2.5,2.5 C2.5,2.3 2.7,2.1 2.9,2.1 L10.8,2.1 C11,2.1 11.2,2.3 11.2,2.5 L11.5,6.1 C11.5,6.3 11.4,6.5 11.2,6.5 L2.6,6.5 C2.4,6.5 2.3,6.3 2.3,6.1 L2.5,2.5 Z M2.1,10.1 C2.1,9.5 2.6,9.1 3.1,9.1 C3.6,9.1 4.1,9.6 4.1,10.1 C4.1,10.7 3.6,11.1 3.1,11.1 C2.6,11.1 2.1,10.7 2.1,10.1 Z M2.9,14.4 L3.6,13.5 L10.1,13.5 L10.8,14.4 L2.9,14.4 Z M10.5,11.2 C9.9,11.2 9.5,10.7 9.5,10.2 C9.5,9.6 10,9.2 10.5,9.2 C11.1,9.2 11.5,9.7 11.5,10.2 C11.6,10.7 11.1,11.2 10.5,11.2 Z" id="Shape" fill="#FFFFFF" fill-rule="nonzero"></path>
                </g>
                <path d="M16.5,2.4 L16,2.4 L15.5,2.4 L14.6,2.4 L14.6,2.4 C14.6,1.8 14.7,1.4 14,1.4 L3.6,1.4 C2.9,1.4 3,1.9 3,2.4 L3,2.4 L2.1,2.4 L1.6,2.4 L1,2.4 C0.9,2.4 0.8,2.5 0.8,2.6 L0.8,5 C0.8,5.1 0.9,5.2 1,5.2 L2.1,5.2 C2.2,5.2 2.3,5.1 2.3,5 L2.3,3.4 L2.9,3.4 L2.4,10.7 L2.4,14.3 L2.9,14.3 C2.9,14.3 2.9,14.3 2.9,14.3 L2.9,15.4 C2.9,15.7 3.2,16 3.5,16 L4,16 C4.3,16 4.6,15.7 4.6,15.4 L4.6,14.3 C4.6,14.3 4.6,14.3 4.6,14.3 L12.9,14.3 C12.9,14.3 12.9,14.3 12.9,14.3 L12.9,15.4 C12.9,15.7 13.2,16 13.5,16 L14,16 C14.3,16 14.6,15.7 14.6,15.4 L14.6,14.3 C14.6,14.3 14.6,14.3 14.6,14.3 L15.1,14.3 L15.1,10.7 L14.6,3.4 L15.2,3.4 L15.2,5 C15.2,5.1 15.3,5.2 15.4,5.2 L16.5,5.2 C16.6,5.2 16.7,5.1 16.7,5 L16.7,2.6 C16.6,2.4 16.5,2.4 16.5,2.4 Z M4.3,3.1 C4.3,2.8 4.6,2.6 4.9,2.6 L12.6,2.6 C12.9,2.6 13.2,2.8 13.2,3.1 L13.8,8.8 C13.8,9.1 13.5,9.3 13.2,9.3 L4.4,9.3 C4.1,9.3 3.8,9.1 3.8,8.8 L4.3,3.1 Z M4.7,13 C4.1,13 3.7,12.6 3.7,12 C3.7,11.4 4.1,11 4.7,11 C5.3,11 5.7,11.4 5.7,12 C5.7,12.6 5.2,13 4.7,13 Z M10.8,13 L6.7,13 L6.7,12.4 L10.8,12.4 L10.8,13 Z M10.8,11.7 L6.7,11.7 L6.7,11.1 L10.8,11.1 L10.8,11.7 Z M12.8,13 C12.2,13 11.8,12.6 11.8,12 C11.8,11.4 12.2,11 12.8,11 C13.4,11 13.8,11.4 13.8,12 C13.8,12.6 13.4,13 12.8,13 Z" id="Shape" fill="#FFFFFF" fill-rule="nonzero"></path>
            </g>
            <g id="Group" transform="translate(9.700000, 76.000000)" fill-rule="nonzero">
                <rect id="Rectangle" fill="#FFFFFF" x="48.3" y="3.7" width="2.4" height="2"></rect>
                <rect id="Rectangle" fill="#FFFFFF" x="53.1" y="3.7" width="2.4" height="2"></rect>
                <rect id="Rectangle" fill="#FFFFFF" x="43.4" y="3.7" width="2.4" height="2"></rect>
                <rect id="Rectangle" fill="#FFFFFF" x="58" y="3.7" width="2.4" height="2"></rect>
                <rect id="Rectangle" fill="#FFFFFF" x="62.8" y="3.7" width="2.4" height="2"></rect>
                <circle id="Oval" fill="#FD9D24" cx="4.7" cy="4.7" r="2"></circle>
                <path d="M39.7,4.7 C39.7,3.6 38.8,2.7 37.7,2.7 C36.6,2.7 35.7,3.6 35.7,4.7 C35.7,5.8 36.6,6.7 37.7,6.7 C38.8,6.6 39.7,5.7 39.7,4.7 Z" id="Path" fill="#FD9D24"></path>
                <path d="M37.7,0.6 C35.8,0.6 34.2,1.9 33.8,3.7 L8.6,3.7 C8.2,2 6.6,0.6 4.7,0.6 C2.5,0.6 0.6,2.4 0.6,4.7 C0.6,6.9 2.4,8.8 4.7,8.8 C6.6,8.8 8.2,7.5 8.6,5.7 L33.8,5.7 C34.2,7.4 35.8,8.8 37.7,8.8 C39.9,8.8 41.8,7 41.8,4.7 C41.8,2.4 40,0.6 37.7,0.6 Z M4.7,6.6 C3.6,6.6 2.7,5.7 2.7,4.6 C2.7,3.5 3.6,2.6 4.7,2.6 C5.8,2.6 6.7,3.5 6.7,4.6 C6.7,5.7 5.8,6.6 4.7,6.6 Z M37.7,6.6 C36.6,6.6 35.7,5.7 35.7,4.6 C35.7,3.5 36.6,2.6 37.7,2.6 C38.8,2.6 39.7,3.5 39.7,4.6 C39.7,5.7 38.8,6.6 37.7,6.6 Z" id="Shape" fill="#FFFFFF"></path>
                <circle id="Oval" fill="#FD9D24" cx="70.8" cy="4.7" r="2"></circle>
                <path d="M70.8,0.6 C68.6,0.6 66.7,2.4 66.7,4.7 C66.7,6.9 68.5,8.8 70.8,8.8 C73,8.8 74.9,7 74.9,4.7 C74.8,2.4 73,0.6 70.8,0.6 Z M70.8,6.6 C69.7,6.6 68.8,5.7 68.8,4.6 C68.8,3.5 69.7,2.6 70.8,2.6 C71.9,2.6 72.8,3.5 72.8,4.6 C72.8,5.7 71.9,6.6 70.8,6.6 Z" id="Shape" fill="#FFFFFF"></path>
            </g>
        </g>
    </g>
</svg>