<?xml version="1.0" encoding="UTF-8"?>
<svg width="95px" height="95px" viewBox="0 0 95 95" version="1.1" xmlns="http://www.w3.org/2000/svg" xmlns:xlink="http://www.w3.org/1999/xlink">
    <!-- Generator: Sketch 53.2 (72643) - https://sketchapp.com -->
    <title>goal_5_target_5_3</title>
    <desc>Created with Sketch.</desc>
    <g id="goal_5_target_5_3" stroke="none" stroke-width="1" fill="none" fill-rule="evenodd">
        <g id="Group-32" fill-rule="nonzero">
            <rect id="Rectangle" fill="#FF3A21" x="-3.62376795e-13" y="-2.13162821e-14" width="94.8" height="94.8"></rect>
            <g id="Group" transform="translate(12.700000, 7.000000)" fill="#FFFFFF">
                <path d="M40.2,12.1 C39.7,12 39.2,11.9 38.6,11.9 L40.1,9.9 L43.5,5.1 L38.8,0.6 L30.6,0.6 L25.9,5.1 L30.1,11 L30.8,12 L30.1,12 C11.3,14.5 -1.8,31.8 0.7,50.6 C3.2,69.4 20.5,82.5 39.3,80 C58.1,77.5 71.2,60.2 68.7,41.4 C66.7,26.5 55.1,14.6 40.2,12.1 L40.2,12.1 Z M5.2,46 C5.2,29.7 18.4,16.4 34.8,16.4 C42,16.4 49,19.1 54.5,23.9 L41.7,36.5 C41,35.5 39.9,34.8 38.7,34.8 L30.2,34.8 C27.6,34.8 26.4,37.9 26.4,37.9 L22.6,50.2 C22.6,50.2 22,52.2 23.7,52.6 C25.4,53 25.9,51.2 25.9,51.2 L29,40.7 C29,40.7 29.2,40 29.7,40.2 C30.2,40.4 30,41.1 30,41.1 L27.3,51 L12.7,65.6 C7.8,60.2 5.2,53.2 5.2,46 Z M34.7,75.6 C27.9,75.6 21.3,73.3 16,68.9 L27.1,57.8 L28.6,57.8 L28.6,67.7 L28.6,67.7 C28.6,69.4 29.4,70.7 31,70.7 C32.6,70.7 33.4,69.4 33.4,67.7 L33.4,57.8 L34.4,53.1 L32.7,53.9 L35.3,45.3 L34.2,51.7 L36.1,50.9 L35.3,57.8 C35.3,58.1 35.3,58.3 35.3,58.3 L35.3,67.7 C35.3,69.4 36.1,70.7 37.7,70.7 C39.3,70.7 40.1,69.4 40.1,67.7 L40.1,67.7 L40.1,57.8 L43.4,57.8 L40,45 L40.9,44.1 L43,51.3 C43,51.3 43.5,53.2 45.2,52.7 C46.9,52.2 46.3,50.3 46.3,50.3 L43.6,41.5 L57.7,27.4 C68,40 66.1,58.6 53.4,68.9 C48.2,73.2 41.6,75.6 34.7,75.6 Z" id="Shape"></path>
                <path d="M26.3,27 C26.5,26.6 26.9,25.9 28.4,25.7 C28.7,25.7 28.9,25.6 29.2,25.5 C29.5,25 29.8,24.6 30.1,24.2 C30.1,24.1 30.1,24 30.1,23.9 C30,23.2 29.3,22.4 27.8,23.1 C25.9,24 26.1,26.7 26.1,26.7 C26.2,27 26.2,27.1 26.3,27 Z" id="Path"></path>
                <path d="M39.8,25.4 C40.1,25.6 40.4,25.7 40.7,25.7 C42.2,25.9 42.7,26.6 42.8,27 C42.8,27.1 42.9,26.9 42.9,26.7 C42.9,26.7 43.1,23.9 41.2,23.1 C39.7,22.4 39,23.2 38.9,23.9 C38.9,24 38.9,24.1 38.9,24.2 C39.2,24.6 39.5,25 39.8,25.4 Z" id="Path"></path>
                <path d="M34.5,33.5 C37.3,33.5 39.7,31.2 39.7,28.3 C39.7,25.4 37.4,23.1 34.5,23.1 C31.6,23.1 29.3,25.4 29.3,28.3 L29.3,28.3 C29.3,31.2 31.6,33.5 34.5,33.5 Z" id="Path"></path>
            </g>
        </g>
    </g>
</svg>