<?xml version="1.0" encoding="UTF-8"?>
<svg width="95px" height="95px" viewBox="0 0 95 95" version="1.1" xmlns="http://www.w3.org/2000/svg" xmlns:xlink="http://www.w3.org/1999/xlink">
    <!-- Generator: Sketch 53.2 (72643) - https://sketchapp.com -->
    <title>goal_8_target_8_7</title>
    <desc>Created with Sketch.</desc>
    <g id="goal_8_target_8_7" stroke="none" stroke-width="1" fill="none" fill-rule="evenodd">
        <g id="Group-59" fill-rule="nonzero">
            <rect id="Rectangle" fill="#A21942" x="-3.62376795e-13" y="-2.13162821e-14" width="94.8" height="94.8"></rect>
            <g id="Group" transform="translate(5.700000, 12.000000)" fill="#FFFFFF">
                <path d="M31.3,21.7 C31,21.8 30.7,21.7 30.5,21.6 C30.1,21.4 29.9,21.1 29.7,20.7 L29.1,19 C28.8,18.2 29,17.4 29.6,17.2 L32.5,16 L31.8,14.3 L28.9,15.4 C27.9,15.8 27.2,16.9 27.2,18 C26.9,17.9 26.7,17.8 26.4,17.7 C25.6,17.6 24.9,17.7 24.2,18.1 L21.4,20.1 L22.7,21.4 L25.2,19.7 C25.4,19.5 25.7,19.5 26,19.5 C26.3,19.6 26.5,19.7 26.7,20 L28,21.9 C28.2,22.1 28.2,22.4 28.2,22.7 C28.1,22.9 28,23.2 27.8,23.3 C28.3,23.6 28.8,24.1 29.1,24.6 C29.5,24.2 29.8,23.8 29.9,23.3 C30.3,23.5 30.7,23.6 31.1,23.6 C31.4,23.6 31.7,23.5 32,23.4 L35,22.2 L34.3,20.5 L31.3,21.7 Z" id="Path"></path>
                <path d="M10.3,42.6 L9.3,44.5 C9.2,44.8 8.9,45 8.7,45.1 C8.4,45.2 8.1,45.2 7.9,45 L5.8,44 C5.3,43.7 5,43.1 5.3,42.5 L7.2,38.7 L6,37.2 L3.7,41.7 C3.4,42.4 3.3,43.2 3.5,43.9 C3.6,44.1 3.7,44.4 3.8,44.6 C3.6,44.7 3.3,44.8 3.1,44.9 C2.5,45.3 2,46 1.8,46.7 L0.6,51.9 C0.2,53.5 1.2,55 2.8,55.4 L5,55.9 C5.2,55.9 5.4,56 5.7,56 C7.1,56 8.2,55.1 8.5,53.8 L9.7,48.6 C9.8,48 9.8,47.3 9.5,46.7 C10.1,46.4 10.5,46 10.8,45.4 L11.4,44.2 L10.3,42.6 Z M8,48.1 L6.8,53.3 C6.7,53.6 6.6,53.8 6.3,54 C6.1,54.2 5.8,54.2 5.5,54.1 L3.3,53.6 C3,53.5 2.8,53.4 2.6,53.1 C2.4,52.9 2.4,52.6 2.5,52.3 L3.7,47.1 C3.8,46.8 3.9,46.6 4.2,46.4 C4.4,46.2 4.7,46.2 5,46.3 L7.2,46.8 C7.5,46.9 7.7,47 7.9,47.3 C8,47.5 8.1,47.8 8,48.1 Z" id="Shape"></path>
                <rect id="Rectangle" transform="translate(42.905410, 6.132385) rotate(-53.707659) translate(-42.905410, -6.132385) " x="39.0054459" y="4.98239557" width="7.79992828" height="2.29997885"></rect>
                <rect id="Rectangle" transform="translate(33.452640, 4.102870) rotate(-15.081255) translate(-33.452640, -4.102870) " x="32.3025897" y="0.202699574" width="2.30010051" height="7.80034085"></rect>
                <rect id="Rectangle" transform="translate(26.664045, 10.068255) rotate(-66.277776) translate(-26.664045, -10.068255) " x="25.5140533" y="6.1682832" width="2.29998337" height="7.79994361"></rect>
                <path d="M47.7,22.6 C48,22.2 48.5,21.6 49,21 L48,20.8 C47.7,20.7 47.5,20.6 47.3,20.3 C47.1,20.1 47.1,19.8 47.1,19.5 L47.6,17.2 C47.7,16.7 48.2,16.3 48.7,16.3 C48.8,16.3 48.8,16.3 48.9,16.3 L52.7,17.1 C53,16.9 53.2,16.6 53.5,16.4 C54,16.1 54.5,15.9 55.1,15.8 C54.9,15.7 54.7,15.6 54.4,15.6 L49.2,14.5 C48.3,14.3 47.4,14.6 46.7,15.2 L46.7,15.2 C46.3,14.5 45.6,14.1 44.8,13.9 L41.6,13.3 L41.3,15.1 L44.5,15.7 C44.8,15.8 45,15.9 45.2,16.2 C45.4,16.5 45.4,16.9 45.4,17.2 L45.1,18.8 C45,19.4 44.4,19.9 43.8,19.8 L40.8,19.2 L40.4,21 L43.4,21.6 C43.6,21.6 43.8,21.7 43.9,21.6 C44.5,21.6 45.1,21.4 45.6,21 C45.6,21.1 45.7,21.2 45.8,21.3 C46.2,22 46.9,22.4 47.7,22.6 L47.7,22.6 Z" id="Path"></path>
                <g transform="translate(5.000000, 20.000000)" id="Path">
                    <path d="M13.7,4.8 C13.9,4.6 14,4.5 14.2,4.4 C14.6,4.2 15,4.1 15.5,4 L16.7,3.6 L17.4,3.4 C17.4,3.2 17.2,2.9 17,2.7 L15.1,1 C14.8,0.8 14.5,0.6 14.1,0.7 C13.6,0.7 13,1 12.6,1.4 C12.2,1.8 12,2.3 12,2.9 C12,3.2 12.1,3.6 12.4,3.8 L13.7,4.8 Z"></path>
                    <path d="M10.9,9.7 C11.2,10 11.5,10.1 11.9,10.1 C12.4,10.1 12.9,9.9 13.3,9.5 C13.6,9.2 13.8,8.8 13.9,8.4 C13.5,8.1 13.1,7.7 13,7.2 L13,7 C13,6.8 13,6.6 13,6.3 L9.5,2.6 C9.2,2.3 8.9,2.2 8.5,2.2 L8.5,2.2 C8,2.2 7.5,2.4 7.1,2.8 C6.4,3.4 6.2,4.4 6.7,5.2 L10.9,9.7 Z"></path>
                    <path d="M7,13.4 C7.3,13.7 7.6,13.8 8,13.8 C8.5,13.8 9,13.6 9.4,13.2 C9.8,12.9 10,12.4 10.1,11.9 C10.2,11.5 10.1,11.1 9.8,10.8 L6.2,7 C5.9,6.7 5.6,6.6 5.2,6.6 L5.2,6.6 C4.7,6.6 4.2,6.8 3.8,7.2 C3.4,7.5 3.2,8 3.1,8.5 C3,8.9 3.1,9.3 3.4,9.6 L7,13.4 Z"></path>
                    <path d="M4.4,15.5 C4.8,15.1 5.1,14.6 5.1,14 C5.1,13.7 5,13.3 4.8,13.1 L3.5,11.8 C3.2,11.5 2.9,11.4 2.5,11.4 C2,11.4 1.5,11.6 1.1,12 C0.7,12.4 0.4,12.9 0.4,13.4 C0.4,13.7 0.5,14.1 0.7,14.3 L2,15.7 C2.3,16 2.6,16.1 3,16.1 C3.5,16.1 4,15.8 4.4,15.5 Z"></path>
                    <path d="M20.8,17.8 L20.9,17.6 L20.9,17.6 C21.9,15.4 24.8,10.5 24.9,10.3 C25,10 25.1,9.6 25.1,9.3 C25.1,9.1 25.1,8.9 25,8.7 L24.7,8 C24.2,6.9 23.1,4.9 22.1,4.3 C21.4,3.9 20.6,3.7 19.8,3.9 C19.6,4 18.3,4.3 17,4.7 L15.8,5 C15.4,5.1 15.1,5.2 14.7,5.4 C14.2,5.7 14,6.2 14.1,6.7 C14.2,7.1 14.5,7.3 14.8,7.4 L17,7.6 L17.3,7.6 C18.3,7.7 19.1,8.6 19.1,9.7 C19.1,9.9 19.1,10.1 19,10.2 L17.6,13.5 L16.5,13 L17.9,9.7 C17.9,9.3 17.6,8.9 17.1,8.8 L16.9,8.8 L15,8.6 C14.8,9.2 14.4,9.8 13.9,10.3 C13.2,10.9 12.4,11.3 11.5,11.3 L11.3,11.3 C11.3,12.3 10.9,13.3 10.1,14 C9.4,14.6 8.6,15 7.7,15 L7.6,15 C7.1,15 6.5,14.8 6.1,14.5 C5.9,15.2 5.5,15.8 5,16.2 C4.4,16.8 3.6,17.1 2.7,17.2 L5.9,21.7 C6.2,22.1 6.7,22.5 7.1,22.8 C7.3,23.1 7.6,23.5 7.9,23.8 C8.2,24.3 8.5,25 8.6,25.6 C9.3,29.3 10,50.8 10,50.8 L24.5,50.8 C24.5,50.8 20.5,28.9 19.4,22 C19.3,21.2 19.4,20.3 19.7,19.5 C20.2,19.2 20.8,17.8 20.8,17.8 Z"></path>
                </g>
                <g transform="translate(46.000000, 14.000000)" id="Path">
                    <path d="M27.6,24.2 C26.4,24.2 25.3,23.6 24.5,22.7 C23.9,22 23.5,21.1 23.5,20.2 C22.8,20.7 22,21 21.1,21 L21,21 C19.8,21 18.7,20.5 17.9,19.6 C17,18.6 16.7,17.1 17,15.8 C16.9,15.8 16.8,15.8 16.7,15.8 L16.6,15.8 C14.3,15.8 12.4,13.9 12.5,11.5 C12.5,10.9 12.6,10.3 12.9,9.8 L10.5,9.3 L9.8,9.7 L12.3,15.7 L11.6,16 L10.9,16.3 L8,9.2 L10.2,7.7 L15.5,8.8 C15.5,8.8 16.7,8.8 17,8.1 C17.3,7.4 16.4,6.4 15.9,6.1 C15.5,5.9 15,5.7 14.6,5.5 L13,4.8 L9.6,3.5 C9.5,3.5 9.1,3.3 8.3,3.8 C6.2,5.7 4.2,7.8 2.4,10 C2.3,10.2 2,10.5 1.9,10.7 C1.9,10.7 2,10.8 2,10.9 L2,11 L6.8,27 L7.1,27.9 L7.1,27.9 L0.3,57 L18,57 L22,30.2 L28.2,24.1 C28.1,24.2 27.9,24.2 27.6,24.2 L27.6,24.2 Z"></path>
                    <path d="M15.1,4.1 C15.6,4.3 16.2,4.6 16.7,4.8 C16.9,4.9 17.1,5.1 17.3,5.3 L18,4.8 C18.5,4.4 18.8,3.8 18.9,3.1 C19,2.4 18.8,1.8 18.4,1.3 C17.9,0.7 17.2,0.4 16.5,0.4 L16.5,0.4 C15.9,0.4 15.4,0.6 14.9,0.9 L12.4,2.9 L13.7,3.4 L15.1,4.1 Z"></path>
                    <path d="M18.4,8.4 C18.4,8.5 18.4,8.5 18.3,8.6 C17.7,10.3 15.5,10.3 15.2,10.3 L15.1,10.3 L14.6,10.2 C13.8,11.3 14.1,12.9 15.3,13.7 C15.7,14 16.2,14.1 16.6,14.1 L16.6,14.1 C17.2,14.1 17.8,13.9 18.3,13.5 L25.7,7 C26.7,6.1 26.8,4.5 25.9,3.5 C25.4,3 24.7,2.7 24,2.7 L24,2.7 C23.4,2.7 22.8,2.9 22.4,3.3 L18.4,6.8 C18.6,7.3 18.6,7.9 18.4,8.4 Z"></path>
                    <path d="M19.4,14.9 C18.4,15.8 18.3,17.4 19.2,18.4 C19.7,18.9 20.3,19.2 21,19.2 C21.6,19.2 22.2,19 22.7,18.6 L28.9,13.1 C29.4,12.7 29.7,12 29.7,11.4 C29.8,10.7 29.5,10.1 29.1,9.6 C28.6,9.1 28,8.7 27.3,8.7 L27.3,8.7 C26.7,8.7 26.1,8.9 25.6,9.3 L19.4,14.9 Z"></path>
                    <path d="M31.8,16.4 C31.3,15.9 30.6,15.5 29.9,15.5 L29.9,15.5 C29.3,15.5 28.7,15.7 28.3,16.1 L26,18.1 C25.5,18.5 25.2,19.1 25.1,19.8 C25.1,20.5 25.3,21.1 25.7,21.6 C26.2,22.1 26.8,22.5 27.6,22.5 L27.6,22.5 C28.2,22.5 28.8,22.3 29.2,21.9 L31.4,20 C32.5,19.1 32.7,17.5 31.8,16.4 Z"></path>
                </g>
                <path d="M82.7,49.2 L81.3,43.2 C81.1,42.2 80.3,41.4 79.3,41.1 C79.9,40.3 80,39.2 79.6,38.3 L78.4,35.5 L77,37 L77.9,39 C78.1,39.6 77.9,40.2 77.3,40.4 C77.3,40.4 77.3,40.4 77.3,40.4 L74.7,41.5 C74.1,41.7 73.5,41.5 73.3,40.9 C73.3,40.9 73.3,40.9 73.3,40.9 L73.3,40.8 L72,42.3 C72.3,42.7 72.7,43 73.2,43.2 C72.9,43.8 72.8,44.5 73,45.1 L74.4,51.1 C74.7,52.4 75.9,53.3 77.2,53.3 C77.4,53.3 77.6,53.3 77.9,53.2 L80.7,52.5 C82.2,52.3 83.1,50.8 82.7,49.2 Z M80.8,50.5 C80.6,50.7 80.4,50.9 80.1,51 L77.3,51.7 C77,51.8 76.7,51.7 76.5,51.6 C76.2,51.4 76.1,51.2 76,50.9 L74.6,44.9 C74.5,44.3 74.8,43.7 75.4,43.6 L78.2,42.9 C78.8,42.8 79.4,43.1 79.5,43.7 L80.9,49.7 C81.1,49.9 81,50.2 80.8,50.5 Z" id="Shape"></path>
            </g>
        </g>
    </g>
</svg>