<?xml version="1.0" encoding="UTF-8"?>
<svg width="95px" height="95px" viewBox="0 0 95 95" version="1.1" xmlns="http://www.w3.org/2000/svg" xmlns:xlink="http://www.w3.org/1999/xlink">
    <!-- Generator: Sketch 53.2 (72643) - https://sketchapp.com -->
    <title>goal_14_target_14_1</title>
    <desc>Created with Sketch.</desc>
    <g id="goal_14_target_14_1" stroke="none" stroke-width="1" fill="none" fill-rule="evenodd">
        <g id="Group-110" fill-rule="nonzero">
            <rect id="Rectangle" fill="#0A97D9" x="-3.62376795e-13" y="-2.13162821e-14" width="94.8" height="94.8"></rect>
            <g id="Group" opacity="0.3" transform="translate(5.700000, 41.000000)" fill="#000000">
                <g transform="translate(64.000000, 0.000000)" id="Path">
                    <polygon points="0.2 3.5 13.8 0.1 16.4 10.4 4.9 9.9"></polygon>
                </g>
                <g transform="translate(0.000000, 13.000000)" id="Path">
                    <polygon points="0.7 9 2.2 0.3 14.1 8.6 7 12.1"></polygon>
                </g>
            </g>
            <g id="Group" transform="translate(8.700000, 32.000000)" fill="#000000">
                <g transform="translate(0.000000, 1.000000)" id="Path">
                    <path d="M27.5,11.6 C28,11.8 28.2,12.3 28,12.8 C27.8,13.3 27.3,13.5 26.8,13.3 C26.3,13.1 26.1,12.6 26.3,12.1 C26.5,11.6 27,11.4 27.5,11.6 C27.5,11.6 27.5,11.6 27.5,11.6 Z"></path>
                    <path d="M31.5,5.5 C32,5.7 32.2,6.2 32,6.6 C32,6.6 32,6.6 32,6.6 C31.8,7.1 31.3,7.3 30.8,7.1 C30.3,6.9 30.1,6.4 30.3,5.9 C30.6,5.6 31.1,5.3 31.5,5.5 C31.5,5.5 31.5,5.5 31.5,5.5 Z"></path>
                    <path d="M50.6,9 C51,8.7 51.6,8.8 51.8,9.2 C52.1,9.6 52,10.2 51.6,10.4 C51.2,10.7 50.6,10.6 50.4,10.2 C50.1,9.8 50.2,9.3 50.6,9 C50.6,9 50.6,9 50.6,9 Z"></path>
                    <path d="M42.6,0.9 C43,0.6 43.6,0.7 43.9,1.1 C44.2,1.5 44.1,2.1 43.7,2.4 C43.3,2.7 42.7,2.6 42.4,2.2 C42.4,2.2 42.4,2.2 42.4,2.2 C42.1,1.7 42.2,1.1 42.6,0.9 Z"></path>
                    <path d="M16.3,7.1 C16.8,7.3 17,7.8 16.8,8.3 C16.6,8.7 16.2,8.9 15.7,8.8 C15.2,8.6 15,8.1 15.1,7.7 C15.1,7.7 15.1,7.7 15.1,7.7 C15.3,7.2 15.8,7 16.3,7.1 C16.3,7.1 16.3,7.1 16.3,7.1 Z"></path>
                    <path d="M19.1,0.4 C19.6,0.6 19.8,1.1 19.6,1.6 C19.4,2.1 18.9,2.3 18.4,2.1 C18.1,2 17.8,1.5 18,1 C18,1 18,1 18,1 C18.2,0.5 18.7,0.3 19.1,0.4 C19.1,0.4 19.1,0.4 19.1,0.4 Z"></path>
                    <path d="M6.1,10.5 C6.6,10.7 6.8,11.2 6.6,11.7 C6.4,12.2 5.9,12.4 5.4,12.2 C5,12 4.8,11.5 4.9,11 C5.1,10.6 5.6,10.3 6.1,10.5 C6.1,10.5 6.1,10.5 6.1,10.5 Z"></path>
                    <path d="M6.7,17.5 C7.2,17.7 7.4,18.2 7.2,18.7 C7,19.2 6.5,19.4 6,19.2 C5.5,19 5.3,18.5 5.5,18 C5.5,18 5.5,18 5.5,18 C5.7,17.5 6.3,17.3 6.7,17.5 Z"></path>
                    <path d="M1.6,13.2 C2.1,13.4 2.3,13.9 2.1,14.4 C1.9,14.9 1.4,15.1 0.9,14.9 C0.4,14.7 0.2,14.2 0.4,13.7 C0.6,13.3 1.1,13.1 1.6,13.2 C1.6,13.2 1.6,13.2 1.6,13.2 Z"></path>
                    <path d="M1.6,0.8 C2.1,1 2.3,1.5 2.1,2 C1.9,2.5 1.4,2.7 0.9,2.5 C0.4,2.3 0.2,1.8 0.4,1.4 C0.6,0.9 1.1,0.6 1.6,0.8 C1.6,0.8 1.6,0.8 1.6,0.8 Z"></path>
                    <path d="M4.4,4.5 C4.9,4.7 5.1,5.2 4.9,5.7 C4.7,6.2 4.2,6.4 3.7,6.2 C3.2,6 3,5.5 3.2,5.1 C3.4,4.5 3.9,4.3 4.4,4.5 C4.4,4.5 4.4,4.5 4.4,4.5 Z"></path>
                    <path d="M12.8,2 C13.3,2.2 13.5,2.7 13.3,3.2 C13.1,3.7 12.6,3.9 12.1,3.7 C11.6,3.5 11.4,3 11.6,2.5 C11.8,2.1 12.3,1.8 12.8,2 Z"></path>
                    <path d="M57.5,45.2 C58,45.4 58.2,45.9 58,46.4 C57.8,46.9 57.3,47.1 56.8,46.9 C56.3,46.7 56.1,46.2 56.3,45.7 C56.5,45.2 57.1,45 57.5,45.2 Z"></path>
                    <path d="M31.8,43.1 C32.3,43.3 32.5,43.8 32.3,44.3 C32.2,44.8 31.7,45 31.2,44.9 C30.7,44.8 30.5,44.3 30.6,43.8 C30.6,43.8 30.6,43.7 30.6,43.7 C30.9,43.1 31.4,42.9 31.8,43.1 C31.8,43.1 31.8,43.1 31.8,43.1 Z"></path>
                    <path d="M34.6,7.6 C35.1,7.8 35.3,8.3 35.1,8.8 C34.9,9.3 34.4,9.5 33.9,9.3 C33.4,9.1 33.2,8.6 33.4,8.2 C33.6,7.7 34.1,7.5 34.6,7.6 Z"></path>
                    <path d="M33.9,11.9 C34.3,12.1 34.6,12.6 34.4,13 C34.2,13.5 33.7,13.7 33.3,13.5 C33.3,13.5 33.3,13.5 33.3,13.5 C32.8,13.3 32.6,12.8 32.8,12.3 C32.9,11.9 33.4,11.7 33.9,11.9 L33.9,11.9 Z"></path>
                    <path d="M69.1,33 C69.6,33.2 69.8,33.7 69.6,34.2 C69.4,34.7 68.9,34.9 68.4,34.7 C68,34.5 67.8,34 68,33.5 C68.1,33.1 68.7,32.8 69.1,33 C69.1,33 69.1,33 69.1,33 Z"></path>
                    <path d="M73,25.7 C73.5,25.9 73.7,26.4 73.5,26.9 C73.3,27.4 72.8,27.6 72.4,27.4 C72.4,27.4 72.4,27.4 72.4,27.4 C71.9,27.2 71.7,26.7 71.9,26.2 C72,25.8 72.5,25.5 73,25.7 C73,25.7 73,25.7 73,25.7 Z"></path>
                    <path d="M60.8,38.9 C61.3,39.1 61.5,39.6 61.3,40.1 C61.3,40.1 61.3,40.1 61.3,40.1 C61.1,40.6 60.6,40.8 60.2,40.6 C60.2,40.6 60.2,40.6 60.2,40.6 C59.7,40.4 59.5,39.9 59.7,39.4 C59.9,38.9 60.4,38.8 60.8,38.9 Z"></path>
                    <path d="M76.4,52.4 C76.9,52.6 77.1,53.1 76.9,53.6 C76.7,54.1 76.2,54.3 75.7,54.1 C75.2,53.9 75,53.4 75.2,52.9 C75.4,52.5 75.9,52.2 76.4,52.4 L76.4,52.4 Z"></path>
                    <path d="M57.6,3.6 C58.1,3.8 58.3,4.3 58.1,4.8 C57.9,5.3 57.4,5.5 56.9,5.3 C56.4,5.1 56.2,4.6 56.4,4.2 C56.6,3.6 57.2,3.4 57.6,3.6 C57.6,3.6 57.6,3.6 57.6,3.6 Z"></path>
                    <path d="M63.2,44.9 C63.7,45.1 63.9,45.6 63.7,46.1 C63.5,46.6 63,46.8 62.5,46.6 C62,46.4 61.8,45.9 62,45.5 C62.2,44.9 62.7,44.7 63.2,44.9 C63.2,44.9 63.2,44.9 63.2,44.9 Z"></path>
                    <path d="M44.2,44.1 C44.7,44.3 44.9,44.8 44.7,45.3 C44.5,45.8 44,46 43.5,45.8 C43,45.6 42.8,45.1 43,44.7 C43.2,44.1 43.8,43.9 44.2,44.1 C44.2,44.1 44.2,44.1 44.2,44.1 Z"></path>
                    <path d="M57.8,52.4 C58.3,52.6 58.5,53.1 58.3,53.6 C58.1,54.1 57.6,54.3 57.1,54.1 C56.6,53.9 56.4,53.4 56.6,53 C56.9,52.5 57.4,52.2 57.8,52.4 Z"></path>
                    <path d="M74.6,41.5 C75.1,41.7 75.3,42.2 75.1,42.7 C74.9,43.2 74.4,43.4 73.9,43.2 L73.9,43.2 C73.4,43 73.2,42.5 73.4,42 C73.6,41.6 74.1,41.4 74.6,41.5 Z"></path>
                    <path d="M77,31.4 C77.5,31.6 77.7,32.1 77.5,32.6 C77.3,33.1 76.8,33.3 76.3,33.1 C75.8,32.9 75.6,32.4 75.8,32 C76,31.5 76.5,31.2 77,31.4 C77,31.4 77,31.4 77,31.4 Z"></path>
                    <path d="M69.1,38.9 C69.6,39.1 69.8,39.6 69.6,40.1 C69.4,40.6 68.9,40.8 68.4,40.6 C67.9,40.4 67.7,39.9 67.9,39.4 C67.9,39.4 67.9,39.4 67.9,39.4 C68.1,39 68.6,38.7 69.1,38.9 C69.1,38.9 69.1,38.9 69.1,38.9 Z"></path>
                    <path d="M38.9,51 C39.4,51.2 39.6,51.7 39.4,52.1 C39.4,52.1 39.4,52.1 39.4,52.1 C39.2,52.6 38.7,52.8 38.2,52.6 C37.7,52.4 37.5,51.9 37.7,51.4 C37.9,51.1 38.4,50.8 38.9,51 C38.9,51 38.9,51 38.9,51 Z"></path>
                    <path d="M50.2,49.4 C50.7,49.6 50.9,50.1 50.7,50.6 C50.5,51.1 50,51.3 49.5,51.1 L49.5,51.1 C49,50.9 48.8,50.4 49,49.9 C49,49.9 49,49.9 49,49.9 C49.2,49.5 49.7,49.2 50.2,49.4 Z"></path>
                    <path d="M2.8,50.8 C3.3,51 3.5,51.5 3.3,52 C3.1,52.4 2.7,52.6 2.2,52.5 C1.7,52.4 1.5,51.9 1.6,51.4 C1.7,50.9 2.2,50.7 2.7,50.8 C2.7,50.8 2.7,50.8 2.8,50.8 Z"></path>
                    <path d="M25.6,38.5 C26.1,38.7 26.3,39.2 26.1,39.7 C25.9,40.2 25.4,40.4 24.9,40.2 C24.4,40 24.2,39.5 24.4,39 C24.6,38.6 25.1,38.4 25.6,38.5 Z"></path>
                    <path d="M8,43.1 C8.5,43.3 8.7,43.8 8.5,44.3 C8.3,44.8 7.8,45 7.3,44.8 C6.8,44.6 6.6,44.1 6.8,43.6 C6.8,43.6 6.8,43.6 6.8,43.6 C7,43.2 7.5,42.9 8,43.1 Z"></path>
                    <path d="M35.4,46.5 C35.9,46.7 36.1,47.2 35.9,47.7 C35.7,48.2 35.2,48.4 34.7,48.2 C34.2,48 34,47.5 34.2,47.1 C34.4,46.6 34.9,46.4 35.4,46.5 C35.4,46.5 35.4,46.5 35.4,46.5 Z"></path>
                    <path d="M69.9,50.2 C70.4,50.4 70.6,50.9 70.4,51.4 C70.4,51.4 70.4,51.4 70.4,51.4 C70.2,51.9 69.7,52.1 69.3,51.9 C69.3,51.9 69.3,51.9 69.3,51.9 C68.8,51.7 68.6,51.2 68.8,50.7 C68.9,50.2 69.4,50 69.9,50.2 C69.9,50.2 69.9,50.2 69.9,50.2 Z"></path>
                    <path d="M15.2,50.4 C15.7,50.6 15.9,51.1 15.7,51.6 C15.5,52.1 15,52.3 14.6,52.1 C14.6,52.1 14.6,52.1 14.6,52.1 C14.1,51.9 13.9,51.4 14.1,50.9 C14.3,50.4 14.7,50.2 15.2,50.4 C15.2,50.4 15.2,50.4 15.2,50.4 Z"></path>
                </g>
                <g id="Path">
                    <polygon points="19.1 50.3 24 56.4 29.7 44.7 22.6 45.1"></polygon>
                    <g transform="translate(62.000000, 0.000000)">
                        <polygon points="10.4 0 0.5 9.9 2 10.5 11.4 1"></polygon>
                        <polygon points="12.5 2.2 3.5 11.2 5 11.8 13.6 3.2"></polygon>
                        <polygon points="14.7 4.4 6.6 12.5 7.8 13 8.7 12.4 15.8 5.4"></polygon>
                        <polygon points="16.9 6.5 13.8 9.6 17.8 7.4"></polygon>
                    </g>
                    <polygon points="1.3 27.4 0.7 30.9 3 28.6"></polygon>
                    <polygon points="6.1 30.7 0.4 36.3 3.6 37.9 8.9 32.6"></polygon>
                </g>
            </g>
            <g id="Group" transform="translate(6.700000, 6.000000)" fill="#FFFFFF">
                <path d="M68.6,53.3 C67.3,51.6 59.2,41.2 47.8,41.2 C37.9,41.2 27.3,50.2 27.3,50.2 C27.3,50.2 23.3,42.1 15.2,41.3 L15,41.3 C14.8,41.3 14.7,41.4 14.7,41.6 C14.7,41.7 14.8,41.8 14.8,41.9 C15.8,43.6 18.5,48.6 18.5,53.5 C18.5,58.4 16,63.4 15,65.2 L14.9,65.3 C14.9,65.4 14.8,65.4 14.9,65.5 C14.9,65.7 15,65.8 15.2,65.8 L15.4,65.8 C23.5,65 27.5,56.9 27.5,56.9 C27.5,56.9 38.1,65.9 48,65.9 C59.4,65.9 67.5,55.6 68.8,53.9 L68.9,53.8 C68.9,53.8 68.9,53.7 68.9,53.7 C68.9,53.7 68.9,53.6 68.9,53.6 L68.6,53.3 M54.2,54.8 C52.4,54.8 50.9,53.3 50.9,51.5 C50.9,49.7 52.4,48.2 54.2,48.2 C56,48.2 57.5,49.7 57.5,51.5 C57.5,53.3 56.1,54.8 54.2,54.8 C54.2,54.8 54.2,54.8 54.2,54.8" id="Shape"></path>
                <g id="Path">
                    <path d="M80.3,3.3 L80.3,3.3 L80,3.4 C77.5,4.7 69.6,7.7 62.5,0.9 C62.4,0.8 62.3,0.7 62.1,0.7 C61.9,0.7 61.8,0.8 61.7,0.9 C59.6,2.5 49.8,9.1 41.1,1 L40.8,1 C40.7,0.9 40.6,0.9 40.5,0.9 C40.4,0.9 40.2,0.9 40.2,1 L40,1.1 C31.3,9.2 21.5,2.6 19.4,1 C19.3,0.9 19.2,0.8 19,0.8 C18.8,0.8 18.7,0.9 18.6,1 C11.5,7.8 3.6,4.7 1.1,3.5 L0.9,3.4 L0.8,3.4 C0.5,3.4 0.3,3.6 0.3,3.9 L0.3,3.9 L0.3,7.2 C0.3,7.3 0.4,7.4 0.4,7.5 C8.6,14.7 16.5,8 18.3,6.2 C18.4,6.1 18.4,6.1 18.5,6 C18.6,6 18.6,5.9 18.7,5.9 C18.8,5.9 19,6 19.1,6.1 C28.4,15 38.2,7.8 40.2,6.1 L40.4,5.9 C40.4,5.8 40.5,5.8 40.6,5.8 C40.7,5.8 40.7,5.8 40.8,5.9 L41,6.1 C43,7.8 52.8,15 62.1,6.1 L62.1,6.1 C62.2,6 62.3,6 62.4,6 C62.5,6 62.6,6 62.7,6.1 C62.8,6.1 62.8,6.2 62.8,6.2 C64.6,8 72.4,14.7 80.7,7.5 C80.8,7.4 80.8,7.3 80.8,7.2 L80.8,3.8 C80.7,3.5 80.5,3.3 80.3,3.3"></path>
                    <path d="M80.3,15.7 L80.3,15.7 L80,15.8 C74.2,18.9 67.1,17.9 62.5,13.3 C62.4,13.2 62.2,13.1 62.1,13.1 C62,13.1 61.8,13.2 61.7,13.3 C59.4,15 49.7,21.6 41,13.5 L40.9,13.4 C40.8,13.3 40.7,13.3 40.6,13.3 C40.5,13.3 40.3,13.3 40.3,13.4 L40,13.5 C31.3,21.6 21.5,15 19.4,13.4 C19.3,13.3 19.2,13.2 19,13.2 C18.8,13.2 18.7,13.3 18.6,13.4 C11.5,20.2 3.6,17.1 1.1,15.9 L0.9,15.8 L0.8,15.8 C0.5,15.8 0.3,16 0.3,16.3 L0.3,16.3 L0.3,19.7 C0.3,19.8 0.4,19.9 0.4,20 C8.6,27.2 16.5,20.5 18.3,18.7 C18.4,18.6 18.4,18.6 18.5,18.5 C18.6,18.5 18.6,18.4 18.7,18.4 C18.8,18.4 19,18.5 19.1,18.6 C28.4,27.5 38.2,20.3 40.2,18.6 L40.4,18.4 C40.4,18.4 40.5,18.3 40.6,18.3 C40.7,18.3 40.7,18.3 40.8,18.4 L41,18.6 C43,20.3 52.8,27.5 62.1,18.6 L62.1,18.6 C62.2,18.5 62.3,18.5 62.4,18.5 C62.5,18.5 62.6,18.5 62.7,18.6 C62.8,18.6 62.8,18.7 62.8,18.7 C64.6,20.5 72.4,27.2 80.7,20 C80.8,19.9 80.8,19.8 80.8,19.7 L80.8,16.2 C80.8,15.9 80.5,15.7 80.3,15.7"></path>
                </g>
            </g>
        </g>
    </g>
</svg>