<?xml version="1.0" encoding="UTF-8"?>
<svg width="95px" height="95px" viewBox="0 0 95 95" version="1.1" xmlns="http://www.w3.org/2000/svg" xmlns:xlink="http://www.w3.org/1999/xlink">
    <!-- Generator: Sketch 53.2 (72643) - https://sketchapp.com -->
    <title>goal_12_target_12_2</title>
    <desc>Created with Sketch.</desc>
    <g id="goal_12_target_12_2" stroke="none" stroke-width="1" fill="none" fill-rule="evenodd">
        <g id="Group-94" fill-rule="nonzero">
            <rect id="Rectangle" fill="#BF8B2E" x="-3.62376795e-13" y="-2.13162821e-14" width="94.8" height="94.8"></rect>
            <g id="Group" transform="translate(11.700000, 7.000000)" fill="#FFFFFF">
                <path d="M36,20.4 C24.8,20.4 15.7,29.4 15.7,40.6 C15.7,51.8 24.7,60.9 35.9,60.9 C47.1,60.9 56.2,51.9 56.2,40.7 C56.2,40.7 56.2,40.7 56.2,40.7 C56.2,29.5 47.2,20.4 36,20.4 Z M46.2,56 C46,56.1 45.8,56.3 45.5,56.4 C42.7,58.1 39.4,59 36.1,59 C34.4,59 32.6,58.7 31,58.2 C30.7,58 30.6,57.6 30.8,57.3 C31.4,55.8 33.1,55.2 34.4,55.1 C37.4,54.8 41.3,57 41.9,56.7 C42.5,56.4 43.8,54.7 45.6,54.8 C46.2,54.8 46.7,54.9 47.2,55.2 C46.9,55.4 46.7,55.6 46.4,55.8 L46.2,56 Z M33.8,22.3 L34.2,22.3 C34.8,22.3 35.3,22.2 35.9,22.2 C44.6,22.2 52.1,28.3 54,36.8 C54,36.9 54,37 53.9,37.2 C53.7,37.8 53,38.1 52.3,37.9 C52,37.8 51.8,37.6 51.7,37.4 C51.5,37.1 50.7,36.4 50.8,37.7 C50.9,39 52,39.1 50.9,39.9 C50.3,40.3 49.7,40.6 49,40.7 C48.3,41.2 48,42.1 48.1,42.9 C48.2,43.6 49.9,45.5 48.7,45.5 C47.5,44.9 46.6,44.1 45.9,43 C45.5,42 45.1,41 44.8,40.2 C44.6,39.6 44,39.3 43.4,39.5 C43.3,39.5 43.2,39.6 43.1,39.7 C42.4,40.1 43.3,40.6 42.8,41.5 C42.3,42.4 42,43.3 41.3,42.5 C39.5,40.4 36.9,41.5 36.5,39.2 C36.3,38 35.2,38.1 34.3,37.4 C33.4,36.7 32.9,36.3 32.8,36.8 C32.7,37.3 35.6,39.6 35.8,40.2 C36.1,41.1 34.9,41.9 34,42.1 C33.1,42.3 32.8,41.6 31.9,40.7 C31,39.8 30.7,39.2 30.6,39.9 C30.7,41.1 31.3,42.2 32.3,42.9 C33.1,43.4 33.9,43.6 33.6,44.3 C33.3,45 33.6,44.6 32.8,45.5 C32.1,46 31.7,46.9 31.9,47.7 C31.9,48.9 31.7,48.9 31.5,49.9 C31.3,50.9 30.9,50 30.6,51.4 C30.4,52.3 30,53.1 29.5,53.8 C28.8,54.4 27.9,54.8 27,54.8 C26.2,54.7 26,52.5 26,51.4 C26,51 25.4,52.2 25.2,49.8 C25,48.3 24,50 24,48.9 C24,47.8 23.4,48.1 22.9,47.5 C22.4,46.9 21.7,47.6 21,47.9 C20.3,48.2 20.6,48.4 19.6,48.1 L19.5,48.1 C18.5,45.8 18.1,43.4 18.1,40.9 C18.1,40.3 18.1,38 19.1,37.4 C19.5,37.2 19.9,37.1 20.3,37.1 C21.3,37.3 22.3,37.5 23.3,37.9 C24.4,38.3 26,39.2 27,38.8 C27.7,38.5 28.3,38.1 28.2,37.5 C28.1,36.9 27.5,36.6 26.8,37.1 C26.5,37.3 26,36 25.6,36.1 C25.2,36.2 26.1,37.6 25.8,37.7 C25.5,37.8 24.7,36.2 24.6,35.9 C24.5,35.6 23.9,35 23.4,35.5 C22.3,36.5 20.7,36.1 20.1,36.3 C18.9,36.8 18.8,36.5 18.8,35.8 C18.8,35.6 18.8,35.4 18.9,35.3 C19.5,34.9 20.2,34.8 20.9,35.1 C21.4,35.4 21.7,35 21.9,34.8 C22.1,34.6 22,34.3 21.9,34 C21.8,33.7 22.1,33.6 22.4,33.5 C22.9,33.2 23.3,33 23.8,32.7 C24.7,32.4 25.7,32.4 26.6,32.7 C27.2,33 28,32.9 28.5,32.3 C28.9,31.9 29.3,31.5 29.8,31.2 C30.1,31.1 29.1,30.2 28.4,31.2 C27.7,32.2 27.3,32.2 26.9,32.2 C26.5,32.2 24.4,31.7 24.1,31 C23.8,30.3 24.8,29.8 25.6,29.5 C26.7,29.2 27.9,29.1 29.1,29 C30.2,28.8 31.6,28.2 32.3,28.7 C33,29.2 29.3,30 30.5,30.7 C30.9,30.9 32.9,29.6 33.6,29.2 C35.2,28.4 32.1,28.1 32.5,26.5 C33,24.6 28.7,25.4 26.6,25.5 C28.6,24.2 30.9,23.3 33.3,22.9 C33.2,22.4 33.5,22.4 33.8,22.3 Z M54.4,40.6 C54.4,41.8 54.3,43 54,44.2 C53.4,43.8 51.6,41.2 53.2,39.4 C53.5,39.1 52.6,38.2 52.9,38.2 C53.5,38.1 54.1,38.5 54.3,39.1 C54.3,39.6 54.4,40.1 54.4,40.6 Z M48.5,53.4 C47.5,52.9 47.6,53.7 47.1,53.5 C46.6,53.3 47.7,52.2 46.2,53.1 C44.7,54 45.1,52.9 44.5,51.3 C43.9,49.7 45.2,47.8 46.4,47.4 C47.5,47 48.6,46.7 49.7,46.5 C51.9,45.9 52.4,44.6 52.8,45.4 C52.9,45.6 53,45.7 53,45.8 C53.1,46.1 53.2,46.5 53.2,46.8 C52.3,49.3 50.8,51.6 48.9,53.5 C48.8,53.5 48.7,53.5 48.5,53.4 Z M49.2,43.4 C49,43.3 48.8,43.1 48.7,42.7 C48.6,42.5 48.7,42.2 48.9,42.1 C49,42 49.2,42.1 49.3,42.1 C49.7,42.3 50,42.7 50.2,43.2 C50.2,43.5 49.4,43.4 49.2,43.4 L49.2,43.4 Z M51.2,45.1 C50.6,45.4 50,45.3 49.4,44.9 C48.9,44.5 49.7,43.9 50,43.9 C50.6,43.9 51.6,44.7 51.2,45.1 L51.2,45.1 Z M41.1,43.3 C40.5,43.6 39.9,43.5 39.3,43.1 C38.8,42.7 39.6,42.1 39.9,42.1 C40.5,42.1 41.5,43 41.1,43.3 Z M33.6,47 C33.4,47.4 32.7,50.5 32.2,50.1 C31.7,49.7 32.4,46.5 32.5,46.3 C33.2,45 34.8,45 33.6,47 Z M20.5,30.9 C20.9,30.6 21.4,30.4 22,30.4 C22.5,30.3 23.1,30.6 23.1,30.9 C23.1,31.2 22,31.8 21.7,32 C21.1,32.6 20.1,33.8 19.5,33.9 C19.3,34 19.2,34 19,33.9 C19.4,32.9 19.8,32 20.3,31.1 L20.5,30.9 Z M23.4,27.3 C23.7,27.3 24.1,27.4 24.1,27.6 C24.1,28 24,28.4 23.8,28.8 C23.3,29.3 22.6,29.6 21.9,29.7 C21.7,29.7 21.5,29.6 21.4,29.4 C22,28.7 22.6,28 23.3,27.3 L23.4,27.3 Z" id="Shape"></path>
                <path d="M72.7,56.7 L72.7,56.7 L72.7,56.7 L69,54.7 C70,52.4 70.7,49.9 71.2,47.4 C73.5,34.8 69,21.9 59.2,13.6 C58.9,13.3 58.4,13.4 58.1,13.7 C58.1,13.7 58.1,13.7 58.1,13.7 L56.2,16 C56,16.3 56,16.7 56.3,17 C66.5,25.7 70.1,40 65.1,52.4 L60.9,50.1 C60.8,50.1 60.4,50 60.5,50.3 L60.5,50.3 L60.8,54.9 C61,58.6 61,58.5 61.1,60.4 L61.3,64.5 C61.3,64.9 61.8,64.6 61.8,64.6 L72.8,57.1 C73,57 72.8,56.8 72.7,56.7 Z" id="Path"></path>
                <path d="M0.9,33 L3.8,33.7 C4.2,33.8 4.6,33.5 4.7,33.1 C8,20.7 18.4,11.5 31.1,9.9 C31.1,10.2 31.1,10.5 31.1,10.9 L31.2,15 C31.2,15.4 31.7,15.1 31.7,15.1 L43,7.9 C43.4,7.7 43.2,7.5 43.1,7.4 L43,7.4 L43,7.4 L31.3,0.5 C31.2,0.5 30.8,0.4 30.9,0.7 L30.9,0.7 L31,5.3 L31,5.3 C16.2,7 4.1,17.6 0.3,32 C0.2,32.5 0.5,32.9 0.9,33 Z" id="Path"></path>
                <path d="M48,70.8 C47.8,70.4 47.4,70.2 47,70.4 C47,70.4 47,70.4 47,70.4 C33.2,75.9 17.5,70.9 9.4,58.5 L13.6,56.2 C13.7,56.1 14,55.9 13.6,55.7 L13.6,55.7 L9.6,53.5 C6.4,51.7 6.4,51.8 4.7,50.8 L1.1,48.8 C0.7,48.6 0.7,49.2 0.7,49.2 L1.2,62.5 C1.2,62.9 1.4,62.9 1.6,62.8 L1.7,62.7 L1.7,62.7 L5.4,60.7 C14.7,75.1 32.8,80.9 48.7,74.6 C49.1,74.4 49.3,74 49.1,73.6 L48,70.8 Z" id="Path"></path>
            </g>
        </g>
    </g>
</svg>