<?xml version="1.0" encoding="UTF-8"?>
<svg width="95px" height="95px" viewBox="0 0 95 95" version="1.1" xmlns="http://www.w3.org/2000/svg" xmlns:xlink="http://www.w3.org/1999/xlink">
    <!-- Generator: Sketch 53.2 (72643) - https://sketchapp.com -->
    <title>goal_6_target_6_3</title>
    <desc>Created with Sketch.</desc>
    <g id="goal_6_target_6_3" stroke="none" stroke-width="1" fill="none" fill-rule="evenodd">
        <g id="Group-42" fill-rule="nonzero">
            <g id="Group-41">
                <rect id="Rectangle" fill="#26BDE2" x="-3.62376795e-13" y="-2.13162821e-14" width="94.8" height="94.8"></rect>
                <g id="Group" transform="translate(8.700000, 9.000000)" fill="#FFFFFF">
                    <path d="M58.2,47.6 C58,47.6 57.7,47.6 57.5,47.5 C57,47.3 56.7,47 56.4,46.5 C56,45.5 56.5,44.4 57.4,44 C57.9,43.8 58.4,43.8 58.9,44 L58.9,44 C59.3,44.2 59.7,44.6 59.9,45 C60.1,45.5 60.1,46 59.9,46.4 C59.7,47.2 59,47.6 58.2,47.6 Z M58.2,44.3 C58,44.3 57.8,44.3 57.6,44.4 C56.9,44.7 56.6,45.5 56.9,46.3 C57.2,47 58,47.3 58.8,47 C59.5,46.7 59.8,45.9 59.5,45.2 C59.4,44.9 59.1,44.6 58.7,44.4 C58.6,44.3 58.4,44.3 58.2,44.3 L58.2,44.3 Z" id="Shape"></path>
                    <path d="M47.6,61 C47.4,61 47.1,61 46.9,60.9 C45.9,60.5 45.4,59.4 45.8,58.4 C45.8,58.4 45.8,58.4 45.8,58.4 C46.2,57.4 47.3,56.9 48.3,57.3 C48.3,57.3 48.3,57.3 48.3,57.3 L48.3,57.3 C48.7,57.5 49.1,57.9 49.3,58.3 C49.5,58.8 49.5,59.3 49.3,59.7 C49,60.5 48.3,61 47.6,61 Z M47.6,57.7 C47.4,57.7 47.2,57.7 47.1,57.8 C46.4,58.1 46,58.9 46.3,59.6 C46.3,59.6 46.3,59.6 46.3,59.6 C46.4,59.9 46.7,60.2 47.1,60.4 C47.8,60.7 48.6,60.4 48.9,59.6 C48.9,59.6 48.9,59.6 48.9,59.6 C49,59.3 49,58.9 48.9,58.5 C48.8,58.2 48.5,57.9 48.1,57.7 C47.9,57.7 47.8,57.7 47.6,57.7 L47.6,57.7 Z" id="Shape"></path>
                    <path d="M46.6,42.6 C46.4,42.6 46.3,42.6 46.2,42.5 C45.9,42.4 45.7,42.1 45.5,41.9 C45.4,41.6 45.4,41.3 45.5,41 C45.6,40.7 45.8,40.5 46.1,40.4 C46.4,40.3 46.7,40.3 47,40.4 L47,40.4 C47.6,40.6 47.9,41.3 47.7,41.9 C47.6,42.4 47.1,42.7 46.6,42.6 L46.6,42.6 Z M46.6,40.8 C46.5,40.8 46.4,40.8 46.3,40.9 C46,41 45.9,41.4 46,41.7 C46,41.7 46,41.7 46,41.7 C46.1,42.1 46.5,42.2 46.9,42.1 C47.3,42 47.4,41.6 47.3,41.2 C47.2,41 47.1,40.9 46.9,40.8 C46.8,40.8 46.7,40.8 46.6,40.8 L46.6,40.8 Z" id="Shape"></path>
                    <path d="M49.5,50.2 C49.4,50.2 49.2,50.2 49.1,50.1 C48.5,49.9 48.2,49.2 48.4,48.6 C48.7,48 49.3,47.7 49.9,48 L49.9,48 C50.2,48.1 50.4,48.3 50.6,48.6 C50.8,49.2 50.6,49.9 49.9,50.2 C49.9,50.2 49.7,50.3 49.5,50.2 L49.5,50.2 Z M49.5,48.4 C49.4,48.4 49.3,48.4 49.2,48.5 C49,48.6 48.9,48.7 48.8,48.9 C48.7,49.1 48.7,49.3 48.8,49.4 C48.9,49.6 49,49.7 49.2,49.8 C49.6,49.9 50,49.8 50.1,49.4 C50.2,49.2 50.2,49 50.1,48.9 C50,48.7 49.9,48.6 49.7,48.5 L49.7,48.5 C49.7,48.4 49.6,48.4 49.5,48.4 L49.5,48.4 Z" id="Shape"></path>
                    <path d="M56.6,66.3 C56.5,66.3 56.3,66.3 56.2,66.2 C55.9,66.1 55.7,65.9 55.5,65.6 C55.4,65.3 55.4,65 55.5,64.7 C55.7,64.1 56.4,63.8 57,64 L57,64 C57.6,64.2 57.9,64.9 57.7,65.5 C57.5,66 57,66.3 56.6,66.3 L56.6,66.3 Z M56.6,64.4 C56.5,64.4 56.4,64.4 56.3,64.5 C56.1,64.6 56,64.7 55.9,64.9 C55.8,65.1 55.8,65.3 55.9,65.4 C56,65.6 56.1,65.7 56.3,65.8 C56.7,65.9 57,65.8 57.2,65.4 C57.4,65 57.2,64.7 56.8,64.5 L56.8,64.5 C56.7,64.5 56.7,64.5 56.6,64.4 L56.6,64.4 Z" id="Shape"></path>
                    <g transform="translate(38.000000, 31.000000)" id="Shape">
                        <path d="M1.9,40.2 L0.2,40.2 L0.2,35.5 L1.9,35.5 L1.9,40.2 Z M1.9,31.4 L0.2,31.4 L0.2,26.7 L1.9,26.7 L1.9,31.4 Z M1.9,22.5 L0.2,22.5 L0.2,17.8 L1.9,17.8 L1.9,22.5 Z"></path>
                        <path d="M1.9,13.8 L0.2,13.8 L0.2,9 L1.9,9 L1.9,13.8 Z M1.9,5 L0.2,5 L0.2,0.3 L1.9,0.3 L1.9,5 Z"></path>
                    </g>
                    <path d="M39.9,27.4 L38.2,27.4 L38.2,22.7 L39.9,22.7 L39.9,27.4 Z M39.9,18.6 L38.2,18.6 L38.2,13.9 L39.9,13.9 L39.9,18.6 Z M39.9,9.7 L38.2,9.7 L38.2,5 L39.9,5 L39.9,9.7 Z" id="Shape"></path>
                    <path d="M76.4,0.3 C76.2,0.1 76,0 75.7,0 L1.7,0 C1.4,0 1.2,0.1 1,0.3 C0.8,0.5 0.8,0.8 0.8,1 L13.2,76.2 C13.3,76.6 13.6,76.9 14.1,76.9 L64.1,76.9 C64.5,76.9 64.9,76.6 64.9,76.2 L76.6,1 C76.6,0.8 76.5,0.5 76.4,0.3 Z M72.4,19.5 L71.6,24.4 C71.1,24.4 70.5,24.3 70,24.3 L69.3,28.6 C69.8,28.7 70.4,28.7 70.9,28.6 L70.2,33.2 C69.7,33.1 69.1,33 68.6,32.9 L62.1,73.5 L16.4,73.5 L9.3,33 L8.5,28.6 L7.8,24.4 L7,19.6 L4.1,3.3 L73.3,3.3 L70.7,19.6 C71.3,19.6 71.8,19.6 72.4,19.5 L72.4,19.5 Z" id="Shape"></path>
                    <path d="M62.2,16.1 C62.1,16 62,16 61.9,16 C61.8,16 61.7,16 61.6,16.1 L61.5,16.2 C54.5,22.7 46.7,18.2 44.2,16.4 L44,16.3 C43.9,16.3 43.9,16.2 43.8,16.2 C43.6,16.2 43.5,16.3 43.4,16.5 L43.4,20.4 L43.4,20.4 L43.4,20.4 C43.4,20.5 43.4,20.6 43.5,20.6 L43.5,20.6 C51.5,28 59.8,21.9 61.6,20.4 L61.8,20.2 C61.9,20.2 61.9,20.2 62,20.2 C62.1,20.2 62.1,20.2 62.2,20.2 L62.4,20.4 C64.6,22.3 67.3,23.6 70.2,24.1 C70.7,24.2 71.3,24.2 71.8,24.2 L72.6,19.3 C72.1,19.4 71.5,19.4 71,19.4 C67.8,19.4 64.8,18.2 62.6,16 L62.2,16.1 Z" id="Path"></path>
                    <path d="M62.2,25 C62.1,24.9 62,24.9 61.9,24.9 C61.8,24.9 61.7,24.9 61.6,25 L61.5,25.1 C54.5,31.6 46.7,27.1 44.2,25.3 L44,25.2 C43.9,25.2 43.9,25.1 43.8,25.2 C43.6,25.2 43.5,25.3 43.4,25.5 L43.4,29.4 L43.4,29.4 C43.4,29.4 43.4,29.4 43.4,29.4 C43.4,29.5 43.4,29.6 43.5,29.6 L43.5,29.6 C51.5,37 59.8,30.9 61.6,29.4 L61.8,29.2 C61.9,29.2 61.9,29.2 62,29.2 C62.1,29.2 62.1,29.2 62.2,29.2 L62.4,29.4 C64.3,30.9 66.5,32.1 68.8,32.7 C69.3,32.8 69.9,32.9 70.4,33 L71.2,28.4 C70.7,28.4 70.1,28.4 69.6,28.4 C67,28.1 64.5,26.9 62.6,25 L62.2,25 Z" id="Path"></path>
                </g>
            </g>
            <g id="Group" opacity="0.5" transform="translate(27.700000, 52.000000)" fill="#000300">
                <polygon id="Path" points="0 9.2 1.5 0.6 13.3 8.8 6.2 12.3"></polygon>
            </g>
            <g id="Group" transform="translate(14.700000, 24.000000)" fill="#000000">
                <polygon id="Path" points="16.6 33.6 16 37.1 18.3 34.8"></polygon>
                <polygon id="Path" points="21.3 36.9 15.7 42.5 18.9 44 24.1 38.8"></polygon>
                <g id="Path">
                    <g transform="translate(7.000000, 23.000000)">
                        <path d="M19.6,2.6 C20.1,2.8 20.3,3.3 20.1,3.8 C20.1,3.8 20.1,3.8 20.1,3.8 C19.9,4.3 19.4,4.5 18.9,4.3 C18.4,4.1 18.2,3.6 18.4,3.1 L18.4,3.1 C18.6,2.6 19.2,2.4 19.6,2.6"></path>
                        <path d="M14.2,3.5 C14.7,3.7 14.9,4.2 14.7,4.7 C14.5,5.2 13.9,5.4 13.5,5.2 C13,5 12.8,4.5 13,4 L13,4 C13.2,3.5 13.7,3.3 14.2,3.5"></path>
                        <path d="M22.6,9 C23.1,9.2 23.3,9.8 23,10.3 C22.8,10.7 22.3,10.9 21.9,10.8 C21.4,10.6 21.1,10.1 21.3,9.6 C21.5,9.1 22,8.8 22.5,9 C22.5,9 22.5,9 22.6,9"></path>
                        <path d="M20.6,20.2 C21.1,20.4 21.3,20.9 21.1,21.4 C20.9,21.9 20.4,22.1 19.9,21.9 C19.4,21.7 19.2,21.2 19.4,20.7 C19.4,20.7 19.4,20.7 19.4,20.7 C19.6,20.2 20.1,20 20.6,20.2"></path>
                        <path d="M5.4,18 C5.9,18.2 6.1,18.7 5.9,19.2 C5.7,19.7 5.2,19.9 4.7,19.7 L4.7,19.7 C4.2,19.5 4,19 4.2,18.5 C4.2,18.5 4.2,18.5 4.2,18.5 C4.4,18 5,17.8 5.4,18"></path>
                        <path d="M4.5,5.9 C5,6.1 5.2,6.6 5,7.1 C4.8,7.6 4.3,7.8 3.8,7.6 C3.3,7.4 3.1,6.9 3.3,6.4 C3.3,6.4 3.3,6.4 3.3,6.4 C3.5,6 4,5.7 4.5,5.9"></path>
                        <path d="M8.2,0.7 C8.7,0.9 8.9,1.4 8.7,1.9 C8.5,2.4 8,2.6 7.5,2.4 C7,2.2 6.8,1.7 6.9,1.2 C6.9,1.2 6.9,1.2 6.9,1.2 C7.2,0.7 7.7,0.5 8.2,0.7 C8.2,0.7 8.2,0.7 8.2,0.7"></path>
                        <path d="M2.2,0.4 C2.7,0.6 2.9,1.1 2.7,1.6 C2.7,1.6 2.7,1.6 2.7,1.6 C2.6,2.1 2.1,2.4 1.6,2.4 C1.1,2.3 0.8,1.8 0.8,1.3 C0.8,1.2 0.9,1 1,0.9 C1.2,0.4 1.7,0.2 2.2,0.4"></path>
                        <path d="M14.2,26.5 C14.7,26.7 14.9,27.2 14.7,27.7 C14.6,28.2 14,28.5 13.5,28.3 C13,28.2 12.7,27.6 12.9,27.1 C12.9,27 12.9,27 13,27 C13.2,26.6 13.7,26.3 14.2,26.5"></path>
                        <path d="M9.8,31 C10.3,31.2 10.5,31.7 10.3,32.2 C10.1,32.7 9.6,32.9 9.1,32.7 C8.6,32.5 8.4,32 8.6,31.5 C8.6,31.5 8.6,31.5 8.6,31.5 C8.8,31 9.3,30.8 9.8,31"></path>
                        <path d="M7.3,25.2 C7.8,25.4 8,26 7.7,26.5 C7.5,26.9 7,27.1 6.6,27 C6.1,26.8 5.9,26.2 6.2,25.7 C6.4,25.3 6.9,25 7.3,25.2"></path>
                        <path d="M19.6,28.9 C20.1,29.1 20.3,29.6 20.1,30.1 C20.1,30.1 20.1,30.1 20.1,30.1 C19.9,30.6 19.4,30.8 18.9,30.6 C18.9,30.6 18.9,30.6 18.9,30.6 C18.4,30.4 18.2,29.9 18.4,29.4 C18.6,28.9 19.2,28.7 19.6,28.9"></path>
                    </g>
                    <g>
                        <path d="M10.2,5.4 C10.3,5.4 10.3,5.4 10.4,5.4 C10.5,5.4 10.5,5.4 10.6,5.4 L10.8,5.6 C12.4,7 20.6,13 28.5,6 L28.7,5.8 C28.8,5.7 28.8,5.6 28.8,5.6 L28.8,1.6 C28.8,1.4 28.6,1.2 28.4,1.2 C28.4,1.2 28.3,1.2 28.3,1.2 L28.1,1.3 C25.7,3 17.8,7.8 10.6,1.1 L10.5,1 C10.4,0.9 10.3,0.9 10.2,0.9 C10.1,0.9 10,0.9 9.9,1 L9.8,1.1 C7.5,3.5 4.2,4.7 0.9,4.5 L1.7,9.2 C4.7,8.7 7.5,7.5 9.9,5.5 L10.2,5.4 Z"></path>
                        <path d="M10.2,14.3 C10.3,14.3 10.3,14.3 10.4,14.3 C10.5,14.3 10.5,14.3 10.6,14.3 L10.8,14.5 C12.5,15.9 20.7,22 28.6,14.9 L28.8,14.7 C28.9,14.6 28.9,14.5 28.9,14.5 L28.9,10.6 C28.9,10.4 28.7,10.2 28.5,10.2 L28.4,10.2 L28.2,10.3 C25.8,12 17.9,16.8 10.7,10.1 L10.6,10 C10.5,9.9 10.4,9.9 10.3,9.9 C10.2,9.9 10.1,9.9 10,10 L9.9,10.1 C7.9,12.1 5.3,13.2 2.5,13.5 L3.3,17.9 C5.8,17.3 8.1,16.1 10,14.5 L10.2,14.3 Z"></path>
                    </g>
                </g>
            </g>
        </g>
    </g>
</svg>