<?xml version="1.0" encoding="UTF-8"?>
<svg width="95px" height="95px" viewBox="0 0 95 95" version="1.1" xmlns="http://www.w3.org/2000/svg" xmlns:xlink="http://www.w3.org/1999/xlink">
    <!-- Generator: Sketch 53.2 (72643) - https://sketchapp.com -->
    <title>goal_2_target_2_c</title>
    <desc>Created with Sketch.</desc>
    <g id="goal_2_target_2_c" stroke="none" stroke-width="1" fill="none" fill-rule="evenodd">
        <g id="Group-16" fill-rule="nonzero">
            <rect id="Rectangle" fill="#DDA63A" x="9.23705556e-14" y="-2.13162821e-14" width="94.8" height="94.8"></rect>
            <g id="Group" transform="translate(12.700000, 13.000000)" fill="#FFFFFF">
                <rect id="Rectangle" x="15.1" y="57.9" width="1" height="10.1"></rect>
                <g>
                    <rect id="Rectangle" x="24.1" y="53.5" width="3" height="1"></rect>
                    <rect id="Rectangle" x="39.1" y="53.5" width="3" height="1"></rect>
                    <rect id="Rectangle" x="49.1" y="53.5" width="3" height="1"></rect>
                    <rect id="Rectangle" x="34.1" y="53.5" width="3" height="1"></rect>
                    <rect id="Rectangle" x="4.1" y="53.5" width="3" height="1"></rect>
                    <rect id="Rectangle" x="54.1" y="53.5" width="3" height="1"></rect>
                    <rect id="Rectangle" x="64.1" y="53.5" width="2.8" height="1"></rect>
                    <rect id="Rectangle" x="4.1" y="39.4" width="3" height="1"></rect>
                    <rect id="Rectangle" x="34.1" y="39.4" width="3" height="1"></rect>
                    <rect id="Rectangle" x="49.1" y="39.4" width="3" height="1"></rect>
                    <rect id="Rectangle" x="54.1" y="39.4" width="3" height="1"></rect>
                    <rect id="Rectangle" x="64.1" y="39.4" width="2.8" height="1"></rect>
                    <rect id="Rectangle" x="19.1" y="39.4" width="3" height="1"></rect>
                    <rect id="Rectangle" x="9.1" y="39.4" width="3" height="1"></rect>
                    <rect id="Rectangle" x="4.1" y="25.2" width="3" height="1"></rect>
                    <rect id="Rectangle" x="64.1" y="25.2" width="2.8" height="1"></rect>
                    <rect id="Rectangle" x="34.1" y="25.2" width="3" height="1"></rect>
                    <rect id="Rectangle" x="49.1" y="25.2" width="3" height="1"></rect>
                    <rect id="Rectangle" x="19.1" y="25.2" width="3" height="1"></rect>
                    <rect id="Rectangle" x="24.1" y="25.2" width="3" height="1"></rect>
                    <rect id="Rectangle" x="9.1" y="25.2" width="3" height="1"></rect>
                    <rect id="Rectangle" x="14.1" y="25.2" width="3" height="1"></rect>
                    <rect id="Rectangle" x="44.1" y="11" width="3" height="1"></rect>
                    <rect id="Rectangle" x="49.1" y="11" width="3" height="1"></rect>
                    <rect id="Rectangle" x="39.1" y="11" width="3" height="1"></rect>
                    <rect id="Rectangle" x="4.1" y="11" width="3" height="1"></rect>
                    <rect id="Rectangle" x="34.1" y="11" width="3" height="1"></rect>
                    <rect id="Rectangle" x="14.1" y="11" width="3" height="1"></rect>
                    <rect id="Rectangle" x="19.1" y="11" width="3" height="1"></rect>
                    <rect id="Rectangle" x="29.1" y="11" width="3" height="1"></rect>
                    <rect id="Rectangle" x="24.1" y="11" width="3" height="1"></rect>
                    <rect id="Rectangle" x="59.1" y="11" width="3" height="1"></rect>
                    <rect id="Rectangle" x="54.1" y="11" width="3" height="1"></rect>
                    <rect id="Rectangle" x="9.1" y="11" width="3" height="1"></rect>
                    <path d="M59.3,66.4 L59.3,54.2 L62.1,54.2 L62.1,53.5 L59.3,53.5 L59.3,40.1 L62.1,40.1 L62.1,39.4 L59.9,39.4 C60.4,39.3 60.8,39.1 61.3,38.9 C61.4,38.8 61.5,38.8 61.6,38.7 C61.9,38.4 62.2,38.1 62.3,37.7 C62.6,36.8 62.7,35.8 62.6,34.8 L62.2,35 C61.2,35.5 60.3,36.1 59.5,36.9 C59.1,37.5 58.9,38.2 59,39 L58.4,39 C58.5,38.3 58.3,37.5 57.9,36.9 C57.2,36.2 56.4,35.6 55.5,35.2 L55,34.8 C55,34.8 54.8,37.2 55.6,38.4 C55.7,38.5 55.8,38.7 56,38.8 C56.1,38.9 56.2,38.9 56.3,39 C56.9,39.3 57.6,39.5 58.3,39.6 L58.3,66.5 L44.4,66.5 L44.4,54.2 L47,54.2 L47,53.5 L44.4,53.5 L44.4,44.6 L43.4,44.6 L43.4,66.4 L30.2,66.4 L30.2,54.2 L32,54.2 L32,53.5 L29,53.5 L29,54.2 L29.2,54.2 L29.2,66.4 L2.6,66.4 L2.6,35.9 L29.3,27.8 L43.5,18.5 L68.5,12.7 L68.5,10.7 L66.8,11.1 L66.8,11 L64,11 L64,11.7 L64.2,11.7 L43.1,16.6 L30,25.2 L29,25.2 L29,25.8 L28.8,25.9 L2.6,33.8 L2.6,0.3 L0.4,0.3 L0.4,68.7 L69.1,68.7 L69.1,66.5 L59.3,66.5 L59.3,66.4 Z" id="Path"></path>
                    <path d="M58.8,26.1 C58.8,26.1 60.3,25.3 60.3,24.4 C60.3,23.2 58.9,21.8 58.9,21.7 L58.9,21.7 C58.9,21.7 57.5,23.2 57.5,24.4 C57.3,25.3 58.4,25.9 58.8,26.1 Z" id="Path"></path>
                    <path d="M56.4,27.8 C56.4,27.8 56.8,28.3 58.5,28.5 C58.5,28.5 58.7,26.9 58.1,26.2 C57.4,25.5 56.6,24.9 55.7,24.5 L55.6,24.5 C55.6,24.5 55.6,24.8 55.6,25.2 L54.1,25.2 L54.1,25.9 L55.6,25.9 C55.6,26 55.6,26.1 55.6,26.2 C55.7,26.8 56,27.4 56.4,27.8 Z" id="Path"></path>
                    <path d="M58.5,35.9 C58.5,35.9 58.8,34.1 58.1,33.3 C57.4,32.5 56.6,31.8 55.6,31.3 L55.4,31.1 C55.3,32.1 55.3,33.2 55.6,34.2 C55.7,34.5 55.9,34.8 56.2,35 C56.8,35.5 57.6,35.8 58.5,35.9 Z" id="Path"></path>
                    <path d="M61.1,27.8 C62.2,27 61.9,24.5 61.9,24.5 C61,24.9 60.1,25.5 59.4,26.2 C58.8,26.9 59,28.5 59,28.5 C60.8,28.2 61.1,27.8 61.1,27.8 Z" id="Path"></path>
                    <path d="M59.5,29.5 C58.8,30.2 59,32 59,32 C60.8,31.7 61.2,31.2 61.2,31.2 C61.9,30.5 62.2,29.5 62.1,28.5 C62.1,28.3 62.1,28.1 62.1,28 C62.1,27.9 62.1,27.7 62.1,27.6 C59.9,28.9 59.5,29.5 59.5,29.5 Z" id="Path"></path>
                    <path d="M61.3,35 C62.5,34.2 62.1,31.2 62.1,31.2 C59.8,32.5 59.4,33.3 59.4,33.3 C58.8,34 59,35.8 59,35.8 C60.9,35.6 61.3,35 61.3,35 Z" id="Path"></path>
                    <path d="M56.2,21.7 L56.2,19 C56.2,18.9 56.1,18.7 55.9,18.7 C55.8,18.7 55.6,18.8 55.6,19 L55.6,24 L56.1,24.3 L56.1,21.7 L56.2,21.7 Z" id="Path"></path>
                    <path d="M56.7,24.1 C56.8,23.6 57,23.2 57.2,22.8 L57.2,18.1 C57.2,18 57.1,17.8 56.9,17.8 C56.8,17.8 56.6,17.9 56.6,18.1 L56.6,24.1 L56.7,24.1 Z" id="Path"></path>
                    <path d="M58,21.7 L58.4,21.2 L58.4,16.8 C58.4,16.7 58.3,16.5 58.1,16.5 C58,16.5 57.8,16.6 57.8,16.8 L57.8,22 L58,21.7 Z" id="Path"></path>
                    <path d="M61.9,24 L61.9,19 C61.9,18.9 61.8,18.7 61.6,18.7 C61.5,18.7 61.3,18.8 61.3,19 L61.3,24.3 L61.9,24 Z" id="Path"></path>
                    <path d="M60.8,24.1 L60.8,24.1 L60.8,18.1 C60.8,18 60.7,17.8 60.5,17.8 C60.4,17.8 60.2,17.9 60.2,18.1 C60.2,18.1 60.2,18.1 60.2,18.1 L60.2,22.8 C60.5,23.2 60.7,23.6 60.8,24.1 Z" id="Path"></path>
                    <path d="M59.7,21.7 L59.7,16.7 C59.7,16.6 59.6,16.4 59.4,16.4 C59.3,16.4 59.1,16.5 59.1,16.7 L59.1,16.7 L59.1,21.2 L59.5,21.7 C59.5,21.8 59.6,21.8 59.6,21.9 L59.6,21.7 L59.7,21.7 Z" id="Path"></path>
                    <path d="M58.5,32 C58.5,32 58.7,30.2 58,29.5 C57.3,28.8 56.5,28.2 55.6,27.8 L55.3,27.6 C55.3,28 55.3,28.3 55.3,28.7 L55.3,29.3 C55.3,29.6 55.4,30 55.5,30.3 C55.6,30.7 55.8,31 56.1,31.2 C56.2,31.1 56.7,31.7 58.5,32 Z" id="Path"></path>
                    <path d="M45.4,28.5 C45.4,27.3 44,25.8 44,25.8 C44,25.8 42.6,27.3 42.6,28.5 C42.6,29.5 43.7,30 44,30.2 C43.9,30.2 45.4,29.5 45.4,28.5 Z" id="Path"></path>
                    <path d="M41.6,31.9 C41.6,31.9 42,32.4 43.7,32.6 C43.7,32.6 43.9,31 43.2,30.3 C42.5,29.6 41.7,29 40.8,28.6 L40.7,28.6 C40.7,29.2 40.7,29.7 40.8,30.3 C40.9,30.9 41.1,31.5 41.6,31.9 Z" id="Path"></path>
                    <path d="M43.7,40 C43.7,40 44,38.2 43.3,37.4 C43.3,37.4 42.9,36.7 40.8,35.4 L40.6,35.2 C40.5,36.2 40.5,37.3 40.8,38.3 C40.9,38.6 41.1,38.9 41.3,39.1 C41.3,39.1 41.8,39.7 43.7,40 Z" id="Path"></path>
                    <path d="M43.6,43.7 C43.6,43.7 43.8,41.7 43.1,41 C42.4,40.3 41.6,39.7 40.7,39.3 L40.1,39 C40.1,39 40.1,39.2 40.1,39.5 L39,39.5 L39,40.2 L40.1,40.2 C40.1,41 40.3,41.8 40.7,42.5 C40.8,42.6 40.9,42.8 41.1,42.9 C41.9,43.4 42.7,43.7 43.6,43.7 Z" id="Path"></path>
                    <path d="M44.7,30.3 C44.1,31 44.3,32.6 44.3,32.6 C46,32.3 46.4,31.9 46.4,31.9 C46.9,31.5 47.2,30.9 47.2,30.2 C47.3,29.7 47.3,29.1 47.2,28.6 L47.2,28.6 C46.2,29 45.4,29.6 44.7,30.3 Z" id="Path"></path>
                    <path d="M44.7,33.6 C44,34.3 44.2,36.1 44.2,36.1 C46,35.8 46.4,35.3 46.4,35.3 C46.7,35.1 46.9,34.7 47.1,34.4 C47.4,33.5 47.5,32.6 47.4,31.7 L47.1,31.9 C46.2,32.3 45.4,32.9 44.7,33.6 Z" id="Path"></path>
                    <path d="M44.6,37.4 C43.9,38.1 44.2,40 44.2,40 C45,40 45.8,39.7 46.5,39.2 C46.8,39 46.9,38.7 47.1,38.4 C47.4,37.4 47.5,36.4 47.3,35.4 L47.1,35.5 C45,36.7 44.6,37.4 44.6,37.4 Z" id="Path"></path>
                    <path d="M44.7,41 C44,41.7 44.2,43.7 44.2,43.7 C45.1,43.6 45.9,43.3 46.7,42.8 C46.8,42.7 47,42.6 47.1,42.4 C47.6,41.3 47.8,40.1 47.7,38.9 L47.1,39.2 C46.2,39.7 45.4,40.3 44.7,41 Z" id="Path"></path>
                    <path d="M41.3,23.2 L41.3,23.1 C41.3,23 41.2,22.8 41,22.8 C40.8,22.8 40.7,22.9 40.7,23.1 L40.7,25.2 L39,25.2 L39,25.9 L40.7,25.9 L40.7,28.1 L41.2,28.4 L41.2,23.2 L41.3,23.2 Z" id="Path"></path>
                    <path d="M41.9,28.2 C42,27.7 42.2,27.3 42.4,26.9 L42.4,22.2 C42.4,22.1 42.3,21.9 42.1,21.9 C41.9,21.9 41.8,22 41.8,22.2 C41.9,22.2 41.9,28.2 41.9,28.2 Z" id="Path"></path>
                    <path d="M43.6,25.3 L43.6,20.8 C43.6,20.7 43.5,20.5 43.3,20.5 C43.2,20.5 43,20.6 43,20.8 L43,26 L43.6,25.3 Z" id="Path"></path>
                    <path d="M47.1,28.1 L47.1,23.1 C47.1,23 47,22.8 46.8,22.8 C46.6,22.8 46.5,22.9 46.5,23.1 L46.5,23.1 L46.5,28.4 L47.1,28.1 Z" id="Path"></path>
                    <path d="M46,28.2 L46,28.2 L46,22.2 C46,22.1 45.9,21.9 45.7,21.9 C45.5,21.9 45.4,22 45.4,22.2 L45.4,26.9 C45.7,27.3 45.9,27.8 46,28.2 Z" id="Path"></path>
                    <path d="M44.8,26 L44.8,20.8 C44.8,20.7 44.7,20.5 44.5,20.5 C44.3,20.5 44.2,20.6 44.2,20.8 L44.2,25.3 L44.8,26 Z" id="Path"></path>
                    <path d="M43.7,36.1 C43.7,36.1 43.9,34.3 43.2,33.6 C42.5,32.9 41.7,32.3 40.8,31.9 L40.5,31.7 C40.5,32.1 40.5,32.4 40.5,32.8 L40.5,33.4 C40.5,33.7 40.6,34.1 40.7,34.4 C40.8,34.8 41,35.1 41.3,35.3 C41.4,35.3 41.8,35.8 43.7,36.1 Z" id="Path"></path>
                    <path d="M31.2,37.4 C31.2,36.2 29.8,34.7 29.8,34.7 C29.8,34.7 28.4,36.2 28.4,37.4 C28.4,38.3 29.5,38.9 29.8,39.1 C29.8,39.1 31.2,38.3 31.2,37.4 Z" id="Path"></path>
                    <path d="M29.5,41.5 C29.5,41.5 29.7,39.9 29,39.2 C28.4,38.6 27.7,38 26.9,37.7 L26.6,37.5 C26.5,38.2 26.6,38.8 26.7,39.5 L24.1,39.5 L24.1,40.2 L26.9,40.2 C26.9,40.3 27,40.4 27,40.4 C27.1,40.6 27.2,40.7 27.4,40.8 C27.4,40.8 27.8,41.3 29.5,41.5 Z" id="Path"></path>
                    <path d="M29.1,46.3 C28.6,45.7 28,45.1 27.3,44.7 C27,44.5 26.8,44.4 26.4,44.1 C26.4,44.1 26,47.1 27.2,47.9 C27.3,48 27.4,48.1 27.5,48.1 C28.1,48.4 28.8,48.7 29.5,48.7 C29.5,48.9 29.8,47.1 29.1,46.3 Z" id="Path"></path>
                    <path d="M29.4,52.6 C29.4,52.6 29.6,50.6 29,49.9 C28.6,49.4 28.1,49 27.5,48.7 C27.1,48.4 26.6,48.2 26,47.8 C26,47.8 25.8,50.9 27,51.7 C27.2,51.9 27.4,52 27.7,52.1 C28.2,52.4 28.8,52.5 29.4,52.6 Z" id="Path"></path>
                    <path d="M30.5,39.2 C29.9,39.9 30,41.5 30,41.5 C31.7,41.2 32.1,40.8 32.1,40.8 C32.7,40.2 33,39.4 33,38.6 C33,38.3 33,38 33,37.7 C33,37.6 33,37.5 33,37.5 C32.1,37.9 31.2,38.5 30.5,39.2 Z" id="Path"></path>
                    <path d="M30.5,42.5 C29.8,43.2 30,45 30,45 C31.8,44.7 32.2,44.2 32.2,44.2 C32.6,43.9 32.8,43.5 33,43.1 C33.2,42.3 33.3,41.4 33.2,40.6 L33,40.7 C32.1,41.2 31.2,41.8 30.5,42.5 Z" id="Path"></path>
                    <path d="M30.4,46.3 C29.7,47 30,48.9 30,48.9 C30.8,48.9 31.7,48.5 32.3,48 C32.6,47.8 32.8,47.5 33,47.1 C33.2,46.2 33.3,45.2 33.2,44.2 L33,44.3 C30.8,45.6 30.4,46.3 30.4,46.3 Z" id="Path"></path>
                    <path d="M30.5,49.9 C29.8,50.6 30,52.6 30,52.6 C30.9,52.5 31.7,52.2 32.5,51.7 C32.7,51.6 32.8,51.4 32.9,51.2 C33.3,50.1 33.5,48.9 33.4,47.8 L33,48.1 C32.1,48.6 31.2,49.2 30.5,49.9 Z" id="Path"></path>
                    <path d="M27.2,32 C27.2,31.9 27.1,31.7 26.9,31.7 C26.7,31.7 26.6,31.8 26.6,32 L26.6,37 L26.8,37.1 L27.1,37.3 L27.1,32 L27.2,32 Z" id="Path"></path>
                    <path d="M27.7,37.1 L27.7,37.1 C27.8,36.6 28,36.2 28.2,35.8 L28.2,31.1 C28.2,31 28.2,31 28.1,30.9 C28,30.8 28,30.8 27.9,30.8 C27.8,30.8 27.8,30.8 27.7,30.9 C27.7,31 27.6,31 27.6,31.1 L27.6,37.1 L27.7,37.1 Z" id="Path"></path>
                    <path d="M29.4,34.2 L29.4,29.8 C29.4,29.7 29.3,29.5 29.2,29.5 C29.1,29.5 28.9,29.6 28.9,29.7 C28.9,29.7 28.9,29.8 28.9,29.8 L28.9,35 L29.4,34.2 Z" id="Path"></path>
                    <path d="M32.9,32 C32.9,31.9 32.8,31.7 32.6,31.7 C32.4,31.7 32.3,31.8 32.3,32 L32.3,37.3 L32.8,37 L32.8,32 L32.9,32 Z" id="Path"></path>
                    <path d="M31.3,35.8 C31.5,36.2 31.7,36.7 31.8,37.1 L31.8,37.1 L31.8,31.1 C31.8,31 31.7,30.8 31.5,30.8 C31.3,30.8 31.2,30.9 31.2,31.1 L31.2,35.8 L31.3,35.8 Z" id="Path"></path>
                    <path d="M30.7,34.9 L30.7,29.7 C30.7,29.6 30.6,29.4 30.4,29.4 C30.2,29.4 30.1,29.5 30.1,29.7 L30.1,34.1 C30.3,34.4 30.5,34.7 30.7,34.9 Z" id="Path"></path>
                    <path d="M29.5,45 C29.5,45 29.7,43.2 29,42.5 C28.5,41.9 27.8,41.4 27.1,41.1 L26.4,40.7 C26.4,41.1 26.4,41.4 26.4,41.8 L26.4,42.4 C26.4,43.1 26.7,43.8 27.3,44.3 L27.3,44.3 C27.2,44.2 27.6,44.7 29.5,45 Z" id="Path"></path>
                    <path d="M17,41.7 C17,40.5 15.6,39.1 15.6,39.1 C15.6,39.1 14.2,40.6 14.2,41.7 C14.2,42.7 15.3,43.2 15.6,43.4 C15.6,43.4 17,42.7 17,41.7 Z" id="Path"></path>
                    <path d="M13.2,45.1 C13.2,45.1 13.6,45.6 15.3,45.8 C15.3,45.8 15.5,44.2 14.8,43.5 C14.1,42.8 13.3,42.2 12.4,41.8 L12.3,41.8 C12.3,42.4 12.3,42.9 12.4,43.5 C12.5,44.1 12.8,44.7 13.2,45.1 Z" id="Path"></path>
                    <path d="M15.3,53.2 C15.3,53.2 15.6,51.4 14.9,50.6 C14.2,49.8 13.4,49.1 12.4,48.6 L12.2,48.4 C12.1,49.4 12.1,50.5 12.4,51.5 C12.5,51.8 12.7,52.1 12.9,52.3 C13.6,52.8 14.4,53.1 15.3,53.2 Z" id="Path"></path>
                    <path d="M15.2,56.9 C15.2,56.9 15.4,54.9 14.7,54.2 C14,53.5 13.2,52.9 12.3,52.5 L11.7,52.2 C11.7,52.7 11.7,53.1 11.7,53.6 L9,53.6 L9,54.3 L11.9,54.3 C12,54.8 12.1,55.3 12.4,55.7 C12.5,55.8 12.6,56 12.8,56.1 C13.5,56.6 14.4,56.9 15.2,56.9 Z" id="Path"></path>
                    <path d="M16.3,43.5 C15.7,44.2 15.8,45.8 15.8,45.8 C17.5,45.5 17.9,45.1 17.9,45.1 C18.7,44.6 18.8,43.2 18.8,42.4 C18.8,42 18.8,41.8 18.8,41.8 C17.9,42.2 17,42.8 16.3,43.5 Z" id="Path"></path>
                    <path d="M16.3,46.8 C15.6,47.5 15.8,49.3 15.8,49.3 C17.6,49 18,48.5 18,48.5 C18.4,48.2 18.6,47.8 18.7,47.4 C18.9,46.6 19,45.8 18.9,45 L18.8,45 C17.9,45.5 17,46.1 16.3,46.8 Z" id="Path"></path>
                    <path d="M16.2,50.6 C15.5,51.3 15.8,53.2 15.8,53.2 C17.6,52.9 18.1,52.4 18.1,52.4 C18.4,52.1 18.6,51.8 18.7,51.4 C18.9,50.5 19,49.5 18.9,48.6 L18.7,48.7 C16.6,49.9 16.2,50.6 16.2,50.6 Z" id="Path"></path>
                    <path d="M16.3,54.2 C15.6,54.9 15.9,56.9 15.9,56.9 C16.8,56.8 17.6,56.5 18.3,56 C18.5,55.9 18.6,55.7 18.8,55.5 C19,55.1 19.2,54.6 19.2,54.2 L22.1,54.2 L22.1,53.5 L19.3,53.5 C19.3,53 19.3,52.6 19.3,52.1 L18.8,52.4 C17.9,52.9 17,53.5 16.3,54.2 Z" id="Path"></path>
                    <path d="M13,36.3 C13,36.2 12.9,36 12.7,36 C12.5,36 12.4,36.1 12.4,36.3 L12.4,41.3 L12.9,41.6 L12.9,36.3 L13,36.3 Z" id="Path"></path>
                    <path d="M13.8,35.2 C13.7,35.2 13.5,35.3 13.5,35.5 L13.5,41.5 L13.5,41.5 C13.6,41 13.8,40.6 14,40.2 L14,35.5 C14.1,35.3 14,35.2 13.8,35.2 Z" id="Path"></path>
                    <path d="M15.2,38.5 L15.2,34.1 C15.2,34 15.1,33.8 14.9,33.8 C14.7,33.8 14.6,33.9 14.6,34.1 L14.6,39.3 L15.2,38.5 Z" id="Path"></path>
                    <path d="M18.7,36.3 C18.7,36.2 18.6,36 18.4,36 C18.2,36 18.1,36.1 18.1,36.3 L18.1,41.6 L18.6,41.3 L18.6,36.3 L18.7,36.3 Z" id="Path"></path>
                    <path d="M17.6,41.4 L17.6,35.4 C17.6,35.3 17.5,35.1 17.3,35.1 C17.1,35.1 17,35.2 17,35.4 L17,40.1 C17.3,40.5 17.5,41 17.6,41.4 L17.6,41.4 Z" id="Path"></path>
                    <path d="M16.5,39.2 L16.5,34 C16.5,33.9 16.4,33.7 16.2,33.7 C16.1,33.7 15.9,33.8 15.9,34 L15.9,38.4 L16.5,39.2 Z" id="Path"></path>
                    <path d="M15.3,49.3 C15.3,49.3 15.5,47.5 14.8,46.8 C14.1,46.1 13.3,45.5 12.4,45.1 L12.1,44.9 C12.1,45.3 12.1,45.6 12.1,46 L12.1,46.6 C12.1,46.9 12.2,47.3 12.3,47.6 C12.4,48 12.6,48.3 12.9,48.5 C13.1,48.5 13.5,49 15.3,49.3 Z" id="Path"></path>
                </g>
            </g>
        </g>
    </g>
</svg>