<?xml version="1.0" encoding="UTF-8"?>
<svg width="95px" height="95px" viewBox="0 0 95 95" version="1.1" xmlns="http://www.w3.org/2000/svg" xmlns:xlink="http://www.w3.org/1999/xlink">
    <!-- Generator: Sketch 53.2 (72643) - https://sketchapp.com -->
    <title>goal_8_target_8_3</title>
    <desc>Created with Sketch.</desc>
    <g id="goal_8_target_8_3" stroke="none" stroke-width="1" fill="none" fill-rule="evenodd">
        <g id="Group-55" fill-rule="nonzero">
            <rect id="Rectangle" fill="#A21942" x="-3.62376795e-13" y="-2.13162821e-14" width="94.8" height="94.8"></rect>
            <g id="Group" transform="translate(26.700000, 20.000000)" fill="#FFFFFF">
                <polygon id="Path" points="3.3 6.2 0.8 6.2 0.8 54.6 35.5 54.6 35.5 51.7 3.3 51.7"></polygon>
                <path d="M6,0.3 L6,6.2 L6,48.7 L35.5,48.7 L40.7,48.7 L40.7,0.3 L6,0.3 Z M30.5,5 L30.5,5 C30.5,4.9 30.5,4.9 30.5,4.8 L30.6,4.8 L30.7,4.8 L34.3,4 L34.4,4 C34.4,4 34.5,4 34.5,4 C34.5,4 34.5,4.1 34.5,4.1 L34.5,4.1 L34,6.2 L33.7,7.8 L33.7,7.8 C33.7,7.8 33.7,7.9 33.7,7.9 C33.6,7.9 33.6,7.9 33.5,7.9 L32.5,7 L23.3,16.3 C23.3,16.3 23.2,16.3 23.1,16.3 L22.1,15.3 L22.1,15.3 L19.3,12.5 L13.3,18.5 C13.3,18.5 13.2,18.5 13.1,18.5 L12.1,17.5 C12.1,17.5 12.1,17.4 12.1,17.3 L18.1,11.3 L18.1,11.3 L19.1,10.3 C19.1,10.3 19.2,10.2 19.2,10.3 C19.2,10.3 19.2,10.3 19.2,10.3 L23,14 L30.8,6.2 L31.1,5.9 L30.5,5 Z M32.7,9.6 L32.7,27.1 C32.7,27.2 32.6,27.4 32.4,27.4 L27.6,27.4 C27.5,27.4 27.3,27.3 27.3,27.1 L27.3,14.6 C27.3,14.4 27.4,14.1 27.6,14 L32.3,9.5 C32.6,9.2 32.7,9.4 32.7,9.6 L32.7,9.6 Z M26,16.2 L26,27.2 C26,27.3 25.9,27.5 25.7,27.5 L20.9,27.5 C20.8,27.5 20.6,27.4 20.6,27.2 C20.6,27.2 20.6,27.2 20.6,27.2 L20.6,16.3 C20.6,16.1 20.7,15.8 21.1,16.2 L23.2,18.3 C23.2,18.3 23.3,18.3 23.4,18.3 L25.7,16 C25.9,15.7 26,16 26,16.2 Z M19.2,15.4 L19.2,27.1 C19.2,27.2 19.1,27.4 18.9,27.4 L14.1,27.4 C14,27.4 13.8,27.3 13.8,27.1 L13.8,20.4 C13.8,20.1 13.9,19.9 14.1,19.7 L18.8,15.2 C19.1,15 19.2,15.3 19.2,15.4 L19.2,15.4 Z M35.5,42.5 C35.5,42.6 35.4,42.7 35.2,42.7 L11.4,42.7 C11.2,42.7 11.1,42.6 11.1,42.5 L11.1,38.7 C11.1,38.6 11.2,38.5 11.4,38.5 L35.2,38.5 C35.4,38.5 35.5,38.6 35.5,38.7 L35.5,42.5 Z M35.5,35.7 C35.5,35.8 35.4,35.9 35.2,35.9 L11.4,35.9 C11.3,35.9 11.1,35.8 11.1,35.7 L11.1,31.9 C11.1,31.8 11.2,31.7 11.4,31.7 L35.2,31.7 C35.4,31.7 35.5,31.8 35.5,31.9 L35.5,35.7 Z" id="Shape"></path>
            </g>
        </g>
    </g>
</svg>