<?xml version="1.0" encoding="UTF-8"?>
<svg width="95px" height="95px" viewBox="0 0 95 95" version="1.1" xmlns="http://www.w3.org/2000/svg" xmlns:xlink="http://www.w3.org/1999/xlink">
    <!-- Generator: Sketch 53.2 (72643) - https://sketchapp.com -->
    <title>goal_8_target_8_10</title>
    <desc>Created with Sketch.</desc>
    <g id="goal_8_target_8_10" stroke="none" stroke-width="1" fill="none" fill-rule="evenodd">
        <g id="Group-62" fill-rule="nonzero">
            <rect id="Rectangle" fill="#A21942" x="-3.62376795e-13" y="-2.13162821e-14" width="94.8" height="94.8"></rect>
            <g id="Group" transform="translate(7.700000, 6.000000)" fill="#FFFFFF">
                <g transform="translate(0.000000, 43.000000)" id="Path">
                    <path d="M31.1,6.9 C33,6.9 34.5,5.4 34.5,3.6 C34.5,1.8 33,0.2 31.2,0.2 C29.3,0.2 27.8,1.7 27.8,3.5 C27.8,3.5 27.8,3.5 27.8,3.5 C27.8,5.4 29.3,6.9 31.1,6.9 Z"></path>
                    <path d="M35,7.7 L34.8,7.7 L27.5,7.7 L27.2,7.7 C24.9,7.9 23.1,9.8 23.1,12.1 L23.1,21.4 C23.1,21.9 23.4,22.3 23.8,22.5 C23.8,22.5 23.8,22.6 23.8,22.6 L20.8,38.4 C20.8,38.7 20.9,38.9 21.2,39 L21.3,39 C21.5,39 21.7,38.8 21.8,38.6 L24.8,22.8 C24.8,22.7 24.8,22.7 24.8,22.6 C25.4,22.5 25.8,21.9 25.8,21.3 L25.8,13.3 C25.8,13 25.9,12.6 26.4,12.6 C26.8,12.6 26.9,13 26.9,13.3 L26.9,37.3 C26.9,38.3 27.7,39.2 28.8,39.2 C29.8,39.2 30.7,38.4 30.7,37.3 L30.7,23.5 C30.7,23.2 30.9,23 31.1,23 C31.1,23 31.2,23 31.2,23 L31.2,23 C31.5,23 31.7,23.2 31.7,23.5 C31.7,23.5 31.7,23.5 31.7,23.6 L31.7,37.4 C31.7,38.4 32.5,39.3 33.6,39.3 C34.6,39.3 35.5,38.5 35.5,37.4 L35.5,13.4 C35.5,13.1 35.6,12.7 36,12.7 C36.5,12.7 36.6,13.1 36.6,13.4 L36.6,21.4 C36.7,22.1 37.3,22.7 38,22.6 C38.6,22.5 39.1,22 39.2,21.4 L39.2,12.1 C39.2,9.8 37.3,7.8 35,7.7 Z"></path>
                    <path d="M70.8,6.8 C69,6.8 67.5,5.3 67.5,3.5 C67.5,1.7 69,0.2 70.8,0.2 C72.6,0.2 74.1,1.7 74.1,3.5 C74.1,3.5 74.1,3.5 74.1,3.5 C74.1,5.3 72.6,6.8 70.8,6.8 Z"></path>
                    <path d="M66.9,8.1 L67.1,8.1 L74.3,8.1 L74.5,8.1 C76.8,8.3 78.5,10.2 78.5,12.5 L78.5,21.7 C78.4,22.4 77.8,22.9 77.1,22.9 C76.5,22.8 76,22.4 75.9,21.7 L75.9,13.8 C75.9,13.5 75.8,13.1 75.3,13.1 C74.9,13.1 74.9,13.5 74.8,13.8 L74.8,37.4 C74.7,38.4 73.8,39.2 72.8,39.1 C71.9,39 71.2,38.3 71.1,37.4 L71.1,23.7 C71.1,23.4 70.9,23.2 70.6,23.2 C70.6,23.2 70.6,23.2 70.5,23.2 L70.5,23.2 C70.2,23.2 70,23.4 70,23.7 C70,23.7 70,23.7 70,23.8 L70,37.4 C69.9,38.4 69,39.2 68,39.1 C67.1,39 66.4,38.3 66.3,37.4 L66.3,13.7 C66.3,13.5 66.2,13 65.8,13 C65.3,13 65.2,13.4 65.2,13.7 L65.2,21.6 C65.1,22.3 64.5,22.8 63.8,22.8 C63.2,22.7 62.7,22.3 62.6,21.6 L62.6,12.4 C62.9,10.2 64.6,8.3 66.9,8.1 Z"></path>
                    <path d="M9.9,8.3 C8.2,8.3 6.8,6.9 6.8,5.2 C6.8,3.5 8.2,2.1 9.9,2.1 C11.6,2.1 13,3.5 13,5.2 L13,5.2 C13,6.9 11.6,8.3 9.9,8.3 Z"></path>
                    <path d="M0.9,20.8 L3.5,12.3 C3.5,12.3 4.4,9.8 6.5,9.8 L13.1,9.8 C15.2,9.8 16.1,12.3 16.1,12.3 L18.7,20.8 C18.7,20.8 19.2,22.4 17.8,22.7 C16.4,23 16.1,21.6 16.1,21.6 L14,14.5 C14,14.5 13.9,14 13.5,14.1 C13.1,14.2 13.2,14.8 13.2,14.8 L16.9,28.1 L13.5,28.1 L13.5,37.6 C13.4,38.5 12.6,39.2 11.7,39.1 C10.9,39 10.3,38.4 10.2,37.6 L10.2,28.1 L9.3,28.1 L9.3,37.6 C9.2,38.5 8.4,39.2 7.5,39.1 C6.7,39 6.1,38.4 6,37.6 L6,28.1 L2.6,28.1 L6.2,14.8 C6.2,14.8 6.4,14.2 6,14.1 C5.6,14 5.5,14.5 5.5,14.5 L3.4,21.6 C3.4,21.6 3,23.1 1.7,22.7 C0.4,22.3 0.9,20.8 0.9,20.8 Z"></path>
                    <path d="M42.5,21.9 L44.5,15.2 L44.9,13.9 C44.9,13.9 45.8,11.6 47.7,11.6 L53.9,11.6 C55.8,11.6 56.7,13.9 56.7,13.9 L57.1,15.1 L59.2,21.8 C59.2,21.8 59.6,23.3 58.4,23.6 C57.2,23.9 56.8,22.5 56.8,22.5 L54.8,15.8 C54.8,15.8 54.8,15.7 54.8,15.7 C54.7,15.5 54.5,15.4 54.3,15.4 C53.9,15.5 54.1,16.1 54.1,16.1 L57.5,28.6 L54.3,28.6 L54.3,37.5 C54.3,38.3 53.6,39 52.8,39 C52,39 51.3,38.3 51.3,37.5 L51.3,28.6 L50.4,28.6 L50.4,37.5 C50.4,38.4 49.7,39 48.9,39 C48.1,39 47.4,38.3 47.4,37.5 L47.4,37.5 L47.4,28.6 L44.2,28.6 L47.6,16.1 C47.6,16.1 47.8,15.5 47.4,15.4 C47,15.3 47,15.6 46.9,15.7 L46.9,16 L44.9,22.7 C44.9,22.7 44.5,24.1 43.3,23.8 C42.1,23.5 42.5,21.9 42.5,21.9 Z"></path>
                    <g transform="translate(45.000000, 3.000000)">
                        <path d="M2.8,1.4 C2.8,0.9 2.3,0.4 1.2,0.9 C-0.1,1.5 0.1,3.4 0.1,3.4 C0.1,3.6 0.1,3.7 0.2,3.6 C0.3,3.3 0.6,2.8 1.6,2.7 C1.8,2.7 2,2.6 2.1,2.5 C2.3,2.2 2.5,1.9 2.7,1.6 C2.8,1.6 2.8,1.5 2.8,1.4 Z"></path>
                        <path d="M10.3,0.9 C9.3,0.4 8.8,1 8.7,1.4 C8.7,1.5 8.7,1.6 8.7,1.6 C8.9,1.8 9.1,2.1 9.3,2.4 C9.5,2.5 9.7,2.6 9.9,2.6 C10.9,2.7 11.2,3.2 11.3,3.5 C11.3,3.6 11.4,3.5 11.4,3.3 C11.4,3.4 11.6,1.5 10.3,0.9 Z"></path>
                        <path d="M5.8,1 C3.9,1 2.3,2.6 2.3,4.5 C2.3,6.4 3.9,8 5.8,8 C7.7,8 9.3,6.4 9.3,4.5 C9.3,4.5 9.3,4.5 9.3,4.5 C9.3,2.6 7.7,1 5.8,1 Z"></path>
                    </g>
                </g>
                <g transform="translate(21.000000, 0.000000)" id="Shape">
                    <path d="M18.7,0.7 C8.4,0.7 0.1,9 0.1,19.3 C0.1,29.6 8.4,37.9 18.7,37.9 C29,37.9 37.3,29.6 37.3,19.3 C37.3,19.3 37.3,19.3 37.3,19.3 C37.3,9 29,0.7 18.7,0.7 Z M18.7,36.5 C9.2,36.5 1.5,28.8 1.5,19.3 C1.5,9.8 9.2,2.1 18.7,2.1 C28.2,2.1 35.9,9.8 35.9,19.3 C35.9,19.3 35.9,19.3 35.9,19.3 C35.9,28.8 28.2,36.5 18.7,36.5 Z"></path>
                    <path d="M18.7,3 C9.7,3 2.4,10.3 2.4,19.3 C2.4,28.3 9.7,35.6 18.7,35.6 C27.7,35.6 35,28.3 35,19.3 C35,19.3 35,19.3 35,19.3 C35,10.3 27.7,3 18.7,3 Z M33.4,16.7 C33.4,16.9 33.4,17.1 33.3,17.2 C33.2,17.3 33,17.5 32.9,17.5 L32.8,17.5 C32.7,17.5 32.5,17.5 32.4,17.4 C32.1,17.3 32,17.2 32,17 C32,16.8 32,16.6 32.1,16.5 C32.2,16.4 32.4,16.2 32.5,16.2 C32.9,16.1 33.3,16.4 33.4,16.7 Z M32.7,14.2 C32.8,14.6 32.6,15 32.3,15.1 C32.2,15.1 32.1,15.1 32.1,15.1 C32,15.1 31.9,15.1 31.8,15 C31.4,14.8 31.3,14.4 31.4,14.1 C31.5,13.9 31.6,13.8 31.8,13.7 C32.2,13.6 32.6,13.8 32.7,14.2 C32.7,14.2 32.7,14.2 32.7,14.2 Z M30.3,12 C30.3,11.8 30.5,11.7 30.6,11.6 C30.9,11.4 31.4,11.5 31.6,11.8 C31.6,11.8 31.6,11.8 31.6,11.8 C31.7,12 31.7,12.2 31.7,12.3 C31.6,12.6 31.3,12.8 31,12.8 C30.9,12.8 30.9,12.8 30.8,12.8 C30.5,12.8 30.3,12.5 30.3,12 L30.3,12 Z M25.2,6.7 C25.3,6.5 25.5,6.4 25.6,6.4 C25.8,6.4 26,6.4 26.1,6.5 C26.4,6.7 26.6,7.1 26.4,7.4 C26.4,7.4 26.4,7.4 26.4,7.5 C26.3,7.7 26.2,7.8 26,7.8 L25.8,7.8 C25.7,7.8 25.6,7.8 25.5,7.7 C25.3,7.6 25.2,7.4 25.2,7.3 C25.1,7.1 25.1,6.9 25.2,6.7 Z M23.8,17.5 C23.7,17.5 23.6,17.4 23.6,17.3 L23.6,17.3 L23.6,16.3 L26,16.3 L26,17.3 C26,17.4 25.9,17.5 25.8,17.5 L25.8,17.5 L25.8,23.5 L23.9,23.5 L23.8,17.5 L23.8,17.5 Z M18.8,15.6 L11,15.6 L11,15 L26.7,15 L26.7,15.5 L18.8,15.5 L18.8,15.6 Z M17.8,17.5 C17.7,17.5 17.6,17.4 17.6,17.3 L17.6,17.3 L17.6,16.3 L20.1,16.3 L20.1,17.3 C20.1,17.4 20,17.5 19.9,17.5 L19.9,17.5 L19.9,17.5 L19.9,23.5 L18,23.5 L17.8,17.5 L17.8,17.5 Z M11.9,17.5 C11.8,17.5 11.7,17.4 11.7,17.3 L11.7,17.3 L11.7,16.3 L14.2,16.3 L14.2,17.3 C14.2,17.4 14.1,17.5 14,17.5 L14,17.5 L14,17.5 L14,23.5 L12,23.5 L11.9,17.5 L11.9,17.5 Z M18.8,14.5 L10.4,14.5 L10.1,14.2 C10,14.1 10,14 10.1,13.8 C10.1,13.8 10.1,13.8 10.1,13.8 L18.8,10.6 L27.5,13.8 C27.6,13.9 27.6,14 27.5,14.2 C27.5,14.2 27.5,14.2 27.5,14.2 L27.2,14.5 L18.8,14.5 Z M22.9,5.8 C23,5.6 23.1,5.5 23.3,5.4 C23.5,5.3 23.7,5.3 23.8,5.4 C24.2,5.5 24.4,5.9 24.2,6.3 C24.2,6.3 24.2,6.3 24.2,6.3 C24.1,6.5 24,6.6 23.8,6.7 C23.7,6.7 23.6,6.8 23.5,6.8 C23.4,6.8 23.3,6.8 23.3,6.8 C23.1,6.7 23,6.6 23,6.4 C22.9,6.1 22.9,6 22.9,5.8 Z M20.8,4.8 C20.9,4.7 21.1,4.6 21.3,4.7 C21.7,4.8 21.9,5.1 21.9,5.5 C21.9,5.5 21.9,5.5 21.9,5.5 C21.9,5.7 21.8,5.9 21.6,6 C21.5,6.1 21.3,6.1 21.2,6.1 L21.1,6.1 C20.9,6.1 20.7,6 20.6,5.8 C20.5,5.6 20.5,5.5 20.5,5.3 C20.5,5.1 20.6,4.9 20.8,4.8 L20.8,4.8 Z M18.7,4.4 C19.1,4.4 19.4,4.7 19.4,5.1 L19.4,5.1 C19.4,5.5 19.1,5.8 18.7,5.8 C18.3,5.8 18,5.5 18,5.1 C18.1,4.8 18.4,4.4 18.7,4.4 L18.7,4.4 Z M15.7,4.9 C15.8,4.7 16,4.6 16.2,4.6 C16.6,4.5 16.9,4.8 17,5.2 C17,5.4 17,5.6 16.9,5.7 C16.8,5.9 16.6,6 16.4,6 L16.3,6 C16,6 15.7,5.8 15.6,5.4 C15.6,5.3 15.6,5.1 15.7,4.9 L15.7,4.9 Z M13.3,5.7 C13.4,5.5 13.5,5.4 13.7,5.3 C13.9,5.2 14.1,5.2 14.2,5.3 C14.4,5.4 14.5,5.5 14.6,5.7 C14.7,6.1 14.5,6.5 14.2,6.6 C14.1,6.6 14,6.6 14,6.6 C13.7,6.6 13.4,6.4 13.3,6.1 C13.2,6 13.2,5.9 13.3,5.7 L13.3,5.7 Z M11.4,6.4 C11.6,6.3 11.8,6.3 11.9,6.3 C12.1,6.4 12.2,6.5 12.3,6.6 C12.4,6.8 12.4,7 12.4,7.1 C12.4,7.3 12.2,7.4 12.1,7.5 C12,7.6 11.9,7.6 11.8,7.6 C11.5,7.6 11.3,7.5 11.2,7.3 C10.9,7.1 11,6.6 11.4,6.4 L11.4,6.4 Z M9.2,7.9 C9.5,7.7 9.9,7.7 10.2,8 C10.5,8.3 10.4,8.7 10.1,9 C10,9.1 9.8,9.2 9.6,9.2 C9.4,9.2 9.2,9.1 9.1,9 C8.9,8.6 8.9,8.2 9.2,7.9 L9.2,7.9 Z M5.9,11.9 C6.1,11.6 6.5,11.4 6.8,11.6 C6.8,11.6 6.8,11.6 6.9,11.6 C7.2,11.8 7.4,12.3 7.2,12.6 C7.2,12.6 7.2,12.6 7.2,12.6 C7,12.9 6.8,13 6.6,13 C6.5,13 6.4,13 6.3,12.9 C5.9,12.8 5.8,12.4 5.9,12 C5.8,12 5.8,11.9 5.9,11.9 L5.9,11.9 Z M4.8,14.3 C4.9,13.9 5.3,13.7 5.7,13.9 C5.7,13.9 5.7,13.9 5.7,13.9 C6.1,14 6.2,14.5 6.1,14.8 C6,15 5.9,15.1 5.8,15.2 C5.7,15.2 5.6,15.3 5.5,15.3 C5.4,15.3 5.3,15.3 5.3,15.3 C4.9,15.1 4.6,14.7 4.8,14.3 C4.7,14.3 4.8,14.3 4.8,14.3 L4.8,14.3 Z M5,16.2 C5.2,16.2 5.3,16.3 5.5,16.5 C5.7,16.8 5.7,17.3 5.3,17.5 C5.2,17.6 5,17.6 4.9,17.6 L4.8,17.6 C4.4,17.5 4.2,17.2 4.2,16.8 C4.2,16.4 4.5,16.1 5,16.2 L5,16.2 Z M4,19.3 C4,19.1 4.1,18.9 4.2,18.8 C4.3,18.7 4.5,18.6 4.7,18.6 L4.7,18.6 C5.1,18.6 5.4,18.9 5.4,19.3 C5.4,19.7 5.1,20 4.7,20 C4.3,20 4,19.8 4,19.3 C4,19.4 4,19.3 4,19.3 Z M4.2,21.9 C4.1,21.5 4.4,21.2 4.8,21.1 C5,21.1 5.2,21.1 5.3,21.2 C5.4,21.3 5.6,21.5 5.6,21.7 C5.6,21.9 5.6,22.1 5.5,22.2 C5.4,22.3 5.2,22.5 5,22.5 L4.9,22.5 C4.5,22.5 4.2,22.3 4.2,21.9 L4.2,21.9 Z M5.5,24.9 C5.2,24.9 4.9,24.7 4.8,24.4 C4.7,24 4.9,23.6 5.2,23.5 C5.2,23.5 5.2,23.5 5.2,23.5 C5.6,23.4 6,23.5 6.1,23.9 C6.1,23.9 6.1,23.9 6.1,23.9 C6.2,24.3 6.1,24.7 5.7,24.8 C5.7,24.8 5.7,24.8 5.7,24.8 C5.6,24.9 5.5,24.9 5.5,24.9 L5.5,24.9 Z M6.8,27 C6.7,27.1 6.6,27.1 6.5,27.1 C6.2,27.1 6,27 5.9,26.8 C5.7,26.5 5.8,26.1 6.1,25.8 C6.1,25.8 6.1,25.8 6.2,25.8 L6.2,25.8 C6.5,25.6 7,25.7 7.2,26.1 C7.3,26.3 7.2,26.8 6.8,27 L6.8,27 L6.8,27 Z M7.4,9.8 C7.5,9.7 7.7,9.6 7.9,9.6 C8.1,9.6 8.3,9.6 8.4,9.8 C8.7,10 8.7,10.5 8.5,10.8 C8.5,10.8 8.5,10.8 8.5,10.8 C8.2,11.1 7.8,11.1 7.5,10.9 C7.1,10.5 7.1,10.1 7.4,9.8 C7.3,9.8 7.3,9.8 7.4,9.8 Z M8.4,29 C8.3,29.1 8.1,29.2 7.9,29.2 C7.7,29.2 7.5,29.1 7.4,29 C7.2,28.7 7.2,28.3 7.5,28 C7.8,27.8 8.2,27.8 8.5,28.1 C8.7,28.3 8.6,28.7 8.4,29 L8.4,29 Z M10.2,30.6 C10,30.9 9.5,30.9 9.2,30.7 C8.9,30.5 8.9,30 9.1,29.7 L9.1,29.7 L9.1,29.7 C9.2,29.6 9.4,29.5 9.6,29.5 C9.8,29.5 10,29.5 10.1,29.7 C10.2,29.8 10.3,30 10.3,30.2 C10.4,30.3 10.3,30.5 10.2,30.6 L10.2,30.6 Z M10.4,25.1 L11,25.1 L11,24.2 C11,24.1 11,24.1 11.1,24.1 C11.1,24.1 11.1,24.1 11.1,24.1 L26.6,24.1 C26.7,24.1 26.7,24.1 26.7,24.2 C26.7,24.2 26.7,24.2 26.7,24.2 L26.7,25.1 L27.3,25.1 L27.3,26.1 L10.4,26.1 L10.4,25.1 Z M12.3,31.9 C12.2,32.1 11.9,32.2 11.7,32.2 C11.6,32.2 11.5,32.2 11.4,32.1 C11.1,31.9 10.9,31.5 11.1,31.1 C11.1,31.1 11.1,31.1 11.1,31.1 C11.3,30.8 11.7,30.6 12.1,30.8 C12.4,31.1 12.5,31.6 12.3,31.9 L12.3,31.9 L12.3,31.9 Z M14.6,32.9 C14.5,33.2 14.2,33.4 13.9,33.4 C13.8,33.4 13.7,33.4 13.7,33.4 C13.3,33.3 13.1,32.9 13.3,32.5 C13.3,32.5 13.3,32.5 13.3,32.5 L13.3,32.5 C13.4,32.1 13.8,31.9 14.2,32.1 C14.5,32.1 14.7,32.5 14.6,32.9 L14.6,32.9 L14.6,32.9 Z M16.3,34 L16.2,34 C15.8,33.9 15.6,33.6 15.6,33.2 C15.6,33.2 15.6,33.2 15.6,33.2 L15.6,33.2 C15.7,32.8 16,32.6 16.4,32.6 C16.4,32.6 16.4,32.6 16.4,32.6 C16.6,32.6 16.8,32.7 16.9,32.9 C17,33 17.1,33.2 17,33.4 C16.9,33.8 16.6,34 16.3,34 Z M18.7,34.2 C18.3,34.2 18,33.9 18,33.5 C18,33.1 18.3,32.8 18.7,32.8 C19.1,32.8 19.4,33.1 19.4,33.5 C19.4,33.5 19.4,33.5 19.4,33.5 C19.4,33.9 19.1,34.2 18.7,34.2 L18.7,34.2 Z M21.9,33.2 C22,33.6 21.7,33.9 21.3,34 C21.3,34 21.3,34 21.3,34 L21.2,34 C20.8,34 20.5,33.7 20.5,33.3 C20.5,32.9 20.8,32.6 21.2,32.6 C21.5,32.6 21.8,32.9 21.9,33.2 L21.9,33.2 Z M24.2,33 C24.1,33.2 24,33.3 23.8,33.4 C23.7,33.4 23.6,33.4 23.6,33.4 C23.3,33.4 23,33.2 22.9,32.9 C22.8,32.5 23,32.1 23.3,32 C23.5,31.9 23.7,31.9 23.8,32 C24.2,32.2 24.4,32.6 24.2,33 L24.2,33 Z M26.5,31.8 C26.4,32 26.3,32.1 26.2,32.2 C26.1,32.3 26,32.3 25.9,32.3 L25.7,32.3 C25.5,32.2 25.4,32.1 25.3,32 C25.2,31.8 25.2,31.6 25.2,31.5 C25.2,31.3 25.4,31.2 25.5,31.1 C25.6,31 25.8,30.9 26,30.9 C26.2,30.9 26.3,31.1 26.4,31.2 C26.5,31.4 26.5,31.6 26.5,31.8 L26.5,31.8 Z M28.3,30.8 C28.2,30.9 28,31 27.8,31 L27.7,31 C27.5,31 27.3,30.9 27.2,30.8 C27.1,30.7 27,30.5 27,30.3 C27,29.9 27.4,29.6 27.8,29.7 C28,29.7 28.2,29.8 28.3,30 C28.6,30.1 28.5,30.5 28.3,30.8 L28.3,30.8 Z M28.4,9 C28.3,9.1 28.1,9.2 27.9,9.2 L27.8,9.2 C27.6,9.2 27.5,9.1 27.3,9 C27.2,8.9 27.1,8.7 27.1,8.5 C27.1,8.1 27.4,7.8 27.7,7.7 C28.1,7.7 28.4,8 28.5,8.3 C28.5,8.7 28.5,8.9 28.4,9 Z M30.1,28.9 C30,29.1 29.8,29.1 29.6,29.1 C29.4,29.1 29.3,29 29.1,28.9 C28.8,28.7 28.8,28.2 29,27.9 C29,27.9 29,27.9 29,27.9 C29.1,27.8 29.3,27.7 29.5,27.7 C29.7,27.7 29.9,27.7 30,27.9 C30.3,28.2 30.3,28.6 30.1,28.9 L30.1,28.9 Z M30,10.7 C29.9,10.8 29.7,10.9 29.5,10.9 L29.4,10.9 C29.2,10.9 29,10.8 28.9,10.7 C28.8,10.6 28.7,10.4 28.7,10.2 C28.7,10 28.8,9.8 28.9,9.7 C29.2,9.4 29.6,9.5 29.9,9.8 C30,9.9 30.1,10.1 30.1,10.3 C30.2,10.5 30.1,10.6 30,10.7 Z M31.6,26.7 C31.5,26.9 31.4,27 31.2,27 C31.1,27 31.1,27 31,27 C30.7,27 30.4,26.8 30.3,26.5 C30.3,26.3 30.3,26.1 30.4,26 C30.5,25.8 30.6,25.7 30.8,25.7 C31,25.6 31.2,25.7 31.3,25.8 C31.7,25.9 31.8,26.4 31.6,26.7 C31.6,26.7 31.6,26.7 31.6,26.7 L31.6,26.7 Z M32.7,24.4 C32.6,24.7 32.3,24.9 32,24.9 C31.9,24.9 31.8,24.9 31.8,24.9 C31.4,24.8 31.2,24.4 31.4,24 C31.4,24 31.4,24 31.4,24 C31.5,23.6 31.9,23.4 32.3,23.6 C32.3,23.6 32.3,23.6 32.3,23.6 C32.6,23.7 32.8,24 32.7,24.4 L32.7,24.4 Z M33,22.4 C32.9,22.5 32.7,22.5 32.6,22.5 L32.5,22.5 C32.1,22.4 31.9,22.1 31.9,21.7 C31.9,21.5 32,21.4 32.2,21.2 C32.4,21.1 32.5,21 32.7,21.1 C33.1,21.2 33.3,21.5 33.3,21.9 C33.3,22.1 33.2,22.3 33,22.4 L33,22.4 Z M32.9,20 C32.5,20 32.2,19.7 32.2,19.3 C32.2,18.9 32.5,18.6 32.9,18.6 C33.3,18.6 33.6,18.9 33.6,19.3 C33.6,19.3 33.6,19.3 33.6,19.3 C33.6,19.5 33.5,19.7 33.4,19.8 C33.3,19.9 33.1,20 32.9,20 Z"></path>
                </g>
            </g>
        </g>
    </g>
</svg>