<?xml version="1.0" encoding="UTF-8"?>
<svg width="95px" height="95px" viewBox="0 0 95 95" version="1.1" xmlns="http://www.w3.org/2000/svg" xmlns:xlink="http://www.w3.org/1999/xlink">
    <!-- Generator: Sketch 53.2 (72643) - https://sketchapp.com -->
    <title>goal_10_target_10_5</title>
    <desc>Created with Sketch.</desc>
    <g id="goal_10_target_10_5" stroke="none" stroke-width="1" fill="none" fill-rule="evenodd">
        <g id="Group-77" fill-rule="nonzero">
            <rect id="Rectangle" fill="#DD1367" x="-3.62376795e-13" y="-2.13162821e-14" width="94.8" height="94.8"></rect>
            <g id="Group" transform="translate(23.700000, 16.000000)" fill="#FFFFFF">
                <polygon id="Path" points="3 7.3 0.1 7.3 0.1 62.2 39.4 62.2 39.4 58.9 3 58.9"></polygon>
                <path d="M6,0.8 L6,55.6 L45.3,55.6 L45.3,0.8 L6,0.8 Z M25.7,6 C32.4,6 37.9,11.5 37.9,18.2 C37.9,24.9 32.4,30.4 25.7,30.4 C19,30.4 13.5,24.9 13.5,18.2 L13.5,18.2 C13.5,11.5 18.9,6 25.7,6 C25.7,6 25.7,6 25.7,6 Z M40.5,48.1 C40.5,48.2 40.4,48.3 40.2,48.3 L11.2,48.3 C11,48.3 10.9,48.2 10.9,48.1 L10.9,43.4 C10.9,43.3 11,43.2 11.2,43.2 L40.2,43.2 C40.4,43.2 40.5,43.3 40.5,43.4 L40.5,48.1 Z M40.5,40 C40.5,40.1 40.4,40.2 40.2,40.2 L11.2,40.2 C11,40.2 10.9,40.1 10.9,40 L10.9,35.4 C10.9,35.3 11,35.2 11.2,35.2 L40.2,35.2 C40.4,35.2 40.5,35.3 40.5,35.4 L40.5,40 Z" id="Shape"></path>
                <path d="M25.7,30.1 C32.2,30.1 37.5,24.7 37.5,18.2 C37.5,11.7 32.1,6.4 25.6,6.4 C19.1,6.4 13.8,11.7 13.8,18.2 C13.8,24.7 19,30.1 25.6,30.1 C25.6,30.1 25.6,30.1 25.7,30.1 Z M25.7,7.1 C31.8,7.1 36.8,12.1 36.8,18.2 C36.8,24.3 31.8,29.3 25.7,29.3 C19.6,29.3 14.6,24.3 14.6,18.2 L14.6,18.2 C14.6,12 19.6,7.1 25.7,7.1 Z" id="Shape"></path>
                <path d="M25.7,28.4 C31.3,28.4 35.9,23.8 35.9,18.2 C35.9,12.6 31.3,8 25.7,8 C20.1,8 15.5,12.6 15.5,18.2 L15.5,18.2 C15.5,23.8 20,28.4 25.5,28.4 C25.6,28.4 25.6,28.4 25.7,28.4 Z M28.9,17 C28.8,17 28.8,17 28.7,16.9 L28.7,16.9 L28.7,16.3 L30.3,16.3 L30.3,16.9 C30.3,17 30.2,17.1 30.1,17.1 L30.1,17.1 L30.1,20.9 L28.9,20.9 C28.9,20.9 28.9,17 28.9,17 Z M25.7,15.8 L20.7,15.8 L20.7,15.5 L30.7,15.5 L30.7,15.9 L25.7,15.8 Z M25.1,17 C25,17 25,17 24.9,16.9 L24.9,16.9 L24.9,16.3 L26.5,16.3 L26.5,16.9 C26.5,17 26.5,17 26.4,17.1 L26.4,17.1 L26.4,20.9 L25.1,20.9 L25.1,17 Z M21.3,17 C21.2,17 21.1,16.9 21.1,16.8 L21.1,16.2 L22.7,16.2 L22.7,16.8 C22.7,16.9 22.7,16.9 22.6,17 L22.6,17 L22.6,20.8 L21.4,20.8 L21.3,17 Z M25.8,15.1 L20.5,15.1 L20.3,14.9 C20.2,14.9 20.2,14.8 20.3,14.7 L20.3,14.7 L25.8,12.6 L31.4,14.7 C31.5,14.8 31.5,14.9 31.4,14.9 L31.4,14.9 L31.1,15.1 L25.8,15.1 Z M20.4,21.9 L20.8,21.9 L20.8,21.3 C20.8,21.2 20.8,21.2 20.9,21.2 L30.7,21.2 C30.8,21.2 30.8,21.2 30.8,21.3 L30.8,21.9 L31.2,21.9 L31.2,22.5 L20.4,22.5 L20.4,21.9 Z M21.6,26.2 C21.5,26.3 21.4,26.4 21.3,26.4 L21.2,26.4 C21.1,26.4 21,26.4 21,26.3 C20.8,26.2 20.7,25.8 20.8,25.6 C20.9,25.4 21.3,25.3 21.5,25.4 C21.7,25.7 21.8,26 21.6,26.2 Z M23.1,26.8 C23,27 22.8,27.1 22.6,27.1 L22.4,27.1 C22.2,27 22,26.7 22.1,26.5 C22.2,26.3 22.5,26.1 22.7,26.2 C22.8,26.2 22.9,26.3 23,26.4 C23.1,26.5 23.1,26.7 23.1,26.8 Z M24.1,27.6 L24.1,27.6 C23.9,27.6 23.8,27.5 23.7,27.4 C23.6,27.3 23.6,27.2 23.6,27 C23.6,26.8 23.7,26.8 23.8,26.7 C23.9,26.6 24,26.6 24.2,26.6 C24.4,26.6 24.4,26.7 24.5,26.8 C24.6,26.9 24.6,27 24.6,27.2 C24.6,27.4 24.3,27.6 24.1,27.6 Z M25.7,27.7 C25.4,27.7 25.2,27.5 25.2,27.2 C25.2,26.9 25.4,26.7 25.7,26.7 C26,26.7 26.2,26.9 26.2,27.2 C26.2,27.5 26,27.7 25.7,27.7 C25.7,27.7 25.7,27.7 25.7,27.7 Z M27.7,27.3 C27.6,27.4 27.5,27.5 27.4,27.5 L27.3,27.5 C27.1,27.5 26.9,27.3 26.8,27.1 C26.8,27 26.8,26.8 26.9,26.7 C27.1,26.5 27.4,26.4 27.6,26.6 C27.6,26.6 27.6,26.6 27.6,26.6 C27.7,26.7 27.8,26.8 27.8,26.9 C27.8,27 27.8,27.3 27.7,27.3 Z M29.3,26.9 C29.2,27 29.2,27.1 29,27.1 L28.8,27.1 C28.6,27.1 28.4,27 28.3,26.8 L28.3,26.4 C28.4,26.3 28.5,26.2 28.6,26.2 C28.8,26.1 29.1,26.2 29.2,26.4 C29.2,26.4 29.2,26.5 29.2,26.5 C29.3,26.6 29.3,26.8 29.3,26.9 Z M30.7,26.1 C30.7,26.2 30.6,26.3 30.5,26.4 C30.4,26.4 30.4,26.4 30.3,26.5 L30.2,26.5 C29.9,26.5 29.7,26.2 29.8,25.9 C29.8,25.6 30.1,25.4 30.4,25.5 C30.4,25.5 30.4,25.5 30.4,25.5 C30.6,25.6 30.8,25.9 30.7,26.1 Z M31.8,25.5 C31.7,25.6 31.6,25.6 31.5,25.6 C31.3,25.6 31.2,25.5 31.1,25.4 C30.9,25.2 31,24.9 31.2,24.7 C31.4,24.5 31.7,24.6 31.9,24.8 C31.9,24.8 31.9,24.8 31.9,24.8 C32,24.9 32,25 32,25.1 C32,25.3 31.9,25.4 31.8,25.5 Z M34,22.9 C33.9,23 33.8,23.1 33.7,23.1 L33.6,23.1 C33.5,23.1 33.4,23.1 33.4,23 C33.4,22.9 33.2,22.8 33.2,22.7 L33.2,22.3 C33.3,22.2 33.4,22.1 33.5,22.1 C33.7,22 34,22.2 34.1,22.4 L34.1,22.4 C34,22.6 34,22.7 34,22.9 Z M34.7,21.4 C34.6,21.6 34.4,21.7 34.2,21.7 L34,21.7 C33.8,21.6 33.6,21.3 33.7,21.1 L33.7,21.1 C33.7,21 33.8,20.9 33.9,20.8 C34,20.7 34.2,20.7 34.3,20.8 C34.4,20.8 34.5,20.9 34.6,21 C34.7,21.1 34.7,21.3 34.7,21.4 L34.7,21.4 Z M34.7,20.2 L34.7,20.2 C34.3,20.1 34.2,19.9 34.2,19.6 C34.2,19.5 34.3,19.4 34.4,19.3 C34.5,19.2 34.6,19.2 34.8,19.2 C35,19.2 35.2,19.5 35.2,19.8 C35.2,20.1 34.9,20.3 34.7,20.2 Z M35.3,18.2 C35.3,18.5 35.1,18.7 34.9,18.7 C34.9,18.7 34.9,18.7 34.8,18.7 C34.7,18.7 34.5,18.7 34.5,18.6 C34.3,18.4 34.3,18.1 34.5,17.9 C34.5,17.9 34.5,17.9 34.5,17.9 L34.5,17.9 C34.6,17.8 34.7,17.8 34.8,17.8 C35,17.8 35.2,18 35.3,18.2 Z M35.1,16.5 C35.1,16.6 35.1,16.8 35,16.9 C34.9,17 34.8,17.1 34.7,17.1 L34.2,17.1 C34.1,17 34,16.9 34,16.8 C34,16.7 34,16.5 34.1,16.4 C34.2,16.3 34.3,16.2 34.4,16.2 C34.5,16.2 34.7,16.2 34.8,16.3 C35,16.4 35,16.5 35.1,16.5 Z M34.5,14.7 C34.7,14.8 34.8,15.1 34.7,15.3 L34.7,15.3 C34.7,15.4 34.6,15.5 34.4,15.5 L34,15.5 C33.9,15.5 33.8,15.4 33.8,15.2 L33.8,14.8 C33.9,14.7 34,14.6 34.1,14.6 C34.2,14.6 34.4,14.6 34.5,14.7 L34.5,14.7 Z M33.3,13.3 C33.4,13.2 33.5,13.2 33.7,13.3 C33.9,13.4 33.9,13.4 34,13.5 L34,13.9 C34,14 33.9,14.1 33.8,14.2 C33.7,14.2 33.7,14.2 33.6,14.3 L33.5,14.3 C33.4,14.3 33.3,14.2 33.2,14.1 L33.2,13.7 C33.1,13.5 33.2,13.4 33.3,13.3 L33.3,13.3 Z M32.3,12.1 C32.5,11.9 32.8,12 33,12.2 C33,12.2 33,12.2 33,12.2 C33.1,12.3 33.1,12.4 33.1,12.5 C33.1,12.7 32.9,12.9 32.6,13 C32.3,13 32.1,12.8 32.1,12.6 C32.1,12.6 32.1,12.6 32.1,12.5 L32.1,12.5 C32.1,12.3 32.2,12.2 32.3,12.1 L32.3,12.1 Z M32.2,23.8 C32.3,23.7 32.4,23.6 32.5,23.6 C32.6,23.6 32.8,23.6 32.9,23.7 C33.1,23.9 33.1,24.2 33,24.4 C32.9,24.5 32.8,24.6 32.7,24.6 L32.6,24.6 C32.5,24.6 32.4,24.6 32.3,24.5 C32.2,24.4 32.1,24.3 32.1,24.2 C32.1,24.1 32.1,23.8 32.2,23.8 L32.2,23.8 Z M31.1,11 C31.3,10.8 31.6,10.8 31.8,10.9 C31.9,11 32,11.1 32,11.2 C32,11.3 32,11.5 31.9,11.6 C31.8,11.7 31.7,11.8 31.6,11.8 L31.6,11.8 C31.5,11.8 31.4,11.8 31.3,11.7 C31.2,11.6 31.1,11.5 31.1,11.4 C31.1,11.3 31,11.1 31.1,11 Z M29.8,10.2 C30,10 30.2,9.9 30.5,10 L30.5,10 C30.6,10.1 30.7,10.2 30.7,10.3 C30.8,10.4 30.8,10.6 30.7,10.7 C30.6,10.8 30.5,10.9 30.4,10.9 L30.3,10.9 C30.2,10.9 30.1,10.9 30.1,10.8 C30.1,10.7 29.9,10.6 29.9,10.5 C29.7,10.4 29.7,10.3 29.8,10.2 L29.8,10.2 Z M28.3,9.6 C28.3,9.5 28.4,9.4 28.5,9.3 C28.6,9.2 28.8,9.2 28.9,9.3 C29,9.3 29.1,9.4 29.2,9.5 L29.2,9.9 C29.2,10 29.1,10.1 28.9,10.2 L28.5,10.2 C28.4,10.2 28.3,10.1 28.2,10 C28.2,9.8 28.2,9.7 28.3,9.6 L28.3,9.6 Z M27.3,8.9 C27.6,8.9 27.7,9.2 27.7,9.5 L27.7,9.5 C27.7,9.6 27.6,9.7 27.5,9.8 C27.4,9.9 27.3,9.9 27.2,9.9 L27.1,9.9 C27,9.9 26.9,9.8 26.8,9.7 C26.7,9.6 26.7,9.5 26.7,9.3 C26.7,9.1 27,8.8 27.3,8.9 Z M25.6,8.7 C25.9,8.7 26.1,8.9 26.1,9.2 C26.1,9.5 25.9,9.7 25.6,9.7 C25.3,9.7 25.1,9.5 25.1,9.2 L25.1,9.2 C25.2,8.9 25.4,8.7 25.6,8.7 Z M24,8.9 C24.1,8.9 24.3,8.9 24.4,9 C24.5,9.1 24.6,9.2 24.6,9.3 C24.6,9.6 24.5,9.8 24.2,9.9 L24.1,9.9 C24,9.9 23.9,9.9 23.8,9.8 C23.7,9.7 23.6,9.6 23.6,9.5 C23.6,9.1 23.7,8.9 24,8.9 Z M22.4,9.3 C22.5,9.2 22.7,9.2 22.8,9.3 C22.9,9.4 23,9.5 23,9.6 L23,10 C22.9,10.1 22.8,10.2 22.7,10.2 L22.3,10.2 C22.2,10.1 22.1,10 22.1,9.9 C22.1,9.7 22.2,9.4 22.4,9.3 Z M20.9,10 C21.1,9.9 21.5,10 21.6,10.2 L21.6,10.2 C21.7,10.3 21.7,10.4 21.6,10.6 C21.5,10.8 21.5,10.8 21.4,10.9 C21.3,10.9 21.3,10.9 21.2,11 C21,11 20.9,10.9 20.8,10.8 C20.6,10.4 20.7,10.1 20.9,10 Z M19.5,10.9 C19.6,10.8 19.7,10.8 19.9,10.8 C20.1,10.8 20.4,11 20.3,11.3 C20.3,11.4 20.2,11.6 20.1,11.6 C20,11.7 19.9,11.7 19.8,11.7 C19.6,11.7 19.5,11.6 19.4,11.5 C19.3,11.4 19.4,11.1 19.5,10.9 Z M19.5,24.8 C19.7,24.6 20,24.5 20.2,24.7 C20.4,24.9 20.5,25.2 20.3,25.4 C20.2,25.5 20.1,25.6 19.9,25.6 C19.6,25.6 19.4,25.4 19.4,25.2 C19.4,25.2 19.4,25.2 19.4,25.1 C19.4,25 19.4,24.9 19.5,24.8 Z M18.4,12.1 C18.5,12 18.6,11.9 18.7,11.9 C18.8,11.9 19,11.9 19,12 C19.2,12.2 19.2,12.5 19.1,12.7 L19.1,12.7 C19,12.8 18.9,12.9 18.7,12.9 C18.6,12.9 18.5,12.9 18.4,12.8 C18.3,12.6 18.2,12.3 18.4,12.1 Z M17.4,13.5 C17.6,13.3 17.8,13.2 18.1,13.3 L18.1,13.3 C18.3,13.5 18.4,13.7 18.3,14 C18.2,14.2 18.1,14.2 17.9,14.2 C17.7,14.2 17.7,14.2 17.7,14.1 C17.5,14 17.3,13.8 17.4,13.5 C17.4,13.5 17.4,13.5 17.4,13.5 Z M16.7,15 C16.8,14.8 17.1,14.6 17.3,14.7 L17.3,14.7 C17.4,14.7 17.5,14.8 17.6,14.9 L17.6,15.3 C17.6,15.4 17.5,15.5 17.4,15.6 L17,15.6 C16.8,15.5 16.7,15.2 16.7,15 L16.7,15 Z M16.8,16.2 C16.9,16.2 17,16.3 17.1,16.4 C17.2,16.5 17.2,16.6 17.2,16.8 C17.2,17 16.9,17.2 16.7,17.2 L16.6,17.2 C16.3,17.1 16.2,16.9 16.2,16.6 C16.3,16.3 16.6,16.1 16.8,16.2 Z M16.1,18.2 C16.1,17.9 16.3,17.7 16.5,17.7 C16.5,17.7 16.5,17.7 16.6,17.7 L16.6,17.7 C16.9,17.7 17.1,17.9 17.1,18.2 C17.1,18.5 16.9,18.7 16.6,18.7 C16.4,18.7 16.2,18.5 16.1,18.2 Z M16.3,19.9 C16.3,19.6 16.4,19.4 16.7,19.3 C16.8,19.3 17,19.3 17.1,19.4 C17.2,19.5 17.3,19.6 17.3,19.7 C17.3,20 17.2,20.2 16.9,20.3 L16.8,20.3 C16.5,20.3 16.3,20.1 16.3,19.9 C16.3,19.9 16.3,19.9 16.3,19.9 L16.3,19.9 Z M17.2,21.8 C17,21.8 16.8,21.7 16.7,21.5 L16.7,21.1 C16.7,21 16.8,20.9 17,20.9 C17.2,20.8 17.5,21 17.6,21.2 C17.7,21.4 17.5,21.7 17.2,21.8 L17.2,21.8 Z M18.1,23.1 C18,23.1 18,23.1 17.9,23.2 C17.7,23.2 17.6,23.1 17.5,23 C17.4,22.8 17.5,22.4 17.7,22.3 C18,22.1 18.2,22.2 18.4,22.5 L18.4,22.5 L18.4,22.9 C18.3,23 18.2,23.1 18.1,23.1 Z M18.3,24 C18.3,23.9 18.4,23.8 18.5,23.7 C18.7,23.5 19,23.6 19.2,23.8 C19.2,23.8 19.2,23.8 19.2,23.8 L19.2,23.8 C19.4,24 19.4,24.3 19.2,24.5 C19.2,24.5 19.2,24.5 19.2,24.5 L19.2,24.5 C19.1,24.6 19,24.6 18.9,24.6 C18.7,24.6 18.6,24.5 18.5,24.4 C18.3,24.2 18.3,24.1 18.3,24 Z" id="Shape"></path>
            </g>
        </g>
    </g>
</svg>