<?xml version="1.0" encoding="UTF-8"?>
<svg width="95px" height="95px" viewBox="0 0 95 95" version="1.1" xmlns="http://www.w3.org/2000/svg" xmlns:xlink="http://www.w3.org/1999/xlink">
    <!-- Generator: Sketch 53.2 (72643) - https://sketchapp.com -->
    <title>goal_4_target_4_5</title>
    <desc>Created with Sketch.</desc>
    <g id="goal_4_target_4_5" stroke="none" stroke-width="1" fill="none" fill-rule="evenodd">
        <g id="Group" transform="translate(11.700000, 60.000000)" fill="#FFFFFF" fill-rule="nonzero">
            <path d="M14.6,10.1 C14.6,10.1 14.1,8.3 12.6,8.3 L11.1,8.3 L7,8.3 C6.6,8.3 6.2,8.1 6,7.8 C5.5,7.3 3.9,4.5 3.8,4.4 L3,3.2 C2.8,2.8 2.4,2.6 2,2.6 C1.3,2.6 0.8,3.2 0.8,3.8 C0.8,4 0.9,4.2 0.9,4.3 L5.1,11.8 C5.2,12.1 5.3,12.3 5.3,12.6 L5.3,13.4 C5.3,13.7 5.3,13.9 5.2,14.2 L3.5,20.5 L5.3,20.5 L5.3,26 L5.3,26 C5.2,26.9 6,27.7 6.9,27.8 C7.8,27.9 8.6,27.1 8.7,26.2 C8.7,26.1 8.7,26 8.7,25.9 L8.7,20.7 C8.7,20.6 8.7,20.6 8.7,20.5 L9.7,20.5 C9.7,20.6 9.7,20.6 9.7,20.7 L9.7,25.9 C9.7,26.6 10.1,27.3 10.8,27.6 C11.7,27.9 12.6,27.4 12.9,26.5 C13,26.3 13,26.2 13,26 L13,20.5 L14.8,20.5 L12.3,12 C12.3,12 12.2,11.6 12.5,11.5 C12.8,11.4 12.9,11.8 12.9,11.8 L14.9,18.1 C15,18.7 15.7,19.1 16.3,19 C16.3,19 16.3,19 16.3,19 C17.4,18.7 17,17.5 17,17.5 L14.6,10.1 Z" id="Path"></path>
            <path d="M9.5,6.8 C11.4,6.8 12.9,5.3 12.9,3.4 C12.9,1.5 11.4,0 9.5,0 C7.6,0 6.1,1.5 6.1,3.4 C6.1,3.4 6.1,3.4 6.1,3.4 C6.1,5.3 7.6,6.8 9.5,6.8 Z" id="Path"></path>
        </g>
        <g id="Group" transform="translate(48.700000, 60.000000)" fill="#FFFFFF" fill-rule="nonzero">
            <path d="M9.2,6.7 C11,6.7 12.5,5.2 12.5,3.4 C12.5,1.6 11,0.1 9.2,0.1 C7.4,0.1 5.9,1.6 5.9,3.4 L5.9,3.4 C5.8,5.2 7.3,6.7 9.2,6.7 C9.2,6.7 9.2,6.7 9.2,6.7 Z" id="Path"></path>
            <path d="M17.2,16.4 C17.2,16.2 16.2,13.9 15.9,13.1 C13.9,7.9 13.6,7.9 11.7,7.9 L6.6,7.9 C4.8,8 4.4,7.9 2.4,13.1 C2.1,13.8 0.9,16.7 0.9,16.9 C0.9,17.1 0.4,18.1 1.5,18.5 C2.6,18.9 2.9,17.7 2.9,17.7 L4.9,12.6 C4.9,12.6 4.9,12.5 5,12.5 C5.1,12.5 5.1,12.6 5.1,12.7 L5.1,25.9 L5.1,25.9 C5.1,26.9 5.8,27.7 6.8,27.7 C6.8,27.7 6.9,27.7 6.9,27.7 C7.8,27.7 8.6,26.9 8.6,26 C8.6,26 8.6,25.9 8.6,25.9 L8.6,20.6 C8.6,20.6 8.5,19.8 9.1,19.8 C9.7,19.8 9.6,20.6 9.6,20.6 L9.6,25.9 C9.6,26.9 10.3,27.7 11.3,27.7 C11.3,27.7 11.3,27.7 11.4,27.7 C12.3,27.7 13.1,26.9 13.1,26 C13.1,26 13.1,25.9 13.1,25.9 L13.1,25.9 L13.1,12.7 C13.1,12.6 13.1,12.5 13.2,12.5 C13.3,12.5 13.3,12.6 13.3,12.6 L15.2,17.1 C15.2,17.1 15.7,18.3 16.8,17.8 C17.9,17.3 17.2,16.4 17.2,16.4 Z" id="Path"></path>
        </g>
        <rect id="Rectangle" fill="#C5192D" fill-rule="nonzero" x="0" y="0" width="94.8" height="94.8"></rect>
        <g id="Group" transform="translate(7.700000, 9.000000)" fill="#FFFFFF" fill-rule="nonzero">
            <g transform="translate(17.000000, 0.000000)" id="Path">
                <polygon points="18.6 11.2 3.8 2.6 3.8 30.4 18.6 34.9"></polygon>
                <polygon points="20.3 11.3 20.3 34.9 35.2 30.4 35.2 2.6"></polygon>
                <path d="M46.9,2 C46.9,1 46.1,0.2 45.1,0.2 C44.1,0.2 43.3,1 43.3,2 L43.3,3.9 L46.8,3.9 L46.8,2 L46.9,2 Z"></path>
                <polygon points="43.8 29.9 43.4 29.9 45.2 36.1 46.9 29.9 46.5 29.9 46.9 29.9 46.9 5.2 46.5 5.2 46 5.2 45.6 5.2 44.7 5.2 44.3 5.2 43.8 5.2 43.4 5.2 43.4 29.9"></polygon>
                <polygon points="38.4 3.8 36.8 2.6 36.8 31.2 20.3 36.5 19.5 36.5 19.4 36.5 18.6 36.5 2.2 31.9 2.2 2.6 0.6 3.8 0.6 33 18.5 38 19.4 38 19.5 38 20.4 38 37 32.8 38.4 32.3"></polygon>
            </g>
            <g transform="translate(0.000000, 46.000000)" id="Path">
                <g transform="translate(65.000000, 7.000000)">
                    <path d="M12.1,9.1 C12.1,9.1 11.7,7.6 10.4,7.6 L5.7,7.6 C5.4,7.6 5,7.4 4.8,7.2 C4.4,6.8 3,4.4 3,4.4 L2.3,3.3 C2.1,3 1.8,2.8 1.4,2.8 C0.8,2.8 0.4,3.2 0.4,3.8 C0.4,4 0.4,4.1 0.5,4.2 L4,10.5 C4.1,10.7 4.2,10.9 4.2,11.2 L4.2,11.9 C4.2,12.1 4.2,12.3 4.1,12.5 L2.7,17.7 L4.2,17.7 L4.2,22.2 L4.2,22.2 C4.2,23 4.8,23.6 5.6,23.6 C6.4,23.6 7,23 7,22.2 C7,22.2 7,22.2 7,22.2 L7,17.9 C7,17.8 7,17.8 7,17.7 L7.8,17.7 C7.8,17.8 7.8,17.8 7.8,17.9 L7.8,22.2 C7.8,22.8 8.2,23.4 8.7,23.6 C9.4,23.9 10.2,23.5 10.5,22.7 C10.6,22.6 10.6,22.4 10.6,22.2 L10.6,17.7 L12.1,17.7 L10.1,10.6 C10.1,10.6 10,10.2 10.3,10.2 C10.6,10.2 10.6,10.5 10.6,10.5 L12.3,15.7 C12.4,16.2 12.9,16.5 13.5,16.4 C14.4,16.2 14.1,15.2 14.1,15.2 L12.1,9.1 Z"></path>
                    <path d="M7.9,6.3 C9.5,6.3 10.7,5 10.7,3.5 C10.7,1.9 9.4,0.7 7.9,0.7 C6.3,0.7 5.1,2 5.1,3.5 C5.1,3.5 5.1,3.5 5.1,3.5 C5,5.1 6.3,6.3 7.9,6.3 Z"></path>
                </g>
                <g transform="translate(0.000000, 7.000000)">
                    <path d="M7.2,6.2 C8.7,6.2 10,5 10,3.4 C10,1.9 8.8,0.6 7.2,0.6 C5.7,0.6 4.4,1.8 4.4,3.4 C4.4,3.4 4.4,3.4 4.4,3.4 C4.4,5 5.7,6.2 7.2,6.2 Z"></path>
                    <path d="M13.9,14.3 C13.9,14.2 13.1,12.2 12.8,11.6 C11.1,7.3 10.8,7.3 9.3,7.3 L5.1,7.3 C3.6,7.3 3.3,7.3 1.6,11.6 C1.4,12.2 0.4,14.6 0.3,14.7 C0.2,14.8 -0.1,15.7 0.8,16 C1.7,16.3 2,15.3 2,15.3 L3.7,11.1 C3.7,11.1 3.7,11 3.8,11 C3.9,11 3.9,11.1 3.9,11.1 L3.9,22.1 L3.9,22.1 C3.9,22.9 4.5,23.6 5.3,23.6 C5.3,23.6 5.3,23.6 5.4,23.6 C6.2,23.6 6.8,23 6.8,22.2 C6.8,22.2 6.8,22.2 6.8,22.1 L6.8,17.7 C6.8,17.7 6.8,17 7.2,17 C7.6,17 7.6,17.7 7.6,17.7 L7.6,22.1 C7.6,22.9 8.2,23.6 9,23.6 C9,23.6 9,23.6 9.1,23.6 C9.9,23.6 10.5,23 10.5,22.2 C10.5,22.2 10.5,22.1 10.5,22.1 L10.5,22.1 L10.5,11.1 C10.5,11 10.5,11 10.5,11 C10.5,11 10.6,11.1 10.6,11.1 L12.2,14.9 C12.2,14.9 12.7,15.9 13.5,15.5 C14.3,15.1 13.9,14.3 13.9,14.3 Z"></path>
                </g>
                <g transform="translate(30.000000, 7.000000)">
                    <path d="M15.1,13.5 C14.8,13 14.3,12.7 13.7,12.8 L11,12.8 L11,8.5 C11,7.5 10.2,6.7 9.2,6.7 L8.4,6.7 C8.3,6.7 8.1,6.7 8,6.7 L8,6.7 C7.9,6.7 7.8,6.7 7.7,6.8 L4,8 L4,8 L3.9,8 L3.9,8 C3.7,8.1 3.6,8.3 3.5,8.5 L2.4,11.7 C2.2,12.2 2.5,12.8 3,13 C3.5,13.2 4.1,12.9 4.3,12.4 L5.3,9.7 L6.8,9.2 L6.8,9.2 L6.8,14.3 C6.8,14.6 6.9,14.8 7,15.1 C7.3,15.7 7.9,16.1 8.5,16.1 L13.7,16.1 L16,20 C16.4,20.6 17.2,20.9 17.8,20.5 L17.9,20.5 C18.5,20.1 18.8,19.3 18.4,18.7 L15.1,13.5 Z"></path>
                    <path d="M13,18.3 L11.5,18.3 C10.8,20.7 8.3,22.2 5.9,21.5 C4,21 2.6,19.3 2.5,17.3 C2.5,16.6 2.7,15.8 3,15.2 L2.9,15.1 L2.8,15 L1.8,14.4 L1.7,14.3 L1.6,14.2 C1.1,15.1 0.8,16.2 0.8,17.2 C0.8,20.7 3.7,23.6 7.2,23.5 C10.3,23.5 12.9,21.2 13.4,18.2 L13,18.3 L13,18.3 Z"></path>
                    <path d="M9,5.8 C10.5,5.8 11.6,4.6 11.6,3.2 C11.6,1.7 10.4,0.6 9,0.6 C7.5,0.6 6.4,1.8 6.4,3.2 C6.4,3.2 6.4,3.2 6.4,3.2 C6.4,4.7 7.5,5.8 9,5.8 Z"></path>
                </g>
                <g transform="translate(16.000000, 1.000000)">
                    <path d="M9.3,7.4 L3.8,7.4 C2.2,7.6 0.9,8.9 0.9,10.6 L0.9,17.2 C1,17.7 1.4,18.1 1.9,18 C2.3,18 2.7,17.6 2.7,17.2 L2.7,11.5 C2.7,11.3 2.8,11 3.2,11 C3.6,11 3.5,11.3 3.5,11.5 L3.5,28.4 C3.5,29.1 4.1,29.7 4.8,29.7 C5.5,29.7 6.1,29.1 6.1,28.4 L6.1,18.6 C6.1,18.4 6.2,18.2 6.4,18.2 C6.4,18.2 6.4,18.2 6.4,18.2 L6.4,18.2 C6.6,18.2 6.8,18.3 6.8,18.5 C6.8,18.5 6.8,18.5 6.8,18.5 L6.8,28.3 C6.9,29 7.5,29.6 8.2,29.5 C8.8,29.4 9.4,28.9 9.4,28.3 L9.4,11.5 C9.4,11.3 9.5,11 9.7,11 C9.9,11 10.2,11.3 10.2,11.5 L10.2,17.2 C10.3,17.7 10.7,18.1 11.2,18 C11.6,18 12,17.6 12,17.2 L12,10.6 C12.2,9 11,7.6 9.3,7.4 Z"></path>
                    <g transform="translate(1.000000, 0.000000)">
                        <path d="M3.1,1.2 C3.1,0.8 2.7,0.4 1.8,0.8 C0.8,1.3 0.9,2.8 0.9,2.8 C0.9,2.8 0.9,3 1,3 C1.1,2.8 1.3,2.4 2.2,2.3 C2.4,2.3 2.5,2.2 2.6,2.2 C2.7,1.9 2.9,1.7 3.1,1.5 C3.1,1.4 3.1,1.3 3.1,1.2 Z"></path>
                        <path d="M9.2,0.8 C8.4,0.4 8,0.9 7.9,1.2 C7.9,1.3 7.9,1.3 7.9,1.4 C8.1,1.6 8.2,1.8 8.4,2.1 C8.5,2.2 8.7,2.2 8.9,2.3 C9.7,2.4 10,2.8 10.1,3 C10.1,3.1 10.1,3 10.2,2.8 C10.3,2.6 10.2,1.3 9.2,0.8 Z"></path>
                        <path d="M5.5,0.8 C3.9,0.8 2.7,2.1 2.7,3.6 C2.7,5.1 4,6.4 5.5,6.4 C7.1,6.4 8.3,5.1 8.3,3.6 C8.3,2.1 7.1,0.8 5.5,0.8 C5.5,0.8 5.5,0.8 5.5,0.8 Z"></path>
                    </g>
                </g>
                <g transform="translate(50.000000, 0.000000)">
                    <path d="M8.9,7.5 L3,7.5 C1.3,7.7 0.1,9.1 0.1,10.8 L0.1,17.6 C0.3,18.1 0.8,18.4 1.4,18.3 C1.7,18.2 2,18 2.1,17.6 L2.1,11.7 C2.1,11.5 2.2,11.2 2.6,11.2 C3,11.2 2.9,11.5 2.9,11.7 L2.9,29.3 C3,30.1 3.6,30.6 4.4,30.6 C5.1,30.5 5.6,30 5.7,29.3 L5.7,19.2 C5.7,19 5.8,18.8 6,18.8 C6,18.8 6,18.8 6.1,18.8 L6.1,18.8 C6.3,18.8 6.5,18.9 6.5,19.1 C6.5,19.1 6.5,19.1 6.5,19.2 L6.5,29.3 C6.6,30.1 7.2,30.6 8,30.6 C8.7,30.5 9.2,30 9.3,29.3 L9.3,11.7 C9.3,11.5 9.4,11.2 9.6,11.2 C9.8,11.2 10.1,11.5 10.1,11.7 L10.1,17.6 C10.3,18.1 10.8,18.4 11.4,18.3 C11.7,18.2 12,18 12.1,17.6 L12.1,10.8 C11.8,9.1 10.5,7.7 8.9,7.5 Z"></path>
                    <g transform="translate(2.000000, 0.000000)">
                        <path d="M5.8,3.4 C5.6,3.2 5.4,3 5,3.2 C4.6,3.4 4.7,3.4 4.3,3.5 C3.7,3.7 3.1,3.9 2.5,4 C2,4.1 1.6,4.1 1.1,4.1 C1.2,5.6 2.6,6.8 4.1,6.6 C5.4,6.5 6.5,5.5 6.6,4.1 C6.4,3.9 6.1,3.7 5.8,3.4 Z"></path>
                        <path d="M2.4,3.4 C3,3.3 3.5,3.2 4,3 C4.5,2.8 4.9,2.6 4.9,2.6 C5.1,2.5 5.3,2.5 5.5,2.5 C5.6,2.5 5.7,2.6 5.7,2.7 L5.9,2.9 C6.1,3.1 6.4,3.3 6.7,3.5 C6.8,3.6 6.8,3.6 6.9,3.6 C7,3.6 7,3.1 7,2.9 C6.9,2.2 6.6,1.5 6.1,0.9 C6,0.9 5.8,0.6 5.5,0.7 C5.2,0.8 4.8,0.5 4.7,0.4 C4,0.2 3.2,0.3 2.5,0.7 C1.6,1.3 1,2.2 0.6,3.2 C0.5,3.4 0.9,3.5 1.1,3.5 C1.5,3.5 2,3.5 2.4,3.4 Z"></path>
                    </g>
                </g>
            </g>
        </g>
    </g>
</svg>