<?xml version="1.0" encoding="UTF-8"?>
<svg width="95px" height="95px" viewBox="0 0 95 95" version="1.1" xmlns="http://www.w3.org/2000/svg" xmlns:xlink="http://www.w3.org/1999/xlink">
    <!-- Generator: Sketch 53.2 (72643) - https://sketchapp.com -->
    <title>goal_1_target_1_3</title>
    <desc>Created with Sketch.</desc>
    <g id="goal_1_target_1_3" stroke="none" stroke-width="1" fill="none" fill-rule="evenodd">
        <g id="Group-4" fill-rule="nonzero">
            <rect id="Rectangle" fill="#E5243B" x="3.55271368e-14" y="-2.13162821e-14" width="94.8" height="94.8"></rect>
            <g id="Group" transform="translate(6.700000, 8.000000)" fill="#FFFFFF">
                <g transform="translate(4.000000, 28.000000)">
                    <g transform="translate(54.000000, 0.000000)">
                        <path d="M9.3,6.4 C11.1,6.4 12.5,5 12.5,3.2 C12.5,1.4 11.1,0 9.3,0 C7.5,0 6.1,1.4 6.1,3.2 C6.1,5 7.5,6.4 9.3,6.4 L9.3,6.4 Z" id="Path"></path>
                        <path d="M18.4,19.1 L15.7,10.5 C15.7,10.5 14.8,8 12.7,8 L5.9,8 C3.8,8 2.9,10.5 2.9,10.5 L0.2,19.1 C0.2,19.1 -0.3,20.7 1.1,21.1 C2.5,21.5 2.8,19.9 2.8,19.9 L4.9,12.7 C4.9,12.7 5,12.1 5.4,12.3 C5.8,12.5 5.7,13 5.7,13 L2,26.5 L5.5,26.5 L5.5,36.2 C5.6,37.1 6.4,37.8 7.3,37.7 C8.1,37.6 8.8,37 8.8,36.2 L8.8,26.5 L9.7,26.5 L9.7,36.2 C9.7,37.1 10.4,37.9 11.4,37.9 C12.3,37.9 13.1,37.2 13.1,36.2 L13.1,26.5 L16.6,26.5 L12.8,13 C12.8,13 12.6,12.4 13.1,12.3 C13.6,12.2 13.6,12.7 13.6,12.7 L15.7,19.9 C15.7,19.9 16.1,21.4 17.4,21.1 C18.7,20.8 18.4,19.1 18.4,19.1 Z M13.5,20.3 C13.5,22.6 11.6,24.5 9.3,24.5 C7,24.5 5.1,22.6 5.1,20.3 C5.1,18 7,16.1 9.3,16.1 L9.3,16.1 C11.6,16.1 13.5,18 13.5,20.3 Z" id="Shape"></path>
                        <path d="M10.4,18.4 C10,18.4 9.5,18.8 9.3,19.1 C9,18.8 8.6,18.4 8.2,18.4 C7.4,18.4 6.8,19.1 6.9,19.8 C6.9,19.8 6.9,19.8 6.9,19.8 C6.9,20.2 7.1,20.5 7.3,20.8 L9.3,22.8 L11.3,20.8 L11.3,20.8 C11.6,20.5 11.7,20.2 11.7,19.8 C11.8,19.1 11.2,18.4 10.4,18.4 C10.5,18.4 10.4,18.4 10.4,18.4 Z" id="Path"></path>
                    </g>
                    <g transform="translate(25.000000, 4.000000)" id="Path">
                        <path d="M12.4,7.5 C14.3,7.5 15.8,6 15.8,4.1 C15.8,2.2 14.3,0.7 12.4,0.7 C10.5,0.7 9,2.2 9,4.1 C9,6 10.5,7.5 12.4,7.5 C12.4,7.5 12.4,7.5 12.4,7.5 Z"></path>
                        <path d="M26.6,28.4 L25.1,25.6 C25.1,25.6 25.1,25.6 25.1,25.5 L21.7,18.8 C21.4,18.2 20.7,17.8 20.1,17.9 L15.3,17.9 L15.2,11.8 C15.2,10 14.7,8.9 13.3,8.5 C12.6,8.4 11.9,8.4 11.2,8.5 L11,8.5 L11,8.5 L5.3,10.3 L5.2,10.3 L5.1,10.4 L5,10.4 C4.7,10.6 4.5,10.8 4.4,11.1 L2.8,15.7 C2.5,16.4 2.9,17.3 3.7,17.6 C4.4,17.9 5.3,17.5 5.6,16.7 L7,12.9 L9.2,12.2 L9.3,12.2 L9.3,18.6 C9.3,20 9.8,21.5 11.2,21.9 L11.7,22 C11.9,22 12.2,22.1 12.4,22.1 L19.6,22.1 L21.5,25.8 L21.5,26 L22.2,27.3 L22.9,28.6 C22.9,28.6 22.9,28.7 23,28.7 L23,28.7 L23.7,30.1 C24.1,31 25.2,31.4 26.1,31 C27,30.6 27.4,29.5 27,28.6 C26.6,28.5 26.6,28.4 26.6,28.4 L26.6,28.4 Z"></path>
                        <path d="M16.2,24.4 C16.2,24.5 16.2,24.6 16.2,24.7 C16.2,28.5 13.1,31.6 9.3,31.6 C5.5,31.6 2.4,28.5 2.4,24.7 C2.4,23.1 2.9,21.6 3.9,20.4 L2.2,19 C-0.9,22.9 -0.2,28.7 3.8,31.7 C7.7,34.8 13.5,34.1 16.5,30.1 C17.7,28.5 18.4,26.5 18.4,24.5 C18.4,24.4 18.4,24.3 18.4,24.2 L16.2,24.2 L16.2,24.4 Z"></path>
                    </g>
                    <g id="Path">
                        <path d="M12.2,8.3 C13.9,8.3 15.3,6.9 15.3,5.2 C15.3,4.1 14.7,3.1 13.7,2.5 C13.8,2.3 13.9,2.1 13.9,1.9 C13.8,1.1 13.1,0.6 12.4,0.7 C11.6,0.6 10.9,1.2 10.8,1.9 C10.8,2.1 10.8,2.2 10.9,2.4 C9.4,3.1 8.7,5 9.4,6.5 C10,7.6 11.1,8.3 12.2,8.3 L12.2,8.3 Z"></path>
                        <path d="M21,19.6 L18.4,11.3 C18.4,11.3 17.5,8.9 15.4,8.9 L9,8.9 C7,8.9 6,11.3 6,11.3 L3.4,19.6 C3.4,19.6 3,20.9 3.9,21.4 C3.9,21.4 3.9,21.5 3.9,21.5 L0.9,37.2 C0.8,37.4 1,37.7 1.3,37.7 C1.3,37.7 1.3,37.7 1.3,37.7 L1.4,37.7 C1.6,37.7 1.8,37.5 1.9,37.3 L4.9,21.6 C4.9,21.6 4.9,21.5 4.9,21.5 C5.7,21.4 6,20.4 6,20.4 L8.1,13.4 C8.1,13.4 8.2,12.9 8.6,13 C9,13.1 8.8,13.7 8.8,13.7 L5.2,26.8 L8.5,26.8 L8.5,36.1 C8.5,37 9.2,37.7 10.1,37.7 C11,37.7 11.7,37 11.7,36.1 L11.7,26.8 L12.6,26.8 L12.6,36.1 C12.7,37 13.4,37.6 14.3,37.6 C15.1,37.5 15.7,36.9 15.8,36.1 L15.8,26.8 L19.1,26.8 L15.5,13.7 C15.5,13.7 15.4,13.1 15.7,13 C16,12.9 16.2,13.4 16.2,13.4 L18.3,20.4 C18.3,20.4 18.7,21.9 20,21.5 C21.3,21.1 21,19.6 21,19.6 Z"></path>
                    </g>
                </g>
                <path d="M80.4,17.5 L41.2,0.6 C41.1,0.5 40.9,0.5 40.8,0.5 C40.7,0.5 40.6,0.5 40.5,0.6 L1.3,17.5 C1.1,17.6 1.1,17.7 1.1,17.9 L1.1,21.9 C1.1,22.2 1.1,22.6 1.6,22.4 L40.7,6.2 C40.8,6.1 41,6.1 41.1,6.2 L80.2,22.3 C80.7,22.5 80.7,22.2 80.7,21.8 L80.7,17.8 C80.6,17.7 80.5,17.6 80.4,17.5 Z" id="Path"></path>
                <path d="M1.5,74.6 L79.9,74.6 C80.2,74.6 80.5,74.9 80.5,75.2 L80.5,78.8 C80.5,79.1 80.2,79.4 79.9,79.4 L1.5,79.4 C1.2,79.4 0.9,79.1 0.9,78.8 L0.9,75.2 C0.9,74.9 1.2,74.6 1.5,74.6 Z" id="Path"></path>
            </g>
        </g>
    </g>
</svg>