<?xml version="1.0" encoding="UTF-8"?>
<svg width="95px" height="95px" viewBox="0 0 95 95" version="1.1" xmlns="http://www.w3.org/2000/svg" xmlns:xlink="http://www.w3.org/1999/xlink">
    <!-- Generator: Sketch 53.2 (72643) - https://sketchapp.com -->
    <title>goal_11_target_11_6</title>
    <desc>Created with Sketch.</desc>
    <g id="goal_11_target_11_6" stroke="none" stroke-width="1" fill="none" fill-rule="evenodd">
        <g id="Group-88" fill-rule="nonzero">
            <rect id="Rectangle" fill="#FD9D24" x="-3.62376795e-13" y="-2.13162821e-14" width="94.8" height="94.8"></rect>
            <g id="Group" transform="translate(9.700000, 8.000000)" fill="#FFFFFF">
                <g transform="translate(8.000000, 57.000000)">
                    <path d="M51.9,8.3 C51,8.3 50,8.5 49.2,8.9 L47.6,6.4 L48.8,4.3 L50.2,4.4 C50.7,4.4 51,4.3 51,3.8 L51,3.4 C51,3 50.8,2.7 50.4,2.6 C50.3,2.6 50.3,2.6 50.2,2.6 L45.2,2.6 C45,2.6 44.8,2.8 44.8,3 C44.8,3 44.8,3 44.8,3 L44.8,3.5 C44.8,3.7 44.9,3.8 45.1,3.9 L46.6,4 L46,5.2 L37.1,4.2 L37.1,2.8 C37.1,2.5 36.9,2.2 36.6,2 L34,0.6 L34,0.6 C33.9,0.5 33.7,0.5 33.5,0.4 C33,0.4 32.6,0.8 32.6,1.3 L32.6,1.3 C32.6,1.6 32.8,2 33.1,2.1 L33.1,2.1 L35.3,3.4 L35.3,4.6 L35.3,4.6 L33.5,8.4 C32.8,8.2 32.1,8 31.4,8 C27.7,8 24.6,11 24.6,14.8 C24.6,18.5 27.6,21.6 31.4,21.6 C35.1,21.6 38.2,18.6 38.2,14.8 C38.2,12.5 37.1,10.4 35.2,9.2 L36.2,7 L41.2,15.2 C41.4,15.5 41.7,15.6 42,15.6 L45.2,15.7 C45.6,19.4 49,22 52.7,21.6 C56.4,21.2 59,17.8 58.6,14.1 C58.2,10.8 55.3,8.2 51.9,8.3 L51.9,8.3 Z M36.3,15 C36.3,17.7 34.1,19.9 31.4,19.9 C28.7,19.9 26.5,17.7 26.5,15 C26.5,12.3 28.7,10.1 31.4,10.1 L31.4,10.1 C31.8,10.1 32.3,10.2 32.7,10.3 L30.7,14.6 L30.7,14.6 C30.6,14.7 30.6,14.8 30.6,15 C30.6,15.5 31,15.9 31.5,15.9 L31.5,15.9 C31.9,15.9 32.2,15.7 32.3,15.4 L32.3,15.4 L32.3,15.4 L32.3,15.4 L34.3,11.2 C35.6,12.1 36.3,13.5 36.3,15 Z M47.6,10 C46.4,11 45.5,12.4 45.3,14 L43.6,14 L46.6,8.3 L47.6,10 Z M48.6,11.6 L50.2,14.2 L47.1,14.1 C47.3,13.1 47.8,12.2 48.6,11.6 L48.6,11.6 Z M45.1,7.1 L42,13 L37.9,6.3 L45.1,7.1 Z M51.9,20 C49.5,20 47.5,18.3 47.1,15.9 L51.9,16 L51.9,16 C52.4,16 52.8,15.6 52.8,15.1 C52.8,14.9 52.8,14.8 52.7,14.6 L50.2,10.5 C50.8,10.3 51.3,10.2 51.9,10.2 C54.6,10.2 56.8,12.4 56.8,15.1 C56.7,17.8 54.5,20 51.9,20 L51.9,20 Z" id="Shape"></path>
                    <g transform="translate(0.000000, 1.000000)">
                        <path d="M17.2,1.6 L11.5,1.6 L11.5,0.9 C11.5,0.8 11.4,0.7 11.3,0.7 C11.3,0.7 11.3,0.7 11.3,0.7 L7,0.7 C6.9,0.7 6.8,0.8 6.8,0.9 C6.8,0.9 6.8,0.9 6.8,0.9 L6.8,1.6 L1.1,1.6 C1,1.6 0.9,1.7 0.9,1.8 C0.9,1.8 0.9,1.8 0.9,1.8 L1,2.7 C1,2.8 1.1,2.9 1.2,2.9 C1.2,2.9 1.2,2.9 1.2,2.9 L17.1,2.9 C17.2,2.9 17.3,2.8 17.3,2.7 C17.3,2.7 17.3,2.7 17.3,2.7 L17.5,1.8 C17.5,1.7 17.4,1.6 17.2,1.6 C17.3,1.6 17.3,1.6 17.2,1.6 Z" id="Path"></path>
                        <path d="M17,3.8 L1.3,3.8 C1.2,3.8 1.1,3.9 1.1,4 C1.1,4 1.1,4 1.1,4 L2.2,20.6 C2.2,20.7 2.3,20.8 2.4,20.8 L2.4,20.8 L15.9,20.8 C16,20.8 16.1,20.7 16.1,20.6 L16.1,20.6 L17.2,4 C17.2,3.9 17.1,3.8 17,3.8 C17,3.8 17,3.8 17,3.8 Z M5.4,18.5 L5.4,18.5 C5.1,18.5 4.9,18.3 4.9,18 L4.2,6.8 C4.2,6.5 4.4,6.2 4.7,6.2 C4.7,6.2 4.7,6.2 4.7,6.2 C5,6.2 5.3,6.4 5.3,6.7 L5.9,18 C5.9,18.3 5.7,18.5 5.4,18.5 Z M9.7,18 C9.7,18.3 9.5,18.6 9.2,18.6 C8.9,18.6 8.6,18.4 8.6,18.1 C8.6,18.1 8.6,18 8.6,18 L8.6,6.7 C8.6,6.4 8.8,6.1 9.1,6.1 C9.4,6.1 9.7,6.3 9.7,6.6 C9.7,6.6 9.7,6.7 9.7,6.7 L9.7,18 Z M13.6,18 C13.6,18.3 13.3,18.5 13.1,18.5 L13.1,18.5 C12.8,18.5 12.6,18.2 12.6,17.9 L13.3,6.6 C13.3,6.3 13.6,6.1 13.9,6.1 C14.2,6.1 14.4,6.4 14.4,6.7 C14.4,6.7 14.4,6.7 14.4,6.7 L13.6,18 Z" id="Shape"></path>
                    </g>
                </g>
                <path d="M11.2,44.8 L9.7,44.8 L9.7,48.7 C9.7,48.8 9.6,48.8 9.6,48.8 L7.8,48.8 C7.7,48.8 7.7,48.8 7.7,48.7 C7.7,48.7 7.7,48.7 7.7,48.7 L7.7,44.8 L4.8,44.8 C2.9,44.8 1.4,43.3 1.4,41.4 C1.4,40.5 1.7,39.6 2.4,39 C0.9,38.1 0.3,36.2 1.2,34.7 C1.8,33.7 2.8,33.1 4,33.1 L4.2,33.1 C4.4,30.7 6.4,28.9 8.8,29.1 C11.1,29.3 12.8,31.1 12.8,33.4 C12.8,34.1 12.7,34.7 12.4,35.3 C15,35.9 16.6,38.4 16.1,41 C15.5,43.2 13.5,44.8 11.2,44.8 L11.2,44.8 Z" id="Path"></path>
                <path d="M67.2,44.9 L67.2,48.7 C67.2,48.8 67.3,48.8 67.3,48.8 C67.3,48.8 67.3,48.8 67.3,48.8 L69,48.8 C69.1,48.8 69.1,48.8 69.1,48.7 C69.1,48.7 69.1,48.7 69.1,48.7 L69.1,44.9 C71.8,44.3 73.7,41.9 73.6,39.2 C73.6,35.8 71,30.2 67.9,30.2 C64.8,30.2 62.3,35.9 62.3,39.2 C62.2,42 64.3,44.5 67.2,44.9 Z" id="Path"></path>
                <g transform="translate(22.000000, 0.000000)">
                    <g transform="translate(28.000000, 0.000000)" id="Path">
                        <g transform="translate(9.000000, 0.000000)">
                            <path d="M4.6,4.9 C6.4,3 9.3,2.8 11.3,4.6 C13.3,6.4 13.4,9.3 11.6,11.3 C9.8,13.2 6.9,13.4 5,11.6 C2.9,9.8 2.8,6.8 4.6,4.9 C4.5,4.9 4.5,4.9 4.6,4.9 Z"></path>
                            <path d="M3.9,12.1 C4,12 4.3,12 4.4,12.1 C4.5,12.2 4.5,12.5 4.4,12.6 L3,14.1 C2.9,14.2 2.6,14.2 2.5,14.1 C2.4,14 2.4,13.7 2.5,13.6 L3.9,12.1 Z"></path>
                            <path d="M12.2,4.1 C12,4.2 11.8,4.2 11.7,4.1 C11.6,4 11.6,3.7 11.7,3.6 L13,2.1 C13.2,2 13.4,2 13.5,2.1 C13.6,2.2 13.6,2.5 13.5,2.6 L12.2,4.1 Z"></path>
                            <path d="M12.6,11.7 L14.1,13.1 C14.2,13.2 14.2,13.5 14.1,13.6 C14,13.7 13.7,13.7 13.6,13.6 L12.1,12.2 C12,12 12,11.8 12.1,11.7 C12.2,11.5 12.4,11.5 12.6,11.7 Z"></path>
                            <path d="M3.5,4.5 L2,3.1 C1.9,2.9 1.9,2.7 2,2.6 C2.1,2.5 2.4,2.5 2.5,2.6 L4,4 C4.1,4.2 4.1,4.4 4,4.5 C3.9,4.6 3.7,4.6 3.5,4.5 Z"></path>
                            <path d="M6.9,13.4 C7.1,13.4 7.2,13.6 7.2,13.8 L6.8,15.8 C6.7,16 6.5,16.1 6.3,16.1 C6.1,16.1 6,15.9 6,15.7 L6.4,13.7 C6.5,13.4 6.7,13.3 6.9,13.4 Z"></path>
                            <path d="M9.2,2.8 C9,2.7 8.9,2.6 8.9,2.4 L9.3,0.4 C9.4,0.2 9.6,0.1 9.8,0.1 C10,0.1 10.1,0.3 10.1,0.5 L9.7,2.5 C9.6,2.7 9.4,2.8 9.2,2.8 Z"></path>
                            <path d="M13.3,9.2 C13.3,9 13.5,8.9 13.7,8.9 L15.7,9.4 C15.9,9.5 16,9.7 16,9.9 C15.9,10.1 15.8,10.2 15.6,10.2 L13.6,9.7 C13.4,9.7 13.3,9.5 13.3,9.2 Z"></path>
                            <path d="M0.1,6.3 C0.1,6.1 0.3,6 0.5,6 L2.5,6.5 C2.7,6.6 2.8,6.8 2.7,7 C2.6,7.2 2.5,7.2 2.3,7.2 L0.3,6.8 C0.1,6.7 6.9388939e-18,6.5 0.1,6.3 Z"></path>
                            <path d="M9.7,13.2 C9.9,13.1 10.1,13.2 10.2,13.4 L10.8,15.4 C10.8,15.6 10.7,15.8 10.5,15.9 C10.3,16 10.1,15.9 10,15.7 L9.4,13.7 C9.4,13.5 9.5,13.3 9.7,13.2 Z"></path>
                            <path d="M6.4,2.9 C6.2,3 6,2.9 5.9,2.7 L5.3,0.7 C5.2,0.5 5.4,0.3 5.6,0.2 C5.8,0.1 6,0.2 6.1,0.4 L6.7,2.4 C6.7,2.7 6.6,2.9 6.4,2.9 Z"></path>
                            <path d="M15.6,6.1 L13.6,6.7 C13.4,6.7 13.2,6.6 13.1,6.4 C13,6.2 13.1,6 13.3,5.9 L15.3,5.3 C15.5,5.2 15.7,5.4 15.8,5.5 C15.9,5.8 15.8,6 15.6,6.1 Z"></path>
                            <path d="M0.5,10.1 L2.5,9.5 C2.7,9.5 2.9,9.6 3,9.8 C3.1,10 3,10.2 2.8,10.3 L0.8,10.9 C0.6,10.9 0.4,10.8 0.3,10.6 C0.2,10.4 0.3,10.2 0.5,10.1 Z"></path>
                        </g>
                        <g transform="translate(0.000000, 11.000000)">
                            <path d="M2.7,3.5 L3.5,4.4 L0.3,5.2 L1.2,2 L2,2.9 L4.3,0.7 C4.5,0.5 4.7,0.5 4.9,0.7 C5.1,0.9 5.1,1.1 4.9,1.3 C4.9,1.3 4.9,1.3 4.9,1.3 L2.7,3.5 Z"></path>
                            <path d="M3.8,9.1 L4.7,6 L5.5,6.9 L7.8,4.7 C8,4.6 8.2,4.6 8.4,4.8 C8.5,5 8.5,5.2 8.4,5.3 L6.1,7.5 L6.9,8.4 L3.8,9.1 Z"></path>
                        </g>
                    </g>
                    <path d="M22.2,12.2 L22.3,12.1 C22.4,12 22.6,12 22.7,12.2 L32.9,25 C33,25.1 33,25.3 32.8,25.4 L32.7,25.5 C32.6,25.6 32.4,25.6 32.3,25.4 L22.1,12.7 C22,12.5 22.1,12.4 22.2,12.2 Z" id="Path"></path>
                    <path d="M0.6,0.7 L0.6,48.6 C0.6,48.8 0.7,48.9 0.9,48.9 C0.9,48.9 0.9,48.9 0.9,48.9 L7.9,48.9 L7.9,41.1 C7.9,40.9 8.1,40.7 8.3,40.7 L8.3,40.7 L12.2,40.7 C12.4,40.7 12.6,40.9 12.6,41.1 L12.6,48.9 L20.6,48.9 L20.6,41.1 C20.6,40.9 20.8,40.7 20.9,40.7 C20.9,40.7 20.9,40.7 20.9,40.7 L24.7,40.7 C24.9,40.7 25.1,40.9 25.1,41.1 C25.1,41.1 25.1,41.1 25.1,41.1 L25.1,48.6 L25.1,48.6 L25.1,48.9 L33,48.9 C33.2,48.9 33.3,48.8 33.3,48.6 L33.3,48.6 L33.3,27.7 C33.3,27.6 33.3,27.5 33.2,27.4 L33.1,27.3 L31.4,25.1 L28,20.8 L23.7,15.3 L23,14.5 L19.8,10.4 L19.7,10.2 L19.7,10.2 C19.6,10.2 19.6,10.1 19.5,10.1 C19.3,10.1 19.2,10.2 19.2,10.4 C19.2,10.4 19.2,10.5 19.2,10.5 L19.2,25 L14,25 L14,0.7 C14,0.4 13.7,0.1 13.4,0.1 L13.4,0.1 L1.3,0.1 C0.9,0.1 0.6,0.3 0.6,0.7 C0.6,0.7 0.6,0.7 0.6,0.7 Z M24.8,19.9 C24.8,20.1 24.6,20.3 24.4,20.3 L21,20.3 C20.8,20.3 20.6,20.1 20.6,19.9 L20.6,15.6 C20.6,15.4 20.8,15.3 21,15.3 C21.1,15.3 21.2,15.4 21.3,15.4 L21.4,15.5 C22.2,16.4 23.7,18.3 24.6,19.5 L24.7,19.6 C24.8,19.7 24.8,19.8 24.8,19.9 Z M26.9,41 C26.9,40.8 27.1,40.6 27.3,40.6 L31.2,40.6 C31.4,40.6 31.6,40.8 31.6,41 C31.6,41 31.6,41 31.6,41 L31.6,43.4 C31.6,43.6 31.4,43.8 31.3,43.8 C31.3,43.8 31.3,43.8 31.3,43.8 L27.4,43.8 C27.2,43.8 27,43.6 27,43.4 C27,43.4 27,43.4 27,43.4 L27,41 L26.9,41 Z M26.8,36.1 C26.8,35.9 26.9,35.8 27.1,35.8 L27.1,35.8 L31.2,35.8 C31.4,35.8 31.5,35.9 31.5,36.1 L31.5,36.1 L31.5,38.6 C31.5,38.8 31.4,38.9 31.2,38.9 L31.2,38.9 L27.1,38.9 C26.9,38.9 26.8,38.8 26.8,38.6 L26.8,38.6 L26.8,36.1 L26.8,36.1 Z M26.8,31.4 C26.8,31.2 26.9,31.1 27.1,31.1 L31.2,31.1 C31.4,31.1 31.5,31.3 31.5,31.4 L31.5,34 C31.5,34.2 31.4,34.3 31.2,34.3 L31.2,34.3 L27.1,34.3 C26.9,34.3 26.8,34.2 26.8,34 L26.8,34 L26.8,31.4 L26.8,31.4 Z M26.8,23.5 C26.8,23.3 27,23.2 27.2,23.2 C27.3,23.2 27.4,23.2 27.5,23.3 L27.6,23.4 C28.6,24.6 30.9,27.5 31.4,28.2 L31.4,28.3 L31.4,28.3 L31.4,28.3 C31.4,28.3 31.4,28.4 31.4,28.4 L31.4,29.1 C31.4,29.3 31.3,29.4 31.1,29.4 L31.1,29.4 L27.1,29.4 C26.9,29.4 26.8,29.3 26.8,29.1 L26.8,29.1 L26.8,23.5 Z M20.7,36.2 C20.7,36 20.8,35.9 21,35.9 L21,35.9 L25,35.9 C25.2,35.9 25.3,36 25.3,36.2 L25.3,36.2 L25.3,38.7 C25.3,38.9 25.1,39 25,39 L21,39 C20.8,39 20.7,38.9 20.7,38.7 L20.7,38.7 L20.7,36.2 Z M20.7,31.5 C20.7,31.3 20.8,31.2 21,31.2 L25,31.2 C25.2,31.2 25.3,31.4 25.3,31.5 L25.3,34 C25.3,34.2 25.2,34.3 25,34.3 L25,34.3 L21,34.3 C20.8,34.3 20.7,34.2 20.7,34 L20.7,34 L20.7,31.5 Z M20.7,26.8 C20.7,26.6 20.8,26.5 21,26.5 L25,26.5 C25.2,26.5 25.3,26.7 25.3,26.8 L25.3,29.3 C25.3,29.5 25.2,29.6 25,29.6 L21,29.6 C20.8,29.6 20.7,29.4 20.7,29.3 L20.7,26.8 Z M20.7,22.1 C20.7,21.9 20.8,21.8 21,21.8 L21,21.8 L25,21.8 C25.2,21.8 25.3,21.9 25.3,22.1 L25.3,22.1 L25.3,24.6 C25.3,24.8 25.2,25 25,25 C25,25 25,25 25,25 L21,25 C20.8,25 20.7,24.8 20.7,24.7 L20.7,22.1 Z M14.4,41.1 C14.4,40.9 14.6,40.7 14.8,40.7 L18.7,40.7 C18.9,40.7 19.1,40.9 19.1,41.1 L19.1,43.5 C19.1,43.7 18.9,43.9 18.7,43.9 C18.7,43.9 18.7,43.9 18.7,43.9 L14.8,43.9 C14.6,43.9 14.4,43.7 14.4,43.5 C14.4,43.5 14.4,43.5 14.4,43.5 L14.4,41.1 Z M14.4,36.4 C14.4,36.2 14.6,36 14.8,36 L18.7,36 C18.9,36 19.1,36.2 19.1,36.4 L19.1,38.8 C19.1,39 18.9,39.2 18.7,39.2 L14.8,39.2 C14.6,39.2 14.4,39 14.4,38.8 L14.4,36.4 Z M14.4,31.6 C14.4,31.4 14.6,31.2 14.8,31.2 C14.8,31.2 14.8,31.2 14.8,31.2 L18.7,31.2 C18.9,31.2 19.1,31.4 19.1,31.6 C19.1,31.6 19.1,31.6 19.1,31.6 L19.1,34 C19.1,34.2 18.9,34.4 18.7,34.4 C18.7,34.4 18.7,34.4 18.7,34.4 L14.8,34.4 C14.6,34.4 14.4,34.2 14.4,34 C14.4,34 14.4,34 14.4,34 L14.4,31.6 Z M14.4,26.8 C14.4,26.6 14.6,26.4 14.8,26.4 L18.7,26.4 C18.9,26.4 19.1,26.6 19.1,26.8 L19.1,29.2 C19.1,29.4 18.9,29.6 18.7,29.6 L14.8,29.6 C14.6,29.6 14.4,29.4 14.4,29.2 L14.4,26.8 Z M8,36.4 C8,36.2 8.2,36 8.4,36 L12.3,36 C12.5,36 12.7,36.2 12.7,36.4 L12.7,38.8 C12.7,39 12.5,39.2 12.3,39.2 L8.4,39.2 C8.2,39.2 8,39 8,38.8 C8,38.8 8,38.8 8,38.8 L8,36.4 Z M8,31.6 C8,31.4 8.2,31.2 8.4,31.2 L12.3,31.2 C12.5,31.2 12.7,31.4 12.7,31.6 C12.7,31.6 12.7,31.6 12.7,31.6 L12.7,34 C12.7,34.2 12.5,34.4 12.3,34.4 C12.3,34.4 12.3,34.4 12.3,34.4 L8.4,34.4 C8.2,34.4 8,34.2 8,34 L8,31.6 Z M8,26.9 C8,26.7 8.2,26.5 8.4,26.5 L12.3,26.5 C12.5,26.5 12.7,26.7 12.7,26.9 L12.7,29.3 C12.7,29.5 12.5,29.7 12.3,29.7 C12.3,29.7 12.3,29.7 12.3,29.7 L8.4,29.7 C8.2,29.7 8,29.5 8,29.3 L8,26.9 Z M8,22.2 C8,22 8.2,21.8 8.4,21.8 C8.4,21.8 8.4,21.8 8.4,21.8 L12.3,21.8 C12.5,21.8 12.7,22 12.7,22.2 L12.7,24.6 C12.7,24.8 12.5,25 12.3,25 L8.4,25 C8.2,25 8,24.8 8,24.6 C8,24.6 8,24.6 8,24.6 L8,22.2 Z M8,17.4 C8,17.2 8.2,17 8.4,17 C8.4,17 8.4,17 8.4,17 L12.3,17 C12.5,17 12.7,17.2 12.7,17.4 C12.7,17.4 12.7,17.4 12.7,17.4 L12.7,19.8 C12.7,20 12.5,20.2 12.3,20.2 C12.3,20.2 12.3,20.2 12.3,20.2 L8.4,20.2 C8.2,20.2 8,20 8,19.8 L8,17.4 Z M8,12.7 C8,12.5 8.2,12.3 8.4,12.3 L12.3,12.3 C12.5,12.3 12.7,12.5 12.7,12.7 L12.7,15.1 C12.7,15.3 12.5,15.5 12.3,15.5 C12.3,15.5 12.3,15.5 12.3,15.5 L8.4,15.5 C8.2,15.5 8,15.3 8,15.1 L8,12.7 Z M8,8 C8,7.8 8.2,7.6 8.4,7.6 C8.4,7.6 8.4,7.6 8.4,7.6 L12.3,7.6 C12.5,7.6 12.7,7.8 12.7,8 L12.7,10.4 C12.7,10.6 12.5,10.8 12.3,10.8 L8.4,10.8 C8.2,10.8 8,10.6 8,10.4 C8,10.4 8,10.4 8,10.4 L8,8 Z M8,3.3 C8,3.1 8.2,2.9 8.4,2.9 L12.3,2.9 C12.5,2.9 12.7,3.1 12.7,3.3 C12.7,3.3 12.7,3.3 12.7,3.3 L12.7,5.6 C12.7,5.8 12.5,6 12.3,6 C12.3,6 12.3,6 12.3,6 L8.4,6 C8.2,6 8,5.8 8,5.6 L8,3.3 Z M1.9,41.1 C1.9,40.9 2.1,40.7 2.3,40.7 L2.3,40.7 L6.2,40.7 C6.4,40.7 6.6,40.9 6.6,41.1 L6.6,41.1 L6.6,43.5 C6.6,43.7 6.4,43.9 6.2,43.9 L6.2,43.9 L2.3,43.9 C2.1,43.9 1.9,43.7 1.9,43.5 L1.9,43.5 L1.9,41.1 Z M1.9,36.3 C1.9,36.1 2.1,35.9 2.3,35.9 L2.3,35.9 L6.2,35.9 C6.4,35.9 6.6,36.1 6.6,36.3 L6.6,36.3 L6.6,38.7 C6.6,38.9 6.4,39.1 6.2,39.1 L6.2,39.1 L2.3,39.1 C2.1,39.1 1.9,38.9 1.9,38.7 L1.9,38.7 L1.9,36.3 Z M1.9,31.6 C1.9,31.4 2.1,31.2 2.3,31.2 L6.2,31.2 C6.4,31.2 6.6,31.4 6.6,31.6 L6.6,34 C6.6,34.2 6.4,34.4 6.2,34.4 L6.2,34.4 L2.3,34.4 C2.1,34.4 1.9,34.2 1.9,34 L1.9,34 L1.9,31.6 Z M1.9,26.9 C1.9,26.7 2.1,26.5 2.3,26.5 C2.3,26.5 2.3,26.5 2.3,26.5 L6.2,26.5 C6.4,26.5 6.6,26.7 6.6,26.9 C6.6,26.9 6.6,26.9 6.6,26.9 L6.6,29.3 C6.6,29.5 6.4,29.7 6.2,29.7 L2.3,29.7 C2.1,29.7 1.9,29.5 1.9,29.3 L1.9,26.9 Z M1.9,22.1 C1.9,21.9 2.1,21.7 2.3,21.7 C2.3,21.7 2.3,21.7 2.3,21.7 L6.2,21.7 C6.4,21.7 6.6,21.9 6.6,22.1 C6.6,22.1 6.6,22.1 6.6,22.1 L6.6,24.5 C6.6,24.7 6.4,24.9 6.2,24.9 L2.3,24.9 C2.1,24.9 1.9,24.7 1.9,24.5 L1.9,22.1 Z M1.9,17.4 C1.9,17.2 2.1,17 2.3,17 L6.2,17 C6.4,17 6.6,17.2 6.6,17.4 L6.6,19.8 C6.6,20 6.4,20.2 6.2,20.2 C6.2,20.2 6.2,20.2 6.2,20.2 L2.3,20.2 C2.1,20.2 1.9,20 1.9,19.8 C1.9,19.8 1.9,19.8 1.9,19.8 L1.9,17.4 Z M1.9,12.7 C1.9,12.5 2.1,12.3 2.3,12.3 L6.2,12.3 C6.4,12.3 6.6,12.5 6.6,12.7 L6.6,15.1 C6.6,15.3 6.4,15.5 6.2,15.5 C6.2,15.5 6.2,15.5 6.2,15.5 L2.3,15.5 C2.1,15.5 1.9,15.3 1.9,15.1 C1.9,15.1 1.9,15.1 1.9,15.1 L1.9,12.7 Z M1.9,7.9 C1.9,7.7 2.1,7.5 2.3,7.5 L6.2,7.5 C6.4,7.5 6.6,7.7 6.6,7.9 L6.6,10.3 C6.6,10.5 6.4,10.7 6.2,10.7 L2.3,10.7 C2.1,10.7 1.9,10.5 1.9,10.3 L1.9,7.9 Z M1.9,3.2 C1.9,3 2.1,2.8 2.3,2.8 L6.2,2.8 C6.4,2.8 6.6,3 6.6,3.2 L6.6,5.6 C6.6,5.8 6.4,6 6.2,6 L2.3,6 C2.1,6 1.9,5.8 1.9,5.6 L1.9,3.2 Z" id="Shape"></path>
                </g>
            </g>
        </g>
    </g>
</svg>