<?xml version="1.0" encoding="UTF-8"?>
<svg width="95px" height="95px" viewBox="0 0 95 95" version="1.1" xmlns="http://www.w3.org/2000/svg" xmlns:xlink="http://www.w3.org/1999/xlink">
    <!-- Generator: Sketch 53.2 (72643) - https://sketchapp.com -->
    <title>goal_13_target_13_a</title>
    <desc>Created with Sketch.</desc>
    <g id="goal_13_target_13_a" stroke="none" stroke-width="1" fill="none" fill-rule="evenodd">
        <g id="Group-108" fill-rule="nonzero">
            <rect id="Rectangle" fill="#3F7E44" x="-3.62376795e-13" y="-2.13162821e-14" width="94.8" height="94.8"></rect>
            <g id="Group" transform="translate(12.700000, 13.000000)" fill="#FFFFFF">
                <path d="M11.1,46.9 L11.1,62.6 C11.1,65.8 9.7,67.9 6.1,67.9 C2.5,67.9 0.9,65.8 0.9,62.6 L0.9,46.9 L4.4,46.9 L4.4,63 C4.4,64.2 4.9,65.1 6.1,65.1 C7.3,65.1 7.8,64.3 7.8,63 L7.8,46.9 L11.1,46.9 Z" id="Path"></path>
                <polygon id="Path" points="16.2 54.6 16.2 67.7 13.2 67.7 13.2 46.9 16.6 46.9 20.4 58.8 20.4 46.9 23.3 46.9 23.3 67.7 20.2 67.7"></polygon>
                <polygon id="Path" points="25.3 46.9 33.5 46.9 33.5 49.7 28.8 49.7 28.8 55.7 32.3 55.7 32.3 58.5 28.8 58.5 28.8 67.7 25.3 67.7"></polygon>
                <path d="M34.5,62.3 L34.5,52.2 C34.5,48.9 36,46.6 39.7,46.6 C43.6,46.6 44.6,48.8 44.6,51.8 L44.6,54.2 L41.4,54.2 L41.4,51.5 C41.4,50.2 41,49.5 39.7,49.5 C38.4,49.5 38,50.4 38,51.7 L38,62.9 C38,64.2 38.5,65.1 39.8,65.1 C41.1,65.1 41.5,64.3 41.5,63.1 L41.5,59.2 L44.7,59.2 L44.7,62.8 C44.7,65.8 43.5,68 39.8,68 C36.1,68 34.5,65.5 34.5,62.3 Z" id="Path"></path>
                <path d="M46.4,62.3 L46.4,52.2 C46.4,48.9 47.9,46.6 51.6,46.6 C55.5,46.6 56.6,48.8 56.6,51.8 L56.6,54.2 L53.4,54.2 L53.4,51.5 C53.4,50.2 53,49.5 51.7,49.5 C50.4,49.5 50,50.4 50,51.7 L50,62.8 C50,64.1 50.5,65 51.8,65 C53.1,65 53.5,64.2 53.5,63 L53.5,59.1 L56.7,59.1 L56.7,62.7 C56.7,65.7 55.5,67.9 51.7,67.9 C47.9,67.9 46.4,65.5 46.4,62.3 Z" id="Path"></path>
                <path d="M58.3,62.3 L58.3,52.2 C58.3,48.9 59.8,46.6 63.5,46.6 C67.4,46.6 68.4,48.8 68.4,51.8 L68.4,54.2 L65.2,54.2 L65.2,51.5 C65.2,50.2 64.8,49.5 63.5,49.5 C62.2,49.5 61.7,50.4 61.7,51.7 L61.7,62.8 C61.7,64.1 62.2,65 63.5,65 C64.8,65 65.2,64.2 65.2,63 L65.2,59.1 L68.4,59.1 L68.4,62.7 C68.4,65.7 67.2,67.9 63.5,67.9 C59.8,67.9 58.3,65.5 58.3,62.3 Z" id="Path"></path>
                <path d="M68.3,17.8 C54.6,-0.7 28.5,-4.5 10,9.2 C6.7,11.6 3.8,14.5 1.4,17.8 L1.1,18.2 L1.4,18.6 C15.1,37 41.2,40.9 59.7,27.1 C63,24.7 65.9,21.8 68.3,18.5 L68.6,18.1 L68.3,17.8 M23.6,9.5 C23.8,9.2 24.4,8.5 24.5,8.4 C24.7,8.2 24.9,8.1 25.2,8.1 C25.4,8.1 25.7,8.2 25.7,8.3 C25.7,8.6 25.6,8.9 25.5,9.2 C25.1,9.6 24.6,9.8 24,9.9 C23.7,9.9 23.5,9.6 23.6,9.5 M22.9,10.9 L22.9,10.9 C23.3,10.6 23.7,10.4 24.1,10.4 C24.4,10.3 24.9,10.5 25,10.7 C25.1,10.9 24.1,11.4 24,11.5 C23.5,12 22.8,12.9 22.3,13 C22.2,13 22.1,13 21.9,13 C22.2,12.3 22.5,11.6 22.9,10.9 M30.4,26.5 C30.3,27.2 30,27.8 29.5,28.3 C29,28.7 28.4,29 27.7,29 C27.1,29 27,27.2 27,26.4 C27,26.1 26.6,27 26.3,25.2 C26.2,24 25.4,25.3 25.4,24.5 C25.4,23.7 25,23.9 24.6,23.4 C24.2,22.9 23.7,23.4 23.2,23.7 C22.7,24 22.8,24 22,23.8 L22,23.8 C21.3,22.1 20.9,20.2 20.9,18.3 C20.9,17.8 20.9,17.4 21,16.9 L21.1,16.8 C21.9,15.9 21.8,15.7 21.8,15.7 L22.6,15.4 C23.4,15.5 24.2,15.7 24.9,16 C25.7,16.3 27,17 27.7,16.7 C28.2,16.5 28.7,16.2 28.6,15.7 C28.5,15.2 28.1,15 27.6,15.4 C27.4,15.5 27,14.6 26.6,14.6 C26.2,14.6 27,15.8 26.7,15.8 C26.4,15.8 25.9,14.6 25.8,14.5 C25.7,14.4 25.3,13.8 24.9,14.2 C24.1,15 22.7,14.9 22.4,15.1 C21.6,15.7 21.4,14.9 21.4,14.4 C21.4,14.3 21.5,14.2 21.5,14.1 C21.9,13.8 22.4,13.7 22.9,13.9 C23.3,14.1 23.5,13.8 23.7,13.7 C23.9,13.6 23.8,13.3 23.7,13.1 C23.6,12.9 23.9,12.8 24.1,12.7 C24.5,12.5 24.9,12.3 25.2,12.1 C25.9,11.9 26.6,11.9 27.3,12.1 C27.8,12.3 28.4,12.2 28.7,11.8 C29,11.5 29.3,11.2 29.7,11 C29.9,10.9 29.2,10.2 28.6,11 C28,11.8 27.7,11.8 27.4,11.8 C27.1,11.8 25.5,11.4 25.3,10.9 C25.1,10.4 25.8,10 26.4,9.7 C27.3,9.5 28.2,9.4 29.1,9.3 C29.9,9.1 31,8.7 31.6,9.1 C32.2,9.5 29.3,10.1 30.2,10.6 C30.5,10.8 32,9.7 32.5,9.5 C33.7,8.9 31.3,8.7 31.6,7.4 C31.9,6 28.7,6.5 27,6.6 C33.5,2.4 42.2,4.2 46.4,10.7 C47.3,12.1 47.9,13.6 48.3,15.1 C48.3,15.3 48.3,15.5 48.2,15.8 C48,16.3 47.5,16.5 47,16.3 C46.8,16.2 46.6,16.1 46.5,15.9 C46.4,15.7 45.7,15.1 45.8,16.1 C45.9,17.1 46.8,17.2 45.8,17.8 C45.4,18.1 44.9,18.3 44.3,18.4 C43.8,18.8 43.6,19.4 43.7,20.1 C43.8,20.6 45.1,22.1 44.1,22 C43.2,21.6 42.5,20.9 41.9,20.1 C41.6,19.3 41.3,18.6 41.1,18 C41,17.6 40.5,17.3 40.1,17.5 C40,17.5 39.9,17.6 39.8,17.7 C39.3,18 39.9,18.4 39.6,19.1 C39.3,19.8 39,20.5 38.4,19.9 C37,18.3 35,19.1 34.7,17.4 C34.5,16.4 33.7,16.5 33,16 C32.3,15.5 31.9,15.2 31.8,15.6 C31.7,16 34,17.7 34.1,18.2 C34.3,18.9 33.4,19.5 32.8,19.6 C32.2,19.7 31.8,19.2 31.2,18.6 C30.6,18 30.3,17.4 30.2,18 C30.3,18.9 30.7,19.8 31.5,20.3 C32.1,20.7 32.7,20.8 32.5,21.4 C32.3,22 32.5,21.6 31.9,22.3 C31.3,22.7 31.1,23.3 31.2,24 C31.2,24.9 31,24.9 30.9,25.7 C30.8,26.5 30.7,25.3 30.4,26.5 M45.5,20.8 C46,20.8 46.7,21.4 46.4,21.7 C46,21.9 45.4,21.9 45.1,21.6 C44.7,21.3 45.3,20.8 45.5,20.8 M44.9,20.4 C44.7,20.4 44.6,20.2 44.5,19.9 C44.4,19.6 44.7,19.4 45,19.5 C45.3,19.7 45.6,20 45.7,20.3 C45.6,20.5 45,20.4 44.9,20.4 M38.7,20.4 C38.3,20.6 37.7,20.6 37.4,20.3 C37.1,20 37.6,19.6 37.8,19.5 C38.2,19.5 38.9,20.1 38.7,20.4 M33,23.1 C32.8,23.4 32.3,25.8 31.9,25.5 C31.5,25.2 32,22.8 32.1,22.6 C32.7,21.6 33.9,21.6 33,23.1 M34.9,32.3 C33.5,32.3 32.2,32.1 30.9,31.7 C30.7,31.5 30.6,31.3 30.7,31 C31.2,30 32.3,29.3 33.5,29.3 C35.8,29.1 38.8,30.8 39.3,30.5 C39.8,30.2 40.7,29 42.1,29 C42.6,29 43,29.1 43.4,29.3 C41,31.3 38,32.3 34.9,32.3 M44.8,28.2 C44.6,28.2 44.5,28.1 44.4,28 C43.6,27.6 43.7,28.2 43.4,28.1 C43.1,28 43.8,27.1 42.7,27.8 C41.6,28.5 41.9,27.7 41.4,26.4 C41.1,25.2 41.7,23.9 42.9,23.4 C43.7,23.1 44.6,22.9 45.4,22.7 C47.1,22.3 47.4,21.3 47.7,21.9 L47.9,22.2 C48,22.5 48.1,22.8 48.1,23.1 C47.3,25.1 46.2,26.8 44.8,28.2 M48.6,21.2 C48.2,21.1 46.6,18.9 47.9,17.5 C48.1,17.3 47.5,16.6 47.7,16.6 C48.4,16.5 48.7,17 48.9,17.6 C48.9,17.9 48.9,18.1 48.9,18.4 C48.9,19.3 48.8,20.2 48.6,21.2" id="Shape"></path>
            </g>
        </g>
    </g>
</svg>