<?xml version="1.0" encoding="UTF-8"?>
<svg width="95px" height="95px" viewBox="0 0 95 95" version="1.1" xmlns="http://www.w3.org/2000/svg" xmlns:xlink="http://www.w3.org/1999/xlink">
    <!-- Generator: Sketch 53.2 (72643) - https://sketchapp.com -->
    <title>goal_5_target_5_c</title>
    <desc>Created with Sketch.</desc>
    <g id="goal_5_target_5_c" stroke="none" stroke-width="1" fill="none" fill-rule="evenodd">
        <g id="Group-38" fill-rule="nonzero">
            <rect id="Rectangle" fill="#FF3A21" x="-3.62376795e-13" y="-2.13162821e-14" width="94.8" height="94.8"></rect>
            <g id="Group" transform="translate(7.700000, 10.000000)" fill="#FFFFFF">
                <path d="M55.6,11.5 C58,11.5 59.9,9.6 59.9,7.2 C59.9,4.8 58,2.9 55.6,2.9 C53.2,2.9 51.3,4.8 51.3,7.2 C51.3,7.2 51.3,7.2 51.3,7.2 L51.3,7.2 C51.4,9.6 53.3,11.5 55.6,11.5 Z" id="Path"></path>
                <path d="M25.7,11.8 C28,11.8 29.9,9.9 29.9,7.6 C29.9,5.3 28,3.4 25.7,3.4 C23.4,3.4 21.5,5.3 21.5,7.6 L21.5,7.6 C21.5,9.9 23.4,11.8 25.7,11.8 C25.7,11.8 25.7,11.8 25.7,11.8 Z" id="Path"></path>
                <path d="M14.5,31.1 C16.3,31.6 16.8,29.6 16.8,29.6 L19.6,20.1 C19.6,20.1 19.8,19.4 20.3,19.5 C20.8,19.6 20.7,20.4 20.7,20.4 L15.8,38.2 L20.4,38.2 L20.4,51 C20.5,52.2 21.5,53.1 22.7,53 C22.7,53 22.7,53 22.7,53 C23.8,53 24.7,52.1 24.7,51 L24.7,38.2 L25.9,38.2 L25.9,51 C26,52.2 27,53.1 28.2,53 C28.2,53 28.2,53 28.2,53 C29.3,53 30.2,52.1 30.2,51 L30.2,38.2 L34.8,38.2 L30.4,22.2 C30.2,21.2 30.4,20.2 30.8,19.3 L33.7,14.1 L39.1,5 L45.4,13.3 L49.3,18.8 C49.7,19.5 50,20.3 50,21.1 L50,50.9 C50,52.2 51.1,53.3 52.4,53.3 C53.7,53.3 54.8,52.2 54.8,50.9 L54.8,33.3 C54.8,32.9 55,32.6 55.4,32.6 L55.5,32.6 C55.9,32.6 56.2,32.8 56.2,33.2 L56.2,50.8 C56.2,52.1 57.3,53.1 58.6,53.1 C59.9,53.1 60.9,52 60.9,50.8 L60.9,20.4 C60.9,20.1 61,19.6 61.5,19.6 C62.2,19.6 62.3,20.1 62.3,20.5 L62.3,30.6 C62.4,31.5 63.2,32.2 64.1,32.1 C64.9,32 65.5,31.4 65.6,30.6 L65.6,18.8 C65.6,15.8 63.3,13.4 60.4,13.1 L52,13.1 C50.8,13.2 49.6,12.6 48.9,11.7 L40.8,1.8 C40.4,1.3 40,0.9 39.5,0.6 C38.7,0.2 37.7,0.5 37.2,1.3 C37.2,1.3 37.2,1.4 37.2,1.4 L29.9,12.8 C29.2,13.5 28.3,13.9 27.3,13.8 L20.8,13.8 C18,13.8 16.8,17.1 16.8,17.1 L13.3,28.5 C13.4,28.5 12.8,30.6 14.5,31.1 Z" id="Path"></path>
                <path d="M77.9,57.8 L1.4,57.8 C1.1,57.8 0.9,58 0.8,58.3 L0.8,61.9 C0.8,62.2 1.1,62.5 1.4,62.5 L78,62.5 C78.3,62.5 78.6,62.3 78.6,61.9 C78.6,61.9 78.6,61.9 78.6,61.9 L78.6,58.3 C78.5,58.1 78.2,57.9 77.9,57.8 Z" id="Path"></path>
                <path d="M39.2,64.3 L33.9,73.5 C33.7,73.8 33.9,74.2 34.2,74.3 C34.3,74.3 34.3,74.4 34.4,74.4 L45.1,74.4 C45.4,74.4 45.7,74.2 45.7,73.9 C45.7,73.8 45.7,73.6 45.6,73.5 L40.3,64.3 C40.1,64 39.7,63.9 39.4,64.1 C39.4,64.2 39.3,64.3 39.2,64.3 Z" id="Path"></path>
            </g>
        </g>
    </g>
</svg>