<?xml version="1.0" encoding="UTF-8"?>
<svg width="95px" height="95px" viewBox="0 0 95 95" version="1.1" xmlns="http://www.w3.org/2000/svg" xmlns:xlink="http://www.w3.org/1999/xlink">
    <!-- Generator: Sketch 53.2 (72643) - https://sketchapp.com -->
    <title>goal_5_target_5_5</title>
    <desc>Created with Sketch.</desc>
    <g id="goal_5_target_5_5" stroke="none" stroke-width="1" fill="none" fill-rule="evenodd">
        <g id="Group-34" fill-rule="nonzero">
            <rect id="Rectangle" fill="#FF3A21" x="-3.62376795e-13" y="-2.13162821e-14" width="94.8" height="94.8"></rect>
            <g id="Group" transform="translate(9.700000, 11.000000)" fill="#FFFFFF">
                <path d="M19.4,14.9 C22.4,14.9 24.8,12.5 24.8,9.5 C24.8,6.5 22.4,4 19.4,4 C16.4,4 14,6.4 14,9.4 C14,12.5 16.4,14.9 19.4,14.9 C19.4,14.9 19.4,14.9 19.4,14.9 Z" id="Path"></path>
                <path d="M58,14.6 C61,14.6 63.5,12.1 63.5,9.1 C63.5,6.1 61,3.6 58,3.6 C55,3.6 52.5,6.1 52.5,9.1 C52.5,12.1 55,14.6 58,14.6 C58,14.6 58,14.6 58,14.6 Z" id="Path"></path>
                <path d="M50.1,23.9 C50.7,24.8 51,25.8 51,26.8 L51,36.2 L65,36.2 L65,26 C65,25.6 65.2,24.9 65.8,24.9 C66.7,24.9 66.8,25.6 66.8,26.1 L66.8,36.2 L71,36.2 L71,24 C71,20.2 68.1,17.1 64.4,16.7 L53.6,16.7 C52.1,16.8 50.6,16.1 49.7,14.9 L40.7,2.4 C40.3,1.7 39.7,1.1 39,0.6 C37.9,7.10542736e-15 37,0.6 36.2,1.6 L26.3,14.7 C24.5,16.9 22.8,17.5 21.7,17.5 L13.4,17.5 C9.8,17.5 8.2,21.7 8.2,21.7 L3.7,36.3 L8.6,36.3 L11.8,25.5 C11.8,25.5 12,24.6 12.7,24.8 C13.4,25 13.1,26 13.1,26 L10.3,36.3 L28,36.3 L25.8,28.3 C25.4,26.6 25.6,24.7 26.5,23.2 L30,17.8 L38.3,6.3 L45.2,16.8 L50.1,23.9 Z" id="Path"></path>
                <path d="M26.6,39 L0.6,39 L0.6,41.7 L2.7,41.7 L2.7,72.5 L28.2,72.5 L28.2,41.7 L30.3,41.7 L30.3,39 L26.6,39 Z M23.1,46.3 L7.4,46.3 L7.4,43.5 L23,43.5 L23.1,46.3 Z" id="Shape"></path>
                <path d="M71.1,39 L45.1,39 L45.1,41.7 L47.2,41.7 L47.2,72.5 L72.7,72.5 L72.7,41.7 L74.8,41.7 L74.8,39 L71.1,39 Z M67.9,46.3 L52.3,46.3 L52.3,43.5 L67.9,43.5 L67.9,46.3 Z" id="Shape"></path>
            </g>
        </g>
    </g>
</svg>