<?xml version="1.0" encoding="UTF-8"?>
<svg width="95px" height="95px" viewBox="0 0 95 95" version="1.1" xmlns="http://www.w3.org/2000/svg" xmlns:xlink="http://www.w3.org/1999/xlink">
    <!-- Generator: Sketch 53.2 (72643) - https://sketchapp.com -->
    <title>goal_12_target_12_c</title>
    <desc>Created with Sketch.</desc>
    <g id="goal_12_target_12_c" stroke="none" stroke-width="1" fill="none" fill-rule="evenodd">
        <g id="Group-103" fill-rule="nonzero">
            <rect id="Rectangle" fill="#BF8B2E" x="-3.62376795e-13" y="-2.13162821e-14" width="94.8" height="94.8"></rect>
            <g id="Group" transform="translate(6.700000, 10.000000)" fill="#000000">
                <g transform="translate(5.000000, 46.000000)">
                    <path d="M22.6,1.7 L14.9,1.7 L14.9,0.8 C14.9,0.6 14.8,0.5 14.6,0.5 L8.8,0.5 C8.6,0.5 8.5,0.6 8.5,0.8 L8.5,0.8 L8.5,1.7 L0.9,1.7 C0.7,1.7 0.6,1.8 0.6,2 L0.8,3.2 C0.8,3.4 0.9,3.5 1.1,3.5 L22.4,3.5 C22.6,3.5 22.7,3.4 22.7,3.2 L22.7,3.2 L22.9,2 C22.9,1.8 22.8,1.7 22.6,1.7 Z" id="Path"></path>
                    <path d="M22.3,4.7 L1.1,4.7 C0.9,4.7 0.8,4.8 0.8,5 L0.8,5 L2.3,27.3 C2.3,27.5 2.4,27.6 2.6,27.6 L2.6,27.6 L20.8,27.6 C21,27.6 21.1,27.5 21.1,27.3 L21.1,27.3 L22.6,5 C22.6,4.8 22.5,4.7 22.3,4.7 C22.3,4.7 22.3,4.7 22.3,4.7 Z M6.6,24.5 L6.6,24.5 C6.2,24.5 5.9,24.2 5.8,23.8 L5,8.6 C5,8.2 5.3,7.8 5.7,7.8 C6.1,7.8 6.5,8.1 6.5,8.5 C6.5,8.5 6.5,8.5 6.5,8.5 L7.4,23.6 C7.4,24.1 7.1,24.5 6.6,24.5 C6.7,24.5 6.7,24.5 6.6,24.5 Z M12.5,23.7 C12.5,24.1 12.2,24.5 11.7,24.5 C11.2,24.5 10.9,24.2 10.9,23.7 L10.9,8.6 C10.9,8.2 11.2,7.8 11.7,7.8 C12.2,7.8 12.5,8.1 12.5,8.6 L12.5,23.7 Z M17.7,23.7 C17.7,24.1 17.3,24.4 16.9,24.4 L16.9,24.4 C16.5,24.4 16.2,24 16.2,23.6 L17.1,8.5 C17.1,8.1 17.5,7.8 17.9,7.8 C18.3,7.8 18.6,8.2 18.6,8.6 L17.7,23.7 Z" id="Shape"></path>
                </g>
                <path d="M26.3,22.8 L26.3,0.5 C26.3,0.3 26.2,0.2 26,0.2 C26,0.2 26,0.2 26,0.2 L7.6,0.2 C7.4,0.2 7.3,0.3 7.3,0.5 C7.3,0.5 7.3,0.5 7.3,0.5 L7.3,22.8 L0.2,22.8 L16.9,39.5 L33.6,22.8 L26.3,22.8 Z" id="Path"></path>
            </g>
            <g id="Group" transform="translate(45.700000, 5.000000)" fill="#FFFFFF">
                <g id="Shape">
                    <g transform="translate(0.000000, 44.000000)">
                        <path d="M2.5,40.4 L0.8,40.4 L0.8,35.7 L2.5,35.7 L2.5,40.4 Z M2.5,31.6 L0.8,31.6 L0.8,26.9 L2.5,26.9 L2.5,31.6 Z M2.5,22.8 L0.8,22.8 L0.8,18 L2.5,18 L2.5,22.8 Z"></path>
                        <path d="M2.5,14 L0.8,14 L0.8,9.3 L2.5,9.3 L2.5,14 Z M2.5,5.2 L0.8,5.2 L0.8,0.5 L2.5,0.5 L2.5,5.2 Z"></path>
                    </g>
                    <g>
                        <path d="M2.5,40.4 L0.8,40.4 L0.8,35.7 L2.5,35.7 L2.5,40.4 Z M2.5,31.6 L0.8,31.6 L0.8,26.9 L2.5,26.9 L2.5,31.6 Z M2.5,22.8 L0.8,22.8 L0.8,18.1 L2.5,18.1 L2.5,22.8 Z"></path>
                        <path d="M2.5,14.1 L0.8,14.1 L0.8,9.4 L2.5,9.4 L2.5,14.1 Z M2.5,5.2 L0.8,5.2 L0.8,0.5 L2.5,0.5 L2.5,5.2 Z"></path>
                    </g>
                </g>
                <g transform="translate(9.000000, 11.000000)" id="Path">
                    <path d="M30.9,2.4 C29.4,1.3 27.6,0.7 25.7,0.7 C25.3,0.7 24.9,0.7 24.4,0.8 L24.3,0.8 C22,1.3 19.9,2.6 18.6,4.6 L18.5,4.7 C18.5,4.8 18.4,4.8 18.4,4.9 C18.4,5 18.4,5 18.4,5.1 L18.4,5.2 C18.8,5.9 19.1,6.4 19.4,6.9 C19.5,7.1 19.7,7.1 19.8,7 C19.8,7 19.9,7 19.9,6.9 L19.9,6.8 C22,3.9 23.6,3.5 24.7,3.3 L24.8,3.3 C25,3.3 25.2,3.2 25.5,3.2 C26.8,3.2 28.1,3.6 29.1,4.4 C30.5,5.5 31.2,7.2 31.1,9 C31.1,12.5 29.4,13.8 28,14.3 C27.5,14.5 26.9,14.6 26.3,14.6 C25.4,14.6 24.5,14.4 23.7,14 L23.6,14 C22.4,13.5 20.6,12.4 18.9,9 C15.4,2 12.5,1.3 10.6,0.9 L10.5,0.9 C10.1,0.8 9.7,0.8 9.3,0.8 C7.4,0.8 5.6,1.4 4.2,2.5 C2.9,3.5 1.4,5.5 1.4,9.1 C1.2,13.3 4.5,16.9 8.7,17 C8.9,17 9,17 9.2,17 C9.8,17 10.4,16.9 11,16.8 C12.1,16.6 13.1,16.1 14,15.4 L15,16.3 C15.1,16.4 15.3,16.4 15.4,16.3 C15.5,16.3 15.5,16.2 15.5,16.1 L16.3,11.3 L16.3,11.2 C16.3,11.1 16.3,11 16.2,11 C16,11 15.9,11 15.8,11 L15.8,11 L11.1,12.3 L11,12.3 C10.9,12.3 10.9,12.3 10.8,12.4 C10.7,12.5 10.7,12.5 10.7,12.6 C10.7,12.7 10.7,12.8 10.8,12.8 L11.8,13.7 C11.3,14 10.8,14.2 10.3,14.3 C9.9,14.4 9.5,14.4 9,14.4 C7.5,14.4 6,13.7 5,12.6 L5,12.6 C4.2,11.6 3.8,10.3 3.9,8.9 C3.8,7.2 4.4,5.5 5.7,4.4 C6.7,3.7 8,3.3 9.2,3.3 C9.4,3.3 9.6,3.3 9.9,3.3 L10,3.3 C11.5,3.6 13.7,4.1 16.6,10 C18.2,13.1 20.1,15.2 22.5,16.2 C23.7,16.8 25,17.1 26.3,17.1 C27.2,17.1 28.1,17 28.9,16.7 C30.3,16.2 33.7,14.3 33.7,9 C33.9,6.4 32.8,4 30.9,2.4 Z"></path>
                    <path d="M8.2,45 L8.2,67.3 C8.2,67.5 8.3,67.6 8.5,67.6 C8.5,67.6 8.5,67.6 8.5,67.6 L26.8,67.6 C27,67.6 27.1,67.5 27.1,67.3 C27.1,67.3 27.1,67.3 27.1,67.3 L27.1,45 L34.2,45 L17.5,28.3 L0.9,45 L8.2,45 Z"></path>
                </g>
            </g>
        </g>
    </g>
</svg>