<?xml version="1.0" encoding="UTF-8"?>
<svg width="95px" height="95px" viewBox="0 0 95 95" version="1.1" xmlns="http://www.w3.org/2000/svg" xmlns:xlink="http://www.w3.org/1999/xlink">
    <!-- Generator: Sketch 53.2 (72643) - https://sketchapp.com -->
    <title>goal_13_target_13_2</title>
    <desc>Created with Sketch.</desc>
    <g id="goal_13_target_13_2" stroke="none" stroke-width="1" fill="none" fill-rule="evenodd">
        <g id="Group-106" fill-rule="nonzero">
            <rect id="Rectangle" fill="#3F7E44" x="-3.62376795e-13" y="-2.13162821e-14" width="94.8" height="94.8"></rect>
            <g id="Group" transform="translate(62.700000, 22.000000)" fill="#FFFFFF">
                <path d="M2.2,0.1 C1.3,0.1 0.6,0.8 0.6,1.7 C0.6,1.7 0.6,1.7 0.6,1.7 L0.6,12.3 C0.5,13.2 1.2,14 2.1,14.1 C3,14.2 3.8,13.5 3.9,12.6 C3.9,12.5 3.9,12.4 3.9,12.3 L3.9,1.8 C3.8,0.9 3.1,0.1 2.2,0.1 Z" id="Path"></path>
                <path d="M23.3,0.1 C22.4,0.1 21.7,0.8 21.7,1.7 C21.7,1.7 21.7,1.7 21.7,1.7 L21.7,12.3 C21.6,13.2 22.3,14 23.2,14.1 C24.1,14.2 24.9,13.5 25,12.6 C25,12.5 25,12.4 25,12.3 L25,1.8 C24.9,0.9 24.2,0.1 23.3,0.1 Z" id="Path"></path>
                <path d="M20.1,1.4 L5.5,1.4 C5.3,1.4 5.1,1.6 5.1,1.8 L5.1,12.1 C5.1,12.3 5.3,12.5 5.5,12.6 L11.1,12.6 L10.4,53.5 C10.4,53.7 10.6,53.9 10.8,53.9 L14.7,53.9 C14.9,53.9 15.1,53.8 15.1,53.5 C15.1,53.5 15.1,53.5 15.1,53.5 L14.2,12.6 L20,12.6 C20.2,12.6 20.4,12.4 20.4,12.1 L20.4,1.8 C20.5,1.6 20.3,1.4 20.1,1.4 C20.1,1.4 20.1,1.4 20.1,1.4 Z" id="Path"></path>
            </g>
            <g id="Group" transform="translate(11.700000, 17.000000)" fill="#FFFFFF">
                <g>
                    <polygon id="Path" points="3.8 7.3 0.9 7.3 0.9 62.1 40.2 62.1 40.2 58.8 3.8 58.8"></polygon>
                    <path d="M6.8,4 L6.8,55.4 L46,55.4 L46,0.6 L6.8,0.6 L6.8,4 Z M41.3,45.9 C41.3,46 41.2,46.1 41,46.1 L12,46.1 C11.8,46.1 11.7,46 11.7,45.9 L11.7,41.2 C11.7,41.1 11.8,41 12,41 L41,41 C41.2,41 41.3,41.1 41.3,41.2 L41.3,45.9 Z M41.3,37.9 C41.3,38 41.2,38.1 41,38.1 L12,38.1 C11.8,38.1 11.7,38 11.7,37.9 L11.7,33.2 C11.7,33.1 11.8,33 12,33 L41,33 C41.2,33 41.3,33.1 41.3,33.2 L41.3,37.9 Z M41.2,17.4 C35.2,25.5 23.7,27.2 15.6,21.2 C14.2,20.1 12.9,18.9 11.8,17.4 L11.7,17.2 L11.8,17 C17.9,8.9 29.4,7.2 37.5,13.2 C38.9,14.3 40.2,15.5 41.3,17 L41.4,17.2 L41.2,17.4 Z" id="Shape"></path>
                </g>
                <g transform="translate(20.000000, 11.000000)" id="Path">
                    <path d="M5.2,8.2 C5.2,8.3 4.9,9.4 5.1,9.5 C5.3,9.6 5.5,8.6 5.6,8.5 C6,7.7 5.5,7.7 5.2,8.2 Z"></path>
                    <path d="M11.2,7.1 C11.2,7 11,6.8 10.9,6.7 C10.8,6.6 10.6,6.7 10.7,6.9 C10.8,7.1 10.8,7.1 10.9,7.1 C11,7.1 11.2,7.2 11.2,7.1 Z"></path>
                    <path d="M8.4,11.7 C8.2,11.8 6.9,11.1 5.9,11.2 C5.4,11.2 4.9,11.5 4.7,11.9 C4.7,12 4.7,12.1 4.8,12.2 C6.7,12.8 8.7,12.4 10.3,11.2 C10,11.1 9.8,11 9.6,11 C9,11 8.6,11.5 8.4,11.7 Z"></path>
                    <path d="M12.1,7.9 C12,7.6 11.8,8.1 11.1,8.3 C10.7,8.4 10.3,8.5 10,8.6 C9.5,8.8 9.2,9.4 9.4,9.9 C9.6,10.4 9.5,10.8 10,10.5 C10.5,10.2 10.1,10.6 10.3,10.6 C10.5,10.6 10.4,10.4 10.8,10.6 L11,10.7 C11.6,10.1 12.1,9.3 12.4,8.5 C12.4,8.4 12.4,8.2 12.3,8.1 L12.1,7.9 Z"></path>
                    <path d="M12.6,5.9 C12.6,5.6 12.3,5.5 12.1,5.5 C12,5.5 12.3,5.8 12.2,5.9 C11.7,6.5 12.4,7.5 12.5,7.5 C12.6,7.1 12.6,6.7 12.6,6.2 C12.6,6.1 12.6,6 12.6,5.9 Z"></path>
                    <path d="M7.7,6.8 C7.6,6.8 7.4,7 7.5,7.1 C7.7,7.2 7.9,7.2 8.1,7.1 C8.3,7.1 8,6.8 7.7,6.8 Z"></path>
                    <path d="M4.8,9.3 C4.9,9 5,9 5,8.6 C4.9,8.3 5.1,8 5.3,7.8 C5.6,7.5 5.5,7.7 5.6,7.4 C5.7,7.1 5.4,7.1 5.1,6.9 C4.8,6.7 4.6,6.3 4.5,5.9 C4.5,5.7 4.6,5.9 4.9,6.2 C5.2,6.5 5.3,6.7 5.6,6.7 C5.9,6.7 6.3,6.4 6.2,6.1 C6.1,5.8 5.1,5.1 5.2,5 C5.3,4.9 5.4,5 5.7,5.2 C6,5.4 6.4,5.4 6.4,5.8 C6.5,6.6 7.4,6.2 8,6.9 C8.2,7.2 8.3,6.9 8.5,6.6 C8.7,6.3 8.4,6.1 8.6,6 C8.8,5.9 9,5.9 9.1,6.1 C9.1,6.1 9.1,6.2 9.2,6.2 C9.3,6.5 9.4,6.8 9.6,7.1 C9.8,7.5 10.2,7.8 10.6,7.9 C11,7.9 10.5,7.3 10.4,7.1 C10.4,6.8 10.5,6.5 10.7,6.3 C10.9,6.3 11.2,6.2 11.4,6.1 C11.8,5.8 11.4,5.8 11.4,5.4 C11.4,5 11.6,5.2 11.7,5.3 C11.8,5.5 12.1,5.6 12.2,5.4 C12.3,5.4 12.3,5.3 12.4,5.2 C12.4,5.1 12.4,5 12.4,4.9 C11.7,2.1 9.3,0.2 6.4,0.2 C5.2,0.2 4.1,0.6 3.1,1.2 C3.8,1.2 5.3,0.9 5.1,1.5 C4.9,2.1 6,2.2 5.5,2.4 C5.3,2.5 4.6,3 4.5,2.9 C4.1,2.7 5.3,2.4 5.1,2.2 C4.9,2 4.4,2.2 4,2.3 C3.6,2.3 3.2,2.4 2.8,2.5 C2.5,2.6 2.2,2.8 2.3,3 C2.4,3.2 3.1,3.4 3.2,3.4 C3.3,3.4 3.4,3.4 3.7,3.1 C4,2.8 4.3,3.1 4.2,3.1 C4,3.2 3.9,3.3 3.7,3.5 C3.5,3.7 3.3,3.7 3.1,3.6 C2.8,3.5 2.5,3.5 2.2,3.6 C2,3.7 1.9,3.8 1.7,3.9 C1.6,3.9 1.5,4 1.5,4.1 C1.5,4.2 1.6,4.3 1.5,4.3 C1.4,4.3 1.3,4.5 1.2,4.4 C1,4.3 0.7,4.3 0.5,4.5 C0.5,4.5 0.5,4.6 0.5,4.7 C0.5,4.9 0.6,5.3 1,5 C1.1,4.9 1.7,4.9 2.1,4.6 C2.3,4.4 2.5,4.7 2.5,4.7 C2.5,4.7 2.8,5.3 2.9,5.3 C3,5.3 2.7,4.8 2.8,4.8 C2.9,4.8 3.1,5.2 3.2,5.1 C3.3,5 3.6,5 3.7,5.2 C3.8,5.4 3.5,5.5 3.3,5.6 C3.1,5.7 2.4,5.4 2,5.3 C1.8,5.1 1.4,5 1,5 L0.6,5.1 C0.6,5.1 0.6,5.2 0.3,5.6 C0.3,5.6 0.3,5.6 0.3,5.7 C0.2,6.7 0.4,7.8 0.8,8.7 L0.8,8.7 C1.1,8.8 1,8.7 1.3,8.6 C1.6,8.5 1.8,8.3 1.9,8.5 C2,8.7 2.2,8.7 2.3,9 C2.4,9.3 2.6,8.8 2.7,9.3 C2.8,10.1 3,9.7 3,9.8 C3,10.2 3,10.9 3.3,11 C3.6,11 3.9,10.9 4.1,10.7 C4.3,10.5 4.4,10.2 4.5,9.9 C4.6,9.4 4.8,9.6 4.8,9.3 Z"></path>
                    <path d="M1.6,3.3 C1.7,3.2 2.1,3.1 2.1,3 C2.1,2.9 1.9,2.8 1.7,2.8 C1.5,2.8 1.4,2.9 1.2,3 L1.2,3 C1,3.3 0.9,3.6 0.7,3.9 C0.8,3.9 0.8,3.9 0.9,3.9 C1.1,3.9 1.4,3.5 1.6,3.3 Z"></path>
                    <path d="M11.5,7.7 C11.6,7.6 11.3,7.3 11.1,7.3 C10.9,7.3 10.8,7.5 10.9,7.6 C11.1,7.8 11.3,7.8 11.5,7.7 Z"></path>
                    <path d="M1.7,2.6 C1.9,2.6 2.2,2.5 2.4,2.3 C2.5,2.2 2.5,2 2.5,1.9 C2.5,1.8 2.3,1.8 2.3,1.8 C2.3,1.8 2.1,1.8 2,1.9 C1.9,2 1.7,2.3 1.6,2.4 C1.5,2.5 1.5,2.5 1.7,2.6 Z"></path>
                </g>
            </g>
        </g>
    </g>
</svg>