<?xml version="1.0" encoding="UTF-8"?>
<svg width="95px" height="95px" viewBox="0 0 95 95" version="1.1" xmlns="http://www.w3.org/2000/svg" xmlns:xlink="http://www.w3.org/1999/xlink">
    <!-- Generator: Sketch 53.2 (72643) - https://sketchapp.com -->
    <title>goal_17_target_17_8</title>
    <desc>Created with Sketch.</desc>
    <g id="goal_17_target_17_8" stroke="none" stroke-width="1" fill="none" fill-rule="evenodd">
        <g id="Group-150" fill-rule="nonzero">
            <rect id="Rectangle" fill="#19486A" x="1.45661261e-12" y="7.10542736e-15" width="94.8" height="94.8"></rect>
            <g id="Group" transform="translate(10.700000, 23.000000)" fill="#FFFFFF">
                <g id="Shape">
                    <path d="M0.7,33.4 L33.1,33.4 L33.1,26.1 L0.7,26.1 L0.7,33.4 Z M16,28.7 L30.8,28.7 L30.8,30.9 L16,30.9 L16,28.7 Z M12.5,28.5 C13.2,28.5 13.7,29.1 13.7,29.7 C13.7,30.4 13.1,30.9 12.5,30.9 C11.8,30.9 11.3,30.3 11.3,29.7 C11.3,29.1 11.8,28.6 12.5,28.5 L12.5,28.5 Z M8.4,28.5 C9.1,28.5 9.6,29.1 9.6,29.7 C9.6,30.4 9,30.9 8.4,30.9 C7.7,30.9 7.2,30.3 7.2,29.7 C7.1,29.1 7.7,28.6 8.4,28.5 L8.4,28.5 Z M4.2,28.5 C4.9,28.5 5.4,29.1 5.4,29.7 C5.4,30.4 4.8,30.9 4.2,30.9 C3.5,30.9 3,30.3 3,29.7 C3,29.1 3.5,28.6 4.2,28.5 L4.2,28.5 Z"></path>
                    <path d="M0.7,16.7 L33.1,16.7 L33.1,9.4 L0.7,9.4 L0.7,16.7 Z M16,12.1 L30.9,12.1 L30.9,14.3 L16,14.3 L16,12.1 Z M12.5,12 C13.2,12 13.7,12.6 13.7,13.2 C13.7,13.9 13.1,14.4 12.5,14.4 C11.8,14.4 11.3,13.8 11.3,13.2 C11.3,12.5 11.9,12 12.5,12 C12.5,12 12.5,12 12.5,12 Z M8.4,12 C9.1,12 9.6,12.5 9.6,13.2 C9.6,13.9 9.1,14.4 8.4,14.4 C7.7,14.4 7.2,13.9 7.2,13.2 C7.1,12.5 7.7,12 8.4,12 Z M4.2,12 C4.9,12 5.4,12.5 5.4,13.2 C5.4,13.9 4.9,14.4 4.2,14.4 C3.5,14.4 3,13.9 3,13.2 C3,13.2 3,13.2 3,13.1 C3,12.5 3.5,12 4.2,12 Z"></path>
                    <path d="M0.7,47.9 C0.7,48.2 0.9,48.4 1.2,48.4 C1.2,48.4 1.2,48.4 1.2,48.4 L32.5,48.4 C32.8,48.4 33,48.2 33,47.8 L33,47.8 L33,34.5 L0.7,34.5 L0.7,47.9 Z M30.3,36.6 L30.8,36.6 L30.8,46.2 L30.3,46.2 L30.3,36.6 Z M29.1,36.6 L29.6,36.6 L29.6,46.2 L29.1,46.2 L29.1,36.6 Z M27.9,36.6 L28.4,36.6 L28.4,46.2 L27.9,46.2 L27.9,36.6 Z M26.7,36.6 L27.2,36.6 L27.2,46.2 L26.7,46.2 L26.7,36.6 Z M25.5,36.6 L26,36.6 L26,46.2 L25.5,46.2 L25.5,36.6 Z M24.3,36.6 L24.8,36.6 L24.8,46.2 L24.3,46.2 L24.3,36.6 Z M23.1,36.6 L23.6,36.6 L23.6,46.2 L23.1,46.2 L23.1,36.6 Z M21.9,36.6 L22.4,36.6 L22.4,46.2 L21.9,46.2 L21.9,36.6 Z M20.7,36.6 L21.2,36.6 L21.2,46.2 L20.7,46.2 L20.7,36.6 Z M19.5,36.6 L20,36.6 L20,46.2 L19.5,46.2 L19.5,36.6 Z M18.3,36.6 L18.9,36.6 L18.9,46.2 L18.3,46.2 L18.3,36.6 Z M17.2,36.6 L17.7,36.6 L17.7,46.2 L17.2,46.2 L17.2,36.6 Z M16,36.6 L16.5,36.6 L16.5,46.2 L16,46.2 L16,36.6 Z"></path>
                    <path d="M32.6,0.5 L1.3,0.5 C1,0.5 0.7,0.7 0.7,1 L0.7,8.3 L33.1,8.3 L33.1,1 C33.1,0.8 32.9,0.5 32.6,0.5 Z M4.2,6.1 C3.5,6.1 3,5.6 3,4.9 C3,4.2 3.5,3.7 4.2,3.7 C4.9,3.7 5.4,4.2 5.4,4.9 C5.4,4.9 5.4,4.9 5.4,4.9 C5.4,5.6 4.9,6.1 4.2,6.1 L4.2,6.1 Z M8.4,6.1 C7.7,6.1 7.2,5.6 7.2,4.9 C7.2,4.2 7.7,3.7 8.4,3.7 C9.1,3.7 9.6,4.2 9.6,4.9 C9.6,4.9 9.6,4.9 9.6,4.9 C9.6,5.6 9.1,6.1 8.4,6.1 L8.4,6.1 Z M12.6,6.1 C11.9,6.1 11.4,5.6 11.4,4.9 C11.4,4.2 11.9,3.7 12.6,3.7 C13.3,3.7 13.8,4.2 13.8,4.9 C13.8,4.9 13.8,4.9 13.8,4.9 C13.8,5.6 13.2,6.1 12.6,6.1 L12.6,6.1 Z M30.9,6 L16,6 L16,3.8 L30.9,3.8 L30.9,6 Z"></path>
                    <path d="M0.7,25.1 L33.1,25.1 L33.1,17.8 L0.7,17.8 L0.7,25.1 Z M16,20.4 L30.9,20.4 L30.9,22.6 L16,22.6 L16,20.4 Z M12.5,20.3 C13.2,20.3 13.7,20.8 13.7,21.5 C13.7,22.2 13.2,22.7 12.5,22.7 C11.8,22.7 11.3,22.2 11.3,21.5 C11.3,20.8 11.9,20.3 12.5,20.3 Z M8.4,20.3 C9.1,20.3 9.6,20.8 9.6,21.5 C9.6,22.2 9.1,22.7 8.4,22.7 C7.7,22.7 7.2,22.2 7.2,21.5 C7.2,20.8 7.7,20.3 8.4,20.3 Z M4.2,20.3 C4.9,20.3 5.4,20.8 5.4,21.5 C5.4,22.2 4.9,22.7 4.2,22.7 C3.5,22.7 3,22.2 3,21.5 C3,21.5 3,21.5 3,21.5 C3,20.8 3.5,20.3 4.2,20.3 L4.2,20.3 Z"></path>
                </g>
                <g transform="translate(41.000000, 0.000000)" id="Shape">
                    <path d="M31.4,1.2 C31.4,0.8 31.1,0.4 30.6,0.4 L3.6,0.4 C3.2,0.4 2.8,0.7 2.8,1.2 L2.8,18.3 L31.3,18.3 L31.3,1.2 L31.4,1.2 Z M30.2,17.3 L4.2,17.3 L4.2,1.7 L30.3,1.7 L30.3,17.3 L30.2,17.3 Z"></path>
                    <path d="M31.4,19 L2.9,19 L0.6,20.8 L0.6,21.6 C0.6,21.9 1.1,21.9 1.1,21.9 L33.4,21.9 C33.8,21.9 33.8,21.5 33.8,21.5 L33.8,20.7 L31.4,19 Z M19.5,21.2 L14.7,21.2 L14.7,20.7 L19.5,20.7 L19.5,21.2 Z"></path>
                </g>
                <path d="M72.1,27.4 L61.2,27.4 C60.8,27.4 60.5,27.7 60.4,28.2 L60.4,47.8 C60.4,48.2 60.7,48.6 61.2,48.6 L72.1,48.6 C72.5,48.6 72.8,48.3 72.9,47.9 C72.9,47.9 72.9,47.9 72.9,47.9 L72.9,28.2 C72.8,27.8 72.5,27.4 72.1,27.4 Z M66.6,47.4 C66,47.4 65.5,46.9 65.5,46.3 C65.5,45.7 66,45.2 66.6,45.2 C67.2,45.2 67.7,45.7 67.7,46.3 C67.8,46.9 67.3,47.4 66.6,47.4 C66.7,47.4 66.6,47.4 66.6,47.4 L66.6,47.4 Z M71.8,43.6 L61.5,43.6 L61.5,28.5 L71.8,28.5 L71.8,43.6 Z" id="Shape"></path>
                <g transform="translate(43.000000, 30.000000)" id="Path">
                    <path d="M0.8,5.4 C1.6,7.1 1.6,9.1 0.6,10.8 L1.8,11.6 C2.5,10.5 2.8,9.2 2.8,7.9 C2.8,6.8 2.5,5.6 2,4.6 L0.8,5.4 Z"></path>
                    <path d="M4.2,3.1 C5.9,6.2 5.8,10 4,13 L5.2,13.8 C7.3,10.3 7.3,5.9 5.3,2.3 L4.2,3.1 Z"></path>
                    <path d="M8.7,0.1 L7.5,0.9 C10.1,5.4 10.1,10.9 7.4,15.3 L8.6,16.1 C11.6,11.2 11.7,5 8.7,0.1 L8.7,0.1 Z"></path>
                </g>
            </g>
        </g>
    </g>
</svg>