<?xml version="1.0" encoding="UTF-8"?>
<svg width="95px" height="95px" viewBox="0 0 95 95" version="1.1" xmlns="http://www.w3.org/2000/svg" xmlns:xlink="http://www.w3.org/1999/xlink">
    <!-- Generator: Sketch 53.2 (72643) - https://sketchapp.com -->
    <title>goal_4_target_4_4</title>
    <desc>Created with Sketch.</desc>
    <g id="goal_4_target_4_4" stroke="none" stroke-width="1" fill="none" fill-rule="evenodd">
        <g id="Group" transform="translate(11.700000, 60.000000)" fill="#FFFFFF" fill-rule="nonzero">
            <path d="M14.6,10.1 C14.6,10.1 14.1,8.3 12.6,8.3 L11.1,8.3 L7,8.3 C6.6,8.3 6.2,8.1 6,7.8 C5.5,7.3 3.9,4.5 3.8,4.4 L3,3.2 C2.8,2.8 2.4,2.6 2,2.6 C1.3,2.6 0.8,3.2 0.8,3.8 C0.8,4 0.9,4.2 0.9,4.3 L5.1,11.8 C5.2,12.1 5.3,12.3 5.3,12.6 L5.3,13.4 C5.3,13.7 5.3,13.9 5.2,14.2 L3.5,20.5 L5.3,20.5 L5.3,26 L5.3,26 C5.2,26.9 6,27.7 6.9,27.8 C7.8,27.9 8.6,27.1 8.7,26.2 C8.7,26.1 8.7,26 8.7,25.9 L8.7,20.7 C8.7,20.6 8.7,20.6 8.7,20.5 L9.7,20.5 C9.7,20.6 9.7,20.6 9.7,20.7 L9.7,25.9 C9.7,26.6 10.1,27.3 10.8,27.6 C11.7,27.9 12.6,27.4 12.9,26.5 C13,26.3 13,26.2 13,26 L13,20.5 L14.8,20.5 L12.3,12 C12.3,12 12.2,11.6 12.5,11.5 C12.8,11.4 12.9,11.8 12.9,11.8 L14.9,18.1 C15,18.7 15.7,19.1 16.3,19 C16.3,19 16.3,19 16.3,19 C17.4,18.7 17,17.5 17,17.5 L14.6,10.1 Z" id="Path"></path>
            <path d="M9.5,6.8 C11.4,6.8 12.9,5.3 12.9,3.4 C12.9,1.5 11.4,0 9.5,0 C7.6,0 6.1,1.5 6.1,3.4 C6.1,3.4 6.1,3.4 6.1,3.4 C6.1,5.3 7.6,6.8 9.5,6.8 Z" id="Path"></path>
        </g>
        <g id="Group" transform="translate(48.700000, 60.000000)" fill="#FFFFFF" fill-rule="nonzero">
            <path d="M9.2,6.7 C11,6.7 12.5,5.2 12.5,3.4 C12.5,1.6 11,0.1 9.2,0.1 C7.4,0.1 5.9,1.6 5.9,3.4 L5.9,3.4 C5.8,5.2 7.3,6.7 9.2,6.7 C9.2,6.7 9.2,6.7 9.2,6.7 Z" id="Path"></path>
            <path d="M17.2,16.4 C17.2,16.2 16.2,13.9 15.9,13.1 C13.9,7.9 13.6,7.9 11.7,7.9 L6.6,7.9 C4.8,8 4.4,7.9 2.4,13.1 C2.1,13.8 0.9,16.7 0.9,16.9 C0.9,17.1 0.4,18.1 1.5,18.5 C2.6,18.9 2.9,17.7 2.9,17.7 L4.9,12.6 C4.9,12.6 4.9,12.5 5,12.5 C5.1,12.5 5.1,12.6 5.1,12.7 L5.1,25.9 L5.1,25.9 C5.1,26.9 5.8,27.7 6.8,27.7 C6.8,27.7 6.9,27.7 6.9,27.7 C7.8,27.7 8.6,26.9 8.6,26 C8.6,26 8.6,25.9 8.6,25.9 L8.6,20.6 C8.6,20.6 8.5,19.8 9.1,19.8 C9.7,19.8 9.6,20.6 9.6,20.6 L9.6,25.9 C9.6,26.9 10.3,27.7 11.3,27.7 C11.3,27.7 11.3,27.7 11.4,27.7 C12.3,27.7 13.1,26.9 13.1,26 C13.1,26 13.1,25.9 13.1,25.9 L13.1,25.9 L13.1,12.7 C13.1,12.6 13.1,12.5 13.2,12.5 C13.3,12.5 13.3,12.6 13.3,12.6 L15.2,17.1 C15.2,17.1 15.7,18.3 16.8,17.8 C17.9,17.3 17.2,16.4 17.2,16.4 Z" id="Path"></path>
        </g>
        <g id="Group" transform="translate(68.700000, 52.000000)" fill="#FFFFFF" fill-rule="nonzero">
            <path d="M10.4,8.7 L10.2,8.7 L4,8.7 L3.8,8.7 C1.8,8.9 0.3,10.5 0.3,12.5 L0.3,20.4 C0.4,21 0.9,21.5 1.5,21.4 C2,21.3 2.4,20.9 2.5,20.4 L2.5,13.6 C2.5,13.3 2.6,13 3,13 C3.3,13 3.4,13.3 3.4,13.6 L3.4,34 C3.5,34.9 4.2,35.5 5.1,35.5 C5.9,35.4 6.5,34.8 6.6,34 L6.6,22.2 C6.6,22 6.8,21.8 7,21.7 C7,21.7 7,21.7 7.1,21.7 L7.1,21.7 C7.3,21.7 7.5,21.9 7.6,22.1 C7.6,22.1 7.6,22.1 7.6,22.2 L7.6,33.9 C7.6,34.8 8.3,35.5 9.2,35.5 C10.1,35.5 10.8,34.8 10.8,33.9 L10.8,13.5 C10.8,13.3 10.9,12.9 11.2,12.9 C11.7,12.9 11.7,13.2 11.7,13.5 L11.7,20.3 C11.7,20.9 12.2,21.4 12.8,21.4 C13.4,21.4 13.9,20.9 13.9,20.3 L13.9,12.4 C13.8,10.5 12.3,8.9 10.4,8.7 Z" id="Path"></path>
            <path d="M1.6,3.2 C1.7,2.9 2,2.5 3,2.3 C3.2,2.3 3.4,2.2 3.5,2.1 C3.7,1.8 3.9,1.5 4.1,1.2 C4.1,1.1 4.1,1.1 4.1,1 C4,0.6 3.6,-1.42108547e-14 2.6,0.5 C1.4,1.1 1.5,2.9 1.5,2.9 C1.5,2.9 1.6,3.3 1.6,3.2 Z" id="Path"></path>
            <path d="M11,2.4 C12,2.5 12.3,3 12.4,3.3 C12.4,3.4 12.4,3.3 12.5,3.1 C12.6,2.9 12.6,1.3 11.4,0.7 C10.4,0.2 9.9,0.8 9.9,1.2 C9.9,1.3 9.9,1.4 9.9,1.4 C10.1,1.6 10.3,1.9 10.5,2.2 C10.6,2.3 10.8,2.4 11,2.4 Z" id="Path"></path>
            <path d="M7,7.5 C8.9,7.5 10.4,6 10.4,4.1 C10.4,2.2 8.9,0.7 7,0.7 C5.1,0.7 3.6,2.2 3.6,4.1 C3.6,4.1 3.6,4.1 3.6,4.1 C3.6,6 5.1,7.5 7,7.5 Z" id="Path"></path>
        </g>
        <g id="Group" transform="translate(31.700000, 50.000000)" fill="#FFFFFF" fill-rule="nonzero">
            <path d="M11.4,9.8 L4.3,9.8 C2.3,10 0.8,11.7 0.8,13.7 L0.8,21.9 C0.8,22.5 1.3,23 2,23 C2.6,23 3.1,22.5 3.1,21.9 L3.1,14.8 C3.1,14.5 3.2,14.2 3.7,14.2 C4.2,14.2 4.1,14.5 4.1,14.8 L4.1,36 C4.1,36.9 4.8,37.6 5.8,37.6 C6.7,37.6 7.4,36.9 7.4,36 L7.4,23.8 C7.4,23.5 7.6,23.3 7.8,23.3 C7.8,23.3 7.8,23.3 7.8,23.3 L7.8,23.3 C8,23.3 8.3,23.5 8.3,23.7 C8.3,23.7 8.3,23.7 8.3,23.8 L8.3,36 C8.4,36.9 9.2,37.6 10.1,37.5 C10.9,37.4 11.6,36.8 11.6,36 L11.6,14.8 C11.6,14.6 11.7,14.2 12,14.2 C12.3,14.2 12.6,14.6 12.6,14.8 L12.6,21.9 C12.6,22.5 13.1,23 13.8,23 C14.4,23 14.9,22.5 14.9,21.9 L14.9,13.7 C14.9,11.7 13.4,10 11.4,9.8 Z" id="Path"></path>
            <path d="M10.1,4.8 C9.8,4.6 9.6,4.4 9.1,4.6 C8.8,4.8 8.7,4.8 8.3,5 C7.6,5.3 6.9,5.5 6.2,5.6 C5.6,5.7 5.1,5.7 4.5,5.7 C4.7,7.5 6.3,8.9 8.2,8.7 C9.8,8.5 11,7.3 11.2,5.8 C10.8,5.4 10.5,5.1 10.1,4.8 Z" id="Path"></path>
            <path d="M4.5,5 C5,5 5.5,5 6,4.9 C6.7,4.8 7.3,4.6 7.9,4.3 C8.2,4.1 8.6,4 8.9,3.9 C9.1,3.8 9.4,3.8 9.6,3.8 C9.7,3.8 9.8,3.9 9.9,4 L10.2,4.2 C10.2,4.2 10.3,4.3 11.1,4.9 C11.2,5 11.3,5.1 11.3,5 C11.3,4.9 11.4,4.4 11.4,4.1 C11.3,3.3 10.9,2.5 10.4,1.8 C10.2,1.6 10,1.4 9.7,1.5 C9.3,1.6 9.3,1.3 9,1.1 C8,0.7 6.9,0.9 6.1,1.6 C5.1,2.4 4.4,3.4 3.9,4.6 C3.8,4.8 4.1,5 4.5,5 Z" id="Path"></path>
        </g>
        <rect id="Rectangle" fill="#C5192D" fill-rule="nonzero" x="0" y="0" width="94.8" height="94.8"></rect>
        <g id="Group" transform="translate(6.700000, 20.000000)" fill="#FFFFFF" fill-rule="nonzero">
            <g transform="translate(26.000000, 7.000000)" id="Path">
                <path d="M35.2,40 L33.3,36.3 L33.3,36.2 L28.8,27.2 C28.4,26.4 27.5,25.9 26.6,26 L20.1,26 L20,17.9 C19.9,15.5 19.4,14 17.5,13.5 C16.6,13.4 15.6,13.4 14.7,13.5 L14.5,13.6 L14.5,13.6 L6.8,16 L6.7,16.1 L6.5,16.2 L6.4,16.3 C6,16.5 5.7,16.9 5.6,17.3 L3.4,23.4 C3,24.4 3.6,25.5 4.6,25.9 C5.6,26.3 6.7,25.7 7.1,24.7 L9,19.5 L11.9,18.6 L12,18.6 L12,27 C12,28.9 12.6,30.9 14.5,31.4 L15.1,31.6 C15.4,31.7 15.8,31.7 16.1,31.7 L16.1,31.7 L25.7,31.7 L28.2,36.6 C28.2,36.7 28.2,36.7 28.3,36.8 L29.2,38.6 L30.1,40.3 C30.1,40.3 30.2,40.4 30.2,40.4 C30.2,40.4 30.2,40.4 30.3,40.5 L31.3,42.3 C31.9,43.5 33.4,43.9 34.6,43.3 C35.4,42.6 35.9,41.2 35.2,40 L35.2,40 Z"></path>
                <path d="M21.3,34.6 C21.3,34.8 21.3,34.9 21.3,35.1 C21.3,40.2 17.2,44.3 12.1,44.3 C7,44.3 2.9,40.2 2.9,35.1 C2.9,33 3.6,31 4.9,29.4 L2.6,27.6 C-1.5,32.9 -0.6,40.5 4.7,44.7 C10,48.9 17.6,47.9 21.8,42.6 C23.5,40.5 24.4,37.8 24.4,35.1 C24.4,34.9 24.4,34.8 24.4,34.6 L21.3,34.6 Z"></path>
                <path d="M11.7,7.5 C11.5,10 13.3,12.2 15.8,12.4 C18.3,12.6 20.5,10.8 20.7,8.3 C20.7,8 20.7,7.7 20.7,7.5 C20.7,7.2 20.7,6.8 20.6,6.5 L11.8,6.5 C11.7,6.9 11.7,7.2 11.7,7.5 Z"></path>
                <path d="M21.2,4 L20.7,4 C20.3,2.7 19.5,1.7 18.3,1.1 L17.6,3.2 L17.6,0.1 L15.2,0.1 L15.2,3.2 L15.2,3.2 L14.4,1 C13,1.5 12,2.7 11.6,4.1 L11.1,4.1 L11.1,5.8 L21.1,5.8 L21.2,4 Z"></path>
            </g>
            <g transform="translate(0.000000, 2.000000)">
                <path d="M25.1,26 L21.5,14.3 C21.5,14.3 20.2,10.9 17.4,10.9 L15.8,10.9 C15.9,11 16,11.2 16.1,11.4 C16.3,11.8 16.5,12.2 16.6,12.7 L16.6,12.7 C16.6,12.8 16.6,12.9 16.6,13.1 C16.6,13.3 16.6,13.2 16.6,13.3 C16.6,13.6 16.5,13.9 16.5,14.1 C16.9,14.4 17.1,14.9 17.1,15.5 C17.1,16.5 16.3,17.3 15.3,17.3 C14.3,17.3 13.5,16.5 13.5,15.5 C13.5,14.5 14.3,13.7 15.3,13.7 C15.4,13.7 15.6,13.7 15.7,13.7 C15.8,13.6 15.8,13.6 15.8,13.5 L15.8,13.5 C15.8,13.3 15.8,13 15.8,12.8 C15.8,12.7 15.8,12.7 15.8,12.6 C15.8,12.6 15.8,12.5 15.8,12.5 C15.7,12.3 15.6,12.1 15.5,11.9 C15.3,11.6 15.2,11.4 15,11.1 L13,13.8 L10.7,11.1 C10.1,12.2 9.8,13.4 9.9,14.6 C10,15.1 10.3,15.6 10.7,16 L10.7,16 C10.8,16 11,15.9 11.1,15.9 L11.3,15.9 L11.6,15.9 L11.8,15.9 C12.4,16.1 13,16.5 13.4,17 L13.4,17 L13.7,17.3 L12.7,18.2 L12.7,18.2 L12.7,18.2 L12,17.6 L12.4,17.2 C12,16.9 11.6,16.6 11.1,16.6 C11,16.6 10.9,16.6 10.8,16.6 L10.7,16.6 C10.6,16.6 10.6,16.7 10.6,16.7 L10.6,16.7 C10.2,17.1 10.3,17.9 10.8,18.6 L11.3,18.2 L11.8,18.8 L11.8,18.8 L10.7,19.7 L10.5,19.5 C10,18.9 9.6,18.2 9.6,17.4 C9.6,17 9.7,16.7 10,16.4 C9.5,15.8 9.2,15.1 9.2,14.3 C9.1,13.1 9.4,11.9 10,10.9 C9.9,10.9 9.8,10.9 9.7,10.9 L8.3,10.9 C5.4,10.9 4.2,14.3 4.2,14.3 L0.4,26 C0.4,26 -0.2,28.2 1.6,28.7 C3.4,29.2 4,27.1 4,27.1 L6.9,17.3 C6.9,17.3 7.1,16.5 7.6,16.7 C8.1,16.9 8,17.7 8,17.7 L2.9,36 L7.6,36 L7.6,49.2 C7.7,50.4 8.8,51.4 10,51.3 C11.1,51.2 12,50.3 12.1,49.2 L12.1,36 L13.4,36 L13.4,49.2 C13.4,50.4 14.4,51.5 15.7,51.5 C17,51.5 18,50.5 18,49.2 L18,36 L22.7,36 L17.6,17.7 C17.6,17.7 17.4,16.9 18,16.7 C18.6,16.5 18.7,17.3 18.7,17.3 L21.6,27.1 C21.6,27.1 22.2,29.2 24,28.7 C25.8,28.2 25.1,26 25.1,26 Z" id="Path"></path>
                <path d="M15,14.4 C14.7,14.5 14.5,14.6 14.4,14.9 C14.4,15 14.3,15.1 14.3,15.2 C14.3,15.2 14.3,15.2 14.3,15.2 C14.3,15.3 14.3,15.4 14.3,15.5 L14.3,15.5 C14.4,15.9 14.8,16.2 15.2,16.2 C15.3,16.2 15.3,16.2 15.4,16.2 C15.9,16.1 16.2,15.6 16.1,15 C16,14.6 15.6,14.3 15.2,14.2 C15.1,14.4 15.1,14.4 15,14.4 Z" id="Path"></path>
                <path d="M5.5,3.9 C5.6,3.5 6,2.9 7.3,2.7 C7.5,2.7 7.8,2.6 8,2.5 C8.2,2.1 8.5,1.7 8.8,1.4 C8.8,1.3 8.8,1.2 8.8,1.2 C8.7,0.6 8.1,-0.1 6.8,0.5 C5.2,1.3 5.4,3.7 5.4,3.7 C5.5,3.8 5.5,4 5.5,3.9 Z" id="Path"></path>
                <path d="M17.3,2.5 C17.5,2.6 17.8,2.7 18.1,2.8 C19.4,3 19.8,3.6 20,4 C20,4.1 20.1,3.9 20.1,3.7 C20.1,3.7 20.3,1.3 18.6,0.5 C17.3,-0.1 16.7,0.6 16.6,1.2 C16.6,1.3 16.6,1.4 16.6,1.5 C16.9,1.7 17.1,2.1 17.3,2.5 Z" id="Path"></path>
                <circle id="Oval" cx="12.7" cy="5" r="4.5"></circle>
            </g>
            <g transform="translate(60.000000, 0.000000)" id="Path">
                <path d="M5.4,51.1 C5.4,52.4 6.5,53.5 7.8,53.5 C9.1,53.5 10.2,52.4 10.2,51.1 L10.2,49.3 L5.4,49.3 L5.4,51.1 L5.4,51.1 Z"></path>
                <path d="M11.6,51.1 C11.7,52.4 12.8,53.4 14.2,53.3 C15.4,53.2 16.4,52.3 16.4,51.1 L16.4,49.3 L11.6,49.3 L11.6,51.1 Z"></path>
                <path d="M6.6,17.7 L6.6,12.8 L6.2,12.8 C6.1,12.8 6,12.8 5.9,12.8 C2.9,13.1 0.7,15.6 0.7,18.5 L0.7,30.5 C0.8,31.4 1.6,32.1 2.5,32 C3.3,31.9 4,31.3 4,30.5 L4,20.3 C4,19.9 4.1,19.4 4.8,19.4 L6.6,19.4 L6.6,17.7 Z"></path>
                <polygon points="8.4 16.6 13.6 16.6 13.6 12.8 10.9 12.8 8.4 12.8"></polygon>
                <path d="M14.8,20.4 L14.3,20.4 L14.3,17.7 L7.6,17.7 L7.6,20.4 L5.4,20.4 L5.4,48.1 L10.2,48.1 L10.2,33 C10.2,32.6 10.4,32.3 10.8,32.3 C10.8,32.3 10.9,32.3 10.9,32.3 L10.9,32.3 C11.3,32.3 11.6,32.5 11.6,32.9 C11.6,32.9 11.6,33 11.6,33 L11.6,48.1 L16.4,48.1 L16.4,20.4 L14.8,20.4 Z"></path>
                <path d="M16,12.8 C15.9,12.8 15.8,12.8 15.7,12.8 L15.4,12.8 L15.4,19.3 L17,19.3 C17.7,19.3 17.8,19.8 17.8,20.2 L17.8,30.5 C17.9,31.4 18.7,32.1 19.6,32 C20.4,31.9 21.1,31.3 21.1,30.5 L21.1,18.5 C21.2,15.6 18.9,13.2 16,12.8 Z"></path>
                <path d="M14,17 C14,17.3 14.2,17.5 14.5,17.5 C14.8,17.5 15,17.3 15,17 C15,16.7 14.8,16.5 14.5,16.5 C14.2,16.5 14,16.7 14,17 Z"></path>
                <path d="M7,17 C7,17.3 7.2,17.5 7.5,17.5 C7.8,17.5 8,17.3 8,17 C8,16.7 7.8,16.5 7.5,16.5 C7.5,16.5 7.5,16.5 7.5,16.5 C7.2,16.5 7,16.7 7,17 Z"></path>
                <path d="M13.8,6 C13.4,5.7 13.1,5.4 12.5,5.7 C12.1,5.9 11.9,6 11.4,6.3 C10.5,6.7 9.5,7 8.6,7.1 C7.9,7.2 7.1,7.3 6.4,7.3 C6.6,9.8 8.8,11.6 11.3,11.4 C13.4,11.2 15.1,9.6 15.4,7.4 C14.8,6.9 14.3,6.4 13.8,6 Z"></path>
                <path d="M6.3,6.3 C7,6.3 7.7,6.2 8.4,6.1 C9.3,5.9 10.1,5.7 10.9,5.3 C11.6,5 12.3,4.7 12.3,4.7 C12.6,4.6 12.9,4.5 13.2,4.6 C13.4,4.7 13.5,4.8 13.6,4.9 L13.9,5.2 C13.9,5.2 14.1,5.4 15.1,6.2 C15.2,6.3 15.3,6.4 15.4,6.4 C15.5,6.4 15.5,5.6 15.5,5.2 C15.4,4 15,2.9 14.3,2 C14.1,1.7 13.7,1.5 13.3,1.6 C12.7,1.7 12.7,1.3 12.3,1 C11,0.5 9.5,0.8 8.4,1.6 C7.1,2.7 6.1,4 5.5,5.6 C5.3,6 5.7,6.3 6.3,6.3 Z"></path>
            </g>
        </g>
    </g>
</svg>