<?xml version="1.0" encoding="UTF-8"?>
<svg width="95px" height="95px" viewBox="0 0 95 95" version="1.1" xmlns="http://www.w3.org/2000/svg" xmlns:xlink="http://www.w3.org/1999/xlink">
    <!-- Generator: Sketch 53.2 (72643) - https://sketchapp.com -->
    <title>goal_3_target_3_2</title>
    <desc>Created with Sketch.</desc>
    <g id="goal_3_target_3_2" stroke="none" stroke-width="1" fill="none" fill-rule="evenodd">
        <g id="Group-18" fill-rule="nonzero">
            <rect id="Rectangle" fill="#4C9F38" x="9.23705556e-14" y="-2.13162821e-14" width="94.8" height="94.8"></rect>
            <g id="Group" transform="translate(5.700000, 22.000000)" fill="#FFFFFF">
                <g transform="translate(54.000000, 28.000000)">
                    <path d="M5.7,6.9 L5.7,9.9 C5.7,11.6 4.9,12.7 2.8,12.7 C0.7,12.7 0,11.5 0,9.6 L0,8.2 L1.9,8.2 L1.9,9.7 C1.9,10.4 2.2,10.9 2.9,10.9 C3.6,10.9 3.8,10.5 3.8,9.8 L3.8,6.8 C3.8,6.1 3.6,5.7 2.9,5.7 C2.2,5.7 2,6.1 2,6.8 L2,7.1 L0.1,7.1 L0.1,0.2 L5.6,0.2 L5.6,1.9 L2,1.9 L2,5 L2,5 C2.4,4.4 3,4.1 3.7,4.2 C4.7,4.2 5.7,4.9 5.7,6.9 Z" id="Path"></path>
                    <polygon id="Path" points="12.2 7.9 12.2 12.6 10.1 12.6 10.1 7.9 7.8 0.3 10 0.3 11.2 5 11.2 5 12.4 0.3 14.4 0.3"></polygon>
                    <path d="M17.5,6.9 L17.5,12.5 L15.4,12.5 L15.4,0.3 L18.4,0.3 C20.5,0.3 21.2,1.3 21.2,3.1 L21.2,4.7 C21.2,6 20.7,6.8 19.5,7.1 L21.5,12.7 L19.3,12.7 L17.5,6.9 Z M17.5,1.9 L17.5,5.7 L18.2,5.7 C18.7,5.8 19.1,5.4 19.2,4.9 C19.2,4.8 19.2,4.7 19.2,4.7 L19.2,2.9 C19.2,2.2 18.9,1.9 18.2,1.9 L17.5,1.9 Z" id="Shape"></path>
                    <path d="M22.4,9.9 L22.4,8.2 L24.3,8.2 L24.3,10 C24.3,10.7 24.6,11.1 25.3,11.1 C26,11.1 26.3,10.7 26.3,10 L26.3,9.5 C26.3,8.8 25.9,8.2 25.4,7.7 L24.2,6.5 C23,5.3 22.5,4.6 22.5,3.2 L22.5,2.8 C22.4,1.4 23.5,0.2 24.9,0.1 C25.1,0.1 25.2,0.1 25.4,0.1 C27.5,0.1 28.3,1.1 28.3,2.9 L28.3,3.9 L26.4,3.9 L26.4,2.8 C26.4,2.1 26.1,1.8 25.4,1.8 C24.9,1.7 24.5,2.1 24.4,2.6 C24.4,2.7 24.4,2.7 24.4,2.8 L24.4,3 C24.4,3.7 24.8,4.1 25.4,4.7 L26.8,5.9 C27.9,7 28.5,7.7 28.5,9.1 L28.5,9.7 C28.6,11.2 27.6,12.5 26.1,12.6 C25.9,12.6 25.7,12.6 25.5,12.6 C23.2,12.7 22.4,11.5 22.4,9.9 Z" id="Path"></path>
                </g>
                <g id="Path">
                    <path d="M17.4,47.5 C17.4,47.5 17.4,47.4 17.4,47.4 C17.4,47.3 17.3,47.2 17.3,47.1 C17.3,47 17.2,47 17.2,46.9 L17,46.8 C17,46.8 16.9,46.7 16.9,46.7 C16.8,46.6 16.8,46.6 16.7,46.5 L12.7,42.2 C12.2,41.6 12.6,41.4 12.6,41.4 L16.1,37.8 L10.7,32.2 C10.7,32.2 7.2,35.8 5.7,37.2 C3.4,39.5 5.7,41.9 5.7,41.9 L13.6,49.8 L13.6,49.8 C14,50.2 14.6,50.5 15.2,50.5 L15.2,50.5 L15.4,50.5 L15.5,50.5 C15.6,50.5 15.7,50.5 15.8,50.4 C16.8,50.1 17.4,49.2 17.4,48.2 C17.4,48.2 17.4,48.2 17.4,48.1 C17.4,47.9 17.4,47.7 17.4,47.5 Z"></path>
                    <path d="M25.7,32.1 L20.3,37.7 L23.8,41.3 C23.8,41.3 24.2,41.6 23.6,42.1 L19.6,46.4 C19.5,46.5 19.5,46.5 19.4,46.6 C19.4,46.6 19.3,46.7 19.3,46.7 L19.2,46.8 C19.2,46.9 19.1,46.9 19.1,47 C19.1,47.1 19,47.2 19,47.3 C19,47.3 19,47.4 19,47.4 C19,47.6 18.9,47.8 18.9,48 C18.9,48 18.9,48 18.9,48.1 C18.9,49.1 19.6,50 20.5,50.3 C20.6,50.3 20.7,50.4 20.8,50.4 L21,50.4 L21.2,50.4 L21.2,50.4 C21.8,50.4 22.4,50.2 22.8,49.7 L22.8,49.7 L30.7,41.8 C30.7,41.8 33,39.4 30.7,37.1 C29.2,35.7 25.7,32.1 25.7,32.1 Z"></path>
                    <path d="M18.1,14 C21.8,14 24.9,11 24.9,7.3 C24.9,3.6 21.9,0.5 18.2,0.5 C14.5,0.5 11.4,3.5 11.4,7.2 C11.4,7.2 11.4,7.2 11.4,7.2 C11.4,11 14.4,14 18.1,14 Z"></path>
                    <path d="M82.8,18.4 L82.8,18.4 L82.8,18.4 L77.7,14.6 L77.7,14.6 L77.7,14.6 C77.6,14.5 77.5,14.5 77.4,14.6 C77.4,14.6 77.3,14.7 77.3,14.7 L77.3,14.7 L77.3,14.7 L77.3,17.5 L65.3,17.5 L65.3,15.4 L64.3,15.4 L64.3,17.5 L52,17.5 C51.5,17.5 51,17.8 50.8,18.3 L47.2,28.6 L42,6.1 C41.9,5.5 41.4,5.1 40.8,5.1 C40.2,5.1 39.7,5.5 39.6,6 L34,25.7 L24.6,16.3 C24.2,15.8 23.6,15.6 23,15.6 L13.4,15.6 C12.8,15.6 12.2,15.9 11.8,16.3 L1.3,26.7 C1.1,26.9 1,27.1 0.9,27.4 C0.8,27.7 0.7,28 0.7,28.3 C0.7,29.5 1.7,30.4 2.8,30.4 C3.2,30.4 3.7,30.3 4,30 L4.2,29.8 L4.6,29.4 L9.9,24 C9.9,24 10.7,23.2 10.9,24.1 L10.9,29 L25.6,29 L25.6,24.1 C25.8,23.2 26.6,24 26.6,24 L31.9,29.4 L32.2,29.8 C32.3,29.9 32.3,29.9 32.4,30 C32.7,30.2 33.2,30.4 33.6,30.4 C34.5,30.4 35.3,29.9 35.6,29.1 C35.6,29 35.7,29 35.7,28.9 L40.9,11.3 L46,33.4 C46.1,34 46.6,34.4 47.2,34.4 L47.3,34.4 C47.8,34.4 48.3,34.1 48.5,33.6 L53,19.9 L64.2,19.9 L64.2,22 L65.2,22 L65.2,19.9 L77.2,19.9 L77.2,22.7 C77.2,22.8 77.3,22.9 77.4,22.9 C77.4,22.9 77.5,22.9 77.6,22.9 L77.6,22.9 L82.7,18.9 L82.8,18.9 C82.8,18.8 82.9,18.8 82.9,18.7 C82.9,18.6 82.8,18.5 82.8,18.4 Z"></path>
                </g>
            </g>
        </g>
    </g>
</svg>