<?xml version="1.0" encoding="UTF-8"?>
<svg width="95px" height="95px" viewBox="0 0 95 95" version="1.1" xmlns="http://www.w3.org/2000/svg" xmlns:xlink="http://www.w3.org/1999/xlink">
    <!-- Generator: Sketch 53.2 (72643) - https://sketchapp.com -->
    <title>goal_5_target_5_2</title>
    <desc>Created with Sketch.</desc>
    <g id="goal_5_target_5_2" stroke="none" stroke-width="1" fill="none" fill-rule="evenodd">
        <g id="Group-31" fill-rule="nonzero">
            <g id="Group-30">
                <rect id="Rectangle" fill="#FF3A21" x="-3.62376795e-13" y="-2.13162821e-14" width="94.8" height="94.8"></rect>
                <path d="M47.4,8.3 C25.8,8.3 8.3,25.8 8.3,47.4 C8.3,69 25.8,86.5 47.4,86.5 C69,86.5 86.5,69 86.5,47.4 L86.5,47.4 C86.6,25.9 69,8.3 47.4,8.3 Z M13.3,47.5 C13.3,28.7 28.6,13.4 47.4,13.4 C55.2,13.4 62.9,16.1 68.9,21.1 L56.6,33.3 C55.8,32 54.3,31.2 52.8,31.1 L42.1,31.1 L41.8,31.1 L49.7,40.1 L52.8,43.7 L47.8,44.8 L49.8,47 L56.1,54.1 L49,48 L45.2,44.7 L43.7,43.4 L47.4,42.6 L47.5,42.6 L47.5,42.6 L37.8,34 C37.6,34.3 37.4,34.7 37.3,35 L33.1,48.7 C33.1,48.7 32.3,51.2 34.5,51.8 C36.7,52.4 37.3,50 37.3,50 L40.7,38.6 C40.7,38.6 40.9,37.7 41.5,37.9 C42.1,38.1 41.9,39 41.9,39 L38.5,51.5 L21,69 C16,62.9 13.3,55.3 13.3,47.5 Z M47.4,81.6 C38.9,81.6 30.7,78.4 24.4,72.6 L36.5,60.4 L41.4,60.4 L41.4,75.7 C41.4,77.2 42.6,78.3 44,78.3 C45.5,78.3 46.6,77.1 46.6,75.7 C46.6,75.7 46.6,75.7 46.6,75.7 L46.6,60.4 L48.1,60.4 L48.1,75.7 C48.1,77.2 49.3,78.3 50.7,78.3 C52.1,78.3 53.3,77.1 53.3,75.7 L53.3,60.4 L58.8,60.4 L54,42.9 L55.1,41.8 L57.7,50 C57.7,50 58.3,52.4 60.5,51.8 C62.7,51.2 61.9,48.7 61.9,48.7 L58.7,38.4 L72.7,24.4 C85.5,38.3 84.6,59.8 70.7,72.6 C64.3,78.4 56,81.6 47.4,81.6 Z" id="Shape" fill="#FFFFFF"></path>
            </g>
            <path d="M47.4,28.7 C50.2,28.7 52.5,26.4 52.5,23.6 C52.5,20.8 50.2,18.5 47.4,18.5 C44.6,18.5 42.3,20.8 42.3,23.6 C42.3,23.6 42.3,23.6 42.3,23.7 C42.4,26.4 44.6,28.7 47.4,28.7 C47.4,28.7 47.4,28.7 47.4,28.7 Z" id="Path" fill="#FFFFFF"></path>
        </g>
    </g>
</svg>