<?xml version="1.0" encoding="UTF-8"?>
<svg width="95px" height="95px" viewBox="0 0 95 95" version="1.1" xmlns="http://www.w3.org/2000/svg" xmlns:xlink="http://www.w3.org/1999/xlink">
    <!-- Generator: Sketch 53.2 (72643) - https://sketchapp.com -->
    <title>goal_10_target_10_b</title>
    <desc>Created with Sketch.</desc>
    <g id="goal_10_target_10_b" stroke="none" stroke-width="1" fill="none" fill-rule="evenodd">
        <g id="Group-81" fill-rule="nonzero">
            <rect id="Rectangle" fill="#DD1367" x="-3.62376795e-13" y="-2.13162821e-14" width="94.8" height="94.8"></rect>
            <g id="Group" transform="translate(54.700000, 33.000000)" fill="#FFFFFF">
                <path d="M30.4,12.9 C30.4,12.5 30,12.2 29.7,12.2 L29.7,12.2 C29.3,12.2 29,12.2 28.6,12.2 C28.2,12.2 27.8,12.1 27.7,11.7 C27.5,11 27.3,10.3 27,9.6 C26.9,9.2 27,8.8 27.3,8.6 L28.2,7.8 C28.5,7.6 28.6,7.2 28.4,6.9 C27.9,6.1 27.4,5.3 26.7,4.7 C26.5,4.4 26,4.4 25.7,4.6 L25.7,4.6 L24.8,5.2 C24.5,5.5 24.1,5.5 23.8,5.3 C23.2,4.8 22.5,4.3 22,4 C21.7,3.8 21.5,3.4 21.6,3 C21.7,2.6 21.8,2.2 21.9,1.8 C22,1.5 21.8,1.1 21.5,0.9 C20.7,0.5 19.8,0.2 18.8,0.1 C18.4,1.46410661e-14 18,0.2 17.9,0.6 C17.8,1 17.7,1.3 17.5,1.6 C17.3,1.9 17.2,2.3 16.7,2.3 C15.8,2.3 15.1,2.3 14.5,2.3 C14.1,2.3 13.7,2.1 13.6,1.7 C13.4,1.3 13.3,1 13.2,0.6 C13.1,0.3 12.7,0.1 12.4,0.1 C11.5,0.3 10.6,0.6 9.8,1 C9.4,1.1 9.3,1.6 9.4,1.9 C9.5,2.3 9.6,2.6 9.7,2.9 C9.8,3.2 9.8,3.7 9.5,3.9 C9.2,4.1 8.2,4.8 7.7,5.2 C7.4,5.5 7,5.5 6.6,5.3 C6.2,5.1 5.9,4.9 5.6,4.7 C5.3,4.5 4.8,4.5 4.6,4.8 C4,5.5 3.4,6.3 3,7.1 C2.8,7.4 2.9,7.9 3.2,8.1 L3.2,8.1 L4,8.8 C4.3,9 4.6,9.3 4.4,9.8 C4.2,10.3 3.9,11.5 3.7,11.9 C3.6,12.3 3.3,12.6 2.9,12.6 L1.7,12.7 C1.3,12.7 1,13 1,13.4 C0.9,14.3 0.9,15.3 1,16.2 C1,16.6 1.4,16.9 1.7,16.9 L1.7,16.9 L2.8,16.9 C3.2,16.9 3.6,17 3.7,17.4 C3.9,18.1 4.1,18.8 4.4,19.5 C4.5,19.9 4.4,20.3 4.1,20.5 C3.8,20.8 3.5,21 3.2,21.3 C2.9,21.5 2.8,21.9 3,22.2 C3.5,23 4,23.8 4.7,24.4 C4.9,24.7 5.4,24.7 5.7,24.5 L5.7,24.5 C6,24.3 6.3,24.1 6.6,23.9 C6.9,23.7 7.3,23.5 7.6,23.8 C7.9,24.1 9,24.8 9.4,25.1 C9.7,25.3 9.9,25.7 9.8,26.1 C9.7,26.5 9.6,26.9 9.5,27.3 C9.4,27.7 9.6,28 9.9,28.2 C10.7,28.6 11.6,28.9 12.6,29 C13,29.1 13.4,28.9 13.5,28.5 C13.6,28.1 13.7,27.8 13.9,27.5 C14.1,27.2 14.2,26.8 14.7,26.8 C15.5,26.8 16.1,26.8 16.9,26.8 C17.3,26.8 17.7,27 17.8,27.4 C18,27.8 18.1,28.1 18.2,28.5 C18.3,28.8 18.7,29 19,29 C19.9,28.8 20.8,28.5 21.6,28.1 C22,28 22.1,27.5 22,27.2 C21.9,26.8 21.8,26.5 21.7,26.2 C21.6,25.9 21.6,25.4 21.9,25.2 C22.2,25 23.3,24.2 23.7,23.9 C24,23.6 24.5,23.5 24.9,23.8 C25.3,24 25.6,24.2 25.9,24.4 C26.2,24.6 26.6,24.5 26.8,24.3 C27.4,23.6 28,22.8 28.4,22 C28.6,21.7 28.5,21.2 28.2,21 L28.2,21 C27.9,20.8 27.7,20.6 27.4,20.3 C27.1,20 26.8,19.7 27,19.3 C27.2,18.9 27.5,17.7 27.7,17.2 C27.8,16.8 28.1,16.5 28.5,16.5 C28.9,16.5 29.3,16.4 29.7,16.4 C30.1,16.4 30.4,16.1 30.4,15.7 C30.5,14.7 30.5,13.8 30.4,12.9 Z M15.8,23.7 C10.8,23.7 6.7,19.6 6.7,14.6 C6.7,9.6 10.8,5.5 15.8,5.5 C20.8,5.5 24.9,9.6 24.9,14.6 L24.9,14.6 C24.9,19.7 20.8,23.7 15.8,23.7 Z" id="Shape"></path>
                <path d="M9.1,12 C9.3,12.1 9.5,12 9.5,11.9 C9.5,11.8 9.5,11.7 9.5,11.6 C9.5,11.5 9.6,11.4 9.7,11.4 C9.9,11.3 10.1,11.2 10.3,11 C10.7,10.9 11.1,10.9 11.5,11 C11.8,11.1 12.1,11.1 12.3,10.8 C12.5,10.6 12.7,10.4 12.9,10.3 C13,10.2 12.6,9.9 12.3,10.3 C12,10.7 11.8,10.7 11.6,10.7 C11.4,10.7 10.5,10.5 10.4,10.2 C10.3,9.9 10.7,9.7 11,9.5 C11.5,9.4 12,9.3 12.5,9.3 C13,9.2 13.6,9 13.9,9.2 C14.2,9.4 12.6,9.8 13.1,10.1 C13.3,10.2 14.1,9.6 14.4,9.5 C15.1,9.1 13.7,9 13.9,8.3 C14.1,7.6 12.3,7.8 11.4,7.9 C11,8.2 10.5,8.5 10.2,8.9 C10.3,8.9 10.4,9 10.4,9 C10.4,9.2 10.4,9.4 10.3,9.5 C10.1,9.7 9.8,9.9 9.5,9.9 C9.4,9.9 9.4,9.9 9.3,9.8 C9.2,10 9,10.2 8.9,10.4 C9.1,10.3 9.3,10.2 9.5,10.2 C9.7,10.2 10,10.3 10,10.4 C10,10.5 9.5,10.8 9.4,10.9 C9.1,11.2 8.7,11.7 8.4,11.7 C8.3,11.7 8.3,11.7 8.2,11.7 C8.1,11.9 8.1,12 8,12.2 C8.5,12 8.8,11.9 9.1,12 Z" id="Path"></path>
                <path d="M22.3,14.2 C22.1,14.4 21.8,14.5 21.5,14.5 C21.3,14.6 21,15.2 21.1,15.5 C21.2,15.8 21.9,16.6 21.3,16.6 C20.8,16.3 20.3,16 20,15.5 C19.8,15.1 19.7,14.6 19.5,14.3 C19.4,14.1 19.2,13.9 18.9,14 C18.8,14 18.8,14 18.7,14.1 C18.4,14.3 18.8,14.5 18.6,14.9 C18.4,15.3 18.3,15.7 17.9,15.3 C17.1,14.4 16,14.8 15.8,13.8 C15.7,13.3 15.2,13.3 14.8,13 C14.4,12.7 14.2,12.5 14.1,12.8 C14,13.1 15.3,14 15.4,14.3 C15.5,14.6 15,15 14.6,15.1 C14.2,15.2 14.1,14.9 13.7,14.5 C13.3,14.1 13.2,13.8 13.1,14.1 C13.1,14.6 13.4,15.1 13.8,15.4 C14.1,15.6 14.5,15.7 14.4,16 C14.3,16.3 14.4,16.2 14,16.5 C13.7,16.7 13.5,17.1 13.6,17.5 C13.6,18 13.5,18 13.4,18.4 C13.3,18.8 13.1,18.5 13,19.1 C12.9,19.5 12.7,19.8 12.5,20.1 C12.2,20.4 11.8,20.5 11.4,20.5 C11,20.5 11,19.5 11,19 C11,18.8 10.8,19.3 10.6,18.3 C10.5,17.6 10.1,18.4 10.1,17.9 C10.1,17.4 9.9,17.5 9.6,17.3 C9.3,17.1 9.1,17.3 8.8,17.5 C8.5,17.7 8.6,17.7 8.2,17.6 L8.2,17.6 C9.1,19.8 11,21.5 13.3,22.2 C13.2,22.1 13.1,21.9 13.2,21.8 C13.5,21.2 14.1,20.8 14.8,20.8 C16.1,20.7 17.8,21.6 18.1,21.5 C18.4,21.4 18.9,20.6 19.7,20.7 C20,20.7 20.2,20.7 20.4,20.9 C20.7,20.7 21,20.5 21.2,20.2 C21.1,20.2 21,20.2 20.9,20.1 C20.5,19.9 20.5,20.2 20.3,20.1 C20.1,20 20.5,19.5 19.9,19.9 C19.3,20.3 19.4,19.8 19.1,19.1 C18.9,18.4 19.3,17.7 19.9,17.4 C20.4,17.2 20.9,17.1 21.3,17 C22.3,16.8 22.5,16.2 22.6,16.5 L22.7,16.7 C22.8,16.9 22.8,17 22.8,17.2 C22.9,16.8 23.1,16.4 23.1,16 C22.9,15.9 22,14.7 22.7,13.9 C22.8,13.8 22.5,13.4 22.6,13.4 C22.9,13.4 23.2,13.6 23.3,13.9 C23.3,13.5 23.2,13.1 23.1,12.7 C23.1,12.8 23.1,12.9 23.1,13 C23,13.3 22.7,13.4 22.4,13.3 C22.3,13.3 22.2,13.2 22.1,13.1 C22,13 21.7,12.7 21.7,13.2 C21.7,13.7 22.8,13.9 22.3,14.2 Z M14.8,17.4 C14.7,17.6 14.4,18.9 14.2,18.8 C14,18.7 14.3,17.2 14.4,17.1 C14.6,16.5 15.3,16.5 14.8,17.4 Z M18,15.8 C17.8,15.9 17.5,15.9 17.2,15.7 C17,15.5 17.3,15.3 17.4,15.3 C17.8,15.3 18.2,15.6 18,15.8 Z M21.3,15.5 C21.2,15.3 21.4,15.2 21.6,15.3 C21.8,15.4 21.9,15.6 22,15.8 C22,15.9 21.7,15.9 21.6,15.9 C21.5,15.9 21.4,15.7 21.3,15.5 L21.3,15.5 Z M22.4,16.5 C22.2,16.6 21.9,16.6 21.6,16.4 C21.4,16.2 21.7,16 21.8,16 C22.2,16 22.6,16.4 22.4,16.5 L22.4,16.5 Z" id="Shape"></path>
                <path d="M8.8,12.9 C9.2,13 9.7,13.1 10.1,13.2 C10.6,13.4 11.3,13.8 11.7,13.6 C12.1,13.4 12.3,13.3 12.2,13 C12.1,12.7 11.9,12.6 11.6,12.8 C11.5,12.9 11.3,12.3 11.1,12.4 C10.9,12.5 11.3,13.1 11.2,13.1 C11.1,13.1 10.7,12.4 10.7,12.3 C10.7,12.2 10.4,11.9 10.2,12.1 C9.7,12.5 9,12.5 8.8,12.6 C8.8,12.6 8.7,12.7 8.6,12.7 C8.3,12.8 8.2,12.5 8.2,12.3 C8.1,12.7 8,13.2 7.9,13.7 L7.9,13.6 C8.2,13.1 8.2,13.1 8.3,13 C8.4,13 8.5,12.9 8.6,12.9 L8.8,12.9 Z" id="Path"></path>
            </g>
            <path d="M70.7,73.4 L67.9,71.2 C67.7,71 67.3,70.9 67.1,71.2 L67.1,71.2 L67.1,71.2 C58.3,81.7 43.1,82.8 32.3,74.2 C32,73.9 31.7,73.7 31.4,73.4 L34.6,71.4 C34.9,71.2 34.5,70.9 34.5,70.9 L23.7,65.5 C23.4,65.3 23.3,65.5 23.3,65.7 L23.3,65.8 L23.3,65.8 L23.1,78 C23.1,78.1 23.2,78.4 23.5,78.2 L23.5,78.2 L27,76 C27.7,76.7 28.4,77.3 29.2,77.9 C42,88.2 60.1,86.8 70.7,74.4 L70.8,74.3 C71,74.1 71,73.7 70.7,73.4 L70.7,73.4 Z" id="Path" fill="#FFFFFF"></path>
            <path d="M23.3,22.8 L26.2,24.9 C26.4,25.1 26.8,25.1 27,24.9 C27,24.9 27,24.9 27,24.8 L27,24.8 C35.2,13.8 50.3,11.8 61.5,19.8 C61.8,20 62.2,20.3 62.5,20.6 L59.5,22.8 C59.2,23 59.7,23.3 59.7,23.3 L70.8,28 C71.1,28.2 71.2,27.9 71.2,27.8 L71.2,27.7 L71.2,27.7 L70.5,15.4 C70.5,15.3 70.4,15 70.1,15.2 L70.1,15.2 L66.7,17.6 C66,17 65.2,16.4 64.4,15.8 C51,6.3 33,8.7 23.2,21.7 L23.1,21.8 C22.9,22.2 22.9,22.6 23.3,22.8 C23.2,22.8 23.2,22.8 23.3,22.8 Z" id="Path" fill="#FFFFFF"></path>
            <g id="Group" transform="translate(7.700000, 35.000000)" fill="#FFFFFF">
                <path d="M14.8,21.8 C14.3,22.1 13.8,22.4 13.2,22.5 C11.6,23 9.8,23.2 8.1,23.1 C7.3,23.1 6.4,23 5.6,22.9 C5.1,22.8 4.6,22.7 4.1,22.6 L3.3,22.4 C2.6,22.2 1.9,21.9 1.3,21.4 C1.1,21.2 0.9,21 0.7,20.8 L0.7,21.5 C0.7,21.7 0.7,22.5 0.7,22.5 C0.7,22.9 0.9,23.3 1.3,23.6 C2.5,24.4 3.8,24.9 5.2,25.1 C6.2,25.2 7.1,25.3 8.1,25.3 C9.5,25.3 10.9,25.2 12.2,24.8 L12.2,24.8 C13,24.6 13.7,24.4 14.4,24 L14.4,24 C15.1,23.6 15.5,23.1 15.5,22.6 C15.5,22.6 15.5,21.1 15.5,21 C15.4,21.3 15.1,21.5 14.8,21.8 Z" id="Path"></path>
                <path d="M7.5,16.7 C11.6,16.7 14.9,15.5 14.9,13.9 C14.9,13.9 15,12.5 15,12.2 C15,12 15,11.8 14.9,11.6 C15.4,11.3 15.7,10.9 15.7,10.4 C15.7,10.4 15.8,8.8 15.7,8.5 C15.5,6.7 11.8,5.7 8.3,5.7 C4.8,5.7 0.8,6.8 0.8,8.7 C0.8,8.8 0.9,10.4 0.9,10.4 C0.9,10.5 0.9,10.6 1,10.7 C0.5,11 0.1,11.6 0.1,12.2 C0.1,12.3 0.2,13.9 0.2,13.9 C0.2,14.3 0.4,14.7 0.8,15 C2,15.8 3.3,16.3 4.7,16.5 C5.6,16.7 6.5,16.7 7.5,16.7 Z M8.3,6.5 C12.3,6.5 15,7.7 15,8.7 C15,9.7 12.2,11 8.3,11 C4.4,11 1.6,9.8 1.6,8.8 C1.6,7.8 4.3,6.5 8.3,6.5 Z M0.8,12.3 C0.9,11.9 1.1,11.6 1.4,11.5 C1.6,11.7 1.9,11.9 2.2,12 C4.1,12.9 6.2,13.3 8.3,13.2 C10.1,13.2 11.8,13 13.5,12.4 C13.7,12.3 13.9,12.2 14.1,12.1 C14.1,12.2 14.1,12.2 14.1,12.3 C14.1,13.4 11.3,14.5 7.4,14.5 C3.5,14.5 0.8,13.3 0.8,12.3 Z" id="Shape"></path>
                <path d="M5.3,22.4 C6.3,22.5 7.2,22.6 8.2,22.6 C9.6,22.6 11,22.5 12.3,22.1 L12.3,22.1 C13,21.9 13.7,21.6 14.4,21.3 L14.4,21.3 C14.6,21.2 14.8,21.1 15,21 C15.2,20.8 15.4,20.6 15.6,20.3 C15.6,20.2 15.7,20.1 15.7,19.9 C15.7,19.9 15.7,18.4 15.7,18.3 C15.5,18.6 14.8,19.6 11.9,20.2 C10.7,20.4 9.4,20.5 8.1,20.5 C5.7,20.5 3.3,20 2.2,19.3 C1.9,19.1 1.6,18.9 1.3,18.7 C1.1,18.5 1,18.3 0.9,18.1 L0.9,18.8 L0.9,19.9 C0.9,20.3 1.2,20.7 1.5,20.9 C2.5,21.8 3.9,22.3 5.3,22.4 Z" id="Path"></path>
                <path d="M15.5,15 L15.3,14.8 C15.2,14.7 15.1,14.7 15,14.6 C14.9,14.8 14.8,14.9 14.7,15 C14.8,15 14.9,15.1 15,15.2 C15.2,15.3 15.3,15.5 15.4,15.8 C15.4,16 15.3,16.2 15.1,16.3 L14.8,16.5 L14.4,16.7 C14.4,16.7 13.9,16.9 13.8,17 L13,17.3 L12.1,17.5 L11,17.6 C10.9,17.6 10.1,17.7 9.8,17.7 C9.7,17.7 8.6,17.8 8.1,17.8 C7.3,17.8 6.5,17.7 5.7,17.6 C5.1,17.5 4.6,17.4 4,17.3 C3.4,17.2 2.8,17 2.2,16.7 C1.9,16.5 1.5,16.3 1.3,16.1 C1.1,15.9 0.9,15.6 0.7,15.3 L0.7,16.3 L0.7,17.2 C0.7,17.6 0.9,18 1.3,18.3 C2.5,19.1 3.8,19.6 5.2,19.8 C6.2,19.9 7.1,20 8.1,20 C9.5,20 10.9,19.9 12.2,19.5 L12.2,19.5 C12.9,19.3 13.6,19 14.3,18.7 L14.3,18.7 C14.5,18.6 14.6,18.5 14.8,18.4 C15,18.2 15.2,18 15.4,17.7 C15.5,17.6 15.5,17.5 15.5,17.3 L15.6,15.7 C15.6,15.6 15.6,15.4 15.5,15.3 C15.6,15.2 15.6,15.1 15.5,15 Z" id="Path"></path>
                <path d="M24.6,11.4 C28.7,11.4 32,10.2 32,8.6 C32,8.6 32.1,7.2 32.1,6.9 C32.1,6.7 32,6.5 32,6.3 C32.5,6 32.8,5.6 32.8,5.1 C32.8,5.1 32.9,3.5 32.8,3.2 C32.6,1.4 28.9,0.4 25.4,0.4 C21.9,0.4 17.9,1.5 17.9,3.4 C17.9,3.5 18,5.1 18,5.1 C18,5.2 18,5.3 18.1,5.4 C17.6,5.7 17.2,6.3 17.2,6.9 C17.2,7 17.3,8.6 17.3,8.6 C17.3,9 17.5,9.4 17.9,9.7 C19.1,10.5 20.4,11 21.8,11.2 C22.6,11.3 23.6,11.4 24.6,11.4 Z M25.3,1.2 C29.3,1.2 32,2.4 32,3.4 C32,4.4 29.3,5.6 25.3,5.6 C21.3,5.6 18.6,4.4 18.6,3.4 C18.6,2.4 21.4,1.2 25.3,1.2 Z M17.9,6.9 C18,6.5 18.2,6.2 18.5,6.1 C18.7,6.3 19,6.5 19.3,6.7 C21.2,7.6 23.3,8 25.4,7.9 C27.2,7.9 28.9,7.7 30.6,7.1 C30.8,7 31,6.9 31.2,6.8 C31.2,6.9 31.2,6.9 31.2,7 C31.2,8.1 28.5,9.2 24.5,9.2 C20.5,9.2 17.9,8 17.9,6.9 Z" id="Shape"></path>
                <path d="M32.7,9.9 C32.7,9.8 32.6,9.7 32.5,9.6 C32.4,9.5 32.4,9.5 32.3,9.4 C32.2,9.3 32.1,9.3 32,9.2 C31.9,9.4 31.8,9.5 31.7,9.6 C31.8,9.6 31.9,9.7 32,9.8 C32.2,9.9 32.3,10.1 32.3,10.4 C32.3,10.6 32.2,10.8 32,10.9 C31.9,11 31.8,11 31.7,11.1 L31.3,11.3 C31.3,11.3 30.8,11.5 30.6,11.6 L29.9,11.8 L29,12 C29,12 28.2,12.1 27.9,12.2 L26.7,12.3 C26.6,12.3 25.5,12.4 25,12.4 C24.2,12.4 23.4,12.3 22.6,12.2 C22,12.1 21.5,12 20.9,11.9 C20.3,11.8 19.7,11.6 19.1,11.3 C18.8,11.1 18.5,10.9 18.2,10.7 C18,10.5 17.8,10.2 17.6,9.9 L17.6,10.9 L17.6,11.8 C17.6,12.2 17.8,12.6 18.2,12.9 C19.4,13.7 20.7,14.2 22.1,14.4 C23.1,14.5 24,14.6 25,14.6 C26.4,14.6 27.8,14.4 29.2,14.1 L29.2,14.1 C29.9,13.9 30.6,13.7 31.3,13.3 L31.3,13.3 C31.5,13.2 31.6,13.1 31.8,13 C32,12.8 32.2,12.6 32.4,12.3 C32.4,12.2 32.5,12 32.5,11.9 L32.6,10.3 C32.7,10.2 32.7,10 32.7,9.9 Z" id="Path"></path>
                <path d="M31.9,16.4 C31.4,16.7 30.9,17 30.3,17.1 C28.7,17.6 27,17.8 25.3,17.7 C24.5,17.7 23.6,17.6 22.8,17.5 C22.2,17.4 21.8,17.3 21.3,17.2 L20.5,17 C19.8,16.8 19.1,16.4 18.5,16 C18.3,15.8 18.1,15.6 18,15.4 L18,16.1 C18,16.3 18,17.1 18,17.1 C18,17.5 18.2,17.9 18.6,18.2 C19.8,19 21.1,19.5 22.5,19.7 C23.5,19.8 24.4,19.9 25.4,19.9 C26.8,19.9 28.2,19.7 29.6,19.4 L29.6,19.4 C30.3,19.2 31,19 31.7,18.6 L31.7,18.6 C32.4,18.2 32.8,17.7 32.8,17.2 C32.8,17.2 32.9,15.7 32.8,15.6 C32.4,15.9 32.2,16.2 31.9,16.4 Z" id="Path"></path>
                <path d="M18.5,15.6 C19.7,16.4 21,16.9 22.4,17.1 C23.4,17.2 24.3,17.3 25.3,17.3 C26.7,17.3 28.1,17.1 29.4,16.8 L29.4,16.8 C30.1,16.6 30.8,16.4 31.5,16 L31.5,16 C31.7,15.9 31.8,15.8 32,15.7 C32.2,15.5 32.4,15.3 32.6,15 C32.6,14.9 32.7,14.7 32.7,14.6 C32.7,14.6 32.7,13.1 32.7,13 C32.5,13.3 31.8,14.3 28.9,14.9 C27.7,15.1 26.4,15.2 25.1,15.2 C22.7,15.2 20.3,14.7 19.2,14 C18.9,13.8 18.5,13.6 18.3,13.4 C18.1,13.2 18,13 17.8,12.8 L17.8,13.5 L17.8,14.6 C17.8,15 18.1,15.4 18.5,15.6 Z" id="Path"></path>
                <path d="M32.8,20.9 C32.6,21.2 32.2,21.5 31.9,21.7 C31.4,22 30.9,22.3 30.3,22.4 C28.7,22.9 26.9,23.1 25.2,23 C24.4,23 23.5,22.9 22.7,22.8 C22.1,22.7 21.7,22.6 21.2,22.5 C20.9,22.4 20.7,22.4 20.4,22.3 C19.7,22.1 19,21.8 18.4,21.4 C18.2,21.2 18,21 17.9,20.8 L17.9,21.5 C17.9,21.7 17.9,22.5 17.9,22.5 C17.9,22.9 18.1,23.3 18.5,23.6 C19.7,24.4 21.1,24.9 22.5,25 C23.5,25.1 24.4,25.2 25.4,25.2 C26.8,25.2 28.2,25.1 29.5,24.7 L29.5,24.7 C30.2,24.5 30.9,24.3 31.6,23.9 L31.6,23.9 C32.3,23.5 32.7,23 32.7,22.5 C32.8,22.5 32.8,21 32.8,20.9 Z" id="Path"></path>
                <path d="M22.4,22.4 C23.4,22.5 24.3,22.6 25.3,22.6 C26.7,22.6 28.1,22.5 29.4,22.1 L29.4,22.1 C30.1,21.9 30.8,21.7 31.5,21.3 L31.5,21.3 C31.7,21.2 31.8,21.1 32,21 C32.2,20.8 32.4,20.6 32.6,20.3 C32.7,20.2 32.7,20.1 32.7,19.9 C32.7,19.9 32.7,18.4 32.7,18.3 C32.5,18.6 31.8,19.6 28.9,20.2 C27.7,20.4 26.4,20.5 25.1,20.5 C22.7,20.5 20.3,20 19.2,19.3 C18.9,19.1 18.6,18.9 18.3,18.7 C18.1,18.5 18,18.3 17.8,18.1 C17.8,18.1 17.8,18.8 17.8,18.9 L17.8,20 C17.8,20.4 18.1,20.8 18.4,21 C19.6,21.7 21,22.3 22.4,22.4 Z" id="Path"></path>
            </g>
        </g>
    </g>
</svg>