<?xml version="1.0" encoding="UTF-8"?>
<svg width="95px" height="95px" viewBox="0 0 95 95" version="1.1" xmlns="http://www.w3.org/2000/svg" xmlns:xlink="http://www.w3.org/1999/xlink">
    <!-- Generator: Sketch 53.2 (72643) - https://sketchapp.com -->
    <title>goal_4_target_4_3</title>
    <desc>Created with Sketch.</desc>
    <g id="goal_4_target_4_3" stroke="none" stroke-width="1" fill="none" fill-rule="evenodd">
        <g id="Group" transform="translate(11.700000, 60.000000)" fill="#FFFFFF" fill-rule="nonzero">
            <path d="M14.6,10.1 C14.6,10.1 14.1,8.3 12.6,8.3 L11.1,8.3 L7,8.3 C6.6,8.3 6.2,8.1 6,7.8 C5.5,7.3 3.9,4.5 3.8,4.4 L3,3.2 C2.8,2.8 2.4,2.6 2,2.6 C1.3,2.6 0.8,3.2 0.8,3.8 C0.8,4 0.9,4.2 0.9,4.3 L5.1,11.8 C5.2,12.1 5.3,12.3 5.3,12.6 L5.3,13.4 C5.3,13.7 5.3,13.9 5.2,14.2 L3.5,20.5 L5.3,20.5 L5.3,26 L5.3,26 C5.2,26.9 6,27.7 6.9,27.8 C7.8,27.9 8.6,27.1 8.7,26.2 C8.7,26.1 8.7,26 8.7,25.9 L8.7,20.7 C8.7,20.6 8.7,20.6 8.7,20.5 L9.7,20.5 C9.7,20.6 9.7,20.6 9.7,20.7 L9.7,25.9 C9.7,26.6 10.1,27.3 10.8,27.6 C11.7,27.9 12.6,27.4 12.9,26.5 C13,26.3 13,26.2 13,26 L13,20.5 L14.8,20.5 L12.3,12 C12.3,12 12.2,11.6 12.5,11.5 C12.8,11.4 12.9,11.8 12.9,11.8 L14.9,18.1 C15,18.7 15.7,19.1 16.3,19 C16.3,19 16.3,19 16.3,19 C17.4,18.7 17,17.5 17,17.5 L14.6,10.1 Z" id="Path"></path>
            <path d="M9.5,6.8 C11.4,6.8 12.9,5.3 12.9,3.4 C12.9,1.5 11.4,0 9.5,0 C7.6,0 6.1,1.5 6.1,3.4 C6.1,3.4 6.1,3.4 6.1,3.4 C6.1,5.3 7.6,6.8 9.5,6.8 Z" id="Path"></path>
        </g>
        <g id="Group" transform="translate(48.700000, 60.000000)" fill="#FFFFFF" fill-rule="nonzero">
            <path d="M9.2,6.7 C11,6.7 12.5,5.2 12.5,3.4 C12.5,1.6 11,0.1 9.2,0.1 C7.4,0.1 5.9,1.6 5.9,3.4 L5.9,3.4 C5.8,5.2 7.3,6.7 9.2,6.7 C9.2,6.7 9.2,6.7 9.2,6.7 Z" id="Path"></path>
            <path d="M17.2,16.4 C17.2,16.2 16.2,13.9 15.9,13.1 C13.9,7.9 13.6,7.9 11.7,7.9 L6.6,7.9 C4.8,8 4.4,7.9 2.4,13.1 C2.1,13.8 0.9,16.7 0.9,16.9 C0.9,17.1 0.4,18.1 1.5,18.5 C2.6,18.9 2.9,17.7 2.9,17.7 L4.9,12.6 C4.9,12.6 4.9,12.5 5,12.5 C5.1,12.5 5.1,12.6 5.1,12.7 L5.1,25.9 L5.1,25.9 C5.1,26.9 5.8,27.7 6.8,27.7 C6.8,27.7 6.9,27.7 6.9,27.7 C7.8,27.7 8.6,26.9 8.6,26 C8.6,26 8.6,25.9 8.6,25.9 L8.6,20.6 C8.6,20.6 8.5,19.8 9.1,19.8 C9.7,19.8 9.6,20.6 9.6,20.6 L9.6,25.9 C9.6,26.9 10.3,27.7 11.3,27.7 C11.3,27.7 11.3,27.7 11.4,27.7 C12.3,27.7 13.1,26.9 13.1,26 C13.1,26 13.1,25.9 13.1,25.9 L13.1,25.9 L13.1,12.7 C13.1,12.6 13.1,12.5 13.2,12.5 C13.3,12.5 13.3,12.6 13.3,12.6 L15.2,17.1 C15.2,17.1 15.7,18.3 16.8,17.8 C17.9,17.3 17.2,16.4 17.2,16.4 Z" id="Path"></path>
        </g>
        <g id="Group" transform="translate(68.700000, 52.000000)" fill="#FFFFFF" fill-rule="nonzero">
            <path d="M10.4,8.7 L10.2,8.7 L4,8.7 L3.8,8.7 C1.8,8.9 0.3,10.5 0.3,12.5 L0.3,20.4 C0.4,21 0.9,21.5 1.5,21.4 C2,21.3 2.4,20.9 2.5,20.4 L2.5,13.6 C2.5,13.3 2.6,13 3,13 C3.3,13 3.4,13.3 3.4,13.6 L3.4,34 C3.5,34.9 4.2,35.5 5.1,35.5 C5.9,35.4 6.5,34.8 6.6,34 L6.6,22.2 C6.6,22 6.8,21.8 7,21.7 C7,21.7 7,21.7 7.1,21.7 L7.1,21.7 C7.3,21.7 7.5,21.9 7.6,22.1 C7.6,22.1 7.6,22.1 7.6,22.2 L7.6,33.9 C7.6,34.8 8.3,35.5 9.2,35.5 C10.1,35.5 10.8,34.8 10.8,33.9 L10.8,13.5 C10.8,13.3 10.9,12.9 11.2,12.9 C11.7,12.9 11.7,13.2 11.7,13.5 L11.7,20.3 C11.7,20.9 12.2,21.4 12.8,21.4 C13.4,21.4 13.9,20.9 13.9,20.3 L13.9,12.4 C13.8,10.5 12.3,8.9 10.4,8.7 Z" id="Path"></path>
            <path d="M1.6,3.2 C1.7,2.9 2,2.5 3,2.3 C3.2,2.3 3.4,2.2 3.5,2.1 C3.7,1.8 3.9,1.5 4.1,1.2 C4.1,1.1 4.1,1.1 4.1,1 C4,0.6 3.6,-1.42108547e-14 2.6,0.5 C1.4,1.1 1.5,2.9 1.5,2.9 C1.5,2.9 1.6,3.3 1.6,3.2 Z" id="Path"></path>
            <path d="M11,2.4 C12,2.5 12.3,3 12.4,3.3 C12.4,3.4 12.4,3.3 12.5,3.1 C12.6,2.9 12.6,1.3 11.4,0.7 C10.4,0.2 9.9,0.8 9.9,1.2 C9.9,1.3 9.9,1.4 9.9,1.4 C10.1,1.6 10.3,1.9 10.5,2.2 C10.6,2.3 10.8,2.4 11,2.4 Z" id="Path"></path>
            <path d="M7,7.5 C8.9,7.5 10.4,6 10.4,4.1 C10.4,2.2 8.9,0.7 7,0.7 C5.1,0.7 3.6,2.2 3.6,4.1 C3.6,4.1 3.6,4.1 3.6,4.1 C3.6,6 5.1,7.5 7,7.5 Z" id="Path"></path>
        </g>
        <g id="Group" transform="translate(31.700000, 50.000000)" fill="#FFFFFF" fill-rule="nonzero">
            <path d="M11.4,9.8 L4.3,9.8 C2.3,10 0.8,11.7 0.8,13.7 L0.8,21.9 C0.8,22.5 1.3,23 2,23 C2.6,23 3.1,22.5 3.1,21.9 L3.1,14.8 C3.1,14.5 3.2,14.2 3.7,14.2 C4.2,14.2 4.1,14.5 4.1,14.8 L4.1,36 C4.1,36.9 4.8,37.6 5.8,37.6 C6.7,37.6 7.4,36.9 7.4,36 L7.4,23.8 C7.4,23.5 7.6,23.3 7.8,23.3 C7.8,23.3 7.8,23.3 7.8,23.3 L7.8,23.3 C8,23.3 8.3,23.5 8.3,23.7 C8.3,23.7 8.3,23.7 8.3,23.8 L8.3,36 C8.4,36.9 9.2,37.6 10.1,37.5 C10.9,37.4 11.6,36.8 11.6,36 L11.6,14.8 C11.6,14.6 11.7,14.2 12,14.2 C12.3,14.2 12.6,14.6 12.6,14.8 L12.6,21.9 C12.6,22.5 13.1,23 13.8,23 C14.4,23 14.9,22.5 14.9,21.9 L14.9,13.7 C14.9,11.7 13.4,10 11.4,9.8 Z" id="Path"></path>
            <path d="M10.1,4.8 C9.8,4.6 9.6,4.4 9.1,4.6 C8.8,4.8 8.7,4.8 8.3,5 C7.6,5.3 6.9,5.5 6.2,5.6 C5.6,5.7 5.1,5.7 4.5,5.7 C4.7,7.5 6.3,8.9 8.2,8.7 C9.8,8.5 11,7.3 11.2,5.8 C10.8,5.4 10.5,5.1 10.1,4.8 Z" id="Path"></path>
            <path d="M4.5,5 C5,5 5.5,5 6,4.9 C6.7,4.8 7.3,4.6 7.9,4.3 C8.2,4.1 8.6,4 8.9,3.9 C9.1,3.8 9.4,3.8 9.6,3.8 C9.7,3.8 9.8,3.9 9.9,4 L10.2,4.2 C10.2,4.2 10.3,4.3 11.1,4.9 C11.2,5 11.3,5.1 11.3,5 C11.3,4.9 11.4,4.4 11.4,4.1 C11.3,3.3 10.9,2.5 10.4,1.8 C10.2,1.6 10,1.4 9.7,1.5 C9.3,1.6 9.3,1.3 9,1.1 C8,0.7 6.9,0.9 6.1,1.6 C5.1,2.4 4.4,3.4 3.9,4.6 C3.8,4.8 4.1,5 4.5,5 Z" id="Path"></path>
        </g>
        <rect id="Rectangle" fill="#C5192D" fill-rule="nonzero" x="0" y="0" width="94.8" height="94.8"></rect>
        <g id="Group" transform="translate(7.700000, 26.000000)" fill="#FFFFFF" fill-rule="nonzero">
            <path d="M74.8,0.3 L74.8,6.4 C74.8,6.7 74.6,6.9 74.3,6.9 C74.3,6.9 74.3,6.9 74.3,6.9 L70,6.9 C69.7,6.9 69.5,6.7 69.4,6.4 C69.4,6.4 69.4,6.4 69.4,6.4 L69.4,0.3 C65.9,1.8 64.4,5.8 65.9,9.3 C66.6,10.9 67.9,12.2 69.5,12.9 L69.5,33.8 C69.5,35.4 70.8,36.7 72.4,36.7 C74,36.7 75.3,35.4 75.3,33.8 L75.3,33.8 L75.3,12.6 C78.6,10.9 79.9,6.7 78.2,3.4 C77.9,2.8 77.5,2.2 77,1.7 C76.4,1.2 75.6,0.7 74.8,0.3 Z" id="Path"></path>
            <g transform="translate(53.000000, 0.000000)" id="Path">
                <polyline points="0.6 30.5 2.9 36.6 5.3 30.5 0.6 30.5"></polyline>
                <path d="M5.2,29.6 L5.2,2.1 C5.2,1.1 4.2,0.3 2.8,0.3 C1.4,0.3 0.4,1.1 0.4,2.1 L0.4,29.6 L5.2,29.6 Z"></path>
            </g>
            <g>
                <polygon id="Path" points="46.3 36 46.3 1.6 44.5 0.2 44.3 0.1 44.3 34.6 24.4 41 23.6 41 23.5 41 23.4 41 23.3 41 22.5 41 22.3 41 2.5 35.5 2.5 0.2 2.5 0.1 0.5 1.6 0.5 36.8 22.3 42.9 22.4 42.9 23.3 42.9 23.4 42.9 23.5 42.9 23.6 42.9 24.5 42.9 44.5 36.5"></polygon>
                <path d="M42.2,33.5 L42.2,0.1 L24.2,7.2 L24.2,38.8 L24.3,38.8 L42.2,33.5 Z M28.2,20.5 L28.2,20 C28.2,19.9 28.2,19.9 28.2,19.8 L28.2,19.8 C27.8,19.7 27.5,19.5 27.3,19.3 L27.3,19.3 C27.3,19.3 27.2,19.3 27.2,19.4 L26.9,19.6 C26.7,19.7 26.6,19.7 26.6,19.5 C26.5,19.3 26.4,19 26.3,18.8 C26.3,18.7 26.3,18.5 26.5,18.4 L26.8,18.1 C26.8,18.1 26.9,18 26.9,18 L26.9,18 C26.9,17.7 27,17.3 27.1,17 L27.1,17 C27.1,17 27.1,16.9 27,16.9 L26.7,16.7 C26.6,16.6 26.6,16.5 26.7,16.3 C26.8,16 27,15.7 27.2,15.5 C27.3,15.4 27.4,15.3 27.5,15.4 L27.8,15.6 C27.9,15.6 27.9,15.6 28,15.6 C28.2,15.4 28.5,15.2 28.8,15 L28.8,15 C28.8,14.9 28.8,14.9 28.8,14.8 C28.8,14.7 28.8,14.5 28.8,14.4 C28.8,14.2 28.9,14.1 29.1,14.1 C29.4,14 29.6,14 29.9,14 C30,14 30.1,14.1 30.1,14.2 C30.1,14.3 30.1,14.5 30.1,14.6 C30.1,14.7 30.1,14.7 30.1,14.8 C30.5,14.9 30.8,15.1 31,15.3 L31,15.3 C31,15.3 31.1,15.3 31.1,15.2 L31.4,15 C31.6,14.9 31.7,14.9 31.7,15.1 C31.8,15.3 31.9,15.6 32,15.8 C32,15.9 32,16.1 31.9,16.2 L31.6,16.5 C31.5,16.5 31.5,16.6 31.4,16.7 L31.4,16.7 C31.4,17 31.4,17.4 31.2,17.7 L31.2,17.7 C31.2,17.7 31.2,17.8 31.3,17.8 L31.6,18 C31.7,18.1 31.7,18.2 31.6,18.4 C31.5,18.7 31.3,19 31.1,19.2 C31,19.3 30.9,19.4 30.8,19.3 L30.5,19.1 C30.4,19.1 30.4,19.1 30.3,19.1 L30.3,19.1 C30.1,19.3 29.8,19.5 29.5,19.6 L29.5,19.6 C29.5,19.6 29.5,19.7 29.5,19.8 C29.5,19.9 29.5,20.1 29.5,20.2 C29.5,20.4 29.4,20.5 29.2,20.5 C28.9,20.6 28.7,20.6 28.4,20.7 C28.3,20.7 28.2,20.6 28.2,20.5 L28.2,20.5 Z M34,11 C34,10.9 34,10.9 34,10.8 C33.9,10.7 33.9,10.5 33.8,10.4 C33.7,10.2 33.8,10 33.9,9.9 C34.2,9.6 34.5,9.4 34.8,9.2 C35,9.1 35.1,9.1 35.2,9.2 L35.4,9.6 C35.4,9.7 35.5,9.7 35.6,9.7 C35.9,9.6 36.3,9.5 36.7,9.5 L36.7,9.5 C36.8,9.5 36.8,9.4 36.8,9.3 L37,8.8 C37.1,8.6 37.2,8.5 37.5,8.5 C37.8,8.6 38.1,8.7 38.4,8.8 C38.5,8.9 38.6,9 38.5,9.2 L38.3,9.7 C38.3,9.8 38.3,9.9 38.3,10 C38.6,10.3 38.9,10.8 38.9,11.2 L38.9,11.2 C39,11.2 39,11.2 39.1,11.2 L39.6,11.1 C39.8,11.1 39.9,11.1 39.9,11.4 C39.9,11.8 39.9,12.2 39.8,12.5 C39.8,12.7 39.6,12.8 39.5,12.9 L39,13 C38.9,13 38.8,13.1 38.8,13.1 L38.8,13.1 C38.6,13.5 38.4,14 38.1,14.3 L38.1,14.3 C38.1,14.4 38.1,14.4 38.1,14.5 L38.3,14.9 C38.4,15.1 38.3,15.3 38.2,15.4 C37.9,15.7 37.6,15.9 37.3,16.1 C37.1,16.2 37,16.2 36.9,16.1 L36.5,16 C36.5,15.9 36.4,15.9 36.3,15.9 L36.3,15.9 C36,16 35.6,16.1 35.3,16.1 L35.3,16.1 C35.2,16.1 35.2,16.2 35.2,16.3 L35,16.7 C34.9,17 34.8,17 34.5,17 C34.2,17 33.9,16.9 33.6,16.7 C33.4,16.6 33.4,16.5 33.5,16.3 L33.7,15.8 C33.7,15.7 33.7,15.6 33.7,15.5 L33.7,15.5 C33.3,15.2 33.1,14.7 33,14.2 L33,14.2 C32.9,14.2 32.9,14.2 32.8,14.2 L32.3,14.2 C32.1,14.2 32,14.2 32,13.9 C32,13.5 32,13.1 32.1,12.8 C32.1,12.6 32.3,12.5 32.4,12.4 L32.8,12.4 C32.9,12.4 33,12.3 33,12.3 L33,12.3 C33.4,11.8 33.7,11.4 34,11 L34,11 Z M37.4,26.5 L37,26.3 C36.8,26.2 36.6,26.2 36.5,26.4 L36,26.8 C35.8,26.9 35.7,27.1 35.7,27.3 C35.7,27.5 35.7,27.7 35.7,27.9 C35.7,28.1 35.6,28.3 35.4,28.4 L34.3,28.8 C34.1,28.9 33.9,28.8 33.9,28.6 C33.9,28.4 33.9,28.2 33.8,28 C33.8,27.8 33.7,27.7 33.5,27.7 L32.9,27.7 C32.7,27.7 32.5,27.8 32.4,28 L32,28.5 C31.8,28.7 31.7,28.8 31.5,28.7 C31.2,28.6 30.9,28.4 30.6,28.1 C30.5,28 30.5,27.8 30.6,27.6 L31,27 C31.1,26.8 31.1,26.6 31,26.5 C30.9,26.3 30.8,26.2 30.8,26 C30.7,25.8 30.5,25.8 30.4,25.8 C30.4,25.8 30.4,25.8 30.4,25.8 L29.8,26 C29.6,26.1 29.5,26 29.5,25.8 L29.4,24.6 C29.4,24.4 29.5,24.2 29.7,24.1 L30.3,23.9 C30.5,23.8 30.6,23.7 30.6,23.5 C30.7,23.3 30.7,23 30.8,22.8 C30.9,22.6 30.8,22.4 30.7,22.3 L30.3,22 C30.2,21.9 30.2,21.7 30.3,21.6 C30.5,21.1 30.8,20.7 31.1,20.3 C31.3,20.1 31.4,20.1 31.6,20.2 C31.8,20.3 31.9,20.4 32,20.4 C32.2,20.5 32.4,20.5 32.5,20.3 L33,19.9 C33.2,19.8 33.3,19.6 33.3,19.4 C33.3,19.2 33.3,19 33.3,18.8 C33.3,18.6 33.4,18.4 33.6,18.3 L34.8,17.9 C35,17.8 35.1,17.9 35.2,18.1 C35.3,18.3 35.2,18.5 35.3,18.7 C35.4,18.9 35.4,19 35.6,19 L36,19 C36.2,19 36.4,18.9 36.5,18.7 L36.9,18.2 C37.1,18 37.2,17.9 37.4,18 C37.7,18.1 38,18.3 38.3,18.6 C38.4,18.7 38.4,19 38.3,19.1 L38,19.7 C37.9,19.9 37.9,20.1 38,20.2 L38.3,20.7 C38.4,20.9 38.6,20.9 38.7,20.9 C38.7,20.9 38.7,20.9 38.7,20.9 L39.3,20.7 C39.5,20.6 39.6,20.7 39.6,20.9 C39.6,21.3 39.7,21.7 39.7,22.1 C39.7,22.3 39.6,22.5 39.4,22.6 L38.8,22.8 C38.6,22.9 38.5,23 38.5,23.2 C38.4,23.4 38.4,23.7 38.3,23.9 C38.2,24.1 38.3,24.2 38.4,24.4 C38.5,24.5 38.7,24.6 38.8,24.7 C38.9,24.8 39,25 38.9,25.2 C38.7,25.6 38.4,26.1 38.1,26.4 C38,26.5 37.9,26.6 37.8,26.6 L37.4,26.5 Z" id="Shape"></path>
                <path d="M36.2,25 C37.2,23.8 37.3,22.2 36.5,21.4 C35.7,20.6 34.2,20.8 33.2,22 C32.2,23.2 32.1,24.8 32.9,25.6 C33.7,26.4 35.2,26.1 36.2,25 Z" id="Path"></path>
                <path d="M35,14.3 C35.7,14.8 36.7,14.7 37.2,14 C37.2,14 37.2,13.9 37.3,13.9 C38,13.2 38.1,12.2 37.5,11.4 C36.8,10.9 35.8,11 35.3,11.7 C35.3,11.7 35.3,11.8 35.2,11.8 C34.5,12.5 34.4,13.6 35,14.3 Z" id="Path"></path>
                <path d="M30.1,18.2 C30.6,17.7 30.7,16.8 30.2,16.3 C29.6,15.9 28.9,16 28.5,16.6 C28.5,16.6 28.5,16.6 28.5,16.7 C27.9,17.2 27.9,18.1 28.4,18.7 C28.9,19 29.7,18.8 30.1,18.2 C30.1,18.3 30.1,18.2 30.1,18.2 Z" id="Path"></path>
                <path d="M22.2,38.8 L22.2,7.2 L4.5,0.2 L4.4,0.1 L4.4,33.4 L22.2,38.8 L22.2,38.8 Z M12.6,23.1 L12.5,31.1 L11.3,30.7 L11.4,24.6 L11.4,24.6 L10.5,25.3 L10.5,25.3 L10.5,23.9 L11.6,22.9 L12.6,23.1 Z M16.2,24.4 L16.2,25.6 L14.6,31.8 L13.4,31.4 L15,25.1 L13.2,24.4 L13.2,23.3 L16.2,24.4 Z M11.9,8.7 L13,7.7 L14,8 L13.9,16 L12.7,15.6 L12.8,9.5 L12.8,9.5 L12,10.2 L12,10.2 L11.9,8.7 Z M19.7,20.9 L19.8,22 L7.3,18.1 L7.2,17 L19.7,20.9 Z" id="Shape"></path>
            </g>
        </g>
    </g>
</svg>