<?xml version="1.0" encoding="UTF-8"?>
<svg width="95px" height="95px" viewBox="0 0 95 95" version="1.1" xmlns="http://www.w3.org/2000/svg" xmlns:xlink="http://www.w3.org/1999/xlink">
    <!-- Generator: Sketch 53.2 (72643) - https://sketchapp.com -->
    <title>goal_2_target_2_b</title>
    <desc>Created with Sketch.</desc>
    <g id="goal_2_target_2_b" stroke="none" stroke-width="1" fill="none" fill-rule="evenodd">
        <g id="Group-15" fill-rule="nonzero">
            <rect id="Rectangle" fill="#DDA63A" x="9.23705556e-14" y="-2.13162821e-14" width="94.8" height="94.8"></rect>
            <g id="Group" transform="translate(26.700000, 9.000000)" fill="#FFFFFF">
                <g>
                    <path d="M6.4,15.3 C6.4,15.3 8.6,14.1 8.6,12.7 C8.6,10.9 6.4,8.7 6.4,8.7 C6.4,8.7 4.2,11 4.2,12.7 C4.3,14.1 5.9,15 6.4,15.3 Z" id="Path"></path>
                    <path d="M2.9,17.9 C2.9,17.9 3.4,18.6 6,19 C6,19 6.3,16.5 5.3,15.5 C5.3,15.5 4.8,14.8 1.6,12.9 C1.6,12.9 1.2,16.7 2.9,17.9 Z" id="Path"></path>
                    <path d="M2.6,23 C2.6,23 3.2,23.8 6,24.2 C6,24.2 6.3,21.5 5.3,20.4 C5.3,20.4 4.8,19.6 1.3,17.6 C1.3,17.6 0.9,21.8 2.6,23 Z" id="Path"></path>
                    <path d="M1.3,23 C1.3,23 0.7,27.5 2.5,28.8 C2.5,28.8 3.2,29.6 6,30.1 C6,30.1 6.4,27.3 5.4,26.2 C5.4,26.2 4.8,25.1 1.3,23 Z" id="Path"></path>
                    <path d="M5.2,31.6 C5.2,31.6 4.3,30.4 0.7,28.5 C0.7,28.5 0.4,33.2 2.2,34.4 C2.2,34.4 3.1,35.3 5.9,35.7 C5.9,35.7 6.3,32.7 5.2,31.6 Z" id="Path"></path>
                    <path d="M7.5,15.5 C6.5,16.5 6.8,19 6.8,19 C9.4,18.6 9.9,17.9 9.9,17.9 C11.6,16.7 11.2,12.9 11.2,12.9 C8,14.8 7.5,15.5 7.5,15.5 Z" id="Path"></path>
                    <path d="M7.6,20.4 C6.6,21.5 6.9,24.2 6.9,24.2 C9.7,23.8 10.3,23 10.3,23 C12.1,21.8 11.7,17.6 11.7,17.6 C8.1,19.6 7.6,20.4 7.6,20.4 Z" id="Path"></path>
                    <path d="M7.5,26.2 C6.5,27.3 6.9,30.1 6.9,30.1 C9.7,29.7 10.4,28.8 10.4,28.8 C12.2,27.6 11.6,23 11.6,23 C8,25.1 7.5,26.2 7.5,26.2 Z" id="Path"></path>
                    <path d="M7.6,31.6 C6.6,32.7 6.9,35.7 6.9,35.7 C9.7,35.3 10.6,34.4 10.6,34.4 C12.4,33.2 12.1,28.5 12.1,28.5 C8.5,30.4 7.6,31.6 7.6,31.6 Z" id="Path"></path>
                    <rect id="Rectangle" x="5.8" y="36.5" width="1.2" height="7.4"></rect>
                    <path d="M2.5,4.6 C2.5,4.4 2.4,4.2 2.2,4.1 C2,4 1.8,4.2 1.7,4.4 C1.7,4.4 1.7,4.5 1.7,4.5 L1.7,12.1 L2.5,12.6 L2.5,4.6 Z" id="Path"></path>
                    <path d="M4.2,10.3 L4.2,3.2 C4.2,3 4,2.8 3.8,2.8 C3.8,2.8 3.8,2.8 3.8,2.8 C3.6,2.8 3.4,3 3.4,3.2 L3.4,12.3 C3.6,11.6 3.8,10.9 4.2,10.3 Z" id="Path"></path>
                    <path d="M5.9,1.2 C5.9,1 5.7,0.8 5.5,0.8 C5.3,0.8 5.1,1 5.1,1.2 C5.1,1.2 5.1,1.2 5.1,1.2 L5.1,9 L5.9,7.9 L5.9,1.2 Z" id="Path"></path>
                    <path d="M11.2,4.6 C11.2,4.4 11,4.2 10.8,4.2 C10.6,4.2 10.4,4.4 10.4,4.6 L10.4,12.6 L11.2,12.1 L11.2,4.6 Z" id="Path"></path>
                    <path d="M9.5,12.3 L9.5,3.3 C9.5,3.1 9.3,2.9 9,3 C8.8,3 8.7,3.2 8.7,3.3 L8.7,10.3 C9,11 9.3,11.7 9.5,12.3 L9.5,12.3 Z" id="Path"></path>
                    <path d="M7.8,1.2 C7.8,1 7.6,0.8 7.4,0.8 C7.2,0.8 7,1 7,1.2 C7,1.2 7,1.2 7,1.2 L7,7.9 L7.8,9 L7.8,1.2 Z" id="Path"></path>
                    <path d="M21,15.3 C21,15.3 23.2,14.1 23.2,12.7 C23.2,10.9 21,8.7 21,8.7 C21,8.7 18.8,11 18.8,12.7 C18.8,14.1 20.5,15 21,15.3 Z" id="Path"></path>
                    <path d="M17.4,17.9 C17.4,17.9 17.9,18.6 20.5,19 C20.5,19 20.8,16.5 19.8,15.5 C19.8,15.5 19.3,14.7 16.1,12.9 C16.1,12.9 15.8,16.7 17.4,17.9 Z" id="Path"></path>
                    <path d="M17.2,23 C17.2,23 17.8,23.8 20.6,24.2 C20.6,24.2 20.9,21.5 19.9,20.4 C19.9,20.4 19.4,19.6 15.9,17.6 C15.8,17.6 15.4,21.8 17.2,23 Z" id="Path"></path>
                    <path d="M15.9,23 C15.9,23 15.3,27.5 17.1,28.8 C17.1,28.8 17.8,29.6 20.6,30.1 C20.6,30.1 21,27.3 20,26.2 C19.9,26.2 19.4,25.1 15.9,23 Z" id="Path"></path>
                    <path d="M19.8,31.6 C19.8,31.6 18.9,30.4 15.3,28.5 C15.3,28.5 15,33.2 16.8,34.4 C16.8,34.4 17.7,35.3 20.5,35.7 C20.5,35.7 20.8,32.7 19.8,31.6 Z" id="Path"></path>
                    <path d="M22.1,15.5 C21.1,16.5 21.4,19 21.4,19 C24,18.6 24.5,17.9 24.5,17.9 C26.2,16.7 25.8,12.9 25.8,12.9 C22.5,14.7 22.1,15.5 22.1,15.5 Z" id="Path"></path>
                    <path d="M22.1,20.4 C21.1,21.5 21.4,24.2 21.4,24.2 C24.2,23.7 24.8,23 24.8,23 C26.6,21.7 26.2,17.6 26.2,17.6 C22.6,19.6 22.1,20.4 22.1,20.4 Z" id="Path"></path>
                    <path d="M24.9,28.8 C26.7,27.6 26.1,23 26.1,23 C22.6,25 22,26.2 22,26.2 C21,27.3 21.4,30.1 21.4,30.1 C24.2,29.6 24.9,28.8 24.9,28.8 Z" id="Path"></path>
                    <path d="M22.1,31.6 C21.1,32.7 21.4,35.7 21.4,35.7 C24.2,35.3 25.1,34.4 25.1,34.4 C26.9,33.1 26.6,28.5 26.6,28.5 C23,30.4 22.1,31.6 22.1,31.6 Z" id="Path"></path>
                    <rect id="Rectangle" x="20.3" y="36.5" width="1.2" height="7.4"></rect>
                    <path d="M17,4.6 C17,4.4 16.8,4.2 16.6,4.2 C16.4,4.2 16.2,4.4 16.2,4.6 C16.2,4.6 16.2,4.6 16.2,4.6 L16.2,12.2 L17,12.7 L17,4.6 Z" id="Path"></path>
                    <path d="M18.7,10.3 L18.7,3.2 C18.7,3 18.5,2.8 18.3,2.8 C18.1,2.8 17.9,3 17.9,3.2 L17.9,12.3 C18.1,11.6 18.4,10.9 18.7,10.3 Z" id="Path"></path>
                    <path d="M20.4,1.2 C20.4,1 20.2,0.8 20,0.8 C19.8,0.8 19.6,1 19.6,1.2 L19.6,9 L20.4,7.9 L20.4,1.2 Z" id="Path"></path>
                    <path d="M25.7,4.6 C25.7,4.4 25.5,4.2 25.3,4.2 C25.1,4.2 24.9,4.4 24.9,4.6 L24.9,12.6 L25.7,12.1 L25.7,4.6 Z" id="Path"></path>
                    <path d="M24,12.3 L24,3.3 C24,3.1 23.9,2.9 23.7,2.8 C23.5,2.8 23.3,2.9 23.2,3.1 C23.2,3.1 23.2,3.2 23.2,3.2 L23.2,10.2 C23.5,11 23.8,11.7 24,12.3 L24,12.3 Z" id="Path"></path>
                    <path d="M22.3,1.2 C22.3,1 22.1,0.8 21.9,0.8 C21.7,0.8 21.5,1 21.5,1.2 L21.5,7.9 L22.3,9 L22.3,1.2 Z" id="Path"></path>
                    <path d="M35.1,15.4 C35.1,15.4 37.3,14.2 37.3,12.8 C37.3,11 35.1,8.8 35.1,8.8 C35.1,8.8 32.9,11.1 32.9,12.8 C32.9,14.3 34.6,15.1 35.1,15.4 Z" id="Path"></path>
                    <path d="M31.5,18 C31.5,18 32,18.7 34.6,19.1 C34.6,19.1 34.9,16.6 33.9,15.6 C33.9,15.6 33.4,14.8 30.2,13 C30.2,13 29.9,16.8 31.5,18 Z" id="Path"></path>
                    <path d="M31.3,23.1 C31.3,23.1 31.9,23.9 34.7,24.3 C34.7,24.3 35,21.6 34,20.5 C34,20.5 33.5,19.7 30,17.7 C29.9,17.7 29.5,21.9 31.3,23.1 Z" id="Path"></path>
                    <path d="M30,23.1 C30,23.1 29.4,27.6 31.2,28.9 C31.2,28.9 31.9,29.7 34.7,30.2 C34.7,30.2 35.1,27.4 34.1,26.3 C34,26.3 33.5,25.2 30,23.1 Z" id="Path"></path>
                    <path d="M30.9,34.5 C30.9,34.5 31.8,35.4 34.6,35.8 C34.6,35.8 34.9,32.8 33.9,31.7 C33.9,31.7 33,30.5 29.4,28.6 C29.4,28.6 29.1,33.3 30.9,34.5 Z" id="Path"></path>
                    <path d="M36.2,15.6 C35.2,16.6 35.5,19.1 35.5,19.1 C38.1,18.7 38.6,18 38.6,18 C40.3,16.8 39.9,13 39.9,13 C36.6,14.9 36.2,15.6 36.2,15.6 Z" id="Path"></path>
                    <path d="M36.2,20.6 C35.2,21.7 35.5,24.4 35.5,24.4 C38.3,23.9 38.9,23.2 38.9,23.2 C40.7,21.9 40.3,17.8 40.3,17.8 C36.7,19.7 36.2,20.6 36.2,20.6 Z" id="Path"></path>
                    <path d="M39,28.9 C40.8,27.6 40.2,23.1 40.2,23.1 C36.7,25.1 36.1,26.3 36.1,26.3 C35.1,27.4 35.5,30.2 35.5,30.2 C38.3,29.7 39,28.9 39,28.9 Z" id="Path"></path>
                    <path d="M36.2,31.7 C35.2,32.8 35.5,35.8 35.5,35.8 C38.3,35.4 39.2,34.5 39.2,34.5 C41,33.2 40.7,28.6 40.7,28.6 C37.1,30.5 36.2,31.7 36.2,31.7 Z" id="Path"></path>
                    <rect id="Rectangle" x="34.4" y="36.6" width="1.2" height="7.4"></rect>
                    <path d="M31.1,4.7 C31.1,4.5 30.9,4.3 30.7,4.3 C30.5,4.3 30.3,4.5 30.3,4.7 L30.3,12.3 L31.1,12.8 L31.1,4.7 Z" id="Path"></path>
                    <path d="M32.8,10.4 L32.8,3.4 C32.8,3.2 32.6,3 32.4,3 C32.4,3 32.4,3 32.4,3 C32.2,3 32,3.2 32,3.4 L32,12.4 L32,12.4 C32.2,11.7 32.5,11.1 32.8,10.4 Z" id="Path"></path>
                    <path d="M34.5,1.3 C34.5,1.1 34.3,0.9 34.1,0.9 C33.9,0.9 33.7,1.1 33.7,1.3 L33.7,9.1 L34.5,8 L34.5,1.3 Z" id="Path"></path>
                    <path d="M39.8,4.7 C39.8,4.5 39.6,4.3 39.4,4.3 L39.4,4.3 C39.2,4.3 39,4.5 39,4.7 L39,4.7 L39,12.7 L39.8,12.2 L39.8,4.7 Z" id="Path"></path>
                    <path d="M38.1,12.4 L38.1,3.4 C38.1,3.2 38,3 37.8,2.9 C37.6,2.9 37.4,3 37.3,3.2 C37.3,3.2 37.3,3.3 37.3,3.3 L37.3,10.3 C37.7,11.1 37.9,11.7 38.1,12.4 Z" id="Path"></path>
                    <path d="M36.4,1.3 C36.4,1.1 36.2,0.9 36,0.9 C35.8,0.9 35.6,1.1 35.6,1.3 L35.6,8 L36.4,9.1 L36.4,1.3 L36.4,1.3 Z" id="Path"></path>
                </g>
                <path d="M40.6,57.1 L33.4,62.8 C33.3,62.9 33.2,62.9 33.1,62.9 C32.9,62.9 32.9,62.7 32.9,62.5 L32.9,59.6 L3.1,59.6 C3,59.6 2.9,59.5 2.9,59.3 L2.9,54.3 C2.9,54.1 3,54 3.1,54 L32.8,54 L32.8,51.2 C32.8,51 32.9,50.9 33,50.8 C33.1,50.8 33.2,50.8 33.3,50.9 L40.5,56.4 C40.7,56.5 40.7,56.8 40.6,57 C40.7,57 40.6,57.1 40.6,57.1 L40.6,57.1 Z" id="Path"></path>
                <path d="M1,71.3 L8.2,77 C8.3,77.1 8.4,77.1 8.5,77.1 C8.7,77.1 8.7,77 8.7,76.8 L8.7,73.9 L38.5,73.9 C38.6,73.9 38.8,73.8 38.7,73.6 C38.7,73.6 38.7,73.6 38.7,73.6 L38.7,68.6 C38.7,68.4 38.6,68.3 38.5,68.3 L8.8,68.3 L8.8,65.5 C8.8,65.3 8.8,65.2 8.6,65.2 C8.5,65.2 8.4,65.2 8.3,65.3 L1.1,70.8 C1,70.9 0.9,71 0.9,71.2 C0.9,71.1 0.9,71.2 1,71.3 Z" id="Path"></path>
            </g>
        </g>
    </g>
</svg>