<?xml version="1.0" encoding="UTF-8"?>
<svg width="95px" height="95px" viewBox="0 0 95 95" version="1.1" xmlns="http://www.w3.org/2000/svg" xmlns:xlink="http://www.w3.org/1999/xlink">
    <!-- Generator: Sketch 53.2 (72643) - https://sketchapp.com -->
    <title>goal_8_target_8_b</title>
    <desc>Created with Sketch.</desc>
    <g id="goal_8_target_8_b" stroke="none" stroke-width="1" fill="none" fill-rule="evenodd">
        <g id="Group-64" fill-rule="nonzero">
            <rect id="Rectangle" fill="#A21942" x="-3.62376795e-13" y="-2.13162821e-14" width="94.8" height="94.8"></rect>
            <g id="Group" transform="translate(9.700000, 31.000000)" fill="#FFFFFF">
                <polygon id="Path" points="2.2 3.9 0.7 3.9 0.7 34.2 22.4 34.2 22.4 32.4 2.2 32.4"></polygon>
                <path d="M3.9,30.5 L25.6,30.5 L25.6,0.3 L3.9,0.3 L3.9,30.5 Z M6.6,13.7 C6.6,13.7 6.7,13.6 6.8,13.6 L22.8,13.6 C22.9,13.6 23,13.7 23,13.7 L23,16.3 C23,16.4 22.9,16.4 22.8,16.4 L6.8,16.4 C6.7,16.4 6.6,16.4 6.6,16.3 L6.6,13.7 Z M6.6,18.2 C6.6,18.1 6.7,18.1 6.8,18.1 L22.8,18.1 C22.9,18.1 23,18.1 23,18.2 L23,20.8 C23,20.8 22.9,20.9 22.8,20.9 L6.8,20.9 C6.7,20.9 6.6,20.9 6.6,20.8 L6.6,18.2 Z M6.6,22.7 C6.6,22.6 6.7,22.6 6.8,22.6 L22.8,22.6 C22.9,22.6 23,22.6 23,22.7 L23,25.3 C23,25.4 22.9,25.4 22.8,25.4 L6.8,25.4 C6.7,25.4 6.6,25.4 6.6,25.3 L6.6,22.7 Z" id="Shape"></path>
            </g>
            <g id="Group" transform="translate(44.700000, 23.000000)" fill="#FFFFFF">
                <g transform="translate(20.000000, 1.000000)" id="Path">
                    <path d="M14.1,5 C14.1,3 12.5,1.4 10.5,1.4 C8.5,1.4 6.9,3 6.9,5 C6.9,7 8.5,8.6 10.5,8.6 L10.5,8.6 C12.5,8.6 14.1,7 14.1,5 Z"></path>
                    <path d="M3.3,23.8 L5.1,17.6 L2.4,16.1 L0.3,22.9 C0.3,22.9 -0.2,24.7 1.3,25.1 C2.8,25.5 3.3,23.8 3.3,23.8 Z"></path>
                    <path d="M14.8,15.2 C15.3,15.1 15.4,15.7 15.4,15.7 L15.7,16.9 L18.4,15.4 L17.7,13.1 C17.7,13.1 16.6,10.3 14.3,10.3 L6.7,10.3 C4.3,10.3 3.3,13.1 3.3,13.1 L2.6,15.2 L5.3,16.7 L5.6,15.7 C5.6,15.7 5.7,15.1 6.2,15.2 C6.7,15.3 6.5,16 6.5,16 L2.3,31.1 L6.2,31.1 L6.2,42 C6.2,43 7,43.9 8.1,43.9 C9.1,43.9 10,43.1 10,42 L10,31.2 L11.1,31.2 L11.1,42 C11.1,43 11.9,43.9 13,43.9 C14,43.9 14.9,43.1 14.9,42 L14.9,31.2 L18.8,31.2 L14.5,16 C14.5,16 14.3,15.3 14.8,15.2 Z"></path>
                    <path d="M20.8,22.8 L18.8,16.2 L16,17.7 L17.8,23.8 C17.8,23.8 18.3,25.5 19.8,25.1 C21.3,24.7 20.8,22.8 20.8,22.8 Z"></path>
                    <path d="M6.6,3.8 L6.2,3.8 C6.9,1.4 9.4,-0.1 11.8,0.6 C13.4,1 14.6,2.2 15,3.8 L14.5,3.8 L14.5,6.2 L15.2,6.2 C15,7 14.6,7.8 14,8.3 C13.9,8.1 13.6,8.1 13.4,8.1 L12,8.7 C11.8,8.8 11.6,9.1 11.7,9.3 C11.7,9.3 11.7,9.3 11.7,9.3 L11.8,9.6 C11.9,9.8 12.2,10 12.4,9.9 C12.4,9.9 12.4,9.9 12.4,9.9 L13.7,9.4 C13.9,9.3 14.1,9 14,8.8 C14,8.8 14,8.8 14,8.8 L14,8.5 C14.7,7.9 15.1,7.1 15.4,6.2 L16.1,6.2 L16.1,3.8 L15.4,3.8 C14.7,1.1 11.9,-0.5 9.3,0.3 C7.6,0.8 6.2,2.1 5.8,3.8 L5,3.8 L5,6.2 L6.6,6.2 L6.6,3.8 Z"></path>
                </g>
                <g id="Path">
                    <path d="M4.5,42.9 C4.5,44 5.4,44.9 6.5,44.9 C7.6,44.9 8.5,44 8.5,42.9 L8.5,41.4 L4.4,41.4 L4.4,42.9 L4.5,42.9 Z"></path>
                    <path d="M9.7,42.9 C9.7,44 10.6,44.9 11.7,44.9 C12.8,44.9 13.7,44 13.7,42.9 L13.7,41.4 L9.6,41.4 L9.6,42.9 L9.7,42.9 Z"></path>
                    <path d="M5.5,14.8 L5.5,10.7 L5.2,10.7 L4.9,10.7 C2.4,10.9 0.5,13 0.5,15.5 L0.5,25.6 C0.5,26.4 1.1,27 1.9,27 C2.7,27 3.3,26.4 3.3,25.6 L3.3,16.9 C3.3,16.6 3.4,16.1 4,16.1 L5.5,16.1 L5.5,14.8 L5.5,14.8 Z"></path>
                    <polygon points="7 13.9 11.4 13.9 11.4 10.7 9.1 10.7 7 10.7"></polygon>
                    <path d="M12.4,17.1 L12,17.1 L12,14.8 L6.4,14.8 L6.4,17.1 L4.5,17.1 L4.5,40.4 L8.6,40.4 L8.6,27.7 C8.6,27.4 8.8,27.1 9.1,27.1 C9.1,27.1 9.1,27.1 9.2,27.1 L9.2,27.1 C9.5,27.1 9.8,27.3 9.8,27.6 C9.8,27.6 9.8,27.7 9.8,27.7 L9.8,40.4 L13.9,40.4 L13.9,17.1 L12.4,17.1 Z"></path>
                    <path d="M13.4,10.7 L13.1,10.7 L12.9,10.7 L12.9,16.2 L14.3,16.2 C14.9,16.2 15,16.6 15,17 L15,25.7 C15.1,26.5 15.8,27.1 16.5,27 C17.2,26.9 17.7,26.4 17.8,25.7 L17.8,15.5 C17.8,13 15.9,10.9 13.4,10.7 Z"></path>
                    <path d="M11.7,14.1 C11.7,14.3 11.9,14.5 12.1,14.5 C12.3,14.5 12.5,14.3 12.5,14.1 C12.5,13.9 12.3,13.7 12.1,13.7 C12.1,13.7 12.1,13.7 12.1,13.7 C11.9,13.7 11.7,13.9 11.7,14.1 Z"></path>
                    <path d="M5.9,14.1 C5.9,14.3 6.1,14.5 6.3,14.5 C6.3,14.5 6.3,14.5 6.3,14.5 C6.5,14.5 6.7,14.2 6.7,14 C6.7,13.8 6.5,13.7 6.3,13.6 C6.1,13.7 5.9,13.9 5.9,14.1 Z"></path>
                    <path d="M11.5,4.9 C11.2,4.6 10.9,4.4 10.4,4.6 C10.1,4.8 9.9,4.9 9.5,5.1 C8.7,5.4 7.9,5.7 7.1,5.8 C6.5,5.9 5.8,6 5.2,5.9 C5.4,8 7.2,9.5 9.3,9.3 C11.1,9.1 12.5,7.7 12.7,6 C12.4,5.6 12,5.2 11.5,4.9 Z"></path>
                    <path d="M5.2,5.1 C5.8,5.1 6.4,5.1 7,5 C7.7,4.9 8.5,4.6 9.1,4.3 C9.5,4.1 9.9,4 10.3,3.8 C10.5,3.7 10.8,3.6 11.1,3.7 C11.2,3.8 11.3,3.8 11.4,3.9 C11.6,4 11.6,4.1 11.7,4.2 C11.8,4.3 11.8,4.3 12.7,5 C12.8,5.1 12.9,5.2 13,5.1 C13.1,5 13.1,4.4 13.1,4.1 C13,3.1 12.6,2.2 12,1.5 C11.8,1.2 11.5,1.1 11.2,1.1 C10.7,1.2 10.7,0.8 10.4,0.6 C9.3,0.2 8,0.4 7.1,1.1 C6,2 5.2,3.2 4.6,4.5 C4.4,4.9 4.8,5.1 5.2,5.1 Z"></path>
                </g>
            </g>
        </g>
    </g>
</svg>