<?xml version="1.0" encoding="UTF-8"?>
<svg width="95px" height="95px" viewBox="0 0 95 95" version="1.1" xmlns="http://www.w3.org/2000/svg" xmlns:xlink="http://www.w3.org/1999/xlink">
    <!-- Generator: Sketch 53.2 (72643) - https://sketchapp.com -->
    <title>goal_1_target_1_2</title>
    <desc>Created with Sketch.</desc>
    <g id="goal_1_target_1_2" stroke="none" stroke-width="1" fill="none" fill-rule="evenodd">
        <g id="Group-3" fill-rule="nonzero">
            <rect id="Rectangle" fill="#E5243B" x="-2.13162821e-14" y="-2.13162821e-14" width="94.8" height="94.8"></rect>
            <g id="Group" transform="translate(6.700000, 14.000000)" fill="#FFFFFF">
                <g transform="translate(50.000000, 0.000000)">
                    <path d="M13,18.3 C12.6,18.6 12.1,18.8 11.6,18.9 C10.2,19.3 8.8,19.5 7.3,19.4 C6.6,19.4 5.9,19.3 5.2,19.2 C4.8,19.1 4.4,19.1 3.9,19 L3.3,18.8 C2.7,18.6 2.1,18.3 1.6,18 C1.4,17.9 1.3,17.7 1.1,17.5 L1.1,18.1 C1.1,18.3 1.1,18.9 1.1,18.9 C1.1,19.3 1.3,19.6 1.6,19.8 C2.6,20.5 3.7,20.9 4.9,21 C5.7,21.1 6.5,21.2 7.3,21.2 C8.5,21.2 9.6,21.1 10.8,20.8 L10.8,20.8 C11.4,20.7 12,20.4 12.6,20.1 L12.6,20.1 C13.2,19.8 13.5,19.3 13.5,18.9 C13.5,18.9 13.6,17.6 13.5,17.5 C13.5,17.8 13.3,18.1 13,18.3 Z" id="Path"></path>
                    <path d="M6.9,14 C10.3,14 13.1,13 13.1,11.7 C13.1,11.7 13.2,10.5 13.2,10.3 C13.2,10.1 13.2,10 13.1,9.8 C13.5,9.6 13.7,9.2 13.8,8.8 C13.8,8.8 13.9,7.5 13.8,7.2 C13.6,5.6 10.5,4.8 7.5,4.8 C4.5,4.8 1.2,5.7 1.2,7.3 C1.2,7.4 1.3,8.7 1.3,8.7 C1.3,8.8 1.3,8.9 1.4,9 C0.9,9.3 0.7,9.7 0.6,10.3 C0.6,10.4 0.7,11.7 0.7,11.7 C0.7,12.1 0.9,12.4 1.2,12.6 C2.2,13.3 3.3,13.7 4.5,13.8 C5.3,14 6.1,14.1 6.9,14 Z M7.5,5.4 C10.8,5.4 13.1,6.4 13.1,7.3 C13.1,8.2 10.8,9.2 7.5,9.2 C4.2,9.2 1.9,8.2 1.9,7.3 C1.9,6.4 4.2,5.4 7.5,5.4 Z M1.3,10.3 C1.3,10 1.5,9.7 1.8,9.6 C2,9.8 2.2,9.9 2.4,10.1 C4,10.8 5.8,11.2 7.6,11.1 C9.1,11.1 10.6,10.9 12.1,10.4 C12.3,10.3 12.5,10.2 12.6,10.2 C12.6,10.2 12.6,10.3 12.6,10.4 C12.6,11.3 10.3,12.3 7,12.3 C3.7,12.3 1.3,11.2 1.3,10.3 Z" id="Shape"></path>
                    <path d="M5,18.8 C5.8,18.9 6.6,19 7.4,19 C8.6,19 9.8,18.9 11,18.6 L11,18.6 C11.6,18.5 12.2,18.2 12.8,17.9 L12.8,17.9 C12.9,17.8 13.1,17.7 13.2,17.6 C13.4,17.4 13.6,17.2 13.7,17 C13.7,16.9 13.8,16.8 13.8,16.7 C13.8,16.7 13.8,15.4 13.8,15.3 C13.6,15.6 13,16.4 10.6,16.9 C9.5,17.1 8.5,17.2 7.4,17.2 C5.7,17.2 4,16.9 2.4,16.2 C2.1,16.1 1.9,15.9 1.6,15.7 C1.5,15.6 1.3,15.4 1.2,15.2 C1.2,15.2 1.2,15.8 1.2,15.8 L1.2,16.7 C1.2,17.1 1.4,17.4 1.7,17.6 C2.6,18.3 3.8,18.7 5,18.8 Z" id="Path"></path>
                    <path d="M13.6,12.5 L13.4,12.4 L13.1,12.3 C13,12.4 12.9,12.6 12.8,12.7 C12.9,12.7 13,12.8 13,12.8 C13.2,12.9 13.3,13.1 13.3,13.3 C13.3,13.5 13.2,13.6 13.1,13.7 C13,13.8 12.9,13.8 12.9,13.9 C12.8,14 12.7,14 12.5,14.1 C12.5,14.1 12.1,14.3 12,14.3 C11.9,14.3 11.6,14.4 11.4,14.5 L10.7,14.7 C10.6,14.7 10,14.8 9.7,14.9 L8.7,15 C8.6,15 7.7,15.1 7.3,15.1 C6.6,15.1 6,15.1 5.3,15 C4.8,14.9 4.3,14.8 3.9,14.7 C3.4,14.6 2.9,14.4 2.4,14.2 C2.1,14.1 1.9,13.9 1.6,13.7 C1.4,13.5 1.2,13.3 1.1,13 C1.1,13 1.1,13.8 1.1,13.8 L1.1,14.6 C1.1,15 1.3,15.3 1.6,15.5 C2.6,16.2 3.7,16.6 4.9,16.7 C5.7,16.8 6.5,16.9 7.3,16.9 C8.5,16.9 9.7,16.8 10.9,16.5 L10.9,16.5 C11.5,16.3 12.1,16.1 12.7,15.8 L12.7,15.8 C12.8,15.7 13,15.6 13.1,15.5 C13.3,15.3 13.5,15.1 13.6,14.9 C13.6,14.8 13.7,14.7 13.7,14.6 C13.7,14.6 13.7,13.3 13.7,13.3 C13.7,13.2 13.7,13.1 13.7,13 C13.7,12.7 13.7,12.6 13.6,12.5 Z" id="Path"></path>
                    <path d="M21.2,9.5 C24.6,9.5 27.4,8.5 27.4,7.2 C27.4,7.2 27.5,6 27.4,5.8 C27.4,5.6 27.4,5.5 27.3,5.3 C27.7,5.1 27.9,4.7 28,4.3 C28,4.3 28,3 28,2.7 C27.8,1.1 24.7,0.3 21.7,0.3 C18.7,0.3 15.4,1.2 15.4,2.8 C15.4,2.9 15.5,4.2 15.5,4.2 C15.5,4.3 15.5,4.4 15.6,4.5 C15.2,4.8 15,5.2 14.9,5.7 C14.9,5.8 15,7.1 15,7.1 C15,7.5 15.2,7.8 15.5,8 C16.5,8.7 17.6,9.1 18.8,9.2 C19.7,9.5 20.4,9.5 21.2,9.5 Z M21.9,0.9 C25.2,0.9 27.5,1.9 27.5,2.8 C27.5,3.7 25.2,4.7 21.9,4.7 C18.6,4.7 16.3,3.7 16.3,2.8 C16.3,1.9 18.6,0.9 21.9,0.9 Z M15.6,5.8 C15.6,5.5 15.8,5.2 16.1,5.1 C16.3,5.3 16.5,5.4 16.7,5.6 C18.3,6.3 20.1,6.7 21.9,6.6 C23.4,6.6 24.9,6.4 26.3,5.9 C26.5,5.8 26.7,5.7 26.8,5.7 C26.8,5.7 26.8,5.8 26.8,5.9 C26.8,6.8 24.5,7.8 21.2,7.8 C17.9,7.8 15.6,6.7 15.6,5.8 Z" id="Shape"></path>
                    <path d="M28.1,8.3 C28.1,8.2 28,8.1 28,8 C28,7.9 27.9,7.9 27.8,7.9 L27.6,7.8 C27.5,7.9 27.4,8.1 27.3,8.2 C27.4,8.2 27.5,8.3 27.5,8.3 C27.7,8.4 27.8,8.6 27.8,8.8 C27.8,9 27.7,9.1 27.6,9.2 C27.5,9.3 27.4,9.3 27.4,9.4 L27,9.5 C27,9.5 26.6,9.7 26.4,9.7 C26.2,9.7 26,9.8 25.8,9.9 L25,10.1 C25,10.1 24.3,10.2 24.1,10.3 L23.1,10.4 C23,10.4 22.1,10.5 21.7,10.5 C21,10.5 20.4,10.5 19.7,10.4 C19.2,10.3 18.7,10.2 18.3,10.1 C17.8,10 17.3,9.8 16.8,9.6 C16.5,9.5 16.3,9.3 16,9.1 C15.8,8.9 15.6,8.7 15.5,8.4 C15.5,8.4 15.5,9.2 15.5,9.2 L15.5,10 C15.5,10.4 15.7,10.7 16,10.9 C17,11.6 18.1,12 19.3,12.1 C20.1,12.2 20.9,12.3 21.7,12.3 C22.9,12.3 24,12.2 25.2,11.9 L25.2,11.9 C25.8,11.8 26.4,11.5 27,11.2 L27,11.2 C27.1,11.1 27.3,11 27.4,10.9 C27.6,10.7 27.8,10.5 27.9,10.3 C27.9,10.2 28,10.1 28,10 C28,10 28.1,8.7 28.1,8.7 C28.1,8.5 28.1,8.4 28.1,8.3 Z" id="Path"></path>
                    <path d="M27.4,13.8 C27,14 26.5,14.2 26,14.4 C24.6,14.8 23.2,15 21.8,14.9 C21.1,14.9 20.4,14.8 19.7,14.7 C19.3,14.6 18.8,14.6 18.4,14.5 C18.2,14.5 18,14.4 17.8,14.3 C17.2,14.1 16.6,13.9 16.1,13.5 C15.9,13.4 15.8,13.2 15.6,13 L15.6,13.6 C15.6,13.8 15.6,14.4 15.6,14.4 C15.6,14.8 15.8,15.1 16.1,15.3 C17.1,16 18.2,16.4 19.4,16.5 C20.2,16.6 21,16.7 21.8,16.7 C23,16.7 24.1,16.6 25.3,16.3 L25.3,16.3 C25.9,16.2 26.5,15.9 27.1,15.6 L27.1,15.6 C27.7,15.3 28,14.8 28,14.4 C28,14.4 28,13.1 28,13 C27.9,13.3 27.6,13.6 27.4,13.8 Z" id="Path"></path>
                    <path d="M16.1,13.1 C17.1,13.8 18.2,14.2 19.4,14.3 C20.2,14.4 21,14.5 21.8,14.5 C23,14.5 24.1,14.4 25.3,14.1 L25.3,14.1 C25.9,14 26.5,13.7 27.1,13.4 L27.1,13.4 C27.2,13.3 27.4,13.2 27.5,13.1 C27.7,12.9 27.9,12.7 28,12.5 C28,12.4 28.1,12.3 28.1,12.2 C28.1,12.2 28.1,10.9 28.1,10.8 C27.9,11.1 27.4,11.9 24.9,12.4 C23.8,12.6 22.8,12.7 21.7,12.7 C20,12.7 18.3,12.4 16.7,11.7 C16.4,11.6 16.2,11.4 15.9,11.2 C15.8,11.1 15.6,10.9 15.5,10.7 C15.5,10.7 15.5,11.3 15.5,11.3 L15.5,12.2 C15.5,12.6 15.8,12.9 16.1,13.1 Z" id="Path"></path>
                    <path d="M28.2,17.5 C28,17.8 27.7,18 27.4,18.2 C27,18.5 26.5,18.7 26,18.8 C24.6,19.2 23.2,19.4 21.7,19.3 C21,19.3 20.3,19.2 19.6,19.1 C19.2,19.1 18.7,19 18.3,18.9 L17.7,18.7 C17.1,18.5 16.5,18.3 16,17.9 C15.8,17.8 15.7,17.6 15.5,17.4 L15.5,18 C15.5,18.2 15.5,18.8 15.5,18.8 C15.5,19.2 15.7,19.5 16,19.7 C17,20.4 18.2,20.8 19.3,20.9 C20.1,21 20.9,21.1 21.7,21.1 C22.9,21.1 24,21 25.2,20.7 L25.2,20.7 C25.8,20.6 26.4,20.3 27,20 L27,20 C27.6,19.7 27.9,19.2 27.9,18.8 C28.1,18.9 28.2,17.6 28.2,17.5 Z" id="Path"></path>
                    <path d="M19.4,18.8 C20.2,18.9 21,19 21.8,19 C23,19 24.1,18.9 25.3,18.6 L25.3,18.6 C25.9,18.5 26.5,18.2 27.1,17.9 L27.1,17.9 L27.5,17.6 C27.7,17.4 27.9,17.2 28,17 C28,16.9 28.1,16.8 28.1,16.7 C28.1,16.7 28.1,15.4 28.1,15.3 C27.9,15.6 27.4,16.4 24.9,16.9 C23.9,17.1 22.8,17.2 21.7,17.2 C20,17.2 18.3,16.9 16.7,16.2 C16.4,16.1 16.2,15.9 15.9,15.7 C15.8,15.6 15.6,15.4 15.5,15.2 C15.5,15.2 15.5,15.8 15.5,15.8 L15.5,16.7 C15.5,17 15.7,17.4 16,17.6 C17,18.3 18.2,18.7 19.4,18.8 Z" id="Path"></path>
                </g>
                <g transform="translate(4.000000, 8.000000)">
                    <path d="M7,9.5 C10.4,9.5 13.2,8.5 13.2,7.2 C13.2,7.2 13.3,6 13.2,5.8 C13.2,5.6 13.2,5.5 13.1,5.3 C13.5,5.1 13.7,4.7 13.8,4.3 C13.8,4.3 13.9,3 13.8,2.7 C13.6,1.1 10.5,0.3 7.5,0.3 C4.5,0.3 1.2,1.2 1.2,2.8 C1.2,2.9 1.3,4.2 1.3,4.2 C1.3,4.3 1.3,4.4 1.4,4.5 C0.9,4.8 0.6,5.2 0.6,5.8 C0.6,5.9 0.7,7.2 0.7,7.2 C0.7,7.6 0.9,7.9 1.2,8.1 C2.2,8.8 3.3,9.2 4.5,9.3 C5.4,9.5 6.2,9.6 7,9.5 Z M7.6,0.9 C10.9,0.9 13.2,1.9 13.2,2.8 C13.2,3.7 10.9,4.7 7.6,4.7 C4.3,4.7 1.9,3.7 1.9,2.8 C1.9,1.9 4.3,0.9 7.6,0.9 L7.6,0.9 Z M1.4,5.8 C1.4,5.6 1.6,5.3 1.9,5.1 C2.1,5.3 2.3,5.4 2.5,5.6 C4.1,6.3 5.9,6.7 7.7,6.6 C9.2,6.6 10.7,6.4 12.1,5.9 C12.3,5.8 12.5,5.7 12.6,5.7 C12.6,5.7 12.6,5.8 12.6,5.9 C12.6,6.8 10.3,7.8 7,7.8 C3.7,7.8 1.4,6.7 1.4,5.8 L1.4,5.8 Z" id="Shape"></path>
                    <path d="M13.7,8 C13.7,7.9 13.6,7.9 13.5,7.9 L13.3,7.8 C13.2,7.9 13.1,8.1 13,8.2 C13.1,8.2 13.2,8.3 13.2,8.3 C13.4,8.4 13.5,8.6 13.5,8.8 C13.5,9 13.4,9.1 13.3,9.2 C13.2,9.3 13.1,9.3 13.1,9.4 L12.7,9.6 C12.7,9.6 12.3,9.8 12.2,9.8 C12.1,9.8 11.8,9.9 11.7,10 L10.9,10.2 C10.9,10.2 10.3,10.3 9.9,10.4 L8.9,10.5 C8.8,10.5 7.9,10.6 7.5,10.6 C6.8,10.6 6.2,10.6 5.5,10.5 C5,10.4 4.5,10.3 4.1,10.2 C3.6,10.1 3.1,9.9 2.6,9.7 C2.3,9.6 2.1,9.4 1.9,9.2 C1.7,9 1.5,8.8 1.4,8.5 C1.4,8.5 1.4,9.3 1.4,9.3 L1.4,10.1 C1.4,10.5 1.6,10.8 1.9,11 C2.9,11.7 4,12.1 5.2,12.2 C6,12.3 6.8,12.4 7.6,12.4 C8.8,12.4 9.9,12.3 11.1,12 L11.1,12 C11.8,11.9 12.4,11.6 13,11.3 L13,11.3 C13.1,11.2 13.3,11.1 13.4,11 C13.6,10.8 13.8,10.6 13.9,10.4 C13.9,10.3 14,10.2 14,10.1 C14,10.1 14.1,8.8 14.1,8.7 C14.1,8.6 14.1,8.5 14.1,8.4 C13.9,8.2 13.8,8.1 13.7,8 Z" id="Path"></path>
                </g>
                <g transform="translate(0.000000, 34.000000)" id="Path">
                    <path d="M73.8,6.7 C75.2,6.7 76.4,5.5 76.4,4.1 C76.4,2.7 75.2,1.5 73.8,1.5 C72.4,1.5 71.2,2.7 71.2,4.1 C71.2,4.1 71.2,4.1 71.2,4.1 C71.2,5.6 72.4,6.7 73.8,6.7 Z"></path>
                    <path d="M81.1,17 L79,10 C79,10 78.2,8 76.5,8 L71,8 C69.3,8 68.5,10 68.5,10 L66.4,17 C66.4,17 66,18.3 67.1,18.6 C68.2,18.9 68.5,17.7 68.5,17.7 L70.2,11.9 C70.2,11.9 70.3,11.5 70.6,11.6 C70.9,11.7 70.8,12.2 70.8,12.2 L67.8,23.1 L70.6,23.1 L70.6,30.9 C70.7,31.6 71.3,32.2 72.1,32.1 C72.8,32 73.3,31.5 73.3,30.9 L73.3,23.1 L74.1,23.1 L74.1,30.9 C74.1,31.6 74.7,32.2 75.4,32.2 C76.1,32.2 76.7,31.6 76.7,30.9 L76.7,23.1 L79.5,23.1 L76.5,12.2 C76.5,12.2 76.4,11.7 76.7,11.6 C77,11.5 77.1,11.9 77.1,11.9 L78.8,17.7 C78.8,17.7 79.1,18.9 80.2,18.6 C81.3,18.3 81.1,17 81.1,17 Z"></path>
                    <path d="M49,5.7 C50.5,5.7 51.7,4.5 51.7,3 C51.7,1.5 50.5,0.3 49,0.3 C47.5,0.3 46.3,1.5 46.3,3 L46.3,3 C46.3,4.5 47.5,5.7 49,5.7 Z"></path>
                    <path d="M52.2,6.8 L52,6.8 L46.1,6.8 L45.9,6.8 C44,7 42.6,8.5 42.6,10.4 L42.6,17.9 C42.6,18.2 42.8,18.5 43,18.7 L40.6,31.3 C40.5,31.5 40.7,31.7 40.9,31.8 C40.9,31.8 40.9,31.8 40.9,31.8 L41,31.8 C41.2,31.8 41.4,31.7 41.4,31.5 L43.8,18.9 C44.3,18.8 44.7,18.4 44.7,17.9 L44.7,11.5 C44.7,11.3 44.8,10.9 45.2,10.9 C45.6,10.9 45.6,11.2 45.6,11.4 L45.6,30.6 C45.6,31.4 46.3,32.1 47.1,32.1 C47.9,32.1 48.6,31.4 48.6,30.6 L48.6,19.5 C48.6,19.3 48.8,19.1 49,19.1 C49,19.1 49,19.1 49,19.1 L49,19.1 C49.2,19.1 49.4,19.3 49.4,19.5 C49.4,19.5 49.4,19.5 49.4,19.6 L49.4,30.7 C49.3,31.5 49.9,32.3 50.7,32.4 C51.5,32.5 52.3,31.9 52.4,31.1 C52.4,31 52.4,30.9 52.4,30.8 L52.4,11.4 C52.4,11.2 52.5,10.9 52.8,10.9 C53.1,10.9 53.3,11.2 53.3,11.5 L53.3,17.9 C53.3,18.5 53.8,18.9 54.3,18.9 C54.9,18.9 55.3,18.4 55.3,17.9 L55.3,10.4 C55.4,8.5 54,7 52.2,6.8 Z"></path>
                    <path d="M65.4,17.1 C65,16.9 64.5,17.1 64.3,17.5 C63.9,18.2 63.4,18.9 62.9,19.6 C62.7,19.8 62.5,19.9 62.2,19.9 L59.6,19.9 C59.3,19.9 59.1,19.8 58.9,19.6 C58.6,19.3 57.6,17.5 57.5,17.4 C57.4,17.2 57.1,17 56.8,17 C56.4,17 56,17.4 56,17.8 L56,17.8 C56,17.9 56,18 56.1,18.1 L58.3,22 C58.4,22.2 58.4,22.3 58.4,22.5 L58.4,23.1 L58.4,23.1 C58.4,23.3 58.4,23.5 58.3,23.8 L57.3,27.9 L58.5,27.9 L58.5,31 L58.5,31 C58.6,31.6 59.1,32 59.7,32 C60.2,32 60.6,31.5 60.7,31 L60.7,28.1 C60.7,28.1 60.7,28 60.7,28 L61.3,28 L61.3,31.1 C61.4,31.7 61.9,32.1 62.5,32.1 C63,32.1 63.4,31.6 63.5,31.1 L63.5,28.1 L64.7,28.1 L63.6,24 C63.5,23.8 63.5,23.6 63.5,23.5 L63.5,23.4 L63.5,23.4 L63.5,22.8 C63.5,22.6 63.6,22.4 63.6,22.3 L65.6,18.7 L65.8,18.3 C65.9,17.7 65.8,17.3 65.4,17.1 C65.4,17.1 65.4,17.1 65.4,17.1 Z"></path>
                    <path d="M60.9,18.5 C62.1,18.5 63.1,17.5 63.1,16.3 C63.1,15.1 62.1,14.1 60.9,14.1 C59.7,14.1 58.7,15.1 58.7,16.3 C58.7,17.5 59.7,18.5 60.9,18.5 L60.9,18.5 Z"></path>
                    <g>
                        <path d="M7.3,5.6 L10.9,2 C10.8,1.8 10.7,1.7 10.6,1.5 L6.8,5.3 C6.9,5.4 7.1,5.5 7.3,5.6 Z"></path>
                        <path d="M6.4,4.9 L10.2,1.1 C10,1 9.9,0.9 9.7,0.8 L6.1,4.4 C6.2,4.5 6.3,4.7 6.4,4.9 Z"></path>
                        <path d="M10.9,4.3 L9.7,5.6 C10.2,5.3 10.6,4.9 10.9,4.3 Z"></path>
                        <path d="M9.1,0.5 C8.9,0.5 8.7,0.4 8.5,0.4 L8.4,0.4 L5.8,3 C5.8,3 5.8,3.1 5.8,3.1 C5.8,3.3 5.8,3.5 5.9,3.7 L9.1,0.5 Z"></path>
                        <path d="M8.5,5.9 L8.6,5.9 L11.2,3.3 C11.2,3.3 11.2,3.2 11.2,3.2 C11.2,3 11.2,2.8 11.1,2.6 L7.9,5.8 C8,5.8 8.3,5.9 8.5,5.9 Z"></path>
                        <path d="M6.1,2 L7.3,0.8 C6.8,1 6.3,1.5 6.1,2 Z"></path>
                        <polygon points="0.7 28.1 1.7 27.1 1.9 26.1 0.9 27.1"></polygon>
                        <polygon points="0.3 30.1 1.4 29 1.5 28 0.5 29.1"></polygon>
                        <polygon points="5 28.5 8 25.5 8 24.7 5 27.7"></polygon>
                        <path d="M0.1,31.4 C0.1,31.5 0.1,31.7 0.2,31.8 C0.3,31.9 0.3,31.9 0.4,31.9 L0.5,31.9 C0.7,31.9 0.9,31.8 0.9,31.6 L1,31 L1.2,30 L0.2,31 L0.1,31.4 Z"></path>
                        <polygon points="1.1 26.1 2.1 25.1 2.3 24.1 1.3 25.1"></polygon>
                        <polygon points="1.4 24.2 2.5 23.1 2.6 22.2 1.6 23.2"></polygon>
                        <polygon points="8.9 24.7 11.9 21.7 11.9 20.9 8.9 23.9"></polygon>
                        <polygon points="12.8 17.6 14.9 15.5 14.9 14.7 12.8 16.8"></polygon>
                        <path d="M13.2,18.8 L14.9,17.1 L14.9,16.3 L12.9,18.3 C12.9,18.5 13.1,18.7 13.2,18.8 Z"></path>
                        <polygon points="12.8 16 14.9 13.9 14.9 13.1 12.8 15.2"></polygon>
                        <polygon points="8.9 26.3 11.9 23.3 11.9 22.5 8.9 25.5"></polygon>
                        <path d="M6.2,32.2 L8,30.3 L8,29.5 L5.6,31.9 C5.8,32.1 6,32.2 6.2,32.2 Z"></path>
                        <polygon points="5 30.1 8 27.1 8 26.3 5 29.3"></polygon>
                        <path d="M5.2,31.5 L8,28.7 L8,27.9 L5,30.9 C5,31.1 5.1,31.3 5.2,31.5 Z"></path>
                        <polygon points="8.9 29.5 11.9 26.5 11.9 25.7 8.9 28.7"></polygon>
                        <polygon points="8.9 27.9 11.9 24.9 11.9 24.1 8.9 27.1"></polygon>
                        <path d="M5,15.8 L13.3,7.5 C13.1,7.4 13,7.3 12.8,7.2 L5,15 L5,15.8 Z"></path>
                        <polygon points="8.9 21.5 11.9 18.5 11.9 17.7 8.9 20.7"></polygon>
                        <path d="M8.9,30.8 C8.9,30.9 8.9,31 8.9,31.1 L11.9,28.1 L11.9,27.3 L8.9,30.3 L8.9,30.8 Z"></path>
                        <path d="M10.4,32.3 C10.6,32.3 10.8,32.2 11,32.1 C11.3,32 11.5,31.7 11.7,31.4 C11.8,31.2 11.9,31 11.9,30.7 L11.9,30.4 L10.1,32.2 C10.2,32.3 10.3,32.3 10.4,32.3 Z"></path>
                        <polygon points="5 22.2 11.9 15.3 11.9 14.5 5 21.4"></polygon>
                        <polygon points="5 23.7 8 20.7 8 19.9 5 22.9"></polygon>
                        <path d="M8.9,19.7 L8.9,19.9 L11.9,16.9 L11.9,16.1 L8.7,19.3 C8.8,19.4 8.9,19.5 8.9,19.7 Z"></path>
                        <polygon points="5 20.6 11.9 13.7 11.9 12.9 5 19.8"></polygon>
                        <polygon points="1.8 22.2 2.8 21.2 3 20.2 2 21.2"></polygon>
                        <path d="M8,31.2 L7,32.2 C7.5,32.1 7.9,31.7 8,31.2 Z"></path>
                        <polygon points="6.7 6.9 2.1 11.6 2.1 11.8 2.1 12.4 7.5 6.9"></polygon>
                        <path d="M2.6,8.7 L3.9,7.4 C3.3,7.7 2.9,8.2 2.6,8.7 Z"></path>
                        <path d="M5,19 L11.9,12.1 L11.9,11.5 C11.9,11.4 11.9,11.3 11.9,11.3 L5,18.2 L5,19 Z"></path>
                        <path d="M9.6,32 L11.9,29.7 L11.9,28.9 L9.2,31.6 C9.3,31.8 9.4,31.9 9.6,32 Z"></path>
                        <path d="M5.5,6.9 L5.3,6.9 L5.1,6.9 L2.1,9.9 C2.1,10.1 2.1,10.3 2.1,10.5 L2.1,10.8 L6,7 L5.5,7 L5.5,6.9 Z"></path>
                        <polygon points="5 25.3 8 22.3 8 21.5 5 24.5"></polygon>
                        <polygon points="2.1 15.6 4.1 13.5 4.1 12.7 2.1 14.8"></polygon>
                        <path d="M8.5,6.9 L8.4,6.9 L2.1,13.2 L2.1,14 L4.2,11.9 L4.2,11.6 C4.2,11.4 4.3,11 4.7,11 C4.8,11 4.9,11.1 5,11.1 L9.2,6.9 L8.5,6.9 Z"></path>
                        <polygon points="5 12.6 10.7 6.9 9.9 6.9 5 11.8"></polygon>
                        <path d="M2.2,20.2 L3.2,19.2 L3.2,19 C3.3,19 3.4,19 3.5,18.9 C3.7,18.8 3.9,18.6 4,18.4 C4.1,18.3 4.1,18.1 4.1,18 L4.1,17.5 L2.3,19.3 L2.2,20.2 Z"></path>
                        <path d="M5,14.2 L12.2,7 C12,6.9 11.8,6.9 11.6,6.9 L11.5,6.9 L5,13.4 L5,14.2 Z"></path>
                        <polygon points="2.1 17.2 4.1 15.1 4.1 14.3 2.1 16.4"></polygon>
                        <path d="M2.1,18 C2.1,18.2 2.2,18.4 2.3,18.6 L4.2,16.7 L4.2,15.9 L2.1,18 Z"></path>
                        <path d="M14.8,10 L12.8,12 L12.8,12.8 L14.9,10.7 L14.9,10.5 C14.9,10.3 14.9,10.2 14.8,10 Z"></path>
                        <polygon points="12.8 14.4 14.9 12.3 14.9 11.8 14.9 11.5 12.8 13.6"></polygon>
                        <polygon points="5 26.9 8 23.9 8 23.1 5 26.1"></polygon>
                        <polygon points="8.9 23.1 11.9 20.1 11.9 19.3 8.9 22.3"></polygon>
                        <path d="M14.4,8.8 L12.2,11 L12.3,11 C12.5,11 12.7,11.1 12.8,11.3 L14.7,9.4 C14.6,9.2 14.5,9 14.4,8.8 Z"></path>
                        <path d="M13.8,19 C14.4,19 14.8,18.6 14.8,18.1 C14.8,18.1 14.8,18.1 14.8,18 L14.8,17.9 L13.8,19 L13.8,19 Z"></path>
                        <path d="M5,17.4 L14.1,8.3 C14,8.2 13.9,8 13.7,7.9 L5,16.6 L5,17.4 Z"></path>
                    </g>
                    <g transform="translate(15.000000, 14.000000)">
                        <path d="M1.4,3.1 C1.3,3.1 1.2,3.1 1.1,3.2 C0.9,3.3 0.7,3.5 0.6,3.7 C0.6,3.8 0.6,3.9 0.6,4 C0.6,4.1 0.6,4.2 0.7,4.3 L0.8,4.4 L1.9,3.3 C1.8,3.2 1.6,3.1 1.4,3.1 Z"></path>
                        <path d="M3,8.5 L5.5,6 L4.7,6 L2.7,8 L2.8,8.2 C2.9,8.3 3,8.4 3,8.5 Z"></path>
                        <polygon points="2.2 3.7 1 4.9 1.3 5.4 2.5 4.2"></polygon>
                        <polygon points="3.1 5.2 2.8 4.7 1.6 5.9 1.9 6.4"></polygon>
                        <path d="M3.5,5.7 L2.2,7 L2.5,7.5 L4,6 C3.8,5.9 3.7,5.8 3.5,5.7 L3.5,5.7 Z"></path>
                        <path d="M3,14.1 L3,14.9 L8,9.9 C8,9.7 7.9,9.6 7.9,9.4 L7.9,9.3 L7.9,9.3 L7.9,9.2 L3,14.1 Z"></path>
                        <path d="M6.1,18 L7.9,16.2 L7.9,15.4 L5.8,17.5 C5.9,17.7 6,17.9 6.1,18 Z"></path>
                        <path d="M3,17.2 L3,17.2 C3,17.4 3.1,17.6 3.2,17.7 L5.2,15.7 L5.2,14.9 L3,17.2 L3,17.2 Z"></path>
                        <path d="M6.9,18.2 C7.5,18.2 8,17.7 8,17.1 L8,17 L6.8,18.2 C6.7,18.2 6.8,18.2 6.9,18.2 Z"></path>
                        <path d="M6.8,6 L6.4,6 L3,9.3 C3,9.5 3,9.7 2.9,10 L2.8,10.3 L9.9,3.2 L9.9,3.2 C9.5,3 9,3.2 8.8,3.6 C8.4,4.3 7.9,5 7.4,5.7 C7.3,5.9 7,6 6.8,6 Z"></path>
                        <polygon points="8.2 10.6 3 15.7 3 16.3 5.2 14.1 5.2 14.1 8.3 11"></polygon>
                        <polygon points="8.8 12.9 5.8 15.9 5.8 16.7 7.9 14.6 7.9 14.1 8.4 14.1 9.1 14.1 8.9 13.6"></polygon>
                        <path d="M10.3,3.6 L2.6,11.3 L2.3,12.4 L10,4.7 L10.1,4.5 C10.1,4.5 10.2,4.2 10.3,4.1 C10.4,4 10.4,3.8 10.3,3.6 Z"></path>
                        <polygon points="5.8 15.1 8.6 12.3 8.5 11.6 5.8 14.3"></polygon>
                        <polygon points="8.1 8.2 9 6.6 2 13.5 1.8 14.1 2.2 14.1 8 8.3"></polygon>
                        <path d="M5.3,4.6 L7.6,2.3 C7.6,2.1 7.5,1.9 7.5,1.6 L4.7,4.4 C4.9,4.6 5.1,4.6 5.3,4.6 Z"></path>
                        <path d="M4.2,4.2 L7.2,1.2 C7.1,1 7,0.9 6.8,0.8 L3.8,3.8 C3.9,3.9 4,4.1 4.2,4.2 Z"></path>
                        <path d="M7.5,3.3 L6.3,4.5 C6.8,4.3 7.3,3.8 7.5,3.3 Z"></path>
                        <path d="M3.5,1.7 L4.7,0.5 C4.1,0.7 3.7,1.1 3.5,1.7 Z"></path>
                        <path d="M6.3,0.5 C6.1,0.4 5.9,0.4 5.6,0.4 L3.3,2.7 C3.3,2.9 3.4,3.1 3.4,3.4 L6.3,0.5 Z"></path>
                        <path d="M4.1,18.2 C4.7,18.2 5.1,17.7 5.2,17.1 L5.2,16.5 L3.6,18.1 C3.8,18.2 3.9,18.2 4.1,18.2 Z"></path>
                    </g>
                    <g transform="translate(25.000000, 1.000000)">
                        <path d="M6,4.4 L9.5,1 C9.3,0.9 9.1,0.8 8.9,0.8 L5.8,3.9 C5.8,4.1 5.9,4.3 6,4.4 Z"></path>
                        <path d="M7.1,1 C6.7,1.2 6.3,1.6 6.1,2 C5.9,2.3 5.8,2.7 5.8,3.1 L8.2,0.7 C7.8,0.7 7.4,0.8 7.1,1 Z"></path>
                        <path d="M10.8,3.6 L8.6,5.8 C9.8,5.6 10.7,4.8 10.8,3.6 Z"></path>
                        <path d="M6.8,5.3 L10.4,1.7 C10.3,1.5 10.2,1.4 10,1.3 L6.4,4.9 C6.5,5.1 6.6,5.2 6.8,5.3 Z"></path>
                        <path d="M7.9,5.8 L10.9,2.8 C10.9,2.6 10.8,2.4 10.7,2.2 L7.3,5.6 C7.5,5.7 7.7,5.8 7.9,5.8 Z"></path>
                        <polygon points="4.7 11.4 1.4 14.7 1.1 15.8 4.3 12.5"></polygon>
                        <polygon points="5.8 7.1 2.8 10 2.5 11.2 6.6 7.1"></polygon>
                        <path d="M5.5,30.6 L8,28.1 L8,27.3 L5.3,30 C5.3,30.2 5.4,30.4 5.5,30.6 Z"></path>
                        <path d="M15.7,16.3 L14.4,17.6 C14.6,17.7 14.8,17.7 15,17.6 C15.5,17.5 15.8,16.9 15.7,16.3 Z"></path>
                        <polygon points="2.9 20.3 11.4 11.9 11.2 11.3 3.2 19.2"></polygon>
                        <path d="M3.2,8.8 L4.8,7.2 C4.1,7.6 3.6,8.1 3.2,8.8 Z"></path>
                        <path d="M11.3,30.3 L10.5,31.1 C10.9,31 11.2,30.7 11.3,30.3 Z"></path>
                        <path d="M7.9,30.4 L7.1,31.2 C7.4,31 7.7,30.7 7.9,30.4 Z"></path>
                        <polygon points="7.4 7.1 2.1 12.4 1.8 13.5 8.2 7.1"></polygon>
                        <polygon points="8.7 23.3 8.7 24.1 13.4 19.4 13.3 18.8"></polygon>
                        <path d="M3.5,18.1 L13.2,8.4 C13.1,8.2 13,8.1 12.9,7.9 L3.9,16.9 L3.5,18.1 Z"></path>
                        <polygon points="8.7 27.3 11.4 24.6 11.4 23.8 8.7 26.5"></polygon>
                        <polygon points="5.2 23.6 5.2 24.4 12.8 16.9 12.6 16.3"></polygon>
                        <polygon points="5.2 22.8 12.4 15.6 12.2 15 5.2 22.1 5.2 22.1"></polygon>
                        <path d="M4,13.7 L0.9,16.8 C0.9,17 1,17.2 1.1,17.4 L3.6,14.9 L4,13.7 Z"></path>
                        <polygon points="5.2 26 7.9 23.3 7.9 22.5 5.2 25.2"></polygon>
                        <polygon points="5.2 29.2 7.9 26.5 7.9 25.7 5.2 28.4"></polygon>
                        <path d="M6.4,31.2 L7.9,29.7 L7.9,28.9 L5.8,31 C6,31.1 6.2,31.2 6.4,31.2 Z"></path>
                        <polygon points="5.2 27.6 7.9 24.9 7.9 24.1 5.2 26.8"></polygon>
                        <polygon points="13 15 14.8 13.3 14.6 12.7 12.8 14.4"></polygon>
                        <path d="M11.8,10.9 L11.9,11.3 L13.6,9.6 L13.4,9.1 C13.4,9.1 13.4,9 13.4,9 L11.7,10.7 C11.8,10.8 11.8,10.9 11.8,10.9 Z"></path>
                        <path d="M5,12.6 L4.7,13.7 L11.3,7.1 C11.2,7.1 11.1,7.1 11,7.1 L10.5,7.1 L5,12.6 Z"></path>
                        <path d="M9.7,31.1 L11.4,29.4 L11.4,28.6 L9.2,30.8 C9.3,31 9.5,31.1 9.7,31.1 Z"></path>
                        <path d="M8.7,29.9 C8.7,30.1 8.7,30.3 8.8,30.4 L11.4,27.8 L11.4,27 L8.7,29.7 L8.7,29.9 Z"></path>
                        <polygon points="13.6 20 11.6 22.1 12.4 22.1 13.8 20.6"></polygon>
                        <path d="M4.1,15.9 L12.4,7.6 C12.2,7.5 12.1,7.4 11.9,7.3 L4.4,14.8 L4.1,15.9 Z"></path>
                        <polygon points="8.7 25.7 11.4 23 11.4 22.2 8.7 24.9"></polygon>
                        <polygon points="12.7 13.8 14.4 12 14.2 11.4 12.5 13.2"></polygon>
                        <polygon points="8.7 22.5 13.1 18.1 12.9 17.5 8.4 22.1 8.7 22.1"></polygon>
                        <polygon points="11.9 13.8 3.6 22.1 4.4 22.1 12.1 14.4"></polygon>
                        <path d="M13.9,17.4 L15.6,15.7 L15.4,15.1 L13.6,16.9 C13.6,17.1 13.7,17.2 13.9,17.4 Z"></path>
                        <polygon points="13.4 16.3 15.2 14.5 15 13.9 13.2 15.6"></polygon>
                        <polygon points="8.7 28.9 11.4 26.2 11.4 25.4 8.7 28.1"></polygon>
                        <polygon points="14 21.3 13.2 22.1 14 22.1 14.2 22.1 14.1 21.9"></polygon>
                        <path d="M5.3,11.5 L9.7,7.1 L9,7.1 L5.4,10.7 C5.5,10.8 5.5,11 5.5,11.2 L5.3,11.5 Z"></path>
                        <polygon points="12.3 12.6 14 10.8 13.8 10.2 12.1 11.9"></polygon>
                        <polygon points="11.5 12.5 2.6 21.4 2.5 22.1 2.8 22.1 11.7 13.1"></polygon>
                        <path d="M2.9,17.2 C3,17.1 3.1,16.9 3.1,16.8 L3.3,16 L1.6,17.7 L1.7,17.7 C2,17.8 2.3,17.8 2.5,17.6 C2.6,17.5 2.8,17.3 2.9,17.2 Z"></path>
                    </g>
                </g>
                <path d="M45.6,14 L38.4,19.7 C38.3,19.8 38.2,19.8 38.1,19.8 C37.9,19.8 37.9,19.7 37.9,19.4 L37.9,16.5 L24.4,16.5 C24.3,16.5 24.1,16.4 24.2,16.2 C24.2,16.2 24.2,16.2 24.2,16.2 L24.2,11.2 C24.2,11 24.3,10.9 24.4,10.9 L37.8,10.9 L37.8,8 C37.8,7.8 37.9,7.7 38,7.7 C38.1,7.7 38.2,7.7 38.3,7.8 L45.5,13.3 C45.6,13.4 45.7,13.5 45.7,13.7 C45.7,13.8 45.7,13.9 45.6,14 Z" id="Path"></path>
            </g>
        </g>
    </g>
</svg>