<?xml version="1.0" encoding="UTF-8"?>
<svg width="95px" height="95px" viewBox="0 0 95 95" version="1.1" xmlns="http://www.w3.org/2000/svg" xmlns:xlink="http://www.w3.org/1999/xlink">
    <!-- Generator: Sketch 53.2 (72643) - https://sketchapp.com -->
    <title>goal_14_target_14_6</title>
    <desc>Created with Sketch.</desc>
    <g id="goal_14_target_14_6" stroke="none" stroke-width="1" fill="none" fill-rule="evenodd">
        <g id="Group-115">
            <rect id="Rectangle" fill="#0A97D9" fill-rule="nonzero" x="-3.62376795e-13" y="-2.13162821e-14" width="94.8" height="94.8"></rect>
            <polygon id="Path" points="10.3 53.6 9.9 51.6 8.3 52.5 8.5 54.6"></polygon>
            <polygon id="Path" points="9.8 51.2 9.5 49.2 8.1 50 8.3 52.1"></polygon>
            <polygon id="Path" points="10.5 42.8 7.6 35.6 9.9 43.1"></polygon>
            <polygon id="Path" points="9.6 43.3 7.2 35.3 8.8 43.8"></polygon>
            <polygon id="Path" points="8.9 44.2 9.3 46.2 10.3 45.6 9.7 43.7"></polygon>
            <g id="Group" transform="translate(4.700000, 10.000000)" fill="#000000" fill-rule="nonzero">
                <path d="M28.6,57.4 C28.2,57.3 27.9,57.2 27.5,57.1 L1.1,20.1 L26.1,40.9 L26.9,36.7 L1.1,20.1 L1.1,20.1 L26.7,21.9 L26.7,21.5 L0.9,19.7 L0.9,19.8 L0.9,19.8 L0.9,56.3 C1,56.2 1.2,56.1 1.3,56.1 C1.3,56.1 1.4,56.1 1.4,56.1 L1.7,56.2 C2.1,56.4 2.7,56.7 3.4,56.9 L2.5,56.5 L4.4,55.4 L4.6,57.2 L5,57.3 L4.8,55.1 L7.6,53.5 L8,55.9 L5.3,57.5 L5.8,57.6 L8.1,56.3 L8.4,57.9 L8.8,57.9 L8.4,56 L11.2,54.4 L11.8,56.6 L9.5,58 C9.8,58 10,58 10.3,58 L12,57 L12.2,57.7 L12.6,57.6 L12.4,56.8 L14.9,55.3 L15.4,56.7 L15.8,56.5 L15.2,55.1 L17.8,53.6 L18.4,54.9 C18.5,54.8 18.6,54.7 18.7,54.7 L18,53.5 L20.2,52.3 L21.3,54.1 C21.1,53.9 20.9,53.8 20.7,53.7 L20.7,53.7 L20.7,53.7 C22.9,55.4 33.1,62.3 42.1,53.8 L42.2,53.7 L42.2,53.7 L42.2,33.7 L23.4,45 L28.6,57.4 Z M20.5,48.6 L18.9,49.5 L17.7,47.6 L19.2,46.7 L20.5,48.6 Z M3.9,47.3 L3.7,45.2 L5.5,44.1 L5.9,46.1 L3.9,47.3 Z M6.1,46.5 L6.1,46.6 C5.6,47.3 5.3,48.2 5.2,49.1 L4.1,49.7 L4,47.7 L6.1,46.5 Z M14.6,46.8 L16.2,45.9 L17.2,47.5 L15.4,48.5 L14.6,46.8 Z M15.1,48.8 L14.4,49.2 C14.4,48.5 14.2,47.8 13.9,47.2 L14.2,47 L15.1,48.8 Z M14.4,46.5 L13.5,44.8 L15,43.9 L16,45.6 L14.4,46.5 Z M13.3,44.4 L12.4,42.7 L13.7,41.9 L14.7,43.5 L13.3,44.4 Z M12.3,42.4 L11.4,40.7 L12.6,40 L13.6,41.7 L12.3,42.4 Z M11.3,40.4 L10.4,38.7 L11.4,38.1 L12.4,39.7 L11.3,40.4 Z M7.5,37.3 L6.5,37.9 L5.9,36 L6.7,35.5 L7.5,37.3 Z M7.1,35.3 L8,34.8 L8.9,36.5 L7.9,37.1 L7.1,35.3 Z M6.1,38 L4.9,38.7 L4.5,36.7 L5.5,36.1 L6.1,38 Z M6.3,38.4 L6.9,40.3 L5.5,41.1 L5.1,39.1 L6.3,38.4 Z M6.6,38.2 L7.6,37.6 L8.3,39.4 L7.1,40.1 L6.6,38.2 Z M7.9,37.4 L8.9,36.8 L9.8,38.5 L8.6,39.2 L7.9,37.4 Z M10.1,38.8 L11,40.5 L9.6,41.3 L8.9,39.5 L10.1,38.8 Z M10.2,38.3 L9.3,36.6 L10.2,36.1 L11.2,37.8 L10.2,38.3 Z M9.1,36.3 L8.2,34.6 L8.9,34.2 L9.9,35.8 L9.1,36.3 Z M8.1,34.3 L7.2,32.6 L7.7,32.3 L8.7,33.9 L8.1,34.3 Z M7,32.2 L3.8,25.9 L7.6,31.9 L7,32.2 Z M7.7,34.4 L6.9,34.9 L6.2,33.1 L6.9,32.7 L7.7,34.4 Z M6.6,35.1 L5.8,35.6 L5.2,33.7 L5.8,33.3 L6.6,35.1 Z M5.4,35.8 L4.4,36.4 L4,34.4 L4.8,33.9 L5.4,35.8 Z M4.1,36.6 L3,37.2 L2.8,35.1 L3.7,34.6 L4.1,36.6 Z M4.2,36.9 L4.6,38.9 L3.3,39.7 L3.1,37.6 L4.2,36.9 Z M4.6,39.3 L5,41.3 L3.4,42.2 L3.2,40 L4.6,39.3 Z M5.1,41.7 L5.5,43.7 L3.7,44.7 L3.5,42.6 L5.1,41.7 Z M5.4,41.5 L6.9,40.6 L7.5,42.5 L5.9,43.5 L5.4,41.5 Z M7.3,40.5 L8.5,39.8 L9.2,41.6 L7.8,42.4 L7.3,40.5 Z M9.3,42 L10,43.8 L8.5,44.7 L8,42.8 L9.3,42 Z M10.2,44.1 L10.4,44.7 C10.2,44.7 10,44.6 9.8,44.6 C9.6,44.6 9.3,44.6 9.1,44.7 L10.2,44.1 Z M10.4,43.6 L9.7,41.8 L11.1,41 L12,42.7 L10.4,43.6 Z M12.1,43 L13,44.6 L12,45.2 C11.7,45 11.3,44.9 10.9,44.8 L10.5,43.9 L12.1,43 Z M13.1,45 L14,46.7 L13.7,46.9 C13.4,46.3 12.9,45.8 12.3,45.4 L13.1,45 Z M14.4,49.6 L15.3,49.1 L16.3,51.1 L14,52.4 L13.7,51.7 C14.1,51.1 14.4,50.4 14.4,49.6 L14.4,49.6 Z M15.6,48.9 L17.4,47.8 L18.6,49.7 L16.6,50.8 L15.6,48.9 Z M19,46.5 L17.5,47.3 L16.5,45.7 L17.9,44.9 L19,46.5 Z M17.7,44.6 L16.4,45.4 L15.4,43.7 L16.6,43 L17.7,44.6 Z M16.3,42.7 L15.1,43.4 L14.1,41.8 L15.2,41.1 L16.3,42.7 Z M15,40.9 L13.9,41.5 L12.9,39.9 L13.9,39.3 L15,40.9 Z M13.7,39 L12.7,39.6 L11.7,38 L12.6,37.5 L13.7,39 Z M12.3,37.1 L11.5,37.6 L10.5,35.9 L11.2,35.5 L12.3,37.1 Z M11,35.2 L10.3,35.6 L9.3,34 L9.9,33.6 L11,35.2 Z M9.7,33.3 L9.1,33.6 L8.1,32 L8.6,31.7 L9.7,33.3 Z M8.3,31.5 L7.8,31.8 L3.3,24.6 L8.3,31.5 Z M6.7,32.4 L6.1,32.8 L3.2,25.5 L6.7,32.4 Z M5.7,32.9 L5.1,33.3 L2.8,25.8 L5.7,32.9 Z M4.7,33.5 L4,34 L2.4,25.5 L4.7,33.5 Z M3.6,34.2 L2.7,34.7 L2,25.5 L3.6,34.2 Z M1.5,25.1 L2.4,34.9 L1.5,35.4 L1.5,25.1 Z M1.5,35.8 L2.4,35.3 L2.6,37.4 L1.6,38 L1.5,35.8 Z M1.5,38.5 L2.6,37.8 L2.8,39.9 L1.5,40.7 L1.5,38.5 L1.5,38.5 Z M1.5,41.1 L2.9,40.3 L3.1,42.4 L1.5,43.3 L1.5,41.1 Z M1.5,43.8 L3.1,42.9 L3.3,45 L1.5,46 L1.5,43.8 Z M1.5,46.5 L3.3,45.4 L3.5,47.5 L1.5,48.7 L1.5,46.5 Z M1.5,49.1 L3.5,47.9 L3.8,50 L1.6,51.2 L1.5,49.1 Z M1.5,51.7 L3.7,50.4 L3.9,52.6 L1.6,54 L1.5,51.7 Z M1.9,56.4 L1.5,56.2 L1.5,56.2 L1.5,54.4 L4,53 L4.2,55.1 L1.9,56.4 Z M4.1,50.2 L5.1,49.6 C5.1,50.3 5.3,51 5.7,51.6 L4.3,52.4 L4.1,50.2 Z M4.6,54.9 L4.4,52.8 L6,51.9 C6.4,52.4 6.8,52.9 7.3,53.2 L7.3,53.3 L4.6,54.9 Z M6.2,45.9 L5.8,43.9 L7.5,42.9 L8.1,44.8 L6.2,45.9 Z M8.1,55.7 L7.7,53.4 L7.8,53.4 C8.4,53.7 9.1,53.9 9.8,53.9 C10.1,53.9 10.5,53.9 10.8,53.8 L10.9,54.2 L8.1,55.7 Z M11,51.5 C10.7,51.7 10.4,51.8 10,51.8 L10,52.5 L9.6,52.5 L9.6,51.8 C9.2,51.8 8.9,51.7 8.5,51.5 C8.1,51.2 7.8,50.6 7.9,50.1 L8.9,50.1 C8.9,50.3 9,50.5 9,50.7 C9.1,50.9 9.3,51 9.6,51 L9.6,49.5 L9.3,49.4 C8.9,49.3 8.6,49.1 8.3,48.8 C8.1,48.6 8,48.2 8,47.9 C8,47.7 8,47.5 8.1,47.3 C8.3,46.9 8.6,46.6 9,46.5 C9.2,46.5 9.4,46.4 9.6,46.4 L9.6,45.9 L10,45.9 L10,46.4 C10.3,46.4 10.7,46.5 10.9,46.7 C11.4,47 11.7,47.5 11.6,48 L10.6,48 C10.6,47.8 10.6,47.7 10.5,47.5 C10.4,47.3 10.2,47.2 10,47.2 L10,48.6 C10.4,48.7 10.8,48.9 11.2,49.1 C11.5,49.4 11.7,49.8 11.7,50.2 C11.8,50.8 11.5,51.3 11,51.5 L11,51.5 Z M11.1,53.6 C12,53.3 12.7,52.8 13.3,52.1 L13.5,52.6 L11.3,54 L11.1,53.6 Z M12,56.5 L11.3,54.3 L13.7,53 L14.5,55 L12,56.5 Z M14.9,54.8 L14,52.7 L16.4,51.3 L17.4,53.3 L14.9,54.8 Z M17.7,53.1 L16.7,51.1 L18.7,49.9 L20,51.9 L17.7,53.1 Z M19.1,49.8 L20.7,48.9 L22,50.7 L20.2,51.7 L19.1,49.8 Z M20.4,52 L22.2,51 L23.5,52.8 L21.7,54 L20.4,52 Z M22,54.5 L21.8,54.2 L23.7,53.1 L25,54.9 L23.9,55.6 C23.2,55.3 22.6,54.9 22,54.5 Z M24.3,55.8 L25.3,55.2 L26.3,56.6 C25.6,56.5 25,56.2 24.3,55.8 L24.3,55.8 Z" id="Shape"></path>
                <path d="M84.5,19.9 L84.5,19.9 L58.7,21.7 L58.7,21 L51.9,21 L51.9,19 L43.4,19 L43.4,0.7 L41.8,0.7 L41.8,19 L33.6,19 L33.6,21 L26.8,21 L26.8,22.5 L33.6,22.5 L33.6,28.3 L29,28.3 L27.2,41.1 L42.5,31.9 L42.5,31.9 L58.2,41.1 L56.5,28.3 L51.9,28.3 L51.9,22.5 L58.7,22.5 L58.7,22 L84.2,20.2 L84.2,20.2 L58.5,36.8 L59.2,41 L84.2,20.2 L58,57.1 C57.6,57.2 57.2,57.3 56.8,57.4 L61.8,44.5 L43,33.6 L43,53.6 L43,53.6 L43.1,53.6 L43.2,53.7 C52.2,62.1 62.4,55.3 64.6,53.6 L64.6,53.6 L64.6,53.6 L64.3,53.8 L65.2,52.3 L67.3,53.5 L66.7,54.7 L67,54.9 L67.7,53.7 L70.3,55.2 L69.7,56.6 L70,56.7 L70.5,55.4 L73.1,56.9 L73,57.8 L73.4,57.9 L73.6,57.2 L75.1,58.1 L75.9,58.1 L73.7,56.8 L74.4,54.6 L77.2,56.2 L76.8,58 L77.2,58 L77.5,56.4 L79.6,57.6 L80.1,57.5 L77.5,56 L78,53.7 L80.8,55.3 L80.6,57.3 L81,57.2 L81.2,55.5 L83,56.5 L83.4,56.3 L81.3,55.1 L81.4,52.9 L83.9,54.3 L83.9,56 L83.9,56 C84,56 84,55.9 84.1,55.9 C84.1,55.9 84.2,55.9 84.2,55.9 C84.5,55.9 84.7,56.1 84.7,56.4 L84.5,19.9 L84.5,19.9 Z M47.4,28.2 L38.1,28.2 L38.1,22.6 L47.4,22.6 L47.4,28.2 L47.4,28.2 Z M75.5,38.6 L76.4,36.9 L77.4,37.5 L76.7,39.3 L75.5,38.6 Z M76.6,39.6 L75.9,41.4 L74.5,40.6 L75.4,38.9 L76.6,39.6 Z M77.6,37.1 L76.6,36.5 L77.5,34.8 L78.3,35.3 L77.6,37.1 Z M78.6,35.5 L79.4,36 L78.8,37.9 L77.8,37.3 L78.6,35.5 Z M77.8,37.7 L78.8,38.3 L78.2,40.2 L77,39.5 L77.8,37.7 Z M79.1,38.4 L80.3,39.1 L79.9,41.1 L78.5,40.3 L79.1,38.4 Z M79.2,38.1 L79.8,36.2 L80.8,36.8 L80.4,38.8 L79.2,38.1 Z M79.9,35.8 L80.5,34 L81.3,34.5 L80.9,36.5 L79.9,35.8 Z M79.6,35.6 L78.8,35.1 L79.5,33.3 L80.2,33.7 L79.6,35.6 Z M78.5,35 L77.7,34.5 L78.6,32.8 L79.3,33.2 L78.5,35 Z M78.4,32.3 L77.9,32 L81.7,26 L78.4,32.3 Z M78.2,32.6 L77.3,34.3 L76.7,34 L77.7,32.4 L78.2,32.6 Z M77.2,34.7 L76.3,36.4 L75.5,35.9 L76.5,34.3 L77.2,34.7 Z M76.1,36.7 L75.2,38.4 L74.2,37.8 L75.2,36.1 L76.1,36.7 Z M75,38.8 L74.1,40.5 L73,39.8 L74,38.2 L75,38.8 Z M74,40.8 L73.1,42.5 L71.8,41.7 L72.8,40 L74,40.8 Z M73,42.8 L72.1,44.5 L70.6,43.7 L71.6,42.1 L73,42.8 Z M72,44.8 L71,46.6 L69.4,45.6 L70.4,43.9 L72,44.8 Z M71.4,49.3 L70.4,48.7 L71.3,47 L71.7,47.2 C71.5,47.8 71.4,48.3 71.4,48.9 C71.4,49 71.3,49.2 71.3,49.3 L71.4,49.3 Z M70.8,47 L69.9,48.7 L68.1,47.7 L69.1,46.1 L70.8,47 Z M69.8,49 L68.8,51 L66.8,49.9 L68,48 L69.8,49 Z M70.1,49.2 L71.3,49.9 C71.4,50.4 71.6,51 71.9,51.5 L71.5,52.6 L69.1,51.2 L70.1,49.2 Z M71.7,47 L71.3,46.8 L72.2,45.1 L73,45.5 C72.5,45.9 72,46.5 71.7,47 Z M72.4,44.7 L73.3,43 L74.9,43.9 L74.6,44.6 C74.2,44.7 73.7,44.9 73.3,45.2 L72.4,44.7 Z M73.4,42.7 L74.3,41 L75.7,41.8 L75,43.6 L73.4,42.7 Z M75.2,44.2 L75.8,44.5 C75.5,44.5 75.3,44.5 75,44.6 L75.2,44.2 Z M75.3,43.8 L76,42 L77.4,42.8 L76.9,44.6 L76.6,44.5 L75.3,43.8 Z M76.2,41.7 L76.9,39.9 L78.1,40.6 L77.5,42.5 L76.2,41.7 Z M78.4,40.8 L79.9,41.6 L79.5,43.6 L77.8,42.6 L78.4,40.8 Z M79.8,44.2 L81.6,45.3 L81.4,47.4 L79.4,46.2 L79.8,44.2 Z M79.9,43.8 L80.3,41.8 L81.9,42.7 L81.7,44.8 L79.9,43.8 Z M80.3,41.5 L80.7,39.5 L82.1,40.3 L81.9,42.4 L80.3,41.5 Z M80.8,39 L81.2,37 L82.3,37.7 L82.1,39.8 L80.8,39 Z M81.3,36.6 L81.7,34.6 L82.6,35.1 L82.4,37.2 L81.3,36.6 Z M81.7,34.2 L83.4,25.6 L82.6,34.7 L81.7,34.2 Z M81.4,34 L80.6,33.6 L83,25.6 L81.4,34 Z M80.3,33.4 L79.7,33 L82.6,25.8 L80.3,33.4 Z M79.3,32.8 L78.7,32.4 L82.3,25.5 L79.3,32.8 Z M82,24.7 L77.5,31.9 L77,31.6 L82,24.7 Z M76.9,31.9 L77.4,32.2 L76.4,33.8 L75.8,33.5 L76.9,31.9 Z M75.5,33.7 L76.1,34 L75.1,35.6 L74.4,35.2 L75.5,33.7 Z M74.2,35.6 L74.9,36 L73.9,37.7 L73.1,37.2 L74.2,35.6 Z M72.8,37.5 L73.7,38 L72.7,39.6 L71.7,39 L72.8,37.5 Z M71.5,39.4 L72.5,40 L71.5,41.6 L70.4,41 L71.5,39.4 Z M70.2,41.3 L71.3,41.9 L70.3,43.5 L69.1,42.8 L70.2,41.3 Z M68.8,43.1 L70,43.8 L69,45.5 L67.7,44.7 L68.8,43.1 Z M67.5,45 L68.9,45.8 L67.9,47.4 L66.4,46.6 L67.5,45 Z M66.2,46.9 L67.7,47.8 L66.5,49.7 L64.9,48.8 L66.2,46.9 Z M59.2,56.6 L60.1,55.3 L60.9,55.8 C60.4,56.1 59.8,56.4 59.2,56.6 Z M63.5,54.4 C62.8,54.9 62.1,55.3 61.3,55.7 L60.3,55.1 L61.6,53.3 L63.5,54.4 L63.5,54.4 Z M63.7,54 L61.8,53 L63.1,51.2 L64.9,52.2 L63.7,54 Z M65.1,51.8 L63.3,50.8 L64.6,49 L66.2,49.9 L65.1,51.8 Z M67.6,53.3 L65.4,52 L66.6,50.1 L68.6,51.3 L67.6,53.3 Z M70.5,54.9 L67.9,53.4 L68.9,51.4 L71.3,52.8 L70.5,54.9 Z M73.3,56.6 L70.8,55.1 L71.6,53 L74,54.4 L73.3,56.6 Z M74.1,54.1 L71.8,52.8 L72.2,51.9 C72.7,52.6 73.5,53.2 74.4,53.5 L74.1,54.1 Z M77.2,55.9 L74.4,54.3 L74.6,53.6 C75,53.7 75.4,53.8 75.8,53.8 C76.3,53.8 76.9,53.7 77.4,53.5 L77.6,53.6 L77.2,55.9 Z M77.1,51.4 C76.8,51.6 76.5,51.7 76.1,51.7 L76.1,52.4 L75.7,52.4 L75.7,51.7 C75.3,51.7 75,51.6 74.6,51.4 C74.2,51.1 73.9,50.5 74,50 L75,50 C75,50.2 75.1,50.4 75.1,50.6 C75.2,50.8 75.4,50.9 75.7,50.9 L75.7,49.3 L75.4,49.2 C75,49.1 74.7,48.9 74.4,48.6 C74.2,48.3 74.1,48 74.1,47.7 C74.1,47.5 74.1,47.3 74.2,47.1 C74.3,46.9 74.4,46.8 74.5,46.6 C74.7,46.4 74.9,46.3 75.1,46.2 C75.3,46.2 75.5,46.1 75.7,46.1 L75.7,45.6 L76.1,45.6 L76.1,46.1 C76.4,46.1 76.8,46.2 77,46.4 C77.4,46.7 77.7,47.2 77.6,47.7 L76.6,47.7 C76.6,47.5 76.6,47.4 76.5,47.2 C76.4,47 76.2,46.9 76,46.9 L76,48.3 C76.4,48.4 76.8,48.6 77.2,48.8 C77.5,49.1 77.7,49.5 77.7,49.9 C77.8,50.6 77.6,51.1 77.1,51.4 Z M77.3,44.8 L77.8,43 L79.5,44 L79.2,45.8 C78.6,45.3 78,45 77.3,44.8 Z M80.8,55 L78,53.4 L78,53.2 C78.6,52.9 79.1,52.5 79.5,52.1 L81,53 L80.8,55 Z M81,52.4 L79.7,51.6 C80.1,51 80.3,50.4 80.4,49.7 L81.2,50.2 L81,52.4 Z M81.2,49.8 L80.4,49.3 C80.4,49.2 80.4,49.1 80.4,49 C80.4,48.2 80.2,47.4 79.8,46.8 L81.4,47.7 L81.2,49.8 Z M83.8,54 L81.4,52.6 L81.6,50.4 L83.8,51.7 L83.8,54 Z M83.8,51.3 L81.6,50 L81.8,47.9 L83.8,49.1 L83.8,51.3 Z M83.8,48.7 L81.8,47.5 L82,45.4 L83.8,46.5 L83.8,48.7 Z M83.8,46.1 L82,45.1 L82.2,43 L83.8,43.9 L83.8,46.1 Z M83.8,43.5 L82.2,42.6 L82.4,40.5 L83.8,41.3 L83.8,43.5 L83.8,43.5 Z M83.8,40.8 L82.5,40 L82.7,37.9 L83.8,38.6 L83.8,40.8 Z M83.8,38.1 L82.7,37.5 L82.9,35.4 L83.8,35.9 L83.8,38.1 Z M83.8,35.5 L82.9,35 L83.8,25.2 L83.8,35.5 L83.8,35.5 Z" id="Shape"></path>
                <path d="M75.1,47.7 C75.1,47.9 75.2,48.1 75.3,48.2 C75.4,48.3 75.6,48.3 75.7,48.4 L75.7,47.1 C75.5,47.1 75.4,47.2 75.2,47.3 C75.2,47.4 75.1,47.5 75.1,47.7 Z" id="Path"></path>
                <path d="M76.1,49.5 L76.1,50.9 C76.2,50.9 76.4,50.9 76.5,50.8 C76.7,50.7 76.8,50.4 76.7,50.2 C76.7,50 76.6,49.8 76.5,49.7 C76.4,49.6 76.3,49.5 76.1,49.5 Z" id="Path"></path>
                <path d="M10.1,49.6 L10.1,51 C10.2,51 10.4,50.9 10.5,50.9 C10.7,50.8 10.7,50.5 10.7,50.3 C10.7,50.1 10.6,49.9 10.5,49.8 C10.4,49.7 10.3,49.7 10.1,49.6 Z" id="Path"></path>
                <path d="M9.1,47.8 C9.1,48 9.2,48.2 9.3,48.3 C9.4,48.4 9.5,48.4 9.7,48.5 L9.7,47.2 C9.5,47.2 9.4,47.3 9.2,47.4 C9.2,47.5 9.1,47.7 9.1,47.8 Z" id="Path"></path>
            </g>
            <g id="Group" transform="translate(4.700000, 63.000000)" fill="#FFFFFF" fill-rule="nonzero">
                <path d="M83.9,15.9 L83.8,15.9 L83.6,16 C81,17.3 72.8,20.5 65.4,13.4 C65.3,13.3 65.1,13.2 65,13.1 C64.8,13.1 64.7,13.2 64.6,13.3 C62.4,15 52.2,21.9 43.2,13.4 L43.1,13.3 C43,13.2 42.9,13.1 42.7,13.1 C42.6,13.1 42.4,13.2 42.4,13.3 L42.2,13.4 C33.2,21.9 23,15 20.8,13.3 C20.7,13.2 20.6,13.1 20.4,13.1 C20.2,13.1 20.1,13.2 20,13.3 C12.6,20.4 4.4,17.2 1.8,15.9 L1.5,15.8 L1.2,15.8 C0.9,15.8 0.7,16 0.7,16.3 L0.7,16.3 L0.7,19.9 C0.7,20 0.8,20.2 0.8,20.3 C9.4,27.8 17.5,20.8 19.4,18.9 C19.5,18.8 19.5,18.8 19.6,18.7 C19.7,18.7 19.7,18.6 19.8,18.6 C19.9,18.6 20.1,18.7 20.2,18.8 C29.9,28.1 40.1,20.6 42.2,18.8 L42.4,18.6 C42.5,18.6 42.5,18.5 42.6,18.5 C42.7,18.5 42.7,18.5 42.8,18.6 L43,18.8 C45.1,20.6 55.3,28.1 65,18.8 L65,18.8 C65.1,18.7 65.2,18.7 65.3,18.7 C65.4,18.7 65.5,18.7 65.6,18.8 C65.7,18.8 65.7,18.9 65.7,18.9 C67.6,20.8 75.7,27.8 84.3,20.3 C84.4,20.2 84.4,20.1 84.5,19.9 L84.5,16.3 C84.5,16.2 84.3,15.9 83.9,15.9 C84,15.9 84,15.9 83.9,15.9" id="Path"></path>
                <path d="M83.9,3 L83.8,3 L83.6,3.1 C81,4.4 72.8,7.6 65.4,0.5 C65.3,0.4 65.1,0.2 65,0.3 C64.8,0.3 64.7,0.4 64.6,0.5 C62.4,2.2 52.2,9.1 43.2,0.6 L43,0.5 C42.9,0.4 42.8,0.3 42.6,0.3 C42.5,0.3 42.3,0.4 42.3,0.5 L42.1,0.6 C33.1,9.1 22.9,2.2 20.7,0.5 C20.6,0.4 20.5,0.3 20.3,0.3 C20.1,0.3 20,0.4 19.9,0.5 C12.5,7.5 4.3,4.4 1.7,3.1 L1.3,3 L1.2,3 C0.9,3 0.7,3.2 0.7,3.5 L0.7,3.5 L0.7,7.1 C0.7,7.2 0.8,7.4 0.8,7.5 C9.4,15 17.5,8 19.4,6.1 C19.5,6 19.5,6 19.6,5.9 C19.7,5.8 19.7,5.8 19.8,5.8 C19.9,5.8 20.1,5.9 20.2,6 C29.9,15.3 40.1,7.8 42.2,6 L42.4,5.8 C42.5,5.8 42.5,5.7 42.6,5.7 C42.7,5.7 42.7,5.7 42.8,5.8 L43,6 C45.1,7.8 55.3,15.3 64.9,6 L64.9,6 C65,5.9 65.1,5.9 65.2,5.8 C65.3,5.8 65.4,5.8 65.5,5.9 C65.6,5.9 65.6,6 65.6,6 C67.5,7.9 75.6,14.9 84.2,7.4 C84.3,7.3 84.4,7.2 84.4,7 L84.4,3.4 C84.4,3.2 84.2,3 83.9,3 C83.9,3 83.9,3 83.9,3" id="Path"></path>
            </g>
        </g>
    </g>
</svg>