<?xml version="1.0" encoding="UTF-8"?>
<svg width="95px" height="95px" viewBox="0 0 95 95" version="1.1" xmlns="http://www.w3.org/2000/svg" xmlns:xlink="http://www.w3.org/1999/xlink">
    <!-- Generator: Sketch 53.2 (72643) - https://sketchapp.com -->
    <title>goal_9_target_9_3</title>
    <desc>Created with Sketch.</desc>
    <g id="goal_9_target_9_3" stroke="none" stroke-width="1" fill="none" fill-rule="evenodd">
        <g id="Group-67" fill-rule="nonzero">
            <rect id="Rectangle" fill="#FD6925" x="-3.62376795e-13" y="-2.13162821e-14" width="94.8" height="94.8"></rect>
            <g id="Group" transform="translate(6.700000, 9.000000)" fill="#FFFFFF">
                <g transform="translate(52.000000, 23.000000)" id="Path">
                    <g transform="translate(14.000000, 1.000000)">
                        <path d="M5.3,3 C5.3,4.3 6.3,5.3 7.6,5.3 C8.9,5.3 9.9,4.3 9.9,3 C9.9,1.7 8.9,0.7 7.6,0.7 C7.6,0.7 7.6,0.7 7.6,0.7 C6.4,0.7 5.3,1.7 5.3,3 Z"></path>
                        <path d="M12.4,8.2 C12.4,8.2 11.7,6.4 10.2,6.4 L5.3,6.4 C3.8,6.4 3.1,8.2 3.1,8.2 L1,14.5 C1,14.5 0.7,15.7 1.6,15.9 C2.5,16.1 2.9,15.1 2.9,15.1 L4.5,9.8 C4.5,9.8 4.6,9.4 4.9,9.5 C5.2,9.6 5.1,10 5.1,10 L2.4,19.8 L4.9,19.8 L4.9,26.8 C5,27.5 5.6,28 6.2,27.9 C6.8,27.8 7.3,27.4 7.3,26.8 L7.3,19.8 L8,19.8 L8,26.8 C8,27.5 8.5,28 9.2,28 C9.9,28 10.4,27.5 10.4,26.8 L10.4,19.8 L13,19.8 L10.3,10 C10.3,10 10.2,9.6 10.5,9.5 C10.8,9.4 10.9,9.8 10.9,9.8 L12.5,15.1 C12.5,15.1 12.8,16.2 13.8,15.9 C14.8,15.6 14.4,14.5 14.4,14.5 L12.4,8.2 Z"></path>
                    </g>
                    <g>
                        <path d="M3.8,3.2 C3.8,4.5 4.9,5.6 6.2,5.6 C7.5,5.6 8.6,4.5 8.6,3.2 C8.6,1.9 7.5,0.8 6.2,0.8 C4.8,0.8 3.8,1.8 3.8,3.2 L3.8,3.2 Z"></path>
                        <path d="M9,6.5 L3.4,6.5 C1.7,6.7 0.5,8 0.5,9.7 L0.5,16.4 C0.6,16.9 1,17.3 1.5,17.2 C1.9,17.2 2.3,16.8 2.3,16.4 L2.3,10.7 C2.3,10.5 2.4,10.2 2.8,10.2 C3.2,10.2 3.1,10.5 3.1,10.7 L3.1,27.9 C3.1,28.6 3.7,29.2 4.4,29.2 C5.1,29.2 5.7,28.6 5.7,27.9 L5.7,18 C5.7,17.8 5.8,17.6 6,17.6 C6,17.6 6,17.6 6,17.6 L6,17.6 C6.2,17.6 6.4,17.7 6.4,17.9 C6.4,17.9 6.4,17.9 6.4,18 L6.4,27.9 C6.5,28.6 7.1,29.2 7.9,29.1 C8.6,29 9.1,28.5 9.1,27.9 L9.1,10.6 C9.1,10.4 9.2,10.1 9.4,10.1 C9.6,10.1 9.8,10.4 9.8,10.6 L9.8,16.3 C9.9,16.8 10.3,17.2 10.8,17.1 C11.2,17.1 11.6,16.7 11.6,16.3 L11.6,9.6 C11.9,8.1 10.6,6.7 9,6.5 Z"></path>
                    </g>
                </g>
                <path d="M65.9,64.3 L63,62.2 C62.8,62 62.4,62 62.2,62.2 C62.2,62.2 62.2,62.2 62.2,62.2 L62.2,62.2 C53.7,73 38.6,74.7 27.6,66.5 C27.3,66.3 26.9,66 26.6,65.7 L29.7,63.6 C30,63.4 29.6,63.2 29.6,63.2 L18.6,58.1 C18.2,57.9 18.2,58.1 18.2,58.3 L18.2,58.4 L18.2,58.4 L18.6,70.7 C18.6,70.8 18.7,71.1 19,70.9 L19,70.9 L22.5,68.6 C23.2,69.3 24,69.9 24.7,70.4 C37.9,80.2 55.9,78.1 66,65.3 L66.1,65.2 C66.2,65 66.2,64.6 65.9,64.3 C65.9,64.4 65.9,64.4 65.9,64.3 Z" id="Path"></path>
                <path d="M17.4,13.3 L20.3,15.4 C20.5,15.6 20.9,15.6 21.1,15.3 C21.1,15.3 21.1,15.3 21.1,15.2 L21.1,15.2 C29.3,4.2 44.4,2.2 55.6,10.2 C55.9,10.4 56.3,10.7 56.6,11 L53.6,13.2 C53.3,13.4 53.8,13.7 53.8,13.7 L64.9,18.5 C65.2,18.7 65.3,18.4 65.3,18.3 L65.3,18.2 L65.3,18.2 L64.6,5.9 C64.6,5.8 64.5,5.5 64.2,5.7 L64.2,5.7 L60.8,8.1 C60.1,7.5 59.3,6.9 58.5,6.3 C45.1,-3.2 27.1,-0.8 17.3,12.2 L17.2,12.3 C17,12.7 17,13.1 17.4,13.3 C17.3,13.3 17.3,13.3 17.4,13.3 Z" id="Path"></path>
                <g transform="translate(0.000000, 22.000000)" id="Shape">
                    <path d="M15.6,2.6 C8.1,2.6 2,8.7 2,16.1 C2,23.6 8.1,29.7 15.5,29.7 C22.9,29.7 29.1,23.6 29.1,16.2 C29.1,16.2 29.1,16.2 29.1,16.2 C29.1,8.7 23.1,2.6 15.6,2.6 Z M27.7,14 C27.7,14.2 27.7,14.3 27.6,14.4 C27.5,14.5 27.4,14.6 27.2,14.6 L27.1,14.6 C27,14.6 26.9,14.6 26.8,14.5 C26.7,14.4 26.6,14.3 26.6,14.1 C26.6,13.9 26.6,13.8 26.7,13.7 C26.8,13.6 26.9,13.5 27.1,13.5 C27.4,13.5 27.7,13.7 27.7,14 C27.7,14 27.7,14 27.7,14 Z M27.2,11.9 C27.3,12.2 27.2,12.5 26.9,12.6 C26.9,12.6 26.9,12.6 26.9,12.6 C26.8,12.6 26.8,12.6 26.7,12.6 C26.6,12.6 26.5,12.6 26.5,12.5 C26.4,12.4 26.3,12.3 26.2,12.2 C26.1,12.1 26.1,11.9 26.2,11.8 C26.3,11.7 26.4,11.6 26.5,11.5 C26.7,11.4 27.1,11.6 27.2,11.9 C27.2,11.9 27.2,11.9 27.2,11.9 L27.2,11.9 Z M25.2,10.1 C25.3,9.8 25.6,9.6 25.9,9.7 C26.2,9.8 26.4,10.1 26.3,10.4 C26.3,10.6 26.2,10.7 26,10.8 C25.9,10.9 25.8,10.9 25.7,10.9 L25.5,10.9 C25.3,10.9 25.2,10.8 25.1,10.6 C25.2,10.4 25.1,10.3 25.2,10.1 L25.2,10.1 Z M21,5.7 L21,5.7 C21.2,5.4 21.6,5.4 21.8,5.6 C21.9,5.7 21.9,5.7 22,5.8 C22,5.9 22,6.1 21.9,6.2 C21.8,6.3 21.7,6.4 21.5,6.5 C21.5,6.5 21.4,6.5 21.4,6.5 C21.3,6.5 21.2,6.5 21.1,6.4 C20.9,6.3 20.8,5.9 21,5.7 C20.9,5.6 20.9,5.6 21,5.7 L21,5.7 Z M19.8,14.6 C19.7,14.6 19.6,14.5 19.6,14.4 L19.6,13.6 L21.7,13.6 L21.7,14.4 C21.7,14.5 21.6,14.6 21.5,14.6 L21.5,14.6 L21.5,19.6 L19.8,19.6 L19.8,14.6 L19.8,14.6 Z M15.7,13 L9.2,13 L9.2,12.6 L22.2,12.6 L22.2,13 L15.7,13 Z M14.8,14.6 C14.7,14.6 14.6,14.5 14.6,14.4 L14.6,13.6 L16.7,13.6 L16.7,14.4 C16.7,14.5 16.6,14.6 16.5,14.6 L16.5,14.6 L16.5,19.6 L14.9,19.6 L14.8,14.6 L14.8,14.6 Z M9.9,14.6 C9.8,14.6 9.7,14.5 9.7,14.4 L9.7,13.6 L11.8,13.6 L11.8,14.4 C11.8,14.5 11.7,14.6 11.6,14.6 L11.6,14.6 L11.6,19.6 L10,19.6 L9.9,14.6 L9.9,14.6 Z M15.7,12.1 L8.7,12.1 L8.4,11.8 C8.3,11.7 8.3,11.6 8.4,11.5 C8.4,11.5 8.4,11.5 8.4,11.5 L15.6,8.8 L22.8,11.5 C22.9,11.6 22.9,11.7 22.8,11.8 C22.8,11.8 22.8,11.8 22.8,11.8 L22.5,12.1 L15.7,12.1 Z M19.1,4.8 C19.2,4.5 19.5,4.3 19.8,4.5 C19.9,4.6 20.1,4.7 20.1,4.8 C20.2,4.9 20.2,5.1 20.1,5.3 C20,5.4 19.9,5.6 19.8,5.6 C19.7,5.6 19.6,5.7 19.6,5.7 C19.5,5.7 19.5,5.7 19.4,5.7 C19.3,5.6 19.1,5.5 19.1,5.4 C19,5.2 19,5 19.1,4.8 L19.1,4.8 Z M17.3,4 C17.4,3.9 17.6,3.9 17.7,3.9 C18,4 18.2,4.3 18.2,4.6 C18.1,4.9 17.9,5.1 17.6,5.1 L17.5,5.1 C17.4,5.1 17.2,5 17.1,4.9 C17,4.8 17,4.6 17,4.5 C17.1,4.3 17.2,4.2 17.3,4 L17.3,4 Z M15.6,3.7 C15.9,3.7 16.2,4 16.2,4.3 L16.2,4.3 C16.2,4.6 15.9,4.9 15.6,4.9 C15.3,4.9 15,4.6 15,4.3 C15,4.3 15,4.3 15,4.3 C15,4 15.3,3.8 15.6,3.7 L15.6,3.7 Z M13.1,4.2 C13.3,3.9 13.6,3.9 13.9,4 C14,4.1 14.1,4.2 14.1,4.4 C14.1,4.6 14.1,4.7 14,4.8 C13.9,4.9 13.8,5 13.6,5 L13.5,5 C13.4,5 13.3,5 13.2,4.9 C13.1,4.8 13,4.7 13,4.5 C12.9,4.5 13,4.3 13.1,4.2 L13.1,4.2 Z M11.1,4.8 C11.2,4.7 11.3,4.5 11.4,4.5 C11.5,4.4 11.7,4.4 11.8,4.5 C11.9,4.6 12.1,4.7 12.1,4.8 C12.2,4.9 12.2,5.1 12.1,5.3 C12,5.4 11.9,5.5 11.8,5.6 C11.7,5.6 11.7,5.6 11.6,5.6 C11.5,5.6 11.4,5.6 11.4,5.5 C11.3,5.4 11.2,5.3 11.1,5.2 C11,5.1 11,5 11.1,4.8 L11.1,4.8 Z M9.4,5.4 C9.5,5.3 9.7,5.3 9.8,5.3 C10,5.3 10.1,5.4 10.2,5.6 C10.4,5.9 10.3,6.2 10,6.4 C9.9,6.5 9.8,6.5 9.7,6.5 C9.4,6.5 9.1,6.3 9.1,5.9 C9.1,5.7 9.2,5.5 9.4,5.4 Z M7.7,6.6 C7.8,6.5 8,6.5 8.1,6.5 C8.3,6.5 8.4,6.6 8.5,6.7 C8.7,6.9 8.7,7.3 8.4,7.5 C8.3,7.6 8.2,7.6 8,7.6 C7.8,7.6 7.7,7.5 7.5,7.4 C7.4,7.2 7.4,6.9 7.7,6.6 L7.7,6.6 Z M4.9,10 C5.1,9.7 5.4,9.6 5.7,9.8 C6,10 6.1,10.3 5.9,10.6 L5.9,10.6 C5.8,10.8 5.6,10.9 5.4,10.9 C5.3,10.9 5.2,10.9 5.1,10.8 C4.8,10.6 4.7,10.3 4.9,10 Z M4,12 C4.1,11.9 4.2,11.7 4.3,11.7 C4.4,11.6 4.6,11.6 4.7,11.7 C4.8,11.8 5,11.9 5,12 C5.1,12.1 5.1,12.3 5,12.4 C4.9,12.6 4.7,12.8 4.4,12.8 C4.3,12.8 4.3,12.8 4.2,12.8 C4,12.7 3.8,12.4 4,12 C3.9,12 4,12 4,12 L4,12 Z M4.1,13.6 C4.3,13.6 4.4,13.7 4.5,13.8 C4.6,13.9 4.6,14.1 4.6,14.2 C4.6,14.4 4.5,14.5 4.4,14.6 C4.3,14.7 4.2,14.7 4.1,14.7 L4,14.7 C3.7,14.6 3.5,14.3 3.5,14 C3.4,13.8 3.7,13.5 4.1,13.6 C4,13.5 4.1,13.5 4.1,13.6 L4.1,13.6 Z M3.2,16.2 C3.2,16 3.3,15.9 3.4,15.8 C3.5,15.7 3.7,15.6 3.8,15.6 L3.8,15.6 C4,15.6 4.1,15.7 4.2,15.8 C4.3,15.9 4.4,16.1 4.4,16.2 C4.4,16.5 4.1,16.8 3.8,16.8 C3.8,16.8 3.8,16.8 3.8,16.8 C3.5,16.8 3.2,16.6 3.2,16.2 C3.2,16.2 3.2,16.2 3.2,16.2 L3.2,16.2 Z M3.4,18.4 C3.4,18.1 3.6,17.8 3.9,17.7 C4.2,17.7 4.5,17.9 4.6,18.2 C4.7,18.5 4.5,18.8 4.1,18.9 C4.1,18.9 4.1,18.9 4.1,18.9 L4,18.9 C3.7,18.8 3.4,18.6 3.4,18.4 L3.4,18.4 Z M4.5,20.8 C4.3,20.8 4,20.6 3.9,20.4 C3.8,20.1 3.9,19.8 4.2,19.6 C4.5,19.5 4.8,19.6 5,19.9 C5.1,20.2 5,20.5 4.7,20.7 C4.7,20.7 4.7,20.7 4.7,20.7 C4.7,20.8 4.6,20.8 4.5,20.8 L4.5,20.8 Z M6,22.2 C6,22.3 5.9,22.5 5.7,22.5 C5.6,22.6 5.5,22.6 5.4,22.6 C5.2,22.6 5,22.5 4.9,22.3 C4.7,22 4.8,21.7 5,21.5 C5.3,21.3 5.6,21.4 5.8,21.6 C5.8,21.6 5.8,21.7 5.8,21.7 C6,21.9 6,22 6,22.2 Z M6.2,8.2 C6.4,8 6.8,7.9 7,8.1 C7,8.1 7,8.1 7,8.1 C7.3,8.3 7.3,8.7 7.1,8.9 C7.1,8.9 7.1,8.9 7,9 C6.9,9.1 6.7,9.2 6.5,9.2 C6.4,9.2 6.2,9.1 6.1,9.1 C5.9,8.9 5.9,8.5 6.2,8.2 C6.1,8.2 6.1,8.2 6.2,8.2 L6.2,8.2 Z M7,24.1 C6.9,24.2 6.8,24.2 6.6,24.2 C6.3,24.2 6,23.9 6,23.6 C6,23.5 6.1,23.3 6.2,23.2 C6.3,23.1 6.5,23.1 6.6,23.1 C6.8,23.1 6.9,23.2 7,23.3 C7.3,23.6 7.2,23.9 7,24.1 Z M8.5,25.5 C8.4,25.6 8.2,25.7 8,25.7 C7.9,25.7 7.7,25.6 7.6,25.6 C7.5,25.5 7.4,25.4 7.4,25.2 C7.4,25 7.4,24.9 7.5,24.8 C7.6,24.7 7.7,24.6 7.9,24.6 C8.1,24.6 8.2,24.6 8.3,24.7 C8.7,24.9 8.7,25.3 8.5,25.5 Z M8.7,21 L9.2,21 L9.2,20.2 C9.2,20.2 9.2,20.1 9.3,20.1 L22.2,20.1 C22.2,20.1 22.3,20.1 22.3,20.2 L22.3,21 L22.8,21 L22.8,21.8 L8.8,21.8 L8.7,21 Z M10.2,26.6 C10.1,26.8 9.9,26.9 9.7,26.9 C9.6,26.9 9.5,26.9 9.4,26.8 C9.3,26.7 9.2,26.6 9.1,26.4 C9.1,26.3 9.1,26.1 9.1,26 C9.2,25.9 9.3,25.8 9.5,25.7 C9.6,25.7 9.8,25.7 9.9,25.8 C10.3,26 10.3,26.3 10.2,26.6 L10.2,26.6 Z M12.1,27.4 C12,27.6 11.8,27.8 11.6,27.8 C11.5,27.8 11.5,27.8 11.4,27.8 C11.1,27.7 10.9,27.4 11,27 C11.1,26.7 11.4,26.5 11.8,26.6 C12.1,26.8 12.2,27.1 12.1,27.4 C12.1,27.4 12.1,27.4 12.1,27.4 L12.1,27.4 Z M13.5,28.3 L13.4,28.3 C13.1,28.2 12.9,27.9 12.9,27.6 L12.9,27.6 C13,27.3 13.3,27.1 13.6,27.1 C13.9,27.1 14.2,27.4 14.1,27.7 C14.1,28.1 13.9,28.4 13.5,28.3 L13.5,28.3 Z M15.5,28.5 C15.2,28.5 14.9,28.2 15,27.9 C15,27.6 15.3,27.3 15.6,27.3 C15.9,27.3 16.2,27.6 16.2,27.9 C16.2,27.9 16.2,27.9 16.2,27.9 C16.2,28.2 15.9,28.5 15.5,28.5 L15.5,28.5 L15.5,28.5 Z M18.1,28.1 C18,28.2 17.9,28.3 17.7,28.3 L17.6,28.3 C17.3,28.3 17,28.1 17,27.8 C17,27.5 17.2,27.2 17.5,27.2 C17.7,27.2 17.8,27.2 17.9,27.3 C18,27.4 18.1,27.5 18.1,27.7 C18.2,27.8 18.2,27.9 18.1,28.1 L18.1,28.1 Z M20.1,27.5 C20,27.6 19.9,27.7 19.8,27.8 C19.7,27.9 19.5,27.9 19.4,27.8 C19.3,27.7 19.2,27.6 19.1,27.5 C19,27.4 19,27.2 19.1,27.1 C19.2,27 19.3,26.9 19.4,26.8 C19.7,26.7 20,26.8 20.2,27.1 C20.1,27.2 20.2,27.3 20.1,27.5 L20.1,27.5 Z M21.7,26.9 C21.6,27 21.5,27 21.4,27 L21.3,27 C21.1,27 21,26.9 20.9,26.7 C20.7,26.4 20.8,26.1 21.1,25.9 C21.1,25.9 21.1,25.9 21.1,25.9 C21.2,25.8 21.4,25.8 21.5,25.8 C21.7,25.8 21.8,25.9 22,26 C22.2,26.3 22.1,26.6 21.8,26.8 C21.8,26.8 21.8,26.8 21.7,26.9 L21.7,26.9 Z M23.5,25.6 C23.4,25.7 23.3,25.7 23.1,25.7 C22.9,25.7 22.8,25.6 22.6,25.5 C22.5,25.4 22.5,25.2 22.5,25.1 C22.5,24.9 22.6,24.8 22.7,24.7 C22.8,24.6 23,24.6 23.1,24.6 C23.3,24.6 23.4,24.7 23.5,24.8 C23.7,25 23.7,25.4 23.5,25.6 L23.5,25.6 Z M23.5,7.5 C23.4,7.6 23.3,7.7 23.1,7.7 L23.1,7.7 C23,7.7 22.8,7.7 22.7,7.6 C22.6,7.5 22.5,7.4 22.5,7.2 C22.5,7 22.5,6.9 22.6,6.8 C22.8,6.6 23.2,6.5 23.4,6.7 C23.4,6.7 23.4,6.7 23.4,6.7 C23.7,6.9 23.8,7.3 23.5,7.5 L23.5,7.5 Z M25,24.1 C24.9,24.2 24.8,24.3 24.6,24.3 L24.6,24.3 C24.5,24.3 24.3,24.3 24.2,24.2 C24,24 23.9,23.6 24.1,23.4 C24.1,23.4 24.1,23.4 24.1,23.4 C24.2,23.3 24.3,23.2 24.5,23.2 C24.7,23.2 24.8,23.2 24.9,23.3 C25,23.4 25.1,23.5 25.1,23.7 C25.2,23.8 25.1,24 25,24.1 Z M25,9 C24.9,9.1 24.8,9.1 24.6,9.1 L24.6,9.1 C24.4,9.1 24.3,9 24.2,8.9 C24,8.7 24,8.3 24.3,8.1 C24.3,8.1 24.3,8.1 24.3,8.1 C24.5,7.9 24.9,7.9 25.1,8.2 C25.1,8.2 25.1,8.2 25.1,8.2 C25.2,8.3 25.2,8.5 25.2,8.6 C25.2,8.8 25.1,8.9 25,9 Z M26.3,22.3 C26.2,22.5 26,22.6 25.8,22.6 C25.7,22.6 25.6,22.6 25.5,22.5 C25.4,22.4 25.3,22.3 25.2,22.2 C25.2,22 25.2,21.9 25.3,21.8 C25.4,21.7 25.5,21.6 25.7,21.5 C25.8,21.5 26,21.5 26.1,21.6 C26.4,21.7 26.5,22 26.3,22.3 C26.3,22.3 26.3,22.3 26.3,22.3 L26.3,22.3 Z M27.2,20.3 C27.1,20.5 26.9,20.7 26.7,20.7 L26.5,20.7 C26.4,20.6 26.2,20.5 26.2,20.4 C26.1,20.3 26.1,20.1 26.2,20 C26.3,19.9 26.4,19.7 26.5,19.7 C26.6,19.6 26.8,19.6 26.9,19.7 C27.2,19.7 27.3,20.1 27.2,20.3 C27.2,20.4 27.2,20.4 27.2,20.3 L27.2,20.3 Z M27.5,18.6 C27.4,18.7 27.3,18.7 27.2,18.7 L27.1,18.7 C26.8,18.6 26.6,18.3 26.6,18 C26.7,17.7 27,17.5 27.3,17.5 C27.6,17.6 27.8,17.9 27.8,18.2 C27.8,18.4 27.7,18.6 27.5,18.6 L27.5,18.6 Z M27.4,16.6 C27.1,16.6 26.8,16.3 26.8,16 C26.8,15.7 27.1,15.4 27.4,15.4 C27.7,15.4 28,15.7 28,16 C28,16 28,16 28,16 C28,16.4 27.8,16.7 27.4,16.6 C27.4,16.7 27.4,16.7 27.4,16.6 L27.4,16.6 Z"></path>
                    <path d="M15.6,0.7 C7.1,0.7 0.1,7.6 0.1,16.1 C0.1,24.6 7,31.6 15.5,31.6 C24,31.6 31,24.7 31,16.2 C31,16.2 31,16.2 31,16.2 C31,7.6 24.1,0.7 15.6,0.7 Z M15.6,30.4 C7.7,30.4 1.3,24 1.3,16.1 C1.3,8.2 7.7,1.8 15.6,1.8 C23.5,1.8 29.9,8.2 29.9,16.1 C29.9,16.1 29.9,16.1 29.9,16.1 C29.8,24 23.5,30.4 15.6,30.4 Z"></path>
                </g>
            </g>
        </g>
    </g>
</svg>