<?xml version="1.0" encoding="UTF-8"?>
<svg width="95px" height="95px" viewBox="0 0 95 95" version="1.1" xmlns="http://www.w3.org/2000/svg" xmlns:xlink="http://www.w3.org/1999/xlink">
    <!-- Generator: Sketch 53.2 (72643) - https://sketchapp.com -->
    <title>goal_14_target_14_3</title>
    <desc>Created with Sketch.</desc>
    <g id="goal_14_target_14_3" stroke="none" stroke-width="1" fill="none" fill-rule="evenodd">
        <g id="Group-112" fill-rule="nonzero">
            <rect id="Rectangle" fill="#0A97D9" x="-3.62376795e-13" y="-2.13162821e-14" width="94.8" height="94.8"></rect>
            <g id="Group" transform="translate(10.700000, 10.800000)" fill="#000000">
                <path d="M33.3,20.4 L33.5,20.2 L33.6,20.1 L33.3,19.9 C33.3,20 33.3,20.1 33.3,20.2 C33.3,20.3 33.4,20.3 33.3,20.4 Z" id="Path"></path>
                <path d="M29.3,13.6 L18.5,24.4 L17,25.9 C17.3,26.5 17.7,27 18.1,27.5 L19.8,25.8 L30.6,15 C30.9,15.3 31.2,15.5 31.5,15.7 C31.5,15.9 31.5,16 31.5,16.2 C31.5,16.4 31.5,16.6 31.6,16.9 L21.4,27 L19.5,28.9 C20,29.3 20.5,29.6 21.1,29.9 L23.4,27.6 L32.3,18.7 C32.6,19.1 33,19.5 33.4,19.8 L33.7,20 L33.6,20.1 L33.4,20.3 L26,27.8 L23.2,30.6 C23.9,30.7 24.5,30.8 25.2,30.8 L25.6,30.8 L34.3,22.1 C34.3,22 34.3,21.8 34.3,21.7 C34.3,21.2 34.3,20.8 34.2,20.4 C34.8,20.7 35.5,20.8 36.1,20.8 C36.9,20.8 37.7,20.6 38.4,20.1 C40,23.7 44.3,25.2 47.8,23.6 C49.1,23 50.2,22 51,20.7 C53,22.7 56.2,22.7 58.3,20.7 C58.8,20.2 59.1,19.7 59.4,19.1 C62.1,22.8 67.3,23.6 70.9,20.9 C74.6,18.2 75.4,13 72.7,9.4 C70.2,6 65.4,5 61.8,7.2 C61.2,4.4 58.4,2.5 55.6,3.1 C54.4,3.3 53.4,4 52.6,4.9 C51.9,4.3 51,3.9 50.1,3.9 C49.2,3.9 48.4,4.2 47.7,4.7 C47.4,2.4 45.4,0.8 43.1,1 C41.5,1.2 40.1,2.3 39.6,3.8 C36.5,1.4 32,2 29.6,5.1 C28.1,7.1 27.7,9.7 28.6,12 C28.8,12.5 29,13 29.4,13.4 L29.3,13.6 Z" id="Path"></path>
                <g transform="translate(0.000000, 27.000000)" id="Path">
                    <g>
                        <path d="M1,14.7 C1,14.7 0.9,14.7 0.9,14.7 L6.2,20 L6.8,19.1 L2.4,14.7 L1,14.7 Z"></path>
                        <path d="M9,14.7 L8.9,14.7 L9.3,15.1 C9.3,15.1 9.3,15 9.3,15 C9.2,14.8 9.1,14.7 9,14.7 Z"></path>
                        <path d="M6.6,0.4 C6.6,0.3 6.5,0.2 6.4,0.2 L5,0.2 L6.7,1.9 L6.6,0.4 Z"></path>
                        <polygon points="3.4 14.5 7.2 18.3 7.7 17.5 3.4 13.2"></polygon>
                        <polygon points="3.4 9.2 6.6 12.5 6.6 11.1 3.4 7.9"></polygon>
                        <path d="M3.6,0.1 C3.5,0.1 3.4,0.2 3.4,0.3 L3.4,1.2 L6.6,4.4 L6.6,3 L3.6,0.1 L3.6,0.1 Z"></path>
                        <polygon points="3.4 3.9 6.6 7.2 6.6 5.8 3.4 2.6"></polygon>
                        <polygon points="3.4 6.6 6.6 9.8 6.6 8.5 3.4 5.2"></polygon>
                        <polygon points="3.4 11.9 8.2 16.7 8.7 15.9 7.6 14.7 6.6 14.7 6.6 13.8 3.4 10.5"></polygon>
                        <path d="M4.9,21.3 C4.9,21.4 5,21.4 5.1,21.4 C5.2,21.4 5.2,21.4 5.3,21.3 L5.3,21.3 L5.3,21.2 L5.6,20.7 L2.3,17.4 L4.8,21.2 L4.9,21.3 Z"></path>
                    </g>
                    <g transform="translate(64.000000, 0.000000)">
                        <path d="M8.4,14.6 L8.4,14.6 L8.8,15 C8.8,15 8.8,14.9 8.8,14.9 C8.8,14.8 8.7,14.6 8.5,14.6 L8.4,14.6 L8.4,14.6 Z"></path>
                        <polygon points="8.2 15.8 7.1 14.6 6.2 14.6 6.2 13.7 2.9 10.5 2.9 11.8 7.7 16.6"></polygon>
                        <polygon points="7.2 17.4 2.9 13.1 2.9 14.4 6.7 18.2"></polygon>
                        <path d="M6.2,19 L1.8,14.6 L0.5,14.6 C0.5,14.6 0.4,14.6 0.4,14.6 L5.6,19.8 L6.2,19 Z"></path>
                        <path d="M3.2,0.1 C3.1,0.1 3,0.2 3,0.3 L3,1.2 L6.2,4.4 L6.2,3 L3.2,0.1 L3.2,0.1 Z"></path>
                        <path d="M6.2,0.3 C6.2,0.2 6.1,0.1 6,0.1 L4.5,0.1 L6.2,1.8 L6.2,0.3 Z"></path>
                        <polygon points="2.9 3.9 6.2 7.1 6.2 5.8 2.9 2.5"></polygon>
                        <polygon points="2.9 9.2 6.2 12.4 6.2 11.1 2.9 7.8"></polygon>
                        <polygon points="2.9 6.5 6.2 9.8 6.2 8.4 2.9 5.2"></polygon>
                        <path d="M4.4,21.3 C4.5,21.4 4.5,21.4 4.6,21.4 C4.7,21.4 4.7,21.4 4.8,21.3 L4.8,21.3 L4.8,21.2 L5.1,20.7 L1.8,17.4 L4.3,21.2 L4.4,21.3 Z"></path>
                    </g>
                    <g transform="translate(42.000000, 0.000000)">
                        <path d="M8.7,14.6 L8.7,14.6 L9.1,15 C9.1,15 9.1,14.9 9.1,14.9 C9.1,14.8 9,14.6 8.8,14.6 L8.7,14.6 L8.7,14.6 Z"></path>
                        <polygon points="8.6 15.8 7.4 14.6 6.5 14.6 6.5 13.7 3.2 10.5 3.2 11.8 8 16.6"></polygon>
                        <polygon points="7.5 17.4 3.2 13.1 3.2 14.4 7 18.2"></polygon>
                        <path d="M6.5,19 L2.1,14.6 L0.8,14.6 C0.8,14.6 0.7,14.6 0.7,14.6 L5.9,19.9 L6.5,19 Z"></path>
                        <path d="M3.5,0.1 C3.4,0.1 3.3,0.2 3.3,0.3 L3.3,1.2 L6.5,4.4 L6.5,3 L3.5,0.1 L3.5,0.1 Z"></path>
                        <path d="M6.5,0.3 C6.5,0.2 6.4,0.1 6.3,0.1 L4.8,0.1 L6.5,1.8 L6.5,0.3 Z"></path>
                        <polygon points="3.2 3.9 6.5 7.1 6.5 5.8 3.2 2.5"></polygon>
                        <polygon points="3.2 9.2 6.5 12.4 6.5 11.1 3.2 7.8"></polygon>
                        <polygon points="3.2 6.5 6.5 9.8 6.5 8.4 3.2 5.2"></polygon>
                        <path d="M4.7,21.3 C4.8,21.4 4.8,21.4 4.9,21.4 C5,21.4 5,21.4 5.1,21.3 L5.1,21.3 L5.1,21.2 L5.4,20.7 L2.1,17.4 L4.6,21.2 L4.7,21.3 Z"></path>
                    </g>
                </g>
                <path d="M33.2,26 L29.4,29.8 C31.1,28.9 32.4,27.6 33.2,26 Z" id="Path"></path>
                <path d="M25.2,12.6 L25,12.6 L17,20.6 L16,21.6 C16,21.7 16,21.7 16,21.8 C16,22.5 16.1,23.3 16.3,24 L17.5,22.8 L27.4,13 C26.6,12.7 25.9,12.6 25.2,12.6 Z" id="Path"></path>
                <path d="M9,23.5 C10.8,23.5 12.2,22 12.2,20.3 C12.2,20.1 12.2,19.8 12.1,19.6 C13.7,20.2 15.4,20.1 16.9,19.4 C18.9,18.5 20.2,16.6 20.4,14.4 L21.3,13.5 C21,13.6 20.7,13.8 20.4,14 L20.4,13.9 C20.4,13.6 20.4,13.3 20.3,13.1 C19.8,9.7 16.7,7.4 13.3,7.8 C9.9,8.3 7.6,11.4 8,14.8 C8.1,15.6 8.4,16.4 8.8,17.1 L8.8,17.1 C7,17 5.5,18.4 5.4,20.2 C5.3,22 6.7,23.5 8.5,23.6 C8.8,23.5 8.9,23.5 9,23.5 L9,23.5 Z" id="Path"></path>
            </g>
            <g id="Group" opacity="0.3" transform="translate(6.700000, 10.800000)" fill="#000000">
                <g transform="translate(73.000000, 0.000000)" id="Path">
                    <path d="M3.8,8.4 C5.9,8.4 7.6,6.7 7.6,4.6 C7.6,2.5 5.9,0.8 3.8,0.8 C1.7,0.8 0,2.5 0,4.6 C0,5.5 0.3,6.3 0.9,7 C1.5,7.3 2.1,7.7 2.6,8.2 C3,8.3 3.4,8.4 3.8,8.4 Z"></path>
                </g>
                <g transform="translate(0.000000, 10.000000)" id="Path">
                    <path d="M4.1,8.5 C6.2,8.5 7.9,6.8 7.9,4.7 C7.9,2.6 6.2,0.9 4.1,0.9 C2,0.9 0.3,2.6 0.3,4.7 C0.3,6.8 2,8.5 4.1,8.5 C4.1,8.5 4.1,8.5 4.1,8.5 Z"></path>
                </g>
                <g transform="translate(20.000000, 11.000000)" id="Oval">
                    <circle cx="9.2" cy="8.6" r="8.3"></circle>
                </g>
            </g>
            <g id="Group" transform="translate(6.700000, 16.800000)" fill="#FFFFFF">
                <g transform="translate(38.000000, 0.000000)">
                    <path d="M18.3,8.8 L18.3,7.4 C18.3,6.4 17.8,5.8 16.8,5.8 C16,5.7 15.3,6.3 15.3,7.1 C15.3,7.2 15.3,7.3 15.3,7.4 L15.3,10 C15.2,10.8 15.7,11.5 16.5,11.6 C16.6,11.6 16.7,11.6 16.8,11.6 C17.8,11.6 18.3,11 18.3,10 L18.3,9.4 L17.5,9.4 L17.5,10.1 C17.5,10.6 17.3,10.9 16.8,10.9 C16.3,10.9 16.1,10.6 16.1,10.1 L16.1,8.8 L18.3,8.8 L18.3,8.8 Z M16.2,7.3 C16.2,6.8 16.4,6.5 16.9,6.5 C17.4,6.5 17.6,6.8 17.6,7.3 L17.6,8.1 L16.2,8.1 L16.2,7.3 Z" id="Shape"></path>
                    <path d="M13.3,5.7 C12.7,5.6 12.1,6.1 12,6.7 C12,6.8 12,6.9 12,7 L12,7.7 L13,7.7 L13,7 C13,6.7 13.2,6.5 13.4,6.5 C13.6,6.5 13.7,6.6 13.7,6.9 L13.7,7.4 C13.8,7.8 13.6,8.1 13.4,8.4 L12.8,9 C12.3,9.4 12,9.9 12,10.5 L12,11.6 L14.5,11.6 L14.5,10.8 L13,10.8 L13,10.5 C13,10.2 13.1,9.8 13.4,9.6 L14,9 C14.4,8.6 14.6,8.1 14.6,7.5 L14.6,6.9 C14.6,6.1 14.2,5.7 13.3,5.7 Z" id="Path"></path>
                    <path d="M8.8,0.7 C7.6,0.6 6.5,1.5 6.4,2.8 C6.4,3 6.4,3.1 6.4,3.3 L6.4,7.8 C6.3,9.1 7.3,10.3 8.6,10.3 C9.9,10.3 11.1,9.4 11.1,8.1 C11.1,8 11.1,7.9 11.1,7.8 L11.1,3.3 C11.3,2.1 10.4,0.9 9.2,0.8 C9.1,0.7 8.9,0.7 8.8,0.7 Z M9.6,8 C9.6,8.5 9.4,9 8.8,9 C8.2,9 8,8.6 8,8 L8,3 C8,2.4 8.3,2 8.8,2 C9.3,2 9.6,2.4 9.6,3 L9.6,8 L9.6,8 Z" id="Shape"></path>
                    <path d="M3.2,0.7 C2,0.6 0.9,1.5 0.8,2.8 C0.8,3 0.8,3.1 0.8,3.3 L0.8,7.8 C0.6,9 1.5,10.1 2.7,10.3 C2.9,10.3 3,10.3 3.2,10.3 C4.9,10.3 5.4,9.3 5.4,8 L5.4,6.4 L4,6.4 L4,8 C4,8.6 3.8,8.9 3.2,8.9 C2.6,8.9 2.4,8.5 2.4,7.9 L2.4,2.9 C2.4,2.3 2.6,1.9 3.2,1.9 C3.8,1.9 4,2.2 4,2.8 L4,4 L5.4,4 L5.4,3 C5.4,1.7 4.9,0.7 3.2,0.7 Z" id="Path"></path>
                </g>
                <g transform="translate(0.000000, 45.000000)" id="Path">
                    <path d="M80.6,3.3 L80.5,3.3 L80.3,3.4 C77.8,4.7 69.9,7.7 62.8,0.9 C62.7,0.8 62.5,0.7 62.4,0.7 C62.3,0.7 62.1,0.8 62,0.9 C59.9,2.6 50.1,9.2 41.4,1 L41.2,1 C41.1,0.9 41,0.9 40.9,0.9 C40.8,0.9 40.7,1 40.6,1 L40.5,1.1 C31.8,9.2 22,2.6 19.9,1 C19.8,0.9 19.7,0.8 19.5,0.8 C19.4,0.8 19.2,0.9 19.1,1 C12,7.8 4.1,4.7 1.6,3.5 L1.4,3.4 C1.4,3.4 1.3,3.4 1.3,3.4 C1,3.4 0.8,3.6 0.8,3.9 L0.8,7.3 C0.8,7.4 0.8,7.6 0.9,7.6 C9.1,14.8 16.9,8.1 18.7,6.3 C18.8,6.2 18.8,6.2 18.9,6.1 C19,6.1 19,6 19.1,6 C19.2,6 19.4,6.1 19.4,6.2 C28.7,15.1 38.5,7.9 40.5,6.2 L40.7,6 C40.7,5.9 40.8,5.9 40.9,5.9 C41,5.9 41,6 41.1,6 L41.3,6.2 C43.3,7.9 53.1,15.1 62.4,6.2 L62.4,6.2 C62.5,6.1 62.6,6.1 62.7,6.1 C62.8,6.1 62.9,6.1 63,6.2 C63.1,6.2 63.1,6.3 63.1,6.3 C65,8 72.8,14.7 81.1,7.6 C81.2,7.5 81.3,7.4 81.3,7.3 L81.3,3.9 C81.2,3.5 80.9,3.3 80.6,3.3"></path>
                    <path d="M80.6,15.7 L80.5,15.7 L80.3,15.8 C77.8,17.1 69.9,20.1 62.8,13.3 C62.7,13.2 62.5,13.1 62.4,13.1 C62.3,13.1 62.2,13.2 62,13.3 C59.9,15 50.1,21.5 41.4,13.4 L41.3,13.3 C41.2,13.2 41.1,13.2 41,13.2 C40.9,13.2 40.8,13.2 40.7,13.3 L40.6,13.4 C31.9,21.5 22.1,14.9 20,13.3 C19.9,13.2 19.8,13.1 19.6,13.1 C19.4,13.1 19.3,13.2 19.2,13.3 C12.1,20.1 4.2,17 1.7,15.8 L1.5,15.7 L1.4,15.7 C1.1,15.7 0.9,15.9 0.9,16.2 L0.9,19.6 C0.9,19.7 0.9,19.9 1,19.9 C9.2,27.1 17.1,20.4 18.9,18.6 L19.1,18.4 C19.2,18.4 19.2,18.3 19.3,18.3 C19.4,18.3 19.6,18.4 19.6,18.5 C28.9,27.4 38.7,20.2 40.7,18.5 L40.9,18.3 C40.9,18.3 41,18.2 41.1,18.2 C41.2,18.2 41.2,18.2 41.3,18.3 L41.5,18.5 C43.5,20.2 53.3,27.4 62.6,18.5 L62.6,18.5 C62.8,18.4 63,18.4 63.2,18.5 C63.3,18.5 63.3,18.6 63.3,18.6 C65.1,20.4 72.9,27.1 81.1,19.9 C81.2,19.8 81.2,19.7 81.3,19.6 L81.3,16.2 C81.1,16 80.9,15.8 80.6,15.7"></path>
                </g>
            </g>
        </g>
    </g>
</svg>