<?xml version="1.0" encoding="UTF-8"?>
<svg width="95px" height="95px" viewBox="0 0 95 95" version="1.1" xmlns="http://www.w3.org/2000/svg" xmlns:xlink="http://www.w3.org/1999/xlink">
    <!-- Generator: Sketch 53.2 (72643) - https://sketchapp.com -->
    <title>goal_15_target_15_9</title>
    <desc>Created with Sketch.</desc>
    <g id="goal_15_target_15_9" stroke="none" stroke-width="1" fill="none" fill-rule="evenodd">
        <g id="Group-127" fill-rule="nonzero">
            <rect id="Rectangle" fill="#56C02B" x="1.45661261e-12" y="-2.13162821e-14" width="94.8" height="94.8"></rect>
            <g id="Group" transform="translate(6.700000, 7.000000)" fill="#FFFFFF">
                <g transform="translate(60.000000, 21.000000)" id="Path">
                    <path d="M7.3,5.3 C7.6,6.1 8.1,6.9 8.8,7.5 C9.9,8.6 11.1,9.2 11.4,8.9 C11.7,8.6 11.4,8 10.8,7.2 C11.7,7.4 12.4,7.4 12.6,7.1 C12.8,6.8 11.8,5.8 10.3,5.3 C9.5,4.9 8.6,4.7 7.7,4.8 C7.7,4.7 7.8,4.5 7.8,4.4 C7.8,4.2 7.8,4 7.8,3.8 C7.8,3.6 7.7,3.3 7.7,3.1 L7.5,3 C7.3,3 7,3.1 6.8,3.2 C6.6,3.3 6.4,3.4 6.3,3.5 L6,3.8 C5.7,2.9 5.1,2.2 4.4,1.7 C3.2,0.7 2,0.2 1.7,0.5 C1.4,0.8 1.8,1.4 2.4,2.1 C1.4,1.9 0.7,2 0.6,2.3 C0.5,2.6 1.5,3.5 3,4 C3.8,4.3 4.7,4.4 5.6,4.3 L7.3,5.3 Z"></path>
                    <path d="M6.8,5.9 L5.1,4.9 C5,5.1 4.9,5.4 4.9,5.6 L6.3,6.4 C6.5,6.2 6.6,6.1 6.8,5.9 Z"></path>
                    <polygon points="5.8 7 4.7 6.2 4.4 6.9 5.3 7.5"></polygon>
                    <path d="M4.8,8 L4.2,7.6 C4.1,7.9 4,8.2 3.9,8.5 L4.1,8.6 L4.8,8 Z"></path>
                </g>
                <g transform="translate(26.000000, 15.000000)">
                    <path d="M1.4,20.1 L28.2,20.1 C28.5,20.1 28.7,20.3 28.7,20.6 L28.7,21.7 C28.7,22 28.5,22.2 28.2,22.2 L1.4,22.2 C1.1,22.2 0.9,22 0.9,21.7 L0.9,20.6 C0.9,20.3 1.1,20.1 1.4,20.1 Z" id="Path"></path>
                    <path d="M1.4,40.2 L28.2,40.2 C28.5,40.2 28.7,40.4 28.7,40.7 L28.7,42.8 C28.7,43.1 28.5,43.3 28.2,43.3 L1.4,43.3 C1.1,43.3 0.9,43.1 0.9,42.8 L0.9,40.7 C0.9,40.4 1.1,40.2 1.4,40.2 Z" id="Path"></path>
                    <path d="M1,18.2 C1,18.3 1,18.3 1,18.4 L1,18.4 C1,18.6 1.2,18.8 1.4,18.8 L28.2,18.8 C28.4,18.8 28.6,18.6 28.6,18.4 L28.6,18.2 C26.9,10.6 19.3,5.8 11.7,7.6 C6.4,8.7 2.2,12.8 1,18.2 L1,18.2 Z" id="Path"></path>
                    <path d="M27.3,39 C27.6,39 27.8,38.8 27.8,38.5 C27.8,38.5 27.8,38.5 27.8,38.5 L27.8,24 C27.8,23.7 27.6,23.5 27.3,23.5 C27.3,23.5 27.3,23.5 27.3,23.5 L2.3,23.5 C2,23.5 1.8,23.7 1.8,24 L1.8,24 L1.8,38.5 C1.8,38.8 2,39 2.3,39 C2.3,39 2.3,39 2.3,39 L27.3,39 Z M20.1,25.5 L24.4,25.5 L24.4,37 L20.1,37 L20.1,25.5 Z M12.8,25.5 L17.1,25.5 L17.1,37 L12.8,37 L12.8,25.5 Z M5.7,25.5 L10,25.5 L10,37 L5.7,37 L5.7,25.5 Z" id="Shape"></path>
                    <path d="M16,0.2 L14.7,0.2 L14.7,5.4 C15.2,5.3 15.8,5.3 16.3,5.4 C17.3,5.4 18.2,5.8 18.9,6.4 C19.6,6.9 20.4,7.1 21.2,7.2 L23.2,7.2 L23.2,2 L21.2,2 C20.1,2 19,1.6 18.1,0.8 C17.5,0.4 16.8,0.2 16,0.2 Z" id="Path"></path>
                </g>
                <path d="M5.8,11.3 L20.8,18.1 L22.3,17.6 L19.5,16.4 L15.4,12.4 L16.2,11.4 L25.9,5.7 L14.2,5.1 L11.2,9.3 L7.2,8.5 C7.2,8.5 3.7,10.7 4.4,12.1 C4.7,11.6 5.8,11.3 5.8,11.3 Z" id="Path"></path>
                <g transform="translate(64.000000, 0.000000)" id="Path">
                    <path d="M8.1,3.5 C5.6,3.5 3.6,5.5 3.6,8 C3.6,10.5 5.6,12.5 8.1,12.5 C10.6,12.5 12.6,10.5 12.6,8 C12.6,5.5 10.6,3.5 8.1,3.5 Z"></path>
                    <path d="M0.7,8.4 L2.7,8.4 C2.9,8.4 3,8.2 3,8 C3,7.8 2.8,7.6 2.7,7.6 L0.7,7.6 C0.5,7.6 0.3,7.8 0.4,8 C0.3,8.2 0.5,8.4 0.7,8.4 Z"></path>
                    <path d="M13.3,8 C13.3,8.2 13.5,8.4 13.6,8.4 L15.6,8.4 C15.8,8.4 15.9,8.2 15.9,8 C15.9,7.8 15.7,7.6 15.6,7.6 L13.6,7.6 C13.4,7.6 13.3,7.8 13.3,8 Z"></path>
                    <path d="M8.1,2.8 C8.3,2.8 8.5,2.6 8.5,2.5 L8.5,0.5 C8.5,0.3 8.3,0.2 8.1,0.1 C7.9,0.1 7.7,0.3 7.7,0.5 L7.7,2.5 C7.7,2.7 7.9,2.8 8.1,2.8 Z"></path>
                    <path d="M8.1,13.1 C7.9,13.1 7.7,13.3 7.7,13.4 L7.7,15.4 C7.7,15.6 7.9,15.7 8.1,15.7 C8.3,15.7 8.4,15.5 8.5,15.4 L8.5,13.4 C8.5,13.3 8.3,13.1 8.1,13.1 Z"></path>
                    <path d="M1.4,4.6 L3.1,5.6 C3.3,5.7 3.5,5.6 3.6,5.4 C3.7,5.2 3.6,5 3.5,4.9 L1.8,3.9 C1.6,3.8 1.4,3.9 1.3,4.1 C1.2,4.3 1.3,4.5 1.4,4.6 Z"></path>
                    <path d="M12.7,11 L14.4,12 C14.6,12.1 14.8,12 14.9,11.8 C15,11.6 14.9,11.4 14.8,11.3 L13.1,10.3 C12.9,10.2 12.7,10.3 12.6,10.5 C12.5,10.7 12.6,10.9 12.7,11 Z"></path>
                    <path d="M11.2,3.4 L12.2,1.7 C12.3,1.5 12.2,1.3 12,1.2 C11.8,1.1 11.7,1.2 11.6,1.3 L10.6,3 C10.5,3.2 10.6,3.4 10.8,3.5 C10.8,3.6 11.1,3.5 11.2,3.4 Z"></path>
                    <path d="M5.1,12.6 L4.1,14.3 C4,14.5 4.1,14.7 4.3,14.8 C4.4,14.9 4.6,14.8 4.7,14.7 L5.7,13 C5.8,12.8 5.7,12.6 5.5,12.5 C5.4,12.4 5.2,12.4 5.1,12.6 Z"></path>
                    <path d="M5.1,3.4 C5.2,3.6 5.4,3.6 5.6,3.5 C5.8,3.4 5.8,3.2 5.7,3 L4.7,1.3 C4.6,1.1 4.4,1.1 4.2,1.2 C4,1.3 4,1.5 4,1.7 L5.1,3.4 Z"></path>
                    <path d="M10.7,12.4 C10.5,12.5 10.5,12.7 10.5,12.9 L11.5,14.6 C11.6,14.8 11.8,14.8 12,14.7 C12.2,14.6 12.2,14.4 12.1,14.2 L11.1,12.5 C11.1,12.4 10.9,12.3 10.7,12.4 Z"></path>
                    <path d="M13.1,5.5 L14.8,4.5 C15,4.4 15,4.2 14.9,4 C14.8,3.8 14.6,3.8 14.4,3.8 L12.7,4.8 C12.5,4.9 12.5,5.1 12.6,5.3 C12.7,5.5 12.9,5.6 13.1,5.5 Z"></path>
                    <path d="M3.2,10.4 L1.5,11.4 C1.3,11.5 1.3,11.7 1.4,11.9 C1.5,12.1 1.7,12.1 1.9,12.1 L3.6,11.1 C3.8,11 3.8,10.8 3.7,10.6 C3.6,10.4 3.4,10.3 3.2,10.4 Z"></path>
                </g>
                <path d="M8.1,51.9 L9.8,51.9 L9.8,58.1 C9.8,58.2 9.9,58.3 10,58.3 L12.8,58.3 C12.9,58.3 13,58.2 13,58.1 L13,51.8 L16,51.8 C18.3,51.8 20.1,49.9 20.1,47.6 C20.1,46.6 19.7,45.6 19,44.8 C20.9,43.7 21.5,41.4 20.5,39.5 C19.8,38.3 18.5,37.5 17.1,37.5 L16.9,37.5 C16.7,34.6 14.2,32.4 11.3,32.5 C8.5,32.7 6.3,35 6.3,37.9 C6.3,38.7 6.5,39.5 6.8,40.2 C3.6,40.9 1.6,44.1 2.4,47.3 C3,50 5.3,51.9 8.1,51.9 L8.1,51.9 Z" id="Path"></path>
                <g transform="translate(59.000000, 43.000000)" id="Path">
                    <path d="M20,4.5 L20.4,3.7 L20.6,2.3 C20.9,1.9 20.9,1.3 20.7,0.8 C20.2,0.7 19.8,1.4 19.8,1.4 C19.5,1.3 19.1,1.3 18.8,1.3 C18.5,1.3 18.2,1.3 17.9,1.4 C17.7,1 17.3,0.9 16.9,1 C16.8,1.3 16.8,1.7 17,2 L13.2,3.9 L8.6,4.4 C5.6,4.4 4.3,6 4.2,8.3 C4.1,9.7 3.7,11.1 3,12.3 C1.8,13.5 1,11.5 1.1,11.1 C1.6,10.9 1.9,10.5 1.9,9.9 C1.9,9.9 -0.4,10.1 1.1,12.5 C1.5,13.2 2.4,13.4 3,13 C3.1,13 3.1,12.9 3.2,12.9 L3.7,15.1 L3.9,15.4 L5.2,15.4 L5.3,14.8 L4.7,14.5 L4.4,13.2 L8,9 L9.9,9.6 L15,10 L16.1,14.2 L16.3,15.1 L17.7,15.3 L18.1,14.8 L17.1,14.1 L17.1,9.5 L19.2,4.9 L20,4.5 Z"></path>
                    <path d="M9,15.3 L10.1,15.3 L10.3,14.7 L9.4,14.3 L8.7,13 L9.9,9.8 L8.3,9.4 L7.6,10.2 C8,11.1 8,12.2 7.5,13 L9,15.3 Z"></path>
                </g>
                <path d="M80.6,74.2 L80.6,74.2 L80.3,74.3 C77.8,75.6 69.9,78.6 62.8,71.8 C62.7,71.7 62.5,71.6 62.4,71.6 C62.2,71.6 62.1,71.7 62,71.8 C59.9,73.4 50.1,80 41.4,71.9 L41.3,71.8 C41.2,71.7 41.1,71.7 40.9,71.7 C40.8,71.7 40.7,71.8 40.6,71.8 L40.5,71.9 C31.8,80 22,73.4 19.9,71.8 C19.8,71.7 19.7,71.6 19.5,71.6 C19.3,71.6 19.2,71.7 19.1,71.8 C12,78.6 4.1,75.5 1.6,74.3 L1.4,74.2 L1,74.2 C0.7,74.2 0.5,74.4 0.5,74.7 C0.5,74.7 0.5,74.7 0.5,74.7 L0.5,78.1 C0.5,78.2 0.6,78.3 0.6,78.4 C8.8,85.6 16.7,78.9 18.5,77.1 C18.6,77 18.6,77 18.7,76.9 C18.8,76.9 18.8,76.8 18.9,76.8 C19,76.8 19.2,76.9 19.3,77 C28.6,85.9 38.4,78.7 40.4,77 L40.6,76.8 C40.6,76.8 40.7,76.7 40.8,76.7 C40.9,76.7 40.9,76.7 41,76.8 L41.2,77 C43.2,78.7 53,85.9 62.3,77 L62.3,77 C62.4,76.9 62.5,76.9 62.6,76.9 C62.7,76.9 62.8,76.9 62.9,77 C63,77 63,77.1 63,77.1 C64.8,78.9 72.6,85.6 80.9,78.4 C81,78.3 81,78.2 81,78.1 L81,74.7 C81,74.5 80.8,74.3 80.6,74.2 C80.6,74.2 80.6,74.2 80.6,74.2" id="Path"></path>
                <path d="M1,62.8 L80.6,62.8 C80.9,62.8 81.2,63.1 81.2,63.4 L81.2,67 C81.2,67.3 80.9,67.6 80.6,67.6 L1,67.6 C0.7,67.6 0.4,67.3 0.4,67 L0.4,63.4 C0.5,63.1 0.7,62.8 1,62.8 Z" id="Path"></path>
            </g>
        </g>
    </g>
</svg>