<?xml version="1.0" encoding="UTF-8"?>
<svg width="95px" height="95px" viewBox="0 0 95 95" version="1.1" xmlns="http://www.w3.org/2000/svg" xmlns:xlink="http://www.w3.org/1999/xlink">
    <!-- Generator: Sketch 53.2 (72643) - https://sketchapp.com -->
    <title>goal_10_target_10_6</title>
    <desc>Created with Sketch.</desc>
    <g id="goal_10_target_10_6" stroke="none" stroke-width="1" fill="none" fill-rule="evenodd">
        <g id="Group-78" fill-rule="nonzero">
            <rect id="Rectangle" fill="#DD1367" x="-3.62376795e-13" y="-2.13162821e-14" width="94.8" height="94.8"></rect>
            <g id="Group" transform="translate(10.700000, 9.000000)" fill="#FFFFFF">
                <g transform="translate(37.000000, 0.000000)" id="Shape">
                    <path d="M18.2,0.2 C8.3,0.2 0.2,8.3 0.2,18.2 C0.2,28.1 8.3,36.2 18.2,36.2 C28.1,36.2 36.2,28.1 36.2,18.2 L36.2,18.2 C36.1,8.2 28.1,0.2 18.2,0.2 Z M18.2,34.9 C9,34.9 1.5,27.5 1.5,18.3 C1.5,9.1 8.9,1.6 18.1,1.6 C27.3,1.6 34.8,9 34.8,18.2 L34.8,18.2 C34.8,27.3 27.4,34.8 18.2,34.9 Z"></path>
                    <path d="M18.2,2.4 C9.4,2.4 2.3,9.5 2.3,18.2 C2.3,26.9 9.4,34 18.1,34.1 C26.9,34.1 34,27 34,18.3 C34,9.5 27,2.4 18.2,2.4 C18.2,2.4 18.2,2.4 18.2,2.4 Z M32.4,15.7 C32.4,15.9 32.4,16.1 32.3,16.2 C32.2,16.3 32,16.5 31.9,16.5 L31.8,16.5 C31.7,16.5 31.5,16.5 31.4,16.4 C31.3,16.3 31.1,16.1 31.1,16 C31.1,15.8 31.1,15.6 31.2,15.5 C31.4,15.2 31.8,15.1 32.1,15.3 C32.1,15.3 32.1,15.3 32.1,15.3 C32.2,15.3 32.3,15.5 32.4,15.7 Z M31.4,12.9 C31.7,13.1 31.9,13.4 31.8,13.8 C31.7,14 31.6,14.1 31.4,14.2 L31.2,14.2 C31.1,14.2 31,14.2 30.9,14.1 C30.7,14 30.6,13.9 30.5,13.7 C30.4,13.5 30.4,13.4 30.5,13.2 C30.6,13 30.7,12.9 30.9,12.8 C31,12.8 31.2,12.9 31.4,12.9 Z M29.4,11.2 C29.4,11 29.6,10.9 29.7,10.8 C30,10.6 30.4,10.7 30.6,11 C30.6,11 30.6,11 30.6,11 L30.6,11 C30.7,11.2 30.7,11.3 30.7,11.5 C30.7,11.7 30.5,11.8 30.4,11.9 C30.3,12 30.2,12 30.1,12 L29.9,12 C29.7,12 29.6,11.8 29.5,11.7 C29.3,11.5 29.3,11.3 29.4,11.2 Z M24.4,6 C24.5,5.8 24.6,5.7 24.8,5.7 C25.1,5.6 25.5,5.8 25.6,6.1 C25.6,6.1 25.6,6.2 25.6,6.2 C25.6,6.4 25.6,6.5 25.5,6.7 C25.4,6.9 25.3,7 25.1,7 L24.9,7 C24.8,7 24.7,7 24.6,6.9 C24.4,6.8 24.3,6.7 24.3,6.5 C24.3,6.3 24.3,6.1 24.4,6 L24.4,6 Z M23,16.4 C22.9,16.4 22.8,16.3 22.8,16.2 L22.8,16.2 L22.8,15.3 L25.2,15.3 L25.2,16.2 C25.2,16.3 25.1,16.4 25,16.4 L25,16.4 L25,22.3 L23.1,22.3 C23.1,22.3 23,16.4 23,16.4 Z M18.2,14.6 L10.6,14.6 L10.6,14.1 L25.8,14.1 L25.8,14.6 L18.2,14.6 Z M17.2,16.4 C17.1,16.4 17,16.3 17,16.2 L17,16.2 L17,15.3 L19.4,15.3 L19.4,16.2 C19.4,16.3 19.3,16.4 19.2,16.4 L19.2,16.4 L19.2,22.3 L17.3,22.3 C17.3,22.3 17.2,16.4 17.2,16.4 Z M11.5,16.4 C11.4,16.4 11.3,16.3 11.3,16.2 L11.3,16.2 L11.3,15.3 L13.7,15.3 L13.7,16.2 C13.7,16.3 13.6,16.4 13.5,16.4 L13.5,16.4 L13.5,22.3 L11.6,22.3 C11.6,22.3 11.5,16.4 11.5,16.4 Z M18.2,13.5 L10.1,13.5 L9.8,13.2 C9.7,13.1 9.7,13 9.8,12.9 C9.8,12.9 9.8,12.9 9.8,12.9 L9.9,12.9 L18.3,9.8 L26.7,12.9 C26.8,13 26.8,13.1 26.7,13.2 C26.7,13.2 26.7,13.2 26.7,13.2 L26.7,13.2 L26.4,13.5 L18.2,13.5 Z M22.2,5.1 C22.4,4.8 22.7,4.6 23.1,4.7 C23.3,4.8 23.4,4.9 23.5,5.1 C23.6,5.3 23.6,5.4 23.5,5.6 C23.4,5.8 23.3,5.9 23.1,6 C23,6 22.9,6.1 22.8,6.1 C22.4,6.1 22.1,5.8 22.1,5.4 C22.2,5.2 22.2,5.2 22.2,5.1 Z M20.2,4.2 C20.5,4 20.9,4 21.1,4.3 C21.1,4.3 21.1,4.3 21.1,4.3 C21.1,4.4 21.1,4.4 21.2,4.4 C21.4,4.7 21.3,5.1 21,5.3 C21,5.3 21,5.3 21,5.3 C20.9,5.4 20.8,5.4 20.6,5.4 L20.5,5.4 C20.3,5.4 20.2,5.3 20.1,5.1 C20,4.9 20,4.7 20,4.6 C19.9,4.5 20,4.3 20.2,4.2 Z M18.2,3.8 C18.6,3.8 18.9,4.1 18.9,4.5 C18.9,4.9 18.6,5.2 18.2,5.2 C17.8,5.2 17.5,4.9 17.5,4.5 C17.5,4.5 17.5,4.5 17.5,4.5 C17.5,4.1 17.8,3.8 18.2,3.8 C18.2,3.8 18.2,3.8 18.2,3.8 Z M15.6,4.1 C15.8,4.1 16,4.1 16.1,4.2 C16.2,4.3 16.4,4.5 16.4,4.6 C16.5,5 16.3,5.3 15.9,5.4 L15.8,5.4 C15.5,5.4 15.2,5.1 15.1,4.8 C15,4.5 15.3,4.2 15.6,4.1 L15.6,4.1 Z M13.2,4.7 C13.4,4.6 13.5,4.6 13.7,4.7 C13.9,4.8 14,4.9 14,5.1 C14.1,5.3 14.1,5.4 14,5.6 C13.9,5.8 13.8,5.9 13.6,6 L13.4,6 C13,6 12.7,5.7 12.7,5.3 C12.7,5.3 12.7,5.3 12.7,5.3 C12.8,5 13,4.8 13.2,4.7 Z M10.9,5.8 C11.2,5.6 11.6,5.7 11.8,6 C12,6.3 11.9,6.7 11.6,6.9 L11.6,6.9 C11.3,7.1 10.9,7 10.7,6.7 C10.7,6.7 10.7,6.7 10.7,6.7 L10.7,6.7 C10.5,6.4 10.6,6 10.9,5.8 C10.9,5.8 10.9,5.8 10.9,5.8 Z M5.7,11.1 C5.8,10.9 5.9,10.8 6.1,10.8 C6.3,10.8 6.5,10.8 6.6,10.9 C6.9,11.1 7,11.5 6.8,11.8 C6.8,11.8 6.8,11.8 6.7,11.9 C6.6,12.2 6.2,12.3 6,12.1 C6,12.1 5.9,12.1 5.9,12.1 C5.6,11.8 5.4,11.4 5.7,11.1 Z M4.6,13.3 C4.8,13 5.1,12.8 5.5,12.9 C5.7,13 5.8,13.1 5.9,13.3 C6,13.5 6,13.6 5.9,13.8 C5.8,14.1 5.5,14.2 5.3,14.3 L5.1,14.3 C4.7,14.1 4.5,13.7 4.6,13.3 C4.6,13.3 4.6,13.3 4.6,13.3 Z M4.7,15.2 C4.9,15.2 5,15.3 5.1,15.5 C5.2,15.7 5.2,15.8 5.2,16 C5.1,16.3 4.8,16.6 4.5,16.6 L4.4,16.6 C4,16.5 3.8,16.2 3.8,15.8 L3.8,15.8 C4,15.4 4.4,15.1 4.7,15.2 L4.7,15.2 Z M3.7,18.2 C3.7,17.8 4,17.5 4.4,17.5 C4.8,17.5 5.1,17.8 5.1,18.2 C5.1,18.6 4.8,18.9 4.4,18.9 C4,18.9 3.7,18.6 3.7,18.2 C3.7,18.2 3.7,18.2 3.7,18.2 Z M4,20.7 C4,20.5 4,20.3 4.1,20.2 C4.2,20.1 4.4,20 4.5,19.9 C4.9,19.9 5.2,20.1 5.2,20.5 C5.2,20.8 5,21.1 4.7,21.2 L4.6,21.2 C4.4,21.3 4.1,21.1 4,20.9 C4,20.8 4,20.7 4,20.7 Z M5.3,23.6 C5,23.6 4.8,23.4 4.7,23.1 C4.6,22.9 4.6,22.8 4.7,22.6 C4.8,22.4 4.9,22.3 5.1,22.2 C5.5,22.1 5.9,22.3 6,22.7 C6.1,23 5.9,23.4 5.6,23.5 L5.6,23.5 C5.5,23.5 5.4,23.5 5.3,23.6 Z M6.6,25.7 C6.5,25.8 6.4,25.8 6.3,25.8 C5.9,25.8 5.6,25.5 5.6,25.1 C5.6,25.1 5.6,25.1 5.6,25.1 C5.6,24.9 5.7,24.6 5.9,24.5 C6.2,24.3 6.6,24.4 6.8,24.7 C6.8,24.7 6.8,24.7 6.8,24.7 C7,25 6.9,25.4 6.6,25.7 Z M7.1,9 C7.4,8.7 7.8,8.7 8.1,8.9 L8.1,8.9 C8.4,9.1 8.5,9.5 8.3,9.8 C8.3,9.8 8.3,9.8 8.2,9.9 L8.2,9.9 C8.1,10.1 7.9,10.1 7.7,10.1 C7.5,10.1 7.4,10 7.3,10 C7,9.9 6.8,9.5 7,9.2 C7,9.1 7,9 7.1,9 Z M8.1,27.6 C7.9,27.8 7.5,27.9 7.3,27.7 C7.3,27.7 7.3,27.7 7.2,27.6 C7,27.3 7,26.8 7.3,26.6 C7.6,26.4 8.1,26.4 8.3,26.7 C8.5,27 8.4,27.4 8.1,27.6 Z M8.9,7.2 C9.1,7 9.5,6.9 9.8,7.2 C9.8,7.2 9.8,7.2 9.8,7.2 L9.9,7.3 C10.2,7.6 10.1,8 9.8,8.3 C9.8,8.3 9.8,8.3 9.8,8.3 L9.8,8.3 C9.6,8.5 9.2,8.6 9,8.4 C9,8.4 9,8.4 8.9,8.3 C8.6,8.1 8.6,7.7 8.8,7.4 C8.8,7.4 8.8,7.4 8.8,7.4 C8.8,7.2 8.9,7.2 8.9,7.2 Z M9.9,29.2 C9.8,29.4 9.6,29.4 9.4,29.4 C9.2,29.4 9.1,29.3 9,29.2 C8.7,28.9 8.7,28.5 8.9,28.2 L8.9,28.2 C9,28 9.2,28 9.4,28 C9.6,28 9.8,28 9.9,28.2 C10.1,28.5 10.1,28.9 9.9,29.2 Z M10.2,23.9 L10.8,23.9 L10.8,23 C10.8,22.9 10.8,22.9 10.9,22.9 L25.9,22.9 C26,22.9 26,22.9 26,23 L26,23.9 L26.4,23.9 L26.4,24.9 L10.1,24.9 L10.2,23.9 Z M12,30.5 C11.8,30.8 11.4,30.9 11.1,30.7 C10.8,30.5 10.7,30.1 10.9,29.8 C11.1,29.5 11.5,29.4 11.8,29.6 C12,29.8 12.1,30.1 12,30.5 Z M14.2,31.4 C14.1,31.7 13.9,31.9 13.6,31.9 L13.4,31.9 C13,31.8 12.9,31.4 13,31 C13.1,30.8 13.2,30.7 13.4,30.6 C13.7,30.4 14.1,30.6 14.3,30.9 C14.2,31 14.2,31.2 14.2,31.4 Z M15.8,32.5 L15.8,32.5 C15.3,32.5 15.1,32.1 15.1,31.7 C15.1,31.3 15.5,31.1 15.9,31.1 C16.1,31.1 16.2,31.2 16.3,31.4 C16.4,31.5 16.5,31.7 16.4,31.9 C16.4,32.2 16.1,32.4 15.8,32.5 Z M18.2,32.7 C17.8,32.7 17.5,32.4 17.5,32 C17.5,31.6 17.8,31.3 18.2,31.3 C18.6,31.3 18.9,31.6 18.9,32 L18.9,32 L18.9,32 C18.9,32.3 18.6,32.6 18.2,32.7 C18.2,32.7 18.2,32.7 18.2,32.7 Z M21.2,32.2 C21.1,32.3 20.9,32.5 20.8,32.5 L20.7,32.5 C20.3,32.6 20,32.3 19.9,31.9 C19.8,31.5 20.1,31.2 20.5,31.1 L20.5,31.1 C20.7,31.1 20.9,31.1 21,31.2 C21.1,31.3 21.3,31.5 21.3,31.6 C21.2,31.7 21.2,32 21.2,32.2 Z M23.2,31.8 C23,31.9 22.9,31.9 22.7,31.8 C22.5,31.7 22.4,31.6 22.3,31.4 C22.2,31.2 22.2,31.1 22.3,30.9 C22.4,30.7 22.5,30.6 22.7,30.6 C22.9,30.5 23,30.5 23.2,30.6 C23.5,30.8 23.7,31.1 23.6,31.5 C23.5,31.6 23.4,31.7 23.2,31.8 Z M25.4,30.7 C25.3,30.8 25.2,30.8 25.1,30.8 C24.9,30.8 24.6,30.7 24.5,30.5 C24.4,30.3 24.3,30.1 24.4,30 C24.5,29.9 24.6,29.7 24.7,29.6 C24.9,29.5 25,29.5 25.2,29.5 C25.4,29.5 25.5,29.7 25.6,29.8 C25.8,30.1 25.7,30.5 25.4,30.7 C25.4,30.7 25.4,30.7 25.4,30.7 L25.4,30.7 Z M27.4,29.3 C27.2,29.5 26.8,29.6 26.6,29.4 C26.6,29.4 26.6,29.4 26.5,29.3 C26.2,29 26.3,28.6 26.6,28.3 C26.6,28.3 26.6,28.3 26.6,28.3 L26.6,28.3 C26.9,28 27.3,28.1 27.6,28.4 C27.6,28.4 27.6,28.4 27.6,28.4 L27.6,28.4 C27.8,28.6 27.7,29 27.4,29.3 Z M27.5,8.2 C27.4,8.3 27.2,8.4 27,8.4 L26.9,8.4 C26.7,8.4 26.6,8.3 26.5,8.2 C26.4,8.1 26.3,7.9 26.3,7.7 C26.3,7.5 26.3,7.3 26.5,7.2 C26.7,6.9 27.1,6.8 27.4,7 C27.6,7.1 27.7,7.3 27.7,7.6 C27.7,7.8 27.6,8 27.5,8.2 Z M29.2,27.5 C29.1,27.6 28.9,27.7 28.7,27.7 L28.6,27.7 C28.4,27.7 28.3,27.6 28.2,27.5 C27.9,27.2 27.9,26.8 28.1,26.5 L28.1,26.5 C28.2,26.4 28.4,26.3 28.6,26.3 C28.8,26.3 29,26.3 29.1,26.5 C29.4,26.7 29.4,27.1 29.2,27.5 Z M29.1,9.9 C29,10 28.9,10 28.7,10.1 L28.6,10.1 C28.4,10.1 28.3,10 28.1,9.9 C28,9.8 27.9,9.6 27.9,9.4 C27.9,9.2 28,9.1 28.1,8.9 C28.2,8.8 28.4,8.7 28.6,8.7 C28.8,8.7 28.9,8.8 29.1,8.9 C29.4,9.3 29.4,9.7 29.1,9.9 Z M30.6,25.5 C30.5,25.7 30.4,25.8 30.2,25.8 L30,25.8 C29.9,25.8 29.8,25.8 29.7,25.7 C29.4,25.5 29.2,25.1 29.4,24.8 C29.5,24.6 29.6,24.5 29.8,24.5 C30,24.5 30.2,24.5 30.3,24.6 C30.5,24.7 30.6,24.8 30.6,25 C30.7,25.1 30.7,25.3 30.6,25.5 L30.6,25.5 Z M31.7,23.2 C31.6,23.4 31.5,23.5 31.4,23.6 C31.3,23.6 31.2,23.7 31.1,23.7 L30.9,23.7 C30.5,23.6 30.4,23.2 30.5,22.8 L30.5,22.8 C30.6,22.6 30.7,22.5 30.8,22.4 C31,22.3 31.1,22.3 31.3,22.4 C31.6,22.5 31.8,22.8 31.7,23.2 C31.7,23.2 31.7,23.2 31.7,23.2 Z M32,21.2 C31.9,21.3 31.8,21.3 31.6,21.3 L31.5,21.3 C31.1,21.2 30.9,20.9 30.9,20.5 C30.9,20.3 31,20.2 31.2,20.1 C31.3,20 31.5,20 31.7,20 C32.1,20.1 32.3,20.4 32.3,20.8 C32.3,20.9 32.2,21.1 32,21.2 Z M31.9,18.9 C31.5,18.9 31.2,18.6 31.2,18.2 C31.2,17.8 31.5,17.5 31.9,17.5 C32.3,17.5 32.6,17.8 32.6,18.2 C32.6,18.2 32.6,18.2 32.6,18.2 C32.6,18.5 32.3,18.9 31.9,18.9 L31.9,18.9 Z"></path>
                </g>
                <g transform="translate(0.000000, 15.000000)">
                    <path d="M18,11 C21,11 23.4,8.6 23.4,5.6 C23.4,2.6 21,0.2 18,0.2 C15,0.2 12.6,2.6 12.6,5.6 L12.6,5.6 C12.6,8.6 15,11 18,11 C18,11 18,11 18,11 Z" id="Path"></path>
                    <path d="M24.2,13.1 L11.7,13.1 C8.4,13.4 5.8,15.9 5.3,19.2 L30.7,19.2 C30.2,15.9 27.5,13.4 24.2,13.1 Z" id="Path"></path>
                    <path d="M18,33.4 C14,33.4 10.7,36.7 10.7,40.7 C10.7,44.7 14,48 18,48 C22,48 25.3,44.7 25.3,40.7 C25.3,36.6 22,33.4 18,33.4 Z M13.4,35.9 C13.5,35.9 13.5,36 13.6,36 C13.7,36 13.6,36.4 13.5,36.4 C13.4,36.6 13.1,36.8 12.8,36.7 L12.7,36.7 C12.9,36.4 13.1,36.1 13.4,35.9 L13.4,35.9 Z M12.4,37.1 C12.5,37 12.7,37 12.8,37 C13,37 13.2,37.1 13.2,37.2 C13.2,37.3 12.8,37.5 12.7,37.6 C12.6,37.7 12.1,38.3 11.9,38.3 L11.8,38.3 C11.9,37.8 12.1,37.4 12.4,37.1 L12.4,37.1 Z M18,47.4 C17.3,47.4 16.6,47.3 16,47.1 L16,47 C16.2,46.5 16.7,46.2 17.3,46.2 C18.4,46.1 19.9,46.9 20.1,46.8 C20.3,46.7 20.8,46.1 21.5,46.1 L21.8,46.1 C20.7,46.9 19.4,47.4 18,47.4 Z M16.7,42.9 C17,42.4 17.5,42.4 17.1,43.2 C17,43.4 16.7,44.5 16.6,44.4 C16.5,44.3 16.7,43 16.7,42.9 L16.7,42.9 Z M19.5,41.4 C19.7,41.4 20.1,41.7 19.9,41.8 C19.7,41.9 19.4,41.9 19.2,41.7 C19.1,41.6 19.4,41.4 19.5,41.4 L19.5,41.4 Z M22.6,45.6 C22.3,45.5 22.3,45.7 22.1,45.7 C21.9,45.7 22.3,45.2 21.8,45.6 C21.3,46 21.4,45.5 21.2,44.9 C21.1,44.3 21.4,43.7 21.9,43.4 C22.3,43.2 22.7,43.1 23.1,43.1 C23.9,42.9 24.1,42.4 24.2,42.7 C24.2,42.8 24.3,42.8 24.3,42.9 C23.9,43.9 23.3,44.8 22.6,45.6 L22.6,45.6 Z M22.9,41.9 C22.8,41.9 22.8,41.8 22.7,41.6 C22.6,41.4 22.8,41.3 22.9,41.4 C23,41.5 23.2,41.7 23.2,41.8 C23.2,41.9 23,41.9 22.9,41.9 L22.9,41.9 Z M23.6,42.5 C23.4,42.6 23.1,42.6 22.9,42.4 C22.7,42.3 23,42 23.1,42 C23.4,42.1 23.8,42.4 23.6,42.5 L23.6,42.5 Z M24.6,40.8 C24.6,41.2 24.6,41.7 24.5,42.1 C24.1,41.7 24,41 24.4,40.5 C24.5,40.4 24.2,40 24.3,40 C24.4,40 24.5,40 24.6,40.1 L24.6,40.8 Z M23.8,39.6 C23.7,39.5 23.4,39.2 23.4,39.7 C23.4,40.2 23.9,40.2 23.4,40.5 C22.9,40.8 22.9,40.7 22.7,40.8 C22.4,41 22.3,41.3 22.3,41.6 C22.4,41.9 23,42.6 22.5,42.5 C22.1,42.3 21.7,42 21.4,41.6 C21.3,41.3 21.2,40.9 21,40.6 C20.9,40.3 20.6,40.2 20.4,40.4 C20.2,40.6 20.5,40.7 20.3,41.1 C20.1,41.5 20,41.8 19.7,41.5 C19,40.7 18.1,41.1 17.9,40.3 C17.8,39.8 17.4,39.9 17.1,39.6 C16.8,39.3 16.6,39.2 16.5,39.4 C16.4,39.6 17.5,40.4 17.6,40.7 C17.7,41 17.3,41.3 16.9,41.4 C16.5,41.5 16.4,41.2 16.1,40.9 C15.8,40.6 15.7,40.4 15.6,40.5 L15.6,40.6 C15.6,41 15.9,41.4 16.2,41.7 C16.5,41.9 16.8,42 16.7,42.2 C16.6,42.4 16.7,42.3 16.4,42.6 L16.4,43.4 C16.4,43.7 16.3,44 16.2,44.2 C16.1,44.6 16,44.3 15.8,44.8 C15.7,45.1 15.6,45.4 15.4,45.7 C15.2,45.9 14.8,46.1 14.5,46.1 C14.4,46.1 14.4,46.1 14.4,46 C14.2,45.8 14.2,45.2 14.2,44.8 C14.2,44.6 14,45.1 13.9,44.2 C13.8,43.6 13.5,44.3 13.4,43.9 C13.3,43.5 13.2,43.6 13,43.4 C12.8,43.2 12.6,43.4 12.3,43.5 C12,43.6 12.1,43.7 11.9,43.6 C11.5,42.8 11.3,41.8 11.3,40.9 C11.3,40.6 11.3,40.4 11.4,40.1 C11.6,39.8 11.6,39.7 11.7,39.7 C11.8,39.7 11.9,39.6 12,39.6 L12.2,39.5 C12.6,39.6 12.9,39.7 13.3,39.8 C13.7,40 14.1,40.1 14.5,40.2 L14.7,40.2 C15,40.1 15.2,39.9 15.1,39.7 C15,39.5 14.9,39.4 14.6,39.5 C14.5,39.6 14.3,39.1 14.1,39.1 C13.9,39.1 14.3,39.7 14.2,39.7 C14.1,39.7 13.8,39.1 13.7,39 C13.6,38.9 13.4,38.7 13.3,38.8 C12.9,39.2 12.2,39.2 12.1,39.3 C12,39.3 12,39.3 12,39.4 C11.8,39.5 11.7,39.4 11.7,39.2 C11.7,39 11.8,38.9 11.8,38.8 C12,38.7 12.3,38.7 12.5,38.8 C12.7,38.9 12.8,38.8 12.9,38.7 C13,38.6 12.9,38.5 12.9,38.4 C12.9,38.3 13,38.2 13.1,38.2 C13.3,38.1 13.5,38 13.6,37.9 C13.9,37.8 14.3,37.8 14.6,37.9 C14.8,38 15.1,37.9 15.3,37.8 C15.5,37.6 15.7,37.4 15.8,37.4 C15.9,37.4 15.6,37 15.3,37.4 C15,37.8 14.9,37.8 14.7,37.8 C14.5,37.8 13.8,37.6 13.7,37.3 C13.6,37 13.9,36.9 14.2,36.7 C14.5,36.5 15.3,36.6 15.5,36.5 C15.9,36.4 16.4,36.2 16.7,36.4 C17,36.6 15.6,36.9 16,37.1 C16.2,37.2 16.9,36.7 17.1,36.6 C17.7,36.3 16.5,36.2 16.7,35.6 C16.9,35 15.5,35.1 14.7,35.2 C15.7,34.6 16.9,34.2 18.1,34.2 C21.4,34.2 24.2,36.6 24.7,39.8 C24.4,39.9 24,39.8 23.8,39.6 L23.8,39.6 Z" id="Shape"></path>
                    <path d="M31.5,21.7 L0.2,21.7 L0.2,24.9 L2.8,24.9 L2.8,61.9 L33.5,61.9 L33.5,24.9 L36.1,24.9 L36.1,21.7 L31.5,21.7 Z M30.5,41.8 C30.5,42.1 30.2,42.3 29.9,42.4 C29.6,42.5 29.3,42.5 28.9,42.5 C28.6,42.5 28.3,42.8 28.2,43.1 C28,43.7 27.8,44.3 27.6,44.9 C27.5,45.2 27.6,45.6 27.9,45.7 C28.2,45.9 28.4,46.1 28.6,46.3 C28.9,46.4 29,46.8 28.8,47 C28.8,47 28.8,47.1 28.8,47.1 C28.4,47.8 28,48.5 27.4,49 C27.2,49.2 26.9,49.3 26.6,49.1 C26.3,48.9 26,48.8 25.7,48.6 C25.4,48.4 25,48.4 24.8,48.7 C24.8,48.7 24.8,48.7 24.8,48.7 C24.3,49.1 23.8,49.5 23.3,49.8 C23,50 23,50.3 23.1,50.7 L23.4,51.6 C23.5,51.9 23.4,52.3 23.1,52.4 C22.4,52.8 21.7,53 20.9,53.2 C20.6,53.3 20.3,53.1 20.2,52.8 C20.2,52.8 20.2,52.8 20.2,52.8 C20.1,52.5 19.9,52.2 19.8,51.9 C19.7,51.3 19.4,51.1 19,51.1 L17.1,51.1 C16.7,51.1 16.4,51.3 16.4,51.7 C16.3,52 16.2,52.3 16.1,52.6 C16.1,52.9 15.8,53.1 15.5,53 C15.5,53 15.4,53 15.4,53 C14.6,52.9 13.8,52.6 13.1,52.3 C12.8,52.2 12.7,51.9 12.8,51.6 C12.8,51.6 12.8,51.6 12.8,51.6 C12.9,51.2 12.9,51 13,50.6 C13.1,50.3 13,49.9 12.7,49.7 C12.2,49.4 11.7,49 11.2,48.6 C10.9,48.4 10.5,48.5 10.3,48.7 C10,48.9 9.8,49 9.5,49.2 C9.2,49.4 8.8,49.4 8.6,49.1 C8.6,49.1 8.6,49.1 8.6,49.1 C8,48.5 7.6,47.9 7.2,47.2 C7,47 7.1,46.6 7.3,46.4 C7.3,46.4 7.4,46.4 7.4,46.4 C7.7,46.2 8,46 8.2,45.7 C8.5,45.5 8.6,45.1 8.4,44.8 C8.4,44.8 8.4,44.8 8.4,44.8 C8.2,44.2 8,43.6 7.8,43 C7.7,42.6 7.4,42.5 7,42.5 L6.1,42.5 C5.8,42.5 5.5,42.3 5.5,42.1 C5.5,42 5.5,42 5.5,41.9 C5.4,41.1 5.4,40.3 5.5,39.5 C5.5,39.2 5.8,39 6.1,38.9 C6.4,38.8 6.7,38.8 7.1,38.8 C7.4,38.8 7.7,38.5 7.8,38.2 C8,37.6 8.2,37 8.4,36.4 C8.5,36.1 8.4,35.7 8.1,35.6 C7.8,35.4 7.6,35.2 7.4,35 C7.1,34.9 7,34.5 7.2,34.3 C7.2,34.3 7.2,34.2 7.2,34.2 C7.6,33.5 8,32.8 8.6,32.3 C8.8,32.1 9.1,32 9.4,32.2 C9.7,32.4 10,32.5 10.3,32.7 C10.6,32.9 11,32.9 11.2,32.6 C11.2,32.6 11.2,32.6 11.2,32.6 C11.6,32.3 12.4,31.7 12.7,31.5 C13,31.3 13,31 12.9,30.6 L12.6,29.7 C12.5,29.4 12.6,29 12.9,28.9 C13.6,28.5 14.3,28.3 15.1,28.1 C15.4,28 15.7,28.2 15.8,28.5 C15.8,28.5 15.8,28.5 15.8,28.5 C15.9,28.8 16.1,29.1 16.2,29.4 C16.3,29.7 16.7,29.9 17,29.9 L18.9,29.9 C19.3,29.9 19.6,29.7 19.6,29.3 C19.7,29 19.8,28.7 19.9,28.4 C19.9,28.1 20.2,27.9 20.5,28 C20.5,28 20.6,28 20.6,28 C21.4,28.1 22.2,28.4 22.9,28.7 C23.2,28.8 23.3,29.1 23.2,29.4 C23.2,29.4 23.2,29.4 23.2,29.4 C23.1,29.8 23.1,30 23,30.4 C22.9,30.7 23,31.1 23.3,31.3 C23.8,31.6 24.3,32 24.8,32.4 C25.1,32.6 25.5,32.5 25.7,32.3 C26,32.1 26.2,32 26.5,31.8 C26.7,31.6 27,31.6 27.2,31.8 C27.2,31.8 27.2,31.9 27.3,31.9 C27.9,32.5 28.3,33.1 28.7,33.8 C28.9,34 28.8,34.4 28.6,34.6 C28.6,34.6 28.5,34.6 28.5,34.6 C28.2,34.8 27.9,35 27.7,35.3 C27.4,35.5 27.3,35.9 27.5,36.2 C27.5,36.2 27.5,36.2 27.5,36.2 C27.7,36.8 27.9,37.4 28.1,38 C28.2,38.4 28.5,38.5 28.9,38.5 L29.8,38.5 C30.1,38.5 30.4,38.7 30.4,38.9 C30.4,38.9 30.4,39 30.4,39.1 C30.5,39.9 30.6,40.9 30.5,41.8 Z" id="Shape"></path>
                </g>
            </g>
        </g>
    </g>
</svg>