<?xml version="1.0" encoding="UTF-8"?>
<svg width="95px" height="95px" viewBox="0 0 95 95" version="1.1" xmlns="http://www.w3.org/2000/svg" xmlns:xlink="http://www.w3.org/1999/xlink">
    <!-- Generator: Sketch 53.2 (72643) - https://sketchapp.com -->
    <title>goal_6_target_6_a</title>
    <desc>Created with Sketch.</desc>
    <g id="goal_6_target_6_a" stroke="none" stroke-width="1" fill="none" fill-rule="evenodd">
        <g id="Group-46" fill-rule="nonzero">
            <rect id="Rectangle" fill="#26BDE2" x="-3.62376795e-13" y="-2.13162821e-14" width="94.8" height="94.8"></rect>
            <g id="Group" transform="translate(8.700000, 12.000000)" fill="#FFFFFF">
                <path d="M8,23.4 C7.7,23.7 7.2,23.9 6.7,23.8 C6.2,23.8 5.8,23.7 5.4,23.4 C4.8,22.8 4.7,21.8 5.2,21.1 C5.4,20.8 6.6,18.9 6.7,18.8 L6.7,18.8 C6.8,19 8,20.8 8.2,21.1 C8.7,21.8 8.6,22.8 8,23.4" id="Path"></path>
                <path d="M17.8,27.4 C17.1,28 16,28 15.3,27.4 C14.7,26.8 14.6,25.8 15.1,25.1 C15.3,24.8 16.5,22.9 16.6,22.8 L16.6,22.8 L16.6,22.8 L16.6,22.8 C16.7,23 17.9,24.8 18.1,25.1 C18.5,25.8 18.4,26.7 17.8,27.4" id="Path"></path>
                <path d="M13.5,5 C12.8,5.6 11.7,5.6 11,5 C10.4,4.4 10.3,3.4 10.8,2.7 C11,2.4 12.2,0.5 12.3,0.4 L12.3,0.4 C12.4,0.6 13.6,2.4 13.8,2.7 C14.1,3.4 14,4.4 13.5,5" id="Path"></path>
                <path d="M31,25.9 C30.3,26.5 29.2,26.5 28.5,25.9 C27.9,25.3 27.8,24.3 28.3,23.6 C28.5,23.3 29.7,21.4 29.8,21.3 L29.8,21.3 C29.9,21.5 31.1,23.3 31.3,23.6 C31.7,24.3 31.6,25.3 31,25.9" id="Path"></path>
                <path d="M7.1,12.6 C6.8,12.9 6.3,13.1 5.8,13 C5.3,13 4.9,12.9 4.5,12.6 C3.9,12 3.8,11 4.3,10.3 C4.5,10 5.7,8.1 5.8,8 L5.8,8 L5.8,8 L5.8,8 C5.9,8.2 7.1,10 7.3,10.3 C7.8,11 7.7,11.9 7.1,12.6" id="Path"></path>
                <path d="M20.6,11 C19.9,11.6 18.8,11.6 18.1,11 C17.5,10.4 17.4,9.4 17.9,8.7 C18.1,8.4 19.3,6.5 19.4,6.4 L19.4,6.4 C19.5,6.6 20.7,8.4 20.9,8.7 C21.3,9.5 21.2,10.4 20.6,11" id="Path"></path>
                <path d="M31.5,14.6 C30.8,15.2 29.7,15.2 29,14.6 C28.4,14 28.3,13 28.8,12.3 C29,12 30.2,10.1 30.3,10 L30.3,10 L30.3,10 L30.3,10 C30.4,10.2 31.6,12 31.8,12.3 C32.2,13 32.1,13.9 31.5,14.6" id="Path"></path>
                <path d="M27.2,5.5 C26.5,6.1 25.4,6.1 24.7,5.5 C24.1,4.9 24,3.9 24.5,3.2 C24.7,2.9 25.9,1 26,0.9 L26,0.9 C26.1,1.1 27.3,2.9 27.5,3.2 C27.9,3.9 27.8,4.9 27.2,5.5" id="Path"></path>
                <path d="M15,17.6 C14.7,17.9 14.2,18.1 13.7,18 C13.2,18 12.8,17.9 12.4,17.6 C11.8,17 11.7,16 12.2,15.3 C12.4,15 13.6,13.1 13.7,13 L13.7,13 C13.8,13.2 15,15 15.2,15.3 C15.7,16 15.6,17 15,17.6" id="Path"></path>
                <path d="M24.5,20.1 C23.8,20.7 22.7,20.7 22,20.1 C21.4,19.5 21.3,18.5 21.8,17.8 C22,17.5 23.2,15.6 23.3,15.5 L23.3,15.5 C23.4,15.7 24.6,17.5 24.8,17.8 C25.2,18.6 25.1,19.5 24.5,20.1" id="Path"></path>
                <g transform="translate(0.000000, 31.000000)">
                    <polygon id="Path" points="35.4 0.1 35.4 26 1.5 26 1.5 0.1 0.2 0.1 0.2 27.3 36.7 27.3 36.7 0.1"></polygon>
                    <path d="M3.4,12.9 L3.4,12.9 C10,19 16.9,13.9 18.3,12.7 L18.4,12.6 C18.4,12.6 18.5,12.6 18.5,12.6 C18.5,12.6 18.6,12.6 18.6,12.6 L18.7,12.7 C20.1,13.9 26.9,18.9 33.4,13 L33.6,12.8 C33.7,12.7 33.7,12.7 33.7,12.6 L33.7,9.4 C33.7,9.2 33.6,9.1 33.4,9.1 C33.4,9.1 33.4,9.1 33.4,9.1 L33.3,9.1 L33.2,9.2 C31.2,10.6 24.7,14.5 18.8,9.1 L18.9,9 C18.8,8.9 18.7,8.9 18.6,8.9 C18.5,8.9 18.4,8.9 18.4,9 L18.3,9.1 C12.5,14.5 6.1,10.8 4,9.3 L3.8,9.2 C3.7,9.2 3.7,9.2 3.6,9.2 C3.4,9.2 3.3,9.3 3.3,9.5 L3.3,12.7 L3.3,12.7 L3.3,12.7 C3.4,12.7 3.4,12.8 3.4,12.9 Z" id="Path"></path>
                    <path d="M3.4,20.2 L3.4,20.2 C10,26.3 16.9,21.3 18.3,20 L18.5,19.9 C18.5,19.9 18.6,19.9 18.6,19.9 C18.6,19.9 18.7,19.9 18.7,19.9 L18.8,20 C20.2,21.2 27,26.2 33.5,20.3 L33.7,20.1 C33.8,20 33.8,20 33.8,19.9 L33.8,16.6 C33.8,16.4 33.7,16.3 33.5,16.3 C33.5,16.3 33.5,16.3 33.5,16.3 C33.5,16.3 33.4,16.3 33.4,16.3 L33.3,16.4 C31.3,17.8 24.8,21.8 18.9,16.3 L18.8,16.2 C18.7,16.1 18.6,16.1 18.5,16.1 C18.4,16.1 18.3,16.1 18.3,16.2 L18.2,16.3 C12.4,21.7 6,18 3.9,16.5 L3.7,16.4 C3.6,16.4 3.6,16.4 3.5,16.4 C3.3,16.4 3.2,16.5 3.2,16.7 L3.2,20 L3.2,20 L3.2,20 C3.4,20.1 3.4,20.2 3.4,20.2 Z" id="Path"></path>
                    <path d="M3.9,6.3 C4.2,6.3 4.4,6.1 4.4,5.8 C4.4,5.5 4.2,5.3 3.9,5.3 C3.6,5.3 3.4,5.5 3.4,5.8 C3.4,5.8 3.4,5.8 3.4,5.8 C3.4,6.1 3.6,6.3 3.9,6.3 C3.9,6.3 3.9,6.3 3.9,6.3 Z" id="Path"></path>
                    <circle id="Oval" cx="6.2" cy="5.8" r="1"></circle>
                    <circle id="Oval" cx="8.5" cy="5.8" r="1"></circle>
                    <path d="M10.8,6.3 C11.1,6.2 11.2,5.9 11.2,5.7 C11.2,5.5 11,5.4 10.8,5.3 C10.5,5.4 10.4,5.7 10.4,5.9 C10.5,6.1 10.6,6.3 10.8,6.3 Z" id="Path"></path>
                    <circle id="Oval" cx="13" cy="5.8" r="1"></circle>
                    <circle id="Oval" cx="15.3" cy="5.8" r="1"></circle>
                    <circle id="Oval" cx="17.6" cy="5.8" r="1"></circle>
                    <circle id="Oval" cx="19.9" cy="5.8" r="1"></circle>
                    <path d="M22.2,6.3 C22.5,6.3 22.7,6.1 22.7,5.8 C22.7,5.5 22.5,5.3 22.2,5.3 C21.9,5.3 21.7,5.5 21.7,5.8 C21.7,5.8 21.7,5.8 21.7,5.8 C21.6,6.1 21.9,6.3 22.2,6.3 L22.2,6.3 Z" id="Path"></path>
                    <circle id="Oval" cx="24.4" cy="5.8" r="1"></circle>
                    <circle id="Oval" cx="26.7" cy="5.8" r="1"></circle>
                    <circle id="Oval" cx="29" cy="5.8" r="1"></circle>
                    <path d="M31.3,6.3 C31.6,6.3 31.8,6.1 31.8,5.8 C31.8,5.5 31.6,5.3 31.3,5.3 C31,5.3 30.8,5.5 30.8,5.8 C30.8,5.8 30.8,5.8 30.8,5.8 C30.8,6.1 31,6.3 31.3,6.3 L31.3,6.3 Z" id="Path"></path>
                    <circle id="Oval" cx="33.5" cy="5.8" r="1"></circle>
                    <circle id="Oval" cx="5.2" cy="4" r="1"></circle>
                    <circle id="Oval" cx="7.5" cy="4" r="1"></circle>
                    <circle id="Oval" cx="9.7" cy="4" r="1"></circle>
                    <circle id="Oval" cx="12" cy="4" r="1"></circle>
                    <circle id="Oval" cx="14.3" cy="4" r="1"></circle>
                    <circle id="Oval" cx="16.6" cy="4" r="1"></circle>
                    <circle id="Oval" cx="18.9" cy="4" r="1"></circle>
                    <circle id="Oval" cx="21.1" cy="4" r="1"></circle>
                    <circle id="Oval" cx="23.4" cy="4" r="1"></circle>
                    <path d="M25.7,4.5 C26,4.5 26.2,4.3 26.2,4 C26.2,3.7 26,3.5 25.7,3.5 C25.4,3.5 25.2,3.7 25.2,4 C25.2,4.3 25.4,4.5 25.7,4.5 L25.7,4.5 Z" id="Path"></path>
                    <circle id="Oval" cx="28" cy="4" r="1"></circle>
                    <circle id="Oval" cx="30.2" cy="4" r="1"></circle>
                    <circle id="Oval" cx="32.5" cy="4" r="1"></circle>
                    <circle id="Oval" cx="4" cy="2.3" r="1"></circle>
                    <path d="M6.3,2.8 C6.6,2.7 6.8,2.5 6.7,2.2 C6.7,2 6.5,1.8 6.3,1.8 C6,1.7 5.8,1.9 5.7,2.2 C5.6,2.5 5.8,2.7 6.1,2.8 C6.2,2.8 6.3,2.8 6.3,2.8 Z" id="Path"></path>
                    <path d="M8.6,2.8 C8.9,2.8 9.1,2.6 9.1,2.3 C9.1,2 8.9,1.8 8.6,1.8 C8.3,1.8 8.1,2 8.1,2.3 C8.1,2.6 8.3,2.8 8.6,2.8 L8.6,2.8 Z" id="Path"></path>
                    <circle id="Oval" cx="10.9" cy="2.3" r="1"></circle>
                    <circle id="Oval" cx="13.2" cy="2.3" r="1"></circle>
                    <circle id="Oval" cx="15.4" cy="2.3" r="1"></circle>
                    <path d="M17.7,2.8 C18,2.7 18.2,2.5 18.1,2.2 C18.1,2 17.9,1.8 17.7,1.8 C17.4,1.7 17.2,1.9 17.1,2.2 C17,2.5 17.2,2.7 17.5,2.8 C17.6,2.8 17.6,2.8 17.7,2.8 Z" id="Path"></path>
                    <circle id="Oval" cx="20" cy="2.3" r="1"></circle>
                    <circle id="Oval" cx="22.3" cy="2.3" r="1"></circle>
                    <circle id="Oval" cx="24.5" cy="2.3" r="1"></circle>
                    <circle id="Oval" cx="26.8" cy="2.3" r="1"></circle>
                    <path d="M29.1,2.8 C29.4,2.8 29.6,2.6 29.6,2.3 C29.6,2 29.4,1.8 29.1,1.8 C28.8,1.8 28.6,2 28.6,2.3 C28.6,2.6 28.8,2.8 29.1,2.8 L29.1,2.8 Z" id="Path"></path>
                    <circle id="Oval" cx="31.4" cy="2.3" r="1"></circle>
                    <circle id="Oval" cx="33.7" cy="2.3" r="1"></circle>
                </g>
                <path d="M77.2,25.7 C77.1,25.6 77,25.6 76.9,25.6 L45.3,25.6 C45.2,25.6 45.1,25.6 45,25.7 C44.9,25.8 44.9,25.9 44.9,26 L50.2,58.1 C50.2,58.3 50.4,58.4 50.6,58.4 L57.1,58.4 L57.5,63.1 L55.9,63.1 C55.7,63.1 55.6,63.2 55.6,63.4 C55.6,63.5 55.6,63.5 55.7,63.6 L55.7,63.7 L60.9,70.4 L61,70.5 C61.1,70.6 61.2,70.6 61.3,70.6 C61.4,70.6 61.5,70.6 61.5,70.5 L61.5,70.5 L61.6,70.4 L66.7,63.7 L66.7,63.7 L66.7,63.7 C66.8,63.6 66.8,63.6 66.8,63.5 C66.8,63.3 66.7,63.2 66.5,63.2 L65,63.2 L65.4,58.5 L72,58.5 C72.2,58.5 72.3,58.4 72.4,58.2 L77.4,26.1 C77.3,25.9 77.3,25.8 77.2,25.7 Z M65,51.4 C62.8,53.1 59.7,53.1 57.4,51.4 C55.6,49.6 55.3,46.7 56.7,44.6 C57.2,43.6 60.9,38.2 61.2,37.7 L61.2,37.7 L61.2,37.7 L61.2,37.7 C61.5,38.2 65.2,43.6 65.7,44.6 C67,46.7 66.7,49.5 65,51.4 Z M75,32.4 C74,32.1 72.9,32.1 72,32.6 C68.1,34.2 65.4,34.8 61.3,33.5 C58.7,32.7 56.3,31 53.4,32 C51.6,32.8 49.6,33.3 47.6,33.3 L46.3,27 L75.9,27 L75,32.4 Z" id="Shape"></path>
            </g>
        </g>
    </g>
</svg>