<?xml version="1.0" encoding="UTF-8"?>
<svg width="95px" height="95px" viewBox="0 0 95 95" version="1.1" xmlns="http://www.w3.org/2000/svg" xmlns:xlink="http://www.w3.org/1999/xlink">
    <!-- Generator: Sketch 53.2 (72643) - https://sketchapp.com -->
    <title>goal_4_target_4_a</title>
    <desc>Created with Sketch.</desc>
    <g id="goal_4_target_4_a" stroke="none" stroke-width="1" fill="none" fill-rule="evenodd">
        <g id="Group-26" fill-rule="nonzero">
            <rect id="Rectangle" fill="#C5192D" x="-3.62376795e-13" y="-2.13162821e-14" width="94.8" height="94.8"></rect>
            <g id="Group" transform="translate(9.700000, 7.000000)" fill="#FFFFFF">
                <g transform="translate(1.000000, 0.000000)">
                    <path d="M37.5,7.2 L46.1,14.9 L72.7,14.9 L66.2,7.2 L47,7.2 C46.4,7.2 45.9,7 45.4,6.7 L37.5,0.9 L20.9,14.9 L28.9,14.9 L37.5,7.2 Z" id="Path"></path>
                    <path d="M21.7,44 L21.7,16.2 L20.7,16.2 L20.7,19.6 L6,19.6 L6,16.2 L5,16.2 L5,19.6 L1.8,19.6 L1.8,16.2 L0.8,16.2 L0.8,44 L1.8,44 L1.8,41.7 L5,41.7 L5,44 L5,44 L5,44.2 L6,44.2 L6,41.8 L20.7,41.8 L20.7,44 L21.7,44 Z M5,40.7 L1.8,40.7 L1.8,38.2 L5,38.2 L5,40.7 Z M5,37.2 L1.8,37.2 L1.8,34.7 L5,34.7 L5,37.2 Z M5,33.7 L1.8,33.7 L1.8,31.2 L5,31.2 L5,33.7 Z M5,30.2 L1.8,30.2 L1.8,27.7 L5,27.7 L5,30.2 Z M5,26.7 L1.8,26.7 L1.8,24.2 L5,24.2 L5,26.7 Z M5,23.2 L1.8,23.2 L1.8,20.7 L5,20.7 L5,23.2 Z M20.7,33.5 L14.6,30.7 L20.7,27.9 L20.7,33.5 Z M7.9,33.7 L13.3,31.2 L18.7,33.7 L7.9,33.7 Z M18.7,34.7 L13.3,37.2 L8,34.7 L18.7,34.7 Z M17.9,27.7 L18.8,27.7 L13.4,30.2 L8.1,27.8 L17.9,27.7 Z M7.9,26.7 L13.2,24.3 L18.5,26.7 L7.9,26.7 L7.9,26.7 Z M20.7,26.6 L14.4,23.7 L20.7,20.8 L20.7,26.6 Z M18.5,20.7 L13.1,23.2 L7.7,20.7 L18.5,20.7 Z M6,20.9 L12,23.6 L6,26.3 L6,20.9 Z M6,27.8 L12.1,30.6 L6,33.5 L6,27.8 Z M6,34.8 L12.2,37.6 L6,40.5 L6,34.8 Z M8,40.7 L13.4,38.2 L18.8,40.7 L8,40.7 Z M14.5,37.7 L20.6,34.9 L20.6,40.5 L14.5,37.7 Z" id="Shape"></path>
                    <rect id="Rectangle" x="37.9" y="44.9" width="10" height="1.2"></rect>
                    <path d="M45,16.3 L37.4,9.3 L29.3,16.3 L23,16.3 L23,44.1 L24.4,44.1 L32.9,42.2 L32.9,32.2 L37.1,32.2 L37.1,41.5 L37.6,41.5 L37.6,32.2 L42,32.2 L42,42.7 L37.9,42.7 L37.9,44.1 L69.6,44.1 L69.6,16.3 L45,16.3 Z M57.2,19.6 L60.4,19.6 L60.4,22 L57.2,22 L57.2,19.6 Z M57.2,22.5 L60.4,22.5 L60.4,27.9 L57.2,27.9 L57.2,22.5 Z M37.4,15.5 C39.4,15.5 41,17.1 41,19.1 C41,21.1 39.4,22.7 37.4,22.7 C35.4,22.7 33.8,21.1 33.8,19.1 C33.8,17.1 35.4,15.5 37.4,15.5 L37.4,15.5 Z M32.9,31.7 L32.9,30.9 C32.9,30.9 34.2,29.6 37.4,29.6 C40.6,29.6 42,30.9 42,30.9 L42,31.7 L32.9,31.7 Z M51.1,38.6 L47.9,38.6 L47.9,33.2 L51.1,33.2 L51.1,38.6 Z M51.1,32.7 L47.9,32.7 L47.9,30.3 L51.1,30.3 L51.1,32.7 Z M51.1,27.8 L47.9,27.8 L47.9,22.4 L51.1,22.4 L51.1,27.8 Z M54.9,38.6 L51.7,38.6 L51.7,33.2 L54.9,33.2 L54.9,38.6 Z M54.9,32.7 L51.7,32.7 L51.7,30.3 L54.9,30.3 L54.9,32.7 Z M54.9,27.8 L51.7,27.8 L51.7,22.4 L54.9,22.4 L54.9,27.8 Z M54.9,22 L51.7,22 L51.7,19.6 L51.2,19.6 L51.2,22 L48,22 L48,19.6 L54.9,19.6 L54.9,22 Z M60.4,38.7 L57.2,38.7 L57.2,33.2 L60.4,33.2 L60.4,38.7 Z M64.1,38.7 L60.9,38.7 L60.9,33.2 L64.1,33.2 L64.1,38.7 Z M64.1,32.7 L60.9,32.7 L60.9,30.4 L60.4,30.4 L60.4,32.7 L57.2,32.7 L57.2,30.4 L64.1,30.4 L64.1,32.7 Z M64.1,27.9 L60.9,27.9 L60.9,22.5 L64.1,22.5 L64.1,27.9 Z M64.1,22 L60.9,22 L60.9,19.6 L64.1,19.6 L64.1,22 Z" id="Shape"></path>
                    <polygon id="Path" points="29.9 44.1 21.1 46.1 36.8 46.1 36.8 42.6 32.9 43.5"></polygon>
                    <path d="M36,20.8 C36.1,20.8 36.1,20.8 36.2,20.7 L37.6,19.3 L37.6,16.5 C37.6,16.4 37.5,16.2 37.3,16.2 C37.1,16.2 37,16.3 37,16.5 L37,19 L35.8,20.3 C35.7,20.4 35.7,20.6 35.8,20.7 C35.9,20.7 36,20.7 36,20.8 L36,20.8 Z" id="Path"></path>
                </g>
                <g transform="translate(0.000000, 51.000000)" id="Path">
                    <g transform="translate(61.000000, 7.000000)">
                        <path d="M11.7,8.5 C11.7,8.5 11.3,7.1 10.1,7.1 L9,7.1 L5.8,7.1 C5.5,7.1 5.2,7 5,6.7 C4.6,6.3 3.4,4.1 3.3,4 L2.7,3 C2.5,2.7 2.2,2.5 1.9,2.5 C1.3,2.5 0.9,2.9 0.9,3.5 C0.9,3.6 0.9,3.8 1,3.9 L4.3,9.8 C4.4,10 4.4,10.2 4.5,10.4 L4.5,11.1 C4.5,11.3 4.5,11.5 4.4,11.7 L3.2,16.5 L4.6,16.5 L4.6,20.7 L4.6,20.7 C4.6,21.4 5.2,22 5.9,22 C6,22 6.1,22 6.3,21.9 C6.8,21.7 7.2,21.2 7.2,20.6 L7.2,16.6 C7.2,16.5 7.2,16.5 7.2,16.4 L8,16.4 C8,16.5 8,16.5 8,16.6 L8,20.6 C8,21.2 8.3,21.7 8.9,21.9 C9.6,22.1 10.3,21.8 10.6,21.1 C10.6,21 10.7,20.8 10.7,20.7 L10.7,16.5 L12.1,16.5 L10.2,9.9 C10.2,9.9 10.1,9.6 10.4,9.5 C10.7,9.4 10.7,9.7 10.7,9.7 L12.3,14.6 C12.4,15.1 12.9,15.4 13.4,15.3 C14.2,15.1 13.9,14.2 13.9,14.2 L11.7,8.5 Z"></path>
                        <path d="M7.7,5.9 C9.2,5.9 10.3,4.7 10.3,3.3 C10.3,1.9 9.1,0.7 7.7,0.7 C6.3,0.7 5.1,1.9 5.1,3.3 L5.1,3.3 C5.1,4.7 6.3,5.9 7.7,5.9 Z"></path>
                    </g>
                    <g transform="translate(0.000000, 7.000000)">
                        <path d="M7.3,5.7 C8.7,5.7 9.9,4.5 9.9,3.1 C9.9,1.7 8.7,0.5 7.3,0.5 C5.9,0.5 4.7,1.7 4.7,3.1 C4.7,3.1 4.7,3.1 4.7,3.1 C4.7,4.6 5.9,5.7 7.3,5.7 C7.3,5.7 7.3,5.7 7.3,5.7 Z"></path>
                        <path d="M13.5,13.3 C13.5,13.2 12.7,11.3 12.5,10.8 C10.9,6.8 10.7,6.8 9.3,6.8 L5.3,6.8 C3.9,6.8 3.6,6.8 2.1,10.8 C1.9,11.4 0.9,13.6 0.9,13.7 C0.9,13.8 0.5,14.7 1.4,15 C2.3,15.3 2.5,14.3 2.5,14.3 L4.1,10.4 C4.1,10.4 4.1,10.3 4.2,10.3 C4.3,10.3 4.3,10.4 4.3,10.4 L4.3,20.6 L4.3,20.6 C4.3,21.3 4.8,22 5.6,22 C5.6,22 5.6,22 5.7,22 C6.4,22 7,21.4 7,20.7 C7,20.7 7,20.7 7,20.6 L7,16.5 C7,16.5 7,15.9 7.4,15.9 C7.8,15.9 7.8,16.5 7.8,16.5 L7.8,20.6 C7.8,21.3 8.3,22 9.1,22 C9.1,22 9.1,22 9.2,22 C9.9,22 10.5,21.4 10.5,20.7 C10.5,20.7 10.5,20.6 10.5,20.6 L10.5,20.6 L10.5,10.4 C10.5,10.3 10.5,10.3 10.5,10.3 C10.5,10.3 10.6,10.4 10.6,10.4 L12.1,13.9 C12.1,13.9 12.5,14.8 13.3,14.5 C14.1,14.2 13.5,13.3 13.5,13.3 Z"></path>
                    </g>
                    <g transform="translate(47.000000, 0.000000)">
                        <path d="M8.6,7.4 L3.1,7.4 C1.6,7.6 0.4,8.9 0.4,10.4 L0.4,16.8 C0.5,17.3 0.9,17.7 1.4,17.6 C1.8,17.6 2.2,17.2 2.2,16.8 L2.2,11.4 C2.2,11.2 2.3,10.9 2.6,10.9 C2.9,10.9 2.9,11.2 2.9,11.3 L2.9,27.7 C2.9,28.4 3.5,29 4.2,29 C4.9,29 5.5,28.4 5.5,27.7 L5.5,18.2 C5.5,18 5.6,17.8 5.8,17.8 C5.8,17.8 5.8,17.8 5.8,17.8 L5.8,17.8 C6,17.8 6.2,17.9 6.2,18.1 C6.2,18.1 6.2,18.1 6.2,18.1 L6.2,27.6 C6.3,28.3 6.9,28.8 7.6,28.8 C8.2,28.7 8.7,28.3 8.8,27.6 L8.8,11.3 C8.8,11.1 8.9,10.9 9.1,10.9 C9.3,10.9 9.5,11.2 9.5,11.4 L9.5,16.9 C9.5,17.4 9.9,17.8 10.4,17.8 C10.9,17.8 11.3,17.4 11.3,16.9 L11.3,10.5 C11.4,8.9 10.2,7.6 8.6,7.4 Z"></path>
                        <g transform="translate(2.000000, 0.000000)">
                            <path d="M5.6,3.6 C5.4,3.4 5.2,3.2 4.8,3.4 C4.4,3.6 4.5,3.6 4.2,3.7 C3.3,4.1 2.3,4.3 1.3,4.3 C1.4,5.7 2.7,6.8 4.1,6.7 C5.3,6.6 6.3,5.6 6.4,4.4 C6.2,4.1 5.9,3.8 5.6,3.6 Z"></path>
                            <path d="M2.4,3.6 C2.9,3.5 3.5,3.4 4,3.1 C4.3,3 4.5,2.9 4.8,2.8 C5,2.7 5.2,2.7 5.3,2.7 C5.4,2.7 5.5,2.8 5.5,2.9 L5.7,3.1 C5.7,3.1 5.8,3.2 6.4,3.7 C6.5,3.8 6.5,3.8 6.6,3.8 C6.7,3.8 6.7,3.4 6.6,3.1 C6.5,2.4 6.2,1.8 5.8,1.3 C5.7,1.3 5.5,1.1 5.3,1.1 C5.1,1.1 4.7,0.9 4.5,0.8 C3.8,0.6 3.1,0.7 2.5,1.1 C1.7,1.7 1.1,2.5 0.7,3.5 C0.6,3.7 1,3.8 1.2,3.8 C1.7,3.7 2,3.7 2.4,3.6 Z"></path>
                        </g>
                    </g>
                    <g transform="translate(29.000000, 7.000000)">
                        <path d="M13.8,12.6 C13.5,12.1 13,11.9 12.5,12 L9.9,12 L9.9,8 C9.9,7.1 9.1,6.3 8.2,6.3 L7.5,6.3 C7.4,6.3 7.2,6.3 7.1,6.4 L7.1,6.4 L6.8,6.5 L3.4,7.6 L3.3,7.6 L3.2,7.6 L3.2,7.6 C3,7.7 2.9,7.9 2.8,8.1 L1.8,11 C1.6,11.5 1.9,12 2.4,12.2 C2.9,12.4 3.4,12.1 3.6,11.6 L3.6,11.6 L4.5,9.1 L5.9,8.7 L5.9,8.7 L5.9,13.5 C5.9,13.8 6,14 6.1,14.2 C6.3,14.8 6.9,15.2 7.5,15.2 L12.3,15.2 L14.4,18.9 C14.8,19.5 15.5,19.7 16.1,19.4 L16.2,19.4 C16.8,19.1 17,18.3 16.7,17.7 L13.8,12.6 Z"></path>
                        <path d="M11.8,17 L10.4,17 C9.8,19.3 7.5,20.7 5.2,20.1 C2.9,19.5 1.5,17.2 2.1,14.9 C2.2,14.6 2.3,14.3 2.4,14.1 L2.3,14 L2.2,13.9 L1.2,13.3 L1.1,13.2 L1,13.1 C0.5,14 0.3,14.9 0.3,15.9 C0.5,19.2 3.3,21.7 6.6,21.6 C9.3,21.5 11.5,19.6 12.1,16.9 L11.8,17 L11.8,17 Z"></path>
                        <path d="M8.1,5.4 C9.5,5.4 10.6,4.3 10.6,2.9 C10.6,1.5 9.5,0.4 8.1,0.4 C6.7,0.4 5.6,1.5 5.6,2.8 C5.6,4.3 6.7,5.4 8.1,5.4 C8.1,5.4 8.1,5.4 8.1,5.4 Z"></path>
                    </g>
                    <g transform="translate(16.000000, 1.000000)">
                        <path d="M8.3,7.3 L3.1,7.3 C1.6,7.5 0.4,8.8 0.4,10.3 L0.4,16.5 C0.3,17 0.7,17.4 1.2,17.4 C1.7,17.5 2.1,17.1 2.1,16.6 C2.1,16.5 2.1,16.5 2.1,16.4 L2.1,11.1 C2.1,10.9 2.2,10.6 2.5,10.6 C2.8,10.6 2.8,10.9 2.8,11 L2.8,26.8 C2.9,27.5 3.5,28 4.1,27.9 C4.7,27.8 5.2,27.4 5.2,26.8 L5.2,17.7 C5.2,17.5 5.3,17.3 5.5,17.3 C5.5,17.3 5.5,17.3 5.5,17.3 L5.5,17.3 C5.7,17.3 5.8,17.4 5.8,17.6 C5.8,17.6 5.8,17.6 5.8,17.7 L5.8,26.8 C5.8,27.5 6.4,28 7,28 C7.7,28 8.2,27.4 8.2,26.8 L8.2,11 C8.2,10.8 8.3,10.6 8.5,10.6 C8.7,10.6 8.9,10.9 8.9,11.1 L8.9,16.4 C8.9,16.9 9.3,17.3 9.8,17.3 C10.3,17.3 10.7,16.9 10.7,16.4 L10.7,10.2 C10.9,8.7 9.8,7.4 8.3,7.3 Z"></path>
                        <g transform="translate(1.000000, 0.000000)">
                            <path d="M2.4,1.4 C2.4,1.1 2,0.6 1.2,1 C0.2,1.4 0.4,2.9 0.4,2.9 C0.4,2.9 0.4,3.1 0.4,3.1 C0.4,3.1 0.7,2.5 1.5,2.4 C1.6,2.4 1.8,2.3 1.9,2.3 C2,2.1 2.2,1.8 2.4,1.6 C2.4,1.5 2.4,1.5 2.4,1.4 Z"></path>
                            <path d="M8.1,1 C7.3,0.6 7,1 6.9,1.4 C6.9,1.5 6.9,1.5 6.9,1.6 C7.1,1.8 7.2,2 7.3,2.2 C7.4,2.3 7.6,2.3 7.7,2.4 C8.5,2.5 8.7,2.9 8.8,3.1 C8.9,3.3 8.8,3.1 8.8,2.9 C8.8,2.7 9,1.5 8.1,1 Z"></path>
                            <path d="M4.6,1.1 C3.1,1.1 2,2.3 2,3.7 C2,5.1 3.2,6.3 4.6,6.3 C6.1,6.3 7.2,5.1 7.2,3.7 L7.2,3.7 C7.3,2.3 6.1,1.1 4.6,1.1 Z"></path>
                        </g>
                    </g>
                </g>
            </g>
        </g>
    </g>
</svg>