<?xml version="1.0" encoding="UTF-8"?>
<svg width="95px" height="95px" viewBox="0 0 95 95" version="1.1" xmlns="http://www.w3.org/2000/svg" xmlns:xlink="http://www.w3.org/1999/xlink">
    <!-- Generator: Sketch 53.2 (72643) - https://sketchapp.com -->
    <title>goal_10_target_10_c</title>
    <desc>Created with Sketch.</desc>
    <g id="goal_10_target_10_c" stroke="none" stroke-width="1" fill="none" fill-rule="evenodd">
        <g id="Group-82" fill-rule="nonzero">
            <rect id="Rectangle" fill="#DD1367" x="-3.62376795e-13" y="-2.13162821e-14" width="94.8" height="94.8"></rect>
            <g id="Group" transform="translate(5.700000, 18.000000)" fill="#FFFFFF">
                <g transform="translate(0.000000, 26.000000)" id="Path">
                    <path d="M6.8,5.8 C8.3,5.8 9.5,4.5 9.5,3 C9.5,1.5 8.2,0.3 6.7,0.3 C5.2,0.3 4,1.5 4,3 C4,4.6 5.3,5.8 6.8,5.8 C6.8,5.8 6.8,5.8 6.8,5.8 Z"></path>
                    <path d="M10,6.8 L3.5,6.8 C1.6,7 0.1,8.5 0.1,10.4 L0.1,18 C0.2,18.6 0.7,19 1.3,19 C1.8,19 2.2,18.5 2.3,18 L2.3,11.5 C2.3,11.3 2.4,10.9 2.8,10.9 C3.2,10.9 3.2,11.2 3.2,11.4 L3.2,31 C3.3,31.9 4,32.5 4.9,32.4 C5.7,32.3 6.3,31.7 6.3,31 L6.3,19.8 C6.3,19.6 6.5,19.4 6.7,19.4 C6.7,19.4 6.7,19.4 6.8,19.4 L6.8,19.4 C7,19.4 7.2,19.6 7.2,19.8 C7.2,19.8 7.2,19.8 7.2,19.8 L7.2,31 C7.3,31.9 8,32.5 8.9,32.4 C9.7,32.3 10.3,31.7 10.3,31 L10.3,11.5 C10.3,11.3 10.4,11 10.7,11 C11,11 11.2,11.2 11.2,11.5 C11.2,11.5 11.2,11.6 11.2,11.6 L11.2,18.1 C11.3,18.7 11.8,19.1 12.4,19.1 C12.9,19.1 13.3,18.6 13.4,18.1 L13.4,10.5 C13.4,8.6 11.9,7 10,6.8 Z"></path>
                </g>
                <g transform="translate(22.000000, 0.000000)">
                    <polygon id="Path" points="0.3 8 5.8 10.7 5.8 8.7 2.7 7.4 5.8 6.1 5.8 4 0.3 6.8"></polygon>
                    <path d="M13.7,6.8 C14.7,6.5 15.3,5.6 15.3,4.6 L15.3,3.4 C15.3,1.4 14.4,0.2 12.2,0.2 C9.8,0.2 9,1.6 9,3.7 L9,4.9 L11.1,4.9 L11.1,3.5 C11.1,2.7 11.4,2.2 12.1,2.2 C12.8,2.2 13.1,2.7 13.1,3.4 L13.1,4.9 C13.1,5.6 12.6,6 11.9,6 L11,6 L11,7.8 L12,7.8 C12.8,7.8 13.1,8.2 13.1,8.9 L13.1,11.2 C13.1,11.9 12.8,12.4 12.1,12.4 C11.4,12.4 11,11.9 11,11.1 L11,9.1 L8.9,9.1 L8.9,10.9 C8.9,13 9.7,14.3 12.1,14.3 C14.5,14.3 15.4,13.1 15.4,11.1 L15.4,9.1 C15.6,8 14.8,7 13.7,6.8 Z" id="Path"></path>
                    <path d="M23.9,8.3 C22.6,8.2 21.4,9.2 21.3,10.5 C21.3,10.7 21.3,10.8 21.3,11 L21.3,11.6 C21.2,13 22.3,14.3 23.7,14.3 C25.1,14.3 26.4,13.3 26.4,11.9 C26.4,11.8 26.4,11.7 26.4,11.6 L26.4,11 C26.6,9.7 25.6,8.5 24.3,8.3 C24.2,8.3 24.1,8.3 23.9,8.3 Z M24.7,11.8 C24.7,12.4 24.5,12.8 23.9,12.8 C23.3,12.8 23.1,12.4 23.1,11.8 L23.1,10.7 C23.1,10.1 23.3,9.7 23.9,9.7 C24.5,9.7 24.7,10.1 24.7,10.7 L24.7,11.8 Z" id="Shape"></path>
                    <path d="M19.3,6.3 C20.6,6.4 21.8,5.4 21.9,4.1 C21.9,3.9 21.9,3.8 21.9,3.6 L21.9,3 C22,1.6 20.9,0.3 19.5,0.3 C18.1,0.3 16.8,1.3 16.8,2.7 C16.8,2.8 16.8,2.9 16.8,3 L16.8,3.6 C16.6,4.9 17.6,6.1 18.9,6.3 C19,6.3 19.1,6.3 19.3,6.3 Z M18.5,2.7 C18.5,2.1 18.7,1.7 19.3,1.7 C19.9,1.7 20.1,2.1 20.1,2.7 L20.1,3.8 C20.1,4.4 19.9,4.8 19.3,4.8 C18.7,4.8 18.5,4.4 18.5,3.8 L18.5,2.7 Z" id="Shape"></path>
                    <polygon id="Path" points="24.7 0.4 17.1 14.2 18.5 14.2 26.1 0.4"></polygon>
                </g>
                <g transform="translate(56.000000, 27.000000)" id="Path">
                    <path d="M9.6,7.1 C11,7.1 12.2,6 12.2,4.6 C12.2,3.6 11.7,2.7 10.8,2.3 C10.9,2.2 10.9,2 11,1.9 C10.8,1.2 10.1,0.7 9.4,0.9 C8.9,1 8.5,1.4 8.4,1.9 C8.4,2 8.4,2.2 8.5,2.3 C7.6,2.7 7,3.6 7.1,4.6 C7,6 8.2,7.1 9.6,7.1 C9.6,7.1 9.6,7.1 9.6,7.1 Z"></path>
                    <path d="M17,16.5 L14.8,9.6 C14.8,9.6 14,7.6 12.3,7.6 L6.8,7.6 C5.1,7.6 4.3,9.6 4.3,9.6 L2.1,16.5 C2.1,16.5 1.8,17.5 2.6,18 C2.6,18 2.6,18.1 2.6,18.1 L0.1,31.1 C0.1,31.3 0.2,31.5 0.4,31.6 C0.4,31.6 0.4,31.6 0.4,31.6 L0.5,31.6 C0.7,31.6 0.9,31.5 0.9,31.3 L3.4,18.3 C3.4,18.3 3.4,18.2 3.4,18.2 C4.1,18.1 4.3,17.2 4.3,17.2 L6,11.4 C6,11.4 6.1,11 6.4,11.1 C6.7,11.2 6.6,11.7 6.6,11.7 L3.6,22.5 L6.4,22.5 L6.4,30.3 C6.4,31 7,31.6 7.8,31.6 C8.5,31.6 9.1,31 9.1,30.3 L9.1,22.6 L10,22.6 L10,30.4 C10,31.1 10.6,31.7 11.4,31.7 C12.1,31.7 12.7,31.1 12.7,30.4 L12.7,22.6 L15.5,22.6 L12.5,11.8 C12.5,11.8 12.4,11.3 12.7,11.2 C13,11.1 13.1,11.5 13.1,11.5 L14.8,17.3 C14.8,17.3 15.1,18.5 16.2,18.2 C17.3,17.9 17,16.5 17,16.5 Z"></path>
                </g>
                <g transform="translate(72.000000, 39.000000)" id="Path">
                    <path d="M6,5.1 C7.3,5.1 8.3,4.1 8.3,2.8 C8.3,1.5 7.3,0.5 6,0.5 C4.7,0.5 3.7,1.5 3.7,2.8 C3.7,4.1 4.7,5.1 6,5.1 L6,5.1 Z"></path>
                    <path d="M11.5,11.8 C11.5,11.7 10.8,10.1 10.6,9.6 C9.3,6 9,6 7.8,6 L4.3,6 C3.1,6 2.8,6 1.4,9.6 C1.2,10.1 0.4,12.1 0.4,12.2 C0.4,12.3 1.11022302e-16,13 0.8,13.3 C1.6,13.6 1.8,12.7 1.8,12.7 L3.2,9.2 C3.2,9.2 3.2,9.1 3.3,9.1 C3.4,9.1 3.4,9.2 3.4,9.2 L3.4,18.3 L3.4,18.3 C3.4,19 3.9,19.5 4.5,19.5 C4.5,19.5 4.5,19.5 4.5,19.5 C5.1,19.5 5.7,19 5.7,18.3 C5.7,18.3 5.7,18.3 5.7,18.2 L5.7,14.6 C5.7,14.6 5.7,14 6.1,14 C6.5,14 6.5,14.6 6.5,14.6 L6.5,18.2 C6.5,18.9 7,19.4 7.6,19.4 C7.6,19.4 7.6,19.4 7.7,19.4 C8.3,19.4 8.9,18.9 8.9,18.2 C8.9,18.2 8.9,18.2 8.9,18.1 L8.9,18.1 L8.9,9 C8.9,8.9 8.9,8.9 9,8.9 C9.1,8.9 9.1,9 9.1,9 L10.4,12.1 C10.4,12.1 10.8,12.9 11.5,12.6 C12.2,12.3 11.5,11.8 11.5,11.8 Z"></path>
                </g>
                <g transform="translate(19.000000, 34.000000)">
                    <path d="M14.8,21.2 C14.3,21.5 13.8,21.7 13.2,21.9 C11.6,22.4 10,22.6 8.3,22.5 C7.5,22.5 6.7,22.4 5.9,22.3 C5.4,22.2 4.9,22.1 4.4,22 C4.2,21.9 3.9,21.9 3.7,21.8 C3,21.6 2.4,21.3 1.8,20.9 C1.6,20.7 1.4,20.6 1.3,20.3 L1.3,21 C1.3,21.2 1.3,22 1.3,22 C1.3,22.4 1.5,22.8 1.9,23 C3,23.8 4.3,24.3 5.7,24.4 C6.6,24.5 7.5,24.6 8.5,24.6 C9.8,24.6 11.2,24.5 12.5,24.1 L12.5,24.1 C13.2,23.9 13.9,23.7 14.5,23.3 L14.5,23.3 C15.2,22.9 15.6,22.4 15.6,21.9 C15.6,21.9 15.6,20.5 15.6,20.3 C15.3,20.7 15.1,21 14.8,21.2 Z" id="Path"></path>
                    <path d="M7.8,16.3 C11.8,16.3 15,15.1 15,13.6 C15,13.6 15.1,12.2 15,11.9 C15,11.7 15,11.5 14.9,11.3 C15.3,11 15.6,10.6 15.7,10.1 C15.7,10.1 15.8,8.6 15.7,8.3 C15.5,6.5 11.9,5.5 8.5,5.5 C5.1,5.5 1.3,6.5 1.3,8.4 C1.3,8.5 1.4,10.1 1.4,10.1 C1.4,10.2 1.4,10.3 1.5,10.4 C1,10.7 0.6,11.2 0.6,11.8 C0.6,11.9 0.7,13.5 0.7,13.5 C0.7,13.9 0.9,14.3 1.3,14.5 C2.4,15.3 3.7,15.8 5.1,15.9 C5.9,16.3 6.9,16.3 7.8,16.3 Z M8.5,6.4 C12.3,6.4 15,7.5 15,8.6 C15,9.7 12.3,10.8 8.5,10.8 C4.7,10.8 2,9.7 2,8.6 C2,7.5 4.7,6.4 8.5,6.4 Z M1.3,12 C1.4,11.7 1.6,11.4 1.9,11.2 C2.1,11.4 2.4,11.6 2.6,11.7 C4.5,12.5 6.5,12.9 8.5,12.9 C10.2,12.9 11.9,12.7 13.6,12.1 C13.8,12 14,11.9 14.2,11.8 C14.2,11.9 14.2,11.9 14.2,12 C14.2,13 11.5,14.2 7.7,14.2 C3.9,14.2 1.3,13 1.3,12 Z" id="Shape"></path>
                    <path d="M5.7,21.8 C6.6,21.9 7.5,22 8.5,22 C9.8,22 11.2,21.9 12.5,21.5 L12.5,21.5 C13.2,21.3 13.9,21.1 14.5,20.7 L14.5,20.7 C14.7,20.6 14.8,20.5 15,20.4 C15.2,20.2 15.4,20 15.5,19.7 C15.5,19.6 15.6,19.5 15.6,19.3 C15.6,19.3 15.6,17.8 15.6,17.7 C15.4,18 14.8,18.9 11.9,19.5 C10.7,19.7 9.5,19.8 8.3,19.8 C6.3,19.8 4.4,19.5 2.6,18.7 C2.3,18.5 2,18.3 1.7,18.1 C1.5,17.9 1.4,17.8 1.3,17.6 C1.3,17.6 1.3,18.3 1.3,18.3 L1.3,19.3 C1.3,19.7 1.5,20.1 1.9,20.3 C2.9,21.2 4.2,21.7 5.7,21.8 Z" id="Path"></path>
                    <path d="M15.5,14.6 C15.4,14.5 15.4,14.5 15.3,14.4 C15.2,14.3 15.1,14.3 15,14.2 C14.9,14.4 14.8,14.5 14.7,14.6 C14.8,14.6 14.9,14.7 15,14.8 C15.2,14.9 15.3,15.1 15.3,15.4 C15.3,15.6 15.2,15.8 15,15.9 C14.9,16 14.8,16 14.7,16.1 L14.3,16.3 C14.3,16.3 13.9,16.5 13.7,16.6 L13.1,16.8 C13,16.8 12.5,17 12.3,17 C12.2,17 11.5,17.1 11.2,17.2 L10.1,17.3 C10,17.3 8.9,17.4 8.4,17.4 C7.6,17.4 6.9,17.3 6.1,17.2 C5.6,17.1 5,17 4.5,16.9 C3.9,16.8 3.3,16.6 2.8,16.4 C2.5,16.2 2.2,16 1.9,15.8 C1.7,15.6 1.5,15.3 1.3,15 L1.3,15.9 L1.3,16.8 C1.3,17.2 1.5,17.6 1.9,17.8 C3,18.6 4.3,19.1 5.7,19.2 C6.6,19.3 7.5,19.4 8.5,19.4 C9.8,19.4 11.2,19.3 12.5,19 L12.5,19 C13.2,18.8 13.9,18.6 14.5,18.2 L14.5,18.2 C14.7,18.1 14.8,18 15,17.9 C15.2,17.7 15.4,17.5 15.5,17.2 C15.5,17.1 15.6,17 15.6,16.8 C15.6,16.8 15.6,15.3 15.6,15.3 C15.6,15.2 15.6,15.1 15.6,14.9 C15.5,14.8 15.5,14.7 15.5,14.6 Z" id="Path"></path>
                    <path d="M24.2,11.1 C28.2,11.1 31.4,9.9 31.4,8.4 C31.4,8.4 31.5,7 31.5,6.7 C31.5,6.5 31.4,6.3 31.4,6.1 C31.8,5.8 32.1,5.4 32.2,4.9 C32.2,4.9 32.3,3.4 32.2,3.1 C32,1.3 28.4,0.3 25,0.3 C21.6,0.3 17.8,1.3 17.8,3.2 C17.8,3.3 17.9,4.9 17.9,4.9 C17.9,5 17.9,5.1 18,5.2 C17.5,5.5 17.1,6 17.1,6.6 C17.1,6.7 17.2,8.3 17.2,8.3 C17.2,8.7 17.4,9.1 17.8,9.3 C18.9,10.1 20.3,10.6 21.6,10.8 C22.4,11.1 23.3,11.2 24.2,11.1 Z M25,1.3 C28.8,1.3 31.5,2.4 31.5,3.5 C31.5,4.6 28.8,5.7 25,5.7 C21.2,5.7 18.5,4.6 18.5,3.5 C18.5,2.4 21.2,1.3 25,1.3 Z M17.8,6.8 C17.9,6.5 18.1,6.2 18.4,6 C18.6,6.2 18.9,6.4 19.1,6.5 C21,7.3 23,7.7 25,7.7 C26.7,7.7 28.4,7.5 30,7 C30.2,6.9 30.4,6.8 30.6,6.7 C30.6,6.8 30.6,6.8 30.6,6.9 C30.6,7.9 27.9,9.1 24.1,9.1 C20.3,9.1 17.8,7.9 17.8,6.8 L17.8,6.8 Z" id="Shape"></path>
                    <path d="M32.1,9.7 C32.1,9.6 32,9.5 31.9,9.4 C31.8,9.3 31.8,9.3 31.7,9.2 C31.6,9.1 31.5,9.1 31.4,9 C31.3,9.2 31.2,9.3 31.1,9.4 C31.2,9.4 31.3,9.5 31.4,9.6 C31.6,9.7 31.7,9.9 31.7,10.2 C31.7,10.4 31.6,10.6 31.4,10.7 C31.3,10.8 31.2,10.8 31.1,10.9 L30.7,11.1 C30.7,11.1 30.3,11.3 30.1,11.4 C30.1,11.4 29.7,11.6 29.5,11.6 C29.3,11.6 28.9,11.8 28.7,11.8 C28.6,11.8 27.9,11.9 27.6,12 L26.5,12.1 L24.8,12.2 C24,12.2 23.3,12.2 22.5,12 C22,11.9 21.4,11.8 20.9,11.7 C20.3,11.6 19.7,11.4 19.2,11.2 C18.9,11.1 18.6,10.9 18.3,10.6 C18.1,10.4 17.9,10.1 17.7,9.8 L17.7,10.7 L17.7,11.6 C17.7,12 17.9,12.4 18.3,12.6 C19.4,13.4 20.7,13.9 22.1,14 C23,14.1 23.9,14.2 24.9,14.2 C26.2,14.2 27.6,14.1 28.9,13.7 L28.9,13.7 C29.6,13.5 30.3,13.3 30.9,12.9 L30.9,12.9 C31.1,12.8 31.2,12.7 31.4,12.6 C31.6,12.4 31.8,12.2 31.9,11.9 C31.9,11.8 32,11.7 32,11.5 C32,11.5 32.1,10 32.1,10 C32.1,10 32.1,9.8 32.1,9.7 Z" id="Path"></path>
                    <path d="M31.3,16 C30.8,16.3 30.3,16.5 29.7,16.7 C28.1,17.2 26.5,17.4 24.8,17.3 C24,17.3 23.2,17.2 22.4,17.1 C21.9,17 21.4,16.9 20.9,16.8 L20.2,16.6 C19.5,16.4 18.9,16.1 18.3,15.7 C18.1,15.5 17.9,15.4 17.8,15.1 L17.8,15.7 C17.8,15.9 17.8,16.7 17.8,16.7 C17.8,17.1 18,17.5 18.4,17.7 C19.5,18.5 20.8,19 22.2,19.1 C23.1,19.2 24.1,19.3 25,19.3 C26.3,19.3 27.7,19.2 29,18.8 L29,18.8 C29.7,18.6 30.4,18.4 31,18 L31,18 C31.7,17.6 32.1,17.1 32.1,16.6 C32.1,16.6 32.1,15.2 32.1,15 C31.9,15.5 31.6,15.8 31.3,16 Z" id="Path"></path>
                    <path d="M18.3,15.2 C19.4,16 20.7,16.5 22.1,16.6 C23,16.7 23.9,16.8 24.9,16.8 C26.2,16.8 27.6,16.7 28.9,16.3 L28.9,16.3 C29.6,16.1 30.3,15.9 30.9,15.5 L30.9,15.5 C31.1,15.4 31.2,15.3 31.4,15.2 C31.6,15 31.8,14.8 31.9,14.5 C31.9,14.4 32,14.3 32,14.1 C32,14.1 32,12.6 32,12.5 C31.8,12.8 31.2,13.7 28.3,14.3 C27.1,14.5 25.9,14.6 24.7,14.6 C22.7,14.6 20.8,14.3 19,13.5 C18.7,13.3 18.4,13.1 18.1,12.9 C17.9,12.7 17.8,12.6 17.7,12.4 C17.7,12.4 17.7,13.1 17.7,13.1 L17.7,14.1 C17.7,14.6 18,15 18.3,15.2 Z" id="Path"></path>
                    <path d="M32.2,20.3 C32,20.6 31.7,20.9 31.3,21.1 C30.8,21.4 30.3,21.6 29.7,21.8 C28.1,22.3 26.5,22.5 24.8,22.4 C24,22.4 23.2,22.3 22.4,22.2 C21.9,22.1 21.4,22.1 20.9,22 C20.6,21.9 20.4,21.9 20.2,21.8 C19.5,21.6 18.9,21.3 18.3,20.9 C18.1,20.7 17.9,20.5 17.8,20.3 L17.8,21 C17.8,21.2 17.8,22 17.8,22 C17.8,22.4 18,22.8 18.4,23 C19.5,23.8 20.8,24.3 22.2,24.4 C23.1,24.5 24,24.6 25,24.6 C26.3,24.6 27.7,24.5 29,24.2 L29,24.2 C29.7,24 30.4,23.8 31,23.4 L31,23.4 C31.7,23 32,22.5 32,22 C32.2,21.9 32.2,20.4 32.2,20.3 Z" id="Path"></path>
                    <path d="M22.2,21.7 C23.1,21.9 24.1,21.9 25,21.9 C26.3,21.9 27.7,21.8 29,21.5 L29,21.5 C29.7,21.3 30.4,21.1 31,20.7 L31,20.7 C31.2,20.6 31.3,20.5 31.4,20.4 C31.6,20.2 31.8,20 31.9,19.7 C31.9,19.6 32,19.5 32,19.3 C32,19.3 32,17.8 32,17.7 C31.8,18 31.2,18.9 28.3,19.5 C27.1,19.7 25.9,19.8 24.7,19.8 C22.7,19.9 20.8,19.5 19,18.7 C18.7,18.5 18.4,18.3 18.1,18.1 C17.9,17.9 17.8,17.8 17.7,17.6 C17.7,17.6 17.7,18.3 17.7,18.3 L17.7,19.3 C17.7,19.7 17.9,20.1 18.3,20.3 C19.4,21.2 20.8,21.7 22.2,21.7 Z" id="Path"></path>
                </g>
                <path d="M48.7,24.2 L41.5,30 C41.4,30.1 41.3,30.1 41.2,30.1 C41,30.1 41,30 41,29.8 L41,26.9 L22.1,26.9 C22,26.9 21.9,26.8 21.9,26.6 L21.9,21.6 C21.9,21.4 22,21.3 22.1,21.3 L41,21.3 L41,18.5 C41,18.3 41,18.2 41.2,18.1 C41.3,18.1 41.4,18.1 41.5,18.2 L48.7,23.7 C48.8,23.8 48.9,23.9 48.9,24.1 C48.9,24.1 48.8,24.2 48.7,24.2 Z" id="Path"></path>
            </g>
        </g>
    </g>
</svg>