<?xml version="1.0" encoding="UTF-8"?>
<svg width="95px" height="95px" viewBox="0 0 95 95" version="1.1" xmlns="http://www.w3.org/2000/svg" xmlns:xlink="http://www.w3.org/1999/xlink">
    <!-- Generator: Sketch 53.2 (72643) - https://sketchapp.com -->
    <title>goal_14_target_14_2</title>
    <desc>Created with Sketch.</desc>
    <g id="goal_14_target_14_2" stroke="none" stroke-width="1" fill="none" fill-rule="evenodd">
        <g id="Group-111" fill-rule="nonzero">
            <rect id="Rectangle" fill="#0A97D9" x="-3.62376795e-13" y="-2.13162821e-14" width="94.8" height="94.8"></rect>
            <g id="Group" transform="translate(6.700000, 7.000000)" fill="#FFFFFF">
                <path d="M51.8,13.1 C51.8,13.1 39.1,8.1 37.3,7.5 C35.5,6.9 29.8,0.6 28.2,0 L30.3,6.4 C30.3,6.4 30.1,7 29.8,7.2 C29.5,7.4 9.8,11.9 9.8,11.9 C9.8,11.9 1,5.9 0.5,5.6 C0.5,5.6 -4.05231404e-15,5.6 0.3,6 C0.6,6.4 4.1,12.1 4.2,13 C4.3,13.9 3.2,17.6 2.7,18.5 C2.7,18.5 2.5,18.7 3,18.6 C3.5,18.5 9.6,14.7 9.6,14.7 C9.6,14.7 13.8,16.1 16,16.5 C15.6,17.3 15.2,18.1 14.6,18.9 C16.2,18.5 17.7,17.9 19,17 C19,17 29.5,18.5 32.8,18.8 C32.8,18.8 31.6,22.6 31.2,23.6 C33.5,22.5 35.6,21 37.4,19.2 C37.4,19.2 49.5,16.6 52,14.2 C52.2,13.9 52.2,13.5 51.9,13.2 C51.9,13.2 51.9,13.1 51.8,13.1 Z M42,13.1 C41.3,13.1 40.8,12.5 40.8,11.9 C40.8,11.2 41.4,10.7 42,10.7 C42.7,10.7 43.2,11.3 43.2,11.9 C43.2,12.6 42.7,13.1 42,13.1 C42,13.1 42,13.1 42,13.1 L42,13.1 Z" id="Shape"></path>
                <path d="M75.4,26.1 L75.4,26.1 C74.8,25.4 71.7,22.6 64.9,22.1 C60.4,21.8 55.9,22.6 51.8,24.3 C50.2,23.6 48.5,23 46.8,22.7 C46.8,22.7 46.5,22.6 46.4,22.8 C46.3,23 46.4,23 46.6,23.2 C47.5,23.9 48,24.9 48.2,26 C48.1,27 47.6,27.9 46.8,28.5 L46.6,28.6 C46.6,28.6 46.6,28.7 46.6,28.7 C46.6,28.8 46.7,28.9 46.8,28.9 L46.9,28.9 L47,28.9 C48.7,28.8 50.4,28.2 51.9,27.3 C51.9,27.3 60.2,30 65.4,30 C70.3,30 74.1,28 75.4,26.6 L75.5,26.5 C75.5,26.5 75.6,26.4 75.6,26.4 C75.6,26.1 75.5,26.1 75.4,26.1 Z M71,26.5 C70.4,26.5 70,26.1 70,25.5 C70,24.9 70.4,24.5 71,24.5 C71.6,24.5 72,24.9 72,25.5 C72,26.1 71.6,26.5 71,26.5 Z" id="Shape"></path>
                <path d="M73.1,55.4 C72.5,54.4 72.2,53.3 72.1,52.2 C72.2,51.1 72.5,49.9 73.1,49 C73.1,49 73.1,48.9 73.1,48.9 C73.1,48.9 73.1,48.8 73,48.8 L73,48.8 C71.5,49 70.3,50 69.6,51.3 C69.6,51.3 66.6,48.8 63.9,48.8 C60.7,48.8 58.5,51.7 58.1,52.2 L58.1,52.2 L58.1,52.2 L58.1,52.2 L58.1,52.2 C58.4,52.7 60.7,55.6 63.9,55.6 C66.7,55.6 69.6,53.1 69.6,53.1 C70.2,54.5 71.5,55.4 73,55.7 L73,55.7 C73,55.6 73.1,55.6 73.1,55.4 L73.1,55.4 L73.1,55.4 Z M62.1,52.6 C61.6,52.6 61.2,52.2 61.2,51.7 C61.2,51.2 61.6,50.8 62.1,50.8 C62.6,50.8 63,51.2 63,51.7 C63,51.7 63,51.7 63,51.7 C63,52.1 62.7,52.5 62.1,52.6 L62.1,52.6 Z" id="Shape"></path>
                <path d="M53.8,45.6 L53.8,45.6 C53.5,45.2 51.4,42.6 48.6,42.6 C46.1,42.6 43.4,44.9 43.4,44.9 C42.8,43.7 41.7,42.9 40.3,42.7 L40.3,42.7 C40.3,42.7 40.2,42.7 40.2,42.8 C40.2,42.8 40.2,42.9 40.2,42.9 C40.8,43.8 41.1,44.8 41.1,45.8 C41,46.8 40.7,47.9 40.2,48.7 L40.2,48.7 L40.2,48.7 C40.2,48.7 40.2,48.8 40.3,48.8 C40.3,48.8 40.3,48.8 40.3,48.8 L40.3,48.8 C41.6,48.6 42.8,47.7 43.4,46.5 C43.4,46.5 46.1,48.8 48.6,48.8 C51.5,48.8 53.5,46.2 53.8,45.7 L53.8,45.7 L53.8,45.7 L53.8,45.6 Z M50.1,46 C49.6,46 49.2,45.6 49.2,45.2 C49.2,44.7 49.6,44.3 50,44.3 C50.4,44.3 50.9,44.7 50.9,45.1 C50.9,45.1 50.9,45.1 50.9,45.1 C50.9,45.6 50.6,46 50.1,46 C50.1,46 50.1,46 50.1,46 Z" id="Shape"></path>
                <path d="M60.4,43.3 C60.4,42.8 60,42.4 59.5,42.4 C59,42.4 58.6,42.8 58.6,43.3 C58.6,43.8 59,44.2 59.5,44.2 L59.5,44.2 C60,44.2 60.4,43.8 60.4,43.3 C60.4,43.3 60.4,43.3 60.4,43.3 Z" id="Path"></path>
                <path d="M57,36.3 C56.4,36.3 55.9,36.8 55.9,37.4 C55.9,38 56.4,38.5 57,38.5 C57.6,38.5 58.1,38 58.1,37.4 C58.1,37.4 58.1,37.4 58.1,37.4 C58.1,36.8 57.6,36.3 57,36.3 Z" id="Path"></path>
                <path d="M55.6,63.6 L57.6,62.3 C57.7,62.2 58.1,62.1 58,61.8 C57.9,61.5 57.5,61.6 57.5,61.6 L54.8,61.6 C54.3,61.6 54.3,61.1 54.3,61.1 C54.2,60.3 53.9,59.5 53.5,58.8 C53.3,58.5 53.2,58.4 53,58.5 C52.8,58.6 52.8,58.6 52.8,58.9 C52.7,59.6 52.6,60.2 52.4,60.9 C52.2,61.5 51.9,61.5 51.4,61.5 C50.9,61.5 49.4,61.5 49.4,61.5 C49.3,61.5 49.1,61.5 49,61.5 C48.8,61.5 48.7,61.6 48.6,61.8 C48.6,61.9 48.7,62.1 48.8,62.1 C49.1,62.3 50.7,63.2 51.1,63.5 C51.4,63.7 51.5,64 51.4,64.3 C51.4,64.4 50.5,66.4 50.4,66.7 C50.3,67 50.5,67.2 50.5,67.2 C50.8,67.4 51.1,67 51.1,67 C51.8,66.5 52.5,66 53.1,65.5 C53.3,65.3 53.6,65.3 53.7,65.5 C53.7,65.5 53.7,65.5 53.7,65.5 C54.4,66.1 55.1,66.7 55.8,67.2 C55.9,67.3 56.2,67.3 56.3,67.2 C56.5,67.1 56.4,66.7 56.4,66.7 C56.4,66.7 55.7,64.7 55.6,64.3 C55.5,63.9 55.6,63.6 55.6,63.6 Z" id="Path"></path>
                <path d="M37.2,34.8 C37.3,35.2 37.6,35.4 38,35.4 C38.4,35.3 38.6,35 38.6,34.6 C38.5,34.2 38.2,34 37.8,34 C37.4,34.1 37.1,34.4 37.2,34.8 Z" id="Path"></path>
                <path d="M38.8,30 C38.8,30.4 39.2,30.6 39.5,30.6 C39.5,30.6 39.5,30.6 39.5,30.6 C39.9,30.5 40.1,30.2 40.1,29.8 C40,29.4 39.7,29.2 39.3,29.2 C39,29.3 38.7,29.6 38.8,30 C38.8,30 38.8,30 38.8,30 Z" id="Path"></path>
                <path d="M43.2,35.2 C43.1,34.8 42.8,34.6 42.4,34.6 C42,34.7 41.8,35 41.8,35.4 L41.8,35.4 C41.9,35.8 42.2,36 42.6,36 C42.6,36 42.6,36 42.6,36 C43,35.9 43.3,35.6 43.2,35.2 C43.2,35.2 43.2,35.2 43.2,35.2 Z" id="Path"></path>
                <path d="M34.2,37 C33.8,37.1 33.5,37.4 33.6,37.8 C33.7,38.2 34,38.5 34.4,38.4 L34.4,38.4 C34.8,38.3 35.1,38 35,37.6 C34.9,37.2 34.6,36.9 34.2,37 Z" id="Path"></path>
                <path d="M35.4,31.2 C35.3,30.8 35,30.6 34.6,30.6 C34.2,30.7 34,31 34,31.4 C34.1,31.8 34.4,32 34.8,32 C34.8,32 34.8,32 34.8,32 C35.2,31.9 35.5,31.6 35.4,31.2 C35.4,31.2 35.4,31.2 35.4,31.2 Z" id="Path"></path>
                <path d="M59,6 L60.7,5.8 C60.8,6 61,6.1 61.2,6.2 L61.4,8 C61.4,8.1 61.5,8.2 61.6,8.2 L61.6,8.2 C61.7,8.2 61.8,8.1 61.8,7.9 L61.6,6.2 C61.8,6.2 62.1,6 62.2,5.9 L63.6,6.8 C63.6,6.8 63.7,6.8 63.7,6.8 C63.8,6.8 63.9,6.8 63.9,6.7 C64,6.6 63.9,6.4 63.8,6.4 L62.3,5.5 C62.3,5.4 62.4,5.3 62.4,5.2 C62.4,4.9 62.3,4.7 62.1,4.5 L62.9,3.5 C63,3.4 63,3.2 62.9,3.2 C62.8,3.1 62.6,3.1 62.5,3.2 L61.7,4.2 C61.6,4.1 61.4,4.1 61.3,4.1 C61.1,4.1 60.8,4.2 60.7,4.3 L59.7,3 C59.6,2.9 59.4,2.9 59.3,3 C59.2,3.1 59.2,3.3 59.3,3.3 L60.6,4.7 C60.5,4.9 60.5,5 60.5,5.2 C60.5,5.2 60.5,5.3 60.5,5.3 L59,5.5 C58.9,5.5 58.8,5.6 58.8,5.7 C58.8,5.8 58.9,6 59,6 L59,6 Z" id="Path"></path>
                <path d="M65,13.3 C64.9,13.5 64.8,13.7 64.8,14 L63,14.3 C62.9,14.3 62.8,14.5 62.8,14.6 C62.8,14.7 62.9,14.8 63,14.8 L63,14.8 L64.9,14.5 C65,14.7 65.1,14.8 65.2,14.9 C65.2,14.9 65.3,14.9 65.3,14.9 L64.6,16.3 C64.5,16.4 64.6,16.6 64.7,16.6 L64.8,16.6 C64.9,16.6 65,16.5 65,16.5 L66,15 C66.2,15 66.5,14.9 66.6,14.8 L68.2,15.6 C68.3,15.7 68.5,15.6 68.5,15.5 C68.5,15.5 68.5,15.5 68.5,15.5 C68.6,15.4 68.5,15.2 68.4,15.2 C68.4,15.2 68.4,15.2 68.4,15.2 L66.8,14.4 C66.9,14.2 66.9,13.9 66.8,13.7 L68.3,12.9 C68.4,12.8 68.5,12.7 68.4,12.6 C68.3,12.5 68.2,12.4 68.1,12.5 C68.1,12.5 68.1,12.5 68.1,12.5 L66.6,13.3 C66.5,13.2 66.5,13.2 66.4,13.1 C66.2,13 65.9,12.9 65.7,13 L65.3,11.8 C65.3,11.7 65.1,11.6 65,11.6 C64.9,11.6 64.8,11.8 64.8,11.9 L65.2,13.1 C65.2,13.1 65.1,13.2 65,13.3 Z" id="Path"></path>
                <path d="M70.2,8.6 L71.8,8.2 C72,8.4 72.2,8.5 72.4,8.5 L72.8,10.3 C72.8,10.4 72.9,10.5 73,10.5 L73.1,10.5 C73.2,10.5 73.3,10.3 73.3,10.2 L72.9,8.5 C73.1,8.4 73.3,8.3 73.5,8.1 L75.1,8.7 L75.2,8.7 C75.3,8.7 75.4,8.6 75.4,8.4 C75.4,8.3 75.3,8.2 75.2,8.2 L73.6,7.6 C73.6,7.5 73.6,7.4 73.6,7.3 C73.6,7 73.4,6.8 73.2,6.6 L73.9,5.5 C74,5.4 73.9,5.2 73.8,5.2 C73.7,5.1 73.5,5.2 73.5,5.3 L72.8,6.4 C72.7,6.4 72.5,6.4 72.4,6.4 C72.2,6.4 72,6.5 71.8,6.7 L70.4,5.5 C70.3,5.4 70.1,5.4 70.1,5.5 C70,5.6 70,5.8 70.1,5.9 C70.1,5.9 70.1,5.9 70.1,5.9 L71.6,7.1 C71.6,7.3 71.6,7.4 71.6,7.6 C71.6,7.6 71.6,7.7 71.6,7.7 L70,8.1 C69.9,8.1 69.8,8.3 69.8,8.4 C69.9,8.5 70,8.6 70.2,8.6 L70.2,8.6 Z" id="Path"></path>
                <path d="M26.6,31.3 C27.2,30.6 27.4,29.6 27.2,28.7 C27.2,28.5 27,28.4 26.9,28.4 C26.9,28.4 26.9,28.4 26.9,28.4 C26,28.4 25.1,28.7 24.4,29.4 C24,29.9 23.6,30.4 23.4,31 C22.3,30.6 21.1,30.6 19.9,31 C19.9,30.9 19.9,30.9 19.9,30.8 C19.7,30.1 18.2,30 16.5,30.6 C14.8,31.2 13.6,32 13.9,32.7 C14.2,33.4 15.1,33.4 16.3,33.2 L16.3,33.2 L16.4,33.2 C16,33.6 15.7,34 15.4,34.4 C14.8,35.2 14.4,36.1 14.2,37 C14,36.9 13.8,36.9 13.6,36.9 C12.7,36.9 11.9,36.9 11.9,38.4 C11.9,39.9 12.7,39.9 13.6,39.9 C13.7,39.9 13.9,39.9 14,39.8 C14.1,40.9 14.3,41.9 14.7,42.9 C15.9,43.2 17.2,43.2 18.4,43.1 C18.4,43.2 18.4,43.4 18.4,43.5 C18.5,44.4 18.6,45.2 20.1,45 C21.6,44.8 21.4,44 21.3,43.1 C21.3,42.8 21.2,42.6 21,42.4 C21.7,42.1 22.3,41.6 22.9,41.1 C23.5,40.5 24.1,39.8 24.5,39.1 L24.5,39.6 C24.5,40.9 24.8,41.8 25.3,41.9 C25.8,42 26.8,40.7 27.1,39 C27.4,37.3 27,35.8 26.3,35.7 C26.1,35.7 25.9,35.7 25.8,35.9 L25.8,35.9 C26,34.8 25.8,33.6 25.2,32.6 C25.7,32.2 26.2,31.8 26.6,31.3 Z" id="Path"></path>
                <path d="M74.2,67.4 C73.9,67.3 73.5,67.3 73.1,67.3 L72.6,67.3 C68.2,67.2 63.7,67.9 59.5,69.4 C51.5,72.2 43.3,74.2 34.9,75.4 C34.8,74.4 34.1,71.8 35.2,70.9 C35.8,70.1 36.8,69.9 37.7,70.2 C38.3,70.3 38.7,72 39,72.6 C39.3,73.2 39.8,72.9 39.8,72.5 C39.7,72 39.6,71.5 39.4,71 C39.3,70.6 39.4,70.6 39.9,70.7 C40.4,70.8 40.6,71.1 41.2,71.4 C41.8,71.7 42.3,71.5 42.3,71 C42.3,70.5 41.7,70.4 41.1,70.2 C40.5,70 40.3,69.9 40.7,69.5 C41.1,69.2 41.2,68.7 41.1,68.2 C40.9,67.8 40.4,67.7 39.8,68.5 C39.2,69.3 38.6,69.3 38.4,68.8 C38.2,68.3 39.4,67 39.9,66.2 C40.4,65.5 41.1,65 42,64.9 C42.9,64.7 43.3,64.7 43.2,64.3 C43.1,63.9 42.2,64 41.8,64 C41.5,64 41.2,63.8 41.1,63.5 C41.1,63.4 41.1,63.4 41.1,63.3 C41.1,62.9 41.8,62.3 42.4,61.7 C43,61.1 43.1,60.9 42.8,60.5 C42.5,60.1 41.8,60.2 41.2,60.7 C40.7,61.2 40.3,61.7 40,62.2 C39.8,62.5 39.5,62 39.1,61.5 C38.7,61 38.3,60.8 38,61 C37.7,61.2 38,61.6 38.4,62 C38.9,62.6 39.1,63.3 39.1,64 C39.1,64.7 38.7,65.4 38,65.7 C37.7,65.8 37.8,64.7 37.2,64.7 C36.6,64.7 36.5,65.4 36.5,66.3 C36.5,67.2 35.5,67.7 35,67.2 C34.5,66.3 34.2,65.4 34.1,64.3 C34.1,63.6 35,62.9 35.6,62.5 C36.2,62.1 37.1,62 36.6,61.3 C36.1,60.6 34.5,61.5 33.9,62.1 C33.3,62.7 33,62.5 32.9,62.2 C32.8,61.4 32.8,60.7 33,59.9 C33.3,58.9 34.2,58.2 35.2,58.1 C36.1,58.2 36.9,58.5 37.6,59.1 C37.9,59.3 38.5,59.4 38.6,58.9 C38.7,58.4 37.7,57.9 37.3,57.7 C36.9,57.5 36.7,57.5 36.8,57.1 C36.9,56.7 38.1,56.3 38.6,56.1 C39.1,55.9 39.8,55.6 39.4,55 C39,54.4 37.4,55.4 37,55.6 C36.6,55.8 36.7,54.8 36.6,54.5 C36.5,54.2 36.6,53.4 35.9,53.4 C35.2,53.4 35.3,54.7 35.2,55.4 C35.1,56.1 34.7,56 33.7,56.7 C33.1,57.2 32.5,57.8 31.9,58.4 C31.6,58.6 31.5,57.9 31.4,56.9 C31.3,56.1 31.5,55.3 32,54.6 C32.5,54 33.2,53.5 33.9,53.1 C34.1,53 34.2,52.7 34.1,52.5 C34,52.3 33.7,52.2 33.5,52.3 C33,52.5 32.5,52.7 32.2,52.5 C31.9,52.3 32.5,51.4 32.9,50.6 C33.3,49.8 33.3,49 32.8,48.7 C32.3,48.4 31.5,49.2 31.3,49.8 C31.1,50.4 30.8,50.5 30.4,50 C30,49.5 29.7,49.2 29.5,49.4 C29.3,49.6 29.1,49.7 29.6,50.4 C30,51 30.2,51.7 30.2,52.4 C30.2,53 29.8,53.2 29.4,52.8 C29,52.4 28.4,52.2 28.3,52.6 C28.2,53 28.6,53.3 29.1,53.5 C29.6,53.7 29.6,54.6 29.6,55 C29.6,55.4 29.5,55.7 29,55.6 C28.3,55.2 27.8,54.6 27.5,53.9 C27.5,53.5 27.4,53 27.4,52.6 C27.3,52.3 26.7,52.5 26.7,52.8 C26.7,53.3 26.7,53.8 26.7,54.3 C26.6,54.5 26,54.2 25.2,53.9 C24.4,53.6 23.8,53.8 23.8,54.3 C23.8,54.8 25.2,55.4 25.6,55.4 C26,55.4 26.2,55.7 26,56 C25.8,56.3 25.1,56.8 24.9,57 C24.7,57.2 25,57.9 25.5,57.5 C26,57 26.6,56.7 27.3,56.6 C27.8,56.6 28.3,56.8 28.6,57.3 C28.7,57.6 28.3,57.7 27.8,57.9 C27.3,58.1 27.1,58.4 27.1,58.6 C27.1,58.8 27.2,59.1 27.7,58.8 C28.1,58.6 28.5,58.5 28.9,58.6 C29.4,58.5 29.5,59.2 29.5,59.2 C29.8,60.2 31.1,63.1 31.3,63.6 C31.5,64.1 31.3,64.4 30.7,64.4 C30.1,64.4 29.4,64.4 29.5,65 C29.6,65.6 30.7,65.6 31.5,65.6 C32.3,65.6 32.3,66.4 32.4,67.5 C32.5,68.6 31.2,68.7 30.6,68.1 C29.6,67.2 28.7,66.2 28,65.1 C27.8,64.5 27.9,63.9 28.2,63.4 C28.4,63 28.9,63.1 29.2,62.9 C29.5,62.7 29.5,62.4 29.4,62.2 C29.4,62.2 29.4,62.2 29.4,62.1 C29.2,61.8 28.6,62.1 28.3,62.3 C28,62.5 27.8,62.6 27.8,62.3 C27.8,62 27.9,61.2 27.9,60.8 C27.9,60.4 27.7,60.1 27.2,60.3 C26.7,60.5 26.6,62.8 26.7,63.7 C26.8,64.6 26.3,64.6 25.9,64.5 C25.3,64.1 24.8,63.6 24.5,63 C24.3,62.6 24.3,62.4 24.9,61.7 C25.1,61.4 25.3,61.1 25.4,60.7 C25.5,60.4 25,60.3 24.8,60.6 C24.6,60.9 24.4,61.1 24.1,61.3 C23.9,61.4 24,60.2 24,60 C24,59.8 24.1,59.4 23.5,59.4 C22.9,59.4 23.2,60.6 23.2,60.9 C23.2,61.2 22.8,61.1 22.2,61 C21.6,60.9 21.4,61.6 22,61.6 C22.5,61.6 22.9,61.7 23.3,62 C23.5,62.4 23.6,63 23.4,63.4 C23.3,63.7 22.8,63.3 22,63.3 C21.2,63.3 20.4,63.4 20.3,63.9 C20.2,64.4 20.9,64.9 21.7,64.9 C22.5,64.9 23.3,64.8 23.4,65 C23.5,65.2 23.2,65.3 22.9,65.6 C22.6,65.9 22.5,66.2 22.7,66.5 C22.9,66.8 23.4,66.7 23.8,66.3 C24.1,65.9 24.6,65.7 25.1,65.8 C25.8,65.9 26.5,66.2 27.1,66.7 C27.5,67 27.2,67.5 26.8,67.6 C26.2,67.8 25.7,68 25.3,68.4 C24.9,68.8 24.3,68.8 23.9,68.4 C23.5,68.1 22.9,67.6 22.7,68 C22.5,68.4 23,68.8 23.2,69 C23.4,69.2 23.6,69.2 23.4,69.6 C23.1,70 22.7,70.4 22.3,70.7 C22.1,70.9 22.1,71.2 22.2,71.4 C22.3,71.5 22.5,71.6 22.7,71.6 C23.3,71.3 23.9,70.9 24.4,70.4 C24.5,70.3 24.7,70 24.8,70.4 C24.8,70.8 24.8,71.2 24.8,71.5 C24.8,71.8 24.6,72.1 25,72.2 C25.2,72.3 25.4,72.2 25.5,72 C25.6,71.6 25.6,71.3 25.6,70.9 C25.5,70.3 25.8,69.7 26.2,69.2 C26.7,68.6 28,68.9 28.7,68.9 C29.4,68.9 29.5,69.5 29.5,70 C29.5,70.5 28.6,70.9 28.3,71.1 C28,71.3 27.3,71.4 27.6,71.9 C27.9,72.4 28,72.2 28.3,72.2 C28.6,72.2 29.4,71.3 30,71.2 C30.6,71.1 31.1,71.2 31.5,72.4 C31.9,73.4 32.2,74.4 32.3,75.5 C27.8,76.1 23.2,76.4 18.6,76.5 C17.5,76.6 16.7,76.7 16.1,76.8 C16.4,76.4 16.7,76 17.1,75.7 C17.5,75.3 17.4,74.8 17.2,73.9 C17,73 17.5,72.4 17.7,71.7 C17.8,71 17.8,70.3 17.5,69.7 C17.5,69.6 17.4,69.5 17.3,69.4 C16.8,70 16.4,70.8 16.2,71.5 C16,72.4 16.2,72.9 15.9,73.5 C15.6,74.1 15,74.5 15.1,74.9 C15.1,75.6 15.1,76.2 14.9,76.9 L14.2,77 C14.2,76.5 14.1,76 13.9,75.6 C13.8,75.3 13.4,74.9 13.9,74.4 C14.4,73.9 14.6,73.3 14.5,72.6 C14.5,71.8 14.6,71.7 15.3,71 C16,70.3 15.7,69.4 15.6,68.8 C15.5,68.2 15.8,68.3 16.3,67.8 C16.8,67.3 16.3,66.4 16.4,65.7 C16.5,65 16.9,65.2 16.8,64.2 C16.7,63.5 16.8,62.8 17,62.1 C17.2,61.1 16,60.1 15.7,59.9 C15.8,60 15.7,60.3 15.4,61.2 C15.1,62.1 15.4,62.4 15.6,63 C15.8,63.6 15.4,63.7 15.4,64.3 C15.4,64.9 15.6,65.1 15,65.7 C14.4,66.3 14.3,66.8 14.3,68 C14.3,69.2 13.5,69.1 13.1,69.6 C12.7,70.1 13.3,70.7 13.2,71.5 C13.2,71.8 13.1,72.1 13,72.3 C13.1,71.9 13.1,71.5 13,71.1 C12.6,70.2 12.6,69.8 12.7,69.6 C12.9,69.4 13,69.2 13.3,69 C13.2,68.9 13.2,68.9 13.2,68.8 C13,68.4 13.2,67.9 13.7,66.9 C14.2,65.9 13.9,65.9 13.6,65.3 C13.3,64.7 13.3,64.5 13.8,64.1 C14.2,63.7 14.3,63.2 14.2,62.7 C14,62.2 14,61.8 14.1,61.3 C14.3,60.6 14.7,60.6 14.5,60 C14.3,59.4 14.1,58.9 14.1,58.9 C13.9,58.3 14.6,57.9 14.1,56.9 C13.6,55.9 14,55.7 13.8,54.4 C13.7,53.7 13,53.2 12.3,53.3 C12.3,53.3 12.3,53.3 12.3,53.3 C12.1,53.3 11.8,53.6 11.9,54.5 C12,55.4 12.6,55.6 12.4,56.6 C12.2,57.6 12.7,57.9 12.9,58.5 C13.1,59.1 12,59.5 12,60 C12,60.5 12.4,61 11.8,61.6 C11.2,62.2 11.1,62.4 11.6,63.4 C11.9,64.1 11.6,64.3 11.1,65.2 C10.6,66.1 10.9,66.4 11,67.5 C11.1,68.2 11.2,68.8 11.1,69.5 C11,70.2 10.6,70.3 10.6,71.5 C10.8,72.3 11,73.1 11,73.9 C10.9,74.4 9.4,75.5 9.5,76.2 C9.5,76.5 9.5,76.8 9.5,77.2 L7.6,77.1 C7.5,76.1 7.3,74.7 7,73.2 C6.6,71.2 7,69 7.6,66.5 L7.6,66.5 C7.6,66.5 7.6,66.4 7.6,66.4 C7.8,65.4 8,64.3 8.2,63.1 C9,59.1 9.2,55.1 8.9,51 C8.6,49.3 8.3,47.6 7.8,45.9 C7.4,44.3 7,42.8 6.8,41.5 C6.4,38.7 6,36.7 6,36.7 C6,36.5 5.8,36.4 5.6,36.4 C5.4,36.4 5.2,36.6 5.3,36.8 C5.3,36.8 5.3,36.8 5.3,36.8 C5.3,36.8 5.7,38.9 6.1,41.6 C6.3,43 6.7,44.5 7.1,46.1 C7.5,47.7 8,49.5 8.2,51.1 C8.5,54.2 8.4,57.3 8,60.4 C8,59.5 8,58.6 7.9,57.6 C7.7,55 7.2,52.4 6.3,49.9 C6.2,49.7 6,49.6 5.8,49.7 C5.6,49.8 5.5,50 5.6,50.2 C6.4,52.6 6.9,55.1 7.1,57.7 C7.3,60.5 7.3,63.4 7,66.2 L7,66.3 C6.5,68.9 6,71.2 6.4,73.3 C6.7,74.7 6.8,76 6.9,77 L6.3,77 C5.8,76.2 5.4,75.3 5.2,74.4 C5,73.9 4.8,73.3 4.5,72.5 C3.6,70 3.7,65.3 3.9,62 C4,61 4.1,60 4.2,58.9 C4.7,55.9 4.7,52.8 4.2,49.8 C3.3,45.4 3.5,44.2 3.5,44.2 C3.5,44 3.4,43.8 3.2,43.8 C3,43.8 2.8,43.9 2.8,44.1 C2.8,44.2 2.6,45.4 3.5,50 C4,52.9 4,55.9 3.5,58.9 C3.4,60 3.3,61 3.2,62 C3,65.7 2.9,70.2 3.8,72.8 C4.1,73.6 4.3,74.2 4.4,74.7 C4.7,75.5 5,76.3 5.4,77.1 L5,77.1 C1.1,77.2 0.3,79.3 0.2,80.5 C0.2,80.6 0.2,80.6 0.2,80.7 L0.2,80.9 L81.4,80.9 L81.4,73.6 C81.4,69.2 81.8,68.6 74.2,67.4 Z" id="Path"></path>
            </g>
        </g>
    </g>
</svg>