<?xml version="1.0" encoding="UTF-8"?>
<svg width="95px" height="95px" viewBox="0 0 95 95" version="1.1" xmlns="http://www.w3.org/2000/svg" xmlns:xlink="http://www.w3.org/1999/xlink">
    <!-- Generator: Sketch 53.2 (72643) - https://sketchapp.com -->
    <title>goal_8_target_8_5</title>
    <desc>Created with Sketch.</desc>
    <g id="goal_8_target_8_5" stroke="none" stroke-width="1" fill="none" fill-rule="evenodd">
        <g id="Group-57" fill-rule="nonzero">
            <rect id="Rectangle" fill="#A21942" x="-3.62376795e-13" y="-2.13162821e-14" width="94.8" height="94.8"></rect>
            <g id="Group" transform="translate(37.700000, 21.000000)" fill="#FFFFFF">
                <path d="M4.3,21.7 C5.1,22 6,21.5 6.3,20.7 L6.3,20.7 L7.8,16.5 L10.1,15.7 L10.2,15.7 L10.2,22.6 C10.2,24.2 10.7,25.7 12.3,26.1 L12.8,26.2 C13.1,26.2 13.3,26.3 13.6,26.3 L21.3,26.3 L23.4,30.3 L23.4,30.4 L24.2,31.8 L24.9,33.2 L25,33.3 L25,33.3 L25.8,34.8 C26.3,35.8 27.5,36.2 28.5,35.7 C29.5,35.2 29.9,34 29.4,33 L27.8,30 L27.8,29.9 L24.1,22.7 C23.8,22 23.1,21.6 22.3,21.7 L17.1,21.7 L17,15.2 C16.9,13.2 16.5,12.1 14.9,11.7 C14.1,11.6 13.4,11.6 12.6,11.7 L12.4,11.8 L12.4,11.8 L6.2,13.8 L6.1,13.8 L5.9,13.9 L5.8,13.9 C5.5,14.1 5.3,14.4 5.1,14.7 L3.4,19.7 C3.2,20.5 3.6,21.3 4.3,21.7 Z" id="Path"></path>
                <path d="M10.6,39 C16,38.9 20.4,34.5 20.4,29.1 L20.4,29.1 L20.4,28.7 L18,28.7 L18,29.1 C18,33.2 14.6,36.5 10.5,36.5 C6.4,36.5 3.1,33.1 3.1,29 C3.1,27.4 3.6,25.8 4.6,24.5 L2.8,23 C-0.5,27.2 0.2,33.3 4.4,36.6 C4.4,36.6 4.4,36.6 4.5,36.7 C6.2,38.2 8.4,39 10.6,39 L10.6,39 Z" id="Path"></path>
                <path d="M10,6.7 C10,8.8 11.7,10.5 13.8,10.5 C15.9,10.5 17.6,8.8 17.6,6.7 L17.6,6.7 L17.6,6.7 C17.6,6.4 17.6,6.2 17.5,5.9 L10.1,5.9 C10,6.1 10,6.4 10,6.7 Z" id="Path"></path>
                <path d="M18,3.7 L17.6,3.7 C17.3,2.6 16.6,1.7 15.6,1.2 L15,2.9 L15,0.3 L13,0.3 L13,2.9 L12.3,1.1 C11.2,1.6 10.3,2.5 10,3.7 L9.6,3.7 L9.6,5.1 L18.1,5.1 L18,3.7 Z" id="Path"></path>
            </g>
            <g id="Group" transform="translate(7.700000, 15.000000)" fill="#FFFFFF">
                <path d="M16.9,7.6 C19,7.6 20.7,5.9 20.7,3.8 C20.7,1.7 19,0 16.9,0 C14.8,0 13.1,1.7 13.1,3.8 L13.1,3.8 L13.1,3.8 C13.1,5.9 14.8,7.6 16.9,7.6 Z" id="Path"></path>
                <path d="M27.8,22.7 L24.6,12.4 C24.6,12.4 23.5,9.4 20.9,9.4 L19.7,9.4 L17.1,13.7 L14.1,9.4 L12.9,9.4 C10.4,9.4 9.3,12.4 9.3,12.4 L6.2,22.8 C6.1,23.2 6.1,23.6 6.2,24 L5.8,24 C5.3,24 4.9,24.4 4.9,24.9 L4.9,24.9 L4.9,24.9 L4.9,25.7 L1.9,25.7 C1.4,25.7 1,26.1 1,26.6 L1,26.6 L1,28.3 C1,28.5 1,28.6 1.1,28.8 C1.3,29.6 2,30.1 2.8,30.1 L6.2,30.1 L6.2,29.4 C6.2,29.2 6.4,29 6.6,28.9 L7.3,28.9 C7.5,28.9 7.7,29.1 7.7,29.3 L7.7,30 L11.1,30 C11.9,30 12.6,29.5 12.8,28.7 L12.8,30 C12.4,30.5 11.8,30.8 11.1,30.9 L7.7,30.9 L7.7,31.6 C7.7,31.8 7.5,32.1 7.3,32.1 L6.5,32.1 C6.3,32.1 6.1,31.8 6.1,31.6 L6.1,30.9 L2.7,30.9 C2,30.9 1.4,30.6 1,30 C1,29.9 1,29.9 0.9,29.9 L0.9,34.4 C0.9,34.9 1.3,35.3 1.8,35.3 L1.8,35.3 L1.8,35.3 L12.1,35.2 C12.2,35.2 12.4,35.2 12.5,35.1 L12.5,43.2 C12.5,44.3 13.4,45.2 14.5,45.2 C15.6,45.2 16.5,44.3 16.5,43.2 L16.4,31.7 L17.5,31.7 L17.6,43.3 C17.6,44.4 18.5,45.3 19.6,45.3 C20.7,45.3 21.6,44.4 21.6,43.3 L21.5,31.8 L25.6,31.8 L21.1,15.6 C21.1,15.6 20.9,14.9 21.4,14.7 C21.9,14.5 22,15.2 22,15.2 L24.6,23.8 C24.6,23.8 25.1,25.6 26.7,25.2 C28.3,24.8 27.8,22.7 27.8,22.7 Z M5.4,25.6 L5.4,24.9 C5.4,24.8 5.5,24.7 5.6,24.7 L6.4,24.7 C6.6,24.9 6.9,25.1 7.2,25.2 C7.6,25.3 8,25.3 8.3,25.1 L8.3,25.6 L5.4,25.6 Z M12.7,15.5 L10,25.6 L9,25.6 L9,24.8 C9,24.7 9,24.6 8.9,24.5 C9.1,24.3 9.2,24.1 9.3,23.8 L11.8,15.2 C11.8,15.2 11.9,14.5 12.4,14.7 C12.9,14.9 12.7,15.5 12.7,15.5 Z" id="Shape"></path>
                <path d="M6.6,29.5 L7.2,29.5 C7.3,29.5 7.3,29.5 7.3,29.6 L7.3,31.2 C7.3,31.3 7.3,31.3 7.2,31.3 L6.6,31.3 C6.5,31.3 6.5,31.3 6.5,31.2 L6.5,29.6 C6.5,29.5 6.5,29.5 6.6,29.5 Z" id="Path"></path>
            </g>
            <g id="Group" transform="translate(67.700000, 14.000000)" fill="#FFFFFF">
                <path d="M4.3,43.7 C4.3,44.9 5.2,45.8 6.4,45.8 C7.6,45.8 8.5,44.9 8.5,43.7 L8.5,42.1 L4.3,42.1 L4.3,43.7 L4.3,43.7 Z" id="Path"></path>
                <path d="M11.8,45.8 C12.9,45.8 13.9,44.9 13.9,43.8 L13.9,43.7 L13.9,43.7 L13.9,42.1 L9.7,42.1 L9.7,43.7 C9.7,44.8 10.6,45.8 11.8,45.8 L11.8,45.8 Z" id="Path"></path>
                <path d="M0,17.1 L0,25.8 C0,26.6 0.7,27.3 1.5,27.3 C2.3,27.3 3,26.6 3,25.8 L3,25.8 L3,16.8 C3,16.5 3.1,16 3.7,16 L5.2,16 L5.2,10.3 L4.6,10.3 C2,10.5 1.42108547e-14,12.7 1.42108547e-14,15.3 L1.42108547e-14,17.1 L0,17.1 Z" id="Path"></path>
                <polygon id="Path" points="11.3 10.2 9 10.2 6.8 10.3 6.9 13.5 11.4 13.5"></polygon>
                <path d="M9.1,27.3 L9.1,27.3 C9.4,27.3 9.7,27.5 9.7,27.8 L9.7,41.1 L13.9,41.1 L13.8,16.9 L12,16.9 L12,14.5 L6.2,14.5 L6.2,16.9 L4.2,16.9 L4.3,41.2 L8.5,41.2 L8.5,27.9 C8.5,27.6 8.7,27.4 9.1,27.3 L9.1,27.3 Z" id="Path"></path>
                <path d="M13,13.9 L13,16 L14.4,16 C15,16 15.1,16.5 15.1,16.8 L15.1,25.8 C15.2,26.6 15.9,27.2 16.7,27.1 C17.4,27.1 18,26.5 18,25.8 L18,15.3 C18,12.7 16,10.5 13.4,10.3 L12.9,10.3 L13,13.9 L13,13.9 Z" id="Path"></path>
                <path d="M12.6,13.9 C12.6,13.7 12.4,13.5 12.2,13.5 C12,13.5 11.8,13.7 11.8,13.9 L11.8,13.9 L11.8,13.9 C11.8,14.1 12,14.3 12.2,14.3 C12.4,14.3 12.6,14.1 12.6,13.9 Z" id="Path"></path>
                <path d="M6.5,13.9 C6.5,13.7 6.3,13.5 6.1,13.5 C5.9,13.5 5.7,13.7 5.7,13.9 L5.7,13.9 L5.7,13.9 C5.7,14.1 5.9,14.3 6.1,14.3 L6.1,14.3 C6.4,14.2 6.5,14.1 6.5,13.9 Z" id="Path"></path>
                <path d="M8.9,8.3 C11.1,8.3 12.9,6.5 12.9,4.3 L12.9,4.2 C12.9,2 11.1,0.2 8.9,0.2 L8.8,0.2 C6.6,0.2 4.8,2 4.8,4.2 L4.8,4.3 L4.8,4.3 C4.8,6.5 6.6,8.3 8.9,8.3 L8.9,8.3 Z" id="Path"></path>
            </g>
            <g id="Group" transform="translate(7.700000, 67.000000)" fill="#FFFFFF">
                <path d="M77.9,0.5 L1.4,0.5 C1.1,0.5 0.9,0.7 0.8,1 L0.8,4.6 C0.8,4.9 1.1,5.2 1.4,5.2 L78,5.2 C78.3,5.2 78.6,5 78.6,4.6 L78.6,4.6 L78.6,1 C78.5,0.7 78.3,0.5 77.9,0.5 Z" id="Path"></path>
                <path d="M39.2,7 L33.9,16.2 C33.7,16.5 33.9,16.9 34.2,17 C34.3,17 34.3,17.1 34.4,17.1 L45.1,17.1 C45.4,17.1 45.7,16.9 45.7,16.6 C45.7,16.5 45.7,16.3 45.6,16.2 L40.3,7 C40.1,6.7 39.7,6.6 39.4,6.8 C39.4,6.8 39.3,6.9 39.2,7 Z" id="Path"></path>
            </g>
        </g>
    </g>
</svg>