<?xml version="1.0" encoding="UTF-8"?>
<svg width="95px" height="95px" viewBox="0 0 95 95" version="1.1" xmlns="http://www.w3.org/2000/svg" xmlns:xlink="http://www.w3.org/1999/xlink">
    <!-- Generator: Sketch 53.2 (72643) - https://sketchapp.com -->
    <title>goal_8_target_8_a</title>
    <desc>Created with Sketch.</desc>
    <g id="goal_8_target_8_a" stroke="none" stroke-width="1" fill="none" fill-rule="evenodd">
        <g id="Group-63" fill-rule="nonzero">
            <rect id="Rectangle" fill="#A21942" x="-3.62376795e-13" y="-2.13162821e-14" width="94.8" height="94.8"></rect>
            <g id="Group" transform="translate(9.700000, 12.000000)" fill="#FFFFFF">
                <g transform="translate(40.000000, 0.000000)">
                    <path d="M35.4,15.5 C35.4,15 35,14.7 34.5,14.7 C34,14.7 33.7,14.7 33.2,14.7 C32.7,14.7 32.3,14.6 32.2,14.1 C32,13.3 31.7,12.4 31.4,11.6 C31.2,11.2 31.3,10.6 31.7,10.4 C32.1,10.1 32.4,9.8 32.8,9.5 C33.1,9.2 33.2,8.8 33,8.4 C32.5,7.4 31.8,6.6 31,5.8 C30.7,5.4 30.2,5.4 29.8,5.7 C29.8,5.7 29.8,5.7 29.8,5.7 C29.4,6 29.1,6.2 28.7,6.4 C28.4,6.7 27.9,6.8 27.5,6.5 C26.8,5.9 25.9,5.3 25.4,5 C24.9,4.8 24.7,4.3 24.9,3.8 C25,3.3 25.1,2.9 25.2,2.4 C25.3,2 25.1,1.6 24.7,1.4 C23.7,0.9 22.7,0.6 21.6,0.4 C21.2,0.3 20.7,0.6 20.6,1 C20.4,1.4 20.3,1.8 20.2,2.2 C20.1,2.6 19.9,3 19.4,3 C18.3,3 17.6,3 16.8,3 C16.3,3.1 15.9,2.8 15.7,2.3 C15.5,1.8 15.4,1.5 15.2,1 C15.1,0.6 14.6,0.4 14.2,0.5 C13.1,0.7 12.1,1.1 11.1,1.6 C10.7,1.8 10.5,2.3 10.6,2.7 C10.7,3.2 10.8,3.5 10.9,3.9 C11,4.3 11.1,4.8 10.6,5.1 C10.1,5.4 9.1,6.2 8.5,6.6 C8.2,6.9 7.6,7 7.2,6.7 C6.8,6.4 6.4,6.2 6,6 C5.6,5.8 5.2,5.8 4.9,6.1 C4.2,6.9 3.5,7.8 3,8.8 C2.8,9.2 2.9,9.7 3.3,10 C3.3,10 3.3,10 3.3,10 C3.7,10.3 3.9,10.5 4.3,10.8 C4.7,11.1 5,11.5 4.8,11.9 C4.6,12.3 4.2,13.8 4,14.4 C3.9,14.9 3.5,15.2 3,15.2 C2.5,15.2 2.1,15.3 1.6,15.3 C1.2,15.3 0.8,15.7 0.8,16.1 C0.7,17.2 0.7,18.3 0.9,19.4 C0.9,19.9 1.3,20.2 1.8,20.2 L3.1,20.2 C3.6,20.2 4,20.3 4.1,20.8 C4.3,21.6 4.6,22.5 4.9,23.3 C5.1,23.7 5,24.2 4.6,24.5 C4.2,24.8 3.9,25.1 3.5,25.4 C3.2,25.7 3.1,26.1 3.3,26.5 C3.8,27.5 4.5,28.3 5.3,29.1 C5.6,29.5 6.1,29.5 6.5,29.2 C6.5,29.2 6.5,29.2 6.5,29.2 C6.9,28.9 7.2,28.8 7.6,28.5 C7.9,28.2 8.4,28.1 8.8,28.4 C9.1,28.7 10.4,29.6 10.9,29.9 C11.3,30.1 11.5,30.6 11.4,31.1 C11.3,31.6 11.2,32 11.1,32.5 C11,32.9 11.2,33.3 11.6,33.5 C12.6,34 13.6,34.3 14.7,34.4 C15.1,34.5 15.6,34.2 15.7,33.8 C15.9,33.4 16,33 16.1,32.6 C16.2,32.2 16.5,31.8 17,31.8 C18,31.8 18.7,31.8 19.6,31.8 C20.1,31.7 20.5,32 20.7,32.5 C20.9,33 21,33.3 21.2,33.8 C21.4,34.2 21.8,34.4 22.2,34.3 C23.3,34.1 24.3,33.7 25.3,33.2 C25.7,33 25.9,32.5 25.8,32.1 C25.7,31.6 25.6,31.3 25.5,30.9 C25.4,30.5 25.3,30 25.8,29.7 C26.3,29.4 27.4,28.5 27.9,28.2 C28.2,27.8 28.8,27.8 29.2,28 C29.6,28.3 30,28.5 30.4,28.7 C30.8,28.9 31.2,28.9 31.5,28.6 C32.2,27.8 32.9,27 33.4,26 C33.7,25.6 33.6,25.1 33.2,24.8 C33.2,24.8 33.2,24.8 33.1,24.8 C32.7,24.5 32.5,24.3 32.1,24 C31.7,23.7 31.4,23.3 31.6,22.9 C31.8,22.5 32.2,21.1 32.4,20.4 C32.5,19.9 32.9,19.6 33.4,19.6 C33.9,19.6 34.3,19.5 34.8,19.5 C35.2,19.5 35.6,19.2 35.6,18.7 C35.6,17.6 35.6,16.5 35.4,15.5 Z M18.3,28.2 C12.4,28.2 7.6,23.4 7.6,17.5 C7.6,11.6 12.4,6.8 18.3,6.8 C24.2,6.8 29,11.6 29,17.5 C29,23.4 24.2,28.2 18.3,28.2 Z" id="Shape"></path>
                    <path d="M10.4,14.4 C10.6,14.6 10.8,14.4 10.9,14.3 C11,14.2 11,14 10.9,13.9 C10.8,13.8 11,13.7 11.2,13.6 C11.4,13.5 11.7,13.3 11.9,13.2 C12.4,13.1 12.9,13.1 13.3,13.2 C13.6,13.4 14,13.3 14.2,13 C14.4,12.8 14.6,12.6 14.9,12.4 C15,12.3 14.6,11.9 14.2,12.4 C13.8,12.9 13.6,13 13.4,13 C13.2,13 12.1,12.7 12,12.4 C11.9,12.1 12.3,11.8 12.7,11.6 C13.3,11.5 13.9,11.4 14.5,11.4 C15.1,11.3 15.8,11 16.2,11.2 C16.6,11.4 14.7,11.9 15.3,12.2 C15.5,12.3 16.5,11.6 16.9,11.4 C17.7,11 16.1,10.8 16.3,10 C16.5,9.2 14.4,9.4 13.3,9.5 C12.8,9.8 12.3,10.2 11.8,10.6 C11.9,10.6 12.1,10.7 12.1,10.8 C12.1,11 12.1,11.2 12,11.4 C11.7,11.7 11.4,11.8 11,11.9 C10.9,11.9 10.9,11.9 10.8,11.8 C10.6,12 10.5,12.2 10.3,12.5 C10.5,12.4 10.8,12.3 11,12.3 C11.2,12.3 11.6,12.4 11.6,12.5 C11.6,12.6 11,12.9 10.9,13 C10.6,13.3 10.1,13.9 9.8,14 C9.7,14 9.6,14 9.6,14 C9.5,14.2 9.4,14.4 9.4,14.6 C9.6,14.3 10,14.3 10.4,14.4 Z" id="Path"></path>
                    <path d="M25.9,17 C25.6,17.2 25.3,17.3 24.9,17.4 C24.5,17.7 24.4,18.1 24.4,18.5 C24.5,18.9 25.3,19.8 24.7,19.8 C24.1,19.5 23.6,19.1 23.2,18.5 C23,18 22.8,17.5 22.6,17.1 C22.5,16.8 22.2,16.6 21.9,16.7 C21.8,16.7 21.8,16.8 21.7,16.8 C21.4,17 21.8,17.3 21.5,17.8 C21.2,18.3 21.1,18.7 20.7,18.3 C19.8,17.2 18.4,17.8 18.2,16.6 C18.1,16 17.5,16 17.1,15.7 C16.7,15.4 16.4,15.1 16.3,15.4 C16.2,15.7 17.7,16.8 17.8,17.1 C18,17.6 17.4,18 16.9,18.1 C16.4,18.2 16.3,17.9 15.8,17.4 C15.3,16.9 15.2,16.6 15.1,17 C15.1,17.6 15.4,18.2 16,18.6 C16.4,18.8 16.8,18.9 16.7,19.4 C16.6,19.9 16.7,19.6 16.3,20 C15.9,20.2 15.7,20.7 15.8,21.1 C15.8,21.7 15.7,21.7 15.6,22.2 C15.5,22.7 15.3,22.3 15.1,23 C15,23.4 14.8,23.9 14.5,24.2 C14.1,24.5 13.7,24.7 13.2,24.7 C12.8,24.7 12.7,23.5 12.7,22.9 C12.7,22.7 12.4,23.3 12.3,22.1 C12.2,21.3 11.7,22.2 11.7,21.7 C11.7,21.2 11.4,21.3 11.2,20.9 C11,20.5 10.6,20.9 10.2,21.1 C9.8,21.3 10,21.3 9.5,21.2 L9.5,21.2 C10.6,23.8 12.8,25.8 15.5,26.6 C15.4,26.5 15.3,26.3 15.4,26.1 C15.8,25.4 16.5,25 17.2,25 C18.7,24.9 20.7,26 21.1,25.8 C21.5,25.6 22.1,24.8 23,24.8 C23.3,24.8 23.6,24.9 23.9,25.1 C24.2,24.9 24.5,24.6 24.8,24.3 C24.7,24.3 24.6,24.2 24.5,24.2 C24,23.9 24,24.4 23.8,24.2 C23.6,24 24.1,23.5 23.3,24 C22.5,24.5 22.7,23.9 22.4,23.1 C22.2,22.3 22.6,21.4 23.4,21.1 C24,20.9 24.5,20.8 25.1,20.6 C26.2,20.3 26.5,19.6 26.7,20.1 L26.8,20.3 C26.9,20.5 26.9,20.7 26.9,20.9 C27.1,20.4 27.2,20 27.3,19.5 C27,19.4 26,18 26.8,17 C26.9,16.8 26.5,16.4 26.6,16.4 C27,16.4 27.3,16.6 27.4,17 C27.4,16.5 27.3,16 27.2,15.5 C27.2,15.6 27.2,15.7 27.2,15.8 C27.1,16.1 26.7,16.3 26.4,16.1 C26.3,16.1 26.2,16 26.1,15.9 C26,15.8 25.6,15.4 25.6,16 C25.6,16.6 26.5,16.6 25.9,17 Z M17,20.7 C16.9,20.9 16.5,22.5 16.3,22.3 C16.1,22.1 16.4,20.5 16.5,20.3 C16.8,19.7 17.7,19.7 17,20.7 Z M20.8,18.9 C20.5,19 20.2,19 19.9,18.8 C19.7,18.6 20.1,18.3 20.2,18.3 C20.6,18.2 21.1,18.7 20.8,18.9 L20.8,18.9 Z M24.8,18.5 C24.7,18.4 24.8,18.3 24.9,18.2 C25,18.2 25.1,18.2 25.1,18.2 C25.3,18.3 25.5,18.5 25.5,18.7 C25.5,18.9 25.1,18.8 25,18.8 C24.9,18.8 24.9,18.7 24.8,18.5 L24.8,18.5 Z M26,19.8 C25.7,20 25.4,19.9 25.1,19.7 C24.9,19.5 25.3,19.2 25.4,19.2 C25.8,19.1 26.2,19.6 26,19.8 L26,19.8 Z" id="Shape"></path>
                    <path d="M10,15.5 C10.5,15.6 11,15.7 11.5,15.9 C12.1,16.1 12.9,16.6 13.4,16.4 C13.9,16.2 14,16.1 14,15.7 C14,15.3 13.7,15.2 13.3,15.5 C13.2,15.6 12.9,14.9 12.7,15 C12.5,15.1 13,15.8 12.8,15.8 C12.6,15.8 12.2,15 12.2,14.9 C12.2,14.8 11.8,14.4 11.6,14.7 C11,15.2 10.1,15.2 9.9,15.3 C9.8,15.3 9.8,15.4 9.7,15.4 C9.3,15.5 9.2,15.2 9.2,14.9 C9.1,15.4 9,16 9,16.5 C9,16.5 9,16.5 9,16.4 C9.3,15.8 9.4,15.8 9.5,15.7 C9.6,15.6 9.9,15.6 9.9,15.6 L10,15.5 Z" id="Path"></path>
                </g>
                <g transform="translate(0.000000, 8.000000)">
                    <path d="M15,21.9 C14.5,22.2 13.9,22.5 13.3,22.6 C11.6,23.1 9.9,23.3 8.1,23.2 C7.2,23.2 6.4,23.1 5.5,23 C5,22.9 4.5,22.8 3.9,22.7 C3.6,22.6 3.4,22.6 3.1,22.5 C2.4,22.3 1.7,21.9 1.1,21.5 C0.9,21.3 0.7,21.1 0.5,20.9 L0.5,21.6 C0.5,21.8 0.5,22.6 0.5,22.6 C0.5,23 0.8,23.4 1.1,23.7 C2.3,24.5 3.7,25 5.1,25.2 C6.1,25.3 7.1,25.4 8.1,25.4 C9.5,25.4 11,25.3 12.4,25 L12.4,25 C13.1,24.8 13.9,24.5 14.5,24.2 L14.5,24.2 C15.2,23.8 15.6,23.3 15.6,22.7 C15.6,22.7 15.7,21.2 15.6,21 C15.7,21.4 15.4,21.7 15,21.9 Z" id="Path"></path>
                    <path d="M7.6,16.7 C11.8,16.7 15.2,15.4 15.2,13.9 C15.2,13.9 15.3,12.4 15.3,12.1 C15.3,11.9 15.3,11.7 15.2,11.5 C15.7,11.2 16,10.8 16.1,10.2 C16.1,10.2 16.2,8.6 16.1,8.3 C15.9,6.4 12.1,5.4 8.5,5.4 C4.9,5.4 0.8,6.5 0.8,8.5 C0.8,8.6 0.9,10.3 0.9,10.3 C0.9,10.4 0.9,10.5 1,10.6 C0.4,10.9 0.1,11.5 0,12.1 C0,12.2 0.1,13.9 0.1,13.9 C0.1,14.3 0.4,14.7 0.7,15 C1.9,15.8 3.3,16.3 4.7,16.5 C5.6,16.7 6.6,16.8 7.6,16.7 Z M8.4,6.2 C12.4,6.2 15.3,7.4 15.3,8.5 C15.3,9.6 12.5,10.8 8.4,10.8 C4.3,10.8 1.5,9.6 1.5,8.5 C1.5,7.4 4.3,6.2 8.4,6.2 Z M0.7,12.2 C0.8,11.8 1,11.5 1.3,11.3 C1.5,11.5 1.8,11.7 2.1,11.9 C4.1,12.8 6.2,13.2 8.4,13.1 C10.2,13.1 12,12.9 13.8,12.3 C14,12.2 14.3,12.1 14.5,12 C14.5,12.1 14.5,12.1 14.5,12.2 C14.5,13.3 11.7,14.5 7.6,14.5 C3.5,14.5 0.7,13.3 0.7,12.2 Z" id="Shape"></path>
                    <path d="M5.3,22.6 C6.3,22.8 7.3,22.8 8.3,22.8 C9.7,22.8 11.2,22.6 12.5,22.3 L12.5,22.3 C13.3,22.1 14,21.8 14.6,21.5 L14.6,21.5 C14.8,21.4 14.9,21.3 15.1,21.2 C15.3,21 15.5,20.7 15.7,20.5 C15.8,20.4 15.8,20.2 15.8,20.1 C15.8,20.1 15.8,18.6 15.8,18.4 C15.6,18.7 14.9,19.7 11.9,20.3 C10.6,20.5 9.3,20.6 8,20.6 C5.6,20.6 3,20.1 1.9,19.4 C1.5,19.2 1.2,19 0.9,18.7 C0.7,18.5 0.6,18.3 0.4,18.1 C0.4,18.1 0.4,18.8 0.4,18.9 L0.4,20 C0.4,20.4 0.6,20.8 1,21.1 C2.4,21.9 3.8,22.5 5.3,22.6 Z" id="Path"></path>
                    <path d="M15.8,14.9 C15.7,14.8 15.7,14.8 15.6,14.7 L15.3,14.5 C15.2,14.7 15.1,14.8 14.9,15 C15,15 15.1,15.1 15.2,15.2 C15.4,15.3 15.5,15.5 15.6,15.8 C15.6,16 15.5,16.2 15.3,16.3 C15.2,16.4 15.1,16.5 15,16.5 L14.6,16.7 L13.9,17 L13.2,17.2 C13.1,17.2 12.5,17.4 12.3,17.4 C12.2,17.4 11.5,17.6 11.1,17.6 L10,17.7 C9.9,17.7 8.8,17.8 8.2,17.8 C7.4,17.8 6.6,17.7 5.8,17.6 C5.2,17.5 4.6,17.4 4.1,17.3 C3.5,17.2 2.9,17 2.3,16.7 C2,16.5 1.6,16.3 1.4,16 C1.2,15.8 1,15.5 0.8,15.2 L0.8,16.2 L0.8,17.1 C0.8,17.5 1,17.9 1.4,18.2 C2.6,19 4,19.6 5.4,19.7 C6.4,19.9 7.4,19.9 8.4,19.9 C9.8,19.9 11.3,19.8 12.6,19.4 L12.6,19.4 C13.3,19.2 14.1,18.9 14.7,18.6 L14.7,18.6 C14.9,18.5 15,18.4 15.2,18.3 C15.5,18.1 15.6,17.9 15.8,17.6 C15.9,17.5 15.9,17.3 15.9,17.2 C15.9,17.2 16,15.6 16,15.6 C16.1,15.5 16.1,15.3 16.1,15.2 C16,15.1 15.9,15 15.8,14.9 Z" id="Path"></path>
                    <path d="M25.1,11.3 C29.3,11.3 32.7,10 32.7,8.5 C32.7,8.5 32.8,7 32.8,6.7 C32.8,6.5 32.8,6.3 32.7,6.1 C33.2,5.8 33.5,5.4 33.6,4.8 C33.6,4.8 33.7,3.2 33.6,2.9 C33.4,1 29.6,7.10542736e-15 26,7.10542736e-15 C22.4,7.10542736e-15 18.4,1.1 18.4,3.1 C18.4,3.2 18.5,4.9 18.5,4.9 C18.5,5 18.5,5.1 18.6,5.2 C18,5.5 17.7,6.1 17.6,6.7 C17.6,6.8 17.7,8.5 17.7,8.5 C17.7,8.9 17.9,9.3 18.3,9.6 C19.5,10.4 20.9,11 22.3,11.1 C23,11.2 24.1,11.3 25.1,11.3 Z M25.8,0.8 C29.8,0.8 32.7,2 32.7,3.1 C32.7,4.2 29.9,5.4 25.8,5.4 C21.7,5.4 19,4.1 19,3.1 C19,2.1 21.8,0.8 25.8,0.8 Z M18.2,6.7 C18.3,6.3 18.5,6 18.8,5.8 C19,6 19.3,6.2 19.6,6.4 C21.6,7.3 23.7,7.7 25.9,7.6 C27.7,7.6 29.5,7.4 31.3,6.8 C31.5,6.7 31.8,6.6 32,6.5 C32,6.6 32,6.6 32,6.7 C32,7.8 29.2,9 25.1,9 C21,9 18.2,7.8 18.2,6.7 Z" id="Shape"></path>
                    <path d="M33.5,9.7 C33.5,9.6 33.4,9.5 33.3,9.4 L33.1,9.2 C33,9.1 32.9,9.1 32.8,9 C32.7,9.2 32.6,9.3 32.5,9.4 C32.6,9.4 32.7,9.5 32.8,9.6 C33,9.7 33.1,9.9 33.1,10.2 C33.1,10.4 33,10.6 32.8,10.7 C32.7,10.8 32.6,10.9 32.5,10.9 L32.1,11.1 C32.1,11.1 31.6,11.3 31.4,11.4 L30.7,11.6 L29.8,11.8 L28.6,12 C28.5,12 27.7,12.1 27.4,12.1 C27.3,12.1 26.2,12.2 25.7,12.2 C24.9,12.2 24.1,12.1 23.3,12 C22.7,11.9 22.1,11.8 21.6,11.7 C21,11.6 20.4,11.4 19.8,11.1 C19.5,10.9 19.1,10.7 18.9,10.5 C18.7,10.3 18.5,10 18.3,9.7 L18.3,10.7 L18.3,11.6 C18.3,12 18.5,12.4 18.9,12.7 C20.1,13.5 21.5,14.1 22.9,14.2 C23.9,14.4 24.9,14.4 25.9,14.4 C27.3,14.4 28.8,14.2 30.1,13.9 L30.1,13.9 C30.9,13.7 31.6,13.4 32.3,13.1 L32.3,13.1 C32.5,13 32.6,12.9 32.8,12.8 C33,12.6 33.2,12.3 33.4,12.1 C33.4,12 33.5,11.8 33.5,11.7 C33.5,11.7 33.6,10.1 33.6,10.1 C33.5,10 33.5,9.9 33.5,9.7 Z" id="Path"></path>
                    <path d="M32.6,16.4 C32.1,16.7 31.5,17 30.9,17.1 C29.2,17.6 27.5,17.8 25.7,17.8 C24.8,17.8 24,17.7 23.1,17.6 C22.6,17.5 22.1,17.4 21.5,17.3 C21.2,17.2 21,17.2 20.7,17.1 C20,16.9 19.3,16.5 18.7,16.1 C18.5,15.9 18.3,15.7 18.1,15.5 L18.1,16.2 C18.1,16.4 18.1,17.2 18.1,17.2 C18.1,17.6 18.3,18 18.7,18.3 C19.9,19.1 21.3,19.6 22.7,19.8 C23.7,20 24.7,20 25.7,20 C27.1,20 28.6,19.8 29.9,19.5 L29.9,19.5 C30.7,19.3 31.4,19 32.1,18.7 L32.1,18.7 C32.8,18.3 33.2,17.8 33.2,17.2 C33.2,17.2 33.3,15.7 33.2,15.5 C33.2,15.9 32.9,16.2 32.6,16.4 Z" id="Path"></path>
                    <path d="M18.8,15.6 C20,16.4 21.4,16.9 22.8,17.1 C23.8,17.2 24.8,17.3 25.8,17.3 C27.2,17.3 28.7,17.1 30,16.8 L30,16.8 C30.8,16.6 31.5,16.4 32.2,16 L32.2,16 C32.4,15.9 32.5,15.8 32.7,15.7 C33,15.5 33.1,15.3 33.3,15 C33.4,14.9 33.4,14.7 33.4,14.6 C33.4,14.6 33.4,13.1 33.4,12.9 C33.1,13.2 32.5,14.2 29.5,14.8 C28.2,15 26.9,15.1 25.6,15.1 C23.2,15.1 20.7,14.6 19.5,13.9 C19.1,13.7 18.8,13.5 18.5,13.2 C18.3,13 18.2,12.8 18,12.6 C18,12.6 18,13.3 18,13.4 L18,14.5 C18.1,15 18.4,15.4 18.8,15.6 Z" id="Path"></path>
                    <path d="M33.5,21 C33.3,21.3 32.9,21.6 32.6,21.9 C32.1,22.2 31.5,22.5 30.9,22.6 C29.2,23.1 27.5,23.3 25.7,23.2 C24.8,23.2 24,23.1 23.1,23 C22.5,22.9 22.1,22.8 21.5,22.7 L20.7,22.5 C20,22.3 19.3,21.9 18.7,21.5 C18.5,21.3 18.3,21.1 18.1,20.9 L18.1,21.6 C18.1,21.8 18.1,22.6 18.1,22.6 C18.1,23 18.4,23.4 18.7,23.7 C19.9,24.5 21.3,25.1 22.7,25.2 C23.7,25.4 24.7,25.4 25.7,25.4 C27.1,25.4 28.6,25.3 30,25 L30,25 C30.7,24.8 31.5,24.5 32.1,24.2 L32.1,24.2 C32.8,23.8 33.2,23.3 33.2,22.7 C33.5,22.6 33.5,21.1 33.5,21 Z" id="Path"></path>
                    <path d="M22.9,22.5 C23.9,22.7 24.9,22.7 25.9,22.7 C27.3,22.7 28.8,22.6 30.1,22.2 L30.1,22.2 C30.8,22 31.6,21.7 32.2,21.4 L32.2,21.4 C32.4,21.3 32.5,21.2 32.7,21.1 C32.9,20.9 33.1,20.7 33.3,20.4 C33.4,20.3 33.4,20.1 33.4,20 C33.4,20 33.4,18.5 33.4,18.3 C33.1,18.6 32.5,19.6 29.5,20.2 C28.2,20.4 26.9,20.5 25.6,20.5 C23.2,20.4 20.6,20 19.5,19.3 C19.1,19.1 18.8,18.9 18.5,18.6 C18.3,18.4 18.2,18.2 18,18 C18,18 18,18.7 18,18.8 L18,20 C18,20.4 18.3,20.8 18.6,21.1 C19.9,21.9 21.4,22.4 22.9,22.5 Z" id="Path"></path>
                </g>
                <path d="M57.8,50.6 L50.6,56.3 C50.5,56.4 50.4,56.4 50.3,56.4 C50.1,56.3 50.1,56.2 50.1,56 L50.1,53.1 L20.3,53.1 C20.2,53.1 20,52.9 20.1,52.8 L20.1,47.8 C20.1,47.6 20.2,47.5 20.3,47.5 L50,47.5 L50,44.7 C50,44.5 50,44.4 50.2,44.3 C50.3,44.3 50.4,44.3 50.5,44.4 L57.7,49.9 C57.9,50 57.9,50.3 57.8,50.5 C57.9,50.5 57.9,50.6 57.8,50.6 L57.8,50.6 Z" id="Path"></path>
                <path d="M18.2,64.8 L25.4,70.5 C25.5,70.6 25.6,70.6 25.7,70.6 C25.9,70.6 25.9,70.5 25.9,70.3 L25.9,67.4 L55.6,67.4 C55.7,67.4 55.9,67.2 55.8,67.1 C55.8,67.1 55.8,67.1 55.8,67.1 L55.8,62.1 C55.8,61.9 55.7,61.8 55.6,61.8 L26,61.8 L26,59 C26,58.8 26,58.7 25.8,58.7 C25.7,58.7 25.6,58.7 25.5,58.8 L18.3,64.3 C18.2,64.4 18.1,64.5 18.1,64.7 C18.1,64.6 18.1,64.7 18.2,64.8 Z" id="Path"></path>
            </g>
        </g>
    </g>
</svg>