<?xml version="1.0" encoding="UTF-8"?>
<svg width="95px" height="95px" viewBox="0 0 95 95" version="1.1" xmlns="http://www.w3.org/2000/svg" xmlns:xlink="http://www.w3.org/1999/xlink">
    <!-- Generator: Sketch 53.2 (72643) - https://sketchapp.com -->
    <title>goal_15_target_15_3</title>
    <desc>Created with Sketch.</desc>
    <g id="goal_15_target_15_3" stroke="none" stroke-width="1" fill="none" fill-rule="evenodd">
        <g id="Group-122" fill-rule="nonzero">
            <rect id="Rectangle" fill="#56C02B" x="-3.62376795e-13" y="-2.13162821e-14" width="94.8" height="94.8"></rect>
            <g id="Group" transform="translate(5.700000, 5.000000)" fill="#000000">
                <path d="M20,36.5 C19.9,36.6 19.9,36.8 20.1,36.9 C20.1,36.9 20.1,36.9 20.1,36.9 L22.8,38.9 L22.8,38.9 L25.9,41.2 C25.8,44.4 25.8,48.8 25.9,50.2 C25.9,50.5 26.7,50.5 26.7,50.5 L26.9,50.5 C27.2,50.5 27.8,50.5 27.9,50.2 C28,48.2 27.7,40.3 27.6,38.2 L27.6,37.5 L32.4,32.5 C32.5,32.4 32.6,32.2 32.4,32 C32.2,31.8 32.1,31.8 31.9,32 C31.9,32 31.9,32 31.9,32 L30.8,33.2 L30.8,30 C30.8,29.8 30.7,29.7 30.5,29.7 C30.3,29.7 30.1,30 30,30.2 C30,30.2 30,30.2 30,30.2 L30,34.1 L27.4,36.8 L27.2,32.3 C27.1,30.3 27.1,28.2 26.9,26.2 C26.9,26.2 26.9,26.1 26.7,26.1 C26.5,26.1 26.5,26.2 26.5,26.2 C26.3,28.2 26.4,30.2 26.3,32.3 L26.3,32.3 L24.3,30.3 C24.2,30.2 23.9,30.2 23.8,30.4 C23.7,30.5 23.7,30.7 23.8,30.8 L24.4,31.4 L23,31.9 C22.8,32 22.7,32.1 22.8,32.3 C22.8,32.4 23,32.5 23.1,32.5 L23.2,32.5 L24.9,31.9 L26.3,33.3 L26,38.4 C26,38.9 26,39.6 25.9,40.6 L23.4,38.7 L23.4,35 C23.4,34.8 23.2,34.7 23,34.7 C22.9,34.7 22.8,34.8 22.7,35 L22.7,38.1 L20.5,36.4 C20.4,36.3 20.2,36.3 20,36.5 C20,36.5 20,36.5 20,36.5 Z" id="Path"></path>
                <path d="M7.1,34.5 L7.1,34.5 L11.4,37.7 C11.3,42.1 11.2,48.2 11.4,50.2 C11.4,50.6 12.5,50.6 12.5,50.6 L12.8,50.6 C13.2,50.6 14.1,50.6 14.1,50.2 C14.3,47.4 13.9,36.4 13.7,33.6 L13.7,32.7 L20.3,25.8 C20.5,25.6 20.5,25.3 20.3,25.1 C20.1,24.9 19.8,24.9 19.7,25.1 L18,26.8 L18,22.3 C18,22.1 17.8,21.8 17.6,21.8 L17.6,21.8 C17.3,21.8 17.1,22 17.1,22.3 L17.1,27.8 L13.6,31.5 L13.3,25.2 C13.1,22.4 13.1,19.5 12.9,16.7 C12.9,16.7 12.9,16.6 12.6,16.6 C12.3,16.6 12.3,16.8 12.3,16.8 C12.1,19.6 12.1,22.4 11.9,25.3 L11.9,25.4 L9.1,22.5 C8.9,22.3 8.6,22.3 8.5,22.5 C8.4,22.7 8.3,23 8.5,23.1 L9.3,23.9 L7.3,24.6 C7.1,24.7 6.9,24.9 7,25.2 C7.1,25.4 7.2,25.5 7.4,25.5 L7.5,25.5 L9.9,24.7 L11.8,26.6 L11.4,33.8 C11.4,34.4 11.3,35.5 11.3,36.8 L7.8,34 L7.8,29 C7.8,28.7 7.6,28.5 7.3,28.5 C7,28.5 6.8,28.7 6.8,29 L6.8,33.3 L3.8,31 C3.6,30.9 3.3,30.9 3.2,31.2 C3.1,31.4 3.1,31.6 3.3,31.8 L7.1,34.5 Z" id="Path"></path>
                <rect id="Rectangle" x="40.8" y="70.9" width="1.7" height="4.8"></rect>
                <rect id="Rectangle" x="40.8" y="79.7" width="1.7" height="4.7"></rect>
                <rect id="Rectangle" x="40.8" y="44.5" width="1.7" height="4.7"></rect>
                <rect id="Rectangle" x="40.8" y="18.1" width="1.7" height="4.7"></rect>
                <rect id="Rectangle" x="40.8" y="35.7" width="1.7" height="4.7"></rect>
                <rect id="Rectangle" x="40.8" y="26.9" width="1.7" height="4.8"></rect>
                <rect id="Rectangle" x="40.8" y="9.3" width="1.7" height="4.7"></rect>
                <rect id="Rectangle" x="40.8" y="0.5" width="1.7" height="4.7"></rect>
                <path d="M1,53.3 C0.8,53.3 0.7,53.4 0.7,53.6 L0.7,57.7 C0.7,57.9 0.9,58 1,58 L8.1,58 L3,64.9 L6.8,69.1 L3.2,74.9 L4.1,75.4 L8.1,68.9 L4.3,64.8 L7.3,60.8 L13,64.3 L13.5,63.5 L7.9,60 L9.4,58 L15.7,58 L20.1,62 L18.9,66.1 L14,68.7 L14.5,69.6 L19.2,67.1 L25.5,73.1 L26.2,72.4 L19.8,66.4 L21.1,61.8 L17.1,58.2 L28.7,58.2 L24.6,64.2 L32.7,66.9 L30,76 L31,76.3 L32.6,71 L36.4,72.3 L36.7,71.4 L32.8,70 L34,66.1 L26.2,63.5 L30,58 L41.6,58 L41.6,53.3 L1,53.3 Z" id="Path"></path>
            </g>
            <g id="Group" transform="translate(46.700000, 21.000000)" fill="#FFFFFF">
                <path d="M41.5,37.3 L0.6,37.3 L0.6,42 L41.4,42 C41.6,42 41.7,41.9 41.7,41.7 L41.7,37.7 C41.8,37.5 41.7,37.3 41.5,37.3 Z" id="Path"></path>
                <path d="M41.4,45.4 L1,45.4 C0.8,45.4 0.7,45.5 0.7,45.7 L0.7,49.8 C0.7,50 0.9,50.1 1,50.1 L41.4,50.1 C41.6,50.1 41.7,50 41.7,49.8 L41.7,45.7 C41.7,45.5 41.5,45.4 41.4,45.4 Z" id="Path"></path>
                <path d="M18.2,26.1 L20.4,26.1 L20.4,34.4 C20.4,34.6 20.5,34.7 20.7,34.7 L24.5,34.7 C24.7,34.7 24.8,34.6 24.8,34.4 L24.8,26 L28.7,26 C31.8,26 34.2,23.5 34.2,20.4 C34.2,19 33.7,17.6 32.7,16.6 C35.2,15.2 36,12 34.6,9.5 C33.6,8 31.9,7 30.1,7 L29.8,7 C29.5,3.1 26.1,0.3 22.3,0.6 C18.5,0.9 15.6,4.3 15.9,8.1 C16,9 16.2,9.8 16.6,10.6 C12.4,11.5 9.7,15.7 10.6,19.9 C11.3,23.5 14.5,26.1 18.2,26.1 L18.2,26.1 Z" id="Path"></path>
            </g>
        </g>
    </g>
</svg>