<?xml version="1.0" encoding="UTF-8"?>
<svg width="95px" height="95px" viewBox="0 0 95 95" version="1.1" xmlns="http://www.w3.org/2000/svg" xmlns:xlink="http://www.w3.org/1999/xlink">
    <!-- Generator: Sketch 53.2 (72643) - https://sketchapp.com -->
    <title>goal_8_target_8_8</title>
    <desc>Created with Sketch.</desc>
    <g id="goal_8_target_8_8" stroke="none" stroke-width="1" fill="none" fill-rule="evenodd">
        <g id="Group-60" fill-rule="nonzero">
            <rect id="Rectangle" fill="#A21942" x="-3.62376795e-13" y="-2.13162821e-14" width="94.8" height="94.8"></rect>
            <g id="Group" transform="translate(10.700000, 12.000000)" fill="#FFFFFF">
                <g transform="translate(40.000000, 0.000000)" id="Path">
                    <path d="M32.5,37.6 L28,22.7 C28,22.7 26.4,18.4 22.7,18.4 L11,18.4 C7.4,18.4 5.7,22.7 5.7,22.7 L1.1,37.6 C1.1,37.6 0.3,40.3 2.6,41 C4.9,41.7 5.6,39 5.6,39 L9.3,26.5 C9.3,26.5 9.5,25.5 10.2,25.7 C10.9,25.9 10.6,26.9 10.6,26.9 L4.2,50.3 L10.2,50.3 L10.2,67 C10.3,68.6 11.7,69.8 13.2,69.7 C14.7,69.6 15.8,68.5 15.9,67 L15.9,50.4 L17.5,50.4 L17.5,67.1 C17.6,68.7 19,69.9 20.5,69.8 C22,69.7 23.1,68.6 23.2,67.1 L23.2,50.4 L29.2,50.4 L23,27.1 C23,27.1 22.7,26.1 23.4,25.9 C24.1,25.7 24.3,26.7 24.3,26.7 L28,39 C28,39 28.7,41.7 31,41 C33.3,40.3 32.5,37.6 32.5,37.6 Z"></path>
                    <path d="M11.3,10.2 C11.3,13.2 13.8,15.7 16.8,15.7 C16.8,15.7 16.8,15.7 16.8,15.7 L17,15.7 C20.1,15.7 22.6,13.2 22.6,10.2 C22.6,10.2 22.6,10.2 22.6,10.2 C22.6,9.8 22.6,9.4 22.5,9 L11.5,9 C11.4,9.3 11.3,9.8 11.3,10.2 Z"></path>
                    <path d="M23.2,5.8 L22.6,5.8 C22.2,4.2 21.1,2.9 19.6,2.2 L18.8,4.8 L18.8,0.9 L15.8,0.9 L15.8,4.7 L14.8,2 C13.1,2.7 11.9,4.1 11.4,5.8 L10.8,5.8 L10.8,7.9 L23.2,7.9 L23.2,5.8 Z"></path>
                </g>
                <g transform="translate(0.000000, 14.000000)">
                    <polygon id="Path" points="2.8 40.2 2.7 5.4 0.8 5.4 0.8 42.4 27.4 42.4 27.4 40.2"></polygon>
                    <path d="M31.3,0.9 L4.8,0.9 L4.8,5.4 L4.8,37.9 L31.4,37.9 L31.3,0.9 Z M16.1,11.6 L16.1,11.6 C15.4,11 15.1,10.1 15.1,9.2 L15.1,9 C15.1,7.4 16.1,6.3 18.1,6.3 C19.6,6.1 20.9,7.2 21.1,8.7 C21.1,8.9 21.1,9.1 21.1,9.3 L21.1,9.9 L19.1,9.9 L19.1,9.2 C19.2,8.6 18.8,8.1 18.2,8 C18.1,8 18.1,8 18,8 C17.3,8 16.9,8.3 16.9,8.9 L16.9,9.1 C16.9,9.6 17.1,9.8 17.7,10.2 L20,11.6 C21,12 21.7,13 21.7,14.1 C21.7,15.1 21,16 20,16.3 L20,16.4 C20.7,16.9 21.1,17.8 21.1,18.7 L21.1,19.1 C21.1,20.8 20.2,21.9 18.1,21.9 C16.6,22 15.2,20.9 15.1,19.4 C15.1,19.2 15.1,19 15.1,18.9 L15.1,18 L17.1,18 L17.1,18.9 C17.1,19.5 17.5,19.9 18,20 C18,20 18.1,20 18.1,20 C18.8,20 19.2,19.7 19.2,19 L19.2,18.8 C19.2,18.3 19,18 18.2,17.6 L16,16.3 C15,15.8 14.4,14.8 14.3,13.7 C14.4,12.7 15.1,11.8 16.1,11.6 Z M8.8,25.1 C8.8,25 8.9,25 9,25 L27.2,25 C27.3,25 27.4,25 27.4,25.1 L27.4,28 C27.4,28.1 27.3,28.1 27.2,28.1 L8.9,28.1 C8.8,28.1 8.7,28.1 8.7,28 L8.8,25.1 Z M27.2,33.3 L9,33.3 C8.9,33.3 8.8,33.3 8.8,33.2 L8.8,30.3 C8.8,30.2 8.9,30.2 9,30.2 L27.2,30.2 C27.3,30.2 27.4,30.3 27.4,30.3 L27.4,33.2 C27.3,33.2 27.3,33.3 27.2,33.3 Z" id="Shape"></path>
                    <path d="M17.2,14.6 L18.9,15.6 C19.4,15.5 19.7,15 19.8,14.5 C19.8,13.8 19.6,13.6 18.8,13.2 L17,12.1 C16.5,12.3 16.2,12.7 16.2,13.2 C16.3,13.9 16.5,14.2 17.2,14.6 Z" id="Path"></path>
                </g>
            </g>
        </g>
    </g>
</svg>