<?xml version="1.0" encoding="UTF-8"?>
<svg width="95px" height="95px" viewBox="0 0 95 95" version="1.1" xmlns="http://www.w3.org/2000/svg" xmlns:xlink="http://www.w3.org/1999/xlink">
    <!-- Generator: Sketch 53.2 (72643) - https://sketchapp.com -->
    <title>goal_9_target_9_2</title>
    <desc>Created with Sketch.</desc>
    <g id="goal_9_target_9_2" stroke="none" stroke-width="1" fill="none" fill-rule="evenodd">
        <g id="Group-66" fill-rule="nonzero">
            <rect id="Rectangle" fill="#FD6925" x="-3.62376795e-13" y="-2.13162821e-14" width="94.8" height="94.8"></rect>
            <g id="Group" transform="translate(8.700000, 7.000000)" fill="#FFFFFF">
                <g transform="translate(21.000000, 0.000000)">
                    <path d="M25.7,21.6 L25.7,15.9 L16,21.6 L16,15.9 L6.3,21.6 L6.3,21.6 L6.3,2.3 C6.3,2.2 6.2,2.1 6.1,2.1 C6.1,2.1 6.1,2.1 6.1,2.1 L0.3,2.1 C0.2,2.1 0.1,2.2 0.1,2.3 L0.1,2.3 L0.1,39.2 C0.1,39.3 0.2,39.4 0.3,39.4 L35.2,39.4 C35.3,39.4 35.4,39.3 35.4,39.2 L35.4,15.9 L25.7,21.6 Z M8.8,35.6 C8.8,35.8 8.7,35.9 8.5,35.9 L3,35.9 C2.8,35.9 2.7,35.8 2.7,35.6 C2.7,35.6 2.7,35.6 2.7,35.6 L2.7,32.6 C2.7,32.4 2.8,32.3 3,32.3 C3,32.3 3,32.3 3,32.3 L8.5,32.3 C8.7,32.3 8.8,32.4 8.8,32.6 C8.8,32.6 8.8,32.6 8.8,32.6 L8.8,35.6 Z M8.8,29.6 C8.8,29.8 8.7,29.9 8.5,29.9 C8.5,29.9 8.5,29.9 8.5,29.9 L3,29.9 C2.8,29.9 2.7,29.8 2.7,29.6 C2.7,29.6 2.7,29.6 2.7,29.6 L2.7,26.6 C2.7,26.4 2.8,26.3 3,26.3 C3,26.3 3,26.3 3,26.3 L8.5,26.3 C8.7,26.3 8.8,26.4 8.8,26.6 C8.8,26.6 8.8,26.6 8.8,26.6 L8.8,29.6 Z M16.8,35.6 C16.8,35.8 16.7,35.9 16.5,35.9 L11,35.9 C10.8,35.9 10.7,35.8 10.7,35.6 C10.7,35.6 10.7,35.6 10.7,35.6 L10.7,32.6 C10.7,32.4 10.8,32.3 11,32.3 C11,32.3 11,32.3 11,32.3 L16.5,32.3 C16.7,32.3 16.8,32.4 16.8,32.6 C16.8,32.6 16.8,32.6 16.8,32.6 L16.8,35.6 Z M16.8,29.6 C16.8,29.8 16.7,29.9 16.5,29.9 C16.5,29.9 16.5,29.9 16.5,29.9 L11,29.9 C10.8,29.9 10.7,29.8 10.7,29.6 C10.7,29.6 10.7,29.6 10.7,29.6 L10.7,26.6 C10.7,26.4 10.8,26.3 11,26.3 C11,26.3 11,26.3 11,26.3 L16.5,26.3 C16.7,26.3 16.8,26.4 16.8,26.6 C16.8,26.6 16.8,26.6 16.8,26.6 L16.8,29.6 Z M24.8,35.6 C24.8,35.8 24.7,35.9 24.5,35.9 C24.5,35.9 24.5,35.9 24.5,35.9 L19,35.9 C18.8,35.9 18.7,35.8 18.7,35.6 L18.7,32.6 C18.7,32.4 18.8,32.3 19,32.3 C19,32.3 19,32.3 19,32.3 L24.5,32.3 C24.7,32.3 24.8,32.4 24.8,32.6 C24.8,32.6 24.8,32.6 24.8,32.6 L24.8,35.6 Z M24.8,29.6 C24.8,29.8 24.7,29.9 24.5,29.9 C24.5,29.9 24.5,29.9 24.5,29.9 L19,29.9 C18.8,29.9 18.7,29.8 18.7,29.6 C18.7,29.6 18.7,29.6 18.7,29.6 L18.7,26.6 C18.7,26.4 18.8,26.3 19,26.3 C19,26.3 19,26.3 19,26.3 L24.5,26.3 C24.7,26.3 24.8,26.4 24.8,26.6 C24.8,26.6 24.8,26.6 24.8,26.6 L24.8,29.6 Z M32.8,35.6 C32.8,35.8 32.7,35.9 32.5,35.9 C32.5,35.9 32.5,35.9 32.5,35.9 L27,35.9 C26.8,35.9 26.7,35.8 26.7,35.6 L26.7,32.6 C26.7,32.4 26.8,32.3 27,32.3 C27,32.3 27,32.3 27,32.3 L32.5,32.3 C32.7,32.3 32.8,32.4 32.8,32.6 C32.8,32.6 32.8,32.6 32.8,32.6 L32.8,35.6 Z M32.8,29.6 C32.8,29.8 32.7,29.9 32.5,29.9 C32.5,29.9 32.5,29.9 32.5,29.9 L27,29.9 C26.8,29.9 26.7,29.8 26.7,29.6 C26.7,29.6 26.7,29.6 26.7,29.6 L26.7,26.6 C26.7,26.4 26.8,26.3 27,26.3 C27,26.3 27,26.3 27,26.3 L32.5,26.3 C32.7,26.3 32.8,26.4 32.8,26.6 C32.8,26.6 32.8,26.6 32.8,26.6 L32.8,29.6 Z" id="Shape"></path>
                    <path d="M11.6,13.8 C12.1,12.7 12.8,11.6 13.6,10.7 C15.3,11.3 18.3,12.1 20.5,10.6 C23.3,8.6 23,4.2 27.1,2.1 C28,1.6 19.2,-0.5 14.5,2.2 C12.2,3.5 11,6 11.4,8.6 C14.2,5.5 18.2,3.6 22.4,3.6 C22.4,3.6 13.1,6.8 10.3,13.3 C10,13.7 11.3,14.4 11.6,13.8 Z" id="Path"></path>
                </g>
                <g transform="translate(0.000000, 44.000000)" id="Path">
                    <g transform="translate(0.000000, 2.000000)">
                        <path d="M5.5,2.8 C5.5,4.4 6.7,5.7 8.3,5.7 C9.9,5.7 11.2,4.5 11.2,2.9 C11.2,1.3 10,0 8.4,0 C8.4,0 8.4,0 8.4,0 C6.8,0 5.5,1.3 5.5,2.8 Z"></path>
                        <path d="M14.2,9.4 C14.2,9.4 13.3,7.1 11.4,7.1 L5.3,7.1 C3.4,7.1 2.5,9.4 2.5,9.4 L0.1,17.2 C0.1,17.2 -0.3,18.6 0.9,19 C2.1,19.4 2.5,18 2.5,18 L4.4,11.5 C4.4,11.5 4.5,11 4.9,11.1 C5.3,11.2 5.1,11.7 5.1,11.7 L1.9,24 L5,24 L5,32.8 C5.1,33.6 5.8,34.2 6.7,34.1 C7.4,34 7.9,33.5 8,32.8 L8,24 L8.9,24 L8.9,32.8 C9,33.6 9.7,34.2 10.6,34.1 C11.3,34 11.8,33.5 11.9,32.8 L11.9,24 L15,24 L11.6,11.7 C11.6,11.7 11.5,11.2 11.8,11.1 C12.1,11 12.3,11.5 12.3,11.5 L14.2,18.1 C14.2,18.1 14.6,19.5 15.8,19.1 C17,18.7 16.6,17.3 16.6,17.3 L14.2,9.4 Z"></path>
                    </g>
                    <g transform="translate(60.000000, 2.000000)">
                        <path d="M6.2,2.8 C6.2,4.4 7.4,5.7 9,5.7 C10.6,5.7 11.9,4.5 11.9,2.9 C11.9,1.3 10.7,0 9.1,0 C9.1,0 9.1,0 9.1,0 C7.5,0 6.2,1.3 6.2,2.8 Z"></path>
                        <path d="M14.9,9.4 C14.9,9.4 14.1,7.1 12.1,7.1 L6,7.1 C4.1,7.1 3.2,9.4 3.2,9.4 L0.8,17.2 C0.8,17.2 0.4,18.6 1.6,19 C2.8,19.4 3.2,18 3.2,18 L5.1,11.5 C5.1,11.5 5.2,11 5.6,11.1 C6,11.2 5.8,11.7 5.8,11.7 L2.4,23.9 L5.5,23.9 L5.5,32.7 C5.6,33.5 6.3,34.1 7.2,34 C7.9,33.9 8.4,33.4 8.5,32.7 L8.5,23.9 L9.3,23.9 L9.3,32.7 C9.4,33.5 10.1,34.1 11,34 C11.7,33.9 12.2,33.4 12.3,32.7 L12.3,23.9 L15.4,23.9 L12.1,11.6 C12.1,11.6 12,11.1 12.3,11 C12.6,10.9 12.8,11.4 12.8,11.4 L14.7,18 C14.7,18 15.1,19.4 16.3,19 C17.5,18.6 17.1,17.2 17.1,17.2 L14.9,9.4 Z"></path>
                    </g>
                    <g transform="translate(18.000000, 9.000000)">
                        <path d="M10.9,5.7 C12.4,5.7 13.7,4.5 13.7,2.9 C13.7,1.4 12.5,0.1 10.9,0.1 C9.4,0.1 8.1,1.3 8.1,2.9 L8.1,2.9 C8.1,4.5 9.4,5.7 10.9,5.7 Z"></path>
                        <path d="M22.5,22.8 L21.3,20.5 L21.3,20.5 L18.5,15 C18.3,14.5 17.7,14.2 17.2,14.3 L13.3,14.3 L13.2,9.3 C13.2,7.8 12.8,6.9 11.6,6.6 C11,6.5 10.5,6.5 9.9,6.6 L9.8,6.6 L9.8,6.6 L5.1,8.1 C5.1,8.1 5,8.1 5,8.1 L4.9,8.1 L4.9,8.1 C4.7,8.2 4.5,8.5 4.4,8.7 L3,12.6 C2.8,13.2 3.2,13.9 3.8,14.1 C4.4,14.3 5,14 5.2,13.4 L6.3,10.2 L8.1,9.6 L8.2,9.6 L8.2,14.8 C8.2,16 8.6,17.2 9.8,17.5 L10.2,17.6 C10.4,17.6 10.6,17.6 10.8,17.6 L16.6,17.6 L18.1,20.6 C18.1,20.6 18.1,20.7 18.1,20.7 L18.7,21.8 L19.2,22.8 L19.2,22.9 L19.2,22.9 L19.8,24 C20.2,24.7 21.1,25 21.8,24.6 C22.5,24.2 22.8,23.3 22.4,22.6 L22.5,22.8 Z"></path>
                        <path d="M14,19.5 C14,19.6 14,19.7 14,19.8 C14,22.9 11.5,25.4 8.4,25.5 C5.3,25.5 2.8,23 2.7,19.9 C2.7,18.6 3.1,17.3 3.9,16.3 L2.5,15.2 C2.22044605e-16,18.4 0.6,23.1 3.8,25.6 C7,28.1 11.7,27.5 14.2,24.3 C15.2,23 15.8,21.4 15.8,19.8 C15.8,19.7 15.8,19.6 15.8,19.5 L14,19.5 L14,19.5 Z"></path>
                    </g>
                    <g transform="translate(42.000000, 0.000000)">
                        <path d="M4.8,3.9 C4.8,5.6 6.1,6.9 7.8,6.9 C9.5,6.9 10.8,5.6 10.8,3.9 C10.8,2.2 9.5,0.9 7.8,0.9 C6.1,0.9 4.8,2.2 4.8,3.9 Z"></path>
                        <path d="M11.3,8 L11,8 L4.5,8 L4.3,8 C2.2,8.2 0.7,9.9 0.7,12 L0.7,20.3 C0.7,20.9 1.2,21.5 1.9,21.5 C2.5,21.5 3.1,21 3.1,20.3 C3.1,20.3 3.1,20.3 3.1,20.3 L3.1,13.2 C3.1,12.9 3.2,12.6 3.7,12.6 C4,12.6 4.1,12.9 4.1,13.2 L4.1,34.6 C4.2,35.5 5,36.2 5.9,36.1 C6.7,36 7.4,35.4 7.4,34.6 L7.4,22.2 C7.4,21.9 7.6,21.7 7.8,21.7 C7.8,21.7 7.8,21.7 7.9,21.7 L7.9,21.7 C8.2,21.7 8.4,21.9 8.4,22.1 C8.4,22.1 8.4,22.1 8.4,22.2 L8.4,34.5 C8.5,35.4 9.3,36.1 10.2,36 C11,35.9 11.7,35.3 11.7,34.5 L11.7,13.1 C11.7,12.9 11.8,12.5 12.1,12.5 C12.4,12.5 12.7,12.9 12.7,13.1 L12.7,20.2 C12.7,20.8 13.2,21.4 13.9,21.4 C14.5,21.4 15.1,20.9 15.1,20.2 L15.1,12 C14.9,9.9 13.3,8.2 11.3,8 Z"></path>
                    </g>
                </g>
            </g>
        </g>
    </g>
</svg>