<?xml version="1.0" encoding="UTF-8"?>
<svg width="95px" height="95px" viewBox="0 0 95 95" version="1.1" xmlns="http://www.w3.org/2000/svg" xmlns:xlink="http://www.w3.org/1999/xlink">
    <!-- Generator: Sketch 53.2 (72643) - https://sketchapp.com -->
    <title>goal_8_target_8_1</title>
    <desc>Created with Sketch.</desc>
    <g id="goal_8_target_8_1" stroke="none" stroke-width="1" fill="none" fill-rule="evenodd">
        <g id="Group-53" fill-rule="nonzero">
            <rect id="Rectangle" fill="#A21942" x="-3.62376795e-13" y="-2.13162821e-14" width="94.8" height="94.8"></rect>
            <g id="Group" transform="translate(9.700000, 10.000000)" fill="#FFFFFF">
                <g id="Path">
                    <path d="M19.5,26.8 C20.4,25.2 21.6,23.8 22.9,22.5 L11.9,10.4 C9.1,13.1 6.8,16.1 4.9,19.5 L19.5,26.8 Z"></path>
                    <path d="M46.5,18.2 C48.2,19 49.7,19.9 51.1,21.1 L62.1,9.1 C59.2,6.6 55.9,4.5 52.3,3 L46.5,18.2 Z"></path>
                    <path d="M71.8,21.9 L57.2,29.2 C57.9,30.9 58.4,32.6 58.7,34.4 L75,32.9 C74.5,29 73.4,25.3 71.8,21.9"></path>
                    <path d="M56.1,27 L70.7,19.7 C68.9,16.3 66.6,13.3 63.9,10.6 L52.9,22.6 C54.2,24 55.3,25.4 56.1,27"></path>
                    <path d="M16.6,37.4 C16.6,37.1 16.6,36.7 16.6,36.4 L0.4,35 C0.4,35.8 0.3,36.6 0.3,37.4 C0.3,40.5 0.7,43.5 1.4,46.5 L17.1,42 C16.8,40.5 16.6,39 16.6,37.4"></path>
                    <path d="M54.1,50.8 C52.9,52.2 51.6,53.5 50.1,54.5 L58.7,68.4 C61.9,66.2 64.7,63.6 67.1,60.6 L54.1,50.8 Z"></path>
                    <path d="M58.9,37.4 C58.9,38.9 58.7,40.4 58.4,41.9 L74.1,46.4 C74.8,43.5 75.2,40.4 75.2,37.4 C75.2,36.6 75.2,35.9 75.1,35.1 L58.8,36.6 C58.8,36.9 58.8,37.2 58.9,37.4"></path>
                    <path d="M21.7,51.1 L8.7,61 C11.1,64 14,66.6 17.2,68.7 L25.8,54.8 C24.3,53.8 22.9,52.6 21.7,51.1"></path>
                    <path d="M16.9,34.1 C17.2,32.3 17.7,30.5 18.5,28.9 L3.9,21.6 C2.3,25.1 1.2,28.8 0.7,32.7 L16.9,34.1 Z"></path>
                    <path d="M56.7,69.8 L48.1,55.9 C46.5,56.8 44.8,57.5 43.1,57.9 L46.1,74 C49.8,73.1 53.4,71.7 56.7,69.8"></path>
                    <path d="M57.8,44.2 C57.2,45.9 56.5,47.4 55.5,48.9 L68.6,58.7 C70.7,55.6 72.4,52.3 73.5,48.7 L57.8,44.2 Z"></path>
                    <path d="M40.8,58.4 C39.8,58.5 38.8,58.6 37.8,58.6 C37,58.6 36.2,58.6 35.3,58.5 L32.3,74.6 C34.1,74.9 36,75 37.8,75 C39.8,75 41.9,74.8 43.9,74.5 L40.8,58.4 Z"></path>
                    <path d="M39.1,16.4 C40.9,16.5 42.6,16.8 44.3,17.4 L50.2,2.1 C46.6,0.8 42.9,0.1 39.1,-7.10542736e-15 L39.1,16.4 Z"></path>
                    <path d="M33,58 C31.2,57.6 29.4,56.9 27.8,56 L19.1,70 C22.5,71.9 26.1,73.3 29.9,74.1 L33,58 Z"></path>
                    <path d="M31.4,17.3 C33.1,16.8 34.9,16.4 36.7,16.3 L36.7,0 C32.9,0.1 29.1,0.8 25.5,2 L31.4,17.3 Z"></path>
                    <path d="M20.2,49.3 C19.1,47.8 18.3,46.1 17.7,44.3 L2,48.8 C3.2,52.5 4.9,56 7.2,59.2 L20.2,49.3 Z"></path>
                    <path d="M24.7,20.9 C26.1,19.8 27.6,18.9 29.2,18.2 L23.3,3 C19.8,4.5 16.6,6.5 13.7,8.9 L24.7,20.9 Z"></path>
                </g>
                <g transform="translate(24.000000, 22.000000)" id="Path">
                    <path d="M22.8,6.8 L17.6,11.8 C17.4,12 17.3,12.3 17.3,12.6 L17.3,26.6 C17.3,26.8 17.4,26.9 17.6,26.9 L23,26.9 C23.2,26.9 23.3,26.8 23.3,26.6 L23.3,7 C23.2,6.8 23.1,6.5 22.8,6.8"></path>
                    <path d="M7.6,13.3 L2.4,18.3 C2.2,18.5 2.1,18.8 2.1,19.1 L2.1,26.6 C2.1,26.8 2.2,26.9 2.4,26.9 C2.4,26.9 2.4,26.9 2.4,26.9 L7.8,26.9 C8,26.9 8.1,26.8 8.1,26.6 L8.1,26.6 L8.1,13.5 C8.1,13.3 8,13 7.6,13.3"></path>
                    <path d="M25.1,0.8 C25.1,0.8 25.1,0.7 25.1,0.7 C25.1,0.7 25,0.7 25,0.7 L24.9,0.7 L20.9,1.6 L20.8,1.6 C20.8,1.6 20.7,1.6 20.7,1.6 C20.6,1.7 20.6,1.8 20.7,1.8 L20.7,1.8 L21.6,2.7 L12.5,11.8 L8.3,7.6 C8.3,7.6 8.2,7.6 8.1,7.6 C8.1,7.6 8.1,7.6 8.1,7.6 L7,8.8 L7,8.8 L0.3,15.5 C0.3,15.5 0.2,15.6 0.3,15.7 C0.3,15.7 0.3,15.7 0.3,15.7 L1.4,16.8 C1.4,16.8 1.5,16.8 1.6,16.8 C1.6,16.8 1.6,16.8 1.6,16.8 L8.3,10.1 L11.3,13.1 L11.3,13.1 L12.4,14.2 C12.5,14.2 12.5,14.2 12.6,14.2 L23,4.1 L24,5.1 C24.1,5.2 24.1,5.2 24.2,5.1 C24.2,5.1 24.2,5.1 24.2,5.1 C24.2,5.1 24.2,5 24.2,5 L24.2,5 L25.1,0.9 L25.1,0.8 Z"></path>
                    <path d="M15.2,14.2 L12.7,16.8 C12.7,16.8 12.6,16.8 12.5,16.8 C12.5,16.8 12.5,16.8 12.5,16.8 L10.2,14.5 C9.8,14.1 9.7,14.4 9.7,14.6 L9.7,26.6 C9.7,26.8 9.8,26.9 10,26.9 C10,26.9 10,26.9 10,26.9 L15.4,26.9 C15.6,26.9 15.7,26.8 15.7,26.6 L15.7,14.3 C15.7,14.1 15.6,13.8 15.2,14.2"></path>
                </g>
            </g>
        </g>
    </g>
</svg>