<?xml version="1.0" encoding="UTF-8"?>
<svg width="95px" height="95px" viewBox="0 0 95 95" version="1.1" xmlns="http://www.w3.org/2000/svg" xmlns:xlink="http://www.w3.org/1999/xlink">
    <!-- Generator: Sketch 53.2 (72643) - https://sketchapp.com -->
    <title>goal_3_target_3_5</title>
    <desc>Created with Sketch.</desc>
    <g id="goal_3_target_3_5" stroke="none" stroke-width="1" fill="none" fill-rule="evenodd">
        <g id="Group-21" fill-rule="nonzero">
            <rect id="Rectangle" fill="#4C9F38" x="9.23705556e-14" y="-2.13162821e-14" width="94.8" height="94.8"></rect>
            <g id="Group" transform="translate(5.700000, 7.000000)" fill="#000000">
                <g opacity="0.5" transform="translate(5.000000, 43.000000)" id="Rectangle">
                    <rect transform="translate(8.064680, 8.767900) rotate(-48.486366) translate(-8.064680, -8.767900) " x="0.714660596" y="5.06789023" width="14.7000388" height="7.40001954"></rect>
                </g>
                <g>
                    <path d="M33.4,29.3 L32.8,28.8 L31.8,27.9 L25.8,34.7 C25.1,35.4 24.2,35.9 23.2,36.2 C21.6,36.5 21,36.5 20.2,36.7 C18.9,37 17.8,38 15.9,40.1 L0.6,57.3 C0.6,57.3 -0.1,57.9 0.7,59 L7.4,64.9 C8.5,65.6 9.1,64.8 9.1,64.8 C9.1,64.8 22.4,49.8 24.3,47.6 C26.2,45.4 27,44.3 27.2,42.9 C27.3,42.1 27.2,41.5 27.3,39.8 C27.4,38.8 27.8,37.9 28.5,37.1 L34.5,30.3 L33.4,29.3 Z M10.9,59.7 L5.3,54.8 L15.1,43.8 L20.6,48.7 L10.9,59.7 Z" id="Shape"></path>
                    <g>
                        <g transform="translate(0.000000, 27.000000)" id="Path">
                            <g transform="translate(8.000000, 0.000000)">
                                <path d="M6.9,4.2 L0.8,4.2 C0.9,5.9 2.3,7.2 4,7.1 C5.5,6.9 6.8,5.7 6.9,4.2 Z"></path>
                                <path d="M3.8,0.9 C2.2,0.9 0.9,2.1 0.8,3.7 L6.9,3.7 C6.8,2.1 5.4,0.8 3.8,0.9 Z"></path>
                            </g>
                            <g transform="translate(0.000000, 3.000000)">
                                <path d="M5,6 L2.2,0.6 C0.8,1.5 0.3,3.3 1.2,4.8 C2,6.1 3.6,6.6 5,6 Z"></path>
                                <path d="M6.5,1.7 C5.8,0.3 4.1,-0.3 2.6,0.3 L5.4,5.7 C6.8,4.9 7.3,3.2 6.5,1.7 Z"></path>
                            </g>
                            <g transform="translate(5.000000, 8.000000)">
                                <path d="M6.4,2 L1,4.8 C1.9,6.3 3.7,6.7 5.2,5.9 C6.5,5.2 7.1,3.5 6.4,2 Z"></path>
                                <path d="M2.2,0.5 C0.8,1.2 0.2,2.9 0.8,4.4 L6.2,1.6 C5.4,0.3 3.6,-0.2 2.2,0.5 Z"></path>
                            </g>
                        </g>
                        <g transform="translate(10.000000, 67.000000)" id="Rectangle">
                            <rect transform="translate(13.258130, 5.893825) rotate(-21.881203) translate(-13.258130, -5.893825) " x="3.70770365" y="3.99374018" width="19.1008527" height="3.80016965"></rect>
                            <rect transform="translate(1.783500, 10.416100) rotate(-21.870569) translate(-1.783500, -10.416100) " x="1.18351793" y="8.51615676" width="1.19996415" height="3.79988647"></rect>
                            <rect transform="translate(3.378100, 9.783700) rotate(-21.870569) translate(-3.378100, -9.783700) " x="2.77811793" y="7.88375676" width="1.19996415" height="3.79988647"></rect>
                        </g>
                        <g transform="translate(14.000000, 60.000000)" id="Rectangle">
                            <rect transform="translate(13.735550, 4.994875) rotate(-13.338617) translate(-13.735550, -4.994875) " x="4.18578164" y="3.09492109" width="19.0995367" height="3.79990783"></rect>
                            <rect transform="translate(1.801600, 7.900150) rotate(-13.367814) translate(-1.801600, -7.900150) " x="1.20160365" y="6.00016154" width="1.19999271" height="3.79997691"></rect>
                            <rect transform="translate(3.396850, 7.498540) rotate(-13.349766) translate(-3.396850, -7.498540) " x="2.79683686" y="5.59849838" width="1.20002629" height="3.80008324"></rect>
                        </g>
                        <g transform="translate(11.000000, 0.000000)">
                            <path d="M19.5,6.6 L18.5,5.6 L20.6,3.4 L21.8,4.6 C21.9,4.7 22.1,4.7 22.2,4.6 C22.2,4.6 22.2,4.6 22.2,4.6 L22.4,4.4 C22.5,4.3 22.5,4.1 22.4,4 L18.9,0.6 C18.8,0.5 18.6,0.5 18.5,0.6 C18.5,0.6 18.5,0.6 18.5,0.6 L18.3,0.8 C18.2,0.9 18.2,1.1 18.3,1.2 C18.3,1.2 18.3,1.2 18.3,1.2 L19.5,2.4 L17.4,4.6 L16.4,3.7 C16.1,3.4 15.7,3.4 15.4,3.7 C15.4,3.7 15.4,3.7 15.4,3.7 L3.6,15.7 C3.5,15.8 3.4,16 3.4,16.2 C3.4,16.4 3.5,16.6 3.6,16.7 L4.5,17.5 L4.5,17.5 L3.6,18.4 C3.5,18.5 3.5,18.7 3.6,18.8 L4,19 L1.6,21.4 C1.6,21.4 1.6,21.5 1.6,21.6 C1.6,21.6 1.7,21.6 1.8,21.6 C1.8,21.6 1.8,21.6 1.8,21.6 L4.2,19.2 L4.6,19.6 C4.7,19.7 4.9,19.7 5,19.6 C5,19.6 5,19.6 5,19.6 L5.9,18.7 L5.9,18.7 L6.8,19.5 C7.1,19.8 7.5,19.8 7.8,19.5 C7.8,19.5 7.8,19.5 7.8,19.5 L19.6,7.5 C19.8,7.3 19.8,6.9 19.5,6.6 C19.5,6.6 19.5,6.6 19.5,6.6 Z M6.4,15.6 L5.4,14.6 C5.3,14.5 5.4,14.4 5.5,14.3 C5.6,14.2 5.7,14.2 5.8,14.3 L6.8,15.3 C6.9,15.4 6.9,15.5 6.8,15.6 C6.8,15.6 6.8,15.6 6.8,15.6 C6.6,15.7 6.5,15.7 6.4,15.6 Z M8,14 L7,13 C6.9,12.9 6.9,12.8 7,12.7 C7.1,12.6 7.2,12.6 7.3,12.7 L8.3,13.7 C8.4,13.8 8.4,13.9 8.3,14 C8.2,14.1 8.1,14.1 8,14 Z M9.6,12.4 L8.6,11.4 C8.5,11.3 8.6,11.2 8.7,11.1 C8.8,11 8.9,11 9,11.1 L10,12.1 C10.1,12.2 10,12.3 9.9,12.4 C9.8,12.4 9.7,12.4 9.6,12.4 Z M11.2,10.7 L10.2,9.7 C10.1,9.6 10.1,9.5 10.2,9.4 C10.3,9.3 10.4,9.3 10.5,9.4 C10.5,9.4 10.5,9.4 10.5,9.4 L11.5,10.4 C11.6,10.5 11.6,10.6 11.5,10.7 C11.5,10.7 11.5,10.7 11.5,10.7 C11.5,10.8 11.3,10.9 11.2,10.7 C11.2,10.8 11.2,10.8 11.2,10.7 L11.2,10.7 Z M12.9,9.1 L11.9,8.1 C11.8,8 11.8,7.9 11.9,7.8 C12,7.7 12.1,7.7 12.2,7.8 L13.2,8.8 C13.3,8.9 13.2,9 13.1,9.1 C13,9.1 12.9,9.1 12.9,9.1 L12.9,9.1 Z M16.9,9.7 C16.4,9.2 13.9,6.7 13.3,6.2 L15.7,3.8 C15.8,3.7 15.8,3.7 15.9,3.7 C16,3.7 16.1,3.7 16.1,3.8 L19.2,6.9 C19.3,7 19.3,7.2 19.2,7.4 L16.9,9.7 Z" id="Shape"></path>
                            <path d="M1.2,22 C1.3,21.8 1.8,21.3 1.6,22.1 C1.6,22.3 1.7,22.5 1.5,22.6 C1.3,22.6 1.2,22.6 1.1,22.4 C1,22.3 1.1,22.1 1.2,22 Z" id="Path"></path>
                        </g>
                    </g>
                </g>
            </g>
            <g id="Group" transform="translate(45.700000, 5.000000)" fill="#FFFFFF">
                <path d="M36.5,29.7 C36.5,26.1 34.2,23.2 30.7,23.2 C29,23.2 26.9,25.1 25.7,26.3 C24.6,25.1 22.6,23.2 20.9,23.2 C17.4,23.2 15,26.1 15,29.7 C15,31.4 15.7,33.1 16.8,34.3 L25.7,43.3 L34.6,34.3 L34.6,34.3 C35.9,33.1 36.6,31.4 36.5,29.7" id="Path"></path>
                <g id="Shape">
                    <g transform="translate(0.000000, 44.000000)">
                        <path d="M2.5,40.4 L0.8,40.4 L0.8,35.7 L2.5,35.7 L2.5,40.4 Z M2.5,31.6 L0.8,31.6 L0.8,26.9 L2.5,26.9 L2.5,31.6 Z M2.5,22.8 L0.8,22.8 L0.8,18 L2.5,18 L2.5,22.8 Z"></path>
                        <path d="M2.5,14 L0.8,14 L0.8,9.3 L2.5,9.3 L2.5,14 Z M2.5,5.2 L0.8,5.2 L0.8,0.5 L2.5,0.5 L2.5,5.2 Z"></path>
                    </g>
                    <g>
                        <path d="M2.5,40.5 L0.8,40.5 L0.8,35.8 L2.5,35.8 L2.5,40.5 Z M2.5,31.6 L0.8,31.6 L0.8,26.9 L2.5,26.9 L2.5,31.6 Z M2.5,22.8 L0.8,22.8 L0.8,18.1 L2.5,18.1 L2.5,22.8 Z"></path>
                        <path d="M2.5,14.1 L0.8,14.1 L0.8,9.4 L2.5,9.4 L2.5,14.1 Z M2.5,5.3 L0.8,5.3 L0.8,0.6 L2.5,0.6 L2.5,5.3 Z"></path>
                    </g>
                </g>
                <path d="M11.9,49.5 C12.4,49.7 15.6,52 17.2,52.8 C19.1,53.7 21.1,54.2 23.2,54.4 C24.1,54.4 27.1,54.3 27.2,53.9 C27.3,53.5 26.9,53.3 26.4,53.3 C25.9,53.3 23.3,53.7 21.8,53.6 C20.3,53.5 19.3,52.6 19.5,51.8 C19.6,51.2 20.7,51.4 22.7,51.1 C24.7,50.8 26.7,50.3 30.4,49.7 C33.1,49.3 35.8,50.2 37.6,52.1 C39.3,53.5 41.2,54.8 43.1,55.9 L43.1,65.1 C43.1,65.1 36.8,60.3 36.3,59.9 C35.1,58.9 33.6,58.3 32,58 C30.6,57.8 28.4,58.7 25.6,59 C22.8,59.3 22.2,59 19.6,57.5 C16.5,55.6 13.6,53.4 11,50.9 C10.4,50.3 9.7,49.6 10.1,49.1 C10.5,48.6 11.3,49.3 11.9,49.5 Z" id="Path"></path>
            </g>
        </g>
    </g>
</svg>