<?xml version="1.0" encoding="UTF-8"?>
<svg width="95px" height="95px" viewBox="0 0 95 95" version="1.1" xmlns="http://www.w3.org/2000/svg" xmlns:xlink="http://www.w3.org/1999/xlink">
    <!-- Generator: Sketch 53.2 (72643) - https://sketchapp.com -->
    <title>goal_6_target_6_b</title>
    <desc>Created with Sketch.</desc>
    <g id="goal_6_target_6_b" stroke="none" stroke-width="1" fill="none" fill-rule="evenodd">
        <g id="Group-47" fill-rule="nonzero">
            <rect id="Rectangle" fill="#26BDE2" x="-3.62376795e-13" y="-2.13162821e-14" width="94.8" height="94.8"></rect>
            <g id="Group" transform="translate(7.700000, 10.000000)" fill="#FFFFFF">
                <path d="M65.5,63.4 L62.7,61.2 C62.5,61 62.1,60.9 61.9,61.2 C61.9,61.2 61.9,61.2 61.9,61.2 L61.9,61.2 C53.1,71.7 37.9,72.8 27.1,64.2 C26.8,63.9 26.5,63.7 26.2,63.4 L29.4,61.4 C29.7,61.2 29.3,60.9 29.3,60.9 L18.5,55.5 C18.2,55.3 18.1,55.5 18.1,55.7 L18.1,55.8 L18.1,55.8 L18.1,68 C18.1,68.1 18.2,68.4 18.5,68.2 L18.5,68.2 L22,66 C22.7,66.7 23.4,67.3 24.2,67.9 C37,78.1 55.1,76.8 65.6,64.4 L65.7,64.3 C65.8,64.1 65.8,63.7 65.5,63.4 C65.6,63.4 65.5,63.4 65.5,63.4 Z" id="Path"></path>
                <path d="M18,12.8 L21,14.9 C21.2,15.1 21.6,15.1 21.8,14.8 C21.8,14.8 21.8,14.8 21.8,14.8 L21.8,14.8 C30,3.8 45.1,1.8 56.3,9.8 C56.6,10 57,10.3 57.3,10.6 L54.3,12.8 C54,13 54.4,13.3 54.4,13.3 L65.4,18.1 C65.7,18.3 65.8,18 65.8,17.9 L65.8,17.8 L65.8,17.8 L65.1,5.5 C65.1,5.4 65,5.1 64.7,5.3 L64.7,5.3 L61.3,7.7 C60.6,7.1 59.8,6.5 59,5.9 C45.6,-3.6 27.6,-1.2 17.8,11.9 L17.7,12 C17.7,12.2 17.7,12.5 18,12.8 C18,12.8 18,12.8 18,12.8 Z" id="Path"></path>
                <path d="M59.4,61.6 L59.4,61.6 C59.1,62 59.4,61.6 59.4,61.6 Z" id="Path"></path>
                <g transform="translate(0.000000, 27.000000)">
                    <polygon id="Path" points="24.9 0.1 24.9 18 1.5 18 1.5 0.1 0.6 0.1 0.6 18.8 25.8 18.8 25.8 0.1"></polygon>
                    <path d="M2.9,8.9 L2.9,8.9 C7.5,13.1 12.2,9.6 13.2,8.8 L13.3,8.7 C13.3,8.7 13.4,8.7 13.4,8.7 C13.4,8.7 13.5,8.7 13.5,8.7 L13.6,8.8 C14.6,9.6 19.2,13 23.7,9 L23.8,8.9 C23.8,8.9 23.8,8.8 23.8,8.8 L23.8,6.6 C23.8,6.5 23.7,6.4 23.6,6.4 L23.5,6.4 L23.4,6.5 C22,7.5 17.5,10.2 13.5,6.4 L13.4,6.3 C13.4,6.3 13.3,6.2 13.2,6.2 C13.1,6.2 13.1,6.2 13,6.3 L12.9,6.4 C8.9,10.1 4.5,7.6 3,6.5 L2.9,6.4 C2.9,6.4 2.8,6.4 2.8,6.4 C2.7,6.4 2.6,6.5 2.6,6.6 L2.6,8.8 L2.6,8.8 L2.6,8.8 C2.8,8.8 2.8,8.9 2.9,8.9 Z" id="Path"></path>
                    <path d="M2.9,14 L2.9,14 C7.5,18.2 12.2,14.7 13.2,13.9 L13.3,13.8 L13.4,13.8 L13.5,13.8 L13.6,13.9 C14.6,14.7 19.2,18.1 23.7,14.1 L23.8,14 C23.8,14 23.8,13.9 23.8,13.8 L23.8,11.6 C23.8,11.5 23.7,11.4 23.6,11.4 L23.5,11.4 L23.4,11.5 C22,12.5 17.5,15.2 13.5,11.4 L13.4,11.3 C13.4,11.3 13.3,11.2 13.2,11.2 C13.1,11.2 13.1,11.2 13,11.3 L12.9,11.4 C8.9,15.1 4.5,12.6 3,11.5 L2.9,11.4 C2.9,11.4 2.8,11.4 2.8,11.4 C2.7,11.4 2.6,11.5 2.6,11.6 L2.6,13.8 L2.6,13.8 L2.6,13.8 C2.8,13.9 2.8,14 2.9,14 Z" id="Path"></path>
                    <path d="M3.2,4.4 C3.4,4.4 3.6,4.3 3.6,4.1 C3.6,4.1 3.6,4.1 3.6,4.1 C3.6,3.9 3.4,3.8 3.2,3.8 C3,3.8 2.9,3.9 2.9,4.1 C2.9,4.2 3,4.4 3.2,4.4 Z" id="Path"></path>
                    <circle id="Oval" cx="4.8" cy="4" r="1"></circle>
                    <circle id="Oval" cx="6.3" cy="4" r="1"></circle>
                    <path d="M7.9,4.4 C8.1,4.4 8.2,4.3 8.3,4.1 C8.3,4.1 8.3,4.1 8.3,4.1 C8.3,3.9 8.1,3.8 7.9,3.8 C7.7,3.8 7.5,4 7.5,4.1 C7.5,4.2 7.7,4.4 7.9,4.4 Z" id="Path"></path>
                    <path d="M9.5,4.4 C9.7,4.4 9.9,4.2 9.9,4.1 C9.9,4 9.7,3.8 9.5,3.8 C9.3,3.8 9.1,4 9.1,4.1 C9.1,4.2 9.3,4.4 9.5,4.4 Z" id="Path"></path>
                    <circle id="Oval" cx="11" cy="4" r="1"></circle>
                    <path d="M12.6,4.4 C12.8,4.4 13,4.3 13,4.1 C13,4.1 13,4.1 13,4 C13,3.8 12.8,3.7 12.6,3.7 C12.4,3.7 12.2,3.9 12.2,4 C12.3,4.2 12.4,4.4 12.6,4.4 C12.6,4.4 12.6,4.4 12.6,4.4 Z" id="Path"></path>
                    <path d="M14.2,4.4 C14.4,4.4 14.6,4.2 14.6,4.1 C14.6,4 14.4,3.8 14.2,3.8 C14,3.8 13.8,4 13.8,4.1 C13.8,4.2 14,4.4 14.2,4.4 C14.2,4.4 14.2,4.4 14.2,4.4 Z" id="Path"></path>
                    <path d="M15.8,4.4 C16,4.4 16.2,4.2 16.2,4.1 C16.2,3.9 16,3.8 15.8,3.8 C15.6,3.8 15.5,3.9 15.5,4.1 C15.4,4.2 15.6,4.4 15.8,4.4 C15.8,4.4 15.8,4.4 15.8,4.4 Z" id="Path"></path>
                    <path d="M17.3,4.4 C17.5,4.4 17.7,4.3 17.7,4.1 C17.7,4.1 17.7,4.1 17.7,4.1 C17.6,3.9 17.4,3.8 17.3,3.9 C17.2,3.9 17.1,4 17.1,4.1 C17,4.2 17.1,4.4 17.3,4.4 C17.3,4.4 17.3,4.4 17.3,4.4 Z" id="Path"></path>
                    <path d="M18.9,4.4 C19.1,4.4 19.3,4.3 19.3,4.1 C19.3,4.1 19.3,4.1 19.3,4.1 C19.3,3.9 19.1,3.8 18.9,3.8 C18.7,3.8 18.6,3.9 18.6,4.1 C18.5,4.2 18.7,4.4 18.9,4.4 Z" id="Path"></path>
                    <circle id="Oval" cx="20.5" cy="4" r="1"></circle>
                    <path d="M22,4.4 C22.2,4.4 22.3,4.3 22.3,4.1 C22.3,4.1 22.3,4.1 22.3,4.1 C22.3,3.9 22.1,3.8 22,3.8 C21.9,3.8 21.7,4 21.7,4.1 C21.7,4.2 21.8,4.4 22,4.4 Z" id="Path"></path>
                    <circle id="Oval" cx="23.6" cy="4" r="1"></circle>
                    <path d="M4.1,3.2 C4.3,3.2 4.4,3 4.4,2.8 C4.4,2.6 4.3,2.5 4.1,2.5 C3.9,2.5 3.8,2.7 3.8,2.9 C3.8,3 3.9,3.1 4.1,3.2 Z" id="Path"></path>
                    <path d="M5.6,3.2 C5.8,3.2 5.9,3 5.9,2.8 C5.9,2.6 5.8,2.5 5.6,2.5 C5.4,2.5 5.3,2.7 5.3,2.9 C5.4,3 5.5,3.1 5.6,3.2 Z" id="Path"></path>
                    <path d="M7.2,3.2 C7.4,3.2 7.6,3 7.6,2.8 C7.6,2.6 7.4,2.4 7.2,2.4 C7,2.4 6.8,2.6 6.8,2.8 C6.8,3 7,3.2 7.2,3.2 C7.2,3.2 7.2,3.2 7.2,3.2 Z" id="Path"></path>
                    <path d="M8.8,3.2 C9,3.2 9.2,3 9.2,2.8 C9.2,2.6 9,2.4 8.8,2.4 C8.6,2.4 8.4,2.6 8.4,2.8 C8.4,3 8.6,3.2 8.8,3.2 C8.8,3.2 8.8,3.2 8.8,3.2 Z" id="Path"></path>
                    <path d="M10.3,3.2 C10.5,3.2 10.7,3.1 10.7,2.9 C10.7,2.7 10.6,2.5 10.4,2.5 C10.4,2.5 10.3,2.5 10.3,2.5 C10.1,2.5 10,2.7 10,2.9 C10.1,3 10.2,3.1 10.3,3.2 Z" id="Path"></path>
                    <path d="M11.9,3.2 C12.1,3.2 12.2,3 12.2,2.8 C12.2,2.6 12.1,2.5 11.9,2.5 C11.7,2.5 11.6,2.7 11.6,2.9 C11.6,3 11.8,3.1 11.9,3.2 Z" id="Path"></path>
                    <path d="M13.5,3.2 C13.7,3.2 13.8,3 13.8,2.8 C13.8,2.6 13.7,2.5 13.5,2.5 C13.3,2.5 13.2,2.7 13.2,2.9 C13.2,3 13.3,3.1 13.5,3.2 Z" id="Path"></path>
                    <path d="M15,3.2 C15.2,3.2 15.3,3 15.3,2.8 C15.3,2.6 15.2,2.5 15,2.5 C14.8,2.5 14.7,2.7 14.7,2.9 C14.8,3 14.9,3.1 15,3.2 Z" id="Path"></path>
                    <path d="M16.6,3.2 C16.8,3.2 17,3 17,2.9 C17,2.7 16.8,2.5 16.7,2.5 C16.6,2.5 16.3,2.7 16.3,2.8 C16.3,2.8 16.3,2.8 16.3,2.8 C16.3,3 16.4,3.2 16.6,3.2 Z" id="Path"></path>
                    <path d="M18.2,3.2 C18.4,3.2 18.5,3 18.5,2.8 C18.5,2.6 18.4,2.5 18.2,2.5 C18,2.5 17.9,2.7 17.9,2.9 C17.9,3 18,3.1 18.2,3.2 Z" id="Path"></path>
                    <path d="M19.8,3.2 C20,3.2 20.1,3 20.1,2.8 C20.1,2.6 20,2.5 19.8,2.5 C19.6,2.5 19.5,2.7 19.5,2.9 C19.5,3 19.6,3.1 19.8,3.2 Z" id="Path"></path>
                    <path d="M21.3,3.2 C21.5,3.2 21.6,3 21.6,2.8 C21.6,2.6 21.5,2.5 21.3,2.5 C21.1,2.5 21,2.7 21,2.9 C21.1,3 21.2,3.1 21.3,3.2 Z" id="Path"></path>
                    <path d="M22.9,3.2 C23.1,3.2 23.3,3 23.3,2.8 C23.3,2.6 23.1,2.4 22.9,2.4 C22.7,2.4 22.5,2.6 22.5,2.8 C22.5,3 22.7,3.2 22.9,3.2 L22.9,3.2 Z" id="Path"></path>
                    <path d="M3.3,2 C3.5,2 3.7,1.8 3.7,1.7 C3.7,1.5 3.5,1.4 3.3,1.4 C3.1,1.4 3,1.5 3,1.7 C2.9,1.8 3.1,2 3.3,2 Z" id="Path"></path>
                    <path d="M4.9,2 C5.1,2 5.3,1.8 5.3,1.7 C5.3,1.5 5.2,1.4 5,1.4 C5,1.4 5,1.4 5,1.4 C4.8,1.4 4.7,1.6 4.6,1.7 C4.5,1.8 4.7,2 4.9,2 Z" id="Path"></path>
                    <path d="M6.4,2 C6.6,2 6.8,1.8 6.8,1.7 C6.8,1.5 6.7,1.4 6.5,1.4 C6.5,1.4 6.5,1.4 6.5,1.4 C6.3,1.4 6.1,1.6 6.1,1.7 C6.1,1.8 6.2,2 6.4,2 Z" id="Path"></path>
                    <path d="M8,2 C8.2,2 8.4,1.8 8.4,1.7 C8.4,1.6 8.2,1.4 8,1.3 C7.8,1.3 7.6,1.5 7.6,1.7 L7.6,1.7 C7.6,1.8 7.8,2 8,2 Z" id="Path"></path>
                    <path d="M9.6,2 C9.8,2 10,1.8 10,1.7 C10,1.6 9.8,1.4 9.6,1.3 C9.4,1.3 9.2,1.5 9.2,1.7 L9.2,1.7 C9.2,1.8 9.4,2 9.6,2 Z" id="Path"></path>
                    <path d="M11.1,2 C11.3,2 11.5,1.8 11.5,1.7 C11.5,1.6 11.3,1.4 11.1,1.4 C10.9,1.4 10.8,1.5 10.7,1.7 C10.7,1.7 10.7,1.7 10.7,1.7 C10.8,1.8 10.9,2 11.1,2 Z" id="Path"></path>
                    <path d="M12.7,2 C12.9,2 13.1,1.8 13.1,1.7 C13.1,1.6 12.9,1.4 12.7,1.4 C12.5,1.4 12.4,1.5 12.3,1.7 C12.3,1.7 12.3,1.7 12.3,1.7 C12.4,1.8 12.5,2 12.7,2 Z" id="Path"></path>
                    <path d="M14.3,2 C14.5,2 14.7,1.8 14.7,1.7 C14.7,1.6 14.5,1.4 14.3,1.4 C14.1,1.4 14,1.5 13.9,1.7 C13.9,1.7 13.9,1.7 13.9,1.7 C13.9,1.8 14.1,2 14.3,2 Z" id="Path"></path>
                    <path d="M15.8,2 C16,2 16.2,1.8 16.2,1.7 C16.2,1.5 16,1.4 15.8,1.4 C15.6,1.4 15.5,1.5 15.5,1.7 C15.5,1.8 15.6,2 15.8,2 Z" id="Path"></path>
                    <path d="M17.4,2 C17.6,2 17.8,1.8 17.8,1.7 C17.8,1.5 17.6,1.4 17.4,1.4 C17.2,1.4 17.1,1.5 17.1,1.7 C17.1,1.8 17.2,2 17.4,2 Z" id="Path"></path>
                    <path d="M19,2 C19.2,2 19.4,1.8 19.4,1.7 C19.4,1.5 19.2,1.4 19,1.4 C18.8,1.4 18.7,1.5 18.7,1.7 C18.7,1.8 18.8,2 19,2 Z" id="Path"></path>
                    <path d="M20.5,2 C20.7,2 20.9,1.8 20.9,1.7 C20.9,1.5 20.8,1.4 20.6,1.4 C20.6,1.4 20.6,1.4 20.6,1.4 C20.4,1.4 20.2,1.6 20.2,1.7 C20.2,1.8 20.3,2 20.5,2 Z" id="Path"></path>
                    <path d="M22.1,2 C22.3,2 22.4,1.8 22.4,1.7 C22.4,1.5 22.3,1.4 22.1,1.4 C22.1,1.4 22.1,1.4 22.1,1.4 C21.9,1.4 21.8,1.6 21.8,1.7 C21.8,1.8 21.9,2 22.1,2 Z" id="Path"></path>
                    <path d="M23.7,2 C23.9,2 24,1.8 24,1.6 C24,1.6 24,1.6 24,1.6 C24,1.4 23.8,1.3 23.7,1.2 C23.5,1.2 23.3,1.4 23.3,1.6 L23.3,1.6 C23.3,1.8 23.4,2 23.7,2 C23.6,2 23.7,2 23.7,2 Z" id="Path"></path>
                </g>
                <g transform="translate(31.000000, 23.000000)" id="Path">
                    <g>
                        <path d="M4.7,4.2 C5.7,4.2 6.6,3.4 6.6,2.3 C6.6,1.2 5.8,0.4 4.7,0.4 C3.7,0.4 2.8,1.2 2.8,2.3 L2.8,2.3 C2.8,3.4 3.7,4.2 4.7,4.2"></path>
                        <path d="M6.9,5 L2.5,5 C1.2,5.1 0.2,6.2 0.2,7.5 L0.2,12.7 C0.2,13.1 0.5,13.4 0.9,13.4 C1.3,13.4 1.6,13.1 1.6,12.7 C1.6,12.7 1.6,12.7 1.6,12.7 L1.6,8.2 C1.6,8 1.6,7.8 2,7.8 C2.4,7.8 2.3,8 2.3,8.2 L2.3,21.6 C2.3,22.2 2.8,22.7 3.3,22.7 C3.8,22.7 4.4,22.2 4.4,21.7 C4.4,21.7 4.4,21.7 4.4,21.7 L4.4,13.9 C4.4,13.7 4.5,13.6 4.7,13.6 C4.7,13.6 4.7,13.6 4.7,13.6 L4.7,13.6 C4.9,13.6 5,13.7 5,13.9 C5,13.9 5,13.9 5,13.9 L5,21.7 C5.1,22.3 5.6,22.7 6.2,22.7 C6.7,22.7 7.1,22.3 7.2,21.7 L7.2,8.2 C7.2,8.1 7.2,7.8 7.5,7.8 C7.8,7.8 7.8,8 7.8,8.2 L7.8,12.7 C7.8,13.1 8.2,13.4 8.6,13.3 C8.9,13.3 9.2,13 9.2,12.7 L9.2,7.5 C9.2,6.2 8.2,5.1 6.9,5"></path>
                    </g>
                    <path d="M16.9,4.2 C17.9,4.2 18.8,3.3 18.7,2.3 C18.7,1.3 17.8,0.4 16.8,0.5 C15.8,0.5 15,1.4 15,2.4 C15,3.4 15.8,4.2 16.9,4.2 C16.9,4.2 16.9,4.2 16.9,4.2 Z"></path>
                    <path d="M20.7,6.6 C20.7,6.6 20.1,5.1 18.9,5.1 L14.9,5.1 C13.7,5.1 13.1,6.6 13.1,6.6 L11.5,11.7 C11.5,11.7 11.2,12.6 12,12.9 C12.8,13.2 13,12.2 13,12.2 L14.3,8 C14.3,8 14.4,7.7 14.6,7.7 C14.8,7.7 14.8,8.1 14.8,8.1 L12.6,16.1 L14.6,16.1 L14.6,21.8 C14.6,22.4 15,22.8 15.6,22.8 C16.2,22.8 16.6,22.4 16.6,21.8 L16.6,16 L17.2,16 L17.2,21.7 C17.2,22.3 17.6,22.7 18.2,22.7 C18.8,22.7 19.2,22.3 19.2,21.7 L19.2,16 L21.2,16 L19,8 C19,8 18.9,7.7 19.2,7.6 C19.5,7.5 19.5,7.9 19.5,7.9 L20.8,12.2 C20.8,12.2 21,13.1 21.8,12.9 C22.6,12.7 22.3,11.7 22.3,11.7 L20.7,6.6 Z"></path>
                </g>
                <path d="M78.8,26.1 C78.8,26 78.7,26 78.6,26 L59.2,26 C59.1,26 59.1,26 59,26.1 C59,26.2 59,26.2 59,26.3 L62.2,46 C62.2,46.1 62.3,46.2 62.4,46.2 L66.7,46.2 L66.9,49.1 L65.6,49.1 C65.5,49.1 65.4,49.2 65.4,49.3 C65.4,49.3 65.4,49.4 65.4,49.4 L65.4,49.4 L68.6,53.5 L68.6,53.5 C68.6,53.5 68.7,53.6 68.8,53.6 C68.9,53.6 68.9,53.6 68.9,53.5 L68.9,53.5 L68.9,53.5 L72,49.4 L72,49.4 L72,49.4 C72,49.4 72,49.3 72,49.3 C72,49.2 71.9,49.1 71.8,49.1 L70.7,49.1 L70.9,46.2 L75.3,46.2 C75.4,46.2 75.5,46.1 75.5,46 L78.6,26.2 C78.9,26.2 78.8,26.1 78.8,26.1 Z M71.3,41.9 C69.9,43 68,43 66.7,41.9 C65.6,40.8 65.4,39 66.3,37.7 C66.6,37.1 68.9,33.8 69,33.5 L69,33.5 L69,33.5 L69,33.5 C69.2,33.8 71.4,37.2 71.7,37.7 C72.5,39 72.4,40.7 71.3,41.9 Z M77.4,30.2 C76.8,30 76.1,30 75.6,30.3 C73.2,31.3 71.6,31.6 69,30.8 C67.4,30.3 65.9,29.3 64.1,29.9 C63,30.4 61.7,30.7 60.5,30.7 L59.7,26.8 L78,26.8 L77.4,30.2 Z" id="Shape"></path>
            </g>
        </g>
    </g>
</svg>