<?xml version="1.0" encoding="UTF-8"?>
<svg width="95px" height="95px" viewBox="0 0 95 95" version="1.1" xmlns="http://www.w3.org/2000/svg" xmlns:xlink="http://www.w3.org/1999/xlink">
    <!-- Generator: Sketch 53.2 (72643) - https://sketchapp.com -->
    <title>goal_14_target_14_c</title>
    <desc>Created with Sketch.</desc>
    <g id="goal_14_target_14_c" stroke="none" stroke-width="1" fill="none" fill-rule="evenodd">
        <g id="Group-119" fill-rule="nonzero">
            <rect id="Rectangle" fill="#0A97D9" x="-3.62376795e-13" y="-2.13162821e-14" width="94.8" height="94.8"></rect>
            <g id="Group" transform="translate(10.700000, 17.000000)" fill="#FFFFFF">
                <g transform="translate(51.000000, 4.000000)" id="Path">
                    <path d="M2.4,0.6 C1.5,0.6 0.8,1.3 0.8,2.2 C0.8,2.2 0.8,2.2 0.8,2.2 L0.8,12.8 C0.7,13.7 1.4,14.5 2.3,14.6 C3.2,14.7 4,14 4.1,13.1 C4.1,13 4.1,12.9 4.1,12.8 L4.1,2.2 C4.1,1.3 3.4,0.6 2.4,0.6 Z"></path>
                    <path d="M23.5,0.6 C22.6,0.6 21.9,1.3 21.9,2.2 C21.9,2.2 21.9,2.2 21.9,2.2 L21.9,12.8 C21.8,13.7 22.5,14.5 23.4,14.6 C24.3,14.7 25.1,14 25.2,13.1 C25.2,13 25.2,12.9 25.2,12.8 L25.2,2.2 C25.2,1.3 24.4,0.6 23.5,0.6 Z"></path>
                    <path d="M20.4,1.8 L5.7,1.8 C5.5,1.8 5.3,2 5.3,2.2 L5.3,12.6 C5.3,12.8 5.5,13 5.7,13.1 L11.3,13.1 L10.6,54 C10.6,54.2 10.8,54.4 11,54.4 L14.9,54.4 C15.1,54.4 15.3,54.3 15.3,54 C15.3,54 15.3,54 15.3,54 L14.4,13.1 L20.2,13.1 C20.4,13.1 20.6,12.9 20.6,12.6 L20.6,2.3 C20.8,2 20.6,1.8 20.4,1.8 C20.4,1.8 20.4,1.8 20.4,1.8 Z"></path>
                </g>
                <g>
                    <polygon id="Path" points="3.2 6.7 0.3 6.7 0.3 61.5 39.6 61.5 39.6 58.2 3.2 58.2"></polygon>
                    <path d="M6.2,3.4 L6.2,54.9 L45.5,54.9 L45.5,0 L6.2,0 L6.2,3.4 Z M27.7,37.3 C27.3,37.8 24.7,41.1 21.1,41.1 C17.9,41.1 14.6,38.2 14.6,38.2 C13.8,39.7 12.4,40.8 10.7,41 L10.6,41 C10.6,41 10.5,40.9 10.5,40.9 C10.5,40.9 10.5,40.9 10.5,40.8 L10.5,40.8 C11.2,39.7 11.6,38.4 11.7,37.1 C11.6,35.8 11.2,34.5 10.5,33.4 C10.5,33.4 10.5,33.3 10.5,33.3 C10.5,33.3 10.5,33.2 10.6,33.2 L10.7,33.2 C12.4,33.5 13.8,34.5 14.6,36 C14.6,36 18,33.1 21.1,33.1 C24.7,33.1 27.3,36.4 27.7,36.9 L27.7,36.9 L27.7,36.9 L27.7,36.9 L27.7,37.3 Z M40.5,45 L40.5,45 L40.5,45 C40.5,45 40.5,45.1 40.5,45 L40.4,45.1 C39.2,44.9 38.1,44.1 37.6,43 C37.6,43 35.1,45.2 32.8,45.2 C30.1,45.2 28.2,42.8 27.9,42.4 L27.9,42.4 L27.9,42.3 L27.9,42.3 C28.2,41.9 30.1,39.4 32.8,39.4 C35.1,39.4 37.6,41.5 37.6,41.5 C38.2,40.4 39.2,39.6 40.5,39.4 L40.5,39.4 C40.5,39.4 40.6,39.4 40.6,39.5 L40.6,39.6 C39.3,41.2 39.3,43.4 40.5,45 L40.5,45 Z M29,34.7 C29,34.1 29.4,33.7 30,33.7 C30.6,33.7 31,34.1 31,34.7 C31,35.3 30.6,35.7 30,35.7 C29.4,35.7 29,35.2 29,34.7 Z M32.9,33 C32.9,32.6 33.2,32.2 33.7,32.2 C34.1,32.2 34.5,32.5 34.5,33 C34.5,33.4 34.2,33.8 33.7,33.8 C33.7,33.8 33.7,33.8 33.7,33.8 C33.2,33.8 32.9,33.4 32.9,33 Z M10.5,17 L10.5,13.7 C10.5,13.5 10.6,13.4 10.8,13.4 C10.9,13.4 10.9,13.4 11,13.4 L11.2,13.5 C13.3,15 19.7,18.7 25.5,13.3 L25.6,13.2 C25.7,13.1 25.7,13.1 25.8,13.1 C25.9,13.1 26,13.1 26,13.2 L26.1,13.3 C32,18.8 38.5,14.8 40.5,13.4 L40.6,13.3 C40.6,13.3 40.7,13.3 40.7,13.3 C40.9,13.3 41,13.4 41,13.6 C41,13.6 41,13.6 41,13.6 L41,17 C41,17.1 41,17.2 40.9,17.2 L40.7,17.4 C34.2,23.2 27.4,18.3 26,17.1 L26,16.9 L25.9,16.9 L25.8,16.9 L25.6,17 C24.2,18.2 17.3,23.3 10.7,17.2 L10.7,17.2 C10.6,17.2 10.6,17.1 10.5,17 L10.5,17 L10.5,17 Z M10.5,24.3 L10.5,21.1 C10.5,20.9 10.6,20.8 10.8,20.8 C10.9,20.8 10.9,20.8 11,20.8 L11.2,20.9 C13.3,22.4 19.7,26.1 25.5,20.7 L25.6,20.6 C25.7,20.5 26,20.5 26.1,20.6 L26.2,20.7 C32.1,26.2 38.6,22.3 40.6,20.8 L40.7,20.7 L40.8,20.7 C41,20.7 41.1,20.8 41.1,21 C41.1,21 41.1,21 41.1,21 L41.1,24.2 C41.1,24.3 41.1,24.4 41,24.4 L40.8,24.6 C34.3,30.4 27.5,25.5 26.1,24.3 L26,24.3 C26,24.3 25.9,24.3 25.9,24.3 C25.9,24.3 25.8,24.3 25.8,24.3 L25.6,24.4 C24.2,25.6 17.3,30.6 10.7,24.6 L10.7,24.6 C10.6,24.5 10.6,24.5 10.5,24.3 L10.5,24.3 L10.5,24.3 Z" id="Shape"></path>
                    <path d="M23.1,35.5 C22.5,35.5 22,36 22,36.6 C22,37.2 22.5,37.7 23.1,37.7 C23.7,37.7 24.2,37.2 24.2,36.6 C24.2,36 23.7,35.5 23.1,35.5 Z" id="Path"></path>
                    <path d="M31.2,41 C30.8,41 30.4,41.3 30.3,41.7 C30.3,42.1 30.6,42.5 31,42.6 C31.1,42.6 31.1,42.6 31.2,42.6 C31.6,42.6 32,42.3 32.1,41.9 C32.1,41.5 31.8,41.1 31.4,41 C31.3,41 31.3,41 31.2,41 Z" id="Path"></path>
                </g>
            </g>
        </g>
    </g>
</svg>