<?xml version="1.0" encoding="UTF-8"?>
<svg width="95px" height="95px" viewBox="0 0 95 95" version="1.1" xmlns="http://www.w3.org/2000/svg" xmlns:xlink="http://www.w3.org/1999/xlink">
    <!-- Generator: Sketch 53.2 (72643) - https://sketchapp.com -->
    <title>goal_1_target_1_b</title>
    <desc>Created with Sketch.</desc>
    <g id="goal_1_target_1_b" stroke="none" stroke-width="1" fill="none" fill-rule="evenodd">
        <g id="Group-8" fill-rule="nonzero">
            <rect id="Rectangle" fill="#E5243B" x="-2.13162821e-14" y="-2.13162821e-14" width="94.8" height="94.8"></rect>
            <g id="Group" transform="translate(23.700000, 16.000000)" fill="#FFFFFF">
                <polygon id="Path" points="3.7 7 0.8 7 0.8 62.7 40.7 62.7 40.7 59.3 3.7 59.3"></polygon>
                <path d="M6.8,0.2 L6.8,55.9 L46.7,55.9 L46.7,0.2 L6.8,0.2 Z M35.3,10.2 C36.2,10.2 37,11 37,11.9 C37,12.8 36.2,13.6 35.3,13.6 C34.4,13.6 33.6,12.8 33.6,11.9 C33.7,11 34.4,10.3 35.3,10.2 L35.3,10.2 Z M30.5,20.4 L31.9,15.8 C31.9,15.8 32.4,14.5 33.5,14.5 L37.1,14.5 C38.2,14.5 38.7,15.8 38.7,15.8 L40.1,20.4 C40.1,20.4 40.3,21.2 39.6,21.5 C38.9,21.8 38.7,20.9 38.7,20.9 L37.6,17 C37.6,17 37.5,16.7 37.3,16.8 C37.1,16.9 37.2,17.2 37.2,17.2 L39.2,24.4 L37.3,24.4 L37.3,29.6 C37.2,30.1 36.8,30.4 36.3,30.4 C35.9,30.4 35.6,30 35.5,29.6 L35.5,24.5 L35,24.5 L35,29.7 C34.9,30.2 34.5,30.5 34,30.5 C33.6,30.5 33.3,30.1 33.2,29.7 L33.2,24.5 L31.4,24.5 L33.4,17.3 C33.4,17.3 33.5,17 33.3,16.9 C33.1,16.8 33,17 33,17 L31.9,20.8 C31.9,20.8 31.7,21.6 31,21.4 C30.3,21.2 30.5,20.4 30.5,20.4 Z M26.9,18.6 C27.7,18.6 28.3,19.2 28.3,20 C28.3,20.8 27.7,21.4 26.9,21.4 C26.1,21.4 25.5,20.8 25.5,20 C25.5,20 25.5,20 25.5,20 C25.5,19.2 26.1,18.6 26.9,18.6 Z M24.2,20.5 C24.4,20.5 24.5,20.6 24.6,20.7 C24.6,20.7 25.3,21.9 25.5,22.1 C25.6,22.2 25.8,22.3 25.9,22.3 L27.6,22.3 C27.8,22.3 27.9,22.2 28,22.1 C28.3,21.7 28.6,21.2 28.9,20.7 C29,20.4 29.4,20.3 29.6,20.5 C29.8,20.6 29.9,20.9 29.8,21.1 C29.8,21.1 29.8,21.1 29.8,21.1 C29.8,21.2 29.7,21.3 29.7,21.3 L28.4,23.7 C28.4,23.8 28.3,23.9 28.3,24 L28.3,24.4 L28.3,24.4 L28.3,24.5 C28.3,24.6 28.3,24.7 28.4,24.9 L29.1,27.6 L28.3,27.6 L28.3,29.6 C28.3,30 27.9,30.3 27.5,30.2 C27.2,30.2 26.9,29.9 26.9,29.6 L26.9,27.7 C26.9,27.7 26.9,27.6 26.9,27.6 L26.5,27.6 C26.5,27.6 26.5,27.7 26.5,27.7 L26.5,29.6 C26.5,30 26.2,30.3 25.8,30.3 C25.4,30.3 25.1,30 25.1,29.6 L25.1,29.6 L25.1,27.6 L24.3,27.6 L25,24.9 C25,24.8 25.1,24.6 25.1,24.5 L25.1,24.5 L25.1,24.1 C25.1,24 25.1,23.9 25,23.8 L23.6,21.2 C23.6,21.1 23.6,21.1 23.6,21 C23.7,20.7 23.9,20.5 24.2,20.5 Z M18.8,9.5 C19.8,9.5 20.6,10.3 20.6,11.3 C20.6,12.3 19.8,13.1 18.8,13.1 C17.8,13.1 17,12.3 17,11.3 C17,10.3 17.8,9.5 18.8,9.5 L18.8,9.5 Z M14.5,21 L14.5,16.1 C14.5,14.9 15.4,13.9 16.7,13.7 L20.9,13.7 C22.1,13.8 23,14.8 23,16.1 L23,21 C23,21.4 22.7,21.7 22.3,21.7 C21.9,21.7 21.6,21.4 21.6,21 L21.6,16.8 C21.6,16.6 21.6,16.4 21.3,16.4 C21,16.4 21,16.6 21,16.7 L21,29.4 C21,30 20.6,30.4 20,30.4 C19.4,30.4 19,30 19,29.4 L19,22.1 C19,22 18.9,21.8 18.8,21.8 C18.8,21.8 18.8,21.8 18.8,21.8 L18.8,21.8 C18.6,21.8 18.5,21.9 18.5,22.1 C18.5,22.1 18.5,22.1 18.5,22.1 L18.5,29.4 C18.5,30 18.1,30.4 17.5,30.4 C16.9,30.4 16.5,30 16.5,29.4 L16.5,16.7 C16.5,16.6 16.5,16.4 16.3,16.4 C16.1,16.4 16,16.6 16,16.8 L16,21 C16,21.3 15.7,21.6 15.4,21.7 L13.8,30 C13.8,30.1 13.7,30.2 13.5,30.2 L13.5,30.2 C13.4,30.2 13.3,30 13.3,29.9 C13.3,29.9 13.3,29.9 13.3,29.9 L14.9,21.6 C14.7,21.4 14.6,21.2 14.5,21 Z M40.7,48.8 L40.7,48.8 C40.7,48.9 40.6,48.9 40.6,48.9 L12.9,48.9 C12.8,48.9 12.8,48.8 12.7,48.8 L12.7,44.4 C12.7,44.3 12.8,44.3 12.9,44.3 L40.6,44.3 C40.7,44.3 40.7,44.3 40.7,44.4 L40.7,44.4 L40.7,48.8 Z M40.7,41 L40.7,41 C40.7,41.1 40.6,41.1 40.6,41.1 L12.9,41.1 C12.8,41.1 12.8,41 12.7,41 L12.7,36.6 C12.7,36.5 12.8,36.5 12.9,36.5 L40.6,36.5 C40.7,36.5 40.7,36.6 40.7,36.6 L40.7,36.6 L40.7,41 Z" id="Shape"></path>
            </g>
        </g>
    </g>
</svg>