<?xml version="1.0" encoding="UTF-8"?>
<svg width="95px" height="95px" viewBox="0 0 95 95" version="1.1" xmlns="http://www.w3.org/2000/svg" xmlns:xlink="http://www.w3.org/1999/xlink">
    <!-- Generator: Sketch 53.2 (72643) - https://sketchapp.com -->
    <title>goal_12_target_12_1</title>
    <desc>Created with Sketch.</desc>
    <g id="goal_12_target_12_1" stroke="none" stroke-width="1" fill="none" fill-rule="evenodd">
        <g id="Group-93" fill-rule="nonzero">
            <rect id="Rectangle" fill="#BF8B2E" x="-3.62376795e-13" y="-2.13162821e-14" width="94.8" height="94.8"></rect>
            <g id="Group" transform="translate(6.700000, 6.000000)" fill="#FFFFFF">
                <path d="M70.6,41.2 C70.6,34.5 67.8,30.9 65.4,29.1 C62.6,27 59.2,25.9 55.8,25.9 C55,25.9 54.2,26 53.5,26.1 L53.3,26.2 C51,26.7 47.2,27.6 42.7,33.2 L42.6,33.4 C42.5,33.5 42.5,33.6 42.5,33.7 C42.5,33.8 42.5,33.9 42.6,34 L42.7,34.2 C43.4,35.4 44,36.5 44.5,37.4 C44.6,37.7 45,37.8 45.3,37.7 C45.4,37.7 45.4,37.6 45.5,37.5 C45.5,37.5 45.6,37.4 45.6,37.4 C49.4,32.1 52.5,31.4 54.5,30.9 L54.7,30.8 C55.1,30.7 55.5,30.7 55.9,30.7 C58.3,30.7 60.6,31.4 62.6,32.8 C64.8,34.6 66,37.4 66,41.2 C66,47.6 62.9,50.1 60.3,51 C59.3,51.4 58.2,51.6 57.1,51.6 C55.5,51.6 53.8,51.2 52.4,50.5 L52.2,50.4 C50,49.4 46.7,47.4 43.5,41.1 C37,28.1 31.6,27 28,26.1 L27.8,26.1 C27,25.9 26.3,25.9 25.5,25.9 C22.1,25.9 18.8,26.9 16.1,29 C13.8,30.9 11,34.5 11,41.1 C10.5,48.8 16.3,55.5 24,56 C24.4,56 24.8,56 25.2,56 C26.3,56 27.4,55.9 28.5,55.7 C30.5,55.3 32.5,54.4 34.1,53.1 L36,54.8 C36.2,55 36.6,55 36.8,54.8 C36.9,54.7 36.9,54.6 36.9,54.4 L38.4,45.4 L38.4,45.3 C38.4,45 38.1,44.8 37.9,44.8 C37.9,44.8 37.9,44.8 37.9,44.8 L37.9,44.8 L29,47.3 L28.8,47.3 C28.7,47.3 28.6,47.4 28.5,47.5 C28.4,47.6 28.3,47.8 28.4,47.9 C28.4,48 28.5,48.2 28.6,48.3 L30.4,49.9 C29.5,50.4 28.6,50.8 27.6,51.1 C26.8,51.2 26.1,51.3 25.3,51.3 C22.4,51.4 19.7,50.1 17.8,47.9 L17.8,47.8 C16.3,45.8 15.8,44.1 15.8,41.1 C15.8,37.3 16.9,34.5 19.1,32.7 C21,31.3 23.3,30.6 25.6,30.6 C26,30.6 26.4,30.6 26.8,30.7 L27,30.7 C29.8,31.4 33.8,32.2 39.2,43.1 C42.1,48.9 45.7,52.6 50.2,54.6 C52.3,55.7 54.7,56.2 57.1,56.3 C58.7,56.3 60.4,56 61.9,55.4 C64.4,54.5 70.6,51.1 70.6,41.2 Z" id="Path"></path>
                <path d="M80.8,0.8 L80.6,0.8 L71.6,1.8 C71.6,1.8 71.3,1.8 71.2,1.9 C71.1,2 71.2,2.2 71.3,2.3 L71.4,2.4 L73.4,4.4 L62,15.4 C61.9,15.5 61.9,15.7 62,15.8 L65.4,19.4 C65.5,19.5 65.7,19.5 65.8,19.4 L77.2,8.4 L79.2,10.5 C79.4,10.7 79.4,10.7 79.6,10.6 C79.7,10.5 79.8,10.4 79.8,10.3 L81.1,1.2 L81.1,1.1 C81.1,1 81,0.9 81,0.8 C80.9,0.8 80.8,0.8 80.8,0.8 Z" id="Path"></path>
                <path d="M0.8,0.8 L1,0.8 L10,1.8 C10,1.8 10.4,1.8 10.4,1.9 C10.5,2 10.4,2.2 10.3,2.3 L10.2,2.4 L8.2,4.4 L19.6,15.4 C19.7,15.5 19.7,15.7 19.6,15.8 C19.6,15.8 19.6,15.8 19.6,15.8 L16.2,19.4 C16.1,19.5 15.9,19.5 15.8,19.4 L4.4,8.4 L2.4,10.5 C2.3,10.7 2.1,10.7 2,10.6 C1.9,10.5 1.8,10.4 1.8,10.3 L0.5,1.2 L0.5,1.1 C0.5,1 0.5,0.9 0.6,0.8 C0.6,0.8 0.7,0.8 0.8,0.8 Z" id="Path"></path>
                <path d="M0.7,82.1 L0.9,82.1 L9.9,81.1 C9.9,81.1 10.3,81.1 10.3,80.9 C10.3,80.7 10.3,80.6 10.2,80.5 L10.1,80.4 L8.1,78.4 L19.5,67.4 C19.6,67.3 19.6,67.1 19.5,67 L16.1,63.4 C16,63.3 15.8,63.3 15.7,63.4 C15.7,63.4 15.7,63.4 15.7,63.4 L4.3,74.4 L2.3,72.3 C2.2,72.1 2.1,72.1 1.9,72.2 C1.8,72.3 1.7,72.4 1.7,72.5 L0.4,81.6 L0.4,81.7 C0.4,81.8 0.5,81.9 0.5,82 C0.6,82.1 0.7,82.1 0.7,82.1 Z" id="Path"></path>
                <path d="M80.7,82.1 L80.5,82.1 L71.5,81.1 C71.5,81.1 71.2,81.1 71.1,80.9 C71,80.7 71.1,80.6 71.2,80.5 L71.3,80.4 L73.3,78.4 L61.9,67.4 C61.8,67.3 61.8,67.1 61.9,67 C61.9,67 61.9,67 61.9,67 L65.3,63.4 C65.4,63.3 65.6,63.3 65.7,63.4 L77.1,74.4 L79.1,72.3 C79.3,72.1 79.4,72.1 79.5,72.2 C79.6,72.3 79.6,72.4 79.7,72.5 L81,81.6 L81,81.7 C81,81.8 81,81.9 80.9,82 C80.8,82.1 80.8,82.1 80.7,82.1 Z" id="Path"></path>
            </g>
        </g>
    </g>
</svg>