<?xml version="1.0" encoding="UTF-8"?>
<svg width="95px" height="95px" viewBox="0 0 95 95" version="1.1" xmlns="http://www.w3.org/2000/svg" xmlns:xlink="http://www.w3.org/1999/xlink">
    <!-- Generator: Sketch 53.2 (72643) - https://sketchapp.com -->
    <title>goal_12_target_12_8</title>
    <desc>Created with Sketch.</desc>
    <g id="goal_12_target_12_8" stroke="none" stroke-width="1" fill="none" fill-rule="evenodd">
        <g id="Group-100" fill-rule="nonzero">
            <rect id="Rectangle" fill="#BF8B2E" x="-3.62376795e-13" y="7.10542736e-15" width="94.8" height="94.8"></rect>
            <g id="Group" transform="translate(7.700000, 10.100000)" fill="#FFFFFF">
                <path d="M34.5,31.6 C34.7,31.8 35.1,31.8 35.3,31.6 C35.4,31.5 35.4,31.4 35.4,31.2 L37,21.6 L37,21.5 C37,21.3 36.9,21.2 36.8,21.1 C36.7,21 36.5,20.9 36.4,20.9 L36.4,20.9 L27,23.5 L26.8,23.5 C26.7,23.5 26.6,23.6 26.5,23.7 C26.4,23.8 26.3,24 26.3,24.1 C26.3,24.3 26.4,24.4 26.5,24.5 L28.4,26.3 C27.5,26.9 26.5,27.3 25.4,27.5 C24.6,27.7 23.7,27.7 22.9,27.7 C19.8,27.8 16.9,26.4 14.9,24.1 L15,24 C13.4,21.9 12.8,20.1 12.8,16.8 C12.8,12.7 14,9.7 16.4,7.8 C18.4,6.3 20.9,5.5 23.4,5.5 C23.8,5.5 24.3,5.5 24.7,5.6 L24.9,5.6 C28,6.4 32.2,7.3 38,19 C41.1,25.2 44.9,29.2 49.8,31.3 C52.1,32.4 54.7,33 57.2,33 C59,33 60.7,32.7 62.4,32.1 C65.2,31 71.8,27.4 71.8,16.7 C71.8,9.5 68.8,5.7 66.2,3.7 C63.2,1.5 59.6,0.3 55.8,0.3 C55,0.3 54.1,0.4 53.3,0.5 L53.1,0.5 C50.6,1.1 46.5,2.1 41.7,8 L41.6,8.2 C41.5,8.3 41.5,8.4 41.5,8.6 C41.5,8.7 41.5,8.8 41.6,8.9 L41.7,9.1 C42.5,10.4 43.2,11.6 43.7,12.5 C43.9,12.8 44.2,12.9 44.6,12.8 C44.7,12.8 44.7,12.7 44.7,12.7 C44.7,12.7 44.8,12.6 44.8,12.6 C48.9,6.9 52.2,6.1 54.3,5.6 L54.6,5.5 C55,5.4 55.5,5.4 55.9,5.4 C58.5,5.4 61,6.2 63.1,7.7 C65.5,9.6 66.7,12.6 66.7,16.7 C66.7,23.5 63.4,26.2 60.6,27.2 C59.5,27.6 58.4,27.8 57.2,27.8 C55.4,27.8 53.7,27.4 52.1,26.6 L52,26.7 C49.6,25.7 46,23.5 42.7,16.7 C35.7,2.9 29.9,1.6 26.1,0.7 L25.9,0.7 C25.1,0.5 24.3,0.5 23.4,0.5 C19.7,0.5 16.1,1.6 13.2,3.9 C10.7,5.9 7.7,9.8 7.7,16.9 C7.7,21.2 8.6,24.1 10.9,27.2 C13.9,30.9 18.3,33 23.1,33 C24.3,33 25.5,32.9 26.6,32.7 C28.8,32.2 30.8,31.3 32.6,30 L34.5,31.6 Z" id="Path"></path>
                <g transform="translate(0.000000, 41.000000)" id="Path">
                    <path d="M70.1,3.2 C70.1,4.7 71.3,6 72.9,6 C74.5,6 75.7,4.8 75.7,3.2 C75.7,1.7 74.5,0.4 72.9,0.4 L72.9,0.4 C71.3,0.4 70.1,1.7 70.1,3.2 Z"></path>
                    <path d="M76.1,7 L75.9,7 L69.8,7 L69.6,7 C67.7,7.2 66.2,8.8 66.2,10.7 L66.2,18.4 C66.3,19 66.8,19.4 67.4,19.4 C67.9,19.4 68.3,18.9 68.4,18.4 L68.4,11.8 C68.4,11.6 68.5,11.2 68.9,11.2 C69.3,11.2 69.3,11.5 69.3,11.7 L69.3,31.5 C69.2,32.4 69.9,33.1 70.7,33.2 C71.5,33.3 72.3,32.6 72.4,31.8 C72.4,31.7 72.4,31.6 72.4,31.6 L72.4,20.2 C72.4,20 72.6,19.8 72.8,19.8 C72.8,19.8 72.8,19.8 72.8,19.8 L72.8,19.8 C73,19.8 73.2,20 73.2,20.2 C73.2,20.2 73.2,20.2 73.2,20.3 L73.2,31.7 C73.2,32.6 73.9,33.2 74.8,33.2 C75.7,33.2 76.3,32.5 76.3,31.7 L76.3,11.8 C76.3,11.6 76.4,11.3 76.7,11.3 C77,11.3 77.2,11.6 77.2,11.9 L77.2,18.5 C77.2,19.1 77.7,19.6 78.3,19.6 C78.9,19.6 79.4,19.1 79.4,18.5 L79.4,10.8 C79.5,8.8 78,7.2 76.1,7 Z"></path>
                    <path d="M46.9,4.7 C46.9,6.1 48.1,7.3 49.5,7.3 C50.9,7.3 52.1,6.1 52.1,4.7 C52.1,3.3 50.9,2.1 49.5,2.1 C48.1,2.1 46.9,3.2 46.9,4.7 L46.9,4.7 Z"></path>
                    <path d="M52.7,12.1 C53,12 53.1,12.4 53.1,12.4 L54.9,18.3 C54.9,18.3 55.2,19.6 56.3,19.3 C57.4,19 57,17.7 57,17.7 L54.8,10.6 C54.8,10.6 54,8.6 52.3,8.6 L46.7,8.6 C45,8.6 44.2,10.6 44.2,10.6 L42,17.7 C42,17.7 41.6,19 42.7,19.3 C43.8,19.6 44.1,18.3 44.1,18.3 L45.9,12.4 C45.9,12.4 46,12 46.3,12.1 C46.6,12.2 46.5,12.7 46.5,12.7 L43.4,23.8 L46.2,23.8 L46.2,31.8 C46.3,32.6 46.9,33.1 47.7,33 C48.4,32.9 48.9,32.4 48.9,31.8 L48.9,23.8 L49.7,23.8 L49.7,31.8 C49.8,32.6 50.4,33.1 51.2,33 C51.9,32.9 52.4,32.4 52.4,31.8 L52.4,23.8 L55.3,23.8 L52.2,12.7 C52.4,12.7 52.3,12.2 52.7,12.1 Z"></path>
                    <path d="M31.2,4.6 C31.2,6.1 32.4,7.2 33.8,7.2 C35.3,7.2 36.4,6 36.4,4.6 C36.4,3.2 35.2,2 33.8,2 C32.4,2 31.2,3.2 31.2,4.6 C31.2,4.6 31.2,4.6 31.2,4.6 Z"></path>
                    <path d="M39.1,10.6 C39.1,10.6 38.3,8.5 36.6,8.5 L31,8.5 C29.3,8.5 28.5,10.6 28.5,10.6 L26.3,17.7 C26.3,17.7 25.9,19 27,19.3 C28.1,19.6 28.4,18.4 28.4,18.4 L30.2,12.5 C30.2,12.5 30.3,12.1 30.6,12.1 C30.9,12.1 30.8,12.7 30.8,12.7 L27.8,23.8 L30.6,23.8 L30.6,31.7 C30.5,32.5 31.1,33.1 31.8,33.2 C32.6,33.3 33.2,32.7 33.3,32 C33.3,31.9 33.3,31.8 33.3,31.8 L33.3,23.9 L34.1,23.9 L34.1,31.8 C34,32.6 34.6,33.2 35.3,33.3 C36.1,33.4 36.7,32.8 36.8,32.1 C36.8,32 36.8,31.9 36.8,31.9 L36.8,24 L39.6,24 L36.5,12.9 C36.5,12.9 36.4,12.4 36.7,12.3 C37,12.2 37.1,12.7 37.1,12.7 L38.9,18.6 C38.9,18.6 39.2,19.9 40.3,19.5 C41.4,19.1 41,17.9 41,17.9 L39.1,10.6 Z"></path>
                    <path d="M8.6,6.3 C10.1,6.3 11.3,5.1 11.3,3.5 C11.3,2 10.1,0.8 8.5,0.8 C6.9,0.8 5.8,2 5.8,3.6 C5.8,3.6 5.8,3.6 5.8,3.6 C5.8,5.1 7,6.3 8.6,6.3 C8.6,6.3 8.6,6.3 8.6,6.3 Z"></path>
                    <path d="M11.8,7.3 L5.4,7.3 C3.5,7.5 2,9.1 2,11 L2,18.6 C2,18.9 2.2,19.2 2.4,19.4 L0,32.3 C0,32.5 0.1,32.7 0.3,32.8 L0.4,32.8 C0.6,32.8 0.8,32.7 0.8,32.5 L3.2,19.7 C3.7,19.6 4.1,19.2 4.1,18.7 L4.1,12.1 C4.1,11.9 4.2,11.5 4.6,11.5 C5,11.5 5,11.8 5,12 L5,31.6 C5,32.4 5.7,33.1 6.5,33.1 C7.3,33.1 8,32.4 8,31.6 C8,31.6 8,31.6 8,31.6 L8,20.3 C8,20.1 8.2,19.9 8.4,19.9 C8.4,19.9 8.4,19.9 8.5,19.9 L8.5,19.9 C8.7,19.9 8.9,20 8.9,20.3 C8.9,20.3 8.9,20.3 8.9,20.4 L8.9,31.7 C9,32.5 9.7,33.2 10.6,33.1 C11.4,33 12,32.4 12,31.7 L12,12 C12,11.8 12.1,11.5 12.4,11.5 C12.7,11.5 13,11.8 13,12 L13,18.5 C13.1,19.1 13.6,19.5 14.2,19.5 C14.7,19.5 15.1,19 15.2,18.5 L15.2,11 C15.1,9.1 13.7,7.5 11.8,7.3 Z"></path>
                    <path d="M58.9,16.9 C58.9,18.1 59.9,19.1 61.1,19.1 C62.3,19.1 63.3,18.1 63.3,16.9 C63.3,15.7 62.3,14.7 61.1,14.7 C59.9,14.7 58.9,15.7 58.9,16.9 L58.9,16.9 Z"></path>
                    <path d="M65.7,23.5 C64.3,20 64.1,20 62.9,20 L59.5,20 C58.3,20 58.1,20 56.7,23.5 C56.5,24 55.7,25.9 55.7,26 C55.7,26.1 55.4,26.8 56.1,27.1 C56.8,27.4 57,26.5 57,26.5 L58.4,23.1 C58.4,23.1 58.4,23 58.5,23 C58.6,23 58.5,23.1 58.5,23.1 L58.5,31.9 L58.5,31.9 C58.5,32.5 59,33.1 59.6,33.1 C59.6,33.1 59.6,33.1 59.6,33.1 C60.2,33.1 60.7,32.6 60.7,31.9 C60.7,31.9 60.7,31.9 60.7,31.9 L60.7,28.4 C60.7,28.4 60.7,27.9 61,27.9 C61.3,27.9 61.3,28.4 61.3,28.4 L61.3,31.9 C61.3,32.5 61.8,33.1 62.4,33.1 C62.4,33.1 62.4,33.1 62.4,33.1 C63,33.1 63.5,32.6 63.5,32 C63.5,32 63.5,32 63.5,31.9 L63.5,31.9 L63.5,23.1 C63.5,23 63.5,23 63.5,23 L63.6,23.1 L64.8,26.1 C64.8,26.1 65.2,26.9 65.8,26.6 C66.4,26.3 66.1,25.6 66.1,25.6 C66.1,25.6 65.8,24 65.7,23.5 Z"></path>
                    <path d="M25.2,17.8 C24.8,17.6 24.3,17.7 24.1,18.2 C24.1,18.2 24.1,18.2 24.1,18.2 C23.7,18.9 23.2,19.7 22.7,20.3 C22.5,20.5 22.3,20.6 22,20.6 L19.3,20.6 C19,20.6 18.8,20.5 18.6,20.3 C18.3,20 17.2,18.1 17.2,18.1 C17.1,17.9 16.8,17.7 16.5,17.7 C16.1,17.7 15.7,18 15.7,18.5 C15.7,18.5 15.7,18.5 15.7,18.5 C15.7,18.6 15.7,18.7 15.8,18.9 L18,22.9 C18.1,23.1 18.1,23.2 18.1,23.4 L18.1,24 L18.1,24 C18.1,24.2 18.1,24.5 18,24.7 L16.9,28.9 L18.1,28.9 L18.1,32 L18.1,32 C18,32.6 18.5,33.1 19.1,33.2 C19.7,33.3 20.2,32.8 20.3,32.2 C20.3,32.1 20.3,32.1 20.3,32 L20.3,29 C20.3,29 20.3,28.9 20.3,28.9 L21,28.9 L21,32 C20.9,32.6 21.4,33.1 22,33.2 C22.6,33.3 23.1,32.8 23.2,32.2 C23.2,32.1 23.2,32.1 23.2,32 L23.2,28.9 L24.4,28.9 L23.4,24.7 C23.3,24.5 23.3,24.3 23.3,24.1 L23.3,24 L23.3,24 L23.3,23.4 C23.3,23.2 23.4,23 23.4,22.9 L25.4,19.2 L25.6,18.8 C25.7,18.5 25.6,18 25.2,17.8 C25.2,17.9 25.2,17.9 25.2,17.8 Z"></path>
                    <path d="M20.7,19.3 C21.9,19.3 22.9,18.3 22.9,17.1 C22.9,15.9 21.9,14.9 20.7,14.9 C19.5,14.9 18.5,15.9 18.5,17.1 C18.5,17.1 18.5,17.1 18.5,17.1 C18.5,18.3 19.5,19.3 20.7,19.3 C20.7,19.3 20.7,19.3 20.7,19.3 Z"></path>
                </g>
            </g>
        </g>
    </g>
</svg>