<?xml version="1.0" encoding="UTF-8"?>
<svg width="95px" height="95px" viewBox="0 0 95 95" version="1.1" xmlns="http://www.w3.org/2000/svg" xmlns:xlink="http://www.w3.org/1999/xlink">
    <!-- Generator: Sketch 53.2 (72643) - https://sketchapp.com -->
    <title>goal_17_target_17_4</title>
    <desc>Created with Sketch.</desc>
    <g id="goal_17_target_17_4" stroke="none" stroke-width="1" fill="none" fill-rule="evenodd">
        <g id="Group-146" fill-rule="nonzero">
            <rect id="Rectangle" fill="#19486A" x="1.45661261e-12" y="7.10542736e-15" width="94.8" height="94.8"></rect>
            <g id="Group" transform="translate(11.700000, 11.000000)" fill="#FFFFFF">
                <path d="M70.1,42.1 L70,42.1 L63.3,41.8 L63.3,41.8 C63.2,41.8 63.2,41.8 63.1,41.8 C63,41.9 63,42 63,42.1 C63,42.1 63,42.1 63,42.1 L63,42.1 L63,42.1 L63.1,42.2 L64.3,43.9 L64.9,44.7 L53.2,51.7 L30.7,55.1 L30.5,55.1 L11.1,68.6 L12.2,70.3 L31.2,57.1 L53.9,53.7 L66,46.5 L66.6,47.4 L67.8,49.1 L67.8,49.2 C67.9,49.3 68,49.3 68.1,49.3 C68.1,49.3 68.2,49.2 68.2,49.2 L68.2,49.1 L70.3,42.6 L70.3,42.5 C70.3,42.4 70.3,42.3 70.2,42.3 C70.1,42.2 70.1,42.2 70.1,42.1 Z" id="Path"></path>
                <polygon id="Path" points="5.4 35.4 2.7 35.4 2.7 23.8 5.4 23.8 5.4 21.8 2.7 21.8 2.7 10.2 5.4 10.2 5.4 8.2 2.7 8.2 2.7 0.8 0.7 0.8 0.7 72.1 2.7 72.1 2.7 64.7 5.4 64.7 5.4 62.7 2.7 62.7 2.7 51.1 5.4 51.1 5.4 49.1 2.7 49.1 2.7 37.4 5.4 37.4 70.8 37.4 70.8 35.4"></polygon>
                <g transform="translate(16.000000, 5.000000)">
                    <g transform="translate(0.000000, 5.000000)">
                        <path d="M14.4,16.2 C13.9,16.5 13.4,16.7 12.8,16.9 C11.2,17.4 9.6,17.6 7.9,17.5 C7.1,17.5 6.3,17.4 5.5,17.3 C5,17.2 4.5,17.1 4,17 C3.7,16.9 3.5,16.9 3.3,16.8 C2.6,16.6 2,16.3 1.4,15.9 C1.2,15.7 1,15.6 0.9,15.3 L0.9,16 C0.9,16.2 0.9,17 0.9,17 C0.9,17.4 1.1,17.8 1.5,18 C2.6,18.8 3.9,19.3 5.3,19.4 C6.2,19.5 7.2,19.6 8.1,19.6 C9.4,19.6 10.8,19.5 12.1,19.1 L12.1,19.1 C12.8,18.9 13.5,18.7 14.1,18.3 L14.1,18.3 C14.8,17.9 15.2,17.4 15.2,16.9 C15.2,16.9 15.3,15.4 15.2,15.3 C14.9,15.7 14.7,16 14.4,16.2 Z" id="Path"></path>
                        <path d="M7.4,11.3 C11.4,11.3 14.6,10.1 14.6,8.6 C14.6,8.6 14.7,7.2 14.7,6.9 C14.7,6.7 14.6,6.5 14.6,6.3 C15,6.1 15.3,5.6 15.4,5.1 C15.4,5.1 15.5,3.6 15.4,3.3 C15.2,1.5 11.6,0.5 8.2,0.5 C4.8,0.5 1,1.5 1,3.4 C1,3.5 1.1,5.1 1.1,5.1 C1.1,5.2 1.1,5.3 1.2,5.4 C0.7,5.7 0.3,6.2 0.3,6.9 C0.3,7 0.4,8.6 0.4,8.6 C0.4,9 0.6,9.4 1,9.6 C2.1,10.4 3.4,10.9 4.8,11 C5.5,11.2 6.5,11.3 7.4,11.3 Z M8.1,1.4 C11.9,1.4 14.6,2.6 14.6,3.6 C14.6,4.6 12,5.8 8.1,5.8 C4.2,5.8 1.6,4.7 1.6,3.6 C1.6,2.5 4.3,1.4 8.1,1.4 Z M0.9,7 C1,6.7 1.2,6.4 1.5,6.2 C1.7,6.4 2,6.6 2.2,6.7 C4.1,7.5 6.1,8 8.1,7.9 C9.8,7.9 11.5,7.7 13.2,7.1 C13.4,7 13.6,6.9 13.8,6.8 C13.8,6.9 13.8,6.9 13.8,7 C13.8,8 11.1,9.2 7.3,9.2 C3.5,9.2 0.9,8 0.9,7 Z" id="Shape"></path>
                        <path d="M5.3,16.8 C6.2,17 7.1,17 8,17 C9.3,17 10.7,16.9 12,16.5 L12,16.5 C12.7,16.3 13.4,16.1 14,15.7 L14,15.7 C14.2,15.6 14.3,15.5 14.5,15.4 C14.7,15.2 14.9,15 15,14.7 C15,14.6 15.1,14.5 15.1,14.3 C15.1,14.3 15.1,12.8 15.1,12.7 C14.9,13 14.2,13.9 11.4,14.5 C10.2,14.7 9,14.8 7.7,14.8 C5.4,14.8 3,14.3 2,13.7 C1.7,13.5 1.4,13.3 1.1,13.1 C0.9,12.9 0.8,12.8 0.7,12.6 C0.7,12.6 0.7,13.3 0.7,13.3 L0.7,14.3 C0.7,14.7 0.9,15.1 1.3,15.3 C2.4,16.2 3.8,16.7 5.3,16.8 Z" id="Path"></path>
                        <path d="M14.4,11.1 L14,11.3 C14,11.3 13.6,11.5 13.4,11.6 C13.4,11.6 13,11.8 12.8,11.8 C12.6,11.8 12.2,12 11.9,12 C11.9,12 11.1,12.1 10.8,12.2 L9.7,12.3 C9.6,12.3 8.5,12.4 8,12.4 C7.2,12.4 6.5,12.3 5.7,12.2 C5.2,12.1 4.6,12 4.1,11.9 C3.5,11.8 2.9,11.6 2.4,11.4 C2.1,11.3 1.8,11.1 1.5,10.8 C1.3,10.6 1.1,10.3 0.9,10 L0.9,10.9 L0.9,11.8 C0.9,12.2 1.1,12.6 1.5,12.8 C2.6,13.6 3.9,14.1 5.3,14.2 C6.2,14.3 7.2,14.4 8.1,14.4 C9.4,14.4 10.8,14.3 12.1,13.9 L12.1,13.9 C12.8,13.7 13.5,13.5 14.1,13.1 L14.1,13.1 C14.3,13 14.4,12.9 14.6,12.8 C14.8,12.6 15,12.4 15.1,12.1 C15.1,12 15.2,11.9 15.2,11.7 C15.2,11.7 15.3,10.2 15.3,10.2 C15.3,10.1 15.3,10 15.2,9.8 C15.2,9.7 15.1,9.6 15,9.5 C14.9,9.4 14.9,9.4 14.8,9.3 C14.7,9.2 14.6,9.2 14.5,9.1 C14.4,9.3 14.3,9.4 14.2,9.5 C14.3,9.5 14.4,9.6 14.5,9.7 C14.7,9.8 14.8,10 14.8,10.2 C14.8,10.4 14.7,10.6 14.5,10.7 L14.4,11.1 Z" id="Path"></path>
                    </g>
                    <g transform="translate(33.000000, 5.000000)">
                        <path d="M14.5,16.2 C14,16.5 13.5,16.7 12.9,16.9 C11.3,17.4 9.7,17.6 8,17.5 C7.2,17.5 6.4,17.4 5.6,17.3 C5.1,17.2 4.6,17.1 4.1,17 C3.9,16.9 3.6,16.9 3.4,16.8 C2.7,16.6 2.1,16.3 1.5,15.9 C1.3,15.7 1.1,15.6 1,15.3 L1,16 C1,16.2 1,17 1,17 C1,17.4 1.2,17.8 1.6,18 C2.7,18.8 4,19.3 5.4,19.4 C6.3,19.5 7.2,19.6 8.2,19.6 C9.5,19.6 10.9,19.5 12.2,19.1 L12.2,19.1 C12.9,18.9 13.6,18.7 14.2,18.3 L14.2,18.3 C14.9,17.9 15.3,17.4 15.3,16.9 C15.3,16.9 15.3,15.4 15.3,15.3 C15,15.7 14.8,16 14.5,16.2 Z" id="Path"></path>
                        <path d="M7.5,11.3 C11.5,11.3 14.7,10.1 14.7,8.6 C14.7,8.6 14.8,7.2 14.8,6.9 C14.8,6.7 14.8,6.5 14.7,6.3 C15.2,6.1 15.5,5.6 15.5,5.1 C15.5,5.1 15.6,3.6 15.5,3.3 C15.3,1.5 11.7,0.5 8.3,0.5 C4.9,0.5 1.1,1.5 1.1,3.4 C1.1,3.5 1.2,5.1 1.2,5.1 C1.2,5.2 1.2,5.3 1.3,5.4 C0.8,5.7 0.4,6.2 0.4,6.9 C0.4,7 0.5,8.6 0.5,8.6 C0.5,9 0.7,9.4 1.1,9.6 C2.2,10.4 3.5,10.9 4.9,11 C5.6,11.2 6.6,11.3 7.5,11.3 Z M8.2,1.4 C12,1.4 14.7,2.6 14.7,3.6 C14.7,4.6 12,5.8 8.2,5.8 C4.4,5.8 1.7,4.7 1.7,3.6 C1.7,2.5 4.4,1.4 8.2,1.4 Z M1,7 C1.1,6.7 1.3,6.4 1.6,6.2 C1.8,6.4 2.1,6.6 2.3,6.7 C4.2,7.6 6.2,8 8.2,7.9 C9.9,7.9 11.6,7.7 13.3,7.1 C13.5,7 13.7,6.9 13.9,6.8 C13.9,6.9 14,6.9 14,7 C14,8 11.3,9.2 7.5,9.2 C3.7,9.2 1,8 1,7 Z" id="Shape"></path>
                        <path d="M5.4,16.8 C6.3,16.9 7.2,17 8.2,17 C9.5,17 10.9,16.9 12.2,16.5 L12.2,16.5 C12.9,16.3 13.6,16.1 14.2,15.7 L14.2,15.7 C14.4,15.6 14.5,15.5 14.6,15.4 C14.8,15.2 15,15 15.1,14.7 C15.2,14.6 15.2,14.5 15.2,14.3 C15.2,14.3 15.2,12.8 15.2,12.7 C15,13 14.4,13.9 11.5,14.5 C10.3,14.7 9.1,14.8 7.8,14.8 C5.5,14.8 3.1,14.3 2.1,13.7 C1.8,13.5 1.5,13.3 1.2,13.1 C1,12.9 0.9,12.8 0.8,12.6 C0.8,12.6 0.8,13.3 0.8,13.3 L0.8,14.3 C0.8,14.7 1,15.1 1.4,15.3 C2.6,16.2 3.9,16.7 5.4,16.8 Z" id="Path"></path>
                        <path d="M14.5,11.1 L14.1,11.3 C14.1,11.3 13.7,11.5 13.5,11.6 C13.5,11.6 13.1,11.8 12.9,11.8 C12.7,11.8 12.2,11.9 12,12 C11.9,12 11.2,12.1 10.9,12.2 L9.8,12.3 C9.7,12.3 8.6,12.4 8.1,12.4 C7.3,12.4 6.6,12.3 5.8,12.2 C5.3,12.1 4.7,12 4.2,11.9 C3.6,11.8 3,11.6 2.5,11.4 C2.2,11.3 1.9,11.1 1.6,10.8 C1.4,10.6 1.2,10.3 1,10.1 L1,11 L1,11.9 C1,12.3 1.2,12.7 1.6,12.9 C2.7,13.7 4,14.2 5.4,14.3 C6.3,14.4 7.3,14.5 8.2,14.5 C9.5,14.5 10.9,14.4 12.2,14 L12.2,14 C12.9,13.8 13.6,13.6 14.2,13.2 L14.2,13.2 C14.4,13.1 14.5,13 14.6,12.9 C14.8,12.7 15,12.5 15.1,12.2 C15.1,12.1 15.2,12 15.2,11.8 C15.2,11.8 15.3,10.3 15.3,10.3 C15.3,10.2 15.3,10.1 15.3,9.9 C15.3,9.8 15.2,9.7 15.1,9.6 C15,9.5 14.9,9.4 14.9,9.4 C14.8,9.3 14.7,9.3 14.6,9.2 C14.5,9.4 14.4,9.5 14.3,9.6 C14.4,9.6 14.5,9.7 14.6,9.8 C14.8,9.9 14.9,10.1 14.9,10.3 C14.9,10.5 14.8,10.7 14.7,10.8 L14.5,11.1 Z" id="Path"></path>
                    </g>
                    <g transform="translate(16.000000, 0.000000)">
                        <path d="M7.9,11.2 C11.9,11.2 15.1,10 15.1,8.5 C15.1,8.5 15.2,7.1 15.2,6.8 C15.2,6.6 15.1,6.4 15.1,6.2 C15.5,6 15.8,5.5 15.9,5 C15.9,5 16,3.5 15.9,3.2 C15.7,1.4 12.1,0.4 8.7,0.4 C5.3,0.4 1.5,1.4 1.5,3.3 C1.5,3.4 1.6,5 1.6,5 C1.6,5.1 1.6,5.2 1.7,5.3 C1.2,5.6 0.8,6.2 0.8,6.8 C0.8,6.9 0.9,8.5 0.9,8.5 C0.9,8.9 1.1,9.3 1.5,9.5 C2.6,10.3 4,10.8 5.3,11 C6,11.1 7,11.2 7.9,11.2 Z M8.6,1.2 C12.4,1.2 15.1,2.3 15.1,3.4 C15.1,4.5 12.4,5.6 8.6,5.6 C4.8,5.6 2.1,4.4 2.1,3.4 C2.1,2.4 4.8,1.2 8.6,1.2 Z M1.4,6.8 C1.5,6.4 1.7,6.1 2,6 C2.2,6.2 2.5,6.4 2.7,6.5 C4.6,7.3 6.6,7.7 8.6,7.7 C10.3,7.8 12,7.5 13.6,7 C13.8,6.9 14,6.8 14.2,6.7 C14.2,6.8 14.2,6.8 14.2,6.9 C14.2,7.9 11.5,9.1 7.7,9.1 C3.9,9.1 1.4,7.9 1.4,6.8 Z" id="Shape"></path>
                        <path d="M15.8,9.7 C15.8,9.6 15.7,9.5 15.6,9.4 C15.5,9.3 15.5,9.3 15.4,9.2 C15.3,9.1 15.2,9.1 15.1,9 C15,9.2 14.9,9.3 14.8,9.4 C14.9,9.4 15,9.5 15.1,9.6 C15.3,9.7 15.4,9.9 15.4,10.1 C15.4,10.3 15.3,10.5 15.1,10.6 C15,10.7 14.9,10.7 14.8,10.8 C14.7,10.9 14.5,11 14.4,11 L13.8,11.3 L13.2,11.5 L12.3,11.7 L11.3,12 L10.2,12.1 C10.1,12.1 9,12.2 8.5,12.2 C7.7,12.2 7,12.1 6.2,12 C5.7,11.9 5.1,11.8 4.6,11.7 C4,11.6 3.4,11.4 2.9,11.2 C2.6,11.1 2.3,10.8 2,10.6 C1.8,10.4 1.6,10.1 1.4,9.8 C1.4,9.8 1.4,10.7 1.4,10.8 L1.4,11.7 C1.4,12.1 1.6,12.5 2,12.7 C3.1,13.5 4.4,14 5.8,14.1 C6.7,14.2 7.7,14.3 8.6,14.3 C9.9,14.3 11.3,14.2 12.6,13.8 L12.6,13.8 C13.3,13.6 14,13.4 14.6,13 L14.6,13 C14.8,12.9 14.9,12.8 15.1,12.7 C15.3,12.5 15.5,12.3 15.6,12 C15.6,11.9 15.7,11.8 15.7,11.6 C15.7,11.6 15.8,10.1 15.8,10.1 C15.8,10 15.8,9.9 15.8,9.7 Z" id="Path"></path>
                        <path d="M15,16 C14.5,16.3 14,16.5 13.4,16.7 C11.8,17.2 10.2,17.4 8.5,17.3 C7.7,17.3 6.9,17.2 6.1,17.1 C5.6,17 5.1,16.9 4.6,16.8 C4.3,16.7 4.1,16.7 3.9,16.6 C3.2,16.4 2.6,16.1 2,15.7 C1.8,15.5 1.6,15.3 1.5,15.1 L1.5,15.7 C1.5,15.9 1.5,16.7 1.5,16.7 C1.5,17.1 1.7,17.5 2.1,17.7 C3.2,18.5 4.5,19 5.9,19.1 C6.8,19.2 7.8,19.3 8.7,19.3 C10,19.3 11.4,19.2 12.7,18.8 L12.7,18.8 C13.4,18.6 14.1,18.4 14.7,18 L14.7,18 C15.4,17.6 15.8,17.1 15.8,16.6 C15.8,16.6 15.8,15.1 15.8,15 C15.5,15.5 15.3,15.8 15,16 Z" id="Path"></path>
                        <path d="M2,15.2 C3.1,16 4.4,16.5 5.8,16.6 C6.7,16.7 7.7,16.8 8.6,16.8 C9.9,16.8 11.3,16.7 12.6,16.3 L12.6,16.3 C13.3,16.1 14,15.9 14.6,15.5 L14.6,15.5 C14.8,15.4 14.9,15.3 15.1,15.2 C15.3,15 15.5,14.8 15.6,14.5 C15.6,14.4 15.7,14.3 15.7,14.1 C15.7,14.1 15.7,12.6 15.7,12.5 C15.5,12.8 14.9,13.7 12,14.3 C10.8,14.5 9.6,14.6 8.3,14.6 C6.3,14.7 4.4,14.3 2.6,13.5 C2.3,13.3 2,13.1 1.7,12.9 C1.5,12.7 1.4,12.6 1.3,12.4 C1.3,12.4 1.3,13.1 1.3,13.1 L1.3,14.1 C1.3,14.7 1.6,15 2,15.2 Z" id="Path"></path>
                        <path d="M15.9,20.3 C15.7,20.6 15.4,20.9 15,21.1 C14.5,21.4 14,21.6 13.4,21.8 C11.8,22.3 10.2,22.5 8.5,22.4 C7.7,22.4 6.9,22.3 6.1,22.2 C5.6,22.1 5.1,22 4.6,21.9 L3.9,21.7 C3.2,21.5 2.6,21.2 2,20.8 C1.8,20.6 1.6,20.5 1.5,20.2 L1.5,21 C1.5,21.2 1.5,22 1.5,22 C1.5,22.4 1.7,22.8 2.1,23 C3.2,23.8 4.5,24.3 5.9,24.4 C6.8,24.5 7.7,24.6 8.7,24.6 C10,24.6 11.4,24.5 12.7,24.1 L12.7,24.1 C13.4,23.9 14.1,23.7 14.7,23.3 L14.7,23.3 C15.4,22.9 15.7,22.4 15.7,21.9 C15.8,21.9 15.9,20.4 15.9,20.3 Z" id="Path"></path>
                        <path d="M5.8,21.8 C6.7,21.9 7.7,22 8.6,22 C9.9,22 11.3,21.9 12.6,21.5 L12.6,21.5 C13.3,21.3 14,21.1 14.6,20.7 L14.6,20.7 C14.8,20.6 14.9,20.5 15,20.4 C15.2,20.2 15.4,20 15.5,19.7 C15.5,19.6 15.6,19.5 15.6,19.3 C15.6,19.3 15.6,17.8 15.6,17.7 C15.4,18 14.8,18.9 11.9,19.5 C10.7,19.7 9.5,19.8 8.2,19.8 C6.2,19.8 4.3,19.5 2.5,18.7 C2.2,18.5 1.9,18.3 1.6,18.1 C1.4,17.9 1.3,17.8 1.2,17.6 C1.2,17.6 1.2,18.3 1.2,18.3 L1.2,19.3 C1.2,19.7 1.4,20.1 1.8,20.3 C3,21.2 4.4,21.7 5.8,21.8 Z" id="Path"></path>
                    </g>
                </g>
            </g>
        </g>
    </g>
</svg>