<?xml version="1.0" encoding="UTF-8"?>
<svg width="95px" height="95px" viewBox="0 0 95 95" version="1.1" xmlns="http://www.w3.org/2000/svg" xmlns:xlink="http://www.w3.org/1999/xlink">
    <!-- Generator: Sketch 53.2 (72643) - https://sketchapp.com -->
    <title>goal_10_target_10_7</title>
    <desc>Created with Sketch.</desc>
    <g id="goal_10_target_10_7" stroke="none" stroke-width="1" fill="none" fill-rule="evenodd">
        <g id="Group-79" fill-rule="nonzero">
            <rect id="Rectangle" fill="#DD1367" x="-3.62376795e-13" y="-2.13162821e-14" width="94.8" height="94.8"></rect>
            <g id="Group" transform="translate(8.700000, 18.000000)" fill="#FFFFFF">
                <path d="M21.4,51.6 C17.3,50.1 14.8,49.4 12.7,48.4 C10.6,47.4 9.6,46.6 9.1,47.2 C8.5,48 8.9,49.4 10.4,50.4 C11.9,51.4 14.7,52.5 15.3,52.8 C15.9,53.1 16.2,53.5 15.7,53.9 C15.2,54.3 12.2,52.6 11.3,52 C9.3,50.6 7.6,48.8 6.2,46.8 C5.1,45 3.2,40.8 2.8,40.3 C2.4,39.8 1.7,38.7 1,39 C0.3,39.3 0.6,40.5 0.9,41.4 C2.1,45.5 3.7,49.4 5.7,53.1 C7.5,56.2 8.1,56.8 11,58.2 C13.9,59.6 16.7,59.9 18,61 C19.5,62.2 20.6,63.7 21.3,65.5 C21.4,65.7 21.5,65.9 21.6,66.2 L31,66.2 C29.2,62.5 27.5,59.1 27.3,58.4 C26.6,55.3 24.4,52.7 21.4,51.6 Z" id="Path"></path>
                <path d="M76.6,39 C75.9,38.7 75.3,39.7 74.8,40.3 C74.3,40.9 72.5,45 71.4,46.9 C70,48.9 68.3,50.6 66.3,52.1 C65.4,52.7 62.3,54.3 61.9,54 C61.5,53.7 61.9,53.2 62.3,52.9 C64,52.2 65.6,51.4 67.2,50.5 C68.7,49.5 69.1,48 68.5,47.3 C68,46.7 67,47.6 64.9,48.5 C62.8,49.4 60.3,50.1 56.2,51.7 C53.2,52.8 51,55.4 50.3,58.5 C50.1,59.2 48.5,62.6 46.6,66.3 L56,66.3 L56.3,65.6 C57,63.8 58.1,62.3 59.6,61.1 C60.9,60.1 63.7,59.7 66.6,58.3 C69.5,56.9 70,56.3 71.9,53.2 C73.9,49.5 75.5,45.5 76.8,41.5 C77,40.6 77.3,39.3 76.6,39 Z" id="Path"></path>
                <path d="M28,7.9 C29.5,7.9 30.7,6.7 30.7,5.2 C30.7,3.7 29.5,2.5 28,2.5 C26.5,2.5 25.3,3.7 25.3,5.2 C25.3,6.7 26.5,7.9 28,7.9 L28,7.9 Z" id="Path"></path>
                <path d="M44.2,18.7 C43.9,18.7 43.7,18.8 43.5,19.1 L43.5,19.1 C43.4,19.1 42.4,21 42,21.4 C41.8,21.6 41.6,21.7 41.3,21.7 L38.6,21.7 C38.3,21.7 38.1,21.6 37.9,21.4 C37.6,21.1 36.5,19.2 36.4,19.1 L36.4,19.1 C36.3,18.9 36,18.7 35.7,18.7 L35.6,18.7 L35.6,18.6 L33.4,11.3 C33.4,11.3 32.6,9.2 30.8,9.2 L25,9.2 C23.2,9.2 22.4,11.3 22.4,11.3 L20.2,18.6 C20.2,18.6 19.8,19.9 20.9,20.3 C22,20.6 22.4,19.3 22.4,19.3 L24.2,13.2 C24.2,13.2 24.3,12.7 24.7,12.8 C25.1,12.9 24.9,13.4 24.9,13.4 L21.8,24.8 L24.7,24.8 L24.7,33 C24.6,33.8 25.2,34.5 26,34.5 C26,34.5 26,34.5 26,34.5 C26.8,34.6 27.5,34 27.5,33.2 C27.5,33.2 27.5,33.2 27.5,33.2 L27.5,24.8 L28.3,24.8 L28.3,33 C28.2,33.8 28.8,34.5 29.6,34.5 C29.6,34.5 29.6,34.5 29.6,34.5 C30.4,34.6 31.1,34 31.1,33.2 C31.1,33.2 31.1,33.2 31.1,33.2 L31.1,24.8 L34,24.8 L31,13.4 C31,13.4 30.9,12.9 31.2,12.8 C31.5,12.7 31.7,13.2 31.7,13.2 L33.5,19.3 C33.5,19.3 33.8,20.6 35,20.3 C35.1,20.3 35.2,20.2 35.3,20.2 L37.4,24 C37.5,24.2 37.5,24.4 37.5,24.5 L37.5,25.3 L36.4,29.7 L37.6,29.7 L37.6,33.3 L37.6,33.3 C37.5,33.9 38,34.4 38.6,34.5 C38.6,34.5 38.6,34.5 38.6,34.5 C39.2,34.6 39.8,34.1 39.8,33.5 C39.8,33.5 39.8,33.5 39.8,33.5 L39.8,29.7 L40.4,29.7 L40.4,33.3 C40.3,33.9 40.8,34.4 41.4,34.5 C41.4,34.5 41.4,34.5 41.4,34.5 C42,34.6 42.6,34.1 42.6,33.5 C42.6,33.5 42.6,33.5 42.6,33.5 L42.6,29.7 L43.8,29.7 L42.6,25.3 L42.6,24.5 C42.6,24.3 42.7,24.1 42.7,24 L44.8,20.2 C44.9,20 45,19.8 45,19.5 C45,19.1 44.7,18.7 44.2,18.7 Z" id="Path"></path>
                <path d="M40,20.2 C41.2,20.2 42.3,19.2 42.3,18 C42.3,16.8 41.3,15.7 40.1,15.7 C38.9,15.7 37.8,16.7 37.8,17.9 C37.8,17.9 37.8,17.9 37.8,17.9 L37.8,17.9 C37.8,19.2 38.8,20.2 40,20.2 Z" id="Path"></path>
                <path d="M11.1,6.5 C12.7,6.5 14,5.3 14,3.7 C14,2.1 12.8,0.8 11.2,0.8 C9.6,0.8 8.3,2 8.3,3.6 L8.3,3.6 C8.3,5.2 9.6,6.5 11.1,6.5 Z" id="Path"></path>
                <path d="M5.5,20.4 C6.1,20.4 6.6,19.9 6.6,19.3 L6.6,12.5 C6.6,12.2 6.7,11.9 7.1,11.9 C7.5,11.9 7.5,12.2 7.5,12.5 L7.5,32.8 C7.4,33.7 8.1,34.4 8.9,34.5 C9.8,34.6 10.5,33.9 10.6,33.1 C10.6,33.1 10.6,33.1 10.6,33.1 L10.6,21 C10.6,20.8 10.8,20.5 11,20.5 C11,20.5 11,20.5 11,20.5 L11,20.5 C11.2,20.5 11.4,20.7 11.5,20.9 L11.5,32.7 C11.4,33.6 12.1,34.3 12.9,34.4 C13.8,34.5 14.5,33.8 14.6,33 C14.6,33 14.6,33 14.6,33 L14.6,12.4 C14.6,12.2 14.7,11.8 15,11.8 C15.3,11.8 15.5,12.1 15.5,12.4 L15.5,19.2 C15.5,19.6 15.8,20 16.2,20.2 C16.2,20.3 16.2,20.4 16.2,20.4 L18.8,33.8 C18.8,34.1 19.1,34.3 19.3,34.3 L19.4,34.3 C19.7,34.2 19.9,33.9 19.8,33.6 L17.3,20.2 C17.3,20.1 17.3,20.1 17.2,20 C17.5,19.8 17.7,19.5 17.7,19.1 L17.7,11.2 C17.7,9.2 16.2,7.6 14.2,7.4 L7.6,7.4 C5.6,7.6 4.1,9.2 4.1,11.2 L4.1,19.1 C4.3,19.9 4.8,20.4 5.5,20.4 C5.4,20.4 5.4,20.4 5.5,20.4 L5.5,20.4 Z" id="Path"></path>
                <rect id="Rectangle" x="45.4" y="28" width="13" height="6.3"></rect>
                <path d="M57.3,21 L56,21 C56,20 55.2,19.2 54.2,19.2 C53.2,19.2 52.4,20 52.4,21 L51.1,21 L51.1,27.3 L57.3,27.3 L57.3,21 L57.3,21 Z M54.2,19.6 C55,19.6 55.6,20.2 55.6,21 C55.6,21 55.6,21 55.6,21 L55.6,21 L52.9,21 C52.8,20.3 53.4,19.6 54.2,19.6 C54.2,19.6 54.2,19.6 54.2,19.6 L54.2,19.6 L54.2,19.6 Z" id="Shape"></path>
                <path d="M65.3,6.4 C66.9,6.4 68.1,5.1 68.1,3.6 C68.1,2.1 66.8,0.7 65.3,0.7 C63.7,0.7 62.5,2 62.5,3.5 L62.5,3.5 L62.5,3.5 C62.5,5.1 63.7,6.4 65.3,6.4 C65.3,6.4 65.3,6.4 65.3,6.4 L65.3,6.4 Z" id="Path"></path>
                <path d="M59.6,20.3 C60.2,20.3 60.7,19.8 60.7,19.2 L60.7,12.4 C60.7,12.1 60.8,11.8 61.2,11.8 C61.6,11.8 61.6,12.1 61.6,12.4 L61.6,32.7 C61.5,33.6 62.2,34.3 63,34.4 C63.8,34.5 64.6,33.8 64.7,33 C64.7,33 64.7,33 64.7,33 L64.7,21 C64.7,20.8 64.9,20.6 65.1,20.5 L65.2,20.5 C65.4,20.5 65.6,20.7 65.6,20.9 C65.6,20.9 65.6,20.9 65.6,20.9 L65.6,32.6 C65.5,33.5 66.2,34.2 67,34.3 C67.8,34.4 68.6,33.7 68.7,32.9 C68.7,32.9 68.7,32.9 68.7,32.9 L68.7,12.4 C68.7,12.2 68.8,11.8 69.1,11.8 C69.4,11.8 69.6,12.1 69.6,12.4 L69.6,19.2 C69.7,19.8 70.2,20.3 70.8,20.2 C70.8,20.2 70.8,20.2 70.8,20.2 C71.3,20.1 71.7,19.7 71.8,19.2 L71.8,11.3 C71.8,9.3 70.3,7.7 68.4,7.5 L62,7.5 C60,7.7 58.5,9.3 58.6,11.3 L58.6,19.2 C58.5,19.8 59,20.3 59.6,20.3 Z" id="Path"></path>
                <rect id="Rectangle" x="69.6" y="21" width="3.7" height="8"></rect>
            </g>
        </g>
    </g>
</svg>