<?xml version="1.0" encoding="UTF-8"?>
<svg width="95px" height="95px" viewBox="0 0 95 95" version="1.1" xmlns="http://www.w3.org/2000/svg" xmlns:xlink="http://www.w3.org/1999/xlink">
    <!-- Generator: Sketch 53.2 (72643) - https://sketchapp.com -->
    <title>goal_2_target_2_2</title>
    <desc>Created with Sketch.</desc>
    <g id="goal_2_target_2_2" stroke="none" stroke-width="1" fill="none" fill-rule="evenodd">
        <g id="Group-10" fill-rule="nonzero">
            <rect id="Rectangle" fill="#DDA63A" x="9.23705556e-14" y="-2.13162821e-14" width="94.8" height="94.8"></rect>
            <g id="Group" transform="translate(6.700000, 8.000000)" fill="#FFFFFF">
                <g transform="translate(24.000000, 0.000000)" id="Path">
                    <path d="M10.2,31.4 L10.2,32.4 L10.2,32.4 L10.2,32.4 C10.2,32.6 10.4,32.8 10.7,32.8 L22.2,32.8 C22.4,32.8 22.6,32.6 22.7,32.3 L22.7,32.3 L22.7,31.2 C29.2,29.1 31.5,23.8 32.6,17.4 L32.6,17.4 C32.6,17.4 32.6,17.4 32.6,17.3 C32.6,17.1 32.4,16.9 32.1,16.8 L0.5,16.8 C0.3,16.8 0,17 0,17.2 C0,17.2 0,17.2 0,17.2 L0,17.4 C1.2,24.1 3.6,29.4 10.2,31.4"></path>
                    <path d="M22.7,1.3 C22.5,1.5 19,6.6 22.8,10.7 C24.5,12.6 24.4,14.3 23.9,15.4 L26.3,15.4 C26.9,13.3 26.2,11 24.6,9.5 C21.8,6.5 24.6,2.3 24.7,2.3 C25,1.9 24.9,1.3 24.4,1 C24.4,1 24.3,0.9 24.3,0.9 C23.7,0.7 23.1,0.9 22.7,1.3"></path>
                    <path d="M16.6,15.4 L19,15.4 C19.6,13.3 18.9,11 17.3,9.5 C14.5,6.5 17.3,2.3 17.4,2.3 C17.7,1.9 17.5,1.3 17.1,1 C17.1,1 17,1 17,0.9 C16.5,0.6 15.8,0.8 15.4,1.2 C15.2,1.4 11.7,6.5 15.5,10.6 C17.2,12.7 17.1,14.3 16.6,15.4"></path>
                    <path d="M8.1,1.3 C7.9,1.5 4.4,6.6 8.2,10.7 C9.9,12.6 9.8,14.3 9.3,15.4 L11.7,15.4 C12.3,13.3 11.6,11 10,9.5 C7.2,6.5 10,2.3 10.1,2.3 C10.4,1.9 10.3,1.3 9.8,1 C9.8,1 9.7,0.9 9.7,0.9 C9.1,0.7 8.5,0.9 8.1,1.3"></path>
                </g>
                <g transform="translate(0.000000, 41.000000)" id="Path">
                    <path d="M10.5,6.5 C12.2,6.5 13.6,5.1 13.6,3.4 C13.6,1.7 12.2,0.3 10.5,0.3 C8.8,0.3 7.4,1.7 7.4,3.4 C7.4,3.4 7.4,3.4 7.4,3.4 C7.4,5.2 8.8,6.5 10.5,6.5 Z"></path>
                    <path d="M14.1,7.7 L13.9,7.7 L7.1,7.7 L6.9,7.7 C4.8,7.9 3.1,9.7 3.1,11.8 L3.1,20.4 C3.1,20.8 3.3,21.2 3.7,21.4 C3.7,21.4 3.7,21.5 3.6,21.6 L0.8,36.2 C0.7,36.5 0.9,36.8 1.2,36.8 L1.3,36.8 C1.6,36.8 1.8,36.6 1.8,36.4 L4.6,21.8 C4.6,21.7 4.6,21.7 4.6,21.6 C5.1,21.4 5.4,21 5.4,20.5 L5.4,13.1 C5.4,12.8 5.5,12.4 6,12.4 C6.5,12.4 6.4,12.8 6.4,13 L6.4,35.2 C6.5,36.2 7.3,36.9 8.3,36.8 C9.2,36.7 9.8,36.1 9.9,35.2 L9.9,22.4 C9.9,22.1 10.1,21.9 10.4,21.9 C10.7,21.9 10.9,22.1 10.9,22.4 L10.9,35.2 C11,36.2 11.8,36.9 12.8,36.8 C13.7,36.7 14.3,36.1 14.4,35.2 L14.4,13 C14.4,12.8 14.5,12.4 14.8,12.4 C15.3,12.4 15.4,12.8 15.4,13.1 L15.4,20.5 C15.4,21.2 15.9,21.7 16.6,21.7 C17.3,21.7 17.8,21.2 17.8,20.5 L17.8,11.9 C17.8,9.7 16.2,7.9 14.1,7.7 Z"></path>
                </g>
                <g transform="translate(31.000000, 42.000000)">
                    <path d="M9.4,6.2 C11.1,6.2 12.4,4.9 12.4,3.2 C12.4,1.5 11.1,0.2 9.4,0.2 C7.7,0.2 6.4,1.5 6.4,3.2 C6.4,4.9 7.8,6.2 9.4,6.2 Z" id="Path"></path>
                    <path d="M18,18.2 L15.5,10 C15.5,10 14.6,7.6 12.6,7.6 L6.2,7.6 C4.2,7.6 3.3,10 3.3,10 L0.8,18.2 C0.8,18.2 0.4,19.7 1.6,20.1 C2.8,20.5 3.2,19 3.2,19 L5.2,12.2 C5.2,12.2 5.3,11.7 5.7,11.8 C6.1,11.9 5.9,12.5 5.9,12.5 L2.4,25.3 L5.7,25.3 L5.7,34.5 C5.6,35.4 6.3,36.1 7.1,36.2 C8,36.3 8.7,35.6 8.8,34.8 C8.8,34.7 8.8,34.6 8.8,34.5 L8.8,25.4 L9.7,25.4 L9.7,34.6 C9.6,35.5 10.3,36.2 11.1,36.3 C12,36.4 12.7,35.7 12.8,34.9 C12.8,34.8 12.8,34.7 12.8,34.6 L12.8,25.4 L16.1,25.4 L12.6,12.6 C12.6,12.6 12.5,12 12.8,11.9 C13.1,11.8 13.3,12.3 13.3,12.3 L15.3,19.1 C15.3,19.1 15.7,20.6 17,20.2 C18.3,19.8 18,18.2 18,18.2 Z M13,19.9 C13,21.9 11.4,23.5 9.4,23.5 C7.4,23.5 5.8,21.9 5.8,19.9 C5.8,17.9 7.4,16.3 9.4,16.3 C9.4,16.3 9.4,16.3 9.4,16.3 C11.4,16.3 13,17.9 13,19.9 Z" id="Shape"></path>
                    <path d="M10.6,18.1 C10,18.1 9.6,18.8 9.4,19.1 C9.1,18.8 8.9,18.1 8.2,18.1 C7.5,18.1 7,18.7 7,19.5 C7,19.9 7.2,20.2 7.4,20.5 L9.4,22.5 L11.4,20.5 L11.4,20.5 C11.7,20.2 11.8,19.9 11.8,19.5 C11.8,18.7 11.4,18.1 10.6,18.1 Z" id="Path"></path>
                </g>
                <g transform="translate(18.000000, 56.000000)" id="Path">
                    <path d="M6.9,5.5 C8.3,5.5 9.5,4.3 9.5,2.9 C9.5,1.5 8.3,0.3 6.9,0.3 C5.5,0.3 4.3,1.5 4.3,2.9 C4.3,4.3 5.4,5.5 6.9,5.5 L6.9,5.5 Z"></path>
                    <path d="M13.1,13.1 C13.1,13 12.3,11.1 12.1,10.5 C10.5,6.4 10.3,6.5 8.8,6.4 L4.8,6.4 C3.4,6.4 3.1,6.4 1.5,10.5 C1.3,11.1 0.3,13.3 0.3,13.5 C0.3,13.7 -0.1,14.5 0.8,14.8 C1.7,15.1 1.9,14.1 1.9,14.1 L3.5,10.1 C3.5,10.1 3.5,10 3.6,10 C3.7,10 3.7,10.1 3.7,10.1 L3.7,20.4 L3.7,20.4 C3.6,21.1 4.2,21.8 4.9,21.9 C5.6,22 6.3,21.4 6.4,20.7 C6.4,20.6 6.4,20.5 6.4,20.5 L6.4,16.4 C6.4,16.4 6.4,15.8 6.8,15.8 C7.2,15.8 7.2,16.4 7.2,16.4 L7.2,20.5 C7.2,21.2 7.7,21.9 8.5,21.9 C8.5,21.9 8.6,21.9 8.6,21.9 C9.3,21.9 9.9,21.3 9.9,20.6 C9.9,20.6 9.9,20.6 9.9,20.5 L9.9,20.5 L9.9,10.2 C9.9,10.1 9.9,10.1 9.9,10.1 C9.9,10.1 10,10.2 10,10.2 L11.5,13.8 C11.5,13.8 11.9,14.8 12.7,14.4 C13.2,14.1 13.3,13.6 13.1,13.1 Z"></path>
                </g>
                <g transform="translate(50.000000, 47.000000)" id="Path">
                    <path d="M2.7,8.9 L0.5,15.8 C0.5,15.8 0.1,17.1 1.2,17.4 C2.3,17.7 2.6,16.5 2.6,16.5 L4.3,10.7 C4.3,10.7 4.4,10.3 4.7,10.4 C5,10.5 5,11 5,11 L2,21.9 L4.8,21.9 L4.8,29.7 C4.8,30.5 5.4,31.1 6.2,31.1 C7,31.1 7.6,30.5 7.6,29.7 L7.6,21.9 L8.4,21.9 L8.4,29.7 C8.4,30.5 9,31.1 9.8,31.1 C10.6,31.1 11.2,30.5 11.2,29.7 L11.2,21.9 L14,21.9 L10.8,11 C10.8,11 10.7,10.5 11,10.4 C11.3,10.3 11.4,10.7 11.4,10.7 L13.2,16.5 C13.2,16.5 13.5,17.7 14.6,17.4 C15.7,17.1 15.3,15.8 15.3,15.8 L13.2,9 C13.2,9 12.4,7 10.7,7 L5.2,7 C3.4,7 2.7,9 2.7,8.9"></path>
                    <g transform="translate(3.000000, 0.000000)">
                        <path d="M2.5,0.7 C2.5,0.3 2,-0.2 1.2,0.3 C0.1,0.8 0.3,2.4 0.3,2.4 C0.3,2.4 0.3,2.6 0.4,2.6 C0.5,2.4 0.7,2 1.6,1.8 C1.8,1.8 1.9,1.7 2,1.7 C2.1,1.4 2.3,1.2 2.5,1 C2.5,0.8 2.5,0.8 2.5,0.7 Z"></path>
                        <path d="M8.8,0.3 C7.9,-0.1 7.5,0.4 7.5,0.7 C7.5,0.8 7.5,0.8 7.5,0.9 C7.7,1.1 7.8,1.3 8,1.6 C8.2,1.7 8.3,1.8 8.5,1.8 C9.4,1.9 9.6,2.3 9.7,2.6 C9.7,2.7 9.7,2.6 9.8,2.4 C9.9,2.2 9.9,0.8 8.8,0.3 Z"></path>
                        <path d="M5,0.3 C3.3,0.3 2,1.6 2,3.3 C2,5 3.3,6.3 5,6.3 C6.7,6.3 8,5 8,3.3 C8,1.7 6.7,0.3 5.1,0.3 C5.1,0.3 5,0.3 5,0.3 Z"></path>
                    </g>
                </g>
                <g transform="translate(67.000000, 45.000000)" id="Path">
                    <path d="M13.6,12.6 L13.6,18.7 C13.6,19.3 13.1,19.7 12.6,19.7 C12,19.7 11.6,19.2 11.6,18.7 L11.6,12.4 C11.6,12.2 11.5,11.8 11.1,11.8 C10.7,11.8 10.7,12.1 10.7,12.3 L10.7,31.3 C10.7,32.1 10,32.8 9.2,32.8 C8.4,32.8 7.7,32.1 7.7,31.3 L7.7,20.3 C7.7,20.1 7.6,19.9 7.3,19.9 C7.3,19.9 7.3,19.9 7.2,19.9 L7.2,19.9 C7,19.9 6.8,20.1 6.8,20.3 C6.8,20.3 6.8,20.3 6.8,20.4 L6.8,31.4 C6.8,32.2 6.1,32.9 5.3,32.9 C4.5,32.9 3.8,32.2 3.8,31.4 L3.8,12.4 C3.8,12.2 3.7,11.9 3.4,11.9 C3.1,11.9 2.9,12.2 2.9,12.5 L2.9,18.8 C2.9,19.4 2.4,19.8 1.9,19.8 C1.3,19.8 0.9,19.3 0.9,18.8 L0.9,11.4 C0.9,9.6 2.3,8 4.1,7.8 L10.3,7.8 C12.1,8 13.5,9.5 13.5,11.4 L13.6,12.6 L13.6,12.6 Z"></path>
                    <g transform="translate(4.000000, 0.000000)">
                        <path d="M5,3.9 C4.8,3.7 4.6,3.5 4.2,3.7 C3.8,3.9 3.9,3.9 3.6,4 C3.1,4.2 2.5,4.4 1.9,4.5 C1.5,4.6 1,4.6 0.6,4.6 C0.8,6.1 2.1,7.1 3.5,7 C4.7,6.9 5.7,5.9 5.9,4.7 C5.6,4.4 5.3,4.1 5,3.9 Z"></path>
                        <path d="M1.8,3.9 C2.3,3.8 2.8,3.6 3.3,3.4 C3.7,3.2 4.1,3.1 4.1,3.1 C4.3,3 4.5,3 4.7,3 C4.8,3 4.9,3.1 4.9,3.2 L5.1,3.4 C5.1,3.4 5.2,3.5 5.8,4 C6,4 6,4 6.1,4 C6.2,4 6.2,3.5 6.2,3.3 C6.1,2.6 5.8,2 5.4,1.5 C5.3,1.3 5.1,1.2 4.8,1.2 C4.4,1.3 4.5,1 4.2,0.9 C3.4,0.6 2.5,0.8 1.9,1.3 C1.1,1.9 0.5,2.8 0.2,3.7 C5.55111512e-17,3.9 0.3,4 0.6,4 C1,4 1.4,4 1.8,3.9 Z"></path>
                    </g>
                </g>
            </g>
        </g>
    </g>
</svg>