<?xml version="1.0" encoding="UTF-8"?>
<svg width="95px" height="95px" viewBox="0 0 95 95" version="1.1" xmlns="http://www.w3.org/2000/svg" xmlns:xlink="http://www.w3.org/1999/xlink">
    <!-- Generator: Sketch 53.2 (72643) - https://sketchapp.com -->
    <title>goal_17_target_17_18</title>
    <desc>Created with Sketch.</desc>
    <g id="goal_17_target_17_18" stroke="none" stroke-width="1" fill="none" fill-rule="evenodd">
        <g id="Group-160" fill-rule="nonzero">
            <rect id="Rectangle" fill="#19486A" x="1.45661261e-12" y="-2.13162821e-14" width="94.8" height="94.8"></rect>
            <path d="M47.6,7.5 C25.4,7.4 7.4,25.3 7.3,47.5 C7.2,69.7 25.1,87.7 47.3,87.8 C69.5,87.9 87.5,70 87.6,47.8 C87.7,25.7 69.8,7.6 47.6,7.5 Z M42.6,8.6 C37.6,10.8 33.3,16.4 30.3,24 C30,24 29.8,24 29.5,24 C27.8,24 26.2,25 25.6,26.7 C22.4,25.9 19.3,24.9 16.3,23.7 C22.7,15.3 32.2,9.9 42.6,8.6 Z M23.7,47.8 C23.8,49.2 24.9,50.3 26.2,50.4 C26.3,54.8 26.9,59.3 27.9,63.6 C27.3,63.9 26.8,64.3 26.4,64.9 L9.1,47.8 L23.7,47.8 Z M9.2,47 L26.2,30.8 C26.6,31.4 27.2,31.8 27.9,32.1 C27,36.3 26.4,40.5 26.3,44.8 C25.1,44.9 24.1,45.9 23.8,47.1 L9.2,47.1 L9.2,47 Z M27,50.4 C28.3,50.2 29.3,49.1 29.4,47.8 L41.6,47.8 C41.6,49 42,50.1 42.8,51.1 L31.1,63.9 C30.6,63.6 29.9,63.4 29.3,63.4 C29.1,63.4 28.8,63.4 28.6,63.5 C27.7,59.1 27.1,54.8 27,50.4 Z M41.6,47.1 L29.4,47.1 C29.2,45.9 28.2,45 27,44.8 C27.2,40.6 27.7,36.4 28.6,32.3 C28.9,32.4 29.2,32.4 29.4,32.4 C30.2,32.4 30.9,32.2 31.6,31.8 L43.7,43.2 C42.5,44.2 41.8,45.6 41.6,47.1 Z M15.8,24.3 C18.9,25.6 22.1,26.6 25.3,27.4 C25.2,27.6 25.2,27.9 25.2,28.2 C25.2,28.9 25.4,29.5 25.7,30.1 L8.1,46.9 C8.3,38.8 11,30.9 15.8,24.3 Z M8.1,47.9 L26,65.7 C25.9,66 25.8,66.4 25.8,66.8 C25.8,67 25.8,67.1 25.8,67.3 C22.3,68.2 18.8,69.4 15.5,70.8 C10.8,64.1 8.1,56.1 8.1,47.9 Z M16.1,71.4 C19.3,70 22.7,68.9 26.1,68 C26.6,69.3 27.9,70.2 29.3,70.2 C29.5,70.2 29.6,70.2 29.8,70.2 C32.7,78.3 37.1,84.3 42.3,86.7 C31.9,85.3 22.4,79.8 16.1,71.4 L16.1,71.4 Z M46.9,87 C40.1,86.7 34.1,80.1 30.5,70 C31,69.8 31.5,69.4 31.9,69 L44.5,76.6 C44.6,78 45.6,79.1 47,79.3 L46.9,87 Z M46.9,73.7 C45.7,73.9 44.8,74.7 44.5,75.8 L32.3,68.4 C32.6,67.9 32.7,67.4 32.7,66.8 C32.7,66.7 32.7,66.6 32.7,66.6 C37.4,65.8 42.2,65.4 46.9,65.4 L46.9,73.7 Z M46.9,64.5 C42.1,64.5 37.3,64.9 32.5,65.7 C32.3,65.2 32.1,64.7 31.7,64.3 L43.3,51.7 C44.3,52.7 45.6,53.3 47,53.4 L46.9,64.5 Z M47,41.9 C46,41.9 45.1,42.2 44.3,42.8 L32.3,31.3 C33,30.7 33.4,29.9 33.6,29 C38.1,29.7 42.6,30.1 47.1,30.1 L47,41.9 Z M47,29.3 C42.5,29.3 38.1,28.9 33.7,28.2 L33.7,28.2 C33.7,27.4 33.5,26.7 33.1,26 L44.7,18.7 C45,19.9 46,20.7 47.2,20.8 L47,29.3 Z M47,15.1 C45.6,15.2 44.5,16.4 44.4,17.8 L32.4,25.4 C32,24.9 31.4,24.5 30.9,24.3 C34.7,14.8 40.6,8.6 47.2,8.3 L47,15.1 Z M86.8,46.6 L68.4,29.4 C68.5,29 68.6,28.7 68.6,28.3 C68.6,28.1 68.6,28 68.6,27.8 C72.2,27 75.8,26 79.3,24.6 C83.9,31.1 86.5,38.7 86.8,46.6 Z M67.9,44.8 C66.7,45 65.7,45.9 65.5,47.1 L53.1,47.1 C53,46 52.6,45 51.9,44.2 L64,31 C64.5,31.3 65,31.4 65.5,31.4 C65.7,31.4 65.9,31.4 66.1,31.3 C67.2,35.8 67.8,40.3 67.9,44.8 Z M66.9,31.1 C67.4,30.9 67.8,30.5 68.1,30.1 L86.2,47.1 L71.2,47.1 C71,45.9 70,44.9 68.7,44.8 C68.6,40.2 67.9,35.6 66.9,31.1 L66.9,31.1 Z M53.1,47.9 L65.5,47.9 C65.6,49.2 66.6,50.3 67.9,50.5 C67.7,54.6 67.2,58.7 66.3,62.8 C66.2,62.8 66.1,62.8 66.1,62.8 C65.3,62.8 64.5,63 63.9,63.5 L51.9,51.2 C52.7,50.2 53.1,49.1 53.1,47.9 Z M68.7,50.5 C70,50.4 71.1,49.3 71.2,47.9 L86.2,47.9 L69.7,64.9 C69.1,63.9 68.2,63.2 67.1,62.9 C68,58.8 68.5,54.7 68.7,50.5 Z M78.8,24 C75.4,25.3 71.9,26.3 68.4,27.1 C67.9,26 66.8,25.2 65.6,25.2 C65.5,25.2 65.4,25.2 65.2,25.2 C62.3,17.1 57.8,11.1 52.6,8.7 C63,10.1 72.5,15.6 78.8,24 Z M48,8.4 C54.8,8.7 60.8,15.4 64.4,25.5 C63.9,25.7 63.5,26 63.2,26.4 L50.4,18 C50.3,16.7 49.4,15.5 48,15.3 L48,8.4 Z M48,20.8 C49.1,20.6 50,19.8 50.3,18.7 L62.7,27 C62.5,27.4 62.4,27.8 62.4,28.2 C57.6,28.9 52.8,29.3 47.9,29.3 L48,20.8 Z M48,30.1 C52.8,30.1 57.7,29.7 62.5,29 C62.6,29.6 62.9,30.2 63.4,30.6 L51.5,43.6 C50.5,42.6 49.3,42.1 47.9,41.9 L48,30.1 Z M47.9,53.4 C49.3,53.3 50.5,52.7 51.5,51.7 L63.3,63.8 C62.7,64.3 62.3,65 62.1,65.8 C57.4,64.9 52.6,64.5 47.9,64.4 L47.9,53.4 Z M47.9,65.3 C52.6,65.4 57.3,65.8 61.9,66.7 C61.9,66.8 61.9,66.9 61.9,66.9 C61.9,67.4 62,68 62.2,68.5 L50.1,75.8 C49.8,74.7 48.8,73.8 47.7,73.7 L47.9,65.3 Z M47.8,79.3 C49.2,79.1 50.2,78 50.3,76.6 L62.7,69.2 C63.1,69.8 63.6,70.2 64.2,70.5 C60.4,80.3 54.4,86.7 47.7,87 L47.8,79.3 Z M52.4,86.6 C57.5,84.3 61.9,78.6 64.9,70.8 C65.3,70.9 65.8,71 66.2,71 C67.9,71 69.4,70 70.1,68.5 C73,69.3 75.9,70.4 78.7,71.6 C72.3,79.9 62.8,85.3 52.3,86.6 L52.4,86.6 Z M70.2,67.8 C70.3,67.5 70.3,67.2 70.3,66.9 C70.3,66.5 70.2,66 70.1,65.6 L86.8,48.5 C86.6,56.6 83.9,64.5 79.1,71 C76.2,69.8 73.2,68.7 70.2,67.8 Z" id="Shape" fill="#FFFFFF"></path>
        </g>
    </g>
</svg>