<?xml version="1.0" encoding="UTF-8"?>
<svg width="95px" height="95px" viewBox="0 0 95 95" version="1.1" xmlns="http://www.w3.org/2000/svg" xmlns:xlink="http://www.w3.org/1999/xlink">
    <!-- Generator: Sketch 53.2 (72643) - https://sketchapp.com -->
    <title>goal_3_target_3_b</title>
    <desc>Created with Sketch.</desc>
    <g id="goal_3_target_3_b" stroke="none" stroke-width="1" fill="none" fill-rule="evenodd">
        <rect id="Rectangle" fill="#4C9F38" fill-rule="nonzero" x="0" y="0" width="94.8" height="94.8"></rect>
        <g id="Group" transform="translate(11.700000, 12.000000)" fill="#FFFFFF" fill-rule="nonzero">
            <path d="M12.7,11.3 C12.7,12.1 13.4,12.8 14.2,12.8 L50.4,12.8 C51.2,12.8 51.9,12.1 51.9,11.3 L51.9,8.7 L54.5,8.7 C54.8,8.7 55.1,8.5 55.1,8.2 C55.1,8.2 55.1,8.2 55.1,8.2 L55.1,6.9 L62.4,6.9 C62.5,6.9 62.7,6.8 62.7,6.7 C62.7,6.6 62.6,6.4 62.5,6.4 C62.5,6.4 62.5,6.4 62.5,6.4 L55.2,6.4 L55.2,5 C55.2,4.7 55,4.5 54.6,4.5 L54.6,4.5 L51.9,4.5 L51.9,1.9 C51.9,1.5 51.7,1.2 51.5,0.9 C51.2,0.6 50.8,0.5 50.4,0.5 L14.2,0.5 C13.4,0.5 12.7,1.2 12.7,2 L12.7,2 L12.7,4.9 L6.1,4.9 L6.1,1.4 C6.1,1.1 5.9,0.9 5.6,0.9 C5.6,0.9 5.6,0.9 5.6,0.9 L4.9,0.9 C4.6,0.9 4.3,1.1 4.3,1.4 C4.3,1.4 4.3,1.4 4.3,1.4 L4.3,11.9 C4.3,12.2 4.5,12.4 4.8,12.4 L5.5,12.4 C5.8,12.4 6.1,12.2 6.1,11.9 C6.1,11.9 6.1,11.9 6.1,11.9 L6.1,8.2 L12.7,8.2 L12.7,11.3 Z M45.5,2 C45.5,1.7 45.7,1.5 46,1.5 C46,1.5 46,1.5 46,1.5 C46.3,1.5 46.5,1.7 46.5,2 C46.5,2 46.5,2 46.5,2 L46.5,5 C46.5,5.3 46.3,5.5 46,5.5 L46,5.5 C45.7,5.5 45.5,5.3 45.5,5 C45.5,5 45.5,5 45.5,5 L45.5,2 Z M40.7,2 C40.7,1.7 40.9,1.5 41.2,1.5 C41.5,1.5 41.7,1.7 41.7,2 L41.7,5 C41.7,5.3 41.5,5.5 41.2,5.5 C40.9,5.5 40.7,5.3 40.7,5 L40.7,5 L40.7,2 Z M35.7,2 C35.7,1.7 35.9,1.5 36.2,1.5 C36.2,1.5 36.2,1.5 36.2,1.5 C36.5,1.5 36.7,1.7 36.7,2 L36.7,2 L36.7,5 C36.7,5.3 36.5,5.5 36.2,5.5 L36.2,5.5 C35.9,5.5 35.7,5.3 35.7,5 C35.7,5 35.7,5 35.7,5 L35.7,2 Z M30.7,2 C30.7,1.7 30.9,1.5 31.2,1.5 C31.5,1.5 31.7,1.7 31.7,2 L31.7,5 C31.7,5.3 31.5,5.5 31.2,5.5 C30.9,5.5 30.7,5.3 30.7,5 L30.7,2 Z M25.7,2 C25.7,1.7 25.9,1.5 26.2,1.5 C26.5,1.5 26.7,1.7 26.7,2 L26.7,5 C26.7,5.3 26.5,5.5 26.3,5.5 C26.3,5.5 26.3,5.5 26.3,5.5 C26,5.5 25.8,5.3 25.8,5 C25.8,5 25.8,5 25.8,5 L25.7,2 Z M13.4,1.9 C13.4,1.7 13.5,1.5 13.6,1.4 C13.7,1.3 13.9,1.2 14.1,1.2 L21.4,1.2 C21.4,3.1 21.4,10.4 21.4,12.1 L14.2,12.1 C13.8,12.1 13.5,11.8 13.5,11.4 C13.5,11.4 13.5,11.4 13.5,11.4 L13.4,1.9 Z" id="Shape"></path>
            <g transform="translate(58.000000, 24.000000)" id="Path">
                <path d="M12.5,5 L1.1,10 C2.7,13 6.5,14.2 9.5,12.6 C12.3,11.2 13.5,7.9 12.5,5 Z"></path>
                <path d="M4.1,1.3 C1.1,2.6 -0.4,6 0.7,9.1 L12.1,4.1 C10.6,1.2 7.1,0 4.1,1.3 Z"></path>
            </g>
            <g transform="translate(45.000000, 35.000000)" id="Path">
                <path d="M2.6,11.6 C5.1,13.6 8.8,13.4 11,11 L1.3,3.2 C-0.5,5.9 5.55111512e-17,9.5 2.6,11.6 Z"></path>
                <path d="M10.4,1.9 C7.9,-0.2 4.2,0.1 1.9,2.5 L11.6,10.3 C13.5,7.6 13,3.9 10.4,1.9 Z"></path>
            </g>
            <g transform="translate(58.000000, 41.000000)" id="Path">
                <path d="M10.9,1.8 L3.1,11.5 C6,13.4 9.8,12.7 11.8,9.8 C13.5,7.3 13.1,3.9 10.9,1.8 Z"></path>
                <path d="M1.8,2.4 C-0.3,4.9 5.55111512e-17,8.6 2.4,10.9 L10.2,1.2 C7.5,-0.6 3.8,-0.1 1.8,2.4 Z"></path>
            </g>
            <g transform="translate(0.000000, 24.000000)" id="Path">
                <polygon points="0.6 38.7 2.9 46.5 5.1 38.7"></polygon>
                <path d="M5.1,3 C5.2,1.8 4.3,0.7 3,0.6 C1.7,0.5 0.7,1.4 0.6,2.7 C0.6,2.8 0.6,2.9 0.6,3 L0.6,37.6 L5,37.6 L5,3 L5.1,3 Z"></path>
            </g>
            <g transform="translate(9.000000, 25.000000)">
                <path d="M12.5,2.9 L23.8,2.9 C24.3,2.9 24.6,2.5 24.6,2.1 L24.6,1.1 C24.6,0.6 24.2,0.3 23.8,0.3 L12.5,0.3 C12,0.3 11.7,0.7 11.7,1.1 L11.7,2.1 C11.6,2.5 12,2.9 12.5,2.9 Z" id="Path"></path>
                <path d="M35.3,41.6 L22.3,19.5 L22.3,2.9 L21.3,2.9 L21.3,19.8 L25.4,26.8 C24.3,28.2 20.5,32.7 17.8,33.2 C14.6,33.8 9.4,32.6 7.8,32.1 L15,19.8 L15,2.9 L14,2.9 L14,19.5 L1,41.6 C0.6,42.3 0.6,43.3 1,44 C1.4,44.8 2.2,45.2 3.1,45.2 L33.2,45.2 C34.5,45.2 35.6,44.1 35.6,42.8 C35.6,42.4 35.5,42 35.3,41.6 Z M26,33.3 C26.7,33.3 27.3,33.9 27.3,34.7 C27.3,35.5 26.7,36 26,36 C25.3,36 24.7,35.4 24.7,34.6 C24.7,34.6 24.7,34.6 24.7,34.6 C24.6,33.9 25.2,33.3 26,33.3 C26,33.3 26,33.3 26,33.3 Z M22.4,36.9 C23.6,36.9 24.6,37.9 24.6,39.1 C24.6,40.3 23.6,41.3 22.4,41.3 C21.2,41.3 20.2,40.3 20.2,39.1 L20.2,39.1 C20.2,37.9 21.2,36.9 22.4,36.9 L22.4,36.9 Z" id="Shape"></path>
            </g>
        </g>
    </g>
</svg>