<?xml version="1.0" encoding="UTF-8"?>
<svg width="95px" height="95px" viewBox="0 0 95 95" version="1.1" xmlns="http://www.w3.org/2000/svg" xmlns:xlink="http://www.w3.org/1999/xlink">
    <!-- Generator: Sketch 53.2 (72643) - https://sketchapp.com -->
    <title>goal_17_target_17_16</title>
    <desc>Created with Sketch.</desc>
    <g id="goal_17_target_17_16" stroke="none" stroke-width="1" fill="none" fill-rule="evenodd">
        <g id="Group-158" fill-rule="nonzero">
            <rect id="Rectangle" fill="#19486A" x="1.45661261e-12" y="-2.13162821e-14" width="94.8" height="94.8"></rect>
            <g id="Group" transform="translate(4.700000, 13.000000)" fill="#FFFFFF">
                <path d="M0.3,70.8 C0.3,70.8 26.3,55.8 27.6,54.6 C29.8,52.3 33,51.2 36.2,51.7 C40.6,52.4 43.2,52.8 45.4,53.1 C47.6,53.4 49.1,53.1 49.2,53.9 C49.4,54.9 48.2,55.9 46.4,56.1 C44.6,56.3 41.5,56 40.9,56 C40.3,56 39.8,56.2 40,56.7 C40.2,57.2 43.7,57.4 44.8,57.3 C47.3,57.1 49.6,56.4 51.9,55.4 C53.8,54.4 57.5,51.7 58.1,51.5 C58.7,51.3 59.9,50.7 60.3,51.3 C60.7,51.9 59.9,52.8 59.2,53.5 C56,56.2 52.6,58.8 49,61 C45.9,62.7 45.1,63 41.9,62.7 C38.7,62.4 36,61.4 34.4,61.6 C32.5,61.9 30.7,62.6 29.2,63.8 C28.5,64.3 15.4,76.5 15.4,76.5 L0.3,76.5 L0.3,70.8 Z" id="Path"></path>
                <path d="M65.2,20.4 C65.2,13.9 60.1,8.6 53.6,8.4 C51.4,2.1 44.6,-1.2 38.3,1 C34.8,2.2 32.1,4.9 30.9,8.4 C24.3,8.6 19.1,14.1 19.3,20.8 C19.4,24.4 21.1,27.7 23.9,29.9 C23.6,31 23.4,32.1 23.4,33.2 C23.4,39.8 28.7,45.2 35.4,45.2 C37.8,45.2 40.2,44.5 42.2,43.1 C47.7,46.8 55.2,45.3 58.9,39.8 C60.2,37.8 60.9,35.5 60.9,33.1 C60.9,32 60.7,30.9 60.4,29.8 C63.5,27.6 65.2,24.1 65.2,20.4 M51.9,12.4 C51.9,17.2 48.4,21.2 43.7,21.9 C43.6,21.4 43.6,20.9 43.6,20.4 C43.6,15.6 47.1,11.6 51.8,10.9 C51.8,11.4 51.9,11.9 51.9,12.4 M42.4,40 C38.6,36.3 38.5,30.3 42.2,26.5 C42.2,26.4 42.3,26.4 42.4,26.3 C46.2,30 46.3,36.1 42.6,39.9 C42.4,39.9 42.4,40 42.4,40 M32.8,10.9 C37.5,11.6 41,15.6 41,20.4 C41,20.9 41,21.4 40.9,21.9 C36.2,21.2 32.7,17.2 32.7,12.4 C32.7,11.9 32.7,11.4 32.8,10.9 M40,24.7 C37.6,29.4 31.9,31.4 27.2,29 C27.1,29 27.1,28.9 27,28.9 C28.6,25.7 31.9,23.6 35.6,23.6 C37.1,23.6 38.6,24 40,24.7 M44.6,24.6 C46,23.9 47.5,23.5 49,23.5 C52.7,23.5 56,25.6 57.6,28.9 C52.9,31.3 47.2,29.5 44.7,24.9 C44.7,24.8 44.6,24.7 44.6,24.6 M42.3,2.8 C46.1,2.8 49.6,5.1 51.1,8.6 C47.2,9.3 44,11.8 42.3,15.4 C40.6,11.8 37.4,9.3 33.5,8.6 C35,5.1 38.5,2.8 42.3,2.8 M21.8,20.4 C21.8,15.5 25.5,11.4 30.4,10.9 C30.3,11.4 30.3,11.9 30.3,12.4 C30.3,15.8 31.7,19 34.2,21.3 C30.3,21.8 26.9,24.1 25,27.6 C23,25.7 21.8,23.1 21.8,20.4 M26,33.2 C26,32.5 26.1,31.9 26.2,31.2 C29.7,32.9 33.8,32.8 37.2,30.9 C37.1,31.6 37,32.4 37,33.1 C37,36.2 38.2,39.2 40.4,41.5 C38.9,42.4 37.3,42.8 35.6,42.8 C30.3,42.8 26,38.5 26,33.2 M58.7,33.1 C58.7,38.4 54.4,42.7 49.1,42.7 C47.4,42.7 45.8,42.3 44.3,41.4 C46.4,39.2 47.6,36.2 47.6,33.1 C47.6,32.3 47.5,31.6 47.4,30.8 C49.2,31.8 51.2,32.3 53.2,32.3 C55,32.3 56.8,31.9 58.4,31.1 C58.6,31.8 58.6,32.5 58.7,33.1 M50.5,21.2 C53,18.9 54.4,15.7 54.3,12.4 C54.3,11.9 54.3,11.4 54.2,10.9 C59.5,11.5 63.3,16.2 62.7,21.4 C62.5,23.7 61.3,25.9 59.6,27.5 C57.8,24 54.4,21.7 50.5,21.2" id="Shape"></path>
            </g>
        </g>
    </g>
</svg>