<?xml version="1.0" encoding="UTF-8"?>
<svg width="95px" height="95px" viewBox="0 0 95 95" version="1.1" xmlns="http://www.w3.org/2000/svg" xmlns:xlink="http://www.w3.org/1999/xlink">
    <!-- Generator: Sketch 53.2 (72643) - https://sketchapp.com -->
    <title>goal_14_target_14_b</title>
    <desc>Created with Sketch.</desc>
    <g id="goal_14_target_14_b" stroke="none" stroke-width="1" fill="none" fill-rule="evenodd">
        <g id="Group-118" fill-rule="nonzero">
            <rect id="Rectangle" fill="#0A97D9" x="-3.62376795e-13" y="-2.13162821e-14" width="94.8" height="94.8"></rect>
            <g id="Group" transform="translate(7.700000, 11.000000)" fill="#FFFFFF">
                <path d="M39.8,68.2 C39.4,67.6 36.8,64.3 33.1,64.3 C29.9,64.3 26.5,67.2 26.5,67.2 C25.7,65.7 24.3,64.6 22.6,64.3 L22.5,64.3 C22.4,64.3 22.4,64.4 22.4,64.4 C22.4,64.4 22.4,64.5 22.4,64.5 C23.1,65.6 23.5,66.9 23.6,68.3 C23.5,69.6 23.1,70.9 22.4,72 L22.4,72 C22.4,72 22.4,72 22.4,72.1 C22.4,72.2 22.4,72.2 22.5,72.2 L22.5,72.2 C24.2,71.9 25.6,70.8 26.4,69.3 C26.4,69.3 29.8,72.2 33,72.2 C36.7,72.2 39.4,68.8 39.8,68.2 L39.8,68.2 L39.8,68.2 L39.8,68.2 Z M35.1,68.7 C34.5,68.7 34,68.2 34,67.6 C34,67 34.5,66.5 35.1,66.5 C35.7,66.5 36.2,67 36.2,67.6 C36.2,68.2 35.7,68.7 35.1,68.7 Z" id="Shape"></path>
                <g>
                    <path d="M20,68.2 C19.6,67.6 17,64.3 13.3,64.3 C10.1,64.3 6.7,67.2 6.7,67.2 C5.9,65.7 4.5,64.6 2.8,64.3 L2.7,64.3 C2.6,64.3 2.6,64.4 2.6,64.4 C2.6,64.4 2.6,64.5 2.6,64.5 C3.3,65.6 3.7,66.9 3.8,68.3 C3.7,69.6 3.3,70.9 2.6,72.1 L2.6,72.1 C2.6,72.1 2.6,72.1 2.6,72.2 C2.6,72.3 2.6,72.3 2.7,72.3 L2.8,72.3 C4.5,72 5.9,70.9 6.7,69.4 C6.7,69.4 10.1,72.3 13.3,72.3 C17,72.3 19.6,69 20,68.4 L20,68.4 C20,68.3 20,68.3 20,68.2 C20,68.2 20,68.2 20,68.2 Z M15.3,68.7 C14.7,68.7 14.2,68.2 14.2,67.6 C14.2,67 14.7,66.5 15.3,66.5 C15.9,66.5 16.4,67 16.4,67.6 C16.4,68.2 15.9,68.7 15.3,68.7 C15.3,68.7 15.3,68.7 15.3,68.7 L15.3,68.7 Z" id="Shape"></path>
                    <path d="M59.2,68.2 C58.8,67.6 56.2,64.3 52.5,64.3 C49.3,64.3 45.9,67.2 45.9,67.2 C45.1,65.7 43.7,64.6 42,64.3 L41.9,64.3 C41.8,64.3 41.8,64.4 41.8,64.4 C41.8,64.4 41.8,64.5 41.8,64.5 C42.5,65.6 42.9,66.9 43,68.3 C42.9,69.6 42.5,70.9 41.8,72.1 L41.8,72.1 C41.8,72.1 41.8,72.1 41.8,72.2 C41.8,72.3 41.8,72.3 41.9,72.3 L42,72.3 C43.7,72 45.1,70.9 45.9,69.4 C45.9,69.4 49.3,72.3 52.5,72.3 C56.2,72.3 58.8,69 59.2,68.4 L59.2,68.4 C59.2,68.3 59.2,68.3 59.2,68.2 C59.2,68.2 59.2,68.2 59.2,68.2 Z M54.5,68.7 C53.9,68.7 53.4,68.2 53.4,67.6 C53.4,67 53.9,66.5 54.5,66.5 C55.1,66.5 55.6,67 55.6,67.6 L55.6,67.6 C55.6,68.2 55.1,68.7 54.5,68.7 Z" id="Shape"></path>
                    <path d="M78.8,68.2 C78.4,67.6 75.8,64.3 72.1,64.3 C68.9,64.3 65.5,67.2 65.5,67.2 C64.7,65.7 63.3,64.6 61.6,64.3 L61.5,64.3 C61.4,64.3 61.4,64.4 61.4,64.4 C61.4,64.4 61.4,64.5 61.4,64.5 C62.1,65.6 62.5,66.9 62.6,68.3 C62.5,69.6 62.1,70.9 61.4,72.1 L61.4,72.1 C61.4,72.1 61.4,72.1 61.4,72.2 C61.4,72.3 61.4,72.3 61.5,72.3 L61.5,72.3 C63.2,72 64.6,70.9 65.4,69.4 C65.4,69.4 68.8,72.3 72,72.3 C75.7,72.3 78.3,69 78.7,68.4 L78.7,68.4 C78.8,68.3 78.8,68.3 78.8,68.2 L78.8,68.2 Z M74.2,68.7 C73.6,68.7 73.1,68.2 73.1,67.6 C73.1,67 73.6,66.5 74.2,66.5 C74.8,66.5 75.3,67 75.3,67.6 C75.2,68.2 74.8,68.7 74.2,68.7 C74.2,68.7 74.2,68.7 74.2,68.7 Z" id="Shape"></path>
                    <g>
                        <path d="M65.2,40.5 C64.1,40.5 63.2,41.4 63.2,42.5 C63.2,43.6 64.1,44.5 65.2,44.5 C66.3,44.5 67.2,43.6 67.2,42.5 C67.2,41.4 66.3,40.5 65.2,40.5 Z" id="Path"></path>
                        <path d="M35.2,25.2 L35.2,38.8 L52,38.8 L53.1,35.7 L72.5,35.7 L72.5,33.5 L59.5,33.5 L61.3,25.3 L35.2,25.2 Z M49.5,33.2 L44.2,33.2 L44.2,26.8 L49.5,26.8 L49.5,33.2 Z M57.3,33.2 L50.7,33.2 L50.7,26.8 L58.6,26.8 L57.3,33.2 Z" id="Shape"></path>
                        <rect id="Rectangle" x="35.2" y="21.8" width="23.6" height="2.5"></rect>
                        <path d="M53.9,36.7 L52.7,40.1 L34.5,40.1 L34.5,14.5 L35.6,14.5 L35.6,13.6 L34.5,13.6 L34.5,0.7 L33.8,0.7 L33.8,13.5 L32.6,13.5 L32.6,14.4 L33.4,14.4 C23.2,19.8 6.4,17.4 1.3,16.1 L1.2,16.1 L1,16.7 L1,16.7 L1,16.7 L1,16.7 L1,16.7 L1,18.5 L0.9,18.5 L0.9,19.4 L1,19.4 L1,20 C0.8,20.3 0.6,20.6 0.6,21 C0.6,21.3 0.7,21.5 0.8,21.7 C0.9,21.8 1.1,21.9 1.2,21.9 L1.2,21.9 C1.6,21.9 1.9,21.5 1.8,21.2 C1.8,21.2 1.8,21.2 1.8,21.2 L1.8,21 L1.5,21 L1.5,21.2 C1.5,21.4 1.4,21.6 1.2,21.6 L1.2,21.6 C1.1,21.6 1.1,21.6 1,21.5 C0.9,21.4 0.9,21.2 0.9,21 C1,20.7 1.1,20.4 1.3,20.2 L1.3,20.2 L1.3,19.5 L1.4,19.5 L1.4,18.6 L1.3,18.6 L1.3,17.6 L1.9,18 L15.9,37.7 C15.9,37.9 15.8,38.2 15.8,38.4 L15.8,38.4 L10,38.4 L12.1,51.4 C15.1,51 17.9,49.6 20,47.5 C20.1,47.4 20.1,47.4 20.2,47.3 C20.3,47.3 20.3,47.3 20.4,47.3 L20.5,47.3 C20.6,47.3 20.7,47.4 20.7,47.5 C22.7,49 32,55.3 40.2,47.6 L40.3,47.5 C40.4,47.4 40.5,47.4 40.6,47.4 C40.7,47.4 40.8,47.5 40.9,47.5 L41,47.6 C49.3,55.3 58.5,49 60.5,47.5 C60.6,47.4 60.6,47.4 60.7,47.3 L60.8,47.3 C60.9,47.3 60.9,47.3 61,47.3 L61.2,47.5 C63.2,49.5 65.7,50.8 68.5,51.3 L75.8,36.6 L53.9,36.7 Z M16.2,37 L4.2,20.2 L18.1,35.1 C17.2,35.5 16.6,36.2 16.2,37 Z M26.8,40.1 L25.5,40.1 L25.2,38.5 L23,38.5 L23,38.5 C23,36.6 21.5,35 19.6,34.9 L19.6,31.1 L20.7,31.1 L20.7,30.4 L17.7,30.4 L17.7,31.1 L18.8,31.1 L18.8,35 L18.7,35 L1.7,16.7 C7.3,18 23.4,20.2 33.5,14.9 L33.3,17 L29.9,40.1 L26.8,40.1 Z M33.8,40.1 L30.2,40.1 L33.8,15.9 L33.8,40.1 Z M65.2,45.5 C63.5,45.5 62.2,44.2 62.2,42.5 C62.2,40.8 63.5,39.5 65.2,39.5 C66.9,39.5 68.2,40.8 68.2,42.5 C68.2,44.2 66.9,45.5 65.2,45.5 Z" id="Shape"></path>
                    </g>
                    <path d="M79,53.5 C79,53.3 78.8,53.1 78.6,53.1 L78.5,53.1 L78.3,53.2 C72.8,56.2 66.1,55.3 61.6,50.9 L61.4,50.7 C61.3,50.7 61.3,50.7 61.2,50.7 L61,50.7 C60.9,50.7 60.8,50.8 60.8,50.9 C58.8,52.5 49.5,58.7 41.3,51 L41.1,51 C41,50.9 40.9,50.9 40.8,50.9 C40.7,50.9 40.6,51 40.5,51 L40.4,51 C32.2,58.7 22.9,52.4 20.9,50.9 C20.8,50.8 20.8,50.8 20.7,50.7 L20.6,50.7 C20.5,50.7 20.5,50.7 20.4,50.7 C20.4,50.8 20.3,50.9 20.2,51 C15.8,55.3 9,56.3 3.6,53.3 L3.4,53.2 L3,53.2 C2.8,53.2 2.6,53.4 2.6,53.6 C2.6,53.6 2.6,53.6 2.6,53.7 L2.6,56.9 C2.6,57 2.6,57.1 2.7,57.2 C10.5,64 17.9,57.6 19.7,55.9 C19.7,55.8 19.8,55.8 19.8,55.8 C19.9,55.7 20,55.7 20,55.7 C20.1,55.7 20.2,55.7 20.3,55.8 L20.3,55.8 C29.1,64.2 38.4,57.4 40.3,55.8 L40.5,55.6 C40.6,55.6 40.6,55.6 40.7,55.6 C40.8,55.6 40.8,55.6 40.9,55.6 L41.1,55.8 C43,57.4 52.3,64.2 61.1,55.8 L61.1,55.8 C61.2,55.7 61.3,55.7 61.4,55.7 C61.5,55.7 61.6,55.7 61.6,55.8 C61.7,55.8 61.7,55.9 61.7,55.9 C63.4,57.6 70.8,64 78.7,57.2 C78.8,57.1 78.8,57 78.8,56.9 L79,53.5 C79,53.6 79,53.6 79,53.5 Z" id="Path"></path>
                </g>
            </g>
        </g>
    </g>
</svg>