<?xml version="1.0" encoding="UTF-8"?>
<svg width="95px" height="95px" viewBox="0 0 95 95" version="1.1" xmlns="http://www.w3.org/2000/svg" xmlns:xlink="http://www.w3.org/1999/xlink">
    <!-- Generator: Sketch 53.2 (72643) - https://sketchapp.com -->
    <title>goal_14_target_14_4</title>
    <desc>Created with Sketch.</desc>
    <g id="goal_14_target_14_4" stroke="none" stroke-width="1" fill="none" fill-rule="evenodd">
        <g id="Group-113" fill-rule="nonzero">
            <rect id="Rectangle" fill="#0A97D9" x="-3.62376795e-13" y="-2.13162821e-14" width="94.8" height="94.8"></rect>
            <path d="M47,18.7 C47.3,19.1 49.2,21.5 51.8,21.5 C54.1,21.5 56.5,19.4 56.5,19.4 C57.1,20.5 58.1,21.2 59.3,21.4 L59.3,21.4 C59.4,21.4 59.4,21.4 59.4,21.3 L59.4,21.3 C58.9,20.5 58.6,19.6 58.5,18.6 C58.6,17.6 58.9,16.7 59.4,15.9 L59.4,15.8 C59.4,15.7 59.4,15.7 59.3,15.7 L59.3,15.7 C58.1,15.9 57.1,16.6 56.5,17.7 C56.5,17.7 54.1,15.6 51.8,15.6 C49.2,15.9 47.3,18.3 47,18.7 Z M50.3,17.5 C50.7,17.5 51.1,17.8 51.1,18.3 C51.1,18.3 51.1,18.3 51.1,18.3 C51.1,18.7 50.8,19.1 50.4,19.1 C50.4,19.1 50.3,19.1 50.3,19.1 C49.9,19.1 49.5,18.8 49.5,18.3 C49.5,18.3 49.5,18.3 49.5,18.3 L49.5,18.3 C49.5,17.9 49.9,17.5 50.3,17.5 C50.3,17.5 50.3,17.5 50.3,17.5 Z" id="Shape" fill="#FFFFFF"></path>
            <path d="M29.9,57.1 L29.9,57.1 C29.5,56.5 26.7,53 22.9,53 C19.5,53 16,56 16,56 C16,56 14.6,53.2 11.9,53 L11.8,53 C11.7,53 11.7,53 11.7,53.1 L11.7,53.2 C12.4,54.4 12.9,55.8 13,57.2 C12.9,58.6 12.5,60 11.7,61.2 L11.7,61.2 L11.7,61.3 C11.7,61.4 11.7,61.4 11.8,61.4 L11.9,61.4 C14.7,61.2 16,58.4 16,58.4 C16,58.4 19.6,61.4 22.9,61.4 C26.7,61.2 29.5,57.7 29.9,57.1 Z M25,55.2 C25.6,55.2 26.1,55.7 26.1,56.3 C26.1,56.9 25.6,57.4 25,57.4 C24.4,57.4 23.9,56.9 23.9,56.3 L23.9,56.3 L23.9,56.3 C23.9,55.7 24.4,55.2 25,55.2 Z" id="Shape" fill="#FFFFFF"></path>
            <path d="M65.1,78.6 C64,77.1 57,68.2 47.2,68.2 C38.7,68.2 29.6,75.9 29.6,75.9 C29.6,75.9 26.2,68.9 19.2,68.2 L19,68.2 C18.8,68.2 18.7,68.3 18.7,68.5 C18.7,68.6 18.8,68.7 18.8,68.8 C19.7,70.3 22,74.6 22,78.8 C22,83 19.7,87.3 18.8,88.8 L18.7,88.9 L18.7,89 C18.7,89.2 18.8,89.3 19,89.3 L19,89.3 C26,88.7 29.5,81.6 29.5,81.6 C29.5,81.6 38.6,89.3 47.1,89.3 C56.9,89.3 63.9,80.4 65,78.9 L65.1,78.8 C65.1,78.8 65.1,78.6 65.1,78.6 Z M52.6,79.9 C51,79.9 49.7,78.6 49.7,77 C49.7,75.4 51,74.1 52.6,74.1 C54.2,74.1 55.5,75.4 55.5,77 C55.5,78.6 54.3,79.9 52.7,79.9 C52.7,79.9 52.7,79.9 52.6,79.9 Z" id="Shape" fill="#FFFFFF"></path>
            <path d="M85.7,64.7 C84.8,64.1 84.2,63.1 84.1,62 C84.1,60.6 85.2,59.6 85.8,58.9 C86,58.7 86.1,58.7 86,58.5 C85.9,58.3 85.6,58.4 85.6,58.4 C83.7,58.8 81.8,59.4 80,60.2 C75.4,58.2 70.5,57.4 65.5,57.7 C57.9,58.2 54.5,61.4 53.9,62.1 L53.9,62.1 L53.9,62.2 C53.9,62.3 53.9,62.3 54,62.4 L54.1,62.5 C55.5,64.1 59.8,66.3 65.2,66.3 C71,66.3 80.2,63.3 80.2,63.3 C81.8,64.3 83.7,64.9 85.6,65 L85.9,65 C86,65 86.1,64.9 86.1,64.8 L86.1,64.7 L85.7,64.7 Z M58.8,62.6 C58.2,62.6 57.7,62.1 57.7,61.5 C57.7,60.9 58.2,60.4 58.8,60.4 C59.4,60.4 59.9,60.9 59.9,61.5 L59.9,61.5 L59.9,61.5 C59.9,62.1 59.4,62.6 58.8,62.6 L58.8,62.6 Z" id="Shape" fill="#FFFFFF"></path>
            <path d="M21.7,31.9 C21.4,32.6 21,33.3 20.6,33.9 C21.9,33.6 23.1,33.1 24.2,32.4 C24.2,32.4 32.8,33.6 35.5,33.9 C35.5,33.9 34.5,37.1 34.2,37.8 C36.1,36.9 37.8,35.7 39.3,34.2 C39.3,34.2 49.2,32.1 51.3,30.1 C51.5,29.9 51.5,29.5 51.3,29.3 C51.3,29.2 51.2,29.2 51.1,29.2 C51,29.2 40.7,25.1 39.2,24.6 C37.7,24.1 33,18.9 31.7,18.4 L33.4,23.7 C33.4,23.7 33.3,24.2 33,24.3 C32.7,24.4 16.6,28.1 16.6,28.1 C16.6,28.1 9.4,23.1 8.9,22.9 C8.9,22.9 8.5,22.9 8.7,23.2 C8.9,23.5 11.8,28.2 11.9,29 C11.7,30.5 11.3,32.1 10.7,33.5 C10.7,33.5 10.5,33.7 11,33.6 C11.5,33.5 16.4,30.4 16.4,30.4 C16.4,30.4 20,31.5 21.7,31.9 Z M43.1,27.1 C43.7,27.1 44.1,27.5 44.1,28.1 C44.1,28.7 43.7,29.1 43.1,29.1 C42.5,29.1 42.1,28.7 42.1,28.1 C42.1,27.5 42.5,27.1 43.1,27.1 C43.1,27.1 43.1,27.1 43.1,27.1 L43.1,27.1 Z" id="Shape" fill="#FFFFFF"></path>
            <path d="M54.8,40.7 C54.8,40.7 50.1,36.9 44.9,38.7 L44.8,38.7 C44.8,38.8 44.7,38.9 44.7,39 C44.7,39.1 44.8,39.1 44.9,39.1 C46,39.9 49.1,42.1 50.4,45.1 C51.7,48.1 51.6,51.9 51.5,53.2 L51.5,53.4 C51.6,53.5 51.7,53.5 51.8,53.5 L51.9,53.5 C56.6,50.7 56.7,44.6 56.7,44.6 C56.7,44.6 65.7,47 71.7,44.2 C78.6,41 80.6,32.4 80.9,31 L80.9,30.9 L80.9,30.9 L80.9,5.8 L80,5.8 L80,30.4 C77.6,29.2 70.8,26.5 64.7,29.4 C58.6,32.3 54.8,40.7 54.8,40.7 Z M70.5,31.9 C71.6,31.4 73,31.9 73.5,33 C74,34.1 73.5,35.5 72.4,36 C71.3,36.5 69.9,36 69.4,34.9 C69.4,34.9 69.4,34.9 69.4,34.9 C68.9,33.8 69.4,32.4 70.5,31.9 Z" id="Shape" fill="#FFFFFF"></path>
        </g>
    </g>
</svg>