<?xml version="1.0" encoding="UTF-8"?>
<svg width="95px" height="95px" viewBox="0 0 95 95" version="1.1" xmlns="http://www.w3.org/2000/svg" xmlns:xlink="http://www.w3.org/1999/xlink">
    <!-- Generator: Sketch 53.2 (72643) - https://sketchapp.com -->
    <title>goal_6_target_6_5</title>
    <desc>Created with Sketch.</desc>
    <g id="goal_6_target_6_5" stroke="none" stroke-width="1" fill="none" fill-rule="evenodd">
        <g id="Group-44" fill-rule="nonzero">
            <rect id="Rectangle" fill="#26BDE2" x="-3.62376795e-13" y="-2.13162821e-14" width="94.8" height="94.8"></rect>
            <g id="Group" transform="translate(6.700000, 8.000000)" fill="#FFFFFF">
                <path d="M16.2,32.8 C16.2,31.9 15.5,31.3 14.6,31.3 C13.7,31.3 13.1,32 13.1,32.9 C13.1,33.8 13.8,34.4 14.7,34.4 C15.6,34.4 16.2,33.7 16.2,32.8 L16.2,32.8 Z" id="Path"></path>
                <path d="M12.9,35 C11.9,35.1 11,36 11,37 L11,41.3 C11,41.6 11.3,41.9 11.6,41.9 C11.9,41.9 12.2,41.6 12.2,41.3 L12.2,37.6 C12.2,37.5 12.2,37.3 12.5,37.3 C12.8,37.3 12.7,37.5 12.7,37.6 L12.7,48.6 C12.7,49.1 13.1,49.5 13.6,49.5 C14.1,49.5 14.5,49.1 14.5,48.6 C14.5,48.6 14.5,48.6 14.5,48.6 L14.5,42.3 C14.5,42.2 14.6,42.1 14.7,42.1 C14.7,42.1 14.7,42.1 14.7,42.1 L14.7,42.1 C14.8,42.1 14.9,42.2 14.9,42.3 C14.9,42.3 14.9,42.3 14.9,42.3 L14.9,48.7 C14.9,49.2 15.3,49.6 15.8,49.6 C16.3,49.6 16.7,49.2 16.7,48.7 L16.7,37.7 C16.7,37.6 16.7,37.4 16.9,37.4 C17.1,37.4 17.2,37.6 17.2,37.7 L17.2,41.4 C17.2,41.7 17.5,42 17.8,42 C17.8,42 17.8,42 17.8,42 C18.1,42 18.4,41.7 18.4,41.4 C18.4,41.4 18.4,41.4 18.4,41.4 L18.4,37 C18.4,36 17.6,35.1 16.5,35 L12.9,35 Z" id="Path"></path>
                <path d="M6.7,33.1 C6.7,32.3 6,31.6 5.2,31.6 C4.4,31.6 3.7,32.3 3.7,33.1 C3.7,33.9 4.4,34.6 5.2,34.6 C5.2,34.6 5.2,34.6 5.2,34.6 C6,34.6 6.7,33.9 6.7,33.1 Z" id="Path"></path>
                <path d="M2.1,41 L3.1,37.6 C3.1,37.6 3.2,37.3 3.3,37.4 C3.4,37.5 3.4,37.7 3.4,37.7 L1.6,44.1 L3.2,44.1 L3.2,48.7 C3.2,49.1 3.6,49.5 4.1,49.4 C4.5,49.4 4.8,49.1 4.8,48.7 L4.8,44.1 L5.2,44.1 L5.2,48.7 C5.2,49.1 5.6,49.5 6,49.5 C6.4,49.5 6.8,49.1 6.8,48.7 L6.8,44.1 L8.4,44.1 L6.6,37.7 C6.6,37.7 6.5,37.4 6.7,37.4 C6.9,37.4 7,37.6 7,37.6 L8,41 C8,41 8.2,41.7 8.8,41.5 C9.4,41.3 9.2,40.6 9.2,40.6 L7.9,36.5 C7.9,36.5 7.4,35.3 6.4,35.3 L3.2,35.3 C2.2,35.3 1.8,36.5 1.8,36.5 L0.5,40.6 C0.5,40.6 0.3,41.4 0.9,41.5 C1.5,41.6 2.1,41 2.1,41 Z" id="Path"></path>
                <path d="M45.9,14.6 L45.9,17.8 C45.9,17.9 45.9,17.9 46,17.9 C46,17.9 46,17.9 46,17.9 L47.4,17.9 C47.5,17.9 47.5,17.9 47.5,17.8 L47.5,17.8 L47.5,14.5 L47.5,14.5 C49.8,14 51.4,12 51.3,9.6 C51.3,7.1 49.6,3.2 47.5,2.2 C47.3,2.1 47,2 46.7,2 L46.5,2 C44.6,2 43,4.4 42.2,6.8 C42.1,7 42.1,7.1 42,7.3 C41.8,8.1 41.6,8.9 41.6,9.7 C41.7,12.2 43.5,14.3 45.9,14.6 Z" id="Path"></path>
                <path d="M32.4,14.6 L35.9,14.6 L35.9,17.8 C35.9,17.8 35.9,17.9 35.9,17.9 C35.9,17.9 36,17.9 36,17.9 L37.5,17.9 C37.6,17.9 37.6,17.9 37.6,17.8 L37.6,17.8 L37.6,14.5 L41.1,14.5 C41.2,14.5 41.3,14.4 41.3,14.3 L41.3,14.3 C41.3,14.3 41.3,14.2 41.3,14.2 L37,0.3 L37,0.3 C37,0.2 36.9,0.2 36.8,0.2 C36.7,0.2 36.6,0.2 36.6,0.3 L36.5,0.4 L32.2,14.3 C32.1,14.4 32.2,14.6 32.3,14.6 C32.3,14.6 32.3,14.6 32.4,14.6 Z" id="Path"></path>
                <path d="M76.4,35.3 C76.4,35.3 77.5,34.7 77.5,34 C77.4,33.3 77,32.6 76.5,32.1 C76.5,32.1 75.5,33.2 75.5,34 C75.5,34.8 76.2,35.1 76.4,35.3 Z" id="Path"></path>
                <path d="M74.8,36.5 C74.8,36.5 75.1,36.8 76.3,37 C76.3,37 76.4,35.8 76,35.3 C75.5,34.8 74.9,34.3 74.2,34 C74.1,34.1 74,35.9 74.8,36.5 Z" id="Path"></path>
                <path d="M74.6,39 C74.6,39 74.9,39.4 76.2,39.6 C76.3,39 76.2,38.3 75.9,37.8 C75.4,37.2 74.7,36.8 74,36.4 C74,36.4 73.8,38.4 74.6,39 Z" id="Path"></path>
                <path d="M74,39 C74,39 73.7,41.2 74.6,41.8 C75.1,42.2 75.7,42.4 76.3,42.4 C76.3,42.4 76.5,41.1 76,40.5 C76,40.5 75.7,40 74,39 Z" id="Path"></path>
                <path d="M74.4,44.5 C74.9,44.9 75.5,45.1 76.2,45.1 C76.2,45.1 76.4,43.6 75.9,43.1 C75.3,42.5 74.5,42 73.7,41.6 C73.7,41.6 73.6,43.9 74.4,44.5 Z" id="Path"></path>
                <path d="M77,35.3 C76.5,35.8 76.7,37 76.7,37 C77.9,36.8 78.2,36.5 78.2,36.5 C79,35.9 78.8,34.1 78.8,34.1 C78.1,34.4 77.5,34.8 77,35.3 Z" id="Path"></path>
                <path d="M79,36.4 C78.3,36.7 77.6,37.2 77,37.8 C76.7,38.4 76.6,39 76.7,39.6 C78,39.4 78.3,39 78.3,39 C79.1,38.4 79,36.4 79,36.4 Z" id="Path"></path>
                <path d="M77,40.5 C76.5,41 76.7,42.4 76.7,42.4 C77.3,42.4 77.9,42.2 78.4,41.8 C79.2,41.1 79,39 79,39 C77.2,40 77,40.5 77,40.5 Z" id="Path"></path>
                <path d="M79.2,41.6 C78.4,42 77.6,42.5 77,43.1 C76.5,43.6 76.7,45.1 76.7,45.1 C77.3,45.1 78,44.8 78.5,44.5 C79.3,43.9 79.2,41.6 79.2,41.6 Z" id="Path"></path>
                <rect id="Rectangle" x="76.2" y="45.5" width="1" height="5"></rect>
                <path d="M74.4,29.6 C74.3,29.6 74.2,29.7 74.2,29.8 C74.2,29.8 74.2,29.8 74.2,29.8 L74.2,33.7 L74.6,33.9 L74.6,29.7 C74.6,29.7 74.5,29.6 74.4,29.6 C74.4,29.6 74.4,29.6 74.4,29.6 Z" id="Path"></path>
                <path d="M75.4,29.2 C75.4,29.1 75.4,29 75.2,29 C75.1,29 75,29 75,29.2 C75,29.2 75,29.3 75,29.3 L75,33.9 L75,33.9 C75.1,33.6 75.2,33.2 75.4,32.9 L75.4,29.2 Z" id="Path"></path>
                <path d="M76,28 C75.9,28 75.8,28.1 75.8,28.2 L75.8,32.2 L76.2,31.7 L76.2,28.2 C76.2,28.1 76.1,28 76,28 Z" id="Path"></path>
                <path d="M78.6,29.6 C78.5,29.6 78.4,29.7 78.4,29.8 C78.4,29.8 78.4,29.8 78.4,29.8 L78.4,34 L78.8,33.8 L78.8,29.8 C78.8,29.7 78.7,29.6 78.6,29.6 L78.6,29.6 Z" id="Path"></path>
                <path d="M78,29.2 C78,29.1 77.9,29 77.8,29 C77.7,29 77.6,29.1 77.6,29.2 L77.6,32.9 C77.8,33.2 77.9,33.6 78,33.9 L78,33.9 L78,29.2 Z" id="Path"></path>
                <path d="M76.9,28 C76.8,28 76.7,28.1 76.7,28.2 L76.7,31.7 L77.1,32.2 L77.1,28.2 C77.1,28.1 77.1,28 76.9,28 C76.9,28 76.9,28 76.9,28 Z" id="Path"></path>
                <path d="M69,35.3 C69,35.3 70,34.7 70,34 C69.9,33.3 69.5,32.6 69,32.1 C69,32.1 68,33.2 68,34 C68,34.8 68.7,35.1 69,35.3 Z" id="Path"></path>
                <path d="M67.2,36.5 C67.2,36.5 67.5,36.8 68.7,37 C68.7,37 68.8,35.8 68.4,35.3 C67.9,34.8 67.3,34.3 66.6,34 C66.6,34.1 66.4,35.9 67.2,36.5 Z" id="Path"></path>
                <path d="M67.1,39 C67.1,39 67.4,39.4 68.7,39.6 C68.7,39.6 68.9,38.3 68.4,37.8 C67.8,37.2 67.2,36.8 66.5,36.4 C66.5,36.4 66.3,38.4 67.1,39 Z" id="Path"></path>
                <path d="M66.5,39 C66.5,39 66.2,41.2 67.1,41.8 C67.6,42.2 68.2,42.4 68.8,42.4 C68.8,42.4 69,41.1 68.5,40.5 C68.5,40.5 68.2,40 66.5,39 Z" id="Path"></path>
                <path d="M66.9,44.5 C67.4,44.9 68,45.1 68.7,45.1 C68.7,45.1 68.9,43.6 68.4,43.1 C67.8,42.5 67,42 66.2,41.6 C66.2,41.6 66.1,43.9 66.9,44.5 Z" id="Path"></path>
                <path d="M69.5,35.3 C69,35.8 69.2,37 69.2,37 C70.4,36.8 70.7,36.5 70.7,36.5 C71.5,35.9 71.3,34.1 71.3,34.1 C70.6,34.4 70,34.8 69.5,35.3 Z" id="Path"></path>
                <path d="M71.4,36.4 C70.7,36.7 70,37.2 69.5,37.8 C69,38.3 69.1,39.6 69.1,39.6 C70.4,39.4 70.7,39 70.7,39 C71.6,38.4 71.4,36.4 71.4,36.4 Z" id="Path"></path>
                <path d="M69.5,40.5 C69,41 69.2,42.4 69.2,42.4 C69.8,42.4 70.4,42.2 70.9,41.8 C71.8,41.2 71.5,39 71.5,39 C69.7,40 69.5,40.5 69.5,40.5 Z" id="Path"></path>
                <path d="M71.7,41.6 C70.9,42 70.1,42.5 69.5,43.1 C69,43.6 69.2,45.1 69.2,45.1 C69.9,45.1 70.5,44.8 71,44.4 C71.8,43.9 71.7,41.6 71.7,41.6 Z" id="Path"></path>
                <rect id="Rectangle" x="68.7" y="45.5" width="1" height="5"></rect>
                <path d="M66.9,29.6 C66.8,29.6 66.7,29.7 66.7,29.8 C66.7,29.8 66.7,29.8 66.7,29.8 L66.7,33.7 L67.1,33.9 L67.1,29.7 C67.1,29.7 67,29.6 66.9,29.6 C66.9,29.6 66.9,29.6 66.9,29.6 Z" id="Path"></path>
                <path d="M67.9,29.2 C67.9,29.1 67.9,29 67.7,29 C67.6,29 67.5,29 67.5,29.2 C67.5,29.2 67.5,29.3 67.5,29.3 L67.5,33.9 L67.5,33.9 C67.6,33.6 67.7,33.2 67.9,32.9 L67.9,29.2 Z" id="Path"></path>
                <path d="M68.5,28 C68.4,28 68.3,28.1 68.3,28.2 L68.3,32.2 L68.7,31.7 L68.7,28.2 C68.7,28.1 68.6,28 68.5,28 Z" id="Path"></path>
                <path d="M71.1,29.6 C71,29.6 70.9,29.7 70.9,29.8 C70.9,29.8 70.9,29.8 70.9,29.8 L70.9,34 L71.3,33.8 L71.3,29.8 C71.3,29.7 71.2,29.6 71.1,29.6 C71.1,29.6 71.1,29.6 71.1,29.6 Z" id="Path"></path>
                <path d="M70.4,29.2 C70.4,29.1 70.3,29 70.2,29 C70.1,29 70,29.1 70,29.2 L70,32.9 C70.2,33.2 70.3,33.6 70.4,33.9 L70.4,33.9 L70.4,29.2 Z" id="Path"></path>
                <path d="M69.4,28 C69.3,28 69.2,28.1 69.2,28.2 L69.2,31.7 L69.6,32.2 L69.6,28.2 C69.6,28.1 69.6,28 69.4,28 C69.4,28 69.4,28 69.4,28 Z" id="Path"></path>
                <polygon id="Path" points="58.3 26.7 57.2 26.7 57.2 50.6 26 50.6 26 26.7 24.8 26.7 24.8 51.7 58.3 51.7"></polygon>
                <path d="M27.8,38.5 L27.8,38.5 C33.9,44.1 40.1,39.5 41.5,38.4 L41.6,38.3 C41.6,38.3 41.7,38.3 41.7,38.3 C41.7,38.3 41.8,38.3 41.8,38.3 L41.9,38.4 C43.2,39.5 49.4,44.1 55.4,38.7 L55.6,38.5 C55.7,38.5 55.7,38.4 55.7,38.3 L55.7,35.3 C55.7,35.1 55.6,35 55.4,35 L55.3,35 L55.2,35.1 C53.4,36.4 47.4,40 42,35 L42,35 C41.9,34.9 41.7,34.9 41.6,35 C41.6,35 41.6,35 41.6,35 L41.5,35.1 C36.2,40 30.3,36.6 28.4,35.3 L28.3,35.2 C28.3,35.2 28.2,35.2 28.1,35.2 C28,35.2 27.8,35.3 27.8,35.4 L27.8,38.3 L27.8,38.3 L27.8,38.3 C27.8,38.4 27.8,38.4 27.8,38.5 Z" id="Path"></path>
                <path d="M27.8,45.2 L27.8,45.2 C33.9,50.8 40.1,46.2 41.5,45.1 L41.6,45 C41.6,45 41.7,45 41.7,45 C41.7,45 41.8,45 41.8,45 L41.9,45.1 C43.2,46.2 49.4,50.8 55.4,45.4 L55.6,45.2 C55.7,45.2 55.7,45.1 55.7,45 L55.7,42 C55.7,41.8 55.6,41.7 55.4,41.7 C55.4,41.7 55.3,41.7 55.3,41.7 L55.2,41.8 C53.4,43.1 47.4,46.7 42,41.7 L42,41.7 C41.9,41.6 41.7,41.6 41.6,41.7 C41.6,41.7 41.6,41.7 41.6,41.7 L41.5,41.8 C36.2,46.8 30.3,43.3 28.4,42 L28.3,41.9 C28.3,41.9 28.2,41.9 28.1,41.9 C28,41.9 27.8,42 27.8,42.1 L27.8,45 L27.8,45 L27.8,45 C27.7,45.1 27.8,45.2 27.8,45.2 Z" id="Path"></path>
                <path d="M28.3,32.4 C28.6,32.4 28.8,32.2 28.8,31.9 C28.8,31.6 28.6,31.4 28.3,31.4 C28,31.4 27.8,31.6 27.8,31.9 C27.8,31.9 27.8,31.9 27.8,31.9 C27.8,32.3 28,32.5 28.3,32.4 Z" id="Path"></path>
                <circle id="Oval" cx="30.4" cy="32" r="1"></circle>
                <circle id="Oval" cx="32.5" cy="32" r="1"></circle>
                <path d="M34.5,31.5 C34.2,31.5 34,31.7 34,32 C34,32.3 34.2,32.5 34.5,32.5 C34.8,32.5 35,32.3 35,32 C35,31.7 34.8,31.5 34.5,31.5 C34.5,31.5 34.5,31.5 34.5,31.5 Z" id="Path"></path>
                <path d="M36.6,31.5 C36.3,31.5 36.1,31.7 36.1,32 C36.1,32.3 36.3,32.5 36.6,32.5 C36.9,32.5 37.1,32.3 37.1,32 C37.1,31.7 36.9,31.5 36.6,31.5 C36.6,31.5 36.6,31.5 36.6,31.5 Z" id="Path"></path>
                <circle id="Oval" cx="38.7" cy="32" r="1"></circle>
                <path d="M40.8,31.5 C40.5,31.5 40.3,31.7 40.3,32 C40.3,32.3 40.5,32.5 40.8,32.5 C41.1,32.5 41.3,32.3 41.3,32 C41.3,31.7 41.1,31.5 40.8,31.5 C40.8,31.5 40.8,31.5 40.8,31.5 Z" id="Path"></path>
                <path d="M42.9,31.5 C42.6,31.5 42.4,31.7 42.4,32 C42.4,32.3 42.6,32.5 42.9,32.5 C43.2,32.5 43.4,32.3 43.4,32 C43.4,31.7 43.2,31.5 42.9,31.5 C42.9,31.5 42.9,31.5 42.9,31.5 Z" id="Path"></path>
                <path d="M45,31.5 C44.7,31.5 44.5,31.7 44.5,32 C44.5,32.3 44.7,32.5 45,32.5 C45.3,32.5 45.5,32.3 45.5,32 C45.5,31.7 45.3,31.5 45,31.5 C45,31.5 45,31.5 45,31.5 Z" id="Path"></path>
                <circle id="Oval" cx="47.1" cy="32" r="1"></circle>
                <circle id="Oval" cx="49.2" cy="32" r="1"></circle>
                <path d="M51.3,31.5 C51,31.5 50.8,31.7 50.8,32 C50.8,32.3 51,32.5 51.3,32.5 C51.6,32.5 51.8,32.3 51.8,32 C51.7,31.7 51.5,31.5 51.3,31.5 C51.3,31.5 51.3,31.5 51.3,31.5 Z" id="Path"></path>
                <path d="M53.4,32.4 C53.7,32.4 53.9,32.2 53.9,31.9 C53.9,31.6 53.7,31.4 53.4,31.4 C53.1,31.4 52.9,31.6 52.9,31.9 C52.9,31.9 52.9,31.9 52.9,31.9 C52.9,32.2 53.1,32.5 53.4,32.4 Z" id="Path"></path>
                <circle id="Oval" cx="55.4" cy="32" r="1"></circle>
                <path d="M29.4,30.8 C29.7,30.8 29.9,30.6 29.9,30.3 C29.9,30.3 29.9,30.3 29.9,30.3 C29.9,30 29.7,29.8 29.4,29.8 C29.1,29.8 28.9,30 28.9,30.3 C29,30.6 29.2,30.8 29.4,30.8 Z" id="Path"></path>
                <circle id="Oval" cx="31.5" cy="30.4" r="1"></circle>
                <path d="M33.1,30.4 C33.1,30.7 33.2,30.9 33.5,30.9 C33.8,30.9 34,30.8 34,30.5 C34,30.5 34,30.4 34,30.4 C34,30.1 33.7,30 33.5,30 C33.3,30 33.2,30.2 33.1,30.4 Z" id="Path"></path>
                <path d="M35.2,30.4 C35.2,30.7 35.3,30.9 35.6,30.9 C35.9,30.9 36.1,30.8 36.1,30.5 C36.1,30.5 36.1,30.4 36.1,30.4 C36.1,30.1 35.8,30 35.6,30 C35.4,30 35.3,30.2 35.2,30.4 Z" id="Path"></path>
                <path d="M37.3,30.4 C37.3,30.7 37.5,30.9 37.8,30.9 C38.1,30.9 38.3,30.7 38.3,30.4 C38.3,30.1 38.1,29.9 37.8,29.9 C37.5,29.9 37.3,30.1 37.3,30.4 Z" id="Path"></path>
                <circle id="Oval" cx="39.9" cy="30.4" r="1"></circle>
                <circle id="Oval" cx="42" cy="30.4" r="1"></circle>
                <path d="M43.6,30.4 C43.6,30.7 43.8,30.9 44.1,30.9 C44.4,30.9 44.6,30.7 44.6,30.4 C44.6,30.1 44.4,29.9 44.1,29.9 C43.8,29.9 43.6,30.1 43.6,30.4 Z" id="Path"></path>
                <path d="M45.7,30.4 C45.7,30.7 45.9,30.9 46.2,30.9 C46.5,30.9 46.7,30.7 46.7,30.4 C46.7,30.1 46.5,29.9 46.2,29.9 C45.9,29.9 45.7,30.1 45.7,30.4 Z" id="Path"></path>
                <circle id="Oval" cx="48.2" cy="30.4" r="1"></circle>
                <path d="M49.9,30.4 C49.9,30.7 50.1,30.9 50.4,30.9 C50.7,30.9 50.9,30.7 50.9,30.4 C50.9,30.1 50.7,29.9 50.4,29.9 C50.1,29.9 49.9,30.1 49.9,30.4 Z" id="Path"></path>
                <path d="M52.4,30.8 C52.7,30.8 52.9,30.6 52.9,30.3 C52.9,30.3 52.9,30.3 52.9,30.3 C52.9,30 52.7,29.8 52.4,29.8 C52.1,29.8 51.9,30 51.9,30.3 C52,30.6 52.2,30.8 52.4,30.8 Z" id="Path"></path>
                <circle id="Oval" cx="54.5" cy="30.4" r="1"></circle>
                <path d="M28.4,29.2 C28.7,29.2 28.9,29 28.9,28.7 C28.9,28.4 28.7,28.2 28.4,28.2 C28.1,28.2 27.9,28.4 27.9,28.7 C27.9,29 28.1,29.2 28.4,29.2 C28.4,29.2 28.4,29.2 28.4,29.2 Z" id="Path"></path>
                <path d="M30.5,29.2 C30.8,29.2 31,29 31,28.7 C31,28.4 30.8,28.2 30.5,28.2 C30.2,28.2 30,28.4 30,28.7 C30,29 30.2,29.2 30.5,29.2 C30.5,29.2 30.5,29.2 30.5,29.2 Z" id="Path"></path>
                <circle id="Oval" cx="32.6" cy="28.7" r="1"></circle>
                <path d="M34.7,28.3 C34.4,28.3 34.2,28.5 34.2,28.8 C34.2,29.1 34.4,29.3 34.7,29.3 C35,29.3 35.2,29.1 35.2,28.8 C35.1,28.5 34.9,28.3 34.7,28.3 C34.7,28.3 34.7,28.3 34.7,28.3 Z" id="Path"></path>
                <path d="M36.7,28.3 C36.4,28.3 36.2,28.5 36.2,28.8 C36.2,29.1 36.4,29.3 36.7,29.3 C37,29.3 37.2,29.1 37.2,28.8 C37.2,28.5 37,28.3 36.7,28.3 C36.7,28.3 36.7,28.3 36.7,28.3 Z" id="Path"></path>
                <circle id="Oval" cx="38.8" cy="28.7" r="1"></circle>
                <path d="M40.9,28.3 C40.6,28.3 40.4,28.5 40.4,28.8 C40.4,29.1 40.6,29.3 40.9,29.3 C41.2,29.3 41.4,29.1 41.4,28.8 C41.4,28.5 41.2,28.3 40.9,28.3 C40.9,28.3 40.9,28.3 40.9,28.3 Z" id="Path"></path>
                <path d="M43,28.3 C42.7,28.3 42.5,28.5 42.5,28.8 C42.5,29.1 42.7,29.3 43,29.3 C43.3,29.3 43.5,29.1 43.5,28.8 C43.5,28.5 43.3,28.3 43,28.3 C43,28.3 43,28.3 43,28.3 Z" id="Path"></path>
                <path d="M45.1,28.3 C44.8,28.3 44.6,28.5 44.6,28.8 C44.6,29.1 44.8,29.3 45.1,29.3 C45.4,29.3 45.6,29.1 45.6,28.8 C45.6,28.8 45.6,28.8 45.6,28.8 C45.6,28.5 45.4,28.3 45.1,28.3 Z" id="Path"></path>
                <circle id="Oval" cx="47.2" cy="28.7" r="1"></circle>
                <circle id="Oval" cx="49.3" cy="28.7" r="1"></circle>
                <circle id="Oval" cx="51.4" cy="28.7" r="1"></circle>
                <path d="M53.5,29.2 C53.8,29.2 54,29 54,28.7 C54,28.4 53.8,28.2 53.5,28.2 C53.2,28.2 53,28.4 53,28.7 C53,29 53.2,29.2 53.5,29.2 C53.5,29.2 53.5,29.2 53.5,29.2 Z" id="Path"></path>
                <path d="M55.6,29.2 C55.9,29.2 56.1,29 56.1,28.7 C56.1,28.4 55.9,28.2 55.6,28.2 C55.3,28.2 55.1,28.4 55.1,28.7 C55.1,29 55.3,29.2 55.6,29.2 L55.6,29.2 Z" id="Path"></path>
                <rect id="Rectangle" transform="translate(69.497495, 11.352575) rotate(-45.291703) translate(-69.497495, -11.352575) " x="54.2974438" y="10.7025728" width="30.4001024" height="1.30000438"></rect>
                <rect id="Rectangle" transform="translate(69.485975, 67.630325) rotate(-44.740708) translate(-69.485975, -67.630325) " x="68.8359746" y="52.4303151" width="1.30000084" height="30.4000198"></rect>
                <rect id="Rectangle" transform="translate(12.390565, 11.428155) rotate(-44.740708) translate(-12.390565, -11.428155) " x="11.7405646" y="-3.77185488" width="1.30000084" height="30.4000198"></rect>
                <rect id="Rectangle" transform="translate(12.391385, 67.555645) rotate(-45.291703) translate(-12.391385, -67.555645) " x="-2.80866622" y="66.9056428" width="30.4001024" height="1.30000438"></rect>
                <g transform="translate(27.000000, 62.000000)">
                    <path d="M26.8,2.7 L1.1,2.7 C1,2.7 0.8,2.8 0.8,3 L0.8,15.4 L2.2,15.4 L2.2,9.1 C2.2,9 2.3,8.9 2.4,8.9 L6.7,8.9 C6.8,8.9 6.9,9 6.9,9.1 L6.9,15.4 L26.7,15.4 C26.8,15.4 26.9,15.3 26.9,15.2 L26.9,3 C27,2.9 26.9,2.7 26.8,2.7 Z M7.1,7.1 C7.1,7.2 7,7.3 6.9,7.3 L2.6,7.3 C2.5,7.3 2.4,7.2 2.4,7.1 L2.4,4.8 C2.4,4.7 2.5,4.6 2.6,4.6 L6.9,4.6 C7,4.6 7.1,4.7 7.1,4.8 L7.1,7.1 Z M13.2,11.4 C13.2,11.5 13.1,11.6 13,11.6 L8.7,11.6 C8.6,11.6 8.5,11.5 8.5,11.4 L8.5,9.1 C8.5,9 8.6,8.9 8.7,8.9 L13,8.9 C13.1,8.9 13.2,9 13.2,9.1 L13.2,11.4 Z M13.2,7.1 C13.2,7.2 13.1,7.3 13,7.3 L8.7,7.3 C8.6,7.3 8.5,7.2 8.5,7.1 L8.5,4.8 C8.5,4.7 8.6,4.6 8.7,4.6 L13,4.6 C13.1,4.6 13.2,4.7 13.2,4.8 L13.2,7.1 Z M19.4,11.4 C19.4,11.5 19.3,11.6 19.2,11.6 L14.9,11.6 C14.8,11.6 14.7,11.5 14.7,11.4 L14.7,9.1 C14.7,9 14.8,8.9 14.9,8.9 L19.2,8.9 C19.3,8.9 19.4,9 19.4,9.1 L19.4,11.4 Z M19.4,7.1 C19.4,7.2 19.3,7.3 19.2,7.3 L14.9,7.3 C14.8,7.3 14.7,7.2 14.7,7.1 L14.7,4.8 C14.7,4.7 14.8,4.6 14.9,4.6 L19.2,4.6 C19.3,4.6 19.4,4.7 19.4,4.8 L19.4,7.1 Z M25.6,11.4 C25.6,11.5 25.5,11.6 25.4,11.6 L21.1,11.6 C21,11.6 20.9,11.5 20.9,11.4 L20.9,9.1 C20.9,9 21,8.9 21.1,8.9 L25.4,8.9 C25.5,8.9 25.6,9 25.6,9.1 L25.6,11.4 Z M25.6,7.1 C25.6,7.2 25.5,7.3 25.4,7.3 L21.1,7.3 C21,7.3 20.9,7.2 20.9,7.1 L20.9,4.8 C20.9,4.7 21,4.6 21.1,4.6 L25.4,4.6 C25.5,4.6 25.6,4.7 25.6,4.8 L25.6,7.1 Z" id="Shape"></path>
                    <path d="M1,0.9 L26.9,0.9 C27,0.9 27.1,1 27.1,1.1 L27.1,1.9 C27.1,2 27,2.1 26.9,2.1 L1,2.1 C0.9,2.1 0.8,2 0.8,1.9 L0.8,1 C0.9,0.9 0.9,0.9 1,0.9 Z" id="Path"></path>
                </g>
            </g>
        </g>
    </g>
</svg>