<?xml version="1.0" encoding="UTF-8"?>
<svg width="95px" height="95px" viewBox="0 0 95 95" version="1.1" xmlns="http://www.w3.org/2000/svg" xmlns:xlink="http://www.w3.org/1999/xlink">
    <!-- Generator: Sketch 53.2 (72643) - https://sketchapp.com -->
    <title>goal_8_target_8_2</title>
    <desc>Created with Sketch.</desc>
    <g id="goal_8_target_8_2" stroke="none" stroke-width="1" fill="none" fill-rule="evenodd">
        <g id="Group-54" fill-rule="nonzero">
            <rect id="Rectangle" fill="#A21942" x="-3.62376795e-13" y="-2.13162821e-14" width="94.8" height="94.8"></rect>
            <g id="Group" transform="translate(12.700000, 13.000000)" fill="#FFFFFF">
                <polygon id="Path" points="69.1 66.3 59.1 66.4 59.1 62.9 57.6 62.9 57.6 66.4 45 66.4 45 62.9 43.5 62.9 43.5 66.4 30.8 66.4 30.8 63 29.3 63 29.3 66.4 16.6 66.4 16.6 63 15.1 63 15.1 66.4 2.7 66.4 2.7 54.7 5.8 54.7 5.8 53.2 2.7 53.2 2.7 40.5 5.8 40.5 5.8 39 2.7 39 2.6 26.4 5.8 26.3 5.8 24.8 2.6 24.9 2.6 12.2 5.8 12.2 5.8 10.7 2.6 10.7 2.6 0.3 0.4 0.3 0.5 68.6 0.8 68.6 0.8 68.6 68.6 68.5 69.1 68.5"></polygon>
                <path d="M12.7,50.6 L28.5,34.7 C30.8,36.8 34.3,36.7 36.6,34.6 L45.1,42.7 L36,52 L27.3,43.2 L16.7,54 L19.2,56.4 L27.3,48.2 L36,57 L47.7,45.2 L54.8,52 L57.5,49.1 C59.3,50.1 61.6,49.5 62.7,47.7 C63.7,45.9 63.1,43.6 61.3,42.5 C59.5,41.4 57.2,42.1 56.1,43.9 C55.8,44.5 55.6,45.1 55.6,45.8 C55.6,46.4 55.8,47.1 56.1,47.6 L54.7,49.1 L49,43.7 L55.8,36.8 L56.1,37.2 L57.8,38.9 L57.9,39 C58,39.1 58.2,39.1 58.3,39 C58.3,39 58.4,38.9 58.4,38.8 L58.4,38.7 L59.4,31.1 L59.4,31 C59.4,30.9 59.4,30.8 59.3,30.8 C59.2,30.7 59.2,30.7 59.1,30.7 L59,30.7 L51.5,31.7 L51.5,31.7 C51.4,31.7 51.4,31.7 51.3,31.8 C51.2,31.9 51.2,32.1 51.3,32.2 L51.3,32.2 L51.3,32.2 L51.4,32.3 L53,34 L53.4,34.4 L46.5,41.4 L37.8,33.1 C38.3,32.2 38.5,31.2 38.5,30.2 C38.5,28.7 38,27.3 37,26.2 L40.3,22.8 L42.9,25.3 C42.7,25.8 42.6,26.3 42.6,26.8 C42.6,28.9 44.3,30.6 46.4,30.6 C48.5,30.6 50.2,28.9 50.2,26.8 C50.2,24.7 48.5,23 46.4,23 C46.4,23 46.4,23 46.4,23 C45.6,23 44.8,23.3 44.1,23.8 L41.6,21.4 L56.5,6.5 L57.2,7.2 L58.6,8.6 L58.7,8.6 C58.8,8.7 58.9,8.7 59,8.6 C59,8.6 59,8.6 59,8.6 C59,8.6 59.1,8.5 59.1,8.5 L59.1,8.4 L60,2 L60,2 C60,1.9 60,1.9 59.9,1.8 C59.9,1.8 59.8,1.7 59.7,1.7 L59.6,1.7 L53.3,2.5 L53.3,2.5 C53.2,2.5 53.2,2.5 53.1,2.6 C53,2.7 53,2.8 53.1,2.9 L53.1,2.9 L53.2,3 L54.6,4.4 L55.2,5 L35.5,24.8 C33.6,23.7 31.2,23.7 29.3,24.9 L26.8,22.5 C27.7,21 27.7,19.2 26.8,17.7 L30.1,14.3 L30.7,14.9 L32.1,16.3 L32.1,16.3 C32.2,16.4 32.3,16.4 32.4,16.3 C32.4,16.3 32.5,16.2 32.5,16.2 L32.5,16.2 L33.3,9.8 L33.3,9.7 C33.3,9.6 33.3,9.6 33.2,9.5 C33.2,9.5 33.1,9.4 33,9.4 L33,9.4 L26.7,10.2 L26.7,10.2 C26.6,10.2 26.6,10.2 26.5,10.3 C26.4,10.4 26.4,10.5 26.5,10.6 L26.5,10.6 L26.5,10.6 L26.6,10.7 L28,12.1 L28.7,12.8 L25.5,16.1 C23.4,14.6 20.4,15.1 18.9,17.2 C17.4,19.3 17.9,22.3 20,23.8 C20.8,24.4 21.8,24.7 22.7,24.7 C23.7,24.7 24.6,24.4 25.4,23.9 L27.8,26.2 C26.2,28.2 25.9,30.9 27.2,33.1 L11.3,49.1 L12.7,50.6 Z M59.5,44.1 C60.5,44.1 61.3,44.9 61.3,45.9 C61.3,46.9 60.5,47.7 59.5,47.7 C58.5,47.7 57.7,46.9 57.7,45.9 C57.7,44.9 58.5,44.1 59.5,44.1 C59.5,44.1 59.5,44.1 59.5,44.1 Z M46.6,24.9 C47.6,24.9 48.4,25.7 48.4,26.7 C48.4,27.7 47.6,28.5 46.6,28.5 C45.6,28.5 44.8,27.7 44.8,26.7 C44.8,26.7 44.8,26.7 44.8,26.7 C44.7,25.8 45.6,24.9 46.6,24.9 C46.6,24.9 46.6,24.9 46.6,24.9 Z M32.5,26 C34.8,26 36.6,27.8 36.6,30.1 C36.6,32.4 34.8,34.2 32.5,34.2 C30.2,34.2 28.4,32.4 28.4,30.1 C28.4,30.1 28.4,30.1 28.4,30.1 C28.4,27.9 30.2,26.1 32.5,26 Z M22.8,22.8 C21.3,22.8 20,21.6 20,20 C20,18.4 21.2,17.2 22.8,17.2 C24.3,17.2 25.5,18.4 25.6,19.9 C25.5,21.5 24.3,22.8 22.8,22.8 C22.8,22.8 22.8,22.8 22.8,22.8 Z" id="Shape"></path>
            </g>
        </g>
    </g>
</svg>