<?xml version="1.0" encoding="UTF-8"?>
<svg width="95px" height="95px" viewBox="0 0 95 95" version="1.1" xmlns="http://www.w3.org/2000/svg" xmlns:xlink="http://www.w3.org/1999/xlink">
    <!-- Generator: Sketch 53.2 (72643) - https://sketchapp.com -->
    <title>goal_16_target_16_1</title>
    <desc>Created with Sketch.</desc>
    <g id="goal_16_target_16_1" stroke="none" stroke-width="1" fill="none" fill-rule="evenodd">
        <g id="Group-131" fill-rule="nonzero">
            <rect id="Rectangle" fill="#00689D" x="1.45661261e-12" y="-2.13162821e-14" width="94.8" height="94.8"></rect>
            <g id="Group" transform="translate(9.700000, 20.000000)" fill="#FFFFFF">
                <path d="M75.2,24.3 C74.8,14.5 72.3,12.1 72.3,12.1 C71.9,11.7 71.4,11.4 70.8,11.4 L23.4,10.6 C23.6,11.3 23.5,12.1 23.3,12.8 L19.6,22.4 C19.5,22.6 19.4,22.9 19.2,23.1 L30.5,23.4 C30.8,23.5 31.2,24.8 31.2,24.8 C32,28.3 34.8,32.4 39.4,33.2 C40.3,33.4 41.2,33.4 42.1,33.4 C44.1,33.4 46.1,33.1 48.1,32.6 C48.2,32.6 48.4,32.5 48.5,32.5 C48.7,32.5 48.9,32.6 49,32.8 C52.4,36.4 52.9,53.6 52.9,53.6 C52.9,54.6 53.4,54.8 53.6,54.8 L53.7,54.8 L71,54.5 C72.1,54.4 71.7,53.2 71.7,53.2 C71.7,53.2 67.9,36.3 66.9,33 C65.9,29.7 67.5,28.3 67.5,28.3 C69.8,26.3 74.5,25.3 74.5,25.3 C75.3,25.2 75.2,24.3 75.2,24.3 Z M49.3,27.6 C49.3,27.6 49.4,31.8 42.8,31.8 C42.3,31.8 41.7,31.8 41.2,31.7 C33,31 32.8,24.6 32.8,23.7 C32.8,23.4 32.8,20.5 37.1,20.5 C37.9,20.5 38.7,20.6 39.5,20.7 C39.5,20.7 41.5,22 41.2,26.3 C41.2,26.3 40.7,29 39.7,30 C39.7,30 39.6,30.3 39.8,30.3 C39.9,30.3 40.1,30.2 40.2,30.2 C41.9,29.5 43.3,28.1 44,26.4 C44.7,24.8 44.8,22.9 44.2,21.3 L45.1,21.5 C45.1,21.5 49.8,23 49.3,27.6 Z" id="Shape"></path>
                <path d="M21.2,10.6 L18.4,5.8 C18.3,5.7 18.2,5.6 18.1,5.6 L14.5,3.8 L13.6,3.5 L13,9.3 L13,9.4 C13,9.6 12.9,9.9 12.9,10.3 L12.9,10.4 L12.9,10.4 C12.6,12.9 12.2,15.3 11.6,17.7 C11.6,17.9 11.5,18.1 11.4,18.3 C11.3,18.5 11.2,18.8 11.1,19 L11.1,19.1 C11.1,19.1 11.1,19.2 11,19.2 C10.9,19.4 10.8,19.6 10.7,19.7 L10.6,19.8 C10.1,20.5 9.3,21.1 8.4,21.3 L9.5,22.6 C9.6,22.7 9.8,22.9 10,22.9 L12.1,23.6 C12.3,23.7 12.5,23.7 12.7,23.6 L16.3,22.8 C16.8,22.7 17.3,22.3 17.5,21.8 L21.2,12.3 C21.6,11.6 21.5,11 21.2,10.6 Z" id="Path"></path>
                <path d="M9.4,18 C10,16.7 10.6,12.8 10.9,10.1 L1.9,9.8 L1.8,9.9 L2.7,14.3 L6.9,19.1 C8,19.3 8.9,18.8 9.4,18 Z" id="Path"></path>
                <polygon id="Path" points="11.2 8.1 11.8 3.2 10 0.2 0.3 1.5 3 7.8"></polygon>
            </g>
        </g>
    </g>
</svg>