<?xml version="1.0" encoding="UTF-8"?>
<svg width="95px" height="95px" viewBox="0 0 95 95" version="1.1" xmlns="http://www.w3.org/2000/svg" xmlns:xlink="http://www.w3.org/1999/xlink">
    <!-- Generator: Sketch 53.2 (72643) - https://sketchapp.com -->
    <title>goal_9_target_9_c</title>
    <desc>Created with Sketch.</desc>
    <g id="goal_9_target_9_c" stroke="none" stroke-width="1" fill="none" fill-rule="evenodd">
        <g id="Group-72" fill-rule="nonzero">
            <rect id="Rectangle" fill="#FD6925" x="-3.62376795e-13" y="-2.13162821e-14" width="94.8" height="94.8"></rect>
            <g id="Group" transform="translate(11.700000, 13.000000)" fill="#FFFFFF">
                <g id="Shape">
                    <path d="M30.7,1.5 C30.7,1.1 30.4,0.7 29.9,0.7 L3.4,0.7 C3,0.7 2.6,1 2.6,1.5 L2.6,18.3 L30.7,18.3 L30.7,1.5 Z M29.5,17.2 L3.9,17.2 L3.9,1.9 L29.5,1.9 L29.5,17.2 Z"></path>
                    <path d="M30.7,18.9 L2.7,18.9 L0.4,20.7 L0.4,21.5 C0.4,21.8 0.9,21.8 0.9,21.8 L32.6,21.8 C33,21.8 33,21.4 33,21.4 L33,20.6 L30.7,18.9 Z M19,21 L14.3,21 L14.3,20.5 L19,20.5 L19,21 Z"></path>
                </g>
                <path d="M68.9,0.3 L57.1,0.3 C56.7,0.3 56.3,0.7 56.3,1.1 C56.3,1.1 56.3,1.1 56.3,1.1 L56.3,22.3 C56.3,22.7 56.7,23.1 57.1,23.1 L57.1,23.1 L68.9,23.1 C69.3,23.1 69.7,22.7 69.7,22.3 C69.7,22.3 69.7,22.3 69.7,22.3 L69.7,1.1 C69.7,0.7 69.3,0.3 68.9,0.3 L68.9,0.3 Z M63,22 C62.3,22 61.8,21.5 61.8,20.8 C61.8,20.1 62.3,19.6 63,19.6 C63.7,19.6 64.2,20.1 64.2,20.8 C64.2,20.8 64.2,20.8 64.2,20.8 C64.2,21.5 63.7,22 63,22 Z M68.6,17.8 L57.4,17.8 L57.4,1.5 L68.6,1.5 L68.6,17.8 Z" id="Shape"></path>
                <g transform="translate(38.000000, 1.000000)" id="Path">
                    <path d="M0.9,6.3 C1.3,7.1 1.5,7.9 1.5,8.8 C1.5,9.8 1.2,10.8 0.8,11.7 L2,12.5 C2.7,11.4 3,10.1 3,8.8 C3,7.7 2.7,6.5 2.2,5.5 L0.9,6.3 Z"></path>
                    <path d="M4.3,4 C6,7.1 5.9,10.9 4.2,13.9 L5.4,14.7 C6.5,12.9 7,10.8 7,8.7 C7,6.8 6.5,4.8 5.5,3.2 L4.3,4 Z"></path>
                    <path d="M8.9,0.9 L7.7,1.7 C10.3,6.2 10.3,11.7 7.6,16.2 L8.8,17 C11.8,12 11.9,5.9 8.9,0.9 Z"></path>
                </g>
                <g transform="translate(1.000000, 30.000000)" id="Path">
                    <g transform="translate(54.000000, 0.000000)">
                        <path d="M8.4,7.1 C10.2,7.1 11.6,5.7 11.6,3.9 C11.6,2.1 10.2,0.7 8.4,0.7 C6.6,0.7 5.2,2.1 5.2,3.9 C5.2,3.9 5.2,3.9 5.2,3.9 C5.2,5.7 6.7,7.1 8.4,7.1 Z"></path>
                        <path d="M12.2,8.3 L12,8.3 L5,8.3 L4.8,8.3 C2.6,8.5 0.9,10.4 0.9,12.6 L0.9,21.5 C1,22.2 1.6,22.7 2.3,22.6 C2.9,22.5 3.4,22.1 3.4,21.5 L3.4,13.8 C3.4,13.5 3.5,13.1 4,13.1 C4.4,13.1 4.4,13.5 4.4,13.7 L4.4,36.6 C4.4,37.6 5.2,38.4 6.2,38.4 C7.2,38.4 8,37.6 8,36.6 L8,23.5 C8,23.2 8.2,23 8.4,23 C8.4,23 8.4,23 8.5,23 L8.5,23 C8.8,23 9,23.2 9,23.4 C9,23.4 9,23.5 9,23.5 L9,36.7 C9,37.7 9.8,38.5 10.8,38.5 C11.8,38.5 12.6,37.7 12.6,36.7 L12.6,13.8 C12.6,13.6 12.7,13.2 13.1,13.2 C13.5,13.2 13.7,13.6 13.7,13.9 L13.7,21.6 C13.7,22.3 14.3,22.8 14.9,22.8 C15.5,22.8 16.1,22.2 16.1,21.6 L16.1,12.7 C16.1,10.4 14.4,8.5 12.2,8.3 Z"></path>
                    </g>
                    <g transform="translate(16.000000, 1.000000)">
                        <path d="M9.9,6.6 C11.6,6.6 13.1,5.2 13.1,3.5 C13.1,1.8 11.7,0.3 10,0.3 C8.3,0.3 6.8,1.7 6.8,3.4 C6.8,3.4 6.8,3.4 6.8,3.4 C6.8,5.2 8.2,6.6 9.9,6.6 Z"></path>
                        <path d="M18.9,19.1 L16.3,10.6 C16.3,10.6 15.4,8.1 13.3,8.1 L6.6,8.1 C4.5,8.1 3.6,10.6 3.6,10.6 L1,19.1 C1,19.1 0.5,20.7 1.9,21.1 C3.3,21.5 3.6,20 3.6,20 L5.7,12.9 C5.7,12.9 5.8,12.4 6.2,12.5 C6.6,12.6 6.4,13.2 6.4,13.2 L2.7,26.5 L6.1,26.5 L6.1,36.1 C6.1,37 6.8,37.7 7.7,37.7 C8.6,37.7 9.3,37 9.3,36.1 L9.3,26.5 L10.2,26.5 L10.2,36.1 C10.2,37 10.9,37.7 11.8,37.7 C12.7,37.7 13.4,37 13.4,36.1 L13.4,26.5 L16.8,26.5 L13.1,13.2 C13.1,13.2 12.9,12.6 13.4,12.5 C13.9,12.4 13.9,12.9 13.9,12.9 L16,20 C16,20 16.4,21.5 17.7,21.1 C19,20.7 18.9,19.1 18.9,19.1 Z"></path>
                    </g>
                    <g transform="translate(37.000000, 7.000000)">
                        <path d="M15.3,16.2 L13.1,9.1 C13.1,9.1 12.3,7 10.6,7 L5.1,7 C3.4,7 2.6,9.1 2.6,9.1 L0.4,16.2 C0.4,16.2 -7.04991621e-15,17.5 1.1,17.8 C2.2,18.1 2.5,16.9 2.5,16.9 L4.3,11 C4.3,11 4.4,10.6 4.7,10.7 C5,10.8 4.9,11.3 4.9,11.3 L1.9,22.3 L4.7,22.3 L4.7,30.2 C4.7,31 5.3,31.6 6.1,31.6 C6.9,31.6 7.5,31 7.5,30.2 L7.5,22.4 L8.3,22.4 L8.3,30.3 C8.3,31.1 8.9,31.7 9.7,31.7 C10.4,31.7 11.1,31.1 11.1,30.3 L11.1,22.4 L13.9,22.4 L10.9,11.4 C10.9,11.4 10.8,10.9 11.1,10.8 C11.4,10.7 11.5,11.1 11.5,11.1 L13.3,17 C13.3,17 13.6,18.3 14.7,17.9 C15.8,17.5 15.3,16.2 15.3,16.2 Z"></path>
                        <path d="M3.3,2.8 C3.4,2.6 3.6,2.2 4.5,2 C4.7,2 4.8,1.9 5,1.9 C5.1,1.6 5.3,1.4 5.5,1.1 C5.5,1 5.5,1 5.5,0.9 C5.5,0.5 5,-5.55111512e-17 4.2,0.5 C3.1,1 3.2,2.6 3.2,2.6 C3.2,2.6 3.3,2.9 3.3,2.8 Z"></path>
                        <path d="M11,1.9 C11.2,2 11.3,2 11.5,2.1 C12.4,2.2 12.6,2.6 12.7,2.9 C12.7,3 12.7,2.9 12.8,2.7 C12.9,2.5 12.9,1.1 11.8,0.6 C10.9,0.2 10.5,0.7 10.5,1 C10.5,1.1 10.5,1.1 10.5,1.2 C10.7,1.4 10.8,1.7 11,1.9 Z"></path>
                        <path d="M8,6.5 C9.7,6.5 11,5.2 11,3.5 C11,1.8 9.7,0.5 8,0.5 C6.3,0.5 5,1.8 5,3.5 C5,5.1 6.3,6.5 7.9,6.5 C7.9,6.5 8,6.5 8,6.5 Z"></path>
                    </g>
                    <g transform="translate(0.000000, 4.000000)">
                        <path d="M13.7,12.9 L13.7,19.5 C13.7,20.1 13.2,20.6 12.6,20.6 C12,20.6 11.5,20.1 11.5,19.5 L11.5,12.7 C11.5,12.4 11.4,12.1 11,12.1 C10.6,12.1 10.6,12.4 10.6,12.7 L10.6,33 C10.6,33.9 9.9,34.6 9,34.6 C8.1,34.6 7.4,33.9 7.4,33 L7.4,21.2 C7.4,21 7.3,20.8 7,20.7 C7,20.7 7,20.7 6.9,20.7 L6.9,20.7 C6.7,20.7 6.5,20.9 6.4,21.1 C6.4,21.1 6.4,21.1 6.4,21.2 L6.4,33 C6.4,33.9 5.7,34.6 4.8,34.6 C3.9,34.6 3.2,33.9 3.2,33 L3.2,12.6 C3.2,12.4 3.1,12 2.8,12 C2.5,12 2.3,12.3 2.3,12.6 L2.3,19.4 C2.4,20 1.9,20.6 1.3,20.6 C0.7,20.7 0.1,20.2 0.1,19.6 C0.1,19.5 0.1,19.5 0.1,19.4 L0.1,11.5 C0.1,9.5 1.6,7.9 3.6,7.7 L3.8,7.7 L10,7.7 L10.2,7.7 C12.2,7.9 13.7,9.5 13.7,11.5 L13.7,12.9 L13.7,12.9 Z"></path>
                        <g transform="translate(3.000000, 0.000000)">
                            <path d="M5.8,3.4 C5.6,3.2 5.3,3 4.9,3.2 C4.5,3.4 4.5,3.4 4.2,3.6 C3.6,3.9 3,4 2.4,4.1 C1.9,4.2 1.5,4.2 1,4.2 C1.1,5.8 2.5,6.9 4.1,6.8 C5.4,6.7 6.5,5.6 6.7,4.3 C6.4,4 6.1,3.7 5.8,3.4 Z"></path>
                            <path d="M2.3,3.5 C2.9,3.4 3.4,3.2 3.9,3 C4.2,2.9 4.5,2.7 4.8,2.6 C5,2.5 5.2,2.5 5.4,2.5 C5.5,2.5 5.6,2.6 5.6,2.7 L5.8,2.9 C5.8,2.9 5.9,3 6.6,3.5 C6.7,3.6 6.7,3.6 6.8,3.6 C6.9,3.6 6.9,3.1 6.8,2.9 C6.7,2.2 6.4,1.5 5.9,0.9 C5.8,0.7 5.5,0.6 5.3,0.6 C4.9,0.7 4.9,0.4 4.7,0.3 C3.9,2.77555756e-17 2.9,0.1 2.2,0.7 C1.4,1.4 0.7,2.3 0.3,3.3 C0.2,3.5 0.5,3.7 0.8,3.7 C1.4,3.6 1.9,3.6 2.3,3.5 Z"></path>
                        </g>
                    </g>
                </g>
            </g>
        </g>
    </g>
</svg>