<?xml version="1.0" encoding="UTF-8"?>
<svg width="95px" height="95px" viewBox="0 0 95 95" version="1.1" xmlns="http://www.w3.org/2000/svg" xmlns:xlink="http://www.w3.org/1999/xlink">
    <!-- Generator: Sketch 53.2 (72643) - https://sketchapp.com -->
    <title>goal_4_target_4_7</title>
    <desc>Created with Sketch.</desc>
    <g id="goal_4_target_4_7" stroke="none" stroke-width="1" fill="none" fill-rule="evenodd">
        <g id="Group-25" fill-rule="nonzero">
            <rect id="Rectangle" fill="#C5192D" x="-3.62376795e-13" y="-2.13162821e-14" width="94.8" height="94.8"></rect>
            <g id="Group" transform="translate(8.700000, 9.000000)" fill="#FFFFFF">
                <path d="M23.7,23.2 L12.5,11 C9.7,13.7 7.3,16.8 5.4,20.2 L20.2,27.6 C21.2,26 22.4,24.6 23.7,23.2 Z" id="Path"></path>
                <path d="M52.3,21.9 L63.5,9.7 C60.5,7.1 57.2,5.1 53.6,3.5 L47.6,19 C49.3,19.8 50.9,20.7 52.3,21.9 Z" id="Path"></path>
                <path d="M59.9,35.3 L76.4,33.7 C75.9,29.9 74.9,26.1 73.2,22.6 L58.4,30 C59.1,31.7 59.6,33.5 59.9,35.3 Z" id="Path"></path>
                <path d="M57.4,27.9 L72.2,20.5 C70.4,17.1 68,14 65.3,11.3 L54.1,23.5 C55.4,24.8 56.5,26.3 57.4,27.9 Z" id="Path"></path>
                <path d="M17.3,38.4 C17.3,38.1 17.3,37.7 17.3,37.4 L0.9,36 C0.8,36.8 0.8,37.7 0.8,38.5 C0.8,41.6 1.2,44.7 1.9,47.7 L17.8,43.1 C17.5,41.6 17.3,40 17.3,38.4 Z" id="Path"></path>
                <path d="M51.3,55.8 L60,69.9 C63.2,67.7 66.1,65 68.5,62 L55.3,52 C54.1,53.4 52.8,54.7 51.3,55.8 Z" id="Path"></path>
                <path d="M76.6,36.1 L60.1,37.7 C60.1,38 60.1,38.2 60.1,38.5 C60.1,40 59.9,41.6 59.6,43.1 L75.5,47.7 C76.2,44.7 76.6,41.6 76.6,38.6 C76.7,37.7 76.7,36.9 76.6,36.1 Z" id="Path"></path>
                <path d="M22.5,52.3 L9.3,62.3 C11.8,65.3 14.7,68 17.9,70.1 L26.6,56 C25.1,55 23.7,53.7 22.5,52.3 Z" id="Path"></path>
                <path d="M19.2,29.7 L4.4,22.3 C2.7,25.8 1.6,29.6 1.1,33.5 L17.6,35 C17.9,33.2 18.4,31.4 19.2,29.7 Z" id="Path"></path>
                <path d="M44.2,59.2 L47.3,75.5 C51.1,74.6 54.7,73.2 58.1,71.2 L49.4,57.1 C47.7,58 46,58.7 44.2,59.2 Z" id="Path"></path>
                <path d="M56.7,50.1 L69.9,60.1 C72.1,57 73.8,53.6 74.9,49.9 L59,45.3 C58.4,47 57.7,48.6 56.7,50.1 Z" id="Path"></path>
                <path d="M38.7,59.9 C37.9,59.9 37,59.8 36.2,59.7 L33.2,76 C37.1,76.6 41,76.5 44.9,75.9 L41.8,59.6 C40.8,59.8 39.8,59.9 38.7,59.9 Z" id="Path"></path>
                <path d="M51.4,2.6 C47.8,1.3 44,0.6 40.2,0.5 L40.2,17.1 C42,17.2 43.8,17.5 45.5,18.1 L51.4,2.6 Z" id="Path"></path>
                <path d="M28.6,57.3 L19.9,71.4 C23.3,73.3 27,74.8 30.8,75.6 L33.9,59.3 C32.1,58.9 30.3,58.2 28.6,57.3 Z" id="Path"></path>
                <path d="M37.7,17.1 L37.7,0.5 C33.8,0.6 30,1.3 26.3,2.6 L32.3,18.1 C34.1,17.5 35.9,17.2 37.7,17.1 Z" id="Path"></path>
                <path d="M18.5,45.4 L2.6,50 C3.8,53.8 5.6,57.3 7.9,60.5 L21.1,50.5 C19.9,48.9 19.1,47.2 18.5,45.4 Z" id="Path"></path>
                <path d="M30.1,18.9 L24.1,3.4 C20.6,4.9 17.3,6.9 14.3,9.4 L25.5,21.6 C26.9,20.5 28.4,19.6 30.1,18.9 Z" id="Path"></path>
                <g transform="translate(26.000000, 27.000000)" id="Path">
                    <polygon points="2.3 19.2 12.4 22.3 12.4 4.4 2.3 0.2"></polygon>
                    <polygon points="23.8 0.2 13.6 4.5 13.6 22.3 23.8 19.2"></polygon>
                    <polygon points="1.2 20.2 1.2 0.2 0.1 1 0.1 21 12.4 24.4 13 24.4 13.1 24.4 13.6 24.4 25 20.8 26 20.5 26 1 24.9 0.2 24.9 19.7 13.6 23.4 13.1 23.4 13 23.4 12.4 23.4"></polygon>
                </g>
            </g>
        </g>
    </g>
</svg>