<?xml version="1.0" encoding="UTF-8"?>
<svg width="95px" height="95px" viewBox="0 0 95 95" version="1.1" xmlns="http://www.w3.org/2000/svg" xmlns:xlink="http://www.w3.org/1999/xlink">
    <!-- Generator: Sketch 53.2 (72643) - https://sketchapp.com -->
    <title>goal_16_target_16_b</title>
    <desc>Created with Sketch.</desc>
    <g id="goal_16_target_16_b" stroke="none" stroke-width="1" fill="none" fill-rule="evenodd">
        <g id="Group-142">
            <rect id="Rectangle" fill="#00689D" fill-rule="nonzero" x="1.45661261e-12" y="-2.13162821e-14" width="94.8" height="94.8"></rect>
            <g id="Group" transform="translate(9.700000, 17.000000)">
                <path d="M11.8,37.1 L40.8,37.1 C41,37.1 41.1,37 41.1,36.9 L41.1,32.3 C41.1,32.2 41,32.1 40.8,32.1 L11.8,32.1 C11.6,32.1 11.5,32.2 11.5,32.3 L11.5,37 C11.5,37 11.7,37.1 11.8,37.1 Z" id="Path"></path>
                <path d="M11.8,45.2 L40.8,45.2 C41,45.2 41.1,45.1 41.1,45 L41.1,40.4 C41.1,40.3 41,40.2 40.8,40.2 L11.8,40.2 C11.6,40.2 11.5,40.3 11.5,40.4 L11.5,45 C11.5,45.1 11.7,45.2 11.8,45.2 Z" id="Path"></path>
                <path d="M54,4.5 C53.1,4.5 52.4,5.2 52.4,6.1 L52.4,16.7 C52.5,17.6 53.3,18.3 54.2,18.2 C55,18.1 55.6,17.5 55.7,16.7 L55.7,6.2 C55.6,5.3 54.9,4.6 54,4.5 Z" id="Path" fill="#FFFFFF" fill-rule="nonzero"></path>
                <path d="M75,4.5 C74.1,4.5 73.4,5.2 73.4,6.1 L73.4,16.7 C73.5,17.6 74.3,18.3 75.2,18.2 C76,18.1 76.6,17.5 76.7,16.7 L76.7,6.2 C76.6,5.3 75.9,4.6 75,4.5 Z" id="Path" fill="#FFFFFF" fill-rule="nonzero"></path>
                <path d="M71.9,5.8 L57.2,5.8 C57,5.8 56.8,6 56.8,6.2 L56.8,6.2 L56.8,16.5 C56.8,16.7 57,16.9 57.2,17 L62.8,17 L62.1,57.9 C62.1,58.1 62.3,58.3 62.5,58.3 L66.4,58.3 C66.6,58.3 66.8,58.2 66.8,57.9 L65.9,17 L71.7,17 C71.9,17 72.1,16.8 72.1,16.5 L72.1,6.2 C72.3,6 72.1,5.8 71.9,5.8 L71.9,5.8 Z" id="Path" fill="#FFFFFF" fill-rule="nonzero"></path>
                <polygon id="Path" fill="#FFFFFF" fill-rule="nonzero" points="3.7 6.4 0.8 6.4 0.8 61.2 40 61.2 40 57.9 3.7 57.9"></polygon>
                <path d="M6.6,3.1 L6.6,54.7 L45.8,54.7 L45.8,0 L6.6,0 L6.6,3.1 Z M12.3,19.1 L12.3,19.1 L17.4,6 C17.5,5.9 17.6,5.8 17.8,5.8 L25.4,5.8 L25.4,3.8 C25.4,3.7 25.4,3.7 25.5,3.7 L26.9,3.7 C27,3.7 27.1,3.7 27.1,3.8 L27.1,5.8 L34.9,5.8 C35.1,5.8 35.2,5.9 35.3,6 L40.2,19.1 C40.2,19.1 40.2,19.1 40.2,19.2 L40.2,19.2 C40.2,19.2 40.2,19.2 40.2,19.3 C40.2,20.7 39.6,22 38.5,23 C37.4,24 36,24.5 34.6,24.5 C31.6,24.6 29.1,22.3 29,19.3 L29,19.2 L29,19.1 L33.4,7.4 L27,7.4 L27,25.3 L31.6,25.3 C31.6,25.3 31.7,25.3 31.7,25.4 L31.7,25.4 L31.7,26.9 C31.7,27 31.7,27 31.6,27 L20.9,27 C20.8,27 20.8,27 20.8,26.9 L20.8,25.4 C20.8,25.3 20.8,25.3 20.9,25.3 L25.3,25.3 L25.3,7.4 L19.2,7.4 L23.5,19.1 L23.5,19.1 L23.5,19.1 L23.5,19.1 C23.5,19.1 23.5,19.1 23.5,19.2 C23.5,20.6 22.9,21.9 21.8,22.9 C20.7,23.9 19.3,24.4 17.8,24.4 C14.9,24.4 12.4,22.1 12.3,19.1 L12.3,19.1 Z M11.5,32.3 C11.5,32.2 11.6,32.1 11.8,32.1 L40.8,32.1 C41,32.1 41.1,32.2 41.1,32.3 L41.1,37 C41.1,37.1 41,37.2 40.8,37.2 L11.8,37.2 C11.6,37.2 11.5,37.1 11.5,37 L11.5,32.3 Z M11.5,40.4 C11.5,40.3 11.6,40.2 11.8,40.2 L40.8,40.2 C41,40.2 41.1,40.3 41.1,40.4 L41.1,45 C41.1,45.1 41,45.2 40.8,45.2 L11.8,45.2 C11.6,45.2 11.5,45.1 11.5,45 L11.5,40.4 Z" id="Shape" fill="#FFFFFF" fill-rule="nonzero"></path>
                <polygon id="Path" fill="#FFFFFF" fill-rule="nonzero" points="38.3 18.8 34.5 8.9 30.8 18.8"></polygon>
                <polygon id="Path" fill="#FFFFFF" fill-rule="nonzero" points="18 8.9 14.2 18.8 21.7 18.8"></polygon>
            </g>
        </g>
    </g>
</svg>