<?xml version="1.0" encoding="UTF-8"?>
<svg width="95px" height="95px" viewBox="0 0 95 95" version="1.1" xmlns="http://www.w3.org/2000/svg" xmlns:xlink="http://www.w3.org/1999/xlink">
    <!-- Generator: Sketch 53.2 (72643) - https://sketchapp.com -->
    <title>goal_15_target_15_7</title>
    <desc>Created with Sketch.</desc>
    <g id="goal_15_target_15_7" stroke="none" stroke-width="1" fill="none" fill-rule="evenodd">
        <g id="Group-126" fill-rule="nonzero">
            <rect id="Rectangle" fill="#56C02B" x="1.45661261e-12" y="0.1" width="94.8" height="94.8"></rect>
            <path d="M86.5,45.2 C85,25.6 69.3,10.2 49.7,9 L49.7,7.10542736e-15 L45.2,7.10542736e-15 L45.2,9 C25.6,10.2 9.9,25.6 8.4,45.2 L1.45661261e-12,45.2 L1.45661261e-12,49.7 L8.3,49.7 C9.2,69.8 25.1,85.9 45.1,87.1 L45.1,95.1 L49.7,95.1 L49.7,87.2 C69.8,86 85.7,69.8 86.5,49.7 L94.8,49.7 L94.8,45.2 L86.5,45.2 Z M13.3,49.7 L25,49.7 L25,45.2 L13.4,45.2 C14.9,28.6 28.1,15.5 44.6,14.1 L45.1,14.1 L45.1,23.7 L49.7,23.7 L49.7,14 C56.8,14.5 63.5,17.1 69,21.6 L63,27.6 L51.7,38.9 L51.7,38.9 L51.7,38.9 L49.1,41.5 C49.1,40.6 49.2,39.8 49.5,39 C48.7,39.3 47.8,39.6 46.9,39.9 C46.3,41.4 46,43 46,44.7 L45.4,45.3 C45,43.7 45,42 45.3,40.4 C44.5,40.6 43.6,40.7 42.8,40.7 C41.3,42.5 40.8,44.9 41.4,47.2 C40.4,45.1 40.4,42.6 41.4,40.5 C40.4,40.2 39.4,40.1 38.4,40.1 C36.5,42 35.8,44.7 36.5,47.2 C35.4,45 35.4,42.4 36.6,40.3 C34.8,40.7 33.1,41.6 31.8,43 C30.1,44.8 28.7,46.9 27.6,49.2 C27.6,49.2 23.8,56.7 19.8,56.7 C15.9,56.7 16.4,53.8 16.4,53.8 C16.4,53.8 18.5,52.7 18.4,51.6 C18.3,50.5 16,51.9 15.5,53.3 C15,54.7 15.2,58.1 20,58.1 C24.8,58.1 30.7,48 30.7,48 L31.3,49.8 C31.4,50.6 29.7,54.4 29.6,54.8 L32.2,58.7 L21,69.6 C16.4,64 13.7,57 13.3,49.7 Z M56,46.9 C55.2,45.8 54.7,44.5 54.5,43.2 L55.2,42.5 C55.2,44 55.5,45.5 56,46.9 Z M51.9,49.1 C51.4,48.5 51,47.8 50.6,47.1 L51.1,46.6 C51.3,47.4 51.5,48.3 51.9,49.1 Z M40.9,49.6 L34.4,56.1 L33.5,54.4 L37.9,49.7 C38.9,49.6 39.9,49.5 40.9,49.6 L40.9,49.6 Z M81.5,51 C80,67.5 66.9,80.7 50.4,82.1 L49.7,82.1 L49.7,69.9 L45.2,69.9 L45.2,82.1 C37.5,81.6 30.1,78.5 24.4,73.2 L36.4,61.2 L38.7,61.2 C38.5,60.7 38.2,60.2 37.8,59.8 L47,50.6 C49.2,51.1 50.8,51.5 50.8,51.5 L52.8,56.6 L54.5,58.4 L57.5,61.2 L63.2,61.2 C63.2,61.2 62.8,59.2 59.5,58.5 L56.9,55.4 L56.4,50.1 L63.3,46.4 L68,48 C68.6,47 69.3,46.1 70.1,45.3 L70.1,44.7 C69.3,43.9 68.7,43.1 68.5,42.1 L68.4,41.6 L65.3,39.1 C65.3,39.1 65.1,37.6 64,37.3 L63.3,39.5 L61.3,39.8 L58.5,39.1 L70.7,26.9 L72.6,25 C77.7,30.5 80.8,37.6 81.5,45.2 L71.3,45.2 L71.3,49.7 L81.6,49.7 C81.5,50.1 81.5,50.6 81.5,51 Z M66.1,42.5 C66.1,42.2 66.4,41.9 66.7,41.9 C67,41.9 67.3,42.2 67.3,42.5 C67.3,42.8 67,43.1 66.7,43.1 C66.4,43.1 66.1,42.8 66.1,42.5 L66.1,42.5 Z" id="Shape" fill="#FFFFFF"></path>
        </g>
    </g>
</svg>