<?xml version="1.0" encoding="UTF-8"?>
<svg width="95px" height="95px" viewBox="0 0 95 95" version="1.1" xmlns="http://www.w3.org/2000/svg" xmlns:xlink="http://www.w3.org/1999/xlink">
    <!-- Generator: Sketch 53.2 (72643) - https://sketchapp.com -->
    <title>goal_3_target_3_8</title>
    <desc>Created with Sketch.</desc>
    <g id="goal_3_target_3_8" stroke="none" stroke-width="1" fill="none" fill-rule="evenodd">
        <rect id="Rectangle" fill="#4C9F38" fill-rule="nonzero" x="0" y="0" width="94.8" height="94.8"></rect>
        <g id="Group" transform="translate(10.700000, 8.000000)" fill="#FFFFFF" fill-rule="nonzero">
            <path d="M65.7,47.2 C67.5,47.2 68.9,45.8 68.9,44 C68.9,42.2 67.5,40.8 65.7,40.8 C63.9,40.8 62.5,42.2 62.5,44 C62.4,45.8 63.9,47.2 65.7,47.2 C65.6,47.2 65.6,47.2 65.7,47.2 Z" id="Path"></path>
            <path d="M69.4,48.5 L69.2,48.5 L62.2,48.5 L62,48.5 C59.8,48.7 58.1,50.5 58.1,52.8 L58.1,61.7 C58.2,62.4 58.8,62.9 59.5,62.8 C60.1,62.7 60.6,62.3 60.6,61.7 L60.6,54 C60.6,53.7 60.7,53.3 61.2,53.3 C61.6,53.3 61.6,53.7 61.6,53.9 L61.6,76.8 C61.5,77.8 62.3,78.6 63.3,78.7 C64.3,78.8 65.1,78 65.2,77 C65.2,76.9 65.2,76.8 65.2,76.7 L65.2,63.7 C65.2,63.4 65.4,63.2 65.7,63.2 C65.7,63.2 65.7,63.2 65.8,63.2 L65.8,63.2 C66.1,63.2 66.3,63.4 66.3,63.6 C66.3,63.6 66.3,63.7 66.3,63.7 L66.3,76.9 C66.3,77.9 67.1,78.7 68.1,78.7 C69.1,78.7 69.9,77.9 69.9,76.9 L69.9,54 C69.9,53.8 70,53.4 70.3,53.4 C70.8,53.4 70.9,53.8 70.9,54.1 L70.9,61.8 C71,62.5 71.6,63 72.3,62.9 C72.9,62.8 73.4,62.4 73.4,61.8 L73.4,52.9 C73.3,50.6 71.6,48.7 69.4,48.5 Z" id="Path"></path>
            <path d="M37.5,48.8 C39.2,48.8 40.5,47.5 40.5,45.8 C40.5,44.1 39.2,42.8 37.5,42.8 C35.8,42.8 34.5,44.1 34.5,45.8 C34.5,47.5 35.8,48.8 37.5,48.8 Z" id="Path"></path>
            <path d="M46.1,60.8 L43.6,52.6 C43.6,52.6 42.7,50.2 40.7,50.2 L34.3,50.2 C32.3,50.2 31.4,52.6 31.4,52.6 L28.9,60.8 C28.9,61 28.8,61.1 28.8,61.3 C28.7,61.2 28.6,61.1 28.5,61.1 C28,60.9 27.5,61 27.2,61.5 C27.2,61.5 27.2,61.5 27.2,61.5 C26.7,62.4 26.2,63.2 25.6,64 C25.4,64.2 25.1,64.4 24.8,64.4 L21.7,64.4 C21.4,64.4 21.1,64.3 21,64 C20.6,63.6 19.4,61.5 19.4,61.4 C19.1,61 18.6,60.9 18.1,61.1 C18,61.2 17.9,61.3 17.8,61.4 L17.8,52.7 C17.8,50.5 16.1,48.6 13.9,48.4 L13.7,48.4 L6.7,48.4 L6.5,48.4 C4.3,48.6 2.6,50.5 2.6,52.7 L2.6,61.6 C2.6,62 2.8,62.4 3.2,62.6 L0.2,77.9 C0.1,78.2 0.3,78.5 0.6,78.6 C0.6,78.6 0.6,78.6 0.6,78.6 L0.7,78.6 C1,78.6 1.2,78.4 1.3,78.1 L4.2,62.7 C4.7,62.5 5,62.1 5,61.5 L5,54 C5,53.7 5.1,53.3 5.6,53.3 C6,53.3 6,53.7 6.1,53.9 L6.1,76.8 C6.1,77.8 6.9,78.6 7.9,78.6 C8.9,78.6 9.7,77.8 9.7,76.8 L9.7,63.7 C9.6,63.4 9.8,63.2 10.1,63.1 C10.4,63 10.6,63.2 10.7,63.5 C10.7,63.6 10.7,63.6 10.7,63.7 L10.7,76.9 C10.7,77.9 11.5,78.7 12.5,78.7 C13.5,78.7 14.3,77.9 14.3,76.9 L14.3,54 C14.3,53.8 14.4,53.4 14.8,53.4 C15.3,53.4 15.4,53.8 15.4,54.1 L15.4,61.8 C15.4,62.5 16,63 16.6,63 C17.1,63 17.5,62.7 17.7,62.3 L17.7,62.4 L20.3,67 C20.4,67.2 20.4,67.4 20.5,67.6 L20.5,68.3 L20.5,68.3 C20.5,68.6 20.5,68.8 20.4,69.1 L19.2,73.9 L20.6,73.9 L20.6,77.5 L20.6,77.5 C20.5,78.2 21,78.8 21.7,78.9 C22.4,79 23,78.5 23.1,77.8 C23.1,77.7 23.1,77.7 23.1,77.6 L23.1,74 L23.9,74 C23.9,74 23.9,74.1 23.9,74.2 L23.9,77.6 C23.9,78.3 24.5,78.8 25.1,78.8 C25.7,78.8 26.3,78.2 26.3,77.6 L26.3,74 L27.6,74 L26.4,69.1 C26.3,68.9 26.3,68.7 26.3,68.5 L26.3,68.3 L26.3,68.3 L26.3,67.6 C26.3,67.4 26.4,67.2 26.5,67 L28.9,62.7 L29.1,62.3 C29.1,62.3 29.1,62.2 29.1,62.2 C29.2,62.5 29.5,62.7 29.9,62.8 C31.2,63.2 31.6,61.7 31.6,61.7 L33.6,54.8 C33.6,54.8 33.7,54.3 34.1,54.4 C34.5,54.5 34,55 34,55 L30.5,67.9 L33.8,67.9 L33.8,77.1 C33.9,78 34.6,78.6 35.5,78.6 C36.3,78.5 36.9,77.9 37,77.1 L37,67.9 L37.9,67.9 L37.9,77.1 C38,78 38.7,78.6 39.6,78.6 C40.4,78.5 41,77.9 41.1,77.1 L41.1,67.9 L44.4,67.9 L40.8,55 C40.8,55 40.6,54.4 41,54.3 C41.4,54.2 41.5,54.7 41.5,54.7 L43.5,61.6 C43.5,61.6 43.9,63.1 45.2,62.7 C46.5,62.3 46.1,60.8 46.1,60.8 Z" id="Path"></path>
            <path d="M10.1,47.2 C11.9,47.2 13.3,45.8 13.3,44 C13.3,42.2 11.9,40.8 10.1,40.8 C8.3,40.8 6.9,42.2 6.9,44 C6.9,45.8 8.3,47.2 10.1,47.2 C10.1,47.2 10.1,47.2 10.1,47.2 Z" id="Path"></path>
            <path d="M52,62.8 C53.4,62.8 54.6,61.7 54.6,60.2 C54.6,58.8 53.5,57.7 52,57.7 C50.5,57.7 49.5,58.8 49.5,60.2 C49.4,61.6 50.6,62.8 52,62.8 C52,62.8 52,62.8 52,62.8 Z" id="Path"></path>
            <path d="M57.1,67.7 C55.6,63.7 55.3,63.8 53.9,63.7 L50,63.7 C48.6,63.7 48.3,63.7 46.8,67.7 C46.6,68.3 45.7,70.5 45.6,70.6 C45.5,70.7 45.2,71.5 46.1,71.8 C47,72.1 47.2,71.1 47.2,71.1 L48.8,67.2 C48.8,67.2 48.8,67.1 48.9,67.1 C49,67.1 49,67.2 49,67.2 L49,77.2 L49,77.2 C49,77.9 49.5,78.5 50.3,78.6 C50.3,78.6 50.3,78.6 50.4,78.6 C51.1,78.6 51.7,78 51.7,77.3 C51.7,77.3 51.7,77.3 51.7,77.2 L51.7,73.2 C51.7,73.2 51.7,72.6 52.1,72.6 C52.5,72.6 52.5,73.2 52.5,73.2 L52.5,77.2 C52.5,77.9 53,78.5 53.8,78.6 C53.8,78.6 53.8,78.6 53.8,78.6 C54.5,78.6 55.1,78.1 55.1,77.4 C55.1,77.4 55.1,77.3 55.1,77.3 L55.1,77.3 L55.1,67.3 C55.1,67.2 55.1,67.2 55.1,67.2 C55.1,67.2 55.2,67.3 55.2,67.3 L56.6,70.8 C56.6,70.8 57,71.7 57.8,71.4 C58.2,71.2 58.4,70.7 58.2,70.2 C58.1,70.1 57.3,68.3 57.1,67.7 Z" id="Path"></path>
            <path d="M23.3,62.7 C24.7,62.7 25.8,61.6 25.8,60.2 C25.8,58.8 24.7,57.7 23.3,57.7 C21.9,57.7 20.8,58.8 20.8,60.2 C20.8,60.2 20.8,60.2 20.8,60.2 C20.7,61.6 21.9,62.7 23.3,62.7 Z" id="Path"></path>
            <g transform="translate(24.000000, 0.000000)">
                <polygon id="Path" points="1.8 4 0.1 4 0.1 36.1 23.1 36.1 23.1 34.2 1.8 34.2"></polygon>
                <path d="M3.5,0.1 L3.5,32.2 L26.5,32.2 L26.5,0.1 L3.5,0.1 Z M6.4,11.6 L10.8,11.6 L12.1,8.6 C12.2,8.4 12.4,8.2 12.7,8.3 C13,8.3 13.2,8.5 13.2,8.7 L14.8,13.7 L17.9,5.3 C18,5.1 18.2,4.9 18.4,4.9 C18.6,4.9 18.9,5 19,5.3 L20.2,8.1 C20.3,8.4 20.2,8.8 19.9,8.9 C19.6,9 19.2,8.9 19.1,8.6 L18.5,7.1 L15.3,15.7 C15.2,15.9 15,16.1 14.7,16.1 L14.7,16.1 C14.4,16.1 14.2,15.9 14.1,15.7 L12.5,10.5 L11.7,12.4 C11.6,12.6 11.4,12.8 11.2,12.8 L6.4,12.8 L6.4,11.6 L6.4,11.6 Z M23.7,27.9 C23.7,28 23.6,28 23.6,28.1 L6.5,28.1 C6.4,28.1 6.4,28 6.4,27.9 L6.4,25.2 C6.4,25.1 6.5,25.1 6.5,25.1 L23.6,25.1 C23.7,25.1 23.7,25.2 23.7,25.2 L23.7,27.9 Z M23.7,23.2 C23.7,23.3 23.6,23.3 23.6,23.3 L6.5,23.3 C6.4,23.3 6.4,23.2 6.4,23.2 L6.4,20.5 C6.4,20.4 6.5,20.4 6.5,20.4 L23.6,20.4 C23.7,20.4 23.7,20.5 23.7,20.5 L23.7,23.2 Z M23.4,12 L23.4,12 L21.4,14.1 L19.3,12 C19,11.7 18.9,11.4 18.9,11 C18.8,10.2 19.4,9.6 20.2,9.5 C20.2,9.5 20.2,9.5 20.3,9.5 C20.7,9.5 21.1,9.9 21.4,10.2 C21.7,9.9 22.1,9.5 22.5,9.5 C23.3,9.5 23.9,10.2 23.8,10.9 C23.8,10.9 23.8,11 23.8,11 C23.8,11.4 23.6,11.7 23.4,12 Z" id="Shape"></path>
            </g>
        </g>
    </g>
</svg>