<?xml version="1.0" encoding="UTF-8"?>
<svg width="95px" height="95px" viewBox="0 0 95 95" version="1.1" xmlns="http://www.w3.org/2000/svg" xmlns:xlink="http://www.w3.org/1999/xlink">
    <!-- Generator: Sketch 53.2 (72643) - https://sketchapp.com -->
    <title>goal_2_target_2_a</title>
    <desc>Created with Sketch.</desc>
    <g id="goal_2_target_2_a" stroke="none" stroke-width="1" fill="none" fill-rule="evenodd">
        <g id="Group-14" fill-rule="nonzero">
            <rect id="Rectangle" fill="#DDA63A" x="9.23705556e-14" y="-2.13162821e-14" width="94.8" height="94.8"></rect>
            <g id="Group" transform="translate(8.700000, 24.000000)" fill="#FFFFFF">
                <g transform="translate(0.000000, 13.000000)">
                    <path d="M9.7,14 C4.3,14 0,18.4 0,23.7 C0,29.1 4.4,33.4 9.7,33.4 C15,33.4 19.4,29 19.4,23.7 L19.4,23.7 C19.5,18.4 15.1,14 9.7,14 Z M9.7,30.2 C6.1,30.2 3.2,27.3 3.2,23.7 C3.2,20.1 6.1,17.2 9.7,17.2 C13.3,17.2 16.2,20.1 16.2,23.7 L16.2,23.7 C16.3,27.3 13.4,30.3 9.7,30.2 C9.8,30.3 9.8,30.3 9.7,30.2 L9.7,30.2 Z" id="Shape"></path>
                    <circle id="Oval" cx="9.7" cy="23.8" r="5"></circle>
                    <path d="M33.1,20 C29.6,20 26.8,22.9 26.8,26.4 C26.8,29.9 29.7,32.7 33.2,32.7 C36.7,32.7 39.5,29.9 39.5,26.4 C39.4,22.8 36.6,20 33.1,20 C33.1,20 33.1,20 33.1,20 Z M33.1,30.6 C30.7,30.6 28.8,28.7 28.8,26.3 C28.8,23.9 30.7,22 33.1,22 C35.5,22 37.4,23.9 37.4,26.3 L37.4,26.3 C37.3,28.7 35.5,30.6 33.1,30.6 C33.1,30.6 33.1,30.7 33.1,30.6 L33.1,30.6 Z" id="Shape"></path>
                    <path d="M33.1,23.5 C31.5,23.5 30.2,24.8 30.2,26.3 C30.2,27.8 31.5,29.1 33,29.1 C34.6,29.1 35.9,27.8 35.9,26.3 L35.9,26.3 C35.9,24.8 34.6,23.5 33.1,23.5 Z" id="Path"></path>
                    <path d="M41.1,14.2 L26.6,11.9 L26.6,9.2 L26.1,9.2 L26.1,5 C26.1,4.7 26.2,4.4 26.4,4.2 C26.6,4 27,3.9 27.3,3.9 L27.3,3 C26.7,3 26.2,3.2 25.8,3.6 C25.4,4 25.2,4.5 25.3,5.1 L25.3,9.3 L24.8,9.3 L24.8,11.6 L23,11.3 L19.5,0.3 L5.1,0.3 L5.1,11.4 C3.1,12.5 1.4,14.1 0.2,16 L1.1,16.7 C5,11.9 12.1,11.3 16.9,15.2 C19.5,17.3 21,20.5 21,23.8 L21,24.1 L25.9,24.1 C25.9,24.1 27.7,18.9 33.1,18.9 C36.1,18.7 38.8,20.6 39.8,23.4 L41.2,23.4 L41.1,14.2 Z M12.9,11.2 L6.6,11.2 L6.6,1.9 L12.9,1.9 L12.9,11.2 Z M14.5,11.2 L14.5,1.9 L17.7,1.9 L20.9,11.2 L14.5,11.2 Z" id="Shape"></path>
                </g>
                <g transform="translate(38.000000, 0.000000)" id="Path">
                    <path d="M21.4,37 C21,37.5 20.5,38 20,38.4 C20.6,39 21.2,39.6 21.9,40.4 L18,40.4 L17.3,41.2 L17,41.6 L22.8,41.6 C23.2,42.2 23.5,42.9 23.7,43.5 L15.9,43.5 C15.7,43.9 15.6,44.3 15.5,44.7 L24,44.7 C24.1,45.1 24.2,45.5 24.3,45.9 L25.9,45.9 C25.5,43.1 24.4,40.5 22.7,38.2 C22.3,38 21.8,37.5 21.4,37 Z"></path>
                    <path d="M23.6,2.6 C23.4,3.3 23.1,3.9 22.7,4.5 L16.9,4.5 C17,4.6 17.1,4.8 17.2,4.9 L17.9,5.7 L21.8,5.7 L21.8,5.7 C21.1,6.5 20.5,7.1 19.9,7.7 C20.4,8.2 20.9,8.7 21.3,9.2 C21.7,8.7 22.2,8.3 22.6,7.7 C24.3,5.5 25.3,3 25.7,0.3 L24.1,0.3 C24,0.6 23.9,0.9 23.9,1.3 L15.3,1.3 C15.4,1.7 15.6,2.1 15.7,2.5 L23.6,2.6 Z"></path>
                    <path d="M30.9,23.5 C28.6,23.8 26.7,25.5 26.3,27.8 C26.3,28.1 26.3,28.5 26.4,28.8 C26.4,28.8 29.9,26.5 37.1,27.2 C37.1,27.2 29.7,27 25.1,30.4 C24.7,30.7 24.4,31 24,31.3 C25,28.8 25.6,26.1 25.7,23.4 L25.7,23.4 C25.6,20.3 24.9,17.2 23.7,14.4 C22.7,12.2 21.3,10.2 19.5,8.6 C18.7,7.8 17.8,6.9 16.8,5.8 C15.6,4.2 14.8,2.4 14.4,0.4 L12.9,0.4 C13.3,3.1 14.4,5.6 16,7.8 C17,9 17.9,9.9 18.8,10.7 C20.4,12.1 21.7,13.8 22.6,15.7 C23.7,18.1 24.2,20.7 24.3,23.3 L24.3,23.3 C24.2,25.8 23.6,28.2 22.6,30.5 C21.7,32.4 20.4,34.1 18.8,35.5 C18,36.4 17,37.3 16,38.5 C14.3,40.7 13.2,43.4 12.8,46.2 L14.4,46.2 C14.8,44.1 15.6,42.2 16.9,40.5 C17.9,39.4 18.7,38.5 19.6,37.7 C20.8,36.6 21.9,35.4 22.8,34 L22.8,34 C23.3,33.3 23.9,32.6 24.5,32.1 C25.4,31.3 26.4,30.7 27.5,30.3 C28.7,31.4 31,33 33.2,32.4 C36.2,31.6 37.3,27.9 41.3,27.4 C42.3,27.2 35.6,22.7 30.9,23.5 Z"></path>
                    <path d="M7.4,12.3 C7,11 4.8,9.9 4.8,9.9 C4.8,9.9 3.8,12.1 4.2,13.4 C4.5,14.4 6,14.7 6.4,14.8 C6.5,14.7 7.8,13.3 7.4,12.3 Z"></path>
                    <path d="M4.5,17.5 C4.5,17.5 5.1,17.9 7.1,17.6 C7.1,17.6 6.7,15.7 5.7,15.2 C5.7,15.2 5.2,14.8 2.3,14.2 C2.3,14.1 3,17 4.5,17.5 Z"></path>
                    <path d="M6.9,18.8 C6.9,18.8 6.3,18.3 3.2,17.7 C3.2,17.7 3.9,20.9 5.6,21.4 C5.6,21.4 6.2,21.8 8.4,21.5 C8.4,21.4 7.9,19.3 6.9,18.8 Z"></path>
                    <path d="M7.7,17.3 C9.5,16.4 9.7,15.7 9.7,15.7 C10.6,14.4 9.4,11.7 9.4,11.7 C7.5,13.9 7.3,14.5 7.3,14.5 C6.9,15.6 7.7,17.3 7.7,17.3 Z"></path>
                    <path d="M11.2,19.5 C12.2,18.1 10.9,15.2 10.9,15.2 C8.8,17.6 8.7,18.3 8.7,18.3 C8.2,19.4 9.1,21.3 9.1,21.3 C10.9,20.2 11.2,19.5 11.2,19.5 Z"></path>
                    <path d="M0.8,7.4 C0.7,7.2 0.6,7.1 0.4,7.2 C0.2,7.3 0.1,7.4 0.2,7.6 L2.2,13.6 L2.9,13.8 L0.8,7.4 Z"></path>
                    <path d="M3.5,13.3 C3.5,12.7 3.5,12.2 3.6,11.6 L1.7,6 C1.6,5.8 1.5,5.7 1.3,5.8 C1.3,5.8 1.3,5.8 1.3,5.8 C1.1,5.9 1,6 1.1,6.2 C1.1,6.2 1.1,6.2 1.1,6.2 L3.5,13.3 L3.5,13.3 Z"></path>
                    <path d="M4.2,9.4 L2.4,4 C2.3,3.8 2.2,3.8 2,3.8 C1.8,3.9 1.7,4 1.8,4.2 C1.8,4.2 1.8,4.2 1.8,4.2 L3.9,10.4 C4,10 4.2,9.7 4.2,9.4 Z"></path>
                    <path d="M9.2,11.2 L7.2,5.2 C7.1,5 6.9,5 6.8,5 C6.6,5.1 6.5,5.2 6.6,5.4 C6.6,5.4 6.6,5.4 6.6,5.4 L8.7,11.7 L9.2,11.2 Z"></path>
                    <path d="M8,11.8 L8,11.8 L5.6,4.7 C5.5,4.5 5.4,4.4 5.2,4.5 C5,4.5 5,4.7 5,4.9 L6.9,10.5 C7.3,10.9 7.7,11.3 8,11.8 Z"></path>
                    <path d="M5.9,9.7 L3.8,3.5 C3.7,3.3 3.6,3.2 3.4,3.3 C3.4,3.3 3.4,3.3 3.4,3.3 C3.2,3.4 3.2,3.5 3.2,3.7 L5,9.1 C5.3,9.3 5.6,9.5 5.9,9.7 Z"></path>
                    <path d="M15.8,33.5 C16.3,34.3 16.8,35.1 17.4,35.8 C17.8,35.4 18.1,35 18.5,34.7 L18.8,34.4 C18.1,33.6 17.4,32.8 16.9,31.9 L21,31.9 C21.3,31.5 21.5,31.1 21.7,30.7 L16.2,30.7 L16.2,30.6 C15.9,30 15.7,29.4 15.5,28.8 L22.4,28.8 C22.6,28.4 22.7,28 22.8,27.6 L15.1,27.6 C14.9,26.9 14.8,26.3 14.7,25.7 L23.3,25.7 C23.4,25.3 23.5,24.9 23.5,24.5 L14.6,24.5 C14.6,24.1 14.5,23.7 14.5,23.4 C14.5,23.1 14.5,22.6 14.6,22.2 L23.5,22.2 C23.5,21.8 23.4,21.4 23.3,21 L14.7,21 C14.8,20.4 14.9,19.7 15.1,19.1 L22.8,19.1 C22.7,18.7 22.6,18.3 22.4,17.9 L15.5,17.9 C15.7,17.3 15.9,16.7 16.2,16.1 L16.2,16 L21.7,16 C21.5,15.6 21.3,15.2 21,14.8 L16.9,14.8 C17.4,13.9 18.1,13.1 18.8,12.3 L18.5,12 L17.4,10.9 C16.4,12 15.6,13.3 15,14.7 C13.8,17.4 13.1,20.3 13,23.2 L13,23.2 C13,23.3 13,23.4 13,23.4 C13,23.4 13,23.6 13,23.6 L13,23.6 C13.1,25.8 13.5,27.9 14.2,30 C12.5,27.6 11,25.1 9.7,22.5 L9,22.6 C10.8,26.5 13.1,30.2 15.8,33.5 L15.8,33.5 Z"></path>
                </g>
            </g>
        </g>
    </g>
</svg>