<?xml version="1.0" encoding="UTF-8"?>
<svg width="95px" height="95px" viewBox="0 0 95 95" version="1.1" xmlns="http://www.w3.org/2000/svg" xmlns:xlink="http://www.w3.org/1999/xlink">
    <!-- Generator: Sketch 53.2 (72643) - https://sketchapp.com -->
    <title>goal_3_target_3_1</title>
    <desc>Created with Sketch.</desc>
    <g id="goal_3_target_3_1" stroke="none" stroke-width="1" fill="none" fill-rule="evenodd">
        <g id="Group-17" fill-rule="nonzero">
            <rect id="Rectangle" fill="#4C9F38" x="9.23705556e-14" y="-2.13162821e-14" width="94.8" height="94.8"></rect>
            <g id="Group" transform="translate(27.700000, 7.000000)" fill="#FFFFFF">
                <g>
                    <path d="M19.7,14.2 C23.4,14.2 26.4,11.2 26.4,7.5 C26.4,3.8 23.4,0.8 19.7,0.8 C16,0.8 13,3.8 13,7.5 C13,11.2 16,14.2 19.7,14.2 C19.7,14.2 19.7,14.2 19.7,14.2 Z" id="Path"></path>
                    <path d="M38.8,40.8 L33.2,22.7 C33.2,22.7 31.2,17.5 26.8,17.5 L12.7,17.5 C8.3,17.5 6.3,22.7 6.3,22.7 L0.7,40.8 C0.7,40.8 -0.3,44.1 2.5,45 C5.3,45.9 6.2,42.6 6.2,42.6 L10.7,27.5 C10.7,27.5 10.9,26.3 11.8,26.6 C12.7,26.9 12.3,28.1 12.3,28.1 L4.5,56.4 L11.8,56.4 L11.8,76.7 C11.8,78.6 13.4,80.2 15.3,80.2 C17.2,80.2 18.8,78.6 18.8,76.7 L18.8,56.3 L20.8,56.3 L20.8,76.6 C20.8,78.5 22.4,80.1 24.3,80.1 C26.2,80.1 27.8,78.5 27.8,76.6 L27.8,56.3 L35,56.3 L27.2,28 C27.2,28 26.9,26.8 27.7,26.5 C28.5,26.2 28.8,27.4 28.8,27.4 L33.3,42.5 C33.3,42.5 34.1,45.7 37,45 C39.9,44.3 38.8,40.8 38.8,40.8 Z M18.1,25.7 C19.1,25.7 19.4,26.8 19.8,27.1 C20.2,26.7 20.7,25.7 21.6,25.7 C22.7,25.7 23.4,26.7 23.4,27.8 C23.4,28.4 23.2,28.9 22.8,29.3 L22.8,29.3 L19.9,32.2 L17,29.3 C16.6,28.9 16.4,28.4 16.4,27.8 C16.3,26.8 17,25.8 18,25.7 C17.9,25.7 18,25.7 18.1,25.7 Z M28.6,43.4 C28.6,48.3 24.6,52.2 19.8,52.2 C15,52.2 11,48.2 11,43.4 C11,38.6 15,34.6 19.8,34.6 C24.6,34.6 28.6,38.5 28.6,43.4 C28.6,43.4 28.6,43.4 28.6,43.4 Z" id="Shape"></path>
                </g>
                <path d="M22.2,39.5 C21,39.5 20.2,41 19.7,41.5 C19.2,41 18.7,39.5 17.3,39.5 C15.7,39.5 14.8,40.8 14.8,42.5 C14.8,43.3 15.1,44 15.6,44.6 L19.7,48.7 L23.8,44.6 L23.8,44.6 C24.3,44 24.6,43.3 24.6,42.5 C24.7,40.8 23.8,39.5 22.2,39.5 Z" id="Path"></path>
            </g>
        </g>
    </g>
</svg>