<?xml version="1.0" encoding="UTF-8"?>
<svg width="95px" height="95px" viewBox="0 0 95 95" version="1.1" xmlns="http://www.w3.org/2000/svg" xmlns:xlink="http://www.w3.org/1999/xlink">
    <!-- Generator: Sketch 53.2 (72643) - https://sketchapp.com -->
    <title>goal_11_target_11_4</title>
    <desc>Created with Sketch.</desc>
    <g id="goal_11_target_11_4" stroke="none" stroke-width="1" fill="none" fill-rule="evenodd">
        <g id="Group-86" fill-rule="nonzero">
            <rect id="Rectangle" fill="#FD9D24" x="-3.62376795e-13" y="-2.13162821e-14" width="94.8" height="94.8"></rect>
            <g id="Group" transform="translate(6.700000, 9.000000)" fill="#FFFFFF">
                <path d="M75.6,69.4 C67.1,68.8 58.5,69.2 50.1,70.8 C48.5,71.1 47.1,71.3 45.6,71.5 C43.7,70.8 43.4,69.6 43.5,69.2 L43.8,67.4 L43.8,67.4 C43.9,67.1 44.1,66.8 44.3,66.6 C45,66 45.7,66.1 46.8,66 C47.5,66 48.2,65.8 48.8,65.3 C49.3,64.9 49.6,64.5 49.4,64.2 C49.2,63.9 49,64 48.8,64 C48.6,64 48.2,64.6 48,64.7 C47.8,64.8 47.9,64.6 47.9,64.6 C47.9,64.2 48.1,63.8 48.4,63.4 C48.6,63.2 48.6,62.9 48.4,62.6 C48.4,62.6 48.4,62.6 48.4,62.6 C47.5,62.2 47,63.7 47,64 C47,64.3 46.8,65 46.5,65.1 C46,65.1 45.4,65.2 44.9,65.3 C44.7,65.4 44.8,65.2 44.8,65.2 L46.8,62.5 C47.1,62.2 46.9,62.1 48.2,61.5 C48.9,61.3 49.6,60.8 50.1,60.3 C50.5,59.9 50.7,59.6 50.3,59.3 C49.9,59 49.4,59.7 49.1,60 C48.9,60.2 48.7,60.3 48.5,60.3 C48.6,59.9 48.7,59.6 49,59.3 C49.2,59.1 49.1,58.8 48.9,58.6 C48.9,58.6 48.9,58.6 48.9,58.6 C48.7,58.4 48.4,58.5 48.2,58.7 C47.8,59 47.6,59.9 47.5,60.4 C47.4,60.9 46.9,61.1 46.6,61.3 C46.3,61.7 46,62 45.7,62.4 C45.6,62.6 44.7,63.6 44.7,63.6 L44.7,63.6 C44.6,62.6 44.8,61.5 45.4,60.7 C46.4,59.3 47.3,57.8 46.7,55.9 C46.7,55.9 46.4,55.1 45.8,55.3 C45.2,55.5 45.3,55.9 45.5,56.4 C45.6,56.9 45.6,57.4 45.4,57.9 C45.3,57.7 45.2,57.6 45.1,57.4 C44.7,57 44.5,56.5 44.5,55.9 C44.5,55.9 44.2,55.3 43.8,55.5 C43.4,55.7 43.3,56 43.4,56.7 L44.4,59 C44.6,59.6 44.5,59.6 44.3,59.8 C44.1,60.1 43.9,60.4 43.7,60.7 C43.6,60.9 43.6,60.9 43.5,60.6 C43.3,60 43.1,59.4 42.8,58.8 C42.6,58.4 42,58 42.1,57.3 C42.3,56.5 42.2,55.7 41.9,54.9 C41.9,54.9 41.6,54.3 41.1,54.5 C40.8,54.6 40.6,55 40.7,55.3 C40.7,55.3 40.7,55.3 40.7,55.3 C40.9,55.8 40.9,56.2 40.9,56.7 C40.6,56.6 40.4,56.3 40.3,56 C40.1,55.5 39.6,54.4 39,54.7 C38.4,55 38.5,55.4 38.8,56 C39.2,56.9 39.8,57.7 40.6,58.3 C42,59.5 41.8,59.5 41.9,60.1 C42,60.7 43.3,64.3 43.3,64.3 C43.3,64.3 43.3,64.5 43.1,64.3 C42.5,64 41.8,63.7 41.2,63.5 C40.8,63.3 40.9,62.4 41,61.9 C41.1,61.4 41,59.3 39.9,59.6 C39.5,59.7 39.3,60.2 39.5,60.5 C39.5,60.5 39.5,60.5 39.5,60.6 C39.7,61.1 39.7,61.7 39.6,62.3 C39.6,62.3 39.6,62.6 39.4,62.4 C39.2,62.2 38.9,61.3 38.6,61.2 C38.3,61.1 38.3,61 37.8,61.3 C37.3,61.6 37.6,62.2 38.1,62.9 C38.6,63.7 39.4,64.3 40.3,64.6 C41.6,65.2 41.5,65.6 42.2,66.7 C42.6,67.4 42.6,68.3 42.1,69 C41.9,69.4 41.7,69.8 41.4,70.2 C41.1,70.8 40.5,71.3 39.9,71.6 C39.4,71.8 39,72 38.5,72.2 C33.1,72.5 28.6,72.3 23.1,72.9 C20.2,73.2 17.9,73.4 15.9,73.5 C15.7,72.7 15.9,71.9 16.4,71.2 C16.8,70.7 17.5,70.5 18.2,70.7 C18.6,70.8 18.9,71.9 19.1,72.4 C19.3,72.9 19.6,72.6 19.7,72.3 C19.7,72 19.6,71.6 19.5,71.3 C19.4,71 19.5,71 19.8,71.1 C20.1,71.2 20.3,71.4 20.7,71.6 C21.1,71.8 21.5,71.7 21.5,71.3 C21.5,70.9 21.1,70.9 20.7,70.7 C20.3,70.5 20.1,70.5 20.4,70.2 C20.7,70 20.8,69.6 20.7,69.3 C20.6,69 20.2,68.9 19.8,69.5 C19.4,70.1 18.9,70.1 18.8,69.7 C18.7,69.3 19.5,68.4 19.8,67.9 C20.1,67.4 20.7,67.1 21.3,67 C21.9,66.8 22.2,66.8 22.2,66.6 C22.2,66.4 21.5,66.4 21.2,66.4 C21,66.4 20.8,66.3 20.7,66 C20.7,66 20.7,65.9 20.7,65.9 C20.7,65.6 21.2,65.2 21.6,64.8 C22,64.4 22.1,64.2 21.9,63.9 C21.7,63.6 21.2,63.7 20.8,64.1 C20.5,64.4 20.2,64.8 19.9,65.2 C19.7,65.4 19.5,65 19.3,64.7 C19.1,64.4 18.7,64.2 18.5,64.4 C18.3,64.6 18.5,64.8 18.8,65.1 C19.1,65.5 19.3,66 19.3,66.5 C19.3,67 19,67.5 18.5,67.7 C18.3,67.8 18.3,67 17.9,67 C17.5,67 17.4,67.5 17.4,68.2 C17.4,68.9 16.7,69.2 16.4,68.8 C16,68.2 15.8,67.5 15.8,66.8 C15.8,66.3 16.5,65.8 16.9,65.5 C17.3,65.2 17.9,65.1 17.6,64.7 C17.3,64.3 16.1,64.8 15.7,65.3 C15.3,65.8 15.1,65.6 15,65.4 C14.9,64.9 14.9,64.4 15,63.9 C15.2,63.2 15.8,62.7 16.6,62.6 C17.2,62.6 17.8,62.9 18.3,63.3 C18.5,63.5 18.9,63.5 19,63.2 C19.1,62.9 18.4,62.5 18.1,62.3 C17.8,62.1 17.6,62.1 17.7,61.9 C17.8,61.7 18.6,61.3 18.9,61.2 C19.2,61.1 19.8,60.8 19.4,60.4 C19,60 18,60.7 17.7,60.8 C17.4,60.9 17.5,60.2 17.4,60.1 C17.3,60 17.4,59.3 16.9,59.3 C16.4,59.3 16.5,60.2 16.4,60.7 C16.3,61.2 16,61.1 15.4,61.6 C15,62 14.5,62.4 14.2,62.8 C14,63 13.9,62.5 13.9,61.7 C13.9,61.1 14,60.5 14.3,60 C14.7,59.6 15.1,59.2 15.6,58.9 C15.7,58.8 15.8,58.6 15.7,58.5 C15.6,58.4 15.4,58.3 15.3,58.4 L15.3,58.4 C14.9,58.6 14.6,58.7 14.4,58.5 C14.2,58.3 14.6,57.7 14.9,57.2 C15.2,56.7 15.2,56.1 14.8,55.9 C14.4,55.7 13.9,56.2 13.8,56.7 C13.7,57.2 13.4,57.2 13.2,56.8 C13,56.4 12.7,56.3 12.6,56.4 C12.5,56.5 12.3,56.6 12.7,57.1 C13,57.5 13.1,58 13.1,58.5 C13.1,58.9 12.8,59 12.5,58.8 C12.2,58.6 11.8,58.4 11.7,58.6 C11.6,58.8 11.9,59.1 12.3,59.2 C12.7,59.3 12.6,60 12.7,60.3 C12.8,60.6 12.6,60.8 12.3,60.7 C11.8,60.5 11.4,60 11.3,59.5 C11.3,59.2 11.3,58.9 11.2,58.6 C11.1,58.4 10.7,58.5 10.7,58.8 C10.7,59.1 10.7,59.5 10.7,59.8 C10.6,60 10.2,59.7 9.7,59.5 C9.2,59.3 8.7,59.5 8.7,59.8 C8.7,60.1 9.7,60.6 9.9,60.6 C10.1,60.6 10.3,60.8 10.2,61 C10.1,61.2 9.6,61.5 9.4,61.7 C9.2,61.9 9.5,62.3 9.8,62 C10.2,61.7 10.6,61.4 11.1,61.4 C11.5,61.4 11.8,61.6 12,61.9 C12.1,62.1 11.8,62.2 11.4,62.3 C11,62.4 10.9,62.6 10.9,62.8 C10.9,63 11,63.1 11.4,63 C11.7,62.9 12,62.8 12.3,62.8 C12.7,62.8 12.8,63.2 12.8,63.2 C13,63.9 13.9,66 14,66.3 C14.1,66.6 14,66.9 13.6,66.9 C13.2,66.9 12.7,66.9 12.7,67.3 C12.7,67.7 13.6,67.7 14.1,67.7 C14.6,67.7 14.6,68.3 14.7,69 C14.8,69.7 13.9,69.8 13.4,69.4 C12.7,68.8 12.1,68 11.6,67.3 C11.5,66.9 11.5,66.5 11.8,66.2 C12,65.9 12.3,66 12.5,65.9 C12.7,65.8 12.7,65.6 12.6,65.4 C12.6,65.4 12.6,65.4 12.6,65.4 C12.5,65.2 12,65.4 11.9,65.6 C11.8,65.8 11.5,65.8 11.5,65.6 C11.5,65.4 11.6,64.8 11.6,64.6 C11.6,64.4 11.5,64.1 11.1,64.3 C10.7,64.5 10.7,66.1 10.7,66.7 C10.7,67.3 10.4,67.4 10.2,67.3 C9.8,67 9.5,66.7 9.2,66.3 C9.1,66 9.1,65.9 9.4,65.4 C9.6,65.2 9.7,65 9.8,64.7 C9.8,64.5 9.5,64.4 9.4,64.6 C9.3,64.8 9.1,65 8.9,65.1 C8.7,65.1 8.8,64.3 8.8,64.2 C8.8,64.1 8.8,63.8 8.5,63.8 C8.2,63.8 8.3,64.7 8.3,64.8 C8.3,64.9 8,64.9 7.6,64.9 C7.2,64.9 7.1,65.3 7.4,65.3 C7.7,65.3 8,65.4 8.3,65.6 C8.5,65.7 8.5,66.4 8.4,66.6 C8.3,66.8 8,66.6 7.4,66.6 C6.8,66.6 6.2,66.6 6.2,66.9 C6.2,67.2 6.6,67.6 7.2,67.6 C7.8,67.6 8.3,67.5 8.4,67.7 C8.5,67.9 8.3,67.9 8.1,68.1 C7.9,68.3 7.8,68.5 8,68.7 C8.2,68.9 8.5,68.8 8.8,68.6 C9,68.3 9.4,68.2 9.8,68.3 C10.3,68.4 10.8,68.6 11.2,68.9 C11.5,69.1 11.3,69.4 11,69.5 C10.6,69.6 10.2,69.8 9.9,70.1 C9.6,70.4 9.2,70.4 8.9,70.1 C8.6,69.9 8.2,69.6 8.1,69.8 C8,70 8.3,70.4 8.5,70.5 C8.7,70.6 8.8,70.6 8.6,70.9 C8.4,71.2 8.1,71.5 7.8,71.7 C7.7,71.8 7.6,72.1 7.8,72.2 C7.9,72.3 8,72.3 8.1,72.3 C8.5,72.1 8.9,71.8 9.3,71.4 C9.4,71.3 9.5,71.1 9.6,71.4 C9.6,71.7 9.6,71.9 9.6,72.2 C9.6,72.4 9.5,72.6 9.7,72.7 C9.8,72.7 10,72.7 10.1,72.5 C10.1,72.3 10.2,72 10.2,71.7 C10.2,71.3 10.3,70.8 10.6,70.5 C11,70.1 11.8,70.3 12.4,70.3 C13,70.3 13,70.7 13,71 C13,71.3 12.3,71.6 12.1,71.8 C11.9,72 11.4,72 11.6,72.4 C11.8,72.8 11.9,72.6 12.1,72.6 C12.3,72.6 12.9,72 13.3,71.9 C13.7,71.8 14.1,71.9 14.4,72.8 C14.5,73.2 14.7,73.5 14.8,73.9 C11.5,74 9,73.8 5.9,73.9 C2.1,73.9 1.1,74.9 1.1,75.5 L1.1,76.3 C1.1,76.9 1.4,77.2 2.3,77.2 L80.6,77.2 C81.3,77.2 81.8,77 81.8,76.3 L81.8,76.1 L81.8,76.1 L81.8,72 C81.1,69.9 81,70 75.6,69.4 Z" id="Path"></path>
                <path d="M78.5,65.7 C77.4,64.2 77.4,62.3 78.5,60.8 C78.5,60.8 78.5,60.8 78.5,60.7 C78.5,60.7 78.5,60.6 78.4,60.6 L78.4,60.6 C77.3,60.8 76.4,61.5 75.8,62.5 C75.8,62.5 73.6,60.6 71.5,60.6 C69.1,60.6 67.4,62.8 67.1,63.2 L67.1,63.2 L67.1,63.2 L67.1,63.2 L67.1,63.2 C67.4,63.6 69.1,65.8 71.5,65.8 C73.6,65.8 75.8,63.9 75.8,63.9 C76.4,64.8 77.3,65.5 78.5,65.7 L78.5,65.7 C78.5,65.7 78.5,65.7 78.5,65.7 L78.5,65.7 L78.5,65.7 Z M70.2,63.5 C69.8,63.5 69.5,63.2 69.5,62.8 C69.5,62.4 69.8,62.1 70.2,62.1 C70.6,62.1 70.9,62.4 70.9,62.8 C70.9,63.2 70.6,63.5 70.2,63.5 Z" id="Shape"></path>
                <path d="M31.8,67.3 C31.8,67.3 33.4,66.2 33.5,66.2 C33.6,66.2 33.9,66 33.8,65.8 C33.7,65.6 33.4,65.6 33.4,65.6 L31.1,65.6 C30.7,65.6 30.7,65.2 30.7,65.2 C30.6,64.5 30.3,63.9 30,63.3 C29.8,63 29.7,63 29.6,63 C29.5,63 29.4,63.1 29.4,63.4 C29.4,64 29.2,64.5 29.1,65.1 C28.9,65.6 28.7,65.6 28.3,65.6 C27.9,65.6 26.6,65.6 26.6,65.6 C26.5,65.6 26.4,65.6 26.3,65.6 C26.2,65.6 26,65.7 26,65.8 C26,65.9 26,66 26.1,66.1 C26.4,66.3 27.7,67 28,67.2 C28.2,67.3 28.3,67.6 28.3,67.8 C28.3,67.9 27.6,69.5 27.5,69.8 C27.4,70.1 27.6,70.2 27.6,70.2 C27.8,70.3 28.1,70.1 28.1,70.1 C28.7,69.8 29.5,69.1 29.8,68.8 C29.9,68.7 30.2,68.6 30.3,68.8 C30.3,68.8 30.3,68.8 30.3,68.8 C30.8,69.3 31.4,69.8 32,70.2 C32.1,70.3 32.3,70.3 32.4,70.2 C32.6,70.1 32.4,69.8 32.4,69.8 C32.4,69.8 31.9,68.2 31.7,67.8 C31.5,67.4 31.8,67.3 31.8,67.3 Z" id="Path"></path>
                <path d="M58.7,62.8 C58.7,62.5 58.4,62.2 58.1,62.2 C57.8,62.2 57.5,62.5 57.5,62.8 C57.5,63.1 57.8,63.4 58.1,63.4 C58.4,63.4 58.7,63.2 58.7,62.8 L58.7,62.8 Z" id="Path"></path>
                <path d="M62.6,58.5 C62.6,57.7 62,57 61.2,57 C60.4,57 59.7,57.6 59.7,58.4 C59.7,59.2 60.3,59.9 61.1,59.9 C61.1,59.9 61.1,59.9 61.1,59.9 C62,60 62.6,59.4 62.6,58.5 Z" id="Path"></path>
                <polygon id="Path" points="48.6 10.8 56.3 13.8 58.4 11.8 62.2 17.1 65.7 12.2 75 25.9 78.2 25.9 77.8 25.2 65.8 7.6 62.2 12.7 53.1 0.1 34.4 25.9 37.8 25.9"></polygon>
                <path d="M63.4,31.5 L64.4,31.5 C64.4,31.5 64.5,31.5 64.5,31.4 L64.5,31.4 L64.5,29.1 L67,29.1 C67.1,29.1 67.2,29 67.2,28.9 C67.2,28.9 67.2,28.9 67.2,28.8 L64.2,18.9 L64.2,18.9 C64.2,18.8 64.1,18.8 64,18.8 C64,18.8 63.9,18.8 63.9,18.9 L63.9,19 L60.8,29 C60.8,29 60.8,29.1 60.8,29.1 C60.8,29.2 60.9,29.3 61,29.3 L63.5,29.3 L63.4,31.5 C63.4,31.5 63.4,31.5 63.4,31.5 Z" id="Path"></path>
                <path d="M55.4,31.5 L56.4,31.5 C56.4,31.5 56.5,31.5 56.5,31.4 C56.5,31.4 56.5,31.4 56.5,31.4 L56.5,29.1 L59,29.1 C59.1,29.1 59.2,29 59.2,28.9 C59.2,28.9 59.2,28.9 59.2,28.8 L56.2,18.9 L56.2,18.9 C56.2,18.8 56.1,18.8 56,18.8 C55.9,18.8 55.9,18.8 55.9,18.9 L55.9,19 L52.8,28.9 C52.8,28.9 52.8,29 52.8,29 C52.8,29.1 52.9,29.2 53,29.2 L55.5,29.2 L55.4,31.5 C55.5,31.5 55.4,31.5 55.4,31.5 Z" id="Path"></path>
                <path d="M47.3,31.5 L48.3,31.5 C48.3,31.5 48.4,31.5 48.4,31.4 L48.4,31.4 L48.4,29.1 L50.9,29.1 C51,29.1 51.1,29 51.1,28.9 C51.1,28.9 51.1,28.9 51.1,28.8 L48,19 L48,19 C48,18.9 47.9,18.9 47.8,18.9 C47.7,18.9 47.7,18.9 47.6,19 L47.6,19 L44.5,28.9 C44.5,28.9 44.5,29 44.5,29 C44.5,29.1 44.6,29.2 44.7,29.2 L47.2,29.2 L47.3,31.5 C47.3,31.5 47.3,31.5 47.3,31.5 Z" id="Path"></path>
                <path d="M53.9,55.1 C53.9,54.8 53.6,54.5 53.3,54.5 C53,54.5 52.7,54.8 52.7,55.1 C52.7,55.4 53,55.7 53.3,55.7 C53.6,55.7 53.9,55.5 53.9,55.1 Z" id="Path"></path>
                <path d="M6.4,22.3 L6.4,13.8 L6.5,13.8 C6.7,13.8 6.8,13.6 6.8,13.5 L6.8,13.5 L6.8,12.2 L3.3,12.2 L3.3,13.5 C3.3,13.7 3.5,13.8 3.6,13.8 L3.6,13.8 L3.7,13.8 L3.7,22.3 L6.4,22.3 Z" id="Path"></path>
                <path d="M14.2,22.3 L14.2,13.8 L14.3,13.8 C14.5,13.8 14.6,13.6 14.6,13.5 L14.6,13.5 L14.6,12.2 L11.1,12.2 L11.1,13.5 C11.1,13.7 11.3,13.8 11.4,13.8 L11.4,13.8 L11.5,13.8 L11.5,22.3 L14.2,22.3 Z" id="Path"></path>
                <path d="M22,22.3 L22,13.8 L22.1,13.8 C22.3,13.8 22.4,13.6 22.4,13.5 L22.4,13.5 L22.4,12.2 L18.9,12.2 L18.9,13.5 C18.9,13.7 19.1,13.8 19.2,13.8 L19.2,13.8 L19.3,13.8 L19.3,22.3 L22,22.3 Z" id="Path"></path>
                <path d="M29.8,22.3 L29.8,13.8 L29.9,13.8 C30.1,13.8 30.2,13.6 30.2,13.5 L30.2,13.5 L30.2,12.2 L26.7,12.2 L26.7,13.5 C26.7,13.7 26.9,13.8 27,13.8 L27,13.8 L27.1,13.8 L27.1,22.3 L29.8,22.3 Z" id="Path"></path>
                <path d="M1.6,26 L31.2,26 L31.2,24.6 L30.2,24.6 L30.2,23.3 C30.2,23.2 30.1,23.1 30,23.1 L2.8,23.1 C2.7,23.1 2.6,23.2 2.6,23.3 L2.6,24.6 L1.6,24.6 L1.6,26 Z" id="Path"></path>
                <path d="M1.1,9.6 L32,9.6 L32.6,9 C32.8,8.8 32.8,8.5 32.6,8.4 C32.6,8.4 32.5,8.3 32.5,8.3 L16.5,2.3 L0.5,8.3 C0.3,8.4 0.2,8.7 0.3,8.9 C0.3,8.9 0.3,9 0.4,9 L1.1,9.6 Z" id="Path"></path>
                <polygon id="Path" points="30.2 10.4 16.3 10.4 2.4 10.4 2.4 11.2 16.3 11.2 30.2 11.2"></polygon>
                <path d="M0.7,34.8 L80.7,34.8 C81,34.8 81.3,35.1 81.3,35.4 L81.3,38 C81.3,38.3 81,38.6 80.7,38.6 L0.7,38.6 C0.4,38.6 0.1,38.3 0.1,38 L0.1,35.4 C0.2,35.1 0.4,34.8 0.7,34.8 Z" id="Path"></path>
                <path d="M80.6,43.9 L80.6,43.9 L80.2,44 C77.7,45.3 69.8,48.3 62.7,41.5 C62.6,41.4 62.4,41.3 62.3,41.3 C62.2,41.3 62,41.4 61.9,41.5 C59.8,43.1 50,49.7 41.3,41.6 L41.2,41.5 C41.1,41.4 41,41.4 40.8,41.4 C40.7,41.4 40.6,41.5 40.5,41.5 L40.4,41.6 C31.7,49.7 21.9,43.1 19.8,41.5 C19.7,41.4 19.6,41.3 19.4,41.3 C19.2,41.3 19.1,41.4 19,41.5 C11.9,48.3 4,45.2 1.5,44 L1.3,43.9 L1,43.9 C0.7,43.9 0.5,44.1 0.5,44.4 C0.5,44.4 0.5,44.4 0.5,44.4 L0.5,47 C0.5,47.1 0.5,47.3 0.6,47.3 C8.8,54.5 16.7,47.8 18.5,46 C18.6,45.9 18.6,45.9 18.7,45.8 C18.8,45.7 18.9,45.7 19,45.7 C19.1,45.7 19.3,45.8 19.3,45.9 C28.6,54.8 38.4,47.6 40.4,45.9 L40.6,45.7 C40.6,45.6 40.7,45.6 40.8,45.6 C40.9,45.6 41,45.6 41,45.7 L41.2,45.9 C43.2,47.6 53,54.8 62.3,45.9 L62.3,45.9 C62.5,45.8 62.7,45.8 62.9,45.9 C63,45.9 63,46 63,46 C64.8,47.8 72.6,54.5 80.8,47.3 C80.9,47.2 81,47.1 81,47 L81,44.3 C81.1,44.1 80.9,43.9 80.6,43.9 C80.6,43.9 80.6,43.9 80.6,43.9" id="Path"></path>
            </g>
        </g>
    </g>
</svg>