<?xml version="1.0" encoding="UTF-8"?>
<svg width="95px" height="95px" viewBox="0 0 95 95" version="1.1" xmlns="http://www.w3.org/2000/svg" xmlns:xlink="http://www.w3.org/1999/xlink">
    <!-- Generator: Sketch 53.2 (72643) - https://sketchapp.com -->
    <title>goal_11_target_11_1</title>
    <desc>Created with Sketch.</desc>
    <g id="goal_11_target_11_1" stroke="none" stroke-width="1" fill="none" fill-rule="evenodd">
        <g id="Group-83">
            <rect id="Rectangle" fill="#FD9D24" fill-rule="nonzero" x="-3.62376795e-13" y="-2.13162821e-14" width="94.8" height="94.8"></rect>
            <g id="Group" transform="translate(6.700000, 11.000000)">
                <path d="M48,0.2 L28.4,0.2 C28.1,0.2 27.9,0.4 27.9,0.6 C27.9,0.6 27.9,0.6 27.9,0.7 L27.9,53.9 C27.9,54.2 28.1,54.4 28.3,54.4 C28.3,54.4 28.3,54.4 28.4,54.4 L35.9,54.4 L35.9,45.3 L40.8,45.3 L40.8,54.4 L48,54.4 C48.3,54.4 48.5,54.2 48.5,54 C48.5,54 48.5,54 48.5,53.9 L48.5,0.7 C48.5,0.4 48.3,0.2 48,0.2 C48,0.2 48,0.2 48,0.2 Z M34.5,49.9 C34.5,50 34.4,50.1 34.3,50.1 L30.3,50.1 C30.2,50.1 30.1,50 30.1,49.9 L30.1,45.5 C30.1,45.4 30.2,45.3 30.3,45.3 L34.3,45.3 C34.4,45.3 34.5,45.4 34.5,45.5 L34.5,49.9 Z M34.5,41.4 C34.5,41.5 34.4,41.6 34.3,41.6 L30.3,41.6 C30.2,41.6 30.1,41.5 30.1,41.4 L30.1,37 C30.1,36.9 30.2,36.8 30.3,36.8 L34.3,36.8 C34.4,36.8 34.5,36.9 34.5,37 L34.5,41.4 Z M34.5,33 C34.5,33.1 34.4,33.2 34.3,33.2 L30.3,33.2 C30.2,33.2 30.1,33.1 30.1,33 L30.1,28.6 C30.1,28.5 30.2,28.4 30.3,28.4 L34.3,28.4 C34.4,28.4 34.5,28.5 34.5,28.6 L34.5,33 Z M34.5,24.5 C34.5,24.6 34.4,24.7 34.3,24.7 L30.3,24.7 C30.2,24.7 30.1,24.6 30.1,24.5 L30.1,20.1 C30.1,20 30.2,19.9 30.3,19.9 L34.3,19.9 C34.4,19.9 34.5,20 34.5,20.1 L34.5,24.5 Z M34.5,16.1 C34.5,16.2 34.4,16.3 34.3,16.3 L30.3,16.3 C30.2,16.3 30.1,16.2 30.1,16.1 L30.1,11.7 C30.1,11.6 30.2,11.5 30.3,11.5 L34.3,11.5 C34.4,11.5 34.5,11.6 34.5,11.7 L34.5,16.1 Z M34.5,7.6 C34.5,7.7 34.4,7.8 34.3,7.8 L30.3,7.8 C30.2,7.8 30.1,7.7 30.1,7.6 L30.1,3.2 C30.1,3.1 30.2,3 30.3,3 L34.3,3 C34.4,3 34.5,3.1 34.5,3.2 L34.5,7.6 Z M40.6,41.5 C40.6,41.6 40.5,41.7 40.4,41.7 L36.4,41.7 C36.3,41.7 36.2,41.6 36.2,41.5 L36.2,37.1 C36.2,37 36.3,36.9 36.4,36.9 L40.4,36.9 C40.5,36.9 40.6,37 40.6,37.1 L40.6,41.5 Z M40.6,33 C40.6,33.1 40.5,33.2 40.4,33.2 L36.4,33.2 C36.3,33.2 36.2,33.1 36.2,33 L36.2,28.6 C36.2,28.5 36.3,28.4 36.4,28.4 L40.4,28.4 C40.5,28.4 40.6,28.5 40.6,28.6 L40.6,33 Z M40.6,24.5 C40.6,24.6 40.5,24.7 40.4,24.7 L36.4,24.7 C36.3,24.7 36.2,24.6 36.2,24.5 L36.2,20.1 C36.2,20 36.3,19.9 36.4,19.9 L40.4,19.9 C40.5,19.9 40.6,20 40.6,20.1 L40.6,24.5 Z M40.6,16.1 C40.6,16.2 40.5,16.3 40.4,16.3 L36.4,16.3 C36.3,16.3 36.2,16.2 36.2,16.1 L36.2,11.7 C36.2,11.6 36.3,11.5 36.4,11.5 L40.4,11.5 C40.5,11.5 40.6,11.6 40.6,11.7 L40.6,16.1 Z M40.6,7.6 C40.6,7.7 40.5,7.8 40.4,7.8 L36.4,7.8 C36.3,7.8 36.2,7.7 36.2,7.6 L36.2,3.2 C36.2,3.1 36.3,3 36.4,3 L40.4,3 C40.5,3 40.6,3.1 40.6,3.2 L40.6,7.6 Z M46.7,49.9 C46.7,50 46.6,50.1 46.5,50.1 L42.5,50.1 C42.4,50.1 42.3,50 42.3,49.9 L42.3,45.5 C42.3,45.4 42.4,45.3 42.5,45.3 L46.5,45.3 C46.6,45.3 46.7,45.4 46.7,45.5 L46.7,49.9 Z M46.7,41.5 C46.7,41.6 46.6,41.7 46.5,41.7 L42.5,41.7 C42.4,41.7 42.3,41.6 42.3,41.5 L42.3,37.1 C42.3,37 42.4,36.9 42.5,36.9 L46.5,36.9 C46.6,36.9 46.7,37 46.7,37.1 L46.7,41.5 Z M46.7,33 C46.7,33.1 46.6,33.2 46.5,33.2 L42.5,33.2 C42.4,33.2 42.3,33.1 42.3,33 L42.3,28.6 C42.3,28.5 42.4,28.4 42.5,28.4 L46.5,28.4 C46.6,28.4 46.7,28.5 46.7,28.6 L46.7,33 Z M46.7,24.5 C46.7,24.6 46.6,24.7 46.5,24.7 L42.5,24.7 C42.4,24.7 42.3,24.6 42.3,24.5 L42.3,20.1 C42.3,20 42.4,19.9 42.5,19.9 L46.5,19.9 C46.6,19.9 46.7,20 46.7,20.1 L46.7,24.5 Z M46.7,16.1 C46.7,16.2 46.6,16.3 46.5,16.3 L42.5,16.3 C42.4,16.3 42.3,16.2 42.3,16.1 L42.3,11.7 C42.3,11.6 42.4,11.5 42.5,11.5 L46.5,11.5 C46.6,11.5 46.7,11.6 46.7,11.7 L46.7,16.1 Z M46.7,7.6 C46.7,7.7 46.6,7.8 46.5,7.8 L42.5,7.8 C42.4,7.8 42.3,7.7 42.3,7.6 L42.3,3.2 C42.3,3.1 42.4,3 42.5,3 L46.5,3 C46.6,3 46.7,3.1 46.7,3.2 L46.7,7.6 Z" id="Shape" fill="#FFFFFF" fill-rule="nonzero"></path>
                <rect id="Rectangle" x="5.8" y="45" width="4.5" height="4.6"></rect>
                <rect id="Rectangle" fill="#FFFFFF" fill-rule="nonzero" x="0.3" y="59.4" width="18.8" height="5.6"></rect>
                <rect id="Rectangle" fill="#FFFFFF" fill-rule="nonzero" x="20.9" y="59.4" width="18.8" height="5.6"></rect>
                <rect id="Rectangle" fill="#FFFFFF" fill-rule="nonzero" x="41.4" y="59.4" width="18.8" height="5.6"></rect>
                <rect id="Rectangle" fill="#FFFFFF" fill-rule="nonzero" x="62" y="59.4" width="18.8" height="5.6"></rect>
                <rect id="Rectangle" fill="#FFFFFF" fill-rule="nonzero" x="0.3" y="67.3" width="80.5" height="5.6"></rect>
                <path d="M22.7,54.4 C22.7,54.4 22.8,54.3 22.7,54.4 L22.8,40.8 C22.8,40.7 22.8,40.7 22.7,40.7 L2.2,40.7 C2.1,40.7 2.1,40.7 2.1,40.8 L2.1,54.3 C2.1,54.4 2.1,54.4 2.2,54.4 L14,54.4 L14,45.3 L18.9,45.3 L18.9,54.4 L22.7,54.4 Z M10.4,49.9 L5.9,49.9 L5.9,45.3 L10.4,45.3 L10.4,49.9 Z" id="Shape" fill="#FFFFFF" fill-rule="nonzero"></path>
                <path d="M0.8,39.6 L24.1,39.6 C24.2,39.6 24.2,39.6 24.2,39.5 L24.2,39.4 L12.5,29.1 L12.4,29 C12.3,28.9 12.2,28.9 12.1,28.9 C12,28.9 11.9,29 11.8,29 L11.7,29.1 L0.7,39.4 C0.6,39.5 0.6,39.5 0.8,39.6 Z" id="Path" fill="#FFFFFF" fill-rule="nonzero"></path>
                <path d="M75.4,50.8 L75.4,54.3 C75.4,54.4 75.4,54.4 75.5,54.4 L77.1,54.4 C77.2,54.4 77.2,54.4 77.2,54.3 L77.2,54.3 L77.2,50.7 C79.7,50.2 81.5,48 81.4,45.4 C81.4,42.3 79,37 76.1,37 C73.2,37 70.9,42.2 70.9,45.4 C70.7,48.1 72.7,50.4 75.4,50.8 Z" id="Path" fill="#FFFFFF" fill-rule="nonzero"></path>
                <path d="M66,10.8 L65.1,10.8 L65.1,7.9 C65.6,7.7 65.9,7.3 65.9,6.8 C65.9,6.2 65.4,5.7 64.8,5.7 C64.2,5.7 63.7,6.2 63.7,6.8 C63.7,6.8 63.7,6.8 63.7,6.8 C63.7,7.3 64,7.7 64.5,7.9 L64.5,10.8 L53.4,10.8 C53.3,10.8 53.1,10.9 53.1,11 C53.1,11 53.1,11 53.1,11.1 L53.1,54.2 C53.1,54.3 53.2,54.5 53.3,54.5 C53.3,54.5 53.3,54.5 53.4,54.5 L66,54.5 C66.1,54.5 66.3,54.4 66.3,54.3 C66.3,54.3 66.3,54.3 66.3,54.2 L66.3,54.2 L66.3,11.1 C66.3,10.9 66.2,10.8 66,10.8 C66,10.8 66,10.8 66,10.8 Z M58.5,49.5 C58.5,49.6 58.4,49.7 58.3,49.7 L55.5,49.7 C55.4,49.7 55.3,49.6 55.3,49.5 L55.3,46.4 C55.3,46.3 55.4,46.2 55.5,46.2 L58.3,46.2 C58.4,46.2 58.5,46.3 58.5,46.4 L58.5,49.5 Z M58.5,42.1 C58.5,42.2 58.4,42.3 58.3,42.3 L55.5,42.3 C55.4,42.3 55.3,42.2 55.3,42.1 L55.3,39 C55.3,38.9 55.4,38.8 55.5,38.8 L58.3,38.8 C58.4,38.8 58.5,38.9 58.5,39 L58.5,42.1 Z M58.5,34.7 C58.5,34.8 58.4,34.9 58.3,34.9 L55.5,34.9 C55.4,34.9 55.3,34.8 55.3,34.7 L55.3,31.6 C55.3,31.5 55.4,31.4 55.5,31.4 L58.3,31.4 C58.4,31.4 58.5,31.5 58.5,31.6 L58.5,34.7 Z M58.5,27.3 C58.5,27.4 58.4,27.5 58.3,27.5 L55.5,27.5 C55.4,27.5 55.3,27.4 55.3,27.3 L55.3,24.2 C55.3,24.1 55.4,24 55.5,24 L58.3,24 C58.4,24 58.5,24.1 58.5,24.2 L58.5,27.3 Z M58.5,20 C58.5,20.1 58.4,20.2 58.3,20.2 L55.5,20.2 C55.4,20.2 55.3,20.1 55.3,20 L55.3,16.9 C55.3,16.8 55.4,16.7 55.5,16.7 L58.3,16.7 C58.4,16.7 58.5,16.8 58.5,16.9 L58.5,20 Z M64.2,49.5 C64.2,49.6 64.1,49.7 64,49.7 L61.2,49.7 C61.1,49.7 61,49.6 61,49.5 L61,46.4 C61,46.3 61.1,46.2 61.2,46.2 L64,46.2 C64.1,46.2 64.2,46.3 64.2,46.4 L64.2,49.5 Z M64.2,42.1 C64.2,42.2 64.1,42.3 64,42.3 L61.2,42.3 C61.1,42.3 61,42.2 61,42.1 L61,39 C61,38.9 61.1,38.8 61.2,38.8 L64,38.8 C64.1,38.8 64.2,38.9 64.2,39 L64.2,42.1 Z M64.2,34.7 C64.2,34.8 64.1,34.9 64,34.9 L61.2,34.9 C61.1,34.9 61,34.8 61,34.7 L61,31.6 C61,31.5 61.1,31.4 61.2,31.4 L64,31.4 C64.1,31.4 64.2,31.5 64.2,31.6 L64.2,34.7 Z M64.2,27.3 C64.2,27.4 64.1,27.5 64,27.5 L61.2,27.5 C61.1,27.5 61,27.4 61,27.3 L61,24.2 C61,24.1 61.1,24 61.2,24 L64,24 C64.1,24 64.2,24.1 64.2,24.2 L64.2,27.3 Z M64.2,20 C64.2,20.1 64.1,20.2 64,20.2 L61.2,20.2 C61.1,20.2 61,20.1 61,20 L61,16.9 C61,16.8 61.1,16.7 61.2,16.7 L64,16.7 C64.1,16.7 64.2,16.8 64.2,16.9 L64.2,20 Z" id="Shape" fill="#FFFFFF" fill-rule="nonzero"></path>
            </g>
        </g>
    </g>
</svg>