<?xml version="1.0" encoding="UTF-8"?>
<svg width="95px" height="95px" viewBox="0 0 95 95" version="1.1" xmlns="http://www.w3.org/2000/svg" xmlns:xlink="http://www.w3.org/1999/xlink">
    <!-- Generator: Sketch 53.2 (72643) - https://sketchapp.com -->
    <title>goal_1_target_1_5</title>
    <desc>Created with Sketch.</desc>
    <g id="goal_1_target_1_5" stroke="none" stroke-width="1" fill="none" fill-rule="evenodd">
        <g id="Group-6" fill-rule="nonzero">
            <rect id="Rectangle" fill="#E5243B" x="-2.13162821e-14" y="-2.13162821e-14" width="94.8" height="94.8"></rect>
            <g id="Group" transform="translate(5.700000, 6.000000)">
                <g transform="translate(0.000000, 55.000000)" fill="#FFFFFF" id="Rectangle">
                    <rect x="0.9" y="0" width="18.8" height="5.6"></rect>
                    <rect x="21.5" y="0" width="18.8" height="5.6"></rect>
                    <rect x="42.1" y="0" width="18.8" height="5.6"></rect>
                    <rect x="62.7" y="0" width="18.8" height="5.6"></rect>
                    <rect x="1.1" y="7.9" width="80.5" height="5.6"></rect>
                </g>
                <g transform="translate(1.000000, 22.000000)" fill="#FFFFFF" id="Path">
                    <path d="M7,21.4 L9,21.4 L9,26.6 C9,26.7 9.1,26.8 9.2,26.8 L9.2,26.8 L11.6,26.8 C11.7,26.8 11.8,26.7 11.8,26.6 L11.8,26.6 L11.8,21.3 L15.7,21.3 C18.2,21.3 20.2,19.3 20.2,16.7 C20.2,15.5 19.8,14.4 19,13.6 C21,12.4 21.8,9.9 20.6,7.8 C19.8,6.5 18.4,5.6 16.9,5.6 L16.6,5.6 C16.3,2.4 13.6,0.1 10.4,0.3 C7.4,0.5 5.1,3 5.1,6 C5.1,6.9 5.3,7.7 5.7,8.5 C2.2,9.3 0.1,12.7 0.9,16.2 C1.5,19.3 4.1,21.4 7,21.4 L7,21.4 Z"></path>
                    <path d="M0.9,29.5 C1.4,29.5 1.8,29.1 1.8,28.7 C1.8,28.2 1.4,27.8 1,27.8 C0.6,27.8 0.1,28.2 0.1,28.6 C0.1,28.6 0.1,28.6 0.1,28.6 C0.1,29.2 0.4,29.5 0.9,29.5 Z"></path>
                    <path d="M3.8,28.7 C3.8,29.2 4.2,29.5 4.6,29.5 C5.1,29.5 5.5,29.1 5.5,28.7 C5.5,28.2 5.1,27.9 4.7,27.9 L4.7,27.9 C4.2,27.8 3.8,28.2 3.8,28.7 Z"></path>
                    <path d="M8.5,27.8 C8,27.8 7.6,28.2 7.6,28.6 C7.6,29.1 8,29.4 8.5,29.4 C9,29.4 9.4,29 9.4,28.6 L9.4,28.6 C9.3,28.2 8.9,27.8 8.5,27.8 Z"></path>
                    <path d="M11.4,28.7 C11.4,29.2 11.8,29.5 12.2,29.5 C12.7,29.5 13.1,29.1 13.1,28.7 C13.1,28.2 12.7,27.9 12.3,27.9 C12.3,27.9 12.3,27.9 12.3,27.9 C11.8,27.8 11.4,28.2 11.4,28.7 Z"></path>
                    <path d="M15.2,28.7 C15.2,29.2 15.6,29.5 16,29.5 C16.5,29.5 16.9,29.1 16.9,28.7 C16.9,28.2 16.5,27.9 16.1,27.9 C16.1,27.9 16.1,27.9 16.1,27.9 C15.6,27.8 15.2,28.2 15.2,28.7 Z"></path>
                    <path d="M19,28.7 C19,29.2 19.4,29.5 19.9,29.5 C20.4,29.5 20.7,29.1 20.7,28.6 C20.7,28.1 20.3,27.8 19.8,27.8 C19.8,27.8 19.8,27.8 19.8,27.8 C19.4,27.9 19,28.2 19,28.7 Z"></path>
                    <path d="M1.9,25.8 C1.9,26.3 2.3,26.7 2.7,26.7 C3.2,26.7 3.6,26.3 3.6,25.9 C3.6,25.4 3.2,25 2.8,25 C2.8,25 2.8,25 2.8,25 C2.3,24.9 1.9,25.3 1.9,25.8 Z"></path>
                    <path d="M5.7,25.8 C5.7,26.3 6.1,26.7 6.5,26.7 C7,26.7 7.4,26.3 7.4,25.9 C7.4,25.4 7,25 6.6,25 C6.6,25 6.6,25 6.6,25 C6.1,24.9 5.7,25.3 5.7,25.8 Z"></path>
                    <path d="M13.3,25.8 C13.3,26.3 13.7,26.7 14.1,26.7 C14.5,26.7 15,26.3 15,25.9 C15,25.4 14.6,25 14.2,25 C14.2,25 14.2,25 14.2,25 C13.7,24.9 13.3,25.3 13.3,25.8 Z"></path>
                    <path d="M17.1,25.8 C17.1,26.3 17.5,26.7 17.9,26.7 C18.3,26.7 18.8,26.3 18.8,25.9 C18.8,25.4 18.4,25 18,25 C18,25 18,25 18,25 C17.4,24.9 17.1,25.3 17.1,25.8 Z"></path>
                </g>
                <g transform="translate(26.000000, 30.000000)" fill="#FFFFFF" id="Path">
                    <path d="M22.4,5 C23.3,5 24.1,4.2 24.1,3.3 C24.1,2.4 23.3,1.6 22.4,1.6 C21.5,1.6 20.7,2.4 20.7,3.3 C20.8,4.2 21.5,5 22.4,5 L22.4,5 Z"></path>
                    <path d="M27.2,11.7 L25.8,7.2 C25.8,7.2 25.3,5.9 24.2,5.9 L20.6,5.9 C19.5,5.9 19,7.2 19,7.2 L17.6,11.7 C17.6,11.7 17.4,12.5 18.1,12.7 C18.8,12.9 19,12.1 19,12.1 L20.1,8.3 C20.1,8.3 20.2,8 20.4,8.1 C20.6,8.2 20.5,8.5 20.5,8.5 L18.5,15.6 L20.3,15.6 L20.3,20.7 C20.4,21.2 20.8,21.5 21.3,21.5 C21.7,21.5 22,21.1 22.1,20.7 L22.1,15.6 L22.6,15.6 L22.6,20.7 C22.7,21.2 23.1,21.5 23.6,21.5 C24,21.5 24.3,21.1 24.4,20.7 L24.4,15.6 L26.2,15.6 L24.2,8.5 C24.2,8.5 24.1,8.2 24.3,8.1 C24.5,8 24.6,8.3 24.6,8.3 L25.7,12.1 C25.7,12.1 25.9,12.9 26.6,12.7 C27.3,12.5 27.2,11.7 27.2,11.7 Z"></path>
                    <path d="M6.3,4.4 C7.3,4.4 8.1,3.6 8.1,2.6 C8.1,1.6 7.3,0.8 6.3,0.8 C5.3,0.8 4.5,1.6 4.5,2.6 C4.5,2.6 4.5,2.6 4.5,2.6 C4.6,3.6 5.4,4.4 6.3,4.4 Z"></path>
                    <path d="M8.4,5.1 L4.3,5.1 C3.1,5.2 2.2,6.2 2.2,7.4 L2.2,12.3 C2.2,12.5 2.3,12.7 2.5,12.8 L0.9,21 C0.9,21.1 1,21.3 1.1,21.3 C1.1,21.3 1.1,21.3 1.1,21.3 L1.1,21.3 C1.2,21.3 1.3,21.2 1.4,21.1 L2.9,12.9 C3.2,12.9 3.5,12.6 3.5,12.2 L3.5,8 C3.5,7.8 3.5,7.6 3.8,7.6 C4.1,7.6 4,7.8 4,7.9 L4,20.4 C4.1,20.9 4.7,21.3 5.2,21.2 C5.6,21.1 5.9,20.8 6,20.4 L6,13.2 C6,13.1 6.1,12.9 6.2,12.9 C6.2,12.9 6.2,12.9 6.2,12.9 L6.2,12.9 C6.3,12.9 6.5,13 6.5,13.2 C6.5,13.2 6.5,13.2 6.5,13.2 L6.5,20.4 C6.5,21 6.9,21.4 7.5,21.4 C8.1,21.4 8.5,21 8.5,20.4 L8.5,8.1 C8.5,8 8.5,7.8 8.7,7.8 C8.9,7.8 9,8 9,8.2 L9,12.4 C9,12.8 9.3,13.1 9.7,13.1 C10.1,13.1 10.4,12.8 10.4,12.4 L10.4,7.5 C10.5,6.2 9.6,5.2 8.4,5.1 Z"></path>
                    <path d="M17,11.8 C16.7,11.7 16.4,11.8 16.3,12 C16,12.5 15.7,12.9 15.4,13.4 C15.3,13.5 15.1,13.6 15,13.6 L13.3,13.6 C13.1,13.6 13,13.5 12.9,13.4 C12.6,13.2 12,12 11.9,12 C11.8,11.7 11.5,11.6 11.3,11.6 C11,11.7 10.9,12 10.9,12.2 C10.9,12.3 10.9,12.4 10.9,12.4 L12.3,14.9 C12.4,15 12.4,15.1 12.4,15.2 L12.4,15.6 L12.4,15.6 C12.4,15.7 12.4,15.9 12.3,16 L11.6,18.7 L12.4,18.7 L12.4,20.7 L12.4,20.7 C12.4,21.1 12.7,21.4 13.1,21.4 C13.5,21.4 13.8,21.1 13.8,20.7 L13.8,18.7 L14.2,18.7 L14.2,20.7 C14.2,21.1 14.5,21.4 14.9,21.4 C15.3,21.4 15.6,21.1 15.6,20.7 L15.6,18.7 L16.4,18.7 L15.7,16 C15.7,15.9 15.7,15.8 15.6,15.7 L15.6,15.6 L15.6,15.6 L15.6,15.2 C15.6,15.1 15.6,15 15.7,14.9 L17,12.5 L17.1,12.3 C17.3,12.2 17.2,11.9 17,11.8 Z"></path>
                    <path d="M14.1,12.7 C14.9,12.7 15.5,12.1 15.5,11.3 C15.5,10.5 14.9,9.9 14.1,9.9 C13.3,9.9 12.7,10.5 12.7,11.3 C12.7,11.3 12.7,11.3 12.7,11.3 C12.7,12.1 13.3,12.7 14.1,12.7 C14.1,12.7 14.1,12.7 14.1,12.7 Z"></path>
                </g>
                <g transform="translate(57.000000, 23.000000)" fill="#FFFFFF">
                    <path d="M24,13.5 L2,13.5 C1.9,13.5 1.9,13.6 1.8,13.6 C1.8,13.6 1.8,13.6 1.8,13.6 L1.8,28.1 C1.8,28.2 1.9,28.3 2,28.3 L2,28.3 L14.6,28.3 L14.6,18.2 L19.8,18.2 L19.8,28.4 L24,28.4 C24.1,28.4 24.2,28.3 24.2,28.2 L24.2,28.2 L24.2,13.7 C24.2,13.6 24.1,13.5 24,13.5 C24,13.5 24,13.5 24,13.5 Z M10.8,23.1 L5.9,23.1 L5.9,18.2 L10.8,18.2 L10.8,23.1 Z" id="Shape"></path>
                    <path d="M13,1 C12.9,0.9 12.8,0.9 12.7,0.9 C12.6,0.9 12.4,1 12.4,1.1 L12.3,1.2 L0.4,12.2 C0.4,12.2 0.3,12.3 0.4,12.4 C0.4,12.4 0.5,12.4 0.5,12.4 L25.6,12.4 C25.7,12.4 25.7,12.3 25.7,12.3 C25.7,12.3 25.7,12.2 25.7,12.2 L13,1 L13,1 Z" id="Path"></path>
                </g>
                <g transform="translate(29.000000, 0.000000)" fill="#FFFFFF" id="Shape">
                    <path d="M13.2,2.1 C7.1,2.1 2.1,7.1 2.1,13.2 C2.1,19.3 7.1,24.3 13.2,24.3 C19.3,24.3 24.3,19.3 24.3,13.2 L24.3,13.2 C24.3,7.1 19.3,2.1 13.2,2.1 Z M23.2,11.5 C23.2,11.8 23.1,12 22.8,12 L22.7,12 C22.5,12 22.3,11.8 22.2,11.6 C22.2,11.5 22.2,11.3 22.3,11.2 C22.4,11.1 22.5,11 22.6,11 C22.9,11 23.1,11.2 23.2,11.5 C23.1,11.5 23.1,11.5 23.2,11.5 Z M22.7,9.8 C22.7,9.9 22.7,10.1 22.7,10.2 C22.6,10.3 22.5,10.4 22.4,10.4 C22.3,10.4 22.3,10.4 22.2,10.4 C22.1,10.4 22.1,10.4 22,10.4 C21.9,10.3 21.8,10.2 21.8,10.1 C21.7,10 21.7,9.9 21.8,9.7 C21.9,9.6 21.9,9.5 22.1,9.5 C22.3,9.4 22.6,9.5 22.7,9.8 Z M21.1,8.3 C21.1,8.2 21.2,8.1 21.3,8 C21.5,7.9 21.8,8 21.9,8.2 C22,8.4 21.9,8.7 21.7,8.8 C21.6,8.8 21.5,8.9 21.5,8.9 L21.4,8.9 C21.2,8.8 21,8.6 21.1,8.3 C21.1,8.3 21.1,8.3 21.1,8.3 L21.1,8.3 Z M17.6,4.7 L17.6,4.7 C17.7,4.5 18,4.4 18.3,4.5 C18.4,4.6 18.5,4.7 18.5,4.8 C18.5,4.9 18.5,5 18.5,5.2 C18.4,5.3 18.3,5.4 18.2,5.4 L18,5.4 C17.9,5.4 17.8,5.4 17.8,5.3 C17.7,5.2 17.6,5.1 17.6,5 C17.5,4.9 17.5,4.8 17.6,4.7 Z M16.6,12 C16.5,12 16.4,11.9 16.4,11.8 L16.4,11.1 L18.1,11.1 L18.1,11.8 C18.1,11.9 18.1,12 18,12 C18,12 18,12 18,12 L18,12 L18,16.1 L16.7,16.1 L16.7,12 L16.6,12 Z M13.3,10.7 L8,10.7 L8,10.3 L18.7,10.3 L18.7,10.7 L13.3,10.7 Z M12.6,12 C12.5,12 12.4,11.9 12.4,11.8 L12.4,11.1 L14.1,11.1 L14.1,11.8 C14.1,11.9 14.1,11.9 14,12 L14,12 L14,16.1 L12.7,16.1 L12.7,12 L12.6,12 Z M8.6,12 C8.5,12 8.4,11.9 8.4,11.8 L8.4,11.1 L10.1,11.1 L10.1,11.8 C10.1,11.9 10,12 9.9,12 L9.9,12 L9.9,16.1 L8.6,16.1 L8.6,12 L8.6,12 Z M13.3,10 L7.6,10 L7.4,9.8 C7.3,9.7 7.3,9.6 7.4,9.6 C7.4,9.6 7.4,9.6 7.4,9.6 L13.3,7.4 L19.2,9.6 C19.3,9.7 19.3,9.8 19.2,9.8 C19.2,9.8 19.2,9.8 19.2,9.8 L18.9,10 L13.3,10 Z M16,4 C16.1,3.8 16.4,3.6 16.6,3.7 C16.6,3.7 16.6,3.7 16.6,3.7 C16.7,3.7 16.8,3.8 16.9,3.9 C16.9,4 16.9,4.2 16.9,4.3 C16.9,4.4 16.8,4.5 16.7,4.6 C16.6,4.6 16.4,4.6 16.3,4.6 C16.2,4.6 16.1,4.5 16,4.4 C16,4.2 16,4.1 16,4 Z M14.6,3.3 C14.7,3.2 14.8,3.2 15,3.2 C15.3,3.2 15.4,3.5 15.4,3.7 C15.4,3.8 15.3,3.9 15.2,4 C15.1,4.1 15,4.1 14.9,4.1 L14.8,4.1 C14.7,4.1 14.6,4 14.5,3.9 C14.4,3.8 14.4,3.7 14.4,3.5 C14.4,3.5 14.5,3.4 14.6,3.3 L14.6,3.3 Z M13.2,3.1 C13.5,3.1 13.7,3.3 13.7,3.6 C13.7,3.9 13.5,4.1 13.2,4.1 C12.9,4.1 12.7,3.9 12.7,3.6 C12.7,3.6 12.7,3.6 12.7,3.6 C12.7,3.3 12.9,3.1 13.2,3.1 L13.2,3.1 Z M11.1,3.5 C11.2,3.4 11.3,3.3 11.4,3.3 C11.5,3.3 11.7,3.3 11.8,3.4 C11.9,3.5 12,3.6 12,3.7 C12,3.8 12,4 11.9,4.1 C11.8,4.2 11.7,4.3 11.6,4.3 L11.5,4.3 C11.3,4.3 11.1,4.1 11,3.9 C11,3.7 11.1,3.6 11.1,3.5 L11.1,3.5 Z M9.5,4 C9.6,3.9 9.7,3.8 9.8,3.8 C9.9,3.7 10,3.7 10.2,3.8 C10.3,3.9 10.4,3.9 10.4,4.1 C10.4,4.2 10.4,4.4 10.4,4.5 C10.3,4.6 10.2,4.7 10.1,4.7 C10,4.7 10,4.7 9.9,4.7 C9.8,4.7 9.8,4.7 9.7,4.7 C9.6,4.6 9.5,4.5 9.5,4.4 C9.4,4.2 9.4,4.1 9.5,4 L9.5,4 Z M8.1,4.5 C8.2,4.5 8.3,4.5 8.5,4.5 C8.6,4.5 8.7,4.6 8.8,4.7 C8.9,4.9 8.8,5.2 8.6,5.4 C8.5,5.4 8.4,5.5 8.4,5.5 C8.2,5.5 8.1,5.4 8,5.3 C7.8,4.9 7.9,4.6 8.1,4.5 C8.1,4.5 8.1,4.5 8.1,4.5 L8.1,4.5 Z M6.7,5.5 C6.8,5.4 6.9,5.4 7,5.4 C7.1,5.4 7.2,5.5 7.3,5.6 C7.5,5.8 7.4,6.1 7.2,6.3 C7.2,6.3 7.2,6.3 7.2,6.3 C7.1,6.4 7,6.4 6.9,6.4 C6.8,6.4 6.6,6.3 6.5,6.2 C6.5,5.9 6.5,5.7 6.7,5.5 L6.7,5.5 Z M4.4,8.1 C4.5,7.9 4.8,7.8 5.1,7.9 C5.4,8 5.4,8.3 5.3,8.6 C5.2,8.7 5.1,8.8 4.9,8.8 C4.8,8.8 4.7,8.8 4.7,8.7 C4.4,8.7 4.3,8.4 4.4,8.1 L4.4,8.1 Z M3.7,9.7 C3.8,9.6 3.9,9.5 4,9.5 C4.1,9.5 4.2,9.5 4.4,9.5 C4.5,9.5 4.6,9.6 4.7,9.7 C4.8,9.8 4.8,9.9 4.7,10.1 C4.6,10.3 4.5,10.4 4.2,10.4 C4.1,10.4 4.1,10.4 4,10.4 C3.8,10.4 3.6,10.1 3.7,9.7 C3.7,9.8 3.7,9.8 3.7,9.7 L3.7,9.7 Z M3.8,11.1 C3.9,11.1 4,11.2 4.1,11.3 C4.2,11.4 4.2,11.5 4.2,11.7 C4.2,11.9 4.1,12 4,12.1 C3.9,12.2 3.8,12.2 3.7,12.2 L3.6,12.2 C3.3,12.1 3.2,11.9 3.2,11.6 C3.3,11.3 3.5,11.1 3.8,11.1 C3.8,11.1 3.8,11.1 3.8,11.1 L3.8,11.1 Z M3.1,13.2 C3.1,12.9 3.3,12.7 3.6,12.7 L3.6,12.7 C3.9,12.7 4.1,12.9 4.1,13.2 C4.1,13.5 3.9,13.7 3.6,13.7 C3.3,13.7 3.1,13.5 3.1,13.2 L3.1,13.2 Z M3.2,15 C3.2,14.7 3.3,14.5 3.6,14.4 C3.9,14.4 4.1,14.5 4.2,14.8 C4.2,15.1 4.1,15.3 3.8,15.4 L3.7,15.4 C3.5,15.4 3.3,15.2 3.2,15 Z M4.2,17 C3.9,17 3.7,16.8 3.7,16.5 C3.7,16.2 3.9,16 4.2,16 C4.4,16 4.6,16.1 4.7,16.3 C4.8,16.5 4.7,16.8 4.4,16.9 C4.3,17 4.2,17 4.2,17 Z M5.3,18.2 C5.3,18.3 5.2,18.4 5.1,18.5 C5,18.5 4.9,18.6 4.9,18.6 C4.7,18.6 4.6,18.5 4.5,18.4 C4.4,18.2 4.5,17.9 4.7,17.7 C4.9,17.6 5.2,17.6 5.3,17.8 C5.3,17.8 5.3,17.8 5.3,17.8 C5.3,17.9 5.4,18 5.3,18.2 Z M5.5,6.7 C5.6,6.6 5.7,6.5 5.8,6.5 C5.9,6.5 6.1,6.5 6.1,6.6 C6.2,6.7 6.3,6.8 6.3,6.9 C6.3,7.2 6.1,7.4 5.9,7.4 C5.9,7.4 5.9,7.4 5.9,7.4 C5.8,7.4 5.7,7.4 5.6,7.3 C5.3,7.2 5.3,6.9 5.5,6.7 Z M6.1,19.7 C6,19.8 5.9,19.8 5.8,19.8 C5.7,19.8 5.5,19.7 5.4,19.6 C5.2,19.4 5.2,19.1 5.4,18.9 C5.4,18.9 5.4,18.9 5.4,18.9 C5.5,18.8 5.6,18.8 5.7,18.8 C5.8,18.8 5.9,18.9 6,19 C6.4,19.3 6.4,19.6 6.1,19.7 C6.2,19.8 6.2,19.8 6.1,19.7 L6.1,19.7 Z M7.4,20.9 C7.3,21 7.2,21 7,21 C6.9,21 6.8,21 6.7,20.9 C6.6,20.8 6.5,20.7 6.5,20.6 C6.5,20.5 6.5,20.3 6.6,20.3 C6.7,20.2 6.8,20.2 6.9,20.1 C7,20.1 7.2,20.1 7.3,20.2 C7.4,20.3 7.5,20.4 7.5,20.5 C7.5,20.7 7.5,20.8 7.4,20.9 L7.4,20.9 Z M7.5,17.1 L7.9,17.1 L7.9,16.5 C7.9,16.5 7.9,16.4 8,16.4 L18.5,16.4 C18.5,16.4 18.6,16.4 18.6,16.5 L18.6,17.1 L19,17.1 L19,17.8 L7.5,17.8 L7.5,17.1 Z M8.8,21.8 C8.7,22 8.6,22 8.4,22 C8.3,22 8.2,22 8.2,21.9 C8.1,21.8 8,21.7 8,21.6 C8,21.5 8,21.3 8,21.2 C8.1,21.1 8.2,21 8.3,21 C8.4,21 8.5,21 8.7,21 C8.8,21.1 9,21.4 8.8,21.8 C8.9,21.7 8.8,21.8 8.8,21.8 L8.8,21.8 Z M10.4,22.4 C10.3,22.6 10.1,22.7 9.9,22.7 C9.8,22.7 9.8,22.7 9.7,22.7 C9.5,22.6 9.3,22.3 9.4,22.1 C9.5,21.8 9.7,21.7 10,21.8 C10.3,21.9 10.5,22.1 10.4,22.4 C10.4,22.4 10.4,22.4 10.4,22.4 L10.4,22.4 Z M11.5,23.1 L11.5,23.1 C11.2,23 11,22.8 11,22.5 L11,22.5 C11,22.2 11.3,22.1 11.6,22.1 C11.9,22.1 12,22.4 12,22.7 C12,23 11.8,23.1 11.5,23.1 Z M13.2,23.3 C12.9,23.3 12.7,23.1 12.7,22.8 C12.7,22.8 12.7,22.8 12.7,22.8 C12.7,22.5 12.9,22.3 13.2,22.3 C13.5,22.3 13.7,22.5 13.7,22.8 C13.7,23.1 13.5,23.3 13.2,23.3 C13.2,23.3 13.2,23.3 13.2,23.3 Z M15.3,23 C15.2,23.1 15.1,23.2 15,23.2 L14.9,23.2 C14.6,23.2 14.4,23 14.4,22.8 C14.4,22.5 14.6,22.3 14.8,22.3 L14.8,22.3 C14.9,22.3 15.1,22.3 15.2,22.4 C15.3,22.5 15.4,22.6 15.4,22.7 C15.4,22.8 15.3,22.9 15.3,23 Z M16.9,22.5 C16.8,22.6 16.8,22.7 16.6,22.7 C16.5,22.7 16.5,22.7 16.4,22.7 C16.3,22.7 16.3,22.7 16.2,22.7 C16.1,22.7 16,22.6 16,22.4 C16,22.3 16,22.1 16,22 C16.1,21.9 16.2,21.8 16.3,21.8 C16.5,21.7 16.8,21.8 16.9,22.1 C17,22.3 17,22.4 16.9,22.5 L16.9,22.5 Z M18.2,22 C18.1,22 18,22 18,22 L17.9,22 C17.8,22 17.7,21.9 17.6,21.8 C17.5,21.7 17.5,21.6 17.6,21.4 C17.6,21.3 17.7,21.2 17.8,21.1 C17.9,21.1 18,21.1 18.2,21.1 C18.3,21.1 18.4,21.2 18.5,21.3 C18.5,21.6 18.5,21.9 18.2,22 Z M19.7,21 C19.6,21.1 19.5,21.1 19.4,21.1 C19.1,21.1 18.9,20.9 18.9,20.6 C18.9,20.6 18.9,20.6 18.9,20.6 C18.9,20.5 19,20.4 19.1,20.3 C19.2,20.2 19.3,20.2 19.4,20.2 C19.5,20.2 19.6,20.3 19.7,20.4 C19.9,20.5 19.9,20.8 19.7,21 Z M19.8,6.2 C19.7,6.3 19.6,6.4 19.5,6.4 L19.5,6.4 C19.4,6.4 19.3,6.4 19.2,6.3 C19,6.2 19,6.1 19,5.9 C19,5.6 19.2,5.4 19.4,5.4 C19.5,5.4 19.7,5.4 19.8,5.5 C19.9,5.6 20,5.7 20,5.8 C19.9,6 19.8,6.1 19.8,6.2 L19.8,6.2 Z M20.9,19.7 C20.8,19.8 20.7,19.9 20.6,19.9 L20.6,19.9 C20.4,19.9 20.2,19.7 20.1,19.5 C20.1,19.4 20.1,19.2 20.2,19.2 C20.3,19.1 20.4,19 20.5,19 C20.6,19 20.8,19 20.8,19.1 C20.9,19.2 21,19.3 21,19.4 C21.1,19.5 21,19.6 20.9,19.7 L20.9,19.7 Z M20.9,7.4 C20.8,7.5 20.7,7.5 20.6,7.5 L20.6,7.5 C20.5,7.5 20.4,7.4 20.3,7.3 C20.2,7.2 20.1,7.1 20.1,6.9 C20.1,6.8 20.2,6.7 20.3,6.6 C20.5,6.4 20.8,6.4 21,6.6 C21.2,6.8 21.2,7.1 21,7.3 C20.9,7.4 20.9,7.4 20.9,7.4 L20.9,7.4 Z M22,18.3 C21.9,18.4 21.8,18.5 21.6,18.5 C21.5,18.5 21.4,18.5 21.4,18.4 C21.3,18.3 21.2,18.2 21.2,18.1 C21.1,18 21.1,17.9 21.2,17.7 C21.3,17.6 21.4,17.5 21.5,17.5 C21.8,17.4 22,17.6 22.1,17.8 C22,18 22,18.2 22,18.3 L22,18.3 Z M22.8,16.7 C22.7,16.9 22.6,17 22.3,17 C22.2,17 22.2,17 22.1,17 C22,17 21.9,16.9 21.8,16.8 C21.7,16.7 21.7,16.6 21.8,16.4 C21.8,16.3 21.9,16.2 22,16.1 C22.2,16 22.5,16.1 22.6,16.3 C22.8,16.5 22.8,16.6 22.8,16.7 L22.8,16.7 Z M23,15.3 C22.9,15.4 22.8,15.4 22.7,15.4 L22.6,15.4 C22.3,15.4 22.2,15.1 22.2,14.9 C22.2,14.6 22.4,14.4 22.7,14.4 C23,14.4 23.2,14.6 23.2,14.9 C23.2,14.9 23.2,15 23.2,15 C23.1,15.1 23.1,15.2 23,15.3 Z M22.9,13.7 C22.6,13.7 22.4,13.5 22.4,13.2 C22.4,12.9 22.6,12.7 22.9,12.7 C23.2,12.7 23.4,12.9 23.4,13.2 C23.4,13.5 23.1,13.7 22.9,13.7 Z"></path>
                    <path d="M13.2,0.6 C6.2,0.6 0.6,6.3 0.6,13.2 C0.6,20.2 6.3,25.8 13.2,25.8 C20.2,25.8 25.8,20.1 25.8,13.2 C25.8,6.2 20.2,0.6 13.2,0.6 C13.2,0.6 13.2,0.6 13.2,0.6 Z M13.2,24.9 C6.8,24.9 1.5,19.7 1.5,13.2 C1.5,6.7 6.7,1.5 13.2,1.5 C19.6,1.5 24.9,6.7 24.9,13.2 C24.9,19.7 19.6,24.9 13.2,24.9 Z"></path>
                </g>
                <path d="M81,74.7 L80.9,74.7 L80.7,74.8 C78.2,76.1 70.3,79.1 63.2,72.3 C63.1,72.2 62.9,72.1 62.8,72.1 C62.7,72.1 62.5,72.2 62.4,72.3 C60.3,73.9 50.5,80.5 41.8,72.4 L41.7,72.3 C41.6,72.2 41.5,72.2 41.4,72.2 C41.3,72.2 41.2,72.3 41.1,72.3 L41,72.4 C32.3,80.5 22.5,73.9 20.4,72.3 C20.3,72.2 20.2,72.1 20,72.1 C19.8,72.1 19.7,72.2 19.6,72.3 C12.5,79.1 4.6,76 2.1,74.8 L1.9,74.7 L1.8,74.7 C1.5,74.7 1.3,74.9 1.3,75.2 C1.3,75.2 1.3,75.2 1.3,75.2 L1.3,78.6 C1.3,78.7 1.4,78.8 1.4,78.9 C9.6,86.1 17.5,79.4 19.2,77.6 C19.3,77.5 19.3,77.5 19.4,77.4 C19.5,77.4 19.5,77.3 19.6,77.3 C19.7,77.3 19.9,77.4 20,77.5 C29.3,86.4 39.1,79.2 41.1,77.5 L41.3,77.3 C41.4,77.3 41.4,77.2 41.5,77.2 C41.6,77.2 41.6,77.2 41.7,77.3 L41.9,77.5 C43.9,79.2 53.7,86.4 63,77.5 L63,77.5 C63.2,77.3 63.4,77.3 63.6,77.5 C63.7,77.5 63.7,77.6 63.7,77.6 C65.5,79.4 73.3,86.1 81.6,78.9 C81.7,78.8 81.7,78.7 81.8,78.6 L81.8,75.2 C81.5,75 81.3,74.8 81,74.7" id="Path" fill="#000000"></path>
            </g>
        </g>
    </g>
</svg>