<?xml version="1.0" encoding="UTF-8"?>
<svg width="95px" height="95px" viewBox="0 0 95 95" version="1.1" xmlns="http://www.w3.org/2000/svg" xmlns:xlink="http://www.w3.org/1999/xlink">
    <!-- Generator: Sketch 53.2 (72643) - https://sketchapp.com -->
    <title>goal_4_target_4_6</title>
    <desc>Created with Sketch.</desc>
    <g id="goal_4_target_4_6" stroke="none" stroke-width="1" fill="none" fill-rule="evenodd">
        <g id="Group" transform="translate(48.700000, 60.000000)" fill="#FFFFFF" fill-rule="nonzero">
            <path d="M9.2,6.7 C11,6.7 12.5,5.2 12.5,3.4 C12.5,1.6 11,0.1 9.2,0.1 C7.4,0.1 5.9,1.6 5.9,3.4 L5.9,3.4 C5.8,5.2 7.3,6.7 9.2,6.7 C9.2,6.7 9.2,6.7 9.2,6.7 Z" id="Path"></path>
            <path d="M17.2,16.4 C17.2,16.2 16.2,13.9 15.9,13.1 C13.9,7.9 13.6,7.9 11.7,7.9 L6.6,7.9 C4.8,8 4.4,7.9 2.4,13.1 C2.1,13.8 0.9,16.7 0.9,16.9 C0.9,17.1 0.4,18.1 1.5,18.5 C2.6,18.9 2.9,17.7 2.9,17.7 L4.9,12.6 C4.9,12.6 4.9,12.5 5,12.5 C5.1,12.5 5.1,12.6 5.1,12.7 L5.1,25.9 L5.1,25.9 C5.1,26.9 5.8,27.7 6.8,27.7 C6.8,27.7 6.9,27.7 6.9,27.7 C7.8,27.7 8.6,26.9 8.6,26 C8.6,26 8.6,25.9 8.6,25.9 L8.6,20.6 C8.6,20.6 8.5,19.8 9.1,19.8 C9.7,19.8 9.6,20.6 9.6,20.6 L9.6,25.9 C9.6,26.9 10.3,27.7 11.3,27.7 C11.3,27.7 11.3,27.7 11.4,27.7 C12.3,27.7 13.1,26.9 13.1,26 C13.1,26 13.1,25.9 13.1,25.9 L13.1,25.9 L13.1,12.7 C13.1,12.6 13.1,12.5 13.2,12.5 C13.3,12.5 13.3,12.6 13.3,12.6 L15.2,17.1 C15.2,17.1 15.7,18.3 16.8,17.8 C17.9,17.3 17.2,16.4 17.2,16.4 Z" id="Path"></path>
        </g>
        <g id="Group-24" fill-rule="nonzero">
            <rect id="Rectangle" fill="#C5192D" x="-3.62376795e-13" y="-2.13162821e-14" width="94.8" height="94.8"></rect>
            <g id="Group" transform="translate(11.700000, 25.000000)" fill="#FFFFFF">
                <path d="M65.8,20.3 C64.7,19.5 63.4,19.1 62.1,19.1 L57.6,19.1 L54,22.7 L52.2,20.9 L50.4,19.1 L45.6,19.1 C43.7,19.1 41.9,20 40.6,21.4 L54.1,25.4 L54.1,25.4 L67.2,21.5 C66.8,21.1 66.3,20.7 65.8,20.3 Z" id="Path"></path>
                <path d="M29.4,20.3 C28.3,19.5 27,19.1 25.7,19.1 L21.2,19.1 L17.6,22.7 L15.8,20.9 L14,19.1 L9.2,19.1 C7.3,19.1 5.5,20 4.2,21.4 L17.7,25.4 L17.7,25.4 L30.8,21.5 C30.4,21.1 29.9,20.7 29.4,20.3 Z" id="Path"></path>
                <path d="M42.8,23.6 L40,22.8 L39.3,22.6 L38.8,22.4 L36.8,21.8 L36.8,21.8 L36.8,29.6 C37,29.6 37.2,29.6 37.4,29.7 C38.4,30 39.1,30.9 39.1,32 C39.1,33.3 38.1,34.4 36.8,34.4 L36.8,40.9 L53.1,44.6 L53.1,44.6 L53.1,36.4 L53.1,33.5 L53.1,30 L53.1,26.6 L45.4,24.3 L42.8,23.6 Z" id="Path"></path>
                <path d="M69.7,30 C70.1,29.7 70.5,29.6 71,29.6 L71.1,29.6 L71.1,21.8 L71.1,21.8 L69.5,22.3 L68.9,22.5 L68.3,22.7 L65,23.7 L62.4,24.5 L54.7,26.8 L54.7,36.6 L54.7,44.7 L54.7,44.7 L71,41 L71,34.5 L71,34.5 C70.5,34.5 70.1,34.4 69.7,34.1 C69.6,34.1 69.5,34 69.5,33.9 C68.5,33.1 68.3,31.5 69.2,30.5 C69.3,30.2 69.5,30.1 69.7,30 L69.7,30 Z M66.9,37.8 L57.9,40.1 L57.9,38.8 L66.9,36.5 L66.9,37.8 Z M66.9,35 L57.9,37.3 L57.9,36 L66.9,33.7 L66.9,35 Z M66.9,32.2 L57.9,34.5 L57.9,33.2 L66.9,30.8 L66.9,32.2 Z M66.9,29.5 L57.9,31.8 L57.9,30.5 L66.9,28.1 L66.9,29.5 Z" id="Shape"></path>
                <path d="M58.8,8.6 C58.2,8.1 57.7,7.6 56.7,8.1 C56,8.4 55.8,8.6 55,9 C53.6,9.7 52,10.1 50.4,10.4 C49.2,10.6 48,10.7 46.8,10.6 C47.2,14.6 50.8,17.5 54.8,17 C58.1,16.6 60.8,14.1 61.2,10.7 C60.4,10 59.6,9.3 58.8,8.6 Z" id="Path"></path>
                <path d="M46.8,9 C47.8,9.1 48.9,9 49.9,8.8 C51.4,8.6 52.9,8.1 54.2,7.5 C54.9,7.2 55.7,6.8 56.5,6.6 C57,6.4 57.5,6.3 58,6.4 C58.2,6.5 58.5,6.6 58.7,6.8 C59,7 59.1,7.1 59.3,7.3 C59.3,7.3 59.6,7.5 61.3,8.8 C61.5,9 61.7,9.1 61.8,9.1 C62.2,9 62,7.8 61.9,7.2 C61.6,5.4 60.8,3.6 59.6,2.2 C59.3,1.7 58.7,1.4 58.1,1.5 C57.3,1.5 56.6,1.2 56,0.6 C55.1,-7.16093851e-15 52.9,0.2 50.4,1.5 C48.6,2.4 46.5,5.4 45.5,8.1 C45.1,8.7 46.2,8.9 46.8,9 Z" id="Path"></path>
                <path d="M33,22.3 L32.4,22.5 L31.8,22.7 L28.5,23.7 L25.9,24.5 L18.2,26.8 L18.2,30.2 L18.2,33.6 L18.2,36.6 L18.2,44.7 L18.2,44.7 L34.6,41 L34.6,34.4 L34.5,34.4 C34,34.4 33.6,34.2 33.2,34 C33.1,34 33,33.9 33,33.8 C32,33 31.8,31.4 32.7,30.4 C33.2,29.8 33.8,29.5 34.5,29.5 L34.6,29.5 L34.6,21.7 L34.6,21.7 L33,22.3 Z M30.5,37.7 L21.5,40 L21.5,38.7 L30.5,36.4 L30.5,37.7 Z M30.5,35 L21.5,37.3 L21.5,36 L30.5,33.7 L30.5,35 Z M30.5,32.2 L21.5,34.5 L21.5,33.2 L30.5,30.8 L30.5,32.2 Z M30.5,29.4 L21.5,31.7 L21.5,30.4 L30.5,28 L30.5,29.4 Z" id="Shape"></path>
                <path d="M9.1,24.4 L6.9,23.7 L6.5,23.6 L6,23.5 L3.6,22.8 L3,22.6 L2.9,22.6 L2.4,22.4 L0.4,21.8 L0.4,21.8 L0.4,29.6 L0.4,29.6 C0.7,29.6 1,29.7 1.3,29.8 C1.4,29.8 1.5,29.9 1.6,30 C1.8,30.1 2,30.2 2.1,30.4 C3,31.3 3,32.9 2.1,33.8 C1.7,34.2 1.1,34.5 0.4,34.5 L0.4,41 L16.7,44.7 L16.7,44.7 L16.7,36.5 L16.7,26.7 L15.5,26.3 L9.1,24.4 Z" id="Path"></path>
                <path d="M5.3,7.7 C5.5,7.1 6.2,6 8.4,5.8 C8.8,5.7 9.2,5.6 9.6,5.4 C10,4.7 10.4,4.1 11,3.5 C11,3.4 11,3.3 11,3.1 C10.9,2.1 9.8,0.9 7.6,1.9 C4.8,3.2 5.1,7.3 5.1,7.3 C5.2,7.6 5.2,7.8 5.3,7.7 Z" id="Path"></path>
                <path d="M25.2,5.3 C25.6,5.5 26,5.7 26.5,5.7 C28.7,6 29.4,7 29.6,7.6 C29.6,7.8 29.7,7.5 29.8,7.1 C29.8,7.1 30.1,3 27.3,1.7 C25.1,0.7 24,1.9 23.9,2.9 C23.9,3.1 23.9,3.3 23.9,3.4 C24.4,4.1 24.9,4.6 25.2,5.3 Z" id="Path"></path>
                <path d="M17.4,17.2 C21.6,17.2 25,13.8 25,9.6 C25,5.4 21.6,2 17.4,2 C13.2,2 9.8,5.4 9.8,9.6 C9.8,9.6 9.8,9.6 9.8,9.6 C9.8,13.8 13.2,17.2 17.4,17.2 C17.4,17.2 17.4,17.2 17.4,17.2 Z" id="Path"></path>
            </g>
        </g>
    </g>
</svg>