<?xml version="1.0" encoding="UTF-8"?>
<svg width="95px" height="95px" viewBox="0 0 95 95" version="1.1" xmlns="http://www.w3.org/2000/svg" xmlns:xlink="http://www.w3.org/1999/xlink">
    <!-- Generator: Sketch 53.2 (72643) - https://sketchapp.com -->
    <title>goal_5_target_5_6</title>
    <desc>Created with Sketch.</desc>
    <g id="goal_5_target_5_6" stroke="none" stroke-width="1" fill="none" fill-rule="evenodd">
        <g id="Group-35" fill-rule="nonzero">
            <rect id="Rectangle" fill="#FF3A21" x="-3.62376795e-13" y="-2.13162821e-14" width="94.8" height="94.8"></rect>
            <g id="Group" transform="translate(6.700000, 23.000000)" fill="#FFFFFF">
                <path d="M79.5,46.5 L79.5,23.9 C79.5,23.9 79.7,20.9 77.2,19.6 C76.6,19.4 76.2,18.8 76.1,18.2 C76,17.1 76.2,15.9 74.8,15.9 C73.4,15.9 73.6,17.1 73.5,18.2 C73.4,18.8 73,19.4 72.4,19.6 C69.9,20.9 70.1,23.9 70.1,23.9 L70.1,46.5 C69.5,46.6 69,47.3 69.2,47.9 C69.3,48.4 69.8,48.8 70.3,48.8 L79.3,48.8 C80,48.8 80.5,48.2 80.5,47.6 C80.4,47.1 80.1,46.6 79.5,46.5 L79.5,46.5 Z" id="Path"></path>
                <path d="M63.1,16.5 L54.2,16.5 C53.6,16.5 53.2,16.9 53.2,17.5 L53.2,47.8 C53.2,48.4 53.6,48.8 54.1,48.8 C54.1,48.8 54.1,48.8 54.2,48.8 L63.1,48.8 C63.7,48.8 64.1,48.4 64.1,47.8 C64.1,47.8 64.1,47.8 64.1,47.7 L64.1,17.5 C64.2,17 63.7,16.5 63.1,16.5 C63.2,16.5 63.1,16.5 63.1,16.5 Z M55.5,47.5 C54.9,47.5 54.5,47.1 54.5,46.5 C54.5,45.9 54.9,45.5 55.5,45.5 C56.1,45.5 56.5,45.9 56.5,46.5 C56.5,47 56.1,47.5 55.5,47.5 L55.5,47.5 Z M55.5,44.4 C54.9,44.4 54.5,43.9 54.5,43.4 C54.5,42.9 55,42.4 55.5,42.4 C56,42.4 56.5,42.9 56.5,43.4 C56.5,43.9 56.1,44.4 55.5,44.4 Z M55.5,41.4 C54.9,41.4 54.5,41 54.5,40.4 C54.5,39.8 54.9,39.4 55.5,39.4 C56.1,39.4 56.5,39.8 56.5,40.4 C56.5,40.9 56.1,41.4 55.5,41.4 L55.5,41.4 Z M55.5,38.3 C54.9,38.3 54.5,37.9 54.5,37.3 C54.5,36.7 54.9,36.3 55.5,36.3 C56.1,36.3 56.5,36.7 56.5,37.3 C56.5,37.8 56.1,38.3 55.5,38.3 L55.5,38.3 Z M55.5,35.2 C54.9,35.2 54.5,34.8 54.5,34.2 C54.5,33.6 54.9,33.2 55.5,33.2 C56.1,33.2 56.5,33.6 56.5,34.2 C56.5,34.8 56.1,35.2 55.5,35.2 L55.5,35.2 Z M55.5,32.2 C54.9,32.2 54.5,31.8 54.5,31.2 C54.5,30.6 54.9,30.2 55.5,30.2 C56.1,30.2 56.5,30.6 56.5,31.2 C56.5,31.7 56.1,32.2 55.5,32.2 L55.5,32.2 Z M55.5,29.1 C54.9,29.1 54.5,28.7 54.5,28.1 C54.5,27.5 54.9,27.1 55.5,27.1 C56.1,27.1 56.5,27.5 56.5,28.1 C56.5,28.7 56.1,29.1 55.5,29.1 L55.5,29.1 Z M55.5,26 C54.9,26 54.5,25.6 54.5,25 C54.5,24.4 54.9,24 55.5,24 C56.1,24 56.5,24.4 56.5,25 C56.5,25.6 56.1,26 55.5,26 L55.5,26 Z M55.5,23 C54.9,23 54.5,22.6 54.5,22 C54.5,21.4 54.9,21 55.5,21 C56.1,21 56.5,21.4 56.5,22 C56.6,22.5 56.1,23 55.5,23 C55.6,23 55.5,23 55.5,23 L55.5,23 Z M55.5,19.9 C54.9,19.9 54.5,19.5 54.5,18.9 C54.5,18.3 54.9,17.9 55.5,17.9 C56,17.9 56.5,18.3 56.5,18.8 C56.6,19.4 56.1,19.9 55.5,19.9 C55.6,19.9 55.6,19.9 55.5,19.9 L55.5,19.9 Z M59,47.2 C59,47.3 58.9,47.5 58.7,47.5 C58.6,47.5 58.4,47.4 58.4,47.2 L58.4,21.4 C58.4,21.2 58.5,21.1 58.7,21.1 C58.8,21.1 59,21.2 59,21.4 L59,47.2 Z M58.6,19.9 C58,19.9 57.6,19.5 57.6,18.9 C57.6,18.3 58,17.9 58.6,17.9 C59.1,17.9 59.6,18.3 59.6,18.8 C59.6,19.4 59.2,19.9 58.6,19.9 C58.6,19.9 58.6,19.9 58.6,19.9 Z M61.9,47.5 C61.3,47.5 60.9,47.1 60.9,46.5 C60.9,45.9 61.3,45.5 61.9,45.5 C62.5,45.5 62.9,45.9 62.9,46.5 C62.9,47.1 62.4,47.5 61.9,47.5 Z M61.9,44.4 C61.3,44.4 60.9,44 60.9,43.4 C60.9,42.8 61.3,42.4 61.9,42.4 C62.5,42.4 62.9,42.8 62.9,43.4 C62.9,44 62.4,44.4 61.9,44.4 Z M61.9,41.3 C61.3,41.3 60.9,40.9 60.9,40.3 C60.9,39.7 61.3,39.3 61.9,39.3 C62.5,39.3 62.9,39.7 62.9,40.3 C62.9,40.9 62.4,41.3 61.9,41.3 Z M61.9,38.3 C61.3,38.3 60.9,37.9 60.9,37.3 C60.9,36.7 61.3,36.3 61.9,36.3 C62.5,36.3 62.9,36.7 62.9,37.3 C62.9,37.8 62.4,38.3 61.9,38.3 Z M61.9,35.2 C61.3,35.2 60.9,34.8 60.9,34.2 C60.9,33.6 61.3,33.2 61.9,33.2 C62.5,33.2 62.9,33.6 62.9,34.2 C62.9,34.8 62.4,35.2 61.9,35.2 Z M61.9,32.1 C61.3,32.1 60.9,31.7 60.9,31.1 C60.9,30.5 61.3,30.1 61.9,30.1 C62.5,30.1 62.9,30.5 62.9,31.1 C62.9,31.7 62.4,32.1 61.9,32.1 Z M61.9,29.1 C61.3,29.1 60.9,28.7 60.9,28.1 C60.9,27.5 61.3,27.1 61.9,27.1 C62.5,27.1 62.9,27.5 62.9,28.1 C62.9,28.6 62.4,29.1 61.9,29.1 L61.9,29.1 Z M61.9,26 C61.3,26 60.9,25.6 60.9,25 C60.9,24.4 61.3,24 61.9,24 C62.5,24 62.9,24.4 62.9,25 C62.9,25.6 62.4,26 61.9,26 L61.9,26 Z M61.9,23 C61.3,23 60.9,22.6 60.9,22 C60.9,21.4 61.3,21 61.9,21 C62.5,21 62.9,21.4 62.9,22 C62.9,22.5 62.5,23 61.9,23 C61.9,23 61.9,23 61.9,23 L61.9,23 Z M61.9,19.9 C61.3,19.9 60.9,19.5 60.9,18.9 C60.9,18.3 61.3,17.9 61.9,17.9 C62.4,17.9 62.9,18.3 62.9,18.8 C62.9,19.4 62.5,19.9 61.9,19.9 C61.9,19.9 61.9,19.9 61.9,19.9 L61.9,19.9 Z" id="Shape"></path>
                <path d="M37.5,10.9 C39.6,10.9 41.4,9.2 41.4,7.1 C41.4,5 39.7,3.2 37.6,3.2 C35.5,3.2 33.7,4.9 33.7,7 C33.7,7 33.7,7 33.7,7 C33.7,9.2 35.4,10.9 37.5,10.9 Z" id="Path"></path>
                <path d="M45.3,15.8 C45.3,15.8 44.2,12.8 41.6,12.8 L33.4,12.8 C30.9,12.8 29.7,15.8 29.7,15.8 L26.5,26.2 C26.5,26.2 25.9,28.1 27.5,28.6 C29.1,29.1 29.6,27.2 29.6,27.2 L32.2,18.5 C32.2,18.5 32.3,17.8 32.8,18 C33.3,18.2 33.1,18.9 33.1,18.9 L28.6,35.2 L32.8,35.2 L32.8,46.9 C32.8,48 33.7,48.9 34.8,48.9 C35.9,48.9 36.8,48 36.8,46.9 L36.8,35.2 L38,35.2 L38,46.9 C38,48 38.9,48.9 40,48.9 C41.1,48.9 42,48 42,46.9 L42,35.2 L46.2,35.2 L41.8,18.9 C41.8,18.9 41.6,18.2 42.1,18 C42.6,17.8 42.7,18.5 42.7,18.5 L45.3,27.2 C45.3,27.2 45.8,29.1 47.4,28.6 C49,28.1 48.4,26.2 48.4,26.2 L45.3,15.8 Z M40.8,29.8 L37.5,33 L34.3,29.8 C33.9,29.4 33.6,28.8 33.6,28.1 C33.5,26.9 34.4,25.9 35.6,25.8 C35.6,25.8 35.7,25.8 35.7,25.8 C36.3,25.8 37,26.5 37.4,26.9 C37.9,26.3 38.5,26 39.2,25.8 C40.4,25.8 41.3,26.8 41.3,28 C41.3,28 41.3,28.1 41.3,28.1 C41.4,28.8 41.2,29.4 40.8,29.8 L40.8,29.8 Z" id="Shape"></path>
                <g>
                    <path d="M12,3.2 C9.9,3.2 8.1,4.9 8.1,7.1 C8.1,9.2 9.8,11 12,11 C14.2,11 15.9,9.3 15.9,7.1 C15.9,5 14.1,3.2 12,3.2 C12,3.2 12,3.2 12,3.2 Z" id="Path"></path>
                    <path d="M23,26.2 L19.8,15.8 C19.8,15.8 18.7,12.8 16.1,12.8 L8,12.8 C5.5,12.8 4.3,15.8 4.3,15.8 L1.1,26.2 C1.1,26.2 0.5,28.1 2.2,28.6 C3.9,29.1 4.3,27.2 4.3,27.2 L6.9,18.5 C6.9,18.5 7,17.8 7.5,18 C8,18.2 7.8,18.9 7.8,18.9 L3.3,35.2 L7.5,35.2 L7.5,46.9 C7.5,48 8.4,48.9 9.5,48.9 C10.6,48.9 11.5,48 11.5,46.9 L11.5,35.2 L12.6,35.2 L12.6,46.9 C12.6,48 13.5,48.9 14.6,48.9 C15.7,48.9 16.6,48 16.6,46.9 L16.6,35.2 L20.8,35.2 L16.4,18.9 C16.4,18.9 16.2,18.2 16.7,18 C17.2,17.8 17.3,18.5 17.3,18.5 L19.9,27.2 C19.9,27.2 20.4,29.1 22,28.6 C23.6,28.1 23,26.2 23,26.2 Z M12,29.4 C11.6,29.4 11.3,29.1 11.4,28.7 C11.4,28.3 11.8,28.1 12.1,28.1 C12.4,28.1 12.6,28.4 12.7,28.7 C12.7,29.1 12.4,29.4 12,29.4 C12,29.4 12,29.4 12,29.4 Z M12,24.2 C11.6,24.2 11.3,23.9 11.3,23.6 C11.3,23.2 11.6,22.9 11.9,22.9 C12.2,22.9 12.6,23.2 12.6,23.5 C12.6,23.5 12.6,23.5 12.6,23.5 C12.7,23.9 12.4,24.2 12,24.2 L12,24.2 Z M12,19.2 C11.6,19.2 11.3,18.9 11.3,18.6 C11.3,18.2 11.6,17.9 11.9,17.9 C12.2,17.9 12.6,18.2 12.6,18.5 C12.6,18.5 12.6,18.5 12.6,18.5 C12.7,18.9 12.4,19.2 12,19.2 L12,19.2 Z" id="Shape"></path>
                    <path d="M12.1,2.5 C13.4,2.5 14.6,3.1 15.5,4 L17.1,2.2 C15.8,0.9 14,0.1 12.1,0.1 C10.2,0.1 8.3,1 7,2.4 L8.9,3.9 C9.8,3 10.9,2.5 12.1,2.5 Z" id="Path"></path>
                </g>
            </g>
        </g>
    </g>
</svg>