<?xml version="1.0" encoding="UTF-8"?>
<svg width="95px" height="95px" viewBox="0 0 95 95" version="1.1" xmlns="http://www.w3.org/2000/svg" xmlns:xlink="http://www.w3.org/1999/xlink">
    <!-- Generator: Sketch 53.2 (72643) - https://sketchapp.com -->
    <title>goal_11_target_11_7</title>
    <desc>Created with Sketch.</desc>
    <g id="goal_11_target_11_7" stroke="none" stroke-width="1" fill="none" fill-rule="evenodd">
        <g id="Group-89" fill-rule="nonzero">
            <rect id="Rectangle" fill="#FD9D24" x="-3.62376795e-13" y="-2.13162821e-14" width="94.8" height="94.8"></rect>
            <g id="Group" transform="translate(5.700000, 8.000000)" fill="#FFFFFF">
                <path d="M8.5,27 L10.9,27 L10.9,33.3 C10.9,33.4 11,33.5 11.1,33.5 L14,33.5 C14.1,33.5 14.2,33.4 14.2,33.3 C14.2,33.3 14.2,33.3 14.2,33.3 L14.2,27 L18.9,27 C21.9,27 24.4,24.5 24.4,21.5 C24.4,20.1 23.9,18.8 22.9,17.7 C25.4,16.3 26.2,13.2 24.8,10.7 C23.9,9.1 22.2,8.1 20.3,8.1 L20,8.1 C19.8,4.2 16.6,1.2 12.7,1.4 C8.8,1.6 5.8,4.8 6,8.7 C6,9.7 6.3,10.7 6.8,11.7 C2.6,12.7 0.1,16.9 1.1,21.1 C2,24.5 5,26.9 8.5,27 Z" id="Path"></path>
                <path d="M72.4,10.2 C73.1,10.2 73.7,9.7 73.7,9 L76.4,9 C76.3,7.2 75,5.7 73.2,5.5 L73.2,4.8 C73.1,3.3 74.2,1.9 75.7,1.7 C75.8,1.7 75.9,1.7 76,1.7 C77.5,1.7 78.9,2.7 78.9,5 L78.9,26.2 L78.1,26.2 C77.6,26.2 77.2,26.6 77.2,27.1 L77.2,27.1 L77.2,32.7 C77.2,33.2 77.6,33.6 78.1,33.6 C78.1,33.6 78.1,33.6 78.1,33.6 L81.2,33.6 C81.7,33.6 82.1,33.2 82.1,32.7 C82.1,32.7 82.1,32.7 82.1,32.7 L82.1,27 C82.1,26.5 81.7,26.1 81.2,26.1 L81.2,26.1 L80.5,26.1 L80.5,4.9 C80.7,2.4 78.8,0.2 76.3,0 C76.2,0 76.1,0 76,0 L76,0 C73.5,0 71.5,2 71.5,4.4 C71.5,4.5 71.5,4.6 71.5,4.7 L71.5,5.4 C69.7,5.6 68.3,7.2 68.3,9 L71,9 C71.2,9.7 71.8,10.2 72.4,10.2 Z" id="Path"></path>
                <path d="M34,28.3 L34,33.4 C34,33.5 34.1,33.6 34.1,33.6 C34.1,33.6 34.1,33.6 34.1,33.6 L36.3,33.6 C36.4,33.6 36.5,33.5 36.5,33.4 L36.5,28.3 C40.1,27.6 42.6,24.3 42.5,20.7 C42.5,16.2 39,8.7 34.9,8.7 C30.8,8.7 27.4,16.2 27.4,20.7 C27.4,24.4 30.2,27.7 34,28.3 Z" id="Path"></path>
                <g transform="translate(45.000000, 19.000000)">
                    <rect id="Rectangle" x="3.7" y="3.9" width="20.1" height="2.4"></rect>
                    <rect id="Rectangle" x="3.7" y="0.5" width="20.1" height="2.4"></rect>
                    <polygon id="Path" points="25 5.2 25 8 2.6 8 2.6 5.2 0.9 5.2 0.9 14.4 2.6 14.4 2.6 10 25 10 25 14.4 26.6 14.4 26.6 5.2"></polygon>
                </g>
                <g transform="translate(48.000000, 41.000000)" id="Path">
                    <path d="M7.9,6.7 C9.7,6.7 11.1,5.3 11.1,3.5 C11.1,1.7 9.7,0.3 7.9,0.3 C6.1,0.3 4.7,1.7 4.7,3.5 C4.7,5.3 6.2,6.7 7.9,6.7 L7.9,6.7 Z"></path>
                    <path d="M11.7,8 L11.5,8 L4.5,8 L4.3,8 C2.1,8.2 0.4,10.1 0.4,12.3 L0.4,21.2 C0.4,21.9 1,22.4 1.6,22.4 C2.2,22.4 2.8,21.8 2.8,21.2 L2.8,13.5 C2.8,13.2 2.9,12.8 3.4,12.8 C3.8,12.8 3.8,13.2 3.9,13.4 L3.9,36.4 C3.9,37.4 4.7,38.2 5.7,38.2 C6.7,38.2 7.5,37.4 7.5,36.4 L7.5,23.2 C7.5,22.9 7.7,22.7 7.9,22.7 C7.9,22.7 7.9,22.7 8,22.7 L8,22.7 C8.3,22.7 8.5,22.9 8.5,23.2 C8.5,23.2 8.5,23.2 8.5,23.2 L8.5,36.4 C8.5,37.4 9.3,38.2 10.3,38.2 C11.3,38.2 12.1,37.4 12.1,36.4 L12.1,13.4 C12.1,13.2 12.2,12.8 12.5,12.8 C13,12.8 13.1,13.2 13.1,13.5 L13.1,21.2 C13.1,21.9 13.7,22.4 14.3,22.4 C14.9,22.4 15.5,21.8 15.5,21.2 L15.5,12.3 C15.6,10 13.9,8.2 11.7,8 Z"></path>
                </g>
                <g transform="translate(0.000000, 42.000000)" id="Path">
                    <path d="M11.9,8.3 C13.6,8.3 14.9,7 15,5.4 C15,4.3 14.4,3.2 13.4,2.7 C13.5,2.5 13.6,2.4 13.6,2.2 C13.5,1.4 12.8,0.9 12.1,1 C11.3,0.9 10.7,1.5 10.6,2.2 C10.6,2.4 10.6,2.5 10.7,2.6 C9,3.2 8.3,5 9,6.5 C9.5,7.6 10.6,8.3 11.9,8.3 Z"></path>
                    <path d="M20.5,19.3 L18,11.1 C18,11.1 17.1,8.7 15.1,8.7 L8.7,8.7 C6.7,8.7 5.8,11.1 5.8,11.1 L3.3,19.3 C3.3,19.3 2.9,20.5 3.8,21 C3.8,21 3.8,21.1 3.8,21.1 L0.8,36.5 C0.8,36.8 0.9,37 1.2,37 C1.2,37 1.2,37 1.2,37 L1.3,37 C1.5,37 1.7,36.8 1.8,36.6 L4.8,21.2 C4.8,21.2 4.8,21.1 4.8,21.1 C5.6,21 5.9,20 5.9,20 L7.9,13.2 C7.9,13.2 8,12.7 8.4,12.8 C8.8,12.9 8.6,13.5 8.6,13.5 L5,26.4 L8.3,26.4 L8.3,35.6 C8.3,36.5 9,37.2 9.9,37.2 C10.8,37.2 11.5,36.5 11.5,35.6 C11.5,35.6 11.5,35.6 11.5,35.6 L11.5,26.4 L12.4,26.4 L12.4,35.6 C12.4,36.5 13.1,37.2 14,37.2 C14.9,37.2 15.6,36.5 15.6,35.6 C15.6,35.6 15.6,35.6 15.6,35.6 L15.6,26.4 L18.9,26.4 L15.3,13.6 C15.3,13.6 15.2,13 15.5,12.9 C15.8,12.8 16,13.3 16,13.3 L18,20.1 C18,20.1 18.4,21.6 19.6,21.2 C20.8,20.8 20.5,19.3 20.5,19.3 Z"></path>
                </g>
                <g transform="translate(23.000000, 50.000000)" id="Path">
                    <path d="M11,6.6 C12.6,6.6 13.9,5.2 13.8,3.6 C13.8,2 12.4,0.7 10.8,0.8 C9.2,0.8 8,2.1 8,3.7 C8,5.3 9.3,6.6 11,6.6 C10.9,6.6 11,6.6 11,6.6 Z"></path>
                    <path d="M23.1,24.6 L21.9,22.2 C21.9,22.2 21.9,22.2 21.9,22.1 L19,16.3 C18.7,15.8 18.2,15.5 17.6,15.5 L13.4,15.5 L13.3,10.3 C13.3,8.7 12.9,7.8 11.7,7.5 C11.1,7.4 10.5,7.4 9.9,7.5 L9.7,7.5 L9.7,7.5 L4.8,9.1 L4.7,9.1 L4.6,9.1 L4.5,9.1 C4.3,9.2 4.1,9.5 4,9.7 L2.6,13.6 C2.3,14.2 2.6,15 3.2,15.2 C3.8,15.5 4.6,15.2 4.8,14.6 C4.8,14.5 4.8,14.5 4.9,14.4 L6.1,11 L7.9,10.6 L8,10.6 L8,16.1 C8,17.3 8.4,18.6 9.6,18.9 L10,19 C10.2,19 10.4,19 10.6,19 L16.8,19 L18.4,22.2 C18.4,22.2 18.4,22.3 18.4,22.3 L19,23.4 L19.5,24.5 L19.6,24.6 L19.6,24.6 L20.3,25.9 C20.7,26.6 21.7,26.9 22.4,26.5 C23.2,26.2 23.5,25.3 23.1,24.6 L23.1,24.6 Z"></path>
                    <path d="M14.2,21.1 C14.2,21.2 14.2,21.3 14.2,21.4 C14.2,24.7 11.6,27.3 8.3,27.3 C5,27.3 2.4,24.7 2.4,21.4 C2.4,20.1 2.8,18.8 3.7,17.7 L2.2,16.5 C-0.4,19.9 0.2,24.8 3.5,27.4 C6.9,30 11.8,29.4 14.4,26.1 C15.5,24.7 16,23 16,21.3 C16,21.2 16,21.1 16,21 L14.2,21 L14.2,21.1 Z"></path>
                </g>
                <g transform="translate(67.000000, 47.000000)" id="Path">
                    <path d="M15.7,16.7 L13.5,9.5 C13.5,9.5 12.7,7.4 11,7.4 L5.4,7.4 C3.7,7.4 2.9,9.5 2.9,9.5 L0.7,16.7 C0.7,16.7 0.3,18 1.4,18.3 C2.5,18.6 2.8,17.4 2.8,17.4 L4.6,11.4 C4.6,11.4 4.7,10.9 5,11 C5.3,11.1 5.2,11.6 5.2,11.6 L2.1,22.8 L5,22.8 L5,30.8 C4.9,31.6 5.5,32.2 6.3,32.3 C7.1,32.4 7.7,31.8 7.8,31 C7.8,30.9 7.8,30.8 7.8,30.8 L7.8,22.8 L8.6,22.8 L8.6,30.8 C8.5,31.6 9.1,32.2 9.9,32.3 C10.7,32.4 11.3,31.8 11.4,31 C11.4,30.9 11.4,30.8 11.4,30.8 L11.4,22.8 L14.3,22.8 L11.2,11.6 C11.2,11.6 11.1,11.1 11.4,11 C11.7,10.9 11.8,11.4 11.8,11.4 L13.6,17.4 C13.6,17.4 13.9,18.7 15,18.3 C16.1,17.9 15.7,16.7 15.7,16.7 Z"></path>
                    <path d="M3.4,2.9 C3.5,2.7 3.8,2.2 4.6,2.1 C4.8,2.1 4.9,2 5.1,1.9 C5.2,1.6 5.4,1.4 5.6,1.1 C5.6,1 5.6,1 5.6,0.9 C5.6,0.5 5.1,5.55111512e-17 4.2,0.4 C3.1,0.9 3.2,2.6 3.2,2.6 C3.2,2.6 3.4,3 3.4,2.9 Z"></path>
                    <path d="M11.4,1.9 C11.6,2 11.7,2.1 11.9,2.1 C12.8,2.2 13.1,2.6 13.1,2.9 C13.1,3 13.1,2.9 13.2,2.7 C13.3,2.5 13.3,1.1 12.2,0.5 C11.3,0.1 10.9,0.6 10.8,1 C10.8,1.1 10.8,1.1 10.8,1.2 C11,1.4 11.2,1.7 11.4,1.9 Z"></path>
                    <path d="M8.2,6.7 C9.9,6.7 11.2,5.4 11.2,3.7 C11.2,2 9.9,0.7 8.2,0.7 C6.5,0.7 5.2,2 5.2,3.7 C5.2,5.4 6.6,6.7 8.2,6.7 Z"></path>
                </g>
            </g>
        </g>
    </g>
</svg>