<?xml version="1.0" encoding="UTF-8"?>
<svg width="95px" height="95px" viewBox="0 0 95 95" version="1.1" xmlns="http://www.w3.org/2000/svg" xmlns:xlink="http://www.w3.org/1999/xlink">
    <!-- Generator: Sketch 53.2 (72643) - https://sketchapp.com -->
    <title>goal_15_target_15_b</title>
    <desc>Created with Sketch.</desc>
    <g id="goal_15_target_15_b" stroke="none" stroke-width="1" fill="none" fill-rule="evenodd">
        <g id="Group-129" fill-rule="nonzero">
            <rect id="Rectangle" fill="#56C02B" x="1.45661261e-12" y="-2.13162821e-14" width="94.8" height="94.8"></rect>
            <g id="Group" transform="translate(7.700000, 10.000000)" fill="#FFFFFF">
                <path d="M62.2,63.4 L59.4,61.2 C59.2,61 58.8,60.9 58.6,61.2 C58.6,61.2 58.6,61.2 58.6,61.2 L58.6,61.2 C49.8,71.7 34.6,72.8 23.8,64.2 C23.5,63.9 23.2,63.7 22.9,63.4 L26.1,61.4 C26.4,61.2 26,60.9 26,60.9 L15,55.5 C14.7,55.3 14.6,55.5 14.6,55.7 L14.6,55.8 L14.6,55.8 L14.6,68.1 C14.6,68.2 14.7,68.5 15,68.3 L15,68.3 L18.5,66.1 C19.2,66.8 19.9,67.4 20.7,68 C33.5,78.3 51.6,76.9 62.2,64.5 L62.3,64.4 C62.5,64.1 62.5,63.7 62.2,63.4 C62.2,63.5 62.2,63.4 62.2,63.4 Z" id="Path"></path>
                <path d="M14.7,12.8 L17.6,14.9 C17.8,15.1 18.2,15.1 18.4,14.8 C18.4,14.8 18.4,14.8 18.4,14.8 L18.4,14.8 C26.6,3.8 41.7,1.8 52.9,9.8 C53.2,10 53.6,10.3 53.9,10.6 L50.9,12.8 C50.6,13 51.1,13.3 51.1,13.3 L62.1,18.1 C62.4,18.3 62.5,18 62.5,17.9 L62.5,17.8 L62.5,17.8 L61.8,5.5 C61.8,5.4 61.7,5.1 61.4,5.3 L61.4,5.3 L58,7.7 C57.3,7.1 56.5,6.5 55.7,5.9 C42.3,-3.6 24.3,-1.2 14.5,11.8 L14.4,11.9 C14.4,12.2 14.4,12.6 14.7,12.8 C14.7,12.8 14.7,12.8 14.7,12.8 Z" id="Path"></path>
                <path d="M75.3,46.5 L78.7,46.5 L74.5,39.1 L76.5,38.9 L73.4,34.1 L75.4,33.9 L71.2,28.5 L73,28.4 L69,21.4 L69,21.6 L68.9,21.4 L64.9,28.4 L66.7,28.6 L62.4,34 L64.4,34.2 L61.3,39 L63.3,39.2 L59.1,46.6 L67.4,46.6 L67.4,52.6 C67.4,52.7 67.5,52.8 67.6,52.8 C67.6,52.8 67.6,52.8 67.6,52.8 L70.2,52.8 C70.3,52.8 70.4,52.7 70.4,52.6 L70.4,46.6 L75.3,46.6 L75.3,46.5 Z" id="Path"></path>
                <path d="M16.6,46.8 L16.8,46.8 C17,46.8 17.2,46.6 17.2,46.4 C17.2,46.3 17.2,46.2 17.1,46.2 L9.4,21.4 L9.3,21.2 C9.2,21.1 9.1,21 8.9,21 C8.7,21 8.6,21.1 8.5,21.2 L8.4,21.3 L0.7,46.2 C0.7,46.3 0.7,46.3 0.7,46.4 C0.7,46.6 0.9,46.8 1.1,46.8 C1.1,46.8 1.1,46.8 1.1,46.8 L7.4,46.8 L7.4,52.6 C7.4,52.7 7.5,52.8 7.6,52.8 L10.2,52.8 C10.3,52.8 10.4,52.7 10.4,52.6 L10.4,46.8 L16.6,46.8 Z" id="Path"></path>
                <path d="M23.8,20.2 L23.8,20.2 C24.1,19.9 23.8,20.2 23.8,20.2 Z" id="Path"></path>
                <g transform="translate(23.000000, 26.000000)">
                    <path d="M14.2,19.9 C13.7,20.2 13.2,20.4 12.7,20.6 C11.2,21 9.6,21.2 8,21.2 C7.2,21.2 6.4,21.1 5.7,21 C5.2,20.9 4.8,20.8 4.3,20.7 C4.1,20.6 3.8,20.6 3.6,20.5 C2.9,20.3 2.3,20 1.8,19.6 C1.6,19.4 1.4,19.2 1.3,19 L1.3,19.6 C1.3,19.8 1.3,20.5 1.3,20.5 C1.3,20.9 1.5,21.3 1.8,21.5 C2.9,22.3 4.1,22.7 5.5,22.9 C6.4,23 7.3,23.1 8.2,23.1 C9.5,23.1 10.8,23 12.1,22.7 L12.1,22.7 C12.8,22.5 13.5,22.3 14.1,21.9 L14.1,21.9 C14.7,21.5 15.1,21.1 15.1,20.6 C15.1,20.6 15.2,19.2 15.1,19.1 C14.8,19.4 14.5,19.6 14.2,19.9 Z" id="Path"></path>
                    <path d="M7.4,15.2 C11.2,15.2 14.3,14.1 14.3,12.6 C14.3,12.6 14.4,11.3 14.3,11 C14.3,10.8 14.3,10.6 14.2,10.5 C14.6,10.3 14.9,9.8 14.9,9.3 C14.9,9.3 15,7.8 14.9,7.5 C14.7,5.8 11.2,4.8 8,4.8 C4.8,4.8 1.1,5.8 1.1,7.6 C1.1,7.7 1.2,9.2 1.2,9.2 C1.2,9.3 1.2,9.4 1.3,9.5 C0.8,9.8 0.5,10.3 0.5,10.9 C0.5,11 0.6,12.5 0.6,12.5 C0.6,12.9 0.8,13.3 1.1,13.5 C2.2,14.3 3.4,14.8 4.8,14.9 C5.6,15.1 6.5,15.2 7.4,15.2 Z M8.1,5.7 C11.8,5.7 14.3,6.8 14.3,7.8 C14.3,8.8 11.7,9.9 8.1,9.9 C4.5,9.9 1.9,8.8 1.9,7.8 C1.9,6.8 4.5,5.7 8.1,5.7 Z M1.2,11 C1.3,10.7 1.5,10.4 1.7,10.2 C1.9,10.4 2.1,10.6 2.4,10.7 C4.2,11.5 6.1,11.9 8.1,11.8 C9.7,11.8 11.4,11.6 12.9,11.1 C13.1,11 13.3,10.9 13.5,10.8 C13.5,10.9 13.5,10.9 13.5,11 C13.5,12 11,13.1 7.3,13.1 C3.6,13.1 1.2,12 1.2,11 Z" id="Shape"></path>
                    <path d="M5.4,20.5 C6.3,20.6 7.2,20.7 8.1,20.7 C9.4,20.7 10.7,20.6 12,20.3 L12,20.3 C12.7,20.1 13.3,19.9 13.9,19.5 L13.9,19.5 C14.1,19.4 14.2,19.3 14.3,19.2 C14.5,19 14.7,18.8 14.8,18.5 C14.8,18.4 14.9,18.3 14.9,18.1 C14.9,18.1 14.9,16.7 14.9,16.6 C14.7,16.9 14.1,17.8 11.4,18.3 C10.2,18.5 9.1,18.6 7.9,18.6 C6,18.7 4.1,18.3 2.4,17.5 C2.1,17.3 1.8,17.1 1.5,16.9 C1.3,16.7 1.2,16.6 1.1,16.4 C1.1,16.4 1.1,17.1 1.1,17.1 L1.1,18.1 C1.1,18.5 1.3,18.9 1.6,19.1 C2.7,19.9 4,20.4 5.4,20.5 Z" id="Path"></path>
                    <path d="M14.9,13.5 C14.8,13.4 14.7,13.4 14.7,13.3 C14.6,13.2 14.5,13.2 14.4,13.1 C14.3,13.2 14.2,13.4 14.1,13.5 C14.2,13.5 14.3,13.6 14.4,13.7 C14.6,13.8 14.7,14 14.7,14.2 C14.7,14.4 14.6,14.5 14.5,14.6 C14.4,14.7 14.3,14.7 14.2,14.8 C14.1,14.9 13.9,15 13.8,15 C13.8,15 13.4,15.2 13.2,15.3 L12.6,15.5 C12.5,15.5 12,15.7 11.8,15.7 C11.8,15.7 11.1,15.8 10.8,15.9 L9.7,16 L8,16.2 C7.3,16.2 6.5,16.1 5.8,16 C5.3,15.9 4.7,15.8 4.3,15.7 C3.7,15.6 3.2,15.4 2.6,15.2 C2.3,15.1 2,14.9 1.8,14.6 C1.6,14.4 1.4,14.1 1.3,13.9 L1.3,14.8 L1.3,15.6 C1.3,16 1.5,16.4 1.8,16.6 C2.9,17.4 4.2,17.8 5.5,18 C6.4,18.1 7.3,18.2 8.2,18.2 C9.5,18.2 10.8,18 12,17.7 L12,17.7 C12.7,17.6 13.4,17.3 14,17 L14,17 C14.1,16.9 14.3,16.8 14.4,16.7 C14.6,16.5 14.8,16.3 15,16 C15,15.9 15.1,15.8 15.1,15.6 C15.1,15.6 15.2,14.1 15.2,14.1 C15.2,14 15.2,13.9 15.1,13.8 C15,13.7 15,13.6 14.9,13.5 Z" id="Path"></path>
                    <path d="M23.3,10.2 C27.1,10.2 30.2,9 30.2,7.6 C30.2,7.6 30.3,6.3 30.3,6 C30.3,5.8 30.2,5.6 30.2,5.4 C30.6,5.2 30.9,4.7 31,4.2 C31,4.2 31.1,2.7 31,2.4 C30.8,0.9 27.3,0 24,0 C20.7,0 17,1 17,2.8 C17,2.9 17.1,4.4 17.1,4.4 C17.1,4.5 17.1,4.6 17.2,4.7 C16.7,5 16.4,5.5 16.3,6.1 C16.3,6.2 16.4,7.7 16.4,7.7 C16.4,8.1 16.6,8.5 16.9,8.7 C18,9.4 19.3,9.9 20.6,10 C21.5,10.1 22.4,10.2 23.3,10.2 Z M24,0.7 C27.7,0.7 30.2,1.8 30.2,2.8 C30.2,3.8 27.7,4.9 24,4.9 C20.3,4.9 17.8,3.8 17.8,2.8 C17.8,1.8 20.3,0.7 24,0.7 Z M17,6.1 C17.1,5.8 17.3,5.5 17.5,5.3 C17.7,5.5 17.9,5.7 18.2,5.8 C20,6.6 21.9,7 23.9,6.9 C25.6,6.9 27.2,6.7 28.8,6.1 C29,6 29.2,5.9 29.4,5.8 C29.4,5.9 29.4,5.9 29.4,6 C29.4,7 26.8,8.1 23.2,8.1 C19.6,8.1 17.1,7 17,6.1 L17,6.1 Z" id="Shape"></path>
                    <path d="M30.9,8.8 C30.9,8.7 30.8,8.6 30.7,8.5 L30.5,8.3 C30.4,8.2 30.3,8.2 30.2,8.1 C30.1,8.3 30,8.4 29.9,8.5 C30,8.5 30.1,8.6 30.2,8.7 C30.4,8.8 30.5,9 30.5,9.2 C30.5,9.4 30.4,9.6 30.3,9.7 C30.2,9.8 30.1,9.9 30,9.9 L29.6,10.1 C29.6,10.1 29.2,10.3 29,10.4 L28.4,10.6 C28.3,10.6 27.8,10.8 27.6,10.8 C27.6,10.8 26.9,10.9 26.6,11 L25.5,11.1 C25.4,11.1 24.4,11.2 23.9,11.2 C23.2,11.2 22.5,11.1 21.8,11 C21.3,10.9 20.8,10.8 20.2,10.7 C19.6,10.6 19.1,10.4 18.5,10.2 C17.9,9.9 17.4,9.5 17.1,8.9 L17.1,9.8 L17.1,10.6 C17.1,11 17.3,11.4 17.6,11.6 C18.7,12.4 20,12.8 21.3,13 C22.2,13.1 23.1,13.2 24,13.2 C25.3,13.2 26.6,13.1 27.8,12.8 L27.8,12.8 C28.5,12.6 29.2,12.4 29.8,12 L29.8,12 C30,11.9 30.1,11.8 30.2,11.7 C30.4,11.5 30.6,11.3 30.7,11 C30.7,10.9 30.8,10.8 30.8,10.6 C30.8,10.6 30.9,9.1 30.9,9.1 C31,9 31,8.9 30.9,8.8 Z" id="Path"></path>
                    <path d="M30.1,14.9 C29.6,15.2 29.1,15.4 28.6,15.6 C27.1,16 25.5,16.2 23.9,16.2 C23.1,16.2 22.3,16.2 21.6,16.1 C21.1,16 20.7,15.9 20.2,15.8 C20,15.7 19.7,15.7 19.5,15.6 C18.8,15.4 18.2,15.1 17.7,14.7 C17.5,14.5 17.3,14.4 17.2,14.1 L17.2,14.7 C17.2,14.9 17.2,15.6 17.2,15.6 C17.2,16 17.4,16.4 17.7,16.6 C18.8,17.4 20.1,17.8 21.4,18 C22.3,18.1 23.2,18.2 24.1,18.2 C25.4,18.2 26.7,18.1 27.9,17.8 L27.9,17.8 C28.6,17.6 29.3,17.4 29.9,17 L29.9,17 C30.6,16.6 30.9,16.2 30.9,15.7 C30.9,15.7 30.9,14.3 30.9,14.2 C30.6,14.4 30.4,14.7 30.1,14.9 Z" id="Path"></path>
                    <path d="M17.6,14.1 C18.7,14.9 20,15.3 21.3,15.5 C22.2,15.6 23.1,15.7 24,15.7 C25.3,15.7 26.6,15.6 27.8,15.3 L27.8,15.3 C28.5,15.1 29.1,14.9 29.7,14.5 L29.7,14.5 C29.9,14.4 30,14.3 30.1,14.2 C30.3,14 30.5,13.8 30.6,13.5 C30.6,13.4 30.7,13.3 30.7,13.1 C30.7,13.1 30.7,11.7 30.7,11.6 C30.5,11.9 29.9,12.8 27.2,13.4 C26,13.6 24.9,13.7 23.7,13.7 C21.8,13.7 19.9,13.4 18.2,12.6 C17.9,12.4 17.6,12.2 17.3,12 C17.1,11.8 17,11.7 16.9,11.5 C16.9,11.5 16.9,12.2 16.9,12.2 L16.9,13.2 C17,13.6 17.3,13.9 17.6,14.1 Z" id="Path"></path>
                    <path d="M31,19 C30.8,19.3 30.5,19.6 30.2,19.8 C29.7,20.1 29.2,20.3 28.7,20.5 C27.2,20.9 25.6,21.1 24,21.1 C23.2,21.1 22.4,21 21.7,20.9 C21.2,20.8 20.8,20.7 20.3,20.6 C20.1,20.5 19.8,20.5 19.6,20.4 C18.9,20.2 18.3,19.9 17.8,19.5 C17.6,19.3 17.4,19.2 17.3,18.9 L17.3,19.5 C17.3,19.7 17.3,20.4 17.3,20.4 C17.3,20.8 17.5,21.2 17.8,21.4 C18.9,22.2 20.1,22.6 21.5,22.8 C22.4,22.9 23.3,23 24.2,23 C25.5,23 26.8,22.9 28.1,22.6 L28.1,22.6 C28.8,22.4 29.5,22.2 30.1,21.8 L30.1,21.8 C30.7,21.4 31.1,21 31.1,20.5 C30.9,20.5 31,19.1 31,19 Z" id="Path"></path>
                    <path d="M21.3,20.4 C22.2,20.5 23.1,20.6 24,20.6 C25.3,20.6 26.6,20.5 27.9,20.2 L27.9,20.2 C28.6,20 29.3,19.8 29.9,19.4 L29.9,19.4 C30.1,19.3 30.2,19.2 30.3,19.1 C30.5,18.9 30.7,18.7 30.8,18.4 C30.8,18.3 30.9,18.2 30.9,18 C30.9,18 30.9,16.6 30.9,16.5 C30.7,16.8 30.1,17.7 27.4,18.3 C26.2,18.5 25.1,18.6 23.9,18.6 C22,18.6 20.1,18.3 18.4,17.5 C18.1,17.3 17.8,17.1 17.5,16.9 C17.3,16.7 17.2,16.6 17.1,16.4 C17.1,16.4 17.1,17.1 17.1,17.1 L17.1,18.1 C17.1,18.5 17.3,18.9 17.6,19.1 C18.7,19.9 20,20.3 21.3,20.4 Z" id="Path"></path>
                </g>
            </g>
        </g>
    </g>
</svg>