<?xml version="1.0" encoding="UTF-8"?>
<svg width="95px" height="95px" viewBox="0 0 95 95" version="1.1" xmlns="http://www.w3.org/2000/svg" xmlns:xlink="http://www.w3.org/1999/xlink">
    <!-- Generator: Sketch 53.2 (72643) - https://sketchapp.com -->
    <title>goal_4_target_4_c</title>
    <desc>Created with Sketch.</desc>
    <g id="goal_4_target_4_c" stroke="none" stroke-width="1" fill="none" fill-rule="evenodd">
        <g id="Group-28" fill-rule="nonzero">
            <rect id="Rectangle" fill="#C5192D" x="-3.62376795e-13" y="-2.13162821e-14" width="94.8" height="94.8"></rect>
            <g id="Group" transform="translate(11.700000, 8.000000)" fill="#FFFFFF">
                <path d="M68.3,24.2 L68.3,3.8 L33.3,3.8 L33.3,24.2 L33.9,24.2 L35.6,21 C35.9,20.4 36.6,20 37.3,20 C37.6,20 37.9,20.1 38.2,20.2 L38.4,20.3 C39.3,20.8 39.7,21.9 39.2,22.8 L38.5,24.2 L68.3,24.2 L68.3,24.2 Z" id="Path"></path>
                <path d="M70.8,0.7 L30.6,0.7 C30.3,0.7 30.1,0.9 30.1,1.2 L30.1,26.9 C30.1,27.2 30.3,27.4 30.6,27.4 L32.2,27.4 L32.7,26.4 L31.1,26.4 L31.1,1.7 L70.3,1.7 L70.3,26.4 L37.2,26.4 L36.7,27.4 L70.9,27.4 C71.2,27.4 71.4,27.2 71.4,26.9 L71.4,1.2 C71.3,0.9 71.1,0.7 70.8,0.7 Z" id="Path"></path>
                <rect id="Rectangle" x="36.4" y="46.5" width="35" height="4.1"></rect>
                <rect id="Rectangle" x="38.5" y="52.7" width="2.9" height="25.6"></rect>
                <g transform="translate(53.000000, 52.000000)" id="Rectangle">
                    <rect x="0.5" y="0.7" width="15.8" height="6.3"></rect>
                    <rect x="0.5" y="8.3" width="15.8" height="6.3"></rect>
                    <rect x="0.5" y="15.9" width="15.8" height="10.3"></rect>
                </g>
                <path d="M9.6,21.2 C9.6,24.3 12.1,26.8 15.1,26.8 C18.2,26.8 20.7,24.3 20.7,21.3 C20.7,19.3 19.6,17.4 17.8,16.4 C18,16.1 18.1,15.8 18.1,15.4 C18,14 16.7,13 15.4,13.2 C14,13 12.7,14 12.6,15.4 C12.6,15.7 12.7,16 12.8,16.2 C10.8,17.1 9.6,19.1 9.6,21.2 Z" id="Path"></path>
                <path d="M37.6,21.5 L37.4,21.4 C37.3,21.4 37.3,21.4 37.2,21.4 C37.1,21.4 36.9,21.5 36.9,21.6 L35.6,24.1 L34.4,26.3 L33.9,27.3 L32.6,30 L32,31.2 L31.3,31.2 C30.5,31.2 29.8,31.6 29.5,32.3 L27.3,36.3 L26.2,32.7 C26.2,32.7 24.9,29.4 22.1,28.7 C21.7,28.6 21.2,28.6 20.8,28.5 L19,28.5 L15.2,32.3 L11.4,28.5 L9.7,28.5 C9.3,28.5 8.9,28.6 8.5,28.7 C6,29.6 4.8,32.6 4.8,32.6 L0.3,47 C0.3,47 -0.5,49.6 1.8,50.3 C4.1,51 4.7,48.4 4.7,48.4 L8.3,36.4 C8.3,36.4 8.5,35.5 9.2,35.7 C9.9,35.9 9.6,36.9 9.6,36.9 L3.4,59.4 L9.2,59.4 L9.2,75.5 C9.3,77 10.6,78.2 12.1,78.1 C13.5,78 14.6,76.9 14.7,75.5 L14.7,59.3 L16.3,59.3 L16.3,75.4 C16.3,76.9 17.5,78.2 19.1,78.2 C20.7,78.2 21.9,77 21.9,75.4 L21.9,75.4 L21.9,59.3 L27.7,59.3 L21.5,36.8 C21.5,36.8 21.2,35.8 21.9,35.6 C22.6,35.4 22.8,36.3 22.8,36.3 L24,40.3 L24,40.3 L24.7,42.5 C25,43.6 26.2,44.2 27.3,43.9 C27.8,43.8 28.2,43.4 28.5,43 L28.5,43 L28.5,43 C28.5,43 28.6,42.9 28.6,42.9 L32.6,35.5 C33.5,35.2 34.2,34.3 34.1,33.4 C34.1,32.6 33.7,31.9 33.1,31.5 L35.3,27.3 L35.8,26.3 L37,24.1 L38.1,22 C37.9,21.9 37.8,21.6 37.6,21.5 C37.6,21.5 37.6,21.5 37.6,21.5 Z" id="Path"></path>
            </g>
        </g>
    </g>
</svg>