<?xml version="1.0" encoding="UTF-8"?>
<svg width="95px" height="95px" viewBox="0 0 95 95" version="1.1" xmlns="http://www.w3.org/2000/svg" xmlns:xlink="http://www.w3.org/1999/xlink">
    <!-- Generator: Sketch 53.2 (72643) - https://sketchapp.com -->
    <title>goal_15_target_15_a</title>
    <desc>Created with Sketch.</desc>
    <g id="goal_15_target_15_a" stroke="none" stroke-width="1" fill="none" fill-rule="evenodd">
        <g id="Group-128" fill-rule="nonzero">
            <rect id="Rectangle" fill="#56C02B" x="1.45661261e-12" y="-2.13162821e-14" width="94.8" height="94.8"></rect>
            <g id="Group" transform="translate(7.700000, 11.000000)" fill="#FFFFFF">
                <g transform="translate(57.000000, 11.000000)" id="Path">
                    <path d="M17.6,37.8 L18,30.8 L17.1,29.7 L16.7,37.8 C17.5,38.1 17.6,37.8 17.6,37.8 Z"></path>
                    <path d="M6.6,37.8 C7.4,38.1 7.6,37.8 7.6,37.8 L7.9,31.2 L7.1,28.2 L6.6,37.8 Z"></path>
                    <path d="M3.7,1.2 C3.7,1.4 3.7,1.7 3.8,1.9 C2.8,2.2 1.9,2.7 1.1,3.4 C0.6,3.6 0.2,4.1 0.2,4.7 L4,4.7 L7.1,21.3 C6.9,22 7,22.8 7.2,23.5 L10.4,37.7 C11.2,38 11.4,37.7 11.4,37.7 L10.2,30.8 C9.5,25.7 10.6,25.3 10.6,25.3 L15.2,25.3 C16.2,27.3 17.5,29.2 19.1,30.8 L20.4,37.7 C21.2,38 21.3,37.7 21.3,37.7 L18.8,23.5 L20,26.9 L20.8,29.1 C20.8,29.1 20.3,30.4 21.3,30.7 L20.6,27 L19.6,24.1 C19.6,24.1 19.5,22.7 17.4,21.4 L10.5,17.3 L5.7,2.9 C5.7,2.9 6.6,1.8 6.1,1.7 C5.7,1.7 5.3,1.7 5,1.9 C4.8,1.9 4.6,1.9 4.3,1.9 C4.3,1.6 4.2,1.3 4.1,1.1 C4.2,1 4.2,0.9 4.2,0.8 C4.2,0.5 4,0.3 3.7,0.3 C3.4,0.3 3.2,0.5 3.2,0.8 L3.2,0.8 C3.3,0.9 3.5,1.1 3.7,1.2 Z"></path>
                </g>
                <path d="M28.7,20 L34.3,20 C35.6,20.9 37,21.8 37.8,22.3 C39.2,23.1 40.2,23.9 41.3,24.7 L40,48.2 C40,48.2 40,48.3 40,48.3 C40,48.3 40,48.3 40,48.4 C40,48.5 40.1,48.6 40.2,48.6 L47,48.6 C47.1,48.6 47.2,48.5 47.2,48.3 L47.2,48.3 L47.2,48.3 L46,24.3 C46.9,23.9 47.9,23.6 48.8,23.2 C49.7,22.8 50.7,22.4 51.6,21.9 C52.1,21.6 52.7,21.4 53.2,21.1 L56.6,21.1 C57.2,21.2 57.8,20.9 57.9,20.3 C58,19.7 57.7,19.1 57.1,19 C56.9,19 56.8,19 56.6,19 L56,19 C56,18.8 55.9,18.6 55.7,18.5 C55,18.2 54.3,18.1 53.5,18.3 C53.4,18.1 53.3,18 53.2,17.9 C52.6,17.3 50.3,17.2 49.1,17.9 C48.7,18.1 48.4,18.5 48.4,19 L48.4,19 C47.8,18.9 47.2,19.2 47.1,19.8 C47,20.4 47.3,21 47.9,21.1 C48.1,21.1 48.2,21.1 48.4,21.1 L50.4,21.1 C49.7,21.3 48.9,21.4 48.2,21.6 C47.2,21.9 46.2,22.1 45.2,22.5 L43.6,18.9 L48.3,15.5 L52.9,15.5 C53.9,15.5 54.7,14.7 54.7,13.7 C54.7,12.7 53.9,11.9 52.9,11.9 L51.2,11.9 C51.1,11.6 50.9,11.3 50.7,11.1 C50.1,10.6 48.4,10.4 47,10.6 C46.9,10.4 46.7,10.2 46.5,10.1 C45.6,9.3 42.5,9.2 40.9,10 C40.1,10.2 39.7,11.1 40,11.8 C40,11.8 40,11.8 40,11.8 L38.5,11.8 C37.5,11.8 36.7,12.6 36.7,13.6 C36.7,14.6 37.5,15.4 38.5,15.4 L41.5,15.4 L43.4,23.1 L43,23.2 C41.7,22.4 40.4,21.8 39,21.1 C38.3,20.8 37.6,20.4 36.8,20 L39.6,20 C40.6,20 41.4,19.4 41.4,18.8 C41.4,18.2 40.6,17.6 39.6,17.6 L38.7,17.6 C38.6,17.3 38.4,17 38.2,16.7 C37.4,16 34.6,15.9 33.2,16.6 C32.8,16.8 32.5,17.1 32.4,17.5 L28.8,17.5 C27.8,17.5 27,18.1 27,18.7 C27,19.3 27.7,20 28.7,20 Z M46.4,15.5 L42.8,17.3 L42,15.4 L46.4,15.5 Z" id="Shape"></path>
                <path d="M66.7,4.6 L75.7,8.7 L76.6,8.4 L74.9,7.7 L72.5,5.3 L72.9,4.7 L78.7,1.2 L71.7,0.8 L70,3.3 L67.6,2.8 C67.6,2.8 65.5,4.1 65.9,5 C66,4.7 66.7,4.6 66.7,4.6 Z" id="Path"></path>
                <path d="M35.4,69.6 L35.4,69.6 C44.8,78.3 54.6,71.1 56.7,69.4 L56.9,69.2 C57,69.2 57,69.2 57.1,69.2 C57.2,69.2 57.2,69.2 57.3,69.2 L57.5,69.4 C59.5,71.1 69.2,78.2 78.5,69.8 L78.8,69.6 C78.9,69.5 78.9,69.4 78.9,69.3 L78.9,64.7 C78.9,64.5 78.7,64.3 78.5,64.3 C78.5,64.3 78.5,64.3 78.5,64.3 C78.5,64.3 78.4,64.3 78.3,64.3 L78.1,64.4 C75.3,66.4 65.9,72 57.6,64.2 L57.5,64.1 C57.4,64 57.3,64 57.1,64 C57,64 56.8,64.1 56.8,64.1 L56.7,64.2 C48.5,71.9 39.3,66.6 36.3,64.5 L36,64.3 C35.9,64.3 35.8,64.2 35.8,64.2 C35.6,64.2 35.4,64.4 35.4,64.6 L35.4,69.2 L35.4,69.2 L35.4,69.2 C35.3,69.4 35.4,69.5 35.4,69.6 Z" id="Path"></path>
                <path d="M35.8,55.1 L78.5,55.1 C78.8,55.1 79.1,55.4 79.1,55.7 L79.1,55.7 L79.1,59.3 C79.1,59.6 78.8,59.9 78.5,59.9 L35.8,59.9" id="Path"></path>
                <path d="M27.7,57.8 L20.5,63.5 C20.4,63.6 20.3,63.6 20.2,63.6 C20,63.6 20,63.5 20,63.3 L20,60.4 L1.1,60.4 C1,60.4 0.8,60.3 0.9,60.1 C0.9,60.1 0.9,60.1 0.9,60.1 L0.9,55.1 C0.9,55 1,54.8 1.1,54.8 L20,54.8 L20,52 C20,51.8 20,51.7 20.2,51.7 C20.3,51.7 20.4,51.7 20.5,51.8 L27.7,57.3 C27.8,57.4 27.9,57.5 27.9,57.7 C27.9,57.7 27.8,57.8 27.7,57.8 Z" id="Path"></path>
                <g transform="translate(0.000000, 27.000000)">
                    <path d="M12.5,18.1 C12.1,18.4 11.7,18.6 11.2,18.7 C9.9,19.1 8.5,19.3 7.1,19.2 C6.4,19.2 5.8,19.1 5.1,19 C4.6,18.9 4.3,18.9 3.9,18.8 L3.3,18.6 C2.7,18.4 2.2,18.2 1.7,17.8 C1.5,17.7 1.4,17.5 1.3,17.3 L1.3,17.8 C1.3,18 1.3,18.6 1.3,18.6 C1.3,18.9 1.5,19.3 1.8,19.5 C2.7,20.2 3.8,20.6 5,20.7 C5.8,20.8 6.5,20.9 7.3,20.9 C8.4,20.9 9.5,20.8 10.6,20.5 L10.6,20.5 C11.2,20.4 11.8,20.1 12.3,19.8 L12.3,19.8 C12.8,19.5 13.2,19.1 13.2,18.6 C13.2,18.6 13.2,17.4 13.2,17.3 C13,17.6 12.7,17.9 12.5,18.1 Z" id="Path"></path>
                    <path d="M6.6,14 C9.9,14 12.6,13 12.6,11.8 C12.6,11.8 12.7,10.7 12.6,10.4 C12.6,10.2 12.6,10.1 12.5,9.9 C12.9,9.7 13.1,9.3 13.2,8.9 C13.2,8.9 13.3,7.6 13.2,7.4 C13,5.9 10,5.1 7.2,5.1 C4.4,5.1 1.2,5.9 1.2,7.5 C1.2,7.6 1.3,8.9 1.3,8.9 C1.3,9 1.3,9.1 1.4,9.2 C1,9.5 0.7,9.9 0.6,10.4 C0.6,10.5 0.7,11.8 0.7,11.8 C0.7,12.1 0.9,12.5 1.2,12.7 C2.1,13.4 3.2,13.8 4.4,13.9 C5.1,13.9 5.9,14 6.6,14 Z M7.3,5.7 C10.5,5.7 12.7,6.7 12.7,7.5 C12.7,8.3 10.5,9.3 7.3,9.3 C4.1,9.3 1.9,8.4 1.9,7.5 C1.9,6.6 4.1,5.8 7.3,5.7 L7.3,5.7 Z M1.3,10.4 C1.4,10.1 1.5,9.9 1.8,9.7 C2,9.9 2.2,10 2.4,10.1 C3.9,10.8 5.6,11.2 7.3,11.1 C8.7,11.1 10.2,10.9 11.5,10.4 C11.7,10.3 11.8,10.3 12,10.2 C12,10.2 12,10.3 12,10.3 C12,11.1 9.8,12.1 6.6,12.1 C3.4,12.1 1.2,11.3 1.3,10.4 L1.3,10.4 Z" id="Shape"></path>
                    <path d="M4.9,18.6 C5.7,18.7 6.4,18.8 7.2,18.8 C8.3,18.8 9.4,18.7 10.5,18.4 L10.5,18.4 C11.1,18.3 11.7,18 12.2,17.7 L12.2,17.7 C12.3,17.6 12.5,17.5 12.6,17.4 C12.8,17.2 12.9,17 13.1,16.8 C13.1,16.7 13.2,16.6 13.2,16.5 C13.2,16.5 13.2,15.3 13.2,15.2 C13,15.4 12.5,16.2 10.1,16.7 C9.1,16.9 8.1,17 7.1,17 C5.5,17 3.8,16.7 2.3,16.1 C2,16 1.8,15.8 1.5,15.6 C1.4,15.5 1.2,15.3 1.1,15.2 C1.1,15.2 1.1,15.8 1.1,15.8 L1.1,16.7 C1.1,17 1.3,17.3 1.6,17.5 C2.6,18.1 3.7,18.5 4.9,18.6 Z" id="Path"></path>
                    <path d="M13.1,12.6 C13.1,12.6 13,12.5 13,12.5 C12.9,12.4 12.8,12.4 12.8,12.4 C12.7,12.5 12.6,12.7 12.5,12.7 L12.7,12.8 C12.9,12.9 13,13.1 13,13.3 C13,13.5 12.9,13.6 12.8,13.7 C12.7,13.8 12.7,13.8 12.6,13.9 L12.1,14 C12.1,14 11.7,14.2 11.6,14.2 C11.5,14.2 11.2,14.3 11.1,14.4 L10.4,14.6 L9.5,14.8 L8.6,14.9 L7.2,15 C6.6,15 5.9,15 5.3,14.9 C4.8,14.8 4.4,14.7 3.9,14.7 C3.4,14.6 2.9,14.4 2.5,14.2 C2.2,14.1 2,13.9 1.8,13.7 C1.6,13.5 1.4,13.3 1.3,13.1 C1.3,13.1 1.3,13.9 1.3,13.9 L1.3,14.6 C1.3,14.9 1.5,15.3 1.8,15.5 C2.7,16.2 3.8,16.6 5,16.7 C5.8,16.8 6.5,16.9 7.3,16.9 C8.4,16.9 9.5,16.8 10.6,16.5 L10.6,16.5 C11.2,16.4 11.8,16.1 12.3,15.8 L12.3,15.8 C12.4,15.7 12.6,15.6 12.7,15.5 C12.9,15.3 13.1,15.1 13.2,14.9 C13.2,14.8 13.3,14.7 13.3,14.6 C13.3,14.6 13.3,13.3 13.3,13.3 C13.3,13.2 13.3,13.1 13.3,13 C13.1,12.7 13.1,12.6 13.1,12.6 Z" id="Path"></path>
                    <path d="M20.4,9.7 C23.7,9.7 26.4,8.7 26.4,7.5 C26.4,7.5 26.5,6.4 26.4,6.1 C26.4,5.9 26.3,5.8 26.3,5.6 C26.7,5.4 26.9,5 27,4.6 C27,4.6 27,3.3 27,3.1 C26.8,1.6 23.8,0.8 21,0.8 C18.2,0.8 15,1.6 15,3.2 C15,3.3 15.1,4.6 15.1,4.6 C15.1,4.7 15.1,4.8 15.2,4.9 C14.8,5.2 14.5,5.6 14.4,6.1 C14.4,6.2 14.5,7.5 14.5,7.5 C14.5,7.8 14.7,8.2 15,8.4 C15.9,9.1 17,9.5 18.2,9.6 C18.8,9.7 19.6,9.7 20.4,9.7 Z M21,1.5 C24.2,1.5 26.4,2.5 26.4,3.3 C26.4,4.1 24.2,5.1 21,5.1 C17.8,5.1 15.6,4.1 15.6,3.3 C15.6,2.5 17.8,1.5 21,1.5 Z M15,6.1 C15,5.9 15.2,5.7 15.5,5.4 C15.7,5.6 15.9,5.7 16.1,5.8 C17.7,6.5 19.3,6.9 21.1,6.8 C22.5,6.8 24,6.6 25.3,6.1 C25.5,6 25.7,6 25.8,5.9 C25.8,5.9 25.8,6 25.8,6 C25.8,6.9 23.6,7.8 20.4,7.8 C17.2,7.8 15,7 15,6.1 Z" id="Shape"></path>
                    <path d="M27,8.5 C27,8.4 26.9,8.3 26.8,8.3 C26.8,8.2 26.7,8.2 26.6,8.2 C26.5,8.1 26.4,8.1 26.3,8.1 C26.2,8.2 26.1,8.3 26,8.4 C26.1,8.4 26.2,8.5 26.2,8.5 C26.4,8.6 26.5,8.8 26.5,8.9 C26.5,9.1 26.4,9.2 26.3,9.3 C26.2,9.4 26.2,9.4 26.1,9.5 L25.8,9.7 L25.3,9.9 L24.8,10.1 C24.8,10.1 24.3,10.2 24.1,10.3 C23.9,10.4 23.5,10.4 23.2,10.5 L22.3,10.6 C22.2,10.6 21.3,10.7 20.9,10.7 C20.3,10.7 19.6,10.7 19,10.6 C18.5,10.5 18.1,10.5 17.7,10.4 C17.2,10.3 16.7,10.1 16.3,10 C16,9.9 15.8,9.7 15.6,9.5 C15.4,9.3 15.3,9.1 15.1,8.9 L15.1,9.7 L15.1,10.4 C15.1,10.7 15.3,11.1 15.6,11.3 C16.5,12 17.6,12.4 18.8,12.5 C19.6,12.6 20.4,12.7 21.2,12.7 C22.3,12.7 23.4,12.6 24.5,12.3 L24.5,12.3 C25.1,12.2 25.6,11.9 26.2,11.6 L26.2,11.6 C26.3,11.5 26.5,11.4 26.6,11.3 C26.8,11.1 26.9,10.9 27,10.7 C27,10.6 27.1,10.5 27.1,10.4 C27.1,10.4 27.1,9.2 27.1,9.1 C27,8.7 27,8.6 27,8.5 Z" id="Path"></path>
                    <path d="M26.2,13.7 C25.8,14 25.4,14.2 24.9,14.3 C23.6,14.7 22.2,14.9 20.8,14.8 C20.1,14.8 19.5,14.7 18.8,14.6 C18.4,14.5 18,14.5 17.6,14.4 L17,14.3 C16.4,14.1 15.9,13.9 15.4,13.5 C15.2,13.4 15.1,13.2 14.9,13 L14.9,13.5 C14.9,13.7 14.9,14.3 14.9,14.3 C14.9,14.6 15.1,15 15.4,15.2 C16.3,15.9 17.4,16.3 18.6,16.4 C19.4,16.5 20.1,16.6 20.9,16.6 C22,16.6 23.1,16.5 24.2,16.2 L24.2,16.2 C24.8,16.1 25.4,15.8 25.9,15.5 L25.9,15.5 C26.5,15.2 26.8,14.8 26.8,14.3 C26.8,14.3 26.8,13.1 26.8,13 C26.7,13.3 26.5,13.6 26.2,13.7 Z" id="Path"></path>
                    <path d="M15.5,13.1 C16.4,13.8 17.5,14.2 18.7,14.3 C19.5,14.4 20.2,14.5 21,14.5 C22.1,14.5 23.2,14.4 24.3,14.1 L24.3,14.1 C24.9,14 25.5,13.7 26,13.4 L26,13.4 C26.1,13.3 26.3,13.2 26.4,13.1 C26.6,13 26.8,12.8 26.9,12.5 C26.9,12.4 27,12.3 27,12.2 C27,12.2 27,11 27,10.9 C26.8,11.1 26.3,11.9 23.9,12.4 C22.9,12.6 21.9,12.7 20.9,12.7 C19.3,12.7 17.6,12.4 16.1,11.8 C15.8,11.7 15.6,11.5 15.3,11.3 C15.2,11.2 15,11 14.9,10.9 C14.9,10.9 14.9,11.5 14.9,11.5 L14.9,12.4 C15,12.6 15.2,12.9 15.5,13.1 Z" id="Path"></path>
                    <path d="M27,17.3 C26.8,17.6 26.6,17.8 26.3,18 C25.9,18.3 25.5,18.5 25,18.6 C23.7,19 22.3,19.2 20.9,19.1 C20.2,19.1 19.6,19 18.9,18.9 C18.4,18.8 18.1,18.8 17.7,18.7 L17.1,18.5 C16.5,18.3 16,18.1 15.5,17.7 C15.3,17.6 15.2,17.4 15,17.2 L15,17.7 C15,17.9 15,18.5 15,18.5 C15,18.8 15.2,19.2 15.5,19.4 C16.4,20.1 17.5,20.5 18.7,20.6 C19.5,20.7 20.2,20.8 21,20.8 C22.1,20.8 23.2,20.7 24.3,20.4 L24.3,20.4 C24.9,20.3 25.5,20 26,19.7 L26,19.7 C26.6,19.4 26.9,19 26.9,18.5 C27,18.7 27,17.4 27,17.3 Z" id="Path"></path>
                    <path d="M18.6,18.6 C19.4,18.7 20.1,18.8 20.9,18.8 C22,18.8 23.1,18.7 24.2,18.4 L24.2,18.4 C24.8,18.3 25.4,18 25.9,17.7 L25.9,17.7 C26,17.6 26.2,17.5 26.3,17.4 C26.5,17.2 26.7,17 26.8,16.8 C26.8,16.7 26.9,16.6 26.9,16.5 C26.9,16.5 26.9,15.3 26.9,15.2 C26.7,15.4 26.2,16.2 23.8,16.7 C22.8,16.9 21.8,17 20.8,17 C19.2,17 17.5,16.7 16,16.1 C15.7,16 15.5,15.8 15.2,15.6 C15.1,15.5 14.9,15.3 14.8,15.2 C14.8,15.2 14.8,15.8 14.8,15.8 L14.8,16.7 C14.8,17 15,17.3 15.3,17.5 C16.4,18.1 17.5,18.5 18.6,18.6 Z" id="Path"></path>
                </g>
            </g>
        </g>
    </g>
</svg>