<?xml version="1.0" encoding="UTF-8"?>
<svg width="95px" height="95px" viewBox="0 0 95 95" version="1.1" xmlns="http://www.w3.org/2000/svg" xmlns:xlink="http://www.w3.org/1999/xlink">
    <!-- Generator: Sketch 53.2 (72643) - https://sketchapp.com -->
    <title>goal_11_target_11_3</title>
    <desc>Created with Sketch.</desc>
    <g id="goal_11_target_11_3" stroke="none" stroke-width="1" fill="none" fill-rule="evenodd">
        <g id="Group-85" fill-rule="nonzero">
            <rect id="Rectangle" fill="#FD9D24" x="-3.62376795e-13" y="-2.13162821e-14" width="94.8" height="94.8"></rect>
            <g id="Group" transform="translate(9.700000, 7.000000)" fill="#FFFFFF">
                <g transform="translate(1.000000, 51.000000)" id="Path">
                    <g transform="translate(17.000000, 12.000000)">
                        <path d="M9.1,3.6 C8.7,3.4 8.3,3.6 8.1,3.9 C7.7,4.6 7.3,5.3 6.8,5.9 C6.6,6.1 6.4,6.2 6.2,6.2 L3.8,6.2 C3.6,6.2 3.3,6.1 3.2,5.9 C2.9,5.6 2,3.9 1.9,3.9 C1.8,3.7 1.5,3.6 1.3,3.6 C0.9,3.6 0.6,3.9 0.6,4.3 L0.6,4.3 C0.6,4.4 0.6,4.5 0.7,4.6 L2.7,8.3 C2.8,8.5 2.8,8.6 2.8,8.8 L2.8,9.3 L2.8,9.3 C2.8,9.5 2.8,9.7 2.7,9.9 L1.7,13.7 L2.8,13.7 L2.8,16.6 L2.8,16.6 C2.8,17.2 3.2,17.6 3.8,17.6 C4.4,17.6 4.8,17.2 4.8,16.6 L4.8,13.7 L5.4,13.7 C5.4,13.7 5.4,13.8 5.4,13.8 L5.4,16.5 C5.4,17.1 5.8,17.5 6.4,17.5 C7,17.5 7.4,17.1 7.4,16.5 L7.4,13.6 L8.5,13.6 L7.5,9.8 C7.5,9.6 7.4,9.5 7.4,9.3 L7.4,9.2 L7.4,9.2 L7.4,8.7 C7.4,8.5 7.5,8.4 7.5,8.2 L9.4,4.8 C9.4,4.8 9.5,4.6 9.6,4.4 C9.8,4.1 9.7,3.7 9.4,3.5 C9.2,3.7 9.2,3.6 9.1,3.6 Z"></path>
                        <path d="M5,4.9 C6.1,4.9 7,4 7,2.9 C7,1.8 6.1,0.9 5,0.9 C3.9,0.9 3,1.8 3,2.9 C3,4 3.9,4.9 5,4.9 Z"></path>
                    </g>
                    <g transform="translate(41.000000, 7.000000)">
                        <path d="M9.1,5 C10.4,5 11.4,4 11.4,2.7 C11.4,1.4 10.4,0.4 9.1,0.4 C7.8,0.4 6.8,1.4 6.8,2.7 L6.8,2.7 C6.8,4 7.8,5 9.1,5 Z"></path>
                        <path d="M18.6,19 L17.6,17.1 L17.6,17.1 L15.3,12.6 C15.1,12.2 14.7,12 14.2,12 L11,12 L10.9,8 C10.9,6.8 10.6,6.1 9.6,5.8 C9.1,5.7 8.7,5.7 8.2,5.8 L8.1,5.8 L8.1,5.8 L4.3,7 L4.2,7 L4.1,7 L4.1,7 C3.9,7.1 3.8,7.3 3.7,7.5 L2.6,10.6 C2.3,11 2.4,11.7 2.8,12 C3.2,12.3 3.9,12.2 4.2,11.8 C4.3,11.6 4.4,11.5 4.4,11.3 L5.3,8.7 L6.7,8.2 L6.8,8.2 L6.8,12.5 C6.8,13.5 7.1,14.4 8.1,14.7 L8.4,14.8 C8.6,14.8 8.7,14.8 8.9,14.8 L13.7,14.8 L14.9,17.4 L14.9,17.5 L15.4,18.4 L15.8,19.3 L15.8,19.4 L15.8,19.4 L16.3,20.3 C16.6,20.9 17.3,21.2 17.9,20.8 C18.5,20.4 18.9,19.6 18.6,19 Z"></path>
                        <path d="M13.2,16.2 L11.4,16.2 L11.4,16.4 C11.4,16.4 11.4,16.5 11.4,16.5 C11.4,19 9.4,20.9 6.9,20.9 C4.4,20.9 2.5,18.9 2.5,16.4 C2.5,15.4 2.8,14.5 3.4,13.7 L3.5,13.6 L2.1,12.5 L2,12.6 C-0.1,15.3 0.4,19.2 3.1,21.3 C5.8,23.4 9.7,22.9 11.8,20.2 C12.7,19.1 13.1,17.8 13.1,16.4 C13.1,16.3 13.1,16.3 13.1,16.2 L13.2,16.2 Z"></path>
                    </g>
                    <g transform="translate(28.000000, 0.000000)">
                        <path d="M6.3,5.3 C7.7,5.3 8.8,4.2 8.8,2.8 C8.8,1.4 7.7,0.3 6.3,0.3 C4.9,0.3 3.8,1.4 3.8,2.8 C3.8,2.8 3.8,2.8 3.8,2.8 C3.8,4.2 4.9,5.3 6.3,5.3 C6.3,5.3 6.3,5.3 6.3,5.3 Z"></path>
                        <path d="M9.2,6.2 L3.4,6.2 C1.7,6.4 0.4,7.8 0.4,9.5 L0.4,16.4 C0.2,16.9 0.5,17.5 1.1,17.6 C1.6,17.8 2.2,17.5 2.3,16.9 C2.4,16.7 2.4,16.5 2.3,16.3 L2.3,10.4 C2.3,10.2 2.4,9.9 2.8,9.9 C3.2,9.9 3.1,10.2 3.1,10.4 L3.1,28.2 C3.2,29 3.8,29.5 4.6,29.5 C5.3,29.4 5.8,28.9 5.9,28.2 L5.9,18 C5.9,17.8 6.1,17.6 6.3,17.6 C6.3,17.6 6.3,17.6 6.3,17.6 L6.3,17.6 C6.5,17.6 6.7,17.8 6.7,18 C6.7,18 6.7,18 6.7,18 L6.7,28.2 C6.8,29 7.4,29.5 8.2,29.5 C8.9,29.4 9.4,28.9 9.5,28.2 L9.5,10.5 C9.5,10.3 9.6,10 9.8,10 C10,10 10.3,10.3 10.3,10.5 L10.3,16.4 C10.2,16.9 10.5,17.5 11,17.6 C11.5,17.7 12.1,17.4 12.2,16.9 C12.2,16.7 12.2,16.5 12.2,16.4 L12.2,9.5 C12.2,7.8 10.9,6.4 9.2,6.2 Z"></path>
                    </g>
                    <g transform="translate(59.000000, 0.000000)">
                        <path d="M7.8,5.6 C9.1,5.6 10.2,4.5 10.2,3.2 C10.2,1.9 9.1,0.8 7.8,0.8 C6.5,0.8 5.4,1.9 5.4,3.2 C5.4,3.2 5.4,3.2 5.4,3.2 C5.3,4.5 6.4,5.6 7.8,5.6 C7.8,5.6 7.8,5.6 7.8,5.6 Z"></path>
                        <path d="M14.7,15.3 L12.7,8.7 C12.7,8.7 12,6.8 10.4,6.8 L5.2,6.8 C3.6,6.8 2.9,8.7 2.9,8.7 L0.9,15.3 C0.9,15.3 0.5,16.5 1.6,16.8 C2.7,17.1 2.9,15.9 2.9,15.9 L4.5,10.4 C4.5,10.4 4.6,10 4.9,10.1 C5.2,10.2 5.1,10.6 5.1,10.6 L2.2,21 L4.8,21 L4.8,28.4 C4.8,29.1 5.4,29.7 6.1,29.7 C6.8,29.7 7.4,29.1 7.4,28.4 L7.4,28.4 L7.4,21 L8.1,21 L8.1,28.4 C8.2,29.1 8.8,29.6 9.5,29.6 C10.1,29.5 10.6,29.1 10.7,28.4 L10.7,21 L13.3,21 L10.5,10.6 C10.5,10.6 10.4,10.2 10.7,10.1 C11,10 11.1,10.4 11.1,10.4 L12.7,15.9 C12.7,15.9 13,17.1 14,16.8 C15,16.5 14.7,15.3 14.7,15.3 Z"></path>
                    </g>
                    <g transform="translate(0.000000, 1.000000)">
                        <path d="M8.7,6.1 C10,6.1 11.1,5.1 11.1,3.8 C11.1,2.9 10.6,2.1 9.9,1.7 C10,1.6 10,1.4 10,1.3 C9.8,0.6 9.2,0.2 8.5,0.4 C8.1,0.5 7.7,0.9 7.6,1.3 C7.6,1.4 7.6,1.5 7.7,1.6 C6.5,2.1 6,3.5 6.6,4.7 C6.9,5.6 7.7,6.1 8.7,6.1 L8.7,6.1 Z"></path>
                        <path d="M15.4,14.7 L13.4,8.3 C13.4,8.3 12.7,6.5 11.2,6.5 L6.2,6.5 C4.7,6.5 4,8.3 4,8.3 L2,14.7 C2,14.7 1.7,15.7 2.4,16.1 C2.4,16.1 2.3,16.1 2.3,16.2 L-3.55271368e-15,28.2 C-3.55271368e-15,28.4 0.1,28.6 0.3,28.6 C0.3,28.6 0.3,28.6 0.3,28.6 L0.4,28.6 C0.6,28.6 0.7,28.5 0.8,28.3 L3.1,16.3 C3.1,16.3 3.1,16.2 3.1,16.2 C3.7,16.1 4,15.3 4,15.3 L5.5,10 C5.5,10 5.6,9.6 5.9,9.7 C6.2,9.8 6.1,10.2 6.1,10.2 L3.3,20.2 L5.9,20.2 L5.9,27.4 C6,28.1 6.6,28.6 7.2,28.5 C7.8,28.4 8.3,28 8.3,27.4 L8.3,20.2 L9,20.2 L9,27.4 C9.1,28.1 9.7,28.6 10.3,28.5 C10.9,28.4 11.4,28 11.4,27.4 L11.4,20.2 L14,20.2 L11.2,10.2 C11.2,10.2 11.1,9.8 11.4,9.7 C11.7,9.6 11.8,10 11.8,10 L13.4,15.3 C13.4,15.3 13.7,16.4 14.7,16.1 C15.7,15.8 15.4,14.7 15.4,14.7 Z"></path>
                    </g>
                </g>
                <g>
                    <path d="M17.9,32 C17.9,30 16.3,28.4 14.3,28.4 L14.3,28.4 L14.1,28.4 C13.9,25.7 11.6,23.7 9,23.9 C6.4,24.1 4.4,26.2 4.5,28.8 C4.5,29.6 4.7,30.3 5,31 C2.1,31.7 0.2,34.5 0.9,37.5 C1.5,40 3.6,41.7 6.2,41.7 L7.8,41.7 L7.8,46 C7.8,46.1 7.9,46.2 7.9,46.2 C7.9,46.2 7.9,46.2 7.9,46.2 L9.9,46.2 C10,46.2 10,46.1 10,46 L10,41.6 L13.3,41.6 C15.4,41.6 17.1,39.9 17.1,37.8 C17.1,36.8 16.7,35.9 16.1,35.2 C17.2,34.5 17.9,33.3 17.9,32 Z" id="Path"></path>
                    <g transform="translate(6.000000, 0.000000)" id="Path">
                        <g>
                            <path d="M11.2,4.8 C9.6,3 6.7,2.9 4.9,4.5 C3.1,6.1 3,9 4.6,10.8 C6.2,12.6 9,12.7 10.9,11.1 C12.7,9.4 12.8,6.6 11.2,4.8 Z"></path>
                            <path d="M11.8,11.6 C11.7,11.5 11.4,11.5 11.3,11.6 C11.2,11.7 11.2,12 11.3,12.1 L12.6,13.5 C12.7,13.6 13,13.6 13.1,13.5 C13.2,13.4 13.2,13.1 13.1,13 L11.8,11.6 Z"></path>
                            <path d="M4,4 C4.1,4.1 4.4,4.1 4.5,4 C4.6,3.9 4.6,3.6 4.5,3.5 L3.2,2.1 C3.1,2 2.8,2 2.7,2.1 C2.6,2.2 2.6,2.5 2.7,2.6 L4,4 Z"></path>
                            <path d="M3.6,11.2 L2.2,12.5 C2.1,12.6 2.1,12.9 2.2,13 C2.3,13.1 2.6,13.1 2.7,13 L4.1,11.7 C4.2,11.6 4.2,11.3 4.1,11.2 C4,11.1 3.8,11.1 3.6,11.2 Z"></path>
                            <path d="M12.1,4.4 L13.5,3.1 C13.6,3 13.6,2.7 13.5,2.6 C13.4,2.5 13.1,2.5 13,2.6 L11.6,3.9 C11.5,4 11.5,4.3 11.6,4.4 C11.8,4.5 12,4.5 12.1,4.4 Z"></path>
                            <path d="M9,12.8 C8.8,12.8 8.7,13 8.7,13.2 L9.1,15.1 C9.2,15.3 9.3,15.4 9.5,15.4 C9.7,15.3 9.8,15.2 9.8,15 L9.4,13 C9.3,12.8 9.2,12.8 9,12.8 Z"></path>
                            <path d="M6.8,2.8 C7,2.7 7.1,2.6 7.1,2.4 L6.7,0.5 C6.6,0.3 6.5,0.2 6.3,0.3 C6.1,0.3 6,0.5 6,0.7 L6.4,2.6 C6.4,2.8 6.6,2.9 6.8,2.8 Z"></path>
                            <path d="M2.9,8.9 C2.9,8.7 2.7,8.6 2.5,8.6 L0.6,9 C0.4,9.1 0.3,9.2 0.4,9.4 C0.4,9.6 0.6,9.7 0.8,9.7 L2.7,9.3 C2.8,9.3 2.9,9.1 2.9,8.9 Z"></path>
                            <path d="M15.4,6.1 C15.3,5.9 15.2,5.8 15,5.8 L13.1,6.2 C12.9,6.3 12.8,6.4 12.8,6.6 C12.8,6.8 13,6.9 13.2,6.9 L15.1,6.5 C15.3,6.5 15.5,6.3 15.4,6.1 Z"></path>
                            <path d="M6.3,12.7 C6.1,12.6 5.9,12.7 5.8,12.9 L5.2,14.7 C5.2,14.9 5.3,15.1 5.4,15.1 C5.6,15.2 5.8,15.1 5.9,14.9 L6.5,13.1 C6.6,12.9 6.5,12.7 6.3,12.7 Z"></path>
                            <path d="M9.4,3 C9.6,3.1 9.8,3 9.9,2.8 L10.5,1 C10.6,0.8 10.5,0.6 10.3,0.5 C10.1,0.4 9.9,0.5 9.8,0.7 L9.2,2.5 C9.1,2.7 9.3,2.9 9.4,3 Z"></path>
                            <path d="M0.8,5.9 L2.7,6.5 C2.9,6.5 3.1,6.4 3.1,6.3 C3.2,6.1 3.1,5.9 2.9,5.8 L1,5.2 C0.8,5.1 0.6,5.2 0.5,5.4 C0.5,5.6 0.6,5.8 0.8,5.9 L0.8,5.9 Z"></path>
                            <path d="M15,9.7 L13.2,9.1 C13,9.1 12.8,9.2 12.8,9.4 C12.8,9.6 12.9,9.7 13,9.8 L14.9,10.4 C15.1,10.4 15.3,10.3 15.3,10.2 C15.3,10 15.2,9.8 15,9.7 Z"></path>
                        </g>
                        <g transform="translate(16.000000, 11.000000)">
                            <path d="M5.4,2.9 L4.6,3.7 L7.6,4.4 L6.7,1.4 L5.9,2.2 L3.8,0.2 C3.6,0.1 3.4,0.1 3.3,0.3 C3.2,0.4 3.2,0.6 3.3,0.8 L5.4,2.9 Z"></path>
                            <path d="M4.4,8.1 L3.5,5.1 L2.8,6 L0.7,4 C0.5,3.9 0.3,3.9 0.2,4 C0.1,4.2 0.1,4.4 0.2,4.5 L2.3,6.5 L1.5,7.3 L4.4,8.1 Z"></path>
                        </g>
                    </g>
                    <path d="M25.4,23.8 L34.9,11.7 C35,11.6 35.2,11.6 35.3,11.7 L35.4,11.8 C35.5,11.9 35.5,12.1 35.4,12.2 L25.9,24.3 C25.8,24.4 25.6,24.4 25.5,24.3 L25.4,24.2 C25.3,24.1 25.3,23.9 25.4,23.8 Z" id="Path"></path>
                    <path d="M55.1,0.3 L43.7,0.3 C43.4,0.3 43.1,0.6 43.1,0.9 L43.1,0.9 L43.1,23.8 L38.3,23.8 L38.3,10.1 C38.3,10.1 38.3,10 38.3,10 C38.3,9.9 38.1,9.8 38,9.8 C37.9,9.8 37.9,9.8 37.8,9.9 L37.8,9.9 L37.7,10 L34.7,13.8 L34.1,14.6 L30,19.7 L26.7,23.8 L25.1,26 L25,26 C24.9,26.1 24.9,26.2 24.9,26.2 L24.9,45.9 C24.9,46.1 25,46.2 25.2,46.2 C25.2,46.2 25.2,46.2 25.2,46.2 L32.5,46.2 L32.5,45.9 L32.5,45.9 L32.5,38.9 C32.5,38.7 32.7,38.6 32.8,38.6 L36.4,38.6 C36.6,38.6 36.7,38.8 36.7,38.9 L36.7,46.2 L44.2,46.2 L44.2,38.8 C44.2,38.6 44.4,38.4 44.6,38.4 L48.3,38.4 C48.5,38.4 48.7,38.6 48.7,38.8 L48.7,46.1 L55.3,46.1 C55.5,46.1 55.6,46 55.6,45.8 L55.6,0.8 C55.7,0.5 55.4,0.3 55.1,0.3 Z M33,18.7 L33.1,18.6 C34,17.5 35.4,15.7 36.1,14.8 L36.2,14.7 C36.3,14.6 36.4,14.6 36.5,14.6 C36.7,14.6 36.8,14.7 36.8,14.9 L36.8,18.9 C36.8,19.1 36.7,19.2 36.5,19.3 L33.3,19.3 C33.1,19.3 32.9,19.1 33,18.9 C32.9,18.8 33,18.7 33,18.7 Z M31,41.1 C31,41.3 30.8,41.5 30.7,41.5 L26.9,41.5 C26.7,41.5 26.5,41.3 26.6,41.1 L26.6,38.9 C26.6,38.7 26.8,38.6 26.9,38.6 L30.6,38.6 C30.8,38.6 30.9,38.8 30.9,38.9 L31,41.1 Z M31,36.6 C31,36.8 30.9,36.9 30.7,36.9 C30.7,36.9 30.7,36.9 30.7,36.9 L26.9,36.9 C26.7,36.9 26.6,36.8 26.6,36.6 C26.6,36.6 26.6,36.6 26.6,36.6 L26.6,34.2 C26.6,34 26.7,33.9 26.9,33.9 L30.7,33.9 C30.9,33.9 31,34 31,34.2 L31,36.6 Z M31,32.2 C31,32.4 30.9,32.5 30.7,32.5 C30.7,32.5 30.7,32.5 30.7,32.5 L26.9,32.5 C26.7,32.5 26.6,32.4 26.6,32.2 C26.6,32.2 26.6,32.2 26.6,32.2 L26.6,29.8 C26.6,29.6 26.7,29.5 26.9,29.5 C26.9,29.5 26.9,29.5 26.9,29.5 L30.7,29.5 C30.9,29.5 31,29.6 31,29.8 C31,29.8 31,29.8 31,29.8 L31,32.2 Z M31,27.8 C31,28 30.9,28.1 30.7,28.1 C30.7,28.1 30.7,28.1 30.7,28.1 L26.9,28.1 C26.7,28.1 26.6,28 26.6,27.8 C26.6,27.8 26.6,27.8 26.6,27.8 L26.6,27.1 C26.6,27.1 26.6,27 26.6,27 L26.6,27 L26.6,27 L26.6,27 C27.1,26.3 29.3,23.6 30.2,22.5 L30.3,22.4 C30.4,22.3 30.5,22.3 30.6,22.3 C30.8,22.3 30.9,22.4 30.9,22.6 L31,27.8 Z M36.8,36.6 C36.8,36.8 36.7,36.9 36.5,36.9 L32.7,36.9 C32.5,36.9 32.4,36.8 32.4,36.6 L32.4,34.2 C32.4,34 32.5,33.9 32.7,33.9 C32.7,33.9 32.7,33.9 32.7,33.9 L36.5,33.9 C36.7,33.9 36.8,34 36.8,34.2 C36.8,34.2 36.8,34.2 36.8,34.2 L36.8,36.6 Z M36.8,32.2 C36.8,32.4 36.7,32.5 36.5,32.5 C36.5,32.5 36.5,32.5 36.5,32.5 L32.7,32.5 C32.5,32.5 32.4,32.4 32.4,32.2 C32.4,32.2 32.4,32.2 32.4,32.2 L32.4,29.8 C32.4,29.6 32.5,29.5 32.7,29.5 C32.7,29.5 32.7,29.5 32.7,29.5 L36.5,29.5 C36.7,29.5 36.8,29.6 36.8,29.8 C36.8,29.8 36.8,29.8 36.8,29.8 L36.8,32.2 Z M36.8,27.8 C36.8,28 36.7,28.1 36.5,28.1 C36.5,28.1 36.5,28.1 36.5,28.1 L32.7,28.1 C32.5,28.1 32.4,28 32.4,27.8 C32.4,27.8 32.4,27.8 32.4,27.8 L32.4,25.4 C32.4,25.2 32.5,25.1 32.7,25.1 C32.7,25.1 32.7,25.1 32.7,25.1 L36.5,25.1 C36.7,25.1 36.8,25.2 36.8,25.4 C36.8,25.4 36.8,25.4 36.8,25.4 L36.8,27.8 Z M36.8,23.4 C36.8,23.6 36.7,23.7 36.5,23.7 C36.5,23.7 36.5,23.7 36.5,23.7 L32.7,23.7 C32.5,23.7 32.4,23.6 32.4,23.4 C32.4,23.4 32.4,23.4 32.4,23.4 L32.4,21 C32.4,20.8 32.5,20.7 32.7,20.7 C32.7,20.7 32.7,20.7 32.7,20.7 L36.5,20.7 C36.7,20.7 36.8,20.8 36.8,21 C36.8,21 36.8,21 36.8,21 L36.8,23.4 Z M42.7,41.1 C42.7,41.3 42.5,41.5 42.3,41.5 C42.3,41.5 42.3,41.5 42.3,41.5 L38.7,41.5 C38.5,41.5 38.3,41.3 38.3,41.1 C38.3,41.1 38.3,41.1 38.3,41.1 L38.3,38.9 C38.3,38.7 38.5,38.5 38.7,38.5 L42.4,38.5 C42.6,38.5 42.8,38.7 42.8,38.9 L42.7,41.1 Z M42.7,36.7 C42.7,36.9 42.5,37.1 42.3,37.1 C42.3,37.1 42.3,37.1 42.3,37.1 L38.7,37.1 C38.5,37.1 38.3,36.9 38.3,36.7 C38.3,36.7 38.3,36.7 38.3,36.7 L38.3,34.5 C38.3,34.3 38.5,34.1 38.7,34.1 L42.4,34.1 C42.6,34.1 42.8,34.3 42.8,34.5 L42.7,36.7 Z M42.7,32.2 C42.7,32.4 42.5,32.6 42.3,32.6 C42.3,32.6 42.3,32.6 42.3,32.6 L38.7,32.6 C38.5,32.6 38.3,32.4 38.3,32.2 C38.3,32.2 38.3,32.2 38.3,32.2 L38.3,30 C38.3,29.8 38.5,29.6 38.7,29.6 L42.4,29.6 C42.6,29.6 42.8,29.8 42.8,30 L42.7,32.2 Z M42.7,27.7 C42.7,27.9 42.5,28.1 42.3,28.1 C42.3,28.1 42.3,28.1 42.3,28.1 L38.7,28.1 C38.5,28.1 38.3,27.9 38.3,27.7 C38.3,27.7 38.3,27.7 38.3,27.7 L38.3,25.5 C38.3,25.3 38.5,25.1 38.7,25.1 C38.7,25.1 38.7,25.1 38.7,25.1 L42.4,25.1 C42.6,25.1 42.8,25.3 42.8,25.5 C42.8,25.5 42.8,25.5 42.8,25.5 L42.7,27.7 Z M48.7,36.7 C48.7,36.9 48.5,37.1 48.3,37.1 L44.7,37.1 C44.5,37.1 44.3,36.9 44.3,36.7 C44.3,36.7 44.3,36.7 44.3,36.7 L44.3,34.5 C44.3,34.3 44.5,34.1 44.7,34.1 L48.4,34.1 C48.6,34.1 48.8,34.3 48.8,34.5 L48.7,36.7 Z M48.7,32.2 C48.7,32.4 48.5,32.6 48.3,32.6 L44.7,32.6 C44.5,32.6 44.3,32.4 44.3,32.2 C44.3,32.2 44.3,32.2 44.3,32.2 L44.3,30 C44.3,29.8 44.5,29.6 44.7,29.6 L48.4,29.6 C48.6,29.6 48.8,29.8 48.8,30 L48.7,32.2 Z M48.7,27.8 C48.7,28 48.5,28.2 48.3,28.2 L44.7,28.2 C44.5,28.2 44.3,28 44.3,27.8 C44.3,27.8 44.3,27.8 44.3,27.8 L44.3,25.6 C44.3,25.4 44.5,25.2 44.7,25.2 C44.7,25.2 44.7,25.2 44.7,25.2 L48.4,25.2 C48.6,25.2 48.8,25.4 48.8,25.6 L48.7,27.8 Z M48.7,23.3 C48.7,23.5 48.5,23.7 48.3,23.7 L44.7,23.7 C44.5,23.7 44.3,23.5 44.3,23.3 C44.3,23.3 44.3,23.3 44.3,23.3 L44.3,21.1 C44.3,20.9 44.5,20.7 44.7,20.7 C44.7,20.7 44.7,20.7 44.7,20.7 L48.4,20.7 C48.6,20.7 48.8,20.9 48.8,21.1 L48.7,23.3 Z M48.7,18.8 C48.7,19 48.5,19.2 48.3,19.2 L44.7,19.2 C44.5,19.2 44.3,19 44.3,18.8 C44.3,18.8 44.3,18.8 44.3,18.8 L44.3,16.6 C44.3,16.4 44.5,16.2 44.7,16.2 C44.7,16.2 44.7,16.2 44.7,16.2 L48.4,16.2 C48.6,16.2 48.8,16.4 48.8,16.6 L48.7,18.8 Z M48.7,14.4 C48.7,14.6 48.5,14.8 48.3,14.8 L44.7,14.8 C44.5,14.8 44.3,14.6 44.3,14.4 C44.3,14.4 44.3,14.4 44.3,14.4 L44.3,12.2 C44.3,12 44.5,11.8 44.7,11.8 C44.7,11.8 44.7,11.8 44.7,11.8 L48.4,11.8 C48.6,11.8 48.8,12 48.8,12.2 L48.7,14.4 Z M48.7,9.9 C48.7,10.1 48.5,10.3 48.3,10.3 L44.7,10.3 C44.5,10.3 44.3,10.1 44.3,9.9 C44.3,9.9 44.3,9.9 44.3,9.9 L44.3,7.7 C44.3,7.5 44.5,7.3 44.7,7.3 C44.7,7.3 44.7,7.3 44.7,7.3 L48.4,7.3 C48.6,7.3 48.8,7.5 48.8,7.7 L48.7,9.9 Z M48.7,5.5 C48.7,5.7 48.5,5.9 48.3,5.9 L44.7,5.9 C44.5,5.9 44.3,5.7 44.3,5.5 C44.3,5.5 44.3,5.5 44.3,5.5 L44.3,3.3 C44.3,3.1 44.5,2.9 44.7,2.9 C44.7,2.9 44.7,2.9 44.7,2.9 L48.4,2.9 C48.6,2.9 48.8,3.1 48.8,3.3 L48.7,5.5 Z M54.4,41.1 C54.4,41.3 54.2,41.5 54,41.5 C54,41.5 54,41.5 54,41.5 L50.4,41.5 C50.2,41.5 50,41.3 50,41.1 L50,38.9 C50,38.7 50.2,38.5 50.4,38.5 L54.1,38.5 C54.3,38.5 54.5,38.7 54.5,38.9 L54.4,41.1 Z M54.4,36.7 C54.4,36.9 54.2,37.1 54,37.1 C54,37.1 54,37.1 54,37.1 L50.4,37.1 C50.2,37.1 50,37 50,36.8 C50,36.8 50,36.8 50,36.8 L50,34.5 C50,34.3 50.2,34.1 50.4,34.1 L54.1,34.1 C54.3,34.1 54.5,34.3 54.5,34.5 C54.5,34.5 54.5,34.5 54.5,34.5 L54.4,36.7 Z M54.4,32.2 C54.4,32.4 54.2,32.6 54,32.6 C54,32.6 54,32.6 54,32.6 L50.4,32.6 C50.2,32.6 50,32.4 50,32.2 L50,30 C50,29.8 50.2,29.6 50.4,29.6 L54.1,29.6 C54.3,29.6 54.5,29.8 54.5,30 L54.4,32.2 Z M54.4,27.8 C54.4,28 54.2,28.2 54,28.2 L50.4,28.2 C50.2,28.2 50,28 50,27.8 L50,25.5 C50,25.3 50.2,25.1 50.4,25.1 L54.1,25.1 C54.3,25.1 54.5,25.3 54.5,25.5 C54.5,25.5 54.5,25.5 54.5,25.5 L54.4,27.8 Z M54.4,23.3 C54.4,23.5 54.2,23.7 54,23.7 C54,23.7 54,23.7 54,23.7 L50.4,23.7 C50.2,23.7 50,23.5 50,23.3 L50,21 C50,20.8 50.2,20.6 50.4,20.6 L54.1,20.6 C54.3,20.6 54.5,20.8 54.5,21 C54.5,21 54.5,21 54.5,21 L54.4,23.3 Z M54.4,18.9 C54.4,19.1 54.2,19.3 54,19.3 L50.4,19.3 C50.2,19.3 50,19.1 50,18.9 L50,16.6 C50,16.4 50.2,16.2 50.4,16.2 L54.1,16.2 C54.3,16.2 54.5,16.4 54.5,16.6 L54.4,18.9 Z M54.4,14.4 C54.4,14.6 54.2,14.8 54,14.8 C54,14.8 54,14.8 54,14.8 L50.4,14.8 C50.2,14.8 50,14.6 50,14.4 L50,12.1 C50,11.9 50.2,11.7 50.4,11.7 L54.1,11.7 C54.3,11.7 54.5,11.9 54.5,12.1 C54.5,12.1 54.5,12.1 54.5,12.1 L54.4,14.4 Z M54.4,10 C54.4,10.2 54.2,10.4 54,10.4 L50.4,10.4 C50.2,10.4 50,10.3 50,10 L50,7.7 C50,7.5 50.2,7.3 50.4,7.3 L54.1,7.3 C54.3,7.3 54.5,7.5 54.5,7.7 L54.4,10 Z M54.4,5.5 C54.4,5.7 54.2,5.9 54,5.9 C54,5.9 54,5.9 54,5.9 L50.4,5.9 C50.2,5.9 50,5.7 50,5.5 L50,3.2 C50,3 50.2,2.8 50.4,2.8 L54.1,2.8 C54.3,2.8 54.5,3 54.5,3.2 C54.5,3.2 54.5,3.2 54.5,3.2 L54.4,5.5 Z" id="Shape"></path>
                    <path d="M69.2,45.9 L69.2,18.5 C69.2,18.3 69.1,18.2 68.9,18.2 L58.7,18.2 C58.5,18.2 58.4,18.3 58.4,18.5 L58.4,46 C58.4,46.2 58.5,46.3 58.7,46.3 L58.7,46.3 L68.9,46.3 C69,46.3 69.1,46.2 69.2,45.9 C69.2,46 69.2,46 69.2,45.9 L69.2,45.9 L69.2,45.9 Z M63,42.7 C63,42.9 62.8,43.1 62.6,43.1 C62.6,43.1 62.6,43.1 62.6,43.1 L60.2,43.1 C60,43.1 59.8,42.9 59.8,42.7 C59.8,42.7 59.8,42.7 59.8,42.7 L59.8,40.5 C59.8,40.3 60,40.1 60.2,40.1 L62.6,40.1 C62.8,40.1 63,40.3 63,40.5 L63,42.7 Z M63,37.6 C63,37.8 62.8,38 62.6,38 C62.6,38 62.6,38 62.6,38 L60.2,38 C60,38 59.8,37.8 59.8,37.6 C59.8,37.6 59.8,37.6 59.8,37.6 L59.8,35.4 C59.8,35.2 60,35 60.2,35 L62.6,35 C62.8,35 63,35.2 63,35.4 L63,37.6 Z M63,32.5 C63,32.7 62.8,32.9 62.6,32.9 C62.6,32.9 62.6,32.9 62.6,32.9 L60.2,32.9 C60,32.9 59.8,32.7 59.8,32.5 C59.8,32.5 59.8,32.5 59.8,32.5 L59.8,30.3 C59.8,30.1 60,29.9 60.2,29.9 L62.6,29.9 C62.8,29.9 63,30.1 63,30.3 L63,32.5 Z M63,27.5 C63,27.7 62.8,27.9 62.6,27.9 C62.6,27.9 62.6,27.9 62.6,27.9 L60.2,27.9 C60,27.9 59.8,27.7 59.8,27.5 C59.8,27.5 59.8,27.5 59.8,27.5 L59.8,25.3 C59.8,25.1 60,24.9 60.2,24.9 L62.6,24.9 C62.8,24.9 63,25.1 63,25.3 L63,27.5 Z M63,22.4 C63,22.6 62.8,22.8 62.6,22.8 C62.6,22.8 62.6,22.8 62.6,22.8 L60.2,22.8 C60,22.8 59.8,22.6 59.8,22.4 C59.8,22.4 59.8,22.4 59.8,22.4 L59.8,20.2 C59.8,20 60,19.8 60.2,19.8 L62.6,19.8 C62.8,19.8 63,20 63,20.2 L63,22.4 Z M67.7,42.7 C67.7,42.9 67.5,43.1 67.3,43.1 C67.3,43.1 67.3,43.1 67.3,43.1 L64.9,43.1 C64.7,43.1 64.5,42.9 64.5,42.7 C64.5,42.7 64.5,42.7 64.5,42.7 L64.5,40.5 C64.5,40.3 64.7,40.1 64.9,40.1 L67.3,40.1 C67.5,40.1 67.7,40.3 67.7,40.5 L67.7,42.7 Z M67.7,37.6 C67.7,37.8 67.5,38 67.3,38 C67.3,38 67.3,38 67.3,38 L64.9,38 C64.7,38 64.5,37.8 64.5,37.6 C64.5,37.6 64.5,37.6 64.5,37.6 L64.5,35.4 C64.5,35.2 64.7,35 64.9,35 L67.3,35 C67.5,35 67.7,35.2 67.7,35.4 L67.7,37.6 Z M67.7,32.5 C67.7,32.7 67.5,32.9 67.3,32.9 C67.3,32.9 67.3,32.9 67.3,32.9 L64.9,32.9 C64.7,32.9 64.5,32.7 64.5,32.5 C64.5,32.5 64.5,32.5 64.5,32.5 L64.5,30.3 C64.5,30.1 64.7,29.9 64.9,29.9 L67.3,29.9 C67.5,29.9 67.7,30.1 67.7,30.3 L67.7,32.5 Z M67.7,27.5 C67.7,27.7 67.5,27.9 67.3,27.9 C67.3,27.9 67.3,27.9 67.3,27.9 L64.9,27.9 C64.7,27.9 64.5,27.7 64.5,27.5 C64.5,27.5 64.5,27.5 64.5,27.5 L64.5,25.3 C64.5,25.1 64.7,24.9 64.9,24.9 L67.3,24.9 C67.5,24.9 67.7,25.1 67.7,25.3 L67.7,27.5 Z M67.7,22.4 C67.7,22.6 67.5,22.8 67.3,22.8 C67.3,22.8 67.3,22.8 67.3,22.8 L64.9,22.8 C64.7,22.8 64.5,22.6 64.5,22.4 C64.5,22.4 64.5,22.4 64.5,22.4 L64.5,20.2 C64.5,20 64.7,19.8 64.9,19.8 L67.3,19.8 C67.5,19.8 67.7,20 67.7,20.2 L67.7,22.4 Z" id="Shape"></path>
                </g>
            </g>
        </g>
    </g>
</svg>