<?xml version="1.0" encoding="UTF-8"?>
<svg width="95px" height="95px" viewBox="0 0 95 95" version="1.1" xmlns="http://www.w3.org/2000/svg" xmlns:xlink="http://www.w3.org/1999/xlink">
    <!-- Generator: Sketch 53.2 (72643) - https://sketchapp.com -->
    <title>goal_16_target_16_a</title>
    <desc>Created with Sketch.</desc>
    <g id="goal_16_target_16_a" stroke="none" stroke-width="1" fill="none" fill-rule="evenodd">
        <g id="Group-141" fill-rule="nonzero">
            <rect id="Rectangle" fill="#00689D" x="1.45661261e-12" y="-2.13162821e-14" width="94.8" height="94.8"></rect>
            <g id="Group" transform="translate(12.700000, 7.000000)" fill="#FFFFFF">
                <g transform="translate(0.000000, 52.000000)" id="Path">
                    <path d="M60.7,2.4 C60.7,3.7 61.8,4.8 63.1,4.7 C64.4,4.7 65.5,3.6 65.4,2.3 C65.4,1 64.3,0 63,0 C61.8,0 60.7,1.1 60.7,2.4 C60.7,2.4 60.7,2.4 60.7,2.4 Z"></path>
                    <path d="M65.9,5.7 L60.3,5.7 C58.7,5.9 57.4,7.2 57.4,8.9 L57.4,15.5 C57.5,16 57.9,16.4 58.4,16.3 C58.8,16.3 59.2,15.9 59.2,15.5 L59.2,9.8 C59.2,9.6 59.3,9.3 59.6,9.3 C59.9,9.3 59.9,9.6 59.9,9.8 L59.9,26.8 C59.8,27.5 60.4,28.2 61.1,28.2 C61.8,28.3 62.5,27.7 62.5,27 C62.5,26.9 62.5,26.8 62.5,26.8 L62.5,17 C62.5,16.8 62.6,16.6 62.8,16.6 C62.8,16.6 62.8,16.6 62.9,16.6 L62.9,16.6 C63.1,16.6 63.3,16.8 63.3,17 C63.3,17 63.3,17 63.3,17 L63.3,26.8 C63.3,27.5 63.9,28.1 64.6,28.1 C65.3,28.1 65.9,27.5 65.9,26.8 C65.9,26.8 65.9,26.8 65.9,26.8 L65.9,9.8 C65.9,9.6 66,9.3 66.2,9.3 C66.4,9.3 66.6,9.6 66.6,9.8 L66.6,15.5 C66.6,16 67,16.4 67.5,16.4 C68,16.4 68.4,16 68.4,15.5 L68.4,8.9 C68.8,7.2 67.5,5.8 65.9,5.7 Z"></path>
                    <path d="M40.9,3.7 C40.9,4.9 41.9,6 43.1,6 C44.3,6 45.4,5 45.4,3.8 C45.4,2.6 44.4,1.5 43.2,1.5 C43.2,1.5 43.2,1.5 43.2,1.5 C41.9,1.4 40.9,2.4 40.9,3.7 Z"></path>
                    <path d="M45.8,10 C46.1,9.9 46.2,10.3 46.2,10.3 L47.7,15.4 C47.7,15.4 48,16.5 48.9,16.2 C49.8,15.9 49.5,14.8 49.5,14.8 L47.6,8.7 C47.6,8.7 47,6.9 45.5,6.9 L40.7,6.9 C39.2,6.9 38.5,8.7 38.5,8.7 L36.6,14.8 C36.6,14.8 36.3,15.9 37.2,16.2 C38.1,16.5 38.4,15.4 38.4,15.4 L39.9,10.3 C39.9,10.3 40,9.9 40.3,10 C40.6,10.1 40.5,10.5 40.5,10.5 L37.9,20 L40.3,20 L40.3,26.8 C40.3,27.4 40.8,28 41.5,28 C42.1,28 42.7,27.5 42.7,26.8 L42.7,20 L43.4,20 L43.4,26.8 C43.4,27.4 43.9,28 44.6,28 C45.2,28 45.8,27.5 45.8,26.8 L45.8,20 L48.2,20 L45.6,10.5 C45.6,10.6 45.5,10.1 45.8,10 Z"></path>
                    <path d="M27.4,3.6 C27.4,4.8 28.4,5.8 29.6,5.8 C30.8,5.8 31.8,4.8 31.8,3.6 C31.8,2.4 30.8,1.4 29.6,1.4 L29.6,1.4 C28.4,1.4 27.4,2.4 27.4,3.6 C27.4,3.6 27.4,3.6 27.4,3.6 Z"></path>
                    <path d="M34.2,8.7 C34.2,8.7 33.5,7 32,7 L27.3,7 C25.8,7 25.1,8.8 25.1,8.8 L23.2,14.9 C23.2,14.9 22.9,16 23.8,16.3 C24.7,16.6 25,15.5 25,15.5 L26.5,10.4 C26.5,10.4 26.6,10 26.9,10.1 C27.2,10.2 27.1,10.6 27.1,10.6 L24.5,20.1 L27,20.1 L27,26.9 C27,27.5 27.5,28.1 28.2,28.1 C28.8,28.1 29.4,27.6 29.4,26.9 L29.4,26.9 L29.4,20 L30,20 L30,26.8 C30,27.4 30.5,28 31.2,28 C31.8,28 32.4,27.5 32.4,26.8 L32.4,26.8 L32.4,20 L34.8,20 L32.2,10.5 C32.2,10.5 32.1,10.1 32.4,10 C32.7,9.9 32.8,10.3 32.8,10.3 L34.3,15.4 C34.3,15.4 34.6,16.5 35.5,16.2 C36.4,15.9 36.1,14.8 36.1,14.8 L34.2,8.7 Z"></path>
                    <path d="M8.1,5 C9.4,5 10.5,4 10.5,2.7 C10.5,1.4 9.5,0.3 8.2,0.3 C6.9,0.3 5.8,1.3 5.8,2.6 C5.8,2.6 5.8,2.6 5.8,2.6 C5.7,4 6.8,5 8.1,5 Z"></path>
                    <path d="M10.8,6 L5.3,6 C3.7,6.1 2.5,7.5 2.4,9.1 L2.4,15.6 C2.4,15.9 2.5,16.1 2.8,16.3 L0.7,27.3 C0.7,27.5 0.8,27.7 1,27.7 C1,27.7 1,27.7 1,27.7 L1.1,27.7 C1.3,27.7 1.4,27.6 1.5,27.4 L3.6,16.4 C4,16.3 4.4,16 4.4,15.5 L4.4,10 C4.4,9.8 4.5,9.5 4.8,9.5 C5.1,9.5 5.1,9.8 5.1,10 L5.1,26.8 C5.1,27.5 5.7,28.1 6.4,28.1 C7.1,28.1 7.7,27.5 7.7,26.8 C7.7,26.8 7.7,26.8 7.7,26.8 L7.7,17.1 C7.7,16.9 7.8,16.7 8,16.7 C8,16.7 8,16.7 8.1,16.7 L8.1,16.7 C8.3,16.7 8.5,16.8 8.5,17 C8.5,17 8.5,17 8.5,17.1 L8.5,26.8 C8.5,27.5 9.1,28.1 9.8,28.1 C10.5,28.1 11.1,27.5 11.1,26.8 L11.1,10 C11.1,9.8 11.2,9.5 11.4,9.5 C11.6,9.5 11.9,9.8 11.9,10 L11.9,15.6 C11.9,16.1 12.3,16.5 12.8,16.5 C13.3,16.5 13.7,16.1 13.7,15.6 L13.7,9 C13.6,7.5 12.4,6.2 10.8,6 Z"></path>
                    <path d="M51.5,14.1 C51.5,15.2 52.4,16 53.4,16 C54.4,16 55.3,15.1 55.3,14.1 C55.3,13.1 54.4,12.2 53.4,12.2 C52.4,12.2 51.5,13.1 51.5,14.1 L51.5,14.1 Z"></path>
                    <path d="M57.2,19.7 C56,16.7 55.9,16.8 54.8,16.7 L51.9,16.7 C50.9,16.7 50.7,16.7 49.5,19.7 C49.3,20.1 48.7,21.8 48.6,21.9 C48.5,22 48.3,22.6 49,22.8 C49.7,23 49.8,22.3 49.8,22.3 L50.9,19.4 C50.9,19.4 50.9,19.3 51,19.3 C51.1,19.3 51,19.4 51,19.4 L51,26.9 L51,26.9 C51,27.5 51.4,27.9 52,27.9 C52.6,27.9 53,27.5 53,26.9 L53,23.9 C53,23.9 53,23.4 53.3,23.5 C53.6,23.6 53.6,23.9 53.6,23.9 L53.6,26.9 C53.6,27.5 54,27.9 54.6,27.9 C55.2,27.9 55.6,27.5 55.6,26.9 L55.6,26.9 L55.6,19.4 C55.6,19.3 55.6,19.3 55.6,19.3 C55.6,19.3 55.7,19.4 55.7,19.4 L56.8,21.9 C56.8,21.9 57.1,22.6 57.7,22.3 C58.3,22 58,21.4 58,21.4 C58,21.4 57.4,20.2 57.2,19.7 Z"></path>
                    <path d="M22.3,14.9 C22,14.7 21.5,14.8 21.3,15.2 C21.3,15.2 21.3,15.2 21.3,15.3 C20.9,15.9 20.5,16.5 20.1,17.1 C20,17.3 19.7,17.4 19.5,17.4 L17.3,17.4 C17.1,17.4 16.9,17.3 16.7,17.1 C16.4,16.8 15.5,15.3 15.5,15.2 C15.4,15 15.1,14.9 14.9,14.9 C14.5,14.9 14.2,15.2 14.2,15.6 C14.2,15.7 14.2,15.8 14.3,15.9 L16.2,19.3 C16.3,19.4 16.3,19.6 16.3,19.7 L16.3,20.2 L16.3,20.2 C16.3,20.4 16.3,20.6 16.2,20.8 L15.3,24.4 L16.3,24.4 L16.3,27.1 L16.3,27.1 C16.2,27.6 16.6,28.1 17.1,28.1 C17.6,28.2 18.1,27.8 18.1,27.3 C18.1,27.2 18.1,27.2 18.1,27.1 L18.1,24.4 L18.7,24.4 C18.7,24.4 18.7,24.5 18.7,24.5 L18.7,27.1 C18.7,27.6 19.1,28 19.6,28 C20.1,28 20.5,27.6 20.5,27.1 L20.5,24.4 L21.5,24.4 L20.6,20.8 C20.6,20.6 20.5,20.5 20.5,20.3 L20.5,20.2 L20.5,20.2 L20.5,19.7 C20.5,19.5 20.5,19.4 20.6,19.3 L22.4,16.1 L22.6,15.8 C22.8,15.5 22.7,15.1 22.3,14.9 C22.3,14.9 22.3,14.9 22.3,14.9 Z"></path>
                    <path d="M18.5,16.2 C19.5,16.2 20.4,15.4 20.4,14.3 C20.4,13.3 19.6,12.4 18.5,12.4 C17.5,12.4 16.6,13.2 16.6,14.3 L16.6,14.3 C16.6,15.3 17.4,16.2 18.5,16.2 Z"></path>
                </g>
                <g transform="translate(2.000000, 0.000000)">
                    <path d="M20.3,18.4 L45.5,18.4 C45.7,18.4 45.9,18.2 45.9,18 L45.9,17.8 C44.3,10.6 37.2,6.2 30,7.8 C25,8.9 21.1,12.8 20,17.8 C20,17.9 20,17.9 20,18 L20,18 C20,18.2 20.1,18.4 20.3,18.4 Z" id="Path"></path>
                    <path d="M34.4,5.8 C35.3,5.8 36.2,6.1 36.9,6.7 C37.5,7.1 38.3,7.4 39.1,7.4 L41,7.4 L41,2.6 L39.1,2.6 C38,2.6 37,2.2 36.2,1.4 C35.6,1 34.9,0.8 34.1,0.9 L32.9,0.9 L32.9,5.7 C33.4,5.7 33.9,5.7 34.4,5.8 Z" id="Path"></path>
                    <path d="M4.7,41.9 L61.1,41.9 L61.1,23.7 L4.7,23.7 L4.7,41.9 Z M55.1,26.6 L58.7,26.6 L58.7,31 L55.1,31 L55.1,26.6 Z M55.1,34.6 L58.7,34.6 L58.7,39 L55.1,39 L55.1,34.6 Z M49.6,26.6 L53.2,26.6 L53.2,31 L49.6,31 L49.6,26.6 Z M49.6,34.6 L53.2,34.6 L53.2,39 L49.6,39 L49.6,34.6 Z M44.1,26.6 L47.7,26.6 L47.7,31 L44.1,31 L44.1,26.6 Z M44.1,34.6 L47.7,34.6 L47.7,39 L44.1,39 L44.1,34.6 Z M37.1,26 L40.4,26 L40.4,39.6 L37.1,39.6 L37.1,26 Z M31.5,26 L34.8,26 L34.8,39.6 L31.5,39.6 L31.5,26 Z M25.9,26 L29.2,26 L29.2,39.6 L25.9,39.6 L25.9,26 Z M18.7,26.6 L22.3,26.6 L22.3,31 L18.7,31 L18.7,26.6 Z M18.7,34.6 L22.3,34.6 L22.3,39 L18.7,39 L18.7,34.6 Z M13.3,26.6 L16.9,26.6 L16.9,31 L13.3,31 L13.3,26.6 Z M13.3,34.6 L16.9,34.6 L16.9,39 L13.3,39 L13.3,34.6 Z M7.8,26.6 L11.4,26.6 L11.4,31 L7.8,31 L7.8,26.6 Z M7.8,34.6 L11.4,34.6 L11.4,39 L7.8,39 L7.8,34.6 Z" id="Shape"></path>
                    <rect id="Rectangle" x="2.7" y="43" width="60.5" height="1"></rect>
                    <rect id="Rectangle" x="2.7" y="19.5" width="60.5" height="1.3"></rect>
                    <rect id="Rectangle" x="4.8" y="22" width="56.3" height="1"></rect>
                    <rect id="Rectangle" x="0.7" y="44.6" width="64.5" height="1.3"></rect>
                </g>
            </g>
        </g>
    </g>
</svg>