<?xml version="1.0" encoding="UTF-8"?>
<svg width="95px" height="95px" viewBox="0 0 95 95" version="1.1" xmlns="http://www.w3.org/2000/svg" xmlns:xlink="http://www.w3.org/1999/xlink">
    <!-- Generator: Sketch 53.2 (72643) - https://sketchapp.com -->
    <title>goal_5_target_5_4</title>
    <desc>Created with Sketch.</desc>
    <g id="goal_5_target_5_4" stroke="none" stroke-width="1" fill="none" fill-rule="evenodd">
        <g id="Group-33">
            <rect id="Rectangle" fill="#FF3A21" fill-rule="nonzero" x="-3.62376795e-13" y="-2.13162821e-14" width="94.8" height="94.8"></rect>
            <g id="Group" transform="translate(6.700000, 8.000000)">
                <path d="M24.1,47.8 C24.8,48.3 25.6,48.5 26.4,48.4 C26.3,48.3 26.2,48.1 26.1,47.9 C25.4,46.4 27.2,45.5 27.2,45.5 L28,45.2 L29.9,44.4 L29.3,44.3 L22.9,43.7 C22.3,45.2 22.8,46.9 24.1,47.8 Z" id="Path"></path>
                <polygon id="Path" points="25 40.4 23.3 42.9 23.3 42.9 23.3 42.9 26.3 43.2"></polygon>
                <path d="M30.2,43.6 L30.4,43.6 L31.2,43.7 L32.5,41.9 L32.5,41.9 C33.5,40.4 33.2,38.5 31.8,37.3 L31.6,37.1 C30.1,36 27.9,36.4 26.8,37.9 L26.8,37.9 L26.2,38.7 L25.5,39.7 L27.2,43.3 L30.2,43.6 Z M26.9,39.6 C27.1,38.1 28.5,37.1 30,37.3 C30.4,37.4 30.8,37.5 31.2,37.8 L31.2,37.8 C32.4,38.7 32.7,40.4 31.9,41.6 L31.9,41.7 C31,42.9 29.3,43.2 28.1,42.3 C27.2,41.6 26.8,40.6 26.9,39.6 L26.9,39.6 Z" id="Shape"></path>
                <g transform="translate(13.000000, 22.000000)" fill="#FFFFFF" fill-rule="nonzero">
                    <path d="M15.9,5.7 C15.9,3.6 14.2,1.8 12,1.8 C9.8,1.8 8.1,3.5 8.1,5.7 C8.1,7.9 9.8,9.6 12,9.6 L12,9.6 C14.1,9.6 15.9,7.9 15.9,5.7 Z" id="Path"></path>
                    <path d="M4.2,14.5 L0.9,25 C0.7,25.6 0.8,26.2 1.1,26.8 C1.5,27.3 2.2,27.6 2.8,27.5 C3.8,27.3 4.1,26.1 4.1,26.1 L6.7,17.3 C6.7,17.3 6.8,16.6 7.3,16.8 C7.8,17 7.6,17.7 7.6,17.7 L3.1,34.1 L7.3,34.1 L7.3,45.9 C7.3,47 8.2,47.9 9.3,47.9 C10.4,47.9 11.3,47 11.3,45.9 L11.3,34.1 L12.5,34.1 L12.5,45.9 C12.5,47 13.4,47.9 14.5,47.9 C15.6,47.9 16.5,47 16.5,45.9 L16.5,34.1 L20.7,34.1 L18.3,25.3 C19.7,24.7 21.4,23.9 21.8,23.8 C22.2,23.6 22.3,23.3 22.3,22.9 C22.3,22.9 20.5,15.8 20.5,15.7 C20.3,14.7 19.1,11.9 16.7,11.6 L7.9,11.6 C5.3,11.5 4.2,14.5 4.2,14.5 Z M13.2,16.7 L13.8,15.9 L13.8,15.9 C14.9,14.4 17,14.1 18.6,15.1 L18.8,15.3 C20.2,16.4 20.5,18.4 19.5,19.9 L19.5,19.9 L18.3,21.8 L17.5,21.7 L17.3,21.7 L14.3,21.4 L12.6,17.8 L13.2,16.7 Z M10.2,20.9 L10.2,20.9 L12,18.4 L13.3,21.2 L10.2,20.9 L10.2,20.9 Z M9.8,21.7 L16.2,22.3 L16.8,22.4 L15,23.2 L14.3,23.5 C14.3,23.5 12.5,24.4 13.2,25.9 C13.3,26.1 13.4,26.2 13.5,26.4 C12.7,26.5 11.8,26.3 11.2,25.8 C9.8,24.9 9.3,23.2 9.8,21.7 L9.8,21.7 Z" id="Shape"></path>
                    <path d="M15,20.2 C16.2,21 17.9,20.8 18.8,19.6 L18.8,19.5 C19.7,18.3 19.4,16.6 18.1,15.7 L18.1,15.7 C16.9,14.8 15.2,15.1 14.3,16.3 C14,16.7 13.9,17.1 13.8,17.5 C13.7,18.6 14.1,19.6 15,20.2 Z" id="Path"></path>
                    <path d="M24,32.5 L21.8,38.9 C21.8,38.9 21.5,39.9 22.4,40.2 C22.9,40.3 23.5,40 23.6,39.5 C23.6,39.5 23.6,39.5 23.6,39.5 L25.4,34 C25.4,34 25.5,33.6 25.8,33.7 C26.1,33.8 26,34.1 26,34.1 L23.9,41.6 L25.5,41.6 L25.5,46.4 C25.5,47.2 26.1,47.9 27,47.9 C27.2,47.9 27.4,47.9 27.5,47.8 C28.1,47.6 28.5,47 28.5,46.3 L28.5,41.7 C28.5,41.6 28.5,41.6 28.5,41.5 L29.4,41.5 L29.4,46.2 C29.4,46.8 29.8,47.4 30.4,47.6 C31.2,47.9 32,47.4 32.3,46.7 C32.4,46.5 32.4,46.4 32.4,46.2 L32.4,46.2 L32.4,41.4 L34,41.4 L32.5,35.9 C32.4,35.7 32.4,35.5 32.4,35.2 L32.4,34.5 C32.4,34.3 32.5,34 32.6,33.8 L36,27.7 C36.7,27.5 37.2,26.9 37.2,26.2 L37.2,16.5 C37.2,16.1 37.3,15.7 38,15.7 C38.5,15.7 38.5,16.2 38.6,16.5 L38.6,45.5 C38.6,46.7 39.6,47.8 40.9,47.8 C42.1,47.8 43.2,46.8 43.2,45.5 L43.2,28.9 C43.2,28.6 43.4,28.3 43.8,28.2 C43.8,28.2 43.9,28.2 43.9,28.2 L43.9,28.2 C44.2,28.2 44.5,28.4 44.5,28.8 C44.5,28.8 44.5,28.9 44.5,28.9 L44.5,45.6 C44.6,46.9 45.7,47.8 46.9,47.7 C48,47.6 48.9,46.7 49,45.6 L49,16.6 C49,16.3 49.1,15.8 49.6,15.8 C50.3,15.8 50.4,16.3 50.4,16.6 L50.4,26.3 C50.5,27.2 51.2,27.8 52.1,27.7 C52.9,27.6 53.5,27 53.5,26.3 L53.5,15.1 C53.5,12.3 51.4,10 48.6,9.7 L48.3,9.7 L39.4,9.7 L39.1,9.7 C36.3,10 34.2,12.3 34.2,15.1 L34.2,26.3 C34.2,26.4 34.2,26.6 34.3,26.7 L33.9,27.4 C33.8,27.5 32.4,30 32,30.4 C31.8,30.7 31.4,30.8 31.1,30.8 L27.5,30.8 L26.2,30.8 C24.4,30.9 24,32.5 24,32.5 Z" id="Path"></path>
                    <path d="M31.9,26.6 C31.9,24.9 30.6,23.6 28.9,23.6 C27.2,23.6 25.9,24.9 25.9,26.6 C25.9,28.3 27.2,29.6 28.9,29.6 C30.6,29.6 31.9,28.2 31.9,26.6 Z" id="Path"></path>
                    <path d="M47.6,4.1 C47.6,1.9 45.8,0 43.5,0 C41.3,0 39.4,1.8 39.4,4.1 C39.4,6.4 41.2,8.2 43.5,8.2 C43.5,8.2 43.5,8.2 43.5,8.2 C45.7,8.2 47.5,6.5 47.6,4.3 C47.6,4.2 47.6,4.1 47.6,4.1 Z" id="Path"></path>
                </g>
                <path d="M80.4,17.6 L41.2,0.6 C41.1,0.5 40.9,0.5 40.8,0.5 C40.7,0.5 40.6,0.5 40.5,0.6 L1.3,17.5 C1.1,17.6 1,17.7 1.1,17.9 L1.1,21.8 C1.1,22.1 1.1,22.5 1.6,22.3 L40.7,6.2 C40.8,6.2 41,6.2 41.1,6.2 L80.2,22.3 C80.7,22.5 80.7,22.2 80.7,21.8 L80.7,17.9 C80.6,17.8 80.5,17.6 80.4,17.6 Z" id="Path" fill="#FFFFFF" fill-rule="nonzero"></path>
                <path d="M1.5,74.6 L79.9,74.6 C80.2,74.6 80.5,74.9 80.5,75.2 L80.5,78.8 C80.5,79.1 80.2,79.4 79.9,79.4 L1.5,79.4 C1.2,79.4 0.9,79.1 0.9,78.8 L0.9,75.2 C0.9,74.9 1.2,74.6 1.5,74.6 Z" id="Path" fill="#FFFFFF" fill-rule="nonzero"></path>
            </g>
        </g>
        <g id="Group-33">
            <rect id="Rectangle" fill="#FF3A21" fill-rule="nonzero" x="-3.62376795e-13" y="-2.13162821e-14" width="94.8" height="94.8"></rect>
            <g id="Group" transform="translate(6.700000, 8.000000)">
                <path d="M24.1,47.8 C24.8,48.3 25.6,48.5 26.4,48.4 C26.3,48.3 26.2,48.1 26.1,47.9 C25.4,46.4 27.2,45.5 27.2,45.5 L28,45.2 L29.9,44.4 L29.3,44.3 L22.9,43.7 C22.3,45.2 22.8,46.9 24.1,47.8 Z" id="Path"></path>
                <polygon id="Path" points="25 40.4 23.3 42.9 23.3 42.9 23.3 42.9 26.3 43.2"></polygon>
                <path d="M30.2,43.6 L30.4,43.6 L31.2,43.7 L32.5,41.9 L32.5,41.9 C33.5,40.4 33.2,38.5 31.8,37.3 L31.6,37.1 C30.1,36 27.9,36.4 26.8,37.9 L26.8,37.9 L26.2,38.7 L25.5,39.7 L27.2,43.3 L30.2,43.6 Z M26.9,39.6 C27.1,38.1 28.5,37.1 30,37.3 C30.4,37.4 30.8,37.5 31.2,37.8 L31.2,37.8 C32.4,38.7 32.7,40.4 31.9,41.6 L31.9,41.7 C31,42.9 29.3,43.2 28.1,42.3 C27.2,41.6 26.8,40.6 26.9,39.6 L26.9,39.6 Z" id="Shape"></path>
                <g transform="translate(13.000000, 22.000000)" fill="#FFFFFF" fill-rule="nonzero">
                    <path d="M15.9,5.7 C15.9,3.6 14.2,1.8 12,1.8 C9.8,1.8 8.1,3.5 8.1,5.7 C8.1,7.9 9.8,9.6 12,9.6 L12,9.6 C14.1,9.6 15.9,7.9 15.9,5.7 Z" id="Path"></path>
                    <path d="M4.2,14.5 L0.9,25 C0.7,25.6 0.8,26.2 1.1,26.8 C1.5,27.3 2.2,27.6 2.8,27.5 C3.8,27.3 4.1,26.1 4.1,26.1 L6.7,17.3 C6.7,17.3 6.8,16.6 7.3,16.8 C7.8,17 7.6,17.7 7.6,17.7 L3.1,34.1 L7.3,34.1 L7.3,45.9 C7.3,47 8.2,47.9 9.3,47.9 C10.4,47.9 11.3,47 11.3,45.9 L11.3,34.1 L12.5,34.1 L12.5,45.9 C12.5,47 13.4,47.9 14.5,47.9 C15.6,47.9 16.5,47 16.5,45.9 L16.5,34.1 L20.7,34.1 L18.3,25.3 C19.7,24.7 21.4,23.9 21.8,23.8 C22.2,23.6 22.3,23.3 22.3,22.9 C22.3,22.9 20.5,15.8 20.5,15.7 C20.3,14.7 19.1,11.9 16.7,11.6 L7.9,11.6 C5.3,11.5 4.2,14.5 4.2,14.5 Z M13.2,16.7 L13.8,15.9 L13.8,15.9 C14.9,14.4 17,14.1 18.6,15.1 L18.8,15.3 C20.2,16.4 20.5,18.4 19.5,19.9 L19.5,19.9 L18.3,21.8 L17.5,21.7 L17.3,21.7 L14.3,21.4 L12.6,17.8 L13.2,16.7 Z M10.2,20.9 L10.2,20.9 L12,18.4 L13.3,21.2 L10.2,20.9 L10.2,20.9 Z M9.8,21.7 L16.2,22.3 L16.8,22.4 L15,23.2 L14.3,23.5 C14.3,23.5 12.5,24.4 13.2,25.9 C13.3,26.1 13.4,26.2 13.5,26.4 C12.7,26.5 11.8,26.3 11.2,25.8 C9.8,24.9 9.3,23.2 9.8,21.7 L9.8,21.7 Z" id="Shape"></path>
                    <path d="M15,20.2 C16.2,21 17.9,20.8 18.8,19.6 L18.8,19.5 C19.7,18.3 19.4,16.6 18.1,15.7 L18.1,15.7 C16.9,14.8 15.2,15.1 14.3,16.3 C14,16.7 13.9,17.1 13.8,17.5 C13.7,18.6 14.1,19.6 15,20.2 Z" id="Path"></path>
                    <path d="M24,32.5 L21.8,38.9 C21.8,38.9 21.5,39.9 22.4,40.2 C22.9,40.3 23.5,40 23.6,39.5 C23.6,39.5 23.6,39.5 23.6,39.5 L25.4,34 C25.4,34 25.5,33.6 25.8,33.7 C26.1,33.8 26,34.1 26,34.1 L23.9,41.6 L25.5,41.6 L25.5,46.4 C25.5,47.2 26.1,47.9 27,47.9 C27.2,47.9 27.4,47.9 27.5,47.8 C28.1,47.6 28.5,47 28.5,46.3 L28.5,41.7 C28.5,41.6 28.5,41.6 28.5,41.5 L29.4,41.5 L29.4,46.2 C29.4,46.8 29.8,47.4 30.4,47.6 C31.2,47.9 32,47.4 32.3,46.7 C32.4,46.5 32.4,46.4 32.4,46.2 L32.4,46.2 L32.4,41.4 L34,41.4 L32.5,35.9 C32.4,35.7 32.4,35.5 32.4,35.2 L32.4,34.5 C32.4,34.3 32.5,34 32.6,33.8 L36,27.7 C36.7,27.5 37.2,26.9 37.2,26.2 L37.2,16.5 C37.2,16.1 37.3,15.7 38,15.7 C38.5,15.7 38.5,16.2 38.6,16.5 L38.6,45.5 C38.6,46.7 39.6,47.8 40.9,47.8 C42.1,47.8 43.2,46.8 43.2,45.5 L43.2,28.9 C43.2,28.6 43.4,28.3 43.8,28.2 C43.8,28.2 43.9,28.2 43.9,28.2 L43.9,28.2 C44.2,28.2 44.5,28.4 44.5,28.8 C44.5,28.8 44.5,28.9 44.5,28.9 L44.5,45.6 C44.6,46.9 45.7,47.8 46.9,47.7 C48,47.6 48.9,46.7 49,45.6 L49,16.6 C49,16.3 49.1,15.8 49.6,15.8 C50.3,15.8 50.4,16.3 50.4,16.6 L50.4,26.3 C50.5,27.2 51.2,27.8 52.1,27.7 C52.9,27.6 53.5,27 53.5,26.3 L53.5,15.1 C53.5,12.3 51.4,10 48.6,9.7 L48.3,9.7 L39.4,9.7 L39.1,9.7 C36.3,10 34.2,12.3 34.2,15.1 L34.2,26.3 C34.2,26.4 34.2,26.6 34.3,26.7 L33.9,27.4 C33.8,27.5 32.4,30 32,30.4 C31.8,30.7 31.4,30.8 31.1,30.8 L27.5,30.8 L26.2,30.8 C24.4,30.9 24,32.5 24,32.5 Z" id="Path"></path>
                    <path d="M31.9,26.6 C31.9,24.9 30.6,23.6 28.9,23.6 C27.2,23.6 25.9,24.9 25.9,26.6 C25.9,28.3 27.2,29.6 28.9,29.6 C30.6,29.6 31.9,28.2 31.9,26.6 Z" id="Path"></path>
                    <path d="M47.6,4.1 C47.6,1.9 45.8,0 43.5,0 C41.3,0 39.4,1.8 39.4,4.1 C39.4,6.4 41.2,8.2 43.5,8.2 C43.5,8.2 43.5,8.2 43.5,8.2 C45.7,8.2 47.5,6.5 47.6,4.3 C47.6,4.2 47.6,4.1 47.6,4.1 Z" id="Path"></path>
                </g>
                <path d="M80.4,17.6 L41.2,0.6 C41.1,0.5 40.9,0.5 40.8,0.5 C40.7,0.5 40.6,0.5 40.5,0.6 L1.3,17.5 C1.1,17.6 1,17.7 1.1,17.9 L1.1,21.8 C1.1,22.1 1.1,22.5 1.6,22.3 L40.7,6.2 C40.8,6.2 41,6.2 41.1,6.2 L80.2,22.3 C80.7,22.5 80.7,22.2 80.7,21.8 L80.7,17.9 C80.6,17.8 80.5,17.6 80.4,17.6 Z" id="Path" fill="#FFFFFF" fill-rule="nonzero"></path>
                <path d="M1.5,74.6 L79.9,74.6 C80.2,74.6 80.5,74.9 80.5,75.2 L80.5,78.8 C80.5,79.1 80.2,79.4 79.9,79.4 L1.5,79.4 C1.2,79.4 0.9,79.1 0.9,78.8 L0.9,75.2 C0.9,74.9 1.2,74.6 1.5,74.6 Z" id="Path" fill="#FFFFFF" fill-rule="nonzero"></path>
            </g>
        </g>
    </g>
</svg>