<?xml version="1.0" encoding="UTF-8"?>
<svg width="95px" height="95px" viewBox="0 0 95 95" version="1.1" xmlns="http://www.w3.org/2000/svg" xmlns:xlink="http://www.w3.org/1999/xlink">
    <!-- Generator: Sketch 53.2 (72643) - https://sketchapp.com -->
    <title>goal_7_target_7_3</title>
    <desc>Created with Sketch.</desc>
    <g id="goal_7_target_7_3" stroke="none" stroke-width="1" fill="none" fill-rule="evenodd">
        <g id="Group-50" fill-rule="nonzero">
            <rect id="Rectangle" fill="#FCC30B" x="-3.62376795e-13" y="-2.13162821e-14" width="94.8" height="94.8"></rect>
            <g id="Group" transform="translate(6.700000, 7.000000)" fill="#FFFFFF">
                <path d="M13.8,41 C13.8,41.7 14.3,42.3 15,42.3 L21.8,42.3 C22.5,42.3 23.1,41.7 23.1,41 C23.1,40.3 22.5,39.7 21.8,39.7 L15,39.7 C14.3,39.8 13.8,40.3 13.8,41 Z" id="Path"></path>
                <path d="M67.6,41 C67.6,40.3 67.1,39.8 66.4,39.7 L59.6,39.7 C58.9,39.7 58.3,40.3 58.3,41 C58.3,41.7 58.9,42.3 59.6,42.3 L59.6,42.3 L66.4,42.3 C67.1,42.2 67.6,41.7 67.6,41 Z" id="Path"></path>
                <path d="M42,22.1 L42,15.3 C42,14.6 41.4,14 40.7,14 C40,14 39.4,14.6 39.4,15.3 L39.4,15.3 L39.4,22.1 C39.4,22.8 40,23.4 40.7,23.4 C41.4,23.4 42,22.8 42,22.1 Z" id="Path"></path>
                <path d="M39.4,60 L39.4,66.8 C39.4,67.5 40,68.1 40.7,68.1 C41.4,68.1 42,67.5 42,66.8 L42,60 C42,59.3 41.4,58.7 40.7,58.7 C40,58.7 39.4,59.3 39.4,60 L39.4,60 Z" id="Path"></path>
                <path d="M23.6,32.7 C24.2,33 25,32.7 25.3,32 C25.5,31.5 25.4,30.8 24.9,30.5 L19,27.2 C18.4,26.9 17.6,27.1 17.3,27.7 C17,28.3 17.2,29.1 17.8,29.4 L17.8,29.4 L23.6,32.7 Z" id="Path"></path>
                <path d="M56.5,51.6 L62.4,55 C63,55.3 63.8,55 64.1,54.3 C64.3,53.8 64.2,53.1 63.7,52.8 L57.8,49.4 C57.2,49.1 56.4,49.4 56.1,50 C55.8,50.5 56,51.2 56.5,51.6 Z" id="Path"></path>
                <path d="M51.2,25.2 L54.6,19.3 C54.9,18.7 54.7,18 54.1,17.6 C53.5,17.3 52.8,17.4 52.4,18 L49,24 C48.7,24.6 49,25.4 49.7,25.7 C50.2,25.9 50.9,25.7 51.2,25.2 L51.2,25.2 Z" id="Path"></path>
                <path d="M30.2,56.8 L26.8,62.7 C26.6,63.4 26.9,64.1 27.6,64.3 C28.1,64.5 28.7,64.3 29,63.9 L32.4,58 C32.8,57.4 32.5,56.6 31.9,56.3 C31.3,56 30.5,56.3 30.2,56.8 L30.2,56.8 L30.2,56.8 Z" id="Path"></path>
                <path d="M31.8,25.7 C32.4,25.4 32.6,24.6 32.3,24 L29,18.1 C28.6,17.5 27.8,17.4 27.2,17.7 C26.7,18.1 26.5,18.7 26.8,19.3 L30.2,25.2 C30.5,25.8 31.3,26 31.8,25.7 Z" id="Path"></path>
                <path d="M49.5,56.4 C48.9,56.7 48.7,57.5 49,58.1 L52.4,64 C52.8,64.6 53.5,64.8 54.1,64.5 C54.7,64.1 54.9,63.4 54.6,62.8 L51.2,56.9 C50.9,56.3 50.1,56.1 49.5,56.4 Z" id="Path"></path>
                <path d="M57.8,32.7 L63.7,29.3 C64.3,28.9 64.4,28.2 64.1,27.6 C63.8,27 63,26.8 62.4,27.1 L56.5,30.5 C56,30.9 55.8,31.6 56.1,32.2 C56.4,32.8 57.2,33 57.8,32.7 Z" id="Path"></path>
                <path d="M19,55 L24.9,51.6 C25.5,51.2 25.7,50.5 25.4,49.9 C25,49.3 24.3,49.1 23.7,49.4 L17.8,52.8 C17.2,53.2 17.1,54 17.4,54.6 C17.7,55.1 18.4,55.3 19,55 Z" id="Path"></path>
                <path d="M40.7,25.3 C31.9,25.3 24.8,32.4 24.8,41.2 C24.8,50 31.9,57 40.7,57 C49.5,57 56.6,49.9 56.6,41.1 L56.6,41.1 C56.6,32.4 49.5,25.3 40.7,25.3 Z M37.1,49.1 L35.5,43.9 L33.9,49.1 L31.4,49.1 L33.7,41.7 L31.6,35.3 L34.3,35.3 L35.7,39.7 L37.1,35.3 L39.6,35.3 L37.5,41.8 L39.9,49 L37.1,49 L37.1,49.1 Z M49,37.5 C49.1,39.1 48.4,40.6 47.2,41.7 L45.4,43.6 C44.7,44.2 44.2,45.1 44.3,46.1 L44.3,46.9 L48.9,46.9 L48.9,49 L41.7,49 L41.7,46 C41.7,44.4 42.3,43.3 43.8,41.7 L45.3,40 C46.1,39.3 46.4,38.2 46.3,37.2 L46.3,35.9 C46.3,34.9 45.8,34.7 45.3,34.7 C44.8,34.7 44.2,35 44.2,36 L44.2,38 L41.7,38 L41.7,36 C41.7,33.7 42.9,32.4 45.4,32.4 C47.9,32.4 49,33.5 49,35.9 L49,37.5 L49,37.5 Z" id="Shape"></path>
                <path d="M80,45.1 L76.9,44.7 C76.7,44.7 76.4,44.8 76.4,45.1 C76.4,45.1 76.4,45.1 76.4,45.1 C73.8,65.1 55.4,79.1 35.5,76.4 C26.9,75.3 19,71.1 13.2,64.7 L14.2,63.8 L16.5,61.7 L16.6,61.6 C16.7,61.5 16.7,61.2 16.6,61.1 C16.5,61 16.5,61 16.4,61 L16.3,61 L6.1,59.2 L6,59.2 C5.9,59.2 5.8,59.2 5.7,59.3 C5.6,59.4 5.6,59.5 5.6,59.5 L5.6,59.7 L6.5,69.9 L6.5,70 L6.5,70 C6.5,70.1 6.5,70.2 6.6,70.3 C6.7,70.4 7,70.4 7.1,70.3 L7.1,70.3 L7.2,70.2 L9.5,68.1 L10.2,67.5 C25.2,84.1 50.7,85.4 67.3,70.5 C74.4,64.1 79.1,55.3 80.3,45.7 C80.4,45.3 80.2,45.1 80,45.1 Z" id="Path"></path>
                <path d="M40.8,4.3 C51.2,4.3 61.1,8.7 68,16.5 L67.1,17.1 L64.5,18.9 L64.4,19 C64.2,19.1 64.2,19.3 64.3,19.5 C64.3,19.6 64.4,19.6 64.5,19.7 L64.6,19.7 L74.4,23.1 L74.5,23.1 C74.6,23.1 74.7,23.1 74.8,23 C74.9,22.9 74.9,22.9 75,22.8 L75,22.7 L75,22.6 L75.6,12.4 L75.6,12.3 L75.6,12.3 C75.6,12.2 75.6,12.1 75.6,12 C75.5,11.8 75.3,11.8 75.1,11.9 L75.1,11.9 L75,11.9 L72.3,13.7 L71.4,14.3 C56.8,-2.6 31.3,-4.4 14.4,10.2 C6.7,16.8 1.8,26.1 0.7,36.2 C0.7,36.5 0.9,36.7 1.1,36.7 L4.2,37 C4.4,37 4.7,36.8 4.7,36.6 C6.6,18.2 22.2,4.3 40.8,4.3 Z" id="Path"></path>
            </g>
        </g>
    </g>
</svg>