<?xml version="1.0" encoding="UTF-8"?>
<svg width="95px" height="95px" viewBox="0 0 95 95" version="1.1" xmlns="http://www.w3.org/2000/svg" xmlns:xlink="http://www.w3.org/1999/xlink">
    <!-- Generator: Sketch 53.2 (72643) - https://sketchapp.com -->
    <title>goal_9_target_9_5</title>
    <desc>Created with Sketch.</desc>
    <g id="goal_9_target_9_5" stroke="none" stroke-width="1" fill="none" fill-rule="evenodd">
        <g id="Group-69" fill-rule="nonzero">
            <rect id="Rectangle" fill="#FD6925" x="-3.62376795e-13" y="-2.13162821e-14" width="94.8" height="94.8"></rect>
            <path d="M88.2,31 L88.2,31 L88.2,31 L83.1,27.2 L83.1,27.2 L83.1,27.2 C83.1,27.2 83,27.1 82.9,27.1 C82.8,27.1 82.7,27.2 82.7,27.3 L82.7,27.3 L82.7,27.3 L82.7,30.4 L76.5,30.4 C76.1,28.3 74.5,26.6 72.4,26.2 L72.4,16.7 L75.4,16.7 C75.5,16.7 75.6,16.6 75.6,16.5 C75.6,16.5 75.6,16.5 75.6,16.5 C75.6,16.4 75.6,16.4 75.5,16.3 L75.5,16.3 L71.5,11.2 L71.5,11.2 C71.4,11.2 71.4,11.1 71.3,11.1 C71.2,11.1 71.2,11.1 71.1,11.2 L71.1,11.2 L71.1,11.2 L67.3,16.3 L67.3,16.3 L67.3,16.3 C67.3,16.3 67.2,16.4 67.2,16.5 C67.2,16.6 67.3,16.7 67.4,16.7 L70.4,16.7 L70.4,26.2 C68,26.7 66.2,28.8 66.2,31.3 C66.2,32.6 66.7,33.8 67.5,34.8 L55.4,42.4 L55.4,34.8 C55.4,34.6 55.3,34.4 55.1,34.3 L47.1,29.7 C46.9,29.6 46.7,29.6 46.6,29.7 L38.6,34.3 C38.4,34.4 38.3,34.6 38.3,34.8 L38.3,41.9 L25.4,33.8 C26.1,32.9 26.4,31.8 26.4,30.7 C26.4,30 26.3,29.3 26,28.7 L41.7,18.7 L43.5,21 L43.5,21 C43.6,21.1 43.7,21.1 43.8,21 C43.8,21 43.9,20.9 43.9,20.9 L43.9,20.9 L45.5,14.6 L45.5,14.5 C45.5,14.4 45.5,14.4 45.4,14.3 C45.4,14.2 45.3,14.2 45.2,14.2 L45.1,14.2 L38.7,14.3 L38.7,14.3 C38.6,14.3 38.6,14.3 38.5,14.3 C38.4,14.4 38.4,14.5 38.5,14.6 L38.5,14.6 L38.5,14.6 L38.6,14.7 L40.4,17 L24.9,26.8 C24.2,26 23.2,25.5 22.1,25.3 L22.1,17 L25.1,17 C25.2,17 25.3,16.9 25.3,16.8 C25.3,16.8 25.3,16.8 25.3,16.8 C25.3,16.7 25.3,16.7 25.3,16.6 L25.3,16.6 L21.3,11.5 L21.2,11.5 C21.1,11.5 21.1,11.4 21,11.4 C20.9,11.4 20.9,11.4 20.8,11.5 L20.8,11.5 L20.8,11.5 L16.9,16.6 L16.9,16.6 L16.9,16.6 C16.9,16.6 16.8,16.7 16.8,16.8 C16.8,16.9 16.9,17 17,17 L20,17 L20,25.5 C17.7,26 15.9,28 15.8,30.4 L11,26.8 L11,26.8 L11,26.8 C11,26.8 10.9,26.7 10.8,26.7 C10.7,26.7 10.6,26.8 10.6,26.9 L10.6,26.9 L10.6,26.9 L10.6,30 L6.1,30 L6.1,32 L10.9,32 L10.9,34.9 C10.9,35 11,35.1 11.1,35.1 C11.2,35.1 11.2,35.1 11.2,35.1 L11.2,35.1 L16,31.3 C16.3,33.5 18,35.3 20.1,35.7 L20.1,40.9 C18.1,41.5 16.9,43.6 17.4,45.6 C18,47.6 20.1,48.8 22.1,48.3 C24.1,47.8 25.3,45.6 24.8,43.6 C24.4,42.3 23.4,41.3 22.1,40.9 L22.1,35.7 C22.7,35.6 23.2,35.4 23.7,35.1 L37.7,43.9 L30.3,48.1 C30.1,48.2 30,48.4 30,48.6 L30,57.9 C30,58.1 30.1,58.3 30.3,58.4 L38.3,63 C38.4,63 38.5,63.1 38.6,63.1 C38.7,63.1 38.8,63.1 38.9,63 L45.7,59.1 L45.7,73.6 C43.7,74 42.1,75.6 41.6,77.6 L29.4,77.6 L29.4,74.7 C29.4,74.6 29.3,74.5 29.1,74.5 C29.1,74.5 29,74.5 29,74.5 L29,74.5 L23.9,78.4 L23.9,78.5 C23.9,78.6 23.8,78.6 23.8,78.7 C23.8,78.8 23.8,78.8 23.9,78.9 L23.9,78.9 L23.9,78.9 L29,82.7 L29,82.7 L29,82.7 C29,82.7 29.1,82.8 29.2,82.8 C29.3,82.8 29.4,82.7 29.4,82.6 L29.4,82.6 L29.4,82.6 L29.4,79.5 L41.8,79.5 C42.3,82.3 44.9,84.3 47.8,83.8 C50,83.4 51.7,81.8 52.1,79.6 L72.3,79.6 L72.3,82.6 C72.3,82.7 72.4,82.8 72.5,82.8 C72.5,82.8 72.6,82.8 72.7,82.8 L72.7,82.8 L77.8,78.9 L77.8,78.8 C77.9,78.8 77.9,78.7 77.9,78.6 C77.9,78.5 77.9,78.5 77.8,78.4 L77.8,78.4 L77.8,78.4 L72.8,74.5 L72.8,74.5 L72.8,74.5 C72.7,74.4 72.6,74.4 72.5,74.5 C72.5,74.5 72.4,74.6 72.4,74.6 L72.4,74.6 L72.4,74.6 L72.4,77.6 L53.7,77.6 L64.7,71.5 L66.3,74.1 L66.3,74.2 C66.4,74.3 66.5,74.3 66.6,74.3 C66.6,74.3 66.7,74.2 66.7,74.2 L66.7,74.1 L68.9,68 L68.9,68 C68.9,67.9 68.9,67.9 68.9,67.8 C68.9,67.8 68.8,67.7 68.8,67.7 L68.8,67.7 L68.7,67.7 L62.3,67.2 L62.3,67.2 C62.2,67.2 62.2,67.2 62.1,67.2 C62,67.3 62,67.4 62,67.5 L62,67.5 L62,67.5 L62.1,67.6 L63.6,70 L51.5,76.7 C50.8,75.2 49.4,74 47.7,73.7 L47.7,59.1 L54.7,63 C54.8,63 54.9,63.1 55,63.1 C55.1,63.1 55.2,63.1 55.3,63 L63.3,58.4 C63.5,58.3 63.6,58.1 63.6,57.9 L63.6,48.6 C63.6,48.4 63.5,48.2 63.3,48.1 L56.4,44.1 L69.2,36 C69.9,36.3 70.6,36.5 71.4,36.5 C73.9,36.5 76,34.8 76.5,32.4 L82.6,32.4 L82.6,35.4 C82.6,35.5 82.7,35.6 82.8,35.6 C82.8,35.6 82.8,35.6 82.8,35.6 C82.8,35.6 82.9,35.6 83,35.6 L83,35.6 L88.1,31.6 L88.1,31.6 C88.1,31.5 88.2,31.5 88.2,31.4 C88.2,31.2 88.2,31.1 88.2,31 Z M23.1,44.6 C23.1,45.6 22.3,46.4 21.3,46.4 C20.3,46.4 19.5,45.6 19.5,44.6 C19.5,43.7 20.1,43 20.9,42.8 L21.7,42.8 C22.5,43 23.1,43.7 23.1,44.6 Z M21.3,33.8 C19.5,33.8 18.1,32.4 18.1,30.6 C18.1,28.8 19.5,27.4 21.3,27.4 C23.1,27.4 24.5,28.8 24.5,30.6 C24.5,30.6 24.5,30.6 24.5,30.6 C24.5,32.4 23.1,33.8 21.3,33.8 C21.3,33.8 21.3,33.8 21.3,33.8 Z M38.3,61.6 L31.3,57.6 L31.3,49.5 L38.3,53.5 L38.3,61.6 Z M54.4,35.6 L54.4,43 L54.3,43 L47.9,39.3 L54.4,35.6 Z M39.4,35.6 L45.9,39.3 L39.9,42.7 L39.4,42.4 L39.4,35.6 Z M46.4,40.2 L46.4,47.6 L39.9,43.9 L39.9,43.9 L46.4,40.2 Z M39.4,61.6 L39.4,54.1 L45.9,57.8 L39.4,61.6 Z M39.9,53.2 L46.4,49.5 L46.4,57 L39.9,53.2 Z M50.1,78.7 C50.1,80.5 48.7,81.9 46.9,81.9 C45.1,81.9 43.7,80.5 43.7,78.7 C43.7,76.9 45.1,75.5 46.9,75.5 C48.6,75.5 50.1,76.9 50.1,78.7 C50.1,78.7 50.1,78.7 50.1,78.7 L50.1,78.7 Z M47.4,47.7 L47.4,40.2 L53.9,43.9 L47.4,47.7 Z M62.4,57.6 L55.4,61.6 L55.4,53.5 L62.4,49.5 L62.4,57.6 Z M61.9,48.6 L54.9,52.6 L47.9,48.6 L54.9,44.6 L55.2,44.8 L55.2,44.9 L55.2,44.9 L61.9,48.6 Z M71.4,34.5 C69.6,34.5 68.2,33.1 68.2,31.3 C68.2,29.5 69.6,28.1 71.4,28.1 C73.2,28.1 74.6,29.5 74.6,31.3 C74.6,31.3 74.6,31.3 74.6,31.3 C74.6,33 73.1,34.5 71.4,34.5 L71.4,34.5 Z" id="Shape" fill="#FFFFFF"></path>
        </g>
    </g>
</svg>