<?xml version="1.0" encoding="UTF-8"?>
<svg width="95px" height="95px" viewBox="0 0 95 95" version="1.1" xmlns="http://www.w3.org/2000/svg" xmlns:xlink="http://www.w3.org/1999/xlink">
    <!-- Generator: Sketch 53.2 (72643) - https://sketchapp.com -->
    <title>goal_16_target_16_3</title>
    <desc>Created with Sketch.</desc>
    <g id="goal_16_target_16_3" stroke="none" stroke-width="1" fill="none" fill-rule="evenodd">
        <g id="Group-133" fill-rule="nonzero">
            <rect id="Rectangle" fill="#00689D" x="1.45661261e-12" y="-2.13162821e-14" width="94.8" height="94.8"></rect>
            <g id="Group" transform="translate(7.700000, 9.000000)" fill="#FFFFFF">
                <g transform="translate(0.000000, 43.000000)" id="Path">
                    <path d="M70.1,3.6 C70.1,5.1 71.3,6.4 72.9,6.4 C74.5,6.4 75.7,5.2 75.7,3.6 C75.7,2.1 74.5,0.8 72.9,0.8 L72.9,0.8 C71.3,0.9 70.1,2.1 70.1,3.6 Z"></path>
                    <path d="M76.1,7.5 L75.9,7.5 L69.8,7.5 L69.6,7.5 C67.7,7.7 66.2,9.3 66.2,11.2 L66.2,18.9 C66.1,19.5 66.6,20 67.2,20.1 C67.8,20.2 68.3,19.7 68.4,19.1 C68.4,19 68.4,19 68.4,18.9 L68.4,12.3 C68.4,12.1 68.5,11.7 68.9,11.7 C69.3,11.7 69.3,12 69.3,12.2 L69.3,32 C69.4,32.9 70.1,33.5 71,33.4 C71.8,33.3 72.4,32.7 72.4,32 L72.4,20.6 C72.4,20.4 72.6,20.2 72.8,20.1 C72.8,20.1 72.8,20.1 72.8,20.1 L72.8,20.1 C73,20.1 73.2,20.3 73.2,20.5 C73.2,20.5 73.2,20.5 73.2,20.6 L73.2,32 C73.2,32.9 73.9,33.5 74.8,33.5 C75.7,33.5 76.3,32.8 76.3,32 L76.3,12.2 C76.3,12 76.4,11.7 76.7,11.7 C77,11.7 77.2,12 77.2,12.3 L77.2,18.9 C77.2,19.5 77.7,20 78.3,20 C78.9,20 79.4,19.5 79.4,18.9 L79.4,11.2 C79.5,9.3 78,7.7 76.1,7.5 Z"></path>
                    <path d="M46.9,5.1 C46.9,6.5 48.1,7.7 49.5,7.7 C50.9,7.7 52.1,6.5 52.1,5.1 C52.1,3.7 50.9,2.5 49.5,2.5 C48.1,2.5 46.9,3.7 46.9,5.1 C46.9,5.1 46.9,5.1 46.9,5.1 Z"></path>
                    <path d="M52.7,12.6 C53,12.5 53.1,13 53.1,13 L54.9,18.9 C54.9,18.9 55.2,20.2 56.3,19.8 C57.4,19.4 57,18.2 57,18.2 L54.8,11.1 C54.8,11.1 54,9.1 52.3,9.1 L46.7,9.1 C45,9.1 44.2,11.1 44.2,11.1 L42,18.2 C42,18.2 41.6,19.5 42.7,19.8 C43.8,20.1 44.1,18.9 44.1,18.9 L45.9,13 C45.9,13 46,12.5 46.3,12.6 C46.6,12.7 46.5,13.2 46.5,13.2 L43.4,24.3 L46.2,24.3 L46.2,32.3 C46.1,33.1 46.7,33.7 47.4,33.8 C48.2,33.9 48.8,33.3 48.9,32.6 C48.9,32.5 48.9,32.4 48.9,32.4 L48.9,24.4 L49.7,24.4 L49.7,32.4 C49.6,33.2 50.2,33.8 50.9,33.9 C51.7,34 52.3,33.4 52.4,32.7 C52.4,32.6 52.4,32.5 52.4,32.5 L52.4,24.5 L55.2,24.5 L52.1,13.4 C52.4,13.2 52.3,12.7 52.7,12.6 Z"></path>
                    <path d="M31.2,5.1 C31.2,6.6 32.4,7.7 33.8,7.7 C35.3,7.7 36.4,6.5 36.4,5.1 C36.4,3.6 35.2,2.5 33.8,2.5 C33.8,2.5 33.8,2.5 33.8,2.5 C32.4,2.5 31.2,3.6 31.2,5.1 C31.2,5.1 31.2,5.1 31.2,5.1 Z"></path>
                    <path d="M39.1,11 C39.1,11 38.3,9 36.6,9 L31,9 C29.3,9 28.5,11 28.5,11 L26.3,18.1 C26.3,18.1 25.9,19.4 27,19.7 C28.1,20 28.4,18.8 28.4,18.8 L30.2,12.9 C30.2,12.9 30.3,12.4 30.6,12.5 C30.9,12.6 30.8,13.1 30.8,13.1 L27.7,24.2 L30.5,24.2 L30.5,32.2 C30.4,33 31,33.6 31.7,33.7 C32.5,33.8 33.1,33.2 33.2,32.5 C33.2,32.4 33.2,32.3 33.2,32.3 L33.2,24.3 L34,24.3 L34,32.3 C33.9,33.1 34.5,33.7 35.2,33.8 C36,33.9 36.6,33.3 36.7,32.6 C36.7,32.5 36.7,32.4 36.7,32.4 L36.7,24.4 L39.5,24.4 L36.4,13.3 C36.4,13.3 36.3,12.8 36.6,12.7 C36.9,12.6 37,13.1 37,13.1 L38.8,19 C38.8,19 39.1,20.3 40.2,19.9 C41.3,19.5 40.9,18.3 40.9,18.3 L39.1,11 Z"></path>
                    <path d="M8.6,6.7 C10.1,6.7 11.3,5.5 11.3,3.9 C11.3,2.4 10.1,1.2 8.5,1.2 C7,1.2 5.8,2.4 5.8,4 C5.8,4 5.8,4 5.8,4 C5.8,5.5 7.1,6.7 8.6,6.7 Z"></path>
                    <path d="M11.8,7.8 L11.6,7.8 L5.6,7.8 L5.4,7.8 C3.5,8 2,9.5 2,11.5 L2,19 C2,19.3 2.2,19.6 2.4,19.8 L0,32.7 C0,32.9 0.1,33.1 0.3,33.2 C0.3,33.2 0.3,33.2 0.3,33.2 L0.4,33.2 C0.6,33.2 0.8,33.1 0.8,32.9 L3.2,20.1 C3.7,20 4.1,19.6 4.1,19.1 L4.1,12.5 C4.1,12.3 4.2,11.9 4.6,11.9 C5,11.9 5,12.2 5,12.4 L5,32 C5,32.8 5.7,33.5 6.5,33.5 C7.3,33.5 8,32.8 8,32 C8,32 8,32 8,32 L8,20.8 C8,20.6 8.2,20.4 8.4,20.4 C8.4,20.4 8.4,20.4 8.5,20.4 L8.5,20.4 C8.7,20.4 8.9,20.6 8.9,20.8 C8.9,20.8 8.9,20.8 8.9,20.9 L8.9,32.2 C9,33 9.7,33.7 10.6,33.6 C11.4,33.5 12,32.9 12,32.2 L12,12.5 C12,12.3 12.1,12 12.4,12 C12.7,12 12.9,12.3 12.9,12.6 L12.9,19 C12.8,19.6 13.3,20.1 13.9,20.2 C14.5,20.3 15,19.8 15.1,19.2 C15.1,19.1 15.1,19.1 15.1,19 L15.1,11.4 C15.1,9.6 13.7,8 11.8,7.8 Z"></path>
                    <path d="M58.9,17.4 C58.9,18.6 59.9,19.6 61.1,19.6 C62.3,19.6 63.3,18.6 63.3,17.4 C63.3,16.2 62.3,15.2 61.1,15.2 C61.1,15.2 61.1,15.2 61.1,15.2 C59.9,15.1 58.9,16.1 58.9,17.4 Z"></path>
                    <path d="M65.7,23.9 C64.4,20.4 64.1,20.5 62.9,20.4 L59.5,20.4 C58.3,20.4 58.1,20.4 56.7,23.9 C56.5,24.4 55.7,26.3 55.7,26.4 C55.7,26.5 55.4,27.2 56.1,27.5 C56.8,27.8 57,26.9 57,26.9 L58.4,23.5 C58.4,23.5 58.4,23.4 58.5,23.4 C58.6,23.4 58.5,23.5 58.5,23.5 L58.5,32.3 L58.5,32.3 C58.5,32.9 59,33.5 59.6,33.5 C59.6,33.5 59.6,33.5 59.6,33.5 C60.2,33.5 60.7,33 60.7,32.4 C60.7,32.4 60.7,32.4 60.7,32.3 L60.7,28.8 C60.7,28.8 60.7,28.3 61,28.3 C61.3,28.3 61.3,28.8 61.3,28.8 L61.3,32.3 C61.3,32.9 61.8,33.5 62.4,33.5 C62.4,33.5 62.4,33.5 62.4,33.5 C63,33.5 63.5,33 63.5,32.4 C63.5,32.4 63.5,32.4 63.5,32.3 L63.5,32.3 L63.5,23.5 C63.5,23.4 63.5,23.4 63.5,23.4 C63.5,23.4 63.6,23.5 63.6,23.5 L64.8,26.5 C64.8,26.5 65.2,27.3 65.8,27 C66.4,26.7 66.1,26 66.1,26 C66.1,26 65.8,24.4 65.7,23.9 Z"></path>
                    <path d="M25.2,18.3 C24.8,18.1 24.3,18.3 24.1,18.7 C23.7,19.4 23.2,20.1 22.7,20.8 C22.5,21 22.3,21.1 22,21.1 L19.3,21.1 C19,21.1 18.8,21 18.6,20.8 C18.3,20.5 17.2,18.6 17.2,18.6 C17.1,18.4 16.8,18.2 16.5,18.2 C16.1,18.2 15.7,18.6 15.7,19 L15.7,19 C15.7,19.1 15.7,19.2 15.8,19.3 L18,23.3 C18.1,23.5 18.1,23.6 18.1,23.8 L18.1,24.4 L18.1,24.4 C18.1,24.6 18.1,24.9 18,25.1 L16.9,29.3 L18.1,29.3 L18.1,32.4 L18.1,32.4 C18.2,33 18.7,33.4 19.3,33.4 C19.8,33.4 20.2,32.9 20.3,32.4 L20.3,29.4 C20.3,29.4 20.3,29.3 20.3,29.3 L21,29.3 L21,32.4 C21.1,33 21.6,33.4 22.2,33.4 C22.7,33.4 23.1,32.9 23.2,32.4 L23.2,29.3 L24.4,29.3 L23.3,25.1 C23.2,24.9 23.2,24.7 23.2,24.5 L23.2,24.3 L23.2,24.3 L23.2,23.7 C23.2,23.5 23.3,23.3 23.3,23.2 L25.3,19.5 L25.5,19.1 C25.7,18.9 25.6,18.5 25.2,18.3 Z"></path>
                    <path d="M20.7,19.7 C21.9,19.7 22.9,18.7 22.9,17.5 C22.9,16.3 21.9,15.3 20.7,15.3 C19.5,15.3 18.5,16.3 18.5,17.5 C18.5,17.5 18.5,17.5 18.5,17.5 C18.5,18.7 19.5,19.7 20.7,19.7 Z"></path>
                </g>
                <path d="M60.9,24 C60.9,24 60.9,24 60.9,24 L53.3,3.8 C53.2,3.6 53.1,3.5 52.9,3.5 L40.7,3.5 L40.7,0.3 L38.4,0.3 L38.4,3.4 L26.7,3.4 C26.5,3.4 26.4,3.5 26.3,3.7 L18.5,23.9 C18.5,23.9 18.5,23.9 18.5,24 C18.5,24.1 18.5,24 18.5,24.1 C18.5,28.4 22.3,31.9 27,31.9 C31.7,31.9 35.5,28.4 35.5,24.1 C35.5,24.1 35.5,24.1 35.5,24 C35.5,23.9 35.5,24 35.5,23.9 L28.8,5.6 L38.6,5.6 L38.8,33.4 L31.7,33.4 L31.7,35.7 L48.2,35.7 L48.2,33.4 L41,33.4 L40.8,5.6 L51,5.6 L44.2,23.8 C44.2,23.8 44.2,23.9 44.2,23.9 C44.2,23.9 44.2,23.9 44.2,24 C44.2,28.3 48,31.8 52.7,31.8 C57.4,31.8 61,28.4 60.9,24 C61,24.1 60.9,24 60.9,24 Z M32.9,23.6 L21,23.6 L27.1,7.7 L32.9,23.6 Z M46.5,23.6 L52.5,7.7 L58.5,23.6 L46.5,23.6 Z" id="Shape"></path>
            </g>
        </g>
    </g>
</svg>