<?xml version="1.0" encoding="UTF-8"?>
<svg width="95px" height="95px" viewBox="0 0 95 95" version="1.1" xmlns="http://www.w3.org/2000/svg" xmlns:xlink="http://www.w3.org/1999/xlink">
    <!-- Generator: Sketch 53.2 (72643) - https://sketchapp.com -->
    <title>goal_7_target_7_2</title>
    <desc>Created with Sketch.</desc>
    <g id="goal_7_target_7_2" stroke="none" stroke-width="1" fill="none" fill-rule="evenodd">
        <g id="Group-49" fill-rule="nonzero">
            <rect id="Rectangle" fill="#FCC30B" x="-3.62376795e-13" y="-2.13162821e-14" width="94.8" height="94.8"></rect>
            <g id="Group" transform="translate(6.700000, 6.000000)" fill="#FFFFFF">
                <g transform="translate(21.000000, 22.000000)">
                    <path d="M19.4,8.6 C13.5,8.6 8.6,13.4 8.6,19.4 C8.6,25.3 13.4,30.2 19.4,30.2 C25.3,30.2 30.2,25.4 30.2,19.4 C30.2,19.4 30.2,19.4 30.2,19.4 C30.1,13.4 25.3,8.6 19.4,8.6 C19.4,8.6 19.4,8.6 19.4,8.6 Z M18.6,12.8 C18.6,12.4 19,12.1 19.4,12 C19.8,12 20.2,12.3 20.2,12.8 L20.2,16.5 C20.2,16.9 19.8,17.2 19.4,17.3 C19,17.3 18.6,17 18.6,16.5 L18.6,12.8 Z M19.4,24.8 C16.3,24.8 13.8,22.3 13.8,19.2 C13.8,16.7 15.4,14.6 17.7,13.8 L17.7,16 C15.9,16.9 15.2,19.1 16.1,20.9 C17,22.7 19.2,23.4 21,22.5 C22.8,21.6 23.5,19.4 22.6,17.6 C22.2,16.9 21.7,16.3 21,16 L21,13.9 C23.9,14.8 25.6,17.9 24.7,20.9 C24,23.3 21.8,24.9 19.4,24.8 L19.4,24.8 Z" id="Shape"></path>
                    <path d="M7,19.3 C7,18.8 6.6,18.5 6.2,18.4 L1.5,18.4 C1,18.4 0.7,18.8 0.7,19.3 C0.7,19.8 1.1,20.1 1.5,20.2 L6.2,20.2 C6.7,20.1 7,19.7 7,19.3 Z" id="Path"></path>
                    <path d="M37.3,18.4 L32.6,18.4 C32.1,18.4 31.8,18.8 31.8,19.3 C31.8,19.8 32.2,20.2 32.6,20.2 L37.3,20.2 C37.8,20.2 38.1,19.8 38.1,19.3 C38.1,18.8 37.7,18.4 37.3,18.4 Z" id="Path"></path>
                    <path d="M19.4,6.9 C19.9,6.9 20.2,6.5 20.3,6.1 L20.3,1.4 C20.2,0.9 19.8,0.6 19.3,0.6 C18.9,0.6 18.6,1 18.5,1.4 L18.5,6.1 C18.5,6.6 18.9,6.9 19.4,6.9 Z" id="Path"></path>
                    <path d="M19.4,31.6 C18.9,31.6 18.5,32 18.5,32.4 L18.5,37.1 C18.6,37.6 19,37.9 19.5,37.9 C19.9,37.9 20.2,37.5 20.3,37.1 L20.3,32.4 C20.2,32 19.8,31.6 19.4,31.6 Z" id="Path"></path>
                    <path d="M3.4,11.1 L7.5,13.4 C8,13.5 8.5,13.3 8.6,12.8 C8.7,12.5 8.6,12.1 8.4,11.9 L4.3,9.6 C3.9,9.4 3.4,9.6 3.1,9.9 C2.9,10.4 3.1,10.9 3.4,11.1 Z" id="Path"></path>
                    <path d="M35.3,27.4 L31.2,25 C30.7,24.8 30.2,25 30,25.5 C29.8,25.9 30,26.3 30.3,26.6 L34.4,28.9 C34.8,29.1 35.3,28.9 35.6,28.6 C35.8,28.1 35.7,27.6 35.3,27.4 Z" id="Path"></path>
                    <path d="M25.5,8.5 C25.9,8.7 26.4,8.6 26.7,8.2 L29,4.1 C29.2,3.7 29,3.1 28.6,2.9 C28.2,2.7 27.7,2.8 27.5,3.2 L25.2,7.3 C24.9,7.8 25.1,8.3 25.5,8.5 Z" id="Path"></path>
                    <path d="M13.2,30 C12.8,29.8 12.3,29.9 12,30.3 L9.7,34.4 C9.5,34.8 9.7,35.4 10.1,35.6 C10.5,35.8 11,35.7 11.2,35.3 L13.5,31.2 C13.8,30.7 13.6,30.2 13.2,30 Z" id="Path"></path>
                    <path d="M12,8.3 C12.3,8.7 12.8,8.8 13.2,8.6 C13.6,8.4 13.8,7.9 13.5,7.4 L11.2,3.3 C11,2.9 10.4,2.7 10,3 C9.6,3.2 9.4,3.8 9.7,4.2 L12,8.3 Z" id="Path"></path>
                    <path d="M26.7,30.2 C26.4,29.8 25.9,29.7 25.5,30 C25.1,30.2 24.9,30.7 25.2,31.2 L27.5,35.3 C27.7,35.7 28.3,35.9 28.7,35.6 C29.1,35.4 29.3,34.8 29,34.4 L29,34.4 L26.7,30.2 Z" id="Path"></path>
                    <path d="M31.2,13.5 L35.3,11.2 C35.7,11 35.9,10.4 35.6,10 C35.4,9.6 34.8,9.4 34.4,9.7 L30.3,12 C29.9,12.2 29.7,12.8 30,13.2 C30.3,13.6 30.8,13.7 31.2,13.5 L31.2,13.5 Z" id="Path"></path>
                    <path d="M7.5,25.1 L3.4,27.4 C3,27.6 2.8,28.2 3,28.6 C3.2,29 3.8,29.2 4.2,29 L8.3,26.7 C8.7,26.4 8.8,25.9 8.6,25.5 C8.4,25.1 7.9,24.9 7.5,25.1 Z" id="Path"></path>
                </g>
                <g id="Path">
                    <g transform="translate(7.000000, 0.000000)">
                        <g transform="translate(16.000000, 0.000000)">
                            <path d="M41.3,18 L39.5,20 C29,10.8 13,11.9 3.8,22.4 C2.3,24.1 1,26.1 0,28.1 C7.1,16.1 22.7,12.1 34.7,19.2 C35.9,19.9 37,20.7 38,21.5 L36.2,23.5 C35.7,24.1 35.7,25 36.3,25.5 L40.3,29.1 L41.4,27.8 L44.7,30.8 L45.8,29.6 L42.5,26.6 L45.1,23.7 L48.4,26.7 L49.5,25.5 L46.2,22.5 L47.3,21.3 L43.3,17.7 C42.7,17.3 41.8,17.4 41.3,18 C41.3,18 41.3,18 41.3,18 Z"></path>
                            <path d="M37,3 C35.4,3.4 31.8,4 30.1,5.9 C28.6,7.6 28.2,9.8 29.4,13 C29.4,13 36.8,10.2 38.4,4.7 C37.7,9 34.6,12.5 30.4,13.6 C30.4,13.6 34.8,16.1 38.3,11.3 C41.8,6.5 39.8,0.7 39.8,0.7 C39.1,1.8 38.2,2.6 37,3 Z"></path>
                        </g>
                        <g transform="translate(0.000000, 51.000000)">
                            <path d="M8.5,14 L10.3,12 C20.9,21.2 36.9,20 46.1,9.4 C47.6,7.7 48.8,5.8 49.8,3.7 C42.6,15.7 27.1,19.7 15.1,12.5 C14,11.8 12.9,11.1 11.9,10.2 L13.7,8.2 C14.2,7.6 14.2,6.7 13.6,6.2 L9.6,2.6 L8.5,3.8 L5.2,0.8 L4,2.1 L7.3,5.1 L4.6,8 L1.3,5 L0.2,6.2 L3.5,9.2 L2.4,10.4 L6.4,14 C7,14.6 7.9,14.6 8.5,14 Z"></path>
                            <path d="M12.8,28.9 C14.4,28.5 18,27.9 19.7,26 C21.2,24.3 21.6,22.1 20.4,18.9 C20.4,18.9 13,21.7 11.4,27.2 C12.1,22.9 15.2,19.4 19.4,18.3 C19.4,18.3 15,15.8 11.5,20.6 C8,25.4 10,31.1 10,31.1 C10.7,30.1 11.6,29.3 12.8,28.9 Z"></path>
                        </g>
                    </g>
                    <g transform="translate(0.000000, 8.000000)">
                        <g>
                            <path d="M17.2,9 L19.2,10.8 C10,21.4 11.2,37.4 21.8,46.6 C23.5,48.1 25.4,49.3 27.5,50.3 C15.5,43.1 11.6,27.6 18.7,15.6 C19.4,14.5 20.1,13.4 21,12.4 L23,14.2 C23.6,14.7 24.5,14.7 25,14.1 L28.6,10.1 L27.4,9 L30.4,5.7 L29.2,4.6 L26.2,7.9 L23.3,5.2 L26.3,1.9 L25,0.8 L22,4.1 L20.8,3 L17.2,7 C16.6,7.6 16.7,8.5 17.2,9 Z"></path>
                            <path d="M2.3,13.3 C2.7,14.9 3.3,18.5 5.2,20.2 C6.9,21.7 9.1,22.1 12.3,20.9 C12.3,20.9 9.4,13.5 4,11.9 C8.3,12.6 11.8,15.7 12.9,19.9 C12.9,19.9 15.4,15.5 10.6,12 C5.8,8.5 -1.77635684e-15,10.5 -1.77635684e-15,10.5 C1.1,11.2 1.9,12.2 2.3,13.3 Z"></path>
                        </g>
                        <g transform="translate(51.000000, 16.000000)">
                            <path d="M13.2,41.8 L11.2,40 C20.4,29.4 19.2,13.4 8.7,4.2 C7,2.7 5.1,1.5 3,0.5 C15,7.7 18.9,23.2 11.8,35.2 C11.1,36.3 10.4,37.4 9.5,38.4 L7.5,36.6 C6.9,36.1 6,36.1 5.5,36.7 L1.9,40.7 L3.2,41.9 L0.2,45.2 L1.4,46.3 L4.4,43 L7.3,45.7 L4.3,49 L5.5,50.1 L8.5,46.8 L9.7,47.9 L13.3,43.9 C13.9,43.4 13.9,42.4 13.2,41.8 C13.3,41.9 13.3,41.9 13.2,41.8 Z"></path>
                            <path d="M28.2,37.5 C27.8,35.9 27.2,32.3 25.3,30.6 C23.6,29.1 21.4,28.7 18.2,29.9 C18.2,29.9 21,37.3 26.5,38.9 C22.2,38.2 18.7,35.1 17.6,30.9 C17.6,30.9 15.1,35.3 19.9,38.8 C24.7,42.3 30.5,40.4 30.5,40.4 C29.4,39.7 28.6,38.7 28.2,37.5 Z"></path>
                        </g>
                    </g>
                </g>
            </g>
        </g>
    </g>
</svg>