<?xml version="1.0" encoding="UTF-8"?>
<svg width="95px" height="95px" viewBox="0 0 95 95" version="1.1" xmlns="http://www.w3.org/2000/svg" xmlns:xlink="http://www.w3.org/1999/xlink">
    <!-- Generator: Sketch 53.2 (72643) - https://sketchapp.com -->
    <title>goal_13_target_13_1</title>
    <desc>Created with Sketch.</desc>
    <g id="goal_13_target_13_1" stroke="none" stroke-width="1" fill="none" fill-rule="evenodd">
        <g id="Group-105" fill-rule="nonzero">
            <g id="Group-104">
                <rect id="Rectangle" fill="#3F7E44" x="-3.62376795e-13" y="-2.13162821e-14" width="94.8" height="94.8"></rect>
                <g id="Group" transform="translate(6.700000, 8.000000)" fill="#FFFFFF">
                    <g transform="translate(42.000000, 22.000000)" id="Path">
                        <path d="M7.3,18.4 L8.9,18.4 L8.9,22.7 C8.9,22.8 9,22.9 9,22.9 L9,22.9 L11,22.9 C11.1,22.9 11.2,22.8 11.2,22.7 L11.2,22.7 L11.2,18.3 L14.4,18.3 C16.5,18.3 18.2,16.6 18.2,14.5 C18.2,13.5 17.8,12.6 17.1,11.9 C18.8,10.9 19.4,8.8 18.4,7.1 C17.8,6 16.6,5.3 15.3,5.3 L15.1,5.3 C14.9,2.7 12.7,0.7 10,0.8 C7.5,1 5.5,3.1 5.5,5.6 C5.5,6.3 5.7,7 6,7.7 C3.1,8.3 1.3,11.2 1.9,14.1 C2.5,16.7 4.7,18.4 7.3,18.4 L7.3,18.4 Z"></path>
                        <path d="M0.8,25.2 C0.8,25.7 1.2,26.1 1.7,26.1 C2.2,26.1 2.6,25.7 2.6,25.2 C2.6,24.7 2.2,24.3 1.7,24.3 C1.7,24.3 1.7,24.3 1.7,24.3 C1.2,24.3 0.8,24.7 0.8,25.2 Z"></path>
                        <path d="M5,25.2 C4.9,25.7 5.3,26.2 5.8,26.2 C6.3,26.3 6.8,25.9 6.8,25.4 C6.8,25.3 6.8,25.3 6.8,25.2 C6.7,24.7 6.3,24.3 5.8,24.4 C5.4,24.4 5,24.8 5,25.2 Z"></path>
                        <path d="M9.2,25.2 C9.2,25.7 9.6,26.1 10.1,26.1 C10.6,26.1 11,25.7 11,25.2 C11,24.7 10.6,24.3 10.1,24.3 C10.1,24.3 10.1,24.3 10.1,24.3 C9.6,24.3 9.2,24.7 9.2,25.2 Z"></path>
                        <path d="M14.3,26.1 C14.8,26.2 15.3,25.8 15.3,25.3 C15.4,24.8 15,24.3 14.5,24.3 C14.4,24.3 14.4,24.3 14.3,24.3 C13.8,24.4 13.4,24.8 13.5,25.3 C13.5,25.7 13.8,26.1 14.3,26.1 Z"></path>
                        <path d="M17.5,25.2 C17.5,25.7 17.9,26.1 18.4,26.1 C18.9,26.1 19.3,25.7 19.3,25.2 C19.3,24.7 18.9,24.3 18.4,24.3 C18.4,24.3 18.4,24.3 18.4,24.3 C17.9,24.3 17.5,24.7 17.5,25.2 Z"></path>
                        <path d="M2.7,22 C2.8,22.5 3.2,22.9 3.7,22.8 C4.1,22.8 4.5,22.4 4.5,22 C4.6,21.5 4.2,21 3.7,21 C3.2,20.9 2.7,21.3 2.7,21.8 C2.7,21.9 2.7,21.9 2.7,22 Z"></path>
                        <path d="M16.7,22.9 C17.2,22.8 17.6,22.4 17.5,21.9 C17.5,21.5 17.1,21.1 16.7,21.1 C16.2,21 15.7,21.4 15.7,21.9 C15.6,22.4 16,22.9 16.5,22.9 C16.6,22.9 16.6,22.9 16.7,22.9 Z"></path>
                    </g>
                    <path d="M29.6,10 L18,15.2 L16.9,14.8 L19,13.9 L22.1,10.9 L21.5,10.1 L14.1,5.7 L23.1,5.2 L25.4,8.4 L28.5,7.8 C28.5,7.8 31.2,9.5 30.7,10.6 C30.4,10.1 29.6,10 29.6,10 Z" id="Path"></path>
                    <g transform="translate(66.000000, 9.000000)">
                        <path d="M0.5,17.9 L0.5,39.1 C0.5,39.3 0.7,39.4 0.8,39.4 L8.6,39.4 L8.6,39.1 L8.6,39.1 L8.6,31.5 C8.6,31.3 8.8,31.1 9,31.1 L12.9,31.1 C13.1,31.1 13.3,31.3 13.3,31.5 L13.3,39.4 L14.6,39.4 C14.8,39.4 14.9,39.2 14.9,39.1 L14.9,0.5 C14.9,0.3 14.7,0.1 14.5,0.1 C14.4,0.1 14.4,0.1 14.3,0.2 L14.3,0.2 L14.2,0.4 L11,4.5 L10.4,5.3 L6,10.9 L2.5,15.3 L0.7,17.5 L0.6,17.6 C0.5,17.7 0.5,17.8 0.5,17.9 Z M13.3,10 C13.3,10.2 13.1,10.4 12.9,10.4 L9.5,10.4 C9.3,10.4 9.1,10.2 9.1,10 C9.1,9.9 9.1,9.8 9.2,9.8 L9.3,9.7 C10.2,8.5 11.8,6.6 12.5,5.7 L12.6,5.6 C12.7,5.5 12.8,5.5 12.9,5.5 C13.1,5.5 13.2,5.6 13.3,5.8 L13.3,10 L13.3,10 Z M8.5,26.5 C8.5,26.3 8.7,26.2 8.8,26.2 L13,26.2 C13.2,26.2 13.3,26.4 13.3,26.5 L13.3,29.1 C13.3,29.3 13.1,29.4 13,29.4 L8.9,29.4 C8.7,29.4 8.6,29.2 8.6,29.1 L8.5,26.5 Z M8.5,21.7 C8.5,21.5 8.7,21.4 8.8,21.4 L13,21.4 C13.2,21.4 13.3,21.6 13.3,21.7 L13.3,24.3 C13.3,24.5 13.1,24.6 13,24.6 L8.9,24.6 C8.7,24.6 8.6,24.5 8.6,24.3 L8.5,21.7 Z M8.5,17 C8.5,16.8 8.7,16.7 8.8,16.7 L13,16.7 C13.2,16.7 13.3,16.8 13.3,17 L13.3,19.6 C13.3,19.8 13.1,19.9 13,19.9 L8.9,19.9 C8.7,19.9 8.6,19.8 8.6,19.6 L8.5,17 Z M8.5,12.2 C8.5,12 8.7,11.9 8.8,11.9 L13,11.9 C13.2,11.9 13.3,12.1 13.3,12.2 L13.3,14.8 C13.3,15 13.1,15.1 13,15.1 L8.9,15.1 C8.7,15.1 8.6,14.9 8.6,14.8 L8.5,12.2 Z M7,19.6 C7,19.8 6.9,19.9 6.7,19.9 L2.6,19.9 C2.4,19.9 2.3,19.7 2.3,19.6 L2.3,18.9 C2.3,18.9 2.3,18.8 2.3,18.8 L2.3,18.8 L2.3,18.8 L2.3,18.7 C2.8,17.9 5.2,15 6.2,13.8 L6.3,13.7 C6.4,13.6 6.5,13.6 6.6,13.6 C6.8,13.6 6.9,13.7 7,13.9 L7,19.6 Z M2.5,21.4 L6.7,21.4 C6.9,21.4 7,21.6 7,21.7 L7,24.3 C7,24.5 6.9,24.6 6.7,24.6 L6.7,24.6 L2.6,24.6 C2.4,24.6 2.3,24.5 2.3,24.3 L2.3,24.3 L2.3,21.7 C2.2,21.6 2.4,21.4 2.5,21.4 L2.5,21.4 Z M7,29.1 C7,29.3 6.9,29.4 6.7,29.4 L2.6,29.4 C2.4,29.4 2.3,29.2 2.3,29.1 L2.3,26.5 C2.3,26.3 2.4,26.2 2.6,26.2 L6.7,26.2 C6.9,26.2 7,26.4 7,26.5 L7,29.1 Z M2.2,31.4 C2.2,31.2 2.4,31 2.6,31 L6.6,31 C6.8,31 7,31.2 7,31.4 L7,33.8 C7,34 6.8,34.2 6.6,34.2 L2.6,34.2 C2.4,34.2 2.2,34 2.2,33.8 L2.2,31.4 Z" id="Shape"></path>
                        <path d="M1.1,15.8 L1,15.6 C0.9,15.5 0.9,15.3 1,15.2 L11.3,2.2 C11.4,2.1 11.6,2.1 11.7,2.2 L11.8,2.3 C11.9,2.4 11.9,2.6 11.8,2.7 L1.5,15.7 C1.4,15.8 1.2,15.9 1.1,15.8 Z" id="Path"></path>
                    </g>
                    <g transform="translate(43.000000, 0.000000)" id="Path">
                        <g>
                            <path d="M5.2,3.4 C3.4,4.5 2.8,6.8 3.9,8.6 C5,10.4 7.3,11 9.1,9.9 C10.9,8.8 11.5,6.5 10.4,4.7 C9.3,2.9 6.9,2.3 5.2,3.4 Z"></path>
                            <path d="M10.5,11.9 L9.7,10.5 C9.6,10.4 9.4,10.3 9.3,10.4 C9.2,10.5 9.1,10.7 9.2,10.8 L10.1,12.2 C10.2,12.3 10.4,12.4 10.5,12.3 C10.5,12.2 10.6,12 10.5,11.9 Z"></path>
                            <path d="M4.8,2.9 C5,2.8 5,2.6 5,2.5 C5,2.5 5,2.5 5,2.5 L4.2,1.1 C4.1,1 3.9,0.9 3.8,1 C3.7,1.1 3.7,1.2 3.7,1.4 L4.5,2.8 C4.6,2.9 4.7,3 4.8,2.9 Z"></path>
                            <path d="M3.3,8.8 C3.2,8.7 3,8.6 2.9,8.7 L1.5,9.5 C1.4,9.6 1.3,9.8 1.4,9.9 C1.5,10 1.7,10.1 1.8,10 L3.2,9.2 C3.4,9.2 3.4,9 3.3,8.8 Z"></path>
                            <path d="M10.8,4.4 C10.9,4.5 11.1,4.6 11.2,4.5 L12.6,3.7 C12.7,3.6 12.8,3.4 12.7,3.3 C12.6,3.2 12.4,3.1 12.3,3.2 L10.9,4 C10.7,4.1 10.7,4.3 10.8,4.4 Z"></path>
                            <path d="M7.4,12.9 L7.4,11.2 C7.4,11 7.3,10.9 7.1,10.9 C6.9,10.9 6.8,11 6.8,11.2 L6.8,12.9 C6.8,13.1 7,13.2 7.1,13.2 C7.3,13.2 7.4,13.1 7.4,12.9 Z"></path>
                            <path d="M7.3,2 L7.3,0.3 C7.3,0.1 7.2,-3.55271368e-15 7,-3.55271368e-15 C6.8,-3.55271368e-15 6.7,0.1 6.7,0.3 L6.7,2 C6.7,2.2 6.9,2.3 7,2.3 C7.1,2.3 7.3,2.2 7.3,2 Z"></path>
                            <path d="M2.7,6.7 C2.7,6.5 2.6,6.4 2.4,6.4 L0.7,6.4 C0.5,6.4 0.4,6.5 0.4,6.7 C0.4,6.9 0.5,7 0.7,7 L2.4,7 C2.6,7 2.7,6.9 2.7,6.7 Z"></path>
                            <path d="M11.7,6.9 L13.4,6.9 C13.6,6.9 13.7,6.8 13.7,6.6 C13.7,6.4 13.6,6.3 13.4,6.3 L11.7,6.3 C11.5,6.3 11.4,6.4 11.4,6.6 C11.4,6.8 11.5,6.9 11.7,6.9 Z"></path>
                            <path d="M5,10.8 C5.1,10.7 5,10.5 4.9,10.4 C4.8,10.3 4.6,10.4 4.5,10.5 L3.7,12 C3.6,12.2 3.7,12.3 3.8,12.4 C3.9,12.5 4.1,12.4 4.2,12.3 L5,10.8 Z"></path>
                            <path d="M10.4,1.3 C10.5,1.2 10.4,1 10.3,0.9 C10.2,0.8 10,0.9 9.9,1 L9.9,1 L9.1,2.4 C9,2.5 9.1,2.7 9.2,2.8 C9.3,2.9 9.5,2.8 9.6,2.7 L10.4,1.3 Z"></path>
                            <path d="M3.2,4.1 L1.8,3.3 C1.7,3.2 1.5,3.3 1.4,3.4 C1.3,3.5 1.4,3.7 1.5,3.8 L2.9,4.6 C3,4.7 3.2,4.6 3.3,4.5 C3.4,4.4 3.3,4.2 3.2,4.1 Z"></path>
                            <path d="M10.9,9.2 L12.3,10 C12.4,10.1 12.6,10 12.7,9.9 C12.8,9.8 12.7,9.6 12.6,9.5 L11.2,8.7 C11.1,8.6 10.9,8.7 10.8,8.8 C10.7,8.9 10.8,9.1 10.9,9.2 Z"></path>
                        </g>
                        <path d="M27.4,13.7 L24.5,11 L25.5,9.9 L21.5,9 L22.7,12.9 L23.7,11.8 L26.6,14.5 C26.8,14.7 27.1,14.7 27.3,14.5 C27.3,14.5 27.3,14.5 27.3,14.5 C27.5,14.3 27.6,14 27.4,13.7 Z"></path>
                        <path d="M18.2,13.7 L21,16.4 L20,17.5 L24,18.5 L22.8,14.5 L21.8,15.6 L18.9,12.9 C18.7,12.7 18.4,12.7 18.2,12.9 C18.2,12.9 18.2,12.9 18.2,12.9 C18,13.1 17.9,13.4 18.2,13.7 C18.1,13.6 18.1,13.7 18.2,13.7 Z"></path>
                    </g>
                    <g transform="translate(1.000000, 27.000000)" id="Path">
                        <g transform="translate(12.000000, 0.000000)">
                            <path d="M6.6,2.4 C6.6,1.4 5.8,0.6 4.8,0.6 C3.8,0.6 3,1.4 3,2.4 C3,3.4 3.8,4.2 4.8,4.2 C4.8,4.2 4.8,4.2 4.8,4.2 C5.8,4.2 6.6,3.4 6.6,2.4 Z"></path>
                            <path d="M6.9,4.8 L2.8,4.8 C1.6,4.9 0.7,5.9 0.7,7.2 L0.7,12.1 C0.7,12.5 1,12.8 1.4,12.8 C1.4,12.8 1.4,12.8 1.4,12.8 C1.8,12.8 2.1,12.5 2.1,12.1 L2.1,12.1 L2.1,7.9 C2.1,7.7 2.1,7.5 2.4,7.5 C2.7,7.5 2.6,7.7 2.6,7.8 L2.6,20.4 C2.6,21 3,21.4 3.6,21.4 C4.2,21.4 4.6,21 4.6,20.4 L4.6,13.1 C4.6,13 4.7,12.8 4.8,12.8 C4.8,12.8 4.8,12.8 4.9,12.8 L4.9,12.8 C5,12.8 5.2,12.9 5.2,13.1 C5.2,13.1 5.2,13.1 5.2,13.1 L5.2,20.4 C5.2,21 5.6,21.4 6.2,21.4 C6.8,21.4 7.2,21 7.2,20.4 L7.2,7.8 C7.2,7.7 7.2,7.5 7.4,7.5 C7.6,7.5 7.7,7.7 7.7,7.9 L7.7,12.1 C7.7,12.5 7.9,12.8 8.3,12.9 C8.7,12.9 9,12.7 9.1,12.3 C9.1,12.2 9.1,12.2 9.1,12.1 L9.1,7.2 C9.1,5.9 8.2,4.9 6.9,4.8 Z"></path>
                        </g>
                        <g transform="translate(28.000000, 1.000000)">
                            <path d="M3.6,1.7 C3.6,2.7 4.3,3.5 5.3,3.5 C6.3,3.5 7.1,2.8 7.1,1.8 C7.1,0.8 6.4,0 5.4,0 C5.4,0 5.4,0 5.4,0 C4.4,0 3.6,0.7 3.6,1.7 Z"></path>
                            <path d="M8.8,5.6 C8.8,5.6 8.3,4.2 7.1,4.2 L3.4,4.2 C2.3,4.2 1.7,5.6 1.7,5.6 L0.3,10.3 C0.3,10.3 -7.13318293e-15,11.2 0.8,11.4 C1.6,11.6 1.7,10.8 1.7,10.8 L2.9,6.9 C2.9,6.9 3,6.6 3.2,6.7 C3.4,6.8 3.3,7.1 3.3,7.1 L1.3,14.4 L3.2,14.4 L3.2,19.6 C3.2,20.1 3.6,20.5 4.1,20.5 C4.6,20.5 5,20.1 5,19.6 C5,19.6 5,19.6 5,19.6 L5,14.4 L5.5,14.4 L5.5,19.6 C5.5,20.1 5.9,20.5 6.4,20.5 C6.9,20.5 7.3,20.1 7.3,19.6 C7.3,19.6 7.3,19.6 7.3,19.6 L7.3,14.4 L9.2,14.4 L7.2,7.1 C7.2,7.1 7.1,6.8 7.3,6.7 C7.5,6.6 7.6,6.9 7.6,6.9 L8.8,10.8 C8.8,10.8 9,11.6 9.7,11.4 C10.4,11.2 10.2,10.3 10.2,10.3 L8.8,5.6 Z"></path>
                        </g>
                        <g transform="translate(21.000000, 10.000000)">
                            <path d="M6.5,2.4 C6.3,2.3 6,2.4 5.8,2.6 C5.6,3 5.3,3.5 5,3.9 C4.9,4 4.8,4 4.6,4 L3,4 C2.8,4 2.7,3.9 2.6,3.8 C2.4,3.6 1.8,2.5 1.8,2.5 C1.7,2.4 1.6,2.3 1.4,2.3 C1.1,2.3 0.9,2.5 0.9,2.8 C0.9,2.9 0.9,2.9 0.9,3 L2.2,5.4 C2.2,5.5 2.3,5.6 2.3,5.7 L2.3,6 L2.3,6 C2.3,6.1 2.3,6.3 2.2,6.4 L1.6,8.9 L2.3,8.9 L2.3,10.7 L2.3,10.7 C2.3,11.1 2.6,11.3 2.9,11.3 C3.2,11.3 3.5,11 3.5,10.7 L3.5,9 C3.5,9 3.5,9 3.5,8.9 L4,8.9 C4,8.9 4,8.9 4,9 L4,10.8 C4,11.2 4.4,11.4 4.7,11.4 C5,11.4 5.2,11.1 5.3,10.8 L5.3,9 L6,9 L5.4,6.5 C5.4,6.4 5.4,6.3 5.4,6.2 L5.4,6 L5.4,6 L5.4,5.7 C5.4,5.6 5.4,5.5 5.5,5.4 L6.7,3.2 L6.8,3 C6.8,2.7 6.7,2.5 6.5,2.4 C6.5,2.4 6.5,2.4 6.5,2.4 Z"></path>
                            <path d="M3.8,3.2 C4.5,3.2 5.1,2.6 5.1,1.9 C5.1,1.2 4.5,0.6 3.8,0.6 C3.1,0.6 2.5,1.2 2.5,1.9 C2.5,2.6 3.1,3.2 3.8,3.2 C3.8,3.2 3.8,3.2 3.8,3.2 Z"></path>
                        </g>
                        <g>
                            <path d="M5,3.2 C5.1,4.2 5.9,4.9 6.9,4.8 C7.8,4.7 8.4,4.1 8.5,3.2 C8.5,2.6 8.2,2 7.6,1.7 C7.7,1.6 7.7,1.5 7.7,1.4 C7.6,0.9 7.1,0.6 6.6,0.8 C6.3,0.9 6,1.1 6,1.4 C6,1.5 6,1.6 6.1,1.7 C5.4,2 5,2.6 5,3.2 Z"></path>
                            <path d="M10.2,6.6 C10.2,6.6 9.7,5.3 8.6,5.3 L4.9,5.3 C3.8,5.3 3.3,6.6 3.3,6.6 L1.9,11.3 C1.9,11.3 1.7,12 2.2,12.3 L2.2,12.4 L0.5,21.2 C0.5,21.3 0.6,21.5 0.7,21.5 C0.7,21.5 0.7,21.5 0.7,21.5 L0.7,21.5 C0.8,21.5 1,21.5 1,21.3 C1,21.3 1,21.3 1,21.3 L2.7,12.5 L2.7,12.4 C3.1,12.3 3.3,11.8 3.3,11.8 L4.5,7.9 C4.5,7.9 4.6,7.6 4.8,7.7 C5,7.8 4.9,8.1 4.9,8.1 L2.9,15.4 L4.7,15.4 L4.7,20.6 C4.7,21.1 5.1,21.5 5.6,21.5 C6.1,21.5 6.5,21.1 6.5,20.6 L6.5,15.4 L7,15.4 L7,20.6 C7.1,21.1 7.5,21.5 8,21.4 C8.4,21.4 8.8,21 8.8,20.6 L8.8,15.4 L10.7,15.4 L8.7,8.1 C8.7,8.1 8.6,7.8 8.8,7.7 C9,7.6 9.1,7.9 9.1,7.9 L10.3,11.8 C10.3,11.8 10.5,12.6 11.2,12.4 C11.9,12.2 11.7,11.3 11.7,11.3 L10.2,6.6 Z"></path>
                        </g>
                    </g>
                    <g transform="translate(0.000000, 51.000000)" id="Rectangle">
                        <rect x="0.5" y="0.5" width="18.8" height="5.6"></rect>
                        <rect x="21" y="0.5" width="18.8" height="5.6"></rect>
                        <rect x="41.6" y="0.5" width="18.8" height="5.6"></rect>
                        <rect x="62.2" y="0.5" width="18.8" height="5.6"></rect>
                        <rect x="0.6" y="8.4" width="80.5" height="5.6"></rect>
                    </g>
                </g>
            </g>
            <path d="M87.4,79.3 L87.3,79.3 L87.1,79.4 C84.6,80.7 76.7,83.7 69.6,76.9 C69.5,76.8 69.3,76.7 69.2,76.7 C69.1,76.7 69,76.8 68.8,76.9 C66.7,78.5 56.9,85.1 48.2,77 L48.1,76.9 C48,76.8 47.9,76.8 47.8,76.8 C47.7,76.8 47.6,76.8 47.5,76.9 L47.4,77 C38.7,85.1 29,78.5 26.8,76.9 C26.7,76.8 26.6,76.7 26.4,76.7 C26.2,76.7 26.1,76.8 26,76.9 C18.9,83.7 11,80.6 8.5,79.4 L8.3,79.3 L8.2,79.3 C7.9,79.3 7.7,79.5 7.7,79.8 L7.7,83.2 C7.7,83.3 7.7,83.5 7.8,83.5 C16,90.7 23.9,84 25.7,82.2 C25.8,82.1 25.8,82.1 25.9,82 C26,82 26,81.9 26.1,81.9 C26.2,81.9 26.4,82 26.5,82.1 C35.8,91 45.6,83.8 47.6,82.1 L47.8,81.9 C47.8,81.9 47.9,81.8 48,81.8 C48.1,81.8 48.1,81.8 48.2,81.9 L48.4,82.1 C50.4,83.8 60.2,91 69.5,82.1 L69.5,82.1 C69.7,81.9 69.9,81.9 70.1,82.1 C70.2,82.1 70.2,82.2 70.2,82.2 C72,84 79.8,90.7 88,83.5 C88.1,83.4 88.1,83.3 88.2,83.2 L88.2,79.7 C87.8,79.5 87.6,79.3 87.4,79.3" id="Path" fill="#000000"></path>
        </g>
    </g>
</svg>