<?xml version="1.0" encoding="UTF-8"?>
<svg width="95px" height="95px" viewBox="0 0 95 95" version="1.1" xmlns="http://www.w3.org/2000/svg" xmlns:xlink="http://www.w3.org/1999/xlink">
    <!-- Generator: Sketch 53.2 (72643) - https://sketchapp.com -->
    <title>goal_17_target_17_11</title>
    <desc>Created with Sketch.</desc>
    <g id="goal_17_target_17_11" stroke="none" stroke-width="1" fill="none" fill-rule="evenodd">
        <g id="Group-153" fill-rule="nonzero">
            <rect id="Rectangle" fill="#19486A" x="1.45661261e-12" y="-2.13162821e-14" width="94.8" height="94.8"></rect>
            <g id="Group" transform="translate(6.700000, 6.000000)" fill="#FFFFFF">
                <g transform="translate(17.000000, 18.000000)">
                    <path d="M46.9,21.1 C46.8,20.5 46.3,20.1 45.7,20.1 C45.1,20.1 44.6,20.1 44,20.1 C43.4,20.1 42.8,19.9 42.6,19.3 C42.3,18.2 42,17.1 41.5,16 C41.2,15.4 41.4,14.7 41.9,14.3 C42.4,13.9 42.8,13.5 43.3,13.1 C43.7,12.7 43.9,12.1 43.6,11.6 C42.9,10.3 42,9.1 41,8 C40.6,7.5 39.9,7.5 39.4,7.8 C39.4,7.8 39.4,7.8 39.4,7.8 C38.9,8.1 38.5,8.4 38,8.8 C37.5,9.2 36.9,9.4 36.4,8.9 C35.4,8.2 34.3,7.3 33.6,6.9 C33,6.6 32.8,5.9 33,5.3 C33.2,4.6 33.3,4.1 33.4,3.5 C33.6,3 33.3,2.4 32.8,2.1 C31.5,1.5 30.1,1.1 28.6,0.8 C28,0.6 27.4,1 27.2,1.6 C27.2,1.6 27.2,1.6 27.2,1.6 C27,2.2 26.8,2.6 26.6,3.2 C26.4,3.8 26.1,4.3 25.4,4.3 C24,4.3 22.9,4.3 22,4.3 C21.4,4.4 20.8,4 20.5,3.4 C20.3,2.8 20,2.3 19.8,1.7 C19.6,1.2 19,0.9 18.5,1 C17.1,1.3 15.7,1.8 14.4,2.4 C13.8,2.6 13.5,3.3 13.8,3.8 C13.8,3.8 13.8,3.8 13.8,3.8 C14,4.4 14.1,4.9 14.3,5.4 C14.5,5.9 14.5,6.6 13.9,7 C13.3,7.4 11.9,8.4 11.1,9 C10.6,9.4 9.9,9.5 9.4,9.1 C8.8,8.7 8.4,8.5 7.8,8.1 C7.3,7.8 6.7,7.9 6.3,8.3 C5.3,9.4 4.5,10.6 3.8,11.9 C3.4,12.4 3.6,13.1 4.1,13.5 C4.1,13.5 4.2,13.5 4.2,13.5 C4.7,13.9 5.1,14.2 5.5,14.5 C6,14.8 6.4,15.4 6.1,16 C5.8,16.6 5.3,18.6 5.1,19.3 C5,19.9 4.4,20.4 3.8,20.4 C3.1,20.4 2.6,20.5 1.9,20.5 C1.3,20.5 0.9,20.9 0.8,21.5 C0.6,23 0.6,24.4 0.9,25.9 C1,26.5 1.5,26.9 2.1,26.9 C2.7,26.9 3.2,26.9 3.8,26.9 C4.4,26.9 5,27.1 5.2,27.7 C5.5,28.8 5.9,29.9 6.3,31 C6.6,31.6 6.4,32.4 5.8,32.8 C5.3,33.2 4.9,33.6 4.4,34 C3.9,34.4 3.8,35 4.1,35.5 C4.8,36.8 5.7,38 6.7,39 C7.1,39.5 7.8,39.5 8.3,39.2 C8.8,38.9 9.2,38.6 9.7,38.2 C10.2,37.8 10.8,37.6 11.3,38.1 C11.8,38.6 13.4,39.7 14.1,40.1 C14.7,40.4 14.9,41.1 14.7,41.7 C14.5,42.3 14.4,42.9 14.3,43.5 C14.1,44 14.4,44.6 14.9,44.9 C16.2,45.5 17.6,45.9 19.1,46.2 C19.7,46.4 20.3,46 20.5,45.4 C20.5,45.4 20.5,45.4 20.5,45.4 C20.7,44.8 20.9,44.4 21.1,43.8 C21.3,43.2 21.6,42.7 22.3,42.7 C23.6,42.7 24.6,42.7 25.8,42.7 C26.4,42.6 27,43 27.3,43.6 C27.5,44.2 27.8,44.7 28,45.3 C28.2,45.8 28.8,46.1 29.3,46 C30.7,45.7 32.1,45.2 33.4,44.6 C34,44.4 34.3,43.7 34.1,43.2 C33.9,42.6 33.8,42.1 33.6,41.6 C33.4,41.1 33.4,40.4 34,40 C34.6,39.6 36.2,38.4 36.8,38 C37.3,37.6 38,37.5 38.5,37.9 C39.1,38.3 39.5,38.6 40.1,38.9 C40.6,39.2 41.2,39.1 41.6,38.7 C42.6,37.6 43.4,36.4 44.1,35.1 C44.4,34.6 44.3,33.9 43.8,33.5 C43.3,33.1 42.9,32.8 42.5,32.5 C42.1,32.2 41.6,31.6 41.9,31 C42.2,30.4 42.7,28.5 42.9,27.7 C43,27 43.6,26.5 44.2,26.5 C44.9,26.5 45.4,26.4 46.1,26.3 C46.7,26.3 47.1,25.9 47.2,25.3 C47.1,24 47.1,22.6 46.9,21.1 Z M23.9,38.1 C16,38.1 9.6,31.6 9.6,23.7 C9.6,15.8 16,9.4 23.9,9.5 C31.8,9.6 38.2,16 38.2,23.9 C38.2,23.9 38.2,23.9 38.2,23.9 C38.2,31.8 31.8,38.1 23.9,38.1 L23.9,38.1 Z" id="Shape"></path>
                    <path d="M13.3,19.7 C13.6,19.9 13.9,19.6 14,19.5 C14.1,19.3 14.1,19.1 14,19 C13.9,18.8 14.2,18.7 14.3,18.7 C14.6,18.5 14.9,18.3 15.3,18.1 C15.9,17.9 16.6,17.9 17.2,18.1 C17.6,18.3 18.2,18.2 18.5,17.9 C18.8,17.6 19.1,17.3 19.4,17.1 C19.6,17 18.9,16.4 18.4,17.1 C17.9,17.8 17.6,17.8 17.4,17.8 C17.2,17.8 15.7,17.4 15.5,17 C15.3,16.6 16,16.2 16.5,15.9 C17.3,15.7 18.1,15.6 18.9,15.6 C19.7,15.4 20.6,15.1 21.1,15.4 C21.6,15.7 19,16.3 19.9,16.8 C20.2,17 21.5,16 22,15.8 C23.1,15.2 21,15 21.2,13.9 C21.4,12.8 18.7,13.1 17.2,13.2 C16.5,13.6 15.8,14.1 15.2,14.7 C15.4,14.7 15.6,14.8 15.6,14.9 C15.6,15.2 15.5,15.4 15.4,15.7 C15,16.1 14.6,16.3 14.1,16.3 C14,16.3 13.9,16.2 13.9,16.2 C13.7,16.5 13.5,16.8 13.3,17.1 C13.6,16.9 13.9,16.8 14.2,16.8 C14.5,16.8 14.9,16.9 15,17.1 C15.1,17.3 14.2,17.7 14.1,17.8 C13.7,18.2 13,19 12.6,19.1 C12.5,19.1 12.4,19.1 12.3,19.1 C12.2,19.4 12.1,19.7 12,19.9 C12.3,19.6 12.8,19.5 13.3,19.7 Z" id="Path"></path>
                    <path d="M34.1,23.2 C33.7,23.5 33.2,23.7 32.8,23.7 C32.3,24.1 32.1,24.6 32.1,25.2 C32.2,25.7 33.3,27 32.5,26.9 C31.7,26.5 31,25.9 30.5,25.2 C30.2,24.5 30,23.8 29.7,23.3 C29.6,22.9 29.1,22.7 28.7,22.8 C28.6,22.8 28.6,22.9 28.5,22.9 C28,23.2 28.6,23.5 28.3,24.2 C28,24.9 27.7,25.4 27.3,24.9 C26.1,23.5 24.3,24.2 24,22.6 C23.8,21.8 23.1,21.8 22.5,21.3 C21.9,20.8 21.5,20.6 21.4,20.9 C21.3,21.2 23.3,22.8 23.5,23.2 C23.7,23.8 22.9,24.4 22.3,24.5 C21.7,24.6 21.4,24.2 20.8,23.6 C20.2,23 20,22.5 19.9,23 C19.9,23.8 20.4,24.6 21.1,25.1 C21.6,25.4 22.2,25.6 22,26.1 C21.8,26.6 22,26.3 21.4,26.9 C20.9,27.2 20.6,27.8 20.7,28.4 C20.7,29.2 20.5,29.2 20.4,29.9 C20.3,30.6 20,30 19.7,30.9 C19.6,31.5 19.3,32.1 18.9,32.5 C18.4,32.9 17.8,33.1 17.2,33.2 C16.6,33.2 16.5,31.6 16.5,30.8 C16.5,30.5 16.1,31.3 15.9,29.7 C15.8,28.7 15.1,29.8 15.1,29.1 C15.1,28.4 14.7,28.5 14.4,28.1 C14.1,27.7 13.6,28.1 13.1,28.4 C12.6,28.7 12.8,28.7 12.1,28.5 L12.1,28.5 C13.6,32 16.5,34.6 20.2,35.7 C20,35.6 19.9,35.3 20,35.1 C20.5,34.2 21.4,33.6 22.5,33.6 C24.5,33.4 27.2,34.9 27.7,34.7 C28.2,34.5 29,33.3 30.3,33.4 C30.7,33.4 31.1,33.5 31.4,33.7 C31.8,33.4 32.3,33 32.7,32.6 C32.6,32.6 32.4,32.5 32.3,32.4 C31.6,32.1 31.7,32.6 31.3,32.5 C30.9,32.4 31.7,31.6 30.7,32.3 C29.7,33 30,32.2 29.5,31.1 C29.2,30 29.8,28.9 30.8,28.4 C31.5,28.1 32.3,27.9 33.1,27.8 C34.6,27.4 34.9,26.5 35.2,27.1 C35.2,27.2 35.3,27.3 35.3,27.4 C35.4,27.6 35.5,27.9 35.5,28.2 C35.7,27.6 35.9,27 36.1,26.3 C35.7,26.1 34.4,24.2 35.5,23 C35.7,22.8 35.1,22.2 35.3,22.2 C35.8,22.2 36.2,22.5 36.3,23 C36.3,22.3 36.2,21.7 36,21 C36,21.1 36,21.3 35.9,21.4 C35.7,21.8 35.2,22 34.8,21.9 C34.6,21.8 34.5,21.7 34.4,21.6 C34.3,21.4 33.7,20.9 33.7,21.8 C33.7,22.7 34.9,22.7 34.1,23.2 Z M22.2,28.2 C22,28.5 21.5,30.6 21.2,30.4 C20.9,30.2 21.3,27.9 21.4,27.8 C22,26.7 23,26.8 22.2,28.2 L22.2,28.2 Z M27.4,25.7 C27,25.9 26.5,25.9 26.2,25.6 C25.9,25.4 26.4,24.9 26.6,24.9 C27,24.8 27.6,25.4 27.4,25.7 L27.4,25.7 Z M32.6,25.2 C32.5,25.1 32.6,24.9 32.7,24.8 C32.8,24.7 32.9,24.8 33,24.8 C33.3,25 33.5,25.2 33.6,25.5 C33.6,25.7 33.1,25.7 33,25.6 C32.9,25.5 32.7,25.5 32.6,25.2 L32.6,25.2 Z M34.3,26.9 C33.9,27.1 33.4,27.1 33.1,26.8 C32.8,26.6 33.3,26.1 33.5,26.1 C33.9,26 34.5,26.6 34.3,26.9 L34.3,26.9 Z" id="Shape"></path>
                    <path d="M12.8,21.1 C13.5,21.2 14.2,21.4 14.9,21.6 C15.6,21.9 16.8,22.5 17.4,22.2 C17.9,22 18.3,21.7 18.2,21.3 C18.1,20.9 17.7,20.7 17.3,21 C17.1,21.1 16.7,20.2 16.4,20.3 C16.1,20.4 16.8,21.3 16.5,21.4 C16.2,21.5 15.7,20.4 15.7,20.2 C15.7,20 15.2,19.6 14.9,19.9 C14.1,20.6 12.9,20.6 12.7,20.7 C12.6,20.8 12.5,20.8 12.4,20.9 C11.9,21.1 11.7,20.6 11.7,20.2 C11.5,20.9 11.3,21.6 11.3,22.4 C11.3,22.4 11.3,22.3 11.4,22.3 C11.8,21.5 11.9,21.4 12,21.4 C12.2,21.3 12.3,21.3 12.5,21.2 L12.8,21.1 Z" id="Path"></path>
                </g>
                <path d="M9,3 L20.6,14.5 C20.6,14.5 20.7,14.6 20.6,14.7 C20.6,14.7 20.6,14.7 20.6,14.7 L14.7,20.2 C14.6,20.2 14.6,20.2 14.5,20.2 L3.2,8.9 L1,11.1 L1,0.8 L11.3,0.8 L9,3 Z" id="Path"></path>
                <g transform="translate(0.000000, 62.000000)" id="Path">
                    <path d="M72.4,17.9 L60.9,6.4 C60.9,6.4 60.8,6.3 60.9,6.2 C60.9,6.2 60.9,6.2 60.9,6.2 L66.8,0.7 C66.9,0.7 66.9,0.7 67,0.7 L78.2,12 L80.4,9.8 L80.4,20.1 L70.1,20.2 L72.4,17.9 Z"></path>
                    <path d="M9,17.8 L20.5,6.3 C20.5,6.2 20.5,6.2 20.5,6.1 L14.6,0.6 C14.5,0.6 14.5,0.6 14.4,0.6 L3.1,12 L0.9,9.8 L0.9,20.1 L11.2,20.1 L9,17.8 Z"></path>
                </g>
                <path d="M72.5,3.1 L61,14.5 C61,14.6 61,14.6 61,14.7 L66.9,20.2 C67,20.2 67,20.2 67.1,20.2 L78.4,9 L80.6,11.2 L80.6,0.9 L70.3,0.9 L72.5,3.1 Z" id="Path"></path>
            </g>
        </g>
    </g>
</svg>