<?xml version="1.0" encoding="UTF-8"?>
<svg width="95px" height="95px" viewBox="0 0 95 95" version="1.1" xmlns="http://www.w3.org/2000/svg" xmlns:xlink="http://www.w3.org/1999/xlink">
    <!-- Generator: Sketch 53.2 (72643) - https://sketchapp.com -->
    <title>goal_1_target_1_1</title>
    <desc>Created with Sketch.</desc>
    <g id="goal_1_target_1_1" stroke="none" stroke-width="1" fill="none" fill-rule="evenodd">
        <g id="Group-2" fill-rule="nonzero">
            <rect id="Rectangle" fill="#E5243B" x="-2.13162821e-14" y="7.10542736e-15" width="94.8" height="94.8"></rect>
            <g id="Group" transform="translate(7.700000, 10.000000)" fill="#FFFFFF">
                <g transform="translate(0.000000, 42.000000)" id="Path">
                    <path d="M72.6,5.5 C74.1,5.5 75.3,4.3 75.3,2.7 C75.3,1.2 74.1,0 72.5,0 C71,0 69.8,1.2 69.8,2.7 C69.8,4.3 71,5.5 72.6,5.5 C72.6,5.5 72.6,5.5 72.6,5.5 Z"></path>
                    <path d="M75.8,6.6 L75.6,6.6 L69.6,6.6 L69.4,6.6 C67.5,6.8 66,8.3 66,10.3 L66,17.9 C65.9,18.5 66.4,19 67,19.1 C67.6,19.2 68.1,18.7 68.2,18.1 C68.2,18 68.2,18 68.2,17.9 L68.2,11.4 C68.2,11.2 68.3,10.8 68.7,10.8 C69.1,10.8 69.1,11.1 69.1,11.3 L69.1,30.9 C69.1,31.7 69.8,32.4 70.6,32.4 C71.4,32.4 72.1,31.7 72.1,30.9 C72.1,30.9 72.1,30.9 72.1,30.9 L72.1,19.6 C72.1,19.4 72.3,19.2 72.5,19.2 C72.5,19.2 72.5,19.2 72.5,19.2 L72.5,19.2 C72.7,19.2 72.9,19.4 72.9,19.6 C72.9,19.6 72.9,19.6 72.9,19.6 L72.9,30.9 C73,31.7 73.7,32.4 74.6,32.3 C75.4,32.2 76,31.6 76,30.9 L76,11.3 C76,11.1 76.1,10.8 76.4,10.8 C76.7,10.8 76.9,11.1 76.9,11.4 L76.9,17.9 C76.9,18.5 77.4,19 78,19 C78.6,19 79.1,18.5 79.1,17.9 L79.1,10.3 C79.1,8.4 77.7,6.8 75.8,6.6 Z"></path>
                    <path d="M49.4,6.9 C50.8,6.9 52,5.7 52,4.3 C52,2.9 50.8,1.7 49.4,1.7 C48,1.7 46.8,2.9 46.8,4.3 L46.8,4.3 C46.8,5.7 48,6.9 49.4,6.9 C49.4,6.9 49.4,6.9 49.4,6.9 Z"></path>
                    <path d="M52.5,11.6 C52.9,11.5 53,12 53,12 L54.7,17.9 C54.7,17.9 55,19.2 56.1,18.8 C57.2,18.4 56.8,17.2 56.8,17.2 L54.6,10.2 C54.6,10.2 53.8,8.2 52.1,8.2 L46.6,8.2 C44.9,8.2 44.1,10.2 44.1,10.2 L41.9,17.2 C41.9,17.2 41.5,18.5 42.6,18.8 C43.7,19.1 44,17.9 44,17.9 L45.8,12 C45.8,12 45.9,11.6 46.2,11.6 C46.5,11.6 46.4,12.2 46.4,12.2 L43.4,23.2 L46.2,23.2 L46.2,31.1 C46.3,31.8 46.9,32.4 47.7,32.3 C48.4,32.2 48.9,31.7 48.9,31.1 L48.9,23.2 L49.7,23.2 L49.7,31.1 C49.8,31.8 50.4,32.4 51.2,32.3 C51.9,32.2 52.4,31.7 52.4,31.1 L52.4,23.2 L55.2,23.2 L52.2,12.2 C52.4,12.2 52.2,11.7 52.5,11.6 Z"></path>
                    <path d="M33.9,6.8 C35.3,6.8 36.5,5.6 36.5,4.2 C36.5,2.8 35.3,1.6 33.9,1.6 C32.5,1.6 31.3,2.8 31.3,4.2 L31.3,4.2 C31.3,5.7 32.4,6.8 33.9,6.8 Z"></path>
                    <path d="M39.1,10.1 C39.1,10.1 38.3,8.1 36.6,8.1 L31.1,8.1 C29.4,8.1 28.6,10.1 28.6,10.1 L26.4,17.1 C26.4,17.1 26,18.4 27.1,18.7 C28.2,19 28.5,17.8 28.5,17.8 L30.2,12 C30.2,12 30.3,11.6 30.6,11.6 C30.9,11.6 30.8,12.2 30.8,12.2 L27.8,23.2 L30.6,23.2 L30.6,31.1 C30.7,31.8 31.3,32.4 32.1,32.3 C32.8,32.2 33.3,31.7 33.3,31.1 L33.3,23.2 L34.1,23.2 L34.1,31.1 C34.2,31.8 34.8,32.4 35.6,32.3 C36.3,32.2 36.8,31.7 36.8,31.1 L36.8,23.2 L39.6,23.2 L36.6,12.2 C36.6,12.2 36.5,11.7 36.8,11.6 C37.1,11.5 37.2,12 37.2,12 L38.9,17.9 C38.9,17.9 39.2,19.2 40.3,18.8 C41.4,18.4 41,17.2 41,17.2 L39.1,10.1 Z"></path>
                    <path d="M8.9,5.8 C10.4,5.8 11.6,4.6 11.6,3.1 C11.6,1.6 10.4,0.4 8.9,0.4 C7.4,0.4 6.2,1.6 6.2,3.1 C6.2,3.1 6.2,3.1 6.2,3.1 C6.1,4.6 7.3,5.8 8.9,5.8 C8.9,5.8 8.9,5.8 8.9,5.8 Z"></path>
                    <path d="M12,6.9 L11.8,6.9 L5.9,6.9 L5.7,6.9 C3.8,7.1 2.4,8.6 2.4,10.5 L2.4,18 C2.4,18.3 2.6,18.6 2.8,18.8 L0.4,31.6 C0.4,31.8 0.5,32 0.7,32.1 C0.7,32.1 0.7,32.1 0.7,32.1 L0.8,32.1 C1,32.1 1.2,32 1.2,31.8 L3.6,19.1 C4.1,19 4.5,18.6 4.5,18.1 L4.5,11.6 C4.5,11.4 4.6,11 5,11 C5.3,11 5.4,11.3 5.4,11.5 L5.4,31 C5.5,31.8 6.3,32.4 7.1,32.3 C7.7,32.2 8.2,31.7 8.4,31 L8.4,19.8 C8.4,19.6 8.6,19.4 8.8,19.4 C8.8,19.4 8.8,19.4 8.9,19.4 L8.9,19.4 C9.1,19.4 9.3,19.6 9.3,19.8 C9.3,19.8 9.3,19.8 9.3,19.8 L9.3,31 C9.4,31.8 10.2,32.4 11,32.3 C11.6,32.2 12.1,31.7 12.3,31 L12.3,11.5 C12.3,11.3 12.4,11 12.7,11 C13,11 13.2,11.3 13.2,11.6 L13.2,18 C13.1,18.6 13.6,19.1 14.2,19.2 C14.8,19.3 15.3,18.8 15.4,18.2 C15.4,18.1 15.4,18.1 15.4,18 L15.4,10.5 C15.3,8.6 13.9,7.1 12,6.9 Z"></path>
                    <path d="M61.3,18.6 C62.5,18.6 63.5,17.6 63.5,16.4 C63.5,15.2 62.5,14.2 61.3,14.2 C60.1,14.2 59.1,15.2 59.1,16.4 L59.1,16.4 C59.1,17.6 60.1,18.6 61.3,18.6 Z"></path>
                    <path d="M65.8,22.9 C64.5,19.5 64.2,19.5 63,19.5 L59.6,19.5 C58.4,19.5 58.2,19.5 56.8,22.9 C56.6,23.4 55.8,25.3 55.8,25.4 C55.8,25.5 55.5,26.2 56.2,26.5 C56.9,26.8 57.1,25.9 57.1,25.9 L58.5,22.6 C58.5,22.6 58.5,22.5 58.6,22.5 C58.7,22.5 58.6,22.6 58.6,22.6 L58.6,31.3 L58.6,31.3 C58.6,31.9 59.1,32.5 59.7,32.5 C59.7,32.5 59.7,32.5 59.8,32.5 C60.4,32.5 61,32.1 61,31.5 C61,31.5 61,31.4 61,31.4 L61,27.9 C61,27.9 61,27.4 61.3,27.4 C61.6,27.4 61.6,27.9 61.6,27.9 L61.6,31.4 C61.6,32 62.1,32.6 62.7,32.6 C62.7,32.6 62.7,32.6 62.8,32.6 C63.4,32.6 63.9,32.1 63.9,31.5 C63.9,31.5 63.9,31.5 63.9,31.4 L63.9,31.4 L63.9,22.7 C63.9,22.6 63.9,22.6 63.9,22.6 C63.9,22.6 64,22.7 64,22.7 L65.2,25.7 C65.2,25.7 65.5,26.5 66.2,26.2 C66.9,25.9 66.5,25.2 66.5,25.2 C66.5,25.2 65.9,23.3 65.8,22.9 Z"></path>
                    <path d="M25.4,17.3 C25,17.1 24.5,17.3 24.3,17.7 C24.3,17.7 24.3,17.7 24.3,17.7 C23.9,18.4 23.4,19.1 22.9,19.8 C22.7,20 22.5,20.1 22.2,20.1 L19.6,20.1 C19.3,20.1 19.1,20 18.9,19.8 C18.6,19.5 17.5,17.6 17.5,17.6 C17.4,17.4 17.1,17.2 16.8,17.2 C16.4,17.2 16,17.6 16,18 C16,18.1 16,18.2 16.1,18.3 L18.3,22.3 C18.4,22.5 18.4,22.6 18.4,22.8 L18.4,23.4 L18.4,23.4 C18.4,23.6 18.4,23.9 18.3,24.1 L17.3,28.3 L18.5,28.3 L18.5,31.4 L18.5,31.4 C18.6,32 19.1,32.4 19.7,32.4 C20.2,32.4 20.6,31.9 20.7,31.4 L20.7,28.4 C20.7,28.4 20.7,28.3 20.7,28.3 L21.3,28.3 C21.3,28.3 21.3,28.4 21.3,28.4 L21.3,31.4 C21.4,32 21.9,32.4 22.5,32.4 C23,32.4 23.4,31.9 23.5,31.4 L23.5,28.3 L24.7,28.3 L23.6,24.1 C23.6,23.9 23.5,23.7 23.5,23.5 L23.5,23.3 L23.5,23.3 L23.5,22.7 C23.5,22.5 23.6,22.3 23.6,22.2 L25.6,18.5 C25.6,18.5 25.7,18.2 25.8,18.1 C25.9,18 25.8,17.5 25.4,17.3 C25.4,17.3 25.4,17.3 25.4,17.3 Z"></path>
                    <path d="M20.9,18.7 C22.1,18.7 23.1,17.7 23.1,16.5 C23.1,15.3 22.1,14.3 20.9,14.3 C19.7,14.3 18.7,15.3 18.7,16.5 C18.7,17.7 19.7,18.7 20.9,18.7 L20.9,18.7 Z"></path>
                </g>
                <path d="M76.2,0.4 L67.5,3.4 L69.9,5.5 L55.9,22.2 L47.7,14.2 C47.4,13.9 47,13.8 46.5,13.8 C46.1,13.8 45.7,14 45.4,14.4 L32.6,31.2 L3.9,31.2 C3.1,31.2 2.4,31.9 2.4,32.7 C2.4,33.5 3.1,34.2 3.9,34.2 L33.4,34.2 C33.9,34.2 34.3,34 34.6,33.6 L46.9,17.6 L55.1,25.5 C55.7,26.1 56.6,26.1 57.2,25.5 C57.2,25.5 57.3,25.4 57.3,25.4 L72.3,7.5 L74.6,9.5 L76.2,0.4 Z" id="Path"></path>
                <g transform="translate(3.000000, 6.000000)">
                    <path d="M12.6,17.9 C12.2,18.2 11.7,18.4 11.2,18.5 C9.8,18.9 8.4,19.1 6.9,19 C6.2,19 5.5,18.9 4.8,18.8 C4.4,18.7 3.9,18.7 3.5,18.6 L3,18.4 C2.4,18.2 1.8,18 1.4,17.6 C1.2,17.5 1.1,17.3 0.9,17.1 L0.9,17.7 C0.9,17.9 0.9,18.5 0.9,18.5 C0.9,18.9 1.1,19.2 1.4,19.4 C2.4,20.1 3.5,20.5 4.7,20.6 C5.5,20.7 6.3,20.8 7.1,20.8 C8.3,20.8 9.4,20.7 10.6,20.4 L10.6,20.4 C11.2,20.3 11.8,20 12.4,19.7 L12.4,19.7 C13,19.4 13.3,18.9 13.3,18.5 C13.3,18.5 13.3,17.2 13.3,17.1 C13.1,17.5 12.9,17.7 12.6,17.9 Z" id="Path"></path>
                    <path d="M6.5,13.7 C9.9,13.7 12.7,12.7 12.7,11.4 C12.7,11.4 12.8,10.2 12.7,10 C12.7,9.8 12.7,9.7 12.6,9.5 C13,9.3 13.2,8.9 13.3,8.5 C13.3,8.5 13.3,7.2 13.3,6.9 C13.1,5.3 10,4.5 7,4.5 C4,4.5 0.7,5.4 0.7,7 C0.7,7.1 0.8,8.4 0.8,8.4 C0.8,8.5 0.8,8.6 0.9,8.7 C0.4,9 0.2,9.4 0.1,10 C0.1,10.1 0.2,11.4 0.2,11.4 C0.2,11.8 0.4,12.1 0.7,12.3 C1.7,13 2.8,13.4 4,13.5 C4.9,13.7 5.7,13.7 6.5,13.7 Z M7.1,5.1 C10.4,5.1 12.7,6.1 12.7,7 C12.7,7.9 10.4,8.9 7.1,8.9 C3.8,8.9 1.5,7.9 1.5,7 C1.5,6.1 3.8,5.1 7.1,5.1 Z M0.9,9.9 C0.9,9.6 1.1,9.3 1.4,9.2 C1.6,9.4 1.8,9.5 2,9.7 C3.6,10.4 5.4,10.8 7.2,10.7 C8.7,10.7 10.2,10.5 11.6,10 C11.8,9.9 12,9.8 12.1,9.8 C12.1,9.8 12.1,9.9 12.1,10 C12.1,10.9 9.8,11.9 6.5,11.9 C3.2,11.9 0.9,10.8 0.9,9.9 Z" id="Shape"></path>
                    <path d="M4.6,18.4 C5.4,18.5 6.2,18.6 7,18.6 C8.2,18.6 9.3,18.5 10.5,18.2 L10.5,18.2 C11.1,18.1 11.7,17.8 12.3,17.5 L12.3,17.5 C12.4,17.4 12.6,17.3 12.7,17.2 C12.9,17 13.1,16.8 13.2,16.6 C13.2,16.5 13.3,16.4 13.3,16.3 C13.3,16.3 13.3,15 13.3,14.9 C13.1,15.2 12.6,16 10.1,16.5 C9.1,16.7 8.1,16.7 7,16.7 C5.3,16.7 3.6,16.4 2,15.7 C1.7,15.6 1.5,15.4 1.2,15.2 C1.1,15.1 0.9,14.9 0.8,14.7 C0.8,14.7 0.8,15.3 0.8,15.3 L0.8,16.2 C0.8,16.6 1,16.9 1.3,17.1 C2.3,17.9 3.5,18.3 4.6,18.4 Z" id="Path"></path>
                    <path d="M13.2,12.2 C13.2,12.1 13.1,12.1 13,12.1 L12.7,12 C12.6,12.1 12.5,12.3 12.4,12.4 C12.5,12.4 12.6,12.5 12.6,12.5 C12.8,12.6 12.9,12.8 12.9,13 C12.9,13.2 12.8,13.3 12.7,13.4 C12.6,13.5 12.5,13.5 12.5,13.6 L12.1,13.8 C12.1,13.8 11.7,14 11.6,14 L11.1,14.2 L10.3,14.4 C10.3,14.4 9.6,14.5 9.3,14.6 L8.3,14.7 C8.2,14.7 7.3,14.8 6.9,14.8 C6.2,14.8 5.6,14.8 4.9,14.7 C4.4,14.6 3.9,14.5 3.5,14.4 C3,14.3 2.5,14.1 2,13.9 C1.7,13.8 1.5,13.6 1.2,13.4 C1,13.2 0.8,13 0.7,12.7 L0.7,13.5 L0.7,14.3 C0.7,14.7 0.9,15 1.2,15.2 C2.2,15.9 3.3,16.3 4.5,16.4 C5.3,16.5 6.1,16.6 6.9,16.6 C8.1,16.6 9.3,16.5 10.5,16.2 L10.5,16.2 C11.1,16.1 11.7,15.8 12.3,15.5 L12.3,15.5 C12.4,15.4 12.6,15.3 12.7,15.2 C12.9,15 13.1,14.8 13.2,14.6 C13.2,14.5 13.3,14.4 13.3,14.3 C13.3,14.3 13.3,13 13.3,13 C13.3,12.9 13.3,12.8 13.3,12.7 C13.3,12.3 13.3,12.2 13.2,12.2 Z" id="Path"></path>
                    <path d="M20.8,9.2 C24.2,9.2 27,8.2 27,6.9 C27,6.9 27.1,5.7 27,5.5 C27,5.3 27,5.2 26.9,5 C27.3,4.8 27.5,4.4 27.6,4 C27.6,4 27.7,2.7 27.6,2.4 C27.4,0.8 24.3,7.10542736e-15 21.3,7.10542736e-15 C18.3,7.10542736e-15 15,0.9 15,2.5 C15,2.6 15.1,3.9 15.1,3.9 C15.1,4 15.1,4.1 15.2,4.2 C14.7,4.5 14.4,4.9 14.4,5.5 C14.4,5.6 14.5,6.9 14.5,6.9 C14.5,7.3 14.7,7.6 15,7.8 C16,8.5 17.1,8.9 18.4,9 C19.2,9.1 20,9.2 20.8,9.2 Z M21.5,0.6 C24.8,0.6 27.1,1.6 27.1,2.5 C27.1,3.4 24.8,4.4 21.5,4.4 C18.2,4.4 15.9,3.4 15.9,2.5 C15.9,1.6 18.2,0.6 21.5,0.6 Z M15.2,5.4 C15.2,5.2 15.4,4.9 15.7,4.7 C15.9,4.9 16.1,5 16.3,5.2 C17.9,5.9 19.7,6.3 21.5,6.2 C23,6.2 24.5,6 25.9,5.5 C26.1,5.4 26.3,5.3 26.4,5.3 C26.4,5.3 26.4,5.4 26.4,5.5 C26.4,6.4 24.1,7.4 20.8,7.4 C17.5,7.4 15.2,6.3 15.2,5.4 Z" id="Shape"></path>
                    <path d="M27.7,7.9 C27.7,7.8 27.6,7.7 27.5,7.7 L27.3,7.6 L27,7.5 C26.9,7.6 26.8,7.8 26.7,7.9 C26.8,7.9 26.9,8 26.9,8 C27.1,8.1 27.2,8.3 27.2,8.5 C27.2,8.7 27.1,8.8 27,8.9 C26.9,9 26.9,9.1 26.8,9.1 L26.4,9.3 C26.4,9.3 26,9.5 25.9,9.5 C25.9,9.5 25.5,9.6 25.4,9.7 L24.7,9.9 C24.7,9.9 24,10 23.7,10.1 L22.7,10.2 C22.6,10.2 21.7,10.3 21.3,10.3 C20.6,10.3 20,10.3 19.3,10.2 C18.8,10.1 18.3,10 17.9,9.9 C17.4,9.8 16.9,9.6 16.4,9.4 C16.1,9.3 15.9,9.1 15.6,8.9 C15.4,8.7 15.2,8.5 15.1,8.2 L15.1,9 L15.1,9.8 C15.1,10.2 15.3,10.5 15.6,10.7 C16.6,11.4 17.7,11.8 18.9,11.9 C19.7,12 20.5,12.1 21.3,12.1 C22.5,12.1 23.7,12 24.9,11.7 L24.9,11.7 C25.5,11.5 26.1,11.3 26.7,11 L26.7,11 C26.8,10.9 27,10.8 27.1,10.7 C27.3,10.5 27.5,10.3 27.6,10.1 C27.6,10 27.7,9.9 27.7,9.8 C27.7,9.8 27.7,8.5 27.7,8.5 C27.8,8.1 27.8,8 27.7,7.9 Z" id="Path"></path>
                    <path d="M27,13.4 C26.6,13.7 26.1,13.9 25.6,14 C24.2,14.4 22.8,14.6 21.3,14.5 C20.6,14.5 19.9,14.4 19.2,14.3 C18.8,14.2 18.3,14.2 17.9,14.1 L17.4,14 C16.8,13.8 16.2,13.6 15.7,13.2 C15.5,13.1 15.4,12.9 15.2,12.7 L15.2,13.3 C15.2,13.5 15.2,14.1 15.2,14.1 C15.2,14.5 15.4,14.8 15.7,15 C16.7,15.7 17.8,16.1 19,16.2 C19.8,16.3 20.6,16.4 21.4,16.4 C22.6,16.4 23.8,16.3 24.9,16 L24.9,16 C25.5,15.9 26.1,15.6 26.7,15.3 L26.7,15.3 C27.3,15 27.6,14.5 27.6,14.1 C27.6,14.1 27.6,12.8 27.6,12.7 C27.5,13 27.3,13.2 27,13.4 Z" id="Path"></path>
                    <path d="M15.7,12.7 C16.7,13.4 17.8,13.8 19,14 C19.8,14.1 20.6,14.2 21.4,14.2 C22.6,14.2 23.7,14.1 24.9,13.8 L24.9,13.8 C25.5,13.6 26.2,13.4 26.7,13 L26.7,13 C26.8,12.9 27,12.8 27.1,12.7 C27.3,12.5 27.5,12.3 27.6,12.1 C27.6,12 27.7,11.9 27.7,11.8 C27.7,11.8 27.7,10.5 27.7,10.4 C27.5,10.7 27,11.5 24.5,12 C23.5,12.2 22.4,12.3 21.3,12.3 C19.6,12.3 17.9,12 16.3,11.3 C16,11.2 15.8,11 15.5,10.8 C15.4,10.7 15.2,10.5 15.1,10.3 C15.1,10.3 15.1,10.9 15.1,10.9 L15.1,11.8 C15.2,12.2 15.4,12.5 15.7,12.7 Z" id="Path"></path>
                    <path d="M27.8,17.1 C27.6,17.4 27.3,17.6 27,17.8 C26.6,18.1 26.1,18.3 25.6,18.4 C24.2,18.8 22.8,19 21.3,18.9 C20.6,18.9 19.9,18.8 19.2,18.7 C18.8,18.6 18.3,18.6 17.9,18.5 L17.3,18.3 C16.7,18.1 16.1,17.9 15.6,17.5 C15.4,17.4 15.3,17.2 15.1,17 L15.1,17.6 C15.1,17.8 15.1,18.4 15.1,18.4 C15.1,18.8 15.3,19.1 15.6,19.3 C16.6,20 17.7,20.4 18.9,20.5 C19.7,20.6 20.5,20.7 21.3,20.7 C22.5,20.7 23.6,20.6 24.8,20.3 L24.8,20.3 C25.4,20.2 26,19.9 26.6,19.6 L26.6,19.6 C27.2,19.3 27.5,18.8 27.5,18.4 C27.8,18.5 27.8,17.3 27.8,17.1 Z" id="Path"></path>
                    <path d="M19.1,18.4 C19.9,18.5 20.7,18.6 21.5,18.6 C22.7,18.6 23.9,18.5 25,18.2 L25,18.2 C25.6,18.1 26.2,17.8 26.8,17.5 L26.8,17.5 C26.9,17.4 27.1,17.3 27.2,17.2 C27.4,17 27.6,16.8 27.7,16.6 C27.7,16.5 27.8,16.4 27.8,16.3 C27.8,16.3 27.8,15 27.8,14.9 C27.6,15.2 27.1,16 24.6,16.5 C23.6,16.7 22.5,16.8 21.4,16.8 C19.7,16.8 18,16.5 16.4,15.8 C16.1,15.7 15.9,15.5 15.6,15.3 C15.5,15.2 15.3,15 15.2,14.8 C15.2,14.8 15.2,15.4 15.2,15.4 L15.2,16.3 C15.2,16.6 15.4,17 15.7,17.2 C16.6,17.9 17.8,18.3 19.1,18.4 Z" id="Path"></path>
                </g>
            </g>
        </g>
    </g>
</svg>