<?xml version="1.0" encoding="UTF-8"?>
<svg width="95px" height="95px" viewBox="0 0 95 95" version="1.1" xmlns="http://www.w3.org/2000/svg" xmlns:xlink="http://www.w3.org/1999/xlink">
    <!-- Generator: Sketch 53.2 (72643) - https://sketchapp.com -->
    <title>goal_15_target_15_1</title>
    <desc>Created with Sketch.</desc>
    <g id="goal_15_target_15_1" stroke="none" stroke-width="1" fill="none" fill-rule="evenodd">
        <g id="Group-120" fill-rule="nonzero">
            <rect id="Rectangle" fill="#56C02B" x="-3.62376795e-13" y="-2.13162821e-14" width="94.8" height="94.8"></rect>
            <g id="Group" transform="translate(6.700000, 7.000000)" fill="#FFFFFF">
                <polygon id="Path" points="24.8 17.8 40.1 23.6 44.9 19.3 52.4 29.6 59.4 19.6 78.3 47.8 80.8 47.8 80.1 46.6 59.4 15.8 52.4 25.9 34.2 0.9 0.7 47.9 3.3 47.9"></polygon>
                <path d="M37.3,53.8 L38.5,53.8 C38.5,53.8 38.6,53.8 38.6,53.7 L38.6,51 L41.5,51 C41.6,51 41.7,50.9 41.7,50.8 C41.7,50.8 41.7,50.8 41.7,50.7 L38.1,39.1 L38.1,39.1 C38.1,39 38,38.9 37.9,38.9 C37.8,38.9 37.8,38.9 37.7,39 L37.7,39.1 L34.1,50.6 C34.1,50.6 34.1,50.7 34.1,50.7 C34.1,50.8 34.2,50.9 34.3,50.9 L37.2,50.9 L37.3,53.8 C37.3,53.7 37.3,53.8 37.3,53.8 Z" id="Path"></path>
                <path d="M28,53.8 L29.2,53.8 C29.3,53.8 29.3,53.8 29.3,53.7 L29.3,51 L32.2,51 C32.3,51 32.4,50.9 32.4,50.8 C32.4,50.8 32.4,50.8 32.4,50.7 L28.9,39.1 L28.9,39.1 C28.9,39 28.8,39 28.7,39 C28.6,39 28.6,39 28.5,39.1 L28.5,39.2 L24.9,50.7 C24.9,50.7 24.9,50.8 24.9,50.8 C24.9,50.9 24.9,51 25,51 L27.9,51 L28,53.8 C27.9,53.7 27.9,53.8 28,53.8 C28,53.8 28,53.8 28,53.8 Z" id="Path"></path>
                <path d="M18.5,53.8 L19.7,53.8 C19.7,53.8 19.8,53.8 19.8,53.7 L19.8,51 L22.7,51 C22.8,51 22.9,50.9 22.9,50.8 C22.9,50.8 22.9,50.8 22.9,50.7 L19.3,39.1 L19.3,39.1 C19.3,39 19.2,39 19.1,39 C19,39 19,39 18.9,39.1 L18.9,39.2 L15.3,50.7 C15.3,50.7 15.3,50.8 15.3,50.8 C15.3,50.9 15.4,51 15.5,51 L18.4,51 L18.5,53.8 C18.5,53.7 18.5,53.8 18.5,53.8 Z" id="Path"></path>
                <g transform="translate(61.000000, 41.000000)" id="Path">
                    <path d="M5.1,4.6 C6.2,4.6 7.1,3.7 7.1,2.6 C7.1,1.5 6.2,0.6 5.1,0.6 C4,0.6 3.1,1.5 3.1,2.6 C3.1,3.7 4,4.6 5.1,4.6 Z"></path>
                    <path d="M7.4,5.4 L2.7,5.4 C1.3,5.5 0.3,6.7 0.3,8.1 L0.3,13.7 C0.3,14.1 0.7,14.5 1.1,14.5 C1.5,14.5 1.9,14.2 1.9,13.7 L1.9,8.9 C1.9,8.7 1.9,8.5 2.3,8.5 C2.7,8.5 2.6,8.7 2.6,8.9 L2.6,23.2 C2.6,23.8 3.1,24.3 3.7,24.3 C4.3,24.3 4.8,23.8 4.8,23.2 C4.8,23.2 4.8,23.2 4.8,23.2 L4.8,14.9 C4.8,14.7 4.9,14.6 5.1,14.6 C5.1,14.6 5.1,14.6 5.1,14.6 L5.1,14.6 C5.3,14.6 5.4,14.7 5.4,14.9 C5.4,14.9 5.4,14.9 5.4,14.9 L5.4,23.2 C5.4,23.8 5.9,24.3 6.5,24.3 C7.1,24.3 7.6,23.8 7.6,23.2 C7.6,23.2 7.6,23.2 7.6,23.2 L7.6,8.8 C7.6,8.6 7.6,8.4 7.9,8.4 C8.2,8.4 8.3,8.6 8.3,8.8 L8.3,13.6 C8.3,14 8.7,14.4 9.1,14.4 C9.5,14.4 9.9,14.1 9.9,13.6 L9.9,8 C9.9,6.7 8.8,5.5 7.4,5.4 Z"></path>
                </g>
                <g transform="translate(48.000000, 42.000000)" id="Path">
                    <path d="M6,4.6 C7.1,4.6 7.9,3.7 7.9,2.7 C7.9,1.7 7,0.8 6,0.8 C5,0.8 4.1,1.7 4.1,2.7 C4.1,2.7 4.1,2.7 4.1,2.7 C4.1,3.7 4.9,4.6 6,4.6 C6,4.6 6,4.6 6,4.6 Z"></path>
                    <path d="M11.4,12.1 L9.9,7 C9.9,7 9.3,5.5 8,5.5 L4,5.5 C2.8,5.5 2.2,7 2.2,7 L0.6,12.2 C0.6,12.2 0.3,13.1 1.1,13.4 C1.9,13.7 2.1,12.7 2.1,12.7 L3.4,8.4 C3.4,8.4 3.5,8.1 3.7,8.1 C3.9,8.1 3.9,8.5 3.9,8.5 L1.7,16.6 L3.8,16.6 L3.8,22.4 C3.8,23 4.2,23.4 4.8,23.4 C5.4,23.4 5.8,23 5.8,22.4 L5.8,16.6 L6.4,16.6 L6.4,22.4 C6.4,23 6.8,23.4 7.4,23.4 C8,23.4 8.4,23 8.4,22.4 L8.4,16.6 L10.5,16.6 L8.3,8.5 C8.3,8.5 8.2,8.1 8.5,8.1 C8.8,8.1 8.8,8.4 8.8,8.4 L10.1,12.7 C10.1,12.7 10.3,13.6 11.1,13.4 C11.9,13.2 11.4,12.1 11.4,12.1 Z"></path>
                </g>
                <path d="M80.5,72.5 L80.5,72.5 L80.2,72.6 C77.7,73.9 69.8,76.9 62.7,70.1 C62.6,70 62.4,69.9 62.3,69.9 C62.2,69.9 62,70 61.9,70.1 C59.8,71.7 50,78.3 41.3,70.2 L41.2,70.1 C41.1,70 41,70 40.9,70 C40.8,70 40.6,70 40.6,70.1 L40.5,70.2 C31.8,78.3 22,71.7 19.9,70.1 C19.8,70 19.7,69.9 19.5,69.9 C19.3,69.9 19.2,70 19.1,70.1 C12,76.9 4.1,73.8 1.6,72.6 L1.4,72.5 L1,72.5 C0.7,72.5 0.5,72.7 0.5,73 L0.5,76.4 C0.5,76.5 0.6,76.6 0.6,76.7 C8.8,83.9 16.7,77.2 18.5,75.4 C18.6,75.3 18.6,75.3 18.7,75.2 C18.8,75.2 18.8,75.1 18.9,75.1 C19,75.1 19.2,75.2 19.3,75.3 C28.6,84.2 38.4,77 40.4,75.3 L40.6,75.1 C40.7,75.1 40.7,75 40.8,75 C40.9,75 40.9,75 41,75.1 L41.2,75.3 C43.2,77 53,84.2 62.3,75.3 L62.3,75.3 C62.4,75.2 62.5,75.2 62.6,75.2 C62.7,75.2 62.8,75.2 62.9,75.3 C63,75.3 63,75.4 63,75.4 C64.8,77.2 72.6,83.9 80.9,76.7 C81,76.6 81,76.5 81,76.4 L81,73 C81,72.7 80.8,72.5 80.5,72.5" id="Path"></path>
                <path d="M1,60.9 L45.5,60.9 C45.8,60.9 46,61.1 46,61.4 L46,64.7 C46,65 45.8,65.2 45.5,65.2 L1,65.2 C0.7,65.2 0.5,65 0.5,64.7 L0.5,61.4 C0.5,61.1 0.7,60.9 1,60.9 Z" id="Path"></path>
            </g>
        </g>
    </g>
</svg>