<?xml version="1.0" encoding="UTF-8"?>
<svg width="95px" height="95px" viewBox="0 0 95 95" version="1.1" xmlns="http://www.w3.org/2000/svg" xmlns:xlink="http://www.w3.org/1999/xlink">
    <!-- Generator: Sketch 53.2 (72643) - https://sketchapp.com -->
    <title>goal_17_target_17_17</title>
    <desc>Created with Sketch.</desc>
    <g id="goal_17_target_17_17" stroke="none" stroke-width="1" fill="none" fill-rule="evenodd">
        <g id="Group-159" fill-rule="nonzero">
            <rect id="Rectangle" fill="#19486A" x="1.45661261e-12" y="-2.13162821e-14" width="94.8" height="94.8"></rect>
            <g id="Group" transform="translate(13.700000, 12.000000)" fill="#FFFFFF">
                <path d="M51.3,16.3 C51.3,11.3 47.4,7.2 42.4,7 C40.7,2.2 35.4,-0.3 30.6,1.5 C28,2.4 26,4.5 25.1,7 C20,7.2 16,11.5 16.2,16.6 C16.3,19.3 17.6,21.9 19.8,23.6 C19.6,24.4 19.4,25.3 19.4,26.2 C19.4,31.3 23.5,35.4 28.6,35.4 C30.5,35.4 32.3,34.8 33.8,33.8 C38.1,36.6 43.8,35.5 46.6,31.2 C48.1,29 48.5,26.2 47.8,23.6 C50,21.8 51.3,19.1 51.3,16.3 M41,10.1 C41,13.8 38.3,16.9 34.7,17.4 C34.6,17 34.6,16.6 34.6,16.3 C34.6,12.6 37.3,9.6 40.9,9 C41.1,9.4 41.1,9.8 41,10.1 M33.7,31.3 C30.8,28.5 30.7,23.8 33.5,20.9 C33.5,20.9 33.6,20.8 33.6,20.8 C36.5,23.6 36.6,28.3 33.8,31.2 C33.8,31.3 33.7,31.3 33.7,31.3 M26.4,9 C30,9.5 32.7,12.6 32.7,16.3 C32.7,16.7 32.7,17.1 32.6,17.4 C29,16.9 26.3,13.8 26.3,10.1 C26.3,9.8 26.3,9.4 26.4,9 M31.9,19.6 C30.7,22.1 28.1,23.7 25.3,23.7 C24.1,23.7 23,23.4 21.9,22.9 C23.1,20.4 25.7,18.8 28.5,18.8 C29.7,18.8 30.8,19.1 31.9,19.6 M35.4,19.5 C39,17.6 43.5,19 45.3,22.7 C45.3,22.7 45.3,22.8 45.4,22.8 C41.8,24.7 37.3,23.3 35.5,19.6 C35.5,19.6 35.4,19.6 35.4,19.5 M33.7,2.7 C36.6,2.7 39.3,4.4 40.5,7.1 C37.5,7.6 35,9.6 33.7,12.3 C32.4,9.6 29.9,7.6 26.9,7.1 C28.1,4.5 30.7,2.8 33.7,2.7 M17.9,16.3 C17.9,12.5 20.7,9.4 24.5,9 C24.4,9.4 24.4,9.8 24.4,10.2 C24.4,12.8 25.5,15.3 27.4,17 C24.4,17.3 21.7,19.1 20.3,21.8 C18.8,20.3 17.9,18.3 17.9,16.3 M21.1,26.1 C21.1,25.6 21.2,25.1 21.3,24.6 C24,25.9 27.2,25.8 29.8,24.4 C29.7,25 29.6,25.5 29.6,26.1 C29.6,28.5 30.5,30.8 32.2,32.5 C28.7,34.6 24.2,33.4 22.1,29.9 C21.4,28.7 21.1,27.4 21.1,26.1 M46.2,26 C46.2,30.1 42.9,33.4 38.8,33.4 C37.5,33.4 36.3,33.1 35.2,32.4 C36.8,30.7 37.7,28.4 37.7,26.1 C37.7,25.5 37.6,24.9 37.5,24.3 C38.9,25.1 40.4,25.5 42,25.5 C43.4,25.5 44.8,25.2 46,24.6 C46.1,25.1 46.2,25.6 46.2,26 M40,16.9 C41.9,15.2 43,12.7 43,10.1 C43,9.7 43,9.3 42.9,8.9 C46.9,9.4 49.8,13 49.4,17 C49.2,18.8 48.3,20.4 47,21.6 C45.6,19.1 43,17.3 40,16.9" id="Shape"></path>
                <g transform="translate(0.000000, 43.000000)" id="Path">
                    <path d="M67.1,13.1 L60.3,0.7 C60.2,0.5 59.9,0.4 59.7,0.5 L51,4.8 C50.8,4.9 50.5,5 50.2,5 C49.9,5 49.6,4.9 49.3,4.8 L48.5,4.4 C46.5,3.4 40.5,0.4 39.7,0.1 C39.3,-3.46944695e-18 38.9,-3.46944695e-18 38.5,0.1 C38.3,0.2 33.2,1.9 32,2.3 C31.4,2.5 30.8,2.7 30.2,3.1 C29.8,3.4 23.2,8.2 22.7,8.6 C22.5,8.7 22.4,8.9 22.4,9.1 C22.3,9.7 22.5,10.3 22.9,10.8 C23.3,11.3 23.9,11.5 24.6,11.5 C25.1,11.5 25.5,11.4 26,11.3 C26.4,11.2 35.4,7.4 35.4,7.4 C35.6,7.3 35.9,7.3 36.1,7.2 C36.4,7.2 36.7,7.3 37,7.5 C37.7,8.1 54,20.9 54.5,21.4 C54.6,21.5 54.8,21.5 54.9,21.4 L55,21.3 L67,13.6 C67.3,13.3 67.2,13.2 67.1,13.1 Z"></path>
                    <path d="M53,22.4 L36.9,9.5 C36.6,9.3 36.3,9.2 36,9.1 L35.8,9.1 C35.6,9.1 35.5,9.1 35.3,9.2 L27,12.7 C26.3,13 25.5,13.2 24.8,13.2 C23.6,13.2 22.5,12.7 21.7,11.9 C20.8,11.2 20.4,10.2 20.5,9.1 C20.6,8.3 21.1,7.6 21.8,7.3 L22.3,7 C22.2,7 22.1,7 22,7 L21.2,7.1 C19.5,7.4 17.7,7.3 16,6.8 C13.6,6 6.7,2.8 6.7,2.8 C6.7,2.8 6.6,2.8 6.6,2.8 C6.4,2.8 6.2,2.9 6.1,3 L0.4,13.2 C0.4,13.3 0.4,13.3 0.4,13.4 C0.4,13.5 0.5,13.5 0.6,13.6 L12.3,19.4 L13.7,20.1 L13.7,20.1 L13.7,19.9 L13.7,19.8 L13.7,19.7 C14.4,17.9 16.4,17 18.1,17.7 C18.9,18 19.5,18.6 19.9,19.3 C21.4,18.1 23.5,18.3 24.7,19.8 C24.8,19.9 24.9,20.1 25,20.2 C25.6,19.7 26.4,19.4 27.2,19.4 C28.8,19.4 30.2,20.5 30.6,22.1 C31,21.9 31.5,21.8 31.9,21.8 C33.8,21.8 35.4,23.4 35.4,25.3 C35.4,25.5 35.4,25.6 35.4,25.8 L40.5,29.8 C40.8,30 41.1,30.2 41.5,30.2 C42.4,30.2 43.1,29.4 43.1,28.5 C43.1,28 42.9,27.5 42.5,27.2 L32.5,19.3 L32.5,19.3 L32.4,19.3 L32.3,19.2 C31.8,18.9 31.7,18.3 32,17.8 C32,17.7 32.1,17.7 32.1,17.6 C32.6,17 33.4,17.4 33.7,17.6 L46,27.4 C46.6,28.1 47.7,28.1 48.3,27.4 C49,26.8 49,25.7 48.3,25.1 C48.2,25 48.1,24.9 47.9,24.8 L35.7,15 C35.4,14.7 34.9,14.2 35.4,13.5 C35.7,13.1 36.3,13.1 36.7,13.4 C36.7,13.4 36.7,13.4 36.7,13.4 L51,25 C51.6,25.6 52.7,25.6 53.3,25 C53.9,24.4 53.9,23.3 53.3,22.7 C53.2,22.6 53.1,22.5 53,22.4 L53,22.4 Z"></path>
                    <path d="M36.1,29.3 L34.7,28.2 L33.7,31.2 C33.7,31.3 33.6,31.4 33.6,31.5 L34.1,31.9 C34.8,32.5 35.8,32.4 36.4,31.6 C36.4,31.6 36.4,31.6 36.4,31.6 C37,31 36.9,30 36.1,29.3 C36.1,29.4 36.1,29.4 36.1,29.3 Z"></path>
                    <path d="M32.9,24.2 L32.6,24 C32.4,23.9 32.2,23.9 31.9,23.9 C31.7,23.9 31.6,23.9 31.4,24 C31.1,24.1 30.8,24.3 30.6,24.5 C30.5,24.6 30.5,24.7 30.4,24.8 C30.4,24.8 30.4,24.9 30.4,24.9 L30.4,24.9 L30.4,24.9 L29.6,27.1 L29.3,28.1 L28.9,29.3 L28.8,29.6 C28.7,29.8 28.7,29.9 28.7,30.1 C28.7,30.3 28.7,30.5 28.8,30.8 C28.9,31.1 29.1,31.3 29.4,31.5 C29.5,31.6 29.6,31.6 29.7,31.7 C29.9,31.8 30.1,31.8 30.4,31.8 C31,31.8 31.5,31.5 31.8,31.1 C31.9,31 32,30.8 32,30.6 L32.1,30.3 L33.2,27 L33.5,26.2 C33.5,26.1 33.5,26.1 33.5,26 C33.5,25.8 33.6,25.6 33.6,25.4 C33.7,25 33.4,24.5 32.9,24.2 Z"></path>
                    <path d="M28.8,23.7 C28.8,23.7 28.8,23.6 28.8,23.7 C28.8,23.6 28.8,23.4 28.8,23.3 C28.8,23.2 28.8,23.2 28.8,23.1 C28.8,22.2 28.1,21.4 27.2,21.4 C27.2,21.4 27.2,21.4 27.2,21.4 C26.9,21.4 26.6,21.5 26.4,21.6 C26.1,21.8 25.8,22.1 25.7,22.4 L25.7,22.5 L25.1,24.6 L24.3,26.8 L24.2,27.1 C24.1,27.3 24.1,27.4 24.1,27.6 C24.1,28.2 24.4,28.8 25,29.1 C25.1,29.2 25.3,29.2 25.4,29.3 C25.5,29.3 25.6,29.3 25.7,29.3 C26.5,29.3 27.1,28.8 27.4,28.1 L27.9,26.8 L28.9,23.7 C28.8,23.8 28.8,23.7 28.8,23.7 Z"></path>
                    <path d="M22.1,20.5 C21.8,20.5 21.4,20.6 21.2,20.8 C21,20.9 20.9,21.1 20.7,21.3 C20.6,21.4 20.6,21.5 20.5,21.6 L20.5,21.7 L19.7,24 L19.6,24.4 C19.5,24.6 19.5,24.7 19.5,24.9 C19.5,25.8 20.2,26.5 21.2,26.6 C21.8,26.6 22.3,26.3 22.6,25.9 C22.7,25.8 22.8,25.6 22.8,25.4 L23.4,23.6 L23.6,23 C23.6,22.9 23.7,22.8 23.7,22.6 C23.7,22.5 23.7,22.3 23.7,22.2 C23.7,21.3 23,20.5 22.1,20.5 Z"></path>
                    <path d="M18.2,20.2 C18,19.9 17.8,19.7 17.5,19.6 C17.3,19.5 17.1,19.5 16.9,19.5 C16.6,19.5 16.2,19.6 16,19.8 C15.9,19.9 15.7,20 15.6,20.1 C15.5,20.2 15.4,20.4 15.4,20.5 L15.4,20.5 L15.2,21.2 C15.2,21.2 15.1,21.5 15,21.8 C15,21.9 14.9,22.1 14.9,22.2 C14.9,22.3 14.9,22.4 14.9,22.5 C15.1,23.3 15.7,23.8 16.5,23.8 C16.9,23.8 17.2,23.7 17.5,23.5 C17.6,23.4 17.8,23.3 17.9,23.1 C18,23 18.1,22.8 18.1,22.6 L18.3,21.8 C18.3,21.8 18.3,21.7 18.3,21.6 C18.3,21.5 18.3,21.3 18.4,21.2 C18.4,21.1 18.4,21.1 18.4,21 C18.4,20.8 18.4,20.6 18.3,20.3 C18.3,20.4 18.3,20.3 18.2,20.2 Z"></path>
                </g>
            </g>
        </g>
    </g>
</svg>