<?xml version="1.0" encoding="UTF-8"?>
<svg width="95px" height="95px" viewBox="0 0 95 95" version="1.1" xmlns="http://www.w3.org/2000/svg" xmlns:xlink="http://www.w3.org/1999/xlink">
    <!-- Generator: Sketch 53.2 (72643) - https://sketchapp.com -->
    <title>goal_4_target_4_1</title>
    <desc>Created with Sketch.</desc>
    <g id="goal_4_target_4_1" stroke="none" stroke-width="1" fill="none" fill-rule="evenodd">
        <rect id="Rectangle" fill="#C5192D" fill-rule="nonzero" x="0" y="0" width="94.8" height="94.8"></rect>
        <g id="Group" transform="translate(15.700000, 7.000000)" fill="#FFFFFF" fill-rule="nonzero">
            <path d="M38.5,14.1 L31.7,7.9 L24.5,14.1 L2.9,14.1 L2.9,39 L60.4,39 L60.4,14.1 L38.5,14.1 Z M16.7,19.7 L19.5,19.7 L19.5,24.5 L16.7,24.5 L16.7,19.7 Z M8.4,17.1 L11.3,17.1 L11.3,19.2 L8.4,19.2 L8.4,17.1 Z M8.4,19.7 L11.3,19.7 L11.3,24.5 L8.4,24.5 L8.4,19.7 Z M14.6,34.1 L11.7,34.1 L11.7,29.3 L14.6,29.3 L14.6,34.1 Z M14.6,28.8 L11.7,28.8 L11.7,26.7 L11.2,26.7 L11.2,28.8 L8.3,28.8 L8.3,29.3 L11.2,29.3 L11.2,34.1 L8.3,34.1 L8.3,26.7 L14.5,26.7 L14.5,28.8 L14.6,28.8 Z M14.6,24.5 L11.7,24.5 L11.7,19.7 L14.6,19.7 L14.6,24.5 Z M14.6,19.2 L11.7,19.2 L11.7,17.1 L14.6,17.1 L14.6,19.2 Z M19.5,34.2 L16.7,34.2 L16.7,29.3 L19.5,29.3 L19.5,34.2 Z M22.9,34.2 L20,34.2 L20,29.3 L22.9,29.3 L22.9,34.2 Z M22.9,28.8 L20,28.8 L20,26.8 L19.5,26.8 L19.5,28.8 L16.7,28.8 L16.7,26.8 L22.9,26.8 L22.9,28.8 L22.9,28.8 Z M22.9,24.5 L20,24.5 L20,19.7 L22.9,19.7 L22.9,24.5 Z M22.9,19.2 L20,19.2 L20,17.1 L19.5,17.1 L19.5,19.2 L16.7,19.2 L16.7,17.1 L22.9,17.1 L22.9,19.2 L22.9,19.2 Z M31.6,13.5 C33.4,13.5 34.8,15 34.8,16.7 C34.8,18.4 33.4,20 31.6,20 C29.8,20 28.4,18.5 28.4,16.8 C28.3,14.9 29.8,13.5 31.6,13.5 C31.6,13.4 31.6,13.4 31.6,13.5 L31.6,13.5 Z M31.4,38.5 L27.7,38.5 L27.7,28.4 L31.4,28.4 L31.4,38.5 Z M35.7,38.5 L31.8,38.5 L31.8,28.4 L35.7,28.4 L35.7,38.5 Z M35.7,27.9 L27.6,27.9 L27.6,27.2 C27.6,27.2 28.8,26 31.6,26 C34.4,26 35.6,27.2 35.6,27.2 L35.7,27.9 Z M49.3,19.7 L52.2,19.7 L52.2,24.5 L49.3,24.5 L49.3,19.7 Z M41.1,17.1 L44,17.1 L44,19.2 L41,19.2 L41.1,17.1 Z M41.1,19.7 L44,19.7 L44,24.5 L41,24.5 L41.1,19.7 Z M43.9,34.1 L41,34.1 L41,29.3 L43.9,29.3 L43.9,34.1 Z M47.3,34.1 L44.4,34.1 L44.4,29.3 L47.3,29.3 L47.3,34.1 Z M47.3,28.8 L44.4,28.8 L44.4,26.7 L43.9,26.7 L43.9,28.8 L41,28.8 L41,26.7 L47.2,26.7 L47.2,28.8 L47.3,28.8 Z M47.3,24.5 L44.4,24.5 L44.4,19.7 L47.3,19.7 L47.3,24.5 Z M47.3,19.2 L44.4,19.2 L44.4,17.1 L47.3,17.1 L47.3,19.2 Z M52.2,34.2 L49.3,34.2 L49.3,29.3 L52.2,29.3 L52.2,34.2 Z M55.5,34.2 L52.7,34.2 L52.7,29.3 L55.5,29.3 L55.5,34.2 Z M55.5,28.8 L52.7,28.8 L52.7,26.8 L52.2,26.8 L52.2,28.8 L49.3,28.8 L49.3,26.8 L55.5,26.8 L55.5,28.8 Z M55.5,24.5 L52.7,24.5 L52.7,19.7 L55.5,19.7 L55.5,24.5 Z M55.5,19.2 L52.7,19.2 L52.7,17.1 L52.2,17.1 L52.2,19.2 L49.3,19.2 L49.3,17.1 L55.5,17.1 L55.5,19.2 Z" id="Shape"></path>
            <path d="M30.4,18.2 C30.5,18.2 30.5,18.2 30.6,18.1 L31.9,16.8 L31.9,14.3 C31.9,14.2 31.8,14 31.7,14 C31.6,14 31.4,14.1 31.4,14.2 C31.4,14.2 31.4,14.3 31.4,14.3 L31.4,16.6 L30.3,17.7 C30.2,17.8 30.2,18 30.3,18.1 C30.3,18.1 30.3,18.1 30.3,18.1 C30.3,18.1 30.4,18.2 30.4,18.2 Z" id="Path"></path>
            <path d="M31.7,6 L39.4,12.9 L63.2,12.9 L57.3,6 L40.2,6 C39.7,6 39.2,5.8 38.7,5.5 L31.7,0.3 L24.7,5.6 C24.3,5.9 23.8,6.1 23.2,6.1 L7,6.1 L0.3,12.9 L24,12.9 L31.7,6 Z" id="Path"></path>
        </g>
        <g id="Group" transform="translate(11.700000, 60.000000)" fill="#FFFFFF" fill-rule="nonzero">
            <path d="M14.6,10.1 C14.6,10.1 14.1,8.3 12.6,8.3 L11.1,8.3 L7,8.3 C6.6,8.3 6.2,8.1 6,7.8 C5.5,7.3 3.9,4.5 3.8,4.4 L3,3.2 C2.8,2.8 2.4,2.6 2,2.6 C1.3,2.6 0.8,3.2 0.8,3.8 C0.8,4 0.9,4.2 0.9,4.3 L5.1,11.8 C5.2,12.1 5.3,12.3 5.3,12.6 L5.3,13.4 C5.3,13.7 5.3,13.9 5.2,14.2 L3.5,20.5 L5.3,20.5 L5.3,26 L5.3,26 C5.2,26.9 6,27.7 6.9,27.8 C7.8,27.9 8.6,27.1 8.7,26.2 C8.7,26.1 8.7,26 8.7,25.9 L8.7,20.7 C8.7,20.6 8.7,20.6 8.7,20.5 L9.7,20.5 C9.7,20.6 9.7,20.6 9.7,20.7 L9.7,25.9 C9.7,26.6 10.1,27.3 10.8,27.6 C11.7,27.9 12.6,27.4 12.9,26.5 C13,26.3 13,26.2 13,26 L13,20.5 L14.8,20.5 L12.3,12 C12.3,12 12.2,11.6 12.5,11.5 C12.8,11.4 12.9,11.8 12.9,11.8 L14.9,18.1 C15,18.7 15.7,19.1 16.3,19 C16.3,19 16.3,19 16.3,19 C17.4,18.7 17,17.5 17,17.5 L14.6,10.1 Z" id="Path"></path>
            <path d="M9.5,6.8 C11.4,6.8 12.9,5.3 12.9,3.4 C12.9,1.5 11.4,0 9.5,0 C7.6,0 6.1,1.5 6.1,3.4 C6.1,3.4 6.1,3.4 6.1,3.4 C6.1,5.3 7.6,6.8 9.5,6.8 Z" id="Path"></path>
        </g>
        <g id="Group" transform="translate(48.700000, 60.000000)" fill="#FFFFFF" fill-rule="nonzero">
            <path d="M9.2,6.7 C11,6.7 12.5,5.2 12.5,3.4 C12.5,1.6 11,0.1 9.2,0.1 C7.4,0.1 5.9,1.6 5.9,3.4 L5.9,3.4 C5.8,5.2 7.3,6.7 9.2,6.7 C9.2,6.7 9.2,6.7 9.2,6.7 Z" id="Path"></path>
            <path d="M17.2,16.4 C17.2,16.2 16.2,13.9 15.9,13.1 C13.9,7.9 13.6,7.9 11.7,7.9 L6.6,7.9 C4.8,8 4.4,7.9 2.4,13.1 C2.1,13.8 0.9,16.7 0.9,16.9 C0.9,17.1 0.4,18.1 1.5,18.5 C2.6,18.9 2.9,17.7 2.9,17.7 L4.9,12.6 C4.9,12.6 4.9,12.5 5,12.5 C5.1,12.5 5.1,12.6 5.1,12.7 L5.1,25.9 L5.1,25.9 C5.1,26.9 5.8,27.7 6.8,27.7 C6.8,27.7 6.9,27.7 6.9,27.7 C7.8,27.7 8.6,26.9 8.6,26 C8.6,26 8.6,25.9 8.6,25.9 L8.6,20.6 C8.6,20.6 8.5,19.8 9.1,19.8 C9.7,19.8 9.6,20.6 9.6,20.6 L9.6,25.9 C9.6,26.9 10.3,27.7 11.3,27.7 C11.3,27.7 11.3,27.7 11.4,27.7 C12.3,27.7 13.1,26.9 13.1,26 C13.1,26 13.1,25.9 13.1,25.9 L13.1,25.9 L13.1,12.7 C13.1,12.6 13.1,12.5 13.2,12.5 C13.3,12.5 13.3,12.6 13.3,12.6 L15.2,17.1 C15.2,17.1 15.7,18.3 16.8,17.8 C17.9,17.3 17.2,16.4 17.2,16.4 Z" id="Path"></path>
        </g>
        <g id="Group" transform="translate(68.700000, 52.000000)" fill="#FFFFFF" fill-rule="nonzero">
            <path d="M10.4,8.7 L10.2,8.7 L4,8.7 L3.8,8.7 C1.8,8.9 0.3,10.5 0.3,12.5 L0.3,20.4 C0.4,21 0.9,21.5 1.5,21.4 C2,21.3 2.4,20.9 2.5,20.4 L2.5,13.6 C2.5,13.3 2.6,13 3,13 C3.3,13 3.4,13.3 3.4,13.6 L3.4,34 C3.5,34.9 4.2,35.5 5.1,35.5 C5.9,35.4 6.5,34.8 6.6,34 L6.6,22.2 C6.6,22 6.8,21.8 7,21.7 C7,21.7 7,21.7 7.1,21.7 L7.1,21.7 C7.3,21.7 7.5,21.9 7.6,22.1 C7.6,22.1 7.6,22.1 7.6,22.2 L7.6,33.9 C7.6,34.8 8.3,35.5 9.2,35.5 C10.1,35.5 10.8,34.8 10.8,33.9 L10.8,13.5 C10.8,13.3 10.9,12.9 11.2,12.9 C11.7,12.9 11.7,13.2 11.7,13.5 L11.7,20.3 C11.7,20.9 12.2,21.4 12.8,21.4 C13.4,21.4 13.9,20.9 13.9,20.3 L13.9,12.4 C13.8,10.5 12.3,8.9 10.4,8.7 Z" id="Path"></path>
            <path d="M1.6,3.2 C1.7,2.9 2,2.5 3,2.3 C3.2,2.3 3.4,2.2 3.5,2.1 C3.7,1.8 3.9,1.5 4.1,1.2 C4.1,1.1 4.1,1.1 4.1,1 C4,0.6 3.6,-1.42108547e-14 2.6,0.5 C1.4,1.1 1.5,2.9 1.5,2.9 C1.5,2.9 1.6,3.3 1.6,3.2 Z" id="Path"></path>
            <path d="M11,2.4 C12,2.5 12.3,3 12.4,3.3 C12.4,3.4 12.4,3.3 12.5,3.1 C12.6,2.9 12.6,1.3 11.4,0.7 C10.4,0.2 9.9,0.8 9.9,1.2 C9.9,1.3 9.9,1.4 9.9,1.4 C10.1,1.6 10.3,1.9 10.5,2.2 C10.6,2.3 10.8,2.4 11,2.4 Z" id="Path"></path>
            <path d="M7,7.5 C8.9,7.5 10.4,6 10.4,4.1 C10.4,2.2 8.9,0.7 7,0.7 C5.1,0.7 3.6,2.2 3.6,4.1 C3.6,4.1 3.6,4.1 3.6,4.1 C3.6,6 5.1,7.5 7,7.5 Z" id="Path"></path>
        </g>
        <g id="Group" transform="translate(31.700000, 50.000000)" fill="#FFFFFF" fill-rule="nonzero">
            <path d="M11.4,9.8 L4.3,9.8 C2.3,10 0.8,11.7 0.8,13.7 L0.8,21.9 C0.8,22.5 1.3,23 2,23 C2.6,23 3.1,22.5 3.1,21.9 L3.1,14.8 C3.1,14.5 3.2,14.2 3.7,14.2 C4.2,14.2 4.1,14.5 4.1,14.8 L4.1,36 C4.1,36.9 4.8,37.6 5.8,37.6 C6.7,37.6 7.4,36.9 7.4,36 L7.4,23.8 C7.4,23.5 7.6,23.3 7.8,23.3 C7.8,23.3 7.8,23.3 7.8,23.3 L7.8,23.3 C8,23.3 8.3,23.5 8.3,23.7 C8.3,23.7 8.3,23.7 8.3,23.8 L8.3,36 C8.4,36.9 9.2,37.6 10.1,37.5 C10.9,37.4 11.6,36.8 11.6,36 L11.6,14.8 C11.6,14.6 11.7,14.2 12,14.2 C12.3,14.2 12.6,14.6 12.6,14.8 L12.6,21.9 C12.6,22.5 13.1,23 13.8,23 C14.4,23 14.9,22.5 14.9,21.9 L14.9,13.7 C14.9,11.7 13.4,10 11.4,9.8 Z" id="Path"></path>
            <path d="M10.1,4.8 C9.8,4.6 9.6,4.4 9.1,4.6 C8.8,4.8 8.7,4.8 8.3,5 C7.6,5.3 6.9,5.5 6.2,5.6 C5.6,5.7 5.1,5.7 4.5,5.7 C4.7,7.5 6.3,8.9 8.2,8.7 C9.8,8.5 11,7.3 11.2,5.8 C10.8,5.4 10.5,5.1 10.1,4.8 Z" id="Path"></path>
            <path d="M4.5,5 C5,5 5.5,5 6,4.9 C6.7,4.8 7.3,4.6 7.9,4.3 C8.2,4.1 8.6,4 8.9,3.9 C9.1,3.8 9.4,3.8 9.6,3.8 C9.7,3.8 9.8,3.9 9.9,4 L10.2,4.2 C10.2,4.2 10.3,4.3 11.1,4.9 C11.2,5 11.3,5.1 11.3,5 C11.3,4.9 11.4,4.4 11.4,4.1 C11.3,3.3 10.9,2.5 10.4,1.8 C10.2,1.6 10,1.4 9.7,1.5 C9.3,1.6 9.3,1.3 9,1.1 C8,0.7 6.9,0.9 6.1,1.6 C5.1,2.4 4.4,3.4 3.9,4.6 C3.8,4.8 4.1,5 4.5,5 Z" id="Path"></path>
        </g>
    </g>
</svg>