<?xml version="1.0" encoding="UTF-8"?>
<svg width="95px" height="95px" viewBox="0 0 95 95" version="1.1" xmlns="http://www.w3.org/2000/svg" xmlns:xlink="http://www.w3.org/1999/xlink">
    <!-- Generator: Sketch 53.2 (72643) - https://sketchapp.com -->
    <title>goal_17_target_17_13</title>
    <desc>Created with Sketch.</desc>
    <g id="goal_17_target_17_13" stroke="none" stroke-width="1" fill="none" fill-rule="evenodd">
        <g id="Group-155" fill-rule="nonzero">
            <rect id="Rectangle" fill="#19486A" x="1.45661261e-12" y="-2.13162821e-14" width="94.8" height="94.8"></rect>
            <g id="Group" transform="translate(8.700000, 7.000000)" fill="#FFFFFF">
                <path d="M75.7,33.7 C74.4,28.6 72.1,23.8 68.8,19.6 L68.7,19.7 C69.7,21.2 70.7,22.9 71.5,24.6 C80.6,41.1 74.5,61.9 58,70.9 C42.9,79.2 23.9,74.9 13.8,60.8 C2.9,46.8 5.4,26.5 19.4,15.6 C31.6,6.1 48.9,6.6 60.5,16.9 L60.7,17.1 C61.1,17.5 61.8,17.5 62.2,17.1 L62.3,17 L66.4,13 L66.7,12.7 C66.9,12.5 67,12.2 67,12 C67,11.7 66.9,11.4 66.7,11.2 C66.7,11.2 66.6,11.1 66.6,11.1 C50.6,-3.8 25.6,-3 10.7,13 C-4.2,29 -3.4,54 12.6,68.9 C13.6,69.9 14.7,70.8 15.8,71.6 C31.7,84.7 55.3,82.4 68.3,66.4 C75.8,57.3 78.6,45.2 75.7,33.7 Z" id="Path"></path>
                <g transform="translate(16.000000, 31.000000)">
                    <g>
                        <path d="M6.9,9.4 C10.4,9.4 13.2,8.3 13.2,7 C13.2,7 13.3,5.8 13.2,5.5 C13.2,5.3 13.2,5.2 13.1,5 C13.5,4.8 13.8,4.4 13.8,4 C13.8,4 13.9,2.7 13.8,2.4 C13.6,0.8 10.4,7.10542736e-15 7.4,7.10542736e-15 C4.4,7.10542736e-15 1,0.9 1,2.6 C1,2.7 1.1,4.1 1.1,4.1 C1.1,4.2 1.1,4.3 1.2,4.4 C0.7,4.7 0.4,5.2 0.4,5.7 C0.4,5.8 0.5,7.2 0.5,7.2 C0.5,7.6 0.7,7.9 1,8.1 C2,8.8 3.2,9.2 4.4,9.3 C5.2,9.3 6,9.4 6.9,9.4 Z M7.5,0.6 C10.9,0.6 13.3,1.6 13.3,2.5 C13.3,3.4 10.9,4.4 7.5,4.4 C4.1,4.4 1.8,3.4 1.8,2.5 C1.8,1.6 4.1,0.6 7.5,0.6 Z M1.1,5.6 C1.2,5.3 1.3,5 1.6,4.9 C1.8,5.1 2,5.2 2.2,5.4 C3.9,6.1 5.7,6.5 7.5,6.4 C9,6.4 10.5,6.2 12,5.7 C12.2,5.6 12.4,5.5 12.5,5.5 C12.5,5.5 12.5,5.6 12.5,5.7 C12.5,6.6 10.1,7.6 6.7,7.6 C3.3,7.6 1.1,6.4 1.1,5.6 L1.1,5.6 Z" id="Shape"></path>
                        <path d="M13.9,8.1 C13.9,8 13.8,7.9 13.7,7.8 L13.5,7.7 L13.2,7.6 C13.1,7.7 13,7.9 12.9,8 C13,8 13.1,8.1 13.1,8.1 C13.3,8.2 13.4,8.4 13.4,8.6 C13.4,8.8 13.3,8.9 13.2,9 C13.1,9.1 13,9.1 13,9.2 L12.6,9.4 C12.6,9.4 12.2,9.6 12,9.6 L11.4,9.8 L10.6,10 L9.6,10.2 L8.6,10.3 L7.1,10.4 C6.4,10.4 5.8,10.3 5.1,10.2 C4.6,10.1 4.1,10 3.7,9.9 C3.2,9.8 2.7,9.6 2.2,9.4 C1.9,9.3 1.6,9.1 1.4,8.9 C1.2,8.7 1,8.5 0.9,8.2 L0.9,9 L0.9,9.8 C0.9,10.2 1.1,10.5 1.4,10.7 C2.4,11.4 3.6,11.8 4.8,11.9 C5.6,12 6.4,12.1 7.3,12.1 C8.5,12.1 9.7,12 10.8,11.7 L10.8,11.7 C11.4,11.6 12,11.3 12.6,11 L12.6,11 C12.7,10.9 12.9,10.8 13,10.7 C13.2,10.5 13.4,10.3 13.5,10.1 C13.5,10 13.6,9.9 13.6,9.8 C13.6,9.8 13.6,8.5 13.6,8.4 C13.8,8.3 13.9,8.2 13.9,8.1 Z" id="Path"></path>
                        <path d="M13.1,13.7 C12.7,14 12.2,14.2 11.7,14.3 C10.3,14.7 8.8,14.9 7.4,14.8 C6.7,14.8 6,14.7 5.2,14.6 C4.8,14.5 4.4,14.5 3.9,14.3 C3.7,14.2 3.5,14.2 3.3,14.1 C2.7,13.9 2.1,13.6 1.6,13.3 C1.4,13.2 1.2,13 1.1,12.8 L1.1,13.4 C1.1,13.6 1.1,14.2 1.1,14.2 C1.1,14.6 1.3,14.9 1.6,15.1 C2.6,15.8 3.8,16.2 5,16.3 C5.8,16.4 6.6,16.5 7.5,16.5 C8.7,16.5 9.9,16.4 11,16.1 L11,16.1 C11.6,15.9 12.2,15.7 12.8,15.4 L12.8,15.4 C13.4,15 13.7,14.6 13.7,14.2 C13.7,14.2 13.7,12.9 13.7,12.8 C13.6,13.2 13.4,13.5 13.1,13.7 Z" id="Path"></path>
                        <path d="M1.6,13 C2.6,13.7 3.8,14.1 5,14.2 C5.8,14.3 6.6,14.4 7.5,14.4 C8.7,14.4 9.9,14.3 11,14 L11,14 C11.6,13.9 12.2,13.6 12.8,13.3 L12.8,13.3 C12.9,13.2 13.1,13.1 13.2,13 C13.4,12.8 13.6,12.6 13.7,12.4 C13.7,12.3 13.8,12.2 13.8,12.1 C13.8,12.1 13.8,10.8 13.8,10.7 C13.6,11 13,11.8 10.5,12.3 C9.4,12.5 8.3,12.6 7.3,12.6 C5.6,12.6 3.8,12.3 2.2,11.6 C1.9,11.4 1.6,11.3 1.4,11 C1.3,10.9 1.1,10.7 1,10.5 C1,10.5 1,11.1 1,11.1 L1,12 C1,12.5 1.3,12.8 1.6,13 Z" id="Path"></path>
                        <path d="M13.9,17.5 C13.7,17.8 13.4,18 13.1,18.2 C12.7,18.5 12.2,18.7 11.7,18.8 C10.3,19.2 8.8,19.4 7.4,19.3 C6.7,19.3 6,19.2 5.2,19.1 C4.8,19.1 4.3,19 3.9,18.9 L3.3,18.7 C2.7,18.5 2.1,18.2 1.6,17.9 C1.4,17.8 1.3,17.6 1.1,17.4 L1.1,18 C1.1,18.2 1.1,18.8 1.1,18.8 C1.1,19.2 1.3,19.5 1.6,19.7 C2.6,20.4 3.8,20.8 5,20.9 C5.8,21 6.6,21.1 7.5,21.1 C8.7,21.1 9.9,21 11,20.7 L11,20.7 C11.6,20.6 12.2,20.3 12.8,20 L12.8,20 C13.4,19.6 13.7,19.2 13.7,18.8 C13.9,18.9 14,17.6 13.9,17.5 Z" id="Path"></path>
                        <path d="M5,18.8 C5.8,18.9 6.6,19 7.5,19 C8.7,19 9.9,18.9 11.1,18.6 L11.1,18.6 C11.7,18.4 12.3,18.2 12.9,17.9 L12.9,17.9 C13,17.8 13.2,17.7 13.3,17.6 C13.5,17.4 13.7,17.2 13.8,17 C13.8,16.9 13.9,16.8 13.9,16.7 C13.9,16.7 13.9,15.4 13.9,15.3 C13.7,15.6 13.1,16.4 10.6,16.9 C9.5,17.1 8.5,17.2 7.4,17.2 C5.7,17.2 3.9,16.9 2.3,16.2 C2,16 1.7,15.9 1.5,15.6 C1.4,15.5 1.2,15.3 1.1,15.1 C1.1,15.1 1.1,15.7 1.1,15.7 L1.1,16.6 C1.1,17 1.3,17.3 1.6,17.5 C2.5,18.3 3.7,18.7 5,18.8 Z" id="Path"></path>
                    </g>
                    <g transform="translate(16.000000, 0.000000)">
                        <path d="M7.1,9.5 C10.6,9.5 13.4,8.5 13.4,7.2 C13.4,7.2 13.5,6 13.4,5.7 C13.4,5.5 13.4,5.4 13.3,5.2 C13.7,5 14,4.6 14,4.1 C14,4.1 14,2.8 14,2.5 C13.9,0.9 10.7,1.42108547e-14 7.6,1.42108547e-14 C4.5,1.42108547e-14 1.2,0.9 1.2,2.6 C1.2,2.7 1.3,4.1 1.3,4.1 C1.3,4.2 1.3,4.3 1.4,4.4 C0.9,4.7 0.6,5.2 0.6,5.7 C0.6,5.8 0.7,7.2 0.7,7.2 C0.7,7.6 0.9,7.9 1.2,8.1 C2.2,8.8 3.4,9.2 4.6,9.4 C5.4,9.4 6.2,9.5 7.1,9.5 Z M7.7,0.7 C11.1,0.7 13.4,1.7 13.4,2.6 C13.4,3.5 11.1,4.5 7.7,4.5 C4.3,4.5 2,3.5 2,2.6 C2,1.7 4.3,0.7 7.7,0.7 Z M1.3,5.7 C1.3,5.4 1.5,5.1 1.8,5 C2,5.2 2.2,5.3 2.4,5.5 C4.1,6.2 5.9,6.6 7.7,6.5 C9.2,6.5 10.7,6.3 12.2,5.8 C12.4,5.7 12.6,5.6 12.7,5.6 C12.7,5.7 12.7,5.7 12.7,5.8 C12.7,6.7 10.4,7.7 7,7.7 C3.6,7.7 1.3,6.6 1.3,5.7 L1.3,5.7 Z" id="Shape"></path>
                        <path d="M14.1,8.2 C14.1,8.1 14,8 13.9,8 L13.7,7.9 C13.6,7.8 13.5,7.8 13.4,7.7 C13.3,7.8 13.2,8 13.1,8.1 C13.2,8.1 13.3,8.2 13.3,8.2 C13.5,8.3 13.6,8.5 13.6,8.7 C13.6,8.9 13.5,9 13.4,9.1 C13.3,9.2 13.2,9.2 13.2,9.3 L12.8,9.5 C12.8,9.5 12.4,9.7 12.2,9.7 L11.6,9.9 L11,10.1 C11,10.1 10.3,10.2 10,10.3 L9,10.4 L7.5,10.5 C6.8,10.5 6.2,10.4 5.5,10.3 C5,10.2 4.5,10.1 4.1,10 C3.6,9.9 3.1,9.7 2.6,9.5 C2.3,9.4 2,9.2 1.8,9 C1.6,8.8 1.4,8.6 1.3,8.3 L1.3,9.1 L1.3,9.9 C1.3,10.3 1.5,10.6 1.8,10.8 C2.8,11.5 4,11.9 5.2,12.1 C6,12.2 6.8,12.3 7.7,12.3 C8.9,12.3 10.1,12.2 11.3,11.9 L11.3,11.9 C11.9,11.7 12.5,11.5 13.1,11.2 L13.1,11.2 C13.2,11.1 13.4,11 13.5,10.9 C13.7,10.7 13.9,10.5 14,10.3 C14,10.2 14.1,10.1 14.1,10 C14.1,10 14.2,8.7 14.2,8.6 C14,8.4 14.1,8.3 14.1,8.2 Z" id="Path"></path>
                        <path d="M13.3,13.8 C12.9,14.1 12.4,14.3 11.9,14.4 C10.5,14.8 9,15 7.6,14.9 C6.9,14.9 6.2,14.8 5.4,14.7 C5,14.6 4.5,14.6 4.1,14.5 C3.9,14.5 3.7,14.4 3.5,14.3 C2.9,14.1 2.3,13.9 1.8,13.5 C1.6,13.4 1.5,13.2 1.3,13 L1.3,13.6 C1.3,13.8 1.3,14.4 1.3,14.4 C1.3,14.8 1.5,15.1 1.8,15.3 C2.8,16 4,16.4 5.2,16.5 C6,16.6 6.8,16.7 7.7,16.7 C8.9,16.7 10.1,16.6 11.3,16.3 L11.3,16.3 C11.9,16.2 12.5,15.9 13.1,15.6 L13.1,15.6 C13.7,15.2 14,14.8 14,14.4 C14,14.4 14,13.1 14,13 C13.8,13.3 13.6,13.6 13.3,13.8 Z" id="Path"></path>
                        <path d="M1.8,13.1 C2.8,13.8 4,14.2 5.2,14.4 C6,14.5 6.8,14.6 7.7,14.6 C8.9,14.6 10.1,14.5 11.2,14.2 L11.2,14.2 C11.8,14 12.4,13.8 13,13.5 L13,13.5 C13.1,13.4 13.3,13.3 13.4,13.2 C13.6,13 13.8,12.8 13.9,12.6 C13.9,12.5 14,12.4 14,12.3 C14,12.3 14,11 14,10.9 C13.8,11.2 13.2,12 10.7,12.5 C9.6,12.7 8.5,12.8 7.5,12.8 C5.8,12.8 4,12.5 2.4,11.8 C2.1,11.6 1.8,11.5 1.6,11.2 C1.5,11.1 1.3,10.9 1.2,10.7 C1.2,10.7 1.2,11.3 1.2,11.3 L1.2,12.2 C1.3,12.6 1.5,12.9 1.8,13.1 Z" id="Path"></path>
                        <path d="M14.1,17.6 C13.9,17.9 13.6,18.1 13.3,18.3 C12.9,18.6 12.4,18.8 11.9,19 C10.5,19.4 9,19.6 7.6,19.5 C6.9,19.5 6.2,19.4 5.4,19.3 C5,19.2 4.5,19.2 4.1,19.1 C3.9,19.1 3.7,19 3.5,18.9 C2.9,18.7 2.3,18.4 1.8,18.1 C1.6,18 1.4,17.8 1.3,17.6 L1.3,18.2 C1.3,18.4 1.3,19 1.3,19 C1.3,19.4 1.5,19.7 1.8,19.9 C2.8,20.6 4,21 5.2,21.1 C6,21.2 6.8,21.3 7.7,21.3 C8.9,21.3 10.1,21.2 11.3,20.9 L11.3,20.9 C11.9,20.7 12.5,20.5 13.1,20.2 L13.1,20.2 C13.7,19.8 14,19.4 14,19 C14.1,19 14.1,17.7 14.1,17.6 Z" id="Path"></path>
                        <path d="M5.2,18.9 C6,19 6.8,19.1 7.7,19.1 C8.9,19.1 10.1,19 11.3,18.7 L11.3,18.7 C11.9,18.6 12.5,18.3 13.1,18 L13.1,18 C13.2,17.9 13.4,17.8 13.5,17.7 C13.7,17.5 13.9,17.3 14,17.1 C14,17 14.1,16.9 14.1,16.8 C14.1,16.8 14.1,15.5 14.1,15.4 C13.9,15.7 13.3,16.5 10.8,17 C9.7,17.2 8.6,17.3 7.6,17.3 C5.9,17.3 4.1,17 2.5,16.3 C2.2,16.1 1.9,16 1.7,15.7 C1.6,15.6 1.4,15.4 1.3,15.2 C1.3,15.2 1.3,15.8 1.3,15.8 L1.3,16.7 C1.3,17.1 1.5,17.4 1.8,17.6 C2.8,18.4 4,18.8 5.2,18.9 Z" id="Path"></path>
                    </g>
                    <g transform="translate(33.000000, 0.000000)">
                        <path d="M6.3,9.4 C9.8,9.4 12.6,8.3 12.6,7 C12.6,7 12.7,5.8 12.6,5.5 C12.6,5.3 12.6,5.2 12.5,5 C12.9,4.8 13.2,4.4 13.3,3.9 C13.3,3.9 13.4,2.6 13.3,2.3 C13.2,0.8 10,0 7,0 C4,0 0.6,0.9 0.6,2.6 C0.6,2.7 0.7,4.1 0.7,4.1 C0.7,4.2 0.7,4.3 0.8,4.4 C0.3,4.7 7.10542736e-15,5.1 7.10542736e-15,5.7 C7.10542736e-15,5.8 0.1,7.2 0.1,7.2 C0.1,7.6 0.3,7.9 0.6,8.1 C1.6,8.8 2.8,9.2 4,9.3 C4.7,9.4 5.5,9.4 6.3,9.4 Z M7,0.6 C10.4,0.6 12.8,1.6 12.8,2.5 C12.8,3.4 10.4,4.4 7,4.4 C3.6,4.4 1.3,3.4 1.3,2.5 C1.3,1.6 3.6,0.6 7,0.6 Z M0.6,5.6 C0.7,5.3 0.8,5 1.1,4.9 C1.3,5.1 1.5,5.2 1.7,5.4 C3.4,6.1 5.2,6.5 7,6.4 C8.5,6.4 10,6.2 11.5,5.7 C11.7,5.6 11.9,5.5 12.1,5.5 C12.1,5.5 12.1,5.6 12.1,5.7 C12.1,6.6 9.8,7.6 6.4,7.6 C3,7.6 0.6,6.5 0.6,5.6 L0.6,5.6 Z" id="Shape"></path>
                        <path d="M13.3,8.1 C13.3,8 13.2,7.9 13.1,7.9 C13,7.8 12.9,7.8 12.9,7.7 L12.6,7.6 C12.5,7.7 12.4,7.9 12.3,8 C12.4,8 12.5,8.1 12.5,8.1 C12.7,8.2 12.8,8.4 12.8,8.6 C12.8,8.8 12.7,8.9 12.6,9 C12.5,9.1 12.4,9.1 12.4,9.2 L12,9.4 L11.4,9.6 C11.4,9.6 11,9.7 10.8,9.8 L10.3,10 L9.3,10.2 L8.3,10.3 C8.2,10.3 7.3,10.4 6.8,10.4 C6.1,10.4 5.5,10.4 4.8,10.2 C4.3,10.1 3.8,10 3.4,9.9 C2.9,9.8 2.4,9.6 1.9,9.4 C1.6,9.3 1.3,9.1 1.1,8.9 C0.9,8.7 0.7,8.5 0.6,8.2 L0.6,9 L0.6,9.8 C0.6,10.2 0.8,10.5 1.1,10.7 C2.1,11.4 3.3,11.8 4.5,12 C5.3,12.1 6.1,12.2 7,12.2 C8.2,12.2 9.4,12.1 10.6,11.8 L10.6,11.8 C11.2,11.7 11.8,11.4 12.4,11.1 L12.4,11.1 C12.5,11 12.7,10.9 12.8,10.8 C13,10.6 13.2,10.4 13.3,10.2 C13.3,10.1 13.4,10 13.4,9.9 C13.4,9.9 13.5,8.6 13.5,8.5 C13.3,8.4 13.3,8.2 13.3,8.1 Z" id="Path"></path>
                        <path d="M12.6,13.7 C12.2,14 11.7,14.2 11.2,14.3 C9.8,14.7 8.3,14.9 6.9,14.8 C6.2,14.8 5.5,14.7 4.7,14.6 C4.3,14.5 3.8,14.5 3.4,14.4 C3.2,14.4 3,14.3 2.8,14.2 C2.2,14 1.6,13.8 1.1,13.4 C0.9,13.3 0.8,13.1 0.6,12.9 L0.6,13.5 C0.6,13.7 0.6,14.3 0.6,14.3 C0.6,14.7 0.8,15 1.1,15.2 C2.1,15.9 3.3,16.3 4.5,16.5 C5.3,16.6 6.1,16.7 7,16.7 C8.2,16.7 9.4,16.6 10.6,16.3 L10.6,16.3 C11.2,16.1 11.8,15.9 12.4,15.6 L12.4,15.6 C13,15.3 13.3,14.8 13.3,14.4 C13.3,14.4 13.3,13.1 13.3,13 C13,13.3 12.8,13.5 12.6,13.7 Z" id="Path"></path>
                        <path d="M1.1,13 C2.1,13.7 3.3,14.1 4.5,14.2 C5.3,14.3 6.1,14.4 7,14.4 C8.2,14.4 9.4,14.3 10.6,14 L10.6,14 C11.2,13.9 11.8,13.6 12.4,13.3 L12.4,13.3 C12.5,13.2 12.7,13.1 12.8,13 C13,12.8 13.2,12.6 13.3,12.4 C13.3,12.3 13.4,12.2 13.4,12.1 C13.4,12.1 13.4,10.8 13.4,10.7 C13,11 12.5,11.8 10,12.3 C8.9,12.5 7.8,12.6 6.8,12.6 C5.1,12.6 3.3,12.3 1.7,11.6 C1.4,11.4 1.1,11.3 0.9,11 C0.8,10.9 0.6,10.7 0.5,10.5 C0.5,10.5 0.5,11.1 0.5,11.1 L0.5,12 C0.5,12.5 0.7,12.8 1.1,13 Z" id="Path"></path>
                        <path d="M13.4,17.5 C13.2,17.8 12.9,18 12.6,18.2 C12.2,18.5 11.7,18.7 11.2,18.8 C9.8,19.2 8.3,19.4 6.9,19.3 C6.2,19.3 5.5,19.2 4.7,19.1 C4.2,19 3.8,18.9 3.4,18.9 L2.8,18.7 C2.2,18.5 1.6,18.2 1.1,17.9 C0.9,17.8 0.7,17.6 0.6,17.4 L0.6,18 C0.6,18.2 0.6,18.8 0.6,18.8 C0.6,19.2 0.8,19.5 1.1,19.7 C2.1,20.4 3.3,20.8 4.5,20.9 C5.3,21 6.2,21.1 7,21.1 C8.2,21.1 9.4,21 10.6,20.7 L10.6,20.7 C11.2,20.6 11.8,20.3 12.4,20 L12.4,20 C13,19.6 13.3,19.2 13.3,18.8 C13.3,18.9 13.4,17.6 13.4,17.5 Z" id="Path"></path>
                        <path d="M4.5,18.8 C5.3,19 6.2,19 7,19 C8.2,19 9.4,18.9 10.6,18.6 L10.6,18.6 C11.2,18.5 11.8,18.2 12.4,17.9 L12.4,17.9 C12.5,17.8 12.7,17.7 12.8,17.6 C13,17.4 13.2,17.2 13.3,17 C13.3,16.9 13.4,16.8 13.4,16.7 C13.4,16.7 13.4,15.4 13.4,15.3 C13.2,15.6 12.6,16.4 10.1,16.9 C9,17.1 7.9,17.2 6.9,17.2 C5.2,17.2 3.4,16.9 1.8,16.2 C1.5,16.1 1.2,15.9 1,15.7 C0.9,15.6 0.7,15.4 0.6,15.2 C0.6,15.2 0.6,15.8 0.6,15.8 L0.6,16.7 C0.6,17.1 0.8,17.4 1.1,17.6 C2.1,18.3 3.2,18.7 4.5,18.8 Z" id="Path"></path>
                    </g>
                </g>
            </g>
        </g>
    </g>
</svg>