<?xml version="1.0" encoding="UTF-8"?>
<svg width="95px" height="95px" viewBox="0 0 95 95" version="1.1" xmlns="http://www.w3.org/2000/svg" xmlns:xlink="http://www.w3.org/1999/xlink">
    <!-- Generator: Sketch 53.2 (72643) - https://sketchapp.com -->
    <title>goal_9_target_9_4</title>
    <desc>Created with Sketch.</desc>
    <g id="goal_9_target_9_4" stroke="none" stroke-width="1" fill="none" fill-rule="evenodd">
        <g id="Group-68" fill-rule="nonzero">
            <rect id="Rectangle" fill="#FD6925" x="-3.62376795e-13" y="-2.13162821e-14" width="94.8" height="94.8"></rect>
            <g id="Group" transform="translate(19.700000, 8.000000)" fill="#FFFFFF">
                <path d="M45.4,58.5 C43.4,57 41,56.2 38.5,56.2 C37.9,56.2 37.4,56.2 36.8,56.4 L36.6,56.4 C35,56.8 32.2,57.4 29,61.4 L29,61.5 C28.9,61.6 28.9,61.7 28.9,61.7 C28.9,61.8 28.9,61.9 29,61.9 L29.1,62 C29.6,62.9 30.1,63.7 30.4,64.3 C30.5,64.5 30.8,64.6 31,64.5 C31,64.5 31.1,64.4 31.1,64.4 L31.2,64.3 C34,60.5 36.1,60 37.5,59.6 L37.7,59.6 C38,59.5 38.3,59.5 38.6,59.5 C40.3,59.5 42,60 43.4,61 C45,62.3 45.8,64.3 45.8,67 C45.8,71.6 43.6,73.3 41.7,74 C41,74.3 40.2,74.4 39.4,74.4 C38.2,74.4 37.1,74.1 36,73.6 L35.9,73.5 C34.3,72.8 31.9,71.4 29.7,66.8 C25,57.9 21.2,57 18.6,56.4 L18.5,56.4 C18,56.3 17.4,56.2 16.8,56.2 C14.3,56.2 12,56.9 10,58.4 C8.3,59.7 6.3,62.3 6.3,67.1 C6,72.7 10.2,77.4 15.8,77.8 C16.1,77.8 16.3,77.8 16.6,77.8 C17.4,77.8 18.2,77.7 18.9,77.6 C20.4,77.3 21.7,76.7 22.9,75.8 L24.2,77 C24.4,77.1 24.6,77.1 24.7,77 C24.8,76.9 24.8,76.8 24.8,76.7 L25.8,70.3 L25.8,70.2 C25.8,70.1 25.8,70 25.7,69.9 C25.6,69.8 25.5,69.8 25.4,69.8 L25.4,69.8 L19.1,71.5 L19,71.5 C18.9,71.5 18.9,71.6 18.8,71.6 C18.7,71.7 18.7,71.8 18.7,71.9 C18.7,72 18.8,72.1 18.8,72.2 L20.1,73.4 C19.5,73.8 18.8,74.1 18.1,74.2 C17.6,74.3 17,74.4 16.4,74.4 C14.3,74.4 12.4,73.5 11.1,71.9 L11.1,71.9 C10,70.5 9.5,68.8 9.7,67.1 C9.7,64.4 10.5,62.3 12.1,61.1 C13.5,60.1 15.1,59.6 16.8,59.6 C17.1,59.6 17.4,59.6 17.7,59.7 L17.8,59.7 C19.8,60.2 22.6,60.8 26.5,68.6 C28.5,72.7 31.1,75.4 34.4,76.8 C36,77.5 37.7,77.9 39.4,78 C40.6,78 41.8,77.8 42.9,77.4 C44.8,76.7 49.2,74.3 49.2,67.2 C49.1,62.5 47.1,59.9 45.4,58.5 Z" id="Path"></path>
                <g transform="translate(5.000000, 0.000000)" id="Path">
                    <path d="M6.7,3.6 C4.6,3.7 3,5.4 3.1,7.4 C3.2,9.5 4.9,11.1 6.9,11 C8.9,10.9 10.6,9.3 10.5,7.2 C10.5,5.2 8.8,3.6 6.7,3.6 C6.7,3.6 6.7,3.6 6.7,3.6 Z"></path>
                    <path d="M13,6.9 L11.4,6.9 C11.2,6.9 11.1,7 11.1,7.2 C11.1,7.4 11.2,7.5 11.4,7.5 L13,7.5 C13.2,7.5 13.3,7.4 13.3,7.2 C13.3,7 13.2,6.9 13,6.9 Z"></path>
                    <path d="M2.5,7.4 C2.5,7.2 2.4,7.1 2.2,7.1 L0.6,7.1 C0.4,7.1 0.3,7.2 0.3,7.4 C0.3,7.6 0.4,7.7 0.6,7.7 L2.2,7.7 C2.4,7.7 2.5,7.6 2.5,7.4 Z"></path>
                    <path d="M6.7,3 C6.9,3 7,2.9 7,2.7 L7,1.1 C7,0.9 6.9,0.8 6.7,0.8 C6.5,0.8 6.4,0.9 6.4,1.1 L6.4,2.7 C6.4,2.9 6.6,3 6.7,3 Z"></path>
                    <path d="M6.9,11.6 C6.7,11.6 6.6,11.7 6.6,11.9 L6.6,13.5 C6.6,13.7 6.8,13.8 6.9,13.8 C7.1,13.8 7.2,13.7 7.2,13.5 L7.2,11.9 C7.2,11.7 7.1,11.6 6.9,11.6 Z"></path>
                    <path d="M10.9,5.2 L12.3,4.4 C12.4,4.3 12.5,4.1 12.4,4 C12.3,3.9 12.1,3.8 12,3.9 L10.6,4.7 C10.5,4.8 10.4,5 10.5,5.1 C10.6,5.2 10.7,5.3 10.9,5.2 Z"></path>
                    <path d="M2.8,9.4 L1.4,10.2 C1.3,10.3 1.2,10.5 1.3,10.6 C1.4,10.7 1.6,10.8 1.7,10.7 L3.1,9.9 C3.2,9.8 3.3,9.6 3.2,9.5 C3.1,9.4 2.9,9.3 2.8,9.4 Z"></path>
                    <path d="M4.2,3.6 C4.3,3.7 4.5,3.8 4.6,3.7 C4.7,3.6 4.8,3.4 4.7,3.3 L3.9,1.9 C3.8,1.8 3.6,1.8 3.5,1.9 C3.4,2 3.4,2.1 3.4,2.2 L4.2,3.6 Z"></path>
                    <path d="M9.4,11.1 C9.3,11 9.1,10.9 9,11 C8.9,11.1 8.8,11.3 8.9,11.4 L9.7,12.8 C9.8,12.9 10,13 10.1,12.9 C10.2,12.8 10.3,12.6 10.2,12.5 L9.4,11.1 Z"></path>
                    <path d="M9.3,3.4 L10,2 C10.1,1.9 10,1.7 9.9,1.6 C9.8,1.5 9.6,1.6 9.5,1.7 L8.7,3.1 C8.6,3.2 8.7,3.4 8.8,3.5 C9,3.6 9.2,3.6 9.3,3.4 Z"></path>
                    <path d="M4.4,11.2 L3.6,12.6 C3.5,12.7 3.6,12.9 3.7,13 C3.8,13.1 4,13 4.1,12.9 L4.9,11.5 C5,11.4 4.9,11.2 4.8,11.1 C4.7,11 4.5,11 4.4,11.2 Z"></path>
                    <path d="M2.7,5.4 C2.8,5.5 3,5.4 3.1,5.3 C3.2,5.2 3.1,5 3,4.9 L1.6,4.1 C1.5,4 1.3,4.1 1.2,4.2 C1.1,4.3 1.2,4.5 1.3,4.6 L2.7,5.4 Z"></path>
                    <path d="M11,9.2 C10.9,9.1 10.7,9.2 10.6,9.3 C10.5,9.4 10.6,9.6 10.7,9.7 L12.1,10.5 C12.3,10.5 12.4,10.4 12.5,10.3 C12.5,10.2 12.5,10.1 12.4,10 L11,9.2 Z"></path>
                </g>
                <g transform="translate(8.000000, 13.000000)" id="Path">
                    <path d="M15.6,6.5 L16.2,2.3 L14.7,2.9 L13.8,0.5 C13.7,0.2 13.4,0.1 13.1,0.2 C12.8,0.3 12.7,0.6 12.8,0.9 C12.8,0.9 12.8,0.9 12.8,0.9 L13.7,3.3 L12.2,3.9 L15.6,6.5 Z"></path>
                    <path d="M10.2,4.6 L8.7,5.2 L7.8,2.9 C7.7,2.6 7.4,2.5 7.1,2.6 C7.1,2.6 7.1,2.6 7.1,2.6 C6.8,2.7 6.7,3 6.8,3.3 L7.7,5.6 L6.2,6.2 L9.5,8.8 L10.2,4.6 Z"></path>
                    <path d="M4.1,7.1 L2.6,7.7 L1.7,5.3 C1.6,5 1.3,4.9 1,5 C0.7,5.1 0.6,5.4 0.7,5.7 C0.7,5.7 0.7,5.7 0.7,5.7 L1.6,8.1 L0.1,8.7 L3.4,11.3 L4.1,7.1 Z"></path>
                </g>
                <g transform="translate(0.000000, 15.000000)">
                    <path d="M54.6,0.5 L53.6,0.5 L53.6,3.3 L48.2,3.3 L48.2,0.5 L47.2,0.5 L47.2,3.3 L40.5,3.3 L1.3,16.3 C1.1,16.3 0.9,16.5 0.9,16.7 L0.9,35.7 L3,35.7 L3,26.1 C3,25.9 3.2,25.7 3.4,25.7 C3.4,25.7 3.4,25.7 3.4,25.7 L10,25.7 C10.2,25.7 10.4,25.9 10.4,26.1 L10.4,35.7 L40.6,35.7 C40.8,35.7 40.9,35.6 40.9,35.4 L40.9,31.5 L47.3,31.4 L47.3,35.7 L48.3,35.7 L48.3,31.4 L53.7,31.4 L53.7,35.7 L54.7,35.7 L54.6,0.5 Z M10.3,23 C10.3,23.2 10.1,23.4 9.9,23.4 L3.3,23.4 C3.1,23.4 2.9,23.3 2.9,23.1 C2.9,23.1 2.9,23.1 2.9,23.1 L2.9,19.6 C2.9,19.4 3.1,19.2 3.3,19.2 C3.3,19.2 3.3,19.2 3.3,19.2 L10,19.2 C10.2,19.2 10.4,19.4 10.4,19.6 L10.3,23 Z M19.8,29.6 C19.8,29.8 19.6,30 19.4,30 L12.9,30 C12.7,30 12.5,29.8 12.5,29.6 L12.5,29.6 L12.5,26.1 C12.5,25.9 12.7,25.7 12.9,25.7 L12.9,25.7 L19.4,25.7 C19.6,25.7 19.8,25.9 19.8,26.1 L19.8,29.6 Z M19.8,23 C19.8,23.2 19.6,23.4 19.4,23.4 L12.9,23.4 C12.7,23.4 12.5,23.2 12.5,23 L12.5,23 L12.5,19.5 C12.5,19.3 12.7,19.1 12.9,19.1 L12.9,19.1 L19.4,19.1 C19.6,19.1 19.8,19.3 19.8,19.5 L19.8,23 Z M29.2,29.6 C29.2,29.8 29,30 28.8,30 L22.3,30 C22.1,30 21.9,29.8 21.9,29.6 L21.9,29.6 L21.9,26.1 C21.9,25.9 22.1,25.7 22.3,25.7 L22.3,25.7 L28.8,25.7 C29,25.7 29.2,25.9 29.2,26.1 L29.2,29.6 Z M29.2,23 C29.2,23.2 29,23.4 28.8,23.4 L22.3,23.4 C22.1,23.4 22,23.2 22,23 L22,19.5 C22,19.3 22.2,19.1 22.4,19.1 L22.4,19.1 L28.9,19.1 C29.1,19.1 29.3,19.3 29.3,19.5 L29.2,23 Z M38.7,29.6 C38.7,29.8 38.5,30 38.3,30 L31.8,30 C31.6,30 31.4,29.8 31.4,29.6 L31.4,29.6 L31.4,26.1 C31.4,25.9 31.6,25.7 31.8,25.7 L31.8,25.7 L38.3,25.7 C38.5,25.7 38.7,25.9 38.7,26.1 L38.7,29.6 Z M38.7,23 C38.7,23.2 38.5,23.4 38.3,23.4 L31.8,23.4 C31.6,23.4 31.4,23.2 31.4,23 L31.4,23 L31.4,19.5 C31.4,19.3 31.6,19.1 31.8,19.1 L31.8,19.1 L38.3,19.1 C38.5,19.1 38.7,19.3 38.7,19.5 L38.7,23 Z M47.2,5.2 L47.2,15.7 L44.8,10.5 L47.2,5.2 Z M41.9,16.9 L44.3,11.6 L46.7,16.9 L41.9,16.9 Z M46.6,17.9 L44.3,23 L42,17.9 L46.6,17.9 Z M46.6,4.3 L44.3,9.4 L42,4.3 L46.6,4.3 Z M40.9,4.2 L43.8,10.5 L40.9,16.9 L40.9,4.2 Z M40.9,17.9 L40.9,17.9 L43.8,24.1 L40.9,30.5 L40.9,17.9 Z M41.9,30.6 L44.3,25.3 L46.7,30.6 L41.9,30.6 Z M44.8,24.1 L47.2,18.8 L47.2,29.3 L44.8,24.1 Z M53.6,5.8 L53.6,15.2 L51.4,10.5 L53.6,5.8 Z M48.6,16.9 L51,11.6 L53.4,16.8 L48.6,16.9 Z M53.3,17.9 L51,23 L48.7,17.9 L53.3,17.9 Z M53.3,4.3 L51,9.3 L48.7,4.2 L53.3,4.3 Z M48.2,5.6 L50.5,10.6 L48.2,15.6 L48.2,5.6 Z M48.2,29.1 L48.2,19.2 L50.5,24.1 L48.2,29.1 Z M48.5,30.6 L51,25.2 L53.4,30.5 L48.5,30.6 Z M51.4,24.1 L53.6,19.4 L53.6,28.8 L51.4,24.1 Z" id="Shape"></path>
                    <path d="M1.1,14.4 L39.6,1.6 C39.8,1.5 39.9,1.6 40,1.8 L40.2,2.3 C40.3,2.5 40.2,2.6 40,2.7 L1.5,15.5 C1.3,15.6 1.2,15.5 1.1,15.3 L0.9,14.8 C0.9,14.6 1,14.5 1.1,14.4 Z" id="Path"></path>
                </g>
            </g>
        </g>
    </g>
</svg>