<?xml version="1.0" encoding="UTF-8"?>
<svg width="95px" height="95px" viewBox="0 0 95 95" version="1.1" xmlns="http://www.w3.org/2000/svg" xmlns:xlink="http://www.w3.org/1999/xlink">
    <!-- Generator: Sketch 53.2 (72643) - https://sketchapp.com -->
    <title>goal_16_target_16_7</title>
    <desc>Created with Sketch.</desc>
    <g id="goal_16_target_16_7" stroke="none" stroke-width="1" fill="none" fill-rule="evenodd">
        <g id="Group-137" fill-rule="nonzero">
            <rect id="Rectangle" fill="#00689D" x="1.45661261e-12" y="-2.13162821e-14" width="94.8" height="94.8"></rect>
            <g id="Group" transform="translate(4.700000, 28.000000)" fill="#FFFFFF">
                <path d="M77.8,10.2 C79.4,10.2 80.7,8.9 80.7,7.4 C80.7,5.9 79.4,4.5 77.9,4.5 C76.3,4.5 75,5.8 75,7.3 C75,7.3 75,7.3 75,7.3 C75,8.9 76.3,10.2 77.8,10.2 Z" id="Path"></path>
                <path d="M81.2,11.5 L81,11.5 L74.7,11.5 L74.5,11.5 C72.5,11.7 71,13.3 71,15.3 L71,23.3 C70.9,23.9 71.4,24.5 72,24.5 C72.6,24.5 73.2,24.1 73.2,23.5 C73.2,23.4 73.2,23.4 73.2,23.3 L73.2,16.4 C73.2,16.2 73.3,15.8 73.7,15.8 C74.1,15.8 74.1,16.1 74.1,16.4 L74.1,37 C74.1,37.9 74.8,38.6 75.7,38.6 C76.6,38.6 77.3,37.9 77.3,37 C77.3,37 77.3,37 77.3,37 L77.3,25.1 C77.3,24.9 77.5,24.6 77.7,24.6 C77.7,24.6 77.7,24.6 77.8,24.6 L77.8,24.6 C78,24.6 78.2,24.8 78.3,25 C78.3,25 78.3,25 78.3,25.1 L78.3,37 C78.2,37.9 78.9,38.7 79.8,38.7 C80.7,38.8 81.5,38.1 81.5,37.2 C81.5,37.1 81.5,37 81.5,36.9 L81.5,16.4 C81.5,16.2 81.6,15.8 81.9,15.8 C82.4,15.8 82.5,16.1 82.5,16.4 L82.5,23.2 C82.4,23.8 82.9,24.4 83.5,24.4 C84.1,24.4 84.7,24 84.7,23.4 C84.7,23.3 84.7,23.3 84.7,23.2 L84.7,15.2 C84.7,13.3 83.2,11.7 81.2,11.5 Z" id="Path"></path>
                <path d="M61.4,11.5 C62.9,11.5 64.1,10.3 64.1,8.8 C64.1,7.3 62.9,6.1 61.4,6.1 C59.9,6.1 58.7,7.3 58.7,8.8 C58.7,8.8 58.7,8.8 58.7,8.8 C58.6,10.3 59.9,11.5 61.4,11.5 C61.4,11.5 61.4,11.5 61.4,11.5 Z" id="Path"></path>
                <path d="M66.9,15.2 C66.9,15.2 66.1,13.1 64.3,13.1 L58.5,13.1 C56.7,13.1 55.9,15.2 55.9,15.2 L53.6,22.6 C53.6,22.6 53.2,23.9 54.4,24.3 C55.6,24.7 55.9,23.3 55.9,23.3 L57.7,17.1 C57.7,17.1 57.8,16.6 58.2,16.7 C58.6,16.8 58.4,17.3 58.4,17.3 L55.2,28.8 L58.2,28.8 L58.2,37.1 C58.1,37.9 58.7,38.6 59.5,38.6 C60.3,38.7 61,38.1 61,37.3 C61,37.2 61,37.1 61,37.1 L61,28.8 L61.8,28.8 L61.8,37.1 C61.8,37.9 62.4,38.5 63.2,38.5 C64,38.5 64.6,37.9 64.6,37.1 C64.6,37.1 64.6,37.1 64.6,37.1 L64.6,28.8 L67.6,28.8 L64.3,17.3 C64.3,17.3 64.2,16.8 64.5,16.7 C64.8,16.6 65,17.1 65,17.1 L66.8,23.3 C66.8,23.3 67.1,24.6 68.3,24.3 C69.5,24 69,22.6 69,22.6 L66.9,15.2 Z" id="Path"></path>
                <path d="M9.4,11.7 C10.9,11.7 12.2,10.5 12.2,8.9 C12.2,7.3 11,6.1 9.4,6.1 C7.8,6.1 6.6,7.3 6.6,8.9 L6.6,8.9 C6.6,10.5 7.8,11.7 9.4,11.7 Z" id="Path"></path>
                <path d="M12.6,12.7 L12.4,12.7 L6.4,12.7 L6.2,12.7 C4.3,12.9 2.9,14.5 2.9,16.4 L2.9,24 C2.9,24.3 3.1,24.6 3.3,24.8 L0.8,37.7 C0.8,37.9 0.9,38.1 1.1,38.2 C1.1,38.2 1.1,38.2 1.1,38.2 L1.2,38.2 C1.4,38.2 1.6,38.1 1.6,37.9 L4,25 C4.6,25 5,24.5 5,23.9 L5,17.4 C5,17.2 5.1,16.8 5.5,16.8 C5.9,16.8 5.9,17.1 5.9,17.3 L5.9,37 C5.9,37.8 6.6,38.5 7.4,38.5 C8.2,38.5 9,37.8 9,37 L9,37 L9,25.7 C9,25.5 9.2,25.3 9.4,25.3 C9.4,25.3 9.4,25.3 9.5,25.3 L9.5,25.3 C9.7,25.3 9.9,25.5 9.9,25.7 C9.9,25.7 9.9,25.7 9.9,25.8 L9.9,37 C10,37.8 10.7,38.5 11.6,38.4 C12.4,38.3 13,37.7 13,37 L13,17.4 C13,17.2 13.1,16.9 13.4,16.9 C13.7,16.9 13.9,17.2 13.9,17.5 L13.9,24 C13.8,24.6 14.3,25.1 14.9,25.2 C15.5,25.3 16,24.8 16.1,24.2 C16.1,24.1 16.1,24.1 16.1,24 L16.1,16.4 C15.9,14.5 14.5,12.9 12.6,12.7 Z" id="Path"></path>
                <path d="M27,23.3 C26.6,23.1 26.1,23.2 25.9,23.7 C25.9,23.7 25.9,23.7 25.9,23.7 C25.5,24.4 25,25.1 24.5,25.8 C24.3,26 24.1,26.1 23.8,26.1 L21.2,26.1 C20.9,26.1 20.7,26 20.5,25.8 C20.2,25.5 19.1,23.6 19.1,23.6 C19,23.4 18.7,23.2 18.4,23.2 C18,23.2 17.6,23.6 17.6,24 L17.6,24 C17.6,24.1 17.6,24.2 17.7,24.3 L19.9,28.3 C20,28.5 20,28.6 20,28.8 L20,29.4 L20,29.4 C20,29.6 20,29.9 19.9,30.1 L18.8,34.3 L20,34.3 L20,37.4 L20,37.4 C19.9,38 20.4,38.5 21,38.6 C21.6,38.7 22.1,38.2 22.2,37.6 C22.2,37.5 22.2,37.5 22.2,37.4 L22.2,34.4 C22.2,34.4 22.2,34.3 22.2,34.3 L22.8,34.3 C22.8,34.3 22.8,34.4 22.8,34.4 L22.8,37.4 C22.7,38 23.2,38.5 23.8,38.6 C24.4,38.7 24.9,38.2 25,37.6 C25,37.5 25,37.5 25,37.4 L25,34.3 L26.2,34.3 L25.1,30.1 C25,30 25,29.8 25,29.6 L25,29.4 L25,29.4 L25,28.8 C25,28.6 25.1,28.4 25.1,28.3 L27.1,24.6 L27.3,24.2 C27.5,23.9 27.4,23.5 27,23.3 C27,23.3 27,23.3 27,23.3 Z" id="Path"></path>
                <path d="M22.5,24.7 C23.7,24.7 24.7,23.7 24.7,22.5 C24.7,21.3 23.7,20.3 22.5,20.3 C21.3,20.3 20.3,21.3 20.3,22.5 C20.3,22.5 20.3,22.5 20.3,22.5 C20.3,23.7 21.3,24.7 22.5,24.7 Z" id="Path"></path>
                <g transform="translate(33.000000, 0.000000)" id="Path">
                    <path d="M7.9,7 C9.7,7 11.2,5.5 11.2,3.7 C11.2,1.9 9.7,0.4 7.9,0.4 C6.1,0.4 4.6,1.9 4.6,3.7 C4.6,3.7 4.6,3.7 4.6,3.7 C4.5,5.5 6,7 7.9,7 C7.9,7 7.9,7 7.9,7 Z"></path>
                    <path d="M11.8,8.3 L11.5,8.3 L4.2,8.3 L4,8.3 C2,8.5 0.3,10 0,12.1 L15.8,12.1 C15.4,10 13.8,8.5 11.8,8.3 Z"></path>
                </g>
                <path d="M49.3,13.6 L29.9,13.6 L29.9,15.6 L31.5,15.6 L31.5,38.5 L50.5,38.5 L50.5,15.6 L52,15.6 L52,13.6 L49.3,13.6 Z M46.9,19.1 L35.2,19.1 L35.2,17 L46.8,17 L46.8,19.1 L46.9,19.1 Z" id="Shape"></path>
            </g>
        </g>
    </g>
</svg>