<?xml version="1.0" encoding="UTF-8"?>
<svg width="95px" height="95px" viewBox="0 0 95 95" version="1.1" xmlns="http://www.w3.org/2000/svg" xmlns:xlink="http://www.w3.org/1999/xlink">
    <!-- Generator: Sketch 53.2 (72643) - https://sketchapp.com -->
    <title>goal_12_target_12_6</title>
    <desc>Created with Sketch.</desc>
    <g id="goal_12_target_12_6" stroke="none" stroke-width="1" fill="none" fill-rule="evenodd">
        <g id="Group-98">
            <rect id="Rectangle" fill="#BF8B2E" fill-rule="nonzero" x="-3.62376795e-13" y="-2.13162821e-14" width="94.8" height="94.8"></rect>
            <g id="Group" transform="translate(23.700000, 21.000000)">
                <g transform="translate(47.000000, 5.000000)" fill="#FFFFFF" fill-rule="nonzero" id="Path">
                    <path d="M3.1,0.9 C1.9,0.9 0.9,1.8 0.9,3 C0.9,3 0.9,3 0.9,3.1 L0.9,5.4 L5.3,5.4 L5.3,3 C5.2,1.8 4.3,0.9 3.1,0.9 C3.1,0.9 3.1,0.9 3.1,0.9 Z"></path>
                    <polygon points="4.1 6.9 3.5 6.9 2.4 6.9 1.9 6.9 1.4 6.9 0.8 6.9 0.6 36.5 1.2 36.5 0.6 36.5 2.8 43.9 5 36.6 5.2 6.9 4.7 6.9"></polygon>
                </g>
                <g>
                    <path d="M35,38.7 L11.2,38.7 C11.1,38.7 11,38.8 11,38.9 L11,42.7 C11,42.8 11.1,42.9 11.3,42.9 L35,42.9 C35.2,42.9 35.3,42.8 35.3,42.7 L35.3,38.9 C35.3,38.8 35.2,38.7 35,38.7 Z" id="Path"></path>
                    <path d="M11.2,36.1 L35,36.1 C35.2,36.1 35.3,36 35.3,35.9 L35.3,32.1 C35.3,32 35.2,31.9 35,31.9 L11.2,31.9 C11.1,31.9 10.9,32 10.9,32.1 L10.9,35.9 C10.9,36 11,36.1 11.2,36.1 Z" id="Path"></path>
                    <polygon id="Path" fill="#FFFFFF" fill-rule="nonzero" points="3.1 51.9 3.1 6.4 0.5 6.4 0.6 54.8 35.3 54.8 35.3 51.9"></polygon>
                    <path d="M40.4,0.5 L5.7,0.5 L5.7,6.4 L5.7,48.9 L35.2,48.9 L40.4,48.9 L40.4,0.5 Z M10.9,32.1 C10.9,32 11,31.9 11.2,31.9 L35,31.9 C35.2,31.9 35.3,32 35.3,32.1 L35.3,35.9 C35.3,36 35.2,36.1 35,36.1 L11.2,36.1 C11.1,36.1 10.9,36 10.9,35.9 L10.9,32.1 Z M35,42.8 L11.2,42.8 C11,42.8 10.9,42.7 10.9,42.6 L10.9,38.8 C10.9,38.7 11,38.6 11.1,38.6 L35,38.6 C35.2,38.6 35.3,38.7 35.3,38.8 L35.3,42.6 C35.3,42.8 35.2,42.8 35,42.8 Z M31.8,23.2 C31.2,23.4 30.5,23.6 29.8,23.6 C28.8,23.6 27.8,23.4 27,22.9 C25,21.9 23.4,20.3 22.5,18.2 C20.3,13.9 18.8,13.5 17.7,13.2 L17.6,13.2 C17.4,13.2 17.3,13.2 17.1,13.2 C16.2,13.2 15.3,13.5 14.5,14 C13.6,14.8 13.1,16.1 13.2,17.3 C13.1,18.2 13.4,19.2 14,19.9 L14,19.9 C14.7,20.8 15.8,21.2 16.9,21.2 C17.2,21.2 17.5,21.2 17.8,21.1 C18.2,21 18.5,20.9 18.8,20.7 L18.2,20.1 C18.1,20 18.1,20 18.1,19.9 C18.1,19.8 18.1,19.7 18.2,19.7 C18.2,19.6 18.3,19.6 18.4,19.6 L18.5,19.6 L22,18.6 C22.1,18.6 22.2,18.6 22.2,18.7 C22.3,18.8 22.3,18.8 22.3,18.9 L22.3,18.9 L21.7,22.5 C21.7,22.6 21.7,22.7 21.6,22.7 C21.5,22.8 21.2,22.8 21.1,22.7 L20.4,22.1 C19.7,22.6 19,22.9 18.2,23.1 C17.8,23.2 17.3,23.2 16.9,23.2 C13.7,23.3 11,20.7 11,17.5 C11,17.4 11,17.3 11,17.1 C10.9,15.2 11.7,13.3 13.1,12.1 C14.2,11.2 15.6,10.8 17,10.8 C17.3,10.8 17.7,10.8 18,10.9 L18.1,10.9 C19.6,11.2 21.8,11.7 24.4,17 C25.6,19.5 27,20.3 27.9,20.7 L28,20.7 C28.6,21 29.2,21.1 29.9,21.1 C30.3,21.1 30.7,21.1 31.1,20.9 C32.1,20.5 33.3,19.6 33.3,17.1 C33.4,15.9 32.9,14.6 32,13.8 C31.2,13.3 30.3,13 29.4,13 C29.2,13 29.1,13 28.9,13 L28.8,13 C28,13.2 26.8,13.5 25.3,15.6 L25.3,15.6 L25.3,15.6 C25.2,15.7 24.9,15.8 24.8,15.6 C24.8,15.6 24.8,15.5 24.7,15.5 C24.5,15.1 24.3,14.7 24,14.2 L24,14.1 C24,14 24,14 24,13.9 C24,13.8 24,13.8 24.1,13.7 L24.2,13.6 C25.2,12.1 26.8,11.1 28.5,10.7 L28.6,10.7 C28.9,10.6 29.3,10.6 29.6,10.6 C31,10.6 32.4,11 33.6,11.9 C35.1,13.1 35.9,15 35.7,16.9 C35.4,21.4 32.9,22.8 31.8,23.2 Z" id="Shape" fill="#FFFFFF" fill-rule="nonzero"></path>
                </g>
            </g>
        </g>
    </g>
</svg>