<?xml version="1.0" encoding="UTF-8"?>
<svg width="95px" height="95px" viewBox="0 0 95 95" version="1.1" xmlns="http://www.w3.org/2000/svg" xmlns:xlink="http://www.w3.org/1999/xlink">
    <!-- Generator: Sketch 53.2 (72643) - https://sketchapp.com -->
    <title>goal_17_target_17_7</title>
    <desc>Created with Sketch.</desc>
    <g id="goal_17_target_17_7" stroke="none" stroke-width="1" fill="none" fill-rule="evenodd">
        <g id="Group-149" fill-rule="nonzero">
            <rect id="Rectangle" fill="#19486A" x="1.45661261e-12" y="7.10542736e-15" width="94.8" height="94.8"></rect>
            <g id="Group" transform="translate(11.700000, 14.000000)" fill="#FFFFFF">
                <path d="M70.5,20.4 L68.8,19.6 C68.2,19.4 67.9,18.8 67.9,18.2 C67.9,17.9 67.9,17.6 67.9,17.2 L67.9,16.2 C67.9,15.6 68.2,15 68.8,14.8 L70.4,14 C71,13.8 71.4,13.1 71.2,12.5 C71.2,12.4 71.2,12.4 71.1,12.3 C70.7,11 70.2,9.8 69.5,8.6 C69.3,8 68.6,7.7 68,8 C68,8 68,8 68,8 L66.2,8.6 C65.6,8.8 64.9,8.7 64.5,8.2 C64.3,8 64.1,7.7 63.8,7.5 C63.5,7.3 63.3,7 63.1,6.8 C62.6,6.4 62.4,5.6 62.7,5 C62.9,4.4 63.1,3.8 63.3,3.2 C63.5,2.7 63.3,2 62.8,1.8 C62.8,1.8 62.7,1.8 62.7,1.7 L58.9,0.2 C58.4,-0.1 57.7,0.2 57.5,0.7 C57.5,0.7 57.5,0.7 57.5,0.8 C57.2,1.4 56.9,2.1 56.6,2.7 C56.4,3.2 55.9,3.5 55.4,3.5 C54.8,3.5 54.3,3.5 53.7,3.5 L53.2,3.5 C52.6,3.5 52,3.2 51.8,2.6 C51.5,2 51.2,1.4 50.9,0.8 C50.7,0.3 50.1,5.44009282e-15 49.5,0.2 C48.1,0.6 46.8,1.1 45.5,1.9 C45,2.2 44.7,2.8 45,3.4 C45,3.4 45,3.4 45,3.4 C45.2,4 45.4,4.6 45.6,5.1 C45.9,5.7 45.7,6.5 45.2,6.9 C45,7.1 44.7,7.3 44.5,7.6 L43.8,8.3 C43.4,8.8 42.7,9 42.1,8.7 L40.3,8.1 C39.8,7.9 39.1,8.1 38.9,8.6 C38.9,8.6 38.9,8.7 38.9,8.7 L37.4,12.4 C37,13 37.2,13.7 37.7,14 C37.8,14 37.8,14.1 37.9,14.1 L39.7,14.9 C40.2,15.1 40.5,15.6 40.5,16.2 C40.5,16.6 40.5,16.9 40.5,17.3 C40.5,17.7 40.5,18 40.5,18.4 C40.5,19 40.2,19.6 39.6,19.8 L38,20.7 C37.4,20.9 37.1,21.6 37.3,22.2 C37.3,22.2 37.3,22.3 37.3,22.3 C37.7,23.6 38.2,24.9 38.9,26.1 C39.2,26.7 39.8,26.9 40.4,26.7 C40.4,26.7 40.4,26.7 40.4,26.7 C41,26.5 41.6,26.3 42.3,26 C42.9,25.8 43.5,25.9 43.9,26.4 L45.4,27.8 C45.9,28.2 46,28.9 45.8,29.5 C45.6,30.1 45.4,30.7 45.1,31.4 C44.9,31.9 45.1,32.6 45.6,32.8 C45.6,32.8 45.7,32.8 45.7,32.8 C46.9,33.3 48.2,33.8 49.5,34.3 C50,34.6 50.7,34.3 51,33.8 C51,33.8 51,33.7 51,33.7 C51.3,33.1 51.6,32.5 51.8,31.9 C52,31.4 52.5,31.1 53.1,31.1 C53.6,31.1 54.2,31.1 54.7,31.1 L55.3,31.1 C55.9,31.1 56.5,31.4 56.7,32 C57,32.6 57.3,33.2 57.6,33.8 C57.8,34.4 58.4,34.6 59,34.5 C60.4,34.1 61.8,33.6 63,32.8 C63.4,32.6 63.6,32.2 63.6,31.7 C63.6,31.6 63.6,31.4 63.5,31.3 C63.3,30.7 63.1,30.1 62.9,29.6 C62.6,29 62.8,28.3 63.3,27.8 C63.8,27.4 64.2,26.9 64.6,26.4 C65,25.9 65.7,25.8 66.3,26 L68.1,26.6 C68.6,26.9 69.3,26.6 69.5,26.1 C69.5,26.1 69.5,26 69.6,26 C70.1,24.8 70.6,23.5 71.1,22.3 C71.4,21.8 71.3,21.1 70.8,20.8 C70.7,20.5 70.6,20.5 70.5,20.4 Z M54.2,25.4 C49.7,25.4 46.1,21.8 46.1,17.3 C46.1,12.8 49.7,9.2 54.2,9.2 C58.7,9.2 62.3,12.8 62.3,17.3 C62.3,17.3 62.3,17.3 62.3,17.3 C62.3,21.8 58.7,25.4 54.2,25.4 L54.2,25.4 Z" id="Shape"></path>
                <g transform="translate(0.000000, 21.000000)">
                    <path d="M46.6,20.4 C46.5,19.8 46,19.4 45.4,19.4 C44.8,19.4 44.3,19.4 43.7,19.3 C43.1,19.2 42.5,19.1 42.3,18.5 C42,17.4 41.7,16.3 41.2,15.2 C40.9,14.6 41.1,13.9 41.6,13.5 C42.1,13.1 42.5,12.7 43,12.3 C43.4,11.9 43.6,11.3 43.3,10.8 C42.6,9.5 41.7,8.4 40.7,7.3 C40.3,6.8 39.6,6.8 39.1,7.1 C39.1,7.1 39.1,7.1 39.1,7.1 C38.6,7.4 38.2,7.7 37.7,8.1 C37.2,8.5 36.6,8.7 36.1,8.2 C35.1,7.5 34,6.6 33.3,6.2 C32.7,5.9 32.5,5.2 32.7,4.6 C32.9,3.9 33,3.4 33.1,2.8 C33.3,2.2 33,1.7 32.5,1.4 C31.2,0.8 29.8,0.4 28.3,0.1 C27.7,7.5078832e-15 27.1,0.3 26.9,0.9 C26.7,1.5 26.5,1.9 26.3,2.5 C26.1,3.1 25.8,3.6 25.1,3.6 C23.7,3.6 22.6,3.6 21.7,3.6 C21.1,3.7 20.5,3.3 20.2,2.7 C20,2.1 19.7,1.6 19.5,1 C19.3,0.5 18.7,0.2 18.2,0.3 C16.8,0.6 15.4,1 14.1,1.7 C13.5,1.9 13.2,2.6 13.5,3.2 C13.7,3.8 13.8,4.2 14,4.8 C14.2,5.4 14.2,6 13.6,6.4 C13,6.8 11.6,7.8 10.8,8.4 C10.3,8.8 9.6,8.9 9.1,8.5 C8.5,8.1 8.1,7.9 7.5,7.5 C7,7.2 6.4,7.3 6,7.7 C5,8.8 4.2,10 3.5,11.3 C3.2,11.8 3.3,12.5 3.8,12.8 C3.8,12.8 3.8,12.8 3.8,12.8 C4.3,13.2 4.7,13.5 5.1,13.8 C5.5,14.1 6,14.7 5.7,15.3 C5.4,15.9 4.9,17.9 4.7,18.6 C4.6,19.2 4,19.7 3.4,19.7 C2.7,19.7 2.2,19.8 1.5,19.9 C0.9,19.9 0.5,20.3 0.4,20.9 C0.2,22.4 0.3,23.8 0.5,25.3 C0.6,25.9 1.1,26.3 1.7,26.3 C2.3,26.3 2.8,26.3 3.4,26.4 C4,26.5 4.6,26.6 4.8,27.2 C5.1,28.3 5.5,29.4 5.9,30.5 C6.2,31.1 6,31.8 5.5,32.2 C5,32.6 4.6,33 4.1,33.4 C3.5,33.7 3.4,34.4 3.7,35 C3.7,35 3.7,35.1 3.8,35.1 C4.5,36.4 5.4,37.6 6.4,38.6 C6.8,39.1 7.5,39.1 8,38.8 C8.5,38.5 8.9,38.2 9.4,37.8 C9.9,37.4 10.5,37.2 11,37.7 C11.5,38.2 13.1,39.3 13.8,39.7 C14.4,40 14.6,40.7 14.4,41.3 C14.2,42 14.1,42.5 14,43.1 C13.8,43.7 14.1,44.2 14.6,44.5 C15.9,45.1 17.3,45.5 18.8,45.8 C19.4,45.9 20,45.6 20.2,45 C20.4,44.4 20.6,44 20.8,43.4 C21,42.8 21.3,42.3 22,42.3 C23.3,42.3 24.3,42.3 25.5,42.3 C26.1,42.2 26.7,42.6 27,43.2 C27.2,43.8 27.5,44.3 27.7,44.9 C27.9,45.4 28.5,45.7 29,45.6 C30.4,45.3 31.8,44.8 33.1,44.1 C33.7,43.9 34,43.2 33.7,42.6 C33.5,42 33.4,41.6 33.2,41 C33,40.4 33,39.8 33.6,39.4 C34.2,39 35.8,37.8 36.4,37.4 C36.9,37 37.6,36.9 38.1,37.3 C38.7,37.7 39.1,37.9 39.7,38.3 C40.2,38.6 40.8,38.5 41.2,38.1 C42.2,37 43,35.8 43.7,34.5 C44,34 43.9,33.3 43.4,32.9 C42.9,32.5 42.5,32.2 42.1,31.9 C41.7,31.6 41,31 41.3,30.4 C41.6,29.8 42.1,27.9 42.3,27.1 C42.4,26.5 43,26 43.6,26 C44.3,26 44.8,25.9 45.5,25.8 C46.1,25.8 46.5,25.4 46.6,24.8 C46.8,23.4 46.8,21.8 46.6,20.4 Z M23.6,37.4 C15.7,37.4 9.3,30.9 9.3,23 C9.3,15.1 15.8,8.7 23.7,8.7 C31.6,8.7 38,15.2 37.9,23.1 C37.9,23.1 37.9,23.1 37.9,23.1 C37.9,31 31.5,37.4 23.6,37.4 L23.6,37.4 Z" id="Shape"></path>
                    <path d="M13,19 C13.3,19.2 13.6,19 13.7,18.8 C13.8,18.6 13.8,18.4 13.7,18.3 C13.6,18.1 13.9,18 14,18 C14.3,17.8 14.7,17.6 15,17.4 C15.6,17.2 16.3,17.2 16.9,17.4 C17.3,17.6 17.9,17.5 18.2,17.2 C18.5,16.9 18.8,16.6 19.1,16.4 C19.3,16.3 18.6,15.7 18.1,16.4 C17.6,17.1 17.3,17.1 17.1,17.1 C16.9,17.1 15.4,16.7 15.2,16.3 C15,15.9 15.7,15.5 16.2,15.2 C17,15 17.8,14.9 18.6,14.9 C19.4,14.7 20.3,14.3 20.8,14.7 C21.3,15.1 18.7,15.6 19.6,16.1 C19.9,16.3 21.2,15.3 21.7,15.1 C22.8,14.5 20.7,14.3 20.9,13.2 C21.1,12.1 18.4,12.4 16.9,12.5 C16.2,12.9 15.5,13.4 14.9,14 C15.1,14 15.3,14.1 15.3,14.2 C15.3,14.5 15.2,14.8 15.1,15 C14.7,15.4 14.3,15.6 13.7,15.6 C13.6,15.6 13.5,15.5 13.5,15.5 C13.3,15.8 13.1,16.1 12.9,16.4 C13.2,16.2 13.5,16.1 13.8,16.1 C14.1,16.1 14.5,16.2 14.6,16.4 C14.7,16.6 13.8,17 13.7,17.1 C13.3,17.5 12.6,18.3 12.2,18.4 C12.1,18.4 12,18.4 11.9,18.4 C11.8,18.7 11.7,19 11.6,19.2 C12,18.9 12.5,18.9 13,19 Z" id="Path"></path>
                    <path d="M33.8,22.4 C33.4,22.7 32.9,22.9 32.5,22.9 C32,23.3 31.8,23.8 31.8,24.4 C31.9,24.9 33,26.2 32.2,26.1 C31.4,25.7 30.7,25.1 30.2,24.4 C29.9,23.7 29.7,23 29.4,22.5 C29.3,22.1 28.9,21.9 28.5,22 C28.4,22 28.3,22.1 28.3,22.1 C27.8,22.4 28.4,22.7 28.1,23.4 C27.8,24.1 27.5,24.6 27.1,24.1 C25.9,22.7 24.1,23.4 23.8,21.8 C23.7,21 22.9,21 22.3,20.6 C21.7,20.2 21.3,19.9 21.2,20.2 C21.1,20.5 23.1,22.1 23.3,22.5 C23.5,23.1 22.7,23.7 22.1,23.8 C21.5,23.9 21.2,23.5 20.6,22.9 C20,22.3 19.8,21.8 19.7,22.3 C19.7,23.1 20.2,23.9 20.9,24.4 C21.4,24.7 22,24.9 21.8,25.4 C21.6,25.9 21.8,25.6 21.2,26.2 C20.7,26.5 20.4,27.1 20.5,27.7 C20.5,28.5 20.3,28.5 20.2,29.2 C20.1,29.9 19.8,29.3 19.5,30.2 C19.4,30.8 19.1,31.4 18.7,31.8 C18.2,32.2 17.6,32.4 17,32.5 C16.4,32.5 16.4,30.9 16.4,30.1 C16.4,29.8 16,30.6 15.8,29 C15.7,27.9 15,29.1 14.9,28.4 C14.8,27.7 14.5,27.8 14.2,27.4 C13.9,27 13.4,27.4 12.9,27.7 C12.4,28 12.6,28 11.9,27.8 L11.9,27.8 C13.4,31.3 16.3,33.9 20,35 C19.8,34.9 19.8,34.6 19.8,34.4 C20.3,33.5 21.2,33 22.3,33 C24.3,32.8 27,34.3 27.5,34.1 C28,33.9 28.8,32.7 30.1,32.8 C30.5,32.8 30.9,32.9 31.2,33.1 C31.6,32.8 32.1,32.4 32.5,32 C32.4,32 32.2,31.9 32.1,31.9 C31.4,31.5 31.5,32.1 31.1,32 C30.7,31.9 31.5,31.1 30.5,31.8 C29.5,32.5 29.8,31.7 29.3,30.6 C29,29.5 29.6,28.4 30.6,27.9 C31.4,27.6 32.1,27.4 32.9,27.3 C34.4,26.9 34.7,26 35,26.6 C35,26.7 35.1,26.8 35.2,26.9 C35.3,27.1 35.4,27.4 35.4,27.7 C35.6,27.1 35.8,26.4 36,25.8 C35.6,25.6 34.3,23.7 35.4,22.5 C35.6,22.3 35,21.7 35.2,21.6 C35.7,21.6 36.1,21.9 36.2,22.4 C36.2,21.7 36.1,21.1 35.9,20.4 C35.9,20.5 35.9,20.7 35.9,20.8 C35.7,21.2 35.2,21.4 34.8,21.3 C34.6,21.2 34.5,21.1 34.4,21 C34.3,20.8 33.7,20.3 33.7,21.2 C33.7,22.1 34.6,21.9 33.8,22.4 Z M21.9,27.4 C21.7,27.7 21.2,29.8 20.9,29.6 C20.6,29.4 21,27.1 21.1,27 C21.7,26 22.7,26 21.9,27.4 L21.9,27.4 Z M27.1,24.9 C26.7,25.1 26.2,25.1 25.9,24.8 C25.6,24.6 26.1,24.1 26.3,24.1 C26.7,24.1 27.3,24.7 27.1,24.9 L27.1,24.9 Z M32.3,24.5 C32.2,24.2 32.5,24 32.7,24.1 C32.9,24.2 33.3,24.6 33.3,24.8 C33.3,25 32.8,25 32.7,25 C32.6,25 32.4,24.8 32.3,24.5 L32.3,24.5 Z M34,26.1 C33.6,26.3 33.1,26.3 32.8,26 C32.5,25.7 33,25.3 33.2,25.3 C33.6,25.3 34.2,25.9 34,26.1 Z" id="Shape"></path>
                    <path d="M12.5,20.4 C13.2,20.5 13.9,20.7 14.6,20.9 C15.3,21.2 16.5,21.8 17.1,21.5 C17.6,21.3 18,21 17.9,20.6 C17.8,20.2 17.4,20 17,20.3 C16.8,20.4 16.4,19.5 16.1,19.6 C15.8,19.7 16.5,20.7 16.2,20.7 C15.9,20.7 15.4,19.7 15.4,19.5 C15.4,19.3 14.9,18.9 14.6,19.2 C13.8,19.9 12.6,19.9 12.4,20 C12.3,20.1 12.2,20.1 12.2,20.2 C11.7,20.4 11.6,19.9 11.5,19.5 C11.3,20.2 11.1,20.9 11.1,21.7 L11.2,21.6 C11.6,20.8 11.7,20.7 11.8,20.7 C12,20.6 12.1,20.6 12.3,20.5 L12.5,20.4 Z" id="Path"></path>
                </g>
            </g>
        </g>
    </g>
</svg>