<?xml version="1.0" encoding="UTF-8"?>
<svg width="95px" height="95px" viewBox="0 0 95 95" version="1.1" xmlns="http://www.w3.org/2000/svg" xmlns:xlink="http://www.w3.org/1999/xlink">
    <!-- Generator: Sketch 53.2 (72643) - https://sketchapp.com -->
    <title>goal_11_target_11_c</title>
    <desc>Created with Sketch.</desc>
    <g id="goal_11_target_11_c" stroke="none" stroke-width="1" fill="none" fill-rule="evenodd">
        <g id="Group-92" fill-rule="nonzero">
            <rect id="Rectangle" fill="#FD9D24" x="-3.62376795e-13" y="-2.13162821e-14" width="94.8" height="94.8"></rect>
            <g id="Group" transform="translate(9.700000, 23.000000)" fill="#FFFFFF">
                <path d="M72.8,32.5 C71.2,31.3 69.2,30.6 67.1,30.6 C66.6,30.6 66.2,30.6 65.7,30.7 L65.6,30.7 C64.2,31 62,31.5 59.3,34.8 L59.2,34.9 C59.2,35 59.1,35 59.1,35.1 C59.1,35.2 59.1,35.2 59.1,35.3 L59.2,35.4 C59.6,36.1 60,36.8 60.3,37.3 C60.4,37.5 60.6,37.5 60.8,37.4 C60.8,37.4 60.9,37.4 60.9,37.3 L60.9,37.2 C63.2,34 65,33.6 66.1,33.4 L66.2,33.4 C66.4,33.4 66.7,33.3 66.9,33.3 C68.3,33.3 69.7,33.7 70.9,34.6 C72.3,35.9 73.1,37.7 72.9,39.6 C72.9,43.4 71.1,44.8 69.6,45.4 C69,45.6 68.4,45.7 67.7,45.7 C66.7,45.7 65.8,45.5 64.9,45.1 L64.8,45 C63.5,44.4 61.5,43.2 59.7,39.5 C55.9,31.8 52.7,31.1 50.6,30.7 L50.5,30.7 C50,30.6 49.6,30.6 49.1,30.6 C47.1,30.6 45.1,31.2 43.5,32.4 C42.1,33.5 40.5,35.6 40.5,39.6 C40.2,44.2 43.8,48.1 48.3,48.4 C48.5,48.4 48.7,48.4 48.9,48.4 C49.5,48.4 50.2,48.3 50.8,48.2 C52,47.9 53.1,47.4 54.1,46.7 L55.2,47.7 C55.3,47.8 55.5,47.8 55.6,47.7 C55.7,47.6 55.7,47.6 55.7,47.5 L56.6,42.2 L56.6,42.1 C56.6,42 56.6,41.9 56.5,41.9 C56.4,41.8 56.4,41.8 56.3,41.8 L56.3,41.8 L51.1,43.2 L51,43.2 C50.9,43.2 50.9,43.3 50.8,43.3 C50.7,43.4 50.7,43.4 50.7,43.5 C50.7,43.6 50.7,43.7 50.8,43.7 L51.9,44.7 C51.4,45 50.8,45.3 50.2,45.4 C49.7,45.5 49.3,45.5 48.8,45.5 C47.1,45.5 45.5,44.8 44.4,43.5 L44.4,43.5 C43.5,42.4 43.1,40.9 43.2,39.5 C43,37.6 43.8,35.8 45.2,34.5 C46.3,33.7 47.7,33.3 49,33.3 C49.2,33.3 49.5,33.3 49.7,33.4 L49.8,33.4 C51.5,33.8 53.8,34.3 57,40.8 C58.7,44.2 60.8,46.4 63.5,47.6 C64.8,48.2 66.2,48.6 67.6,48.6 C68.6,48.6 69.5,48.4 70.5,48.1 C72.1,47.5 75.7,45.5 75.7,39.6 C75.9,35.7 74.2,33.6 72.8,32.5 Z" id="Path"></path>
                <path d="M52.9,0.3 L61.4,0.3 C62,0.3 62.5,0.8 62.5,1.4 L62.5,5.9 C62.5,6.5 62,7 61.4,7 L52.9,7 C52.3,7 51.8,6.5 51.8,5.9 L51.8,1.4 C51.8,0.8 52.2,0.3 52.9,0.3 Z" id="Path"></path>
                <path d="M41.7,17 L50.2,17 C50.8,17 51.3,17.5 51.3,18.1 L51.3,22.7 C51.3,23.3 50.8,23.8 50.2,23.8 L41.7,23.8 C41.1,23.8 40.6,23.3 40.6,22.7 L40.6,18.1 C40.6,17.5 41.1,17 41.7,17 Z" id="Path"></path>
                <path d="M54.1,17 L62.6,17 C63.2,17 63.7,17.5 63.7,18.1 L63.7,22.7 C63.7,23.3 63.2,23.8 62.6,23.8 L54.1,23.8 C53.5,23.8 53,23.3 53,22.7 L53,18.1 C53,17.5 53.5,17 54.1,17 Z" id="Path"></path>
                <path d="M66.4,17 L74.9,17 C75.5,17 76,17.5 76,18.1 L76,22.7 C76,23.3 75.5,23.8 74.9,23.8 L66.4,23.8 C65.8,23.8 65.3,23.3 65.3,22.7 L65.3,18.1 C65.2,17.5 65.7,17 66.4,17 Z" id="Path"></path>
                <path d="M47.1,8.6 L55.6,8.6 C56.2,8.6 56.7,9.1 56.7,9.7 L56.7,14.2 C56.7,14.8 56.2,15.3 55.6,15.3 L47.1,15.3 C46.5,15.3 46,14.8 46,14.2 L46,9.7 C46,9.1 46.5,8.6 47.1,8.6 Z" id="Path"></path>
                <path d="M59.4,8.6 L67.9,8.6 C68.5,8.6 69,9.1 69,9.7 L69,14.2 C69,14.8 68.5,15.3 67.9,15.3 L59.4,15.3 C58.8,15.3 58.3,14.8 58.3,14.2 L58.3,9.7 C58.2,9.1 58.7,8.6 59.4,8.6 Z" id="Path"></path>
                <path d="M30.1,40.2 L22.9,45.9 C22.8,46 22.7,46 22.6,46 C22.4,46 22.4,45.9 22.4,45.6 L22.4,42.7 L1.5,42.7 C1.3,42.7 1.2,42.6 1.3,42.4 L1.3,37.4 C1.3,37.3 1.4,37.1 1.5,37.1 C1.5,37.1 1.5,37.1 1.5,37.1 L22.4,37.1 L22.4,34.3 C22.4,34.1 22.5,34 22.6,33.9 C22.7,33.9 22.8,33.9 22.9,34 L30.1,39.5 C30.2,39.6 30.3,39.7 30.3,39.9 C30.3,40.1 30.2,40.2 30.1,40.2 Z" id="Path"></path>
                <g transform="translate(0.000000, 1.000000)">
                    <path d="M13.9,20.8 C13.4,21.1 12.9,21.3 12.4,21.5 C10.9,21.9 9.3,22.1 7.6,22.1 C6.8,22.1 6,22 5.2,21.9 C4.7,21.8 4.3,21.7 3.8,21.6 C3.6,21.5 3.3,21.5 3.1,21.4 C2.4,21.2 1.8,20.9 1.2,20.5 C1,20.4 0.8,20.2 0.7,19.9 L0.7,20.5 C0.7,20.7 0.7,21.4 0.7,21.4 C0.7,21.8 0.9,22.2 1.3,22.4 C2.4,23.2 3.7,23.7 5,23.8 C5.9,23.9 6.8,24 7.7,24 C9,24 10.3,23.9 11.6,23.6 L11.6,23.6 C12.3,23.4 13,23.2 13.6,22.8 L13.6,22.8 C14.2,22.4 14.6,22 14.6,21.5 C14.6,21.5 14.6,20.1 14.6,20 C14.4,20.4 14.1,20.6 13.9,20.8 Z" id="Path"></path>
                    <path d="M7,16.1 C10.8,16.1 14,14.9 14,13.5 C14,13.5 14.1,12.2 14.1,11.9 C14.1,11.7 14.1,11.5 14,11.4 C14.4,11.2 14.7,10.7 14.8,10.2 C14.8,10.2 14.9,8.7 14.8,8.4 C14.6,6.7 11.1,5.7 7.8,5.7 C4.5,5.7 0.8,6.7 0.8,8.5 C0.8,8.6 0.9,10.1 0.9,10.1 C0.9,10.2 0.9,10.3 1,10.4 C0.5,10.7 0.2,11.2 0.1,11.8 C0.1,11.9 0.2,13.4 0.2,13.4 C0.2,13.8 0.4,14.2 0.8,14.4 C1.9,15.2 3.2,15.7 4.5,15.8 C5.2,16 6.1,16.1 7,16.1 Z M7.7,6.5 C11.4,6.5 14,7.6 14,8.6 C14,9.6 11.4,10.7 7.7,10.7 C4,10.7 1.4,9.6 1.4,8.6 C1.4,7.6 4,6.5 7.7,6.5 L7.7,6.5 Z M0.7,11.9 C0.8,11.6 1,11.3 1.2,11.1 C1.4,11.3 1.7,11.5 1.9,11.6 C3.7,12.4 5.7,12.8 7.7,12.7 C9.4,12.7 11,12.5 12.6,11.9 C12.8,11.8 13,11.7 13.2,11.6 C13.2,11.7 13.2,11.7 13.2,11.8 C13.2,12.8 10.6,13.9 6.9,13.9 C3.2,13.9 0.7,12.9 0.7,11.9 L0.7,11.9 Z" id="Shape"></path>
                    <path d="M5,21.4 C5.9,21.5 6.8,21.6 7.7,21.6 C9,21.6 10.3,21.5 11.6,21.2 L11.6,21.2 C12.3,21 13,20.8 13.6,20.4 L13.6,20.4 C13.8,20.3 13.9,20.2 14,20.1 C14.2,19.9 14.4,19.7 14.5,19.4 C14.5,19.3 14.6,19.2 14.6,19 C14.6,19 14.6,17.6 14.6,17.5 C14.4,17.8 13.8,18.7 11,19.3 C9.8,19.5 8.6,19.6 7.5,19.6 C5.6,19.6 3.7,19.2 2,18.5 C1.7,18.3 1.4,18.1 1.1,17.9 C0.9,17.7 0.8,17.6 0.7,17.4 C0.7,17.4 0.7,18.1 0.7,18.1 L0.7,19.1 C0.7,19.5 0.9,19.9 1.3,20.1 C2.4,20.9 3.7,21.3 5,21.4 Z" id="Path"></path>
                    <path d="M14.5,14.4 C14.4,14.3 14.4,14.3 14.3,14.2 C14.2,14.1 14.1,14.1 14,14 C13.9,14.2 13.8,14.3 13.7,14.4 C13.8,14.4 13.9,14.5 14,14.6 C14.2,14.7 14.3,14.9 14.3,15.1 C14.3,15.3 14.2,15.5 14.1,15.6 C14,15.7 13.9,15.7 13.8,15.8 C13.8,15.8 13.5,16 13.4,16 L12.8,16.3 L12.2,16.5 L11.4,16.7 C11.3,16.7 10.7,16.8 10.3,16.9 L9.2,17 L7.6,17.1 C6.9,17.1 6.1,17 5.4,16.9 C4.9,16.8 4.3,16.7 3.8,16.6 C3.2,16.5 2.7,16.3 2.1,16.1 C1.8,16 1.5,15.8 1.2,15.5 C1,15.3 0.8,15 0.6,14.8 C0.6,14.8 0.6,15.7 0.6,15.7 L0.6,16.5 C0.6,16.9 0.8,17.3 1.2,17.5 C2.3,18.3 3.6,18.8 4.9,18.9 C5.8,19 6.7,19.1 7.6,19.1 C8.9,19.1 10.2,19 11.5,18.7 L11.5,18.7 C12.2,18.5 12.9,18.3 13.5,17.9 L13.5,17.9 C13.7,17.8 13.8,17.7 13.9,17.6 C14.1,17.4 14.3,17.2 14.4,16.9 C14.4,16.8 14.5,16.7 14.5,16.5 C14.5,16.5 14.6,15 14.6,15 C14.6,14.9 14.6,14.8 14.6,14.7 C14.6,14.6 14.6,14.5 14.5,14.4 Z" id="Path"></path>
                    <path d="M23,11.1 C26.8,11.1 30,9.9 30,8.5 C30,8.5 30.1,7.2 30,6.9 C30,6.7 30,6.5 29.9,6.4 C30.3,6.2 30.6,5.7 30.7,5.2 C30.7,5.2 30.8,3.7 30.7,3.4 C30.5,1.7 27,0.7 23.7,0.7 C20.4,0.7 16.7,1.7 16.7,3.5 C16.7,3.6 16.8,5.1 16.8,5.1 C16.8,5.2 16.8,5.3 16.9,5.4 C16.4,5.7 16.1,6.2 16.1,6.8 C16.1,6.9 16.2,8.4 16.2,8.4 C16.2,8.8 16.4,9.2 16.7,9.4 C17.8,10.2 19.1,10.6 20.4,10.8 C21.2,11 22.1,11.1 23,11.1 Z M23.7,1.5 C27.4,1.5 30,2.6 30,3.6 C30,4.6 27.4,5.7 23.7,5.7 C20,5.7 17.4,4.6 17.4,3.6 C17.4,2.6 20,1.5 23.7,1.5 L23.7,1.5 Z M16.7,6.9 C16.8,6.6 17,6.3 17.2,6.1 C17.4,6.3 17.6,6.5 17.9,6.6 C19.7,7.4 21.7,7.8 23.7,7.7 C25.4,7.7 27,7.5 28.6,6.9 C28.8,6.8 29,6.7 29.2,6.6 C29.2,6.7 29.2,6.7 29.2,6.8 C29.2,7.8 26.6,8.9 22.9,8.9 C19.2,8.9 16.7,7.9 16.7,6.9 L16.7,6.9 Z" id="Shape"></path>
                    <path d="M30.7,9.7 C30.7,9.6 30.6,9.5 30.5,9.4 L30.3,9.2 C30.2,9.1 30.1,9.1 30,9 C29.9,9.2 29.8,9.3 29.7,9.4 C29.8,9.4 29.9,9.5 30,9.6 C30.2,9.7 30.3,9.9 30.3,10.1 C30.3,10.3 30.2,10.5 30.1,10.6 C30,10.7 29.9,10.7 29.8,10.8 L29.4,11 C29.4,11 29,11.2 28.8,11.3 C28.6,11.4 28.4,11.5 28.2,11.5 L27.4,11.7 C27.4,11.7 26.7,11.8 26.3,11.9 L25.2,12 C25.1,12 24,12.1 23.6,12.1 C22.9,12.1 22.1,12 21.4,11.9 C20.9,11.8 20.3,11.7 19.8,11.6 C19.2,11.5 18.7,11.3 18.1,11.1 C17.8,10.9 17.5,10.7 17.2,10.5 C17,10.3 16.8,10 16.7,9.8 L16.7,10.7 L16.7,11.5 C16.7,11.9 16.9,12.3 17.2,12.5 C18.3,13.3 19.6,13.7 20.9,13.9 C21.8,14 22.7,14.1 23.6,14.1 C24.9,14.1 26.2,14 27.5,13.7 L27.5,13.7 C28.2,13.5 28.9,13.3 29.5,12.9 L29.5,12.9 C29.6,12.8 29.8,12.7 29.9,12.6 C30.1,12.4 30.3,12.2 30.4,11.9 C30.4,11.8 30.5,11.7 30.5,11.5 C30.5,11.5 30.5,10 30.5,10 C30.7,9.9 30.7,9.8 30.7,9.7 Z" id="Path"></path>
                    <path d="M29.9,15.8 C29.4,16.1 28.9,16.3 28.4,16.5 C26.9,16.9 25.3,17.2 23.6,17.1 C22.8,17.1 22,17 21.3,16.9 C20.8,16.8 20.3,16.7 19.9,16.6 C19.7,16.5 19.4,16.5 19.2,16.4 C18.5,16.2 17.9,15.9 17.3,15.5 C17.1,15.3 16.9,15.2 16.8,15 L16.8,15.6 C16.8,15.8 16.8,16.5 16.8,16.5 C16.8,16.9 17,17.3 17.3,17.5 C18.4,18.3 19.7,18.7 21,18.9 C21.9,19 22.8,19.1 23.7,19.1 C25,19.1 26.3,19 27.6,18.7 L27.6,18.7 C28.3,18.5 29,18.3 29.6,17.9 L29.6,17.9 C30.2,17.5 30.6,17.1 30.6,16.6 C30.6,16.6 30.7,15.2 30.6,15.1 C30.4,15.3 30.2,15.6 29.9,15.8 Z" id="Path"></path>
                    <path d="M17.3,15 C18.4,15.8 19.7,16.3 21,16.4 C21.9,16.5 22.8,16.6 23.7,16.6 C25,16.6 26.3,16.5 27.6,16.2 L27.6,16.2 C28.3,16 29,15.8 29.6,15.4 L29.6,15.4 C29.7,15.3 29.9,15.2 30,15.1 C30.2,14.9 30.4,14.7 30.5,14.4 C30.5,14.3 30.6,14.2 30.6,14 C30.6,14 30.6,12.6 30.6,12.5 C30.4,12.8 29.8,13.7 27,14.3 C25.8,14.5 24.6,14.6 23.5,14.6 C21.6,14.6 19.7,14.3 18,13.5 C17.7,13.3 17.4,13.1 17.1,12.9 C16.9,12.7 16.8,12.6 16.7,12.4 C16.7,12.4 16.7,13.1 16.7,13.1 L16.7,14.1 C16.8,14.4 17,14.8 17.3,15 Z" id="Path"></path>
                    <path d="M30.8,20 C30.6,20.3 30.3,20.6 30,20.8 C29.5,21.1 29,21.3 28.5,21.5 C27,21.9 25.4,22.1 23.7,22.1 C22.9,22.1 22.1,22 21.3,21.9 C20.8,21.8 20.4,21.7 19.9,21.6 L19.2,21.4 C18.5,21.2 17.9,20.9 17.3,20.5 C17.1,20.4 16.9,20.2 16.8,20 L16.8,20.6 C16.8,20.8 16.8,21.5 16.8,21.5 C16.8,21.9 17,22.3 17.3,22.5 C18.4,23.3 19.7,23.7 21,23.9 C21.9,24 22.8,24.1 23.7,24.1 C25,24.1 26.3,24 27.6,23.7 L27.6,23.7 C28.3,23.5 29,23.3 29.6,22.9 L29.6,22.9 C30.3,22.5 30.6,22.1 30.6,21.6 C30.7,21.5 30.8,20.1 30.8,20 Z" id="Path"></path>
                    <path d="M21,21.4 C21.9,21.5 22.8,21.6 23.7,21.6 C25,21.6 26.3,21.5 27.6,21.2 L27.6,21.2 C28.3,21 29,20.8 29.6,20.4 L29.6,20.4 C29.8,20.3 29.9,20.2 30,20.1 C30.2,19.9 30.4,19.7 30.5,19.4 C30.5,19.3 30.6,19.2 30.6,19 C30.6,19 30.6,17.6 30.6,17.5 C30.4,17.8 29.8,18.7 27,19.3 C25.8,19.5 24.6,19.6 23.5,19.6 C21.6,19.7 19.7,19.3 17.9,18.5 C17.6,18.3 17.3,18.1 17,17.9 C16.8,17.7 16.7,17.6 16.6,17.4 C16.6,17.4 16.6,18.1 16.6,18.1 L16.6,19.1 C16.6,19.5 16.8,19.9 17.1,20.1 C18.3,20.8 19.6,21.3 21,21.4 Z" id="Path"></path>
                </g>
            </g>
        </g>
    </g>
</svg>