<?xml version="1.0" encoding="UTF-8"?>
<svg width="95px" height="95px" viewBox="0 0 95 95" version="1.1" xmlns="http://www.w3.org/2000/svg" xmlns:xlink="http://www.w3.org/1999/xlink">
    <!-- Generator: Sketch 53.2 (72643) - https://sketchapp.com -->
    <title>goal_8_target_8_4</title>
    <desc>Created with Sketch.</desc>
    <g id="goal_8_target_8_4" stroke="none" stroke-width="1" fill="none" fill-rule="evenodd">
        <g id="Group-56" fill-rule="nonzero">
            <rect id="Rectangle" fill="#A21942" x="-3.62376795e-13" y="-2.13162821e-14" width="94.8" height="94.8"></rect>
            <path d="M85.3,66.1 L85.3,66.1 L85.3,66.1 L81.4,64 C82.4,61.6 83.2,59 83.7,56.4 C86.1,43.3 81.3,29.9 71.1,21.3 C70.8,21 70.3,21.1 70,21.4 C70,21.4 70,21.4 70,21.4 L68,23.8 C67.7,24.1 67.8,24.6 68.1,24.9 C77,32.4 81.2,44.1 79.1,55.6 C78.7,57.7 78.1,59.8 77.3,61.7 L72.9,59.3 C72.8,59.3 72.4,59.2 72.5,59.5 L72.5,59.5 L72.8,64.3 C73.1,68.1 73,68 73.1,70.1 L73.3,74.3 C73.3,74.7 73.8,74.4 73.8,74.4 L85.2,66.6 C85.6,66.3 85.4,66.1 85.3,66.1 Z" id="Path" fill="#FFFFFF"></path>
            <path d="M12.4,41.7 L15.4,42.4 C15.8,42.5 16.3,42.3 16.4,41.9 C16.4,41.9 16.4,41.9 16.4,41.9 C19.8,29 30.6,19.4 43.9,17.7 C43.9,18 43.9,18.3 43.9,18.7 L44,23 C44,23.4 44.5,23.1 44.5,23.1 L56.1,15.6 C56.5,15.4 56.3,15.2 56.1,15.1 L56,15.1 L56,15.1 L44,8 C43.9,8 43.5,7.9 43.5,8.2 L43.5,8.2 L43.7,13 L43.7,13 C28.4,14.8 15.7,25.8 11.8,40.7 C11.7,41.2 11.9,41.6 12.4,41.7 C12.4,41.7 12.4,41.7 12.4,41.7 Z" id="Path" fill="#FFFFFF"></path>
            <path d="M60.7,79.7 C60.5,79.3 60.1,79.1 59.7,79.3 C45.4,85 29,79.8 20.5,66.9 L24.9,64.5 C25,64.4 25.3,64.2 24.9,64 L24.9,64 L20.7,61.7 C17.3,59.9 17.4,59.9 15.7,58.9 L12,56.8 C11.6,56.6 11.6,57.2 11.6,57.2 L12.1,71 C12.1,71.4 12.3,71.4 12.5,71.3 L12.6,71.2 L12.6,71.2 L16.5,69.1 C22.1,77.8 30.9,83.7 41.1,85.6 C43.3,86 45.6,86.2 47.9,86.2 C52.6,86.2 57.3,85.3 61.7,83.5 C62.1,83.3 62.3,82.9 62.1,82.5 L60.7,79.7 Z" id="Path" fill="#FFFFFF"></path>
            <path d="M52.5,63.7 L59.5,63.7 C59.7,63.7 59.9,63.5 59.9,63.3 L59.9,37.9 C59.9,37.7 59.7,37.3 59.3,37.7 L52.5,44.2 C52.2,44.4 52.1,44.8 52.1,45.2 L52.1,63.3 C52.1,63.5 52.2,63.7 52.5,63.7 C52.5,63.7 52.5,63.7 52.5,63.7 Z" id="Path" fill="#FFFFFF"></path>
            <path d="M32.9,63.7 L39.9,63.7 C40.1,63.7 40.3,63.5 40.3,63.3 L40.3,46.3 C40.3,46.1 40.1,45.7 39.7,46.1 L32.9,52.6 C32.6,52.9 32.5,53.2 32.5,53.6 L32.5,63.3 C32.5,63.5 32.7,63.7 32.9,63.7 Z" id="Path" fill="#FFFFFF"></path>
            <path d="M62.1,29.7 L62.1,29.7 L56.8,30.9 L56.7,30.9 C56.7,30.9 56.6,30.9 56.6,30.9 C56.5,31 56.5,31.1 56.6,31.2 C56.6,31.2 56.6,31.2 56.6,31.2 L56.6,31.3 L57.8,32.5 L46.1,44.3 L40.7,38.9 C40.6,38.8 40.5,38.8 40.5,38.9 L39,40.4 L39,40.4 L30.3,49.1 C30.2,49.2 30.2,49.3 30.3,49.3 L31.8,50.8 C31.9,50.9 32,50.9 32,50.8 L40.6,42.2 L44.6,46.2 L44.6,46.2 L46.1,47.7 C46.2,47.8 46.3,47.8 46.3,47.7 L59.7,34.3 L60.9,35.5 C61,35.6 61.1,35.6 61.2,35.5 C61.2,35.5 61.2,35.4 61.2,35.4 L61.2,35.4 L62.4,30.1 L62.4,30 C62.4,29.9 62.4,29.9 62.3,29.8 C62.2,29.8 62.2,29.7 62.1,29.7 Z" id="Path" fill="#FFFFFF"></path>
            <path d="M42.8,63.7 L49.8,63.7 C50,63.7 50.2,63.5 50.2,63.3 L50.2,47.5 C50.2,47.3 50,46.9 49.5,47.4 L46.2,50.7 C46.1,50.8 46,50.8 46,50.7 L43,47.7 C42.5,47.2 42.3,47.6 42.3,47.8 L42.3,63.4 C42.4,63.6 42.6,63.7 42.8,63.7 Z" id="Path" fill="#FFFFFF"></path>
        </g>
    </g>
</svg>