<?xml version="1.0" encoding="UTF-8"?>
<svg width="95px" height="95px" viewBox="0 0 95 95" version="1.1" xmlns="http://www.w3.org/2000/svg" xmlns:xlink="http://www.w3.org/1999/xlink">
    <!-- Generator: Sketch 53.2 (72643) - https://sketchapp.com -->
    <title>goal_4_target_4_b</title>
    <desc>Created with Sketch.</desc>
    <g id="goal_4_target_4_b" stroke="none" stroke-width="1" fill="none" fill-rule="evenodd">
        <g id="Group-27" fill-rule="nonzero">
            <rect id="Rectangle" fill="#C5192D" x="-3.62376795e-13" y="-2.13162821e-14" width="94.8" height="94.8"></rect>
            <g id="Group" transform="translate(10.700000, 12.000000)" fill="#FFFFFF">
                <g transform="translate(0.000000, 15.000000)" id="Path">
                    <path d="M8,10.4 L8,14.6 L8,14.6 C8,17 14.3,19.2 19.3,19.2 C24.3,19.2 30.6,17.1 30.6,14.7 L30.6,14.7 L30.6,10.5 L19.2,13.8 L8,10.4 Z"></path>
                    <path d="M38.9,6.1 L19.4,0 L0,6 L2,6.6 L5.2,7.6 L5.2,16.2 C5,16.3 4.9,16.5 4.9,16.7 L4.9,16.7 L4.6,21.9 L6.2,21.9 L6,16.6 L6,16.6 C6,16.4 5.9,16.2 5.7,16.1 L5.7,7.7 L6.5,7.9 L6.5,7.8 L19.3,11.7 L38.9,6.1 Z"></path>
                </g>
                <g transform="translate(37.000000, 0.000000)" id="Path">
                    <path d="M36.4,37.7 L31.7,22.5 C31.7,22.5 30,18.1 26.4,18.1 L18.1,18.1 C16.8,18.2 15.5,17.7 14.6,16.8 L4.4,1.6 C3.8,0.5 2.4,-5.55111512e-17 1.3,0.6 C0.2,1.2 -0.3,2.6 0.3,3.7 L9.2,18.5 L13,25.5 C13.6,26.7 13.8,28.1 13.6,29.4 L7.7,50.7 L13.8,50.7 L13.8,67.7 C13.8,69.3 15.1,70.6 16.7,70.6 C18.3,70.6 19.6,69.3 19.6,67.7 L19.6,67.7 L19.6,50.7 L21.2,50.7 L21.2,67.7 C21.2,69.3 22.5,70.6 24.1,70.6 C25.7,70.6 27,69.3 27,67.7 L27,50.7 L33.1,50.7 L26.7,27 C26.7,27 26.4,26 27.2,25.8 C28,25.6 28.1,26.6 28.1,26.6 L31.9,39.2 C31.9,39.2 32.6,41.9 34.9,41.2 C37.2,40.5 36.4,37.7 36.4,37.7 Z"></path>
                    <path d="M26.7,6.8 C27,6.9 27.3,7 27.6,7.1 C29.3,7.3 29.8,8.1 29.9,8.6 C29.9,8.7 30,8.5 30,8.3 C30,8.3 30.2,5.3 28.2,4.3 C26.5,3.5 25.7,4.4 25.6,5.2 C25.6,5.3 25.6,5.4 25.6,5.5 C26,5.8 26.4,6.3 26.7,6.8 Z"></path>
                    <path d="M11.6,8.5 C11.8,8 12.3,7.3 14,7 C14.4,7 14.7,6.9 15,6.7 C15.3,6.2 15.6,5.8 15.9,5.4 C15.9,5.3 15.9,5.1 15.9,5 C15.8,4.2 15,3.3 13.3,4.1 C11.2,5.1 11.5,8.1 11.5,8.1 C11.5,8.4 11.5,8.6 11.6,8.5 Z"></path>
                    <path d="M20.8,15.7 C24,15.7 26.5,13.1 26.5,9.9 C26.5,6.7 23.9,4.2 20.7,4.2 C17.5,4.2 15,6.8 15,10 C15,13.2 17.6,15.7 20.8,15.7 C20.7,15.7 20.8,15.7 20.8,15.7 Z"></path>
                </g>
                <g transform="translate(1.000000, 43.000000)">
                    <path d="M16.8,24.1 C16.2,24.4 15.6,24.7 15,24.9 C13.2,25.4 11.3,25.6 9.5,25.6 C8.6,25.6 7.7,25.5 6.7,25.4 C6.1,25.3 5.6,25.2 5,25.1 C4.7,25 4.4,25 4.2,24.9 C3.4,24.7 2.7,24.4 2.1,23.9 C1.9,23.7 1.7,23.5 1.5,23.3 L1.5,24 C1.5,24.2 1.5,25.1 1.5,25.1 C1.5,25.6 1.8,26 2.1,26.3 C3.4,27.2 4.9,27.7 6.4,27.9 C7.4,28.1 8.5,28.1 9.6,28.1 C11.1,28.1 12.7,27.9 14.1,27.6 L14.1,27.6 C14.9,27.4 15.7,27.1 16.4,26.7 L16.4,26.7 C17.2,26.2 17.6,25.7 17.6,25.1 C17.6,25.1 17.7,23.4 17.6,23.3 C17.4,23.5 17.1,23.8 16.8,24.1 Z" id="Path"></path>
                    <path d="M8.8,18.6 C13.3,18.6 16.9,17.3 16.9,15.6 C16.9,15.6 17,14.1 17,13.7 C17,13.5 16.9,13.3 16.9,13.1 C17.4,12.8 17.7,12.3 17.8,11.7 C17.8,11.7 17.9,10 17.8,9.6 C17.6,7.6 13.5,6.5 9.7,6.5 C5.9,6.5 1.5,7.7 1.5,9.8 C1.5,9.9 1.6,11.7 1.6,11.7 C1.6,11.8 1.6,11.9 1.7,12.1 C1.1,12.5 0.7,13.1 0.7,13.8 C0.7,13.9 0.8,15.7 0.8,15.7 C0.8,16.2 1.1,16.6 1.4,16.9 C2.7,17.8 4.2,18.3 5.7,18.5 C6.7,18.5 7.7,18.6 8.8,18.6 Z M9.6,7.3 C13.9,7.3 16.9,8.6 16.9,9.8 C16.9,11 13.9,12.2 9.6,12.2 C5.3,12.2 2.3,11 2.3,9.8 C2.3,8.6 5.3,7.3 9.6,7.3 Z M1.4,13.7 C1.5,13.3 1.7,13 2,12.8 C2.2,13 2.5,13.2 2.8,13.4 C4.9,14.4 7.2,14.8 9.5,14.7 C11.4,14.7 13.4,14.4 15.2,13.8 C15.5,13.7 15.7,13.6 15.9,13.5 C15.9,13.6 15.9,13.6 15.9,13.7 C15.9,14.9 12.9,16.1 8.6,16.1 C4.3,16.1 1.4,14.8 1.4,13.7 Z" id="Shape"></path>
                    <path d="M6.4,24.8 C7.4,25 8.5,25 9.5,25 C11,25 12.6,24.8 14,24.5 L14,24.5 C14.8,24.3 15.6,24 16.3,23.6 L16.3,23.6 C16.5,23.5 16.6,23.4 16.8,23.3 C17.1,23.1 17.3,22.8 17.4,22.5 C17.5,22.4 17.5,22.2 17.5,22.1 C17.5,22.1 17.5,20.4 17.5,20.3 C17.2,20.6 16.5,21.7 13.3,22.3 C11.9,22.5 10.5,22.7 9.2,22.7 C6.6,22.7 3.9,22.2 2.7,21.4 C2.3,21.2 2,21 1.7,20.7 C1.5,20.5 1.3,20.3 1.2,20.1 C1.2,20.1 1.2,20.9 1.2,20.9 L1.2,22.1 C1.2,22.6 1.5,23 1.8,23.3 C3.2,24.1 4.8,24.6 6.4,24.8 Z" id="Path"></path>
                    <path d="M17.5,16.6 C17.4,16.5 17.4,16.5 17.3,16.4 C17.2,16.3 17.1,16.3 17,16.2 C16.9,16.4 16.8,16.5 16.6,16.7 C16.7,16.7 16.8,16.8 16.9,16.9 C17.1,17 17.3,17.3 17.3,17.5 C17.3,17.7 17.1,17.9 17,18 C16.9,18.1 16.8,18.2 16.7,18.2 C16.7,18.2 16.4,18.4 16.2,18.5 C16,18.6 15.7,18.7 15.5,18.8 C15.5,18.8 15,19 14.8,19 C14.6,19 14.1,19.2 13.8,19.2 C13.7,19.2 12.9,19.4 12.6,19.4 C12.5,19.4 11.7,19.5 11.3,19.5 C11.2,19.5 10,19.6 9.4,19.6 C8.5,19.6 7.7,19.5 6.8,19.4 C6.2,19.3 5.6,19.2 5,19.1 C4.3,19 3.7,18.8 3,18.5 C2.6,18.3 2.3,18.1 2,17.8 C1.7,17.6 1.5,17.3 1.4,17 L1.4,18 L1.4,19 C1.4,19.5 1.7,19.9 2,20.2 C3.3,21.1 4.8,21.7 6.3,21.8 C7.3,22 8.4,22 9.4,22 C10.9,22 12.5,21.8 13.9,21.5 L13.9,21.5 C14.7,21.3 15.5,21 16.2,20.6 L16.2,20.6 C16.4,20.5 16.5,20.4 16.7,20.2 C17,20 17.2,19.7 17.3,19.4 C17.4,19.3 17.4,19.1 17.4,19 C17.4,19 17.5,17.3 17.5,17.2 C17.5,17.1 17.5,16.9 17.4,16.8 C17.6,16.8 17.6,16.7 17.5,16.6 Z" id="Path"></path>
                    <path d="M27.5,12.7 C32,12.7 35.6,11.4 35.6,9.7 C35.6,9.7 35.7,8.1 35.7,7.8 C35.7,7.6 35.6,7.4 35.6,7.2 C36.1,6.9 36.4,6.4 36.5,5.8 C36.5,5.8 36.6,4.1 36.5,3.7 C36.3,1.7 32.2,0.6 28.4,0.6 C24.6,0.6 20.2,1.8 20.2,3.9 C20.2,4 20.3,5.8 20.3,5.8 C20.3,5.9 20.3,6 20.4,6.2 C19.8,6.5 19.4,7.2 19.4,7.8 C19.4,7.9 19.5,9.7 19.5,9.7 C19.5,10.2 19.8,10.6 20.2,10.9 C21.5,11.8 23,12.3 24.5,12.5 C25.4,12.6 26.4,12.7 27.5,12.7 Z M28.3,1.5 C32.6,1.5 35.6,2.8 35.6,3.9 C35.6,5 32.6,6.4 28.3,6.4 C24,6.4 21,5.1 21,3.9 C21,2.7 24,1.5 28.3,1.5 Z M20.1,7.8 C20.2,7.4 20.4,7.1 20.7,6.9 C20.9,7.1 21.2,7.3 21.5,7.5 C23.6,8.5 25.9,8.9 28.2,8.8 C30.1,8.8 32.1,8.5 33.9,7.9 C34.1,7.8 34.4,7.7 34.6,7.6 C34.6,7.7 34.6,7.7 34.6,7.8 C34.6,9 31.6,10.3 27.3,10.3 C23,10.3 20.1,9 20.1,7.8 Z" id="Shape"></path>
                    <path d="M36.4,11.1 C36.4,11 36.3,10.9 36.2,10.8 C36.1,10.7 36.1,10.7 36,10.6 C35.9,10.5 35.8,10.5 35.7,10.4 C35.6,10.6 35.5,10.7 35.3,10.9 C35.4,10.9 35.5,11 35.6,11.1 C35.8,11.2 36,11.5 36,11.7 C36,11.9 35.9,12.1 35.7,12.2 L35.4,12.4 C35.4,12.4 35.1,12.6 34.9,12.6 C34.7,12.7 34.4,12.8 34.2,12.9 C34.2,12.9 33.7,13.1 33.5,13.1 C33.3,13.1 32.8,13.3 32.5,13.3 C32.4,13.3 31.6,13.5 31.3,13.5 C31.2,13.5 30.4,13.6 30,13.6 C29.9,13.6 28.7,13.7 28.1,13.7 C27.2,13.7 26.4,13.6 25.5,13.5 C24.9,13.4 24.3,13.3 23.7,13.2 C23,13.1 22.4,12.8 21.7,12.6 C21.3,12.4 21,12.2 20.7,11.9 C20.4,11.7 20.2,11.4 20.1,11.1 C20.1,11.1 20.1,12.2 20.1,12.2 L20.1,13.2 C20.1,13.7 20.4,14.1 20.7,14.4 C22,15.3 23.5,15.9 25.1,16 C26.1,16.2 27.2,16.2 28.3,16.2 C29.8,16.2 31.4,16 32.8,15.7 L32.8,15.7 C33.6,15.5 34.4,15.2 35.1,14.8 L35.1,14.8 C35.3,14.7 35.4,14.6 35.6,14.4 C35.9,14.2 36.1,13.9 36.2,13.6 C36.3,13.5 36.3,13.3 36.3,13.2 C36.3,13.2 36.4,11.5 36.4,11.4 C36.4,11.4 36.4,11.2 36.4,11.1 Z" id="Path"></path>
                    <path d="M35.5,18.2 C35,18.6 34.3,18.8 33.7,19 C31.9,19.5 30,19.7 28.2,19.7 C27.3,19.7 26.4,19.6 25.4,19.5 C24.8,19.4 24.3,19.3 23.7,19.2 L22.9,19 C22.1,18.8 21.4,18.5 20.7,18 C20.5,17.8 20.3,17.6 20.1,17.3 L20.1,18 C20.1,18.2 20.1,19.1 20.1,19.1 C20.1,19.6 20.4,20 20.7,20.3 C22,21.2 23.5,21.8 25,21.9 C26,22.1 27.1,22.1 28.2,22.1 C29.7,22.1 31.3,21.9 32.7,21.6 L32.7,21.6 C33.5,21.4 34.3,21.1 35,20.7 L35,20.7 C35.8,20.2 36.2,19.7 36.2,19.1 C36.2,19.1 36.3,17.5 36.2,17.3 C36.1,17.7 35.8,18 35.5,18.2 Z" id="Path"></path>
                    <path d="M20.8,17.3 C22.1,18.2 23.6,18.7 25.1,18.9 C26.1,19.1 27.2,19.1 28.3,19.1 C29.8,19.1 31.4,18.9 32.8,18.6 L32.8,18.6 C33.6,18.4 34.4,18.1 35.1,17.7 L35.1,17.7 C35.3,17.6 35.4,17.5 35.6,17.4 C35.9,17.2 36.1,16.9 36.2,16.6 C36.3,16.5 36.3,16.3 36.3,16.2 C36.3,16.2 36.3,14.5 36.3,14.4 C36,14.7 35.3,15.8 32.1,16.5 C30.7,16.7 29.4,16.9 28,16.8 C25.4,16.8 22.7,16.3 21.5,15.5 C21.1,15.3 20.8,15.1 20.5,14.8 C20.3,14.6 20.2,14.4 20,14.2 C20,14.2 20,15 20,15 L20,16.2 C20.1,16.7 20.4,17.1 20.8,17.3 Z" id="Path"></path>
                    <path d="M36.5,23.1 C36.2,23.5 35.9,23.8 35.5,24 C34.9,24.3 34.3,24.6 33.7,24.8 C31.9,25.3 30,25.5 28.2,25.5 C27.3,25.5 26.4,25.4 25.5,25.3 C24.9,25.2 24.4,25.1 23.8,25 C23.5,24.9 23.2,24.9 23,24.8 C22.2,24.6 21.5,24.3 20.8,23.8 C20.6,23.6 20.4,23.4 20.2,23.2 L20.2,23.9 C20.2,24.1 20.2,25 20.2,25 C20.2,25.5 20.5,25.9 20.8,26.2 C22.1,27.1 23.6,27.7 25.1,27.8 C26.1,28 27.2,28 28.3,28 C29.8,28 31.4,27.8 32.8,27.5 L32.8,27.5 C33.6,27.3 34.4,27 35.1,26.6 L35.1,26.6 C35.9,26.1 36.3,25.6 36.3,25 C36.4,24.9 36.5,23.2 36.5,23.1 Z" id="Path"></path>
                    <path d="M25.1,24.7 C26.1,24.9 27.2,24.9 28.3,24.9 C29.8,24.9 31.4,24.7 32.8,24.4 L32.8,24.4 C33.6,24.2 34.4,23.9 35.1,23.5 L35.1,23.5 C35.3,23.4 35.4,23.3 35.6,23.1 C35.9,22.9 36.1,22.6 36.2,22.3 C36.3,22.2 36.3,22 36.3,21.9 C36.3,21.9 36.3,20.2 36.3,20.1 C36,20.4 35.3,21.5 32.1,22.1 C30.7,22.3 29.4,22.5 28,22.5 C25.4,22.5 22.7,22 21.5,21.2 C21.1,21 20.8,20.8 20.5,20.5 C20.3,20.3 20.2,20.1 20,19.9 C20,19.9 20,20.7 20,20.7 L20,21.9 C20,22.4 20.3,22.8 20.6,23 C22,24 23.5,24.6 25.1,24.7 Z" id="Path"></path>
                </g>
            </g>
        </g>
    </g>
</svg>