<?xml version="1.0" encoding="UTF-8"?>
<svg width="95px" height="95px" viewBox="0 0 95 95" version="1.1" xmlns="http://www.w3.org/2000/svg" xmlns:xlink="http://www.w3.org/1999/xlink">
    <!-- Generator: Sketch 53.2 (72643) - https://sketchapp.com -->
    <title>goal_17_target_17_2</title>
    <desc>Created with Sketch.</desc>
    <g id="goal_17_target_17_2" stroke="none" stroke-width="1" fill="none" fill-rule="evenodd">
        <g id="Group-144" fill-rule="nonzero">
            <rect id="Rectangle" fill="#19486A" x="1.45661261e-12" y="7.10542736e-15" width="94.8" height="94.8"></rect>
            <g id="Group" transform="translate(10.700000, 16.000000)" fill="#FFFFFF">
                <g transform="translate(36.000000, 1.000000)">
                    <path d="M39.2,17.6 C39.2,17.1 38.7,16.7 38.2,16.7 C38.2,16.7 38.2,16.7 38.2,16.7 C37.7,16.7 37.3,16.7 36.8,16.7 C36.3,16.7 35.8,16.5 35.6,16 C35.4,15.1 35.1,14.1 34.7,13.3 C34.5,12.8 34.6,12.2 35,11.9 C35.4,11.5 35.8,11.2 36.2,10.9 C36.6,10.6 36.7,10.1 36.4,9.7 C35.8,8.6 35.1,7.6 34.2,6.8 C33.9,6.4 33.3,6.4 32.9,6.7 C32.5,7 32.1,7.2 31.7,7.5 C31.3,7.8 30.8,8 30.3,7.6 C29.5,7 28.5,6.3 27.9,5.9 C27.4,5.6 27.2,5.1 27.4,4.6 C27.5,4.1 27.6,3.6 27.8,3.1 C27.9,2.6 27.7,2.2 27.3,2 C26.2,1.5 25,1.1 23.8,0.9 C23.3,0.8 22.8,1.1 22.7,1.6 C22.7,1.6 22.7,1.6 22.7,1.6 C22.5,2.1 22.4,2.5 22.2,2.9 C22,3.3 21.7,3.8 21.2,3.8 C20,3.8 19.1,3.8 18.3,3.8 C17.8,3.9 17.3,3.5 17.1,3 C16.9,2.5 16.7,2.1 16.5,1.5 C16.3,1.1 15.9,0.8 15.4,0.9 C14.2,1 13,1.4 11.9,2 C11.4,2.2 11.2,2.7 11.4,3.2 C11.6,3.7 11.6,4.1 11.8,4.6 C12,5.1 12,5.6 11.5,5.9 C11,6.2 9.8,7.1 9.2,7.6 C8.8,8 8.2,8 7.8,7.7 C7.3,7.4 6.9,7.2 6.5,6.9 C6.1,6.7 5.6,6.7 5.3,7.1 C4.5,8 3.8,9 3.2,10.1 C2.9,10.5 3,11.1 3.5,11.4 C3.5,11.4 3.5,11.4 3.5,11.4 C3.9,11.7 4.2,12 4.6,12.3 C5,12.6 5.3,13 5.1,13.6 C4.9,14.2 4.4,15.8 4.2,16.4 C4.1,16.9 3.6,17.3 3.1,17.3 C2.5,17.3 2.1,17.4 1.5,17.4 C1,17.4 0.6,17.8 0.6,18.3 C0.5,19.5 0.5,20.8 0.7,22 C0.8,22.5 1.2,22.9 1.7,22.9 C2.2,22.9 2.6,22.9 3.1,22.9 C3.6,22.9 4.1,23.1 4.3,23.6 C4.5,24.5 4.8,25.5 5.2,26.4 C5.4,26.9 5.3,27.5 4.8,27.8 C4.4,28.1 4,28.5 3.6,28.8 C3.2,29.1 3.1,29.6 3.4,30 C4,31.1 4.7,32.1 5.6,32.9 C5.9,33.3 6.5,33.3 6.9,33 C7.4,32.7 7.7,32.5 8.1,32.2 C8.5,31.9 9,31.7 9.5,32.1 C10,32.5 11.3,33.4 11.8,33.8 C12.3,34.1 12.5,34.6 12.3,35.1 C12.1,35.6 12.1,36.1 11.9,36.6 C11.8,37.1 12,37.5 12.4,37.8 C13.5,38.3 14.7,38.7 15.9,38.9 C16.4,39 16.9,38.7 17.1,38.2 C17.3,37.7 17.4,37.3 17.6,36.9 C17.8,36.5 18.1,36 18.6,36 C19.7,36 20.5,36 21.5,36 C22,35.9 22.5,36.3 22.7,36.8 C22.9,37.3 23.1,37.7 23.3,38.3 C23.5,38.7 23.9,39 24.4,38.9 C25.6,38.7 26.8,38.3 27.9,37.7 C28.4,37.5 28.6,37 28.4,36.5 C28.4,36.5 28.4,36.5 28.4,36.5 C28.3,36 28.2,35.6 28,35.1 C27.8,34.6 27.8,34.1 28.3,33.8 C28.8,33.5 30.1,32.5 30.6,32.1 C31,31.7 31.6,31.7 32,32 C32.5,32.3 32.9,32.5 33.3,32.8 C33.7,33.1 34.2,33 34.6,32.6 C35.4,31.7 36.1,30.7 36.7,29.6 C37,29.2 36.9,28.6 36.4,28.3 C36.4,28.3 36.4,28.3 36.4,28.3 L35.3,27.4 C34.8,27.1 34.6,26.7 34.8,26.1 C35,25.5 35.5,24 35.7,23.3 C35.8,22.8 36.3,22.4 36.8,22.4 C37.4,22.4 37.8,22.3 38.4,22.3 C38.9,22.3 39.3,21.9 39.3,21.4 C39.4,20.1 39.4,18.8 39.2,17.6 Z M19.9,31.9 C13.3,31.9 7.9,26.5 8,19.8 C8.1,13.1 13.4,7.8 20.1,7.9 C26.7,7.9 32,13.3 32,19.9 C32,26.6 26.6,31.9 19.9,31.9 C20,31.9 20,31.9 19.9,31.9 Z" id="Shape"></path>
                    <path d="M11.1,16.4 C11.4,16.6 11.6,16.4 11.7,16.2 C11.8,16.1 11.8,15.9 11.7,15.8 C11.6,15.6 11.8,15.5 12,15.5 C12.3,15.4 12.5,15.2 12.8,15 C13.3,14.8 13.9,14.8 14.4,15 C14.8,15.2 15.2,15.1 15.5,14.8 C15.7,14.5 16,14.3 16.3,14.2 C16.5,14.1 15.9,13.6 15.5,14.2 C15.1,14.8 14.8,14.8 14.6,14.8 C14.4,14.8 13.2,14.5 13,14.1 C12.8,13.7 13.4,13.4 13.8,13.2 C14.5,13 15.1,12.9 15.8,12.9 C16.4,12.8 17.3,12.4 17.7,12.7 C18.1,13 16,13.5 16.7,13.8 C16.9,13.9 18.1,13.1 18.5,13 C19.4,12.5 17.6,12.4 17.8,11.4 C18,10.4 15.7,10.7 14.5,10.8 C13.9,11.2 13.4,11.6 12.8,12.1 C12.9,12.1 13.1,12.2 13.1,12.3 C13.1,12.5 13.1,12.8 12.9,13 C12.6,13.3 12.2,13.5 11.8,13.5 C11.7,13.5 11.7,13.5 11.6,13.4 C11.4,13.6 11.2,13.9 11.1,14.2 C11.3,14 11.6,14 11.9,13.9 C12.2,13.9 12.5,14 12.6,14.2 C12.7,14.4 11.9,14.7 11.8,14.8 C11.4,15.1 10.9,15.8 10.5,15.9 C10.4,15.9 10.3,15.9 10.3,15.9 C10.2,16.1 10.1,16.4 10,16.6 C10.3,16.4 10.7,16.3 11.1,16.4 Z" id="Path"></path>
                    <path d="M28.5,19.4 C28.2,19.6 27.8,19.8 27.4,19.8 C27,20.1 26.8,20.6 26.8,21.1 C26.9,21.5 27.8,22.6 27.1,22.6 C26.4,22.3 25.9,21.8 25.5,21.2 C25.3,20.6 25,20 24.9,19.6 C24.8,19.3 24.4,19.1 24.1,19.2 C24,19.2 24,19.3 23.9,19.3 C23.5,19.6 24,19.8 23.7,20.4 C23.4,21 23.2,21.4 22.8,21 C21.8,19.8 20.3,20.4 20,19.1 C19.9,18.4 19.3,18.4 18.8,18.1 C18.3,17.8 18,17.5 17.9,17.8 C17.8,18.1 19.5,19.4 19.6,19.8 C19.8,20.3 19.1,20.8 18.6,20.9 C18.1,21 17.9,20.6 17.4,20.1 C16.9,19.6 16.7,19.2 16.7,19.6 C16.7,20.3 17.1,21 17.7,21.4 C18.1,21.7 18.6,21.8 18.5,22.2 C18.4,22.6 18.5,22.4 18,22.9 C17.6,23.2 17.4,23.7 17.5,24.2 C17.5,24.9 17.4,24.9 17.3,25.4 C17.2,25.9 17,25.5 16.7,26.3 C16.6,26.8 16.4,27.2 16,27.5 C15.6,27.9 15.1,28 14.6,28.1 C14.1,28.1 14,26.8 14,26.1 C14,25.9 13.7,26.5 13.5,25.2 C13.4,24.3 12.8,25.3 12.8,24.7 C12.8,24.1 12.5,24.2 12.2,23.9 C11.9,23.6 11.5,23.9 11.1,24.1 C10.7,24.3 10.9,24.4 10.3,24.2 L10.3,24.2 C11.5,27.1 14,29.4 17,30.3 C16.8,30.2 16.8,30 16.9,29.8 C17.3,29 18.1,28.6 19,28.6 C20.7,28.4 23,29.7 23.3,29.5 C23.6,29.3 24.4,28.3 25.4,28.3 C25.8,28.3 26.1,28.4 26.4,28.5 C26.8,28.2 27.1,27.9 27.5,27.6 C27.4,27.6 27.3,27.5 27.2,27.5 C26.6,27.2 26.7,27.7 26.4,27.6 C26.1,27.5 26.7,26.8 25.9,27.4 C25.1,28 25.3,27.3 24.9,26.4 C24.7,25.5 25.1,24.5 26,24.1 C26.6,23.9 27.3,23.7 27.9,23.6 C29.2,23.3 29.4,22.5 29.7,23 C29.7,23.1 29.8,23.2 29.8,23.2 C29.9,23.4 29.9,23.6 30,23.8 C30.2,23.3 30.3,22.8 30.4,22.2 C30.1,22.1 29,20.5 29.9,19.4 C30.1,19.2 29.6,18.7 29.7,18.7 C30.1,18.7 30.5,18.9 30.6,19.3 C30.6,18.7 30.5,18.2 30.4,17.7 C30.4,17.9 30.4,18 30.4,18.1 C30.3,18.5 29.9,18.7 29.6,18.6 C29.4,18.6 29.2,18.4 29.1,18.2 C29,18 28.5,17.6 28.5,18.4 C28.5,19.2 29.2,18.9 28.5,19.4 Z M18.5,23.5 C18.4,23.7 17.9,25.5 17.7,25.3 C17.5,25.1 17.8,23.2 17.9,23.1 C18.3,22.4 19.2,22.4 18.5,23.5 L18.5,23.5 Z M22.8,21.4 C22.5,21.6 22.1,21.5 21.8,21.3 C21.5,21.1 22,20.8 22.1,20.7 C22.5,20.7 23.1,21.2 22.8,21.4 L22.8,21.4 Z M27.2,21 C27.1,20.9 27.2,20.8 27.3,20.7 C27.4,20.6 27.5,20.7 27.6,20.7 C27.8,20.8 28,21 28.1,21.3 C28.1,21.5 27.7,21.5 27.6,21.4 C27.5,21.3 27.3,21.3 27.2,21 L27.2,21 Z M28.6,22.4 C28.3,22.5 27.9,22.5 27.6,22.3 C27.3,22.1 27.8,21.8 27.9,21.7 C28.3,21.8 28.9,22.3 28.6,22.4 L28.6,22.4 Z" id="Shape"></path>
                    <path d="M10.7,17.6 C11.3,17.7 11.9,17.8 12.4,18 C13,18.2 14,18.8 14.5,18.5 C15.1,18.3 15.2,18.1 15.2,17.8 C15.2,17.5 14.8,17.3 14.4,17.6 C14.3,17.7 14,17 13.7,17 C13.4,17 14,17.9 13.8,17.9 C13.6,17.9 13.2,17 13.1,16.9 C13,16.8 12.7,16.4 12.4,16.7 C11.8,17.3 10.8,17.2 10.6,17.4 C10.5,17.5 10.5,17.5 10.4,17.5 C10,17.7 9.9,17.2 9.8,16.9 C9.6,17.5 9.5,18.1 9.4,18.7 L9.4,18.6 C9.7,17.9 9.8,17.9 9.9,17.8 C10,17.7 10.2,17.7 10.3,17.6 L10.7,17.6 Z" id="Path"></path>
                </g>
                <g>
                    <path d="M10,17.1 C10.7,17.1 11,16.6 11,16 L11,10 C11,9.3 10.7,8.8 10,8.8 C9.3,8.8 9,9.3 9,10 L9,16 C9.1,16.6 9.4,17.1 10,17.1 Z" id="Path"></path>
                    <polygon id="Path" points="22.6 10.5 22.6 10.5 21.9 15 23.3 15"></polygon>
                    <path d="M17.4,15.9 L17.4,10 C17.5,9.5 17.1,9 16.5,8.9 C16.4,8.9 16.4,8.9 16.3,8.9 L15.5,8.9 L15.5,17 L16.3,17 C17.1,17 17.4,16.5 17.4,15.9 Z" id="Path"></path>
                    <path d="M3.9,0.4 L3.9,35.7 L29.2,35.7 L29.2,0.4 L3.9,0.4 Z M21.6,7.4 L23.7,7.4 L25.8,18.5 L23.9,18.5 L23.6,16.5 L21.6,16.5 L21.3,18.5 L19.6,18.5 L21.6,7.4 Z M13.6,7.4 L16.5,7.4 C18.5,7.4 19.2,8.7 19.2,10.4 L19.2,15.5 C19.2,17.2 18.5,18.5 16.5,18.5 L13.7,18.5 L13.6,7.4 Z M7.2,10.2 C7.2,8.5 8.1,7.2 10,7.2 C11.9,7.2 12.8,8.5 12.8,10.2 L12.8,15.6 C12.8,17.3 11.9,18.6 10,18.6 C8.1,18.6 7.2,17.3 7.2,15.6 L7.2,10.2 Z M26.1,31 C26.1,31.1 26,31.2 25.9,31.2 L7.1,31.2 C7,31.2 7,31.1 7,31 L7,28 C7,27.9 7.1,27.8 7.2,27.8 C7.2,27.8 7.2,27.8 7.2,27.8 L26,27.8 C26.1,27.8 26.2,27.9 26.2,28 L26.2,28 L26.2,31 L26.1,31 Z M26.1,25.8 C26.1,25.9 26,26 25.9,26 L25.9,26 L7.1,26 C7,26 6.9,25.9 6.9,25.8 L6.9,25.8 L6.9,22.8 C6.9,22.7 7,22.6 7.1,22.6 L25.9,22.6 C26,22.6 26.1,22.7 26.1,22.8 L26.1,25.8 L26.1,25.8 Z" id="Shape"></path>
                    <polygon id="Path" points="1.9 4.7 0.1 4.7 0.1 40 25.4 40 25.4 37.8 1.9 37.8"></polygon>
                </g>
                <path d="M53.1,57.5 L44,64.7 C43.9,64.8 43.8,64.8 43.6,64.8 C43.4,64.7 43.3,64.6 43.3,64.4 L43.3,60.8 L20.1,60.8 C19.9,60.8 19.8,60.6 19.8,60.4 L19.8,54.2 C19.8,54 19.9,53.8 20.1,53.8 L43.3,53.8 L43.3,50.2 C43.3,49.9 43.4,49.8 43.6,49.8 C43.7,49.8 43.9,49.8 44,49.9 L53,56.8 C53.2,56.9 53.3,57.1 53.3,57.3 C53.2,57.3 53.2,57.4 53.1,57.5 Z" id="Path"></path>
            </g>
        </g>
    </g>
</svg>