<?xml version="1.0" encoding="UTF-8"?>
<svg width="95px" height="95px" viewBox="0 0 95 95" version="1.1" xmlns="http://www.w3.org/2000/svg" xmlns:xlink="http://www.w3.org/1999/xlink">
    <!-- Generator: Sketch 53.2 (72643) - https://sketchapp.com -->
    <title>goal_12_target_12_a</title>
    <desc>Created with Sketch.</desc>
    <g id="goal_12_target_12_a" stroke="none" stroke-width="1" fill="none" fill-rule="evenodd">
        <g id="Group-101" fill-rule="nonzero">
            <rect id="Rectangle" fill="#BF8B2E" x="-3.62376795e-13" y="-2.13162821e-14" width="94.8" height="94.8"></rect>
            <g id="Group" transform="translate(17.700000, 11.000000)" fill="#FFFFFF">
                <path d="M60.2,56.5 L58.7,55.8 C58.2,55.6 57.9,55.1 57.9,54.5 C57.9,54.2 57.9,53.9 57.9,53.6 L57.9,52.6 C57.9,52 58.2,51.5 58.7,51.3 L60.2,50.6 C60.8,50.4 61.1,49.8 60.9,49.2 C60.9,49.2 60.9,49.1 60.8,49.1 C60.5,47.9 60,46.8 59.4,45.8 C59.2,45.3 58.6,45 58.1,45.2 C58.1,45.2 58,45.2 58,45.2 L56.4,45.8 C55.9,46 55.3,45.9 54.9,45.5 L54.3,44.9 L53.7,44.3 C53.2,43.9 53.1,43.3 53.3,42.7 C53.5,42.2 53.7,41.6 53.8,41.1 C54,40.6 53.8,40 53.3,39.8 C53.3,39.8 53.3,39.8 53.3,39.8 C52.2,39.3 51,38.9 49.9,38.4 C49.4,38.2 48.8,38.4 48.6,38.9 C48.6,38.9 48.6,38.9 48.6,38.9 C48.3,39.5 48.1,40 47.8,40.6 C47.6,41 47.2,41.3 46.7,41.3 L44.7,41.3 C44.1,41.3 43.6,41 43.4,40.5 C43.2,40 42.9,39.4 42.6,38.9 C42.4,38.4 41.9,38.2 41.4,38.3 C40.1,38.6 38.9,39.1 37.8,39.8 C37.3,40 37.1,40.6 37.3,41.1 C37.5,41.6 37.7,42.1 37.9,42.7 C38.2,43.3 38,43.9 37.5,44.3 L36.8,45 L36.2,45.6 C35.8,46 35.2,46.2 34.7,46 L33,45.5 C32.5,45.3 31.9,45.5 31.7,46.1 C31.7,46.1 31.7,46.1 31.7,46.1 C31.2,47.2 30.8,48.3 30.3,49.4 C30,49.9 30.2,50.5 30.7,50.8 C30.7,50.8 30.8,50.9 30.9,50.9 L32.5,51.7 C33,51.9 33.3,52.3 33.3,52.9 C33.3,53.2 33.3,53.6 33.3,53.9 C33.3,54.2 33.3,54.6 33.3,54.9 C33.3,55.5 33,56 32.5,56.2 L31,57 C30.5,57.2 30.2,57.7 30.4,58.3 C30.4,58.3 30.4,58.4 30.5,58.4 C30.8,59.6 31.3,60.7 31.9,61.8 C32.1,62.3 32.7,62.6 33.2,62.3 C33.2,62.3 33.3,62.3 33.3,62.3 C33.8,62.1 34.4,61.9 35,61.7 C35.5,61.5 36.1,61.6 36.4,62 C36.8,62.4 37.3,62.9 37.7,63.3 C38.1,63.7 38.3,64.3 38.1,64.8 C37.9,65.4 37.7,65.9 37.5,66.5 C37.3,67 37.6,67.6 38.1,67.8 C38.1,67.8 38.1,67.8 38.1,67.8 L41.5,69.2 C42,69.4 42.6,69.2 42.8,68.7 C42.8,68.7 42.8,68.7 42.8,68.7 C43.1,68.2 43.3,67.6 43.6,67.1 C43.8,66.6 44.3,66.3 44.8,66.3 L46,66.3 L46.5,66.3 C47,66.3 47.5,66.6 47.7,67.1 C47.9,67.6 48.2,68.2 48.5,68.7 C48.7,69.2 49.2,69.5 49.8,69.3 C51.1,69 52.3,68.4 53.4,67.8 C53.8,67.6 54,67.2 53.9,66.8 C53.9,66.7 53.9,66.6 53.8,66.5 C53.6,66 53.4,65.5 53.2,64.9 C52.9,64.3 53.1,63.7 53.6,63.3 C54,62.9 54.4,62.5 54.8,62.1 C55.2,61.7 55.8,61.5 56.3,61.8 L57.9,62.4 C58.4,62.6 59,62.4 59.2,61.9 C59.2,61.9 59.2,61.8 59.2,61.8 C59.6,60.7 60.1,59.6 60.5,58.5 C60.8,58 60.6,57.4 60.1,57.1 C60.3,56.6 60.2,56.5 60.2,56.5 Z M45.6,61 C41.6,61 38.3,57.7 38.3,53.7 C38.3,49.7 41.6,46.4 45.6,46.4 C49.6,46.4 52.9,49.7 52.9,53.7 C52.9,57.7 49.6,61 45.6,61 L45.6,61 Z" id="Shape"></path>
                <path d="M5.7,66.2 C-1.2,60.3 0.6,53.2 1.4,50.5 C9.2,64.1 24.1,66.2 24.1,66.2 C24.1,66.2 4.4,55.2 0.9,39.6 C0.6,38.4 3.7,37.4 4.1,38.9 C4.8,41.6 5.9,44.3 7.3,46.8 C11.5,46.1 18.5,45.6 22.6,49.8 C28.1,55.4 25.7,65.2 33.8,71.6 C35.7,73.1 15,74.2 5.7,66.2 Z" id="Path"></path>
                <g transform="translate(3.000000, 0.000000)">
                    <path d="M44.1,19.5 C44.1,18.9 43.6,18.5 43,18.5 L41.4,18.5 C40.8,18.5 40.2,18.3 40.1,17.7 C39.9,16.6 39.5,15.6 39.1,14.6 C38.9,14 39,13.4 39.5,13 C40,12.6 40.4,12.3 40.8,11.8 C41.2,11.5 41.3,10.9 41,10.4 C40.3,9.2 39.5,8 38.5,7 C38.1,6.6 37.4,6.5 37,6.9 C37,6.9 37,6.9 37,6.9 C36.5,7.2 36.1,7.5 35.7,7.8 C35.3,8.1 34.7,8.3 34.2,7.9 C33.3,7.2 32.2,6.4 31.5,6 C31,5.7 30.7,5.1 30.9,4.5 C31.1,3.9 31.2,3.4 31.3,2.8 C31.4,2.3 31.2,1.7 30.7,1.5 C29.4,0.9 28.1,0.5 26.7,0.3 C26.1,0.2 25.5,0.5 25.4,1.1 C25.2,1.7 25,2.1 24.9,2.6 C24.8,3.1 24.4,3.6 23.7,3.6 C22.4,3.6 21.4,3.6 20.4,3.6 C19.8,3.7 19.3,3.3 19.1,2.8 C18.9,2.2 18.7,1.7 18.4,1.1 C18.2,0.6 17.7,0.3 17.1,0.4 C15.7,0.7 14.4,1.1 13.2,1.7 C12.7,1.9 12.4,2.5 12.6,3.1 C12.8,3.7 12.9,4.1 13.1,4.7 C13.3,5.3 13.3,5.9 12.8,6.2 C12.3,6.5 10.9,7.5 10.2,8.2 C9.7,8.6 9.1,8.6 8.6,8.3 C8.1,8 7.6,7.7 7.1,7.4 C6.6,7.1 6,7.2 5.7,7.6 C4.8,8.6 4,9.8 3.3,11 C3,11.5 3.1,12.2 3.6,12.5 C4.1,12.9 4.4,13.1 4.9,13.5 C5.4,13.9 5.7,14.3 5.5,14.9 C5.3,15.5 4.7,17.4 4.5,18 C4.4,18.6 3.9,19 3.2,19.1 C2.6,19.1 2.1,19.2 1.4,19.2 C0.9,19.2 0.4,19.7 0.4,20.2 C0.2,21.6 0.3,23 0.5,24.4 C0.5,25 1,25.4 1.6,25.4 L3,25.4 C3.6,25.4 4.1,25.6 4.3,26.2 C4.6,27.3 4.9,28.3 5.3,29.3 C5.5,29.9 5.4,30.5 4.9,30.9 C4.4,31.3 4,31.6 3.5,32.1 C3.1,32.4 3,33 3.2,33.5 C3.9,34.7 4.7,35.8 5.7,36.8 C6.1,37.2 6.7,37.3 7.2,36.9 L8.5,36 C9,35.6 9.5,35.5 10,35.9 C10.5,36.3 12,37.4 12.7,37.8 C13.2,38.1 13.5,38.7 13.3,39.3 C13.1,39.9 13,40.4 12.9,41 C12.7,41.5 13,42.1 13.5,42.3 C14.8,42.9 16.1,43.3 17.5,43.5 C18.1,43.6 18.6,43.3 18.8,42.7 C19,42.1 19.2,41.7 19.3,41.2 C19.4,40.7 19.8,40.2 20.5,40.2 C21.7,40.2 22.7,40.2 23.8,40.2 C24.4,40.1 25,40.5 25.2,41.1 C25.4,41.7 25.6,42.2 25.9,42.8 C26.1,43.3 26.6,43.6 27.2,43.5 C28.6,43.2 29.9,42.8 31.1,42.2 C31.6,42 31.9,41.4 31.7,40.8 C31.7,40.8 31.7,40.8 31.7,40.8 C31.5,40.2 31.4,39.8 31.2,39.2 C31,38.6 31,38 31.6,37.7 C32.2,37.4 33.7,36.2 34.2,35.7 C34.7,35.3 35.3,35.2 35.8,35.6 C36.3,35.9 36.8,36.2 37.3,36.5 C37.8,36.8 38.4,36.7 38.7,36.3 C39.6,35.3 40.4,34.1 41.1,32.9 C41.4,32.4 41.3,31.7 40.8,31.4 C40.3,31 40,30.7 39.5,30.4 C39,30.1 38.7,29.6 38.9,29 C39.1,28.4 39.7,26.7 39.9,25.9 C40,25.3 40.6,24.9 41.1,24.9 C41.7,24.9 42.3,24.8 42.9,24.8 C43.4,24.8 43.9,24.3 43.9,23.8 C44.3,22.2 44.3,20.8 44.1,19.5 Z M22.2,35.6 C14.7,35.6 8.6,29.5 8.6,22 C8.6,14.5 14.7,8.4 22.2,8.4 C29.7,8.4 35.8,14.5 35.8,22 C35.9,29.6 29.8,35.6 22.2,35.6 Z" id="Shape"></path>
                    <path d="M12.2,18.1 C12.5,18.3 12.7,18.1 12.9,17.9 C13,17.8 13,17.6 12.9,17.4 C12.8,17.2 13.1,17.1 13.2,17.1 C13.3,17.1 13.9,16.7 14.1,16.6 C14.7,16.4 15.3,16.4 15.9,16.6 C16.3,16.8 16.8,16.7 17.1,16.4 C17.3,16.1 17.6,15.9 18,15.7 C18.2,15.6 17.6,15.1 17.1,15.7 C16.6,16.3 16.3,16.4 16.1,16.4 C15.9,16.4 14.5,16.1 14.3,15.6 C14.1,15.1 14.7,14.8 15.3,14.6 C16,14.4 16.8,14.3 17.6,14.3 C18.3,14.1 19.3,13.8 19.7,14.1 C20.1,14.4 17.7,14.9 18.5,15.4 C18.8,15.6 20.1,14.7 20.5,14.4 C21.5,13.9 19.5,13.7 19.8,12.6 C20.1,11.5 17.4,11.8 16,11.9 C15.3,12.3 14.7,12.8 14.1,13.3 C14.3,13.3 14.4,13.4 14.5,13.5 C14.5,13.8 14.5,14 14.3,14.3 C14,14.6 13.5,14.8 13,14.9 C12.9,14.9 12.8,14.9 12.8,14.8 C12.6,15.1 12.4,15.4 12.2,15.7 C12.5,15.5 12.8,15.4 13.1,15.4 C13.4,15.4 13.8,15.5 13.9,15.7 C14,15.9 13.1,16.3 13,16.4 C12.6,16.8 11.9,17.6 11.6,17.6 C11.5,17.6 11.4,17.6 11.3,17.6 C11.1,17.8 11,18 11,18.3 C11.3,18 11.8,18 12.2,18.1 Z" id="Path"></path>
                    <path d="M31.9,21.4 C31.5,21.7 31.1,21.8 30.6,21.9 C30.2,22.2 29.9,22.8 30,23.3 C30.1,23.8 31.2,25 30.4,25 C29.6,24.6 29,24.1 28.5,23.4 C28.3,22.7 28,22.1 27.8,21.6 C27.7,21.2 27.3,21 26.9,21.2 C26.8,21.2 26.7,21.3 26.7,21.3 C26.3,21.6 26.8,21.9 26.5,22.5 C26.2,23.1 26,23.7 25.5,23.2 C24.3,21.9 22.6,22.5 22.4,21 C22.3,20.2 21.6,20.3 21,19.8 C20.4,19.3 20.1,19.1 20,19.4 C19.9,19.7 21.8,21.2 22,21.6 C22.2,22.2 21.4,22.7 20.8,22.8 C20.2,22.9 20,22.5 19.4,21.9 C18.8,21.3 18.6,20.9 18.6,21.4 C18.6,22.2 19,22.9 19.7,23.4 C20.2,23.7 20.7,23.9 20.6,24.4 C20.5,24.9 20.6,24.6 20.1,25.2 C19.6,25.5 19.4,26.1 19.5,26.7 C19.5,27.5 19.3,27.5 19.2,28.1 C19.1,28.7 18.8,28.2 18.6,29.1 C18.5,29.7 18.2,30.2 17.9,30.6 C17.4,31 16.9,31.2 16.3,31.2 C15.8,31.2 15.7,29.7 15.7,29 C15.7,28.7 15.3,29.5 15.2,27.9 C15.1,26.9 14.4,28 14.4,27.3 C14.4,26.6 14,26.8 13.7,26.4 C13.4,26 12.9,26.4 12.5,26.6 C12.1,26.8 12.2,26.9 11.6,26.7 L11.6,26.7 C13,30 15.8,32.5 19.3,33.6 C19.1,33.5 19.1,33.2 19.2,33 C19.7,32.1 20.6,31.6 21.5,31.6 C23.4,31.4 26,32.9 26.4,32.6 C26.8,32.3 27.6,31.3 28.8,31.3 C29.2,31.3 29.6,31.4 29.9,31.6 C30.3,31.3 30.7,31 31.1,30.6 C31,30.6 30.9,30.5 30.7,30.5 C30,30.2 30.1,30.7 29.8,30.6 C29.5,30.5 30.2,29.7 29.2,30.4 C28.2,31.1 28.5,30.3 28.1,29.2 C27.8,28.2 28.3,27.1 29.3,26.6 C30,26.4 30.7,26.2 31.5,26 C32.9,25.6 33.2,24.8 33.5,25.3 C33.5,25.4 33.6,25.5 33.6,25.6 C33.7,25.8 33.8,26.1 33.8,26.3 C34,25.7 34.2,25.1 34.3,24.5 C34,24.4 32.7,22.5 33.7,21.3 C33.9,21.1 33.3,20.5 33.5,20.5 C34,20.5 34.4,20.8 34.5,21.2 C34.5,20.6 34.4,20 34.3,19.3 C34.3,19.4 34.3,19.6 34.3,19.7 C34.1,20.1 33.7,20.3 33.3,20.1 C33.1,20 33,19.9 32.9,19.8 C32.5,19.7 32,19.2 32,20 C32,20.8 32.7,20.9 31.9,21.4 Z M20.7,26.1 C20.5,26.4 20.1,28.4 19.8,28.1 C19.5,27.8 19.9,25.8 20,25.6 C20.4,24.8 21.5,24.9 20.7,26.1 Z M25.6,23.8 C25.2,24 24.8,23.9 24.5,23.7 C24.2,23.5 24.7,23.1 24.9,23.1 C25.2,23 25.8,23.6 25.6,23.8 Z M30.6,23.3 C30.5,23.2 30.6,23 30.7,22.9 C30.8,22.9 30.9,22.9 31,22.9 C31.3,23 31.5,23.3 31.6,23.6 C31.6,23.8 31.1,23.8 31,23.7 C30.9,23.6 30.6,23.6 30.6,23.3 L30.6,23.3 Z M32.2,24.9 C31.8,25.1 31.4,25.1 31,24.8 C30.7,24.6 31.2,24.2 31.4,24.2 C31.8,24.1 32.4,24.7 32.2,24.9 L32.2,24.9 Z" id="Shape"></path>
                    <path d="M11.8,19.5 C12.5,19.6 13.2,19.8 13.8,20 C14.5,20.3 15.6,20.8 16.2,20.6 C16.7,20.4 17,20.2 17,19.8 C17,19.4 16.6,19.2 16.1,19.5 C15.9,19.6 15.6,18.8 15.3,18.8 C15,18.8 15.6,19.8 15.4,19.8 C15.2,19.8 14.7,18.8 14.6,18.6 C14.5,18.4 14.1,18 13.8,18.3 C13.1,19 12,19 11.7,19.1 C11.6,19.2 11.5,19.2 11.5,19.2 C11,19.4 10.9,18.9 10.9,18.5 C10.7,19.2 10.6,19.8 10.5,20.5 L10.6,20.4 C11,19.7 11.1,19.6 11.2,19.5 C11.3,19.4 11.5,19.4 11.7,19.3 L11.8,19.5 Z" id="Path"></path>
                </g>
            </g>
        </g>
    </g>
</svg>