<?xml version="1.0" encoding="UTF-8"?>
<svg width="95px" height="95px" viewBox="0 0 95 95" version="1.1" xmlns="http://www.w3.org/2000/svg" xmlns:xlink="http://www.w3.org/1999/xlink">
    <!-- Generator: Sketch 53.2 (72643) - https://sketchapp.com -->
    <title>goal_3_target_3_7</title>
    <desc>Created with Sketch.</desc>
    <g id="goal_3_target_3_7" stroke="none" stroke-width="1" fill="none" fill-rule="evenodd">
        <rect id="Rectangle" fill="#4C9F38" fill-rule="nonzero" x="0" y="0" width="94.8" height="94.8"></rect>
        <g id="Group" transform="translate(8.700000, 7.000000)">
            <path d="M12.2,57.2 C12.8,57.6 13.4,57.9 14.1,58.1 L14.4,57.2 C13.8,57 13.3,56.7 12.8,56.4 L12.2,57.2 Z" id="Path"></path>
            <path d="M16.1,57.4 L16.1,58.4 C16.8,58.4 17.5,58.3 18.2,58.1 L17.9,57.1 C17.3,57.3 16.7,57.4 16.1,57.4 Z" id="Path"></path>
            <path d="M19.5,56.3 L20.1,57.1 C20.7,56.7 21.2,56.2 21.6,55.6 L20.8,55 C20.4,55.6 20,56 19.5,56.3 Z" id="Path"></path>
            <path d="M12.1,46.3 C11.5,46.7 11,47.2 10.6,47.8 L11.4,48.4 C11.8,47.9 12.2,47.5 12.7,47.1 L12.1,46.3 Z" id="Path"></path>
            <path d="M21.6,53.5 L22.6,53.8 C22.8,53.1 22.9,52.4 22.9,51.7 L22.6,51.7 L21.9,51.7 C21.9,52.3 21.8,52.9 21.6,53.5 Z" id="Path"></path>
            <path d="M16.1,46 L16.1,45 C15.4,45 14.7,45.1 14,45.3 L14.3,46.3 C14.9,46.1 15.5,46 16.1,46 Z" id="Path"></path>
            <path d="M20,46.2 C19.4,45.8 18.8,45.5 18.1,45.3 L17.8,46.3 C18.4,46.5 18.9,46.7 19.4,47.1 L20,46.2 Z" id="Path"></path>
            <path d="M9.7,53.8 C9.9,54.5 10.3,55.1 10.7,55.7 L11.5,55.1 C11.1,54.6 10.9,54.1 10.7,53.5 L9.7,53.8 Z" id="Path"></path>
            <path d="M10.6,50 L9.6,49.7 C9.4,50.3 9.3,51 9.3,51.7 L9.3,51.7 L10.3,51.7 C10.4,51.1 10.5,50.5 10.6,50 Z" id="Path"></path>
            <path d="M19.8,51.1 C19.8,49.9 19.2,48.8 17.9,48.8 C17,48.8 16.4,49.9 16,50.3 C15.6,49.9 15.2,48.8 14.2,48.8 C13.1,48.8 12.2,49.8 12.3,50.9 C12.3,51 12.3,51 12.3,51.1 C12.3,51.7 12.5,52.3 12.9,52.7 L16,55.8 L19.1,52.7 L19.1,52.7 C19.6,52.3 19.8,51.7 19.8,51.1 Z" id="Path"></path>
            <path d="M20.7,48.3 C21.1,48.8 21.3,49.3 21.5,49.9 L22.4,49.6 C22.2,48.9 21.8,48.3 21.4,47.7 L20.7,48.3 Z" id="Path"></path>
            <path d="M61.6,43.8 C61.1,43.9 60.7,44.3 60.8,44.8 C60.8,45.2 61.2,45.6 61.6,45.6 C62.1,45.7 62.6,45.3 62.6,44.8 C62.7,44.3 62.3,43.8 61.8,43.8 C61.7,43.8 61.6,43.8 61.6,43.8 Z" id="Path"></path>
            <path d="M61.6,36.8 C61.1,36.8 60.7,37.2 60.7,37.7 C60.7,38.2 61.1,38.6 61.6,38.6 C62.1,38.6 62.5,38.2 62.5,37.7 C62.5,37.2 62.1,36.8 61.6,36.8 L61.6,36.8 Z" id="Path"></path>
            <path d="M61.6,51.1 C61.1,51.1 60.7,51.5 60.7,52 C60.7,52.5 61.1,52.9 61.6,52.9 C62.1,52.9 62.5,52.5 62.5,52 C62.5,51.5 62.1,51.1 61.6,51.1 L61.6,51.1 Z" id="Path"></path>
            <path d="M50.5,6 C50.4,5.8 47.5,1.7 41.4,3.5 C41.4,3.5 41.2,3.6 40.8,3.7 C40.3,3.9 39.9,4.1 39.5,4.4 C38.1,5.2 37.1,6.7 36.9,8.3 C36.5,11.5 39,13.3 39.9,13.9 C40.1,14 40.2,14.1 40.2,14.1 C40.5,14.3 40.9,14.4 41.2,14.5 C42.7,15 44.3,15.1 45.8,14.7 L46.1,14.6 L48.5,16.1 L48.5,13.8 L48.8,13.6 C50.1,12.7 51.1,11.3 51.5,9.8 C51.7,8.5 51.4,7.1 50.5,6 Z" id="Path"></path>
            <path d="M35.4,8.2 C35.6,6.3 36.7,4.6 38.2,3.5 C37.5,3.1 36.8,2.7 36,2.5 C34.8,2.1 33.6,1.9 32.3,1.9 C29.4,1.8 26.6,3.2 24.8,5.5 C23.8,6.8 23.3,8.6 23.6,10.2 C24.1,12.1 25.3,13.8 26.9,14.9 L27.2,15.1 L27.1,18.1 L30.2,16.2 L30.5,16.3 C33.2,17.3 36.9,15.8 37.4,15.6 C37.8,15.4 38.2,15.1 38.6,14.8 C36.5,13.4 35.2,10.9 35.4,8.2 Z" id="Path"></path>
            <path d="M49.9,14.5 C51.4,13.4 52.4,11.8 52.9,10 C53.2,8.3 52.8,6.5 51.7,5.1 C51.7,5.1 48.1,-0.1 41,2.1 C40.5,2.3 40,2.4 39.6,2.7 C38.6,2 37.6,1.5 36.5,1.2 C28,-1.4 23.7,4.7 23.7,4.8 C22.4,6.5 21.9,8.6 22.3,10.6 C22.8,12.8 24.1,14.6 25.9,16 L25.8,20.8 L30.6,17.9 C33.8,18.9 37.6,17.3 38.3,17 C39,16.6 39.6,16.2 40.2,15.7 C42.1,16.5 44.1,16.7 46.1,16.3 L50.1,18.8 L49.9,14.5 Z M37.5,15.6 C37,15.8 33.4,17.3 30.6,16.3 L30.3,16.2 L27.2,18.1 L27.3,15.1 L27,15 C25.4,13.9 24.2,12.2 23.7,10.3 C23.4,8.6 23.9,6.9 24.9,5.6 C26.7,3.3 29.4,1.9 32.4,2 C33.7,2 34.9,2.2 36.1,2.6 C36.9,2.8 37.6,3.2 38.3,3.6 C36.7,4.7 35.7,6.4 35.5,8.3 C35.3,11 36.5,13.6 38.8,15 C38.4,15.2 38,15.4 37.5,15.6 Z M48.8,13.6 L48.5,13.8 L48.5,16.1 L46.1,14.6 L45.8,14.7 C44.3,15.1 42.7,15 41.2,14.5 C40.9,14.4 40.5,14.3 40.2,14.1 C40.2,14.1 40,14 39.9,13.9 C39,13.3 36.5,11.5 36.9,8.3 C37.1,6.7 38.1,5.2 39.5,4.4 C39.9,4.1 40.4,3.9 40.8,3.7 C41.2,3.5 41.4,3.5 41.4,3.5 C47.5,1.7 50.4,5.8 50.5,6 C51.3,7.1 51.7,8.5 51.5,9.8 C51.1,11.3 50.2,12.7 48.8,13.6 L48.8,13.6 Z" id="Shape" fill="#FFFFFF" fill-rule="nonzero"></path>
            <path d="M16.1,26.1 C19.1,26.1 21.6,23.6 21.6,20.6 C21.6,17.6 19.1,15.1 16.1,15.1 C13.1,15.1 10.6,17.6 10.6,20.6 C10.6,23.7 13,26.1 16.1,26.1 L16.1,26.1 Z" id="Path" fill="#FFFFFF" fill-rule="nonzero"></path>
            <path d="M27.1,33.1 C27.1,33.1 25.5,28.8 21.9,28.8 L10.2,28.8 C6.6,28.8 5,33.1 5,33.1 L0.4,48 C0.4,48 -0.4,50.7 1.9,51.4 C4.2,52.1 4.9,49.4 4.9,49.4 L8.6,37 C8.6,37 8.8,36 9.5,36.3 C10.2,36.6 10,37.5 10,37.5 L3.6,60.7 L9.6,60.7 L9.6,77.4 C9.7,79 11.1,80.2 12.6,80.1 C14.1,80 15.2,78.9 15.3,77.4 L15.3,60.7 L16.9,60.7 L16.9,77.4 C17,79 18.4,80.2 19.9,80.1 C21.4,80 22.5,78.9 22.6,77.4 L22.6,60.7 L28.6,60.7 L22.2,37.4 C22.2,37.4 21.9,36.4 22.6,36.2 C23.3,36 23.5,36.9 23.5,36.9 L27.2,49.3 C27.2,49.3 27.9,52 30.2,51.3 C32.5,50.6 31.7,47.9 31.7,47.9 L27.1,33.1 Z M18.1,45.3 C18.8,45.5 19.4,45.8 20,46.2 L19.4,47 C18.9,46.6 18.4,46.4 17.8,46.2 L18.1,45.3 Z M16,45 L16,46 C15.4,46 14.8,46.1 14.2,46.3 L13.9,45.3 C14.6,45.1 15.3,45 16,45 Z M9.4,51.8 L9.4,51.8 C9.4,51.1 9.5,50.4 9.7,49.8 L10.7,50.1 C10.5,50.7 10.4,51.2 10.4,51.8 L9.4,51.8 Z M10.7,55.8 C10.3,55.2 9.9,54.6 9.7,53.9 L10.7,53.6 C10.9,54.2 11.2,54.7 11.5,55.2 L10.7,55.8 Z M11.4,48.4 L10.6,47.8 C11,47.2 11.5,46.7 12.1,46.3 L12.7,47.1 C12.2,47.5 11.8,47.9 11.4,48.4 L11.4,48.4 Z M14,58.2 C13.3,58 12.7,57.7 12.1,57.3 L12.7,56.5 C13.2,56.8 13.7,57.1 14.3,57.3 L14,58.2 Z M16.1,58.5 L16.1,57.5 C16.7,57.5 17.3,57.4 17.9,57.2 L18.2,58.2 C17.5,58.4 16.8,58.5 16.1,58.5 L16.1,58.5 Z M16.1,55.9 L13,52.7 C12.6,52.3 12.3,51.7 12.4,51.1 C12.2,50 13,49 14.1,48.8 C14.2,48.8 14.2,48.8 14.3,48.8 C15.3,48.8 15.8,49.9 16.1,50.3 C16.5,49.9 17.1,48.8 18,48.8 C19.2,48.8 19.9,49.8 19.9,51.1 C19.9,51.7 19.7,52.3 19.3,52.7 L19.3,52.7 L16.1,55.9 Z M20.1,57.2 L19.5,56.4 C20,56 20.4,55.6 20.8,55.1 L21.6,55.7 C21.1,56.3 20.6,56.8 20.1,57.2 L20.1,57.2 Z M22.9,51.8 C22.9,52.5 22.8,53.2 22.6,53.9 L21.6,53.6 C21.8,53 21.9,52.4 21.9,51.8 L22.6,51.8 L22.9,51.8 Z M22.5,49.6 L21.6,50 C21.4,49.4 21.1,48.9 20.8,48.4 L21.6,47.8 C21.9,48.3 22.3,48.9 22.5,49.6 L22.5,49.6 Z" id="Shape" fill="#FFFFFF" fill-rule="nonzero"></path>
            <path d="M61.6,16 C58.6,16 56.2,18.4 56.1,21.4 C56,24.4 58.5,26.8 61.5,26.9 C64.5,26.9 66.9,24.5 67,21.5 C67,18.5 64.6,16 61.6,16 L61.6,16 Z" id="Path" fill="#FFFFFF" fill-rule="nonzero"></path>
            <path d="M77.1,48.5 L72.6,33.8 C72.6,33.8 71,29.6 67.4,29.6 L55.8,29.6 C52.2,29.6 50.6,33.8 50.6,33.8 L46.1,48.5 C46.1,48.5 45.3,51.2 47.6,51.9 C49.9,52.6 50.6,49.9 50.6,49.9 L54.2,37.7 C54.2,37.7 54.4,36.7 55.1,37 C55.8,37.3 55.5,38.2 55.5,38.2 L49.2,61.2 L55.1,61.2 L55.1,77.7 C55.2,79.3 56.5,80.5 58.1,80.4 C59.5,80.3 60.7,79.2 60.8,77.7 L60.8,61.1 L62.4,61.1 L62.4,77.6 C62.5,79.2 63.8,80.4 65.4,80.3 C66.8,80.2 68,79.1 68.1,77.6 L68.1,61.1 L74,61.1 L67.7,38.1 C67.7,38.1 67.4,37.1 68.1,36.9 C68.8,36.7 69,37.6 69,37.6 L72.6,49.9 C72.6,49.9 73.3,52.5 75.6,51.9 C77.9,51.3 77.1,48.5 77.1,48.5 Z M61.6,52.9 C61.1,52.9 60.7,52.5 60.7,52 C60.7,51.5 61.1,51.1 61.6,51.1 C62.1,51.1 62.5,51.5 62.5,52 C62.5,52.5 62.1,52.9 61.6,52.9 L61.6,52.9 Z M61.6,45.7 C61.1,45.7 60.7,45.3 60.7,44.8 C60.7,44.3 61.1,43.9 61.6,43.9 C62.1,43.9 62.5,44.3 62.5,44.8 C62.5,45.3 62.1,45.7 61.6,45.7 L61.6,45.7 Z M61.6,38.7 C61.1,38.7 60.7,38.3 60.7,37.8 C60.7,37.3 61.1,36.9 61.6,36.9 C62.1,36.9 62.5,37.3 62.5,37.8 C62.5,38.3 62.1,38.7 61.6,38.7 L61.6,38.7 Z" id="Shape" fill="#FFFFFF" fill-rule="nonzero"></path>
            <path d="M61.7,15 C63.5,15 65.2,15.7 66.4,17 L68.7,14.5 C66.8,12.6 64.3,11.6 61.7,11.5 C58.9,11.6 56.3,12.7 54.4,14.7 L57.1,16.8 C58.4,15.7 60,15 61.7,15 Z" id="Path" fill="#FFFFFF" fill-rule="nonzero"></path>
        </g>
    </g>
</svg>