<?xml version="1.0" encoding="UTF-8"?>
<svg width="95px" height="95px" viewBox="0 0 95 95" version="1.1" xmlns="http://www.w3.org/2000/svg" xmlns:xlink="http://www.w3.org/1999/xlink">
    <!-- Generator: Sketch 53.2 (72643) - https://sketchapp.com -->
    <title>goal_3_target_3_d</title>
    <desc>Created with Sketch.</desc>
    <g id="goal_3_target_3_d" stroke="none" stroke-width="1" fill="none" fill-rule="evenodd">
        <g id="Group" transform="translate(9.700000, 9.000000)" fill="#FFFFFF" fill-rule="nonzero">
            <g transform="translate(1.000000, 5.000000)">
                <path d="M33.3,15 C33.3,14.6 32.9,14.2 32.5,14.3 C32.1,14.3 31.7,14.3 31.3,14.3 C30.9,14.3 30.4,14.2 30.3,13.7 C30.1,12.9 29.8,12.2 29.5,11.4 C29.3,11 29.4,10.5 29.8,10.2 C30.2,9.9 30.5,9.7 30.8,9.3 C31.1,9.1 31.2,8.6 31,8.3 C30.5,7.4 29.9,6.6 29.2,5.8 C28.9,5.5 28.4,5.4 28.1,5.7 C27.7,5.9 27.5,6.1 27.1,6.4 C26.7,6.7 26.3,6.8 26,6.5 C25.3,6 24.5,5.4 24,5.1 C23.6,4.8 23.5,4.4 23.6,4 C23.7,3.5 23.8,3.2 23.9,2.7 C24,2.3 23.8,1.9 23.4,1.7 C22.5,1.3 21.5,1 20.5,0.8 C20.1,0.7 19.7,0.9 19.5,1.4 C19.3,1.8 19.2,2.1 19.1,2.5 C19,2.9 18.7,3.3 18.2,3.3 C17.2,3.3 16.4,3.3 15.8,3.3 C15.4,3.3 15,3.1 14.8,2.7 C14.6,2.3 14.5,1.9 14.3,1.5 C14.2,1.1 13.8,0.9 13.4,1 C12.4,1.2 11.4,1.5 10.5,2 C10.1,2.1 9.9,2.6 10,3 C10,3 10,3.1 10.1,3.1 C10.2,3.5 10.3,3.8 10.4,4.3 C10.5,4.8 10.5,5.2 10.1,5.4 C9.7,5.6 8.7,6.4 8.2,6.8 C7.9,7.1 7.4,7.1 7,6.9 C6.6,6.7 6.3,6.4 5.9,6.2 C5.6,6 5.1,6 4.9,6.3 C4,7 3.5,7.8 3,8.8 C2.8,9.2 2.9,9.6 3.2,9.9 L3.2,9.9 C3.6,10.2 3.8,10.4 4.2,10.6 C4.6,10.8 4.8,11.2 4.6,11.7 C4.4,12.2 4,13.5 3.9,14 C3.8,14.4 3.4,14.7 3,14.8 C2.5,14.8 2.1,14.9 1.7,14.9 C1.3,14.9 1,15.2 0.9,15.6 C0.8,16.6 0.8,17.7 1,18.7 C1,19.1 1.4,19.5 1.8,19.4 L3,19.4 C3.5,19.4 3.9,19.5 4,20 C4.2,20.8 4.5,21.6 4.8,22.3 C5,22.7 4.9,23.2 4.5,23.5 C4.1,23.8 3.9,24 3.5,24.3 C3.2,24.5 3.1,25 3.3,25.3 C3.8,26.2 4.4,27.1 5.1,27.8 C5.4,28.1 5.9,28.2 6.2,27.9 C6.6,27.7 6.8,27.5 7.2,27.2 C7.6,26.9 8,26.8 8.3,27.1 C8.6,27.4 9.8,28.2 10.3,28.5 C10.7,28.7 10.9,29.2 10.8,29.6 C10.7,30 10.6,30.4 10.5,30.9 C10.4,31.3 10.6,31.7 11,31.9 C11.9,32.3 12.9,32.6 13.9,32.8 C14.3,32.9 14.8,32.7 14.9,32.3 L14.9,32.3 C15.1,31.9 15.2,31.6 15.3,31.2 C15.4,30.8 15.7,30.4 16.2,30.4 C17.1,30.4 17.8,30.4 18.6,30.4 C19,30.4 19.4,30.6 19.6,31 C19.8,31.4 19.9,31.8 20.1,32.2 C20.2,32.6 20.6,32.8 21,32.7 C22,32.5 23,32.2 23.9,31.7 C24.3,31.5 24.5,31.1 24.3,30.7 C24.2,30.3 24.1,30 24,29.5 C23.9,29 23.8,28.7 24.3,28.4 C24.8,28.1 25.8,27.2 26.2,26.9 C26.5,26.6 27,26.6 27.4,26.8 C27.8,27.1 28.1,27.2 28.5,27.5 C28.8,27.7 29.2,27.6 29.5,27.4 C30.2,26.6 30.8,25.8 31.3,24.9 C31.6,24.6 31.5,24.1 31.1,23.8 L31.1,23.8 C30.8,23.5 30.5,23.3 30.2,23.1 C29.9,22.9 29.6,22.5 29.7,22 C29.8,21.5 30.3,20.3 30.4,19.7 C30.5,19.3 30.9,18.9 31.3,18.9 C31.8,18.9 32.1,18.8 32.6,18.8 C33,18.8 33.3,18.5 33.4,18.1 C33.5,17.1 33.5,16 33.3,15 Z M17.1,27 C11.5,27 7.1,22.5 7.1,16.9 C7.1,11.3 11.6,6.9 17.2,6.9 C22.8,6.9 27.2,11.4 27.2,17 L27.2,17 C27.2,22.5 22.7,27 17.1,27 Z" id="Shape"></path>
                <path d="M9.7,14.1 C9.9,14.3 10.1,14.1 10.2,14 C10.3,13.9 10.3,13.7 10.2,13.6 C10.2,13.5 10.3,13.4 10.4,13.4 C10.6,13.3 10.9,13.2 11.1,13 C11.5,12.9 12,12.9 12.5,13 C12.8,13.2 13.2,13.1 13.4,12.8 C13.6,12.6 13.8,12.4 14,12.3 C14.1,12.2 13.7,11.8 13.3,12.3 C12.9,12.8 12.7,12.8 12.6,12.8 C12.5,12.8 11.4,12.5 11.3,12.2 C11.2,11.9 11.6,11.6 12,11.4 C12.6,11.3 13.1,11.2 13.7,11.2 C14.2,11.1 14.9,10.8 15.3,11 C15.7,11.2 13.8,11.6 14.4,12 C14.6,12.1 15.6,11.5 15.9,11.3 C16.7,10.9 15.2,10.8 15.4,10 C15.6,9.2 13.6,9.4 12.6,9.5 C12.1,9.8 11.6,10.2 11.2,10.6 C11.3,10.6 11.5,10.7 11.5,10.8 C11.5,11 11.5,11.2 11.4,11.4 C11.1,11.7 10.8,11.8 10.4,11.8 C10.3,11.8 10.3,11.8 10.2,11.7 C10,11.9 9.9,12.1 9.7,12.3 C9.9,12.2 10.1,12.1 10.4,12.1 C10.6,12.1 10.9,12.2 10.9,12.3 C10.9,12.4 10.4,12.7 10.2,12.8 C9.9,13.1 9.4,13.7 9.1,13.7 C9,13.7 9,13.7 8.9,13.7 C8.8,13.9 8.8,14.1 8.7,14.3 C9,14 9.4,14 9.7,14.1 Z" id="Path"></path>
                <path d="M24.3,16.5 C24,16.7 23.7,16.8 23.4,16.9 C23.1,17.2 22.9,17.6 22.9,18 C23,18.3 23.8,19.3 23.2,19.2 C22.6,18.9 22.2,18.5 21.8,18 C21.6,17.5 21.4,17 21.3,16.7 C21.2,16.4 20.9,16.3 20.6,16.4 C20.5,16.4 20.5,16.5 20.4,16.5 C20.1,16.7 20.5,16.9 20.3,17.4 C20.1,17.9 19.9,18.3 19.6,17.9 C18.7,16.9 17.5,17.4 17.3,16.3 C17.2,15.7 16.7,15.8 16.3,15.4 C15.9,15 15.6,14.9 15.5,15.1 C15.4,15.3 16.9,16.4 17,16.7 C17.1,17 16.6,17.5 16.1,17.6 C15.6,17.7 15.5,17.4 15.1,16.9 C14.7,16.4 14.5,16.2 14.5,16.5 C14.5,17.1 14.8,17.6 15.3,18 C15.7,18.2 16.1,18.3 15.9,18.7 C15.7,19.1 15.9,18.9 15.5,19.2 C15.2,19.4 15,19.8 15,20.2 C15,20.8 14.9,20.8 14.8,21.2 C14.7,21.6 14.5,21.3 14.3,21.9 C14.2,22.3 14,22.7 13.8,23 C13.5,23.3 13,23.5 12.6,23.5 C12.2,23.5 12.1,22.4 12.1,21.8 C12.1,21.6 11.8,22.2 11.7,21 C11.6,20.3 11.1,21.1 11.1,20.6 C11.1,20.1 10.8,20.2 10.6,19.9 C10.4,19.6 10,19.9 9.7,20.1 C9.4,20.3 9.5,20.3 9,20.2 L9,20.2 C10,22.7 12.1,24.5 14.7,25.3 C14.6,25.2 14.5,25 14.6,24.9 C15,24.3 15.6,23.9 16.3,23.9 C17.7,23.8 19.6,24.8 19.9,24.7 C20.2,24.6 20.8,23.7 21.7,23.8 C22,23.8 22.3,23.8 22.5,24 C22.8,23.8 23.1,23.5 23.4,23.2 C23.3,23.2 23.2,23.1 23.1,23.1 C22.6,22.9 22.7,23.3 22.4,23.2 C22.1,23.1 22.7,22.6 22,23 C21.3,23.4 21.5,22.9 21.2,22.1 C21,21.3 21.4,20.5 22.1,20.2 C22.6,20 23.2,19.9 23.7,19.8 C24.8,19.5 25,18.9 25.2,19.3 L25.3,19.5 C25.4,19.7 25.4,19.8 25.4,20 C25.6,19.6 25.7,19.1 25.8,18.7 C25.6,18.6 24.6,17.2 25.4,16.4 C25.5,16.2 25.1,15.8 25.2,15.8 C25.5,15.8 25.9,16 25.9,16.3 C25.9,15.8 25.8,15.4 25.7,14.9 C25.7,15 25.7,15.1 25.7,15.2 C25.6,15.5 25.2,15.6 24.9,15.5 C24.8,15.5 24.7,15.4 24.7,15.3 C24.6,15.2 24.2,14.8 24.2,15.4 C24.2,16 24.9,16.1 24.3,16.5 Z M16,20 C15.9,20.2 15.5,21.7 15.3,21.5 C15.1,21.3 15.4,19.8 15.5,19.7 C15.8,19 16.5,19 16,20 Z M19.6,18.2 C19.3,18.3 19,18.3 18.8,18.1 C18.6,17.9 18.9,17.6 19.1,17.6 C19.3,17.7 19.8,18.1 19.6,18.2 L19.6,18.2 Z M23.3,17.9 C23.2,17.7 23.4,17.6 23.6,17.6 C23.8,17.6 24,18 24,18.2 C24,18.4 23.6,18.3 23.5,18.3 C23.4,18.3 23.3,18.1 23.3,17.9 L23.3,17.9 Z M24.5,19.1 C24.2,19.2 23.9,19.2 23.7,19 C23.5,18.8 23.9,18.5 24,18.5 C24.2,18.5 24.6,18.9 24.5,19.1 L24.5,19.1 Z" id="Shape"></path>
                <path d="M9.4,15 C9.9,15.1 10.4,15.2 10.9,15.4 C11.4,15.6 12.2,16 12.7,15.9 C13.2,15.8 13.3,15.6 13.3,15.3 C13.3,15 13,14.9 12.6,15.1 C12.5,15.2 12.2,14.6 12,14.6 C11.8,14.6 12.3,15.3 12.1,15.4 C11.9,15.5 11.6,14.7 11.5,14.6 C11.4,14.5 11.2,14.2 10.9,14.4 C10.4,14.9 9.5,14.9 9.4,15 C9.3,15 9.3,15.1 9.2,15.1 C8.9,15.2 8.7,14.9 8.7,14.6 C8.5,15.1 8.4,15.6 8.4,16.1 C8.4,16.1 8.4,16.1 8.4,16 C8.7,15.5 8.8,15.4 8.8,15.3 L9.2,15.2 L9.4,15 Z" id="Path"></path>
            </g>
            <g transform="translate(41.000000, 0.000000)">
                <path d="M17.3,5.3 C14,5.3 11.3,8 11.3,11.3 C11.3,14.6 14,17.3 17.3,17.3 C20.6,17.3 23.3,14.6 23.3,11.3 C23.3,8 20.6,5.3 17.3,5.3 Z" id="Path"></path>
                <path d="M17.4,4.1 C19.4,4.2 21.2,5 22.6,6.4 L25.1,3.7 C23,1.7 20.3,0.5 17.4,0.4 C14.4,0.5 11.5,1.7 9.4,3.9 L12.4,6.2 C13.8,5 15.6,4.2 17.4,4.1 Z" id="Path"></path>
                <path d="M34.3,40.9 L29.3,24.7 C29.3,24.7 27.5,20 23.6,20 L11,20 C7.1,20 5.3,24.7 5.3,24.7 L0.3,40.9 C0.3,40.9 -0.6,43.9 1.9,44.6 C4.4,45.3 5.1,42.4 5.1,42.4 L9.1,28.9 C9.1,28.9 9.3,27.9 10.1,28.1 C10.9,28.3 10.6,29.4 10.6,29.4 L3.6,54.7 L10.1,54.7 L10.1,72.8 C10.2,74.5 11.7,75.8 13.4,75.7 C15,75.6 16.2,74.3 16.3,72.8 L16.3,54.8 L18.1,54.8 L18.1,72.9 C18.1,74.6 19.5,76 21.2,76 C22.9,76 24.3,74.6 24.3,72.9 L24.3,54.8 L30.8,54.8 L23.8,29.5 C23.8,29.5 23.5,28.4 24.3,28.2 C25.1,28 25.3,29 25.3,29 L29.3,42.5 C29.3,42.5 30.1,45.4 32.6,44.7 C35.1,44 34.3,40.9 34.3,40.9 Z M17.3,45.8 C16.7,45.8 16.3,45.4 16.3,44.8 C16.3,44.2 16.7,43.8 17.3,43.8 C17.9,43.8 18.3,44.2 18.3,44.8 C18.3,45.4 17.8,45.8 17.3,45.8 Z M17.3,37.8 C16.7,37.8 16.3,37.4 16.3,36.8 C16.3,36.2 16.7,35.8 17.3,35.8 C17.9,35.8 18.3,36.2 18.3,36.8 C18.3,37.4 17.8,37.8 17.3,37.8 Z M17.3,30.1 C16.7,30.1 16.3,29.7 16.3,29.1 C16.3,28.5 16.7,28.1 17.3,28.1 C17.9,28.1 18.3,28.5 18.3,29.1 C18.3,29.7 17.8,30.1 17.3,30.1 Z" id="Shape"></path>
            </g>
            <g transform="translate(0.000000, 48.000000)">
                <path d="M16.7,24.3 C16.1,24.7 15.5,24.9 14.9,25.1 C13,25.6 11.1,25.9 9.2,25.8 C8.3,25.8 7.3,25.7 6.4,25.6 C5.8,25.5 5.3,25.4 4.7,25.3 C4.4,25.2 4.1,25.2 3.9,25.1 C3.1,24.9 2.4,24.5 1.7,24.1 C1.5,23.9 1.2,23.7 1.1,23.4 L1.1,24.1 C1.1,24.3 1.1,25.2 1.1,25.2 C1.1,25.7 1.4,26.1 1.8,26.4 C3.1,27.3 4.7,27.9 6.3,28.1 C7.4,28.3 8.5,28.3 9.5,28.3 C11.1,28.3 12.6,28.1 14.2,27.8 L14.2,27.8 C15,27.6 15.8,27.3 16.6,26.9 L16.6,26.9 C17.4,26.4 17.8,25.9 17.8,25.3 C17.8,25.3 17.9,23.6 17.8,23.5 C17.4,23.7 17.1,24 16.7,24.3 Z" id="Path"></path>
                <path d="M8.5,18.6 C13.1,18.6 16.8,17.2 16.8,15.5 C16.8,15.5 16.9,13.9 16.9,13.6 C16.9,13.4 16.8,13.1 16.8,12.9 C17.3,12.6 17.7,12.1 17.8,11.5 C17.8,11.5 17.9,9.7 17.8,9.4 C17.6,7.3 13.4,6.2 9.4,6.2 C5.4,6.2 1,7.4 1,9.6 C1,9.7 1.1,11.5 1.1,11.5 C1.1,11.6 1.1,11.8 1.2,11.9 C0.6,12.3 0.2,12.9 0.2,13.6 C0.2,13.7 0.3,15.5 0.3,15.5 C0.3,16 0.6,16.4 1,16.7 C2.3,17.6 3.8,18.2 5.4,18.3 C6.3,18.5 7.4,18.6 8.5,18.6 Z M9.4,7.1 C13.8,7.1 17,8.4 17,9.6 C17,10.8 13.9,12.1 9.5,12.1 C5.1,12.1 2,10.8 2,9.6 C2,8.4 4.9,7.1 9.4,7.1 Z M0.9,13.6 C1,13.2 1.2,12.9 1.6,12.7 C1.8,12.9 2.1,13.2 2.4,13.3 C4.6,14.3 6.9,14.7 9.3,14.7 C11.3,14.7 13.3,14.4 15.2,13.8 C15.5,13.7 15.7,13.6 15.9,13.5 C15.9,13.6 15.9,13.6 15.9,13.7 C15.9,14.9 12.8,16.2 8.4,16.2 C4,16.2 0.9,14.8 0.9,13.6 Z" id="Shape"></path>
                <path d="M6,25 C7.1,25.2 8.2,25.2 9.2,25.2 C10.8,25.2 12.3,25 13.9,24.7 L13.9,24.7 C14.7,24.5 15.5,24.2 16.3,23.8 L16.3,23.8 C16.5,23.7 16.7,23.6 16.8,23.4 C17.1,23.2 17.3,22.9 17.4,22.6 C17.5,22.5 17.5,22.3 17.5,22.2 C17.5,22.2 17.5,20.5 17.5,20.4 C17.2,20.7 16.5,21.8 13.2,22.5 C11.8,22.7 10.4,22.9 9,22.9 C6.3,22.9 3.6,22.4 2.3,21.6 C1.9,21.4 1.6,21.2 1.3,20.9 C1.1,20.7 0.9,20.5 0.8,20.3 L0.8,21.1 L0.8,22.3 C0.8,22.8 1.1,23.2 1.5,23.5 C2.8,24.3 4.4,24.9 6,25 Z" id="Path"></path>
                <path d="M17.5,16.6 C17.4,16.5 17.4,16.5 17.3,16.4 C17.2,16.3 17.1,16.3 16.9,16.2 C16.8,16.4 16.7,16.5 16.5,16.7 C16.6,16.7 16.7,16.8 16.8,16.9 C17,17 17.2,17.3 17.2,17.5 C17.2,17.7 17.1,17.9 16.9,18.1 L16.6,18.3 L16.1,18.6 C16.1,18.6 15.6,18.8 15.4,18.9 C15.4,18.9 14.9,19.1 14.7,19.1 C14.6,19.1 14,19.3 13.7,19.3 C13.6,19.3 12.8,19.5 12.4,19.5 L11.1,19.6 C11,19.6 9.7,19.7 9.2,19.7 C8.3,19.7 7.4,19.6 6.5,19.5 C5.9,19.4 5.2,19.3 4.6,19.2 C3.9,19 3.2,18.8 2.6,18.6 C2.2,18.4 1.9,18.2 1.6,17.9 C1.3,17.6 1.1,17.3 0.9,17 L0.9,18.1 L0.9,19.1 C0.9,19.6 1.2,20 1.6,20.3 C2.9,21.2 4.4,21.8 6,22 C7.1,22.2 8.2,22.2 9.2,22.2 C10.8,22.2 12.3,22 13.9,21.7 L13.9,21.7 C14.7,21.5 15.5,21.2 16.3,20.8 L16.3,20.8 C16.5,20.7 16.7,20.6 16.8,20.4 C17.1,20.2 17.3,19.9 17.4,19.6 C17.5,19.5 17.5,19.3 17.5,19.2 L17.6,17.4 C17.6,17.3 17.6,17.1 17.5,17 C17.6,16.8 17.6,16.7 17.5,16.6 Z" id="Path"></path>
                <path d="M27.7,12.6 C32.3,12.6 36,11.2 36,9.5 C36,9.5 36.1,7.9 36.1,7.6 C36.1,7.4 36,7.1 35.9,6.9 C36.4,6.6 36.8,6.1 36.9,5.5 C36.9,5.5 37,3.7 36.9,3.4 C36.7,1.3 32.5,0.2 28.5,0.2 C24.5,0.2 20.1,1.4 20.1,3.6 C20.1,3.7 20.2,5.5 20.2,5.5 C20.2,5.6 20.2,5.8 20.3,5.9 C19.7,6.3 19.3,6.9 19.3,7.6 C19.3,7.7 19.4,9.5 19.4,9.5 C19.4,10 19.7,10.4 20.1,10.7 C21.4,11.6 22.9,12.2 24.5,12.4 C25.5,12.5 26.6,12.6 27.7,12.6 Z M28.6,1.1 C33.1,1.1 36.1,2.4 36.1,3.6 C36.1,4.8 33,6.1 28.6,6.1 C24.2,6.1 21,4.8 21,3.6 C21,2.4 24.1,1.1 28.6,1.1 Z M20.2,7.6 C20.2,7.2 20.5,6.8 20.9,6.6 C21.2,6.8 21.4,7 21.7,7.2 C23.9,8.2 26.2,8.7 28.6,8.6 C30.6,8.6 32.6,8.3 34.5,7.7 C34.8,7.6 35,7.5 35.2,7.4 C35.2,7.5 35.2,7.5 35.2,7.6 C35.2,8.8 32.1,10.1 27.7,10.1 C23.3,10.1 20.2,8.8 20.2,7.6 Z" id="Shape"></path>
                <path d="M36.9,10.9 C36.9,10.8 36.8,10.7 36.7,10.6 C36.6,10.5 36.6,10.5 36.5,10.4 C36.4,10.3 36.3,10.3 36.2,10.2 C36.1,10.4 36,10.5 35.8,10.7 C35.9,10.7 36,10.8 36.1,10.9 C36.3,11 36.5,11.3 36.5,11.5 C36.5,11.7 36.4,11.9 36.2,12.1 C36.1,12.2 36,12.3 35.9,12.3 L35.4,12.6 L34.7,12.9 L34,13.1 L33,13.3 C32.9,13.3 32.1,13.5 31.7,13.5 C31.6,13.5 30.7,13.6 30.4,13.6 C30.3,13.6 29,13.7 28.5,13.7 C27.6,13.7 26.7,13.6 25.8,13.5 C25.2,13.4 24.5,13.3 23.9,13.2 C23.2,13 22.5,12.8 21.9,12.6 C21.5,12.4 21.2,12.2 20.9,11.9 C20.6,11.6 20.4,11.4 20.2,11 L20.2,12.1 L20.2,13.1 C20.2,13.6 20.5,14 20.9,14.3 C22.2,15.2 23.7,15.8 25.3,16 C26.4,16.2 27.5,16.3 28.5,16.2 C30.1,16.2 31.6,16 33.2,15.7 L33.3,15.7 C34.1,15.5 34.9,15.2 35.6,14.8 L35.6,14.8 C35.8,14.7 36,14.6 36.1,14.4 C36.4,14.2 36.6,13.9 36.7,13.6 C36.8,13.5 36.8,13.3 36.8,13.2 L36.9,11.4 C37,11.2 37,11.1 36.9,10.9 Z" id="Path"></path>
                <path d="M35.9,18.3 C35.3,18.7 34.7,18.9 34.1,19.1 C32.2,19.6 30.3,19.9 28.4,19.8 C27.5,19.8 26.5,19.7 25.6,19.6 C25,19.5 24.5,19.4 23.9,19.3 C23.6,19.2 23.3,19.1 23.1,19.1 C22.3,18.9 21.5,18.5 20.9,18 C20.7,17.8 20.4,17.6 20.3,17.3 L20.3,18 C20.3,18.2 20.3,19.1 20.3,19.1 C20.3,19.6 20.6,20 21,20.3 C22.3,21.2 23.9,21.8 25.5,22 C26.6,22.2 27.7,22.2 28.7,22.2 C30.3,22.2 31.8,22 33.4,21.7 L33.4,21.7 C34.2,21.5 35,21.2 35.8,20.8 L35.8,20.8 C36.6,20.3 37,19.8 37,19.2 C37,19.2 37.1,17.5 37,17.4 C36.7,17.7 36.3,18 35.9,18.3 Z" id="Path"></path>
                <path d="M20.8,17.3 C22.1,18.2 23.6,18.8 25.2,19 C26.3,19.2 27.4,19.3 28.4,19.2 C30,19.2 31.5,19 33.1,18.7 L33.2,18.7 C34,18.5 34.8,18.2 35.5,17.8 L35.5,17.8 C35.7,17.7 35.9,17.6 36,17.4 C36.3,17.2 36.5,16.9 36.6,16.6 C36.7,16.5 36.7,16.3 36.7,16.2 C36.7,16.2 36.7,14.5 36.7,14.4 C36.4,14.8 35.7,15.8 32.4,16.5 C31,16.7 29.6,16.9 28.2,16.9 C25.5,16.8 22.8,16.4 21.5,15.6 C21.1,15.4 20.8,15.2 20.5,14.9 C20.3,14.7 20.1,14.5 20,14.3 L20,15.1 L20,16.3 C20.2,16.7 20.4,17.1 20.8,17.3 Z" id="Path"></path>
                <path d="M37,23.3 C36.7,23.7 36.4,24 36,24.3 C35.4,24.7 34.8,24.9 34.2,25.1 C32.3,25.6 30.4,25.9 28.5,25.8 C27.6,25.8 26.6,25.7 25.7,25.6 C25.1,25.5 24.6,25.4 24,25.3 C23.7,25.2 23.4,25.1 23.2,25.1 C22.4,24.9 21.7,24.5 21,24 C20.8,23.8 20.5,23.6 20.4,23.3 L20.4,24 C20.4,24.2 20.4,25.1 20.4,25.1 C20.4,25.6 20.7,26 21.1,26.3 C22.4,27.2 24,27.8 25.6,28 C26.7,28.2 27.8,28.3 28.8,28.2 C30.4,28.2 31.9,28 33.5,27.7 L33.5,27.7 C34.3,27.5 35.1,27.2 35.8,26.8 L35.8,26.8 C36.6,26.3 37,25.8 37,25.2 C36.9,25.1 37,23.4 37,23.3 Z" id="Path"></path>
                <path d="M25.3,25 C26.4,25.2 27.5,25.2 28.5,25.2 C30.1,25.2 31.6,25 33.2,24.7 L33.2,24.7 C34,24.5 34.8,24.2 35.6,23.8 L35.6,23.8 C35.8,23.7 36,23.6 36.1,23.4 C36.4,23.2 36.6,22.9 36.7,22.6 C36.8,22.5 36.8,22.3 36.8,22.2 C36.8,22.2 36.8,20.5 36.8,20.4 C36.5,20.7 35.8,21.8 32.5,22.5 C31.1,22.7 29.7,22.9 28.3,22.9 C25.6,22.8 22.9,22.4 21.6,21.6 C21.2,21.4 20.9,21.2 20.6,20.9 C20.4,20.7 20.2,20.5 20.1,20.3 L20.1,21.1 L20.1,22.3 C20.1,22.8 20.4,23.2 20.8,23.5 C22.1,24.3 23.7,24.9 25.3,25 Z" id="Path"></path>
            </g>
        </g>
        <rect id="Rectangle" fill="#4C9F38" fill-rule="nonzero" x="0" y="0" width="94.8" height="94.8"></rect>
        <g id="Group" transform="translate(26.700000, 9.000000)" fill="#FFFFFF" fill-rule="nonzero">
            <path d="M37.3,0.1 L4.2,0.1 C2.1,0.1 0.4,1.8 0.4,3.9 C0.4,3.9 0.4,3.9 0.4,3.9 L0.4,72.9 C0.4,75 2.1,76.7 4.2,76.7 L37.4,76.7 C39.5,76.7 41.2,75 41.2,72.9 L41.2,4 C41.2,1.9 39.5,0.2 37.3,0.1 C37.3,0.1 37.3,0.1 37.3,0.1 Z M20.9,72.3 C18.6,72.3 16.7,70.4 16.7,68.1 C16.7,65.8 18.6,63.9 20.9,63.9 C23.2,63.9 25.1,65.8 25.1,68.1 L25.1,68.1 C25.1,70.4 23.2,72.3 20.9,72.3 C20.9,72.3 20.9,72.3 20.9,72.3 Z M38.3,59.6 L3.5,59.6 L3.5,3.6 L38.2,3.6 L38.2,59.6 L38.3,59.6 Z" id="Shape"></path>
            <path d="M34.6,42.3 L21,16.3 C20.9,16.2 20.8,16.1 20.6,16.2 C20.5,16.2 20.5,16.3 20.5,16.3 L7,42.3 C6.9,42.4 7,42.6 7.1,42.7 C7.1,42.7 7.2,42.7 7.2,42.7 L34.3,42.7 C34.5,42.7 34.6,42.6 34.6,42.4 C34.6,42.4 34.6,42.4 34.6,42.3 Z M22.3,23.9 L21.6,35.7 L19.9,35.7 L19.2,23.9 L22.3,23.9 L22.3,23.9 Z M20.7,40.5 C19.8,40.5 19.1,39.8 19.1,38.9 C19.1,38 19.8,37.3 20.7,37.3 C21.6,37.3 22.3,38 22.3,38.9 L22.3,38.9 C22.3,39.8 21.6,40.5 20.7,40.5 Z" id="Shape"></path>
        </g>
    </g>
</svg>