<?xml version="1.0" encoding="UTF-8"?>
<svg width="95px" height="95px" viewBox="0 0 95 95" version="1.1" xmlns="http://www.w3.org/2000/svg" xmlns:xlink="http://www.w3.org/1999/xlink">
    <!-- Generator: Sketch 53.2 (72643) - https://sketchapp.com -->
    <title>goal_9_target_9_b</title>
    <desc>Created with Sketch.</desc>
    <g id="goal_9_target_9_b" stroke="none" stroke-width="1" fill="none" fill-rule="evenodd">
        <g id="Group-71" fill-rule="nonzero">
            <rect id="Rectangle" fill="#FD6925" x="-3.62376795e-13" y="-2.13162821e-14" width="94.8" height="94.8"></rect>
            <g id="Group" transform="translate(12.700000, 7.000000)" fill="#FFFFFF">
                <path d="M68.9,48.9 L59.7,43.7 C59.5,43.6 59.2,43.6 59,43.7 L53.7,46.8 L53.7,40.5 C53.7,40.3 53.6,40.1 53.4,40 L44.5,34.9 L44.5,24.6 C44.5,24.4 44.4,24.2 44.2,24.1 L38.8,21 L44.3,17.8 C44.5,17.7 44.7,17.4 44.6,17.2 L44.6,6.7 C44.6,6.4 44.5,6.2 44.2,6.1 L35,0.9 C34.8,0.8 34.5,0.8 34.3,0.9 L25.1,6.1 C24.9,6.2 24.7,6.5 24.8,6.7 L24.8,17.1 C24.8,17.4 24.9,17.6 25.1,17.7 L30.6,20.9 L25.1,24.1 C24.9,24.2 24.8,24.4 24.8,24.6 L24.8,34.8 L15.9,39.9 C15.7,40 15.6,40.2 15.6,40.4 L15.6,46.7 L10.3,43.7 C10.1,43.6 9.8,43.6 9.6,43.7 L0.6,49 C0.4,49.1 0.2,49.4 0.2,49.6 L0.2,60 C0.2,60.3 0.3,60.5 0.6,60.6 L9.8,65.9 C9.9,66 10,66 10.1,66 C10.2,66 10.3,66 10.5,65.9 L19.7,60.6 C19.9,60.5 20,60.2 20,60 L20,53.8 L25.3,56.8 C25.4,56.8 25.5,56.9 25.6,56.9 C25.7,56.9 25.8,56.9 25.9,56.8 L34.8,51.7 L43.7,56.8 C43.9,56.9 44.1,56.9 44.3,56.8 L49.6,53.8 L49.6,60 C49.6,60.3 49.7,60.5 49.9,60.6 L59.1,65.9 C59.2,66 59.3,66 59.5,66 C59.6,66 59.7,66 59.8,65.9 L69,60.6 C69.2,60.5 69.4,60.2 69.3,60 L69.3,49.5 C69.2,49.3 69.1,49 68.9,48.9 Z M10.1,54 L2.3,49.6 L10.1,45.2 L17.8,49.6 L10.1,54 Z M10.8,64.1 L10.8,55.2 L18.5,50.8 L18.5,59.6 L10.8,64.1 Z M25,55.3 L20,52.4 L20,49.5 C20,49.2 19.9,49 19.7,48.9 L17,47.4 L17,41.5 L25,46.1 L25,55.3 Z M50.9,50.8 L58.7,55.2 L58.7,64.1 L50.9,59.6 L50.9,50.8 Z M60.1,64.1 L60.1,55.2 L67.8,50.8 L67.8,59.6 L60.1,64.1 Z M43.3,25.6 L43.3,34.1 L36,29.9 L43.3,25.6 Z M37.4,20.1 L35.5,19 L35.5,12.3 L43.2,7.9 L43.2,16.7 L37.4,20.1 Z M26.3,16.7 L26.3,7.9 L34.1,12.3 L34.1,19 L32.2,20.1 L26.3,16.7 Z M26.2,25.6 L33.5,29.8 L26.2,34 L26.2,25.6 Z M26.2,55.3 L26.2,46.8 L33.5,51 L26.2,55.3 Z M34.2,50 L26.9,45.8 L34.2,41.6 L34.2,50 Z M34.2,39.4 L26.9,35.2 L34.2,31 L34.2,39.4 Z M35.4,30.9 L42.7,35.1 L35.4,39.3 L35.4,30.9 Z M43.9,45 L36,40.4 L44,35.8 L52,40.4 L43.9,45 Z M44.5,55.2 L44.5,46.1 L52.5,41.5 L52.5,47.5 L49.8,49 C49.6,49.1 49.4,49.4 49.5,49.6 L49.5,52.4 L44.5,55.2 Z" id="Shape"></path>
                <path d="M20,31.4 L20,20.9 C20,20.6 19.9,20.4 19.7,20.3 L10.5,15.1 C10.3,15 10,15 9.8,15.1 L0.6,20.3 C0.4,20.4 0.2,20.7 0.2,20.9 L0.2,31.3 C0.2,31.6 0.3,31.8 0.6,31.9 L9.8,37.2 C9.9,37.3 10,37.3 10.2,37.3 C10.3,37.3 10.4,37.3 10.6,37.2 L19.8,31.9 C19.9,31.9 20,31.6 20,31.4 Z M9.4,35.4 L1.7,31 L1.7,22.1 L9.5,26.5 L9.4,35.4 Z M10.1,25.3 L2.3,20.9 L10.1,16.5 L17.8,20.9 L10.1,25.3 Z" id="Shape"></path>
                <path d="M68.9,20.4 L59.7,15.2 C59.5,15.1 59.2,15.1 59,15.2 L49.8,20.5 C49.6,20.6 49.4,20.9 49.5,21.1 L49.5,31.5 C49.5,31.8 49.6,32 49.8,32.1 L59,37.4 C59.1,37.5 59.2,37.5 59.4,37.5 C59.5,37.5 59.6,37.5 59.7,37.4 L68.9,32.1 C69.1,32 69.3,31.7 69.2,31.5 L69.2,21 C69.2,20.8 69.1,20.5 68.9,20.4 Z M58.6,35.6 L50.8,31.1 L50.8,22.3 L58.6,26.7 L58.6,35.6 Z M59.4,25.5 L51.6,21.1 L59.4,16.7 L67.1,21.1 L59.4,25.5 Z" id="Shape"></path>
                <path d="M44.3,63.1 L35.2,57.9 C35,57.8 34.7,57.8 34.5,57.9 L25.3,63.2 C25.1,63.3 24.9,63.6 24.9,63.8 L24.9,74.2 C24.9,74.5 25,74.7 25.3,74.8 L34.5,80.1 C34.7,80.2 35,80.2 35.2,80.1 L44.4,74.8 C44.6,74.7 44.8,74.4 44.8,74.2 L44.8,63.7 C44.6,63.4 44.5,63.2 44.3,63.1 Z M34,78.2 L26.2,73.7 L26.2,65 L34,69.4 L34,78.2 Z M34.7,68.1 L27,63.7 L34.8,59.3 L42.5,63.7 L34.7,68.1 Z" id="Shape"></path>
            </g>
        </g>
    </g>
</svg>