<?xml version="1.0" encoding="UTF-8"?>
<svg width="95px" height="95px" viewBox="0 0 95 95" version="1.1" xmlns="http://www.w3.org/2000/svg" xmlns:xlink="http://www.w3.org/1999/xlink">
    <!-- Generator: Sketch 53.2 (72643) - https://sketchapp.com -->
    <title>goal_13_target_13_b</title>
    <desc>Created with Sketch.</desc>
    <g id="goal_13_target_13_b" stroke="none" stroke-width="1" fill="none" fill-rule="evenodd">
        <g id="Group-109" fill-rule="nonzero">
            <rect id="Rectangle" fill="#3F7E44" x="-3.62376795e-13" y="-2.13162821e-14" width="94.8" height="94.8"></rect>
            <g id="Group" transform="translate(7.700000, 25.000000)" fill="#FFFFFF">
                <path d="M39.9,38.7 L78.5,38.7 C78.8,38.7 79.1,39 79.1,39.3 L79.1,40.5 C79.1,40.8 78.8,41.1 78.5,41.1 L39.9,41.1 C39.6,41.1 39.3,40.8 39.3,40.5 L39.3,39.3 C39.3,39 39.6,38.7 39.9,38.7 Z" id="Path"></path>
                <g transform="translate(64.000000, 6.000000)" id="Path">
                    <path d="M7.4,5.7 C8.7,5.7 9.8,4.6 9.8,3.2 C9.8,1.9 8.7,0.8 7.3,0.8 C6,0.8 4.9,1.9 4.9,3.2 C5,4.6 6.1,5.7 7.4,5.7 C7.4,5.7 7.4,5.7 7.4,5.7 Z"></path>
                    <path d="M14.5,15.4 L12.4,8.8 C12.4,8.8 11.7,6.9 10,6.9 L4.7,6.9 C3.1,6.9 2.3,8.8 2.3,8.8 L0.2,15.4 C0.2,15.4 -0.2,16.6 0.8,17 C1.8,17.4 2.1,16.1 2.1,16.1 L3.8,10.6 C3.8,10.6 3.9,10.2 4.2,10.3 C4.5,10.4 4.4,10.8 4.4,10.8 L1.6,21.1 L4.3,21.1 L4.3,28.5 C4.3,29.2 4.9,29.8 5.6,29.8 C6.3,29.8 6.9,29.2 6.9,28.5 L6.9,21.1 L7.6,21.1 L7.6,28.5 C7.6,29.2 8.2,29.8 8.9,29.8 C9.6,29.8 10.2,29.2 10.2,28.5 L10.2,21.1 L12.9,21.1 L10,10.8 C10,10.8 9.9,10.4 10.2,10.3 C10.5,10.2 10.6,10.6 10.6,10.6 L12.3,16.1 C12.3,16.1 12.6,17.3 13.6,17 C14.6,16.7 14.5,15.4 14.5,15.4 Z"></path>
                </g>
                <g transform="translate(39.000000, 7.000000)" id="Path">
                    <path d="M7.1,3.7 C7.1,5 8.2,6.1 9.5,6.1 C10.8,6.1 11.9,5 11.9,3.7 C11.9,2.8 11.4,2 10.7,1.6 C10.8,1.5 10.8,1.3 10.8,1.2 C10.6,0.5 10,0.1 9.3,0.3 C8.9,0.4 8.5,0.8 8.4,1.2 C8.4,1.3 8.4,1.4 8.5,1.5 C7.7,2 7.1,2.8 7.1,3.7 Z"></path>
                    <path d="M14.3,8.4 C14.3,8.4 13.6,6.6 12,6.6 L7,6.6 C5.4,6.6 4.7,8.4 4.7,8.4 L2.7,14.8 C2.7,14.8 2.4,15.8 3.1,16.2 C3.1,16.2 3.1,16.2 3,16.3 L0.7,28.4 C0.7,28.6 0.8,28.8 1,28.8 C1,28.8 1,28.8 1,28.8 L1.1,28.8 C1.3,28.8 1.4,28.7 1.5,28.5 L3.8,16.4 C3.8,16.4 3.8,16.3 3.8,16.3 C4.4,16.2 4.7,15.4 4.7,15.4 L6.3,10 C6.3,10 6.4,9.6 6.7,9.7 C7,9.8 6.9,10.2 6.9,10.2 L4.1,20.2 L6.7,20.2 L6.7,27.4 C6.8,28.1 7.4,28.6 8,28.5 C8.6,28.4 9.1,28 9.1,27.4 L9.1,20.3 L9.8,20.3 L9.8,27.5 C9.9,28.2 10.5,28.7 11.1,28.6 C11.7,28.5 12.2,28.1 12.2,27.5 L12.2,20.3 L14.8,20.3 L12,10.3 C12,10.3 11.9,9.9 12.2,9.8 C12.5,9.7 12.6,10.1 12.6,10.1 L14.2,15.5 C14.2,15.5 14.5,16.7 15.5,16.3 C16.5,15.9 16.2,14.8 16.2,14.8 L14.3,8.4 Z"></path>
                </g>
                <g transform="translate(56.000000, 21.000000)" id="Path">
                    <path d="M8,2.6 C7.7,2.4 7.3,2.6 7.1,2.9 C7.1,2.9 7.1,2.9 7.1,2.9 C6.8,3.5 6.4,4.1 6,4.6 C5.9,4.8 5.7,4.9 5.4,4.9 L3.2,4.9 C3,4.9 2.8,4.8 2.6,4.6 C2.3,4.3 1.5,2.8 1.4,2.8 C1.2,2.5 0.8,2.4 0.5,2.6 C0.3,2.7 0.2,2.9 0.2,3.1 C0.2,3.2 0.2,3.3 0.3,3.4 L2.1,6.6 C2.2,6.7 2.2,6.9 2.2,7 L2.2,7.5 L2.2,7.5 C2.2,7.7 2.2,7.9 2.1,8.1 L1.3,11.5 L2.2,11.5 L2.2,14 L2.2,14 C2.3,14.5 2.7,14.8 3.2,14.8 C3.6,14.8 3.9,14.4 4,14 L4,11.6 C4,11.6 4,11.5 4,11.5 L4.5,11.5 L4.5,14 C4.6,14.5 5,14.8 5.5,14.8 C5.9,14.8 6.2,14.4 6.3,14 L6.3,11.5 L7.3,11.5 L6.4,8.1 C6.4,8 6.3,7.8 6.3,7.7 L6.3,7.6 L6.3,7.6 L6.3,7.1 C6.3,7 6.3,6.8 6.4,6.7 L8.1,3.7 L8.3,3.4 C8.4,3.1 8.3,2.7 8,2.6 C8,2.6 8,2.6 8,2.6 Z"></path>
                    <path d="M4.1,3.9 C5.1,3.9 5.9,3.1 5.9,2.1 C5.9,1.1 5.1,0.3 4.1,0.3 C3.1,0.3 2.3,1.1 2.3,2.1 C2.3,3.1 3.1,3.9 4.1,3.9 C4.1,3.9 4.1,3.9 4.1,3.9 Z"></path>
                </g>
                <g>
                    <polygon id="Path" points="2.5 5.5 0.4 5.5 0.4 46.1 29.5 46.1 29.5 43.6 2.5 43.6"></polygon>
                    <path d="M33.8,0.6 L4.8,0.6 L4.8,41.1 L33.8,41.1 L33.8,0.6 Z M30.3,34.1 C30.3,34.2 30.2,34.3 30.1,34.3 L8.6,34.3 C8.5,34.3 8.4,34.2 8.4,34.1 L8.4,30.7 C8.4,30.6 8.5,30.6 8.6,30.6 L30,30.6 C30.1,30.6 30.2,30.7 30.2,30.7 L30.2,34.1 L30.3,34.1 Z M30.3,28.1 C30.3,28.2 30.2,28.2 30.1,28.2 L8.6,28.2 C8.5,28.2 8.4,28.1 8.4,28.1 L8.4,24.7 C8.4,24.6 8.5,24.5 8.6,24.5 L30,24.5 C30.1,24.5 30.2,24.6 30.2,24.7 L30.2,28.1 L30.3,28.1 Z M30.2,13 C25.7,19 17.2,20.3 11.2,15.8 C10.1,15 9.2,14.1 8.4,13 L8.3,12.9 C8.3,12.9 8.4,12.8 8.4,12.8 C12.9,6.8 21.4,5.6 27.4,10 C28.5,10.8 29.4,11.7 30.2,12.8 L30.3,12.9 L30.2,13 Z" id="Shape"></path>
                    <path d="M15.8,10.2 C16,10.2 16.2,10.1 16.3,10 C16.3,9.9 16.4,9.8 16.4,9.7 C16.4,9.7 16.3,9.6 16.2,9.6 C16.1,9.6 16,9.6 16,9.7 C16,9.8 15.8,10 15.7,10.1 C15.6,10.2 15.7,10.2 15.8,10.2 Z" id="Path"></path>
                    <path d="M23.1,14 C23.2,13.9 23,13.7 22.8,13.7 C22.6,13.7 22.6,13.9 22.7,13.9 C22.8,14.1 22.9,14.1 23.1,14 Z" id="Path"></path>
                    <path d="M20.3,13.3 C20.2,13.3 20.1,13.5 20.2,13.5 C20.3,13.6 20.5,13.6 20.6,13.5 C20.7,13.5 20.4,13.3 20.3,13.3 Z" id="Path"></path>
                    <path d="M18.4,14.3 C18.4,14.4 18.2,15.2 18.3,15.3 C18.4,15.4 18.6,14.6 18.7,14.5 C19,14 18.6,14 18.4,14.3 Z" id="Path"></path>
                    <path d="M20.8,16.9 C20.7,17 19.7,16.4 18.9,16.5 C18.5,16.5 18.2,16.7 18,17.1 C18,17.2 18,17.3 18.1,17.3 C19.5,17.7 21,17.4 22.2,16.5 C22.1,16.4 21.9,16.4 21.8,16.4 C21.2,16.4 20.9,16.8 20.8,16.9 Z" id="Path"></path>
                    <path d="M22.8,13.6 C22.8,13.5 22.7,13.4 22.6,13.3 C22.5,13.3 22.4,13.3 22.4,13.4 C22.4,13.5 22.5,13.6 22.5,13.6 C22.5,13.6 22.8,13.6 22.8,13.6 Z" id="Path"></path>
                    <path d="M18.1,15.2 C18.1,15 18.2,14.9 18.2,14.7 C18.2,14.5 18.2,14.3 18.4,14.1 C18.6,13.9 18.5,14 18.6,13.8 C18.7,13.6 18.5,13.6 18.3,13.4 C18.1,13.2 17.9,12.9 17.9,12.6 C17.9,12.4 18,12.6 18.2,12.8 C18.4,13 18.5,13.2 18.7,13.1 C18.9,13 19.2,12.9 19.1,12.6 C19,12.3 18.3,11.9 18.3,11.8 C18.3,11.7 18.5,11.8 18.7,11.9 C18.9,12 19.2,12 19.2,12.4 C19.3,13 20,12.7 20.4,13.2 C20.6,13.4 20.7,13.2 20.8,13 C20.9,12.8 20.7,12.7 20.9,12.5 C21,12.4 21.2,12.4 21.3,12.5 C21.3,12.5 21.3,12.6 21.3,12.6 C21.4,12.8 21.5,13 21.6,13.3 C21.8,13.6 22,13.8 22.3,13.9 C22.6,13.9 22.2,13.4 22.2,13.3 C22.2,13.1 22.3,12.9 22.4,12.8 C22.6,12.8 22.7,12.7 22.9,12.6 C23.2,12.4 22.9,12.4 22.9,12.1 C22.9,11.8 23.1,12 23.1,12 C23.2,12.1 23.4,12.2 23.5,12.1 C23.6,12.1 23.6,12 23.6,12 C23.6,11.9 23.6,11.9 23.6,11.8 C23.1,9.7 21.3,8.3 19.1,8.3 C18.2,8.3 17.4,8.5 16.6,9 C17.1,9 18.2,8.8 18.1,9.2 C18,9.6 18.8,9.7 18.4,9.9 C18.2,10 17.8,10.3 17.6,10.3 C17.3,10.1 18.2,9.9 18,9.8 C17.8,9.7 17.5,9.8 17.2,9.9 C16.9,9.9 16.6,10 16.3,10 C16.1,10.1 15.9,10.2 15.9,10.4 C15.9,10.6 16.5,10.7 16.6,10.7 C16.7,10.7 16.8,10.7 17,10.4 C17.2,10.1 17.4,10.4 17.4,10.4 C17.3,10.5 17.2,10.6 17.1,10.7 C17,10.8 16.8,10.9 16.6,10.8 C16.4,10.7 16.1,10.7 15.9,10.8 C16.1,11 16,11 15.9,11.1 C15.8,11.1 15.7,11.2 15.8,11.2 C15.9,11.2 15.8,11.3 15.8,11.4 C15.8,11.5 15.6,11.5 15.6,11.5 C15.6,11.5 15.6,11.5 15.6,11.5 C15.4,11.4 15.2,11.5 15.1,11.6 C15.1,11.6 15.1,11.7 15.1,11.7 C15.1,11.9 15.2,12.1 15.4,11.9 C15.5,11.8 15.9,11.9 16.2,11.6 C16.5,11.3 16.5,11.6 16.5,11.7 C16.5,11.8 16.7,12.2 16.8,12.1 C16.9,12 16.7,11.7 16.8,11.7 C16.9,11.7 16.9,12 17,12 C17.1,12 17.3,11.9 17.3,12.1 C17.3,12.3 17.2,12.3 17,12.4 C16.8,12.5 16.3,12.3 16.1,12.2 C15.9,12.1 15.6,12.1 15.3,12 L15,12.1 C15,12.1 15,12.2 14.8,12.4 L14.8,12.4 C14.8,12.6 14.8,12.7 14.8,12.9 C14.8,13.5 14.9,14.1 15.2,14.7 L15.2,14.7 C15.5,14.8 15.4,14.7 15.6,14.7 C15.8,14.7 15.9,14.4 16.1,14.6 C16.3,14.8 16.3,14.7 16.4,15 C16.4,15.2 16.7,14.8 16.7,15.2 C16.8,15.8 16.9,15.5 16.9,15.6 C16.9,15.9 16.9,16.4 17.1,16.4 C17.3,16.4 17.6,16.3 17.7,16.2 C17.8,16 17.9,15.8 18,15.6 C18,15.2 18.1,15.4 18.1,15.2 Z" id="Path"></path>
                    <path d="M23.5,12.3 C23.5,12.3 23.7,12.5 23.6,12.6 C23.2,13.1 23.7,13.8 23.8,13.8 C23.9,13.5 23.9,13.2 23.9,12.9 C23.9,12.8 23.9,12.7 23.9,12.6 C23.8,12.4 23.7,12.3 23.5,12.3 Z" id="Path"></path>
                    <path d="M15.8,10.7 C15.8,10.6 16.2,10.5 16.1,10.4 C16,10.3 15.9,10.3 15.8,10.3 C15.7,10.3 15.5,10.4 15.4,10.4 L15.4,10.4 C15.3,10.6 15.2,10.8 15.1,11.1 C15.1,11.1 15.2,11.1 15.2,11.1 C15.4,11.2 15.6,10.9 15.8,10.7 Z" id="Path"></path>
                    <path d="M23.5,14.1 C23.4,13.9 23.3,14.2 22.7,14.4 C22.4,14.5 22.1,14.5 21.9,14.6 C21.5,14.8 21.3,15.2 21.4,15.6 C21.6,16 21.5,16.3 21.8,16 C22.1,15.7 21.9,16 22,16.1 C22.1,16.2 22.1,15.9 22.3,16.1 C22.3,16.1 22.4,16.1 22.4,16.2 C22.8,15.7 23.2,15.2 23.4,14.6 C23.4,14.5 23.4,14.4 23.3,14.3 L23.5,14.1 Z" id="Path"></path>
                </g>
            </g>
        </g>
    </g>
</svg>