<?xml version="1.0" encoding="UTF-8"?>
<svg width="95px" height="95px" viewBox="0 0 95 95" version="1.1" xmlns="http://www.w3.org/2000/svg" xmlns:xlink="http://www.w3.org/1999/xlink">
    <!-- Generator: Sketch 53.2 (72643) - https://sketchapp.com -->
    <title>goal_2_target_2_3</title>
    <desc>Created with Sketch.</desc>
    <g id="goal_2_target_2_3" stroke="none" stroke-width="1" fill="none" fill-rule="evenodd">
        <g id="Group-11" fill-rule="nonzero">
            <rect id="Rectangle" fill="#DDA63A" x="9.23705556e-14" y="-2.13162821e-14" width="94.8" height="94.8"></rect>
            <g id="Group" transform="translate(9.700000, 22.000000)" fill="#FFFFFF">
                <g>
                    <path d="M7.1,9.4 C7.1,9.4 4.8,11.9 4.8,13.7 C4.8,15.2 6.6,16.2 7.1,16.5 C7.1,16.5 9.5,15.3 9.5,13.7 C9.4,11.8 7.1,9.4 7.1,9.4 Z" id="Path"></path>
                    <path d="M1.9,13.9 C1.9,13.9 1.5,18 3.3,19.3 C3.3,19.3 3.9,20.1 6.7,20.5 C6.7,20.5 7,17.8 6,16.7 C5.9,16.7 5.4,15.9 1.9,13.9 Z" id="Path"></path>
                    <path d="M1.5,19 C1.5,19 1.1,23.5 3,24.9 C3,24.9 3.6,25.7 6.6,26.2 C6.6,26.2 6.9,23.3 5.8,22.1 C5.8,22.1 5.3,21.2 1.5,19 Z" id="Path"></path>
                    <path d="M1.6,24.9 C1.6,24.9 1,29.8 2.9,31.1 C2.9,31.1 3.7,32 6.7,32.5 C6.7,32.5 7.2,29.5 6.1,28.3 C6,28.3 5.3,27.1 1.6,24.9 Z" id="Path"></path>
                    <path d="M0.9,30.8 C0.9,30.8 0.6,35.8 2.5,37.2 C2.5,37.2 3.5,38.2 6.5,38.6 C6.5,38.6 6.9,35.3 5.8,34.1 C5.8,34.2 4.8,32.8 0.9,30.8 Z" id="Path"></path>
                    <path d="M12.3,13.9 C12.3,13.9 12.7,18 10.9,19.3 C10.9,19.3 10.3,20.1 7.5,20.5 C7.5,20.5 7.2,17.8 8.2,16.7 C8.3,16.7 8.8,15.9 12.3,13.9 Z" id="Path"></path>
                    <path d="M12.6,19 C12.6,19 13,23.5 11.1,24.9 C11.1,24.9 10.5,25.7 7.5,26.2 C7.5,26.2 7.2,23.3 8.3,22.1 C8.3,22.1 8.9,21.2 12.6,19 Z" id="Path"></path>
                    <path d="M12.6,24.9 C12.6,24.9 13.2,29.8 11.3,31.1 C11.3,31.1 10.5,32 7.5,32.5 C7.5,32.5 7,29.5 8.2,28.3 C8.2,28.3 8.8,27.1 12.6,24.9 Z" id="Path"></path>
                    <path d="M13.2,30.8 C13.2,30.8 13.5,35.8 11.6,37.2 C11.6,37.2 10.6,38.2 7.6,38.6 C7.6,38.6 7.2,35.3 8.3,34.1 C8.3,34.2 9.3,32.8 13.2,30.8 Z" id="Path"></path>
                    <rect id="Rectangle" x="6.4" y="39.4" width="1.3" height="11.3"></rect>
                    <path d="M2.8,4.3 C2.8,4.1 2.6,3.9 2.4,3.9 C2.2,3.9 2,4.1 2,4.3 L2,13.1 L2.9,13.6 L2.8,4.3 Z" id="Path"></path>
                    <path d="M4.6,2.9 C4.6,2.7 4.4,2.5 4.2,2.5 C4,2.5 3.8,2.7 3.8,2.9 L3.8,13.3 C4,12.5 4.3,11.8 4.7,11.1 L4.6,2.9 Z" id="Path"></path>
                    <path d="M6.5,0.7 C6.5,0.5 6.3,0.3 6.1,0.3 C5.9,0.3 5.7,0.5 5.7,0.7 L5.7,9.8 L6.6,8.6 L6.5,0.7 Z" id="Path"></path>
                    <path d="M11.3,4.3 C11.3,4.1 11.5,3.9 11.7,3.9 C11.9,3.9 12.1,4.1 12.1,4.3 C12.1,4.3 12.1,4.3 12.1,4.3 L12.1,13.1 L11.2,13.6 L11.2,4.3 L11.3,4.3 Z" id="Path"></path>
                    <path d="M9.5,2.9 C9.5,2.7 9.7,2.5 9.9,2.5 C10.1,2.5 10.3,2.7 10.3,2.9 L10.3,13.3 C10.1,12.5 9.8,11.8 9.4,11.1 L9.5,2.9 Z" id="Path"></path>
                    <path d="M7.7,0.7 C7.7,0.5 7.9,0.3 8.1,0.3 C8.3,0.3 8.5,0.5 8.5,0.7 L8.5,9.8 L7.6,8.6 L7.7,0.7 Z" id="Path"></path>
                </g>
                <g transform="translate(14.000000, 0.000000)">
                    <path d="M6.8,9.4 C6.8,9.4 4.5,11.9 4.5,13.7 C4.5,15.2 6.3,16.2 6.8,16.5 C6.8,16.5 9.2,15.3 9.2,13.7 C9.2,11.8 6.8,9.4 6.8,9.4 Z" id="Path"></path>
                    <path d="M1.6,13.9 C1.6,13.9 1.2,18 3,19.3 C3,19.3 3.6,20.1 6.4,20.5 C6.4,20.5 6.7,17.8 5.7,16.7 C5.6,16.7 5.1,15.9 1.6,13.9 Z" id="Path"></path>
                    <path d="M1.2,19 C1.2,19 0.8,23.5 2.7,24.9 C2.7,24.9 3.3,25.7 6.3,26.2 C6.3,26.2 6.6,23.3 5.5,22.1 C5.5,22.1 5,21.2 1.2,19 Z" id="Path"></path>
                    <path d="M1.3,24.9 C1.3,24.9 0.7,29.8 2.6,31.1 C2.6,31.1 3.4,32 6.4,32.5 C6.4,32.5 6.9,29.5 5.7,28.3 C5.7,28.3 5,27.1 1.3,24.9 Z" id="Path"></path>
                    <path d="M0.6,30.8 C0.6,30.8 0.3,35.8 2.2,37.2 C2.2,37.2 3.2,38.2 6.2,38.6 C6.2,38.6 6.6,35.3 5.5,34.1 C5.5,34.2 4.5,32.8 0.6,30.8 Z" id="Path"></path>
                    <path d="M12,13.9 C12,13.9 12.4,18 10.6,19.3 C10.6,19.3 10,20.1 7.2,20.5 C7.2,20.5 6.9,17.8 7.9,16.7 C8,16.7 8.5,15.9 12,13.9 Z" id="Path"></path>
                    <path d="M12.4,19 C12.4,19 12.8,23.5 10.9,24.9 C10.9,24.9 10.3,25.7 7.3,26.2 C7.3,26.2 7,23.3 8.1,22.1 C8,22.1 8.6,21.2 12.4,19 Z" id="Path"></path>
                    <path d="M12.3,24.9 C12.3,24.9 13,29.8 11,31.1 C11,31.1 10.2,32 7.2,32.5 C7.2,32.5 6.7,29.5 7.9,28.3 C7.9,28.3 8.5,27.1 12.3,24.9 Z" id="Path"></path>
                    <path d="M12.9,30.8 C12.9,30.8 13.2,35.8 11.3,37.2 C11.3,37.2 10.3,38.2 7.3,38.6 C7.3,38.6 6.9,35.3 8,34.1 C8,34.2 9,32.8 12.9,30.8 Z" id="Path"></path>
                    <rect id="Rectangle" x="6.1" y="39.4" width="1.3" height="11.3"></rect>
                    <path d="M2.5,4.3 C2.5,4.1 2.3,3.9 2.1,3.9 C1.9,3.9 1.7,4.1 1.7,4.3 L1.7,13.1 L2.6,13.6 L2.5,4.3 Z" id="Path"></path>
                    <path d="M4.4,2.9 C4.4,2.7 4.2,2.5 4,2.5 C3.8,2.5 3.6,2.7 3.6,2.9 L3.6,13.3 C3.8,12.5 4.1,11.8 4.5,11.1 L4.4,2.9 Z" id="Path"></path>
                    <path d="M6.2,0.7 C6.2,0.5 6,0.3 5.8,0.3 C5.6,0.3 5.4,0.5 5.4,0.7 L5.4,9.8 L6.3,8.6 L6.2,0.7 Z" id="Path"></path>
                    <path d="M11,4.3 C11,4.1 11.2,3.9 11.4,3.9 C11.6,3.9 11.8,4.1 11.8,4.3 L11.8,4.3 L11.8,13.1 L11,13.6 L11,4.3 Z" id="Path"></path>
                    <path d="M9.2,2.9 C9.2,2.7 9.4,2.5 9.6,2.5 C9.8,2.5 10,2.7 10,2.9 L10,13.3 C9.8,12.5 9.5,11.8 9.1,11.1 L9.2,2.9 Z" id="Path"></path>
                    <path d="M7.4,0.7 C7.4,0.5 7.6,0.3 7.8,0.3 C8,0.3 8.2,0.5 8.2,0.7 L8.2,9.8 L7.3,8.6 L7.4,0.7 Z" id="Path"></path>
                </g>
                <g transform="translate(28.000000, 0.000000)">
                    <path d="M6.5,9.4 C6.5,9.4 4.2,11.9 4.2,13.7 C4.2,15.2 6,16.2 6.5,16.5 C6.5,16.5 8.9,15.3 8.9,13.7 C8.9,11.8 6.5,9.4 6.5,9.4 Z" id="Path"></path>
                    <path d="M1.3,13.9 C1.3,13.9 0.9,18 2.7,19.3 C2.7,19.3 3.3,20.1 6.1,20.5 C6.1,20.5 6.4,17.8 5.4,16.7 C5.3,16.7 4.8,15.9 1.3,13.9 Z" id="Path"></path>
                    <path d="M0.9,19 C0.9,19 0.5,23.5 2.4,24.9 C2.4,24.9 3,25.7 6,26.2 C6,26.2 6.3,23.3 5.2,22.1 C5.2,22.1 4.7,21.2 0.9,19 Z" id="Path"></path>
                    <path d="M1,24.9 C1,24.9 0.3,29.8 2.3,31.1 C2.3,31.1 3.1,32 6.1,32.5 C6.1,32.5 6.6,29.5 5.4,28.3 C5.4,28.3 4.8,27.1 1,24.9 Z" id="Path"></path>
                    <path d="M0.3,30.8 C0.3,30.8 5.55111512e-17,35.8 2,37.2 C2,37.2 3,38.2 6,38.6 C6,38.6 6.4,35.3 5.3,34.1 C5.2,34.2 4.2,32.8 0.3,30.8 Z" id="Path"></path>
                    <path d="M11.7,13.9 C11.7,13.9 12.1,18 10.3,19.3 C10.3,19.3 9.7,20.1 6.9,20.5 C6.9,20.5 6.6,17.8 7.6,16.7 C7.7,16.7 8.2,15.9 11.7,13.9 Z" id="Path"></path>
                    <path d="M12.1,19 C12.1,19 12.5,23.5 10.6,24.9 C10.6,24.9 10,25.7 7,26.2 C7,26.2 6.7,23.3 7.8,22.1 C7.7,22.1 8.3,21.2 12.1,19 Z" id="Path"></path>
                    <path d="M12,24.9 C12,24.9 12.7,29.8 10.7,31.1 C10.7,31.1 9.9,32 6.9,32.5 C6.9,32.5 6.4,29.5 7.6,28.3 C7.6,28.3 8.2,27.1 12,24.9 Z" id="Path"></path>
                    <path d="M12.6,30.8 C12.6,30.8 12.9,35.8 11,37.2 C11,37.2 10,38.2 7,38.6 C7,38.6 6.6,35.3 7.7,34.1 C7.8,34.2 8.7,32.8 12.6,30.8 Z" id="Path"></path>
                    <rect id="Rectangle" x="5.8" y="39.4" width="1.3" height="11.3"></rect>
                    <path d="M2.2,4.3 C2.2,4.1 2,3.9 1.8,3.9 C1.6,3.9 1.4,4.1 1.4,4.3 L1.4,13.1 L2.3,13.6 L2.2,4.3 Z" id="Path"></path>
                    <path d="M4,2.9 C4,2.7 3.8,2.5 3.6,2.5 C3.4,2.5 3.2,2.7 3.1,2.9 L3.1,13.3 C3.3,12.5 3.6,11.8 4,11.1 L4,2.9 Z" id="Path"></path>
                    <path d="M5.9,0.7 C5.9,0.5 5.7,0.3 5.5,0.3 C5.3,0.3 5.1,0.5 5.1,0.7 L5.1,0.7 L5.1,9.8 L6,8.6 L6,0.7 L5.9,0.7 Z" id="Path"></path>
                    <path d="M10.8,4.3 C10.8,4.1 11,3.9 11.2,3.9 C11.4,3.9 11.6,4.1 11.6,4.3 L11.6,4.3 L11.6,13.1 L10.7,13.6 L10.7,4.3 L10.8,4.3 Z" id="Path"></path>
                    <path d="M8.9,2.9 C8.9,2.7 9.1,2.5 9.3,2.5 C9.5,2.5 9.7,2.7 9.7,2.9 L9.7,13.3 C9.5,12.5 9.2,11.8 8.8,11.1 L8.9,2.9 Z" id="Path"></path>
                    <path d="M7.1,0.7 C7.1,0.5 7.3,0.3 7.6,0.3 C7.8,0.3 8,0.5 8,0.7 L8,9.8 L7.1,8.6 L7.1,0.7 Z" id="Path"></path>
                </g>
                <polygon id="Path" points="59.5 16 56.1 26.7 60 38.6 55.5 38.6 52.9 30.1 50.3 38.6 46.2 38.6 50 26.5 46.5 16 51 16 53.2 23.3 55.4 16"></polygon>
                <path d="M62.5,33.6 C62.5,30.9 63.4,29.2 65.9,26.5 L68.5,23.8 C70,22.2 70.2,21.4 70.2,19.1 L70.2,16.9 C70.2,15.2 69.4,14.9 68.6,14.9 C67.8,14.9 66.8,15.4 66.8,17 L66.8,20.4 L62.6,20.4 L62.6,17.1 C62.6,13.3 64.6,11.2 68.6,11.2 C72.6,11.2 74.5,13 74.5,16.9 L74.5,19.5 C74.5,22.2 74,23.8 71.6,26.3 L68.7,29.4 C67.5,30.6 66.8,31.4 66.8,33.6 L66.8,34.9 L74.3,34.9 L74.3,38.6 L62.5,38.6 L62.5,33.6 Z" id="Path"></path>
            </g>
        </g>
    </g>
</svg>