<?xml version="1.0" encoding="UTF-8"?>
<svg width="95px" height="95px" viewBox="0 0 95 95" version="1.1" xmlns="http://www.w3.org/2000/svg" xmlns:xlink="http://www.w3.org/1999/xlink">
    <!-- Generator: Sketch 53.2 (72643) - https://sketchapp.com -->
    <title>goal_3_target_3_4</title>
    <desc>Created with Sketch.</desc>
    <g id="goal_3_target_3_4" stroke="none" stroke-width="1" fill="none" fill-rule="evenodd">
        <g id="Group-20" fill-rule="nonzero">
            <rect id="Rectangle" fill="#4C9F38" x="9.23705556e-14" y="-2.13162821e-14" width="94.8" height="94.8"></rect>
            <g id="Group" transform="translate(10.700000, 8.000000)" fill="#FFFFFF">
                <path d="M62.4,43.4 C62.4,45.2 63.8,46.6 65.6,46.6 C67.4,46.6 68.8,45.2 68.8,43.4 C68.8,41.6 67.4,40.2 65.6,40.2 L65.6,40.2 C63.9,40.2 62.4,41.6 62.4,43.4 Z" id="Path"></path>
                <path d="M34.4,45 C34.4,46.7 35.7,48 37.4,48 C39.1,48 40.4,46.7 40.4,45 C40.4,43.3 39.1,42 37.4,42 C35.7,42 34.4,43.4 34.4,45 Z" id="Path"></path>
                <path d="M6.9,43.4 C6.9,45.2 8.3,46.6 10.1,46.6 C11.9,46.6 13.3,45.2 13.3,43.4 C13.3,41.6 11.9,40.2 10.1,40.2 C8.3,40.2 6.9,41.6 6.9,43.4 L6.9,43.4 Z" id="Path"></path>
                <path d="M25.5,24.1 L26,24.1 C26.6,24.1 27.1,23.7 27.3,23.1 L29.7,15 L34.4,33.8 C34.5,34.4 35,34.9 35.6,35 L35.8,35 C36.3,35 36.8,34.7 37.1,34.2 L43.9,20.8 L46.4,27.6 C46.6,28.1 47.1,28.5 47.7,28.5 L47.7,28.5 C48.3,28.5 48.8,28.1 49,27.6 L57.6,6 L59.9,11.6 C60.2,12.3 61,12.6 61.7,12.3 C62.4,12 62.7,11.2 62.4,10.5 L62.4,10.5 L58.7,1.7 C58.5,1.2 58,0.9 57.4,0.9 L57.4,0.9 C56.8,0.9 56.3,1.2 56.1,1.8 L47.6,23.2 L45.2,16.7 C45,16.2 44.5,15.8 44,15.8 C43.4,15.8 42.9,16.1 42.7,16.6 L36.4,29 L31.4,9.5 C31.3,8.9 30.8,8.4 30.2,8.4 C29.6,8.4 29,8.8 28.8,9.4 L25.1,21.4 L2.2,21.4 L2.2,24.2 L25.5,24.1 Z" id="Path"></path>
                <path d="M57.4,19 C57.4,20.2 57.9,21.4 58.7,22.3 L65.1,28.7 L71.4,22.3 L71.4,22.3 C72.3,21.4 72.7,20.2 72.7,19 C72.7,16.5 71.1,14.4 68.6,14.4 C67.4,14.4 65.9,15.8 65,16.6 C64.2,15.8 62.8,14.4 61.6,14.4 C59.2,14.5 57.3,16.4 57.4,18.8 C57.4,18.9 57.4,18.9 57.4,19 Z" id="Path"></path>
                <path d="M69.4,47.8 L69.2,47.8 L62.2,47.8 L62,47.8 C59.8,48 58.1,49.8 58.1,52.1 L58.1,61 C58,61.7 58.5,62.3 59.2,62.4 C59.9,62.5 60.5,62 60.6,61.3 C60.6,61.2 60.6,61.2 60.6,61.1 L60.6,53.4 C60.6,53.1 60.7,52.7 61.2,52.7 C61.6,52.7 61.6,53.1 61.6,53.3 L61.6,76.2 C61.5,77.2 62.3,78 63.3,78.1 C64.3,78.2 65.1,77.4 65.2,76.4 C65.2,76.3 65.2,76.2 65.2,76.1 L65.2,63 C65.2,62.7 65.4,62.5 65.7,62.5 C65.7,62.5 65.7,62.5 65.7,62.5 L65.7,62.5 C66,62.5 66.2,62.7 66.2,62.9 C66.2,62.9 66.2,62.9 66.2,63 L66.2,76.2 C66.2,77.2 67,78 68,78 C69,78 69.8,77.2 69.8,76.2 L69.8,53.3 C69.8,53.1 69.9,52.7 70.2,52.7 C70.7,52.7 70.8,53.1 70.8,53.4 L70.8,61 C70.7,61.7 71.2,62.3 71.9,62.4 C72.6,62.5 73.2,62 73.3,61.3 C73.3,61.2 73.3,61.2 73.3,61.1 L73.3,52.2 C73.3,49.9 71.6,48 69.4,47.8 Z" id="Path"></path>
                <path d="M46.1,60.2 L43.6,52 C43.6,52 42.7,49.6 40.7,49.6 L34.3,49.6 C32.3,49.6 31.4,52 31.4,52 L28.9,60.2 C28.9,60.4 28.8,60.5 28.8,60.7 C28.7,60.6 28.6,60.5 28.5,60.5 C28,60.3 27.5,60.4 27.2,60.9 C27.2,60.9 27.2,60.9 27.2,60.9 C26.7,61.8 26.2,62.6 25.6,63.4 C25.4,63.6 25.1,63.8 24.8,63.8 L21.7,63.8 C21.4,63.8 21.1,63.6 21,63.4 C20.6,63 19.4,60.9 19.4,60.8 C19.1,60.4 18.6,60.3 18.1,60.5 C18,60.6 17.9,60.7 17.8,60.8 L17.8,52.1 C17.8,49.9 16.1,48 13.9,47.8 L13.7,47.8 L6.7,47.8 L6.5,47.8 C4.3,48 2.6,49.8 2.6,52.1 L2.6,61 C2.6,61.4 2.8,61.8 3.2,62 L0.3,77.3 C0.2,77.6 0.4,77.9 0.7,78 L0.8,78 C1.1,78 1.3,77.8 1.4,77.5 L4.3,62.1 C4.7,61.9 5,61.5 5,61 L5,53.3 C5,53 5.1,52.6 5.6,52.6 C6,52.6 6,53 6.1,53.2 L6.1,76.1 C6.1,77.1 6.9,77.9 7.9,77.9 C8.9,77.9 9.7,77.1 9.7,76.1 C9.7,76.1 9.7,76.1 9.7,76.1 L9.7,63 C9.6,62.7 9.8,62.5 10.1,62.4 C10.4,62.3 10.6,62.5 10.7,62.8 C10.7,62.9 10.7,62.9 10.7,63 L10.7,76.2 C10.7,77.2 11.5,78 12.5,78 C13.5,78 14.3,77.2 14.3,76.2 L14.3,53.3 C14.3,53.1 14.4,52.7 14.8,52.7 C15.3,52.7 15.4,53.1 15.4,53.4 L15.4,61 C15.4,61.7 15.9,62.2 16.6,62.3 C17.1,62.3 17.5,62 17.8,61.6 C17.8,61.7 17.8,61.7 17.8,61.7 L20.4,66.3 C20.5,66.5 20.5,66.7 20.6,66.9 L20.6,67.6 L20.6,67.6 C20.6,67.9 20.6,68.1 20.5,68.4 L19.3,73.2 L20.7,73.2 L20.7,76.8 L20.7,76.8 C20.6,77.5 21.1,78.1 21.8,78.2 C22.5,78.3 23.1,77.8 23.2,77.1 C23.2,77 23.2,77 23.2,76.9 L23.2,73.5 C23.2,73.5 23.2,73.4 23.2,73.3 L24,73.3 C24,73.3 24,73.4 24,73.5 L24,76.9 C24,77.6 24.6,78.1 25.2,78.1 C25.8,78.1 26.4,77.5 26.4,76.9 L26.4,73.3 L27.7,73.3 L26.5,68.5 C26.4,68.3 26.4,68.1 26.4,67.9 L26.4,67.7 L26.4,67.7 L26.4,67 C26.4,66.8 26.5,66.6 26.6,66.4 L29,62.1 L29.2,61.7 C29.2,61.7 29.2,61.6 29.2,61.6 C29.3,61.9 29.6,62.1 30,62.2 C31.3,62.6 31.7,61.1 31.7,61.1 L33.7,54.2 C33.7,54.2 33.8,53.7 34.2,53.8 C34.6,53.9 34.4,54.5 34.4,54.5 L30.9,67.4 L34.2,67.4 L34.2,76.6 C34.3,77.5 35,78.1 35.9,78.1 C36.7,78 37.3,77.4 37.4,76.6 L37.4,67.4 L38.3,67.4 L38.3,76.6 C38.4,77.5 39.1,78.1 40,78.1 C40.8,78 41.4,77.4 41.5,76.6 L41.5,67.4 L44.8,67.4 L41.3,54.5 C41.3,54.5 41.1,53.9 41.5,53.8 C41.9,53.7 42,54.2 42,54.2 L44,61.1 C44,61.1 44.4,62.6 45.7,62.2 C47,61.8 46.1,60.2 46.1,60.2 Z" id="Path"></path>
                <path d="M49.4,59.6 C49.4,61 50.6,62.1 52,62.1 C53.4,62.1 54.5,60.9 54.5,59.5 C54.5,58.1 53.4,57 52,57 C50.6,57 49.4,58.1 49.4,59.6 C49.4,59.5 49.4,59.6 49.4,59.6 Z" id="Path"></path>
                <path d="M57.1,67 C55.6,63 55.3,63.1 53.9,63 L50,63 C48.6,63 48.3,63 46.8,67 C46.6,67.6 45.7,69.8 45.6,69.9 C45.5,70 45.2,70.8 46.1,71.1 C47,71.4 47.2,70.5 47.2,70.5 L48.8,66.6 C48.8,66.6 48.8,66.5 48.9,66.5 C49,66.5 49,66.6 49,66.6 L49,76.7 L49,76.7 C49,77.4 49.5,78 50.3,78.1 C50.3,78.1 50.3,78.1 50.4,78.1 C51.1,78.1 51.7,77.5 51.7,76.8 C51.7,76.8 51.7,76.8 51.7,76.7 L51.7,72.7 C51.7,72.7 51.7,72.1 52.1,72.1 C52.5,72.1 52.5,72.7 52.5,72.7 L52.5,76.7 C52.5,77.4 53,78 53.8,78.1 C53.8,78.1 53.8,78.1 53.8,78.1 C54.5,78.1 55.1,77.6 55.1,76.9 C55.1,76.9 55.1,76.8 55.1,76.8 L55.1,76.8 L55.1,66.7 C55.1,66.6 55.1,66.6 55.1,66.6 L55.2,66.7 L56.6,70.2 C56.6,70.2 57,71.1 57.8,70.8 C58.6,70.5 58.2,69.6 58.2,69.6 C58.2,69.6 57.3,67.6 57.1,67 Z" id="Path"></path>
                <path d="M23.3,57 C21.9,57 20.8,58.1 20.8,59.5 C20.8,60.9 21.9,62 23.3,62 C24.7,62 25.8,60.9 25.8,59.5 L25.8,59.5 C25.8,58.1 24.7,57 23.3,57 Z" id="Path"></path>
            </g>
        </g>
    </g>
</svg>