<?xml version="1.0" encoding="UTF-8"?>
<svg width="95px" height="95px" viewBox="0 0 95 95" version="1.1" xmlns="http://www.w3.org/2000/svg" xmlns:xlink="http://www.w3.org/1999/xlink">
    <!-- Generator: Sketch 53.2 (72643) - https://sketchapp.com -->
    <title>goal_12_target_12_5</title>
    <desc>Created with Sketch.</desc>
    <g id="goal_12_target_12_5" stroke="none" stroke-width="1" fill="none" fill-rule="evenodd">
        <g id="Group-97" fill-rule="nonzero">
            <rect id="Rectangle" fill="#BF8B2E" x="-3.62376795e-13" y="-2.13162821e-14" width="94.8" height="94.8"></rect>
            <g id="Group" transform="translate(10.700000, 10.000000)" fill="#FFFFFF">
                <g transform="translate(0.000000, 25.000000)">
                    <path d="M19.2,1.9 L12.6,1.9 L12.6,1.1 C12.6,1 12.5,0.8 12.3,0.8 L7.3,0.8 C7.2,0.8 7,0.9 7,1.1 L7,1.9 L0.4,1.9 C0.3,1.9 0.1,2 0.1,2.2 L0.3,3.3 C0.3,3.4 0.4,3.6 0.6,3.5 L19,3.5 C19.1,3.5 19.3,3.4 19.3,3.3 L19.5,2.2 C19.5,2 19.4,1.9 19.2,1.9 Z" id="Path"></path>
                    <path d="M19,4.5 L0.8,4.5 C0.7,4.5 0.5,4.6 0.5,4.7 C0.5,4.7 0.5,4.7 0.5,4.7 L1.8,24 C1.8,24.1 1.9,24.3 2.1,24.3 C2.1,24.3 2.1,24.3 2.1,24.3 L17.7,24.3 C17.8,24.3 18,24.2 18,24.1 C18,24.1 18,24.1 18,24.1 L19.3,4.9 C19.3,4.6 19.2,4.5 19,4.5 C19.1,4.5 19,4.5 19,4.5 Z M5.5,21.6 L5.5,21.6 C5.2,21.6 4.9,21.3 4.9,21 L4.1,8 C4.1,7.6 4.3,7.3 4.7,7.3 C5.1,7.3 5.4,7.5 5.4,7.9 L6.2,20.9 C6.2,21.2 5.9,21.5 5.5,21.6 C5.5,21.6 5.5,21.6 5.5,21.6 Z M10.5,20.9 C10.5,21.3 10.1,21.5 9.8,21.5 C9.5,21.5 9.3,21.2 9.2,20.9 L9.2,7.9 C9.2,7.5 9.6,7.3 9.9,7.3 C10.2,7.3 10.4,7.6 10.5,7.9 L10.5,20.9 Z M15,21 C15,21.3 14.7,21.6 14.4,21.6 L14.4,21.6 C14,21.6 13.8,21.3 13.8,20.9 C13.8,20.9 13.8,20.9 13.8,20.9 L14.6,7.9 C14.7,7.5 15,7.3 15.4,7.4 C15.7,7.5 15.9,7.7 15.9,8 L15,21 Z" id="Shape"></path>
                </g>
                <path d="M42.5,37 L41.4,34.4 C41.4,34.3 41.3,34.2 41.1,34.3 C41.1,34.3 41,34.3 41,34.3 L38.1,35.8 L38.4,36.4 L41,35.1 L41.8,37 L39.7,37 L40.9,49.2 L47.2,49.2 L48.4,37 L42.5,37 Z" id="Path"></path>
                <path d="M75.1,29.6 L69.9,27.2 L66.8,26.5 C66.1,28.1 64.6,29.1 62.9,29.1 L62.7,29.1 C60.9,29.1 59.3,28.1 58.5,26.5 L55.5,27.2 L50.3,29.6 C50.3,29.6 50,29.7 50.2,30.1 L52.5,34.7 C52.5,34.8 52.7,34.9 52.8,34.9 C52.8,34.9 52.8,34.9 52.8,34.9 C53.3,34.7 55.5,34.2 55.5,34.2 L55.5,49 C55.5,49 55.6,49.3 55.9,49.3 L69.5,49.3 C69.8,49.3 69.9,49 69.9,49 L69.9,34.2 C69.9,34.2 72.1,34.8 72.6,34.9 C72.7,35 72.9,34.9 72.9,34.8 C72.9,34.8 72.9,34.8 72.9,34.8 L75.2,30.2 C75.4,29.7 75.1,29.6 75.1,29.6 Z" id="Path"></path>
                <g transform="translate(25.000000, 25.000000)" id="Path">
                    <path d="M3.1,0.3 L5.8,0.3 C6.3,0.3 6.6,0.7 6.6,1.1 L6.6,2 C6.6,2.5 6.2,2.8 5.8,2.8 L3.1,2.8 C2.6,2.8 2.3,2.4 2.3,2 L2.3,1.2 C2.3,0.7 2.7,0.3 3.1,0.3 Z"></path>
                    <path d="M8.5,9.4 L8.5,7.4 C8.5,7.2 8.4,7.1 8.3,6.9 C8.1,6.7 6.5,3.8 6.5,3.8 C6.5,3.7 6.4,3.7 6.3,3.7 L2.6,3.7 C2.5,3.7 2.4,3.7 2.4,3.8 C2.4,3.8 0.7,6.7 0.6,6.9 C0.5,7 0.4,7.2 0.4,7.4 L0.4,9.4 L0.4,19.5 L0.4,23.3 C0.4,23.9 0.8,24.3 1.4,24.3 L7.6,24.3 C8.1,24.3 8.6,23.8 8.6,23.3 L8.6,19.5 L8.5,9.4 Z"></path>
                </g>
                <path d="M59.8,63.4 L57,61.2 C56.8,61 56.4,60.9 56.2,61.2 C56.2,61.2 56.2,61.2 56.2,61.2 L56.2,61.2 C47.4,71.7 32.2,72.8 21.4,64.2 C21.1,63.9 20.8,63.7 20.5,63.4 L23.7,61.4 C24,61.2 23.6,60.9 23.6,60.9 L12.8,55.5 C12.5,55.3 12.4,55.5 12.4,55.7 L12.4,55.8 L12.4,55.8 L12.2,68 C12.2,68.1 12.3,68.4 12.6,68.2 L12.6,68.2 L16.1,66 C16.8,66.7 17.5,67.3 18.3,67.9 C31.1,78.2 49.2,76.8 59.8,64.4 L59.9,64.3 C60.1,64.1 60.1,63.7 59.8,63.4 C59.8,63.4 59.8,63.4 59.8,63.4 Z" id="Path"></path>
                <path d="M12.3,12.8 L15.2,14.9 C15.4,15.1 15.8,15.1 16,14.9 C16,14.9 16,14.9 16,14.8 L16,14.8 C24.2,3.8 39.3,1.8 50.5,9.8 C50.8,10 51.2,10.3 51.5,10.6 L48.5,12.8 C48.2,13 48.7,13.3 48.7,13.3 L59.8,18 C60.1,18.2 60.2,17.9 60.2,17.8 L60.2,17.7 L60.2,17.7 L59.5,5.4 C59.5,5.3 59.4,5 59.1,5.2 L59.1,5.2 L55.7,7.6 C55,7 54.2,6.4 53.4,5.8 C40,-3.7 22,-1.3 12.2,11.7 L12.1,11.8 C12,12.2 12,12.5 12.3,12.8 C12.3,12.8 12.3,12.8 12.3,12.8 Z" id="Path"></path>
            </g>
        </g>
    </g>
</svg>