<?xml version="1.0" encoding="UTF-8"?>
<svg width="95px" height="95px" viewBox="0 0 95 95" version="1.1" xmlns="http://www.w3.org/2000/svg" xmlns:xlink="http://www.w3.org/1999/xlink">
    <!-- Generator: Sketch 53.2 (72643) - https://sketchapp.com -->
    <title>goal_17_target_17_5</title>
    <desc>Created with Sketch.</desc>
    <g id="goal_17_target_17_5" stroke="none" stroke-width="1" fill="none" fill-rule="evenodd">
        <g id="Group-147" fill-rule="nonzero">
            <rect id="Rectangle" fill="#19486A" x="1.45661261e-12" y="7.10542736e-15" width="94.8" height="94.8"></rect>
            <g id="Group" transform="translate(6.700000, 10.000000)" fill="#FFFFFF">
                <g transform="translate(52.000000, 25.000000)">
                    <path d="M28.7,12.3 C28.7,11.9 28.4,11.7 28,11.7 L27,11.7 C26.6,11.7 26.3,11.6 26.2,11.2 C26,10.5 25.8,9.9 25.5,9.3 C25.3,8.9 25.4,8.5 25.7,8.3 C26,8.1 26.3,7.8 26.5,7.6 C26.8,7.4 26.8,7 26.7,6.7 C26.3,5.9 25.7,5.2 25.1,4.6 C24.9,4.3 24.4,4.3 24.2,4.5 C23.9,4.7 23.6,4.9 23.4,5.1 C23.2,5.3 22.7,5.4 22.4,5.2 C21.8,4.7 21.1,4.3 20.7,4 C20.3,3.8 20.2,3.4 20.3,3 C20.4,2.6 20.5,2.3 20.6,1.9 C20.7,1.6 20.5,1.2 20.2,1.1 C19.4,0.7 18.6,0.5 17.7,0.3 C17.3,0.2 17,0.4 16.9,0.8 C16.8,1.1 16.7,1.4 16.6,1.8 C16.5,2.2 16.3,2.5 15.9,2.4 C15,2.4 14.4,2.4 13.8,2.4 C13.4,2.4 13.1,2.2 12.9,1.9 C12.8,1.5 12.6,1.2 12.5,0.9 C12.4,0.6 12.1,0.4 11.7,0.5 C10.8,0.7 10,1 9.2,1.3 C8.9,1.4 8.7,1.8 8.8,2.2 C8.8,2.2 8.8,2.2 8.8,2.2 C8.9,2.6 9,2.8 9.1,3.2 C9.2,3.6 9.2,3.9 8.9,4.2 C8.6,4.5 7.7,5 7.2,5.4 C6.9,5.6 6.5,5.7 6.2,5.5 L5.2,4.9 C4.9,4.7 4.5,4.8 4.3,5 C3.7,5.6 3.2,6.4 2.8,7.1 C2.6,7.4 2.7,7.8 3,8 L3.8,8.6 C4.1,8.8 4.3,9.1 4.2,9.5 C4.1,9.9 3.7,11.1 3.6,11.5 C3.5,11.9 3.2,12.1 2.8,12.2 C2.4,12.2 2.1,12.3 1.7,12.3 C1.4,12.3 1.1,12.6 1,12.9 C0.9,13.8 0.9,14.7 1,15.5 C1,15.9 1.3,16.1 1.7,16.1 C2.1,16.1 2.3,16.1 2.7,16.1 C3.1,16.1 3.4,16.2 3.5,16.6 C3.7,17.3 3.9,17.9 4.2,18.6 C4.4,19 4.3,19.4 4,19.6 L3.1,20.3 C2.8,20.5 2.8,20.9 2.9,21.2 C3.3,22 3.9,22.7 4.5,23.3 C4.7,23.6 5.2,23.6 5.4,23.4 L6.2,22.8 C6.5,22.6 6.9,22.5 7.2,22.7 C7.5,22.9 8.5,23.6 8.9,23.9 C9.2,24.1 9.4,24.5 9.3,24.9 C9.2,25.3 9.1,25.6 9,26 C8.9,26.3 9.1,26.7 9.4,26.8 C10.2,27.2 11,27.4 11.9,27.6 C12.3,27.7 12.6,27.5 12.7,27.1 C12.8,26.8 12.9,26.5 13,26.1 C13.1,25.7 13.3,25.4 13.7,25.5 C14.5,25.5 15.1,25.5 15.8,25.5 C16.2,25.5 16.5,25.7 16.7,26 C16.8,26.4 17,26.7 17.1,27 C17.2,27.3 17.6,27.5 17.9,27.4 C18.8,27.2 19.6,26.9 20.4,26.6 C20.7,26.5 20.9,26.1 20.8,25.7 C20.8,25.7 20.8,25.7 20.8,25.7 C20.7,25.3 20.6,25.1 20.5,24.7 C20.4,24.3 20.4,24 20.7,23.7 C21,23.4 22,22.8 22.4,22.5 C22.7,22.3 23.1,22.2 23.4,22.4 C23.7,22.6 24,22.8 24.4,23 C24.7,23.2 25.1,23.1 25.3,22.9 C25.9,22.2 26.5,21.5 26.9,20.7 C27.1,20.4 27,20 26.7,19.8 C26.4,19.6 26.2,19.4 25.9,19.2 C25.6,19 25.4,18.7 25.5,18.3 C25.6,17.9 26,16.8 26.1,16.3 C26.2,15.9 26.5,15.7 26.9,15.6 C27.3,15.6 27.6,15.6 28,15.5 C28.3,15.5 28.6,15.2 28.7,14.9 C28.9,14 28.9,13.1 28.7,12.3 Z M15,22.5 C10.3,22.5 6.5,18.6 6.5,13.9 C6.5,9.2 10.4,5.4 15.1,5.4 C19.8,5.4 23.6,9.3 23.6,14 C23.6,18.7 19.7,22.5 15,22.5 Z" id="Shape"></path>
                    <path d="M8.7,11.5 C8.9,11.6 9,11.5 9.1,11.4 C9.2,11.3 9.2,11.2 9.1,11.1 C9.1,11 9.2,10.9 9.3,10.9 C9.5,10.8 9.7,10.7 9.9,10.6 C10.3,10.5 10.7,10.5 11.1,10.6 C11.4,10.7 11.7,10.7 11.9,10.4 C12.1,10.2 12.2,10.1 12.5,9.9 C12.6,9.9 12.2,9.5 11.9,9.9 C11.6,10.3 11.4,10.3 11.3,10.3 C11.2,10.3 10.3,10.1 10.2,9.8 C10.1,9.5 10.5,9.3 10.8,9.2 C11.3,9.1 11.7,9 12.2,9 C12.6,8.9 13.2,8.7 13.5,8.9 C13.8,9.1 12.3,9.4 12.8,9.7 C13,9.8 13.8,9.2 14.1,9.1 C14.8,8.8 13.5,8.7 13.6,8 C13.7,7.3 12.1,7.5 11.2,7.6 C10.8,7.9 10.4,8.2 10,8.5 C10.1,8.5 10.2,8.6 10.2,8.6 C10.2,8.7 10.2,8.9 10.1,9 C9.9,9.2 9.6,9.3 9.3,9.4 C9.2,9.4 9.2,9.4 9.1,9.3 C9,9.5 8.8,9.6 8.7,9.8 C8.9,9.7 9.1,9.6 9.3,9.6 C9.5,9.6 9.7,9.7 9.8,9.8 C9.9,9.9 9.3,10.1 9.2,10.2 C8.9,10.4 8.5,10.9 8.3,11 C8.2,11 8.2,11 8.1,11 C8,11.2 8,11.3 7.9,11.5 C8.1,11.4 8.4,11.4 8.7,11.5 Z" id="Path"></path>
                    <path d="M21.1,13.5 C20.9,13.7 20.6,13.8 20.3,13.8 C20,14 19.9,14.4 19.9,14.7 C19.9,15 20.6,15.8 20.1,15.7 C19.6,15.5 19.2,15.1 18.9,14.7 C18.7,14.3 18.6,13.9 18.5,13.6 C18.4,13.4 18.2,13.2 17.9,13.3 C17.9,13.3 17.8,13.3 17.8,13.4 C17.5,13.6 17.9,13.8 17.7,14.2 C17.5,14.6 17.4,14.9 17.1,14.6 C16.4,13.8 15.3,14.2 15.1,13.2 C15,12.7 14.6,12.7 14.2,12.4 C13.8,12.1 13.6,12 13.6,12.2 C13.6,12.4 14.8,13.3 14.8,13.6 C14.8,13.9 14.4,14.3 14.1,14.4 C13.8,14.5 13.6,14.2 13.2,13.8 C12.8,13.4 12.7,13.2 12.7,13.5 C12.7,14 13,14.5 13.4,14.7 C13.7,14.9 14,15 13.9,15.3 C13.8,15.6 13.9,15.4 13.6,15.8 C13.3,16 13.1,16.4 13.2,16.7 C13.2,17.2 13.1,17.2 13,17.6 C12.9,18 12.8,17.7 12.6,18.2 C12.5,18.6 12.4,18.9 12.1,19.2 C11.8,19.4 11.5,19.6 11.1,19.6 C10.8,19.6 10.7,18.7 10.7,18.2 C10.7,18 10.5,18.5 10.4,17.5 C10.3,16.9 9.9,17.6 9.9,17.2 C9.9,16.8 9.7,16.9 9.5,16.6 C9.3,16.3 9,16.6 8.7,16.8 C8.4,17 8.5,17 8.1,16.9 L8.1,16.9 C9,19 10.7,20.6 12.9,21.2 C12.8,21.1 12.8,21 12.8,20.8 C13.1,20.3 13.7,19.9 14.3,19.9 C15.5,19.8 17.1,20.7 17.4,20.6 C17.7,20.5 18.2,19.8 18.9,19.8 C19.1,19.8 19.4,19.9 19.6,20 C19.9,19.8 20.1,19.6 20.4,19.4 L20.2,19.3 C19.8,19.1 19.8,19.4 19.6,19.3 C19.4,19.2 19.8,18.8 19.2,19.1 C18.6,19.4 18.8,19 18.5,18.4 C18.3,17.7 18.7,17.1 19.3,16.8 C19.8,16.6 20.2,16.5 20.7,16.4 C21.6,16.2 21.8,15.6 22,16 L22.1,16.2 C22.2,16.3 22.2,16.5 22.2,16.7 C22.3,16.3 22.4,16 22.5,15.6 C22.3,15.5 21.5,14.4 22.1,13.6 C22.2,13.5 21.9,13.1 22,13.1 C22.3,13.1 22.6,13.3 22.6,13.6 C22.6,13.2 22.5,12.8 22.4,12.4 C22.4,12.5 22.4,12.6 22.4,12.7 C22.3,13 22,13.1 21.8,13 C21.7,13 21.6,12.9 21.6,12.8 C21.5,12.7 21.2,12.4 21.2,12.9 C21.2,13.4 21.6,13.2 21.1,13.5 Z M14,16.5 C13.9,16.7 13.6,17.9 13.4,17.8 C13.2,17.7 13.5,16.3 13.5,16.2 C13.8,15.7 14.5,15.7 14,16.5 Z M17.1,15 C16.9,15.1 16.6,15.1 16.4,14.9 C16.2,14.7 16.5,14.5 16.6,14.5 C16.7,14.5 17.2,14.9 17.1,15 Z M20.2,14.7 C20.1,14.5 20.3,14.4 20.4,14.5 C20.5,14.6 20.8,14.8 20.8,14.9 C20.8,15 20.5,15 20.4,15 C20.3,15 20.2,14.9 20.2,14.7 Z M21.2,15.7 C21,15.8 20.7,15.8 20.5,15.6 C20.3,15.4 20.6,15.2 20.7,15.2 C20.8,15.2 21.3,15.6 21.2,15.7 L21.2,15.7 Z" id="Shape"></path>
                    <path d="M8.4,12.3 C8.8,12.4 9.2,12.5 9.6,12.6 C10,12.8 10.7,13.1 11.1,13 C11.5,12.9 11.6,12.7 11.6,12.5 C11.6,12.3 11.3,12.1 11,12.3 C10.9,12.4 10.7,11.8 10.5,11.9 C10.3,12 10.7,12.5 10.6,12.6 C10.5,12.7 10.2,12 10.1,11.9 C10,11.8 9.8,11.5 9.6,11.7 C9.2,12.1 8.4,12.1 8.3,12.2 L8.1,12.3 C7.8,12.4 7.7,12.1 7.7,11.9 C7.6,12.3 7.5,12.8 7.4,13.2 L7.4,13 C7.6,12.6 7.7,12.5 7.8,12.4 C7.9,12.4 8,12.3 8.1,12.3 L8.4,12.3 Z" id="Path"></path>
                </g>
                <path d="M65.1,63.4 L62.3,61.2 C62.1,61 61.7,60.9 61.5,61.2 C61.5,61.2 61.5,61.2 61.5,61.2 L61.5,61.2 C52.7,71.7 37.5,72.8 26.7,64.2 C26.4,63.9 26.1,63.7 25.8,63.4 L29,61.4 C29.3,61.2 28.9,60.9 28.9,60.9 L18,55.5 C17.7,55.3 17.6,55.5 17.6,55.7 L17.6,55.8 L17.6,55.8 L17.6,68 C17.6,68.1 17.7,68.4 18,68.2 L18,68.2 L21.5,66 C22.2,66.7 22.9,67.3 23.6,67.9 C36.4,78.2 54.5,76.8 65.1,64.4 L65.2,64.3 C65.4,64.1 65.4,63.7 65.1,63.4 C65.1,63.4 65.1,63.4 65.1,63.4 Z" id="Path"></path>
                <path d="M17.6,12.8 L20.5,14.9 C20.7,15.1 21.1,15.1 21.3,14.9 C21.3,14.9 21.3,14.9 21.3,14.8 L21.3,14.8 C29.5,3.8 44.6,1.8 55.9,9.8 C56.2,10 56.6,10.3 56.9,10.6 L53.9,12.8 C53.6,13 54.1,13.3 54.1,13.3 L65.2,18 C65.5,18.2 65.6,17.9 65.6,17.8 L65.6,17.7 L65.6,17.7 L64.9,5.4 C64.9,5.3 64.8,5 64.5,5.2 L64.5,5.2 L61.1,7.6 C60.4,7 59.6,6.4 58.8,5.8 C45.4,-3.7 27.4,-1.3 17.6,11.7 L17.5,11.8 C17.3,12.2 17.3,12.6 17.6,12.8 C17.6,12.8 17.6,12.8 17.6,12.8 Z" id="Path"></path>
                <g transform="translate(0.000000, 27.000000)">
                    <g transform="translate(0.000000, 4.000000)">
                        <path d="M13.4,14.6 C13,14.9 12.5,15.1 12,15.2 C10.6,15.6 9.1,15.8 7.6,15.7 C6.9,15.7 6.2,15.6 5.4,15.5 C4.9,15.4 4.5,15.3 4.1,15.3 L3.5,15.1 C2.9,14.9 2.3,14.7 1.8,14.3 C1.6,14.2 1.5,14 1.3,13.8 L1.3,14.4 C1.3,14.6 1.3,15.2 1.3,15.2 C1.3,15.6 1.5,15.9 1.8,16.1 C2.8,16.8 4,17.2 5.2,17.4 C6,17.5 6.9,17.6 7.7,17.6 C8.9,17.6 10.1,17.5 11.3,17.2 L11.3,17.2 C11.9,17.1 12.5,16.8 13.1,16.5 L13.1,16.5 C13.7,16.1 14,15.7 14,15.3 C14,15.3 14,14 14,13.9 C13.9,14.2 13.7,14.4 13.4,14.6 Z" id="Path"></path>
                        <path d="M7.1,10.3 C10.6,10.3 13.5,9.2 13.5,7.9 C13.5,7.9 13.6,6.7 13.5,6.4 C13.5,6.2 13.5,6.1 13.4,5.9 C13.8,5.7 14.1,5.3 14.1,4.8 C14.1,4.8 14.2,3.4 14.1,3.2 C13.9,1.6 10.7,0.8 7.7,0.8 C4.7,0.8 1.3,1.7 1.3,3.4 C1.3,3.5 1.4,4.9 1.4,4.9 C1.4,5 1.4,5.1 1.5,5.2 C1,5.5 0.7,6 0.7,6.5 C0.7,6.6 0.8,8 0.8,8 C0.8,8.4 1,8.7 1.3,8.9 C2.3,9.6 3.5,10 4.7,10.2 C5.5,10.2 6.3,10.3 7.1,10.3 Z M7.8,1.4 C11.2,1.4 13.6,2.4 13.6,3.3 C13.6,4.2 11.2,5.2 7.8,5.2 C4.4,5.2 2,4.2 2,3.3 C2,2.4 4.4,1.4 7.8,1.4 Z M1.4,6.4 C1.5,6.1 1.6,5.8 1.9,5.7 C2.1,5.9 2.3,6 2.5,6.2 C4.2,6.9 6,7.3 7.8,7.2 C9.3,7.2 10.9,7 12.3,6.5 C12.5,6.4 12.7,6.3 12.8,6.3 C12.8,6.3 12.8,6.4 12.8,6.5 C12.8,7.4 10.4,8.4 7,8.4 C3.6,8.4 1.4,7.3 1.4,6.4 L1.4,6.4 Z" id="Shape"></path>
                        <path d="M5.2,15.1 C6,15.2 6.8,15.3 7.7,15.3 C8.9,15.3 10.1,15.2 11.3,14.9 L11.3,14.9 C11.9,14.7 12.5,14.5 13.1,14.2 L13.1,14.2 C13.2,14.1 13.4,14 13.5,13.9 C13.7,13.7 13.9,13.5 14,13.3 C14,13.2 14.1,13.1 14.1,13 C14.1,13 14.1,11.7 14.1,11.6 C13.9,11.9 13.3,12.7 10.8,13.2 C9.7,13.4 8.6,13.5 7.6,13.5 C5.9,13.5 4.1,13.2 2.5,12.5 C2.2,12.3 1.9,12.2 1.7,11.9 C1.6,11.8 1.4,11.6 1.3,11.4 C1.3,11.4 1.3,12 1.3,12 L1.3,13 C1.3,13.4 1.5,13.7 1.8,13.9 C2.8,14.6 4,15 5.2,15.1 Z" id="Path"></path>
                        <path d="M13.4,10 L13,10.2 C13,10.2 12.6,10.4 12.4,10.4 L11.8,10.6 L11,10.8 L10,11 L9,11.1 C8.9,11.1 8,11.2 7.5,11.2 C6.8,11.2 6.2,11.1 5.5,11 C5,10.9 4.5,10.8 4.1,10.7 C3.6,10.6 3.1,10.4 2.6,10.2 C2.3,10.1 2,9.9 1.8,9.7 C1.6,9.5 1.4,9.3 1.3,9 L1.3,9.8 L1.3,10.6 C1.3,11 1.5,11.3 1.8,11.5 C2.8,12.2 4,12.6 5.2,12.8 C6,12.9 6.8,13 7.7,13 C8.9,13 10.1,12.9 11.3,12.6 L11.3,12.6 C11.9,12.4 12.5,12.2 13.1,11.9 L13.1,11.9 C13.2,11.8 13.4,11.7 13.5,11.6 C13.7,11.4 13.9,11.2 14,11 C14,10.9 14.1,10.8 14.1,10.7 C14.1,10.7 14.2,9.4 14.2,9.3 C14.2,9.2 14.2,9.1 14.2,9 C14.2,8.9 14.1,8.8 14,8.8 C14,8.7 13.9,8.7 13.8,8.6 L13.5,8.5 C13.4,8.6 13.3,8.8 13.2,8.9 C13.3,8.9 13.4,9 13.4,9 C13.6,9.1 13.7,9.3 13.7,9.5 C13.7,9.7 13.6,9.8 13.5,9.9 C13.5,9.9 13.5,9.9 13.4,10 Z" id="Path"></path>
                    </g>
                    <g transform="translate(30.000000, 4.000000)">
                        <path d="M12.9,14.6 C12.5,14.9 12,15.1 11.5,15.2 C10.1,15.6 8.6,15.8 7.1,15.7 C6.4,15.7 5.7,15.6 5,15.5 C4.5,15.4 4.2,15.3 3.7,15.3 L3,15.1 C2.4,14.9 1.8,14.7 1.3,14.3 C1.1,14.2 1,14 0.8,13.8 L0.8,14.4 C0.8,14.6 0.8,15.2 0.8,15.2 C0.8,15.6 1,15.9 1.3,16.1 C2.3,16.8 3.5,17.2 4.7,17.4 C5.5,17.5 6.3,17.6 7.2,17.6 C8.4,17.6 9.6,17.5 10.8,17.2 L10.8,17.2 C11.4,17.1 12,16.8 12.6,16.5 L12.6,16.5 C13.2,16.1 13.6,15.7 13.6,15.3 C13.6,15.3 13.6,14 13.6,13.9 C13.3,14.1 13.1,14.4 12.9,14.6 Z" id="Path"></path>
                        <path d="M6.6,10.3 C10.1,10.3 13,9.2 13,7.9 C13,7.9 13.1,6.7 13,6.4 C13,6.2 13,6.1 12.9,5.9 C13.3,5.7 13.6,5.3 13.6,4.8 C13.6,4.8 13.7,3.4 13.6,3.2 C13.4,1.6 10.2,0.8 7.2,0.8 C4.2,0.8 0.8,1.7 0.8,3.4 C0.8,3.5 0.9,4.9 0.9,4.9 C0.9,5 0.9,5.1 1,5.2 C0.5,5.5 0.2,6 0.2,6.5 C0.2,6.6 0.3,8 0.3,8 C0.3,8.4 0.5,8.7 0.8,8.9 C1.8,9.6 3,10 4.2,10.2 C4.9,10.2 5.8,10.3 6.6,10.3 Z M7.3,1.4 C10.7,1.4 13.1,2.4 13.1,3.3 C13.1,4.2 10.7,5.2 7.3,5.2 C3.9,5.2 1.5,4.2 1.5,3.3 C1.5,2.4 3.9,1.4 7.3,1.4 Z M0.8,6.4 C0.8,6.1 1,5.8 1.3,5.7 C1.5,5.9 1.7,6 1.9,6.2 C3.6,6.9 5.4,7.3 7.2,7.2 C8.7,7.2 10.3,7 11.7,6.5 C11.9,6.4 12.1,6.3 12.2,6.3 C12.2,6.3 12.2,6.4 12.2,6.5 C12.2,7.4 9.8,8.4 6.4,8.4 C3,8.4 0.8,7.3 0.8,6.4 L0.8,6.4 Z" id="Shape"></path>
                        <path d="M4.7,15.1 C5.5,15.2 6.3,15.3 7.2,15.3 C8.4,15.3 9.6,15.2 10.8,14.9 L10.8,14.9 C11.4,14.7 12,14.5 12.6,14.2 L12.6,14.2 C12.7,14.1 12.9,14 13,13.9 C13.2,13.7 13.4,13.5 13.5,13.3 C13.5,13.2 13.6,13.1 13.6,13 C13.6,13 13.6,11.7 13.6,11.6 C13.4,11.9 12.8,12.7 10.3,13.2 C9.2,13.4 8.1,13.5 7.1,13.5 C5.3,13.5 3.6,13.2 2,12.5 C1.7,12.3 1.4,12.2 1.2,11.9 C1.1,11.8 0.9,11.6 0.8,11.4 C0.8,11.4 0.8,12 0.8,12 L0.8,13 C0.8,13.4 1,13.7 1.3,13.9 C2.2,14.6 3.5,15.1 4.7,15.1 Z" id="Path"></path>
                        <path d="M12.8,10 L12.4,10.2 C12.4,10.2 12,10.4 11.8,10.4 L11.2,10.6 L10.4,10.8 L9.4,11 L8.4,11.1 C8.3,11.1 7.3,11.2 6.9,11.2 C6.2,11.2 5.6,11.1 4.9,11 C4.4,10.9 3.9,10.8 3.5,10.7 C3,10.6 2.5,10.4 2,10.2 C1.5,10 1,9.5 0.7,9 L0.7,9.8 L0.7,10.6 C0.7,11 0.9,11.3 1.2,11.5 C2.2,12.2 3.4,12.6 4.6,12.8 C5.4,12.9 6.3,13 7.1,13 C8.3,13 9.5,12.9 10.7,12.6 L10.7,12.6 C11.3,12.4 11.9,12.2 12.5,11.9 L12.5,11.9 C12.6,11.8 12.8,11.7 12.9,11.6 C13.1,11.4 13.3,11.2 13.4,11 C13.4,10.9 13.5,10.8 13.5,10.7 C13.5,10.7 13.5,9.4 13.5,9.3 C13.5,9.2 13.5,9.1 13.5,9 C13.5,8.9 13.4,8.8 13.3,8.8 C13.3,8.7 13.2,8.7 13.1,8.6 L13,8.4 C12.9,8.5 12.8,8.7 12.7,8.8 C12.8,8.8 12.9,8.9 12.9,8.9 C13.1,9 13.2,9.2 13.2,9.4 C13.2,9.6 13.1,9.7 13,9.8 C13,9.9 12.9,10 12.8,10 Z" id="Path"></path>
                    </g>
                    <g transform="translate(15.000000, 0.000000)">
                        <path d="M6.8,9.7 C10.3,9.7 13.2,8.6 13.2,7.3 C13.2,7.3 13.3,6.1 13.2,5.8 C13.2,5.6 13.2,5.5 13.1,5.3 C13.5,5.1 13.8,4.7 13.8,4.2 C13.8,4.2 13.9,2.9 13.8,2.6 C13.6,1 10.4,0.1 7.4,0.1 C4.4,0.1 1,1.1 1,2.8 C1,2.9 1.1,4.3 1.1,4.3 C1.1,4.4 1.1,4.5 1.2,4.6 C0.7,4.9 0.4,5.4 0.4,5.9 C0.4,6 0.5,7.4 0.5,7.4 C0.5,7.8 0.7,8.1 1,8.3 C2,9 3.2,9.4 4.4,9.6 C5.1,9.6 6,9.7 6.8,9.7 Z M7.5,0.8 C10.9,0.8 13.3,1.8 13.3,2.7 C13.3,3.6 10.9,4.6 7.5,4.6 C4.1,4.6 1.7,3.6 1.7,2.7 C1.7,1.8 4.1,0.8 7.5,0.8 Z M1.1,5.8 C1.1,5.5 1.3,5.2 1.6,5.1 C1.8,5.3 2,5.4 2.2,5.6 C3.9,6.3 5.7,6.7 7.5,6.6 C9,6.6 10.6,6.4 12,5.9 C12.2,5.8 12.4,5.7 12.5,5.7 C12.5,5.7 12.5,5.8 12.5,5.9 C12.5,6.8 10.1,7.8 6.7,7.8 C3.3,7.8 1.1,6.7 1.1,5.8 L1.1,5.8 Z" id="Shape"></path>
                        <path d="M13.9,8.4 C13.9,8.3 13.8,8.2 13.7,8.2 C13.6,8.1 13.6,8.1 13.5,8.1 C13.4,8 13.3,8 13.2,7.9 C13.1,8 13,8.2 12.9,8.3 C13,8.3 13.1,8.4 13.1,8.4 C13.3,8.5 13.4,8.7 13.4,8.9 C13.4,9.1 13.3,9.2 13.2,9.3 L13,9.5 L12.6,9.7 L12,9.9 L11.4,10.1 L10.6,10.3 C10.6,10.3 9.9,10.4 9.6,10.5 L8.6,10.6 L7.1,10.7 C6.4,10.7 5.8,10.6 5.1,10.5 C4.6,10.4 4.1,10.3 3.7,10.2 C3.2,10.1 2.7,9.9 2.2,9.7 C1.9,9.6 1.6,9.4 1.4,9.2 C1.2,9 1,8.8 0.9,8.5 L0.9,9.3 L0.9,10.1 C0.9,10.5 1.1,10.8 1.4,11 C2.4,11.7 3.6,12.1 4.8,12.3 C5.6,12.4 6.4,12.5 7.3,12.5 C8.5,12.5 9.7,12.4 10.9,12.1 L10.9,12.1 C11.5,12 12.1,11.7 12.7,11.4 L12.7,11.4 C12.8,11.3 13,11.2 13.1,11.1 C13.3,10.9 13.5,10.7 13.6,10.5 C13.6,10.4 13.7,10.3 13.7,10.2 C13.7,10.2 13.7,8.9 13.7,8.8 C13.8,8.6 13.9,8.5 13.9,8.4 Z" id="Path"></path>
                        <path d="M13.1,14 C12.7,14.3 12.2,14.5 11.7,14.6 C10.3,15 8.8,15.2 7.4,15.1 C6.7,15.1 6,15 5.2,14.9 C4.8,14.8 4.3,14.8 3.9,14.7 C3.7,14.7 3.4,14.6 3.3,14.5 C2.7,14.3 2.1,14 1.6,13.7 C1.4,13.6 1.3,13.4 1.1,13.2 L1.1,13.8 C1.1,14 1.1,14.6 1.1,14.6 C1.1,15 1.3,15.3 1.6,15.5 C2.6,16.2 3.8,16.6 5,16.7 C5.8,16.8 6.7,16.9 7.5,16.9 C8.7,16.9 9.9,16.8 11.1,16.5 L11.1,16.5 C11.7,16.3 12.3,16.1 12.9,15.8 L12.9,15.8 C13.5,15.4 13.8,15 13.8,14.6 C13.8,14.6 13.8,13.3 13.8,13.2 C13.6,13.6 13.4,13.8 13.1,14 Z" id="Path"></path>
                        <path d="M1.6,13.3 C2.6,14 3.8,14.5 5,14.6 C5.8,14.7 6.6,14.8 7.5,14.8 C8.7,14.8 9.9,14.7 11,14.4 L11,14.4 C11.6,14.3 12.2,14 12.8,13.7 L12.8,13.7 C12.9,13.6 13.1,13.5 13.2,13.4 C13.4,13.2 13.6,13 13.7,12.8 C13.7,12.7 13.8,12.6 13.8,12.5 C13.8,12.5 13.8,11.2 13.8,11.1 C13.6,11.4 13,12.2 10.5,12.7 C9.4,12.9 8.3,13 7.3,13 C5.6,13 3.8,12.7 2.2,12 C1.9,11.8 1.6,11.7 1.4,11.4 C1.3,11.3 1.1,11.1 1,10.9 C1,10.9 1,11.5 1,11.5 L1,12.4 C1,12.8 1.2,13.1 1.6,13.3 Z" id="Path"></path>
                        <path d="M13.9,17.8 C13.7,18.1 13.4,18.3 13.1,18.5 C12.7,18.8 12.2,19 11.7,19.1 C10.3,19.5 8.8,19.7 7.4,19.6 C6.7,19.6 6,19.5 5.2,19.4 C4.8,19.3 4.3,19.3 3.9,19.2 C3.7,19.1 3.5,19.1 3.3,19 C2.7,18.8 2.1,18.6 1.6,18.2 C1.4,18.1 1.2,17.9 1.1,17.7 L1.1,18.3 C1.1,18.5 1.1,19.1 1.1,19.1 C1.1,19.5 1.3,19.8 1.6,20 C2.6,20.7 3.8,21.1 5,21.3 C5.8,21.4 6.6,21.5 7.5,21.5 C8.7,21.5 9.9,21.4 11.1,21.1 L11.1,21.1 C11.7,20.9 12.3,20.7 12.9,20.4 L12.9,20.4 C13.5,20 13.8,19.6 13.8,19.2 C13.9,19.2 13.9,17.9 13.9,17.8 Z" id="Path"></path>
                        <path d="M5,19.1 C5.8,19.2 6.6,19.3 7.5,19.3 C8.7,19.3 9.9,19.2 11,18.9 L11,18.9 C11.6,18.8 12.2,18.5 12.8,18.2 L12.8,18.2 C12.9,18.1 13.1,18 13.2,17.9 C13.4,17.7 13.6,17.5 13.7,17.3 C13.7,17.2 13.8,17.1 13.8,17 C13.8,17 13.8,15.7 13.8,15.6 C13.6,15.9 13,16.7 10.5,17.2 C9.4,17.4 8.3,17.5 7.3,17.5 C5.5,17.5 3.8,17.2 2.2,16.5 C1.9,16.3 1.6,16.2 1.4,15.9 C1.3,15.8 1.1,15.6 1,15.4 L1,16 L1,16.9 C1,17.3 1.2,17.6 1.5,17.8 C2.5,18.6 3.7,19 5,19.1 Z" id="Path"></path>
                    </g>
                </g>
            </g>
        </g>
    </g>
</svg>