<?xml version="1.0" encoding="UTF-8"?>
<svg width="95px" height="95px" viewBox="0 0 95 95" version="1.1" xmlns="http://www.w3.org/2000/svg" xmlns:xlink="http://www.w3.org/1999/xlink">
    <!-- Generator: Sketch 53.2 (72643) - https://sketchapp.com -->
    <title>goal_6_target_6_6</title>
    <desc>Created with Sketch.</desc>
    <g id="goal_6_target_6_6" stroke="none" stroke-width="1" fill="none" fill-rule="evenodd">
        <g id="Group-45" fill-rule="nonzero">
            <rect id="Rectangle" fill="#26BDE2" x="-3.62376795e-13" y="-2.13162821e-14" width="94.8" height="94.8"></rect>
            <g id="Group" transform="translate(6.700000, 7.000000)" fill="#FFFFFF">
                <path d="M78.9,61.7 C78.9,61.7 78.8,61.7 78.8,61.7 L78.6,61.8 L78.4,62 L78.4,62 L78.2,62.2 L78.1,62.3 C75,64.3 67.6,67.6 60.2,62 L60,62 L59.9,61.9 L59.8,61.9 C58.5,60.9 57.6,59.5 57.1,57.9 C56.6,55.5 61.1,53.7 61.1,53.7 C72,49.7 76.9,48.4 68.4,42.9 C64.4,40.4 64.2,39.9 59.9,37.1 C56.3,34.8 61.7,35.3 65.3,32.9 C66.4,32.3 66.8,31 66.2,29.9 L78.4,48.1 L80.9,48.1 L80.2,46.9 L59.4,15.9 L52.5,26 L34.2,0.8 L0.4,48.1 L3,48.1 L24.8,17.7 L40.2,23.5 L45,19.2 L52.6,29.7 L59.6,19.7 L65.4,28.4 C65.8,29.2 67,32.2 61.4,33.3 C51.9,35.3 56.2,38.3 59.6,40.4 C68,45.6 68,46.9 61.6,49 C60,49.5 58.5,50.1 57,50.8 C53.5,52.2 51.7,54.8 51.7,57.2 C51.7,57.9 51.8,58.6 52,59.3 C52.1,59.8 54.2,67 45.7,64.7 C44,64 42.4,63.2 41,62.1 L40.8,62 C40.8,62 40.7,62 40.7,62 C40.6,62 40.6,62 40.5,62.1 L40.4,62.1 L40.2,62.3 C37.6,64.1 29.4,68.8 22.1,62 L22,61.8 C21.9,61.7 21.8,61.7 21.7,61.7 C21.6,61.7 21.5,61.7 21.4,61.8 L21.3,61.9 C13.9,68.8 5.6,63.9 3.1,62.1 L2.9,62 C2.9,62 2.8,62 2.8,62 C2.6,62 2.4,62.2 2.4,62.4 L2.4,66.5 C2.4,66.6 2.4,66.7 2.5,66.8 L2.7,67 C11,74.3 19.5,68 21.3,66.5 L21.5,66.3 C21.6,66.3 21.6,66.3 21.7,66.3 C21.8,66.3 21.8,66.3 21.9,66.3 L22.1,66.5 C23.9,68 32.4,74.3 40.7,66.9 C48.5,73.9 56.5,68.7 59,66.8 C59.5,67.1 59.8,67.3 59.8,67.3 C62.1,68.6 64.6,69.6 67.1,70.1 C70.3,70.9 73.7,70.4 76.4,68.6 C77.3,68.1 78.2,67.6 79,66.9 L79.3,66.7 C79.4,66.6 79.4,66.5 79.4,66.4 L79.4,62.1 C79.3,61.9 79.1,61.7 78.9,61.7 C78.9,61.7 78.9,61.7 78.9,61.7 Z" id="Path"></path>
                <path d="M29.2,54.7 L30.6,54.7 C30.7,54.7 30.7,54.7 30.7,54.6 L30.7,51.5 L34,51.5 C34.1,51.5 34.2,51.4 34.2,51.3 C34.2,51.3 34.2,51.3 34.2,51.3 C34.2,51.3 34.2,51.2 34.2,51.2 L30.1,38 L30.1,38 C30.1,37.9 30,37.9 29.9,37.9 C29.8,37.9 29.8,37.9 29.7,38 L29.7,38.1 L25.6,51.2 C25.6,51.2 25.6,51.3 25.6,51.3 C25.6,51.4 25.7,51.5 25.8,51.5 C25.8,51.5 25.8,51.5 25.8,51.5 L29.1,51.5 L29.2,54.7 C29.1,54.6 29.1,54.6 29.2,54.7 Z" id="Path"></path>
                <path d="M18.7,54.7 L20,54.7 C20.1,54.7 20.1,54.7 20.1,54.6 L20.1,51.5 L23.4,51.5 C23.5,51.5 23.6,51.4 23.6,51.3 L23.6,51.3 C23.6,51.3 23.6,51.2 23.6,51.2 L19.6,38 L19.6,38 C19.6,37.9 19.5,37.9 19.4,37.9 C19.3,37.9 19.3,37.9 19.2,38 L19.2,38 L15.1,51.1 C15.1,51.1 15.1,51.2 15.1,51.2 C15.1,51.3 15.2,51.4 15.3,51.4 L15.3,51.4 L18.6,51.4 L18.7,54.7 C18.6,54.6 18.6,54.6 18.7,54.7 Z" id="Path"></path>
                <path d="M39.6,54.7 L41,54.7 C41.1,54.7 41.1,54.7 41.1,54.6 L41.1,51.5 L44.4,51.5 C44.5,51.5 44.6,51.4 44.6,51.3 C44.6,51.3 44.6,51.2 44.6,51.2 L40.5,38 L40.5,38 C40.4,37.9 40.3,37.9 40.2,37.9 C40.2,37.9 40.1,38 40.1,38 L40.1,38.1 L36,51.1 C36,51.1 36,51.2 36,51.2 C36,51.3 36.1,51.4 36.2,51.4 C36.2,51.4 36.2,51.4 36.2,51.4 L39.5,51.4 L39.6,54.7 C39.5,54.6 39.5,54.6 39.6,54.7 Z" id="Path"></path>
                <path d="M18.6,73.1 C18,73.1 17.6,73.5 17.6,74.1 C17.6,74.7 18,75.1 18.6,75.1 C19.2,75.1 19.6,74.7 19.6,74.1 C19.6,73.5 19.2,73.1 18.6,73.1 Z" id="Path"></path>
                <path d="M23.2,72.3 C23.2,71.9 22.9,71.5 22.4,71.5 C22,71.5 21.6,71.8 21.6,72.3 C21.6,72.7 21.9,73.1 22.4,73.1 C22.4,73.1 22.4,73.1 22.4,73.1 C22.8,73.1 23.2,72.8 23.2,72.3 Z" id="Path"></path>
                <path d="M14.7,76.1 L14.7,76.1 C14.4,75.7 12.4,73.2 9.7,73.2 C7.3,73.2 4.8,75.4 4.8,75.4 C4.2,74.3 3.1,73.5 1.9,73.3 L1.9,73.3 C1.9,73.3 1.8,73.3 1.8,73.4 C1.8,73.4 1.8,73.4 1.8,73.5 C3,75.2 3,77.4 1.8,79.1 L1.8,79.1 L1.8,79.1 C1.8,79.1 1.8,79.2 1.9,79.2 L1.9,79.2 C3.1,79 4.2,78.3 4.8,77.1 C4.8,77.1 7.3,79.3 9.7,79.3 C12.4,79.3 14.4,76.8 14.7,76.4 L14.7,76.4 L14.7,76.1 L14.7,76.1 Z M11.2,76.5 C10.8,76.5 10.4,76.1 10.4,75.7 L10.4,75.7 C10.4,75.3 10.8,74.9 11.2,74.9 C11.6,74.9 12,75.3 12,75.7 L12,75.7 C12,76.1 11.7,76.5 11.2,76.5 C11.2,76.5 11.2,76.5 11.2,76.5 Z" id="Shape"></path>
                <path d="M35.3,79.9 C34.1,78.2 34.1,76 35.3,74.3 L35.3,74.2 C35.3,74.2 35.3,74.1 35.2,74.1 L35.2,74.1 C33.9,74.3 32.9,75.1 32.3,76.2 C32.3,76.2 29.8,74 27.4,74 C24.7,74 22.7,76.5 22.4,76.9 L22.4,76.9 L22.4,77 L22.4,77 C22.7,77.4 24.7,79.9 27.4,79.9 C29.8,79.9 32.3,77.7 32.3,77.7 C32.9,78.9 33.9,79.7 35.2,79.9 L35.2,79.9 C35.3,80 35.3,80 35.3,79.9 L35.3,79.9 L35.3,79.9 Z M25.9,77.4 C25.5,77.4 25.1,77 25.1,76.6 C25.1,76.2 25.5,75.8 25.9,75.8 C26.3,75.8 26.7,76.2 26.7,76.6 C26.7,77 26.3,77.4 25.9,77.4 C25.9,77.4 25.9,77.4 25.9,77.4 Z" id="Shape"></path>
                <path d="M79.3,73.1 L79.3,72.8 C79.3,72.6 79.1,72.5 78.9,72.5 C78.8,72.5 78.8,72.5 78.7,72.6 L78.5,72.8 C75.8,74.7 67.5,79.5 60.1,72.5 L60,72.4 C59.8,72.2 59.6,72.2 59.4,72.4 C59.4,72.4 59.4,72.4 59.4,72.4 L59.3,72.5 C51.7,79.6 43.3,74.5 40.7,72.7 L40.5,72.6 C40.5,72.6 40.4,72.6 40.4,72.6 C40.2,72.6 40,72.8 40,73 L40,76.2 C40,76.3 40,76.4 40.1,76.5 L40.3,76.7 C45.7,81.2 53.6,81.5 59.3,77.3 L59.5,77.1 C59.6,77.1 59.6,77.1 59.7,77.1 C59.8,77.1 59.8,77.1 59.9,77.1 L60,77 C61.8,78.5 71.1,83.6 79.2,76.2 L79.2,76.2 C79.3,76.1 79.3,76.1 79.3,76 L79.3,76 L79.3,76 L79.3,73.1 Z" id="Path"></path>
            </g>
        </g>
    </g>
</svg>