<?xml version="1.0" encoding="UTF-8"?>
<svg width="95px" height="95px" viewBox="0 0 95 95" version="1.1" xmlns="http://www.w3.org/2000/svg" xmlns:xlink="http://www.w3.org/1999/xlink">
    <!-- Generator: Sketch 53.2 (72643) - https://sketchapp.com -->
    <title>goal_16_target_16_10</title>
    <desc>Created with Sketch.</desc>
    <g id="goal_16_target_16_10" stroke="none" stroke-width="1" fill="none" fill-rule="evenodd">
        <g id="Group-140" fill-rule="nonzero">
            <rect id="Rectangle" fill="#00689D" x="1.45661261e-12" y="-2.13162821e-14" width="94.8" height="94.8"></rect>
            <g id="Group" transform="translate(23.700000, 16.000000)" fill="#FFFFFF">
                <polygon id="Path" points="3.8 7 0.9 7 0.9 62.5 40.7 62.5 40.7 59.1 3.8 59.1"></polygon>
                <path d="M6.8,0.4 L6.8,55.9 L46.5,55.9 L46.5,0.4 L6.8,0.4 Z M39.7,5.3 C40.1,4.9 40.7,4.8 41.3,4.8 C41.3,5.4 41.2,5.9 40.8,6.4 C40.4,6.8 39.8,6.9 39.2,6.9 C39.1,6.3 39.3,5.8 39.7,5.3 Z M39,24.5 L33.8,24.5 C33.4,24.5 33,24.3 33,23.9 C33,23.5 33.2,23.1 33.6,23.1 C33.7,23.1 33.7,23.1 33.8,23.1 L39,23.1 C39.4,23.1 39.8,23.3 39.8,23.7 C39.8,24.1 39.6,24.5 39.2,24.5 C39.1,24.5 39.1,24.5 39,24.5 Z M39.7,31.9 C39.7,32.3 39.4,32.6 39,32.6 L33.8,32.6 C33.4,32.6 33,32.4 33,32 C33,31.6 33.2,31.2 33.6,31.2 C33.7,31.2 33.7,31.2 33.8,31.2 L39,31.2 C39.4,31.1 39.7,31.5 39.7,31.9 C39.8,31.9 39.8,31.9 39.7,31.9 L39.7,31.9 Z M37.2,10.1 C37.6,9.8 38.1,9.6 38.5,9.6 C39,9.7 39.4,10 39.7,10.4 C39.3,10.7 38.8,10.9 38.4,10.9 C37.9,10.8 37.5,10.5 37.2,10.1 Z M38.7,8.6 C39,8.2 39.4,7.9 39.9,7.8 C40.4,7.8 40.9,8 41.2,8.3 C40.9,8.7 40.5,9 40,9.1 C39.5,9.2 39,9 38.7,8.6 Z M37.2,5 C38.1,5.3 38.5,6.3 38.1,7.2 C38,7.4 37.9,7.6 37.8,7.7 C37.3,7.4 37,7 36.8,6.5 C36.8,6 36.9,5.4 37.2,5 Z M35.6,6.7 C36.5,7 36.9,8 36.6,8.9 C36.5,9.1 36.4,9.3 36.3,9.4 C35.4,9.1 35,8.1 35.3,7.2 C35.4,7 35.5,6.8 35.6,6.7 Z M15,26.9 L23.2,27.1 L23.2,24.4 C22.2,24.3 21.3,24.1 20.3,23.8 C18.7,23.3 17,21.7 15.5,21.2 L15.1,21.1 L15.5,21.2 C16.9,21.6 18.4,21.4 19.7,20.7 C21.5,19.5 21.6,18.7 22.9,18.2 C20.5,18 18.7,16.5 18,13.2 C17.3,9.9 16.9,8.8 15.5,8.2 C17.5,8 20.3,8 23.5,11.3 C26,13.8 28.5,13.8 30.5,11.9 C32.5,10 33.9,9.1 35,10.4 C35.3,10.7 35.5,10.9 35.8,11.2 C36.1,10.1 36.7,9.2 37.5,8.5 C37.9,8.1 38.3,7.7 38.6,7.2 L38.9,7.4 C38.6,7.9 38.2,8.4 37.7,8.8 C36.9,9.5 36.3,10.5 36,11.5 C36.3,11.8 36.6,12 37,12.2 C36.7,12.2 36.3,12.2 36,12.2 C36,13 36.2,13.7 36.4,14.5 L36.1,14.5 C35.8,13.8 35.7,13 35.7,12.3 C35.4,12.4 35,12.4 34.7,12.6 C33.5,13 32.7,14.1 32.8,16.6 C33.2,20.1 30.9,23.3 27.5,24.2 C26.9,24.4 26.3,24.5 25.7,24.6 L25.7,27.4 L30.3,27.5 L33.5,27.2 L33.5,25.7 C33.5,25.5 33.7,25.3 33.9,25.3 C33.9,25.3 33.9,25.3 33.9,25.3 L38.7,25.3 C38.9,25.3 39.1,25.5 39.1,25.7 C39.1,25.7 39.1,25.7 39.1,25.7 L39.1,30.5 C39.1,30.7 38.9,30.9 38.7,30.9 L34,30.9 C33.8,30.9 33.6,30.7 33.6,30.5 L33.6,29.1 L30.4,28.8 L15,28.8 L15,26.9 Z M13,27.2 C13,26.8 13.3,26.5 13.6,26.5 L14,26.5 C14.4,26.5 14.6,26.9 14.6,27.2 L14.6,28.5 C14.6,28.9 14.4,29.2 14,29.2 C14,29.2 14,29.2 14,29.2 L13.6,29.2 C13.2,29.2 13,28.9 13,28.5 L13,27.2 Z M41.8,48.9 C41.8,49 41.6,49.1 41.5,49.1 L12.1,49.1 C11.9,49.1 11.8,49 11.8,48.9 L11.8,44.2 C11.8,44.1 11.9,44 12.1,44 L41.4,44 C41.6,44 41.7,44.1 41.7,44.2 L41.8,48.9 Z M41.8,40.7 C41.8,40.8 41.6,40.9 41.5,40.9 L12.1,40.9 C11.9,40.9 11.8,40.8 11.8,40.7 L11.8,36 C11.8,35.9 11.9,35.8 12.1,35.8 L41.4,35.8 C41.6,35.8 41.7,35.9 41.7,36 L41.8,40.7 Z" id="Shape"></path>
                <path d="M24,27.1 L25,27.1 L25,24.4 C24.7,24.4 24.3,24.4 24,24.4 L24,27.1 Z" id="Path"></path>
            </g>
        </g>
    </g>
</svg>