<?xml version="1.0" encoding="UTF-8"?>
<svg width="95px" height="95px" viewBox="0 0 95 95" version="1.1" xmlns="http://www.w3.org/2000/svg" xmlns:xlink="http://www.w3.org/1999/xlink">
    <!-- Generator: Sketch 53.2 (72643) - https://sketchapp.com -->
    <title>goal_17_target_17_12</title>
    <desc>Created with Sketch.</desc>
    <g id="goal_17_target_17_12" stroke="none" stroke-width="1" fill="none" fill-rule="evenodd">
        <g id="Group-154" fill-rule="nonzero">
            <rect id="Rectangle" fill="#19486A" x="1.45661261e-12" y="-1.42108547e-14" width="94.8" height="94.9"></rect>
            <g id="Group" transform="translate(8.700000, 10.100000)" fill="#FFFFFF">
                <g transform="translate(0.000000, 22.000000)">
                    <path d="M31,13.5 C31,13.1 30.6,12.8 30.2,12.8 L29.1,12.8 C28.7,12.8 28.3,12.7 28.2,12.2 C28,11.5 27.8,10.8 27.5,10.1 C27.3,9.7 27.4,9.2 27.8,9 C28.1,8.7 28.4,8.5 28.7,8.2 C29,8 29.1,7.5 28.9,7.2 C28.4,6.4 27.8,5.7 27.2,5 C26.9,4.7 26.5,4.7 26.2,4.9 C25.9,5.1 25.6,5.3 25.3,5.5 C25,5.7 24.6,5.9 24.2,5.6 C23.5,5.1 22.8,4.6 22.4,4.3 C22.1,4.1 21.9,3.7 22,3.3 C22.1,2.9 22.2,2.5 22.3,2.1 C22.4,1.7 22.2,1.4 21.9,1.2 C21,0.8 20.1,0.5 19.1,0.3 C18.7,0.2 18.3,0.4 18.2,0.8 C18.1,1.2 17.9,1.5 17.8,1.8 C17.7,2.1 17.4,2.5 17,2.5 C16.1,2.5 15.4,2.5 14.8,2.5 C14.4,2.5 14,2.3 13.8,1.9 C13.6,1.5 13.5,1.2 13.3,0.8 C13.2,0.4 12.8,0.2 12.4,0.3 C11.5,0.5 10.6,0.8 9.7,1.2 C9.3,1.3 9.1,1.8 9.3,2.1 C9.3,2.1 9.3,2.1 9.3,2.2 C9.4,2.6 9.5,2.9 9.6,3.3 C9.7,3.7 9.7,4.1 9.4,4.3 C9.1,4.5 8.1,5.2 7.6,5.6 C7.3,5.9 6.8,5.9 6.5,5.7 C6.1,5.5 5.8,5.3 5.5,5.1 C5.2,4.9 4.8,4.9 4.5,5.2 C3.8,5.9 3.3,6.7 2.9,7.5 C2.7,7.8 2.8,8.3 3.1,8.5 C3.4,8.8 3.7,8.9 4,9.2 C4.3,9.4 4.6,9.8 4.4,10.2 C4.2,10.6 3.9,11.9 3.7,12.4 C3.6,12.8 3.3,13.1 2.8,13.1 L1.6,13.2 C1.2,13.2 0.9,13.5 0.9,13.9 C0.8,14.8 0.8,15.8 0.9,16.8 C0.9,17.2 1.3,17.5 1.7,17.5 C2.1,17.5 2.4,17.5 2.8,17.5 C3.2,17.5 3.6,17.6 3.7,18.1 C3.9,18.8 4.1,19.5 4.4,20.3 C4.6,20.7 4.5,21.2 4.1,21.4 C3.8,21.7 3.5,21.9 3.2,22.2 C2.9,22.4 2.8,22.9 3,23.2 C3.5,24 4.1,24.8 4.7,25.5 C5,25.8 5.4,25.8 5.7,25.6 C6.1,25.4 6.3,25.2 6.6,25 C6.9,24.8 7.3,24.6 7.7,24.9 C8.1,25.2 9.1,25.9 9.5,26.2 C9.8,26.4 10,26.8 9.9,27.2 C9.8,27.6 9.7,28 9.6,28.4 C9.5,28.8 9.7,29.1 10,29.3 C10.9,29.7 11.8,30 12.7,30.1 C13.1,30.2 13.5,30 13.6,29.6 C13.6,29.6 13.6,29.6 13.6,29.6 C13.7,29.2 13.8,28.9 14,28.6 C14.2,28.3 14.4,27.9 14.8,27.9 C15.6,27.9 16.3,27.9 17.1,27.9 C17.5,27.9 17.9,28.1 18.1,28.5 C18.3,28.9 18.4,29.2 18.6,29.6 C18.7,30 19.1,30.2 19.5,30.1 C20.5,29.9 21.4,29.6 22.3,29.1 C22.7,29 22.9,28.5 22.7,28.2 C22.7,28.2 22.7,28.2 22.7,28.1 C22.6,27.7 22.5,27.4 22.4,27 C22.3,26.6 22.3,26.2 22.6,25.9 C22.9,25.6 24,24.9 24.4,24.6 C24.7,24.3 25.2,24.3 25.5,24.5 C25.9,24.7 26.2,24.9 26.5,25.1 C26.8,25.3 27.2,25.3 27.5,25 C28.2,24.3 28.7,23.5 29.1,22.7 C29.3,22.4 29.2,21.9 28.9,21.7 C28.6,21.4 28.3,21.3 28,21 C27.7,20.7 27.4,20.4 27.6,20 C27.8,19.6 28.1,18.4 28.3,17.8 C28.4,17.4 28.7,17.1 29.2,17.1 C29.6,17.1 30,17.1 30.4,17 C30.8,17 31.1,16.7 31.1,16.3 C31.2,15.4 31.1,14.5 31,13.5 Z M15.9,24.7 C10.7,24.7 6.5,20.5 6.6,15.3 C6.7,10.1 10.8,5.9 16,6 C21.2,6 25.4,10.2 25.3,15.4 C25.3,20.5 21.1,24.7 15.9,24.7 Z" id="Shape"></path>
                    <path d="M9,12.6 C9.2,12.7 9.4,12.6 9.5,12.5 C9.6,12.4 9.6,12.3 9.5,12.2 C9.5,12.1 9.6,12 9.7,12 C9.9,11.9 10.1,11.8 10.3,11.6 C10.7,11.5 11.1,11.5 11.6,11.6 C11.9,11.7 12.2,11.7 12.4,11.4 C12.6,11.2 12.8,11 13,10.9 C13.1,10.8 12.7,10.5 12.4,10.9 C12.1,11.3 11.9,11.4 11.7,11.4 C11.5,11.4 10.6,11.2 10.5,10.9 C10.4,10.6 10.8,10.4 11.1,10.2 C11.6,10.1 12.1,10 12.7,10 C13.2,9.9 13.8,9.6 14.2,9.9 C14.6,10.2 12.8,10.5 13.4,10.8 C13.6,10.9 14.5,10.3 14.8,10.1 C15.5,9.7 14.1,9.6 14.3,8.9 C14.5,8.2 12.7,8.4 11.7,8.4 C11.2,8.7 10.8,9 10.4,9.4 C10.5,9.4 10.6,9.5 10.7,9.6 C10.7,9.8 10.7,10 10.6,10.1 C10.4,10.3 10.1,10.5 9.7,10.5 C9.6,10.5 9.6,10.5 9.6,10.4 C9.4,10.6 9.3,10.8 9.2,11 C9.4,10.9 9.6,10.8 9.8,10.8 C10,10.8 10.3,10.9 10.3,11 C10.3,11.1 9.8,11.4 9.7,11.5 C9.4,11.8 9,12.3 8.7,12.3 C8.6,12.3 8.6,12.3 8.5,12.3 C8.4,12.5 8.4,12.7 8.3,12.9 C8.4,12.6 8.7,12.5 9,12.6 Z" id="Path"></path>
                    <path d="M22.6,14.9 C22.3,15.1 22,15.2 21.7,15.2 C21.4,15.4 21.2,15.8 21.3,16.2 C21.4,16.5 22.1,17.4 21.5,17.3 C21,17 20.5,16.7 20.2,16.2 C20,15.7 19.8,15.3 19.7,15 C19.6,14.7 19.3,14.6 19.1,14.7 C19,14.7 19,14.7 19,14.8 C18.7,15 19.1,15.2 18.9,15.6 C18.7,16 18.5,16.4 18.2,16.1 C17.4,15.2 16.2,15.6 16.1,14.6 C16,14 15.5,14.1 15.1,13.8 C14.7,13.5 14.5,13.3 14.4,13.5 C14.3,13.7 15.7,14.7 15.8,15 C15.9,15.3 15.4,15.8 15,15.8 C14.6,15.8 14.4,15.6 14,15.2 C13.6,14.8 13.5,14.5 13.4,14.8 C13.4,15.3 13.7,15.9 14.2,16.2 C14.5,16.4 14.9,16.5 14.8,16.9 C14.7,17.3 14.8,17.1 14.4,17.4 C14.1,17.6 13.9,18 14,18.4 C14,18.9 13.9,19 13.8,19.4 C13.7,19.8 13.5,19.5 13.4,20.1 C13.3,20.5 13.1,20.9 12.9,21.2 C12.6,21.5 12.2,21.6 11.8,21.6 C11.4,21.6 11.4,20.6 11.4,20 C11.4,19.8 11.1,20.3 11,19.3 C10.9,18.6 10.5,19.4 10.4,18.9 C10.3,18.4 10.2,18.5 9.9,18.2 C9.6,17.9 9.4,18.2 9.1,18.4 C8.8,18.6 8.9,18.6 8.5,18.5 L8.5,18.5 C9.5,20.8 11.4,22.5 13.8,23.2 C13.7,23.1 13.6,22.9 13.7,22.8 C14,22.2 14.6,21.8 15.3,21.8 C16.6,21.7 18.4,22.7 18.7,22.5 C19,22.3 19.6,21.6 20.4,21.6 C20.7,21.6 20.9,21.7 21.1,21.8 C21.4,21.6 21.7,21.3 21.9,21.1 L21.5,21 C21,20.8 21.1,21.1 20.9,21 C20.7,20.9 21.2,20.4 20.5,20.8 C19.8,21.2 20,20.8 19.7,20 C19.5,19.3 19.9,18.5 20.6,18.2 C21.1,18 21.6,17.9 22.1,17.8 C23.1,17.6 23.3,17 23.5,17.3 L23.6,17.5 C23.7,17.7 23.7,17.8 23.7,18 C23.8,17.6 24,17.3 24.1,16.9 C23.9,16.8 23,15.6 23.7,14.7 C23.8,14.6 23.5,14.1 23.6,14.1 C23.9,14.1 24.2,14.3 24.3,14.6 C24.3,14.2 24.2,13.7 24.1,13.3 C24.1,13.4 24.1,13.5 24.1,13.6 C24,13.9 23.7,14 23.4,13.9 C23.3,13.9 23.1,13.8 23.1,13.6 C23,13.5 22.7,13.1 22.7,13.7 C22.7,14.3 23.1,14.5 22.6,14.9 Z M14.8,18.1 C14.7,18.3 14.4,19.7 14.2,19.5 C14,19.3 14.3,17.9 14.3,17.8 C14.7,17.2 15.4,17.3 14.8,18.1 Z M18.2,16.5 C17.9,16.6 17.6,16.6 17.4,16.4 C17.2,16.2 17.5,16 17.7,16 C17.9,16 18.4,16.3 18.2,16.5 Z M21.6,16.2 C21.6,16.1 21.7,16 21.8,16 C21.8,16 21.9,16 21.9,16 C22.1,16.1 22.2,16.3 22.3,16.5 C22.3,16.6 22,16.6 21.9,16.6 C21.8,16.6 21.7,16.4 21.6,16.2 Z M22.7,17.3 C22.4,17.4 22.1,17.4 21.9,17.2 C21.7,17 22,16.8 22.2,16.8 C22.5,16.8 22.9,17.1 22.7,17.3 Z" id="Shape"></path>
                    <path d="M8.7,13.5 C9.2,13.6 9.6,13.7 10.1,13.8 C10.6,14 11.3,14.4 11.8,14.2 C12.3,14 12.4,13.9 12.3,13.6 C12.2,13.3 12,13.2 11.7,13.4 C11.6,13.5 11.3,12.9 11.1,12.9 C10.9,12.9 11.3,13.6 11.2,13.6 C11.1,13.6 10.7,12.9 10.7,12.8 C10.7,12.7 10.4,12.4 10.2,12.6 C9.7,13.1 8.9,13 8.8,13.2 C8.8,13.2 8.7,13.3 8.6,13.3 C8.1,13.6 8,13.2 8,13 C7.9,13.5 7.8,13.9 7.7,14.4 C7.7,14.4 7.7,14.4 7.7,14.3 C8,13.8 8,13.7 8.1,13.7 C8.2,13.6 8.3,13.6 8.4,13.6 L8.7,13.5 Z" id="Path"></path>
                </g>
                <path d="M63.7,63.2 L60.8,61 C60.6,60.8 60.2,60.8 60,61 C60,61 60,61 59.9,61.1 L59.9,61.1 C51.4,71.8 36.2,73.3 25.2,65 C24.9,64.8 24.6,64.5 24.2,64.2 L27.3,62.1 C27.6,61.9 27.2,61.6 27.2,61.6 L16.3,56.5 C15.9,56.3 15.9,56.5 15.9,56.7 L15.9,56.8 L15.9,56.8 L16.2,69.1 C16.2,69.2 16.3,69.5 16.6,69.3 L16.6,69.3 L20.1,67 C20.8,67.7 21.6,68.3 22.3,68.9 C35.4,78.8 53.5,76.9 63.6,64.2 L63.7,64.1 C64,63.9 64,63.5 63.7,63.2 C63.7,63.2 63.7,63.2 63.7,63.2 Z" id="Path"></path>
                <path d="M15,13.3 L17.9,15.4 C18.1,15.6 18.5,15.6 18.7,15.3 C18.7,15.3 18.7,15.3 18.7,15.2 L18.7,15.2 C26.9,4.2 42,2.2 53.2,10.2 C53.5,10.4 53.9,10.7 54.2,11 L51.2,13.2 C50.9,13.4 51.4,13.7 51.4,13.7 L62.5,18.5 C62.8,18.7 62.9,18.4 62.9,18.3 L62.9,18.2 L62.9,18.2 L62.2,5.9 C62.2,5.8 62.1,5.5 61.8,5.7 L61.8,5.7 L58.4,8.1 C57.7,7.5 56.9,6.9 56.1,6.3 C42.7,-3.2 24.7,-0.8 14.9,12.2 L14.8,12.3 C14.7,12.6 14.7,13 15,13.3 C15,13.2 15,13.2 15,13.3 Z" id="Path"></path>
                <path d="M61.6,23 C53.7,23 47.3,29.4 47.3,37.3 C47.3,45.2 53.7,51.6 61.6,51.6 C69.5,51.6 75.9,45.2 75.9,37.3 C75.9,37.3 75.9,37.3 75.9,37.2 C75.9,29.4 69.5,23 61.6,23 Z M68.8,48.2 L68.3,48.5 C66.3,49.7 64,50.3 61.6,50.3 C60.4,50.3 59.1,50.1 57.9,49.8 C57.7,49.6 57.6,49.4 57.7,49.2 C58.2,48.3 59.2,47.7 60.2,47.6 C62.3,47.4 65.1,49 65.5,48.7 C65.9,48.4 66.8,47.3 68.2,47.3 C68.6,47.3 69,47.4 69.4,47.6 C69.2,47.8 69,47.9 68.8,48 L68.8,48.2 Z M60.1,24.4 L60.4,24.4 C60.8,24.4 61.2,24.3 61.6,24.3 C67.7,24.3 73,28.6 74.4,34.5 C74.4,34.6 74.4,34.7 74.4,34.7 C74.2,35.1 73.7,35.4 73.3,35.2 C73.1,35.1 73,35 72.9,34.8 C72.8,34.6 72.2,34.1 72.2,35 C72.2,35.9 73.1,36 72.2,36.5 C71.8,36.8 71.3,37 70.8,37 C70.3,37.4 70.1,38 70.1,38.6 C70.2,39.1 71.4,40.4 70.5,40.4 C69.7,40 69,39.4 68.5,38.6 C68.2,37.9 67.9,37.2 67.7,36.6 C67.6,36.2 67.1,36 66.7,36.1 C66.6,36.1 66.5,36.2 66.5,36.2 C66,36.5 66.6,36.8 66.3,37.5 C66,38.2 65.7,38.8 65.2,38.2 C63.9,36.7 62.1,37.5 61.8,35.9 C61.6,35 60.9,35.1 60.3,34.6 C59.7,34.1 59.3,33.8 59.2,34.2 C59.1,34.6 61.2,36.2 61.3,36.6 C61.5,37.2 60.7,37.8 60.1,37.9 C59.5,38 59.2,37.6 58.6,36.9 C58,36.2 57.7,35.8 57.7,36.3 C57.7,37.2 58.2,38 58.9,38.5 C59.4,38.8 60,39 59.8,39.5 C59.6,40 59.8,39.7 59.2,40.3 C58.7,40.7 58.4,41.3 58.5,41.9 C58.5,42.7 58.3,42.7 58.2,43.4 C58.1,44.1 57.8,43.5 57.5,44.5 C57.4,45.1 57.1,45.7 56.7,46.2 C56.2,46.6 55.6,46.9 54.9,46.9 C54.3,46.9 54.2,45.3 54.2,44.5 C54.2,44.2 53.8,45.1 53.6,43.4 C53.5,42.3 52.8,43.5 52.7,42.8 C52.6,42.1 52.3,42.2 51.9,41.8 C51.5,41.4 51.1,41.8 50.6,42.1 C50.1,42.4 50.3,42.4 49.6,42.2 L49.6,42.2 C48.9,40.6 48.6,38.9 48.6,37.1 C48.6,36.7 48.6,35.1 49.3,34.6 C49.6,34.5 49.9,34.4 50.2,34.4 C50.9,34.5 51.6,34.7 52.3,34.9 C53.1,35.2 54.2,35.8 54.9,35.6 C55.4,35.4 55.8,35.1 55.7,34.7 C55.6,34.3 55.2,34 54.7,34.4 C54.5,34.5 54.1,33.6 53.8,33.7 C53.5,33.8 54.2,34.8 53.9,34.8 C53.6,34.8 53.1,33.7 53,33.5 C52.9,33.3 52.5,32.9 52.2,33.2 C51.4,33.9 50.3,33.6 49.9,33.8 C49,34.1 49,33.9 49,33.5 C49,33.4 49,33.3 49.1,33.2 C49.5,32.9 50.1,32.9 50.6,33 C50.9,33.2 51.2,32.9 51.3,32.8 C51.4,32.7 51.4,32.5 51.3,32.3 C51.2,32.1 51.5,32 51.6,31.9 C51.9,31.7 52.3,31.5 52.6,31.3 C53.3,31.1 53.9,31.1 54.6,31.3 C55,31.5 55.6,31.4 55.9,31 C56.2,30.7 56.5,30.4 56.8,30.2 C57,30.1 56.3,29.5 55.8,30.2 C55.3,30.9 55,30.9 54.7,30.9 C54.4,30.9 52.9,30.5 52.8,30.1 C52.7,29.7 53.3,29.3 53.8,29 C54.6,28.8 55.4,28.7 56.3,28.7 C57.1,28.5 58.1,28.1 58.6,28.5 C59.1,28.9 56.5,29.4 57.4,29.9 C57.7,30.1 59.1,29.1 59.6,28.9 C60.7,28.3 58.5,28.1 58.8,27 C59.1,25.7 56.1,26.2 54.6,26.3 C56,25.4 57.6,24.8 59.3,24.5 L60.1,24.4 Z M70.5,46.4 C69.8,46 69.9,46.6 69.5,46.5 C69.1,46.4 69.9,45.6 68.8,46.2 C67.7,46.8 68,46.1 67.6,44.9 C67.3,43.7 67.9,42.5 69,42.1 C69.8,41.8 70.6,41.6 71.4,41.5 C73,41.1 73.3,40.2 73.6,40.7 C73.6,40.8 73.7,40.9 73.8,41 C73.9,41.2 74,41.4 74,41.7 C73.4,43.5 72.3,45.1 71,46.5 C70.7,46.4 70.6,46.4 70.5,46.4 L70.5,46.4 Z M71,39.2 C70.8,39.2 70.7,39 70.6,38.7 C70.5,38.6 70.6,38.4 70.7,38.3 C70.8,38.2 70.9,38.3 71,38.3 C71.3,38.5 71.5,38.7 71.6,39 C71.7,39.3 71.2,39.3 71,39.2 Z M72.4,40.4 C72,40.6 71.5,40.6 71.2,40.3 C70.9,40 71.4,39.6 71.6,39.6 C72,39.6 72.7,40.2 72.4,40.4 L72.4,40.4 Z M73.8,36.4 C74,36.2 73.4,35.5 73.6,35.5 C74,35.5 74.4,35.7 74.6,36.1 C74.6,36.4 74.7,36.8 74.7,37.2 C74.7,38.1 74.6,38.9 74.4,39.8 C74,39.6 72.7,37.7 73.8,36.4 L73.8,36.4 Z M65.2,39.2 C64.8,39.4 64.3,39.4 64,39.1 C63.7,38.8 64.2,38.4 64.4,38.4 C64.9,38.3 65.5,39 65.2,39.2 L65.2,39.2 Z M59.9,41.7 C59.7,42 59.2,44.2 58.9,43.9 C58.6,43.6 59,41.4 59.1,41.2 C59.7,40.3 60.8,40.4 59.9,41.7 L59.9,41.7 Z M50.7,30.4 C51,30.2 51.3,30 51.7,30 C52,30 52.5,30.1 52.5,30.3 C52.5,30.5 51.7,30.9 51.5,31.1 C51.1,31.5 50.3,32.3 49.9,32.4 C49.8,32.4 49.7,32.4 49.6,32.4 C49.9,31.7 50.2,31.1 50.6,30.5 C50.6,30.4 50.6,30.4 50.7,30.4 Z M52.7,27.8 C52.9,27.8 53.2,27.9 53.2,28 C53.2,28.3 53.2,28.6 53,28.8 C52.6,29.2 52.1,29.4 51.6,29.4 C51.5,29.4 51.3,29.3 51.3,29.2 C51.7,28.8 52.1,28.3 52.7,27.8 L52.7,27.8 Z" id="Shape"></path>
            </g>
        </g>
    </g>
</svg>