<?xml version="1.0" encoding="UTF-8"?>
<svg width="95px" height="95px" viewBox="0 0 95 95" version="1.1" xmlns="http://www.w3.org/2000/svg" xmlns:xlink="http://www.w3.org/1999/xlink">
    <!-- Generator: Sketch 53.2 (72643) - https://sketchapp.com -->
    <title>goal_6_target_6_4</title>
    <desc>Created with Sketch.</desc>
    <g id="goal_6_target_6_4" stroke="none" stroke-width="1" fill="none" fill-rule="evenodd">
        <g id="Group-43" fill-rule="nonzero">
            <rect id="Rectangle" fill="#26BDE2" x="-3.62376795e-13" y="-2.13162821e-14" width="94.8" height="94.8"></rect>
            <g id="Group" transform="translate(8.700000, 10.000000)" fill="#FFFFFF">
                <path d="M56.6,61.6 L56.6,61.6 C56.2,62 56.6,61.6 56.6,61.6 Z" id="Path"></path>
                <g transform="translate(0.000000, 24.000000)" id="Path">
                    <polygon points="32.6 0.4 32.6 23.8 2 23.8 2 0.4 0.8 0.4 0.8 24.9 33.7 24.9 33.7 0.4"></polygon>
                    <path d="M3.8,11.9 L3.8,11.9 C9.7,17.4 15.9,12.8 17.2,11.8 L17.3,11.7 C17.3,11.7 17.4,11.7 17.4,11.7 C17.4,11.7 17.5,11.7 17.5,11.7 L17.6,11.8 C19,12.8 25.1,17.3 31,12 L31.2,11.8 C31.3,11.8 31.3,11.7 31.3,11.6 L31.3,8.7 C31.3,8.5 31.2,8.4 31,8.4 C31,8.4 30.9,8.4 30.9,8.4 L30.8,8.5 C29,9.8 23.1,13.3 17.8,8.4 L17.7,8.3 C17.6,8.2 17.4,8.2 17.3,8.3 C17.3,8.3 17.3,8.3 17.3,8.3 L17.2,8.4 C12,13.2 6.2,9.9 4.3,8.6 L4.2,8.5 C4.2,8.5 4.1,8.5 4.1,8.5 C4,8.5 3.8,8.6 3.8,8.7 L3.8,11.6 L3.8,11.6 L3.8,11.6 C3.7,11.7 3.7,11.8 3.8,11.9 Z"></path>
                    <path d="M3.8,18.5 L3.8,18.5 C9.7,24 15.9,19.5 17.2,18.4 L17.3,18.3 C17.3,18.3 17.4,18.3 17.4,18.3 C17.4,18.3 17.5,18.3 17.5,18.3 L17.6,18.4 C18.9,19.5 25,24 30.9,18.7 L31.1,18.5 C31.2,18.5 31.2,18.4 31.2,18.3 L31.2,15.4 C31.2,15.2 31.1,15.1 30.9,15.1 L30.8,15.1 L30.7,15.2 C28.9,16.5 23,20 17.7,15.1 L17.6,15 C17.5,14.9 17.3,14.9 17.2,15 C17.2,15 17.2,15 17.2,15 L17.1,15.1 C11.9,19.9 6.1,16.6 4.2,15.3 L4.1,15.2 C4.1,15.2 4,15.2 4,15.2 C3.9,15.2 3.7,15.3 3.7,15.4 L3.7,18.3 L3.7,18.3 C3.7,18.4 3.7,18.5 3.8,18.5 Z"></path>
                    <path d="M4.2,6 C4.5,6 4.7,5.8 4.7,5.5 C4.7,5.2 4.5,5 4.2,5 C3.9,5 3.7,5.2 3.7,5.5 C3.7,5.8 3.9,6 4.2,6 C4.2,6 4.2,6 4.2,6 Z"></path>
                    <path d="M6.2,6 C6.5,6 6.7,5.8 6.7,5.5 C6.7,5.2 6.5,5 6.2,5 C5.9,5 5.7,5.2 5.7,5.5 C5.7,5.8 6,6 6.2,6 L6.2,6 Z"></path>
                    <path d="M8.3,6 C8.5,6 8.8,5.8 8.8,5.6 C8.8,5.6 8.8,5.6 8.8,5.6 C8.8,5.3 8.6,5.1 8.3,5.1 C8,5.1 7.8,5.3 7.8,5.6 C7.8,5.8 8,6 8.3,6 Z"></path>
                    <path d="M10.4,6 C10.7,6 10.9,5.8 10.9,5.5 C10.9,5.2 10.7,5 10.4,5 C10.1,5 9.9,5.2 9.9,5.5 C9.9,5.8 10.1,6 10.4,6 C10.3,6 10.4,6 10.4,6 Z"></path>
                    <path d="M12.4,6 C12.7,6 12.9,5.8 12.9,5.5 C12.9,5.2 12.7,5 12.4,5 C12.1,5 11.9,5.2 11.9,5.5 C11.9,5.8 12.1,6 12.4,6 C12.4,6 12.4,6 12.4,6 Z"></path>
                    <path d="M14.5,6 C14.7,6 15,5.8 15,5.6 C15,5.6 15,5.6 15,5.6 C15,5.3 14.8,5.1 14.5,5.1 C14.2,5.1 14,5.3 14,5.6 C14,5.8 14.2,6 14.5,6 Z"></path>
                    <path d="M16.5,6 C16.7,6 17,5.8 17,5.6 C17,5.6 17,5.6 17,5.6 C17,5.3 16.8,5.1 16.5,5.1 C16.2,5.1 16,5.3 16,5.6 C16.1,5.8 16.3,6 16.5,6 Z"></path>
                    <path d="M18.6,6 C18.9,6 19.1,5.8 19.1,5.5 C19.1,5.2 18.9,5 18.6,5 C18.3,5 18.1,5.2 18.1,5.5 C18.1,5.8 18.3,6 18.6,6 C18.6,6 18.6,6 18.6,6 Z"></path>
                    <path d="M20.6,6 C20.9,6 21.1,5.8 21.1,5.5 C21.1,5.2 20.9,5 20.6,5 C20.3,5 20.1,5.2 20.1,5.5 C20.2,5.8 20.4,6 20.6,6 Z"></path>
                    <path d="M22.7,6 C22.9,6 23.2,5.8 23.2,5.6 C23.2,5.6 23.2,5.6 23.2,5.6 C23.2,5.3 23,5.1 22.7,5.1 C22.4,5.1 22.2,5.3 22.2,5.6 C22.2,5.8 22.4,6 22.7,6 Z"></path>
                    <path d="M24.7,6 C25,6 25.2,5.8 25.2,5.5 C25.2,5.2 25,5 24.7,5 C24.4,5 24.2,5.2 24.2,5.5 C24.3,5.8 24.5,6 24.7,6 C24.7,6 24.7,6 24.7,6 Z"></path>
                    <path d="M26.8,6 C27.1,6 27.3,5.8 27.3,5.5 C27.3,5.2 27.1,5 26.8,5 C26.5,5 26.3,5.2 26.3,5.5 C26.3,5.8 26.5,6 26.8,6 Z"></path>
                    <path d="M28.8,6 C29,6 29.3,5.8 29.3,5.6 C29.3,5.6 29.3,5.6 29.3,5.6 C29.3,5.3 29.1,5.1 28.8,5.1 C28.5,5.1 28.3,5.3 28.3,5.6 C28.4,5.8 28.6,6 28.8,6 Z"></path>
                    <path d="M30.9,6 C31.2,6 31.4,5.8 31.4,5.5 C31.4,5.2 31.2,5 30.9,5 C30.6,5 30.4,5.2 30.4,5.5 C30.4,5.8 30.6,6 30.9,6 C30.9,6 30.9,6 30.9,6 Z"></path>
                    <path d="M5.3,4.4 C5.6,4.4 5.8,4.2 5.8,3.9 C5.8,3.6 5.6,3.4 5.3,3.4 C5.1,3.4 4.8,3.6 4.8,3.8 C4.8,3.8 4.8,3.8 4.8,3.8 C4.9,4.2 5.1,4.4 5.3,4.4 Z"></path>
                    <path d="M7.4,4.4 C7.7,4.4 7.9,4.2 7.9,3.9 C7.9,3.6 7.7,3.4 7.4,3.4 C7.1,3.4 6.9,3.6 6.9,3.9 C6.9,4.2 7.1,4.4 7.4,4.4 Z"></path>
                    <path d="M9.4,4.4 C9.7,4.4 9.9,4.2 9.9,3.9 C9.9,3.7 9.7,3.4 9.5,3.4 C9.5,3.4 9.5,3.4 9.5,3.4 C9.2,3.4 9,3.6 9,3.9 C9,4.2 9.2,4.4 9.4,4.4 Z"></path>
                    <path d="M11.5,4.4 C11.8,4.4 12,4.2 12,3.9 C12,3.6 11.8,3.4 11.5,3.4 C11.3,3.4 11,3.6 11,3.8 C11,3.8 11,3.8 11,3.8 C11,4.2 11.2,4.4 11.5,4.4 Z"></path>
                    <path d="M13.5,4.4 C13.8,4.4 14,4.2 14,3.9 C14,3.6 13.8,3.4 13.5,3.4 C13.2,3.4 13,3.6 13,3.9 C13.1,4.2 13.3,4.4 13.5,4.4 Z"></path>
                    <path d="M15.6,4.4 C15.9,4.4 16.1,4.2 16.1,3.9 C16.1,3.7 15.9,3.4 15.7,3.4 C15.7,3.4 15.7,3.4 15.7,3.4 C15.4,3.4 15.2,3.6 15.2,3.9 C15.1,4.2 15.3,4.4 15.6,4.4 Z"></path>
                    <path d="M17.6,4.4 C17.9,4.4 18.1,4.2 18.1,3.9 C18.1,3.6 17.9,3.4 17.6,3.4 C17.4,3.4 17.1,3.6 17.1,3.8 C17.1,3.8 17.1,3.8 17.1,3.8 C17.2,4.2 17.4,4.4 17.6,4.4 Z"></path>
                    <path d="M19.7,4.4 C20,4.4 20.2,4.2 20.2,3.9 C20.2,3.6 20,3.4 19.7,3.4 C19.5,3.4 19.2,3.6 19.2,3.8 C19.2,3.8 19.2,3.8 19.2,3.8 C19.2,4.2 19.4,4.4 19.7,4.4 Z"></path>
                    <path d="M21.8,4.4 C22.1,4.4 22.3,4.2 22.3,3.9 C22.3,3.7 22.1,3.4 21.9,3.4 C21.9,3.4 21.9,3.4 21.9,3.4 C21.6,3.4 21.4,3.6 21.4,3.9 C21.3,4.2 21.5,4.4 21.8,4.4 Z"></path>
                    <path d="M23.8,4.4 C24.1,4.4 24.3,4.2 24.3,3.9 C24.3,3.7 24.1,3.4 23.9,3.4 C23.9,3.4 23.9,3.4 23.9,3.4 C23.6,3.4 23.4,3.6 23.4,3.9 C23.3,4.2 23.5,4.4 23.8,4.4 Z"></path>
                    <path d="M25.9,4.4 C26.2,4.4 26.4,4.2 26.4,3.9 C26.4,3.6 26.2,3.4 25.9,3.4 C25.7,3.4 25.4,3.6 25.4,3.8 C25.4,3.8 25.4,3.8 25.4,3.8 C25.4,4.2 25.6,4.4 25.9,4.4 Z"></path>
                    <path d="M27.9,4.4 C28.2,4.4 28.4,4.2 28.4,3.9 C28.4,3.6 28.2,3.4 27.9,3.4 C27.6,3.4 27.4,3.6 27.4,3.9 C27.5,4.2 27.7,4.4 27.9,4.4 Z"></path>
                    <path d="M30,4.4 C30.3,4.4 30.5,4.2 30.5,3.9 C30.5,3.7 30.3,3.4 30.1,3.4 C30.1,3.4 30.1,3.4 30.1,3.4 C29.8,3.4 29.6,3.6 29.6,3.9 C29.5,4.2 29.7,4.4 30,4.4 Z"></path>
                    <path d="M4.3,2.8 C4.6,2.8 4.8,2.6 4.8,2.3 C4.8,2 4.6,1.8 4.3,1.8 C4,1.8 3.8,2 3.8,2.3 L3.8,2.3 C3.8,2.6 4,2.8 4.3,2.8 Z"></path>
                    <path d="M6.4,2.8 C6.7,2.8 6.9,2.6 6.9,2.3 C6.9,2.1 6.7,1.8 6.5,1.8 C6.5,1.8 6.5,1.8 6.5,1.8 C6.2,1.8 6,2 6,2.3 C5.9,2.6 6.1,2.8 6.4,2.8 Z"></path>
                    <path d="M8.4,2.8 C8.7,2.8 8.9,2.6 8.9,2.3 C8.9,2 8.7,1.8 8.4,1.8 C8.2,1.8 7.9,2 7.9,2.2 C7.9,2.2 7.9,2.2 7.9,2.2 C8,2.6 8.2,2.8 8.4,2.8 Z"></path>
                    <path d="M10.5,2.8 C10.8,2.8 11,2.6 11,2.3 C11,2 10.8,1.8 10.5,1.8 C10.2,1.8 10,2 10,2.3 L10,2.3 C10,2.6 10.2,2.8 10.5,2.8 Z"></path>
                    <path d="M12.5,2.8 C12.8,2.8 13,2.6 13,2.3 C13,2.1 12.8,1.8 12.6,1.8 C12.6,1.8 12.6,1.8 12.6,1.8 C12.3,1.8 12.1,2 12.1,2.3 C12.1,2.6 12.3,2.8 12.5,2.8 Z"></path>
                    <path d="M14.6,2.8 C14.9,2.8 15.1,2.6 15.1,2.3 C15.1,2 14.9,1.8 14.6,1.8 C14.4,1.8 14.1,2 14.1,2.2 C14.1,2.2 14.1,2.2 14.1,2.2 C14.1,2.6 14.3,2.8 14.6,2.8 Z"></path>
                    <path d="M16.6,2.8 C16.9,2.8 17.1,2.6 17.1,2.3 C17.1,2 16.9,1.8 16.6,1.8 C16.4,1.8 16.1,2 16.1,2.2 C16.1,2.2 16.1,2.2 16.1,2.2 C16.2,2.6 16.4,2.8 16.6,2.8 Z"></path>
                    <path d="M18.7,2.8 C19,2.8 19.2,2.6 19.2,2.3 C19.2,2.1 19,1.8 18.8,1.8 C18.8,1.8 18.8,1.8 18.8,1.8 C18.5,1.8 18.3,2 18.3,2.3 C18.2,2.6 18.4,2.8 18.7,2.8 Z"></path>
                    <path d="M20.7,2.8 C21,2.8 21.2,2.6 21.2,2.3 C21.2,2 21,1.8 20.7,1.8 C20.5,1.8 20.2,2 20.2,2.2 C20.2,2.2 20.2,2.2 20.2,2.2 C20.3,2.6 20.5,2.8 20.7,2.8 Z"></path>
                    <path d="M22.8,2.8 C23.1,2.8 23.3,2.6 23.3,2.3 C23.3,2 23.1,1.8 22.8,1.8 C22.6,1.8 22.3,2 22.3,2.2 C22.3,2.2 22.3,2.2 22.3,2.2 C22.3,2.6 22.5,2.8 22.8,2.8 Z"></path>
                    <path d="M24.8,2.8 C25.1,2.8 25.3,2.6 25.3,2.3 C25.3,2.1 25.1,1.8 24.9,1.8 C24.9,1.8 24.9,1.8 24.9,1.8 C24.6,1.8 24.4,2 24.4,2.3 C24.4,2.6 24.6,2.8 24.8,2.8 Z"></path>
                    <path d="M26.9,2.8 C27.2,2.8 27.4,2.6 27.4,2.3 C27.4,2.1 27.2,1.8 27,1.8 C27,1.8 27,1.8 27,1.8 C26.7,1.8 26.5,2 26.5,2.3 C26.4,2.6 26.6,2.8 26.9,2.8 Z"></path>
                    <path d="M28.9,2.8 C29.2,2.8 29.4,2.6 29.4,2.3 C29.4,2 29.2,1.8 28.9,1.8 C28.7,1.8 28.4,2 28.4,2.2 C28.4,2.2 28.4,2.2 28.4,2.2 C28.5,2.6 28.7,2.8 28.9,2.8 Z"></path>
                    <path d="M31,2.8 C31.3,2.8 31.5,2.6 31.5,2.3 C31.5,2 31.3,1.8 31,1.8 C30.7,1.8 30.5,2 30.5,2.3 C30.5,2.3 30.5,2.3 30.5,2.3 C30.5,2.6 30.7,2.8 31,2.8 Z"></path>
                </g>
                <path d="M76.6,24.1 C76.5,24 76.5,24 76.4,24 L52.4,24 C52.3,24 52.2,24 52.2,24.1 C52.2,24.2 52.1,24.2 52.1,24.3 L56.1,48.6 C56.1,48.7 56.2,48.8 56.4,48.8 L72.6,48.8 C72.7,48.8 72.9,48.7 72.9,48.6 L76.7,24.3 C76.6,24.3 76.6,24.2 76.6,24.1 Z M67.3,43.6 C65.6,44.9 63.3,44.9 61.6,43.6 C60.3,42.2 60,40.1 61.1,38.4 C61.5,37.7 64.2,33.5 64.5,33.2 L64.5,33.2 C64.7,33.5 67.5,37.7 67.9,38.4 C68.9,40 68.7,42.2 67.3,43.6 Z M74.9,29.2 C74.2,28.9 73.3,29 72.6,29.3 C69.6,30.5 67.6,30.9 64.5,30 C62.5,29.4 60.7,28.1 58.5,28.9 C57.1,29.5 55.6,29.8 54.1,29.9 L53.2,25.1 L75.6,25.1 L74.9,29.2 Z" id="Shape"></path>
                <path d="M62.7,63.4 L59.9,61.2 C59.7,61 59.3,60.9 59.1,61.2 C59.1,61.2 59.1,61.2 59.1,61.2 L59.1,61.2 C50.3,71.7 35.1,72.8 24.3,64.2 C24,63.9 23.7,63.7 23.4,63.4 L26.6,61.4 C26.9,61.2 26.5,60.9 26.5,60.9 L15.7,55.5 C15.3,55.3 15.3,55.5 15.3,55.7 L15.3,55.8 L15.3,55.8 L15.2,68.1 C15.2,68.2 15.3,68.5 15.6,68.3 L15.6,68.3 L19.2,66.1 C19.9,66.8 20.6,67.4 21.4,68 C34.2,78.3 52.3,76.9 62.9,64.5 L63,64.4 C63,64.1 63,63.7 62.7,63.4 C62.7,63.4 62.7,63.4 62.7,63.4 Z" id="Path"></path>
                <path d="M15.2,12.8 L18.1,14.9 C18.3,15.1 18.7,15.1 18.9,14.9 C18.9,14.9 18.9,14.9 18.9,14.8 L18.9,14.8 C27.1,3.8 42.2,1.8 53.4,9.8 C53.7,10 54.1,10.3 54.4,10.6 L51.4,12.8 C51.1,13 51.6,13.3 51.6,13.3 L62.7,18 C63.1,18.2 63.1,18 63.1,17.8 L63.1,17.7 L63.1,17.7 L62.4,5.4 C62.4,5.3 62.3,5 62,5.2 L62,5.2 L58.6,7.6 C57.9,7 57.1,6.4 56.3,5.8 C43,-3.7 25,-1.2 15.2,11.8 L15.1,11.9 C14.8,12.2 14.9,12.6 15.2,12.8 C15.2,12.8 15.2,12.8 15.2,12.8 Z" id="Path"></path>
            </g>
        </g>
    </g>
</svg>