<?xml version="1.0" encoding="UTF-8"?>
<svg width="95px" height="95px" viewBox="0 0 95 95" version="1.1" xmlns="http://www.w3.org/2000/svg" xmlns:xlink="http://www.w3.org/1999/xlink">
    <!-- Generator: Sketch 53.2 (72643) - https://sketchapp.com -->
    <title>goal_15_target_15_c</title>
    <desc>Created with Sketch.</desc>
    <g id="goal_15_target_15_c" stroke="none" stroke-width="1" fill="none" fill-rule="evenodd">
        <g id="Group-130" fill-rule="nonzero">
            <rect id="Rectangle" fill="#56C02B" x="1.45661261e-12" y="-2.13162821e-14" width="94.8" height="94.8"></rect>
            <g id="Group" transform="translate(12.700000, 10.000000)" fill="#FFFFFF">
                <path d="M29,12.5 L29,9.5 C29,9.4 28.9,9.2 28.7,9.3 L28.5,9.3 L28.3,9.4 C26.3,10.8 20.2,14.3 14.7,9.2 L14.6,9.1 C14.5,9 14.5,9 14.4,9 C14.3,9 14.2,9 14.2,9.1 L14.1,9.2 C8.5,14.4 2.3,10.7 0.4,9.3 L0.3,9.2 L0.3,9.2 C0.2,9.2 -3.55271368e-15,9.3 -3.55271368e-15,9.4 C-3.55271368e-15,9.4 -3.55271368e-15,9.4 -3.55271368e-15,9.5 L-3.55271368e-15,9.5 L-3.55271368e-15,12.6 C-3.55271368e-15,12.7 -3.55271368e-15,12.7 0.1,12.8 L0.3,13 C4.4,16.3 10.3,16.1 14.3,12.7 L14.4,12.6 L14.7,12.6 L14.8,12.7 C18.9,16.1 24.8,16.2 28.9,12.8 L28.9,12.8 C29,12.8 29,12.7 29,12.5 Z" id="Path"></path>
                <path d="M21.8,8.6 C21.7,8.9 21.6,9.1 21.6,9.4 L21.6,9.4 C22.2,9.4 26.6,9.1 28.3,3 C27.1,3 25.9,3.3 24.9,3.9 C24.2,4.4 23.5,5.1 23.1,5.9 C22.6,6.8 22.1,7.7 21.8,8.6 Z" id="Path"></path>
                <path d="M21.2,9.5 L21.2,9.5 L21.2,9.5 C21.3,7.8 20.7,6.2 19.7,4.9 C19.2,4.3 18.7,3.8 18.1,3.4 C17.2,2.9 16.2,2.6 15.2,2.5 C16.2,8.6 20.3,9.4 21.2,9.5 Z" id="Path"></path>
                <path d="M23.1,4.9 C23.1,3.2 22.5,1.5 21.3,0.2 C20.5,1.4 19.9,2.8 19.7,4.3 C20.7,5.3 21.3,6.6 21.5,8 C21.9,6.9 22.5,5.9 23.1,4.9 Z" id="Path"></path>
            </g>
            <g id="Group" transform="translate(45.700000, 9.000000)" fill="#FFFFFF">
                <path d="M38.6,5.4 C38.1,4.9 37.7,4.3 37.5,3.7 L37.5,3.3 L35.3,1.6 C35.3,1.6 35.2,0.5 34.4,0.3 L33.9,1.8 L32.6,2 C32.6,2 30,1.4 29.8,1.3 C28.2,2.6 27.3,4.6 27.6,6.6 C27.1,4.7 27.5,2.6 28.7,1 C27.7,0.7 26.5,0.7 25.5,1.1 C24.7,3.4 24.8,5.9 25.7,8.2 C25.7,8.2 23.4,4.5 24.4,1.4 L22.6,2 C21.9,3.9 21.8,6 22.4,8 C21.5,6.2 21.2,4.2 21.6,2.2 C21,2.3 20.4,2.4 19.8,2.4 C18.8,3.7 18.4,5.3 18.9,6.9 C18.2,5.4 18.2,3.7 18.9,2.2 C18.2,2 17.5,1.9 16.8,1.9 C15.5,3.2 15,5.1 15.5,6.9 C14.7,5.4 14.7,3.6 15.5,2.1 C14.2,2.3 13,3 12.2,4 C11,5.3 9.9,6.8 8.9,8.3 C8.9,8.3 7,12.6 3.8,12.8 C0.6,13 1.1,9.8 1.1,9.8 C1.1,9.8 2.6,9 2.5,8.2 C2.4,7.4 0.8,8.4 0.5,9.4 C0.2,10.4 0.2,13.9 4,13.8 C7.8,13.7 11.4,7.4 11.4,7.4 L11.8,8.6 C11.9,9.2 10.3,11.8 10.3,12.1 L12.8,16.1 L16.1,16.1 C16.1,16.1 15.5,14.5 14.2,14.6 C13.8,13.8 13.4,13 13.1,12.1 L16.3,9 C18.8,8.4 25.3,10.2 25.3,10.2 L26.4,13.1 L27.6,14.3 L29.7,16.3 L33.7,16.3 C33.7,16.3 33.4,14.9 31.1,14.4 L29.3,12.3 L29.2,9.3 L34,6.7 L37.3,7.8 C37.7,7.1 38.2,6.5 38.7,5.9 L38.6,5.4 Z" id="Path"></path>
                <path d="M34.4,9.5 C33.7,9.3 32.1,8.8 32.1,8.8 L30.3,9.7 L30.3,10.8 C31.3,11 32.2,11.2 33.1,11.6 L32.9,13 C34.3,13.6 35,12 35,12 C35.2,11.6 35.3,11.2 35.4,10.8 C35.5,10.1 35.5,9.8 34.4,9.5 Z" id="Path"></path>
            </g>
            <path d="M47,45.9 L46.5,45.2 C47.5,44.5 48.3,43.7 49,42.7 C49,42.7 45.9,43.4 45,42.6 L42.9,39.5 C43.4,38.7 43.4,37.8 43,37 C42.8,36.7 42.2,36.3 42.1,36.8 L42.1,37 C41.9,37.4 41.6,37.8 41.1,37.9 C41.1,37.5 40.9,37.2 40.7,36.9 C40.5,36.6 39.9,36.4 39.8,36.8 L39.8,37 C39.8,37.2 39.7,37.4 39.6,37.5 L37,36.4 C35.8,35.5 34.3,34.9 32.8,34.8 L31.6,34.8 C30,35.1 28.5,35.3 26.9,35.4 L19.3,35.7 C19.3,35.7 12.9,35.9 12.8,39.2 L12.5,49.8 C13.8,50.7 13.2,48.5 13.1,47.7 C13.2,46.6 13.4,45.6 13.8,44.6 L15.5,54.2 L19.8,54.2 C19.8,53.2 19.2,52.2 18.2,51.9 L18.8,48.8 L20.6,47.7 C22.9,48.8 25.5,48.9 27.9,48 L29.4,54.2 L34.5,54.2 C34.3,52.3 31.6,51.8 31.6,51.8 L32.9,46.7 C33.3,46.6 33.6,46.5 34,46.4 L34.8,46.2 L35,46.1 C35.7,45.8 36.4,45.4 37.1,44.9 C37.1,44.9 39.4,47.9 40.4,48.3 L43.9,49.9 C44.3,50.1 44.8,50.1 45.2,49.8 L45.8,49.5 C46.2,49.5 46.6,49.4 46.9,49.2 C47.2,49 47.5,48.7 47.6,48.4 C49.5,48.2 53.5,44.8 53.5,44.8 L47,45.9 Z" id="Path" fill="#FFFFFF"></path>
            <path d="M71.6,50.7 L69.4,50.7 L68.1,43.2 L68,50.7 L66,50.7 L64.4,41.6 L64.3,50.7 L58.1,50.7 L58.1,54.1 L80.9,54.1 L80.9,50.7 L75.8,50.7 L75.7,43.2 L74.4,50.7 L72.2,50.7 L72.2,39.6 C72.4,39.8 72.6,39.9 72.8,40.1 C74,41 75.2,41.3 75.5,40.8 C75.8,40.3 75.2,39.3 74,38.4 C73.8,38.3 73.7,38.2 73.5,38.1 C73.6,38 73.8,38 73.9,37.9 C75.2,37.2 76,36.2 75.7,35.7 C75.4,35.2 74.2,35.4 72.9,36.1 L72.9,36.1 L72.9,35.9 C73,34.5 72.6,33.2 72,33.2 C71.4,33.2 70.9,34.3 70.8,35.7 L70.8,36 L70.5,35.8 C69.3,34.9 68.1,34.6 67.8,35 C67.5,35.4 68.1,36.5 69.3,37.4 C69.4,37.5 69.6,37.6 69.7,37.7 C69.6,37.8 69.4,37.8 69.3,37.9 C68,38.6 67.3,39.6 67.5,40.1 C67.7,40.6 69,40.4 70.3,39.7 C70.7,39.5 71.1,39.2 71.5,38.9 L71.5,39.1 C71.6,40.3 71.6,41.6 71.5,42.8 L71.6,50.7 Z M71.2,37.6 C71.2,37.3 71.8,37.1 71.8,37.1 C71.8,37.1 72.3,37.4 72.3,37.7 C72.3,38 72,38.2 71.7,38.2 C71.4,38.2 71.2,37.9 71.2,37.6 Z" id="Shape" fill="#FFFFFF"></path>
            <g id="Group" transform="translate(48.700000, 62.000000)" fill="#FFFFFF">
                <path d="M9.5,12.4 C7.8,13.1 4.6,14.3 2,13.8 C-1.7,13.1 2.4,14.4 2.4,14.4 C3.7,14.7 5.1,14.7 6.4,14.5 C6.6,17.5 7.2,20.8 7.2,21.1 C7.2,21.1 7.2,21.5 7.4,21.5 L7.8,21.6 C7.8,21.6 7.9,21.6 7.9,21.4 C7.8,19.5 7.9,17.7 8.1,15.8 C8.3,15.1 8.5,14.5 8.9,13.9 C9.3,13.7 9.8,13.6 10.2,13.4 L10.1,13 C9.7,12.2 9.5,12.4 9.5,12.4 Z" id="Path"></path>
                <path d="M34.3,9.5 C34.2,7.8 33.5,6.2 32.3,4.9 C30.8,3.2 28.7,2.2 26.5,2.1 C23.4,1.9 19.4,1.9 19.4,1.9 C19.4,1.9 18.7,1.8 18.6,2.7 C18.4,4.9 17.9,7 17.2,9.1 C16.9,9.9 15.2,10.1 15,10.2 C15,10.2 16.8,9.2 17,8.6 C17.4,6.7 17.6,4.7 17.6,2.7 C17.4,0.7 17.4,0.6 17.4,0.6 C17.4,0.6 17.4,0.1 16.5,0.1 L12.3,0.1 C12.3,0.1 11.9,1.41830991e-14 11.8,0.6 C11.7,1.2 11.8,1.4 11,1.6 C9.9,1.7 8.8,2.1 7.9,2.8 C6.8,4.4 6.2,6.3 6.2,8.3 L6.2,8.5 C6.1,9.8 6.2,11.2 6.5,12.5 C7.6,12.4 8.7,12.1 9.7,11.5 C10.4,11.1 10.8,12.1 10.8,12.1 C10.9,12.3 11,12.6 11.1,12.8 C11.2,12.9 11.2,13.1 11.1,13.2 C11.1,13.2 10.8,13.3 10.9,13.5 C11,13.7 11.2,13.9 11.5,13.9 C11.9,14 13.1,15.7 13.1,15.7 C13.1,16 13.3,18.7 13.3,18.7 L13.9,22.5 C13.9,22.5 12.7,23.4 14.7,23.4 L16.8,23.4 C16.8,23.4 17.7,23.4 17.7,22.8 L17.6,19 L18.2,16 C20.2,17.4 26.6,17.1 26.6,17.1 C26.9,17.2 27.1,17.4 27.3,17.6 L27.9,19.8 L28.1,22.2 C28.1,22.2 26.8,23.5 28.6,23.5 L30.6,23.5 C30.6,23.5 31.6,23.6 31.4,22.9 C31.1,21.9 32.6,15.8 32.6,14.2 C32.6,12.6 32.7,10.2 32.8,9.5 C33,10.7 33.2,11.8 33.2,13 C33.3,14.3 33.4,15.6 33.4,16.9 C33.4,16.9 33.5,18 33.6,17.3 C34.3,14.8 34.6,12.2 34.3,9.5 Z" id="Path"></path>
            </g>
            <g id="Group" transform="translate(16.700000, 61.000000)" fill="#FFFFFF">
                <polygon id="Path" points="3.1 7.4 4 24.5 5.7 24.5"></polygon>
                <polygon id="Path" points="15.6 5.8 12 24.5 13.7 24.5"></polygon>
                <polygon id="Path" points="18.3 14 16 24.5 17.6 24.5"></polygon>
                <polygon id="Path" points="21.7 19.1 20.5 24.5 21.3 24.5"></polygon>
                <polygon id="Path" points="0 16.7 0.5 24.5 1.7 24.5"></polygon>
                <path d="M9.2,10.4 L9.4,10.4 C10.2,10.4 10.8,9.8 10.8,9.1 C10.8,9.1 10.8,9.1 10.8,9 L10.8,4 C10.8,3.2 10.2,2.6 9.5,2.6 C9.5,2.6 9.5,2.6 9.4,2.6 L9.1,2.6 L9.1,0.3 C9.1,0.1 9,1.42108547e-14 8.8,1.42108547e-14 C8.6,1.42108547e-14 8.5,0.1 8.5,0.3 L8.5,2.6 L8.3,2.6 C7.5,2.6 6.9,3.2 6.9,3.9 C6.9,3.9 6.9,3.9 6.9,4 L6.9,9 C6.9,9.8 7.5,10.4 8.2,10.4 C8.2,10.4 8.2,10.4 8.3,10.4 L8.4,10.4 L8.4,24.5 L9.2,24.5 L9.2,10.4 Z" id="Path"></path>
            </g>
            <rect id="Rectangle" fill="#FFFFFF" x="58.1" y="50.7" width="22.8" height="3.4"></rect>
        </g>
    </g>
</svg>