<?xml version="1.0" encoding="UTF-8"?>
<svg width="95px" height="95px" viewBox="0 0 95 95" version="1.1" xmlns="http://www.w3.org/2000/svg" xmlns:xlink="http://www.w3.org/1999/xlink">
    <!-- Generator: Sketch 53.2 (72643) - https://sketchapp.com -->
    <title>goal_17_target_17_9</title>
    <desc>Created with Sketch.</desc>
    <g id="goal_17_target_17_9" stroke="none" stroke-width="1" fill="none" fill-rule="evenodd">
        <g id="Group-151" fill-rule="nonzero">
            <rect id="Rectangle" fill="#19486A" x="1.45661261e-12" y="7.10542736e-15" width="94.8" height="94.8"></rect>
            <g id="Group" transform="translate(9.700000, 10.000000)" fill="#FFFFFF">
                <g id="Path">
                    <path d="M19.5,26.8 C20.4,25.2 21.6,23.8 22.9,22.5 L11.9,10.4 C9.1,13.1 6.8,16.1 4.9,19.5 L19.5,26.8 Z"></path>
                    <path d="M46.5,18.2 C48.2,19 49.7,19.9 51.1,21.1 L62.1,9 C59.2,6.5 55.9,4.4 52.3,2.9 L46.5,18.2 Z"></path>
                    <path d="M71.8,21.9 L57.2,29.2 C57.9,30.9 58.4,32.6 58.7,34.4 L75,32.9 C74.5,29 73.4,25.3 71.8,21.9"></path>
                    <path d="M56.1,27 L70.7,19.7 C68.9,16.3 66.6,13.3 63.9,10.6 L52.9,22.7 C54.2,24 55.3,25.5 56.1,27"></path>
                    <path d="M16.6,37.4 C16.6,37.1 16.6,36.7 16.6,36.4 L0.4,35 C0.4,35.8 0.3,36.6 0.3,37.4 C0.3,40.5 0.7,43.5 1.4,46.5 L17.1,42 C16.8,40.5 16.6,39 16.6,37.4"></path>
                    <path d="M54.1,50.8 C52.9,52.2 51.6,53.5 50.1,54.5 L58.7,68.4 C61.9,66.2 64.7,63.6 67.1,60.6 L54.1,50.8 Z"></path>
                    <path d="M58.9,37.4 C58.9,38.9 58.7,40.4 58.4,41.9 L74.1,46.4 C74.8,43.5 75.2,40.4 75.2,37.4 C75.2,36.6 75.2,35.9 75.1,35.1 L58.8,36.6 C58.8,36.9 58.8,37.2 58.9,37.4"></path>
                    <path d="M21.7,51.1 L8.7,60.9 C11.1,63.9 14,66.5 17.2,68.6 L25.8,54.7 C24.2,53.7 22.9,52.5 21.7,51.1"></path>
                    <path d="M16.9,34.1 C17.2,32.3 17.7,30.5 18.5,28.9 L3.9,21.6 C2.3,25.1 1.2,28.8 0.7,32.7 L16.9,34.1 Z"></path>
                    <path d="M56.7,69.7 L48.1,55.8 C46.5,56.7 44.8,57.3 43.1,57.8 L46.1,73.9 C49.8,73.1 53.4,71.6 56.7,69.7"></path>
                    <path d="M57.8,44.2 C57.2,45.9 56.5,47.4 55.5,48.9 L68.6,58.7 C70.7,55.6 72.4,52.3 73.5,48.7 L57.8,44.2 Z"></path>
                    <path d="M40.8,58.4 C39.8,58.5 38.8,58.6 37.8,58.6 C37,58.6 36.2,58.6 35.3,58.4 L32.3,74.5 C34.1,74.8 36,74.9 37.8,74.9 C39.8,74.9 41.9,74.7 43.9,74.4 L40.8,58.4 Z"></path>
                    <path d="M39.1,16.4 C40.9,16.5 42.6,16.9 44.3,17.4 L50.2,2.1 C46.6,0.8 42.9,0.1 39.1,-7.10542736e-15 L39.1,16.4 Z"></path>
                    <path d="M33,58 C31.2,57.6 29.5,56.9 27.8,56 L19.1,70 C22.5,71.9 26.1,73.3 29.9,74.1 L33,58 Z"></path>
                    <path d="M31.4,17.3 C33.1,16.7 34.9,16.4 36.7,16.3 L36.7,0 C32.9,0.1 29.1,0.8 25.5,2 L31.4,17.3 Z"></path>
                    <path d="M20.2,49.3 C19.1,47.8 18.3,46.1 17.7,44.3 L2,48.8 C3.2,52.5 4.9,56 7.2,59.2 L20.2,49.3 Z"></path>
                    <path d="M24.7,20.9 C26.1,19.8 27.6,18.9 29.2,18.2 L23.3,3 C19.8,4.5 16.6,6.5 13.7,8.9 L24.7,20.9 Z"></path>
                </g>
                <g transform="translate(21.000000, 21.000000)">
                    <path d="M33.1,14.8 C33.1,14.4 32.7,14 32.3,14.1 C32.3,14.1 32.3,14.1 32.3,14.1 L31.1,14.1 C30.6,14.1 30.2,14 30.1,13.5 C29.9,12.7 29.6,11.9 29.3,11.2 C29.1,10.8 29.2,10.3 29.6,10 L30.6,9.1 C30.9,8.9 31,8.4 30.8,8.1 C30.3,7.2 29.7,6.3 29,5.6 C28.7,5.3 28.2,5.2 27.9,5.5 L26.9,6.2 C26.5,6.5 26.1,6.6 25.7,6.3 C25,5.8 24.2,5.2 23.7,4.9 C23.3,4.7 23.1,4.2 23.2,3.8 C23.3,3.3 23.4,3 23.5,2.5 C23.6,2.1 23.4,1.7 23,1.5 C22.1,1.1 21.1,0.8 20.1,0.6 C19.7,0.5 19.2,0.7 19.1,1.1 C19.1,1.1 19.1,1.1 19.1,1.1 C18.9,1.5 18.8,1.8 18.7,2.2 C18.6,2.6 18.3,3 17.8,3 C16.8,3 16,3 15.4,3 C15,3 14.6,2.8 14.4,2.3 C14.2,1.9 14.1,1.5 13.9,1.1 C13.8,0.7 13.4,0.5 13,0.6 C12,0.8 11,1.1 10.1,1.6 C9.7,1.8 9.5,2.2 9.6,2.6 C9.7,3 9.8,3.3 9.9,3.8 C10,4.3 10,4.7 9.6,4.9 C9.2,5.1 8.2,5.9 7.6,6.4 C7.3,6.7 6.8,6.7 6.4,6.5 C6,6.2 5.7,6 5.3,5.8 C5,5.6 4.6,5.7 4.3,5.9 C3.6,6.7 3,7.5 2.5,8.4 C2.3,8.8 2.4,9.2 2.7,9.5 C2.7,9.5 2.7,9.5 2.7,9.5 L3.7,10.2 C4.1,10.5 4.3,10.8 4.2,11.3 C4.1,11.8 3.6,13.1 3.5,13.6 C3.4,14 3,14.4 2.6,14.4 L1.3,14.5 C0.9,14.5 0.6,14.8 0.5,15.2 C0.4,16.2 0.4,17.3 0.5,18.3 C0.5,18.7 0.9,19.1 1.3,19 C1.3,19 1.3,19 1.3,19 C1.8,19 2.1,19 2.5,19 C2.9,19 3.3,19.1 3.5,19.6 C3.7,20.4 3.9,21.2 4.2,22.1 C4.4,22.5 4.3,23 3.9,23.3 C3.5,23.6 3.2,23.9 2.9,24.2 C2.6,24.4 2.5,24.9 2.7,25.2 C3.2,26.1 3.8,26.9 4.5,27.7 C4.8,28 5.3,28.1 5.6,27.8 L6.6,27.1 C7,26.8 7.4,26.7 7.7,27 C8,27.3 9.2,28.1 9.7,28.4 C10.1,28.6 10.3,29.1 10.2,29.5 C10.1,29.9 10,30.3 9.9,30.8 C9.8,31.2 10,31.6 10.4,31.8 C11.4,32.2 12.4,32.5 13.4,32.7 C13.8,32.8 14.3,32.6 14.4,32.2 C14.4,32.2 14.4,32.2 14.4,32.2 C14.6,31.8 14.7,31.5 14.8,31.1 C14.9,30.7 15.2,30.3 15.7,30.3 C16.6,30.3 17.3,30.3 18.1,30.3 C18.5,30.3 18.9,30.5 19.1,31 C19.3,31.4 19.4,31.8 19.6,32.2 C19.7,32.6 20.1,32.8 20.5,32.7 C21.5,32.5 22.5,32.2 23.4,31.7 C23.8,31.5 24,31.1 23.8,30.7 C23.7,30.3 23.6,30 23.5,29.5 C23.4,29 23.3,28.6 23.8,28.4 C24.3,28.2 25.3,27.3 25.8,27 C26.1,26.7 26.6,26.7 27,26.9 C27.4,27.2 27.7,27.3 28.1,27.6 C28.4,27.8 28.9,27.8 29.2,27.5 C29.8,26.7 30.4,25.8 30.8,24.9 C31,24.5 30.9,24 30.6,23.8 C30.6,23.8 30.6,23.8 30.6,23.8 C30.3,23.5 30,23.3 29.6,23.1 C29.2,22.9 29,22.5 29.2,22 C29.4,21.5 29.8,20.2 29.9,19.7 C30,19.3 30.4,18.9 30.8,18.9 L32.1,18.8 C32.5,18.8 32.8,18.5 32.9,18.1 C33.2,16.8 33.2,15.8 33.1,14.8 Z M16.9,26.8 C11.3,26.8 6.8,22.3 6.8,16.7 C6.8,11.1 11.3,6.6 16.9,6.6 C22.5,6.6 27,11.1 27,16.7 C27,16.7 27,16.7 27,16.7 C27,22.3 22.5,26.8 16.9,26.8 L16.9,26.8 Z" id="Shape"></path>
                    <path d="M9.5,13.8 C9.7,14 9.9,13.8 10,13.7 C10.1,13.6 10.1,13.4 10,13.3 C10,13.2 10.1,13.1 10.2,13.1 C10.4,13 10.7,12.8 10.9,12.7 C11.3,12.6 11.8,12.6 12.2,12.7 C12.5,12.9 12.9,12.8 13.1,12.5 C13.3,12.3 13.5,12.1 13.8,12 C13.9,11.9 13.5,11.5 13.1,12 C12.7,12.5 12.6,12.5 12.4,12.5 C12.2,12.5 11.2,12.2 11.1,11.9 C11,11.6 11.4,11.3 11.8,11.2 C12.4,11.1 12.9,11 13.5,11 C14,10.9 14.7,10.6 15.1,10.9 C15.5,11.2 13.6,11.5 14.2,11.9 C14.4,12 15.4,11.4 15.7,11.2 C16.5,10.8 15,10.7 15.2,9.9 C15.4,9.1 13.4,9.3 12.4,9.4 C11.9,9.7 11.4,10.1 11,10.5 C11.1,10.5 11.3,10.6 11.3,10.7 C11.3,10.9 11.3,11.1 11.2,11.3 C10.9,11.6 10.6,11.7 10.2,11.7 C10.1,11.7 10.1,11.7 10,11.6 C9.8,11.8 9.7,12 9.5,12.2 C9.7,12.1 9.9,12 10.2,12 C10.4,12 10.7,12.1 10.7,12.2 C10.7,12.3 10.2,12.6 10,12.7 C9.7,13 9.2,13.6 8.9,13.6 C8.8,13.6 8.8,13.6 8.7,13.6 C8.6,13.8 8.5,14 8.5,14.2 C8.7,13.7 9.1,13.7 9.5,13.8 Z" id="Path"></path>
                    <path d="M24.1,16.2 C23.8,16.4 23.5,16.5 23.2,16.6 C22.9,16.9 22.7,17.3 22.7,17.7 C22.8,18 23.6,19 23,18.9 C22.4,18.6 22,18.2 21.6,17.7 C21.4,17.2 21.2,16.7 21.1,16.4 C21,16.1 20.7,16 20.4,16.1 C20.3,16.1 20.3,16.2 20.2,16.2 C19.9,16.4 20.3,16.6 20.1,17.1 C19.9,17.6 19.7,18 19.4,17.6 C18.5,16.6 17.3,17.1 17.1,16 C17,15.4 16.5,15.5 16.1,15.1 C15.7,14.7 15.4,14.6 15.3,14.8 C15.2,15 16.7,16.1 16.8,16.4 C17,16.8 16.4,17.2 16,17.3 C15.6,17.4 15.4,17.1 15,16.6 C14.6,16.1 14.4,15.9 14.4,16.2 C14.4,16.8 14.7,17.3 15.2,17.7 C15.6,17.9 16,18 15.8,18.4 C15.6,18.8 15.8,18.6 15.4,19 C15,19.2 14.9,19.7 14.9,20.1 C14.9,20.7 14.8,20.7 14.7,21.2 C14.6,21.7 14.4,21.3 14.2,21.9 C14.1,22.3 13.9,22.7 13.7,23 C13.4,23.3 12.9,23.5 12.5,23.4 C12.1,23.4 12,22.3 12,21.7 C12,21.5 11.7,22.1 11.6,20.9 C11.5,20.2 11,21 11,20.5 C11,20 10.7,20.1 10.5,19.8 C10.3,19.5 9.9,19.8 9.6,20 C9.3,20.2 9.4,20.2 8.9,20.1 L8.9,20.1 C9.9,22.6 12,24.4 14.6,25.2 C14.5,25.1 14.4,24.9 14.5,24.8 C14.9,24.2 15.5,23.8 16.3,23.8 C17.7,23.7 19.6,24.7 19.9,24.6 C20.2,24.5 20.8,23.6 21.7,23.7 C22,23.7 22.3,23.8 22.5,23.9 C22.8,23.7 23.1,23.4 23.4,23.1 C23.3,23.1 23.2,23 23.1,23 C22.6,22.8 22.7,23.1 22.4,23 C22.1,22.9 22.7,22.4 21.9,22.8 C21.1,23.2 21.4,22.7 21.1,21.9 C20.9,21.1 21.3,20.3 22,20 C22.5,19.8 23.1,19.7 23.6,19.6 C24.7,19.3 24.9,18.7 25.1,19.1 L25.2,19.3 C25.3,19.5 25.3,19.7 25.3,19.8 C25.5,19.4 25.6,18.9 25.7,18.5 C25.4,18.4 24.5,17.1 25.3,16.2 C25.4,16.1 25,15.6 25.1,15.6 C25.4,15.6 25.8,15.8 25.8,16.1 C25.8,15.6 25.7,15.2 25.6,14.7 C25.6,14.8 25.6,14.9 25.6,15 C25.5,15.3 25.1,15.4 24.8,15.3 C24.7,15.3 24.6,15.2 24.6,15.1 C24.5,15 24.1,14.6 24.1,15.2 C24.1,15.8 24.6,15.9 24.1,16.2 Z M15.7,19.7 C15.6,19.9 15.2,21.4 15,21.2 C14.8,21 15.1,19.5 15.2,19.4 C15.5,18.7 16.3,18.8 15.7,19.7 Z M19.4,18 C19.1,18.1 18.8,18.1 18.6,17.9 C18.4,17.7 18.7,17.4 18.9,17.4 C19.1,17.4 19.5,17.8 19.4,18 Z M23,17.6 C22.9,17.4 23.1,17.3 23.3,17.3 C23.5,17.4 23.7,17.6 23.7,17.8 C23.7,17.9 23.3,17.9 23.2,17.9 C23.1,17.9 23.1,17.9 23,17.6 Z M24.2,18.8 C23.9,18.9 23.6,18.9 23.4,18.7 C23.2,18.5 23.6,18.2 23.7,18.2 C24,18.2 24.4,18.6 24.2,18.8 L24.2,18.8 Z" id="Shape"></path>
                    <path d="M9.1,14.8 C9.6,14.9 10.1,15 10.6,15.2 C11.1,15.4 11.9,15.8 12.4,15.6 C12.9,15.4 13,15.2 13,15 C13,14.8 12.7,14.6 12.3,14.8 C12.2,14.9 11.9,14.3 11.7,14.3 C11.5,14.3 12,15 11.8,15.1 C11.6,15.2 11.3,14.4 11.2,14.2 C11.1,14 10.9,13.8 10.6,14 C10.1,14.5 9.2,14.5 9.1,14.6 C9,14.6 9,14.7 8.9,14.7 C8.6,14.8 8.4,14.5 8.4,14.2 C8.3,14.7 8.2,15.2 8.1,15.7 L8.1,15.6 C8.4,15.1 8.4,15 8.5,14.9 C8.6,14.8 8.7,14.8 8.8,14.8 L9.1,14.8 Z" id="Path"></path>
                </g>
            </g>
        </g>
    </g>
</svg>