<?xml version="1.0" encoding="UTF-8"?>
<svg width="95px" height="95px" viewBox="0 0 95 95" version="1.1" xmlns="http://www.w3.org/2000/svg" xmlns:xlink="http://www.w3.org/1999/xlink">
    <!-- Generator: Sketch 53.2 (72643) - https://sketchapp.com -->
    <title>goal_5_target_5_b</title>
    <desc>Created with Sketch.</desc>
    <g id="goal_5_target_5_b" stroke="none" stroke-width="1" fill="none" fill-rule="evenodd">
        <g id="Group-37" fill-rule="nonzero">
            <rect id="Rectangle" fill="#FF3A21" x="-3.62376795e-13" y="-2.13162821e-14" width="94.8" height="94.8"></rect>
            <g id="Group" transform="translate(13.700000, 11.000000)" fill="#FFFFFF">
                <g>
                    <g transform="translate(34.000000, 2.000000)" id="Path">
                        <path d="M3.1,8.5 C3.1,7.3 2.8,6.1 2.3,5 L1,5.9 C1.4,6.7 1.6,7.7 1.6,8.6 C1.6,9.7 1.3,10.7 0.8,11.7 L2.1,12.5 C2.8,11.3 3.1,9.9 3.1,8.5 Z"></path>
                        <path d="M5.9,2.6 L4.7,3.4 C5.5,4.9 6,6.7 6,8.4 C6,10.3 5.5,12.3 4.5,13.9 L5.7,14.7 C6.8,12.8 7.4,10.6 7.4,8.4 C7.4,6.5 6.9,4.4 5.9,2.6 Z"></path>
                        <path d="M10.3,8.5 C10.3,11.3 9.6,14 8.1,16.4 L9.3,17.2 C12.5,12 12.5,5.4 9.4,0.2 L8.3,1 C9.6,3.3 10.3,5.9 10.3,8.5 Z"></path>
                    </g>
                    <g transform="translate(0.000000, 1.000000)" id="Shape">
                        <path d="M27.9,0.8 C27.9,0.4 27.6,0.1 27.2,0.1 L3.4,0.1 C3,0.1 2.7,0.4 2.7,0.8 L2.7,15.8 L27.9,15.8 L27.9,0.8 Z M26.9,14.9 L3.9,14.9 L3.9,1.2 L26.9,1.2 L26.9,14.9 Z"></path>
                        <path d="M28,16.4 L2.8,16.4 L0.8,18 L0.8,18.7 C0.8,19 1.3,19 1.3,19 L29.8,19 C30.1,19 30.1,18.6 30.1,18.6 L30.1,18 L28,16.4 Z M17.4,18.4 L13.2,18.4 L13.2,17.9 L17.4,17.9 L17.4,18.4 Z"></path>
                    </g>
                    <path d="M61.7,0.9 L52.9,0.9 C52.3,0.9 51.9,1.3 51.9,1.9 L51.9,20.2 C51.9,20.8 52.3,21.2 52.9,21.2 L61.7,21.2 C62.3,21.2 62.7,20.8 62.7,20.2 L62.7,1.9 C62.7,1.4 62.3,0.9 61.7,0.9 C61.7,0.9 61.7,0.9 61.7,0.9 Z M57.4,20.1 C56.8,20.1 56.3,19.6 56.3,19 C56.3,18.4 56.8,17.9 57.4,17.9 C58,17.9 58.5,18.4 58.5,19 C58.5,19 58.5,19 58.5,19 C58.5,19.6 58,20.1 57.4,20.1 Z M62,16.7 L52.8,16.7 L52.8,1.8 L62,1.8 L62,16.7 Z" id="Shape"></path>
                </g>
                <g transform="translate(1.000000, 30.000000)" id="Path">
                    <path d="M31.6,8.3 L31.6,8.3 C33.5,8.3 35,6.8 35,4.9 C35,3 33.5,1.5 31.6,1.5 L31.6,1.5 C29.7,1.5 28.2,3 28.2,4.9 C28.2,6.8 29.8,8.3 31.6,8.3 Z"></path>
                    <path d="M54.1,10.2 C56,10.2 57.5,8.7 57.5,6.8 C57.5,5.5 56.8,4.3 55.6,3.7 C55.7,3.5 55.7,3.4 55.7,3.2 C55.5,2.3 54.5,1.7 53.6,1.9 C52.9,2.1 52.4,2.6 52.3,3.2 C52.3,3.4 52.4,3.6 52.5,3.8 C50.9,4.7 50.3,6.8 51.2,8.4 C51.7,9.5 52.8,10.2 54.1,10.2 Z"></path>
                    <path d="M62.4,24.6 C62.4,24.6 62.4,24.5 62.3,24.5 C63.3,23.9 62.9,22.7 62.9,22.7 L62.4,21.3 L60.2,14.1 C60.2,14.1 59.2,11.5 57.1,11.5 L52.1,11.4 C51.4,11.4 50.6,11.1 50.1,10.6 L44,1.1 L44,1 C43.8,0.7 43.5,0.4 43.2,0.3 C43,0.3 42.9,0.3 42.7,0.3 C42.4,0.3 42.2,0.3 41.6,1.1 L35.6,8.7 C35,9.3 34.1,9.6 33.3,9.6 L30.4,9.6 C29.5,9.6 28.7,9.3 28.1,8.7 L22.1,1.1 C21.4,0.3 21.2,0.4 21,0.3 C20.8,0.3 20.7,0.3 20.5,0.3 C20.1,0.4 19.8,0.7 19.7,1.1 L19.7,1.1 L13.5,10.4 C13,10.9 12.2,11.2 11.5,11.2 L6.5,11.3 C4.3,11.3 3.3,13.9 3.3,13.9 L0.6,22.6 C0.6,22.6 0.1,24.2 1.5,24.6 C2.9,25 3.3,23.4 3.3,23.4 L5.4,16.2 C5.4,16.2 5.5,15.6 5.9,15.8 C6.3,16 6.2,16.5 6.2,16.5 L2.2,30 L5.7,30 L5.7,39.7 C5.7,40.6 6.4,41.4 7.4,41.4 C8.4,41.4 9.1,40.7 9.1,39.7 L9.1,30 L10.3,30 L10.3,39.8 C10.3,40.7 11.1,41.5 12,41.5 C12.9,41.5 13.7,40.7 13.7,39.8 L13.7,30 L17.2,30 L13.8,17.7 C13.6,16.9 13.8,16.1 14.1,15.4 L16.3,11.4 L20.2,4.8 C20.2,4.8 20.5,4.3 20.9,3.8 L24.8,9.7 L27.1,13.9 C27.5,14.6 27.6,15.5 27.5,16.3 L23.9,29.3 L27.6,29.3 L27.6,39.6 C27.6,40.6 28.4,41.4 29.4,41.4 C30.4,41.4 31.2,40.6 31.2,39.6 L31.2,39.6 L31.2,29.3 L32.2,29.3 L32.2,39.7 C32.2,40.7 33,41.5 34,41.5 C35,41.5 35.8,40.7 35.8,39.7 L35.8,39.7 L35.8,29.3 L39.5,29.3 L35.9,16.3 C35.7,15.5 35.9,14.6 36.2,13.9 L38.5,9.7 L42.4,3.8 C42.7,4.4 43.1,4.8 43.1,4.8 L47,11.4 L49.2,15.4 C49.6,16.1 49.7,16.9 49.5,17.7 L46.2,30 L49.7,30 L49.7,39.8 C49.7,40.7 50.5,41.5 51.4,41.5 C52.3,41.5 53.1,40.7 53.1,39.8 L53.1,30 L54.3,30 L54.3,39.7 C54.3,40.6 55.1,41.4 56,41.4 C56.9,41.4 57.7,40.7 57.7,39.7 L57.7,30 L61.2,30 L57.5,16.4 C57.5,16.4 57.3,15.8 57.8,15.7 C58.3,15.6 58.3,16.1 58.3,16.1 L60,21.9 L60.4,23.3 C60.4,23.3 60.7,24.4 61.6,24.5 C61.6,24.5 61.6,24.6 61.6,24.6 L64.7,40.8 C64.7,41 65,41.2 65.2,41.2 L65.3,41.2 C65.6,41.1 65.8,40.9 65.7,40.6 L62.4,24.6 Z"></path>
                    <g transform="translate(4.000000, 3.000000)">
                        <path d="M2.9,1.3 C2.9,0.9 2.4,0.4 1.5,0.8 C0.4,1.3 0.5,3 0.5,3 C0.5,3 0.5,3.2 0.6,3.2 C0.7,3 1,2.5 1.9,2.4 C2.1,2.4 2.2,2.3 2.4,2.2 C2.5,1.9 2.7,1.7 3,1.4 C2.9,1.4 2.9,1.4 2.9,1.3 Z"></path>
                        <path d="M9.6,0.8 C8.7,0.4 8.3,0.9 8.2,1.3 C8.2,1.4 8.2,1.4 8.2,1.5 C8.4,1.7 8.6,2 8.7,2.2 C8.9,2.3 9,2.4 9.2,2.4 C10.1,2.5 10.4,3 10.5,3.2 C10.5,3.3 10.5,3.2 10.6,3 C10.7,2.8 10.8,1.4 9.6,0.8 Z"></path>
                        <path d="M5.6,0.9 C3.9,0.9 2.5,2.3 2.5,4 C2.5,5.7 3.9,7.1 5.6,7.1 C7.3,7.1 8.7,5.7 8.7,4 C8.7,4 8.7,4 8.7,4 C8.7,2.3 7.3,0.9 5.6,0.9 Z"></path>
                    </g>
                </g>
            </g>
        </g>
    </g>
</svg>