<?xml version="1.0" encoding="UTF-8"?>
<svg width="95px" height="95px" viewBox="0 0 95 95" version="1.1" xmlns="http://www.w3.org/2000/svg" xmlns:xlink="http://www.w3.org/1999/xlink">
    <!-- Generator: Sketch 53.2 (72643) - https://sketchapp.com -->
    <title>goal_16_target_16_2</title>
    <desc>Created with Sketch.</desc>
    <g id="goal_16_target_16_2" stroke="none" stroke-width="1" fill="none" fill-rule="evenodd">
        <g id="Group-132" fill-rule="nonzero">
            <rect id="Rectangle" fill="#00689D" x="1.45661261e-12" y="-2.13162821e-14" width="94.8" height="94.8"></rect>
            <g id="Group" transform="translate(4.700000, 12.000000)" fill="#FFFFFF">
                <path d="M0.4,72.2 C0.4,72.2 26.4,57.2 27.7,56 C29.9,53.7 33.1,52.6 36.3,53.1 C40.7,53.8 43.3,54.2 45.5,54.5 C47.7,54.8 49.2,54.5 49.3,55.3 C49.5,56.3 48.3,57.3 46.5,57.5 C44.7,57.7 41.6,57.4 41,57.4 C40.4,57.4 39.9,57.6 40.1,58.1 C40.3,58.6 43.8,58.8 44.9,58.7 C47.4,58.5 49.7,57.8 52,56.8 C53.9,55.8 57.6,53.1 58.2,52.9 C58.8,52.7 60,52.1 60.4,52.7 C60.8,53.3 60,54.2 59.3,54.9 C56.2,57.8 52.8,60.4 49.1,62.6 C46,64.3 45.2,64.6 42,64.3 C38.8,64 36.2,62.9 34.5,63.2 C32.6,63.5 30.8,64.2 29.3,65.4 C28.6,65.9 15.5,78.1 15.5,78.1 L0.4,78.1 L0.4,72.2 Z" id="Path"></path>
                <g transform="translate(23.000000, 0.000000)" id="Path">
                    <path d="M25.6,4.3 C25.8,2.6 24.5,1.1 22.8,0.9 C22.7,0.9 22.7,0.9 22.6,0.9 C21.7,0.9 20.6,1.9 20,2.5 C19.4,2 18.4,1 17.5,1 C15.7,1 14.3,2.5 14.4,4.3 C14.4,4.3 14.4,4.4 14.4,4.4 C14.4,5.3 14.8,6.2 15.4,6.8 L20,11.4 L24.7,6.7 L24.7,6.7 C25.3,6.1 25.7,5.3 25.6,4.3"></path>
                    <g transform="translate(0.000000, 12.000000)">
                        <path d="M29.2,8.6 C31.5,8.6 33.4,6.7 33.4,4.4 C33.4,2.1 31.5,0.2 29.2,0.2 C26.9,0.2 25,2.1 25,4.4 C25,6.7 26.9,8.6 29.2,8.6 C29.2,8.6 29.2,8.6 29.2,8.6 Z"></path>
                        <path d="M39.4,20.9 C39.4,20.7 38.1,17.7 37.8,16.8 C35.3,10.3 34.8,10.3 32.5,10.2 L26,10.2 C23.7,10.3 23.3,10.2 20.7,16.8 C20.5,17.2 20.1,18.2 19.7,19.2 L17.7,13 C17.2,11.9 16.3,11.2 15.2,10.8 C14.5,10.7 13.9,10.7 13.2,10.7 L8,10.7 C8,10.7 6.7,10.7 6,10.8 C4.9,11 4,11.9 3.6,13 L0.5,22.2 C0.5,22.2 5.55111512e-17,23.7 1.4,24 C2.2,24.2 3,23.7 3.2,22.9 C3.2,22.9 3.2,22.9 3.2,22.9 L5.8,15 C5.8,15 5.9,14.5 6.3,14.6 C6.7,14.7 6.6,15.3 6.6,15.3 L6.4,16 L3.7,25.6 L3.6,26.1 L5.9,26.1 L5.9,33 C5.9,34.2 6.9,35.1 8,35.1 L8,35.1 C9.2,35.1 10.1,34.1 10.1,33 L10.1,26.3 C10.1,26.2 10.1,26.1 10.1,26.1 L11.4,26.1 C11.4,26.2 11.4,26.3 11.4,26.3 L11.4,33 C11.4,34.2 12.3,35.1 13.5,35.1 L13.5,35.1 L13.5,35.1 C14.7,35.1 15.6,34.2 15.7,33 C15.7,33 15.7,33 15.7,32.9 L15.7,26 L18,26 L17.9,25.5 L15,16 L14.8,15.3 C14.8,15.3 14.6,14.8 15.1,14.6 C15.6,14.4 15.6,15 15.6,15 L18.2,22.9 C18.5,23.5 19.1,24 19.8,24 C20.9,24 21.4,22.4 21.4,22.4 L24,16 C24,16 24.1,15.9 24.2,15.9 C24.3,15.9 24.3,16 24.3,16.1 L24.3,32.7 L24.3,32.7 C24.3,33.9 25.2,34.9 26.4,35 C26.4,35 26.4,35 26.5,35 C27.7,35 28.6,34 28.6,32.8 C28.6,32.8 28.6,32.7 28.6,32.7 L28.6,26.1 C28.6,26.1 28.5,25.1 29.3,25.1 C30.1,25.1 30,26.1 30,26.1 L30,32.7 C30,33.9 30.9,34.9 32.1,35 C32.1,35 32.1,35 32.2,35 C33.4,35 34.3,34 34.3,32.8 C34.3,32.8 34.3,32.7 34.3,32.7 L34.3,32.7 L34.3,16.2 C34.3,16 34.3,16 34.4,16 C34.5,16 34.6,16.2 34.6,16.2 L36.9,21.9 C36.9,21.9 37.6,23.4 38.9,22.8 C39.4,22.4 39.7,21.6 39.4,20.9 Z"></path>
                        <path d="M11.2,8.8 C13.6,8.8 15.5,6.9 15.5,4.6 C15.5,2.3 13.6,0.3 11.3,0.3 C9,0.1 7,2 7,4.4 C7,4.4 7,4.4 7,4.4 C7,6.8 8.9,8.7 11.2,8.8 Z"></path>
                    </g>
                </g>
            </g>
        </g>
    </g>
</svg>