<?xml version="1.0" encoding="UTF-8"?>
<svg width="95px" height="95px" viewBox="0 0 95 95" version="1.1" xmlns="http://www.w3.org/2000/svg" xmlns:xlink="http://www.w3.org/1999/xlink">
    <!-- Generator: Sketch 53.2 (72643) - https://sketchapp.com -->
    <title>goal_17_target_17_3</title>
    <desc>Created with Sketch.</desc>
    <g id="goal_17_target_17_3" stroke="none" stroke-width="1" fill="none" fill-rule="evenodd">
        <g id="Group-145" fill-rule="nonzero">
            <rect id="Rectangle" fill="#19486A" x="1.45661261e-12" y="-1.42108547e-14" width="94.8" height="94.9"></rect>
            <g id="Group" transform="translate(29.700000, 10.100000)" fill="#FFFFFF">
                <path d="M34.6,14.9 C34.6,14.4 34.2,14.1 33.7,14.1 C33.2,14.1 32.9,14.1 32.4,14.1 C31.9,14.1 31.5,14 31.4,13.5 C31.2,12.7 30.9,11.9 30.6,11.1 C30.4,10.7 30.5,10.2 30.9,9.9 C31.3,9.6 31.6,9.3 31.9,9 C32.2,8.7 32.3,8.3 32.1,7.9 C31.6,6.9 30.9,6.1 30.1,5.3 C29.8,4.9 29.3,4.9 28.9,5.2 C28.9,5.2 28.9,5.2 28.9,5.2 C28.5,5.5 28.2,5.6 27.9,5.9 C27.6,6.2 27.1,6.3 26.7,6 C26,5.5 25.1,4.8 24.6,4.5 C24.2,4.3 24,3.8 24.1,3.3 C24.2,2.8 24.3,2.4 24.4,2 C24.5,1.6 24.3,1.2 23.9,1 C22.9,0.6 21.9,0.2 20.9,0.1 C20.5,1.49880108e-15 20,0.3 19.9,0.7 C19.7,1.1 19.6,1.5 19.5,1.9 C19.4,2.3 19.1,2.7 18.6,2.7 C17.5,2.7 16.8,2.7 16.1,2.7 C15.6,2.8 15.1,2.5 15,2 C14.8,1.5 14.7,1.2 14.5,0.7 C14.4,0.3 13.9,0.1 13.5,0.2 C12.4,0.4 11.4,0.8 10.4,1.2 C10,1.4 9.8,1.9 10,2.3 C10.1,2.8 10.2,3.1 10.3,3.5 C10.4,3.9 10.5,4.4 10,4.7 C9.5,5 8.5,5.7 7.9,6.2 C7.6,6.5 7,6.6 6.6,6.3 C6.2,6 5.8,5.8 5.4,5.6 C5,5.4 4.6,5.4 4.3,5.7 C3.6,6.5 2.9,7.4 2.4,8.4 C2.2,8.8 2.3,9.3 2.7,9.5 C3.1,9.8 3.3,10 3.7,10.3 C4.1,10.6 4.4,10.9 4.2,11.4 C4,11.9 3.6,13.3 3.4,13.8 C3.3,14.3 2.9,14.6 2.4,14.6 C1.9,14.6 1.5,14.7 1,14.7 C0.6,14.7 0.2,15 0.2,15.5 C0.1,16.6 0.1,17.7 0.3,18.7 C0.3,19.2 0.7,19.5 1.2,19.5 C1.2,19.5 1.2,19.5 1.2,19.5 C1.7,19.5 2,19.5 2.5,19.5 C3,19.5 3.4,19.6 3.5,20.1 C3.7,20.9 4,21.7 4.3,22.5 C4.5,22.9 4.4,23.5 4,23.7 C3.6,24 3.3,24.3 2.9,24.6 C2.6,24.9 2.5,25.3 2.7,25.7 C3.2,26.6 3.9,27.5 4.7,28.3 C5,28.7 5.5,28.7 5.9,28.4 C5.9,28.4 5.9,28.4 5.9,28.4 C6.3,28.1 6.6,28 6.9,27.7 C7.2,27.4 7.7,27.3 8.1,27.6 C8.5,27.9 9.7,28.8 10.2,29.1 C10.6,29.3 10.8,29.8 10.7,30.3 C10.6,30.8 10.5,31.2 10.4,31.6 C10.3,32 10.5,32.4 10.9,32.6 C11.9,33.1 12.9,33.4 14,33.6 C14.4,33.7 14.9,33.4 15,33 C15,33 15,33 15,33 C15.2,32.6 15.3,32.2 15.4,31.8 C15.5,31.4 15.8,31 16.3,31 C17.3,31 18,31 18.9,31 C19.4,31 19.8,31.2 20,31.7 C20.2,32.2 20.3,32.5 20.5,33 C20.6,33.4 21.1,33.6 21.5,33.5 C22.6,33.3 23.6,33 24.6,32.5 C25,32.3 25.3,31.9 25.1,31.4 C25.1,31.4 25.1,31.4 25.1,31.3 C25,30.8 24.9,30.5 24.8,30.1 C24.7,29.7 24.6,29.2 25.1,28.9 C25.6,28.6 26.7,27.7 27.1,27.4 C27.4,27.1 28,27 28.4,27.3 C28.8,27.6 29.2,27.8 29.6,28 C30,28.3 30.5,28.2 30.8,27.9 C31.5,27.1 32.2,26.2 32.7,25.2 C32.9,24.8 32.8,24.3 32.5,24.1 C32.5,24.1 32.5,24.1 32.5,24.1 C32.1,23.8 31.9,23.6 31.5,23.3 C31.1,23 30.8,22.7 31,22.2 C31.2,21.7 31.6,20.4 31.8,19.8 C31.9,19.3 32.3,19 32.8,19 C33.3,19 33.7,18.9 34.2,18.9 C34.6,18.9 35,18.6 35,18.1 C34.8,17.1 34.8,16 34.6,14.9 Z M17.5,27.6 C11.6,27.6 6.9,22.8 6.9,16.9 C6.9,11 11.7,6.3 17.6,6.3 C23.5,6.3 28.2,11.1 28.2,17 C28.2,17 28.2,17 28.2,17 C28.2,22.9 23.4,27.6 17.5,27.6 Z" id="Shape"></path>
                <path d="M9.7,13.9 C9.9,14.1 10.1,13.9 10.2,13.8 C10.3,13.7 10.3,13.5 10.2,13.4 C10.1,13.3 10.3,13.2 10.5,13.1 C10.7,13 11,12.8 11.2,12.7 C11.7,12.6 12.2,12.6 12.6,12.7 C12.9,12.9 13.3,12.8 13.5,12.5 C13.7,12.3 13.9,12.1 14.2,11.9 C14.3,11.8 13.9,11.4 13.5,11.9 C13.1,12.4 12.9,12.4 12.7,12.4 C12.5,12.4 11.4,12.1 11.3,11.8 C11.2,11.5 11.6,11.2 12,11 C12.6,10.9 13.2,10.8 13.8,10.8 C14.4,10.7 15.1,10.4 15.5,10.6 C15.9,10.8 14,11.3 14.6,11.6 C14.8,11.7 15.8,11 16.2,10.9 C17,10.5 15.4,10.3 15.6,9.5 C15.8,8.7 13.8,8.9 12.6,9 C12.1,9.3 11.6,9.7 11.1,10.1 C11.2,10.1 11.4,10.2 11.4,10.3 C11.4,10.5 11.4,10.7 11.3,10.9 C11,11.2 10.7,11.3 10.3,11.4 C10.2,11.4 10.2,11.4 10.1,11.3 C9.9,11.5 9.8,11.7 9.6,12 C9.8,11.9 10,11.8 10.3,11.8 C10.5,11.8 10.8,11.9 10.9,12 C11,12.1 10.3,12.4 10.2,12.5 C9.9,12.8 9.4,13.4 9.1,13.5 C9,13.5 8.9,13.5 8.9,13.5 C8.8,13.7 8.7,13.9 8.7,14.1 C9,13.8 9.3,13.8 9.7,13.9 Z" id="Path"></path>
                <path d="M25.1,16.5 C24.8,16.7 24.5,16.8 24.1,16.9 C23.8,17 23.6,17.7 23.6,18 C23.6,18.3 24.5,19.3 23.9,19.3 C23.3,19 22.8,18.6 22.5,18 C22.3,17.5 22.1,17 21.9,16.6 C21.8,16.3 21.5,16.2 21.2,16.3 C21.1,16.3 21.1,16.4 21,16.4 C20.7,16.6 21.1,16.9 20.8,17.3 C20.5,17.7 20.4,18.2 20,17.8 C19.1,16.8 17.8,17.3 17.5,16.1 C17.4,15.5 16.8,15.5 16.4,15.2 C16,14.9 15.7,14.7 15.6,14.9 C15.5,15.1 17,16.3 17.1,16.6 C17.2,16.9 16.6,17.4 16.2,17.6 C15.8,17.8 15.6,17.4 15.1,16.9 C14.6,16.4 14.5,16.1 14.4,16.5 C14.4,17.1 14.7,17.7 15.3,18.1 C15.7,18.3 16.1,18.4 16,18.8 C15.9,19.2 16,19 15.6,19.4 C15.2,19.7 15,20.1 15.1,20.5 C15.1,21.1 15,21.1 14.9,21.6 C14.8,22.1 14.6,21.7 14.4,22.4 C14.3,22.8 14.1,23.3 13.8,23.6 C13.4,23.9 13,24.1 12.5,24.1 C12.1,24.1 12,22.9 12,22.3 C12,22.1 11.7,22.7 11.6,21.5 C11.5,20.7 11,21.6 11,21.1 C11,20.6 10.7,20.7 10.5,20.4 C10.3,20.1 9.9,20.4 9.5,20.6 C9.1,20.8 9.3,20.8 8.8,20.7 L8.8,20.7 C9.9,23.3 12.1,25.3 14.8,26.1 C14.7,26 14.6,25.8 14.7,25.6 C15.1,24.9 15.8,24.5 16.5,24.5 C18,24.4 20,25.5 20.3,25.3 C20.6,25.1 21.3,24.3 22.2,24.3 C22.5,24.3 22.8,24.4 23,24.5 C23.3,24.3 23.6,24 23.9,23.7 C23.8,23.7 23.7,23.6 23.6,23.6 C23.1,23.3 23.1,23.8 22.9,23.7 C22.7,23.6 23.2,23 22.4,23.5 C21.6,24 21.9,23.4 21.5,22.6 C21.3,21.8 21.7,20.9 22.5,20.6 C23.1,20.4 23.6,20.3 24.2,20.2 C25.3,19.9 25.6,19.3 25.8,19.7 C25.8,19.8 25.9,19.8 25.9,19.9 C26,20.1 26,20.3 26,20.5 C26.2,20 26.3,19.6 26.4,19.1 C26.1,19 25.1,17.6 25.9,16.6 C26,16.4 25.6,16 25.7,16 C26.1,16 26.4,16.2 26.5,16.6 C26.5,16.1 26.4,15.6 26.3,15.1 C26.3,15.2 26.3,15.3 26.3,15.4 C26.2,15.7 25.8,15.9 25.5,15.7 C25.4,15.6 25.3,15.6 25.2,15.4 C25.1,15.3 24.7,14.9 24.7,15.5 C24.7,16.1 25.7,16.1 25.1,16.5 Z M16.3,20.1 C16.2,20.3 15.8,21.9 15.6,21.7 C15.4,21.5 15.7,19.9 15.8,19.7 C16.1,19.1 16.9,19.2 16.3,20.1 Z M20.1,18.3 C19.8,18.4 19.5,18.4 19.2,18.2 C19,18 19.4,17.7 19.5,17.7 C19.8,17.7 20.3,18.1 20.1,18.3 Z M24,18 C23.9,17.8 24.1,17.6 24.3,17.7 C24.5,17.8 24.7,18 24.7,18.2 C24.7,18.4 24.3,18.3 24.2,18.3 C24.1,18.3 24.1,18.2 24,18 Z M25.3,19.2 C25,19.4 24.7,19.3 24.4,19.1 C24.2,18.9 24.6,18.6 24.7,18.6 C25,18.6 25.5,19 25.3,19.2 L25.3,19.2 Z" id="Shape"></path>
                <path d="M9.4,14.9 C9.9,15 10.4,15.1 10.9,15.3 C11.4,15.5 12.3,16 12.8,15.8 C13.3,15.6 13.4,15.5 13.4,15.1 C13.4,14.7 13.1,14.6 12.7,14.9 C12.6,15 12.3,14.3 12.1,14.4 C11.9,14.5 12.4,15.2 12.2,15.2 C12,15.2 11.6,14.4 11.6,14.3 C11.6,14.2 11.2,13.8 11,14.1 C10.5,14.6 9.5,14.6 9.4,14.7 C9.3,14.7 9.3,14.8 9.2,14.8 C8.8,15 8.7,14.6 8.7,14.3 C8.5,14.8 8.4,15.4 8.4,15.9 L8.4,15.8 C8.7,15.2 8.8,15.2 8.9,15.1 C9,15 9.1,15 9.3,14.9 L9.4,14.9 Z" id="Path"></path>
            </g>
            <g id="Group" transform="translate(13.700000, 49.100000)" fill="#FFFFFF">
                <g transform="translate(17.000000, 17.000000)">
                    <path d="M14.3,15.3 C13.8,15.6 13.3,15.8 12.8,16 C11.2,16.5 9.6,16.7 8,16.6 C7.2,16.6 6.4,16.5 5.6,16.4 C5.1,16.3 4.6,16.2 4.1,16.1 C3.9,16 3.6,16 3.4,15.9 C2.7,15.7 2.1,15.4 1.5,15 C1.3,14.8 1.1,14.7 1,14.4 L1,15 C1,15.2 1,15.9 1,15.9 C1,16.3 1.2,16.7 1.5,16.9 C2.6,17.7 3.9,18.2 5.2,18.3 C6.1,18.4 7,18.5 7.9,18.5 C9.2,18.5 10.5,18.4 11.8,18.1 L11.8,18.1 C12.5,17.9 13.2,17.7 13.8,17.3 L13.8,17.3 C14.5,16.9 14.8,16.4 14.8,15.9 C14.8,15.9 14.9,14.5 14.8,14.3 C14.9,14.8 14.6,15.1 14.3,15.3 Z" id="Path"></path>
                    <path d="M7.4,10.5 C11.3,10.5 14.4,9.3 14.4,7.9 C14.4,7.9 14.5,6.6 14.5,6.3 C14.5,6.1 14.5,5.9 14.4,5.7 C14.8,5.5 15.1,5 15.2,4.5 C15.2,4.5 15.3,3 15.2,2.7 C15,1 11.4,0 8.1,0 C4.8,0 1,1 1,2.9 C1,3 1.1,4.5 1.1,4.5 C1.1,4.6 1.1,4.7 1.2,4.8 C0.7,5.1 0.4,5.6 0.3,6.2 C0.3,6.3 0.4,7.8 0.4,7.8 C0.4,8.2 0.6,8.6 1,8.8 C2.1,9.6 3.4,10.1 4.7,10.2 C5.6,10.4 6.5,10.5 7.4,10.5 Z M8.2,0.8 C12,0.8 14.6,1.9 14.6,2.9 C14.6,3.9 11.9,5 8.2,5 C4.5,5 1.8,3.9 1.8,2.9 C1.8,1.9 4.4,0.8 8.2,0.8 Z M1.1,6.3 C1.2,6 1.4,5.7 1.6,5.5 C1.8,5.7 2.1,5.9 2.3,6 C4.1,6.8 6.1,7.2 8.1,7.2 C9.8,7.2 11.5,7 13.1,6.4 C13.3,6.3 13.5,6.2 13.7,6.1 C13.7,6.2 13.7,6.2 13.7,6.3 C13.7,7.3 11.1,8.4 7.3,8.4 C3.5,8.4 1.1,7.3 1.1,6.3 Z" id="Shape"></path>
                    <path d="M5.3,15.9 C6.2,16 7.1,16.1 8,16.1 C9.3,16.1 10.6,16 11.9,15.7 L11.9,15.7 C12.6,15.5 13.3,15.3 13.9,14.9 L13.9,14.9 C14.1,14.8 14.2,14.7 14.3,14.6 C14.5,14.4 14.7,14.2 14.8,13.9 C14.8,13.8 14.9,13.7 14.9,13.5 C14.9,13.5 14.9,12.1 14.9,11.9 C14.7,12.2 14.1,13.1 11.3,13.7 C10.1,13.9 8.9,14 7.7,14 C5.8,14 3.8,13.7 2.1,12.9 C1.8,12.7 1.5,12.5 1.2,12.3 C1,12.1 0.9,12 0.8,11.8 C0.8,11.8 0.8,12.5 0.8,12.5 L0.8,13.5 C0.8,13.9 1,14.3 1.3,14.5 C2.6,15.3 3.9,15.8 5.3,15.9 Z" id="Path"></path>
                    <path d="M15,8.8 C14.9,8.7 14.9,8.7 14.8,8.6 C14.7,8.5 14.6,8.5 14.5,8.4 C14.4,8.6 14.3,8.7 14.2,8.8 C14.3,8.8 14.4,8.9 14.5,9 C14.7,9.1 14.8,9.3 14.8,9.5 C14.8,9.7 14.7,9.9 14.6,10 C14.5,10.1 14.4,10.1 14.3,10.2 C14.2,10.3 14,10.4 13.9,10.4 C13.9,10.4 13.5,10.6 13.3,10.7 C13.3,10.7 12.9,10.9 12.7,10.9 L11.9,11.1 C11.9,11.1 11.2,11.2 10.8,11.3 L9.7,11.4 C9.6,11.4 8.5,11.5 8.1,11.5 C7.3,11.5 6.6,11.4 5.9,11.3 C5.4,11.2 4.8,11.1 4.3,11 C3.7,10.9 3.2,10.7 2.6,10.5 C2.3,10.4 2,10.2 1.7,9.9 C1.5,9.7 1.3,9.4 1.2,9.2 L1.2,10.1 L1.2,11 C1.2,11.4 1.4,11.8 1.8,12 C2.9,12.8 4.2,13.3 5.5,13.4 C6.4,13.5 7.3,13.6 8.2,13.6 C9.5,13.6 10.8,13.5 12.1,13.2 L12.1,13.2 C12.8,13 13.5,12.8 14.1,12.4 L14.1,12.4 C14.3,12.3 14.4,12.2 14.5,12.1 C14.7,11.9 14.9,11.7 15,11.4 C15,11.3 15.1,11.2 15.1,11 C15.1,11 15.2,9.5 15.2,9.5 C15.2,9.4 15.2,9.3 15.1,9.1 C15.1,9 15,8.9 15,8.8 Z" id="Path"></path>
                </g>
                <g transform="translate(0.000000, 22.000000)">
                    <path d="M7.2,10.6 C11.1,10.6 14.2,9.4 14.2,8 C14.2,8 14.3,6.7 14.3,6.4 C14.3,6.2 14.3,6 14.2,5.8 C14.6,5.6 14.9,5.1 15,4.6 C15,4.6 15.1,3.1 15,2.8 C14.9,1 11.3,0.1 8,0.1 C4.7,0.1 0.9,1.1 0.9,3 C0.9,3.1 1,4.6 1,4.6 C1,4.7 1,4.8 1.1,4.9 C0.6,5.2 0.3,5.7 0.2,6.3 C0.2,6.4 0.3,7.9 0.3,7.9 C0.3,8.3 0.5,8.7 0.8,8.9 C1.9,9.7 3.2,10.2 4.5,10.3 C5.4,10.5 6.3,10.6 7.2,10.6 Z M8,0.8 C11.8,0.8 14.4,1.9 14.4,2.9 C14.4,3.9 11.8,5 8,5 C4.2,5 1.6,4 1.6,3 C1.6,2 4.2,0.8 8,0.8 Z M0.9,6.3 C1,6 1.2,5.7 1.4,5.5 C1.6,5.7 1.9,5.9 2.1,6 C3.9,6.8 5.9,7.2 7.9,7.1 C9.6,7.1 11.3,6.9 12.9,6.3 C13.1,6.2 13.3,6.1 13.5,6 C13.5,6.1 13.5,6.1 13.5,6.2 C13.5,7.2 10.9,8.3 7.1,8.3 C3.3,8.3 0.9,7.3 0.9,6.3 L0.9,6.3 Z" id="Shape"></path>
                    <path d="M14.8,8.9 C14.7,8.8 14.7,8.8 14.6,8.7 C14.5,8.6 14.4,8.6 14.3,8.5 C14.2,8.7 14.1,8.8 14,9 C14.1,9 14.2,9.1 14.3,9.2 C14.5,9.3 14.6,9.5 14.6,9.7 C14.6,9.9 14.5,10.1 14.4,10.2 C14.3,10.3 14.2,10.3 14.1,10.4 L13.7,10.6 L13.1,10.9 C13.1,10.9 12.7,11.1 12.5,11.1 C12.3,11.1 11.9,11.3 11.7,11.3 C11.6,11.3 10.9,11.4 10.6,11.5 C10.5,11.5 9.8,11.6 9.5,11.6 C9.4,11.6 8.3,11.7 7.9,11.7 C7.1,11.7 6.4,11.6 5.7,11.5 C5.2,11.4 4.6,11.3 4.1,11.2 C3.5,11.1 3,10.9 2.4,10.7 C2.1,10.6 1.8,10.4 1.5,10.1 C1.3,9.9 1.1,9.6 1,9.4 C1,9.4 1,10.3 1,10.3 L1,11.1 C1,11.5 1.2,11.9 1.6,12.1 C2.7,12.9 4,13.4 5.3,13.5 C6.2,13.6 7.1,13.7 8,13.7 C9.3,13.7 10.7,13.6 11.9,13.3 L11.9,13.3 C12.6,13.1 13.3,12.9 13.9,12.5 L13.9,12.5 C14.1,12.4 14.2,12.3 14.3,12.2 C14.5,12 14.7,11.8 14.8,11.5 C14.9,11.4 15,11.2 15,11.1 C15,11.1 15.1,9.6 15.1,9.6 C15.1,9.5 15.1,9.4 15.1,9.2 C15,9 14.9,8.9 14.8,8.9 Z" id="Path"></path>
                </g>
                <path d="M7.5,0.6 L12.6,7.1 C12.7,7.2 12.7,7.3 12.7,7.4 C12.7,7.6 12.6,7.6 12.4,7.6 L9.8,7.6 L9.8,15.9 C9.8,16 9.7,16.1 9.6,16.1 C9.6,16.1 9.6,16.1 9.6,16.1 L5,16.1 C4.9,16.1 4.7,16 4.7,15.9 C4.7,15.9 4.7,15.9 4.7,15.9 L4.7,7.6 L2.1,7.6 C1.9,7.6 1.8,7.6 1.8,7.4 C1.8,7.3 1.8,7.2 1.9,7.1 L6.8,0.6 C6.9,0.5 7,0.4 7.2,0.4 C7.3,0.4 7.4,0.5 7.5,0.6 Z" id="Path"></path>
                <path d="M24.8,0.5 L30,7 C30.1,7.1 30.1,7.2 30.1,7.3 C30.1,7.5 30,7.5 29.8,7.5 L27.2,7.5 L27.2,11 C27.2,11.1 27.1,11.2 26.9,11.2 L22.4,11.2 C22.3,11.2 22.1,11.1 22.1,11 L22.1,7.6 L19.5,7.6 C19.3,7.6 19.2,7.6 19.2,7.4 C19.2,7.3 19.2,7.2 19.3,7.1 L24.3,0.6 C24.4,0.4 24.6,0.4 24.8,0.5 C24.8,0.5 24.8,0.5 24.8,0.5 L24.8,0.5 Z" id="Path"></path>
                <g transform="translate(52.000000, 17.000000)">
                    <path d="M14.7,15.3 C14.2,15.6 13.7,15.8 13.1,16 C11.5,16.5 9.9,16.7 8.3,16.6 C7.5,16.6 6.7,16.5 5.9,16.4 C5.4,16.3 5,16.2 4.5,16.1 L3.8,15.9 C3.1,15.7 2.5,15.4 1.9,15 C1.7,14.8 1.5,14.7 1.4,14.4 L1.4,15 C1.4,15.2 1.4,15.9 1.4,15.9 C1.4,16.3 1.6,16.7 2,16.9 C3.1,17.7 4.4,18.2 5.8,18.3 C6.7,18.4 7.6,18.5 8.5,18.5 C9.8,18.5 11.1,18.4 12.4,18.1 L12.4,18.1 C13.1,17.9 13.8,17.7 14.4,17.3 L14.4,17.3 C15.1,16.9 15.4,16.4 15.4,15.9 C15.4,15.9 15.5,14.5 15.4,14.3 C15.2,14.8 15,15.1 14.7,15.3 Z" id="Path"></path>
                    <path d="M7.8,10.5 C11.7,10.5 14.8,9.3 14.8,7.9 C14.8,7.9 14.9,6.6 14.9,6.3 C14.9,6.1 14.8,5.9 14.8,5.7 C15.2,5.5 15.5,5 15.6,4.5 C15.6,4.5 15.7,3 15.6,2.7 C15.3,1 11.8,0 8.4,0 C5,0 1.3,1 1.3,2.9 C1.3,3 1.4,4.5 1.4,4.5 C1.4,4.6 1.4,4.7 1.5,4.8 C1,5.1 0.7,5.6 0.6,6.2 C0.6,6.3 0.7,7.8 0.7,7.8 C0.7,8.2 0.9,8.6 1.3,8.8 C2.4,9.6 3.7,10.1 5.1,10.2 C5.9,10.4 6.8,10.5 7.8,10.5 Z M8.5,0.8 C12.3,0.8 14.9,1.9 14.9,2.9 C14.9,3.9 12.3,5 8.5,5 C4.7,5 2.1,3.9 2.1,2.9 C2.1,1.9 4.8,0.8 8.5,0.8 Z M1.4,6.3 C1.5,6 1.7,5.7 2,5.5 C2.2,5.7 2.4,5.9 2.7,6 C4.5,6.8 6.5,7.2 8.5,7.2 C10.2,7.2 11.9,7 13.5,6.4 C13.7,6.3 13.9,6.2 14.1,6.1 C14.1,6.2 14.1,6.2 14.1,6.3 C14.1,7.3 11.5,8.4 7.7,8.4 C3.9,8.4 1.4,7.3 1.4,6.3 Z" id="Shape"></path>
                    <path d="M5.7,15.9 C6.6,16 7.5,16.1 8.4,16.1 C9.7,16.1 11,16 12.3,15.7 L12.3,15.7 C13,15.5 13.7,15.3 14.3,14.9 L14.3,14.9 C14.5,14.8 14.6,14.7 14.7,14.6 C14.9,14.4 15.1,14.2 15.2,13.9 C15.2,13.8 15.3,13.7 15.3,13.5 C15.3,13.5 15.3,12.1 15.3,11.9 C15.1,12.2 14.5,13.1 11.7,13.7 C10.5,13.9 9.3,14 8.1,14 C6.2,14 4.2,13.7 2.5,12.9 C2.2,12.7 1.9,12.5 1.6,12.3 C1.4,12.1 1.3,12 1.2,11.8 C1.2,11.8 1.2,12.5 1.2,12.5 L1.2,13.5 C1.2,13.9 1.4,14.3 1.8,14.5 C3,15.3 4.3,15.8 5.7,15.9 Z" id="Path"></path>
                    <path d="M15.4,8.8 C15.3,8.7 15.3,8.7 15.2,8.6 C15.1,8.5 15,8.5 14.9,8.4 C14.8,8.6 14.7,8.7 14.6,8.8 C14.7,8.8 14.8,8.9 14.9,9 C15.1,9.1 15.2,9.3 15.2,9.5 C15.2,9.7 15.1,9.9 15,10 C14.9,10.1 14.8,10.1 14.7,10.2 C14.6,10.3 14.4,10.4 14.3,10.4 L13.7,10.7 C13.7,10.7 13.3,10.9 13.1,10.9 L12.3,11.1 C12.2,11.1 11.6,11.2 11.2,11.3 L10.1,11.4 C10,11.4 8.9,11.5 8.5,11.5 C7.8,11.5 7,11.4 6.3,11.3 C5.8,11.2 5.2,11.1 4.7,11 C4.1,10.9 3.6,10.7 3,10.5 C2.7,10.4 2.4,10.2 2.1,9.9 C1.9,9.7 1.7,9.4 1.5,9.2 L1.5,10.1 L1.5,11 C1.5,11.4 1.7,11.8 2.1,12 C3.2,12.8 4.5,13.3 5.8,13.4 C6.7,13.5 7.6,13.6 8.5,13.6 C9.8,13.6 11.1,13.5 12.4,13.2 L12.4,13.2 C13.1,13 13.8,12.8 14.4,12.4 L14.4,12.4 C14.6,12.3 14.8,12.2 15,12.1 C15.2,11.9 15.4,11.7 15.5,11.4 C15.5,11.3 15.6,11.2 15.6,11 C15.6,11 15.7,9.5 15.7,9.5 C15.7,9.4 15.7,9.3 15.6,9.1 C15.5,9 15.5,8.9 15.4,8.8 Z" id="Path"></path>
                </g>
                <g transform="translate(35.000000, 22.000000)">
                    <path d="M7.6,10.6 C11.5,10.6 14.6,9.4 14.6,8 C14.6,8 14.7,6.7 14.7,6.4 C14.7,6.2 14.7,6 14.6,5.8 C15,5.6 15.3,5.1 15.4,4.6 C15.4,4.6 15.5,3.1 15.4,2.8 C15.2,1 11.7,0.1 8.3,0.1 C4.9,0.1 1.2,1.1 1.2,3 C1.2,3.1 1.3,4.6 1.3,4.6 C1.3,4.7 1.3,4.8 1.4,4.9 C0.9,5.2 0.5,5.7 0.5,6.3 C0.5,6.4 0.6,7.9 0.6,7.9 C0.6,8.3 0.8,8.7 1.1,8.9 C2.2,9.7 3.5,10.2 4.9,10.3 C5.7,10.5 6.6,10.6 7.6,10.6 Z M8.3,0.8 C12.1,0.8 14.7,1.9 14.7,2.9 C14.7,3.9 12.1,5 8.3,5 C4.5,5 1.9,4 1.9,3 C1.9,2 4.5,0.8 8.3,0.8 Z M1.2,6.3 C1.3,6 1.5,5.7 1.7,5.5 C1.9,5.7 2.2,5.9 2.4,6 C4.2,6.8 6.2,7.2 8.2,7.2 C9.9,7.2 11.6,7 13.2,6.4 C13.4,6.3 13.6,6.2 13.8,6.1 C13.8,6.2 13.8,6.2 13.8,6.3 C13.8,7.3 11.2,8.4 7.4,8.4 C3.6,8.4 1.2,7.3 1.2,6.3 Z" id="Shape"></path>
                    <path d="M15.2,8.9 L15,8.7 C14.9,8.6 14.8,8.6 14.7,8.5 C14.6,8.7 14.5,8.8 14.4,8.9 C14.5,8.9 14.6,9 14.7,9.1 C14.9,9.2 15,9.4 15,9.6 C15,9.8 14.9,10 14.7,10.1 C14.6,10.2 14.5,10.2 14.4,10.3 L14,10.5 L13.4,10.8 C13.4,10.8 13,11 12.8,11 C12.6,11 12.2,11.2 12,11.2 C12,11.2 11.3,11.3 10.9,11.4 C10.8,11.4 10.1,11.5 9.8,11.5 C9.7,11.5 8.6,11.6 8.2,11.6 C7.5,11.6 6.7,11.5 6,11.4 C5.5,11.3 4.9,11.2 4.4,11.1 C3.8,11 3.3,10.8 2.7,10.6 C2.1,10.3 1.6,9.9 1.3,9.3 C1.3,9.3 1.3,10.2 1.3,10.2 L1.3,11 C1.3,11.4 1.5,11.8 1.8,12 C2.9,12.8 4.2,13.3 5.6,13.4 C6.5,13.5 7.4,13.6 8.3,13.6 C9.6,13.6 11,13.5 12.2,13.2 L12.3,13.2 C13,13 13.7,12.8 14.3,12.4 L14.3,12.4 C14.5,12.3 14.6,12.2 14.7,12.1 C14.9,11.9 15.1,11.7 15.2,11.4 C15.2,11.3 15.3,11.2 15.3,11 C15.3,11 15.4,9.5 15.4,9.5 C15.4,9.4 15.4,9.3 15.3,9.1 C15.3,9 15.2,8.9 15.2,8.9 Z" id="Path"></path>
                </g>
                <path d="M42.8,0.6 L48,7.1 C48.1,7.2 48.1,7.3 48.1,7.4 C48.1,7.6 48,7.6 47.8,7.6 L45.2,7.6 L45.2,15.9 C45.2,16 45.1,16.1 44.9,16.1 C44.9,16.1 44.9,16.1 44.9,16.1 L40.4,16.1 C40.3,16.1 40.1,16 40.1,15.9 C40.1,15.9 40.1,15.9 40.1,15.9 L40.1,7.6 L37.5,7.6 C37.3,7.6 37.2,7.6 37.2,7.4 C37.2,7.3 37.2,7.2 37.3,7.1 L42.2,0.6 C42.3,0.5 42.4,0.4 42.5,0.4 C42.7,0.4 42.8,0.5 42.8,0.6 Z" id="Path"></path>
                <path d="M60.2,0.5 L65.3,7 C65.4,7.1 65.4,7.2 65.4,7.3 C65.4,7.5 65.3,7.5 65.1,7.5 L62.5,7.5 L62.5,11 C62.5,11.1 62.4,11.2 62.2,11.2 L57.7,11.2 C57.6,11.2 57.4,11.1 57.4,11 L57.4,7.6 L54.8,7.6 C54.6,7.6 54.5,7.6 54.5,7.4 C54.5,7.3 54.5,7.2 54.6,7.1 L59.5,0.6 C59.6,0.5 59.7,0.4 59.8,0.4 C60,0.4 60.1,0.5 60.2,0.5 Z" id="Path"></path>
            </g>
        </g>
    </g>
</svg>