<?xml version="1.0" encoding="UTF-8"?>
<svg width="95px" height="95px" viewBox="0 0 95 95" version="1.1" xmlns="http://www.w3.org/2000/svg" xmlns:xlink="http://www.w3.org/1999/xlink">
    <!-- Generator: Sketch 53.2 (72643) - https://sketchapp.com -->
    <title>goal_7_target_7_a</title>
    <desc>Created with Sketch.</desc>
    <g id="goal_7_target_7_a" stroke="none" stroke-width="1" fill="none" fill-rule="evenodd">
        <g id="Group-51">
            <rect id="Rectangle" fill="#FCC30B" fill-rule="nonzero" x="-3.62376795e-13" y="-2.13162821e-14" width="94.8" height="94.8"></rect>
            <g id="Group" transform="translate(3.700000, 4.000000)">
                <path d="M8.4,78.6 L0.3,78.6 L0.3,76.6 L8.4,76.6 C9,76.7 9.7,76.4 10.1,76 C10.5,75.6 10.7,75.1 10.7,74.5 L10.7,71.7 L12.7,71.7 L12.7,74.5 C12.7,75.6 12.3,76.6 11.6,77.4 C10.8,78.2 9.6,78.7 8.4,78.6 Z" id="Path" fill="#FFFFFF" fill-rule="nonzero"></path>
                <path d="M11.7,66.2 C10.6,66.2 9.8,67.1 9.8,68.1 C9.8,69.2 10.7,70 11.7,70 C12.8,70 13.6,69.1 13.6,68.1 C13.6,68.1 13.6,68.1 13.6,68.1 C13.7,67.1 12.8,66.2 11.7,66.2 C11.7,66.2 11.7,66.2 11.7,66.2 Z" id="Path"></path>
                <path d="M28,10.9 C29.1,10.9 29.9,10.1 29.9,9 C29.9,7.9 29.1,7.1 28,7.1 C26.9,7.1 26.1,7.9 26.1,9 C26.1,10.1 26.9,10.9 28,10.9 C28,10.9 28,10.9 28,10.9 Z" id="Path"></path>
                <circle id="Oval" cx="77.8" cy="19.3" r="1.9"></circle>
                <path d="M68.3,73.5 C68.3,74.6 69.2,75.4 70.2,75.4 C71.2,75.4 72.1,74.5 72.1,73.5 C72.1,72.4 71.2,71.6 70.2,71.6 C70.2,71.6 70.2,71.6 70.2,71.6 C69.1,71.6 68.3,72.4 68.3,73.5 C68.3,73.5 68.3,73.5 68.3,73.5 Z" id="Path"></path>
                <path d="M43.8,40.5 C44.2,40.5 44.6,40.2 44.6,39.7 L44.6,35.8 C44.6,35.4 44.2,35 43.8,35 C43.4,35 43,35.3 43,35.8 L43,39.7 C43,40.1 43.3,40.5 43.8,40.5 Z" id="Path"></path>
                <path d="M45.5,37 L45.5,39.2 C47.4,40.2 48.1,42.5 47.2,44.3 C46.3,46.1 43.9,46.9 42,46 C40.1,45.1 39.4,42.7 40.3,40.9 C40.7,40.2 41.3,39.6 42,39.2 L42,37 C38.9,38 37.2,41.2 38.2,44.3 C39.2,47.4 42.4,49.1 45.5,48.1 C48.6,47.1 50.3,43.9 49.3,40.8 C48.7,39 47.3,37.6 45.5,37 Z" id="Path"></path>
                <path d="M43.8,31.4 C37.6,31.4 32.6,36.4 32.6,42.6 C32.6,48.8 37.6,53.8 43.8,53.8 C50,53.8 55,48.8 55,42.6 C55,36.4 50,31.4 43.8,31.4 C43.8,31.4 43.8,31.4 43.8,31.4 Z M42.9,35.8 C42.9,35.4 43.3,35 43.7,35 C44.1,35 44.5,35.3 44.5,35.8 L44.5,39.7 C44.5,40.1 44.1,40.5 43.7,40.5 C43.3,40.5 42.9,40.2 42.9,39.7 L42.9,35.8 Z M43.8,48.4 C40.6,48.4 38,45.7 38,42.5 C38,40 39.6,37.8 42,37 L42,39.2 C40.1,40.2 39.4,42.4 40.3,44.3 C41.3,46.2 43.5,46.9 45.4,46 C47.3,45.1 48,42.8 47.1,40.9 C46.7,40.2 46.2,39.6 45.4,39.2 L45.4,37 C48.5,38 50.2,41.2 49.2,44.3 C48.6,46.7 46.3,48.4 43.8,48.4 L43.8,48.4 Z" id="Shape" fill="#FFFFFF" fill-rule="nonzero"></path>
                <path d="M24.3,42.5 C24.3,43 24.7,43.4 25.2,43.4 L30,43.4 C30.5,43.4 30.9,43 30.9,42.5 C30.9,42 30.5,41.6 30,41.6 L25.1,41.6 C24.7,41.6 24.3,42 24.3,42.5 Z" id="Path" fill="#FFFFFF" fill-rule="nonzero"></path>
                <path d="M63.3,42.5 C63.3,42 62.9,41.6 62.4,41.6 L57.5,41.6 C57,41.6 56.6,42 56.6,42.5 C56.6,43 57,43.4 57.5,43.4 L62.4,43.4 C62.9,43.4 63.3,43 63.3,42.5 Z" id="Path" fill="#FFFFFF" fill-rule="nonzero"></path>
                <path d="M44.7,28.8 L44.7,23.9 C44.6,23.4 44.2,23 43.7,23.1 C43.3,23.1 42.9,23.5 42.9,23.9 L42.9,28.8 C43,29.3 43.4,29.7 43.9,29.6 C44.3,29.6 44.7,29.2 44.7,28.8 Z" id="Path" fill="#FFFFFF" fill-rule="nonzero"></path>
                <path d="M42.8,56.3 L42.8,61.2 C42.9,61.7 43.3,62.1 43.8,62 C44.2,62 44.6,61.6 44.6,61.2 L44.6,56.3 C44.5,55.8 44.1,55.4 43.6,55.5 C43.2,55.5 42.9,55.8 42.8,56.3 Z" id="Path" fill="#FFFFFF" fill-rule="nonzero"></path>
                <path d="M31.4,36.5 C31.8,36.7 32.4,36.5 32.6,36.1 C32.8,35.7 32.7,35.2 32.3,34.9 L28,32.5 C27.6,32.3 27,32.4 26.8,32.9 C26.6,33.3 26.7,33.8 27.1,34.1 L31.4,36.5 Z" id="Path" fill="#FFFFFF" fill-rule="nonzero"></path>
                <path d="M55.2,50.1 L59.5,52.5 C59.9,52.8 60.5,52.6 60.8,52.2 C61.1,51.8 60.9,51.2 60.5,50.9 L56.2,48.5 C55.8,48.2 55.2,48.4 54.9,48.8 C54.6,49.3 54.8,49.9 55.2,50.1 Z" id="Path" fill="#FFFFFF" fill-rule="nonzero"></path>
                <path d="M50.2,31.4 C50.6,31.6 51.1,31.5 51.4,31.1 L53.8,26.8 C54,26.4 53.8,25.8 53.4,25.6 C53,25.4 52.5,25.5 52.2,25.9 L49.8,30.2 C49.6,30.6 49.7,31.1 50.2,31.4 Z" id="Path" fill="#FFFFFF" fill-rule="nonzero"></path>
                <path d="M36.2,54 L33.8,58.3 C33.6,58.7 33.8,59.3 34.2,59.5 C34.6,59.7 35.1,59.6 35.4,59.2 L37.8,54.9 C38,54.5 37.9,53.9 37.4,53.7 C37,53.5 36.4,53.6 36.2,54 Z" id="Path" fill="#FFFFFF" fill-rule="nonzero"></path>
                <path d="M37.4,31.4 C37.8,31.2 38,30.6 37.8,30.2 L35.4,26 C35.1,25.6 34.6,25.4 34.1,25.7 C33.6,26 33.5,26.5 33.8,27 L36.2,31.2 C36.4,31.5 36.9,31.6 37.4,31.4 Z" id="Path" fill="#FFFFFF" fill-rule="nonzero"></path>
                <path d="M50.2,53.7 C49.8,54 49.6,54.5 49.8,54.9 L52.3,59.1 C52.6,59.5 53.1,59.6 53.6,59.4 C54,59.1 54.1,58.6 53.9,58.2 L51.4,54 C51.1,53.6 50.6,53.5 50.2,53.7 Z" id="Path" fill="#FFFFFF" fill-rule="nonzero"></path>
                <path d="M56.1,36.5 L60.4,34 C60.8,33.7 60.9,33.2 60.7,32.7 C60.4,32.3 59.9,32.2 59.5,32.4 L55.3,34.8 C54.9,35.1 54.7,35.6 55,36.1 C55.1,36.5 55.7,36.7 56.1,36.5 L56.1,36.5 L56.1,36.5 Z" id="Path" fill="#FFFFFF" fill-rule="nonzero"></path>
                <path d="M28.1,52.6 L32.3,50.2 C32.7,49.9 32.9,49.4 32.6,48.9 C32.3,48.5 31.8,48.3 31.3,48.6 L31.3,48.6 L27.2,51 C26.8,51.3 26.7,51.8 26.9,52.3 C27.2,52.7 27.7,52.8 28.1,52.6 L28.1,52.6 Z" id="Path" fill="#FFFFFF" fill-rule="nonzero"></path>
                <path d="M69.7,20.3 L74,20.3 C74.6,22.4 76.7,23.6 78.8,23.1 C80.2,22.7 81.2,21.7 81.6,20.3 L86.9,20.3 L86.9,18.3 L81.5,18.3 C81.1,16.9 80.1,15.9 78.7,15.5 C78.7,14.9 78.7,13.7 78.7,13.5 C78.7,12.6 78.7,10.9 79.6,10 C80.1,9.5 80.8,9.3 81.5,9.3 L86.8,9.3 L86.8,7.3 L81.5,7.3 C80.3,7.2 79,7.7 78.1,8.5 C76.6,10 76.6,12.2 76.6,13.4 L76.6,15.4 C75.3,15.8 74.2,16.8 73.8,18.2 L69.5,18.2 C66.5,18.2 64,15.8 64,12.7 L64,0 L62,0 L62,12.9 C62.3,17 65.6,20.3 69.7,20.3 Z M77.7,17.4 C78.8,17.4 79.6,18.3 79.6,19.3 C79.6,20.4 78.7,21.2 77.7,21.2 C76.7,21.2 75.8,20.3 75.8,19.3 L75.8,19.3 C75.8,18.3 76.7,17.4 77.7,17.4 C77.7,17.4 77.7,17.4 77.7,17.4 L77.7,17.4 Z" id="Shape" fill="#FFFFFF" fill-rule="nonzero"></path>
                <path d="M0.4,9.6 L0.4,9.6 L5.5,13.5 L5.5,13.5 L5.5,13.5 C5.5,13.5 5.6,13.6 5.7,13.6 C5.8,13.6 5.9,13.5 5.9,13.4 L5.9,13.4 L5.9,13.4 L5.9,10.2 L24.3,10.1 C24.7,11.4 25.7,12.4 27.1,12.8 L27.2,12.8 L27.2,12.4 L29.2,12.4 L29.2,12.7 C30.5,12.3 31.5,11.3 31.8,10 L39.4,10 C40.3,10 41.2,10.4 41.9,11 C42.5,11.7 42.8,12.6 42.8,13.5 L42.8,20.7 L44.8,20.7 L44.8,13.5 C44.9,12 44.3,10.6 43.3,9.5 C42.2,8.5 40.8,8 39.3,8 L31.8,8 C31.5,6.7 30.4,5.6 29.1,5.2 L29.1,-3.55271368e-15 L27.1,-3.55271368e-15 L27.1,5.2 C25.6,5.5 24.5,6.7 24.2,8.1 L6,8.1 L6,5.3 C6,5.2 5.9,5.1 5.8,5.1 C5.8,5.1 5.8,5.1 5.8,5.1 C5.8,5.1 5.7,5.1 5.7,5.1 L5.7,5.1 L0.5,9.1 L0.5,9.1 C0.4,9.2 0.4,9.2 0.4,9.3 C0.3,9.5 0.3,9.5 0.4,9.6 L0.4,9.6 Z M28,7.1 C29.1,7.1 29.9,7.9 29.9,9 C29.9,10.1 29.1,10.9 28,10.9 C26.9,10.9 26.1,10.1 26.1,9 C26.1,9 26.1,9 26.1,9 C26.1,8 27,7.1 28,7.1 Z" id="Shape" fill="#FFFFFF" fill-rule="nonzero"></path>
                <rect id="Rectangle" fill="#FFFFFF" fill-rule="nonzero" x="10.7" y="52.3" width="2" height="2"></rect>
                <rect id="Rectangle" fill="#FFFFFF" fill-rule="nonzero" x="10.7" y="60.3" width="2" height="2"></rect>
                <rect id="Rectangle" fill="#FFFFFF" fill-rule="nonzero" x="10.7" y="48.3" width="2" height="2"></rect>
                <rect id="Rectangle" fill="#FFFFFF" fill-rule="nonzero" x="10.7" y="56.3" width="2" height="2"></rect>
                <path d="M87.1,56.4 L87.1,56.4 L87.1,56.4 L82,52.4 L82,52.4 L82,52.4 C82,52.4 81.9,52.3 81.8,52.3 C81.7,52.3 81.6,52.4 81.6,52.5 L81.6,52.5 L81.6,52.5 L81.6,55.7 L74.7,55.7 C73.3,55.6 71.9,56 70.8,57 C69.7,58.1 69.1,59.6 69.2,61.2 L69.2,69.7 C67.8,70.1 66.8,71.1 66.4,72.5 L48.2,72.5 C46.4,72.5 44.9,71.1 44.8,69.3 L44.8,64.1 L42.8,64.1 L42.8,69.3 C42.9,72.2 45.3,74.5 48.2,74.5 L66.5,74.5 C66.9,75.9 67.9,76.9 69.3,77.3 L69.3,86.8 L71.3,86.8 L71.3,77.3 C72.7,76.9 73.7,75.9 74.1,74.5 L87,74.5 L87,72.5 L74,72.5 C73.6,71.1 72.6,70.1 71.2,69.7 L71.2,61.2 C71.1,60.2 71.5,59.2 72.1,58.5 C72.8,57.9 73.7,57.7 74.6,57.7 L81.5,57.7 L81.5,60.5 C81.5,60.6 81.6,60.7 81.7,60.7 C81.7,60.7 81.7,60.7 81.7,60.7 C81.7,60.7 81.8,60.7 81.9,60.7 L81.9,60.7 L87,56.7 L87,56.7 C87.1,56.6 87.1,56.6 87.1,56.5 C87.1,56.5 87.1,56.4 87.1,56.4 Z M72.1,73.5 C72.1,74.6 71.2,75.4 70.2,75.4 C69.1,75.4 68.3,74.5 68.3,73.5 C68.3,72.4 69.2,71.6 70.2,71.6 L70.2,71.6 C71.3,71.6 72.1,72.4 72.1,73.5 C72.1,73.5 72.1,73.5 72.1,73.5 L72.1,73.5 Z" id="Shape" fill="#FFFFFF" fill-rule="nonzero"></path>
                <path d="M37.7,81 L34.8,81 L34.8,71.4 C34.8,68.9 32.8,66.8 30.2,66.8 L15.4,66.8 C15,65.6 14,64.6 12.7,64.3 C12,64.1 11.4,64.1 10.7,64.3 C9.5,64.6 8.5,65.6 8,66.8 L0.3,66.8 L0.3,68.8 L7.9,68.8 C8.2,70.3 9.3,71.5 10.7,71.9 C11.4,72.1 12,72.1 12.7,71.9 C14.2,71.5 15.3,70.3 15.6,68.8 L30.2,68.8 C31.6,68.8 32.8,70 32.8,71.4 L32.8,81 L29.7,81 C29.6,81 29.5,81.1 29.5,81.3 C29.5,81.3 29.5,81.4 29.5,81.4 L29.5,81.4 L33.5,86.5 L33.5,86.5 C33.6,86.5 33.6,86.6 33.7,86.6 C33.8,86.6 33.8,86.6 33.9,86.6 L33.9,86.6 L33.9,86.6 L37.7,81.5 L37.7,81.5 L37.7,81.5 C37.7,81.5 37.8,81.4 37.8,81.3 C37.8,81.2 37.8,81.1 37.7,81 Z M11.7,70 C10.6,70 9.8,69.1 9.8,68.1 C9.8,67.1 10.7,66.2 11.7,66.2 C12.7,66.2 13.6,67.1 13.6,68.1 L13.6,68.1 C13.7,69.1 12.8,70 11.7,70 C11.8,70 11.7,70 11.7,70 L11.7,70 Z" id="Shape" fill="#FFFFFF" fill-rule="nonzero"></path>
                <rect id="Rectangle" fill="#FFFFFF" fill-rule="nonzero" transform="translate(77.654363, 33.101788) rotate(-89.720005) translate(-77.654363, -33.101788) " x="76.7043518" y="32.1017765" width="1.90002269" height="2.00002388"></rect>
                <rect id="Rectangle" fill="#FFFFFF" fill-rule="nonzero" transform="translate(77.722763, 29.353807) rotate(-89.720005) translate(-77.722763, -29.353807) " x="76.7727518" y="28.353795" width="1.90002269" height="2.00002388"></rect>
                <rect id="Rectangle" fill="#FFFFFF" fill-rule="nonzero" transform="translate(77.691063, 25.625337) rotate(-89.720005) translate(-77.691063, -25.625337) " x="76.7410518" y="24.6253249" width="1.90002269" height="2.00002388"></rect>
                <path d="M70.8,46.4 L70.8,43.6 L74.6,43.6 C76.8,43.6 78.7,41.8 78.7,39.5 L78.7,37 L78.7,37 L78.7,36 L76.7,36 L76.7,39.6 C76.7,40.7 75.8,41.7 74.6,41.7 L70.8,41.7 L70.8,38.5 C70.8,38.4 70.7,38.3 70.6,38.3 C70.6,38.3 70.5,38.3 70.4,38.3 L70.4,38.3 L65.3,42.3 L65.2,42.3 C65.2,42.4 65.1,42.4 65.1,42.5 C65.1,42.6 65.1,42.6 65.1,42.7 L65.1,42.7 L65.1,42.7 L70.2,46.6 L70.2,46.6 L70.2,46.6 C70.2,46.6 70.3,46.7 70.4,46.7 C70.5,46.7 70.6,46.6 70.6,46.5 L70.6,46.5 L70.6,46.5 L70.8,46.4 Z" id="Path" fill="#FFFFFF" fill-rule="nonzero"></path>
                <path d="M27.1,12.8 L27.1,17.1 C27.1,17.6 26.9,18.2 26.5,18.6 C26,19 25.4,19.2 24.8,19.2 L16.7,19.2 C15.2,19.2 13.7,19.7 12.5,20.7 C11.3,21.9 10.6,23.5 10.7,25.2 L10.7,38.8 C9.4,39.2 8.3,40.2 8,41.5 L0.3,41.5 L0.3,43.5 L8,43.5 C8.4,44.9 9.4,45.9 10.8,46.3 C11.5,46.5 12.1,46.5 12.8,46.3 C14.2,45.9 15.2,44.9 15.6,43.5 L22.5,43.5 L22.5,41.5 L15.6,41.5 C15.2,40.2 14.2,39.1 12.8,38.7 L12.8,25.1 C12.7,24 13.1,22.9 13.9,22.1 C14.7,21.4 15.8,21.1 16.8,21.1 L24.9,21.1 C27.1,21.3 29,19.6 29.2,17.4 C29.2,17.3 29.2,17.1 29.2,17 L29.2,12.7 C29.2,12.7 29.2,12.7 29.1,12.7 C28.4,12.9 27.8,12.9 27.1,12.8 Z M13.6,42.5 C13.6,43.6 12.7,44.4 11.7,44.4 C10.6,44.4 9.8,43.5 9.8,42.5 C9.8,41.4 10.7,40.6 11.7,40.6 L11.7,40.6 C12.8,40.6 13.6,41.4 13.6,42.5 Z" id="Shape" fill="#FFFFFF" fill-rule="nonzero"></path>
                <path d="M27.1,12.4 L27.1,12.8 C27.7,12.9 28.4,12.9 29,12.8 C29,12.8 29,12.8 29.1,12.8 L29.1,12.5 L27.1,12.4 Z" id="Path" fill="#FFFFFF" fill-rule="nonzero"></path>
            </g>
        </g>
    </g>
</svg>