<?xml version="1.0" encoding="UTF-8"?>
<svg width="95px" height="95px" viewBox="0 0 95 95" version="1.1" xmlns="http://www.w3.org/2000/svg" xmlns:xlink="http://www.w3.org/1999/xlink">
    <!-- Generator: Sketch 53.2 (72643) - https://sketchapp.com -->
    <title>goal_7_target_7_1</title>
    <desc>Created with Sketch.</desc>
    <g id="goal_7_target_7_1" stroke="none" stroke-width="1" fill="none" fill-rule="evenodd">
        <g id="Group-48" fill-rule="nonzero">
            <rect id="Rectangle" fill="#FCC30B" x="-3.62376795e-13" y="-2.13162821e-14" width="94.8" height="94.8"></rect>
            <g id="Group" transform="translate(7.700000, 7.000000)" fill="#FFFFFF">
                <g transform="translate(19.000000, 0.000000)">
                    <path d="M20.7,9.3 C14.3,9.3 9,14.6 9,21 C9,27.4 14.2,32.7 20.7,32.7 C27.2,32.7 32.4,27.5 32.4,21 C32.4,21 32.4,21 32.4,20.9 C32.4,14.5 27.2,9.3 20.7,9.3 Z M19.9,14 C19.9,13.5 20.3,13.1 20.8,13.1 C21.3,13.1 21.7,13.5 21.7,14 L21.7,18 C21.7,18.5 21.3,18.9 20.8,18.9 C20.3,18.9 19.9,18.5 19.9,18 L19.9,14 Z M20.7,27.1 C17.3,27.1 14.6,24.4 14.6,21 C14.6,18.3 16.3,16 18.9,15.2 L18.9,17.4 C16.9,18.4 16.1,20.8 17.1,22.8 C18.1,24.8 20.5,25.6 22.5,24.6 C24.5,23.6 25.3,21.2 24.3,19.2 C23.9,18.4 23.3,17.8 22.5,17.4 L22.5,15.1 C25.7,16.1 27.5,19.5 26.5,22.7 C25.7,25.3 23.4,27 20.7,27.1 L20.7,27.1 Z" id="Shape"></path>
                    <path d="M7.3,20.9 C7.3,20.4 6.9,20 6.4,19.9 L1.3,19.9 C0.8,20 0.5,20.6 0.6,21.1 C0.7,21.4 1,21.7 1.3,21.8 L6.4,21.8 C6.9,21.8 7.2,21.4 7.3,20.9 Z" id="Path"></path>
                    <path d="M40.2,20 L35.1,20 C34.6,20.1 34.3,20.7 34.4,21.2 C34.5,21.5 34.8,21.8 35.1,21.9 L40.2,21.9 C40.7,21.8 41,21.2 40.9,20.7 C40.8,20.4 40.6,20.1 40.2,20 Z" id="Path"></path>
                    <path d="M20.7,7.5 C21.2,7.5 21.6,7.1 21.7,6.6 L21.7,1.5 C21.5,1 21,0.7 20.5,0.8 C20.2,0.9 19.9,1.2 19.8,1.5 L19.8,6.6 C19.9,7.1 20.3,7.4 20.7,7.5 Z" id="Path"></path>
                    <path d="M20.7,34.4 C20.2,34.4 19.7,34.8 19.7,35.3 L19.7,40.4 C19.9,40.9 20.4,41.2 20.9,41.1 C21.2,41 21.5,40.7 21.6,40.4 L21.6,35.3 C21.6,34.8 21.2,34.4 20.7,34.4 Z" id="Path"></path>
                    <path d="M3.3,12.1 L7.8,14.6 C8.3,14.8 8.9,14.5 9.1,14 C9.2,13.6 9.1,13.2 8.8,12.9 L4.3,10.4 C3.8,10.2 3.2,10.5 3,11 C2.9,11.4 3,11.8 3.3,12.1 L3.3,12.1 Z" id="Path"></path>
                    <path d="M38.1,29.8 L33.6,27.3 C33.1,27.1 32.5,27.4 32.3,27.9 C32.2,28.3 32.3,28.7 32.6,29 L37.1,31.5 C37.6,31.7 38.2,31.4 38.4,30.9 C38.5,30.5 38.4,30.1 38.1,29.8 L38.1,29.8 Z" id="Path"></path>
                    <path d="M27.4,9.3 C27.8,9.5 28.4,9.4 28.7,9 L31.2,4.5 C31.4,4 31.1,3.4 30.5,3.2 C30.1,3.1 29.7,3.2 29.5,3.5 L27,8 C26.8,8.5 27,9 27.4,9.3 Z" id="Path"></path>
                    <path d="M14.1,32.6 C13.7,32.4 13.1,32.5 12.8,32.9 L10.3,37.4 C10.1,37.9 10.4,38.5 11,38.7 C11.4,38.8 11.8,38.7 12,38.4 L14.5,33.9 C14.7,33.5 14.5,32.9 14.1,32.6 Z" id="Path"></path>
                    <path d="M12.8,9 C13.1,9.4 13.6,9.5 14.1,9.3 C14.5,9 14.7,8.5 14.5,8 L11.9,3.5 C11.5,3.1 10.9,3.1 10.5,3.5 C10.2,3.8 10.1,4.2 10.2,4.5 L12.8,9 Z" id="Path"></path>
                    <path d="M28.7,32.9 C28.3,32.5 27.7,32.5 27.3,32.9 C27,33.2 26.9,33.6 27,33.9 L29.6,38.3 C30,38.7 30.6,38.7 31,38.3 C31.3,38 31.4,37.6 31.3,37.3 L28.7,32.9 Z" id="Path"></path>
                    <path d="M33.7,14.6 L38.1,12 C38.5,11.6 38.5,11 38.1,10.6 C37.8,10.3 37.4,10.2 37.1,10.3 L32.7,13 C32.3,13.4 32.3,14 32.7,14.4 C33,14.7 33.3,14.8 33.7,14.6 L33.7,14.6 Z" id="Path"></path>
                    <path d="M7.8,27.3 L3.3,29.9 C2.9,30.3 2.9,30.9 3.3,31.3 C3.6,31.6 4,31.7 4.3,31.6 L8.7,29 C9.1,28.6 9.1,28 8.7,27.6 C8.5,27.3 8.2,27.2 7.8,27.3 L7.8,27.3 Z" id="Path"></path>
                </g>
                <path d="M70.1,50.4 C70.1,51.9 71.3,53.2 72.9,53.2 C74.5,53.2 75.7,52 75.7,50.4 C75.7,48.9 74.5,47.6 72.9,47.6 L72.9,47.6 C71.3,47.6 70.1,48.9 70.1,50.4 Z" id="Path"></path>
                <path d="M76.1,54.3 L75.9,54.3 L69.8,54.3 L69.6,54.3 C67.7,54.5 66.2,56.1 66.2,58 L66.2,65.7 C66.1,66.3 66.6,66.8 67.2,66.9 C67.8,67 68.3,66.5 68.4,65.9 C68.4,65.8 68.4,65.8 68.4,65.7 L68.4,59 C68.4,58.8 68.5,58.4 68.9,58.4 C69.3,58.4 69.3,58.7 69.3,58.9 L69.3,78.7 C69.4,79.6 70.1,80.2 71,80.1 C71.8,80 72.4,79.4 72.4,78.7 L72.4,67.4 C72.4,67.2 72.6,67 72.8,67 C72.8,67 72.8,67 72.8,67 L72.8,67 C73,67 73.2,67.2 73.2,67.4 C73.2,67.4 73.2,67.4 73.2,67.5 L73.2,78.9 C73.2,79.8 73.9,80.4 74.8,80.4 C75.7,80.4 76.3,79.7 76.3,78.9 L76.3,59 C76.3,58.8 76.4,58.5 76.7,58.5 C77,58.5 77.2,58.8 77.2,59.1 L77.2,65.7 C77.2,66.3 77.7,66.8 78.3,66.8 C78.9,66.8 79.4,66.3 79.4,65.7 L79.4,58 C79.5,56.1 78,54.4 76.1,54.3 Z" id="Path"></path>
                <path d="M46.9,51.9 C46.9,53.3 48.1,54.5 49.5,54.5 C50.9,54.5 52.1,53.3 52.1,51.9 C52.1,50.5 50.9,49.3 49.5,49.3 C48.1,49.3 46.9,50.5 46.9,51.9 C46.9,51.9 46.9,51.9 46.9,51.9 Z" id="Path"></path>
                <path d="M52.7,59.4 C53,59.3 53.1,59.7 53.1,59.7 L54.9,65.6 C54.9,65.6 55.2,66.9 56.3,66.5 C57.4,66.1 57,65 57,65 L54.8,57.9 C54.8,57.9 54,55.8 52.3,55.8 L46.7,55.8 C45,55.8 44.2,57.9 44.2,57.9 L42.1,65 C42.1,65 41.7,66.3 42.8,66.6 C43.9,66.9 44.2,65.7 44.2,65.7 L46,59.7 C46,59.7 46.1,59.3 46.4,59.4 C46.7,59.5 46.6,60 46.6,60 L43.6,71 L46.4,71 L46.4,79 C46.3,79.8 46.9,80.4 47.6,80.5 C48.4,80.6 49,80 49.1,79.3 C49.1,79.2 49.1,79.1 49.1,79.1 L49.1,71.1 L49.9,71.1 L49.9,79.1 C49.8,79.9 50.4,80.5 51.1,80.6 C51.9,80.7 52.5,80.1 52.6,79.4 C52.6,79.3 52.6,79.2 52.6,79.2 L52.6,71.2 L55.4,71.2 L52.3,60.1 C52.4,59.9 52.3,59.4 52.7,59.4 Z" id="Path"></path>
                <path d="M31.2,51.9 C31.2,53.4 32.4,54.5 33.8,54.5 C35.3,54.5 36.4,53.3 36.4,51.9 C36.4,50.4 35.2,49.3 33.8,49.3 C33.8,49.3 33.8,49.3 33.8,49.3 C32.4,49.2 31.2,50.4 31.2,51.9 C31.2,51.9 31.2,51.9 31.2,51.9 Z" id="Path"></path>
                <path d="M39.1,57.8 C39.1,57.8 38.3,55.8 36.6,55.8 L31,55.8 C29.3,55.8 28.5,57.8 28.5,57.8 L26.3,64.9 C26.3,64.9 25.9,66.2 27,66.5 C28.1,66.8 28.4,65.6 28.4,65.6 L30.2,59.7 C30.2,59.7 30.3,59.2 30.6,59.3 C30.9,59.4 30.8,59.9 30.8,59.9 L27.8,71 L30.6,71 L30.6,79 C30.5,79.8 31.1,80.4 31.8,80.5 C32.6,80.6 33.2,80 33.3,79.3 C33.3,79.2 33.3,79.1 33.3,79.1 L33.3,71.1 L34.1,71.1 L34.1,79.1 C34,79.9 34.6,80.5 35.3,80.6 C36.1,80.7 36.7,80.1 36.8,79.4 C36.8,79.3 36.8,79.2 36.8,79.2 L36.8,71.2 L39.6,71.2 L36.5,60.1 C36.5,60.1 36.4,59.6 36.7,59.5 C37,59.4 37.1,59.9 37.1,59.9 L38.9,65.8 C38.9,65.8 39.2,67.1 40.3,66.7 C41.4,66.3 41,65.1 41,65.1 L39.1,57.8 Z" id="Path"></path>
                <path d="M8.6,53.5 C10.1,53.5 11.4,52.3 11.4,50.7 C11.4,49.1 10.1,48 8.6,48 C7.1,48 5.8,49.2 5.8,50.8 C5.8,52.4 7.1,53.5 8.6,53.5 L8.6,53.5 Z" id="Path"></path>
                <path d="M11.8,54.6 L11.6,54.6 L5.6,54.6 L5.4,54.6 C3.5,54.8 2,56.3 2,58.3 L2,65.9 C2,66.2 2.2,66.5 2.4,66.7 L0,79.5 C0,79.7 0.1,79.9 0.3,80 C0.3,80 0.3,80 0.3,80 L0.4,80 C0.6,80 0.8,79.9 0.8,79.7 L3.2,66.9 C3.7,66.8 4.1,66.4 4.1,65.9 L4.1,59.3 C4.1,59.1 4.2,58.7 4.6,58.7 C5,58.7 5,59 5,59.2 L5,78.8 C5,79.6 5.7,80.3 6.5,80.3 C7.3,80.3 8,79.6 8,78.8 C8,78.8 8,78.8 8,78.8 L8,67.5 C8,67.3 8.2,67.1 8.4,67.1 C8.4,67.1 8.4,67.1 8.5,67.1 L8.5,67.1 C8.7,67.1 8.9,67.3 8.9,67.5 C8.9,67.5 8.9,67.5 8.9,67.6 L8.9,78.9 C9,79.7 9.7,80.4 10.6,80.3 C11.4,80.2 12,79.6 12,78.9 L12,59.2 C12,59 12.1,58.7 12.4,58.7 C12.7,58.7 13,59 13,59.3 L13,65.9 C13.1,66.5 13.6,66.9 14.2,66.9 C14.7,66.9 15.1,66.4 15.2,65.9 L15.2,58.3 C15.1,56.3 13.7,54.7 11.8,54.6 Z" id="Path"></path>
                <path d="M59.2,64.1 C59.2,65.3 60.2,66.3 61.4,66.3 C62.6,66.3 63.6,65.3 63.6,64.1 C63.6,62.9 62.6,61.9 61.4,61.9 C61.4,61.9 61.4,61.9 61.4,61.9 C60.2,61.9 59.2,62.9 59.2,64.1 C59.2,64.1 59.2,64.1 59.2,64.1 Z" id="Path"></path>
                <path d="M66,70.7 C64.7,67.3 64.4,67.3 63.2,67.2 L59.8,67.2 C58.6,67.2 58.4,67.2 57,70.7 C56.8,71.2 56,73.1 56,73.2 C56,73.3 55.7,74 56.4,74.3 C57.1,74.6 57.3,73.7 57.3,73.7 L58.7,70.3 C58.7,70.3 58.7,70.2 58.8,70.2 C58.9,70.2 58.8,70.3 58.8,70.3 L58.8,79.1 L58.8,79.1 C58.8,79.7 59.3,80.3 59.9,80.3 C59.9,80.3 59.9,80.3 59.9,80.3 C60.5,80.3 61,79.8 61,79.1 C61,79.1 61,79.1 61,79.1 L61,75.6 C61,75.6 61,75.1 61.3,75.1 C61.6,75.1 61.6,75.6 61.6,75.6 L61.6,79.1 C61.6,79.7 62.1,80.3 62.7,80.3 C62.7,80.3 62.7,80.3 62.7,80.3 C63.3,80.3 63.8,79.8 63.8,79.2 C63.8,79.2 63.8,79.2 63.8,79.1 L63.8,79.1 L63.8,70.3 C63.8,70.2 63.8,70.2 63.8,70.2 C63.8,70.2 63.9,70.3 63.9,70.3 L65.1,73.3 C65.1,73.3 65.5,74.1 66.1,73.8 C66.7,73.5 66.4,72.8 66.4,72.8 C66.4,72.8 66.1,71.2 66,70.7 Z" id="Path"></path>
                <path d="M25.2,65.1 C24.8,64.9 24.3,65 24.1,65.5 C24.1,65.5 24.1,65.5 24.1,65.5 C23.7,66.2 23.2,67 22.7,67.6 C22.5,67.8 22.3,67.9 22,67.9 L19.3,67.9 C19,67.9 18.8,67.8 18.6,67.6 C18.3,67.3 17.2,65.4 17.2,65.4 C17.1,65.2 16.8,65 16.5,65 C16.1,65 15.7,65.4 15.7,65.8 C15.7,65.9 15.7,66 15.8,66.1 L18,70.1 C18.1,70.3 18.1,70.4 18.1,70.6 L18.1,71.2 L18.1,71.2 C18.1,71.4 18.1,71.7 18,71.9 L16.9,76.1 L18.1,76.1 L18.1,79.2 L18.1,79.2 C18,79.8 18.5,80.3 19.1,80.4 C19.7,80.5 20.2,80 20.3,79.4 C20.3,79.3 20.3,79.3 20.3,79.2 L20.3,76.2 C20.3,76.2 20.3,76.1 20.3,76.1 L21,76.1 L21,79.2 C20.9,79.8 21.4,80.3 22,80.4 C22.6,80.5 23.1,80 23.2,79.4 C23.2,79.3 23.2,79.3 23.2,79.2 L23.2,76.1 L24.4,76.1 L23.3,71.9 C23.2,71.7 23.2,71.5 23.2,71.3 L23.2,71.1 L23.2,71.1 L23.2,70.5 C23.2,70.3 23.3,70.1 23.3,70 L25.3,66.3 L25.5,65.9 C25.7,65.7 25.6,65.3 25.2,65.1 Z" id="Path"></path>
                <path d="M20.7,66.5 C21.9,66.5 22.9,65.5 22.9,64.3 C22.9,63.1 21.9,62.1 20.7,62.1 C19.5,62.1 18.5,63.1 18.5,64.3 C18.5,64.3 18.5,64.3 18.5,64.3 C18.5,65.5 19.5,66.5 20.7,66.5 C20.7,66.5 20.7,66.5 20.7,66.5 Z" id="Path"></path>
            </g>
        </g>
    </g>
</svg>