<?xml version="1.0" encoding="UTF-8"?>
<svg width="95px" height="95px" viewBox="0 0 95 95" version="1.1" xmlns="http://www.w3.org/2000/svg" xmlns:xlink="http://www.w3.org/1999/xlink">
    <!-- Generator: Sketch 53.2 (72643) - https://sketchapp.com -->
    <title>goal_16_target_16_9</title>
    <desc>Created with Sketch.</desc>
    <g id="goal_16_target_16_9" stroke="none" stroke-width="1" fill="none" fill-rule="evenodd">
        <g id="Group-139" fill-rule="nonzero">
            <rect id="Rectangle" fill="#00689D" x="1.45661261e-12" y="-2.13162821e-14" width="94.8" height="94.8"></rect>
            <g id="Group" transform="translate(11.700000, 24.000000)" fill="#FFFFFF">
                <g transform="translate(41.000000, 0.000000)" id="Path">
                    <path d="M15.6,43.7 C15.6,43.7 15.6,43.6 15.6,43.6 C15.6,43.5 15.5,43.4 15.5,43.4 L15.4,43.2 L15.3,43 C15.3,43 15.2,42.9 15.2,42.9 L15,42.7 L11.3,38.7 C10.8,38.2 11.2,37.9 11.2,37.9 L14.4,34.6 L9.4,29.5 C9.4,29.5 6.2,32.8 4.8,34.1 C3.6,35.3 3.6,37.2 4.8,38.4 L12,45.6 L12,45.6 C12.4,46 12.9,46.2 13.5,46.2 L13.5,46.2 L13.7,46.2 L13.8,46.2 L14.1,46.1 C15,45.8 15.6,45 15.6,44.1 C15.6,44.1 15.6,44.1 15.6,44 C15.6,44 15.7,43.9 15.6,43.7 Z"></path>
                    <path d="M23.3,29.5 L18.3,34.6 L21.5,37.9 C21.5,37.9 21.8,38.2 21.4,38.7 L17.7,42.7 L17.5,43 C17.5,43 17.4,43.1 17.4,43.1 L17.3,43.2 L17.2,43.4 C17.2,43.5 17.1,43.6 17.1,43.6 C17.1,43.6 17.1,43.7 17.1,43.7 C17.1,43.9 17.1,44 17.1,44.2 C17.1,44.2 17.1,44.3 17.1,44.3 C17.1,45.2 17.7,46 18.6,46.3 L18.9,46.4 L19,46.4 L19.2,46.4 L19.2,46.4 C19.8,46.4 20.3,46.2 20.7,45.8 L20.7,45.8 L27.9,38.6 C29.1,37.4 29.1,35.5 27.9,34.3 C26.6,32.8 23.3,29.5 23.3,29.5 Z"></path>
                    <path d="M32.3,25.4 C32.3,25.3 32.3,25.3 32.2,25.2 C32.1,25 32,24.8 31.8,24.6 C31.8,24.6 23.3,16.1 22.2,15 C21.8,14.6 21.3,14.3 20.7,14.3 L12,14.3 C11.4,14.3 10.9,14.5 10.5,15 C9.5,16 0.9,24.6 0.9,24.6 C0.7,24.8 0.6,25 0.5,25.2 C0.5,25.3 0.4,25.3 0.4,25.4 C0.3,25.6 0.3,25.8 0.3,26.1 C0.3,27.2 1.3,28.1 2.4,28 C2.7,28 3.1,27.9 3.4,27.7 L3.6,27.5 L3.9,27.2 L8.7,22.2 C8.7,22.2 9.5,21.4 9.6,22.3 L9.6,26.8 L23.1,26.8 L23.1,22.4 C23.3,21.6 24,22.3 24,22.3 L28.8,27.3 L29.1,27.6 L29.3,27.8 C30.3,28.4 31.5,28 32,27.1 C32.2,26.8 32.3,26.5 32.3,26.2 C32.4,25.9 32.4,25.6 32.3,25.4 Z"></path>
                    <path d="M16.3,12.9 C19.7,12.9 22.5,10.1 22.5,6.7 C22.5,3.3 19.7,0.5 16.3,0.5 C12.9,0.5 10.1,3.3 10.1,6.7 C10.1,6.7 10.1,6.7 10.1,6.7 C10.2,10.1 12.9,12.9 16.3,12.9 Z"></path>
                </g>
                <g transform="translate(0.000000, 4.000000)">
                    <g>
                        <polygon id="Path" points="1.8 4.8 0.1 4.8 0.1 38.5 24.2 38.5 24.2 36.5 1.8 36.5"></polygon>
                        <path d="M27.8,0.7 L3.7,0.7 L3.7,34.4 L27.8,34.4 L27.8,0.7 Z M24.9,28.9 C24.9,29 24.8,29 24.7,29 L6.8,29 C6.7,29 6.6,28.9 6.6,28.9 L6.6,26.1 C6.6,26 6.7,26 6.8,26 L24.6,26 C24.7,26 24.8,26 24.8,26.1 L24.9,28.9 Z M24.9,23.6 C24.9,23.7 24.8,23.7 24.7,23.7 L6.8,23.7 C6.7,23.7 6.6,23.7 6.6,23.6 L6.6,20.8 C6.6,20.7 6.7,20.7 6.8,20.7 L24.6,20.7 C24.7,20.7 24.8,20.8 24.8,20.8 L24.9,23.6 Z M24.9,18.5 C24.9,18.6 24.8,18.6 24.7,18.6 L6.8,18.6 C6.7,18.6 6.6,18.5 6.6,18.5 L6.6,15.7 C6.6,15.6 6.7,15.6 6.8,15.6 L24.6,15.6 C24.7,15.6 24.8,15.6 24.8,15.7 L24.9,18.5 Z" id="Shape"></path>
                    </g>
                    <g transform="translate(32.000000, 0.000000)" id="Path">
                        <path d="M3.6,2.1 C3.5,1.1 2.7,0.4 1.7,0.5 C0.8,0.6 0.2,1.3 0.1,2.1 L0.1,3.9 L3.6,3.9 L3.6,2.1 Z"></path>
                        <polygon points="0.4 28.7 0 28.7 1.7 34.5 3.5 28.7 3 28.7 3.5 28.7 3.6 5.2 3.2 5.2 2.7 5.2 2.3 5.2 1.4 5.2 1 5.2 0.5 5.2 0.1 5.2 0 28.7"></polygon>
                    </g>
                </g>
            </g>
        </g>
    </g>
</svg>