<?xml version="1.0" encoding="UTF-8"?>
<svg width="95px" height="95px" viewBox="0 0 95 95" version="1.1" xmlns="http://www.w3.org/2000/svg" xmlns:xlink="http://www.w3.org/1999/xlink">
    <!-- Generator: Sketch 53.2 (72643) - https://sketchapp.com -->
    <title>goal_1_target_1_a</title>
    <desc>Created with Sketch.</desc>
    <g id="goal_1_target_1_a" stroke="none" stroke-width="1" fill="none" fill-rule="evenodd">
        <g id="Group-7" fill-rule="nonzero">
            <rect id="Rectangle" fill="#E5243B" x="-2.13162821e-14" y="-2.13162821e-14" width="94.8" height="94.8"></rect>
            <g id="Group" transform="translate(7.700000, 9.000000)" fill="#FFFFFF">
                <g transform="translate(45.000000, 2.000000)">
                    <polygon id="Path" points="2 3.6 0.5 3.6 0.5 32.1 21.5 32.1 21.5 30.4 2 30.4"></polygon>
                    <path d="M3.5,0.1 L3.5,28.7 L24,28.7 L24,0.1 L3.5,0.1 Z M21.6,24.8 L21.6,24.8 C21.6,24.9 21.5,24.9 21.5,24.9 L6.2,24.9 C6.1,24.9 6.1,24.8 6.1,24.8 L6.1,22.5 C6.1,22.4 6.2,22.4 6.2,22.4 L21.4,22.4 C21.5,22.4 21.5,22.5 21.5,22.5 L21.6,24.8 L21.6,24.8 Z M21.6,20.3 L21.6,20.3 C21.6,20.4 21.5,20.4 21.5,20.4 L6.2,20.4 C6.1,20.4 6.1,20.3 6.1,20.2 L6.1,17.9 C6.1,17.8 6.2,17.8 6.2,17.8 L21.4,17.8 C21.5,17.8 21.5,17.8 21.5,17.9 L21.5,17.9 L21.6,20.3 Z M21.6,15.7 C21.6,15.7 21.6,15.7 21.6,15.7 C21.6,15.8 21.5,15.8 21.5,15.8 L6.2,15.8 C6.1,15.8 6.1,15.7 6,15.7 L6,13.3 C6,13.2 6.1,13.2 6.2,13.2 L21.4,13.2 C21.4,13.2 21.5,13.2 21.5,13.3 C21.5,13.3 21.5,13.3 21.5,13.4 L21.6,15.7 Z" id="Shape"></path>
                </g>
                <g transform="translate(0.000000, 43.000000)" id="Path">
                    <g transform="translate(66.000000, 0.000000)">
                        <path d="M6.6,6 C8.1,6 9.3,4.8 9.3,3.2 C9.3,1.7 8.1,0.5 6.5,0.5 C5,0.5 3.8,1.7 3.8,3.2 C3.8,4.8 5,6 6.6,6 C6.6,6 6.6,6 6.6,6 Z"></path>
                        <path d="M9.8,7 L3.4,7 C1.5,7.2 -1.41969769e-14,8.8 0.1,10.7 L0.1,18.3 C1.38777878e-17,18.9 0.5,19.4 1.1,19.5 C1.7,19.6 2.2,19.1 2.3,18.5 C2.3,18.4 2.3,18.4 2.3,18.3 L2.3,11.7 C2.3,11.5 2.4,11.1 2.8,11.1 C3.2,11.1 3.2,11.4 3.2,11.6 L3.2,31.2 C3.2,32 3.9,32.7 4.7,32.7 C5.5,32.7 6.2,32 6.2,31.2 C6.2,31.2 6.2,31.2 6.2,31.2 L6.2,20.1 C6.2,19.9 6.4,19.7 6.6,19.7 C6.6,19.7 6.6,19.7 6.6,19.7 L6.6,19.7 C6.8,19.7 7,19.9 7,20.1 C7,20.1 7,20.1 7,20.1 L7,31.4 C6.9,32.2 7.6,33 8.4,33.1 C9.2,33.2 10,32.5 10.1,31.7 C10.1,31.6 10.1,31.5 10.1,31.5 L10.1,11.7 C10.1,11.5 10.2,11.2 10.5,11.2 C10.8,11.2 11,11.5 11,11.8 L11,18.4 C11,19 11.5,19.5 12.1,19.5 C12.7,19.5 13.2,19 13.2,18.4 C13.2,18.4 13.2,18.4 13.2,18.4 L13.2,10.8 C13.1,8.8 11.7,7.2 9.8,7 Z"></path>
                    </g>
                    <g transform="translate(41.000000, 2.000000)">
                        <path d="M8.4,5.3 C9.8,5.3 11,4.1 11,2.7 C11,1.3 9.8,0.1 8.4,0.1 C7,0.1 5.8,1.3 5.8,2.7 L5.8,2.7 C5.8,4.2 7,5.3 8.4,5.3 Z"></path>
                        <path d="M15.8,15.6 L13.6,8.6 C13.6,8.6 12.8,6.6 11.1,6.6 L5.6,6.6 C3.9,6.6 3.1,8.6 3.1,8.6 L0.9,15.6 C0.9,15.6 0.5,16.9 1.6,17.2 C2.7,17.5 3,16.3 3,16.3 L4.7,10.4 C4.7,10.4 4.8,9.9 5.1,10 C5.4,10.1 5.3,10.6 5.3,10.6 L2.3,21.6 L5.1,21.6 L5.1,29.5 C5.2,30.2 5.8,30.8 6.6,30.7 C7.3,30.6 7.8,30.1 7.8,29.5 L7.8,21.6 L8.6,21.6 L8.6,29.5 C8.7,30.2 9.3,30.8 10.1,30.7 C10.8,30.6 11.3,30.1 11.3,29.5 L11.3,21.6 L14.1,21.6 L11.1,10.6 C11.1,10.6 11,10.1 11.3,10 C11.6,9.9 11.7,10.4 11.7,10.4 L13.4,16.3 C13.4,16.3 13.7,17.6 14.8,17.2 C15.9,16.8 15.8,15.6 15.8,15.6 Z"></path>
                    </g>
                    <g transform="translate(26.000000, 2.000000)">
                        <path d="M7.9,5.3 C9.3,5.3 10.5,4.1 10.5,2.7 C10.5,1.3 9.3,0.1 7.9,0.1 C6.5,0.1 5.3,1.3 5.3,2.7 C5.3,2.7 5.3,2.7 5.3,2.7 C5.3,4.1 6.4,5.3 7.9,5.3 Z"></path>
                        <path d="M15.3,15.6 L13.1,8.6 C13.1,8.6 12.3,6.6 10.6,6.6 L5.1,6.6 C3.4,6.6 2.6,8.6 2.6,8.6 L0.4,15.6 C0.4,15.6 -7.10542736e-15,16.9 1.1,17.2 C2.2,17.5 2.5,16.3 2.5,16.3 L4.2,10.4 C4.2,10.4 4.3,10 4.6,10.1 C4.9,10.2 4.8,10.7 4.8,10.7 L1.8,21.7 L4.6,21.7 L4.6,29.6 C4.7,30.3 5.3,30.9 6.1,30.8 C6.8,30.7 7.3,30.2 7.3,29.6 L7.3,21.7 L8.1,21.7 L8.1,29.6 C8.2,30.3 8.8,30.9 9.6,30.8 C10.3,30.7 10.8,30.2 10.8,29.6 L10.8,21.7 L13.6,21.7 L10.6,10.7 C10.6,10.7 10.5,10.2 10.8,10.1 C11.1,10 11.2,10.4 11.2,10.4 L12.9,16.3 C12.9,16.3 13.2,17.6 14.3,17.2 C15.4,16.8 15.3,15.6 15.3,15.6 Z"></path>
                    </g>
                    <g>
                        <path d="M8.9,6.3 C10.4,6.3 11.6,5.1 11.6,3.6 C11.6,2.1 10.4,0.9 8.9,0.9 C7.4,0.9 6.2,2.1 6.2,3.6 C6.2,5.1 7.4,6.3 8.9,6.3 L8.9,6.3 Z"></path>
                        <path d="M12,7.3 L5.7,7.3 C3.8,7.5 2.4,9.1 2.4,11 L2.4,18.5 C2.4,18.8 2.6,19.1 2.8,19.3 L0.4,32.1 C0.4,32.3 0.5,32.5 0.7,32.6 C0.7,32.6 0.7,32.6 0.7,32.6 L0.8,32.6 C1,32.6 1.2,32.5 1.2,32.3 L3.6,19.6 C4.1,19.5 4.5,19.1 4.5,18.6 L4.5,12 C4.5,11.8 4.6,11.4 5,11.4 C5.3,11.4 5.4,11.7 5.4,11.9 L5.4,31.3 C5.5,32.1 6.3,32.7 7.1,32.6 C7.7,32.5 8.2,32 8.4,31.3 L8.4,20.2 C8.4,20 8.6,19.8 8.8,19.8 C8.8,19.8 8.8,19.8 8.9,19.8 L8.9,19.8 C9.1,19.8 9.3,20 9.3,20.2 C9.3,20.2 9.3,20.2 9.3,20.2 L9.3,31.4 C9.4,32.2 10.2,32.8 11,32.7 C11.6,32.6 12.1,32.1 12.3,31.4 L12.3,12 C12.3,11.8 12.4,11.5 12.7,11.5 C13,11.5 13.2,11.8 13.2,12.1 L13.2,18.6 C13.1,19.2 13.6,19.7 14.2,19.8 C14.8,19.9 15.3,19.4 15.4,18.8 C15.4,18.7 15.4,18.7 15.4,18.6 L15.4,11 C15.3,9.1 13.9,7.5 12,7.3 Z"></path>
                    </g>
                    <g transform="translate(55.000000, 14.000000)">
                        <path d="M6.3,5 C7.5,5 8.5,4 8.5,2.8 C8.5,1.6 7.5,0.6 6.3,0.6 C5.1,0.6 4.1,1.6 4.1,2.8 L4.1,2.8 C4.1,4 5.1,5 6.3,5 Z"></path>
                        <path d="M11.6,11.5 C11.6,11.4 10.9,9.8 10.7,9.3 C9.4,5.9 9.1,5.9 7.9,5.9 L4.5,5.9 C3.3,5.9 3.1,5.9 1.7,9.3 C1.5,9.8 0.7,11.7 0.7,11.8 C0.7,11.9 0.4,12.6 1.1,12.9 C1.8,13.2 2,12.3 2,12.3 L3.4,9 C3.4,9 3.4,8.9 3.5,8.9 C3.6,8.9 3.5,9 3.5,9 L3.5,17.7 L3.5,17.7 C3.5,18.3 4,18.9 4.6,18.9 C4.6,18.9 4.6,18.9 4.7,18.9 C5.3,18.9 5.9,18.5 5.9,17.9 C5.9,17.8 5.9,17.8 5.9,17.7 L5.9,14.2 C5.9,14.2 5.9,13.7 6.2,13.7 C6.5,13.7 6.5,14.2 6.5,14.2 L6.5,17.7 C6.5,18.3 7,18.9 7.6,18.9 C7.6,18.9 7.6,18.9 7.7,18.9 C8.3,18.9 8.8,18.4 8.8,17.8 C8.8,17.8 8.8,17.8 8.8,17.7 L8.8,17.7 L8.8,9 C8.8,8.9 8.8,8.9 8.8,8.9 L9,9 L10.2,12 C10.2,12 10.5,12.8 11.2,12.5 C11.6,12.3 11.8,11.9 11.6,11.5 C11.6,11.5 11.6,11.5 11.6,11.5 Z"></path>
                    </g>
                    <g transform="translate(16.000000, 14.000000)">
                        <path d="M9.4,3.7 C9,3.5 8.5,3.7 8.3,4.1 C8.3,4.1 8.3,4.1 8.3,4.1 C7.9,4.8 7.4,5.5 6.9,6.2 C6.7,6.4 6.5,6.5 6.2,6.5 L3.6,6.5 C3.3,6.5 3.1,6.4 2.9,6.2 C2.6,5.9 1.5,4 1.5,4 C1.4,3.8 1.1,3.6 0.8,3.6 C0.4,3.6 -3.55271368e-15,4 -3.55271368e-15,4.4 L-3.55271368e-15,4.4 C-3.55271368e-15,4.5 -3.55271368e-15,4.6 0.1,4.7 L2.3,8.7 C2.4,8.9 2.4,9 2.4,9.2 L2.4,9.8 L2.4,9.8 C2.4,10 2.4,10.3 2.3,10.5 L1.3,14.7 L2.5,14.7 L2.5,17.8 L2.5,17.8 C2.6,18.4 3.1,18.8 3.7,18.8 C4.2,18.8 4.6,18.3 4.7,17.8 L4.7,14.8 C4.7,14.8 4.7,14.7 4.7,14.7 L5.3,14.7 C5.3,14.7 5.3,14.8 5.3,14.8 L5.3,17.8 C5.4,18.4 5.9,18.8 6.5,18.8 C7,18.8 7.4,18.3 7.5,17.8 L7.5,14.7 L8.7,14.7 L7.6,10.5 C7.6,10.3 7.5,10.1 7.5,9.9 L7.5,9.8 L7.5,9.8 L7.5,9.2 C7.5,9 7.6,8.8 7.6,8.7 L9.6,5 L9.8,4.6 C10,4.3 9.9,3.8 9.5,3.6 C9.4,3.8 9.4,3.8 9.4,3.7 Z"></path>
                        <path d="M4.9,5.2 C6.1,5.2 7.1,4.2 7.1,3 C7.1,1.8 6.1,0.8 4.9,0.8 C3.7,0.8 2.7,1.8 2.7,3 C2.7,3 2.7,3 2.7,3 C2.7,4.2 3.7,5.2 4.9,5.2 Z"></path>
                    </g>
                </g>
                <g transform="translate(9.000000, 0.000000)">
                    <path d="M11.6,17.4 C11.2,17.6 10.8,17.8 10.4,17.9 C9.1,18.3 7.8,18.4 6.5,18.4 C5.9,18.4 5.2,18.3 4.6,18.2 C4.2,18.1 3.8,18.1 3.4,18 L2.8,17.8 C2.3,17.6 1.7,17.4 1.3,17.1 C1.1,17 1,16.8 0.9,16.6 L0.9,17.1 C0.9,17.2 0.9,17.9 0.9,17.9 C0.9,18.2 1.1,18.5 1.3,18.7 C2.2,19.3 3.2,19.7 4.3,19.8 C5,19.9 5.8,20 6.5,20 C7.6,20 8.6,19.9 9.7,19.6 L9.7,19.6 C10.3,19.5 10.8,19.3 11.3,19 L11.3,19 C11.8,18.7 12.1,18.3 12.1,17.9 C12.1,17.9 12.1,16.7 12.1,16.7 C12,17 11.9,17.2 11.6,17.4 Z" id="Path"></path>
                    <path d="M6.1,13.5 C9.2,13.5 11.8,12.6 11.8,11.4 C11.8,11.4 11.9,10.3 11.8,10.1 C11.8,9.9 11.8,9.8 11.7,9.6 C12.1,9.4 12.3,9.1 12.3,8.6 C12.3,8.6 12.3,7.4 12.3,7.2 C12.1,5.8 9.3,5 6.6,5 C3.9,5 0.9,5.8 0.9,7.3 C0.9,7.4 1,8.6 1,8.6 C1,8.7 1,8.8 1.1,8.9 C0.7,9.1 0.4,9.6 0.4,10.1 C0.4,10.2 0.5,11.4 0.5,11.4 C0.5,11.7 0.7,12 1,12.2 C1.9,12.8 2.9,13.2 4,13.3 C4.5,13.5 5.3,13.5 6.1,13.5 Z M6.6,5.7 C9.6,5.7 11.7,6.6 11.7,7.4 C11.7,8.2 9.6,9.1 6.6,9.1 C3.6,9.1 1.5,8.2 1.5,7.4 C1.5,6.6 3.6,5.7 6.6,5.7 Z M0.9,10.1 C0.9,9.8 1.1,9.6 1.3,9.5 C1.5,9.7 1.7,9.8 1.9,9.9 C3.4,10.6 5,10.9 6.6,10.8 C8,10.8 9.3,10.6 10.6,10.2 C10.8,10.1 10.9,10 11.1,10 C11.1,10 11.1,10.1 11.1,10.1 C11.1,10.9 9,11.8 6,11.8 C3,11.8 0.9,10.9 0.9,10.1 Z" id="Shape"></path>
                    <path d="M4.4,17.9 C5.1,18 5.9,18.1 6.6,18.1 C7.7,18.1 8.7,18 9.8,17.7 L9.8,17.7 C10.4,17.6 10.9,17.4 11.4,17.1 L11.4,17.1 C11.5,17 11.6,16.9 11.8,16.9 C12,16.8 12.1,16.6 12.2,16.4 C12.2,16.3 12.3,16.2 12.3,16.1 C12.3,16.1 12.3,14.9 12.3,14.9 C12.1,15.1 11.6,15.9 9.4,16.3 C8.4,16.5 7.5,16.5 6.5,16.5 C4.9,16.5 3.4,16.2 2,15.6 C1.7,15.5 1.5,15.3 1.3,15.1 C1.2,15 1.1,14.8 1,14.7 C1,14.7 1,15.2 1,15.3 L1,16 C1,16.3 1.2,16.6 1.4,16.8 C2.2,17.4 3.2,17.8 4.4,17.9 Z" id="Path"></path>
                    <path d="M12.2,12.1 L12,12 C11.9,11.9 11.8,11.9 11.8,11.9 C11.7,12 11.6,12.1 11.5,12.2 C11.6,12.2 11.7,12.3 11.7,12.3 C11.9,12.4 12,12.6 12,12.7 C12,12.8 11.9,13 11.8,13.1 L11.6,13.3 L11.3,13.5 L10.8,13.7 L10.3,13.9 L9.6,14 L8.7,14.1 C8.6,14.1 8.1,14.2 7.8,14.2 C7.5,14.2 6.9,14.3 6.5,14.3 C5.5,14.3 4.4,14.2 3.4,14 C2.9,13.9 2.5,13.8 2,13.6 C1.7,13.5 1.5,13.3 1.3,13.1 C1.1,12.9 1,12.7 0.8,12.5 L0.8,13.2 L0.8,13.9 C0.8,14.2 1,14.5 1.2,14.7 C2.1,15.3 3.1,15.7 4.2,15.8 C4.9,15.9 5.7,16 6.4,16 C7.5,16 8.5,15.9 9.6,15.6 L9.6,15.6 C10.2,15.5 10.7,15.3 11.2,15 L11.2,15 C11.3,14.9 11.4,14.8 11.6,14.8 C11.8,14.7 11.9,14.5 12,14.3 C12,14.2 12.1,14.1 12.1,14 C12.1,14 12.1,12.8 12.1,12.8 C12.1,12.7 12.1,12.6 12.1,12.5 C12.2,12.3 12.2,12.2 12.2,12.1 Z" id="Path"></path>
                    <path d="M19.1,9.4 C22.2,9.4 24.8,8.5 24.8,7.3 C24.8,7.3 24.9,6.2 24.8,6 C24.8,5.8 24.8,5.7 24.7,5.5 C25.1,5.3 25.3,5 25.3,4.5 C25.3,4.5 25.4,3.3 25.3,3.1 C25.1,1.7 22.3,0.9 19.6,0.9 C16.9,0.9 14,1.8 14,3.3 C14,3.4 14,4.6 14,4.6 C14,4.7 14,4.8 14.1,4.8 C13.7,5.1 13.5,5.5 13.4,5.9 C13.4,6 13.4,7.2 13.4,7.2 C13.4,7.5 13.6,7.8 13.9,8 C14.8,8.6 15.8,9 16.9,9.1 C17.6,9.4 18.4,9.4 19.1,9.4 Z M19.7,1.6 C22.7,1.6 24.8,2.5 24.8,3.3 C24.8,4.1 22.7,5 19.7,5 C16.7,5 14.6,4.1 14.6,3.3 C14.6,2.5 16.7,1.6 19.7,1.6 Z M14,6 C14,5.7 14.2,5.5 14.4,5.4 C14.6,5.6 14.8,5.7 15,5.8 C16.5,6.5 18.1,6.8 19.7,6.7 C21.1,6.7 22.4,6.5 23.7,6.1 C23.9,6 24,5.9 24.2,5.9 C24.2,5.9 24.2,6 24.2,6 C24.2,6.8 22.1,7.7 19.1,7.7 C16.1,7.7 14,6.8 14,6 Z" id="Shape"></path>
                    <path d="M25.4,8.3 C25.4,8.2 25.3,8.1 25.3,8.1 L25.2,8 C25.1,7.9 25,7.9 25,7.9 C24.9,8 24.8,8.1 24.7,8.2 C24.8,8.2 24.9,8.3 24.9,8.3 C25.1,8.4 25.2,8.6 25.2,8.7 C25.2,8.8 25.1,9 25,9.1 L24.8,9.3 L24.5,9.5 L24,9.7 L23.5,9.9 L22.8,10.1 L21.9,10.2 L21,10.3 C20.9,10.3 20.1,10.4 19.7,10.4 C19.1,10.4 18.5,10.4 17.9,10.3 C17.5,10.2 17,10.1 16.6,10.1 C16.1,10 15.7,9.9 15.2,9.7 C14.9,9.6 14.7,9.4 14.5,9.2 C14.3,9 14.2,8.8 14,8.6 L14,9.3 L14,10 C14,10.3 14.2,10.6 14.4,10.8 C15.3,11.4 16.3,11.8 17.4,11.9 C18.1,12 18.9,12.1 19.6,12.1 C20.7,12.1 21.7,12 22.8,11.7 L22.8,11.7 C23.4,11.6 23.9,11.4 24.4,11.1 L24.4,11.1 C24.5,11 24.6,10.9 24.8,10.9 C25,10.8 25.1,10.6 25.2,10.4 C25.2,10.3 25.3,10.2 25.3,10.1 C25.3,10.1 25.3,8.9 25.3,8.9 C25.3,8.5 25.4,8.4 25.4,8.3 Z" id="Path"></path>
                    <path d="M24.7,13.3 C24.3,13.5 23.9,13.7 23.5,13.8 C22.2,14.2 20.9,14.3 19.6,14.3 C19,14.3 18.3,14.2 17.7,14.1 C17.3,14 16.9,14 16.5,13.9 L15.9,13.7 C15.4,13.5 14.8,13.3 14.4,13 C14.2,12.9 14.1,12.7 14,12.6 L14,13.1 C14,13.2 14,13.9 14,13.9 C14,14.2 14.2,14.5 14.4,14.7 C15.3,15.3 16.3,15.7 17.4,15.8 C18.1,15.9 18.9,16 19.6,16 C20.7,16 21.7,15.9 22.8,15.6 L22.8,15.6 C23.4,15.5 23.9,15.3 24.4,15 L24.4,15 C24.9,14.7 25.2,14.3 25.2,13.9 C25.2,13.9 25.2,12.7 25.2,12.7 C25.1,12.9 24.9,13.1 24.7,13.3 Z" id="Path"></path>
                    <path d="M14.4,12.6 C15.3,13.2 16.3,13.6 17.4,13.7 C18.1,13.8 18.9,13.9 19.6,13.9 C20.7,13.9 21.7,13.8 22.8,13.5 L22.8,13.5 C23.4,13.4 23.9,13.2 24.4,12.9 L24.4,12.9 C24.5,12.8 24.6,12.7 24.7,12.7 C24.9,12.6 25,12.4 25.1,12.2 C25.1,12.1 25.2,12 25.2,11.9 C25.2,11.9 25.2,10.7 25.2,10.7 C25,10.9 24.5,11.7 22.3,12.1 C21.3,12.3 20.4,12.3 19.4,12.3 C17.9,12.3 16.3,12 14.9,11.4 C14.6,11.3 14.4,11.1 14.2,10.9 C14.1,10.8 14,10.6 13.9,10.5 L14,11 L14,11.8 C14,12.1 14.2,12.5 14.4,12.6 Z" id="Path"></path>
                    <path d="M25.5,16.7 C25.3,17 25.1,17.2 24.8,17.4 C24.4,17.6 24,17.8 23.6,17.9 C22.3,18.3 21,18.4 19.7,18.4 C19.1,18.4 18.4,18.3 17.8,18.3 C17.4,18.2 17,18.2 16.6,18.1 L16,17.8 C15.5,17.6 14.9,17.4 14.5,17.1 C14.3,17 14.2,16.8 14.1,16.6 L14.1,17.1 C14.1,17.2 14.1,17.9 14.1,17.9 C14.1,18.2 14.3,18.5 14.5,18.7 C15.4,19.3 16.4,19.7 17.5,19.8 C18.2,20 19,20 19.7,20 C20.8,20 21.8,19.9 22.9,19.6 L22.9,19.6 C23.5,19.5 24,19.2 24.6,18.9 L24.6,18.9 C25.1,18.6 25.4,18.2 25.4,17.8 C25.4,17.9 25.5,16.8 25.5,16.7 Z" id="Path"></path>
                    <path d="M17.5,17.8 C18.2,18 19,18 19.7,18 C20.8,18 21.8,17.9 22.9,17.6 L22.9,17.6 C23.5,17.5 24,17.3 24.5,17 L24.5,17 C24.6,16.9 24.7,16.8 24.8,16.8 C25,16.7 25.1,16.5 25.2,16.3 C25.2,16.2 25.3,16.1 25.3,16 C25.3,16 25.3,14.8 25.3,14.8 C25.1,15 24.6,15.8 22.4,16.2 C21.4,16.4 20.5,16.4 19.5,16.4 C17.9,16.4 16.4,16.1 15,15.5 C14.7,15.4 14.5,15.2 14.3,15 C14.2,14.9 14.1,14.7 14,14.6 L14,15.2 L14,16 C14,16.3 14.2,16.6 14.4,16.8 C15.3,17.4 16.4,17.8 17.5,17.8 Z" id="Path"></path>
                </g>
                <path d="M35.7,29.2 L28.5,34.9 C28.4,35 28.3,35 28.2,35 C28,35 28,34.9 28,34.6 L28,31.7 L9,31.7 C8.9,31.7 8.7,31.6 8.8,31.4 C8.8,31.4 8.8,31.4 8.8,31.4 L8.8,26.4 C8.8,26.3 8.9,26.1 9,26.1 C9,26.1 9,26.1 9,26.1 L27.9,26.1 L27.9,23.3 C27.9,23.1 27.9,23 28.1,22.9 C28.2,22.9 28.3,22.9 28.4,23 L35.6,28.5 C35.7,28.6 35.8,28.7 35.8,28.9 C35.8,29 35.8,29.1 35.7,29.2 Z" id="Path"></path>
            </g>
        </g>
    </g>
</svg>