<?xml version="1.0" encoding="UTF-8"?>
<svg width="95px" height="95px" viewBox="0 0 95 95" version="1.1" xmlns="http://www.w3.org/2000/svg" xmlns:xlink="http://www.w3.org/1999/xlink">
    <!-- Generator: Sketch 53.2 (72643) - https://sketchapp.com -->
    <title>goal_10_target_10_a</title>
    <desc>Created with Sketch.</desc>
    <g id="goal_10_target_10_a" stroke="none" stroke-width="1" fill="none" fill-rule="evenodd">
        <g id="Group-80" fill-rule="nonzero">
            <rect id="Rectangle" fill="#DD1367" x="-3.62376795e-13" y="-2.13162821e-14" width="94.8" height="94.8"></rect>
            <g id="Group" transform="translate(11.700000, 15.000000)" fill="#FFFFFF">
                <path d="M61.5,57.8 C62.4,56.3 64.9,54.9 67.2,52.6 C69.5,50.3 69.8,49.4 70.4,45.8 C70.9,41.5 71.1,37.2 70.8,32.9 C70.7,32 70.6,30.7 69.8,30.7 C69,30.7 68.8,31.8 68.5,32.6 C68.2,33.4 68,37.9 67.7,40 C67.1,42.4 66.1,44.7 64.7,46.8 C64.1,47.7 61.7,50.3 61.2,50.2 C60.7,50.1 60.9,49.4 61.2,49 C61.5,48.6 63.7,46.2 64.8,44.7 C65.9,43.2 65.7,41.7 64.9,41.1 C64.2,40.7 63.6,41.9 61.9,43.6 C60.2,45.3 58.3,47 54.9,50 C52.5,52.2 51.3,55.4 51.7,58.6 C51.8,59.3 51.1,64.3 50.3,70 L60.5,70 C60.3,66.4 60.1,63.5 60.1,63.2 C59.9,61.4 60.5,59.5 61.5,57.8 Z" id="Path"></path>
                <path d="M19.8,58.7 C20.2,55.5 19,52.3 16.6,50.1 C13.2,47.1 11.3,45.3 9.6,43.7 C7.9,42.1 7.3,40.8 6.6,41.2 C5.7,41.7 5.6,43.2 6.7,44.8 C7.8,46.4 9.9,48.6 10.3,49.1 C10.7,49.6 10.9,50.1 10.3,50.3 C9.7,50.5 7.4,47.8 6.8,46.9 C5.4,44.8 4.4,42.5 3.8,40.1 C3.4,37.9 3.2,33.3 2.9,32.7 C2.6,32.1 2.4,30.8 1.6,30.8 C0.8,30.8 0.7,32.1 0.6,33 C0.3,37.3 0.4,41.6 1,45.9 C1.6,49.5 1.9,50.3 4.2,52.7 C6.5,55.1 9,56.4 9.9,57.9 C10.9,59.6 11.4,61.4 11.4,63.4 C11.4,63.8 11.2,67.1 11,70.2 L21.2,70.2 C20.5,65.5 19.8,59.8 19.8,58.7 Z" id="Path"></path>
                <path d="M57.8,19.6 C57.8,19 57.3,18.6 56.7,18.6 C56.1,18.6 55.7,18.6 55.1,18.6 C54.5,18.6 53.9,18.4 53.8,17.8 C53.6,16.7 53.2,15.7 52.8,14.7 C52.6,14.1 52.7,13.5 53.2,13.1 C53.7,12.7 54.1,12.3 54.6,11.9 C55,11.6 55.2,11 54.9,10.5 C54.2,9.3 53.4,8.2 52.4,7.2 C52,6.7 51.4,6.7 50.9,7 L50.9,7 C50.4,7.3 50,7.6 49.6,7.9 C49.2,8.3 48.5,8.4 48.1,8 C47.1,7.3 46.1,6.5 45.4,6.1 C44.9,5.8 44.6,5.2 44.8,4.6 C45,4 45.1,3.5 45.2,2.9 C45.4,2.4 45.1,1.8 44.6,1.6 C43.3,1 42,0.6 40.6,0.4 C40,0.3 39.5,0.6 39.3,1.2 C39.1,1.8 38.9,2.2 38.8,2.7 C38.7,3.3 38.2,3.7 37.6,3.7 L34,3.7 C33.4,3.8 32.8,3.5 32.6,2.9 C32.4,2.3 32.2,1.8 31.9,1.2 C31.7,0.7 31.2,0.4 30.6,0.5 C29.2,0.8 27.9,1.2 26.6,1.8 C26.1,2 25.8,2.6 26,3.2 C26,3.2 26,3.2 26,3.2 L26,3.2 C26.2,3.8 26.3,4.2 26.5,4.8 C26.8,5.3 26.6,6 26.2,6.3 C25.3,6.9 24.4,7.6 23.6,8.3 C23.1,8.7 22.5,8.7 22,8.4 C21.5,8.1 21,7.8 20.5,7.5 C20,7.2 19.4,7.3 19.1,7.7 C18.2,8.7 17.4,9.9 16.8,11.1 C16.5,11.6 16.6,12.3 17.1,12.6 C17.1,12.6 17.1,12.6 17.1,12.6 L17.1,12.6 C17.6,13 17.9,13.3 18.4,13.6 C18.9,13.9 19.2,14.5 19,15 C18.8,15.6 18.2,17.5 18,18.1 C17.9,18.7 17.3,19.1 16.7,19.1 C16.1,19.1 15.5,19.2 14.9,19.2 C14.4,19.3 14,19.7 13.9,20.2 C13.7,21.6 13.8,23 14,24.4 C14,25 14.5,25.4 15.1,25.4 C15.1,25.4 15.1,25.4 15.1,25.4 L15.1,25.4 C15.7,25.4 16.1,25.4 16.7,25.5 C17.3,25.6 17.9,25.7 18,26.3 C18.3,27.4 18.6,28.4 19,29.4 C19.2,30 19.1,30.6 18.6,31 C18.1,31.4 17.7,31.7 17.2,32.2 C16.8,32.5 16.7,33.1 16.9,33.6 C17.6,34.8 18.4,35.9 19.4,36.9 C19.8,37.4 20.4,37.4 20.9,37.1 L20.9,37.1 C21.4,36.8 21.8,36.5 22.2,36.2 C22.6,35.8 23.3,35.7 23.8,36.1 C24.3,36.5 25.8,37.6 26.5,38 C27,38.3 27.3,38.9 27.1,39.5 C26.9,40.1 26.8,40.6 26.7,41.2 C26.5,41.7 26.8,42.3 27.3,42.5 C28.6,43.1 29.9,43.5 31.3,43.7 C31.9,43.8 32.5,43.5 32.6,42.9 C32.8,42.3 33,41.9 33.1,41.4 C33.2,40.8 33.7,40.4 34.3,40.4 L37.6,40.4 C38.2,40.3 38.8,40.7 39,41.3 C39.2,41.9 39.4,42.4 39.7,43 C39.9,43.5 40.4,43.8 41,43.7 C42.4,43.4 43.7,43 45,42.4 C45.6,42.2 45.8,41.5 45.6,41 C45.6,41 45.6,41 45.6,41 L45.6,40.9 C45.4,40.3 45.3,39.9 45.1,39.3 C44.8,38.8 45,38.1 45.4,37.8 C45.9,37.4 47.5,36.3 48,35.8 C48.5,35.4 49.1,35.4 49.6,35.7 C50.1,36 50.6,36.3 51.1,36.6 C51.6,36.9 52.2,36.8 52.5,36.4 C53.4,35.4 54.2,34.2 54.9,33 C55.2,32.5 55.1,31.9 54.6,31.5 C54.6,31.5 54.6,31.5 54.6,31.5 L54.6,31.5 C54.1,31.1 53.8,30.8 53.3,30.5 C52.8,30.2 52.5,29.6 52.7,29.1 C52.9,28.5 53.5,26.7 53.7,26 C53.9,25.4 54.4,25 55,25 C55.6,25 56.2,24.9 56.8,24.9 C57.3,24.8 57.7,24.4 57.8,23.9 C58,22.4 58,21 57.8,19.6 Z M35.8,35.8 C28.3,35.8 22.2,29.6 22.2,22.1 C22.2,14.6 28.4,8.5 35.9,8.5 C43.4,8.5 49.5,14.7 49.5,22.2 C49.5,29.7 43.4,35.8 35.8,35.8 C35.8,35.8 35.8,35.8 35.8,35.8 Z" id="Shape"></path>
                <path d="M25.8,18.2 C26.1,18.4 26.3,18.2 26.5,18 C26.6,17.9 26.6,17.7 26.5,17.5 C26.4,17.3 26.7,17.2 26.8,17.2 C27.1,17 27.4,16.9 27.7,16.7 C28.3,16.5 28.9,16.5 29.5,16.7 C29.9,16.9 30.4,16.8 30.7,16.5 C30.9,16.2 31.2,16 31.6,15.8 C31.8,15.7 31.2,15.1 30.7,15.8 C30.2,16.5 29.9,16.5 29.7,16.5 C29.5,16.5 28,16 27.9,15.6 C27.8,15.2 28.4,14.8 28.9,14.6 C29.6,14.4 30.4,14.3 31.2,14.3 C31.9,14.1 32.9,13.8 33.3,14.1 C33.7,14.4 31.3,15 32.1,15.4 C32.4,15.6 33.7,14.7 34.1,14.4 C35.1,13.9 33.1,13.7 33.4,12.6 C33.7,11.5 31,11.8 29.6,11.9 C28.9,12.3 28.3,12.8 27.7,13.3 C27.9,13.3 28,13.4 28.1,13.5 C28.1,13.8 28.1,14 27.9,14.3 C27.6,14.6 27.1,14.8 26.6,14.9 C26.5,14.9 26.4,14.8 26.4,14.8 C26.2,15.1 26,15.4 25.8,15.7 C26.1,15.5 26.4,15.4 26.7,15.4 C27,15.4 27.4,15.5 27.5,15.7 C27.6,15.9 26.7,16.3 26.6,16.4 C26.2,16.8 25.5,17.6 25.1,17.6 C25,17.6 24.9,17.6 24.8,17.6 C24.7,17.9 24.6,18.1 24.5,18.4 C24.9,18.1 25.3,18.1 25.8,18.2 Z" id="Path"></path>
                <path d="M45.6,21.5 C45.2,21.8 44.8,21.9 44.3,22 C43.9,22.3 43.6,22.9 43.7,23.5 C43.8,24 44.9,25.2 44.1,25.2 C43.3,24.8 42.7,24.3 42.2,23.6 C42,22.9 41.7,22.3 41.5,21.8 C41.4,21.4 41,21.2 40.6,21.4 C40.6,21.4 40.6,21.4 40.6,21.4 C40.5,21.4 40.5,21.5 40.4,21.5 C40,21.8 40.5,22.1 40.2,22.7 C39.9,23.3 39.7,23.9 39.2,23.4 C38,22 36.3,22.7 36.1,21.2 C36,20.4 35.3,20.5 34.7,20 C34.1,19.5 33.8,19.3 33.7,19.6 C33.6,19.9 35.5,21.4 35.7,21.8 C35.9,22.4 35.1,22.9 34.5,23 C33.9,23.1 33.6,22.6 33,22 C32.4,21.4 32.2,21 32.2,21.5 C32.2,22.3 32.6,23 33.3,23.5 C33.8,23.8 34.3,24 34.2,24.5 C34.1,25 34.2,24.7 33.7,25.3 C33.2,25.6 33,26.2 33.1,26.8 C33.1,27.3 33,27.8 32.8,28.2 C32.7,28.8 32.4,28.3 32.2,29.2 C32.1,29.8 31.8,30.3 31.4,30.7 C30.9,31.1 30.4,31.3 29.8,31.3 C29.3,31.3 29.2,29.8 29.2,29 C29.2,28.7 28.8,29.5 28.7,27.9 C28.6,26.9 27.9,28 27.9,27.3 C27.9,26.6 27.5,26.8 27.2,26.3 C26.9,25.8 26.4,26.3 26,26.5 C25.6,26.7 25.7,26.8 25.1,26.6 L25.1,26.6 C26.5,29.9 29.3,32.5 32.8,33.5 C32.6,33.4 32.5,33.1 32.7,32.9 C33.2,32 34.1,31.5 35.1,31.5 C37.1,31.3 39.6,32.8 40,32.5 C40.4,32.2 41.2,31.2 42.5,31.2 C42.9,31.2 43.3,31.3 43.6,31.5 C44,31.2 44.4,30.9 44.8,30.5 C44.7,30.5 44.5,30.4 44.4,30.4 C43.7,30.1 43.8,30.6 43.5,30.5 C43.2,30.4 43.9,29.6 42.9,30.3 C41.9,31 42.2,30.2 41.8,29.1 C41.5,28.1 42.1,27 43.1,26.5 C43.8,26.3 44.5,26.1 45.3,26 C46.7,25.6 47.1,24.8 47.3,25.3 L47.4,25.6 C47.5,25.8 47.6,26.1 47.6,26.3 C47.8,25.7 48,25.1 48.1,24.5 C47.8,24.4 46.5,22.5 47.5,21.3 C47.7,21.1 47.1,20.5 47.3,20.5 C47.8,20.5 48.2,20.8 48.3,21.2 C48.3,20.6 48.2,19.9 48,19.3 C48,19.4 48,19.6 48,19.7 C47.8,20.1 47.4,20.3 47,20.1 C46.8,20 46.7,19.9 46.6,19.8 C46.5,19.6 46,19.1 46,20 C46,20.9 46.3,21 45.6,21.5 Z M34.3,26.3 C34.1,26.6 33.7,28.6 33.4,28.4 C33.1,28.2 33.5,26.1 33.6,25.9 C34,25 35,25 34.3,26.3 Z M39.2,23.9 C38.8,24.1 38.4,24.1 38,23.8 C37.7,23.6 38.2,23.2 38.4,23.2 C38.8,23.2 39.4,23.7 39.2,23.9 L39.2,23.9 Z M44.2,23.5 C44.1,23.2 44.4,23 44.6,23.2 C44.9,23.3 45.1,23.6 45.2,23.9 C45.2,24.1 44.7,24.1 44.6,24 C44.5,23.9 44.3,23.8 44.2,23.5 L44.2,23.5 Z M45.8,25 C45.4,25.2 45,25.1 44.6,24.9 C44.3,24.7 44.8,24.3 45,24.3 C45.4,24.3 46,24.8 45.8,25 L45.8,25 Z" id="Shape"></path>
                <path d="M25.3,19.6 C26,19.7 26.6,19.9 27.3,20.1 C28,20.4 29.1,21 29.7,20.7 C30.2,20.5 30.5,20.3 30.5,19.9 C30.5,19.5 30.1,19.3 29.6,19.6 C29.4,19.7 29.1,18.9 28.8,18.9 C28.5,18.9 29.2,19.9 28.9,19.9 C28.6,19.9 28.2,18.9 28.1,18.7 C28,18.5 27.6,18.1 27.3,18.4 C26.6,19.1 25.4,19 25.2,19.2 C25.1,19.3 25,19.3 25,19.3 C24.5,19.5 24.4,19 24.4,18.6 C24.2,19.3 24,20 24,20.7 L24.1,20.6 C24.5,19.9 24.6,19.8 24.7,19.7 C24.8,19.6 25,19.6 25.2,19.5 L25.3,19.6 Z" id="Path"></path>
            </g>
        </g>
    </g>
</svg>