<?xml version="1.0" encoding="UTF-8"?>
<svg width="95px" height="95px" viewBox="0 0 95 95" version="1.1" xmlns="http://www.w3.org/2000/svg" xmlns:xlink="http://www.w3.org/1999/xlink">
    <!-- Generator: Sketch 53.2 (72643) - https://sketchapp.com -->
    <title>goal_14_target_14_a</title>
    <desc>Created with Sketch.</desc>
    <g id="goal_14_target_14_a" stroke="none" stroke-width="1" fill="none" fill-rule="evenodd">
        <g id="Group-117" fill-rule="nonzero">
            <rect id="Rectangle" fill="#0A97D9" x="-3.62376795e-13" y="-2.13162821e-14" width="94.8" height="94.8"></rect>
            <g id="Group" transform="translate(8.700000, 10.000000)" fill="#FFFFFF">
                <g transform="translate(16.000000, 0.000000)" id="Path">
                    <polygon points="0.2 38.3 2.5 46.4 4.8 38.3"></polygon>
                    <path d="M4.7,3.2 C4.7,1.9 3.7,0.9 2.4,0.9 C1.1,0.9 0.1,1.9 0.1,3.2 L0.1,37.2 L4.7,37.2 L4.7,3.2 Z"></path>
                </g>
                <path d="M63.9,42.5 L50.2,16.8 L50.2,3.7 L51.8,3.7 C52.2,3.7 52.6,3.3 52.6,2.9 C52.6,2.9 52.6,2.9 52.6,2.9 L52.6,1.7 C52.6,1.3 52.2,0.9 51.8,0.9 L39.8,0.9 C39.4,0.9 39,1.3 39,1.7 L39,2.9 C39,3.3 39.3,3.7 39.8,3.7 C39.8,3.7 39.8,3.7 39.8,3.7 L41.4,3.7 L41.4,16.8 L27.8,42.5 C27.1,43.7 27.5,45.3 28.7,46.1 C29.1,46.3 29.6,46.5 30,46.5 L61.6,46.5 C63,46.5 64.2,45.4 64.2,43.9 C64.2,43.4 64.1,42.9 63.9,42.5 Z M48,39.9 C48,38.6 49.1,37.6 50.3,37.6 C51.5,37.6 52.6,38.7 52.6,39.9 C52.6,41.2 51.5,42.2 50.3,42.2 L50.3,42.2 C49.1,42.3 48,41.2 48,39.9 Z M54.1,36.6 C53.3,36.6 52.7,36 52.7,35.2 C52.7,34.4 53.3,33.8 54.1,33.8 C54.9,33.8 55.5,34.4 55.5,35.2 C55.5,36 54.9,36.7 54.1,36.6 C54.1,36.7 54.1,36.7 54.1,36.6 L54.1,36.6 Z M42.7,17.1 L42.7,3.7 L49,3.7 L49,17.1 L54,26.4 C52.9,28.1 49.5,32.9 45.5,33.8 C42.2,34.5 36.7,32.5 34.9,31.9 L42.7,17.1 Z" id="Shape"></path>
                <g transform="translate(0.000000, 54.000000)" id="Path">
                    <path d="M76.8,2.9 L76.8,2.9 L76.5,3 C71,6 64.2,5 59.7,0.7 C59.6,0.6 59.5,0.5 59.3,0.5 C59.1,0.5 59.1,0.6 58.9,0.7 C56.9,2.3 47.5,8.6 39.1,0.8 L39,0.7 C38.9,0.6 38.8,0.6 38.7,0.6 C38.6,0.6 38.5,0.6 38.4,0.7 L38.3,0.8 C30,8.6 20.6,2.2 18.5,0.7 C18.4,0.6 18.3,0.5 18.1,0.5 C17.9,0.5 17.8,0.6 17.7,0.7 C13.2,5.1 6.4,6 0.9,3.1 L0.7,3 L0.6,3 C0.3,3 0.1,3.2 0.1,3.5 L0.1,3.5 L0.1,6.8 C0.1,6.9 0.2,7 0.2,7.1 C8.1,14 15.6,7.5 17.3,5.8 C17.4,5.7 17.4,5.7 17.5,5.6 C17.6,5.6 17.6,5.5 17.7,5.5 C17.8,5.5 17.9,5.6 18,5.6 C26.9,14.1 36.3,7.2 38.2,5.6 L38.4,5.4 C38.4,5.3 38.5,5.3 38.6,5.3 C38.7,5.3 38.7,5.3 38.8,5.4 L39,5.6 C41,7.2 50.3,14.1 59.2,5.6 L59.2,5.6 C59.3,5.5 59.4,5.5 59.5,5.5 C59.6,5.5 59.7,5.5 59.8,5.6 C59.9,5.6 59.9,5.7 59.9,5.7 C61.6,7.4 69.1,13.8 77,7 C77.1,6.9 77.1,6.8 77.1,6.7 L77.1,3.4 C77.3,3.1 77,2.9 76.8,2.9"></path>
                    <path d="M76.8,12.9 L76.8,12.9 L76.5,13 C74.1,14.2 66.5,17.1 59.7,10.6 C59.6,10.5 59.5,10.4 59.3,10.4 C59.1,10.4 59.1,10.5 58.9,10.6 C56.9,12.2 47.5,18.5 39.1,10.7 L39,10.6 C38.9,10.5 38.8,10.5 38.7,10.5 C38.6,10.5 38.5,10.5 38.4,10.6 L38.3,10.7 C30,18.5 20.6,12.1 18.5,10.6 C18.4,10.5 18.3,10.4 18.1,10.4 C17.9,10.4 17.8,10.5 17.7,10.6 C10.9,17.1 3.3,14.2 0.9,13 C0.8,13 0.7,12.9 0.7,12.9 C0.7,12.9 0.6,12.9 0.6,12.9 C0.3,12.9 0.1,13.1 0.1,13.4 L0.1,13.4 L0.1,16.7 C0.1,16.8 0.2,16.9 0.2,17 C8.1,23.9 15.6,17.4 17.3,15.7 C17.3,15.6 17.4,15.6 17.5,15.5 C17.6,15.5 17.6,15.4 17.7,15.4 C17.8,15.4 18,15.5 18,15.6 C26.9,24.1 36.3,17.2 38.2,15.6 L38.4,15.4 C38.4,15.4 38.5,15.3 38.6,15.3 C38.7,15.3 38.7,15.3 38.8,15.4 L39,15.6 C41,17.2 50.3,24.1 59.2,15.6 L59.2,15.6 C59.3,15.5 59.4,15.5 59.5,15.5 C59.6,15.5 59.7,15.5 59.8,15.6 C59.9,15.6 59.9,15.7 59.9,15.7 C61.6,17.4 69.1,23.8 77,17 C77.1,16.9 77.1,16.8 77.1,16.7 L77.1,13.4 C77.3,13.1 77,12.9 76.8,12.9"></path>
                </g>
            </g>
        </g>
    </g>
</svg>