<?xml version="1.0" encoding="UTF-8"?>
<svg width="95px" height="95px" viewBox="0 0 95 95" version="1.1" xmlns="http://www.w3.org/2000/svg" xmlns:xlink="http://www.w3.org/1999/xlink">
    <!-- Generator: Sketch 53.2 (72643) - https://sketchapp.com -->
    <title>goal_8_target_8_6</title>
    <desc>Created with Sketch.</desc>
    <g id="goal_8_target_8_6" stroke="none" stroke-width="1" fill="none" fill-rule="evenodd">
        <g id="Group-58" fill-rule="nonzero">
            <rect id="Rectangle" fill="#A21942" x="-3.62376795e-13" y="-2.13162821e-14" width="94.8" height="94.8"></rect>
            <g id="Group" transform="translate(5.700000, 21.000000)" fill="#FFFFFF">
                <g transform="translate(58.000000, 0.000000)" id="Path">
                    <path d="M16.7,6.6 C16.7,4.2 14.8,2.3 12.5,2.3 C10.2,2.3 8.2,4.2 8.2,6.5 C8.2,8.8 10.1,10.8 12.4,10.8 L12.4,10.8 C14.8,10.9 16.7,9 16.7,6.6 Z"></path>
                    <path d="M3.8,28.9 L6,21.5 L2.8,19.8 L0.3,27.8 C0.3,27.8 -0.3,29.9 1.5,30.4 C3.3,30.9 3.8,28.9 3.8,28.9 Z"></path>
                    <path d="M17.6,18.7 C18.2,18.5 18.3,19.3 18.3,19.3 L18.7,20.7 L21.9,19 L21.1,16.3 C21.1,16.3 19.8,12.9 17,12.9 L8,12.9 C5.2,12.9 3.9,16.2 3.9,16.2 L3.1,18.7 L6.3,20.4 L6.7,19.2 C6.7,19.2 6.9,18.5 7.4,18.6 C7.9,18.7 7.7,19.6 7.7,19.6 L2.7,37.6 L7.3,37.6 L7.3,50.5 C7.2,51.7 8.1,52.8 9.4,52.9 C10.6,53 11.7,52.1 11.8,50.8 C11.8,50.7 11.8,50.6 11.8,50.5 L11.8,37.7 L13.1,37.7 L13.1,50.6 C13.1,51.8 14.1,52.8 15.3,52.8 C16.5,52.8 17.5,51.8 17.5,50.6 L17.5,37.7 L22.1,37.7 L17.1,19.7 C17.2,19.7 17,18.9 17.6,18.7 Z"></path>
                    <path d="M24.6,27.8 L22.2,20 L19,21.7 L21.1,28.9 C21.1,28.9 21.6,31 23.4,30.4 C25.2,29.8 24.6,27.8 24.6,27.8 Z"></path>
                    <path d="M7.8,5.2 L7.3,5.2 C8.1,2.3 11.1,0.6 13.9,1.4 C15.7,1.9 17.2,3.3 17.7,5.2 L17.1,5.2 L17.1,8.1 L18,8.1 C17.8,9.1 17.2,9.9 16.5,10.6 C16.3,10.4 16.1,10.3 15.8,10.4 L14.3,11 C14,11.1 13.9,11.4 14,11.7 L14.1,12.1 C14.2,12.4 14.5,12.5 14.8,12.4 L16.4,11.8 C16.7,11.7 16.8,11.4 16.7,11.1 L16.7,11.1 L16.6,10.8 C17.4,10.1 18,9.1 18.2,8 L19.1,8 L19.1,5.1 L18.2,5.1 C17.4,1.9 14.2,1.11022302e-16 11.1,0.8 C9,1.3 7.3,3 6.8,5.1 L5.9,5.1 L5.9,8 L7.8,8 L7.8,5.2 Z"></path>
                </g>
                <g transform="translate(0.000000, 1.000000)">
                    <path d="M31.3,26.2 L27.7,14.4 C27.7,14.4 26.4,11 23.5,11 L21.8,11 L18.6,15.7 L15.7,11 L14.2,11 C11.3,11 10,14.4 10,14.4 L6.4,26.2 C6.3,26.7 6.3,27.2 6.4,27.8 L6,27.8 C5.4,27.8 5,28.2 5,28.8 L5,29.6 L1.7,29.6 C1.1,29.6 0.7,30 0.7,30.6 L0.7,32.4 C0.7,33.5 1.6,34.3 2.6,34.3 L2.6,34.3 L6.3,34.3 L6.3,33.6 C6.3,33.3 6.5,33.1 6.8,33.1 L7.7,33.1 C8,33.1 8.2,33.3 8.2,33.6 L8.2,33.6 L8.2,34.3 L12,34.3 C12.9,34.3 13.7,33.7 13.9,32.9 L13.9,34.3 C13.4,34.9 12.8,35.3 12,35.3 L8.3,35.3 L8.3,36 C8.3,36.3 8.1,36.5 7.8,36.5 L7.8,36.5 L6.9,36.5 C6.8,36.5 6.8,36.5 6.7,36.5 C6.5,36.4 6.4,36.3 6.4,36.1 L6.4,35.3 L2.7,35.3 C2.3,35.3 1.9,35.2 1.5,34.9 C1.4,34.8 1.2,34.7 1.1,34.6 C1,34.5 0.9,34.4 0.8,34.3 C0.8,34.3 0.8,34.2 0.7,34.2 L0.7,39 C0.7,39.6 1.1,40 1.7,40 L13,40 C13.3,40 13.5,39.9 13.7,39.7 L13.7,49.7 C13.7,51 14.7,52 16,52 C17.3,52 18.3,51 18.3,49.7 L18.3,36.3 L19.6,36.3 L19.6,49.5 C19.7,50.8 20.8,51.7 22,51.6 C23.1,51.5 24,50.6 24.1,49.5 L24.1,36.3 L28.8,36.3 L23.7,17.8 C23.7,17.8 23.5,17 24.1,16.8 C24.7,16.6 24.8,17.4 24.8,17.4 L27.7,27.2 C27.7,27.2 28.3,29.3 30.1,28.8 C31.9,28.3 31.3,26.2 31.3,26.2 Z M8.9,29.5 L5.8,29.5 L5.8,28.7 C5.8,28.6 5.9,28.5 6,28.5 L7,28.5 C7.2,28.7 7.4,28.8 7.7,28.9 C8.1,29 8.6,29 9,28.8 L8.9,29.5 Z M14,17.8 L10.8,29.5 L9.6,29.5 L9.6,28.7 C9.6,28.6 9.6,28.4 9.5,28.3 C9.7,28 9.9,27.7 10,27.3 L13,17.5 C13,17.5 13.1,16.7 13.7,16.9 C14.3,17.1 14,17.8 14,17.8 Z" id="Shape"></path>
                    <path d="M11.4,4.3 C11.6,3.9 11.9,3.3 13.3,3.1 C13.6,3.1 13.8,3 14.1,2.9 C14.3,2.5 14.6,2.1 14.9,1.7 C14.9,1.6 14.9,1.5 14.9,1.5 C14.8,0.9 14.2,0.2 12.8,0.8 C11.1,1.6 11.3,4 11.3,4 C11.3,4.2 11.3,4.4 11.4,4.3 Z" id="Path"></path>
                    <path d="M23.4,2.9 C23.6,3 23.9,3.1 24.2,3.2 C25.5,3.4 25.9,4 26.1,4.4 C26.1,4.5 26.2,4.3 26.2,4.1 C26.2,4.1 26.4,1.6 24.7,0.9 C23.4,0.3 22.7,1 22.6,1.6 C22.6,1.7 22.6,1.8 22.6,1.9 C22.9,2.1 23.2,2.5 23.4,2.9 Z" id="Path"></path>
                    <path d="M18.7,10.1 C21.2,10.1 23.3,8 23.3,5.5 C23.3,3 21.2,0.9 18.7,0.9 C16.2,0.9 14.1,3 14.1,5.5 C14.1,8 16.1,10.1 18.7,10.1 L18.7,10.1 Z" id="Path"></path>
                    <path d="M7,33.6 L7.8,33.6 C7.9,33.6 8,33.7 8,33.8 L8,35.8 C8,35.9 7.9,36 7.8,36 L7,36 C6.9,36 6.8,35.9 6.8,35.8 L6.8,33.8 C6.8,33.7 6.9,33.6 7,33.6 Z" id="Path"></path>
                </g>
                <g transform="translate(34.000000, 0.000000)" id="Path">
                    <path d="M5.6,50.4 C5.6,51.7 6.7,52.8 8,52.8 C9.3,52.8 10.4,51.7 10.4,50.4 L10.4,48.6 L5.6,48.6 C5.6,48.6 5.6,50.4 5.6,50.4 Z"></path>
                    <path d="M11.8,50.4 C11.7,51.7 12.7,52.9 14,53 C15.3,53.1 16.5,52.1 16.6,50.8 C16.6,50.7 16.6,50.6 16.6,50.5 L16.6,48.7 L11.8,48.7 L11.8,50.4 L11.8,50.4 Z"></path>
                    <path d="M6.7,17 L6.7,12.2 L6.3,12.2 L6,12.2 C3,12.5 0.8,15 0.8,17.9 L0.8,29.9 C0.7,30.8 1.4,31.6 2.3,31.7 C3.2,31.8 4,31.1 4.1,30.2 C4.1,30.1 4.1,30 4.1,29.9 L4.1,19.6 C4.1,19.2 4.2,18.7 4.9,18.7 L6.7,18.7 L6.7,17 Z"></path>
                    <polygon points="8.6 16 13.7 16 13.7 12.2 11.1 12.2 8.6 12.2"></polygon>
                    <path d="M15,19.8 L14.5,19.8 L14.5,17 L7.8,17 L7.8,19.7 L5.6,19.7 L5.6,47.4 L10.4,47.4 L10.4,32.4 C10.4,32 10.6,31.7 11,31.7 L11.1,31.7 L11.1,31.7 C11.5,31.7 11.8,31.9 11.8,32.3 L11.8,32.4 L11.8,47.5 L16.6,47.5 L16.6,19.8 L15,19.8 Z"></path>
                    <path d="M16.1,12.2 L15.8,12.2 L15.6,12.2 L15.6,18.7 L17.2,18.7 C17.9,18.7 18,19.2 18,19.6 L18,29.9 C17.9,30.8 18.6,31.6 19.5,31.7 C20.4,31.8 21.2,31.1 21.3,30.2 C21.3,30.1 21.3,30 21.3,29.9 L21.3,17.9 C21.3,14.9 19.1,12.5 16.1,12.2 Z"></path>
                    <path d="M14.1,16.3 C14.1,16.6 14.3,16.8 14.6,16.8 C14.9,16.8 15.1,16.6 15.1,16.3 C15.1,16 14.9,15.8 14.6,15.8 C14.3,15.8 14.1,16 14.1,16.3 Z"></path>
                    <path d="M7.2,16.3 C7.2,16.6 7.4,16.8 7.7,16.8 C8,16.8 8.2,16.6 8.2,16.3 C8.2,16 8,15.8 7.7,15.8 L7.7,15.8 C7.4,15.8 7.2,16 7.2,16.3 Z"></path>
                    <path d="M13.9,5.3 C13.5,5 13.2,4.7 12.6,5 C12.2,5.2 12,5.3 11.5,5.6 C10.6,6 9.6,6.3 8.7,6.4 C8,6.5 7.2,6.6 6.5,6.6 C6.7,9.1 8.9,10.9 11.4,10.7 C13.5,10.5 15.2,8.9 15.4,6.7 C14.9,6.2 14.4,5.7 13.9,5.3 Z"></path>
                    <path d="M6.5,5.6 C7.2,5.6 7.9,5.5 8.6,5.4 C9.5,5.2 10.3,5 11.1,4.6 C11.6,4.4 12,4.2 12.5,4 C12.9,3.7 13.5,3.7 13.8,4.1 C14,4.2 14,4.3 14.1,4.4 L15.3,5.4 C15.4,5.5 15.5,5.6 15.6,5.6 C15.7,5.6 15.7,4.8 15.7,4.4 C15.5,3.3 15,2.2 14.3,1.3 C14.1,1 13.7,0.8 13.3,0.9 C12.7,1 12.7,0.6 12.3,0.3 C11,-0.2 9.5,0.1 8.4,0.9 C7.1,2 6.1,3.3 5.5,4.9 C5.5,5.3 5.9,5.6 6.5,5.6 Z"></path>
                </g>
            </g>
        </g>
    </g>
</svg>