<?xml version="1.0" encoding="UTF-8"?>
<svg width="95px" height="95px" viewBox="0 0 95 95" version="1.1" xmlns="http://www.w3.org/2000/svg" xmlns:xlink="http://www.w3.org/1999/xlink">
    <!-- Generator: Sketch 53.2 (72643) - https://sketchapp.com -->
    <title>goal_11_target_11_2</title>
    <desc>Created with Sketch.</desc>
    <g id="goal_11_target_11_2" stroke="none" stroke-width="1" fill="none" fill-rule="evenodd">
        <g id="Group-84" fill-rule="nonzero">
            <rect id="Rectangle" fill="#FD9D24" x="-3.62376795e-13" y="-2.13162821e-14" width="94.8" height="94.8"></rect>
            <g id="Group" transform="translate(6.700000, 9.000000)" fill="#FFFFFF">
                <g transform="translate(0.000000, 44.000000)">
                    <path d="M66.3,2.1 L69.7,2.1 C70.3,2.1 70.7,1.7 70.7,1.1 C70.7,0.5 70.3,0.1 69.7,0.1 L61.6,0.1 C61,0.1 60.6,0.5 60.6,1.1 C60.6,1.7 61,2.1 61.6,2.1 L64.2,2.1 L62.8,8 L58.9,8 C58.9,8 50.3,8 40.8,21.5 C37.6,25.6 44.1,25.6 44.1,25.6 L81.3,25.6 L81.3,15.6 L73.3,15.6 C72.8,15.6 72.5,15.2 72.5,14.8 L72.5,14.8 L72.5,12.4 C72.5,11.9 72.9,11.6 73.3,11.6 L73.3,11.6 L81.3,11.6 L81.3,8 L64.9,8 L66.3,2.1 Z M58.9,12.1 C58.9,12.1 57.8,14.3 57.5,15 C57.2,15.7 56.9,15.6 56.9,15.6 L50.4,15.6 C48.9,15.6 49,15.5 49.4,15 C50.6,13.5 52.2,12.3 53.9,11.5 L58.5,11.5 C58.9,11.4 59,11.7 58.9,12.1 L58.9,12.1 Z M65.4,11.5 L69.5,11.5 C70,11.5 70.3,11.9 70.3,12.3 L70.3,12.3 L70.3,21.9 C70.3,22.4 69.9,22.7 69.5,22.7 L65.4,22.7 C64.9,22.7 64.6,22.3 64.6,21.9 L64.6,12.3 C64.5,11.8 64.9,11.4 65.4,11.5 L65.4,11.5 L65.4,11.5 Z" id="Shape"></path>
                    <path d="M28.1,14.1 C27.3,14.1 26.5,14.3 25.8,14.6 L24.5,12.5 L25.5,10.7 L26.7,10.8 C27.2,10.8 27.4,10.7 27.4,10.3 L27.4,10 C27.4,9.7 27.2,9.4 26.9,9.4 C26.9,9.4 26.8,9.4 26.8,9.4 L22.5,9.4 C22.3,9.4 22.2,9.5 22.2,9.7 C22.2,9.7 22.2,9.7 22.2,9.7 L22.2,10 C22.2,10.2 22.3,10.3 22.5,10.3 L23.8,10.4 L23.3,11.4 L15.6,10.6 L15.6,9.4 C15.6,9.1 15.4,8.9 15.2,8.7 L12.9,7.4 L12.9,7.4 C12.8,7.3 12.6,7.3 12.5,7.3 C12.1,7.3 11.7,7.7 11.7,8.1 C11.7,8.1 11.7,8.1 11.7,8.1 C11.7,8.4 11.9,8.7 12.1,8.8 L12.1,8.8 L14,9.9 L14,10.9 L14,10.9 L12.5,14.2 C11.9,14 11.3,13.9 10.7,13.9 C7.5,13.9 4.9,16.5 4.9,19.7 C4.9,22.9 7.5,25.5 10.7,25.5 C13.9,25.5 16.5,22.9 16.5,19.7 C16.5,17.8 15.6,16 14,14.9 L14.9,13 L19.2,20 C19.3,20.2 19.6,20.4 19.9,20.4 L22.6,20.5 C23,23.7 25.9,25.9 29,25.6 C32.2,25.2 34.4,22.3 34.1,19.2 C33.7,16.3 31.3,14.1 28.3,14.1 L28.1,14.1 Z M14.8,19.7 C14.8,22 12.9,23.9 10.6,23.9 C8.3,23.9 6.4,22 6.4,19.7 C6.4,17.4 8.3,15.5 10.6,15.5 C10.6,15.5 10.6,15.5 10.6,15.5 C11,15.5 11.3,15.6 11.7,15.7 L10,19.4 L10,19.4 C10,19.5 9.9,19.6 9.9,19.7 C9.9,20.1 10.3,20.5 10.7,20.5 C11,20.5 11.3,20.3 11.4,20 L11.4,20 L11.4,20 L11.4,20 L13.1,16.4 C14.1,17.2 14.7,18.5 14.8,19.7 Z M24.4,15.4 C23.3,16.3 22.6,17.5 22.4,18.9 L21,18.9 L23.6,14.1 L24.4,15.4 Z M25.3,16.8 L26.7,19 L24,19 C24.2,18.2 24.6,17.4 25.3,16.8 Z M22.3,13 L19.6,18 L16.1,12.3 L22.3,13 Z M28.1,24.1 C26.1,24.1 24.3,22.6 24,20.6 L28.1,20.7 L28.1,20.7 C28.5,20.7 28.9,20.3 28.9,19.9 C28.9,19.7 28.9,19.6 28.8,19.5 L26.6,16 C28.8,15.2 31.2,16.2 32,18.4 C32.8,20.6 31.8,23 29.6,23.8 C29.2,24 28.6,24.1 28.1,24.1 L28.1,24.1 Z" id="Shape"></path>
                    <path d="M0.7,28.1 L80.7,28.1 C81,28.1 81.3,28.4 81.3,28.7 L81.3,32.3 C81.3,32.6 81,32.9 80.7,32.9 L0.7,32.9 C0.4,32.9 0.1,32.6 0.1,32.3 L0.1,28.7 C0.1,28.4 0.4,28.1 0.7,28.1 Z" id="Path"></path>
                </g>
                <g>
                    <g transform="translate(0.000000, 5.000000)" id="Shape">
                        <path d="M35.4,11.2 L33.3,1.8 C33.3,1.3 32.8,0.9 32.3,0.9 L16.6,1 L7.9,1 L0.3,1 L0.3,3.9 L6.7,3.9 C7.1,3.9 7.5,4.2 7.5,4.7 L7.5,10 C7.5,10.4 7.2,10.8 6.7,10.8 L0.3,10.8 L0.3,21.6 L12.6,21.6 C12.5,21.2 12.5,20.9 12.5,20.5 L12.5,20.5 C12.7,18 14.8,16.1 17.3,16.3 C19.6,16.5 21.3,18.2 21.5,20.5 L21.5,20.5 C21.5,20.9 21.5,21.3 21.4,21.6 L34,21.6 C34.8,21.6 35.4,21 35.4,20.2 C35.4,20.2 35.4,20.1 35.4,20.1 L35.4,16.6 L35.4,11.2 L35.4,11.2 Z M21.5,10 C21.5,10.4 21.2,10.8 20.7,10.8 C20.7,10.8 20.7,10.8 20.7,10.8 L10.2,10.8 C9.8,10.8 9.4,10.5 9.4,10 L9.4,4.6 C9.4,4.2 9.8,3.8 10.2,3.8 L20.7,3.8 C21.1,3.8 21.5,4.1 21.5,4.6 L21.5,4.6 L21.5,10 Z M28.3,18.2 C28.3,18.7 27.9,19 27.5,19 L27.5,19 L24.5,19 C24,19 23.7,18.6 23.7,18.2 L23.7,4.7 C23.7,4.2 24.1,3.9 24.5,3.9 L27.5,3.9 C28,3.9 28.3,4.3 28.3,4.7 L28.3,4.7 L28.3,18.2 Z M33.5,14.4 L30.8,14.4 C30.5,14.4 30.3,14.2 30.3,13.9 C30.3,13.9 30.3,13.9 30.3,13.8 C30.3,12.9 30.3,4.2 30.3,4.2 C30.3,4.2 30.2,3.8 30.8,3.8 L32.3,3.8 L33.9,11.2 L33.9,13.8 C34,13.8 34,14.4 33.5,14.4 L33.5,14.4 Z"></path>
                        <path d="M16.9,16.7 C14.9,16.7 13.2,18.3 13.2,20.4 C13.2,20.4 13.2,20.4 13.2,20.4 L13.2,20.4 C13.2,22.4 14.9,24.1 16.9,24.1 L16.9,24.1 C18.9,24.1 20.6,22.4 20.6,20.4 L20.6,20.4 C20.6,18.4 18.9,16.7 16.9,16.7 Z M16.9,22.3 C15.8,22.3 15,21.5 15,20.4 C15,19.3 15.8,18.5 16.9,18.5 C18,18.5 18.8,19.3 18.8,20.4 C18.8,20.4 18.8,20.4 18.8,20.4 C18.8,21.5 17.9,22.3 16.9,22.3 C16.9,22.3 16.9,22.3 16.9,22.3 Z"></path>
                    </g>
                    <path d="M77.6,0.1 L76,0.1 C75.9,0.1 75.9,0.1 75.9,0.2 L75.9,1 L70.8,1 L70.8,10 L76,10 L76,29 C76,29.1 76,29.1 76.1,29.1 C76.1,29.1 76.1,29.1 76.1,29.1 L77.6,29.1 C77.7,29.1 77.7,29.1 77.7,29 C77.7,29 77.7,29 77.7,29 L77.7,0.2 C77.7,0.1 77.6,0.1 77.6,0.1 Z" id="Path"></path>
                    <g transform="translate(41.000000, 5.000000)" id="Path">
                        <path d="M8,5.6 C9.1,5.6 10,4.7 10,3.7 C10,3 9.6,2.3 9,2 C9.1,1.9 9.1,1.8 9.1,1.7 C9.1,1.1 8.7,0.7 8.1,0.7 C7.5,0.7 7.1,1.1 7.1,1.7 C7.1,1.8 7.1,1.9 7.2,2 C6.5,2.3 6,3 6,3.7 C6,4.8 6.9,5.6 8,5.6 Z"></path>
                        <path d="M13.6,12.7 L12,7.5 C12,7.5 11.4,6 10.1,6 L5.9,6 C4.6,6 4,7.5 4,7.5 L2.4,12.7 C2.4,12.7 2.2,13.5 2.8,13.8 C2.8,13.8 2.8,13.8 2.8,13.9 L0.9,23.8 C0.9,24 1,24.1 1.1,24.2 L1.1,24.2 C1.2,24.2 1.4,24.1 1.4,24 L3.4,14.1 C3.4,14.1 3.4,14 3.4,14 C3.9,13.9 4.1,13.3 4.1,13.3 L5.4,8.9 C5.4,8.9 5.5,8.6 5.7,8.6 C5.9,8.6 5.9,9 5.9,9 L3.6,17.2 L5.7,17.2 L5.7,23.1 C5.7,23.7 6.2,24.1 6.7,24.1 C7.3,24.1 7.7,23.6 7.7,23.1 L7.7,17.2 L8.3,17.2 L8.3,23.1 C8.3,23.7 8.7,24.1 9.3,24.1 C9.9,24.1 10.3,23.7 10.3,23.1 L10.3,17.2 L12.4,17.2 L10.2,9 C10.2,9 10.1,8.6 10.4,8.6 C10.7,8.6 10.7,8.9 10.7,8.9 L12,13.3 C12,13.3 12.2,14.2 13.1,14 C14,13.8 13.6,12.7 13.6,12.7 Z"></path>
                    </g>
                    <g transform="translate(56.000000, 11.000000)" id="Path">
                        <path d="M7.7,3.7 C8.7,3.7 9.6,2.9 9.6,1.8 C9.6,0.7 8.7,0 7.7,0 C6.7,0 5.8,0.8 5.8,1.9 C5.8,3 6.6,3.7 7.7,3.7 L7.7,3.7 Z"></path>
                        <path d="M15.4,15.2 L14.6,13.7 L14.6,13.7 L12.8,10 C12.6,9.7 12.3,9.5 11.9,9.5 L9.2,9.5 L9.2,6.2 C9.2,5.2 8.9,4.6 8.2,4.4 C7.8,4.3 7.4,4.3 7,4.4 L7,4.4 L7,4.4 L3.9,5.4 L3.8,5.4 L3.7,5.4 L3.7,5.4 C3.5,5.5 3.4,5.6 3.4,5.8 L2.5,8.3 C2.4,8.7 2.6,9.1 3,9.3 C3.4,9.4 3.8,9.2 4,8.8 L4.8,6.6 L6,6.2 L6,6.2 L6,9.7 C6,10.5 6.3,11.3 7.1,11.5 L7.3,11.6 L7.7,11.6 L11.6,11.6 L12.6,13.6 L12.6,13.7 L13,14.4 L13.4,15.1 C13.4,15.1 13.4,15.1 13.4,15.2 L13.4,15.2 L13.8,16 C14.1,16.5 14.6,16.7 15.1,16.4 C15.4,16.1 15.6,15.7 15.4,15.2 Z"></path>
                        <path d="M9.7,13 C9.7,13.1 9.7,13.1 9.7,13.2 C9.7,15.3 8,17 6,17 C3.9,17 2.2,15.3 2.2,13.3 C2.2,12.4 2.5,11.6 3,10.9 L2,10.2 C0.3,12.3 0.6,15.5 2.8,17.2 C4.9,18.9 8.1,18.6 9.8,16.4 C10.5,15.5 10.9,14.3 10.9,13.2 C10.9,13.1 10.9,13.1 10.9,13 L9.7,13 Z"></path>
                    </g>
                    <path d="M0.7,31.5 L80.7,31.5 C81,31.5 81.3,31.8 81.3,32.1 L81.3,35.7 C81.3,36 81,36.3 80.7,36.3 L0.7,36.3 C0.4,36.3 0.1,36 0.1,35.7 L0.1,32.1 C0.1,31.8 0.4,31.5 0.7,31.5 Z" id="Path"></path>
                </g>
            </g>
        </g>
    </g>
</svg>