<?xml version="1.0" encoding="UTF-8"?>
<svg width="95px" height="95px" viewBox="0 0 95 95" version="1.1" xmlns="http://www.w3.org/2000/svg" xmlns:xlink="http://www.w3.org/1999/xlink">
    <!-- Generator: Sketch 53.2 (72643) - https://sketchapp.com -->
    <title>goal_12_target_12_4</title>
    <desc>Created with Sketch.</desc>
    <g id="goal_12_target_12_4" stroke="none" stroke-width="1" fill="none" fill-rule="evenodd">
        <g id="Group-96" fill-rule="nonzero">
            <rect id="Rectangle" fill="#BF8B2E" x="-3.62376795e-13" y="-2.13162821e-14" width="94.8" height="94.8"></rect>
            <g id="Group" transform="translate(7.700000, 8.000000)" fill="#FFFFFF">
                <path d="M57.1,63 L59.9,21.8 C59.9,21.5 59.7,21.2 59.4,21.2 C59.4,21.2 59.4,21.2 59.4,21.2 L20.2,21.2 C19.9,21.2 19.6,21.4 19.6,21.7 C19.6,21.7 19.6,21.7 19.6,21.7 L22.4,63 C22.4,63.3 22.6,63.6 22.9,63.6 L56.5,63.6 C56.8,63.6 57.1,63.3 57.1,63 Z M54.1,60.4 L25.4,60.4 L23,24.4 L56.5,24.4 L54.1,60.4 Z" id="Shape"></path>
                <path d="M59.4,19 C59.7,19 60,18.8 60,18.5 C60,18.5 60,18.5 60,18.5 L60.4,16.2 C60.4,15.9 60.1,15.6 59.8,15.7 L45.6,15.7 L45.6,14 C45.6,13.7 45.4,13.5 45.1,13.5 L34.3,13.5 C34,13.5 33.7,13.7 33.7,14 L33.7,15.7 L19.6,15.7 C19.3,15.7 19,15.9 19,16.2 L19.4,18.5 C19.4,18.8 19.7,19 19.9,19 L59.4,19 Z" id="Path"></path>
                <path d="M36.8,38 C38.5,36.6 41,36.6 42.7,38 C43.1,37.6 43.4,37.2 43.7,36.7 C41.4,34.8 38,34.8 35.7,36.7 C36,37.2 36.3,37.6 36.8,38 Z" id="Path"></path>
                <path d="M44.7,34.4 C44.8,37.1 42.7,39.5 40,39.6 L40,40.3 L40.3,40.4 C41,40.7 41.4,41.5 41.1,42.2 L41.7,42.6 C43.2,40.3 46.3,39.7 48.6,41.2 C50.5,42.4 51.3,44.8 50.6,46.9 L50.8,47 C50.8,46.9 50.8,46.9 50.9,46.8 C52.3,43.1 50.4,39 46.7,37.6 C46.7,37.5 46.7,37.5 46.7,37.4 C47.2,33.5 44.5,29.9 40.6,29.4 C40.6,29.4 40.6,29.4 40.6,29.4 L40.6,29.7 C42.9,30.2 44.6,32.1 44.7,34.4 Z" id="Path"></path>
                <path d="M43.6,49.7 C41.2,48.4 40.2,45.4 41.5,43 L40.9,42.6 C40.8,42.7 40.8,42.7 40.7,42.8 C40.1,43.3 39.2,43.2 38.7,42.6 L38,43 C39.2,45.5 38.2,48.5 35.7,49.7 C33.7,50.7 31.2,50.2 29.7,48.5 L29.5,48.6 L29.6,48.8 C32.1,51.8 36.6,52.3 39.6,49.8 C39.7,49.8 39.7,49.9 39.8,49.9 C42.9,52.3 47.4,51.7 49.8,48.6 C49.8,48.6 49.8,48.6 49.8,48.6 L49.6,48.5 C48.1,50.3 45.7,50.8 43.6,49.7 Z" id="Path"></path>
                <path d="M41.5,46.1 C41.6,46.6 41.8,47.2 42.1,47.7 C44.9,46.6 46.5,43.7 46.1,40.8 C45.5,40.8 45,40.9 44.4,41 C44.8,43.2 43.5,45.3 41.5,46.1 Z" id="Path"></path>
                <path d="M33.4,40.8 C33,43.8 34.6,46.6 37.4,47.7 C37.7,47.2 37.9,46.7 38,46.1 C35.9,45.3 34.7,43.2 35,41 C34.5,40.8 33.9,40.8 33.4,40.8 Z" id="Path"></path>
                <path d="M28.9,46.9 C28.1,44.3 29.5,41.5 32.2,40.6 C34.3,39.9 36.6,40.7 37.8,42.6 L38.4,42.2 C38.4,42.1 38.4,42 38.3,41.9 C38.2,41.1 38.7,40.4 39.5,40.3 C39.5,40.3 39.5,40.3 39.5,40.3 L39.5,39.6 C36.7,39.4 34.7,37 34.9,34.2 C35.1,32 36.7,30.2 38.8,29.7 L38.8,29.4 L38.6,29.4 C34.7,30 32.1,33.7 32.7,37.6 L32.5,37.7 C28.9,39.2 27.1,43.3 28.6,47 L28.9,46.9 Z" id="Path"></path>
                <polygon id="Path" points="6.3 78.3 0.9 78.3 0.9 72.9 3.8 72.9 3.8 75.4 6.3 75.4"></polygon>
                <path d="M66.7,78.3 L58.1,78.3 L58.1,75.4 L66.7,75.4 L66.7,78.3 Z M51.6,78.3 L43,78.3 L43,75.4 L51.6,75.4 L51.6,78.3 Z M36.5,78.3 L27.9,78.3 L27.9,75.4 L36.5,75.4 L36.5,78.3 Z M21.4,78.3 L12.8,78.3 L12.8,75.4 L21.4,75.4 L21.4,78.3 Z" id="Shape"></path>
                <polygon id="Path" points="78.6 78.3 73.1 78.3 73.1 75.4 75.7 75.4 75.7 72.9 78.6 72.9"></polygon>
                <path d="M78.6,66.4 L75.7,66.4 L75.7,57.8 L78.6,57.8 L78.6,66.4 Z M78.6,51.3 L75.7,51.3 L75.7,42.7 L78.6,42.7 L78.6,51.3 Z M78.6,36.2 L75.7,36.2 L75.7,27.6 L78.6,27.6 L78.6,36.2 Z M78.6,21.1 L75.7,21.1 L75.7,12.5 L78.6,12.5 L78.6,21.1 Z" id="Shape"></path>
                <polygon id="Path" points="78.6 6 75.7 6 75.7 3.5 73.1 3.5 73.1 0.6 78.6 0.6"></polygon>
                <path d="M66.7,3.5 L58.1,3.5 L58.1,0.6 L66.7,0.6 L66.7,3.5 Z M51.6,3.5 L43,3.5 L43,0.6 L51.6,0.6 L51.6,3.5 Z M36.5,3.5 L27.9,3.5 L27.9,0.6 L36.5,0.6 L36.5,3.5 Z M21.4,3.5 L12.8,3.5 L12.8,0.6 L21.4,0.6 L21.4,3.5 Z" id="Shape"></path>
                <polygon id="Path" points="3.8 6 0.9 6 0.9 0.6 6.3 0.6 6.3 3.5 3.8 3.5"></polygon>
                <path d="M3.8,66.4 L0.9,66.4 L0.9,57.8 L3.8,57.8 L3.8,66.4 Z M3.8,51.3 L0.9,51.3 L0.9,42.7 L3.8,42.7 L3.8,51.3 Z M3.8,36.2 L0.9,36.2 L0.9,27.6 L3.8,27.6 L3.8,36.2 Z M3.8,21.1 L0.9,21.1 L0.9,12.5 L3.8,12.5 L3.8,21.1 Z" id="Shape"></path>
            </g>
        </g>
    </g>
</svg>