<?xml version="1.0" encoding="UTF-8"?>
<svg width="95px" height="95px" viewBox="0 0 95 95" version="1.1" xmlns="http://www.w3.org/2000/svg" xmlns:xlink="http://www.w3.org/1999/xlink">
    <!-- Generator: Sketch 53.2 (72643) - https://sketchapp.com -->
    <title>goal_2_target_2_5</title>
    <desc>Created with Sketch.</desc>
    <g id="goal_2_target_2_5" stroke="none" stroke-width="1" fill="none" fill-rule="evenodd">
        <g id="Group-13" fill-rule="nonzero">
            <rect id="Rectangle" fill="#DDA63A" x="9.23705556e-14" y="-2.13162821e-14" width="94.8" height="94.8"></rect>
            <g id="Group" transform="translate(13.700000, 13.000000)" fill="#FFFFFF">
                <g transform="translate(26.000000, 13.000000)">
                    <path d="M7.8,19.5 C8.4,19.1 10.5,18 10.5,16.2 C10.5,14 7.7,11.1 7.7,11.1 C7.7,11.1 5,13.9 5,16.2 C5,18 7.8,19.5 7.8,19.5 Z" id="Path"></path>
                    <path d="M9.1,19.7 C7.9,21 8.2,24.1 8.2,24.1 C11.5,23.6 12.2,22.7 12.2,22.7 C14.3,21.2 13.8,16.3 13.8,16.3 C9.8,18.8 9.1,19.7 9.1,19.7 Z" id="Path"></path>
                    <path d="M9.2,26 C7.9,27.4 8.3,30.8 8.3,30.8 C11.8,30.2 12.6,29.2 12.6,29.2 C14.9,27.6 14.4,22.3 14.4,22.3 C9.9,25 9.2,26 9.2,26 Z" id="Path"></path>
                    <path d="M9.1,33.4 C7.8,34.8 8.3,38.3 8.3,38.3 C11.8,37.7 12.8,36.7 12.8,36.7 C15.1,35.1 14.3,29.3 14.3,29.3 C9.8,31.9 9.1,33.4 9.1,33.4 Z" id="Path"></path>
                    <path d="M9.2,40.3 C7.9,41.7 8.3,45.6 8.3,45.6 C11.8,45 13,43.9 13,43.9 C15.3,42.3 14.9,36.3 14.9,36.3 C10.4,38.7 9.2,40.3 9.2,40.3 Z" id="Path"></path>
                    <path d="M3.2,22.7 C3.2,22.7 3.9,23.6 7.2,24.1 C7.2,24.1 7.5,20.9 6.3,19.7 C6.3,19.7 5.7,18.8 1.5,16.4 C1.6,16.4 1.1,21.3 3.2,22.7 Z" id="Path"></path>
                    <path d="M2.9,29.3 C2.9,29.3 3.6,30.3 7.2,30.9 C7.2,30.9 7.6,27.5 6.3,26.1 C6.3,26.1 5.6,25.1 1.2,22.5 C1.2,22.4 0.6,27.7 2.9,29.3 Z" id="Path"></path>
                    <path d="M1.2,29.3 C1.2,29.3 0.4,35.1 2.7,36.7 C2.7,36.7 3.6,37.8 7.2,38.3 C7.2,38.3 7.7,34.8 6.4,33.4 C6.4,33.4 5.7,31.9 1.2,29.3 Z" id="Path"></path>
                    <path d="M6.2,40.3 C6.2,40.3 5,38.7 0.4,36.3 C0.4,36.3 7.10542736e-15,42.3 2.3,43.9 C2.3,43.9 3.5,45 7,45.6 C7.1,45.5 7.6,41.7 6.2,40.3 Z" id="Path"></path>
                    <path d="M13.8,5.8 C13.7,5.5 13.4,5.4 13.2,5.4 C13,5.4 12.9,5.6 12.8,5.8 L12.8,16 L13.8,15.4 L13.8,5.8 Z" id="Path"></path>
                    <path d="M11.7,15.6 L11.7,4.1 C11.6,3.8 11.3,3.7 11.1,3.7 C10.9,3.7 10.8,3.9 10.7,4.1 L10.7,13.1 C11.1,13.9 11.4,14.8 11.7,15.6 L11.7,15.6 Z" id="Path"></path>
                    <path d="M9.5,1.4 C9.5,1.1 9.3,0.9 9,0.9 L9,0.9 C8.7,0.9 8.5,1.1 8.5,1.4 L8.5,1.4 L8.5,10 L9.5,11.4 L9.5,1.4 Z" id="Path"></path>
                    <path d="M2.7,5.8 C2.7,5.5 2.5,5.3 2.2,5.3 L2.2,5.3 C1.9,5.3 1.7,5.5 1.7,5.8 L1.7,5.8 L1.7,15.4 L2.7,16 L2.7,5.8 Z" id="Path"></path>
                    <path d="M4.8,13.1 L4.8,4.1 C4.8,3.8 4.6,3.6 4.3,3.6 C4,3.6 3.8,3.8 3.8,4.1 C3.8,4.1 3.8,4.1 3.8,4.1 L3.8,15.7 C4.1,14.8 4.4,13.9 4.8,13.1 Z" id="Path"></path>
                    <path d="M7,1.4 C7,1.1 6.8,0.9 6.5,0.9 L6.5,0.9 C6.2,0.9 6,1.1 6,1.4 L6,1.4 L6,11.4 L7,10 L7,1.4 Z" id="Path"></path>
                    <rect id="Rectangle" x="6.8" y="47.9" width="2" height="12"></rect>
                </g>
                <g id="Path">
                    <path d="M6.9,10.4 C8.5,10.4 9.6,9.1 9.2,6.4 C8.8,4.4 8,2.5 6.8,0.8 C6.8,0.8 4.7,4.8 4.6,6.8 C4.5,8.8 5,10.4 6.9,10.4 Z"></path>
                    <path d="M8.1,11.6 C7,13.3 6.5,15 8.1,15.9 C9.1,16.5 11.1,15.5 12.1,13 C12.8,11.2 13.1,9.2 13,7.2 C13,7.3 9.2,9.9 8.1,11.6 Z"></path>
                    <path d="M8.1,19 C7,20.7 6.5,22.4 8.1,23.3 C9.1,23.9 11.1,22.9 12.1,20.4 C12.8,18.6 13.1,16.6 13,14.6 C13,14.7 9.2,17.3 8.1,19 Z"></path>
                    <path d="M8.2,26.2 C7.1,27.9 6.6,29.6 8.2,30.5 C9.2,31.1 11.2,30.1 12.2,27.6 C12.9,25.8 13.2,23.8 13.1,21.8 C13.1,21.8 9.3,24.5 8.2,26.2 Z"></path>
                    <path d="M8.2,33.6 C7.1,35.3 6.6,37 8.2,37.9 C9.2,38.5 11.2,37.5 12.2,35 C12.9,33.1 13.2,31.2 13.1,29.2 C13.1,29.2 9.3,31.9 8.2,33.6 Z"></path>
                    <path d="M5.9,15.9 C7.5,14.9 7,13.2 5.9,11.6 C4.8,10 0.9,7.3 0.9,7.3 C0.8,9.3 1.1,11.2 1.8,13.1 C2.8,15.5 4.8,16.6 5.9,15.9 Z"></path>
                    <path d="M5.9,23.3 C7.5,22.3 7,20.6 5.9,19 C4.8,17.4 0.9,14.7 0.9,14.7 C0.8,16.7 1.1,18.6 1.8,20.5 C2.8,22.9 4.8,23.9 5.9,23.3 Z"></path>
                    <path d="M5.8,30.5 C7.4,29.5 6.9,27.8 5.8,26.2 C4.7,24.6 0.8,21.9 0.8,21.9 C0.7,23.9 1.1,25.8 1.7,27.7 C2.7,30.1 4.7,31.1 5.8,30.5 Z"></path>
                    <path d="M5.8,37.9 C7.4,36.9 6.9,35.2 5.8,33.6 C4.7,32 0.8,29.3 0.8,29.3 C0.8,31.3 1.1,33.2 1.8,35.1 C2.7,37.5 4.7,38.5 5.8,37.9 Z"></path>
                    <path d="M12.4,37.6 C12.4,37.6 10.3,50.8 8,61.9 L8,40.5 L6,40.5 L6,62 C3.7,51 1.6,37.6 1.6,37.6 C1,47.7 2.5,57.8 6,67.2 L6,67.2 L6,72.9 L8,72.9 L8,67.2 C11.6,57.8 13.1,47.7 12.4,37.6 Z"></path>
                </g>
                <g transform="translate(45.000000, 0.000000)" id="Path">
                    <path d="M15.6,48.5 L13.6,48.5 L13.6,60.5 L12.1,56 C11.8,55.1 10.8,54.6 10,54.9 C9.7,55 9.5,55.1 9.3,55.3 L0.8,64.2 L10,60.3 L13.7,67.7 L13.7,67.7 L13.7,73 L15.7,73 L15.6,48.5 Z"></path>
                    <path d="M12.4,16.9 L13.4,16.9 C13.8,16.9 14.1,17.2 14.1,17.6 L14.1,18.1 C14.1,18.5 13.8,18.8 13.4,18.8 L12.4,18.8 C12,18.8 11.7,18.5 11.7,18.1 L11.7,17.6 C11.6,17.3 12,16.9 12.4,16.9 Z"></path>
                    <path d="M9.6,16.9 L10.6,16.9 C11,16.9 11.3,17.2 11.3,17.6 L11.3,18.1 C11.3,18.5 11,18.8 10.6,18.8 L9.6,18.8 C9.2,18.8 8.9,18.5 8.9,18.1 L8.9,17.6 C8.9,17.3 9.2,16.9 9.6,16.9 Z"></path>
                    <path d="M12.6,14.4 L13.4,14.4 C13.8,14.4 14.1,14.7 14.1,15.1 L14.1,15.7 C14.1,16.1 13.8,16.4 13.4,16.4 L12.6,16.4 C12.2,16.4 11.9,16.1 11.9,15.7 L11.9,15.1 C11.9,14.7 12.2,14.4 12.6,14.4 Z"></path>
                    <path d="M9.9,14.5 L10.7,14.5 C11.1,14.5 11.4,14.8 11.4,15.2 L11.4,15.8 C11.4,16.2 11.1,16.5 10.7,16.5 L9.9,16.5 C9.5,16.5 9.2,16.2 9.2,15.8 L9.2,15.2 C9.1,14.8 9.5,14.5 9.9,14.5 Z"></path>
                    <path d="M12.5,19.4 L13.5,19.4 C13.9,19.4 14.2,19.7 14.2,20.1 L14.2,20.6 C14.2,21 13.9,21.3 13.5,21.3 L12.5,21.3 C12.1,21.3 11.8,21 11.8,20.6 L11.8,20.1 C11.7,19.7 12.1,19.4 12.5,19.4 Z"></path>
                    <path d="M9.6,19.4 L10.6,19.4 C11,19.4 11.3,19.7 11.3,20.1 L11.3,20.6 C11.3,21 11,21.3 10.6,21.3 L9.6,21.3 C9.2,21.3 8.9,21 8.9,20.6 L8.9,20.1 C8.9,19.7 9.2,19.4 9.6,19.4 Z"></path>
                    <path d="M12.4,21.8 L13.4,21.8 C13.8,21.8 14.1,22.1 14.1,22.5 L14.1,23 C14.1,23.4 13.8,23.7 13.4,23.7 L12.4,23.7 C12,23.7 11.7,23.4 11.7,23 L11.7,22.5 C11.6,22.1 12,21.8 12.4,21.8 Z"></path>
                    <path d="M11.3,23.1 L11.3,22.6 C11.3,22.2 11,21.9 10.6,21.9 L9.6,21.9 C9.3,21.9 9.1,22 9,22.3 C9.2,22.7 9.6,23.3 9.9,23.9 L10.6,23.9 C10.9,23.8 11.3,23.5 11.3,23.1 C11.3,23.1 11.3,23.1 11.3,23.1 Z"></path>
                    <path d="M12.5,24.2 L13.5,24.2 C13.9,24.2 14.2,24.5 14.2,24.9 L14.2,25.4 C14.2,25.8 13.9,26.1 13.5,26.1 L12.5,26.1 C12.1,26.1 11.8,25.8 11.8,25.4 L11.8,24.9 C11.7,24.5 12.1,24.2 12.5,24.2 Z"></path>
                    <path d="M11.3,25.5 L11.3,25 C11.3,24.6 11,24.3 10.6,24.3 L10,24.3 C10.3,24.9 10.6,25.6 10.8,26.2 C11.1,26 11.3,25.8 11.3,25.5 Z"></path>
                    <path d="M12.5,26.6 L13.5,26.6 C13.9,26.6 14.2,26.9 14.2,27.3 L14.2,27.8 C14.2,28.2 13.9,28.5 13.5,28.5 L12.5,28.5 C12.1,28.5 11.8,28.2 11.8,27.8 L11.8,27.3 C11.7,27 12.1,26.6 12.5,26.6 Z"></path>
                    <path d="M12.5,31.1 L13.5,31.1 C13.9,31.1 14.2,30.8 14.2,30.4 L14.2,29.9 C14.2,29.5 13.9,29.2 13.5,29.2 L12.5,29.2 C12.2,29.2 11.9,29.4 11.8,29.7 C11.9,30.1 12,30.6 12.1,31.1 C12.2,31 12.3,31.1 12.5,31.1 Z"></path>
                    <path d="M13.4,33.4 C13.8,33.4 14.1,33.1 14.1,32.7 L14.1,32.1 C14.1,31.7 13.8,31.4 13.4,31.4 L12.4,31.4 C12.3,31.4 12.2,31.4 12.1,31.5 C12.2,32.1 12.3,32.8 12.5,33.5 L13.4,33.4 Z"></path>
                    <path d="M13,35.9 L13.4,35.9 C13.8,35.9 14.1,35.6 14.1,35.2 L14.1,34.7 C14.1,34.3 13.8,34 13.4,34 L12.6,34 C12.7,34.4 12.7,34.8 12.8,35.2 C12.9,35.6 12.9,35.6 13,35.9 Z"></path>
                    <path d="M14.2,37.5 L14.2,37 C14.2,36.6 13.9,36.3 13.5,36.3 L13.1,36.3 C13.2,37 13.4,37.7 13.5,38.3 C13.9,38.2 14.2,37.9 14.2,37.5 Z"></path>
                    <path d="M14.2,39.9 L14.2,39.4 C14.2,39 13.9,38.7 13.6,38.7 C13.8,39.4 13.9,40 14,40.4 C14.1,40.3 14.2,40.1 14.2,39.9 Z"></path>
                    <path d="M12.6,12.2 L13.7,12.2 C14,12.2 14.2,12.4 14.2,12.7 L14.2,13.6 C14.2,13.9 14,14.1 13.7,14.1 L12.6,14.1 C12.3,14.1 12.1,13.9 12.1,13.6 L12.1,12.7 C12.1,12.4 12.3,12.2 12.6,12.2 Z"></path>
                    <path d="M12.7,10 L13.6,10 C13.9,10 14.1,10.2 14.1,10.5 L14.1,11.3 C14.1,11.6 13.9,11.8 13.6,11.8 L12.7,11.8 C12.4,11.8 12.2,11.6 12.2,11.3 L12.2,10.5 C12.2,10.2 12.4,10 12.7,10 Z"></path>
                    <path d="M10.1,9.9 L11,9.9 C11.3,9.9 11.5,10.1 11.5,10.4 L11.5,11.2 C11.5,11.5 11.3,11.7 11,11.7 L10.1,11.7 C9.8,11.7 9.6,11.5 9.6,11.2 L9.6,10.4 C9.7,10.1 9.9,9.9 10.1,9.9 Z"></path>
                    <path d="M10.7,7.7 L11.5,7.7 C11.8,7.7 12,7.9 12,8.2 L12,8.9 C12,9.2 11.8,9.4 11.5,9.4 L10.7,9.4 C10.4,9.4 10.2,9.2 10.2,8.9 L10.2,8.2 C10.2,8 10.4,7.7 10.7,7.7 Z"></path>
                    <path d="M12.9,7.6 L13.7,7.6 C14,7.6 14.2,7.8 14.2,8.1 L14.2,8.8 C14.2,9.1 14,9.3 13.7,9.3 L12.9,9.3 C12.6,9.3 12.4,9.1 12.4,8.8 L12.4,8.1 C12.4,7.9 12.6,7.6 12.9,7.6 Z"></path>
                    <path d="M13,5.8 L13.6,5.8 C13.9,5.8 14.1,6 14.1,6.3 L14.1,6.7 C14.1,7 13.9,7.2 13.6,7.2 L13,7.2 C12.7,7.2 12.5,7 12.5,6.7 L12.5,6.3 C12.6,6 12.8,5.8 13,5.8 Z"></path>
                    <path d="M11,5.8 L11.6,5.8 C11.9,5.8 12.1,6 12.1,6.3 L12.1,6.7 C12.1,7 11.9,7.2 11.6,7.2 L11,7.2 C10.7,7.2 10.5,7 10.5,6.7 L10.5,6.3 C10.5,6 10.7,5.8 11,5.8 Z"></path>
                    <path d="M11.7,4 L12.1,4 C12.4,4 12.6,4.2 12.6,4.5 L12.6,4.9 C12.6,5.2 12.4,5.4 12.1,5.4 L11.7,5.4 C11.4,5.4 11.2,5.2 11.2,4.9 L11.2,4.5 C11.2,4.2 11.4,4 11.7,4 Z"></path>
                    <path d="M13.3,4 L13.7,4 C14,4 14.2,4.2 14.2,4.5 L14.2,4.9 C14.2,5.2 14,5.4 13.7,5.4 L13.3,5.4 C13,5.4 12.8,5.2 12.8,4.9 L12.8,4.5 C12.8,4.2 13.1,4 13.3,4 Z"></path>
                    <path d="M9.9,12.2 L11,12.2 C11.3,12.2 11.5,12.4 11.5,12.7 L11.5,13.6 C11.5,13.9 11.3,14.1 11,14.1 L9.9,14.1 C9.6,14.1 9.4,13.9 9.4,13.6 L9.4,12.7 C9.4,12.4 9.7,12.2 9.9,12.2 Z"></path>
                    <path d="M13.6,3 L14,3 C14.1,3 14.2,3.1 14.2,3.2 L14.2,3.4 C14.2,3.5 14.1,3.6 14,3.6 L13.6,3.6 C13.5,3.6 13.4,3.5 13.4,3.4 L13.4,3.2 C13.4,3.1 13.5,3 13.6,3 Z"></path>
                    <path d="M12.2,3 L12.6,3 C12.7,3 12.8,3.1 12.8,3.2 L12.8,3.4 C12.8,3.5 12.7,3.6 12.6,3.6 L12.2,3.6 C12.1,3.6 12,3.5 12,3.4 L12,3.2 C12,3.1 12.1,3 12.2,3 Z"></path>
                    <path d="M12.8,1.9 L13.2,1.9 C13.3,1.9 13.4,2 13.4,2.1 L13.4,2.3 C13.4,2.4 13.3,2.5 13.2,2.5 L12.8,2.5 C12.7,2.5 12.6,2.4 12.6,2.3 L12.6,2.1 C12.6,2 12.7,1.9 12.8,1.9 Z"></path>
                    <path d="M13.9,0.9 L14.1,0.9 C14.2,0.9 14.3,1 14.3,1.1 L14.3,1.2 C14.3,1.3 14.2,1.4 14.1,1.4 L13.9,1.4 C13.8,1.4 13.7,1.3 13.7,1.2 L13.7,1.1 C13.6,1.1 13.7,0.9 13.9,0.9 Z"></path>
                    <path d="M15.4,16.9 L16.4,16.9 C16.8,16.9 17.1,17.2 17.1,17.6 L17.1,18.1 C17.1,18.5 16.8,18.8 16.4,18.8 L15.4,18.8 C15,18.8 14.7,18.5 14.7,18.1 L14.7,17.6 C14.6,17.3 15,16.9 15.4,16.9 Z"></path>
                    <path d="M18.3,16.9 L19.3,16.9 C19.7,16.9 20,17.2 20,17.6 L20,18.1 C20,18.5 19.7,18.8 19.3,18.8 L18.3,18.8 C17.9,18.8 17.6,18.5 17.6,18.1 L17.6,17.6 C17.6,17.3 17.9,16.9 18.3,16.9 Z"></path>
                    <path d="M15.3,14.4 L16.1,14.4 C16.5,14.4 16.8,14.7 16.8,15.1 L16.8,15.7 C16.8,16.1 16.5,16.4 16.1,16.4 L15.3,16.4 C14.9,16.4 14.6,16.1 14.6,15.7 L14.6,15.1 C14.6,14.7 14.9,14.4 15.3,14.4 Z"></path>
                    <path d="M18.2,14.5 L19,14.5 C19.4,14.5 19.7,14.8 19.7,15.2 L19.7,15.8 C19.7,16.2 19.4,16.5 19,16.5 L18.2,16.5 C17.8,16.5 17.5,16.2 17.5,15.8 L17.5,15.2 C17.5,14.8 17.8,14.5 18.2,14.5 Z"></path>
                    <path d="M15.4,19.4 L16.4,19.4 C16.8,19.4 17.1,19.7 17.1,20.1 L17.1,20.6 C17.1,21 16.8,21.3 16.4,21.3 L15.4,21.3 C15,21.3 14.7,21 14.7,20.6 L14.7,20.1 C14.7,19.7 15,19.4 15.4,19.4 Z"></path>
                    <path d="M18.3,19.4 L19.3,19.4 C19.7,19.4 20,19.7 20,20.1 L20,20.6 C20,21 19.7,21.3 19.3,21.3 L18.3,21.3 C17.9,21.3 17.6,21 17.6,20.6 L17.6,20.1 C17.6,19.7 17.9,19.4 18.3,19.4 Z"></path>
                    <path d="M15.3,21.8 L16.3,21.8 C16.7,21.8 17,22.1 17,22.5 L17,23 C17,23.4 16.7,23.7 16.3,23.7 L15.3,23.7 C14.9,23.7 14.6,23.4 14.6,23 L14.6,22.5 C14.5,22.1 14.9,21.8 15.3,21.8 Z"></path>
                    <path d="M18.3,21.8 L19.3,21.8 C19.7,21.8 20,22.1 20,22.5 L20,23 C20,23.4 19.7,23.7 19.3,23.7 L18.3,23.7 C17.9,23.7 17.6,23.4 17.6,23 L17.6,22.5 C17.6,22.1 17.9,21.8 18.3,21.8 Z"></path>
                    <path d="M15.5,24.2 L16.5,24.2 C16.9,24.2 17.2,24.5 17.2,24.9 L17.2,25.4 C17.2,25.8 16.9,26.1 16.5,26.1 L15.5,26.1 C15.1,26.1 14.8,25.8 14.8,25.4 L14.8,24.9 C14.7,24.5 15.1,24.2 15.5,24.2 Z"></path>
                    <path d="M18.3,24.2 L19.3,24.2 C19.7,24.2 20,24.5 20,24.9 L20,25.4 C20,25.8 19.7,26.1 19.3,26.1 L18.3,26.1 C17.9,26.1 17.6,25.8 17.6,25.4 L17.6,24.9 C17.6,24.5 17.9,24.2 18.3,24.2 Z"></path>
                    <path d="M15.3,26.6 L16.3,26.6 C16.7,26.6 17,26.9 17,27.3 L17,27.8 C17,28.2 16.7,28.5 16.3,28.5 L15.3,28.5 C14.9,28.5 14.6,28.2 14.6,27.8 L14.6,27.3 C14.5,27 14.9,26.6 15.3,26.6 Z"></path>
                    <path d="M17.4,27.4 L17.4,28 C17.4,28.3 17.6,28.6 17.9,28.7 C18.3,28 18.7,27.4 19.2,26.8 C19.1,26.8 19.1,26.8 19,26.8 L18,26.8 C17.7,26.8 17.4,27.1 17.4,27.4 Z"></path>
                    <path d="M15.3,29 L16.3,29 C16.7,29 17,29.3 17,29.7 L17,30.2 C17,30.6 16.7,30.9 16.3,30.9 L15.3,30.9 C14.9,30.9 14.6,30.6 14.6,30.2 L14.6,29.7 C14.5,29.4 14.9,29 15.3,29 Z"></path>
                    <path d="M16.7,31.6 C16.6,31.5 16.4,31.4 16.2,31.4 L15.3,31.4 C14.9,31.4 14.6,31.7 14.6,32.1 L14.6,32.1 L14.6,32.7 C14.6,33.1 14.9,33.4 15.3,33.4 L15.3,33.4 L16.2,33.4 C16.3,32.8 16.5,32.1 16.7,31.6 Z"></path>
                    <path d="M16,33.9 L15.2,33.9 C14.8,33.9 14.5,34.2 14.5,34.6 L14.5,35.1 C14.5,35.5 14.8,35.8 15.2,35.8 L15.4,35.8 C15.7,35.2 15.9,34.5 16,33.9 Z"></path>
                    <path d="M15.4,36.3 L15.2,36.3 C14.8,36.3 14.5,36.6 14.5,37 L14.5,37 L14.5,37.6 C14.5,37.9 14.7,38.1 14.9,38.2 C15.1,37.6 15.2,36.9 15.4,36.3 Z"></path>
                    <path d="M14.8,38.8 C14.6,38.9 14.5,39.1 14.5,39.4 L14.5,40 C14.6,39.6 14.7,39.2 14.8,38.8 Z"></path>
                    <path d="M15.3,12.2 L16.4,12.2 C16.7,12.2 16.9,12.4 16.9,12.7 L16.9,13.6 C16.9,13.9 16.7,14.1 16.4,14.1 L15.3,14.1 C15,14.1 14.8,13.9 14.8,13.6 L14.8,12.7 C14.8,12.4 15,12.2 15.3,12.2 Z"></path>
                    <path d="M15.2,9.9 L16.1,9.9 C16.4,9.9 16.6,10.1 16.6,10.4 L16.6,11.2 C16.6,11.5 16.4,11.7 16.1,11.7 L15.2,11.7 C14.9,11.7 14.7,11.5 14.7,11.2 L14.7,10.4 C14.7,10.1 14.9,9.9 15.2,9.9 Z"></path>
                    <path d="M17.6,9.9 L18.5,9.9 C18.8,9.9 19,10.1 19,10.4 L19,11.2 C19,11.5 18.8,11.7 18.5,11.7 L17.6,11.7 C17.3,11.7 17.1,11.5 17.1,11.2 L17.1,10.4 C17.1,10.1 17.3,9.9 17.6,9.9 Z"></path>
                    <path d="M17.5,7.9 L18.3,7.9 C18.6,7.9 18.8,8.1 18.8,8.4 L18.8,9.1 C18.8,9.4 18.6,9.6 18.3,9.6 L17.5,9.6 C17.2,9.6 17,9.4 17,9.1 L17,8.4 C17,8.1 17.2,7.9 17.5,7.9 Z"></path>
                    <path d="M15.3,7.7 L16.1,7.7 C16.4,7.7 16.6,7.9 16.6,8.2 L16.6,8.9 C16.6,9.2 16.4,9.4 16.1,9.4 L15.3,9.4 C15,9.4 14.8,9.2 14.8,8.9 L14.8,8.2 C14.8,8 15,7.7 15.3,7.7 Z"></path>
                    <path d="M15.1,5.8 L15.7,5.8 C16,5.8 16.2,6 16.2,6.3 L16.2,6.7 C16.2,7 16,7.2 15.7,7.2 L15.1,7.2 C14.8,7.2 14.6,7 14.6,6.7 L14.6,6.3 C14.6,6 14.9,5.8 15.1,5.8 Z"></path>
                    <path d="M17.2,5.9 L17.8,5.9 C18.1,5.9 18.3,6.1 18.3,6.4 L18.3,6.8 C18.3,7.1 18.1,7.3 17.8,7.3 L17.2,7.3 C16.9,7.3 16.7,7.1 16.7,6.8 L16.7,6.4 C16.7,6.2 16.9,5.9 17.2,5.9 Z"></path>
                    <path d="M16.8,4 L17.2,4 C17.5,4 17.7,4.2 17.7,4.5 L17.7,4.9 C17.7,5.2 17.5,5.4 17.2,5.4 L16.8,5.4 C16.5,5.4 16.3,5.2 16.3,4.9 L16.3,4.5 C16.3,4.2 16.6,4 16.8,4 Z"></path>
                    <path d="M15.1,4 L15.5,4 C15.8,4 16,4.2 16,4.5 L16,4.9 C16,5.2 15.8,5.4 15.5,5.4 L15.1,5.4 C14.8,5.4 14.6,5.2 14.6,4.9 L14.6,4.5 C14.6,4.2 14.8,4 15.1,4 Z"></path>
                    <path d="M17.9,12.2 L19,12.2 C19.3,12.2 19.5,12.4 19.5,12.7 L19.5,13.6 C19.5,13.9 19.3,14.1 19,14.1 L17.9,14.1 C17.6,14.1 17.4,13.9 17.4,13.6 L17.4,12.7 C17.4,12.4 17.6,12.2 17.9,12.2 Z"></path>
                    <path d="M14.9,3 L15.3,3 C15.4,3 15.5,3.1 15.5,3.2 L15.5,3.4 C15.5,3.5 15.4,3.6 15.3,3.6 L14.9,3.6 C14.8,3.6 14.7,3.5 14.7,3.4 L14.7,3.2 C14.7,3.1 14.8,3 14.9,3 Z"></path>
                    <path d="M14.3,1.9 L14.7,1.9 C14.8,1.9 14.9,2 14.9,2.1 L14.9,2.3 C14.9,2.4 14.8,2.5 14.7,2.5 L14.3,2.5 C14.2,2.5 14.1,2.4 14.1,2.3 L14.1,2.1 C14.1,2 14.2,1.9 14.3,1.9 Z"></path>
                    <path d="M16.3,3 L16.7,3 C16.8,3 16.9,3.1 16.9,3.2 L16.9,3.4 C16.9,3.5 16.8,3.6 16.7,3.6 L16.3,3.6 C16.2,3.6 16.1,3.5 16.1,3.4 L16.1,3.2 C16,3.1 16.1,3 16.3,3 Z"></path>
                    <path d="M15.5,1.9 L15.9,1.9 C16,1.9 16.1,2 16.1,2.1 L16.1,2.3 C16.1,2.4 16,2.5 15.9,2.5 L15.5,2.5 C15.4,2.5 15.3,2.4 15.3,2.3 L15.3,2.1 C15.3,2 15.4,1.9 15.5,1.9 Z"></path>
                    <path d="M14.8,0.9 L15,0.9 C15.1,0.9 15.2,1 15.2,1.1 L15.2,1.2 C15.2,1.3 15.1,1.4 15,1.4 L14.8,1.4 C14.7,1.4 14.6,1.3 14.6,1.2 L14.6,1.1 C14.6,1.1 14.7,0.9 14.8,0.9 Z"></path>
                    <path d="M24.8,26.8 C23.8,25.7 22.1,25.5 20.9,26.3 C20.3,26.9 19.8,27.5 19.3,28.2 C18.5,29.5 17.8,30.9 17.4,32.3 C17.4,32.4 16.6,35.1 16.4,35.7 C16.4,35.8 16,37.4 15.8,38.1 C15.8,38.2 15.3,39.8 15.2,40.4 C14.9,41.7 14.5,42.9 14,44.1 C14.2,43.2 13.8,42.4 13.5,41.3 C13.1,39.6 12.8,38.5 12.8,38.3 C12.7,37.7 11.3,30.7 10.8,29.1 C10.3,27 9.6,25 8.7,23.1 C8.6,23 7.9,21.6 7.6,21.1 C6.6,19.5 5.4,18 3.8,16.9 C5,18.3 6.5,23.4 6.8,25.5 C7.4,28.2 7.7,31 7.9,33.8 C8.1,38 9.4,42 11.8,45.5 C11.8,45.5 12.5,46.4 14.6,46.4 C15.8,46.5 16.9,46.1 17.7,45.3 C18.6,44.3 19.3,43.1 19.8,41.8 C20.5,39.8 20.8,37.7 20.8,35.6 C20.9,34 21.6,29.3 21.8,28.3 C22.4,28.5 23,28.8 23.6,29.1 C24.8,29.7 25.9,30.6 26.5,31.8 C26.8,30 26.1,28.1 24.8,26.8 Z"></path>
                    <path d="M11.2,26.7 L11.2,26.7 C11.2,27 11.4,27.3 11.4,27.6 C11.4,27.6 11.4,27.3 11.4,27.2 C11.4,27.1 11.3,26.7 11.2,26.7 Z"></path>
                </g>
            </g>
        </g>
    </g>
</svg>