<?xml version="1.0" encoding="UTF-8"?>
<svg width="95px" height="95px" viewBox="0 0 95 95" version="1.1" xmlns="http://www.w3.org/2000/svg" xmlns:xlink="http://www.w3.org/1999/xlink">
    <!-- Generator: Sketch 53.2 (72643) - https://sketchapp.com -->
    <title>goal_2_target_2_4</title>
    <desc>Created with Sketch.</desc>
    <g id="goal_2_target_2_4" stroke="none" stroke-width="1" fill="none" fill-rule="evenodd">
        <g id="Group-12" fill-rule="nonzero">
            <rect id="Rectangle" fill="#DDA63A" x="9.23705556e-14" y="-2.13162821e-14" width="94.8" height="94.8"></rect>
            <g id="Group" transform="translate(12.700000, 8.000000)" fill="#FFFFFF">
                <path d="M36.1,47 C39.1,46.9 45.7,46 46.2,37.4 C46.6,31.5 45.1,29.7 42.7,26.5 C41.3,24.3 40.4,21.8 40.2,19.2 C40.1,16.2 40,13.6 37.1,12.9 C37.5,9.8 38.1,8.3 38.9,7.4 C39.7,6.4 40.8,5.7 42,5.3 L41.5,3.8 C39.8,4.4 38.4,5.5 37.4,7 C36.4,8.8 35.7,10.7 35.4,12.7 C34.3,12.7 32.5,13.3 31.4,16.7 C29.9,21.6 31,22.3 28.5,26.4 C26,30.5 25,32.2 25.7,38.9 C26.4,45.6 33,47.1 36.1,47 Z" id="Path"></path>
                <path d="M35.2,12.2 C35.5,6 28.5,4.1 28.5,4.1 C28.4,6.2 29,8.3 30.3,10 C32.5,13 35.2,12.2 35.2,12.2 Z" id="Path"></path>
                <path d="M9.2,27.8 C9.2,27.8 12.6,26 12.6,23.8 C12.6,21.1 9.3,17.6 9.3,17.6 C9.3,17.6 5.9,21.2 5.9,23.8 C5.9,26 8.5,27.3 9.2,27.8 Z" id="Path"></path>
                <path d="M3.8,31.7 C3.8,31.7 4.6,32.8 8.6,33.4 C8.6,33.4 9,29.6 7.6,28 C7.6,28 6.9,26.8 1.8,24 C1.8,24 1.2,30 3.8,31.7 Z" id="Path"></path>
                <path d="M3.4,39.7 C3.4,39.7 4.3,40.9 8.6,41.6 C8.6,41.6 9.1,37.4 7.5,35.7 C7.5,35.7 6.7,34.5 1.3,31.3 C1.3,31.3 0.6,37.7 3.4,39.7 Z" id="Path"></path>
                <path d="M1.4,39.7 C1.4,39.7 0.5,46.6 3.2,48.6 C3.2,48.6 4.3,49.9 8.6,50.6 C8.6,50.6 9.2,46.3 7.7,44.6 C7.6,44.6 6.8,42.8 1.4,39.7 Z" id="Path"></path>
                <path d="M7.4,52.9 C7.4,52.9 6,51 0.4,48.1 C0.4,48.1 -0.1,55.3 2.7,57.3 C2.7,57.3 4.1,58.7 8.4,59.3 C8.5,59.3 9,54.6 7.4,52.9 Z" id="Path"></path>
                <path d="M10.9,28.1 C9.4,29.7 9.9,33.5 9.9,33.5 C13.9,32.9 14.7,31.8 14.7,31.8 C17.3,30 16.7,24.1 16.7,24.1 C11.7,26.9 10.9,28.1 10.9,28.1 Z" id="Path"></path>
                <path d="M11,35.7 C9.4,37.4 9.9,41.6 9.9,41.6 C14.2,40.9 15.1,39.7 15.1,39.7 C17.9,37.8 17.2,31.3 17.2,31.3 C11.8,34.4 11,35.7 11,35.7 Z" id="Path"></path>
                <path d="M10.8,44.6 C9.2,46.3 9.9,50.6 9.9,50.6 C14.2,49.9 15.3,48.6 15.3,48.6 C18.1,46.7 17.1,39.7 17.1,39.7 C11.7,42.8 10.8,44.6 10.8,44.6 Z" id="Path"></path>
                <path d="M11,52.9 C9.5,54.6 10,59.3 10,59.3 C14.3,58.6 15.7,57.3 15.7,57.3 C18.5,55.3 18,48.1 18,48.1 C12.5,51 11,52.9 11,52.9 Z" id="Path"></path>
                <rect id="Rectangle" x="8.3" y="60.4" width="1.9" height="18"></rect>
                <path d="M3.2,6.4 C3.2,6.1 3,5.7 2.7,5.7 C2.4,5.7 2,5.9 2,6.2 C2,6.3 2,6.3 2,6.4 L2,22.9 L3.2,23.6 L3.2,6.4 Z" id="Path"></path>
                <path d="M5.8,20 L5.8,4.4 C5.8,4.1 5.4,3.8 5.1,3.9 C4.8,3.9 4.6,4.2 4.6,4.4 L4.6,23.2 C4.8,22.1 5.2,21 5.8,20 Z" id="Path"></path>
                <path d="M8.4,1.2 C8.4,0.9 8.2,0.5 7.9,0.5 C7.6,0.5 7.2,0.7 7.2,1 C7.2,1.1 7.2,1.1 7.2,1.2 L7.2,18 C7.7,17.4 8.1,16.7 8.4,16.3 L8.4,1.2 Z" id="Path"></path>
                <path d="M16.6,6.4 C16.6,6.1 16.4,5.7 16.1,5.7 C15.8,5.7 15.4,5.9 15.4,6.2 C15.4,6.3 15.4,6.3 15.4,6.4 L15.4,23.6 L16.6,22.9 L16.6,6.4 Z" id="Path"></path>
                <path d="M14,23.1 L14,4.4 C14,4.1 13.6,3.8 13.3,3.9 C13,3.9 12.8,4.2 12.8,4.4 L12.8,20 C13.3,21 13.7,22.1 14,23.1 L14,23.1 Z" id="Path"></path>
                <path d="M11.3,1.2 C11.3,0.9 11.1,0.5 10.8,0.5 C10.5,0.5 10.1,0.7 10.1,1 C10.1,1.1 10.1,1.1 10.1,1.2 L10.1,16.4 L11.3,18.1 L11.3,1.2 Z" id="Path"></path>
                <path d="M64.7,57.2 C62.6,55.6 60,54.8 57.4,54.8 C56.8,54.8 56.2,54.8 55.6,55 L55.4,55 C53.7,55.4 50.8,56.1 47.4,60.3 L47.3,60.4 C47.2,60.5 47.2,60.6 47.2,60.6 C47.2,60.7 47.2,60.8 47.3,60.8 L47.4,60.9 C48,61.8 48.4,62.6 48.8,63.3 C48.9,63.5 49.2,63.6 49.4,63.5 C49.4,63.5 49.5,63.4 49.5,63.4 L49.6,63.3 C52.5,59.3 54.8,58.7 56.3,58.4 L56.5,58.4 C56.8,58.3 57.1,58.3 57.4,58.3 C59.2,58.3 61,58.9 62.5,59.9 C64.2,61.2 65.1,63.4 65.1,66.3 C65.1,71.1 62.8,73 60.8,73.7 C60,74 59.2,74.1 58.4,74.1 C57.2,74.1 55.9,73.8 54.8,73.3 L54.7,73.2 C53,72.5 50.5,70.9 48.1,66.2 C43.2,56.4 39.1,55.4 36.4,54.8 L36.2,54.8 C35.6,54.7 35,54.6 34.5,54.6 C31.9,54.6 29.4,55.4 27.3,57 C25.5,58.4 23.4,61.2 23.4,66.2 C23,72.1 27.5,77.1 33.4,77.5 C33.7,77.5 34,77.5 34.2,77.5 C35,77.5 35.9,77.4 36.7,77.3 C38.2,77 39.7,76.3 40.9,75.4 L42.3,76.7 C42.5,76.9 42.7,76.9 42.9,76.7 C43,76.6 43,76.5 43,76.4 L44.1,69.6 L44.1,69.5 C44.1,69.4 44.1,69.3 44,69.2 C43.9,69.1 43.8,69.1 43.7,69.1 L43.7,69.1 L37.1,70.9 L37,70.9 C36.9,70.9 36.8,71 36.8,71 C36.7,71.1 36.7,71.2 36.7,71.3 C36.7,71.4 36.8,71.5 36.8,71.6 L38.2,72.8 C37.5,73.2 36.8,73.5 36.1,73.7 C35.5,73.8 34.9,73.9 34.3,73.9 C32.1,74 30,73 28.6,71.3 L28.6,71.2 C27.5,69.8 26.9,68 27.1,66.1 C27.1,63.2 27.9,61.1 29.6,59.7 C31,58.7 32.8,58.1 34.5,58.1 C34.8,58.1 35.1,58.1 35.4,58.2 L35.6,58.2 C37.8,58.7 40.7,59.4 44.8,67.6 C47,72 49.7,74.8 53.1,76.3 C54.7,77.1 56.5,77.5 58.3,77.5 C59.5,77.5 60.8,77.3 62,76.8 C64,76.1 68.7,73.5 68.7,66 C68.6,61.4 66.4,58.6 64.7,57.2 Z" id="Path"></path>
                <path d="M68,14.4 C67,13.2 65.5,12.5 64,12.3 C64.2,10.8 64.5,9.4 64.9,8 C65.3,7 65.9,6.1 66.8,5.4 L65.3,5.3 C64.1,6.5 63.3,8.1 63.1,9.8 L63.1,1 L61.8,0.8 L61.8,8.3 C61.5,7.2 61.1,6 60.6,4.9 C60.3,4.2 59.9,3.6 59.4,3.1 L58.1,3.2 C59,4.5 59.8,6 60.2,7.6 C60.6,9.1 60.8,10.6 60.7,12.2 C59.2,12.3 57.8,13 56.8,14.1 C55,16.1 55.8,19.4 55.8,19.4 C55.8,19.4 55.9,19.7 56,20.4 L61.7,20.4 C61.9,20.4 62,20.5 62,20.7 L62,21.2 C62,21.4 61.9,21.5 61.7,21.5 L56.2,21.5 C56.5,22.8 56.8,24.7 57.3,26.9 L61.6,26.9 C61.8,26.9 61.9,27 61.9,27.2 C61.9,27.2 61.9,27.2 61.9,27.2 L61.9,27.7 C61.9,27.9 61.8,28 61.6,28 L61.6,28 L57.5,28 L58.6,33.4 L61.6,33.4 C61.8,33.4 61.9,33.5 61.9,33.7 C61.9,33.7 61.9,33.7 61.9,33.7 L61.9,34.2 C61.9,34.3 61.8,34.5 61.6,34.5 C61.6,34.5 61.6,34.5 61.6,34.5 L58.8,34.5 C59.9,40.3 61,45.6 61,45.9 C61.1,46.6 61.6,48.4 62.3,48.4 C63.2,48.4 63.5,46.4 63.5,46.4 L68.8,20 C68.8,20 69.8,16.6 68,14.4 Z" id="Path"></path>
            </g>
        </g>
    </g>
</svg>