<?xml version="1.0" encoding="UTF-8"?>
<svg width="95px" height="95px" viewBox="0 0 95 95" version="1.1" xmlns="http://www.w3.org/2000/svg" xmlns:xlink="http://www.w3.org/1999/xlink">
    <!-- Generator: Sketch 53.2 (72643) - https://sketchapp.com -->
    <title>goal_10_target_10_1</title>
    <desc>Created with Sketch.</desc>
    <g id="goal_10_target_10_1" stroke="none" stroke-width="1" fill="none" fill-rule="evenodd">
        <g id="Group-73" fill-rule="nonzero">
            <rect id="Rectangle" fill="#DD1367" x="-3.62376795e-13" y="-2.13162821e-14" width="94.8" height="94.8"></rect>
            <g id="Group" transform="translate(14.700000, 15.000000)" fill="#FFFFFF">
                <g>
                    <g transform="translate(36.000000, 0.000000)">
                        <path d="M14.2,20.2 C21.5,20.2 27.5,18 27.5,15.3 C27.5,15.3 27.7,12.8 27.6,12.2 C27.6,11.9 27.5,11.5 27.4,11.2 C28.2,10.7 28.8,9.9 28.9,9 C28.9,9 29,6.2 29,5.6 C28.7,2.3 22,0.5 15.6,0.5 C9.1,0.5 2.2,2.4 2.2,5.9 C2.2,6.1 2.3,9 2.3,9 C2.3,9.2 2.4,9.4 2.5,9.6 C1.5,10.2 0.9,11.2 0.8,12.3 C0.8,12.5 0.9,15.4 0.9,15.4 C0.9,16.2 1.3,16.9 1.9,17.3 C3.3,18.4 5.8,19.4 9,19.9 C10.7,20.1 12.4,20.2 14.2,20.2 Z M15.5,1.8 C22.6,1.8 27.5,3.9 27.5,5.8 C27.5,7.7 22.6,9.8 15.5,9.8 C8.4,9.8 3.5,7.7 3.5,5.8 C3.5,3.9 8.4,1.8 15.5,1.8 Z M2.1,12.2 C2.2,11.6 2.6,11 3.1,10.7 C3.5,11.1 4,11.4 4.4,11.7 C6.8,13 10.8,13.9 15.4,13.9 C18.6,14 21.8,13.5 24.8,12.4 C25.2,12.3 25.6,12.1 26,11.9 C26,12 26.1,12.1 26.1,12.2 C26.1,14.1 21.2,16.2 14.1,16.2 C7,16.2 2.1,14.1 2.1,12.2 Z" id="Shape"></path>
                        <path d="M28.8,17.5 C28.7,17.3 28.6,17.1 28.5,17 C28.4,16.9 28.3,16.8 28.2,16.7 C28,16.6 27.8,16.5 27.6,16.4 C27.4,16.7 27.2,17 27,17.2 C27.2,17.3 27.4,17.4 27.5,17.5 C27.9,17.7 28.1,18.1 28.1,18.5 C28.1,18.8 27.9,19.2 27.6,19.4 C27.4,19.5 27.3,19.7 27.1,19.8 C27,19.8 26.5,20.1 26.3,20.2 C26.1,20.3 25.5,20.6 25.1,20.7 C25.1,20.7 24.3,21 23.9,21.1 C23.8,21.1 22.7,21.4 22.3,21.5 C22.2,21.5 20.9,21.7 20.3,21.8 C20.1,21.8 18.8,22 18.2,22 C18,22 16,22.1 15.1,22.1 C13.7,22.1 12.3,22 10.9,21.8 C9.9,21.7 8.8,21.5 7.9,21.3 C6.8,21.1 5.7,20.7 4.7,20.3 C4.1,20 3.5,19.6 3.1,19.2 C2.7,18.8 2.4,18.3 2.1,17.8 C2.1,17.8 2.1,19.5 2.1,19.6 L2.1,21 C2.1,21.8 2.5,22.5 3.1,22.9 C4.4,24.1 7,25 10.2,25.5 C11.9,25.8 13.6,25.9 15.4,25.9 C17.9,25.9 20.5,25.7 22.9,25.1 L23,25.1 C24.3,24.8 25.6,24.3 26.8,23.6 L26.8,23.6 C27.1,23.4 27.4,23.2 27.6,23 C28,22.7 28.4,22.2 28.6,21.7 C28.7,21.5 28.7,21.2 28.7,21 C28.7,21 28.8,18.2 28.8,18.1 C28.9,18 28.9,17.7 28.8,17.5 Z" id="Path"></path>
                        <path d="M27.3,29.2 C26.4,29.8 25.4,30.2 24.4,30.5 C21.5,31.3 18.4,31.7 15.3,31.6 C13.8,31.6 12.3,31.5 10.8,31.3 C9.9,31.1 9,31 8,30.7 C7.5,30.6 7.1,30.5 6.7,30.3 C5.4,29.9 4.2,29.4 3.2,28.6 C2.8,28.3 2.5,27.9 2.2,27.5 L2.2,28.7 C2.2,29 2.2,30.5 2.2,30.5 C2.2,31.3 2.6,32 3.2,32.4 C4.5,33.6 7.1,34.5 10.3,35 C12,35.3 13.7,35.4 15.5,35.4 C18,35.4 20.6,35.1 23.1,34.6 L23.2,34.6 C24.5,34.3 25.8,33.8 27,33.1 L27,33.1 C28.2,32.3 29,31.5 29,30.5 C29,30.5 29.1,27.8 29.1,27.6 C28.5,28.3 27.9,28.8 27.3,29.2 Z" id="Path"></path>
                        <path d="M3.2,27.7 C4.5,28.9 7.1,29.8 10.3,30.3 C12,30.6 13.7,30.7 15.5,30.7 C18,30.7 20.5,30.4 22.9,29.9 L23,29.9 C24.3,29.6 25.6,29.1 26.8,28.4 L26.8,28.4 C27.1,28.2 27.4,28 27.6,27.8 C28,27.5 28.4,27 28.6,26.5 C28.7,26.3 28.7,26 28.7,25.8 C28.7,25.8 28.8,23.1 28.8,22.9 C28.4,23.5 27.2,25.2 22,26.3 C19.8,26.7 17.5,26.9 15.2,26.9 C11,26.8 6.5,26.1 4.6,24.8 C4,24.5 3.4,24.1 2.9,23.6 C2.6,23.3 2.3,23 2.1,22.6 C2.1,22.6 2.1,23.9 2.1,23.9 L2.1,25.8 C2.1,26.7 2.6,27.3 3.2,27.7 Z" id="Path"></path>
                        <path d="M28.9,37.2 C28.5,37.8 27.9,38.3 27.3,38.7 C26.4,39.3 25.4,39.7 24.4,40 C21.5,40.8 18.4,41.2 15.3,41.1 C13.8,41.1 12.3,41 10.8,40.8 C9.8,40.7 9,40.5 8.1,40.3 C7.6,40.2 7.2,40.1 6.8,39.9 C5.5,39.5 4.3,39 3.3,38.2 C2.9,37.9 2.6,37.5 2.3,37.1 L2.3,38.3 C2.3,38.6 2.3,40.1 2.3,40.1 C2.3,40.9 2.7,41.6 3.3,42 C4.6,43.2 7.2,44.1 10.4,44.6 C12.1,44.9 13.8,45 15.6,45 C18.1,45 20.6,44.7 23.1,44.2 L23.2,44.2 C24.5,43.9 25.8,43.4 27,42.7 L27,42.7 C28.2,41.9 29,41.1 29,40.1 C28.9,40.1 29,37.4 28.9,37.2 Z" id="Path"></path>
                        <path d="M10.3,39.9 C12,40.2 13.7,40.3 15.5,40.3 C18,40.3 20.5,40 22.9,39.5 L23,39.5 C24.3,39.2 25.6,38.7 26.8,38.1 L26.8,38.1 C27.1,37.9 27.4,37.7 27.6,37.5 C28,37.2 28.4,36.7 28.6,36.2 C28.7,36 28.7,35.7 28.7,35.5 C28.7,35.5 28.8,32.8 28.8,32.6 C28.4,33.2 27.2,34.9 22,36 C19.8,36.4 17.5,36.6 15.2,36.6 C11,36.5 6.5,35.8 4.6,34.5 C4,34 3.5,33.6 3,33.2 C2.7,32.9 2.4,32.6 2.2,32.2 C2.2,32.2 2.2,33.5 2.2,33.5 L2.3,35.4 C2.3,36.1 2.7,36.8 3.3,37.3 C4.6,38.4 7.2,39.4 10.3,39.9 Z" id="Path"></path>
                        <path d="M27.5,48.2 C26.6,48.8 25.6,49.2 24.6,49.5 C21.7,50.3 18.6,50.7 15.5,50.6 C14,50.6 12.5,50.5 11,50.3 C10.1,50.2 9.2,50 8.3,49.8 C7.8,49.7 7.4,49.6 7,49.4 C5.7,49 4.5,48.5 3.5,47.7 C3.1,47.4 2.8,47 2.5,46.6 L2.5,47.8 C2.5,48.1 2.5,49.6 2.5,49.6 C2.5,50.4 2.9,51.1 3.5,51.5 C4.8,52.7 7.4,53.6 10.6,54.1 C12.3,54.4 14,54.5 15.8,54.5 C18.3,54.5 20.8,54.2 23.2,53.7 L23.3,53.7 C24.7,53.4 26,52.9 27.2,52.2 L27.2,52.2 C28.4,51.4 29.2,50.6 29.2,49.6 C29.2,49.6 29.3,46.9 29.3,46.7 C28.6,47.3 28.1,47.8 27.5,48.2 Z" id="Path"></path>
                        <path d="M3.4,46.8 C4.7,48 7.3,48.9 10.5,49.4 C12.2,49.7 13.9,49.8 15.7,49.8 C18.2,49.8 20.7,49.6 23.1,49 L23.2,49 C24.5,48.7 25.8,48.2 27,47.5 L27,47.5 C27.3,47.3 27.6,47.1 27.8,46.9 C28.2,46.6 28.6,46.1 28.8,45.6 C28.9,45.4 28.9,45.1 28.9,44.9 C28.9,44.9 29,42.2 29,42 C28.6,42.6 27.4,44.3 22.2,45.4 C20,45.8 17.7,46 15.4,46 C11.2,45.9 6.7,45.2 4.8,43.9 C4.2,43.6 3.6,43.2 3.1,42.8 C2.8,42.5 2.5,42.2 2.3,41.8 C2.3,41.8 2.3,43.1 2.3,43.1 L2.3,45 C2.4,45.7 2.8,46.4 3.4,46.8 Z" id="Path"></path>
                        <path d="M29.1,56.2 C28.7,56.8 28.1,57.3 27.5,57.7 C26.6,58.3 25.6,58.7 24.6,59 C21.7,59.8 18.6,60.2 15.5,60.1 C14,60.1 12.5,60 11,59.8 C10,59.7 9.2,59.5 8.3,59.3 C7.8,59.2 7.4,59.1 7,58.9 C5.7,58.5 4.5,58 3.5,57.2 C3.1,56.9 2.8,56.6 2.5,56.1 L2.5,57.3 C2.5,57.6 2.5,59.1 2.5,59.1 C2.5,59.9 2.9,60.6 3.5,61 C4.8,62.2 7.4,63.1 10.6,63.6 C12.3,63.9 14,64 15.8,64 C18.3,64 20.8,63.7 23.2,63.2 L23.3,63.2 C24.6,62.9 25.9,62.4 27.1,61.7 L27.1,61.7 C28.3,60.9 29.1,60.1 29.1,59.1 C29.1,59.1 29.2,56.5 29.1,56.2 Z" id="Path"></path>
                        <path d="M10.5,58.9 C12.2,59.2 13.9,59.3 15.7,59.3 C18.2,59.3 20.7,59 23.1,58.5 L23.2,58.5 C24.5,58.2 25.8,57.7 27,57 L27,57 C27.3,56.8 27.6,56.6 27.8,56.4 C28.2,56.1 28.6,55.6 28.8,55.1 C28.9,54.9 29,54.6 29,54.4 C29,54.4 29.1,51.7 29.1,51.5 C28.7,52.1 27.5,53.8 22.3,54.9 C20.1,55.3 17.8,55.5 15.5,55.5 C11.3,55.4 6.8,54.7 4.9,53.4 C4.3,53.1 3.7,52.7 3.2,52.3 C2.9,52 2.6,51.7 2.4,51.3 C2.4,51.3 2.4,52.6 2.4,52.6 L2.4,54.5 C2.5,55.2 2.8,55.9 3.4,56.4 C4.8,57.5 7.3,58.4 10.5,58.9 Z" id="Path"></path>
                    </g>
                    <g transform="translate(0.000000, 39.000000)">
                        <path d="M13.9,19.8 C21.2,19.8 27.2,17.6 27.2,14.9 C27.2,14.9 27.4,12.4 27.3,11.8 C27.3,11.5 27.2,11.1 27.1,10.8 C27.9,10.3 28.5,9.5 28.6,8.6 C28.6,8.6 28.7,5.8 28.7,5.2 C28.4,1.8 21.7,-1.42108547e-14 15.3,-1.42108547e-14 C8.8,-1.42108547e-14 1.9,1.9 1.9,5.4 C1.9,5.6 2,8.5 2,8.5 C2,8.7 2.1,8.9 2.2,9.1 C1.2,9.7 0.6,10.7 0.5,11.8 C0.5,12 0.6,14.9 0.6,14.9 C0.6,15.7 1,16.4 1.6,16.8 C3,18 5.5,18.9 8.7,19.4 C10.4,19.6 12.2,19.8 13.9,19.8 Z M15.3,1.4 C22.4,1.4 27.3,3.5 27.3,5.4 C27.3,7.3 22.4,9.4 15.3,9.4 C8.2,9.4 3.3,7.3 3.3,5.4 C3.3,3.5 8.2,1.4 15.3,1.4 Z M1.9,11.8 C2,11.2 2.4,10.6 2.9,10.3 C3.3,10.7 3.8,11 4.3,11.3 C6.7,12.6 10.7,13.5 15.3,13.5 C18.5,13.6 21.7,13.1 24.8,12.1 C25.2,11.9 25.6,11.8 26,11.6 C26,11.7 26.1,11.8 26.1,11.9 C26.1,13.8 21.2,15.9 14.1,15.9 C7,15.9 1.9,13.7 1.9,11.8 Z" id="Shape"></path>
                        <path d="M28.6,17.1 C28.5,16.9 28.4,16.7 28.3,16.6 C28.2,16.5 28.1,16.4 28,16.3 C27.8,16.2 27.6,16.1 27.5,16 C27.3,16.3 27.1,16.6 26.9,16.8 C27.1,16.9 27.3,17 27.4,17.1 C27.8,17.3 28,17.7 28,18.1 C28,18.4 27.8,18.8 27.5,19 C27.3,19.1 27.2,19.3 27,19.4 C26.9,19.4 26.5,19.7 26.2,19.8 C25.9,19.9 25.4,20.2 25,20.3 C25,20.3 24.2,20.6 23.8,20.7 C23.7,20.7 22.6,21 22.2,21.1 C22.1,21.1 20.8,21.3 20.2,21.4 C20,21.4 18.7,21.6 18.1,21.6 C17.9,21.6 15.9,21.7 15,21.7 C13.6,21.7 12.2,21.6 10.8,21.4 C9.8,21.2 8.7,21.1 7.8,20.8 C6.7,20.6 5.6,20.2 4.6,19.8 C4,19.5 3.4,19.1 3,18.7 C2.6,18.3 2.3,17.8 2,17.3 L2,19 L2,20.6 C2,21.4 2.4,22.1 3,22.5 C4.3,23.7 6.9,24.6 10.1,25.1 C11.8,25.4 13.5,25.5 15.3,25.5 C17.8,25.5 20.3,25.2 22.7,24.7 L22.8,24.7 C24.1,24.4 25.4,23.9 26.6,23.2 L26.6,23.2 C26.9,23 27.2,22.8 27.4,22.6 C27.8,22.3 28.2,21.8 28.4,21.3 C28.5,21.1 28.5,20.8 28.5,20.6 C28.5,20.6 28.6,17.8 28.6,17.7 C28.6,17.6 28.6,17.3 28.6,17.1 Z" id="Path"></path>
                    </g>
                </g>
                <path d="M14.4,1 L22.9,11.8 C23,12 23,12.2 23,12.3 C22.9,12.5 22.8,12.6 22.5,12.6 L18.2,12.6 L18.2,31.8 C18.2,32 18,32.2 17.8,32.2 L10.4,32.2 C10.2,32.2 10,32.1 10,31.8 L10,12.6 L5.7,12.6 C5.4,12.6 5.2,12.5 5.2,12.3 C5.2,12.1 5.2,12 5.3,11.8 L13.5,1.1 C13.6,0.9 13.8,0.8 14.1,0.8 C14.1,0.8 14.3,0.9 14.4,1 Z" id="Path"></path>
            </g>
        </g>
    </g>
</svg>