<?xml version="1.0" encoding="UTF-8"?>
<svg width="95px" height="95px" viewBox="0 0 95 95" version="1.1" xmlns="http://www.w3.org/2000/svg" xmlns:xlink="http://www.w3.org/1999/xlink">
    <!-- Generator: Sketch 53.2 (72643) - https://sketchapp.com -->
    <title>goal_17_target_17_1</title>
    <desc>Created with Sketch.</desc>
    <g id="goal_17_target_17_1" stroke="none" stroke-width="1" fill="none" fill-rule="evenodd">
        <g id="Group-143" fill-rule="nonzero">
            <rect id="Rectangle" fill="#19486A" x="1.45661261e-12" y="7.10542736e-15" width="94.8" height="94.8"></rect>
            <g id="Group" transform="translate(10.700000, 20.000000)" fill="#FFFFFF">
                <g transform="translate(38.000000, 0.000000)">
                    <path d="M34.7,25.2 L1.5,25.2 C1.2,25.2 0.9,25.5 0.9,25.8 L0.9,27.1 C0.9,27.4 1.2,27.7 1.5,27.7 L34.7,27.7 C35,27.7 35.3,27.4 35.3,27.1 L35.3,25.8 C35.3,25.4 35,25.2 34.7,25.2 Z" id="Path"></path>
                    <path d="M34.7,50.2 L1.5,50.2 C1.2,50.2 0.9,50.5 0.9,50.8 C0.9,50.8 0.9,50.8 0.9,50.8 L0.9,53.5 C0.9,53.8 1.1,54.1 1.5,54.1 C1.5,54.1 1.5,54.1 1.5,54.1 L34.7,54.1 C35,54.1 35.3,53.9 35.3,53.5 C35.3,53.5 35.3,53.5 35.3,53.5 L35.3,50.8 C35.3,50.4 35,50.2 34.7,50.2 C34.7,50.2 34.7,50.2 34.7,50.2 Z" id="Path"></path>
                    <path d="M35.2,22.8 C33.1,13.4 23.7,7.4 14.3,9.5 C7.6,11 2.5,16.2 1,22.8 C1,22.9 1,22.9 1,23 L1,23 C1,23.3 1.2,23.5 1.5,23.5 L34.7,23.5 C35,23.5 35.2,23.3 35.2,23 L35.2,22.8 Z" id="Path"></path>
                    <path d="M33.7,29.4 L2.7,29.4 C2.4,29.4 2.1,29.7 2.1,30 L2.1,48 C2.1,48.3 2.4,48.6 2.7,48.6 L2.7,48.6 L33.7,48.6 C34,48.6 34.3,48.4 34.3,48 C34.3,48 34.3,48 34.3,48 L34.3,30 C34.3,29.7 34,29.4 33.7,29.4 Z M12.1,46.2 L6.8,46.2 L6.8,31.9 L12.1,31.9 L12.1,46.2 Z M21,46.2 L15.7,46.2 L15.7,31.9 L21,31.9 L21,46.2 Z M30,46.2 L24.7,46.2 L24.7,31.9 L30,31.9 L30,46.2 Z" id="Shape"></path>
                    <path d="M18.1,6.8 L18.1,0.4 L19.7,0.4 C20.7,0.4 21.6,0.6 22.4,1.1 C23.4,2.1 24.8,2.6 26.2,2.6 L28.6,2.6 L28.6,9 L26.1,9 C25.1,8.9 24.1,8.6 23.3,8.1 C22.4,7.3 21.2,6.9 20,6.9 C17.9,6.8 18.1,6.8 18.1,6.8 Z" id="Path"></path>
                </g>
                <path d="M10.4,11.4 L10.4,25.1 C10.4,25.2 10.5,25.3 10.6,25.3 C10.6,25.3 10.6,25.3 10.6,25.3 L21.9,25.3 C22,25.3 22.1,25.2 22.1,25.1 C22.1,25.1 22.1,25.1 22.1,25.1 L22.1,11.4 L26.5,11.4 L16.1,1.2 L5.8,11.4 L10.4,11.4 Z" id="Path"></path>
                <g transform="translate(0.000000, 30.000000)">
                    <path d="M14,21 C13.5,21.3 13,21.5 12.5,21.7 C11,22.1 9.4,22.3 7.8,22.3 C7,22.3 6.2,22.2 5.5,22.1 C5,22 4.6,21.9 4.1,21.8 C3.9,21.7 3.6,21.7 3.4,21.6 C2.7,21.4 2.1,21.1 1.6,20.7 C1.4,20.5 1.2,20.4 1.1,20.1 L1.1,20.7 C1.1,20.9 1.1,21.6 1.1,21.6 C1.1,22 1.3,22.4 1.6,22.6 C2.7,23.4 3.9,23.9 5.3,24 C6.2,24.1 7.1,24.2 8,24.2 C9.3,24.2 10.6,24.1 11.9,23.8 L11.9,23.8 C12.6,23.6 13.2,23.4 13.8,23 L13.8,23 C14.4,22.6 14.8,22.1 14.8,21.6 C14.8,21.6 14.8,20.2 14.8,20.1 C14.6,20.6 14.3,20.8 14,21 Z" id="Path"></path>
                    <path d="M7.3,16.3 C11.1,16.3 14.2,15.1 14.2,13.7 C14.2,13.7 14.3,12.4 14.2,12.1 C14.2,11.9 14.2,11.7 14.1,11.5 C14.5,11.3 14.8,10.8 14.9,10.3 C14.9,10.3 15,8.8 14.9,8.5 C14.7,6.7 11.2,5.8 8,5.8 C4.8,5.8 1.1,6.8 1.1,8.6 C1.1,8.7 1.2,10.2 1.2,10.2 C1.2,10.3 1.2,10.4 1.3,10.5 C0.8,10.8 0.5,11.3 0.4,11.9 C0.4,12 0.5,13.5 0.5,13.5 C0.5,13.9 0.7,14.3 1.1,14.5 C2.2,15.3 3.5,15.8 4.8,15.9 C5.5,16.2 6.4,16.3 7.3,16.3 Z M8,6.6 C11.7,6.6 14.2,7.7 14.2,8.7 C14.2,9.7 11.6,10.8 8,10.8 C4.4,10.8 1.8,9.7 1.8,8.7 C1.8,7.7 4.3,6.6 8,6.6 Z M1.1,12.1 C1.2,11.8 1.3,11.5 1.6,11.3 C1.8,11.5 2,11.7 2.3,11.8 C4.1,12.6 6,13 8,13 C9.7,13 11.3,12.8 12.9,12.2 C13.1,12.1 13.3,12 13.5,11.9 C13.5,12 13.5,12 13.5,12.1 C13.5,13.1 10.9,14.2 7.3,14.2 C3.7,14.2 1.1,13.1 1.1,12.1 L1.1,12.1 Z" id="Shape"></path>
                    <path d="M5.2,21.7 C6.1,21.8 7,21.9 7.9,21.9 C9.2,21.9 10.5,21.8 11.8,21.5 L11.8,21.5 C12.5,21.3 13.2,21.1 13.8,20.7 L13.8,20.7 C14,20.6 14.1,20.5 14.2,20.4 C14.4,20.2 14.6,20 14.7,19.7 C14.7,19.6 14.8,19.5 14.8,19.3 C14.8,19.3 14.8,17.9 14.8,17.7 C14.6,18 14,19 11.3,19.5 C10.1,19.7 9,19.8 7.8,19.8 C5.9,19.8 4,19.5 2.3,18.7 C2,18.5 1.7,18.3 1.4,18.1 C1.2,17.9 1.1,17.8 1,17.6 C1,17.6 1,18.3 1,18.3 L1,19.3 C1,19.7 1.2,20.1 1.5,20.3 C2.6,21.1 3.9,21.5 5.2,21.7 Z" id="Path"></path>
                    <path d="M14.7,14.6 C14.6,14.5 14.6,14.5 14.5,14.4 C14.4,14.3 14.3,14.3 14.2,14.2 C14.1,14.4 14,14.5 13.9,14.6 C14,14.6 14.1,14.7 14.2,14.8 C14.4,14.9 14.5,15.1 14.5,15.3 C14.5,15.5 14.4,15.7 14.3,15.8 C14.2,15.9 14.1,16 14,16 L13.6,16.2 C13.6,16.2 13.2,16.4 13,16.5 L12.4,16.7 L11.6,16.9 C11.6,16.9 10.9,17 10.6,17.1 C10.5,17.1 9.8,17.2 9.5,17.2 L7.9,17.3 C7.2,17.3 6.4,17.2 5.7,17.1 C5.2,17 4.6,16.9 4.2,16.8 C3.6,16.7 3.1,16.5 2.5,16.3 C2.2,16.2 1.9,16 1.7,15.7 C1.5,15.5 1.3,15.2 1.1,15 L1.1,15.9 L1.1,16.7 C1.1,17.1 1.3,17.5 1.6,17.7 C2.7,18.5 3.9,18.9 5.3,19.1 C6.2,19.2 7.1,19.3 8,19.3 C9.3,19.3 10.6,19.2 11.9,18.9 L11.9,18.9 C12.6,18.7 13.2,18.5 13.9,18.1 L13.9,18.1 C14,18 14.2,17.9 14.3,17.8 C14.5,17.6 14.7,17.4 14.8,17.1 C14.8,17 14.9,16.9 14.9,16.7 C14.9,16.7 15,15.2 15,15.2 C15,15.1 15,15 14.9,14.8 C14.8,14.8 14.8,14.7 14.7,14.6 Z" id="Path"></path>
                    <path d="M23.1,11.2 C26.9,11.2 30,10 30,8.6 C30,8.6 30.1,7.3 30,7 C30,6.8 30,6.6 29.9,6.4 C30.3,6.2 30.6,5.7 30.7,5.2 C30.7,5.2 30.8,3.7 30.7,3.4 C30.5,1.6 27,0.7 23.8,0.7 C20.6,0.7 16.8,1.7 16.8,3.5 C16.8,3.6 16.9,5.1 16.9,5.1 C16.9,5.2 16.9,5.3 17,5.4 C16.6,5.7 16.3,6.2 16.3,6.8 C16.3,6.9 16.4,8.4 16.4,8.4 C16.4,8.8 16.6,9.2 16.9,9.4 C18,10.2 19.2,10.6 20.6,10.8 C21.3,11.2 22.2,11.2 23.1,11.2 Z M23.8,1.6 C27.5,1.6 30,2.7 30,3.7 C30,4.7 27.4,5.8 23.8,5.8 C20.2,5.8 17.6,4.7 17.6,3.7 C17.6,2.7 20.2,1.6 23.8,1.6 Z M16.9,7 C17,6.7 17.2,6.4 17.4,6.2 C17.6,6.4 17.8,6.6 18.1,6.7 C19.9,7.5 21.8,7.9 23.8,7.9 C25.5,7.9 27.1,7.7 28.7,7.1 C28.9,7 29.1,6.9 29.3,6.8 C29.3,6.9 29.3,6.9 29.3,7 C29.3,8 26.8,9.1 23.1,9.1 C19.4,9.1 16.9,8 16.9,7 Z" id="Shape"></path>
                    <path d="M30.7,9.8 C30.7,9.7 30.6,9.6 30.5,9.5 C30.4,9.4 30.4,9.4 30.3,9.3 C30.2,9.2 30.1,9.2 30,9.1 C29.9,9.3 29.8,9.4 29.7,9.5 C29.8,9.5 29.9,9.6 30,9.7 C30.2,9.8 30.3,10 30.3,10.2 C30.3,10.4 30.2,10.6 30.1,10.7 C30,10.8 29.9,10.8 29.8,10.9 L29.4,11.1 L28.8,11.4 L28.2,11.6 C28.1,11.6 27.6,11.8 27.4,11.8 L26.4,12 L25.3,12.1 C25.2,12.1 24.2,12.2 23.7,12.2 C23,12.2 22.2,12.1 21.5,12 C21,12 20.5,11.9 20,11.8 C19.4,11.7 18.9,11.5 18.3,11.3 C18,11.1 17.7,10.9 17.4,10.7 C17.2,10.5 17,10.2 16.9,10 L16.9,10.9 L16.9,11.7 C16.9,12.1 17.1,12.5 17.4,12.7 C18.5,13.5 19.7,14 21.1,14.1 C22,14.2 22.9,14.3 23.8,14.3 C25.1,14.3 26.4,14.2 27.7,13.9 L27.7,13.9 C28.4,13.7 29.1,13.5 29.7,13.1 L29.7,13.1 C29.9,13 30,12.9 30.1,12.8 C30.3,12.6 30.5,12.4 30.6,12.1 C30.6,12 30.7,11.9 30.7,11.7 C30.7,11.7 30.8,10.2 30.8,10.2 C30.8,10.1 30.8,9.9 30.7,9.8 Z" id="Path"></path>
                    <path d="M29.9,16 C29.4,16.3 28.9,16.5 28.4,16.7 C26.9,17.1 25.3,17.4 23.7,17.3 C22.9,17.3 22.1,17.2 21.4,17.1 C20.9,17 20.5,16.9 20,16.8 L19.3,16.6 C18.6,16.4 18,16.1 17.5,15.7 C17.3,15.5 17.1,15.4 17,15.1 L17,15.7 C17,15.9 17,16.6 17,16.6 C17,17 17.2,17.4 17.5,17.6 C18.6,18.4 19.8,18.9 21.2,19 C22.1,19.1 23,19.2 23.9,19.2 C25.2,19.2 26.5,19.1 27.8,18.8 L27.8,18.8 C28.5,18.6 29.2,18.4 29.8,18 L29.8,18 C30.4,17.6 30.8,17.1 30.8,16.7 C30.8,16.7 30.8,15.3 30.8,15.1 C30.5,15.5 30.2,15.8 29.9,16 Z" id="Path"></path>
                    <path d="M17.5,15.2 C18.6,16 19.8,16.5 21.2,16.6 C22.1,16.7 23,16.8 23.9,16.8 C25.2,16.8 26.5,16.7 27.8,16.4 L27.8,16.4 C28.5,16.2 29.1,16 29.8,15.6 L29.8,15.6 C30,15.5 30.1,15.4 30.2,15.3 C30.4,15.1 30.6,14.9 30.7,14.6 C30.7,14.5 30.8,14.4 30.8,14.2 C30.8,14.2 30.8,12.8 30.8,12.7 C30.6,13 30,13.9 27.3,14.5 C26.1,14.7 25,14.8 23.8,14.8 C21.9,14.8 20,14.5 18.3,13.7 C18,13.5 17.7,13.3 17.4,13.1 C17.2,12.9 17.1,12.8 17,12.6 C17,12.6 17,13.3 17,13.3 L17,14.3 C16.8,14.7 17.1,15 17.5,15.2 Z" id="Path"></path>
                    <path d="M30.8,20.2 C30.6,20.5 30.3,20.8 30,21 C29.5,21.3 29,21.5 28.5,21.7 C27,22.1 25.4,22.4 23.8,22.3 C23,22.3 22.2,22.2 21.5,22.1 C21,22 20.5,22 20.1,21.8 C19.9,21.7 19.6,21.7 19.4,21.6 C18.7,21.4 18.1,21.1 17.6,20.7 C17.4,20.5 17.2,20.4 17.1,20.1 L17.1,20.7 C17.1,20.9 17.1,21.6 17.1,21.6 C17.1,22 17.3,22.4 17.6,22.6 C18.7,23.4 19.9,23.8 21.3,24 C22.2,24.1 23.1,24.2 24,24.2 C25.3,24.2 26.6,24.1 27.8,23.8 L27.8,23.8 C28.5,23.6 29.1,23.4 29.7,23 L29.7,23 C30.2,22.8 30.6,22.2 30.7,21.7 C30.6,21.8 30.8,20.3 30.8,20.2 Z" id="Path"></path>
                    <path d="M21.2,21.6 C22.1,21.7 23,21.8 23.9,21.8 C25.2,21.8 26.5,21.7 27.8,21.4 L27.8,21.4 C28.5,21.2 29.1,21 29.7,20.6 L29.7,20.6 C29.9,20.5 30,20.4 30.1,20.3 C30.3,20.1 30.5,19.9 30.6,19.6 C30.6,19.5 30.7,19.4 30.7,19.2 C30.7,19.2 30.7,17.8 30.7,17.7 C30.5,18 29.9,18.9 27.2,19.5 C26,19.7 24.9,19.8 23.7,19.8 C21.8,19.8 19.9,19.5 18.2,18.7 C17.9,18.5 17.6,18.3 17.3,18.1 C17.1,17.9 17,17.8 16.9,17.6 C16.9,17.6 16.9,18.3 16.9,18.3 L16.9,19.3 C16.9,19.7 17.1,20.1 17.4,20.3 C18.5,21.1 19.8,21.5 21.2,21.6 Z" id="Path"></path>
                </g>
            </g>
        </g>
    </g>
</svg>