<?xml version="1.0" encoding="UTF-8"?>
<svg width="95px" height="95px" viewBox="0 0 95 95" version="1.1" xmlns="http://www.w3.org/2000/svg" xmlns:xlink="http://www.w3.org/1999/xlink">
    <!-- Generator: Sketch 53.2 (72643) - https://sketchapp.com -->
    <title>goal_13_target_13_3</title>
    <desc>Created with Sketch.</desc>
    <g id="goal_13_target_13_3" stroke="none" stroke-width="1" fill="none" fill-rule="evenodd">
        <g id="Group-107" fill-rule="nonzero">
            <rect id="Rectangle" fill="#3F7E44" x="-3.62376795e-13" y="-2.13162821e-14" width="94.8" height="94.8"></rect>
            <g id="Group" transform="translate(7.700000, 9.000000)" fill="#FFFFFF">
                <path d="M70.1,46.7 C70.1,48.2 71.3,49.5 72.8,49.5 C74.3,49.5 75.6,48.3 75.6,46.8 C75.6,45.3 74.4,44 72.9,44 C72.9,44 72.9,44 72.9,44 C71.4,44 70.1,45.2 70.1,46.7 Z" id="Path"></path>
                <path d="M76.1,50.6 L75.9,50.6 L69.8,50.6 L69.6,50.6 C67.7,50.8 66.2,52.4 66.2,54.3 L66.2,62 C66.1,62.6 66.6,63.1 67.2,63.2 C67.8,63.3 68.3,62.8 68.4,62.2 C68.4,62.1 68.4,62.1 68.4,62 L68.4,55.3 C68.4,55.1 68.5,54.7 68.9,54.7 C69.3,54.7 69.3,55 69.3,55.2 L69.3,75 C69.2,75.9 69.9,76.6 70.7,76.7 C71.5,76.8 72.3,76.1 72.4,75.3 C72.4,75.2 72.4,75.1 72.4,75.1 L72.4,63.7 C72.4,63.5 72.6,63.3 72.8,63.3 C72.8,63.3 72.8,63.3 72.8,63.3 L72.8,63.3 C73,63.3 73.2,63.5 73.2,63.7 C73.2,63.7 73.2,63.7 73.2,63.8 L73.2,75.2 C73.2,76.1 73.9,76.7 74.8,76.7 C75.7,76.7 76.3,76 76.3,75.2 L76.3,55.3 C76.3,55.1 76.4,54.8 76.7,54.8 C77,54.8 77.2,55.1 77.2,55.4 L77.2,62 C77.2,62.6 77.7,63.1 78.3,63.1 C78.9,63.1 79.4,62.6 79.4,62 L79.4,54.3 C79.5,52.4 78,50.8 76.1,50.6 Z" id="Path"></path>
                <path d="M46.9,48.2 C46.9,49.6 48.1,50.8 49.5,50.8 C50.9,50.8 52.1,49.6 52.1,48.2 C52.1,46.8 50.9,45.6 49.5,45.6 C48.1,45.6 46.9,46.8 46.9,48.2 L46.9,48.2 Z" id="Path"></path>
                <path d="M52.7,55.7 C53,55.6 53.1,56 53.1,56 L54.9,62 C54.9,62 55.2,63.3 56.3,63 C57.4,62.7 57,61.4 57,61.4 L54.8,54.3 C54.8,54.3 54,52.2 52.3,52.2 L46.7,52.2 C45,52.2 44.2,54.3 44.2,54.3 L42,61.4 C42,61.4 41.6,62.7 42.7,63 C43.8,63.3 44.1,62 44.1,62 L45.9,56 C45.9,56 46,55.6 46.3,55.7 C46.6,55.8 46.5,56.3 46.5,56.3 L43.4,67.4 L46.2,67.4 L46.2,75.4 C46.1,76.2 46.7,76.8 47.4,76.9 C48.2,77 48.8,76.4 48.9,75.7 C48.9,75.6 48.9,75.5 48.9,75.5 L48.9,67.5 L49.7,67.5 L49.7,75.5 C49.6,76.3 50.2,76.9 50.9,77 C51.7,77.1 52.3,76.5 52.4,75.8 C52.4,75.7 52.4,75.6 52.4,75.6 L52.4,67.6 L55.2,67.6 L52.1,56.5 C52.4,56.2 52.3,55.8 52.7,55.7 Z" id="Path"></path>
                <path d="M31.2,48.2 C31.2,49.7 32.4,50.8 33.8,50.8 C35.3,50.8 36.4,49.6 36.4,48.2 C36.4,46.7 35.2,45.6 33.8,45.6 C33.8,45.6 33.8,45.6 33.8,45.6 C32.4,45.5 31.2,46.7 31.2,48.2 C31.2,48.2 31.2,48.2 31.2,48.2 Z" id="Path"></path>
                <path d="M39.1,54.1 C39.1,54.1 38.3,52 36.6,52 L31,52 C29.3,52 28.5,54.1 28.5,54.1 L26.3,61.2 C26.3,61.2 25.9,62.5 27,62.8 C28.1,63.1 28.4,61.9 28.4,61.9 L30.2,56 C30.2,56 30.3,55.6 30.6,55.6 C30.9,55.6 30.8,56.2 30.8,56.2 L27.7,67.3 L30.5,67.3 L30.5,75.3 C30.4,76.1 31,76.7 31.7,76.8 C32.5,76.9 33.1,76.3 33.2,75.6 C33.2,75.5 33.2,75.4 33.2,75.4 L33.2,67.4 L34,67.4 L34,75.4 C33.9,76.2 34.5,76.8 35.2,76.9 C36,77 36.6,76.4 36.7,75.7 C36.7,75.6 36.7,75.5 36.7,75.5 L36.7,67.5 L39.5,67.5 L36.4,56.4 C36.4,56.4 36.3,55.9 36.6,55.8 C36.9,55.7 37,56.2 37,56.2 L38.8,62.1 C38.8,62.1 39.1,63.4 40.2,63 C41.3,62.6 40.9,61.4 40.9,61.4 L39.1,54.1 Z" id="Path"></path>
                <path d="M8.6,49.8 C10.1,49.8 11.3,48.6 11.3,47 C11.3,45.5 10.1,44.3 8.5,44.3 C6.9,44.3 5.8,45.5 5.8,47.1 C5.8,47.1 5.8,47.1 5.8,47.1 C5.8,48.6 7,49.8 8.6,49.8 C8.6,49.8 8.6,49.8 8.6,49.8 Z" id="Path"></path>
                <path d="M11.8,50.9 L5.4,50.9 C3.5,51 2,52.6 2,54.5 L2,62.1 C2,62.4 2.2,62.7 2.4,62.9 L0,75.8 C0,76 0.1,76.2 0.3,76.3 L0.4,76.3 C0.6,76.3 0.8,76.2 0.8,76 L3.2,63.2 C3.7,63.1 4.1,62.7 4.1,62.2 L4.1,55.6 C4.1,55.4 4.2,55 4.6,55 C5,55 5,55.3 5,55.5 L5,75.1 C5,75.9 5.7,76.6 6.5,76.6 C7.3,76.6 8,75.9 8,75.1 C8,75.1 8,75.1 8,75.1 L8,63.9 C8,63.7 8.2,63.5 8.4,63.5 C8.4,63.5 8.4,63.5 8.5,63.5 L8.5,63.5 C8.7,63.5 8.9,63.7 8.9,63.9 C8.9,63.9 8.9,63.9 8.9,64 L8.9,75.3 C9,76.1 9.7,76.8 10.6,76.7 C11.4,76.6 12,76 12,75.3 L12,55.6 C12,55.4 12.1,55.1 12.4,55.1 C12.7,55.1 12.9,55.4 12.9,55.7 L12.9,62.2 C13,62.8 13.5,63.2 14.1,63.2 C14.6,63.2 15,62.7 15.1,62.2 L15.1,54.6 C15.1,52.6 13.7,51.1 11.8,50.9 Z" id="Path"></path>
                <path d="M59.3,60.4 C59.3,61.6 60.3,62.6 61.5,62.6 C62.7,62.6 63.7,61.6 63.7,60.4 C63.7,59.2 62.7,58.2 61.5,58.2 C60.3,58.2 59.3,59.2 59.3,60.4 L59.3,60.4 Z" id="Path"></path>
                <path d="M66,67 C64.7,63.6 64.4,63.6 63.2,63.5 L59.8,63.5 C58.6,63.5 58.4,63.5 57,67 C56.8,67.5 56,69.4 56,69.5 C56,69.6 55.7,70.3 56.4,70.6 C57.1,70.9 57.3,70 57.3,70 L58.7,66.6 C58.7,66.6 58.7,66.5 58.8,66.5 C58.9,66.5 58.8,66.6 58.9,66.6 L58.9,75.4 L58.9,75.4 C58.9,76 59.4,76.5 60,76.5 C60.6,76.5 61.1,76 61.1,75.4 C61.1,75.4 61.1,75.4 61.1,75.4 L61.1,72 C61.1,72 61.1,71.5 61.4,71.5 C61.7,71.5 61.7,72 61.7,72 L61.7,75.5 C61.7,76.1 62.2,76.7 62.8,76.7 C62.8,76.7 62.8,76.7 62.8,76.7 C63.4,76.7 63.9,76.2 63.9,75.6 C63.9,75.6 63.9,75.6 63.9,75.5 L63.9,75.5 L63.9,66.7 C63.9,66.6 63.9,66.6 63.9,66.6 C63.9,66.6 64,66.7 64,66.7 L65.2,69.7 C65.2,69.7 65.6,70.5 66.2,70.2 C66.8,69.9 66.5,69.2 66.5,69.2 C66.5,69.2 66.2,67.5 66,67 Z" id="Path"></path>
                <path d="M25.2,61.4 C24.8,61.2 24.3,61.3 24.1,61.8 C24.1,61.8 24.1,61.8 24.1,61.8 C23.7,62.5 23.2,63.3 22.7,63.9 C22.5,64.1 22.3,64.2 22,64.2 L19.3,64.2 C19,64.2 18.8,64.1 18.6,63.9 C18.3,63.6 17.2,61.7 17.2,61.7 C17.1,61.5 16.8,61.3 16.5,61.3 C16.1,61.3 15.7,61.7 15.7,62.1 C15.7,62.2 15.7,62.3 15.8,62.4 L18,66.4 C18.1,66.6 18.1,66.7 18.1,66.9 L18.1,67.5 L18.1,67.5 C18.1,67.7 18.1,68 18,68.2 L16.9,72.4 L18.1,72.4 L18.1,75.5 L18.1,75.5 C18,76.1 18.5,76.6 19.1,76.7 C19.7,76.8 20.2,76.3 20.3,75.7 C20.3,75.6 20.3,75.6 20.3,75.5 L20.3,72.5 C20.3,72.5 20.3,72.4 20.3,72.4 L21,72.4 L21,75.5 C20.9,76.1 21.4,76.6 22,76.7 C22.6,76.8 23.1,76.3 23.2,75.7 C23.2,75.6 23.2,75.6 23.2,75.5 L23.2,72.4 L24.4,72.4 L23.3,68.2 C23.2,68 23.2,67.8 23.2,67.6 L23.2,67.4 L23.2,67.4 L23.2,67 C23.2,66.8 23.3,66.6 23.3,66.5 L25.3,62.8 L25.5,62.4 C25.7,62.1 25.6,61.6 25.2,61.4 C25.3,61.4 25.2,61.4 25.2,61.4 Z" id="Path"></path>
                <path d="M20.7,62.8 C21.9,62.8 22.9,61.8 22.9,60.6 C22.9,59.4 21.9,58.4 20.7,58.4 C19.5,58.4 18.5,59.4 18.5,60.6 C18.5,60.6 18.5,60.6 18.5,60.6 C18.5,61.8 19.5,62.8 20.7,62.8 C20.7,62.8 20.7,62.8 20.7,62.8 Z" id="Path"></path>
                <path d="M74,17.3 C60,-1.5 33.5,-5.4 14.7,8.6 C11.4,11.1 8.4,14 6,17.3 L5.7,17.7 L6,18.1 C20,36.9 46.6,40.8 65.4,26.8 C68.7,24.3 71.7,21.4 74.1,18.1 L74.4,17.7 L74,17.3 M28.5,8.9 C28.7,8.6 29.3,7.9 29.4,7.7 C29.6,7.5 29.8,7.4 30.1,7.4 C30.3,7.4 30.6,7.5 30.6,7.6 C30.6,7.9 30.5,8.2 30.4,8.5 C30,8.9 29.5,9.1 28.9,9.2 C28.6,9.2 28.4,9 28.5,8.9 M27.8,10.3 C27.8,10.3 27.8,10.3 27.8,10.3 C28.2,10 28.6,9.8 29,9.8 C29.3,9.7 29.8,9.9 29.9,10.1 C30,10.3 29,10.9 28.8,11 C28.3,11.5 27.5,12.4 27.1,12.5 C27,12.5 26.8,12.5 26.7,12.5 C27,11.8 27.4,11 27.8,10.3 M35.5,26.1 C35.4,26.8 35.1,27.4 34.6,27.9 C34.1,28.4 33.4,28.6 32.6,28.7 C31.9,28.7 31.9,26.9 31.9,26 C31.9,25.7 31.5,26.6 31.2,24.7 C31.1,23.5 30.3,24.8 30.2,24 C30.1,23.2 29.8,23.4 29.4,22.9 C29,22.4 28.5,22.9 27.9,23.2 C27.3,23.5 27.6,23.6 26.8,23.3 L26.8,23.3 C26.1,21.5 25.7,19.6 25.7,17.7 C25.7,17.2 25.7,16.7 25.8,16.3 C25.8,16.3 25.9,16.2 25.9,16.2 C26.7,15.3 26.6,15.1 26.6,15.1 L27.4,14.8 C28.2,14.9 29,15.1 29.7,15.4 C30.5,15.7 31.8,16.4 32.6,16.1 C33.1,15.9 33.6,15.6 33.5,15.1 C33.4,14.6 33,14.4 32.4,14.8 C32.2,14.9 31.8,13.9 31.4,14 C31,14.1 31.8,15.2 31.5,15.2 C31.2,15.2 30.6,14 30.5,13.8 C30.4,13.6 30,13.1 29.6,13.5 C28.8,14.3 27.4,14.3 27.1,14.5 C26.3,15.1 26,14.3 26.1,13.8 C26.1,13.7 26.2,13.6 26.2,13.5 C26.7,13.2 27.3,13.1 27.8,13.3 C28.2,13.5 28.4,13.2 28.6,13.1 C28.7,12.9 28.7,12.7 28.6,12.5 C28.5,12.3 28.8,12.2 29,12.1 C29.4,11.9 29.7,11.7 30.1,11.4 C30.8,11.2 31.6,11.2 32.3,11.4 C32.8,11.7 33.4,11.5 33.7,11.1 C34,10.8 34.3,10.5 34.7,10.2 C34.9,10.1 34.2,9.4 33.6,10.2 C33,11 32.7,11 32.4,11 C32.1,11 30.5,10.6 30.3,10.1 C30.1,9.6 30.8,9.2 31.4,8.9 C32.3,8.7 33.2,8.6 34.1,8.5 C35,8.3 36.1,7.9 36.6,8.3 C37.1,8.7 34.3,9.3 35.2,9.8 C35.5,10 37.1,8.9 37.6,8.6 C38.8,8 36.4,7.8 36.7,6.5 C37,5 33.7,5.6 32.1,5.7 C38.7,1.4 47.6,3.2 51.9,9.9 C52.8,11.3 53.4,12.7 53.8,14.3 C53.8,14.5 53.8,14.7 53.7,15 C53.5,15.5 53,15.7 52.5,15.5 C52.3,15.4 52.1,15.3 52,15.1 C51.8,14.9 51.2,14.3 51.3,15.3 C51.4,16.3 52.3,16.4 51.3,17 C50.9,17.3 50.3,17.5 49.8,17.6 C49.3,18 49,18.7 49.1,19.3 C49.2,19.8 50.5,21.3 49.5,21.3 C48.6,20.9 47.8,20.2 47.3,19.4 C47,18.6 46.7,17.8 46.4,17.2 C46.3,16.8 45.8,16.5 45.3,16.6 C45.2,16.6 45.1,16.7 45,16.8 C44.5,17.1 45.2,17.5 44.8,18.2 C44.4,18.9 44.2,19.6 43.6,19 C42.2,17.4 40.2,18.2 39.8,16.4 C39.6,15.4 38.8,15.5 38.1,15 C37.4,14.5 37,14.2 36.9,14.5 C36.8,14.8 39.1,16.7 39.2,17.1 C39.4,17.8 38.5,18.4 37.8,18.6 C37.1,18.8 36.8,18.2 36.2,17.5 C35.6,16.8 35.2,16.3 35.2,16.9 C35.3,17.9 35.7,18.7 36.5,19.3 C37.1,19.7 37.7,19.8 37.5,20.4 C37.3,21 37.5,20.7 36.8,21.3 C36.2,21.7 36,22.4 36.1,23 C36.1,23.9 35.9,23.9 35.8,24.7 C35.7,25.5 35.3,24.8 35.1,25.9 M50.8,20.4 C51.3,20.4 52,21 51.7,21.3 C51.3,21.5 50.7,21.5 50.3,21.2 C50,20.9 50.6,20.4 50.8,20.4 M50.2,20 C50,19.9 49.9,19.8 49.8,19.5 C49.7,19.2 50,18.9 50.3,19.1 C50.6,19.3 50.9,19.6 51,19.9 C50.9,20.1 50.4,20.1 50.2,20 M43.9,20 C43.5,20.2 42.9,20.2 42.5,19.9 C42.1,19.6 42.7,19.2 42.9,19.1 C43.4,19.1 44.2,19.7 43.9,20 M38,22.8 C37.8,23.1 37.3,25.5 36.9,25.3 C36.5,25.1 37,22.5 37.1,22.3 C37.7,21.2 39,21.2 38,22.8 M40,32.1 C38.6,32.1 37.3,31.9 36,31.5 C35.8,31.3 35.7,31 35.8,30.8 C36.3,29.8 37.4,29.1 38.6,29.1 C40.9,28.9 44,30.6 44.4,30.3 C44.8,30 45.9,28.7 47.3,28.8 C47.8,28.8 48.2,28.9 48.6,29.1 C46.2,31.1 43.1,32.1 40,32.1 M50.1,27.9 C49.9,27.9 49.8,27.8 49.6,27.7 C48.8,27.3 48.9,27.9 48.5,27.8 C48.1,27.7 48.9,26.8 47.8,27.5 C46.7,28.2 47,27.4 46.5,26.1 C46.2,24.8 46.8,23.5 48,23 C48.8,22.7 49.7,22.5 50.6,22.3 C52.3,21.8 52.7,20.8 53,21.5 C53.1,21.6 53.1,21.7 53.2,21.8 C53.3,22.1 53.4,22.4 53.4,22.7 C52.7,24.8 51.5,26.5 50.1,27.9 M54,20.7 C53.6,20.6 52,18.4 53.3,16.9 C53.5,16.7 52.9,15.9 53.1,15.9 C53.8,15.9 54.2,16.3 54.3,16.9 C54.3,17.2 54.3,17.4 54.3,17.7 C54.3,18.7 54.2,19.7 54,20.7" id="Shape"></path>
            </g>
        </g>
    </g>
</svg>