<?xml version="1.0" encoding="UTF-8"?>
<svg width="95px" height="95px" viewBox="0 0 95 95" version="1.1" xmlns="http://www.w3.org/2000/svg" xmlns:xlink="http://www.w3.org/1999/xlink">
    <!-- Generator: Sketch 53.2 (72643) - https://sketchapp.com -->
    <title>goal_14_target_14_7</title>
    <desc>Created with Sketch.</desc>
    <g id="goal_14_target_14_7" stroke="none" stroke-width="1" fill="none" fill-rule="evenodd">
        <g id="Group-116" fill-rule="nonzero">
            <rect id="Rectangle" fill="#0A97D9" x="-3.62376795e-13" y="-2.13162821e-14" width="94.8" height="94.8"></rect>
            <g id="Group" transform="translate(4.700000, 5.000000)" fill="#FFFFFF">
                <g transform="translate(19.000000, 0.000000)">
                    <path d="M54.1,34 C53.2,33.9 52.4,34.6 52.3,35.5 C52.2,36.4 52.9,37.2 53.8,37.3 C53.9,37.3 54,37.3 54.1,37.3 C55,37.2 55.7,36.4 55.6,35.5 C55.6,34.7 54.9,34.1 54.1,34 Z" id="Path"></path>
                    <path d="M29.1,20.4 L29.1,31.7 L43.1,31.7 L44,29.1 L60.2,29.1 L60.2,27.2 L49.3,27.2 L50.8,20.4 L29.1,20.4 Z M40.9,27.1 L36.4,27.1 L36.4,21.7 L40.9,21.7 L40.9,27.1 Z M47.5,27.1 L42,27.1 L42,21.7 L48.6,21.7 L47.5,27.1 Z" id="Shape"></path>
                    <rect id="Rectangle" x="29.1" y="17.6" width="19.7" height="2.1"></rect>
                    <path d="M44.6,30.8 L43.6,33.6 L28.5,33.6 L28.5,12.3 L29.4,12.3 L29.4,11.5 L28.5,11.5 L28.5,0.8 L27.9,0.8 L27.9,11.5 L26.9,11.5 L26.9,12.3 L27.6,12.3 C19.1,16.8 5.1,14.8 0.9,13.7 L0.8,13.7 L0.5,14.1 L0.5,14.1 L0.5,14.1 L0.5,14.1 L0.5,14.1 L0.5,15.6 L0.4,15.6 L0.4,16.3 L0.5,16.3 L0.5,16.8 C0.3,17 0.2,17.3 0.1,17.6 C0.1,17.8 0.1,18 0.3,18.2 C0.4,18.3 0.5,18.3 0.7,18.3 L0.7,18.3 C1,18.3 1.2,18 1.2,17.7 L1.2,17.6 L0.9,17.6 L0.9,17.7 C0.9,17.9 0.8,18.1 0.7,18.1 L0.7,18.1 C0.6,18.1 0.6,18.1 0.6,18 C0.5,17.9 0.5,17.7 0.5,17.6 C0.5,17.3 0.7,17.1 0.8,16.9 L0.8,16.9 L0.8,16.3 L0.9,16.3 L0.9,15.6 L0.8,15.6 L0.8,14.8 L8,32.3 L8,32.3 L9.2,39.5 C11,40.9 18.9,46.1 25.9,39.6 L26,39.5 C26.1,39.4 26.2,39.4 26.3,39.4 C26.4,39.4 26.5,39.4 26.6,39.5 L26.7,39.6 C33.8,46.2 41.7,40.8 43.4,39.5 C43.4,39.4 43.5,39.4 43.6,39.3 L43.7,39.3 C43.8,39.3 43.8,39.3 43.9,39.3 L44.1,39.5 C47.8,43.1 53.3,44 57.9,41.7 L63.3,30.8 L44.6,30.8 Z M12.9,32.3 L12.9,32.3 L8.3,32.3 L1.2,15.2 L13,31.7 C12.9,31.9 12.9,32.1 12.9,32.3 Z M13.2,31 L3.2,17 L14.8,29.5 C14.1,29.8 13.5,30.3 13.2,31 Z M20.9,33.6 L20.6,32.3 L18.8,32.3 L18.8,32.3 C18.8,30.7 17.6,29.4 16,29.3 L16,26.2 L17,26.2 L17,25.6 L14.5,25.6 L14.5,26.2 L15.5,26.2 L15.5,29.3 L15.4,29.3 L1.2,14.1 C5.8,15.2 19.3,17 27.7,12.6 L21.7,33.6 L20.9,33.6 Z M22,33.6 L27.5,14.4 L24.6,33.7 L22,33.6 Z M27.9,33.6 L24.9,33.6 L27.9,13.5 L27.9,33.6 Z M54.1,38.1 C52.7,38.1 51.6,37 51.6,35.6 C51.6,34.2 52.7,33.1 54.1,33.1 C55.5,33.1 56.6,34.2 56.6,35.6 C56.6,37 55.5,38.1 54.1,38.1 C54.1,38.1 54.1,38.1 54.1,38.1 L54.1,38.1 Z" id="Shape"></path>
                </g>
                <g transform="translate(0.000000, 47.000000)" id="Shape">
                    <path d="M3.6,28.7 C4.2,29.2 5,29.6 5.8,29.7 C6.7,29.6 7.5,29.1 8.1,28.4 L8.1,28.4 L8.1,28.4 L8.1,28.4 C7.6,27.6 6.8,27.1 5.8,27 C5,27.1 4.2,27.5 3.6,28 C3.3,27.5 2.9,27.1 2.3,27 L2.3,27 L2.3,27 L2.3,27 C2.8,27.8 2.8,28.8 2.3,29.5 L2.3,29.5 L2.3,29.5 L2.3,29.5 L2.3,29.5 C2.8,29.5 3.3,29.2 3.6,28.7 Z M6.6,27.7 C6.8,27.7 7,27.9 7,28.1 C7,28.3 6.8,28.5 6.6,28.5 L6.6,28.5 C6.4,28.5 6.2,28.3 6.2,28.1 C6.2,27.9 6.4,27.8 6.6,27.7 L6.6,27.7 Z"></path>
                    <path d="M20.4,18.1 L20.4,18.1 L20.4,18.1 L20.4,18.1 C21.1,18 21.7,17.6 22,17 C22.7,17.6 23.6,18 24.5,18.1 C25.5,18 26.4,17.5 27,16.7 L27,16.7 L27,16.7 L27,16.7 L27,16.7 C26.4,15.9 25.5,15.3 24.5,15.2 C23.6,15.3 22.7,15.7 22,16.2 C21.7,15.6 21.2,15.2 20.5,15.1 L20.5,15.1 L20.5,15.1 L20.5,15.1 C20.8,15.5 20.9,16 21,16.5 C20.9,17.1 20.7,17.6 20.4,18.1 L20.4,18.1 Z M25.2,16 C25.4,16 25.6,16.2 25.6,16.4 C25.6,16.6 25.4,16.8 25.2,16.8 C25,16.8 24.8,16.6 24.8,16.4 C24.8,16.4 24.8,16.4 24.8,16.4 C24.8,16.2 25,16 25.2,16 L25.2,16 Z"></path>
                    <path d="M3.2,16.2 C3.9,16.8 4.8,17.2 5.7,17.3 C6.7,17.2 7.6,16.7 8.2,15.8 L8.2,15.8 L8.2,15.8 L8.2,15.8 L8.2,15.8 C7.6,15 6.7,14.4 5.7,14.3 C4.8,14.4 3.9,14.8 3.2,15.4 C2.9,14.8 2.4,14.4 1.7,14.3 L1.7,14.3 L1.7,14.3 L1.7,14.3 C2,14.7 2.1,15.2 2.1,15.7 C2.1,16.2 1.9,16.7 1.7,17.1 L1.7,17.1 L1.7,17.1 L1.7,17.1 L1.7,17.1 C2.4,17.2 2.9,16.8 3.2,16.2 Z M6.5,15.2 C6.7,15.2 6.9,15.4 6.9,15.6 C6.9,15.8 6.7,16 6.5,16 C6.3,16 6.1,15.8 6.1,15.6 C6.1,15.6 6.1,15.6 6.1,15.6 C6.1,15.4 6.3,15.2 6.5,15.2 Z"></path>
                    <path d="M3.1,7.3 C3.8,7.9 4.7,8.3 5.6,8.4 C6.6,8.3 7.5,7.8 8.1,6.9 L8.1,6.9 L8.1,6.9 L8.1,6.9 L8.1,6.9 C7.5,6.1 6.6,5.5 5.6,5.4 C4.7,5.5 3.8,5.9 3.1,6.5 C2.8,5.9 2.3,5.5 1.6,5.4 L1.6,5.4 L1.6,5.4 L1.6,5.4 C2.2,6.3 2.2,7.4 1.6,8.2 L1.6,8.2 L1.6,8.2 L1.6,8.2 L1.6,8.2 C2.2,8.2 2.7,7.8 3.1,7.3 Z M6.3,6.2 C6.5,6.2 6.7,6.3 6.8,6.5 C6.8,6.7 6.7,6.9 6.5,7 C6.5,7 6.4,7 6.4,7 C6.2,7 6,6.8 6.1,6.5 C6,6.4 6.2,6.3 6.3,6.2 Z"></path>
                    <path d="M16.5,23.9 L16.5,23.9 L16.5,23.9 L16.5,23.9 C17,24.6 17.9,25.1 18.8,25.2 C19.6,25.1 20.4,24.7 21,24.2 C21.3,24.7 21.7,25.1 22.3,25.2 L22.3,25.2 L22.3,25.2 L22.3,25.2 L22.3,25.2 C21.8,24.4 21.8,23.4 22.3,22.7 L22.3,22.7 L22.3,22.7 L22.3,22.7 C21.7,22.8 21.2,23.2 21,23.7 C20.4,23.2 19.6,22.8 18.8,22.7 C17.9,22.7 17,23.2 16.5,23.9 Z M18.1,24 C17.9,24 17.7,23.8 17.7,23.6 C17.7,23.4 17.9,23.2 18.1,23.2 C18.3,23.2 18.5,23.4 18.5,23.6 C18.4,23.9 18.3,24 18.1,24 C18.1,24 18.1,24 18.1,24 Z"></path>
                    <path d="M7.1,20 L7.1,20 L7.1,20 L7.1,20 C7.8,21 8.8,21.6 10,21.8 C11.1,21.7 12.1,21.2 12.9,20.5 C13.2,21.2 13.9,21.6 14.6,21.8 L14.6,21.8 L14.6,21.8 L14.6,21.8 L14.6,21.8 C13.9,20.8 13.9,19.5 14.6,18.5 L14.6,18.5 L14.6,18.5 L14.6,18.5 C13.9,18.6 13.2,19.1 12.9,19.8 C12.1,19 11.1,18.5 10,18.4 C8.8,18.5 7.8,19.1 7.1,20 Z M9.1,20.3 C8.8,20.3 8.6,20.1 8.6,19.8 C8.6,19.5 8.8,19.3 9.1,19.3 C9.4,19.3 9.6,19.5 9.6,19.8 C9.6,20 9.4,20.2 9.1,20.3 L9.1,20.3 Z"></path>
                    <path d="M19.5,7.8 C19.5,7.8 19.5,7.8 19.5,7.8 L19.5,7.8 C18.5,7.9 17.7,8.5 17.3,9.3 C16.3,8.4 15,7.9 13.6,7.7 C12.1,7.8 10.7,8.6 9.9,9.9 L9.9,9.9 L9.9,9.9 L9.9,9.9 L9.9,9.9 C10.1,10.2 11.6,12.1 13.6,12.1 C15,11.9 16.2,11.4 17.3,10.5 C17.7,11.4 18.5,12 19.5,12.1 L19.5,12.1 C19.5,12.1 19.6,12.1 19.6,12 L19.6,12 L19.6,12 C19.2,11.4 19,10.7 18.9,10 C18.9,9.3 19.1,8.5 19.5,7.8 C19.5,7.9 19.5,7.8 19.5,7.8 Z M12.4,10.2 C12.1,10.2 11.8,9.9 11.8,9.6 C11.8,9.3 12.1,9 12.4,9 C12.7,9 13,9.3 13,9.6 C13,9.9 12.8,10.2 12.4,10.2 Z"></path>
                    <path d="M32.6,16.1 C32.6,15.4 32.5,14.7 32.3,14.1 C29.6,5.6 6.1,1 0.8,0.1 L0.8,1.3 C6.3,2.3 28.8,6.8 31.2,14.5 C31.6,15.8 31.7,17.1 31.6,18.4 L31.6,18.4 C31.6,18.5 31.6,18.6 31.6,18.8 C31.5,19.3 31.4,19.8 31.3,20.3 C28.9,27.7 8.1,32.2 1.6,33.4 C1.4,33.4 1.4,33.9 1.4,34.2 L1.4,37.4 L2.2,37.4 L2.2,36.4 L4.3,36.1 L4.3,37.4 L5.1,37.4 L5.1,36 L6.9,35.7 L6.9,37.5 L7.7,37.5 L7.7,35.6 C8.3,35.5 8.9,35.4 9.5,35.2 L9.5,37.5 L10.3,37.5 L10.3,35 C10.9,34.9 11.5,34.7 12.1,34.6 L12.1,37.5 L12.9,37.5 C13.5,37.3 14.1,37.2 14.7,37 L14.7,37.5 L15,37.5 L15,36.8 L16.8,36.3 L16.8,37.5 L17.6,37.5 L17.6,36 C18.2,35.8 18.8,35.6 19.4,35.4 L19.4,37.4 L20,37.4 L20,35.1 C20.6,34.9 21.2,34.6 21.8,34.4 L21.8,37.4 L22.6,37.4 L22.6,37 C23.2,36.7 23.8,36.5 24.4,36.2 L24.4,37.5 L25,37.5 L25,35.9 C25.6,35.6 26.2,35.3 26.8,35 L26.8,37.5 L27.6,37.5 C28.3,37.1 28.8,36.8 29.3,36.4 L29.3,37.5 L30,37.5 L30,35.9 C30.6,35.5 31.2,35 31.8,34.5 L31.8,37.5 L32.6,37.5 L32.6,19.2 C32.6,19.1 32.6,18.9 32.6,18.8 L32.6,18.8 L32.6,16.1 L32.6,16.1 L32.6,16.1 Z M4.1,35.5 L2,35.8 L2,34.4 C2.6,34.3 3.3,34.2 4.1,34 L4.1,35.5 Z M6.7,35.1 L4.9,35.4 L4.9,33.9 L6.7,33.5 L6.7,35.1 Z M9.2,34.6 C8.6,34.7 8,34.8 7.4,35 L7.4,33.4 L9.2,33 L9.2,34.6 Z M11.7,34 L9.9,34.4 L9.9,32.7 C10.5,32.6 11.1,32.4 11.7,32.2 L11.7,34 Z M14.2,36.4 C13.6,36.6 13.1,36.7 12.4,36.9 L12.4,34.5 C13,34.3 13.6,34.2 14.2,34 L14.2,36.4 Z M14.2,33.3 C13.6,33.5 13,33.6 12.4,33.8 L12.4,32.1 L14.2,31.6 L14.2,33.3 Z M16.7,35.6 C16.1,35.8 15.5,36 14.9,36.1 L14.9,33.6 L16.7,33 L16.7,35.6 Z M16.7,32.5 L14.9,33.1 L14.9,31.4 L16.7,30.8 L16.7,32.5 Z M19.2,34.8 C18.6,35 18,35.2 17.4,35.4 L17.4,32.9 L19.2,32.3 L19.2,34.8 Z M19.2,31.6 C18.6,31.8 18.1,32 17.4,32.2 L17.4,30.5 L19.2,29.9 L19.2,31.6 Z M21.8,33.8 C21.2,34 20.7,34.3 20,34.5 L20,32 C20.6,31.8 21.2,31.5 21.8,31.3 L21.8,33.8 Z M21.8,30.6 L20,31.3 L20,29.6 C20.6,29.4 21.2,29.1 21.8,28.9 L21.8,30.6 Z M24.3,35.5 C23.8,35.8 23.2,36 22.5,36.3 L22.5,34.1 C23.1,33.8 23.7,33.6 24.3,33.3 L24.3,35.5 Z M24.3,32.7 C23.8,33 23.2,33.2 22.5,33.5 L22.5,31 C23.1,30.7 23.7,30.5 24.3,30.2 L24.3,32.7 Z M24.3,29.5 C23.8,29.8 23.2,30 22.5,30.3 L22.5,28.6 C23.1,28.3 23.7,28.1 24.3,27.8 L24.3,29.5 Z M26.8,34.3 C26.3,34.6 25.7,34.9 25,35.2 L25,33 C25.6,32.7 26.2,32.4 26.8,32.1 L26.8,34.3 Z M26.8,31.4 C26.3,31.7 25.7,32 25,32.3 L25,29.8 C25.6,29.5 26.2,29.2 26.8,28.9 L26.8,31.4 Z M26.8,28.2 C26.3,28.5 25.7,28.8 25,29.2 L25,27.5 C25.6,27.2 26.2,26.8 26.8,26.5 L26.8,28.2 Z M29.3,35.7 C28.8,36 28.2,36.4 27.5,36.8 L27.5,34.6 C28.2,34.2 28.7,33.9 29.3,33.5 L29.3,35.7 Z M29.3,32.8 C28.8,33.1 28.2,33.5 27.5,33.9 L27.5,31.7 C28.2,31.3 28.7,30.9 29.3,30.6 L29.3,32.8 Z M29.3,29.8 C28.8,30.1 28.2,30.5 27.5,30.9 L27.5,28.4 C28.2,28 28.7,27.6 29.3,27.3 L29.3,29.8 Z M29.3,26.6 C28.8,26.9 28.2,27.3 27.5,27.7 L27.5,26 C28.1,25.6 28.7,25.2 29.3,24.7 L29.3,26.6 Z M30,24 C30.7,23.3 31.3,22.6 31.8,21.7 L31.8,24.7 C31.2,25.2 30.6,25.7 30,26.1 L30,24 Z M30,26.8 C30.8,26.3 31.4,25.8 31.8,25.5 L31.8,27.9 L31.7,27.9 C31.2,28.4 30.6,28.9 30,29.3 L30,26.8 L30,26.8 Z M30,30 C30.6,29.6 31.2,29.1 31.8,28.6 L31.8,30.9 C31.2,31.4 30.6,31.9 30,32.3 L30,30 Z M30,35.1 L30,33 C30.8,32.5 31.4,32 31.8,31.7 L31.8,33.7 C31.2,34.2 30.6,34.7 30,35.1 L30,35.1 Z"></path>
                </g>
                <g transform="translate(36.000000, 53.000000)">
                    <path d="M12.3,25.3 C11.9,25.3 11.6,25.5 11.5,25.3 C11.4,25.1 11.4,24.6 11.6,24.5 C11.8,24.4 12.1,24.3 12.3,24.3 C12.6,24.3 12.5,24 12.2,24 C11.9,24 11.7,24.1 11.7,23.9 C11.7,23.7 11.8,23.1 11.5,23.1 C11.2,23.1 11.3,23.3 11.3,23.4 C11.3,23.5 11.4,24.2 11.2,24.1 C11,24 10.9,23.9 10.8,23.7 C10.7,23.5 10.4,23.6 10.5,23.8 C10.6,24 10.7,24.2 10.8,24.3 C11.1,24.7 11.1,24.8 11,25 C10.8,25.3 10.5,25.6 10.2,25.8 C10,25.8 9.8,25.8 9.8,25.3 C9.8,24.8 9.8,23.6 9.5,23.5 C9.2,23.4 9.1,23.6 9.1,23.8 C9.1,24 9.2,24.4 9.2,24.6 C9.2,24.8 9,24.7 8.9,24.6 C8.8,24.5 8.4,24.3 8.3,24.5 C8.2,24.6 8.2,24.8 8.3,24.9 C8.3,24.9 8.3,24.9 8.3,24.9 C8.5,25 8.7,25 8.8,25.2 C9,25.5 9.1,25.8 8.9,26.1 C8.5,26.7 8,27.3 7.5,27.8 C7.2,28.1 6.4,28 6.5,27.5 C6.6,27 6.6,26.5 7,26.5 C7.4,26.5 8.1,26.5 8.1,26.2 C8.1,25.9 7.7,25.9 7.4,25.9 C7.2,25.9 7.1,25.8 7.1,25.7 C7.1,25.6 7.1,25.6 7.1,25.5 C7.2,25.3 7.9,23.7 8.1,23.1 C8.1,23.1 8.2,22.8 8.4,22.8 C8.6,22.8 8.9,22.8 9.1,22.9 C9.4,23 9.5,22.9 9.5,22.8 C9.5,22.7 9.4,22.5 9.1,22.4 C8.8,22.3 8.6,22.2 8.6,22.1 C8.7,21.8 9,21.7 9.3,21.7 C9.7,21.8 10,21.9 10.3,22.2 C10.6,22.4 10.8,22.1 10.6,22 C10.4,21.9 10.1,21.6 10,21.4 C9.9,21.2 10,21.1 10.2,21.1 C10.4,21.1 11.1,20.8 11.2,20.5 C11.3,20.2 10.9,20.1 10.5,20.3 C10.1,20.5 9.8,20.7 9.7,20.5 C9.7,20.2 9.7,20 9.7,19.7 C9.7,19.5 9.4,19.4 9.3,19.6 C9.3,19.8 9.2,20.1 9.2,20.3 C9.1,20.7 8.8,21 8.4,21.2 C8.2,21.2 8.1,21.1 8.1,20.9 C8.1,20.7 8.1,20.2 8.4,20.1 C8.7,20 8.9,19.8 8.9,19.6 C8.9,19.4 8.5,19.6 8.3,19.7 C8.1,19.8 7.8,19.8 7.9,19.5 C7.9,19.1 8,18.7 8.2,18.4 C8.5,18.1 8.4,18 8.2,17.9 C8,17.8 7.9,18 7.7,18.2 C7.5,18.4 7.3,18.4 7.2,18.1 C7.1,17.8 6.7,17.3 6.4,17.5 C6.1,17.7 6.1,18.1 6.3,18.5 C6.5,18.9 6.9,19.4 6.7,19.5 C6.5,19.6 6.3,19.5 6,19.4 C5.9,19.3 5.8,19.3 5.7,19.4 C5.6,19.5 5.6,19.6 5.7,19.7 C5.7,19.7 5.7,19.7 5.8,19.7 C6.2,19.9 6.5,20.2 6.8,20.5 C7,20.9 7.1,21.3 7.1,21.8 C7.1,22.4 7,22.8 6.9,22.6 C6.6,22.3 6.3,21.9 5.9,21.7 C5.4,21.4 5.1,21.4 5.1,21 C5.1,20.6 5.2,19.9 4.7,19.9 C4.2,19.9 4.3,20.4 4.3,20.5 C4.3,20.6 4.3,21.2 4.1,21.1 C3.9,21 3,20.4 2.8,20.8 C2.6,21.2 3,21.3 3.2,21.4 C3.4,21.5 4.1,21.7 4.2,21.9 C4.3,22.1 4.1,22.1 3.9,22.2 C3.7,22.3 3.1,22.6 3.2,22.9 C3.3,23.2 3.5,23.1 3.7,23 C4.1,22.7 4.5,22.5 5,22.4 C5.6,22.5 6,22.9 6.2,23.4 C6.3,23.8 6.3,24.2 6.3,24.7 C6.3,24.9 6.1,25 5.8,24.6 C5.5,24.2 4.6,23.8 4.3,24.2 C4,24.6 4.5,24.6 4.8,24.9 C5.1,25.2 5.6,25.5 5.6,25.9 C5.6,26.5 5.4,27 5.1,27.5 C4.9,27.7 4.3,27.5 4.3,27 C4.3,26.5 4.3,26.1 3.9,26.1 C3.5,26.1 3.7,26.7 3.4,26.7 C3,26.6 2.8,26.2 2.8,25.8 C2.8,25.4 2.9,25 3.2,24.7 C3.4,24.5 3.6,24.3 3.4,24.1 C3.2,23.9 3,24.1 2.8,24.3 C2.6,24.5 2.5,24.8 2.3,24.7 C2.1,24.4 1.9,24.1 1.6,23.9 C1.3,23.6 0.9,23.6 0.7,23.8 C0.5,24 0.6,24.1 0.9,24.5 C1.2,24.9 1.6,25.1 1.6,25.4 C1.6,25.7 1.5,25.8 1.2,25.8 C0.9,25.8 0.4,25.8 0.4,26 C0.4,26.2 0.6,26.2 1.1,26.3 C1.6,26.4 2,26.6 2.2,27 C2.5,27.4 3.1,28.1 3,28.4 C2.9,28.7 2.6,28.7 2.2,28.2 C1.8,27.7 1.6,27.8 1.5,28 C1.4,28.3 1.5,28.5 1.7,28.7 C1.9,28.9 1.8,29 1.5,29.1 C1.2,29.2 0.8,29.2 0.9,29.5 C1,29.8 1.2,29.9 1.5,29.7 C1.8,29.5 1.9,29.4 2.2,29.3 C2.5,29.2 2.5,29.3 2.5,29.5 C2.4,29.8 2.3,30 2.3,30.3 C2.3,30.5 2.6,30.7 2.7,30.4 C2.8,30.1 3.1,29.2 3.4,29.1 C3.9,28.9 4.4,29.1 4.8,29.5 C5.5,30.1 5,31.1 5.1,31.4 C5.7,31.5 6.3,31.6 6.4,31.3 C6.4,31.2 6.5,31 6.7,30.5 C7,29.8 7.2,29.8 7.5,29.8 C7.8,29.8 8.3,30.3 8.4,30.3 C8.5,30.3 8.7,30.4 8.8,30.1 C8.9,29.8 8.6,29.8 8.4,29.7 C8.2,29.6 7.8,29.4 7.7,29.1 C7.6,28.8 7.7,28.5 8.1,28.5 C8.5,28.5 9.2,28.4 9.5,28.7 C9.7,28.9 9.9,29.3 9.8,29.6 C9.8,29.8 9.8,30 9.8,30.2 C9.9,30.3 10,30.4 10.1,30.3 C10.3,30.3 10.2,30.1 10.2,29.9 C10.2,29.7 10.2,29.5 10.2,29.3 C10.3,29.1 10.4,29.2 10.4,29.3 C10.7,29.6 11,29.8 11.3,30 C11.4,30 11.6,29.9 11.6,29.8 C11.6,29.7 11.6,29.6 11.5,29.6 C11.3,29.4 11.1,29.2 10.9,29 C10.8,28.8 10.9,28.8 11,28.7 C11.1,28.6 11.4,28.3 11.3,28.1 C11.2,27.9 10.9,28.1 10.6,28.3 C10.4,28.5 10.1,28.5 9.8,28.3 C9.5,28.1 9.3,28 9,27.9 C8.7,27.8 8.6,27.6 8.8,27.4 C9.1,27.1 9.5,27 9.9,26.9 C10.2,26.9 10.5,27 10.6,27.2 C10.8,27.4 11.1,27.4 11.2,27.3 C11.3,27.2 11.3,27 11.1,26.8 C10.9,26.6 10.8,26.6 10.8,26.5 C10.8,26.4 11.3,26.4 11.7,26.4 C12.1,26.4 12.5,26.2 12.4,25.9 C12.3,25.6 12.8,25.3 12.3,25.3 Z" id="Path"></path>
                    <g transform="translate(12.000000, 5.000000)" id="Path">
                        <path d="M27.4,15.8 C27.3,16 27.2,16.2 27.1,16.4 L33.5,21 C33.5,19.2 34.1,17.5 35.3,16.1 L27.4,15.2 C27.4,15.5 27.4,15.7 27.4,15.8 Z"></path>
                        <path d="M2.8,4.1 C2.6,4.1 2.4,4.2 2.3,4.3 L1.5,0.6 L0.9,0.7 L1.8,4.6 C1.5,4.9 1.2,5.3 1.1,5.7 C1,5.7 0.9,5.7 0.8,5.8 L0.5,6 C0.3,6.2 0.2,6.5 0.3,6.7 L1.4,8.5 C1.6,8.7 1.9,8.8 2.1,8.7 L2.2,8.6 C2.7,8.9 3.3,9 3.9,8.8 C4.7,8.6 5.3,8.1 5.6,7.4 L5.7,7.2 C5.8,6.8 5.9,6.3 5.8,5.8 C5.4,4.7 4.1,3.8 2.8,4.1 C2.8,4.1 2.8,4.1 2.8,4.1 Z"></path>
                        <path d="M29.2,8.1 L29.2,8.1 L36.6,6.7 C35.3,5.5 34.5,3.8 34.4,2 L28.7,6.7 C28.9,6.9 29,7.1 29.1,7.3 C29.1,7.6 29.2,7.9 29.2,8.1 Z"></path>
                        <path d="M20.4,11.4 L21.1,11.6 L21.3,11.6 L27.6,9.3 C27.7,9.3 27.8,9.2 27.9,9.1 C28.3,8.8 28.5,8.4 28.5,8 C28.5,7.8 28.5,7.7 28.4,7.5 C28.3,7.3 28.3,7.2 28.2,7.1 C27.9,6.8 27.6,6.6 27.2,6.6 C27,6.6 26.9,6.6 26.8,6.7 L21.1,8.8 L18.6,8.6 C18.8,9 18.9,9.4 18.9,9.8 L20.4,11.4 Z"></path>
                        <path d="M25.8,13.9 L20,12.1 L18,10.2 C18,10.1 18,10 18,9.9 C18,9.8 18,9.6 17.9,9.5 L17.9,9.5 C17.8,9.3 17.8,9.1 17.7,9 C17.4,8.5 16.9,8.1 16.3,8 L8.8,6.5 C8.7,6.5 8.5,6.5 8.4,6.5 C7.4,6.5 6.4,7.2 6.2,8.3 C6,9.4 6.6,10.4 7.6,10.8 C7.9,11.2 8.1,11.7 8.4,12.1 L6.7,14.5 C6.2,14.9 6.2,15.6 6.6,16.1 C6.6,16.1 6.6,16.1 6.7,16.2 C6.8,16.3 7,16.4 7.2,16.4 C7.6,16.3 8,16.1 8.3,15.8 C8.4,15.7 8.7,15.3 9.1,14.8 C9.9,13.8 11.1,12.4 11.1,12.4 C11.3,12.1 11.3,11.8 11.2,11.6 L15.5,12.5 C15.6,12.5 15.8,12.5 15.9,12.5 C16,12.5 16.2,12.5 16.3,12.5 L18.4,14.5 L18.6,14.7 L25,16.7 C25.1,16.7 25.2,16.7 25.3,16.8 L25.4,16.8 C26.1,16.8 26.7,16.2 26.7,15.5 C26.7,14.7 26.3,14.1 25.8,13.9 L25.8,13.9 Z"></path>
                    </g>
                    <path d="M7.8,9.8 C8.1,9.4 8,8.8 7.6,8.4 C7.2,8.1 6.6,8.2 6.2,8.6 C5.9,9 6,9.7 6.4,10 C6.9,10.3 7.5,10.2 7.8,9.8 Z" id="Path"></path>
                    <path d="M6.9,3.1 C7.1,2.8 7.1,2.3 6.8,2.1 C6.5,1.9 6,1.9 5.8,2.2 C5.6,2.5 5.6,3 5.9,3.2 C6.2,3.4 6.6,3.4 6.9,3.1 L6.9,3.1 Z" id="Path"></path>
                    <path d="M25.1,25.5 C25,25.5 24.9,25.5 24.8,25.5 C24.8,25.5 23.7,25.5 23.3,25.5 C22.9,25.5 22.7,25.5 22.6,25.1 C22.4,24.6 22.3,24.2 22.3,23.7 C22.3,23.5 22.3,23.4 22.1,23.4 C21.9,23.4 21.9,23.4 21.7,23.6 C21.4,24.1 21.2,24.6 21.1,25.2 C21.1,25.2 21,25.6 20.7,25.6 L18.7,25.6 C18.7,25.6 18.4,25.5 18.3,25.8 C18.2,26.1 18.5,26.1 18.6,26.2 L20.1,27.2 C20.1,27.2 20.3,27.3 20.2,27.6 L19.6,29.3 C19.6,29.3 19.5,29.5 19.6,29.6 C19.7,29.7 19.9,29.7 20,29.6 C20.5,29.3 21,28.9 21.5,28.4 C21.6,28.3 21.8,28.3 22,28.4 C22,28.4 22,28.4 22,28.4 C22.5,28.8 23,29.2 23.5,29.5 C23.5,29.5 23.7,29.7 23.9,29.6 C23.9,29.6 24.1,29.5 24,29.3 C23.9,29.1 23.3,27.7 23.3,27.6 C23.3,27.4 23.4,27.2 23.5,27.1 C23.8,26.9 24.9,26.3 25.1,26.1 C25.3,25.9 25.4,25.5 25.1,25.5 Z" id="Path"></path>
                    <path d="M23.2,6.2 L23.2,6.2 L23.2,6.2 L23.2,6.2 C24,6.1 24.6,5.7 25,5 C25.8,5.7 26.8,6.1 27.8,6.2 C29,6.1 30,5.5 30.7,4.5 L30.7,4.5 L30.7,4.5 L30.7,4.5 C30,3.6 29,2.9 27.8,2.8 C26.8,2.9 25.8,3.3 25,4 C24.7,3.3 24,2.9 23.3,2.8 L23.3,2.8 L23.3,2.8 L23.3,2.8 C24,3.8 24,5.1 23.3,6 L23.2,6.2 Z M28.7,3.8 C29,3.8 29.2,4 29.2,4.3 C29.2,4.6 29,4.8 28.7,4.8 C28.4,4.8 28.2,4.6 28.2,4.3 C28.2,4.3 28.2,4.3 28.2,4.3 C28.2,4 28.4,3.8 28.7,3.8 Z" id="Shape"></path>
                    <path d="M35.9,4.1 C35.9,3.5 35.5,3.1 34.9,3.1 C34.3,3.1 33.9,3.5 33.9,4.1 C33.9,4.7 34.3,5.1 34.9,5.1 C35.5,5.1 35.9,4.6 35.9,4.1 Z" id="Path"></path>
                    <path d="M39.5,1.9 C39.8,1.9 40,1.7 40,1.4 C40,1.1 39.8,0.9 39.5,0.9 C39.2,0.9 39,1.1 39,1.4 C39,1.7 39.2,1.9 39.5,1.9 L39.5,1.9 Z" id="Path"></path>
                </g>
                <path d="M77.7,44.7 L77.7,44.7 L77.4,44.8 C72.7,47.3 66.8,46.5 62.9,42.8 C62.8,42.7 62.7,42.6 62.6,42.6 C62.5,42.6 62.4,42.7 62.3,42.8 C60.6,44.1 52.5,49.6 45.4,42.9 L45.3,42.8 C45.2,42.7 45.1,42.7 45,42.7 C44.9,42.7 44.8,42.7 44.7,42.8 L44.6,42.9 C37.4,49.6 29.4,44.1 27.6,42.8 C27.5,42.7 27.4,42.7 27.3,42.6 C27.1,42.6 27,42.7 27,43.1 L27,46.5 C27,46.7 27.1,46.9 27.3,47.1 C35,54.4 43,48.5 44.7,47.1 L44.9,46.9 C44.9,46.9 45,46.8 45.1,46.8 C45.2,46.8 45.2,46.8 45.3,46.9 L45.5,47.1 C47.2,48.5 55.2,54.4 62.9,47.1 L62.9,47.1 C63,47 63.1,47 63.2,47 C63.3,47 63.4,47 63.4,47.1 C63.4,47.1 63.5,47.2 63.5,47.2 C65,48.7 71.4,54.2 78.2,48.3 C78.3,48.2 78.3,48.1 78.3,48 L78.3,45.2 C78.1,44.9 77.9,44.7 77.7,44.7 C77.7,44.7 77.7,44.7 77.7,44.7" id="Path"></path>
            </g>
        </g>
    </g>
</svg>