<?xml version="1.0" encoding="UTF-8"?>
<svg width="95px" height="95px" viewBox="0 0 95 95" version="1.1" xmlns="http://www.w3.org/2000/svg" xmlns:xlink="http://www.w3.org/1999/xlink">
    <!-- Generator: Sketch 53.2 (72643) - https://sketchapp.com -->
    <title>goal_15_target_15_4</title>
    <desc>Created with Sketch.</desc>
    <g id="goal_15_target_15_4" stroke="none" stroke-width="1" fill="none" fill-rule="evenodd">
        <g id="Group-123" fill-rule="nonzero">
            <rect id="Rectangle" fill="#56C02B" x="-3.62376795e-13" y="-2.13162821e-14" width="94.8" height="94.8"></rect>
            <g id="Group" transform="translate(6.700000, 9.000000)" fill="#FFFFFF">
                <path d="M3.9,51.5 L18.5,30.5 L41.7,30.5 L41.7,30.5 C43.9,30.4 46,29.3 47.2,27.5 L51.4,33.4 L58.1,23.5 L76.4,51.5 L78.8,51.5 L78.1,50.3 L58.1,19.6 L51.3,29.6 L48.2,25.2 C48.4,24.6 48.5,23.9 48.5,23.3 C48.5,19.5 45.6,16.4 41.8,16.2 L33.7,4.7 L27.7,13.4 L27,13.4 L27,13.4 C27,9.9 24.2,7.1 20.7,7.1 C17.2,7.1 14.4,9.9 14.4,13.4 C14.4,13.5 14.4,13.5 14.4,13.6 C13.8,13.5 13.1,13.4 12.5,13.4 C7.8,13.4 4,17.2 4,22 C4,26.7 7.8,30.5 12.5,30.5 L16,30.5 L1.4,51.5 L3.9,51.5 Z M33.8,8.3 L39.5,16.4 C38,16.8 36.8,17.6 35.8,18.8 C34.8,16.3 32.7,14.4 30.1,13.7 L33.8,8.3 Z" id="Shape"></path>
                <path d="M33.8,69.2 L35.8,69.2 C35.9,69.2 36,69.1 36,69.1 C36,69.1 36,69.1 36,69.1 L36,64.7 L40.8,64.7 C41,64.7 41.1,64.6 41.1,64.4 L41.1,64.4 C41.1,64.4 41.1,64.3 41.1,64.3 L35.3,45.3 L35.3,45.2 C35.2,45.1 35.1,45 35,45 C34.9,45 34.8,45.1 34.7,45.2 L34.6,45.3 L28.7,64.3 C28.6,64.4 28.6,64.6 28.8,64.7 C28.9,64.7 28.9,64.8 29,64.8 L33.8,64.8 L33.8,69.1 C33.8,69.1 33.8,69.1 33.8,69.2 Z" id="Path"></path>
                <path d="M48.9,69.2 L50.9,69.2 C51,69.2 51.1,69.1 51.1,69 L51.1,69 L51.1,64.6 L55.9,64.6 C56.1,64.6 56.2,64.5 56.2,64.3 C56.2,64.3 56.2,64.3 56.2,64.3 C56.2,64.3 56.2,64.2 56.2,64.2 L50.4,45.2 L50.3,45 C50.2,44.9 50.1,44.8 50,44.8 C49.9,44.8 49.8,44.9 49.7,45 L49.6,45.1 L43.7,64.1 C43.7,64.2 43.7,64.2 43.7,64.3 C43.7,64.5 43.8,64.6 44,64.6 L48.8,64.6 L48.8,69 C48.8,69.1 48.8,69.1 48.9,69.2 Z" id="Path"></path>
                <path d="M23.9,58.5 L24.3,57.7 L24.5,56.2 C24.8,55.8 24.9,55.2 24.7,54.7 C24.2,54.5 23.8,55.3 23.8,55.3 C23.5,55.2 23.1,55.2 22.8,55.2 C22.5,55.2 22.2,55.2 21.9,55.3 C21.7,54.9 21.3,54.8 20.9,54.9 C20.8,55.3 20.8,55.7 21,56 L17.2,57.9 L12.5,58.4 C9.5,58.4 8.1,60 8,62.4 C7.9,63.8 7.5,65.2 6.7,66.5 C5.4,67.7 4.7,65.7 4.7,65.3 C5.2,65.1 5.5,64.6 5.5,64.1 C5.5,64.1 3.2,64.3 4.6,66.7 C5,67.4 5.9,67.6 6.6,67.2 C6.7,67.2 6.7,67.1 6.8,67.1 L7.2,69.3 L7.4,69.7 L8.7,69.7 L8.8,69.1 L8.2,68.8 L7.9,67.5 L11.6,63.3 L13.5,63.9 L18.7,64.3 L19.8,68.6 L20,69.6 L21.5,69.8 L21.9,69.3 L20.9,68.6 L20.9,63.9 L23.1,59.1 L23.9,58.5 Z" id="Path"></path>
                <path d="M12.6,69.5 L13.7,69.5 L13.8,68.9 L12.9,68.5 L12.1,67.2 L13.3,64 L11.7,63.6 L11,64.4 C11.5,65.3 11.5,66.4 11,67.3 L12.6,69.5 Z" id="Path"></path>
                <path d="M73.9,68.7 L74.8,64.3 L73.6,62.6 L74.3,60 C74.3,60 74.6,57.4 71.2,57.8 L65.3,58.5 L64,58.9 L62.5,56.1 C62.5,55.8 62.5,55.5 62.5,55.2 L61.7,55.8 L60.6,55.6 C60.6,56.1 60.4,56.6 60,56.9 C59.4,57.5 58.8,57.7 59,58.4 C59.8,58.4 60.5,58.3 61.3,58.2 L62.9,61.5 L65.6,63.4 L66.6,68.9 L67.3,68.9 L66.7,65.3 L67.2,62.9 L69.8,62.9 L71.1,62.4 L73.8,65.1 L73.1,68.8 L73.9,68.7 Z" id="Path"></path>
                <polygon id="Path" points="70.7 68.7 72.9 64.8 71.2 62.8 70.8 62.9 71.9 65.2 69.9 68.7"></polygon>
                <polygon id="Path" points="64.8 68.7 65.6 68.7 65.8 66.4 65.3 63.9"></polygon>
                <path d="M61.1,55.3 L61.7,55.4 C62.6,54.3 63.8,53.3 65.1,52.6 C63.5,52.8 61.1,55.3 61.1,55.3 Z" id="Path"></path>
                <path d="M60.7,55.1 L61.4,54.5 C62.1,53.6 63,52.9 63.9,52.3 C61.2,53.4 60.7,55.1 60.7,55.1 Z" id="Path"></path>
                <path d="M1.4,72.8 L79.8,72.8 C80.1,72.8 80.4,73.1 80.4,73.4 L80.4,77 C80.4,77.3 80.1,77.6 79.8,77.6 L1.4,77.6 C1.1,77.6 0.8,77.3 0.8,77 L0.8,73.4 C0.9,73 1.1,72.8 1.4,72.8 Z" id="Path"></path>
                <path d="M70.7,18.2 C69.6,17.4 68.3,16.9 67,16.8 C65.7,16.8 64.5,17.3 63.6,18.2 C63.4,18.4 63.1,18.9 63.4,19.1 C63.7,19.3 63.9,19.1 64.2,18.9 C64.7,18.6 65.3,18.5 65.9,18.6 C67.6,18.6 69.1,19.3 70.3,20.4 L70.3,20.4 C70.4,20.5 70.5,20.5 70.7,20.6 C70.9,20.6 71.1,20.4 71.1,20.4 C72.3,19.2 73.9,18.6 75.5,18.6 C76.1,18.6 76.7,18.7 77.2,19 C77.4,19.2 77.7,19.2 78,19.1 C78.3,18.9 78.1,18.5 77.9,18.3 C77,17.3 75.7,16.8 74.4,16.8 C73,16.9 71.7,17.4 70.7,18.2 Z" id="Path"></path>
                <path d="M59.6,8 C60,7.7 60.5,7.6 61,7.6 C62.4,7.5 63.7,8 64.7,8.9 L64.7,8.9 C64.8,9 64.9,9 65,9 C65.1,9 65.2,8.9 65.3,8.8 C66.2,7.8 67.5,7.2 68.8,7.1 C69.3,7 69.8,7.1 70.2,7.3 C70.4,7.4 70.6,7.5 70.8,7.4 C71,7.2 70.8,6.9 70.7,6.7 C69.9,6 68.9,5.6 67.8,5.6 C66.7,5.7 65.6,6.2 64.8,6.9 C63.9,6.2 62.8,5.9 61.7,5.9 C60.7,5.9 59.7,6.4 59,7.2 C58.8,7.4 58.6,7.8 58.9,8 C59.2,8.2 59.4,8.1 59.6,8 Z" id="Path"></path>
                <path d="M68.3,1.8 C68.7,1.7 69.1,1.8 69.4,1.9 C70.4,2.2 71.3,2.9 71.8,3.9 L71.8,3.9 C71.8,4 71.9,4 72,4.1 C72.1,4.1 72.2,4.1 72.3,4.1 C73.2,3.6 74.4,3.5 75.4,3.7 C75.8,3.8 76.1,4 76.4,4.2 C76.5,4.3 76.7,4.4 76.8,4.4 C76.9,4.4 77,4 76.9,3.9 C76.5,3.1 75.9,2.5 75,2.3 C74.1,2.1 73.2,2.2 72.4,2.5 C71.9,1.8 71.2,1.2 70.3,1 C69.5,0.7 68.7,0.8 67.9,1.3 C67.7,1.4 67.5,1.6 67.6,1.8 C67.7,2 68.1,1.9 68.3,1.8 Z" id="Path"></path>
            </g>
        </g>
    </g>
</svg>