<?xml version="1.0" encoding="UTF-8"?>
<svg width="95px" height="95px" viewBox="0 0 95 95" version="1.1" xmlns="http://www.w3.org/2000/svg" xmlns:xlink="http://www.w3.org/1999/xlink">
    <!-- Generator: Sketch 53.2 (72643) - https://sketchapp.com -->
    <title>goal_10_target_10_3</title>
    <desc>Created with Sketch.</desc>
    <g id="goal_10_target_10_3" stroke="none" stroke-width="1" fill="none" fill-rule="evenodd">
        <g id="Group-75" fill-rule="nonzero">
            <rect id="Rectangle" fill="#DD1367" x="-3.62376795e-13" y="-2.13162821e-14" width="94.8" height="94.8"></rect>
            <g id="Group" transform="translate(4.700000, 5.000000)" fill="#FFFFFF">
                <g transform="translate(26.000000, 30.000000)" id="Path">
                    <path d="M32.8,0.1 L0.6,0.1 C0.4,0.1 0.3,0.3 0.3,0.4 L0.3,9.2 C0.3,9.4 0.4,9.6 0.6,9.6 C0.6,9.6 0.6,9.6 0.6,9.6 L32.8,9.6 C33,9.6 33.2,9.5 33.2,9.3 C33.2,9.3 33.2,9.3 33.2,9.3 L33.2,0.5 C33.2,0.2 33,0.1 32.8,0.1 Z"></path>
                    <path d="M32.8,15.8 L0.6,15.8 C0.4,15.8 0.2,16 0.3,16.2 L0.3,25 C0.3,25.2 0.5,25.4 0.6,25.4 L32.8,25.4 C33,25.4 33.2,25.2 33.2,25 L33.2,25 L33.2,16.2 C33.2,16 33,15.8 32.8,15.8 L32.8,15.8 Z"></path>
                </g>
                <g id="Path">
                    <path d="M81.1,53.4 C80.7,51.7 81.5,49 81.4,45.8 C81.3,42.6 81,41.8 78.9,38.8 C76.3,35.4 73.3,32.3 70.1,29.5 C69.4,28.9 68.4,28.1 67.8,28.6 C67.2,29.1 67.8,30.1 68.2,30.8 C68.6,31.5 71.6,34.8 72.8,36.6 C74.1,38.7 75,41 75.5,43.5 C75.7,44.5 75.9,48.1 75.4,48.4 C74.9,48.7 74.7,48.1 74.6,47.6 C74.5,47.1 74.4,43.8 74.1,42 C73.8,40.2 72.6,39.2 71.7,39.5 C70.9,39.7 71.4,41 71.3,43.3 C71.2,45.6 71.2,48.2 70.9,52.7 C70.7,55.9 72.2,59 74.7,61 C75.4,61.6 80.2,67.8 84.8,73.9 L84.8,59.5 C84.3,58.9 83.9,58.4 83.8,58.3 C82.5,57 81.6,55.3 81.1,53.4 Z"></path>
                    <path d="M4.4,32.4 C4.8,34.1 4,36.8 4.1,40 C4.2,43.2 4.5,44 6.6,47 C9.2,50.4 12.2,53.5 15.4,56.3 C16.1,56.9 17.1,57.7 17.7,57.2 C18.3,56.7 17.7,55.7 17.3,55 C16.9,54.3 13.9,51 12.7,49.2 C11.4,47.1 10.5,44.7 10,42.3 C9.9,41.3 9.6,37.7 10.1,37.5 C10.6,37.3 10.8,37.8 10.9,38.3 C11,38.8 11.1,42.1 11.4,43.9 C11.7,45.7 12.9,46.7 13.9,46.4 C14.7,46.2 14.2,44.9 14.3,42.6 C14.4,40.3 14.4,37.7 14.7,33.2 C14.9,30 13.4,26.9 10.9,25 C10.2,24.4 5.4,18.2 0.8,12.1 L0.8,26.5 L1.8,27.7 C3,28.8 4,30.5 4.4,32.4 Z"></path>
                    <path d="M57.1,6.3 C55.7,7.6 54,8.5 52.2,8.9 C50.5,9.3 47.9,8.5 44.7,8.4 C41.5,8.3 40.7,8.8 37.8,10.8 C34.4,13.3 31.3,16.2 28.4,19.3 C27.8,20 27,21 27.5,21.5 C28,22 29,21.5 29.7,21.1 C30.4,20.7 33.7,17.8 35.5,16.6 C37.6,15.4 39.9,14.5 42.3,14.1 C43.3,14 46.8,13.8 47.1,14.3 C47.4,14.8 46.8,15 46.3,15.1 C45.8,15.2 42.6,15.3 40.8,15.5 C39,15.7 38,17.1 38.3,18 C38.5,18.7 39.8,18.3 42.1,18.4 C44.4,18.5 47,18.6 51.4,18.9 C54.6,19.1 57.7,17.8 59.6,15.3 C60.4,14.3 72.9,5.4 80.1,0.3 L62.5,0.3 C59.8,3.3 57.4,6 57.1,6.3 Z"></path>
                    <path d="M28.3,79.6 C29.7,78.3 31.4,77.4 33.2,76.9 C34.9,76.5 37.5,77.3 40.7,77.3 C43.9,77.3 44.7,76.9 47.6,74.9 C51,72.4 54.1,69.5 56.9,66.4 C57.5,65.7 58.3,64.7 57.8,64.2 C57.3,63.7 56.3,64.2 55.6,64.6 C54.9,65 51.6,67.9 49.8,69.1 C47.7,70.3 45.4,71.2 42.9,71.6 C41.9,71.7 38.4,71.9 38.1,71.4 C37.8,70.9 38.4,70.7 38.9,70.6 C39.4,70.5 42.6,70.4 44.4,70.2 C46.2,70 47.2,68.8 46.9,67.8 C46.7,67.1 45.4,67.4 43.1,67.4 C40.8,67.4 38.2,67.2 33.8,66.9 C30.6,66.7 27.5,68 25.6,70.5 C24.8,71.4 13.8,79.3 6.6,84.5 L23.6,84.5 C26.1,82 28,79.9 28.3,79.6 Z"></path>
                </g>
            </g>
        </g>
    </g>
</svg>