<?xml version="1.0" encoding="UTF-8"?>
<svg width="95px" height="95px" viewBox="0 0 95 95" version="1.1" xmlns="http://www.w3.org/2000/svg" xmlns:xlink="http://www.w3.org/1999/xlink">
    <!-- Generator: Sketch 53.2 (72643) - https://sketchapp.com -->
    <title>goal_9_target_9_1</title>
    <desc>Created with Sketch.</desc>
    <g id="goal_9_target_9_1" stroke="none" stroke-width="1" fill="none" fill-rule="evenodd">
        <g id="Group-65" fill-rule="nonzero">
            <rect id="Rectangle" fill="#FD6925" x="-3.62376795e-13" y="-2.13162821e-14" width="94.8" height="94.8"></rect>
            <g id="Group" transform="translate(9.700000, 10.000000)" fill="#FFFFFF">
                <path d="M52.1,37.5 L45.3,33.6 L45.3,25.7 C45.3,25.5 45.2,25.4 45.1,25.3 L38.1,21.2 C38,21.1 37.8,21.1 37.6,21.2 L30.5,25.3 C30.4,25.4 30.3,25.5 30.3,25.7 L30.3,33.6 L23.4,37.5 C23.3,37.6 23.2,37.7 23.2,37.9 L23.2,46 C23.2,46.2 23.3,46.3 23.4,46.4 L30.5,50.5 C30.6,50.6 30.8,50.6 31,50.5 L37.8,46.6 L44.6,50.5 C44.7,50.6 44.9,50.6 45.1,50.5 L52.2,46.4 C52.3,46.3 52.4,46.2 52.4,46 L52.4,37.8 C52.3,37.7 52.2,37.6 52.1,37.5 Z M37.3,45.2 L31.6,42 L37.3,38.7 L37.3,45.2 L37.3,45.2 Z M43.9,33.8 L38.2,37.1 L38.2,30.6 L43.9,33.8 Z M37.3,37.1 L31.6,33.8 L37.3,30.5 L37.3,37.1 Z M38.7,37.9 L44.8,34.4 L50.9,37.9 L44.8,41.4 L38.7,37.9 Z M44.3,33 L38.6,29.7 L44.3,26.4 L44.3,33 Z M36.8,29.7 L31.2,33 L31.2,26.5 L36.8,29.7 Z M30.2,49.3 L24.1,45.8 L24.1,38.7 L30.2,42.2 L30.2,49.3 Z M31.2,49.3 L31.2,42.8 L36.9,46.1 L31.2,49.3 Z M51.4,45.8 L45.3,49.3 L45.3,42.2 L51.4,38.7 L51.4,45.8 Z" id="Shape"></path>
                <g id="Path">
                    <path d="M19.5,26.8 C20.4,25.2 21.6,23.8 22.9,22.5 L11.9,10.4 C9.1,13.1 6.7,16.1 4.9,19.5 L19.5,26.8 Z"></path>
                    <path d="M46.5,18.2 C48.2,19 49.7,19.9 51.1,21.1 L62.1,9.1 C59.2,6.6 55.9,4.5 52.3,3 L46.5,18.2 Z"></path>
                    <path d="M71.8,21.9 L57.2,29.2 C57.9,30.9 58.4,32.6 58.7,34.4 L75,32.9 C74.5,29 73.4,25.3 71.8,21.9"></path>
                    <path d="M56.1,27 L70.7,19.7 C68.9,16.3 66.6,13.3 63.9,10.6 L52.9,22.6 C54.2,24 55.3,25.4 56.1,27"></path>
                    <path d="M16.6,37.5 C16.6,37.2 16.6,36.8 16.6,36.5 L0.4,35 C0.4,35.8 0.3,36.6 0.3,37.4 C0.3,40.5 0.7,43.5 1.4,46.5 L17.1,42 C16.8,40.5 16.6,39 16.6,37.5"></path>
                    <path d="M54.1,50.8 C52.9,52.2 51.6,53.5 50.1,54.5 L58.7,68.4 C61.9,66.2 64.7,63.6 67.1,60.6 L54.1,50.8 Z"></path>
                    <path d="M58.9,37.5 C58.9,39 58.7,40.5 58.4,42 L74.1,46.5 C74.8,43.6 75.2,40.5 75.2,37.5 C75.2,36.7 75.2,36 75.1,35.2 L58.8,36.7 C58.8,36.9 58.8,37.2 58.9,37.5"></path>
                    <path d="M21.7,51.1 L8.7,61 C11.1,64 14,66.6 17.2,68.7 L25.8,54.8 C24.3,53.8 22.9,52.6 21.7,51.1"></path>
                    <path d="M16.9,34.1 C17.2,32.3 17.7,30.5 18.5,28.9 L3.9,21.6 C2.3,25.1 1.2,28.8 0.7,32.7 L16.9,34.1 Z"></path>
                    <path d="M56.7,69.8 L48.1,55.9 C46.5,56.8 44.8,57.5 43.1,57.9 L46.1,74 C49.8,73.1 53.4,71.7 56.7,69.8"></path>
                    <path d="M57.8,44.2 C57.2,45.9 56.5,47.4 55.5,48.9 L68.6,58.7 C70.7,55.6 72.4,52.3 73.5,48.7 L57.8,44.2 Z"></path>
                    <path d="M40.8,58.4 C39.8,58.5 38.8,58.6 37.8,58.6 C37,58.6 36.2,58.6 35.3,58.5 L32.3,74.6 C36.1,75.2 40,75.1 43.9,74.5 L40.8,58.4 Z"></path>
                    <path d="M39.1,16.4 C40.9,16.5 42.6,16.8 44.3,17.4 L50.2,2.1 C46.6,0.8 42.9,0.1 39.1,-7.10542736e-15 L39.1,16.4 Z"></path>
                    <path d="M33,58 C31.2,57.6 29.5,56.9 27.8,56 L19.1,70 C22.5,71.9 26.1,73.3 29.9,74.1 L33,58 Z"></path>
                    <path d="M31.4,17.3 C33.1,16.8 34.9,16.4 36.7,16.3 L36.7,0 C32.9,0.1 29.1,0.8 25.5,2 L31.4,17.3 Z"></path>
                    <path d="M20.2,49.3 C19.1,47.8 18.3,46.1 17.7,44.3 L2,48.8 C3.2,52.5 4.9,56 7.2,59.2 L20.2,49.3 Z"></path>
                    <path d="M24.7,20.9 C26.1,19.8 27.6,18.9 29.2,18.2 L23.3,3 C19.8,4.5 16.6,6.5 13.7,8.9 L24.7,20.9 Z"></path>
                </g>
            </g>
        </g>
    </g>
</svg>