<?xml version="1.0" encoding="UTF-8"?>
<svg width="95px" height="95px" viewBox="0 0 95 95" version="1.1" xmlns="http://www.w3.org/2000/svg" xmlns:xlink="http://www.w3.org/1999/xlink">
    <!-- Generator: Sketch 53.2 (72643) - https://sketchapp.com -->
    <title>goal_16_target_16_8</title>
    <desc>Created with Sketch.</desc>
    <g id="goal_16_target_16_8" stroke="none" stroke-width="1" fill="none" fill-rule="evenodd">
        <g id="Group-138" fill-rule="nonzero">
            <rect id="Rectangle" fill="#00689D" x="1.45661261e-12" y="-2.13162821e-14" width="94.8" height="94.8"></rect>
            <g id="Group" transform="translate(27.700000, 14.000000)" fill="#FFFFFF">
                <path d="M19.5,11.8 C22.7,11.8 25.4,9.2 25.4,5.9 C25.4,2.6 22.8,0 19.6,0 C16.4,0 13.7,2.6 13.7,5.9 L13.7,5.9 C13.7,9.1 16.3,11.8 19.5,11.8 C19.5,11.8 19.5,11.8 19.5,11.8 Z" id="Path"></path>
                <path d="M26.4,14 L12.7,14 C9.1,14.3 6.2,17.1 5.7,20.6 L33.4,20.6 C32.9,17.1 30,14.3 26.4,14 Z" id="Path"></path>
                <path d="M19.5,36.2 C15.1,36.2 11.5,39.8 11.5,44.2 C11.5,48.6 15.1,52.2 19.5,52.2 C23.9,52.2 27.5,48.6 27.5,44.2 C27.5,39.8 24,36.2 19.5,36.2 Z M14.6,38.9 C14.7,38.9 14.8,39 14.8,39 C14.8,39.2 14.8,39.3 14.7,39.5 C14.5,39.7 14.2,39.8 13.9,39.9 L13.8,39.9 C14,39.5 14.3,39.2 14.6,38.9 Z M13.4,40.2 C13.5,40.1 13.7,40.1 13.9,40.1 C14.1,40.1 14.3,40.2 14.4,40.3 C14.5,40.4 13.9,40.6 13.8,40.7 C13.6,40.9 13.1,41.4 12.9,41.5 C12.9,41.5 12.8,41.5 12.8,41.5 C13,41 13.2,40.6 13.4,40.2 Z M19.5,51.4 C18.8,51.4 18.1,51.3 17.4,51.1 C17.4,51.1 17.4,51 17.4,51 C17.7,50.5 18.3,50.1 18.9,50.1 C20.1,50 21.7,50.9 21.9,50.8 C22.1,50.7 22.7,50 23.5,50 C23.6,50 23.7,50 23.9,50 C22.6,50.9 21.1,51.4 19.5,51.4 Z M18.2,46.6 C18.5,46.1 19.1,46.1 18.6,46.9 C18.5,47.1 18.2,48.3 18,48.2 C17.8,48.1 18.1,46.7 18.2,46.6 Z M21.2,44.9 C21.4,44.9 21.8,45.2 21.7,45.4 C21.5,45.5 21.2,45.5 21,45.3 C20.8,45.2 21.1,44.9 21.2,44.9 Z M24.6,49.4 C24.3,49.3 24.3,49.5 24.1,49.5 C23.9,49.5 24.3,49 23.7,49.3 C23.1,49.6 23.3,49.3 23,48.6 C22.8,47.9 23.1,47.2 23.8,47 C24.2,46.8 24.7,46.7 25.1,46.7 C26,46.5 26.2,45.9 26.3,46.3 L26.4,46.5 C26.1,47.5 25.4,48.6 24.6,49.4 Z M24.9,45.4 C24.8,45.4 24.8,45.3 24.7,45.1 C24.7,45 24.7,44.9 24.8,44.9 C24.9,44.9 24.9,44.9 25,44.9 C25.2,45 25.3,45.2 25.4,45.3 C25.3,45.4 25,45.4 24.9,45.4 L24.9,45.4 Z M25.7,46.1 C25.5,46.2 25.2,46.2 25,46 C24.8,45.9 25.1,45.6 25.2,45.6 C25.3,45.6 25.9,46 25.7,46.1 L25.7,46.1 Z M26.8,44.2 C26.8,44.7 26.8,45.1 26.7,45.6 C26.3,45.1 26.2,44.4 26.6,43.8 C26.7,43.7 26.4,43.3 26.5,43.3 C26.6,43.3 26.8,43.3 26.9,43.4 C26.8,43.7 26.8,43.9 26.8,44.2 L26.8,44.2 Z M26,42.9 C25.9,42.8 25.6,42.5 25.6,43 C25.6,43.5 26.1,43.6 25.6,43.9 C25.4,44.1 25.1,44.2 24.8,44.2 C24.5,44.4 24.4,44.7 24.4,45.1 C24.5,45.4 25.1,46.2 24.6,46.1 C24.1,45.9 23.7,45.5 23.4,45.1 C23.2,44.7 23.1,44.3 23,44 C22.9,43.8 22.7,43.6 22.4,43.7 C22.3,43.7 22.3,43.7 22.3,43.8 C22,44 22.4,44.2 22.2,44.6 C22,45 21.9,45.3 21.6,45 C20.9,44.2 19.8,44.6 19.6,43.7 C19.5,43.2 19.1,43.2 18.7,42.9 C18.3,42.6 18.1,42.5 18.1,42.7 C18.1,42.9 19.2,43.8 19.3,44.1 C19.4,44.4 18.9,44.8 18.6,44.9 C18.3,45 18.1,44.7 17.7,44.3 C17.3,43.9 17.2,43.7 17.2,43.9 L17.2,44 C17.2,44.5 17.5,45 17.9,45.3 C18.2,45.5 18.5,45.6 18.4,45.9 C18.3,46.2 18.4,46 18.1,46.4 C17.8,46.6 17.7,47 17.7,47.3 C17.7,47.8 17.6,47.8 17.5,48.2 C17.4,48.6 17.3,48.3 17.1,48.8 C17,49.2 16.9,49.5 16.6,49.8 C16.3,50 16,50.2 15.6,50.2 C15.5,50.2 15.5,50.2 15.4,50.1 C15.2,49.7 15.1,49.2 15.2,48.8 C15.2,48.6 15,49.1 14.9,48.1 C14.8,47.5 14.4,48.2 14.4,47.7 C14.4,47.2 14.2,47.4 14,47.1 C13.8,46.8 13.5,47.1 13.2,47.3 C12.9,47.5 13,47.5 12.8,47.4 C12.4,46.5 12.2,45.4 12.1,44.4 C12.1,44.1 12.1,43.8 12.2,43.5 C12.4,43.2 12.4,43.1 12.5,43.1 C12.6,43.1 12.7,43 12.8,43 L13,43 C13.4,43.1 13.8,43.2 14.2,43.3 C14.6,43.5 15,43.6 15.5,43.7 C15.6,43.7 15.7,43.7 15.7,43.7 C16,43.6 16.2,43.4 16.2,43.2 C16.2,43 15.9,42.8 15.7,43 C15.6,43.1 15.4,42.6 15.2,42.6 C15,42.6 15.4,43.2 15.3,43.2 C15.2,43.2 14.8,42.6 14.8,42.5 C14.8,42.4 14.5,42.1 14.3,42.3 C13.9,42.7 13.1,42.7 13,42.8 L12.8,42.9 C12.6,43 12.5,42.9 12.4,42.7 C12.3,42.5 12.5,42.4 12.5,42.2 C12.7,42.1 13,42.1 13.2,42.2 C13.4,42.3 13.5,42.2 13.6,42.1 C13.7,42 13.7,41.9 13.6,41.8 C13.6,41.7 13.7,41.6 13.8,41.6 C14,41.5 14.2,41.4 14.4,41.3 C14.8,41.2 15.2,41.2 15.5,41.3 C15.8,41.4 16.1,41.4 16.2,41.1 C16.4,40.9 16.5,40.8 16.7,40.7 C16.8,40.7 16.4,40.3 16.1,40.7 C15.8,41.1 15.6,41.1 15.5,41.1 C15.4,41.1 14.5,40.9 14.4,40.6 C14.3,40.3 14.7,40.1 15,40 C15.5,39.9 15.9,39.8 16.4,39.8 C16.9,39.7 17.4,39.5 17.7,39.7 C18,39.9 16.5,40.2 17,40.5 C17.2,40.6 18,40 18.2,39.9 C18.8,39.6 17.6,39.5 17.7,38.8 C17.8,38.1 16.4,38.3 15.5,38.4 C16.6,37.7 17.9,37.4 19.2,37.4 C22.7,37.4 25.7,39.8 26.4,43.3 C26.5,43.2 26.2,43.2 26,42.9 C26,43 26,43 26,42.9 Z" id="Shape"></path>
                <path d="M34.3,23.4 L0.2,23.4 L0.2,27 L3,27 L3,67.3 L36.4,67.3 L36.4,27 L39.2,27 L39.2,23.4 L34.3,23.4 Z M33.2,45.3 C33.2,45.6 32.9,45.9 32.5,45.9 C32.1,45.9 31.8,46 31.4,46 C31,46 30.7,46.3 30.6,46.7 C30.5,47.2 30.1,48.2 30,48.6 C29.9,49 30,49.3 30.4,49.5 C30.8,49.7 30.9,49.9 31.2,50.1 C31.5,50.3 31.6,50.7 31.4,51 C31,51.8 30.5,52.5 30,53.1 C29.8,53.4 29.4,53.4 29.1,53.2 L28.2,52.6 C27.9,52.4 27.5,52.4 27.2,52.7 C26.9,53 25.9,53.7 25.6,53.9 C25.3,54.1 25.3,54.5 25.4,54.8 C25.5,55.1 25.6,55.4 25.7,55.8 C25.8,56.1 25.7,56.5 25.3,56.7 C25.3,56.7 25.3,56.7 25.3,56.7 C24.5,57.1 23.7,57.4 22.9,57.5 C22.6,57.6 22.2,57.4 22.1,57.1 C21.9,56.7 21.8,56.4 21.7,56.1 C21.6,55.7 21.2,55.5 20.8,55.6 C20.1,55.6 19.5,55.6 18.8,55.6 C18.4,55.6 18.2,55.8 18.1,56.2 L17.8,57.1 C17.7,57.5 17.3,57.7 17,57.6 C16.1,57.5 15.3,57.2 14.5,56.8 C14.2,56.7 14,56.3 14.1,56 C14.2,55.6 14.3,55.3 14.3,54.9 C14.4,54.5 14.2,54.1 13.8,53.9 C13.4,53.6 12.4,52.9 12.1,52.7 C11.8,52.5 11.5,52.5 11.1,52.8 L10.3,53.4 C10,53.6 9.6,53.6 9.4,53.3 C9.4,53.3 9.4,53.3 9.4,53.3 C8.8,52.7 8.3,52 7.9,51.2 C7.7,50.9 7.8,50.5 8.1,50.3 C8.4,50 8.6,49.8 8.9,49.6 C9.2,49.4 9.3,49 9.1,48.6 C8.8,48 8.6,47.3 8.4,46.7 C8.3,46.3 8,46.2 7.6,46.2 L6.6,46.2 C6.2,46.2 5.9,45.9 5.9,45.6 C5.8,44.7 5.8,43.9 5.9,43 C5.9,42.7 6.2,42.4 6.6,42.4 C7,42.4 7.3,42.3 7.7,42.3 C8.1,42.3 8.4,42 8.5,41.6 C8.6,41.2 9,40.1 9.1,39.7 C9.2,39.3 9.1,39 8.7,38.8 L7.9,38.2 C7.6,38 7.5,37.6 7.7,37.3 C8.1,36.5 8.6,35.8 9.2,35.2 C9.4,34.9 9.8,34.9 10.1,35.1 C10.4,35.3 10.7,35.5 11,35.7 C11.3,35.9 11.7,35.9 12,35.6 C12.5,35.2 13.4,34.6 13.6,34.4 C13.8,34.2 13.9,33.8 13.8,33.5 C13.7,33.2 13.6,32.9 13.5,32.5 C13.4,32.2 13.5,31.8 13.9,31.7 C13.9,31.7 13.9,31.7 13.9,31.7 C14.7,31.3 15.5,31 16.3,30.9 C16.6,30.8 17,31 17.1,31.3 C17.3,31.7 17.4,32 17.5,32.3 C17.6,32.7 18,32.9 18.4,32.8 C19,32.8 19.6,32.8 20.4,32.8 C20.8,32.8 21,32.6 21.1,32.2 C21.2,31.8 21.3,31.6 21.4,31.3 C21.5,30.9 21.9,30.7 22.2,30.8 C23,30.9 23.9,31.2 24.7,31.6 C25,31.7 25.2,32.1 25.1,32.4 C25,32.8 24.9,33.1 24.8,33.5 C24.7,33.9 24.9,34.2 25.2,34.4 C25.6,34.7 26.3,35.1 26.9,35.6 C27.2,35.8 27.6,35.8 27.9,35.5 L28.7,34.9 C29,34.7 29.4,34.7 29.6,35 C30.2,35.6 30.7,36.3 31.2,37.1 C31.4,37.4 31.3,37.8 31,38 C30.7,38.3 30.5,38.5 30.2,38.7 C29.9,38.9 29.8,39.3 30,39.7 C30.3,40.3 30.5,41 30.7,41.6 C30.8,42 31.1,42.1 31.5,42.1 L32.5,42.1 C32.9,42.1 33.2,42.4 33.2,42.7 C33.3,43.5 33.3,44.4 33.2,45.3 Z" id="Shape"></path>
            </g>
        </g>
    </g>
</svg>