<?xml version="1.0" encoding="UTF-8"?>
<svg width="95px" height="95px" viewBox="0 0 95 95" version="1.1" xmlns="http://www.w3.org/2000/svg" xmlns:xlink="http://www.w3.org/1999/xlink">
    <!-- Generator: Sketch 53.2 (72643) - https://sketchapp.com -->
    <title>goal_4_target_4_2</title>
    <desc>Created with Sketch.</desc>
    <g id="goal_4_target_4_2" stroke="none" stroke-width="1" fill="none" fill-rule="evenodd">
        <g id="Group" transform="translate(11.700000, 60.000000)" fill="#FFFFFF" fill-rule="nonzero">
            <path d="M14.6,10.1 C14.6,10.1 14.1,8.3 12.6,8.3 L11.1,8.3 L7,8.3 C6.6,8.3 6.2,8.1 6,7.8 C5.5,7.3 3.9,4.5 3.8,4.4 L3,3.2 C2.8,2.8 2.4,2.6 2,2.6 C1.3,2.6 0.8,3.2 0.8,3.8 C0.8,4 0.9,4.2 0.9,4.3 L5.1,11.8 C5.2,12.1 5.3,12.3 5.3,12.6 L5.3,13.4 C5.3,13.7 5.3,13.9 5.2,14.2 L3.5,20.5 L5.3,20.5 L5.3,26 L5.3,26 C5.2,26.9 6,27.7 6.9,27.8 C7.8,27.9 8.6,27.1 8.7,26.2 C8.7,26.1 8.7,26 8.7,25.9 L8.7,20.7 C8.7,20.6 8.7,20.6 8.7,20.5 L9.7,20.5 C9.7,20.6 9.7,20.6 9.7,20.7 L9.7,25.9 C9.7,26.6 10.1,27.3 10.8,27.6 C11.7,27.9 12.6,27.4 12.9,26.5 C13,26.3 13,26.2 13,26 L13,20.5 L14.8,20.5 L12.3,12 C12.3,12 12.2,11.6 12.5,11.5 C12.8,11.4 12.9,11.8 12.9,11.8 L14.9,18.1 C15,18.7 15.7,19.1 16.3,19 C16.3,19 16.3,19 16.3,19 C17.4,18.7 17,17.5 17,17.5 L14.6,10.1 Z" id="Path"></path>
            <path d="M9.5,6.8 C11.4,6.8 12.9,5.3 12.9,3.4 C12.9,1.5 11.4,0 9.5,0 C7.6,0 6.1,1.5 6.1,3.4 C6.1,3.4 6.1,3.4 6.1,3.4 C6.1,5.3 7.6,6.8 9.5,6.8 Z" id="Path"></path>
        </g>
        <g id="Group" transform="translate(48.700000, 60.000000)" fill="#FFFFFF" fill-rule="nonzero">
            <path d="M9.2,6.7 C11,6.7 12.5,5.2 12.5,3.4 C12.5,1.6 11,0.1 9.2,0.1 C7.4,0.1 5.9,1.6 5.9,3.4 L5.9,3.4 C5.8,5.2 7.3,6.7 9.2,6.7 C9.2,6.7 9.2,6.7 9.2,6.7 Z" id="Path"></path>
            <path d="M17.2,16.4 C17.2,16.2 16.2,13.9 15.9,13.1 C13.9,7.9 13.6,7.9 11.7,7.9 L6.6,7.9 C4.8,8 4.4,7.9 2.4,13.1 C2.1,13.8 0.9,16.7 0.9,16.9 C0.9,17.1 0.4,18.1 1.5,18.5 C2.6,18.9 2.9,17.7 2.9,17.7 L4.9,12.6 C4.9,12.6 4.9,12.5 5,12.5 C5.1,12.5 5.1,12.6 5.1,12.7 L5.1,25.9 L5.1,25.9 C5.1,26.9 5.8,27.7 6.8,27.7 C6.8,27.7 6.9,27.7 6.9,27.7 C7.8,27.7 8.6,26.9 8.6,26 C8.6,26 8.6,25.9 8.6,25.9 L8.6,20.6 C8.6,20.6 8.5,19.8 9.1,19.8 C9.7,19.8 9.6,20.6 9.6,20.6 L9.6,25.9 C9.6,26.9 10.3,27.7 11.3,27.7 C11.3,27.7 11.3,27.7 11.4,27.7 C12.3,27.7 13.1,26.9 13.1,26 C13.1,26 13.1,25.9 13.1,25.9 L13.1,25.9 L13.1,12.7 C13.1,12.6 13.1,12.5 13.2,12.5 C13.3,12.5 13.3,12.6 13.3,12.6 L15.2,17.1 C15.2,17.1 15.7,18.3 16.8,17.8 C17.9,17.3 17.2,16.4 17.2,16.4 Z" id="Path"></path>
        </g>
        <g id="Group" transform="translate(68.700000, 52.000000)" fill="#FFFFFF" fill-rule="nonzero">
            <path d="M10.4,8.7 L10.2,8.7 L4,8.7 L3.8,8.7 C1.8,8.9 0.3,10.5 0.3,12.5 L0.3,20.4 C0.4,21 0.9,21.5 1.5,21.4 C2,21.3 2.4,20.9 2.5,20.4 L2.5,13.6 C2.5,13.3 2.6,13 3,13 C3.3,13 3.4,13.3 3.4,13.6 L3.4,34 C3.5,34.9 4.2,35.5 5.1,35.5 C5.9,35.4 6.5,34.8 6.6,34 L6.6,22.2 C6.6,22 6.8,21.8 7,21.7 C7,21.7 7,21.7 7.1,21.7 L7.1,21.7 C7.3,21.7 7.5,21.9 7.6,22.1 C7.6,22.1 7.6,22.1 7.6,22.2 L7.6,33.9 C7.6,34.8 8.3,35.5 9.2,35.5 C10.1,35.5 10.8,34.8 10.8,33.9 L10.8,13.5 C10.8,13.3 10.9,12.9 11.2,12.9 C11.7,12.9 11.7,13.2 11.7,13.5 L11.7,20.3 C11.7,20.9 12.2,21.4 12.8,21.4 C13.4,21.4 13.9,20.9 13.9,20.3 L13.9,12.4 C13.8,10.5 12.3,8.9 10.4,8.7 Z" id="Path"></path>
            <path d="M1.6,3.2 C1.7,2.9 2,2.5 3,2.3 C3.2,2.3 3.4,2.2 3.5,2.1 C3.7,1.8 3.9,1.5 4.1,1.2 C4.1,1.1 4.1,1.1 4.1,1 C4,0.6 3.6,-1.42108547e-14 2.6,0.5 C1.4,1.1 1.5,2.9 1.5,2.9 C1.5,2.9 1.6,3.3 1.6,3.2 Z" id="Path"></path>
            <path d="M11,2.4 C12,2.5 12.3,3 12.4,3.3 C12.4,3.4 12.4,3.3 12.5,3.1 C12.6,2.9 12.6,1.3 11.4,0.7 C10.4,0.2 9.9,0.8 9.9,1.2 C9.9,1.3 9.9,1.4 9.9,1.4 C10.1,1.6 10.3,1.9 10.5,2.2 C10.6,2.3 10.8,2.4 11,2.4 Z" id="Path"></path>
            <path d="M7,7.5 C8.9,7.5 10.4,6 10.4,4.1 C10.4,2.2 8.9,0.7 7,0.7 C5.1,0.7 3.6,2.2 3.6,4.1 C3.6,4.1 3.6,4.1 3.6,4.1 C3.6,6 5.1,7.5 7,7.5 Z" id="Path"></path>
        </g>
        <g id="Group" transform="translate(31.700000, 50.000000)" fill="#FFFFFF" fill-rule="nonzero">
            <path d="M11.4,9.8 L4.3,9.8 C2.3,10 0.8,11.7 0.8,13.7 L0.8,21.9 C0.8,22.5 1.3,23 2,23 C2.6,23 3.1,22.5 3.1,21.9 L3.1,14.8 C3.1,14.5 3.2,14.2 3.7,14.2 C4.2,14.2 4.1,14.5 4.1,14.8 L4.1,36 C4.1,36.9 4.8,37.6 5.8,37.6 C6.7,37.6 7.4,36.9 7.4,36 L7.4,23.8 C7.4,23.5 7.6,23.3 7.8,23.3 C7.8,23.3 7.8,23.3 7.8,23.3 L7.8,23.3 C8,23.3 8.3,23.5 8.3,23.7 C8.3,23.7 8.3,23.7 8.3,23.8 L8.3,36 C8.4,36.9 9.2,37.6 10.1,37.5 C10.9,37.4 11.6,36.8 11.6,36 L11.6,14.8 C11.6,14.6 11.7,14.2 12,14.2 C12.3,14.2 12.6,14.6 12.6,14.8 L12.6,21.9 C12.6,22.5 13.1,23 13.8,23 C14.4,23 14.9,22.5 14.9,21.9 L14.9,13.7 C14.9,11.7 13.4,10 11.4,9.8 Z" id="Path"></path>
            <path d="M10.1,4.8 C9.8,4.6 9.6,4.4 9.1,4.6 C8.8,4.8 8.7,4.8 8.3,5 C7.6,5.3 6.9,5.5 6.2,5.6 C5.6,5.7 5.1,5.7 4.5,5.7 C4.7,7.5 6.3,8.9 8.2,8.7 C9.8,8.5 11,7.3 11.2,5.8 C10.8,5.4 10.5,5.1 10.1,4.8 Z" id="Path"></path>
            <path d="M4.5,5 C5,5 5.5,5 6,4.9 C6.7,4.8 7.3,4.6 7.9,4.3 C8.2,4.1 8.6,4 8.9,3.9 C9.1,3.8 9.4,3.8 9.6,3.8 C9.7,3.8 9.8,3.9 9.9,4 L10.2,4.2 C10.2,4.2 10.3,4.3 11.1,4.9 C11.2,5 11.3,5.1 11.3,5 C11.3,4.9 11.4,4.4 11.4,4.1 C11.3,3.3 10.9,2.5 10.4,1.8 C10.2,1.6 10,1.4 9.7,1.5 C9.3,1.6 9.3,1.3 9,1.1 C8,0.7 6.9,0.9 6.1,1.6 C5.1,2.4 4.4,3.4 3.9,4.6 C3.8,4.8 4.1,5 4.5,5 Z" id="Path"></path>
        </g>
        <rect id="Rectangle" fill="#C5192D" fill-rule="nonzero" x="0" y="0" width="94.8" height="94.8"></rect>
        <g id="Group" transform="translate(7.700000, 25.000000)" fill="#FFFFFF" fill-rule="nonzero">
            <g transform="translate(28.000000, 21.000000)">
                <path d="M0.4,23.9 L11.3,23.9 L11.3,13 L0.4,13 L0.4,23.9 Z M3.5,15.2 L5.8,15.2 C7.5,15.2 7.9,16 7.9,17 C7.9,17.5 7.6,18 7.2,18.2 C7.8,18.4 8.1,19 8.1,19.6 C8.1,20.7 7.6,21.6 5.8,21.6 L3.4,21.6 L3.4,15.2 L3.5,15.2 Z" id="Shape"></path>
                <path d="M6.5,17 C6.6,16.7 6.3,16.4 6,16.3 C5.9,16.3 5.9,16.3 5.8,16.3 L4.9,16.3 L4.9,17.7 L5.8,17.7 C6.1,17.7 6.4,17.5 6.5,17.1 C6.5,17.1 6.5,17.1 6.5,17 Z" id="Path"></path>
                <path d="M6.7,19.7 C6.8,19.3 6.5,19 6.1,18.9 C6,18.9 6,18.9 5.9,18.9 L4.9,18.9 L4.9,20.5 L5.9,20.5 C6.3,20.5 6.7,20.3 6.7,19.9 C6.7,19.8 6.7,19.7 6.7,19.7 Z" id="Path"></path>
                <path d="M12.7,13 L12.7,23.9 L23.6,23.9 L23.6,13 L12.7,13 Z M20.3,16.6 C19.9,16.4 19.5,16.3 19.1,16.4 C18,16.4 17.6,16.8 17.6,18.5 C17.6,20.2 18.1,20.6 19.1,20.6 C19.5,20.6 19.9,20.5 20.3,20.4 L20.3,21.7 C19.9,21.9 19.4,22 18.9,21.9 C17,21.9 16.1,21 16.1,18.5 C16.1,16 17,15 18.9,15 C19.4,15 19.8,15.1 20.3,15.2 L20.3,16.6 Z" id="Shape"></path>
                <polygon id="Path" points="11.5 7 12.6 7 12 4.5"></polygon>
                <path d="M17.5,0.7 L6.6,0.7 L6.6,11.6 L17.5,11.6 L17.5,0.7 Z M13.1,9.4 L12.8,8.1 L11.1,8.1 L10.8,9.4 L9.3,9.4 L11.1,2.8 L12.7,2.8 L14.5,9.4 L13.1,9.4 Z" id="Shape"></path>
            </g>
            <g transform="translate(52.000000, 0.000000)" id="Path">
                <path d="M14,10.9 C17,10.9 19.4,8.5 19.4,5.5 C19.4,2.5 17,0.1 14,0.1 C11,0.1 8.6,2.5 8.6,5.5 C8.6,8.4 11,10.9 14,10.9 C14,10.9 14,10.9 14,10.9 Z"></path>
                <path d="M27,26.6 C27,26.4 25.4,22.5 24.9,21.3 C21.6,12.9 21.1,13 18.1,12.9 L9.8,12.9 C6.8,13 6.3,12.9 3,21.3 C2.5,22.5 0.6,27.2 0.6,27.4 C0.6,27.4 -0.2,29.4 1.6,30 C3.2,30.6 3.9,28.6 3.9,28.6 L7.2,20.4 C7.2,20.4 7.3,20.2 7.4,20.2 C7.5,20.2 7.5,20.4 7.5,20.5 L7.5,42 L7.5,42 C7.4,43.5 8.6,44.8 10.2,44.9 C10.2,44.9 10.3,44.9 10.3,44.9 C11.8,44.9 13.1,43.7 13.1,42.1 C13.1,42 13.1,42 13.1,41.9 L13.1,33.3 C13.1,33.3 13,32 13.9,32 C14.8,32 14.7,33.3 14.7,33.3 L14.7,42 C14.6,43.6 15.9,44.9 17.4,44.9 C17.4,44.9 17.5,44.9 17.5,44.9 C19,44.9 20.2,43.6 20.2,42.1 C20.2,42.1 20.2,42 20.2,42 L20.2,42 L20.2,20.6 C20.2,20.4 20.3,20.4 20.3,20.3 C20.3,20.2 20.5,20.5 20.5,20.5 L23.5,27.9 C23.5,27.9 24.4,29.9 26,29.1 C27.6,28.3 27,26.6 27,26.6 Z"></path>
            </g>
            <g id="Path">
                <path d="M26.5,28.3 L22.5,16.5 C21.9,15.1 20.8,14.1 19.3,13.7 C18.4,13.6 17.6,13.5 16.7,13.6 L10.1,13.6 C10.1,13.6 8.4,13.6 7.5,13.7 C5.2,14 4.4,16.5 4.4,16.5 L0.4,28.3 C0.4,28.3 -0.2,30.2 1.5,30.7 C2.5,30.9 3.5,30.3 3.8,29.3 L7.1,19.1 C7.1,19.1 7.2,18.4 7.8,18.6 C8.4,18.8 8.1,19.4 8.1,19.4 L7.9,20.3 L4.5,32.6 L4.3,33.2 L7.2,33.2 L7.2,42 C7.2,43.5 8.4,44.7 9.9,44.7 L9.9,44.7 L9.9,44.7 C11.4,44.7 12.6,43.5 12.6,42 L12.6,33.5 C12.6,33.4 12.6,33.3 12.6,33.2 L14.2,33.2 C14.2,33.3 14.2,33.4 14.2,33.5 L14.2,42 C14.2,43.5 15.4,44.7 16.9,44.7 C16.9,44.7 16.9,44.7 16.9,44.7 L16.9,44.7 C18.4,44.7 19.6,43.5 19.6,42 L19.6,42 L19.6,33.2 L22.5,33.2 L22.3,32.6 L19,20.4 L18.8,19.5 C18.8,19.5 18.6,18.8 19.1,18.7 C19.6,18.6 19.8,19.2 19.8,19.2 L23.1,29.4 C23.3,30.4 24.4,31 25.4,30.8 C27.1,30.2 26.5,28.3 26.5,28.3 Z"></path>
                <path d="M14.2,11.1 C17.2,11.1 19.7,8.6 19.7,5.6 C19.7,2.6 17.2,0.1 14.2,0.1 C11.2,0.1 8.7,2.6 8.7,5.6 C8.7,5.6 8.7,5.6 8.7,5.6 C8.7,8.6 11.1,11.1 14.2,11.1 Z"></path>
            </g>
        </g>
    </g>
</svg>