<?xml version="1.0" encoding="UTF-8"?>
<svg width="95px" height="95px" viewBox="0 0 95 95" version="1.1" xmlns="http://www.w3.org/2000/svg" xmlns:xlink="http://www.w3.org/1999/xlink">
    <!-- Generator: Sketch 53.2 (72643) - https://sketchapp.com -->
    <title>goal_16_target_16_4</title>
    <desc>Created with Sketch.</desc>
    <g id="goal_16_target_16_4" stroke="none" stroke-width="1" fill="none" fill-rule="evenodd">
        <g id="Group-134" fill-rule="nonzero">
            <rect id="Rectangle" fill="#00689D" x="1.45661261e-12" y="-2.13162821e-14" width="94.8" height="94.8"></rect>
            <g id="Group" transform="translate(4.700000, 8.000000)" fill="#FFFFFF">
                <path d="M32.9,28.8 C33.3,28.8 33.8,28.9 34.1,29.2 C34.4,29.5 34.6,29.9 34.6,30.3 L34.6,39 C34.6,39.5 35,39.9 35.5,39.9 C36,39.9 36.4,39.5 36.4,39 L36.4,39 L36.4,26.9 C36.4,26.1 37,25.3 37.9,25.2 C38.3,25.2 38.8,25.3 39.1,25.6 C39.4,25.9 39.6,26.3 39.6,26.7 L39.6,37.1 C39.6,37.6 40,38 40.5,38 C41,38 41.4,37.6 41.4,37.1 L41.4,25 C41.4,24.6 41.6,24.2 41.9,23.9 C42.2,23.6 42.7,23.4 43.1,23.5 C43.9,23.6 44.6,24.3 44.6,25.2 L44.6,38.2 C44.5,38.7 44.9,39.2 45.4,39.2 C45.9,39.3 46.4,38.9 46.4,38.4 C46.4,38.3 46.4,38.3 46.4,38.2 L46.4,27.2 C46.4,26.4 47,25.6 47.9,25.6 C48.8,25.6 49.5,26.2 49.5,27.1 C49.5,27.1 49.5,27.1 49.5,27.2 L49.5,46.1 L56.8,41.1 C57.2,40.8 57.6,40.7 58.1,40.7 C58.5,40.8 58.8,41 59,41.3 C59.6,41.9 59.6,42.9 58.9,43.5 C58.9,43.5 58.9,43.5 58.8,43.5 L50.3,51.7 C48.3,53.7 45.9,55.3 43.4,56.4 C43.1,56.5 42.8,56.6 42.5,56.6 L41.5,56.7 C41,56.8 40.5,56.8 40,56.8 C35.2,56.5 31.4,52.4 31.5,47.6 L31.5,30.6 C31.4,29.6 32.1,29 32.9,28.8 Z" id="Path"></path>
                <path d="M72.9,21.2 L76.9,19 L77.8,20.5 L81.4,18.4 L82.1,19.6 L74.8,24.3 C76.8,26.4 79.1,28.1 81.6,29.4 L80,33.5 C77.6,32.5 75.4,31.1 73.5,29.3 C72.5,31.6 71.4,32 69.1,31.1 L69.3,36.3 L65.4,36.1 C65.5,34.9 65.6,33.9 65.8,32.9 C66.1,30.6 65.9,30.5 63.8,31.4 L63,30.2 L61.9,30.7 L61.2,29.4 L62.2,28.7 L61.6,27.6 C61.9,27.4 62.2,27.2 62.5,27.1 C64.9,25.7 67.4,24.3 69.9,23 L72.9,21.2 Z M70.9,28.6 C71,28.8 71.1,29.1 71.1,29.4 C70.8,29.3 70.6,29.3 70.3,29.2 C70,29 69.8,28.7 69.5,28.5 C69.1,29.1 69.3,30 69.9,30.3 C70.4,30.7 71.2,30.6 71.7,30.1 C72.2,29.7 72.3,28.9 71.9,28.3 C71.5,27.6 70.7,27.4 70,27.8 C70,27.8 70,27.8 70,27.8 C70.4,28 70.6,28.3 70.9,28.6 L70.9,28.6 Z" id="Shape"></path>
                <g transform="translate(63.000000, 39.000000)">
                    <g transform="translate(0.000000, 3.000000)" id="Path">
                        <g transform="translate(0.000000, 7.000000)">
                            <path d="M4.8,5.7 L1.3,1.5 C0.2,2.5 0.2,4.3 1.2,5.3 C2.2,6.3 3.7,6.5 4.8,5.7 Z"></path>
                            <path d="M5.3,1.7 C4.4,0.6 2.8,0.4 1.6,1.3 L5.1,5.5 C6.2,4.4 6.3,2.8 5.3,1.7 Z"></path>
                        </g>
                        <g transform="translate(4.000000, 0.000000)">
                            <path d="M1.5,5.2 L3.6,0.2 C2.1,-0.2 0.6,0.6 0.2,2.1 C-0.1,3.3 0.4,4.6 1.5,5.2 Z"></path>
                            <path d="M5.2,3.8 C5.8,2.5 5.2,1 4,0.3 L1.9,5.3 C3.3,5.8 4.7,5.1 5.2,3.8 Z"></path>
                        </g>
                    </g>
                    <g transform="translate(7.000000, 0.000000)">
                        <path d="M8.3,4.6 L1.7,19.1 C1.6,19.4 1.7,19.8 2,20 L3.1,20.5 L3.1,20.5 L2.6,21.6 C2.5,21.7 2.6,21.9 2.7,21.9 C2.7,21.9 2.7,21.9 2.7,21.9 L3.2,22.1 L1.8,25 C1.8,25 1.8,25.1 1.8,25.2 C1.8,25.2 1.9,25.2 2,25.2 L3.3,22.2 L3.9,22.4 C4,22.5 4.2,22.4 4.2,22.3 C4.2,22.3 4.2,22.3 4.2,22.3 L4.7,21.3 L4.7,21.3 L5.7,21.8 C6,21.9 6.4,21.8 6.6,21.5 L13.2,7 C13.4,6.7 13.2,6.3 12.9,6.1 C12.9,6.1 12.9,6.1 12.9,6.1 L11.7,5.6 L13,2.9 L14.4,3.5 C14.5,3.6 14.7,3.5 14.7,3.4 L14.8,3.1 C14.9,3 14.8,2.8 14.7,2.8 L10.4,0.8 C10.3,0.7 10.1,0.8 10.1,0.9 C10.1,0.9 10.1,0.9 10.1,0.9 L10,1.2 C9.9,1.3 10,1.5 10.1,1.5 L11.6,2.2 L10.4,4.8 L9.2,4.2 C8.8,4.1 8.4,4.3 8.3,4.6 C8.3,4.6 8.3,4.6 8.3,4.6 Z M5.4,18.8 C5.4,18.7 5.6,18.6 5.7,18.7 C5.7,18.7 5.7,18.7 5.7,18.7 L6.9,19.3 C7,19.3 7.1,19.5 7,19.6 C7,19.6 7,19.6 7,19.6 C7,19.7 6.8,19.8 6.7,19.7 L5.5,19.2 C5.4,19 5.4,18.9 5.4,18.8 Z M6.3,16.8 C6.3,16.7 6.5,16.6 6.6,16.7 L7.8,17.2 C7.9,17.2 8,17.4 7.9,17.5 C7.8,17.6 7.7,17.7 7.6,17.6 L6.4,17 C6.3,17 6.3,16.9 6.3,16.8 L6.3,16.8 Z M7.2,14.8 C7.3,14.7 7.4,14.6 7.5,14.7 L8.7,15.2 C8.8,15.2 8.9,15.4 8.8,15.5 C8.7,15.6 8.6,15.7 8.5,15.6 L7.3,15.1 C7.3,15 7.2,14.9 7.2,14.8 L7.2,14.8 Z M8.6,4.8 C8.7,4.6 8.9,4.6 9,4.6 L12.8,6.3 C12.9,6.3 12.9,6.4 13,6.5 C13,6.6 13,6.7 13,6.7 L9.5,14.3 L5.2,12.3 L8.6,4.8 Z" id="Shape"></path>
                        <path d="M1.6,25.8 C1.7,25.6 2,25 1.4,25.5 C1.3,25.6 1,25.5 1,25.8 C1,26.1 1.2,26.1 1.3,26.1 C1.4,26.1 1.5,25.9 1.6,25.8 Z" id="Path"></path>
                    </g>
                </g>
                <g transform="translate(19.000000, 0.000000)" id="Path">
                    <path d="M45.8,67.7 L43.2,65.6 C43,65.4 42.6,65.4 42.4,65.6 C42.4,65.6 42.4,65.6 42.4,65.6 L42.4,65.6 C34.1,75.5 20,76.6 10,68.6 C9.7,68.4 9.4,68.1 9.1,67.8 L12,66 C12.3,65.8 11.9,65.6 11.9,65.6 L1.8,60.5 C1.5,60.3 1.4,60.5 1.4,60.7 L1.4,60.8 L1.4,60.8 L1.4,72.3 C1.4,72.4 1.5,72.7 1.7,72.5 L1.7,72.5 L5,70.4 C5.6,71 6.3,71.6 7,72.2 C19,81.7 35.9,80.4 45.7,68.8 C45.7,68.8 45.8,68.7 45.8,68.7 C46.1,68.4 46.1,68 45.8,67.7 C45.9,67.8 45.8,67.8 45.8,67.7 Z"></path>
                    <path d="M45.7,16.8 L45.7,16.8 L45,5.4 C45,5.3 44.9,5 44.7,5.2 L44.7,5.2 L41.5,7.5 C40.8,6.9 40.1,6.3 39.4,5.8 C26.9,-3 10.1,-0.7 1,11.5 L0.9,11.6 C0.7,11.8 0.7,12.2 1,12.4 C1,12.4 1,12.4 1.1,12.4 L3.8,14.3 C4,14.5 4.4,14.5 4.6,14.2 C4.6,14.2 4.6,14.2 4.6,14.2 L4.6,14.2 C12.3,3.9 26.3,2 36.8,9.4 C37.1,9.6 37.4,9.9 37.7,10.1 L34.9,12.1 C34.6,12.3 35,12.5 35,12.5 L45.3,17 C45.7,17.2 45.7,17.1 45.7,16.8 L45.7,16.8 Z"></path>
                </g>
                <g transform="translate(0.000000, 30.000000)">
                    <path d="M11.4,16.2 C11,16.4 10.6,16.6 10.2,16.7 C9,17 7.8,17.2 6.5,17.1 C5.9,17.1 5.3,17 4.7,16.9 C4.3,16.8 4,16.8 3.6,16.7 C3.4,16.7 3.2,16.6 3,16.5 C2.5,16.4 2,16.2 1.6,15.9 C1.4,15.8 1.3,15.6 1.2,15.5 L1.2,16 C1.2,16.1 1.2,16.7 1.2,16.7 C1.2,17 1.4,17.3 1.6,17.5 C2.5,18.1 3.4,18.5 4.5,18.6 C5.2,18.7 5.9,18.8 6.6,18.8 C7.6,18.8 8.6,18.7 9.6,18.5 L9.6,18.5 C10.1,18.4 10.6,18.2 11.1,17.9 L11.1,17.9 C11.6,17.6 11.9,17.2 11.9,16.9 C11.9,16.9 11.9,15.8 11.9,15.7 C11.8,15.8 11.6,16 11.4,16.2 Z" id="Path"></path>
                    <path d="M6.1,12.5 C9.1,12.5 11.5,11.6 11.5,10.5 C11.5,10.5 11.6,9.5 11.5,9.3 C11.5,9.2 11.5,9 11.4,8.9 C11.7,8.7 12,8.4 12,8 C12,8 12,6.9 12,6.6 C11.9,5.3 9.1,4.5 6.6,4.5 C4.1,4.5 1.2,5.3 1.2,6.7 C1.2,6.8 1.2,7.9 1.2,7.9 C1.2,8 1.2,8.1 1.3,8.1 C0.9,8.3 0.6,8.7 0.6,9.2 C0.6,9.3 0.6,10.4 0.6,10.4 C0.6,10.7 0.8,11 1,11.2 C1.9,11.8 2.8,12.1 3.9,12.2 C4.6,12.5 5.3,12.5 6.1,12.5 Z M6.7,5.1 C9.6,5.1 11.6,6 11.6,6.7 C11.6,7.4 9.6,8.3 6.7,8.3 C3.8,8.3 1.8,7.4 1.8,6.7 C1.8,6 3.8,5.1 6.7,5.1 Z M1.2,9.3 C1.2,9 1.4,8.8 1.6,8.7 C1.8,8.9 1.9,9 2.1,9.1 C3.5,9.7 5,10 6.6,10 C7.9,10 9.2,9.8 10.4,9.4 C10.6,9.3 10.7,9.3 10.9,9.2 C10.9,9.2 10.9,9.3 10.9,9.3 C10.9,10.1 8.9,10.9 6,10.9 C3.1,10.9 1.2,10.1 1.2,9.3 Z" id="Shape"></path>
                    <path d="M4.5,16.7 C5.2,16.8 5.9,16.9 6.6,16.9 C7.6,16.9 8.6,16.8 9.6,16.6 L9.6,16.6 C10.1,16.5 10.6,16.3 11.1,16 L11.1,16 C11.2,15.9 11.3,15.9 11.4,15.8 C11.6,15.7 11.7,15.5 11.8,15.3 C11.8,15.2 11.8,15.1 11.8,15 C11.8,15 11.8,13.9 11.8,13.8 C11.6,14 11.2,14.7 9,15.2 C8.1,15.4 7.2,15.4 6.2,15.4 C4.7,15.4 3.2,15.2 1.9,14.6 C1.7,14.5 1.4,14.3 1.2,14.1 C1.1,14 1,13.8 0.9,13.7 L0.9,14.2 L0.9,15 C0.9,15.3 1.1,15.6 1.3,15.8 C2.4,16.2 3.4,16.6 4.5,16.7 Z" id="Path"></path>
                    <path d="M11.9,11.2 L11.8,11.1 C11.7,11.1 11.7,11 11.6,11 C11.5,11.1 11.5,11.2 11.4,11.3 C11.5,11.3 11.5,11.4 11.6,11.4 C11.8,11.5 11.8,11.6 11.9,11.8 C11.9,11.9 11.8,12.1 11.7,12.1 C11.6,12.2 11.6,12.2 11.5,12.3 L11.2,12.5 L10.7,12.7 L10.2,12.9 L9.5,13 L8.7,13.1 L7.9,13.2 L6.7,13.3 C6.1,13.3 5.5,13.3 5,13.2 C4.4,13.1 4,13 3.6,13 C3.2,12.9 2.7,12.8 2.3,12.6 C2.1,12.5 1.8,12.3 1.6,12.2 C1.4,12 1.3,11.8 1.2,11.6 L1.2,12.3 L1.2,13 C1.2,13.3 1.4,13.6 1.6,13.8 C2.5,14.4 3.4,14.8 4.5,14.9 C5.2,15 5.9,15.1 6.6,15.1 C7.6,15.1 8.6,15 9.6,14.8 L9.6,14.8 C10.1,14.7 10.6,14.5 11.1,14.2 L11.1,14.2 C11.2,14.1 11.3,14 11.4,14 C11.6,13.9 11.7,13.7 11.8,13.5 C11.8,13.4 11.9,13.3 11.9,13.2 C11.9,13.2 11.9,12.1 11.9,12 C11.9,11.9 11.9,11.8 11.9,11.7 C11.9,11.4 11.9,11.3 11.9,11.2 Z" id="Path"></path>
                    <path d="M18.5,8.7 C21.5,8.7 23.9,7.8 23.9,6.7 C23.9,6.7 24,5.7 23.9,5.5 C23.9,5.4 23.9,5.2 23.8,5.1 C24.1,4.9 24.4,4.6 24.4,4.2 C24.4,4.2 24.4,3.1 24.4,2.8 C24.2,1.5 21.5,0.7 19,0.7 C16.5,0.7 13.6,1.5 13.6,2.9 C13.6,3 13.6,4.1 13.6,4.1 C13.6,4.2 13.6,4.3 13.7,4.3 C13.3,4.6 13,5 13,5.4 C13,5.5 13,6.6 13,6.6 C13,6.9 13.2,7.2 13.4,7.4 C14.2,8 15.2,8.4 16.3,8.5 C17.1,8.6 17.8,8.7 18.5,8.7 Z M19.1,1.3 C22,1.3 24,2.1 24,2.9 C24,3.7 22,4.5 19.1,4.5 C16.2,4.5 14.2,3.7 14.2,2.9 C14.2,2.1 16.2,1.3 19.1,1.3 Z M13.6,5.4 C13.6,5.1 13.8,4.9 14,4.8 C14.2,5 14.3,5.1 14.5,5.2 C15.9,5.8 17.4,6.1 19,6.1 C20.3,6.1 21.6,5.9 22.8,5.5 L23.3,5.3 C23.3,5.3 23.3,5.4 23.3,5.4 C23.3,6.2 21.3,7 18.4,7 C15.5,7 13.6,6.2 13.6,5.4 Z" id="Shape"></path>
                    <path d="M24.5,7.6 C24.5,7.5 24.4,7.5 24.4,7.4 C24.4,7.4 24.3,7.3 24.3,7.3 L24,7.1 C23.9,7.2 23.9,7.3 23.8,7.4 C23.9,7.4 23.9,7.5 24,7.5 C24.2,7.6 24.2,7.7 24.3,7.9 C24.3,8 24.2,8.2 24.1,8.2 L23.9,8.4 L23.6,8.6 L23,8.9 L22.5,9 L21.9,9.2 L21.1,9.3 L20.3,9.4 C20.2,9.4 19.4,9.5 19.1,9.5 C18.5,9.5 17.9,9.5 17.4,9.4 C17,9.3 16.6,9.3 16.2,9.2 C15.8,9.1 15.3,9 14.9,8.8 C14.7,8.7 14.4,8.5 14.2,8.3 C14,8.1 13.9,7.9 13.8,7.7 L13.8,8.4 L13.8,9 C13.8,9.3 14,9.6 14.2,9.8 C15.1,10.4 16.1,10.8 17.1,10.9 C17.8,11 18.5,11.1 19.2,11.1 C20.2,11.1 21.2,11 22.2,10.8 L22.2,10.8 C22.7,10.7 23.2,10.5 23.7,10.2 L23.7,10.2 C23.8,10.1 23.9,10 24,10 C24.2,9.9 24.3,9.7 24.4,9.5 C24.4,9.4 24.5,9.3 24.5,9.2 C24.5,9.2 24.5,8.1 24.5,8 C24.5,7.8 24.5,7.7 24.5,7.6 Z" id="Path"></path>
                    <path d="M23.8,12.3 C23.4,12.5 23,12.7 22.6,12.8 C21.4,13.1 20.2,13.3 18.9,13.3 C18.3,13.3 17.7,13.2 17.1,13.2 C16.7,13.1 16.4,13.1 16,13 L15.5,12.8 C15,12.7 14.5,12.4 14.1,12.1 C13.9,12 13.8,11.8 13.7,11.7 L13.7,12.2 C13.7,12.3 13.7,12.9 13.7,12.9 C13.7,13.2 13.9,13.5 14.1,13.7 C15,14.3 16,14.7 17,14.8 C17.7,14.9 18.4,15 19.1,15 C20.1,15 21.1,14.9 22.1,14.7 L22.1,14.7 C22.6,14.6 23.1,14.4 23.6,14.1 L23.6,14.1 C24.1,13.8 24.4,13.4 24.4,13.1 C24.4,13.1 24.4,12 24.4,11.9 C24.3,12 24.1,12.2 23.8,12.3 Z" id="Path"></path>
                    <path d="M14.1,11.7 C15,12.3 15.9,12.7 17,12.8 C17.7,12.9 18.4,13 19.1,13 C20.1,13 21.1,12.9 22.1,12.7 L22.1,12.7 C22.6,12.6 23.2,12.4 23.7,12.1 L23.7,12.1 C23.8,12 23.9,12 24,11.9 C24.2,11.8 24.3,11.6 24.4,11.4 C24.4,11.3 24.4,11.2 24.4,11.1 C24.4,11.1 24.4,10 24.4,9.9 C24.2,10.1 23.8,10.8 21.6,11.3 C20.7,11.5 19.8,11.5 18.8,11.5 C17.3,11.5 15.8,11.2 14.5,10.7 C14.3,10.6 14,10.4 13.8,10.2 C13.7,10.1 13.6,9.9 13.5,9.8 C13.5,9.8 13.5,10.3 13.5,10.3 L13.5,11 C13.6,11.3 13.8,11.6 14.1,11.7 Z" id="Path"></path>
                    <path d="M24.5,15.5 C24.3,15.7 24.1,16 23.9,16.1 C23.5,16.3 23.1,16.5 22.7,16.6 C21.5,16.9 20.3,17.1 19,17.1 C18.4,17.1 17.8,17 17.2,17 C16.8,17 16.5,16.9 16.1,16.8 L15.6,16.7 C15.1,16.6 14.6,16.3 14.2,16 C14,15.9 13.9,15.7 13.8,15.6 L13.8,16 C13.8,16.1 13.8,16.7 13.8,16.7 C13.8,17 14,17.3 14.2,17.5 C15.1,18.1 16,18.4 17.1,18.5 C17.8,18.6 18.5,18.7 19.2,18.7 C20.2,18.7 21.2,18.6 22.2,18.4 L22.2,18.4 C22.7,18.3 23.2,18.1 23.7,17.8 L23.7,17.8 C24.2,17.5 24.5,17.1 24.5,16.8 C24.5,16.7 24.5,15.6 24.5,15.5 Z" id="Path"></path>
                    <path d="M17,16.6 C17.7,16.7 18.4,16.8 19.1,16.8 C20.1,16.8 21.1,16.7 22.1,16.5 L22.1,16.5 C22.6,16.4 23.1,16.2 23.6,15.9 L23.6,15.9 L24,15.6 C24.2,15.5 24.3,15.3 24.4,15.1 C24.4,15 24.5,14.9 24.5,14.8 C24.5,14.8 24.5,13.7 24.5,13.6 C24.3,13.8 23.9,14.5 21.7,15 C20.8,15.2 19.9,15.2 18.9,15.2 C17.4,15.2 15.9,15 14.6,14.4 C14.4,14.3 14.1,14.1 13.9,13.9 C13.8,13.8 13.7,13.6 13.6,13.5 C13.6,13.5 13.6,14 13.6,14 L13.6,14.8 C13.6,15.1 13.8,15.4 14,15.6 C14.9,16.2 15.9,16.5 17,16.6 Z" id="Path"></path>
                </g>
            </g>
        </g>
    </g>
</svg>