<?xml version="1.0" encoding="UTF-8"?>
<svg width="95px" height="95px" viewBox="0 0 95 95" version="1.1" xmlns="http://www.w3.org/2000/svg" xmlns:xlink="http://www.w3.org/1999/xlink">
    <!-- Generator: Sketch 53.2 (72643) - https://sketchapp.com -->
    <title>goal_14_target_14_5</title>
    <desc>Created with Sketch.</desc>
    <g id="goal_14_target_14_5" stroke="none" stroke-width="1" fill="none" fill-rule="evenodd">
        <g id="Group-114">
            <rect id="Rectangle" fill="#0A97D9" fill-rule="nonzero" x="-3.62376795e-13" y="-2.13162821e-14" width="94.8" height="94.8"></rect>
            <path d="M34.9,48.4 C35.3,48.4 35.7,48 35.7,47.6 C35.7,47.2 35.3,46.8 34.9,46.8 C34.5,46.8 34.1,47.2 34.1,47.6 L34.1,47.6 C34,48 34.4,48.4 34.9,48.4 Z" id="Path"></path>
            <path d="M25.2,51 L25.2,51 C25.2,51 25.3,51.1 25.2,51 L25.2,51 C26.6,50.9 27.7,50.1 28.3,48.9 C28.3,48.9 30.9,51.1 33.3,51.1 C36.1,51.1 38.1,48.6 38.4,48.2 L38.4,48.2 L38.4,48.2 L38.4,48.2 L38.4,48.2 C38.1,47.8 36.1,45.2 33.3,45.2 C30.9,45.2 28.3,47.4 28.3,47.4 C27.7,46.2 26.6,45.4 25.3,45.2 L25.3,45.2 C25.3,45.2 25.2,45.2 25.2,45.3 C25.2,45.3 25.2,45.3 25.2,45.4 C25.7,46.3 26.1,47.2 26.1,48.2 C26.1,49.1 25.8,50.1 25.2,51 L25.2,51 Z M34.9,46.8 C35.3,46.8 35.7,47.2 35.7,47.6 C35.7,48 35.3,48.4 34.9,48.4 C34.5,48.4 34.1,48 34.1,47.6 L34.1,47.6 C34,47.2 34.4,46.8 34.9,46.8 C34.8,46.8 34.8,46.8 34.9,46.8 L34.9,46.8 Z" id="Shape" fill="#FFFFFF" fill-rule="nonzero"></path>
            <path d="M38.8,72.5 L40.8,71.2 C40.9,71.2 41.3,71 41.2,70.7 C41.1,70.4 40.7,70.4 40.7,70.4 L38,70.4 C37.5,70.4 37.5,69.9 37.5,69.9 C37.4,69.1 37.1,68.4 36.7,67.7 C36.5,67.4 36.4,67.3 36.2,67.4 C36,67.5 36,67.5 36,67.8 C35.9,68.5 35.8,69.1 35.6,69.8 C35.4,70.4 35.2,70.4 34.6,70.4 C34,70.4 32.6,70.4 32.6,70.4 C32.5,70.4 32.3,70.4 32.2,70.4 C32,70.4 31.9,70.5 31.8,70.7 C31.8,70.8 31.9,71 32,71 C32.3,71.2 33.8,72.1 34.2,72.3 C34.5,72.5 34.6,72.8 34.5,73.1 C34.5,73.2 33.7,75.1 33.5,75.5 C33.3,75.9 33.6,76 33.6,76 C33.9,76.2 34.2,75.8 34.2,75.8 C34.9,75.4 35.8,74.6 36.2,74.3 C36.6,74 36.8,74.3 36.8,74.3 C37.4,74.9 38.1,75.4 38.8,75.9 C38.9,76 39.1,76 39.3,75.9 C39.5,75.8 39.4,75.4 39.4,75.4 C39.4,75.4 38.7,73.4 38.6,73 C38.5,72.6 38.8,72.5 38.8,72.5 Z" id="Path" fill="#FFFFFF" fill-rule="nonzero"></path>
            <path d="M56,41.7 C56.3,41.7 56.5,41.5 56.5,41.3 L56.5,40.9 C56.5,40.8 56.5,40.6 56.5,40.5 C56.4,36.8 53.3,34 49.6,34.1 C46.1,34.2 43.4,37 43.2,40.5 C43.2,40.6 43.2,40.8 43.2,40.9 L43.2,41.2 C43.2,41.5 43.5,41.8 43.8,41.8 L46.5,41.8 C47.1,42.5 47.4,43.4 47.3,44.3 C47.1,44.8 46.8,45.3 46.5,45.8 C45.9,46.4 45.6,47.2 45.7,48.1 C45.9,48.8 46.2,49.4 46.7,49.9 C47.2,50.6 47.7,51.2 47.5,51.8 C47.4,52.2 47.2,52.5 47.1,52.8 C46.6,53.6 46.4,54.6 46.4,55.6 C46.4,55.8 46.6,56 46.8,56 C47,56 47.2,55.8 47.2,55.6 L47.2,55.6 C47.2,54.8 47.4,53.9 47.8,53.2 C48,52.9 48.1,52.5 48.3,52.1 C48.7,51.1 48,50.2 47.4,49.4 C47,49 46.8,48.5 46.6,48 C46.5,47.4 46.9,46.9 47.3,46.4 C47.7,45.9 48.1,45.3 48.3,44.6 C48.4,43.7 48.2,42.7 47.7,41.9 L49.5,41.9 C50.1,42.6 50.4,43.5 50.3,44.4 C50.1,44.9 49.8,45.5 49.5,45.9 C48.9,46.5 48.6,47.3 48.7,48.2 C48.9,48.8 49.2,49.4 49.6,50 C50.1,50.7 50.6,51.3 50.4,51.9 C50.3,52.3 50.1,52.6 50,52.9 C49.5,53.7 49.3,54.7 49.3,55.7 C49.3,55.9 49.5,56.1 49.7,56.1 L49.7,56.1 C49.9,56.1 50.1,55.9 50.1,55.7 C50.1,54.9 50.3,54.1 50.7,53.3 C50.9,53 51,52.6 51.2,52.2 C51.6,51.2 50.9,50.3 50.3,49.5 C49.9,49.1 49.7,48.6 49.5,48.1 C49.5,47.5 49.8,46.9 50.2,46.5 C50.6,46 51,45.4 51.2,44.7 C51.3,43.8 51.1,42.8 50.6,42 L52.4,42 C53,42.7 53.3,43.6 53.2,44.5 C53,45 52.8,45.6 52.4,46 C51.8,46.6 51.5,47.4 51.6,48.3 C51.8,49 52.1,49.6 52.5,50.1 C53,50.8 53.5,51.4 53.3,52 C53.1,52.4 53,52.7 52.9,53 C52.4,53.8 52.2,54.8 52.2,55.8 C52.2,56 52.4,56.2 52.6,56.2 C52.8,56.2 53,56 53,55.8 C53,55 53.2,54.1 53.6,53.4 C53.8,53.1 53.9,52.7 54.1,52.3 C54.5,51.3 53.8,50.4 53.2,49.6 C52.8,49.2 52.6,48.7 52.4,48.2 C52.4,47.6 52.7,47 53.1,46.6 C53.5,46.1 53.9,45.5 54.1,44.8 C54.3,43.9 54,42.9 53.5,42.1 C53.5,41.7 56,41.7 56,41.7 Z" id="Path" fill="#FFFFFF" fill-rule="nonzero"></path>
            <path d="M46.3,69.9 C45.8,70 45.5,70.4 45.5,70.9 C45.5,71.3 45.9,71.6 46.3,71.7 C46.8,71.8 47.2,71.4 47.3,70.9 C47.4,70.4 47,70 46.5,69.9 C46.4,69.9 46.4,69.9 46.3,69.9 Z" id="Path" fill="#FFFFFF" fill-rule="nonzero"></path>
            <path d="M50.7,62.7 C49.6,62.7 48.6,63.6 48.6,64.8 C48.6,65.9 49.5,66.9 50.7,66.9 C51.8,66.9 52.8,66 52.8,64.8 C52.8,64.8 52.8,64.8 52.8,64.8 C52.8,63.6 51.9,62.7 50.7,62.7 C50.8,62.7 50.8,62.7 50.7,62.7 Z" id="Path" fill="#FFFFFF" fill-rule="nonzero"></path>
            <path d="M42.8,59.1 C42.3,59 41.9,59.4 41.8,59.9 C41.7,60.4 42.1,60.8 42.6,60.9 C42.7,60.9 42.7,60.9 42.8,60.9 C43.3,60.8 43.6,60.4 43.6,59.9 C43.5,59.4 43.2,59.1 42.8,59.1 Z" id="Path" fill="#FFFFFF" fill-rule="nonzero"></path>
            <path d="M37.4,40.4 C37.5,39.9 37.1,39.5 36.6,39.4 C36.1,39.3 35.7,39.7 35.6,40.2 C35.6,40.3 35.6,40.3 35.6,40.4 C35.7,40.9 36.1,41.2 36.6,41.2 C37,41.1 37.4,40.8 37.4,40.4 Z" id="Path" fill="#FFFFFF" fill-rule="nonzero"></path>
            <path d="M31.1,35.4 C31.1,34.8 30.6,34.3 30,34.3 C29.4,34.3 28.9,34.8 28.9,35.4 C28.9,36 29.4,36.5 30,36.5 C30.6,36.5 31.1,36 31.1,35.4 C31.1,35.4 31.1,35.4 31.1,35.4 Z" id="Path" fill="#FFFFFF" fill-rule="nonzero"></path>
            <path d="M85.9,66.2 C83.8,67 80.2,68.3 75.8,69.8 C75.4,69.7 75.2,68.5 75.1,68.2 C75,67.2 74.4,65.9 75.8,64.5 C77.2,63.1 78,63.5 78.7,63.6 C79.4,63.7 79.9,65.6 80.3,66.3 C80.7,67 81.2,66.6 81.2,66.1 C81.1,65.5 81,64.9 80.7,64.4 C80.6,63.9 80.7,63.9 81.3,64 C81.9,64.1 82.1,64.4 82.8,64.7 C83.5,65 84.1,64.8 84.1,64.2 C84.1,63.6 83.4,63.5 82.7,63.3 C82,63.1 81.7,63 82.2,62.5 C82.6,62.1 82.8,61.5 82.6,61 C82.4,60.5 81.8,60.4 81.1,61.4 C80.4,62.4 79.7,62.4 79.5,61.8 C79.3,61.2 80.5,59.6 81.1,58.7 C81.6,57.9 82.5,57.3 83.4,57.2 C84.4,56.9 84.9,56.9 84.8,56.5 C84.7,56.1 83.7,56.2 83.2,56.2 C82.8,56.3 82.5,56 82.4,55.6 C82.4,55.5 82.4,55.5 82.4,55.4 C82.4,54.9 83.2,54.3 83.8,53.5 C84.4,52.7 84.6,52.5 84.2,52.1 C83.8,51.7 83,51.8 82.4,52.4 C81.9,53 81.4,53.6 81,54.2 C80.7,54.5 80.4,53.9 80,53.5 C79.6,53.1 79,52.8 78.7,53 C78.4,53.2 78.7,53.6 79.2,54.2 C79.8,54.8 80.1,55.6 80.1,56.4 C80.2,57.3 79.7,58.1 78.9,58.4 C78.5,58.5 78.6,57.3 77.9,57.2 C77.2,57.1 77.1,58 77.2,59.1 C77.3,60.2 76,60.7 75.5,60.2 C74.9,59.2 74.5,58.1 74.4,56.9 C74.4,56.1 75.4,55.3 76.1,54.8 C76.8,54.3 77.8,54.1 77.2,53.4 C76.6,52.7 74.7,53.7 74.1,54.4 C73.5,55.1 73.1,54.9 73,54.6 C72.8,53.7 72.8,52.8 73,51.9 C73.4,50.7 74.3,49.9 75.5,49.7 C76.5,49.7 77.5,50.1 78.3,50.8 C78.7,51 79.4,51.1 79.4,50.6 C79.4,50.1 78.3,49.4 77.8,49.2 C77.3,49 77,49 77.2,48.6 C77.4,48.2 78.7,47.6 79.2,47.4 C79.7,47.2 80.6,46.8 80,46.1 C79.4,45.4 77.7,46.6 77.2,46.9 C76.7,47.2 76.8,46 76.7,45.7 C76.6,45.4 76.7,44.4 75.8,44.5 C74.9,44.6 75.1,46.1 75.1,46.9 C75.1,47.7 74.5,47.6 73.4,48.4 C72.7,49 72,49.7 71.4,50.5 C71.1,50.8 70.9,49.9 70.8,48.7 C70.7,47.7 70.9,46.8 71.4,45.9 C72,45.2 72.7,44.5 73.6,44.1 C73.8,44 73.9,43.7 73.8,43.5 C73.7,43.3 73.4,43.2 73.2,43.3 C73.2,43.3 73.2,43.3 73.2,43.3 C72.6,43.6 72.1,43.8 71.7,43.5 C71.3,43.2 72,42.2 72.5,41.3 C73,40.4 72.9,39.5 72.3,39.1 C71.7,38.7 70.8,39.7 70.6,40.4 C70.4,41.1 70,41.2 69.6,40.7 C69.2,40.2 68.8,39.8 68.6,40 C68.4,40.2 68.2,40.4 68.8,41.1 C69.3,41.8 69.6,42.5 69.6,43.4 C69.7,44.1 69.1,44.3 68.7,44 C68.3,43.7 67.6,43.4 67.4,43.8 C67.2,44.2 67.8,44.6 68.4,44.8 C69,45 69,46 69,46.5 C69,47 68.9,47.3 68.4,47.3 C67.6,46.9 66.9,46.2 66.6,45.3 C66.6,44.8 66.5,44.3 66.4,43.7 C66.2,43.4 65.6,43.6 65.6,44 C65.6,44.6 65.6,45.1 65.6,45.7 C65.5,46 64.7,45.6 63.9,45.3 C63.1,45 62.2,45.3 62.3,45.8 C62.4,46.3 64,47 64.4,47 C64.8,47 65.1,47.4 64.9,47.7 C64.7,48 63.9,48.6 63.7,48.9 C63.5,49.2 63.8,49.9 64.4,49.4 C64.9,48.8 65.6,48.4 66.4,48.2 C67,48.1 67.6,48.4 68,49 C68.1,49.3 67.6,49.5 67,49.7 C66.4,49.9 66.2,50.3 66.2,50.5 C66.2,50.7 66.3,51.1 67,50.7 C67.5,50.5 68,50.4 68.4,50.4 C69,50.3 69.2,51 69.2,51 C69.6,52.2 71.2,55.5 71.4,56 C71.6,56.3 71.5,56.7 71.2,56.8 C71.1,56.9 70.9,56.9 70.8,56.9 C70.2,56.9 69.3,57 69.4,57.6 C69.5,58.2 70.9,58.2 71.7,58.2 C72.5,58.2 72.6,59.2 72.8,60.4 C73,61.6 71.5,61.8 70.7,61.2 C69.5,60.2 68.5,59 67.6,57.8 C67.4,57.2 67.5,56.5 67.9,55.9 C68.2,55.5 68.7,55.5 69,55.3 C69.3,55.1 69.4,54.7 69.2,54.4 C69.2,54.4 69.2,54.4 69.1,54.3 C68.9,54 68.1,54.4 67.9,54.6 C67.7,54.8 67.3,55 67.3,54.6 C67.3,54.2 67.4,53.3 67.4,52.9 C67.4,52.5 67.2,52.1 66.6,52.4 C66,52.7 66,55.3 66.1,56.3 C66.2,57.3 65.6,57.4 65.3,57.3 C64.6,56.9 64,56.3 63.6,55.6 C63.3,55.1 63.4,54.9 64,54 C64.3,53.7 64.5,53.3 64.6,52.9 C64.7,52.5 64.2,52.4 63.9,52.8 C63.7,53.1 63.4,53.4 63.1,53.6 C62.8,53.7 62.9,52.4 62.9,52.1 C62.9,51.8 63,51.4 62.3,51.5 C61.6,51.6 61.7,53.2 61.7,53.4 C61.7,53.6 61.2,53.6 60.6,53.6 C60,53.6 59.7,54.3 60.4,54.3 C60.9,54.3 61.4,54.4 61.9,54.7 C62.2,55.2 62.3,55.8 62.1,56.4 C62,56.7 61.4,56.3 60.5,56.4 C59.6,56.5 58.6,56.6 58.6,57.1 C58.6,57.6 59.3,58.3 60.2,58.1 C61.1,57.9 62,57.9 62.2,58.2 C62.4,58.5 62,58.6 61.7,58.9 C61.4,59.2 61.2,59.6 61.5,59.9 C61.8,60.2 62.3,60.1 62.8,59.7 C63.2,59.2 63.8,59 64.4,59.1 C65.3,59.2 66.1,59.5 66.7,60 C67.2,60.4 66.9,60.9 66.3,61.1 C65.7,61.3 65.1,61.7 64.5,62.1 C64,62.5 63.3,62.5 62.9,62.1 C62.4,61.7 61.8,61.3 61.5,61.7 C61.2,62.1 61.8,62.7 62.1,62.9 C62.4,63.1 62.6,63.1 62.3,63.6 C61.9,64.2 61.5,64.7 61,65.1 C60.7,65.3 60.7,65.6 60.8,65.9 C61,66.1 61.3,66.2 61.5,66.1 C62.2,65.7 62.8,65.2 63.4,64.6 C63.6,64.5 63.7,64.1 63.9,64.6 C64,65 64,65.5 64,65.9 C64,66.2 63.8,66.6 64.2,66.7 C64.4,66.8 64.7,66.6 64.8,66.4 C64.8,66 64.8,65.5 64.8,65.1 C64.7,64.4 64.9,63.7 65.4,63.2 C66,62.5 67.4,62.7 68.3,62.7 C69.2,62.7 69.3,63.4 69.3,63.9 C69.3,64.4 68.2,65 67.9,65.2 C67.6,65.4 66.8,65.6 67.1,66.2 C67.4,66.8 67.6,66.6 68,66.6 C68.4,66.6 69.3,65.5 70,65.4 C70.7,65.3 71.2,65.4 71.8,66.8 C72.2,67.8 72.6,71.2 72,71.3 C64.4,73.9 55.2,76.7 47.2,78.6 C36.5,81 30.3,81.9 24.4,82.3 C24.5,82.1 24.6,81.8 24.6,81.7 C24.9,81.1 25.3,80.5 25.9,80.1 C26.3,79.7 26.3,79.1 26,78.1 C25.7,77.1 26.3,76.5 26.6,75.7 C26.8,75 26.7,74.2 26.3,73.5 C26.3,73.4 26.2,73.3 26.1,73.2 C25.5,73.9 25.1,74.7 24.9,75.5 C24.7,76.5 24.9,77 24.6,77.6 C24.3,78.2 23.7,78.6 23.7,79 C23.8,79.8 23.7,80.7 23.4,81.4 C23.2,81.6 22.9,81.8 22.6,82 C22.8,81.3 22.8,80.4 22.4,79.8 C22.3,79.5 21.9,79 22.4,78.5 C22.9,78 23.1,77.2 23,76.5 C23,75.6 23.1,75.5 23.9,74.8 C24.7,74.1 24.4,73 24.3,72.4 C24.2,71.8 24.6,71.9 25,71.3 C25.4,70.7 25,69.7 25.1,69 C25.2,68.3 25.6,68.4 25.5,67.3 C25.4,66.5 25.5,65.8 25.7,65.1 C26,64 24.6,62.9 24.3,62.7 C24.5,62.9 24.3,63.2 23.9,64.1 C23.6,64.8 23.7,65.5 24.1,66.1 C24.3,66.7 23.9,66.8 23.8,67.5 C23.7,68.2 24,68.4 23.4,69.1 C22.8,69.8 22.6,70.3 22.6,71.6 C22.6,72.9 21.7,72.8 21.2,73.3 C20.7,73.8 21.4,74.5 21.3,75.4 C21.3,75.7 21.2,76 21.1,76.3 C21.2,75.9 21.2,75.4 21.1,75 C20.7,74 20.6,73.6 20.7,73.4 C20.9,73.2 21.1,72.9 21.3,72.8 C21.2,72.7 21.2,72.6 21.2,72.5 C21,72.1 21.2,71.5 21.7,70.4 C22.2,69.3 21.9,69.3 21.5,68.7 C21.1,68.1 21.2,67.9 21.7,67.4 C22.1,67 22.3,66.4 22.1,65.8 C21.9,65.3 21.8,64.8 21.9,64.2 C22.1,63.5 22.6,63.4 22.3,62.8 C22,62.2 21.8,61.6 21.8,61.6 C21.6,60.9 22.3,60.5 21.8,59.4 C21.4,58.5 21.7,58.1 21.5,56.7 C21.4,55.9 20.7,55.4 19.9,55.5 C19.9,55.5 19.9,55.5 19.9,55.5 C19.7,55.5 19.4,55.8 19.5,56.8 C19.6,57.8 20.3,58 20,59.1 C19.7,60.2 20.3,60.6 20.5,61.1 C20.7,61.6 20.1,62 20,62.6 C19.9,63.2 20.4,63.7 19.8,64.4 C19.2,65.1 19,65.3 19.6,66.4 C20,67.1 19.6,67.4 19.1,68.4 C18.6,69.4 18.9,69.7 19,70.9 C19.2,71.6 19.2,72.3 19.1,73 C19,73.8 18.5,73.9 18.5,75.2 C18.7,76 18.9,76.9 18.9,77.8 C18.8,78.4 17.2,79.5 17.3,80.3 C17.3,81 17.3,81.7 17.5,82.4 L15.5,82.4 C15.4,80.6 15.1,78.8 14.8,77.1 C14.4,74.9 14.8,72.6 15.4,69.9 L15.4,69.9 C15.4,69.9 15.4,69.8 15.4,69.8 C15.6,68.7 15.9,67.5 16.1,66.2 C16.9,61.9 17.1,57.5 16.7,53.1 C16.4,51.2 16,49.4 15.5,47.6 C15.1,45.9 14.6,44.2 14.4,42.8 C13.9,39.8 13.5,37.6 13.5,37.5 C13.5,37.3 13.2,37.1 13,37.2 C13,37.2 13,37.2 13,37.2 C12.8,37.3 12.6,37.5 12.7,37.7 C12.7,37.7 13.1,39.9 13.6,42.9 C13.8,44.4 14.2,46 14.7,47.8 C15.2,49.6 15.6,51.4 15.9,53.2 C16.2,56.6 16.1,60 15.7,63.3 C15.7,62.3 15.7,61.3 15.6,60.3 C15.4,57.5 14.8,54.7 13.9,52 C13.8,51.8 13.6,51.7 13.4,51.7 C13.4,51.7 13.4,51.7 13.4,51.7 C13.2,51.8 13.1,52 13.1,52.2 C13.1,52.2 13.1,52.2 13.1,52.2 C14,54.8 14.5,57.6 14.7,60.3 C14.9,63.4 14.9,66.5 14.6,69.5 L14.6,69.6 C14,72.4 13.5,74.9 14,77.2 C14.4,79.3 14.6,81.3 14.7,82.4 L14.7,82.4 C14.5,82.1 14.3,81.9 14.1,81.6 C13.5,80.6 13,79.6 12.7,78.4 C12.5,77.8 12.3,77.2 12,76.3 C11,73.6 11.2,68.5 11.3,64.9 C11.4,63.8 11.5,62.7 11.6,61.6 C12.1,58.3 12.1,55 11.6,51.7 C10.7,46.9 10.8,45.6 10.8,45.6 C10.8,45.4 10.7,45.2 10.4,45.1 C10.2,45.1 10,45.2 9.9,45.4 C9.9,45.4 9.9,45.4 9.9,45.4 C9.9,45.5 9.7,46.8 10.7,51.8 C11.2,55 11.2,58.2 10.7,61.4 C10.6,62.6 10.4,63.7 10.4,64.8 C10.2,68.8 10.1,73.7 11.1,76.5 C11.4,77.3 11.6,78 11.8,78.5 C12.1,79.7 12.6,80.8 13.3,81.9 L13.5,82.2 C13.5,82.2 13.5,82.2 13.5,82.3 L8.9,82.3 L6.9,82.3 L6.9,88.5 L87.5,88.5 L87.5,65.5 L85.9,66.2 Z" id="Path" fill="#FFFFFF" fill-rule="nonzero"></path>
            <path d="M25.1,12 C25.2,11.9 25.2,11.9 25.3,11.8 C25.4,11.8 25.4,11.7 25.5,11.7 C25.6,11.7 25.8,11.8 25.8,11.9 C35.1,20.8 44.9,13.6 46.9,11.9 L47.1,11.7 C47.1,11.7 47.2,11.6 47.3,11.6 C47.4,11.6 47.4,11.6 47.5,11.7 L47.7,12 C49.7,13.7 59.5,20.9 68.8,12 L68.8,12 C68.9,11.9 69,11.9 69.1,11.9 C69.2,11.9 69.3,11.9 69.4,12 C69.5,12 69.5,12.1 69.5,12.1 C71.3,13.9 79.1,20.6 87.3,13.4 C87.4,13.3 87.4,13.2 87.5,13.1 L87.5,9.6 C87.5,9.3 87.3,9.1 87,9.1 C87,9.1 87,9.1 87,9.1 L86.9,9.1 L86.7,9.2 C84.2,10.5 76.3,13.5 69.2,6.7 C69.1,6.6 68.9,6.5 68.8,6.5 C68.7,6.5 68.5,6.6 68.4,6.7 C66.3,8.3 56.5,14.9 47.8,6.8 L47.7,6.8 C47.6,6.7 47.5,6.7 47.3,6.7 C47.2,6.7 47.1,6.8 47,6.8 L46.9,6.9 C38.2,15 28.4,8.4 26.3,6.8 C26.2,6.7 26.1,6.6 25.9,6.6 C25.7,6.6 25.6,6.7 25.5,6.8 C18.4,13.5 10.5,10.5 8,9.3 L7.7,9.1 L7.6,9.1 C7.3,9.1 7.1,9.3 7.1,9.6 C7.1,9.6 7.1,9.6 7.1,9.6 L7.1,13 C7.1,13.1 7.2,13.2 7.2,13.3 C15.4,20.5 23.2,13.8 25.1,12 Z" id="Path" fill="#FFFFFF" fill-rule="nonzero"></path>
            <path d="M25.1,24.4 C25.2,24.3 25.2,24.3 25.3,24.2 C25.4,24.2 25.4,24.1 25.5,24.1 C25.6,24.1 25.8,24.2 25.8,24.3 C35.1,33.2 44.9,26 46.9,24.3 L47.1,24.1 C47.1,24 47.2,24 47.3,24 C47.4,24 47.4,24 47.5,24.1 L47.7,24.3 C49.7,26 59.5,33.2 68.8,24.3 L68.8,24.3 C69,24.2 69.2,24.2 69.4,24.3 C69.5,24.3 69.5,24.4 69.5,24.4 C71.3,26.2 79.1,32.9 87.3,25.7 C87.4,25.6 87.5,25.5 87.5,25.4 L87.5,22 C87.5,21.7 87.3,21.5 87,21.5 L86.9,21.5 L86.7,21.6 C80.9,24.7 73.8,23.7 69.2,19.1 C69.1,19 69,18.9 68.8,18.9 C68.7,18.9 68.5,19 68.4,19.1 C66.3,20.7 56.5,27.3 47.8,19.2 L47.7,19.2 C47.6,19.1 47.5,19.1 47.3,19.1 C47.2,19.1 47.1,19.2 47,19.2 L46.9,19.3 C38.2,27.4 28.4,20.8 26.3,19.2 C26.2,19 26,19 25.9,19 C25.7,19 25.6,19.1 25.5,19.2 C18.4,25.9 10.5,22.9 8,21.7 L7.7,21.5 L7.6,21.5 C7.3,21.5 7.1,21.7 7.1,22 L7.1,22 L7.1,25.4 C7.1,25.5 7.1,25.7 7.2,25.7 C15.4,32.9 23.2,26.2 25.1,24.4 Z" id="Path" fill="#FFFFFF" fill-rule="nonzero"></path>
        </g>
    </g>
</svg>