<?xml version="1.0" encoding="UTF-8"?>
<svg width="95px" height="95px" viewBox="0 0 95 95" version="1.1" xmlns="http://www.w3.org/2000/svg" xmlns:xlink="http://www.w3.org/1999/xlink">
    <!-- Generator: Sketch 53.2 (72643) - https://sketchapp.com -->
    <title>goal_11_target_11_5</title>
    <desc>Created with Sketch.</desc>
    <g id="goal_11_target_11_5" stroke="none" stroke-width="1" fill="none" fill-rule="evenodd">
        <g id="Group-87" fill-rule="nonzero">
            <rect id="Rectangle" fill="#FD9D24" x="-3.62376795e-13" y="-2.13162821e-14" width="94.8" height="94.8"></rect>
            <g id="Group" transform="translate(6.700000, 11.000000)" fill="#FFFFFF">
                <g transform="translate(0.000000, 42.000000)" id="Rectangle">
                    <rect x="0.5" y="0.3" width="18.8" height="5.6"></rect>
                    <rect x="21.1" y="0.3" width="18.8" height="5.6"></rect>
                    <rect x="41.7" y="0.3" width="18.8" height="5.6"></rect>
                    <rect x="62.3" y="0.3" width="18.8" height="5.6"></rect>
                </g>
                <polygon id="Path" points="65.8 11.6 64.9 6.4 64.8 11.6"></polygon>
                <polygon id="Path" points="68.7 11.6 69.6 6.4 69.7 11.6"></polygon>
                <polygon id="Path" points="62.6 11.6 63.7 11.6 62.7 5.4"></polygon>
                <path d="M69.6,1.8 C69.4,1.5 68.7,1.6 67.9,2 L67.9,2 C67.9,2 67.9,1.9 67.9,1.9 C68,1 67.7,0.3 67.4,0.2 C67.1,0.1 66.7,0.9 66.6,1.8 L66.6,2 L66.4,2 C65.7,1.5 64.9,1.3 64.7,1.5 C64.5,1.7 64.9,2.5 65.6,3 C65.7,3.1 65.8,3.1 65.9,3.2 C65.8,3.2 65.7,3.3 65.7,3.3 C64.9,3.7 64.4,4.3 64.6,4.6 C64.8,4.9 65.5,4.8 66.3,4.4 C66.6,4.3 66.8,4.1 67,3.9 L67,4 C67,4.7 67,4.7 67,6.3 L67,11.6 L67.4,11.6 L67.4,6.3 C67.4,4.9 67.4,4.7 67.4,4.2 C67.5,4.3 67.6,4.4 67.8,4.5 C68.5,5 69.3,5.3 69.5,5 C69.7,4.7 69.3,4 68.6,3.5 L68.3,3.3 L68.5,3.2 C69.3,2.7 69.8,2.1 69.6,1.8 Z M67.1,3.3 C66.9,3.3 66.8,3.1 66.8,2.9 C66.8,2.9 66.8,2.9 66.8,2.9 C66.8,2.7 67.2,2.6 67.2,2.6 C67.2,2.6 67.5,2.8 67.5,3 C67.5,3.2 67.3,3.3 67.1,3.3 C67.2,3.3 67.2,3.3 67.1,3.3 Z" id="Shape"></path>
                <path d="M79.1,3.5 L78.8,3.3 L79,3.2 C79.8,2.7 80.3,2.2 80.1,1.8 C79.9,1.4 79.2,1.6 78.4,2 L78.4,2 C78.4,2 78.4,1.9 78.4,1.9 C78.4,1 78.2,0.3 77.9,0.2 C77.6,0.1 77.2,0.9 77.2,1.8 C77.2,1.9 77.2,1.9 77.2,2 L76.9,2 C76.2,1.5 75.4,1.3 75.2,1.5 C75,1.7 75.4,2.5 76.1,3 L76.4,3.2 L76.2,3.3 C75.4,3.7 74.9,4.3 75.1,4.6 C75.3,4.9 76,4.8 76.8,4.4 C77.1,4.3 77.3,4.1 77.5,3.9 L77.5,4 C77.5,4.7 77.5,4.7 77.5,6.3 L77.5,11.6 L78,11.6 L78,6.3 C78,4.9 78,4.7 78,4.2 C78.1,4.3 78.2,4.4 78.4,4.5 C79.1,5 79.9,5.3 80.1,5 C80.3,4.7 79.8,4 79.1,3.5 Z M77.6,3.3 C77.4,3.3 77.3,3.1 77.3,2.9 C77.3,2.7 77.7,2.6 77.7,2.6 C77.7,2.6 78,2.8 78,3 C78,3.2 77.8,3.3 77.6,3.3 C77.7,3.3 77.7,3.3 77.6,3.3 Z" id="Shape"></path>
                <polygon id="Path" points="74.3 11.6 73.5 6.4 73.4 11.6"></polygon>
                <polygon id="Path" points="75.2 11.6 76 6.4 76.1 11.6"></polygon>
                <polygon id="Path" points="71.1 11.6 72.3 11.6 71.2 5.4"></polygon>
                <polygon id="Path" points="79.7 11.8 78.8 6.7 78.8 11.8"></polygon>
                <polygon id="Path" points="79.9 11.5 81 11.4 80.6 5.9"></polygon>
                <g transform="translate(40.000000, 19.000000)" id="Path">
                    <path d="M6.7,2.4 C6.7,1.4 5.9,0.6 4.9,0.6 C3.9,0.6 3.1,1.4 3.1,2.4 C3.1,3.4 3.9,4.2 4.9,4.2 C4.9,4.2 4.9,4.2 4.9,4.2 C5.9,4.2 6.7,3.4 6.7,2.4 Z"></path>
                    <path d="M7,4.9 L2.9,4.9 C1.7,5 0.8,6 0.8,7.2 L0.8,12 C0.8,12.4 1.1,12.7 1.5,12.7 C1.9,12.7 2.2,12.4 2.2,12 L2.2,7.8 C2.2,7.6 2.2,7.4 2.5,7.4 C2.8,7.4 2.7,7.6 2.7,7.7 L2.7,20.2 C2.8,20.7 3.4,21.1 3.9,21 C4.3,20.9 4.6,20.6 4.7,20.2 L4.7,13 C4.7,12.9 4.8,12.7 4.9,12.7 C4.9,12.7 4.9,12.7 4.9,12.7 L4.9,12.7 C5,12.7 5.2,12.8 5.2,12.9 C5.2,12.9 5.2,12.9 5.2,12.9 L5.2,20.1 C5.2,20.7 5.6,21.1 6.2,21.1 C6.8,21.1 7.2,20.7 7.2,20.1 L7.2,7.8 C7.2,7.7 7.2,7.5 7.4,7.5 C7.6,7.5 7.7,7.7 7.7,7.9 L7.7,12 C7.7,12.4 8,12.7 8.4,12.7 C8.8,12.7 9.1,12.4 9.1,12 L9.1,7.1 C9.1,6 8.2,5 7,4.9 Z"></path>
                </g>
                <g transform="translate(50.000000, 19.000000)" id="Path">
                    <path d="M3.7,2.5 C3.7,3.4 4.5,4.2 5.4,4.2 C6.3,4.2 7.1,3.4 7.1,2.5 C7.1,1.6 6.3,0.8 5.4,0.8 C4.5,0.8 3.7,1.6 3.7,2.5 C3.7,2.5 3.7,2.5 3.7,2.5 Z"></path>
                    <path d="M8.8,6.4 C8.8,6.4 8.3,5.1 7.2,5.1 L3.6,5.1 C2.5,5.1 2,6.4 2,6.4 L0.6,11.1 C0.6,11.1 0.4,11.9 1.1,12.2 C1.8,12.5 2,11.6 2,11.6 L3.2,7.7 C3.2,7.7 3.3,7.4 3.5,7.5 C3.7,7.6 3.6,7.9 3.6,7.9 L1.6,15.2 L3.5,15.2 L3.5,20.4 C3.4,20.9 3.8,21.3 4.3,21.4 C4.8,21.5 5.2,21.1 5.3,20.6 C5.3,20.5 5.3,20.5 5.3,20.4 L5.3,15.2 L5.8,15.2 L5.8,20.4 C5.7,20.9 6.1,21.3 6.6,21.4 C7.1,21.5 7.5,21.1 7.6,20.6 C7.6,20.5 7.6,20.5 7.6,20.4 L7.6,15.2 L9.5,15.2 L7.5,7.9 C7.5,7.9 7.4,7.6 7.6,7.5 C7.8,7.4 7.9,7.7 7.9,7.7 L9.1,11.6 C9.1,11.6 9.3,12.4 10,12.2 C10.7,12 10.5,11.1 10.5,11.1 L8.8,6.4 Z"></path>
                </g>
                <path d="M6.8,33.4 L8.5,33.4 L8.5,38 C8.5,38.1 8.6,38.2 8.7,38.2 C8.7,38.2 8.7,38.2 8.7,38.2 L10.8,38.2 C10.9,38.2 11,38.1 10.9,38 L10.9,33.3 L14.3,33.3 C16.5,33.3 18.3,31.5 18.3,29.3 C18.3,28.3 17.9,27.3 17.2,26.6 C19,25.6 19.6,23.3 18.6,21.5 C17.9,20.3 16.7,19.6 15.3,19.6 L15.1,19.6 C14.9,16.8 12.5,14.7 9.7,14.9 C6.9,15.1 4.8,17.5 5,20.3 C5,20.9 5.2,21.5 5.5,22.1 C2.5,22.8 0.5,25.8 1.2,28.9 C1.8,31.5 4.1,33.4 6.8,33.4 L6.8,33.4 Z" id="Path"></path>
                <path d="M1.3,40.5 C1.7,40.5 2,40.2 2,39.8 C2,39.4 1.7,39.1 1.3,39 C0.9,39 0.6,39.3 0.5,39.8 C0.6,40.2 0.9,40.5 1.3,40.5 Z" id="Path"></path>
                <path d="M3.9,39.8 C3.9,40.2 4.3,40.5 4.7,40.5 C5,40.5 5.3,40.2 5.4,39.8 C5.4,39.4 5.2,39 4.7,39 C4.2,39 3.9,39.2 3.9,39.7 C3.9,39.7 3.9,39.7 3.9,39.8 Z" id="Path"></path>
                <path d="M8,39 C7.6,39 7.3,39.3 7.2,39.8 C7.2,40.2 7.5,40.5 8,40.5 C8.4,40.5 8.7,40.2 8.7,39.8 C8.7,39.3 8.4,39 8,39 Z" id="Path"></path>
                <path d="M10.6,39.8 C10.6,40.2 11,40.5 11.4,40.5 C11.7,40.5 12,40.2 12.1,39.8 C12.1,39.4 11.9,39 11.4,39 C10.9,39 10.6,39.2 10.6,39.7 C10.6,39.7 10.6,39.7 10.6,39.8 Z" id="Path"></path>
                <path d="M13.9,39.8 C13.9,40.2 14.2,40.5 14.7,40.5 C15.1,40.5 15.4,40.2 15.4,39.8 C15.4,39.4 15.1,39.1 14.7,39 C14.2,39 13.9,39.4 13.9,39.8 Z" id="Path"></path>
                <path d="M17.2,39.8 C17.2,40.2 17.6,40.5 18,40.5 C18.3,40.5 18.6,40.2 18.7,39.8 C18.7,39.4 18.5,39 18,39 C17.5,39 17.2,39.2 17.2,39.7 C17.2,39.7 17.2,39.7 17.2,39.8 Z" id="Path"></path>
                <path d="M2.3,37.2 C2.3,37.6 2.6,38 3,38 C3,38 3,38 3.1,38 C3.5,38 3.8,37.7 3.9,37.3 C3.9,36.9 3.6,36.6 3.1,36.5 C2.6,36.5 2.3,36.8 2.3,37.2 Z" id="Path"></path>
                <path d="M5.6,37.2 C5.6,37.6 5.9,38 6.4,38 C6.9,38 7.2,37.7 7.2,37.2 C7.2,36.7 6.9,36.4 6.4,36.4 C5.9,36.4 5.6,36.8 5.6,37.2 Z" id="Path"></path>
                <path d="M12.2,37.2 C12.2,37.6 12.5,38 12.9,38 C12.9,38 12.9,38 13,38 C13.4,38 13.7,37.7 13.7,37.3 C13.7,36.9 13.4,36.6 13,36.5 C12.6,36.5 12.3,36.8 12.2,37.2 Z" id="Path"></path>
                <path d="M15.6,37.2 C15.6,37.6 15.9,37.9 16.3,37.9 C16.7,37.9 17,37.6 17.1,37.2 C17.1,36.8 16.8,36.5 16.3,36.4 C15.9,36.5 15.6,36.8 15.6,37.2 Z" id="Path"></path>
                <g transform="translate(22.000000, 17.000000)">
                    <path d="M3.6,4.2 C3.6,4.2 2.5,5.4 2.5,6.2 C2.5,7 3.3,7.4 3.6,7.5 C3.6,7.5 4.7,6.9 4.7,6.2 C4.5,5.4 4.1,4.7 3.6,4.2 Z" id="Path"></path>
                    <path d="M1.2,6.3 C1.2,6.3 1,8.2 1.9,8.8 C1.9,8.8 2.2,9.1 3.5,9.3 C3.5,9.3 3.6,8.1 3.1,7.5 C2.5,7.1 1.9,6.6 1.2,6.3 Z" id="Path"></path>
                    <path d="M1,8.7 C1,8.7 0.8,10.8 1.7,11.4 C1.7,11.4 2,11.8 3.4,12 C3.4,12 3.5,10.6 3,10.1 C2.4,9.5 1.8,9.1 1,8.7 Z" id="Path"></path>
                    <path d="M1.1,11.4 C1.1,11.4 0.8,13.7 1.7,14.3 C1.7,14.3 2.1,14.7 3.5,14.9 C3.5,14.9 3.7,13.5 3.2,13 C3.2,13 2.9,12.4 1.1,11.4 Z" id="Path"></path>
                    <path d="M0.8,14.2 C0.8,14.2 0.7,16.5 1.6,17.2 C2.2,17.6 2.8,17.8 3.5,17.8 C3.5,17.8 3.7,16.3 3.1,15.7 C2.5,15.1 1.7,14.6 0.8,14.2 Z" id="Path"></path>
                    <path d="M6,6.3 C6,6.3 6.2,8.2 5.4,8.8 C5.4,8.8 5.1,9.2 3.8,9.4 C3.8,9.4 3.7,8.2 4.1,7.6 C4.7,7.1 5.3,6.6 6,6.3 Z" id="Path"></path>
                    <path d="M6.2,8.7 C6.2,8.7 6.4,10.8 5.5,11.4 C5.5,11.4 5.2,11.8 3.8,12 C3.8,12 3.6,10.7 4.1,10.1 C4.8,9.5 5.5,9 6.2,8.7 Z" id="Path"></path>
                    <path d="M6.2,11.4 C6.2,11.4 6.5,13.7 5.6,14.3 C5.1,14.7 4.5,15 3.8,15 C3.8,15 3.6,13.6 4.1,13.1 C4.2,13 4.5,12.4 6.2,11.4 Z" id="Path"></path>
                    <path d="M6.5,14.1 C6.5,14.1 6.7,16.5 5.8,17.1 C5.3,17.5 4.6,17.7 4,17.8 C4,17.8 3.8,16.3 4.3,15.7 C4.9,15.1 5.7,14.5 6.5,14.1 Z" id="Path"></path>
                    <path d="M1.6,2.1 C1.6,2 1.5,1.9 1.3,1.9 C1.2,1.9 1.2,2 1.1,2.1 L1.1,5.9 L1.5,6.1 L1.5,2.1 L1.6,2.1 Z" id="Path"></path>
                    <path d="M2.4,1.5 C2.4,1.4 2.3,1.3 2.2,1.3 C2.1,1.3 2,1.4 2,1.5 C2,1.5 2,1.5 2,1.5 L2,6 L2,6 C2.1,5.7 2.2,5.3 2.4,5 L2.4,1.5 Z" id="Path"></path>
                    <path d="M3.3,0.4 C3.3,0.3 3.2,0.2 3.1,0.2 C3.1,0.2 3.1,0.2 3.1,0.2 C3,0.2 2.9,0.3 2.9,0.4 L2.9,0.4 L2.9,4.3 L3.3,3.7 L3.3,0.4 Z" id="Path"></path>
                    <path d="M5.5,2.1 C5.5,2 5.6,1.9 5.7,1.9 C5.7,1.9 5.7,1.9 5.7,1.9 C5.8,1.9 5.9,2 5.9,2.1 L5.9,5.9 L5.5,6.1 L5.5,2.1 Z" id="Path"></path>
                    <path d="M4.7,1.4 C4.7,1.3 4.8,1.2 4.9,1.2 L4.9,1.2 C5,1.2 5.1,1.3 5.1,1.4 C5.1,1.4 5.1,1.4 5.1,1.4 L5.1,6 L5.1,6 C5,5.7 4.9,5.3 4.7,5 L4.7,1.4 Z" id="Path"></path>
                    <path d="M3.8,0.4 C3.8,0.3 3.9,0.2 4,0.2 C4,0.2 4,0.2 4,0.2 C4.1,0.2 4.2,0.3 4.2,0.4 L4.2,4.3 L3.8,3.8 L3.8,0.4 L3.8,0.4 Z" id="Path"></path>
                    <rect id="Rectangle" x="3.4" y="18.2" width="1" height="5.3"></rect>
                </g>
                <g transform="translate(31.000000, 17.000000)">
                    <path d="M2.9,4.1 C2.9,4.1 1.8,5.3 1.8,6.1 C1.8,6.9 2.6,7.3 2.9,7.4 C2.9,7.4 4,6.8 4,6.1 C4,5.4 2.9,4.1 2.9,4.1 Z" id="Path"></path>
                    <path d="M0.5,6.3 C0.5,6.3 0.3,8.2 1.2,8.8 C1.2,8.8 1.5,9.2 2.8,9.3 C2.8,9.3 2.9,8.1 2.4,7.5 C1.8,7 1.2,6.6 0.5,6.3 Z" id="Path"></path>
                    <path d="M0.3,8.6 C0.3,8.6 0.1,10.7 1,11.3 C1,11.3 1.3,11.7 2.7,11.9 C2.7,11.9 2.8,10.5 2.3,10 C1.8,9.5 1.1,9 0.3,8.6 Z" id="Path"></path>
                    <path d="M0.4,11.4 C0.4,11.4 0.1,13.7 1,14.3 C1,14.3 1.4,14.7 2.8,14.9 C2.8,14.9 3,13.5 2.5,13 C2.5,13 2.2,12.4 0.4,11.4 Z" id="Path"></path>
                    <path d="M0.1,14.1 C0.1,14.1 -1.38777878e-17,16.5 0.9,17.1 C1.4,17.5 2.1,17.7 2.8,17.8 C2.8,17.8 3,16.3 2.4,15.7 C1.8,15 1,14.5 0.1,14.1 Z" id="Path"></path>
                    <path d="M5.3,6.2 C5.3,6.2 5.5,8.1 4.7,8.7 C4.7,8.7 4.4,9.1 3.1,9.3 C3.1,9.3 2.9,8.1 3.4,7.5 C4,7 4.6,6.5 5.3,6.2 Z" id="Path"></path>
                    <path d="M5.5,8.6 C5.5,8.6 5.7,10.7 4.8,11.3 C4.8,11.3 4.5,11.7 3.1,11.9 C3,11.2 3.1,10.5 3.4,9.9 C4.1,9.4 4.8,8.9 5.5,8.6 Z" id="Path"></path>
                    <path d="M5.5,11.3 C5.5,11.3 5.8,13.6 4.9,14.2 C4.4,14.6 3.8,14.8 3.1,14.9 C3.1,14.9 2.9,13.5 3.4,12.9 C3.5,12.9 3.8,12.3 5.5,11.3 Z" id="Path"></path>
                    <path d="M5.8,14.1 C5.8,14.1 6,16.4 5.1,17.1 C4.6,17.5 3.9,17.7 3.3,17.8 C3.3,17.8 3.1,16.3 3.6,15.7 C4.2,15 5,14.4 5.8,14.1 Z" id="Path"></path>
                    <path d="M0.9,2.1 C0.9,2 0.8,1.9 0.7,1.9 C0.6,1.9 0.5,2 0.5,2.1 C0.5,2.1 0.5,2.1 0.5,2.1 L0.5,5.9 L0.9,6.1 L0.9,2.1 Z" id="Path"></path>
                    <path d="M1.7,1.4 C1.7,1.3 1.6,1.2 1.5,1.2 L1.5,1.2 C1.4,1.2 1.3,1.3 1.3,1.4 L1.3,6 L1.3,6 C1.4,5.7 1.5,5.3 1.7,5 L1.7,1.4 Z" id="Path"></path>
                    <path d="M2.6,0.3 C2.6,0.2 2.5,0.1 2.4,0.1 C2.4,0.1 2.4,0.1 2.4,0.1 C2.3,0.1 2.2,0.2 2.2,0.3 L2.2,0.3 L2.2,4.2 C2.3,4 2.5,3.8 2.6,3.6 L2.6,0.3 Z" id="Path"></path>
                    <path d="M4.9,2 C4.9,1.9 5,1.8 5.1,1.8 L5.1,1.8 C5.2,1.8 5.3,1.9 5.3,2 L5.3,5.8 L4.9,6 L4.9,2 Z" id="Path"></path>
                    <path d="M4,1.4 C4,1.3 4.1,1.2 4.2,1.2 L4.2,1.2 C4.3,1.2 4.4,1.3 4.4,1.4 C4.4,1.4 4.4,1.4 4.4,1.4 L4.4,5.9 L4.4,5.9 C4.3,5.6 4.2,5.2 4,4.9 L4,1.4 Z" id="Path"></path>
                    <path d="M3.1,0.3 C3.1,0.2 3.2,0.1 3.3,0.1 C3.3,0.1 3.3,0.1 3.3,0.1 C3.4,0.1 3.5,0.2 3.5,0.3 L3.5,0.3 L3.5,4.2 L3.1,3.6 L3.1,0.3 L3.1,0.3 Z" id="Path"></path>
                    <rect id="Rectangle" x="2.7" y="18.1" width="1" height="5.3"></rect>
                </g>
                <path d="M78.9,11.4 L62.6,11.4 L62.6,40.4 C62.6,40.6 62.7,40.7 62.9,40.7 L64.4,40.7 L64.4,33.1 C64.4,33 64.5,32.8 64.6,32.8 L68.6,32.8 C68.7,32.8 68.9,32.9 68.9,33.1 C68.9,33.1 68.9,33.1 68.9,33.1 L68.9,40.7 L80.7,40.7 C80.9,40.7 81,40.6 81,40.4 L81,11.4 L78.9,11.4 Z M79.2,37.2 C79.2,37.4 79.1,37.5 78.9,37.5 L71,37.5 C70.8,37.5 70.7,37.4 70.7,37.2 L70.7,33.2 C70.7,33 70.8,32.9 71,32.9 L78.9,32.9 C79.1,32.9 79.2,33 79.2,33.2 L79.2,37.2 Z M79.2,30.7 C79.2,30.9 79.1,31 78.9,31 L64.7,31 C64.6,31 64.5,30.9 64.5,30.9 C64.5,30.9 64.4,30.8 64.4,30.7 L64.4,26.7 C64.4,26.5 64.5,26.4 64.7,26.4 L78.9,26.4 C79,26.4 79.1,26.5 79.2,26.6 C79.2,26.6 79.2,26.6 79.2,26.6 L79.2,30.7 Z M79.2,24.3 C79.2,24.5 79.1,24.6 78.9,24.6 L64.7,24.6 C64.6,24.6 64.5,24.5 64.5,24.4 C64.5,24.4 64.5,24.4 64.5,24.3 L64.5,20.3 C64.5,20.1 64.6,20 64.8,20 L79,20 C79.1,20 79.2,20.1 79.3,20.2 C79.3,20.2 79.3,20.2 79.3,20.2 L79.2,24.3 Z M79.2,17.7 C79.2,17.9 79.1,18 78.9,18 L64.7,18 C64.5,18 64.4,17.9 64.4,17.7 L64.4,13.7 C64.4,13.5 64.5,13.4 64.7,13.4 L78.9,13.4 C79.1,13.4 79.2,13.5 79.2,13.7 L79.2,17.7 Z" id="Shape"></path>
            </g>
            <g id="Group" transform="translate(6.700000, 62.000000)" fill="#000000">
                <path d="M80.4,14.2 L80.4,14.2 L80.1,14.3 C77.6,15.6 69.7,18.6 62.6,11.8 C62.5,11.7 62.3,11.6 62.2,11.6 C62,11.6 61.9,11.7 61.8,11.8 C59.7,13.4 49.9,20 41.2,11.9 L41,11.8 C40.9,11.7 40.8,11.7 40.7,11.7 C40.6,11.7 40.5,11.8 40.4,11.8 L40.2,12 C31.5,20.1 21.7,13.5 19.6,11.9 C19.5,11.8 19.4,11.7 19.2,11.7 C19,11.7 18.9,11.8 18.8,11.9 C11.7,18.7 3.8,15.6 1.3,14.4 L1.1,14.3 L1,14.3 C0.7,14.3 0.5,14.5 0.5,14.8 C0.5,14.8 0.5,14.8 0.5,14.8 L0.5,18.2 C0.5,18.3 0.5,18.4 0.6,18.5 C8.8,25.7 16.7,19 18.5,17.2 C18.6,17.1 18.6,17.1 18.7,17 C18.8,16.9 18.8,16.9 18.9,16.9 C19,16.9 19.2,17 19.3,17.1 C28.6,26 38.4,18.8 40.4,17.1 L40.6,16.9 C40.7,16.9 40.7,16.8 40.8,16.8 C40.9,16.8 40.9,16.8 41,16.9 L41,17 C43,18.7 52.8,25.9 62.1,17 L62.1,17 C62.2,16.9 62.3,16.9 62.4,16.9 C62.5,16.9 62.6,16.9 62.7,17 C62.8,17 62.8,17.1 62.8,17.1 C64.6,18.9 72.4,25.6 80.7,18.4 C80.8,18.3 80.9,18.2 80.9,18.1 L80.9,14.7 C80.8,14.4 80.6,14.2 80.4,14.2" id="Path"></path>
                <path d="M80.4,3 L80.4,3 L80.1,3.1 C77.6,4.4 69.7,7.4 62.6,0.6 C62.5,0.5 62.3,0.4 62.2,0.4 C62,0.4 61.9,0.5 61.8,0.6 C59.7,2.2 49.9,8.8 41.2,0.7 L41,0.6 C40.9,0.5 40.8,0.5 40.7,0.5 C40.6,0.5 40.5,0.6 40.4,0.6 L40.3,0.7 C31.6,8.8 21.8,2.2 19.7,0.6 C19.6,0.5 19.5,0.4 19.3,0.4 C19.1,0.4 19,0.5 18.9,0.6 C11.8,7.4 3.9,4.3 1.4,3.1 L1,3 L0.9,3 C0.6,3 0.4,3.2 0.4,3.5 C0.4,3.5 0.4,3.5 0.4,3.5 L0.4,6.9 C0.4,7 0.4,7.2 0.5,7.2 C8.7,14.4 16.6,7.7 18.4,5.9 C18.5,5.8 18.5,5.8 18.6,5.7 C18.7,5.7 18.7,5.6 18.8,5.6 C18.9,5.6 19.1,5.7 19.2,5.8 C28.5,14.7 38.3,7.5 40.3,5.8 L40.5,5.6 C40.6,5.6 40.6,5.5 40.7,5.5 C40.8,5.5 40.8,5.5 40.9,5.6 L41.1,5.8 C43.1,7.5 52.9,14.7 62.2,5.8 L62.2,5.8 C62.3,5.7 62.4,5.7 62.5,5.7 C62.6,5.7 62.7,5.7 62.8,5.8 C62.9,5.8 62.9,5.9 62.9,5.9 C64.7,7.7 72.5,14.4 80.8,7.2 C80.9,7.1 80.9,7 81,6.9 L81,3.5 C80.9,3.2 80.7,3 80.4,3 C80.4,3 80.4,3 80.4,3" id="Path"></path>
            </g>
        </g>
    </g>
</svg>