<?xml version="1.0" encoding="UTF-8"?>
<svg width="95px" height="95px" viewBox="0 0 95 95" version="1.1" xmlns="http://www.w3.org/2000/svg" xmlns:xlink="http://www.w3.org/1999/xlink">
    <!-- Generator: Sketch 53.2 (72643) - https://sketchapp.com -->
    <title>goal_5_target_5_1</title>
    <desc>Created with Sketch.</desc>
    <g id="goal_5_target_5_1" stroke="none" stroke-width="1" fill="none" fill-rule="evenodd">
        <g id="Group-29" fill-rule="nonzero">
            <rect id="Rectangle" fill="#FF3A21" x="-3.62376795e-13" y="-2.13162821e-14" width="94.8" height="94.8"></rect>
            <g id="Group" transform="translate(7.700000, 22.000000)" fill="#FFFFFF">
                <path d="M38.1,10.1 L38.1,10.1 C40.4,10.1 42.2,8.3 42.2,6 C42.2,3.7 40.4,1.9 38.1,1.9 L38.1,1.9 L38.1,1.9 C35.8,1.9 34,3.7 34,6 C34,8.2 35.9,10.1 38.1,10.1 Z" id="Path"></path>
                <path d="M65,12.4 C67.3,12.4 69.1,10.6 69.1,8.3 C69.1,6.7 68.2,5.3 66.8,4.6 C66.9,4.4 67,4.2 67,4 C66.7,2.9 65.6,2.2 64.5,2.4 C63.7,2.6 63.1,3.2 62.9,4 C62.9,4.3 63,4.5 63.1,4.7 C61.1,5.8 60.4,8.2 61.5,10.2 C62.2,11.5 63.6,12.4 65.1,12.3 L65,12.4 Z" id="Path"></path>
                <path d="M75.1,29.6 C75.1,29.5 75.1,29.5 75,29.4 C76.2,28.7 75.7,27.2 75.7,27.2 L75.1,25.5 L72.4,16.8 C72.4,16.8 71.3,13.7 68.7,13.7 L62.7,13.6 C61.8,13.6 60.9,13.3 60.3,12.7 L52.8,1.5 L52.7,1.4 C52.5,1 52.1,0.7 51.7,0.6 C51.5,0.6 51.3,0.5 51.1,0.6 C50.8,0.6 50.5,0.6 49.7,1.5 L42.5,10.6 C41.7,11.3 40.7,11.6 39.7,11.6 L36.3,11.6 C35.3,11.6 34.3,11.3 33.5,10.6 L26.3,1.5 C25.5,0.6 25.3,0.6 24.9,0.6 C24.7,0.6 24.5,0.6 24.3,0.6 C23.8,0.7 23.5,1.1 23.3,1.5 L23.3,1.5 L16,12.7 C15.3,13.3 14.5,13.6 13.6,13.6 L7.6,13.7 C5.1,13.7 3.9,16.8 3.9,16.8 L0.7,27.2 C0.7,27.2 0.1,29.1 1.7,29.6 C3.3,30.1 3.8,28.2 3.8,28.2 L6.4,19.5 C6.4,19.5 6.5,18.8 7,19 C7.5,19.2 7.3,19.9 7.3,19.9 L2.8,36.2 L7,36.2 L7,47.9 C7,49 7.9,49.9 9,49.9 C10.1,49.9 11,49 11,47.9 L11,36.1 L12.5,36.1 L12.5,47.8 C12.5,48.9 13.4,49.8 14.5,49.8 C15.6,49.8 16.5,48.9 16.5,47.8 L16.5,36.1 L20.7,36.1 L16.7,21.3 C16.5,20.4 16.7,19.4 17.1,18.6 L19.7,13.8 L24.4,5.9 C24.4,5.9 24.8,5.3 25.2,4.7 L29.9,11.7 L32.7,16.8 C33.2,17.7 33.3,18.7 33.1,19.7 L28.8,35.3 L33.2,35.3 L33.2,47.7 C33.3,48.9 34.3,49.8 35.5,49.7 C36.6,49.6 37.4,48.8 37.5,47.7 L37.5,35.3 L38.7,35.3 L38.7,47.7 C38.8,48.9 39.8,49.8 41,49.7 C42.1,49.6 42.9,48.8 43,47.7 L43,35.3 L47.5,35.3 L43.2,19.7 C43,18.7 43.2,17.7 43.6,16.8 L46.4,11.7 L51.1,4.6 C51.5,5.3 51.9,5.9 51.9,5.9 L56.6,13.8 L59.2,18.6 C59.6,19.4 59.8,20.4 59.6,21.3 L55.5,36.1 L59.7,36.1 L59.7,47.8 C59.7,48.9 60.6,49.8 61.7,49.8 C62.8,49.8 63.7,48.9 63.7,47.8 L63.7,36.1 L65.1,36.1 L65.1,47.8 C65.1,48.9 66,49.8 67.1,49.8 C68.2,49.8 69.1,48.9 69.1,47.8 L69.1,36.1 L73.3,36.1 L69,19.8 C69,19.8 68.8,19.1 69.3,18.9 C69.8,18.7 69.9,19.4 69.9,19.4 L71.9,26.3 L72.4,28 C72.4,28 72.7,29.3 73.8,29.5 C73.8,29.6 73.8,29.6 73.8,29.7 L77.5,49.2 C77.6,49.5 77.8,49.7 78.1,49.7 L78.2,49.7 C78.5,49.6 78.7,49.3 78.7,49 L75.1,29.6 Z" id="Path"></path>
                <g transform="translate(5.000000, 4.000000)" id="Path">
                    <path d="M3.5,1.3 C3.4,0.8 2.9,0.2 1.8,0.7 C0.4,1.3 0.6,3.3 0.6,3.3 C0.6,3.5 0.6,3.6 0.7,3.5 C0.8,3.2 1.1,2.7 2.2,2.5 C2.4,2.5 2.6,2.4 2.8,2.3 C3,2 3.2,1.6 3.5,1.4 C3.5,1.4 3.5,1.3 3.5,1.3 Z"></path>
                    <path d="M11.5,0.7 C10.4,0.2 9.9,0.8 9.8,1.3 C9.8,1.4 9.8,1.5 9.8,1.6 C10,1.9 10.2,2.1 10.4,2.5 C10.6,2.6 10.8,2.7 11,2.7 C12.1,2.9 12.4,3.4 12.5,3.7 C12.5,3.8 12.6,3.7 12.6,3.5 C12.8,3.3 12.9,1.4 11.5,0.7 Z"></path>
                    <path d="M6.7,0.8 C4.6,0.8 3,2.5 3,4.5 C3,6.5 4.7,8.2 6.7,8.2 C8.7,8.2 10.4,6.5 10.4,4.5 C10.4,4.5 10.4,4.5 10.4,4.5 C10.4,2.5 8.8,0.8 6.7,0.8 C6.7,0.8 6.7,0.8 6.7,0.8 Z"></path>
                </g>
            </g>
        </g>
    </g>
</svg>