<?xml version="1.0" encoding="UTF-8"?>
<svg width="95px" height="95px" viewBox="0 0 95 95" version="1.1" xmlns="http://www.w3.org/2000/svg" xmlns:xlink="http://www.w3.org/1999/xlink">
    <!-- Generator: Sketch 53.2 (72643) - https://sketchapp.com -->
    <title>goal_15_target_15_2</title>
    <desc>Created with Sketch.</desc>
    <g id="goal_15_target_15_2" stroke="none" stroke-width="1" fill="none" fill-rule="evenodd">
        <g id="Group-121" fill-rule="nonzero">
            <rect id="Rectangle" fill="#56C02B" x="-3.62376795e-13" y="-2.13162821e-14" width="94.8" height="94.8"></rect>
            <g id="Group" transform="translate(7.700000, 10.000000)" fill="#FFFFFF">
                <g transform="translate(4.000000, 0.000000)" id="Path">
                    <path d="M71.7,57.4 L62,26.4 L61.9,26.2 C61.7,26 61.4,25.9 61.2,26.1 C61.1,26.2 61.1,26.2 61,26.3 L60.9,26.4 L51.4,57.4 C51.4,57.5 51.4,57.5 51.4,57.6 C51.4,57.9 51.6,58.1 51.9,58.1 L59.7,58.1 L59.7,65.3 C59.7,65.4 59.8,65.5 59.9,65.5 L63.2,65.5 C63.3,65.5 63.4,65.4 63.4,65.3 L63.4,58.1 L71.2,58.1 C71.5,58.1 71.7,57.9 71.7,57.6 C71.8,57.6 71.7,57.5 71.7,57.4 Z"></path>
                    <path d="M42.3,58.4 C45.7,58.4 48.4,55.7 48.4,52.3 C48.4,50.7 47.8,49.2 46.7,48.1 C49.4,46.5 50.4,43 48.8,40.3 C47.8,38.5 45.9,37.4 43.8,37.4 L43.4,37.4 C43,33.1 39.3,30 35,30.4 C31,30.8 28,34.1 27.9,38.1 C27.9,39.3 28.2,40.4 28.7,41.5 C24,42.5 21.1,47.2 22.1,51.8 C23,55.7 26.5,58.6 30.5,58.6 L33.1,58.6 L33.1,65.6 C33.1,65.7 33.2,65.8 33.3,65.8 L36.5,65.8 C36.6,65.8 36.7,65.7 36.7,65.6 L36.7,58.5 L42.3,58.4 Z"></path>
                    <path d="M43.9,25.2 C40.9,25.2 38.5,22.8 38.5,19.8 C38.5,18.4 39,17.1 40,16.1 C37.6,14.8 36.7,11.8 38,9.3 C38.9,7.6 40.6,6.6 42.5,6.7 L42.8,6.7 C43.1,2.9 46.3,0.1 50.1,0.4 C53.9,0.7 56.7,3.9 56.4,7.7 C56.3,8.6 56.1,9.4 55.7,10.2 C59.8,11.2 62.3,15.3 61.3,19.4 C60.5,22.7 57.5,25.1 54.1,25.2 L51.8,25.2 L51.8,31.4 C51.8,31.5 51.7,31.6 51.6,31.6 L48.8,31.6 C48.7,31.6 48.6,31.5 48.6,31.4 L48.6,25.2 L43.9,25.2 Z"></path>
                    <path d="M19.3,25.1 L19.3,31.4 C19.3,31.5 19.4,31.6 19.5,31.6 L22.3,31.6 C22.4,31.6 22.5,31.5 22.5,31.4 L22.5,25 C27,24.1 30.2,20 30,15.5 C30,10 25.9,0.9 20.8,0.5 L20.8,0.5 L20.4,0.5 L20.4,0.5 C16.5,0.5 13.2,5.8 11.8,10.8 C11.3,12.3 11.1,13.9 11.1,15.5 C11,20.3 14.5,24.4 19.3,25.1 Z"></path>
                    <path d="M20.3,57.4 L10.7,26.4 L10.6,26.2 C10.5,26 10.3,26 10.2,26 C10,26 9.8,26.1 9.7,26.3 L9.6,26.4 L0.1,57.4 C0.1,57.5 0.1,57.5 0.1,57.6 C0.1,57.9 0.3,58.1 0.6,58.1 L8.4,58.1 L8.4,65.3 C8.4,65.4 8.5,65.5 8.6,65.5 C8.6,65.5 8.6,65.5 8.6,65.5 L11.9,65.5 C12,65.5 12.1,65.4 12.1,65.3 L12.1,58.1 L19.9,58.1 C20.2,58.1 20.4,57.9 20.4,57.6 C20.4,57.6 20.4,57.5 20.3,57.4 Z"></path>
                </g>
                <path d="M0.8,71.8 L79.2,71.8 C79.5,71.8 79.8,72.1 79.8,72.4 L79.8,76 C79.8,76.3 79.5,76.6 79.2,76.6 L0.8,76.6 C0.5,76.6 0.2,76.3 0.2,76 L0.2,72.4 C0.2,72.1 0.5,71.8 0.8,71.8 Z" id="Path"></path>
            </g>
        </g>
    </g>
</svg>