<?xml version="1.0" encoding="UTF-8"?>
<svg width="95px" height="95px" viewBox="0 0 95 95" version="1.1" xmlns="http://www.w3.org/2000/svg" xmlns:xlink="http://www.w3.org/1999/xlink">
    <!-- Generator: Sketch 53.2 (72643) - https://sketchapp.com -->
    <title>goal_17_target_17_6</title>
    <desc>Created with Sketch.</desc>
    <g id="goal_17_target_17_6" stroke="none" stroke-width="1" fill="none" fill-rule="evenodd">
        <g id="Group-148" fill-rule="nonzero">
            <rect id="Rectangle" fill="#19486A" x="1.45661261e-12" y="7.10542736e-15" width="94.8" height="94.8"></rect>
            <g id="Group" transform="translate(8.700000, 11.000000)" fill="#FFFFFF">
                <path d="M47.5,20.1 C47.5,18.6 47.2,17.1 46.5,15.8 L54.5,11 C56.6,13.9 60.7,14.6 63.6,12.5 C66.5,10.4 67.2,6.3 65.1,3.4 C63,0.5 58.9,-0.2 56,1.9 C54.3,3.1 53.3,5.1 53.3,7.2 C53.3,8 53.5,8.8 53.8,9.6 L45.8,14.4 C42.6,9.9 36.4,8.8 31.9,12 C30.9,12.7 30.1,13.5 29.4,14.5 L21.2,9.5 C21.5,8.8 21.6,8 21.6,7.2 C21.6,3.6 18.7,0.6 15,0.6 C11.3,0.6 8.4,3.5 8.4,7.2 C8.4,10.8 11.3,13.8 15,13.8 C17.1,13.8 19.1,12.8 20.4,11.1 L28.6,16 C26.3,21 28.4,26.9 33.4,29.2 C34.5,29.7 35.6,30 36.8,30.1 L36.8,39.5 C33.2,40 30.7,43.2 31.1,46.8 C31.6,50.4 34.8,52.9 38.4,52.5 C42,52.1 44.5,48.8 44.1,45.2 C43.7,42.2 41.4,39.9 38.4,39.5 L38.4,30 C43.5,29.5 47.5,25.3 47.5,20.1 Z M59.8,2.3 C62.5,2.3 64.7,4.5 64.7,7.2 C64.7,9.9 62.5,12.1 59.8,12.1 C57.1,12.1 54.9,9.9 54.9,7.2 C54.9,7.2 54.9,7.2 54.9,7.2 C55,4.5 57.1,2.3 59.8,2.3 Z M15.1,12.1 C12.4,12.1 10.2,9.9 10.2,7.2 C10.2,4.5 12.4,2.3 15.1,2.3 C17.8,2.3 20,4.5 20,7.2 C20,9.9 17.8,12.1 15.1,12.1 C15.1,12.1 15.1,12.1 15.1,12.1 Z M29.2,20.1 C29.2,15.5 33,11.7 37.6,11.7 C42.2,11.7 46,15.5 46,20.1 C46,24.7 42.2,28.5 37.6,28.5 C37.6,28.5 37.6,28.5 37.6,28.5 C33,28.5 29.2,24.8 29.2,20.1 L29.2,20.1 Z M42.5,46 C42.5,48.7 40.3,50.9 37.6,50.9 C34.9,50.9 32.7,48.7 32.7,46 C32.7,43.3 34.9,41.1 37.6,41.1 C40.3,41.1 42.5,43.3 42.5,46 L42.5,46 Z" id="Shape"></path>
                <path d="M19.1,47.9 C19.1,44.8 16.6,42.2 13.4,42.2 C10.3,42.2 7.7,44.7 7.7,47.9 C7.7,51.1 10.2,53.6 13.4,53.6 C13.4,53.6 13.4,53.6 13.4,53.6 C16.6,53.6 19.1,51.1 19.1,47.9 C19.2,47.9 19.2,47.9 19.1,47.9 Z" id="Path"></path>
                <path d="M20.1,54.9 C20,54.9 19.8,54.9 19.7,54.9 L17,54.9 L13.4,63.2 L10,54.8 L7.3,54.8 C7.2,54.8 7,54.8 6.9,54.8 C3,55.2 0,58.4 0,62.3 L0,72.2 L4.4,72.2 L4.4,64.5 C4.4,64 4.5,63.3 5.5,63.3 C6.1,63.3 6.3,64 6.3,64.4 L6.3,72.2 L20.7,72.2 L20.7,64.4 C20.7,64 20.9,63.3 21.5,63.3 C22.4,63.3 22.6,64 22.6,64.5 L22.6,72.2 L27,72.2 L27,62.3 C27,58.5 24,55.2 20.1,54.9 Z M13.6,69.5 C13.2,69.5 12.8,69.1 12.8,68.7 C12.8,68.3 13.2,67.9 13.6,67.9 C14,67.9 14.4,68.3 14.4,68.7 C14.4,69.1 14,69.5 13.6,69.5 C13.6,69.5 13.6,69.5 13.6,69.5 Z" id="Shape"></path>
                <path d="M61.6,42.3 C58.4,42.3 55.7,44.9 55.7,48.2 C55.7,51.5 58.3,54.1 61.6,54.1 C64.8,54.1 67.5,51.5 67.5,48.2 L67.5,48.2 C67.5,44.9 64.9,42.3 61.6,42.3 C61.6,42.3 61.6,42.3 61.6,42.3 Z" id="Path"></path>
                <path d="M68.7,63 C69.5,62.8 69.7,63.8 69.7,63.8 L72.2,72.3 L77.4,72.3 L73.5,59.7 C73.5,59.7 71.7,55.1 67.9,55.1 L65,55.1 L61.4,63.4 L58,55.1 L55.4,55.1 C51.5,55.1 49.8,59.7 49.8,59.7 L46,72.3 L51.2,72.3 L53.7,63.8 C53.7,63.8 53.9,62.8 54.7,63 C55.5,63.2 55.2,64.3 55.2,64.3 L53,72.2 L70.4,72.2 L68.2,64.3 C68.2,64.3 68,63.2 68.7,63 Z M61.6,70 C61.2,70 60.8,69.6 60.8,69.2 C60.8,68.8 61.2,68.4 61.6,68.4 C62,68.4 62.4,68.8 62.4,69.2 C62.4,69.6 62.1,70 61.6,70 C61.6,70 61.6,70 61.6,70 Z" id="Shape"></path>
            </g>
        </g>
    </g>
</svg>