<?xml version="1.0" encoding="UTF-8"?>
<svg width="95px" height="95px" viewBox="0 0 95 95" version="1.1" xmlns="http://www.w3.org/2000/svg" xmlns:xlink="http://www.w3.org/1999/xlink">
    <!-- Generator: Sketch 53.2 (72643) - https://sketchapp.com -->
    <title>goal_17_target_17_15</title>
    <desc>Created with Sketch.</desc>
    <g id="goal_17_target_17_15" stroke="none" stroke-width="1" fill="none" fill-rule="evenodd">
        <g id="Group-157" fill-rule="nonzero">
            <rect id="Rectangle" fill="#19486A" x="1.45661261e-12" y="-2.13162821e-14" width="94.8" height="94.8"></rect>
            <g id="Group" transform="translate(27.700000, 13.000000)" fill="#FFFFFF">
                <path d="M19.6,12.6 C22.8,12.6 25.5,10 25.5,6.7 C25.5,3.5 22.9,0.8 19.6,0.8 C16.4,0.8 13.7,3.4 13.7,6.7 C13.7,6.7 13.7,6.7 13.7,6.7 C13.7,9.9 16.3,12.6 19.6,12.6 C19.6,12.6 19.6,12.6 19.6,12.6 Z" id="Path"></path>
                <path d="M26.4,14.8 C26.3,14.8 26.1,14.8 26,14.8 L13.2,14.8 C13,14.8 12.9,14.8 12.8,14.8 C9.2,15.1 6.3,17.9 5.8,21.4 L33.5,21.4 C32.9,17.9 30,15.2 26.4,14.8 Z" id="Path"></path>
                <path d="M34.3,24.2 L0.2,24.2 L0.2,27.7 L3,27.7 L3,68 L36.5,68 L36.5,27.7 L39.3,27.7 L39.3,24.2 L34.3,24.2 Z M32,43.9 L26.7,44.4 C26.6,43.8 26.5,43.3 26.2,42.7 L31,40.3 C31.5,41.5 31.8,42.7 32,43.9 Z M30.6,39.7 L25.8,42.1 C25.5,41.6 25.1,41.1 24.7,40.7 L28.3,36.8 C29.3,37.6 30,38.6 30.6,39.7 Z M27.8,36.2 L24.2,40.1 C23.7,39.7 23.2,39.4 22.7,39.2 L24.6,34.2 C25.8,34.7 26.9,35.4 27.8,36.2 Z M20.3,33.2 C21.5,33.2 22.7,33.5 23.9,33.9 L22,38.9 C21.4,38.7 20.9,38.6 20.3,38.6 L20.3,33.2 Z M19.6,33.2 L19.6,38.5 C19,38.5 18.4,38.6 17.9,38.8 L16,33.8 C17.1,33.5 18.3,33.3 19.6,33.2 L19.6,33.2 Z M15.2,34.2 L17.1,39.2 C16.6,39.4 16.1,39.7 15.6,40.1 L12,36.1 C13,35.3 14,34.7 15.2,34.2 L15.2,34.2 Z M11.5,36.6 L15.1,40.5 C14.6,41 14.3,41.5 14,42 L9.2,39.6 C9.8,38.5 10.6,37.5 11.5,36.6 L11.5,36.6 Z M8.9,40.2 L13.7,42.6 C13.5,43.1 13.3,43.7 13.2,44.3 L7.9,43.8 C8,42.6 8.3,41.4 8.9,40.2 L8.9,40.2 Z M7.7,45.4 C7.7,45.1 7.7,44.9 7.7,44.6 L13,45.1 C13,45.2 13,45.3 13,45.4 C13,45.9 13.1,46.4 13.2,46.9 L8.1,48.4 C7.8,47.4 7.7,46.4 7.7,45.4 Z M8.3,49.1 L13.4,47.6 C13.6,48.2 13.9,48.7 14.2,49.2 L10,52.5 C9.3,51.5 8.7,50.4 8.3,49.1 Z M10.4,53.1 L14.6,49.9 C15,50.4 15.4,50.8 15.9,51.1 L13.1,55.6 C12.2,54.9 11.2,54.1 10.4,53.1 L10.4,53.1 Z M13.8,56 L16.6,51.5 C17.1,51.8 17.7,52 18.3,52.1 L17.3,57.3 C16.1,57.1 14.9,56.6 13.8,56 Z M19.8,57.6 C19.2,57.6 18.6,57.6 18,57.5 L19,52.3 C19.3,52.3 19.5,52.3 19.8,52.3 C20.1,52.3 20.5,52.3 20.8,52.2 L21.8,57.4 C21.2,57.5 20.5,57.6 19.8,57.6 L19.8,57.6 Z M22.6,57.3 L21.6,52.1 C22.2,52 22.7,51.7 23.2,51.4 L26,56 C25,56.6 23.8,57.1 22.6,57.3 L22.6,57.3 Z M26.7,55.5 L23.9,51 C24.4,50.7 24.8,50.2 25.2,49.8 L29.4,53 C28.7,54 27.7,54.8 26.7,55.5 L26.7,55.5 Z M29.9,52.3 L25.7,49.1 C26,48.6 26.3,48.1 26.5,47.6 L31.6,49.1 C31.1,50.3 30.6,51.4 29.9,52.3 L29.9,52.3 Z M31.7,48.3 L26.6,46.9 C26.7,46.4 26.8,45.9 26.8,45.4 C26.8,45.3 26.8,45.2 26.8,45.2 L32.1,44.7 C32.1,44.9 32.1,45.2 32.1,45.4 C32.1,46.4 32,47.4 31.7,48.3 L31.7,48.3 Z" id="Shape"></path>
            </g>
        </g>
    </g>
</svg>