<?xml version="1.0" encoding="UTF-8"?>
<svg width="95px" height="95px" viewBox="0 0 95 95" version="1.1" xmlns="http://www.w3.org/2000/svg" xmlns:xlink="http://www.w3.org/1999/xlink">
    <!-- Generator: Sketch 53.2 (72643) - https://sketchapp.com -->
    <title>goal_15_target_15_6</title>
    <desc>Created with Sketch.</desc>
    <g id="goal_15_target_15_6" stroke="none" stroke-width="1" fill="none" fill-rule="evenodd">
        <g id="Group-125" fill-rule="nonzero">
            <rect id="Rectangle" fill="#56C02B" x="-3.62376795e-13" y="-2.13162821e-14" width="94.8" height="94.8"></rect>
            <g id="Group" transform="translate(16.700000, 7.000000)" fill="#FFFFFF">
                <path d="M33.3,61.6 C32.6,62.4 31.9,63.1 31.1,63.8 C32,64.7 33,65.7 34,66.9 L34,66.9 L28.1,66.9 C27.7,67.3 27.4,67.7 27,68.2 C26.8,68.4 26.7,68.6 26.5,68.8 L35.3,68.8 C35.8,69.8 36.3,70.8 36.7,71.8 L24.9,71.8 C24.6,72.4 24.4,73 24.2,73.7 L37.3,73.7 C37.6,74.7 37.8,75.7 38,76.7 L23.5,76.7 C23.4,77.4 23.3,78 23.2,78.6 L38.3,78.6 C38.4,79.7 38.5,80.4 38.5,80.4 L40.8,80.3 C40.8,79.9 40.5,70 35.5,64 C34.6,63 34,62.3 33.3,61.6 Z" id="Path"></path>
                <path d="M24.7,56.2 C25.4,57.4 26.2,58.6 27.2,59.7 C27.8,59.1 28.3,58.5 28.9,58 L29.4,57.5 C28.3,56.4 27.3,55.1 26.5,53.7 L32.8,53.7 C33.2,53.1 33.6,52.5 33.9,51.8 L25.6,51.8 L25.5,51.7 C25.1,50.7 24.8,49.8 24.5,48.9 L35,48.9 C35.2,48.3 35.4,47.6 35.6,47 L23.8,47 C23.5,46 23.3,45 23.1,44 L36.2,44 C36.3,43.4 36.4,42.7 36.5,42.1 L22.9,42.1 C22.9,41.5 22.8,40.9 22.8,40.4 C22.8,39.9 22.8,39.2 22.9,38.6 L36.5,38.6 C36.4,38 36.3,37.4 36.2,36.7 L23.2,36.7 C23.4,35.7 23.6,34.7 23.9,33.7 L35.7,33.7 C35.5,33.1 35.3,32.5 35.1,31.8 L24.4,31.8 C24.7,30.9 25,30 25.4,29 L25.5,28.9 L33.8,28.9 C33.5,28.2 33.1,27.6 32.7,27 L26.5,27 C27.3,25.6 28.3,24.3 29.4,23.2 L28.9,22.7 C28.4,22.2 27.8,21.6 27.2,21 C25.7,22.7 24.4,24.7 23.5,26.9 C21.7,31 20.7,35.4 20.5,39.9 L20.5,39.9 C20.5,40 20.5,40.1 20.5,40.3 C20.5,40.5 20.5,40.5 20.5,40.7 L20.5,40.7 C20.6,44 21.2,47.3 22.3,50.5 C19.7,46.9 17.4,43.1 15.5,39.1 L14.4,39.5 C17.8,47.8 24.7,56.3 24.7,56.2 L24.7,56.2 Z" id="Path"></path>
                <path d="M38,4.3 C37.8,5.3 37.6,6.3 37.3,7.3 L24.2,7.3 C24.4,7.9 24.6,8.6 24.9,9.2 L36.7,9.2 C36.3,10.2 35.9,11.2 35.3,12.2 L26.5,12.2 C26.7,12.4 26.8,12.6 27,12.8 C27.4,13.3 27.7,13.7 28.1,14.1 L34,14.1 L34,14.1 C33,15.3 32,16.3 31.1,17.2 C31.9,18 32.6,18.7 33.3,19.4 C34,18.7 34.6,18 35.3,17.2 C40.4,11.3 40.6,1.3 40.6,0.9 L38.3,0.8 C38.3,0.8 38.3,1.5 38.1,2.6 L23.1,2.6 C23.2,3.1 23.3,3.8 23.4,4.5 L38,4.3 Z" id="Path"></path>
                <path d="M47.8,41 C44.3,41.4 41.4,44.1 40.8,47.6 C40.8,48.1 40.8,48.6 40.9,49 C40.9,49 46.3,45.5 57.1,46.6 C57.1,46.6 45.8,46.3 38.9,51.5 C38.3,51.9 37.8,52.4 37.3,52.9 C38.8,49.1 39.7,45 39.9,40.9 L39.9,40.9 C39.8,36.2 38.8,31.5 36.9,27.2 C35.2,23.1 33,20.9 30.4,18.4 C29.1,17.1 27.8,15.8 26.4,14.1 C22.3,9.2 22,0.7 22,0.6 L19.7,0.7 C19.7,1.1 20,11 25.1,17 C26.6,18.8 28,20.2 29.3,21.4 C31.7,23.8 33.7,25.7 35,29.1 C36.6,32.8 37.5,36.7 37.6,40.7 L37.6,40.7 C37.4,44.5 36.5,48.2 35,51.6 C33.6,55 31.7,56.9 29.3,59.3 C28,60.5 26.6,61.9 25.1,63.7 C20,69.6 19.8,79.6 19.7,80 L22,80.1 C22,80 22.3,71.6 26.4,66.7 C27.9,65 29.2,63.7 30.4,62.4 C32.2,60.7 33.9,58.8 35.3,56.8 L35.3,56.8 C36.1,55.7 37,54.7 38,53.9 C39.4,52.7 40.9,51.8 42.6,51.2 C44.5,52.9 47.9,55.2 51.3,54.4 C55.8,53.2 57.6,47.5 63.7,46.7 C65.2,46.7 55,39.8 47.8,41 Z" id="Path"></path>
                <path d="M12,23.8 C11.3,21.8 8.1,20.1 8.1,20.1 C8.1,20.1 6.5,23.5 7.2,25.4 C7.7,27 9.9,27.4 10.6,27.5 C10.5,27.6 12.6,25.5 12,23.8 Z" id="Path"></path>
                <path d="M7.6,31.8 C7.6,31.8 8.5,32.4 11.5,31.9 C11.5,31.9 10.9,29 9.4,28.2 C9.4,28.2 8.6,27.5 4.2,26.7 C4.2,26.7 5.3,31.1 7.6,31.8 Z" id="Path"></path>
                <path d="M11.2,33.8 C11.2,33.8 10.3,33.1 5.6,32.1 C5.6,32.1 6.7,36.9 9.2,37.7 C9.2,37.7 10.2,38.3 13.4,37.8 C13.5,37.7 12.8,34.6 11.2,33.8 Z" id="Path"></path>
                <path d="M12.4,31.5 C15.1,30.1 15.5,29.1 15.5,29.1 C16.9,27.2 15,23 15,23 C12.1,26.3 11.8,27.3 11.8,27.3 C11.2,28.9 12.4,31.5 12.4,31.5 Z" id="Path"></path>
                <path d="M17.7,34.8 C19.2,32.7 17.2,28.2 17.2,28.2 C14,31.8 13.8,32.9 13.8,32.9 C13.1,34.5 14.4,37.4 14.4,37.4 C17.3,35.9 17.7,34.8 17.7,34.8 Z" id="Path"></path>
                <path d="M1.9,16.4 C1.8,16.1 1.5,16 1.3,16.1 C1,16.2 0.9,16.5 1,16.7 C1,16.7 1,16.7 1,16.7 L4.1,25.8 L5.2,26 L1.9,16.4 Z" id="Path"></path>
                <path d="M6,25.4 L6,25.4 C6,24.5 6,23.7 6.1,22.8 L3.2,14.3 C3.1,14 2.8,13.9 2.6,14 C2.3,14.1 2.2,14.4 2.3,14.6 L6,25.4 Z" id="Path"></path>
                <path d="M6.7,21 C6.9,20.4 7.1,19.9 7.2,19.5 L4.4,11.4 C4.3,11.1 4.1,11 3.8,11.1 C3.8,11.1 3.8,11.1 3.8,11.1 C3.6,11.2 3.4,11.5 3.5,11.7 L6.7,21 Z" id="Path"></path>
                <path d="M14,23.1 L14.7,22.3 L11.6,13.2 C11.5,12.9 11.2,12.8 11,12.9 C10.8,13 10.6,13.3 10.7,13.5 L10.7,13.5 L14,23.1 Z" id="Path"></path>
                <path d="M11.2,21.1 C11.8,21.7 12.4,22.3 12.9,23 L12.9,23 L9.3,12.2 C9.2,12 9,11.8 8.7,11.9 C8.7,11.9 8.7,11.9 8.7,11.9 C8.4,12 8.3,12.3 8.4,12.5 C8.4,12.5 8.4,12.5 8.4,12.5 L11.2,21.1 Z" id="Path"></path>
                <path d="M8.4,19.1 L9.7,20 L6.5,10.6 C6.4,10.3 6.1,10.2 5.9,10.3 C5.7,10.4 5.5,10.7 5.6,10.9 L8.4,19.1 Z" id="Path"></path>
            </g>
        </g>
    </g>
</svg>