<?xml version="1.0" encoding="UTF-8"?>
<svg width="95px" height="95px" viewBox="0 0 95 95" version="1.1" xmlns="http://www.w3.org/2000/svg" xmlns:xlink="http://www.w3.org/1999/xlink">
    <!-- Generator: Sketch 53.2 (72643) - https://sketchapp.com -->
    <title>goal_11_target_11_b</title>
    <desc>Created with Sketch.</desc>
    <g id="goal_11_target_11_b" stroke="none" stroke-width="1" fill="none" fill-rule="evenodd">
        <g id="Group-91" fill-rule="nonzero">
            <rect id="Rectangle" fill="#FD9D24" x="-3.62376795e-13" y="-2.13162821e-14" width="94.8" height="94.8"></rect>
            <g id="Group" transform="translate(6.700000, 7.000000)" fill="#FFFFFF">
                <g transform="translate(29.000000, 24.000000)">
                    <polygon id="Path" points="1.6 3.6 0.1 3.6 0.1 31.9 20.4 31.9 20.4 30.2 1.6 30.2"></polygon>
                    <path d="M3.2,0.2 L3.2,28.5 L23.4,28.5 L23.4,0.2 L3.2,0.2 Z M21,23.5 C21,23.6 20.9,23.6 20.8,23.6 L5.8,23.6 C5.7,23.6 5.6,23.6 5.6,23.5 L5.6,21.1 C5.6,21 5.7,21 5.8,21 L20.8,21 C20.9,21 21,21 21,21.1 L21,23.5 Z M21,19.4 C21,19.4 20.9,19.5 20.8,19.5 L5.8,19.5 C5.7,19.5 5.6,19.5 5.6,19.4 L5.6,17 C5.6,17 5.7,16.9 5.8,16.9 L20.8,16.9 C20.9,16.9 21,17 21,17 L21,19.4 Z M21,15.1 C21,15.2 20.9,15.2 20.8,15.2 L5.8,15.2 C5.7,15.2 5.6,15.2 5.6,15.1 L5.6,12.7 C5.6,12.7 5.7,12.6 5.8,12.6 L20.8,12.6 C20.9,12.6 21,12.6 21,12.7 L21,15.1 Z" id="Shape"></path>
                </g>
                <path d="M52.6,2.8 C51.3,1.8 49.6,1.3 48,1.3 C47.6,1.3 47.2,1.3 46.9,1.4 L46.8,1.4 C44.7,1.8 42.9,3 41.7,4.8 L41.6,4.9 C41.6,4.9 41.6,5 41.6,5.1 C41.6,5.1 41.6,5.2 41.6,5.2 L41.6,5.3 C42,5.9 42.3,6.4 42.5,6.8 C42.6,6.9 42.8,7 42.9,6.9 C42.9,6.9 42.9,6.9 43,6.9 L43,6.9 C44.9,4.3 46.3,4 47.3,3.8 L47.4,3.8 C47.6,3.8 47.8,3.8 48,3.8 C49.2,3.8 50.3,4.1 51.2,4.8 C52.3,5.8 52.9,7.3 52.8,8.8 C52.8,11.9 51.3,13.1 50.1,13.5 C49.6,13.7 49.1,13.8 48.6,13.8 C47.8,13.8 47,13.6 46.3,13.3 L46.2,13.3 C45.1,12.8 43.5,11.9 42,8.8 C38.9,2.6 36.3,2 34.6,1.6 L34.5,1.6 C34.1,1.5 33.8,1.5 33.4,1.5 C31.7,1.5 30.1,2 28.8,3 C27.1,4.5 26.2,6.6 26.3,8.8 C26.1,12.5 28.9,15.7 32.6,16 C32.8,16 33,16 33.1,16 C33.6,16 34.2,15.9 34.7,15.8 C35.7,15.6 36.6,15.2 37.4,14.6 L38.3,15.4 C38.4,15.5 38.6,15.5 38.7,15.4 C38.7,15.4 38.8,15.3 38.8,15.2 L39.5,10.9 L39.5,10.9 C39.5,10.8 39.5,10.8 39.4,10.7 C39.3,10.7 39.3,10.6 39.2,10.6 L39.2,10.6 L35,11.6 L35,11.6 C34.9,11.6 34.9,11.6 34.9,11.7 C34.8,11.7 34.8,11.8 34.8,11.9 C34.8,12 34.8,12 34.9,12.1 L35.8,12.9 C35.4,13.2 34.9,13.4 34.4,13.4 C34,13.5 33.7,13.5 33.3,13.5 C31.9,13.5 30.6,12.9 29.7,11.9 L29.7,11.9 C29,11 28.6,9.8 28.7,8.7 C28.6,7.2 29.2,5.7 30.3,4.7 C31.2,4 32.3,3.7 33.4,3.7 C33.6,3.7 33.8,3.7 34,3.7 L34.1,3.7 C35.5,4 37.4,4.4 40,9.7 C41,12.1 42.9,14.1 45.3,15.2 C46.3,15.7 47.5,16 48.6,16 C49.4,16 50.2,15.9 50.9,15.6 C52.2,15.1 55.1,13.5 55.1,8.7 C55.3,6.4 54.4,4.2 52.6,2.8 Z" id="Path"></path>
                <g transform="translate(60.000000, 27.000000)">
                    <g transform="translate(3.000000, 0.000000)" id="Path">
                        <path d="M6.9,16.7 L8.8,16.7 C8.9,16.7 8.9,16.8 8.9,16.8 L8.9,21.4 C8.9,21.5 8.8,21.5 8.8,21.5 L6.9,21.5 C6.8,21.5 6.8,21.4 6.8,21.4 L6.8,16.8 C6.7,16.8 6.8,16.7 6.9,16.7 Z"></path>
                        <path d="M0.2,8 C0.2,6.2 1.7,4.7 3.5,4.7 L3.5,4.7 L3.7,4.7 C3.9,2.2 6.1,0.4 8.6,0.6 C10.9,0.8 12.7,2.7 12.7,5 C12.7,5.7 12.5,6.4 12.3,7 C15.1,7.3 17.1,9.8 16.8,12.6 C16.5,15.4 14,17.4 11.2,17 L4.5,17 L4.5,17 C2.5,17 0.9,15.4 0.9,13.4 C0.9,12.5 1.2,11.6 1.9,11 C0.8,10.4 0.1,9.2 0.2,8 Z"></path>
                    </g>
                    <g transform="translate(0.000000, 20.000000)" id="Oval">
                        <circle cx="1.6" cy="4.4" r="1"></circle>
                        <circle cx="5.2" cy="4.4" r="1"></circle>
                        <circle cx="8.8" cy="4.4" r="1"></circle>
                        <circle cx="12.4" cy="4.4" r="1"></circle>
                        <circle cx="16" cy="4.4" r="1"></circle>
                        <circle cx="19.6" cy="4.4" r="1"></circle>
                        <circle cx="3.4" cy="1.6" r="1"></circle>
                        <circle cx="7" cy="1.6" r="1"></circle>
                        <circle cx="14.2" cy="1.6" r="1"></circle>
                        <circle cx="17.8" cy="1.6" r="1"></circle>
                    </g>
                </g>
                <rect id="Rectangle" transform="translate(69.313015, 11.937415) rotate(-45.291703) translate(-69.313015, -11.937415) " x="54.1129638" y="11.2874128" width="30.4001024" height="1.30000438"></rect>
                <rect id="Rectangle" transform="translate(69.230625, 68.152795) rotate(-44.708297) translate(-69.230625, -68.152795) " x="68.5806228" y="52.9527438" width="1.30000438" height="30.4001024"></rect>
                <rect id="Rectangle" transform="translate(12.136455, 11.932605) rotate(-44.708297) translate(-12.136455, -11.932605) " x="11.4864528" y="-3.26744622" width="1.30000438" height="30.4001024"></rect>
                <rect id="Rectangle" transform="translate(12.206805, 68.126285) rotate(-45.291703) translate(-12.206805, -68.126285) " x="-2.99324622" y="67.4762828" width="30.4001024" height="1.30000438"></rect>
                <g transform="translate(2.000000, 29.000000)" id="Path">
                    <path d="M8.8,5.1 C10.1,5.1 11.2,4.1 11.2,2.8 C11.2,1.5 10.2,0.4 8.9,0.4 C7.6,0.4 6.5,1.4 6.5,2.7 C6.5,2.7 6.5,2.7 6.5,2.7 C6.5,4.1 7.5,5.1 8.8,5.1 Z"></path>
                    <path d="M18.6,19.6 L17.6,17.7 L17.6,17.7 L15.3,13 C15.1,12.6 14.6,12.3 14.2,12.4 L10.9,12.4 L10.8,8.2 C10.8,6.9 10.5,6.2 9.5,5.9 C9,5.8 8.5,5.8 8.1,5.9 L8,5.9 L8,5.9 L4.1,7.2 L4,7.2 L3.9,7.2 L3.9,7.2 C3.7,7.3 3.5,7.5 3.5,7.7 L2.4,10.9 C2.2,11.4 2.5,12 3,12.2 C3.5,12.4 4.1,12.1 4.3,11.6 L5.3,8.9 L6.8,8.4 L6.9,8.4 L6.9,12.8 C6.9,13.8 7.2,14.8 8.2,15.1 L8.5,15.2 C8.7,15.2 8.8,15.2 9,15.2 L14,15.2 L15.3,17.7 L15.3,17.8 L15.8,18.7 L16.3,19.6 L16.3,19.7 L16.3,19.7 L16.8,20.6 C17.1,21.2 17.9,21.4 18.5,21.1 C19.1,20.8 19.3,20 19,19.4 L18.6,19.6 Z"></path>
                    <path d="M13.1,16.6 L11.3,16.6 L11.3,16.8 C11.3,16.8 11.3,16.9 11.3,17 C11.3,19.5 9.3,21.6 6.7,21.6 C4.2,21.6 2.1,19.6 2.1,17 C2.1,16 2.4,14.9 3.1,14.1 L3.2,14 L1.8,12.9 L1.7,13 C-0.5,15.8 3.44169138e-15,19.8 2.8,22 C5.6,24.2 9.6,23.7 11.8,20.9 C12.7,19.8 13.1,18.4 13.2,17 L13.1,16.6 L13.1,16.6 Z"></path>
                </g>
                <g transform="translate(30.000000, 64.000000)" id="Path">
                    <path d="M10.8,0.5 L5.6,4.9 L0.1,4.9 L0.1,10.6 L5.6,10.6 L10.8,15.1 C11.2,15.5 11.7,15.3 11.7,14.9 L11.7,0.7 C11.7,0.3 11.3,-1.11022302e-16 10.8,0.5 Z"></path>
                    <path d="M15.7,4.9 C16.6,6.8 16.5,9 15.5,10.9 L16.8,11.8 C17.5,10.6 17.9,9.1 17.9,7.7 C17.9,6.4 17.6,5.2 17,4 L15.7,4.9 Z"></path>
                    <path d="M19.4,2.4 C20.3,4 20.8,5.8 20.8,7.7 C20.8,9.7 20.3,11.7 19.3,13.4 L20.6,14.2 C22.9,10.3 23,5.4 20.7,1.5 L19.4,2.4 Z"></path>
                </g>
            </g>
        </g>
    </g>
</svg>