<?xml version="1.0" encoding="UTF-8"?>
<svg width="95px" height="95px" viewBox="0 0 95 95" version="1.1" xmlns="http://www.w3.org/2000/svg" xmlns:xlink="http://www.w3.org/1999/xlink">
    <!-- Generator: Sketch 53.2 (72643) - https://sketchapp.com -->
    <title>goal_6_target_6_2</title>
    <desc>Created with Sketch.</desc>
    <g id="goal_6_target_6_2" stroke="none" stroke-width="1" fill="none" fill-rule="evenodd">
        <g id="Group-40" fill-rule="nonzero">
            <rect id="Rectangle" fill="#26BDE2" x="-3.62376795e-13" y="-2.13162821e-14" width="94.8" height="94.8"></rect>
            <g id="Group" transform="translate(7.700000, 8.000000)" fill="#FFFFFF">
                <g transform="translate(6.000000, 31.000000)" id="Path">
                    <path d="M61.8,6 L61.8,18.6 L67.4,18.6 L67.4,6 C67.4,5.7 67.2,5.5 66.9,5.5 L66.9,5.5 L65.7,5.5 L65.7,4.7 L63.6,4.7 L63.6,5.5 L62.3,5.5 C62,5.6 61.8,5.8 61.8,6 Z"></path>
                    <path d="M60.9,18.6 L60.9,17.4 L49,17.4 C48.7,17.4 48.5,17.6 48.5,17.9 L48.5,17.9 L48.5,18.1 C48.5,18.4 48.7,18.6 49,18.6 L60.9,18.6 Z"></path>
                    <path d="M67.4,19.6 L48.9,19.7 C48.7,19.7 48.5,19.9 48.5,20.1 C48.5,20.1 48.5,20.2 48.5,20.2 C48.7,23.9 51.1,27.2 54.6,28.5 L54.6,28.5 L51.7,36.9 L65.7,36.9 L63.8,27.1 C66.1,25.3 67.4,22.5 67.4,19.6 Z"></path>
                    <path d="M42.3,8 L32.7,8 L32.7,6.3 L33.9,6.3 L33.9,7.1 L34.6,7.1 L34.6,4.6 L33.9,4.6 L33.9,5.6 L32.7,5.6 L32.7,3.4 C32.8,2.7 32.5,2 32.1,1.4 C31.6,0.9 31,0.7 30.3,0.7 L30.3,0.7 C29.6,0.7 28.8,0.9 28.3,1.5 C27.9,2 27.7,2.6 27.7,3.2 L27.7,5.6 L29,5.6 L29,3.2 C29,2.9 29.1,2.7 29.3,2.4 C29.6,2.2 29.9,2 30.3,2.1 L30.3,2.1 C30.6,2.1 30.9,2.2 31.1,2.4 C31.3,2.7 31.4,3 31.4,3.4 L31.4,8 L21.9,8 C21.9,12.4 25.1,16.1 29.4,16.7 L26.6,37 L37.5,37 L34.7,16.8 C39.1,16.1 42.3,12.4 42.3,8 Z"></path>
                    <path d="M14.3,22.7 L14.3,22.7 L1.2,22.7 C1.1,22.7 1,22.8 1,22.9 L1,22.9 L2,36.7 C2,36.8 2.1,36.9 2.2,36.9 C2.2,36.9 2.2,36.9 2.2,36.9 L2.2,36.9 L13.4,36.9 C13.5,36.9 13.6,36.8 13.6,36.7 L14.5,22.9 C14.5,22.8 14.4,22.7 14.3,22.7 C14.3,22.7 14.3,22.7 14.3,22.7 Z"></path>
                    <path d="M14.7,21 C14.7,20.9 14.6,20.8 14.5,20.8 C14.5,20.8 14.5,20.8 14.5,20.8 L9.7,20.8 L9.7,20.2 C9.7,20.1 9.6,20 9.5,20 L5.9,20 C5.8,20 5.7,20.1 5.7,20.2 L5.7,20.8 L1,20.8 C0.9,20.8 0.8,20.9 0.8,21 C0.8,21 0.8,21 0.8,21 L0.9,21.8 C0.9,21.9 1,22 1.1,22 L1.1,22 L14.3,22 C14.4,22 14.5,21.9 14.5,21.8 L14.7,21 Z"></path>
                </g>
                <path d="M79.8,17.1 L40.6,0.2 C40.5,0.1 40.3,0.1 40.2,0.1 C40.1,0.1 40,0.2 39.9,0.2 L0.7,17.1 C0.5,17.2 0.4,17.3 0.5,17.5 L0.5,21.5 C0.5,21.8 0.5,22.1 1,22 L40,5.8 C40.1,5.8 40.1,5.8 40.2,5.8 C40.3,5.8 40.3,5.8 40.4,5.8 L79.5,21.9 C80,22.1 80,21.8 80,21.4 L80,17.4 C80,17.3 79.9,17.2 79.8,17.1 Z" id="Path"></path>
                <path d="M0.9,73.2 L79.3,73.2 C79.6,73.2 79.9,73.5 79.9,73.8 L79.9,77.4 C79.9,77.7 79.6,78 79.3,78 L0.9,78 C0.6,78 0.3,77.7 0.3,77.4 L0.3,73.8 C0.3,73.5 0.6,73.2 0.9,73.2 Z" id="Path"></path>
            </g>
        </g>
        <g id="Group-40" fill-rule="nonzero">
            <rect id="Rectangle" fill="#26BDE2" x="-3.62376795e-13" y="-2.13162821e-14" width="94.8" height="94.8"></rect>
            <g id="Group" transform="translate(7.700000, 8.000000)" fill="#FFFFFF">
                <g transform="translate(6.000000, 31.000000)" id="Path">
                    <path d="M61.8,6 L61.8,18.6 L67.4,18.6 L67.4,6 C67.4,5.7 67.2,5.5 66.9,5.5 L66.9,5.5 L65.7,5.5 L65.7,4.7 L63.6,4.7 L63.6,5.5 L62.3,5.5 C62,5.6 61.8,5.8 61.8,6 Z"></path>
                    <path d="M60.9,18.6 L60.9,17.4 L49,17.4 C48.7,17.4 48.5,17.6 48.5,17.9 L48.5,17.9 L48.5,18.1 C48.5,18.4 48.7,18.6 49,18.6 L60.9,18.6 Z"></path>
                    <path d="M67.4,19.6 L48.9,19.7 C48.7,19.7 48.5,19.9 48.5,20.1 C48.5,20.1 48.5,20.2 48.5,20.2 C48.7,23.9 51.1,27.2 54.6,28.5 L54.6,28.5 L51.7,36.9 L65.7,36.9 L63.8,27.1 C66.1,25.3 67.4,22.5 67.4,19.6 Z"></path>
                    <path d="M42.3,8 L32.7,8 L32.7,6.3 L33.9,6.3 L33.9,7.1 L34.6,7.1 L34.6,4.6 L33.9,4.6 L33.9,5.6 L32.7,5.6 L32.7,3.4 C32.8,2.7 32.5,2 32.1,1.4 C31.6,0.9 31,0.7 30.3,0.7 L30.3,0.7 C29.6,0.7 28.8,0.9 28.3,1.5 C27.9,2 27.7,2.6 27.7,3.2 L27.7,5.6 L29,5.6 L29,3.2 C29,2.9 29.1,2.7 29.3,2.4 C29.6,2.2 29.9,2 30.3,2.1 L30.3,2.1 C30.6,2.1 30.9,2.2 31.1,2.4 C31.3,2.7 31.4,3 31.4,3.4 L31.4,8 L21.9,8 C21.9,12.4 25.1,16.1 29.4,16.7 L26.6,37 L37.5,37 L34.7,16.8 C39.1,16.1 42.3,12.4 42.3,8 Z"></path>
                    <path d="M14.3,22.7 L14.3,22.7 L1.2,22.7 C1.1,22.7 1,22.8 1,22.9 L1,22.9 L2,36.7 C2,36.8 2.1,36.9 2.2,36.9 C2.2,36.9 2.2,36.9 2.2,36.9 L2.2,36.9 L13.4,36.9 C13.5,36.9 13.6,36.8 13.6,36.7 L14.5,22.9 C14.5,22.8 14.4,22.7 14.3,22.7 C14.3,22.7 14.3,22.7 14.3,22.7 Z"></path>
                    <path d="M14.7,21 C14.7,20.9 14.6,20.8 14.5,20.8 C14.5,20.8 14.5,20.8 14.5,20.8 L9.7,20.8 L9.7,20.2 C9.7,20.1 9.6,20 9.5,20 L5.9,20 C5.8,20 5.7,20.1 5.7,20.2 L5.7,20.8 L1,20.8 C0.9,20.8 0.8,20.9 0.8,21 C0.8,21 0.8,21 0.8,21 L0.9,21.8 C0.9,21.9 1,22 1.1,22 L1.1,22 L14.3,22 C14.4,22 14.5,21.9 14.5,21.8 L14.7,21 Z"></path>
                </g>
                <path d="M79.8,17.1 L40.6,0.2 C40.5,0.1 40.3,0.1 40.2,0.1 C40.1,0.1 40,0.2 39.9,0.2 L0.7,17.1 C0.5,17.2 0.4,17.3 0.5,17.5 L0.5,21.5 C0.5,21.8 0.5,22.1 1,22 L40,5.8 C40.1,5.8 40.1,5.8 40.2,5.8 C40.3,5.8 40.3,5.8 40.4,5.8 L79.5,21.9 C80,22.1 80,21.8 80,21.4 L80,17.4 C80,17.3 79.9,17.2 79.8,17.1 Z" id="Path"></path>
                <path d="M0.9,73.2 L79.3,73.2 C79.6,73.2 79.9,73.5 79.9,73.8 L79.9,77.4 C79.9,77.7 79.6,78 79.3,78 L0.9,78 C0.6,78 0.3,77.7 0.3,77.4 L0.3,73.8 C0.3,73.5 0.6,73.2 0.9,73.2 Z" id="Path"></path>
            </g>
        </g>
        <g id="Group-40" fill-rule="nonzero">
            <rect id="Rectangle" fill="#26BDE2" x="-3.62376795e-13" y="-2.13162821e-14" width="94.8" height="94.8"></rect>
            <g id="Group" transform="translate(7.700000, 8.000000)" fill="#FFFFFF">
                <g transform="translate(6.000000, 31.000000)" id="Path">
                    <path d="M61.8,6 L61.8,18.6 L67.4,18.6 L67.4,6 C67.4,5.7 67.2,5.5 66.9,5.5 L66.9,5.5 L65.7,5.5 L65.7,4.7 L63.6,4.7 L63.6,5.5 L62.3,5.5 C62,5.6 61.8,5.8 61.8,6 Z"></path>
                    <path d="M60.9,18.6 L60.9,17.4 L49,17.4 C48.7,17.4 48.5,17.6 48.5,17.9 L48.5,17.9 L48.5,18.1 C48.5,18.4 48.7,18.6 49,18.6 L60.9,18.6 Z"></path>
                    <path d="M67.4,19.6 L48.9,19.7 C48.7,19.7 48.5,19.9 48.5,20.1 C48.5,20.1 48.5,20.2 48.5,20.2 C48.7,23.9 51.1,27.2 54.6,28.5 L54.6,28.5 L51.7,36.9 L65.7,36.9 L63.8,27.1 C66.1,25.3 67.4,22.5 67.4,19.6 Z"></path>
                    <path d="M42.3,8 L32.7,8 L32.7,6.3 L33.9,6.3 L33.9,7.1 L34.6,7.1 L34.6,4.6 L33.9,4.6 L33.9,5.6 L32.7,5.6 L32.7,3.4 C32.8,2.7 32.5,2 32.1,1.4 C31.6,0.9 31,0.7 30.3,0.7 L30.3,0.7 C29.6,0.7 28.8,0.9 28.3,1.5 C27.9,2 27.7,2.6 27.7,3.2 L27.7,5.6 L29,5.6 L29,3.2 C29,2.9 29.1,2.7 29.3,2.4 C29.6,2.2 29.9,2 30.3,2.1 L30.3,2.1 C30.6,2.1 30.9,2.2 31.1,2.4 C31.3,2.7 31.4,3 31.4,3.4 L31.4,8 L21.9,8 C21.9,12.4 25.1,16.1 29.4,16.7 L26.6,37 L37.5,37 L34.7,16.8 C39.1,16.1 42.3,12.4 42.3,8 Z"></path>
                    <path d="M14.3,22.7 L14.3,22.7 L1.2,22.7 C1.1,22.7 1,22.8 1,22.9 L1,22.9 L2,36.7 C2,36.8 2.1,36.9 2.2,36.9 C2.2,36.9 2.2,36.9 2.2,36.9 L2.2,36.9 L13.4,36.9 C13.5,36.9 13.6,36.8 13.6,36.7 L14.5,22.9 C14.5,22.8 14.4,22.7 14.3,22.7 C14.3,22.7 14.3,22.7 14.3,22.7 Z"></path>
                    <path d="M14.7,21 C14.7,20.9 14.6,20.8 14.5,20.8 C14.5,20.8 14.5,20.8 14.5,20.8 L9.7,20.8 L9.7,20.2 C9.7,20.1 9.6,20 9.5,20 L5.9,20 C5.8,20 5.7,20.1 5.7,20.2 L5.7,20.8 L1,20.8 C0.9,20.8 0.8,20.9 0.8,21 C0.8,21 0.8,21 0.8,21 L0.9,21.8 C0.9,21.9 1,22 1.1,22 L1.1,22 L14.3,22 C14.4,22 14.5,21.9 14.5,21.8 L14.7,21 Z"></path>
                </g>
                <path d="M79.8,17.1 L40.6,0.2 C40.5,0.1 40.3,0.1 40.2,0.1 C40.1,0.1 40,0.2 39.9,0.2 L0.7,17.1 C0.5,17.2 0.4,17.3 0.5,17.5 L0.5,21.5 C0.5,21.8 0.5,22.1 1,22 L40,5.8 C40.1,5.8 40.1,5.8 40.2,5.8 C40.3,5.8 40.3,5.8 40.4,5.8 L79.5,21.9 C80,22.1 80,21.8 80,21.4 L80,17.4 C80,17.3 79.9,17.2 79.8,17.1 Z" id="Path"></path>
                <path d="M0.9,73.2 L79.3,73.2 C79.6,73.2 79.9,73.5 79.9,73.8 L79.9,77.4 C79.9,77.7 79.6,78 79.3,78 L0.9,78 C0.6,78 0.3,77.7 0.3,77.4 L0.3,73.8 C0.3,73.5 0.6,73.2 0.9,73.2 Z" id="Path"></path>
            </g>
        </g>
    </g>
</svg>