<?xml version="1.0" encoding="UTF-8"?>
<svg width="95px" height="95px" viewBox="0 0 95 95" version="1.1" xmlns="http://www.w3.org/2000/svg" xmlns:xlink="http://www.w3.org/1999/xlink">
    <!-- Generator: Sketch 53.2 (72643) - https://sketchapp.com -->
    <title>goal_9_target_9_a</title>
    <desc>Created with Sketch.</desc>
    <g id="goal_9_target_9_a" stroke="none" stroke-width="1" fill="none" fill-rule="evenodd">
        <g id="Group-70" fill-rule="nonzero">
            <rect id="Rectangle" fill="#FD6925" x="-3.62376795e-13" y="-2.13162821e-14" width="94.8" height="94.8"></rect>
            <g id="Group" transform="translate(3.700000, 4.000000)" fill="#FFFFFF">
                <path d="M66.2,43.2 L72.7,43.2 C74.5,43.2 76.2,42.6 77.5,41.4 C78.6,40.3 79.1,38.8 79.1,37.2 C79.1,34.3 79.1,28.1 79.1,22.8 C80.6,22.5 81.7,21.4 82.1,20 L87.7,20 L87.7,18 L82,18 C81.6,16.6 80.5,15.5 79.1,15.2 L79.1,13.8 C79.1,13.6 79.1,13.5 79.1,13.2 C79.1,12.3 79.1,10.6 80,9.7 C80.5,9.2 81.3,9 82,9 L87.8,9 L87.8,7 L82,7 C80.8,6.9 79.5,7.4 78.6,8.2 C77.1,9.7 77.1,11.9 77.1,13.1 L77.1,13.6 C77.1,13.6 77.1,14.2 77.1,15.2 C75.8,15.6 74.8,16.6 74.5,17.9 L70.1,17.9 C67.1,17.9 64.6,15.5 64.6,12.4 L64.6,0.1 L62.6,0.1 L62.6,12.6 C62.6,16.7 65.9,20.1 70.1,20.1 L74.5,20.1 C74.8,21.4 75.8,22.4 77,22.8 C77,28.1 77,34.4 77,37.4 C77.1,38.4 76.7,39.4 76,40.1 C75,40.9 73.8,41.3 72.5,41.3 L66.2,41.3 C66.2,41.7 66.2,42 66.2,42.4 C66.2,42.6 66.2,43 66.2,43.2 Z M76.3,19.1 C76.3,18 77.2,17.2 78.2,17.2 C79.2,17.2 80.1,18.1 80.1,19.1 C80.1,20.2 79.2,21 78.2,21 L78.2,21 C77.2,21 76.3,20.1 76.3,19.1 Z" id="Shape"></path>
                <path d="M22.5,41.2 L15.9,41.2 C15.5,39.9 14.5,38.8 13.1,38.4 L13.1,24.9 C13,23.8 13.4,22.7 14.2,21.9 C15.1,21.2 16.3,20.9 17.4,21 L22,21 C24,21.1 26,20.4 27.5,19.1 C28.8,17.8 29.5,16 29.4,14.1 L29.4,12.5 C30.7,12.1 31.6,11.1 31.9,9.8 L39.9,9.8 C40.8,9.8 41.6,10 42.3,10.6 C43,11.3 43.4,12.3 43.3,13.3 L43.3,20.5 C44,20.4 44.6,20.4 45.3,20.5 L45.3,13.3 C45.4,11.7 44.8,10.2 43.7,9.1 C42.6,8.2 41.2,7.8 39.8,7.8 L31.9,7.8 C31.6,6.5 30.6,5.5 29.4,5.1 L29.4,0.1 L27.4,0.1 L27.4,5 C25.9,5.3 24.8,6.4 24.4,7.8 L0.3,7.8 L0.3,9.8 L24.4,9.8 C24.8,11.2 25.9,12.3 27.4,12.6 L27.4,14.1 C27.5,15.4 27,16.7 26.1,17.6 C24.9,18.5 23.5,19 22,18.9 L17.5,18.9 C15.8,18.8 14.1,19.3 12.8,20.3 C11.6,21.5 10.9,23.1 11,24.8 L11,38.4 C9.7,38.8 8.6,39.8 8.2,41.1 L0.4,41.1 L0.4,43.1 L8.3,43.1 C8.7,44.4 9.7,45.5 11.1,45.9 L11.1,64 C9.9,64.3 8.9,65.3 8.4,66.5 L0.3,66.5 L0.3,68.5 L8.3,68.5 C8.6,70 9.7,71.1 11.1,71.5 C11.1,71.6 11.1,71.7 11.1,71.9 C11.1,72.8 11.1,74.5 10.2,75.4 C9.7,75.9 8.9,76.1 8.2,76.1 L0.2,76.1 L0.2,78.1 L8.2,78.1 C9.4,78.2 10.7,77.8 11.6,76.9 C13.1,75.4 13.1,73.2 13.1,72 C13.1,71.9 13.1,71.8 13.1,71.6 C14.5,71.2 15.7,70.1 16,68.6 L30.6,68.6 C32,68.6 33.2,69.8 33.2,71.2 L33.2,87.3 L35.2,87.3 L35.2,71.2 C35.2,68.7 33.2,66.6 30.6,66.6 L15.7,66.6 C15.3,65.4 14.3,64.4 13,64.1 L13,46 C14.4,45.6 15.4,44.6 15.8,43.2 L22.4,43.2 C22.4,42.9 22.4,42.6 22.4,42.3 C22.4,42 22.5,41.6 22.5,41.2 Z M26.2,8.8 C26.2,7.7 27,6.9 28.1,6.9 C29.2,6.9 30,7.7 30,8.8 C30,9.9 29.2,10.7 28.1,10.7 C28.1,10.7 28.1,10.7 28.1,10.7 C27.1,10.7 26.2,9.8 26.2,8.8 Z M14,67.9 C14,69 13.2,69.8 12.1,69.8 C11,69.8 10.2,69 10.2,67.9 C10.2,66.8 11,66 12.1,66 C13.1,66 14,66.8 14,67.9 C14,67.9 14,67.9 14,67.9 Z M12.1,44.2 C11,44.2 10.2,43.3 10.2,42.3 C10.2,41.2 11.1,40.4 12.1,40.4 C13.2,40.4 14,41.3 14,42.3 C14,43.3 13.2,44.2 12.1,44.2 C12.1,44.2 12.1,44.2 12.1,44.2 Z" id="Shape"></path>
                <path d="M72.5,58.3 C73.2,57.7 74.1,57.5 75,57.5 L87.8,57.5 L87.8,55.5 L75.1,55.5 C73.7,55.4 72.3,55.9 71.2,56.8 C70.1,57.9 69.5,59.4 69.6,61 L69.6,69.5 C68.2,69.9 67.2,70.9 66.8,72.3 L48.5,72.3 C46.8,72.3 45.3,70.9 45.3,69.1 L45.3,64.2 L44.3,64.2 L43.3,64.2 L43.3,69.1 C43.3,71.9 45.6,74.3 48.5,74.3 L66.8,74.3 C67.2,75.6 68.2,76.7 69.6,77 L69.6,87.2 L71.6,87.2 L71.6,77 C73,76.6 74,75.6 74.4,74.2 L87.8,74.2 L87.8,72.2 L74.3,72.2 C73.9,70.8 72.9,69.8 71.5,69.4 L71.5,61 C71.5,60 71.8,59 72.5,58.3 Z M72.5,73.3 C72.5,74.4 71.6,75.2 70.6,75.2 C69.5,75.2 68.7,74.3 68.7,73.3 C68.7,72.2 69.6,71.4 70.6,71.4 L70.6,71.4 C71.6,71.4 72.4,72.2 72.5,73.3 L72.5,73.3 Z" id="Shape"></path>
                <path d="M46.9,57.6 C47.1,58.1 47.2,58.4 47.4,58.9 C47.6,59.3 48,59.5 48.4,59.5 C49.5,59.3 50.5,58.9 51.5,58.4 C51.9,58.2 52.2,57.7 52,57.3 C51.9,56.8 51.8,56.5 51.6,56.1 C51.4,55.7 51.4,55.2 51.9,54.9 C52.4,54.6 53.6,53.7 54,53.3 C54.4,53 54.9,52.9 55.3,53.2 C55.7,53.5 56.1,53.7 56.5,53.9 C56.9,54.1 57.3,54.1 57.6,53.8 C58.4,53 59,52.1 59.5,51.1 C59.8,50.7 59.6,50.2 59.3,49.9 C59.3,49.9 59.3,49.9 59.3,49.9 C58.9,49.6 58.6,49.4 58.3,49.1 C58,48.8 57.6,48.4 57.8,48 C58,47.6 58.4,46.1 58.6,45.5 C58.7,45 59.1,44.7 59.6,44.7 C60.1,44.7 60.5,44.6 61,44.6 C61.4,44.6 61.8,44.3 61.8,43.8 C61.9,42.7 61.9,41.6 61.7,40.5 C61.7,40 61.3,39.7 60.8,39.7 L59.5,39.7 C59,39.7 58.6,39.6 58.4,39.1 C58.2,38.3 57.9,37.4 57.6,36.6 C57.4,36.2 57.5,35.6 57.9,35.3 C58.3,35 58.6,34.7 59,34.4 C59.3,34.1 59.4,33.7 59.2,33.3 C58.7,32.3 58,31.4 57.2,30.6 C56.9,30.2 56.4,30.2 56,30.5 C56,30.5 56,30.5 56,30.5 C55.6,30.8 55.3,31 54.9,31.2 C54.5,31.4 54.1,31.6 53.7,31.3 C52.9,30.7 52.1,30.1 51.6,29.8 C51.2,29.6 51,29.1 51.1,28.6 C51.2,28.1 51.3,27.7 51.4,27.2 C51.5,26.8 51.3,26.4 50.9,26.2 C49.9,25.7 48.8,25.4 47.7,25.2 C47.3,25.1 46.8,25.4 46.7,25.8 C46.5,26.3 46.4,26.6 46.3,27 C46.2,27.4 45.9,27.8 45.4,27.8 C44.3,27.8 43.5,27.8 42.8,27.8 C42.3,27.8 41.9,27.6 41.7,27.1 C41.5,26.6 41.4,26.3 41.2,25.8 C41,25.4 40.6,25.2 40.2,25.3 C39.1,25.5 38.1,25.9 37.1,26.4 C36.7,26.6 36.5,27.1 36.6,27.5 C36.7,28 36.8,28.3 37,28.7 C37.2,29.1 37.2,29.6 36.7,29.9 C36.2,30.2 35.2,31 34.6,31.4 C34.2,31.7 33.7,31.8 33.3,31.5 C32.9,31.2 32.5,31 32.1,30.7 C31.7,30.5 31.3,30.5 31,30.9 C30.2,31.7 29.6,32.6 29.1,33.6 C28.8,34 29,34.5 29.3,34.8 C29.3,34.8 29.3,34.8 29.3,34.8 C29.7,35.1 30,35.3 30.3,35.6 C30.6,35.9 31,36.3 30.8,36.8 C30.6,37.3 30.2,38.8 30,39.3 C29.9,39.7 29.5,40 29,40 C28.5,40 28.1,40.1 27.6,40.1 C27.2,40.1 26.8,40.4 26.8,40.9 C26.7,42 26.7,43.1 26.9,44.2 C26.9,44.7 27.3,45 27.8,45 C28.3,45 28.6,45 29.1,45 C29.6,45 30,45.1 30.2,45.6 C30.4,46.4 30.7,47.3 31,48.1 C31.2,48.5 31.1,49.1 30.7,49.4 C30.3,49.7 30,50 29.6,50.3 C29.3,50.6 29.2,51.1 29.4,51.4 C29.9,52.4 30.6,53.3 31.4,54.1 C31.7,54.5 32.2,54.5 32.6,54.2 C32.6,54.2 32.6,54.2 32.6,54.2 C33,53.9 33.3,53.8 33.7,53.5 C34.1,53.2 34.5,53.1 34.9,53.4 C35.3,53.7 36.5,54.6 37,54.9 C37.4,55.1 37.6,55.6 37.5,56.1 C37.4,56.6 37.3,57 37.2,57.5 C37.1,57.9 37.3,58.3 37.7,58.5 C38.7,59 39.8,59.3 40.9,59.5 C41.3,59.6 41.8,59.3 41.9,58.9 C42.1,58.5 42.2,58.1 42.3,57.7 C42.4,57.3 42.7,56.9 43.2,56.9 C44.2,56.9 44.9,56.9 45.8,56.9 C46.2,56.8 46.7,57.1 46.9,57.6 Z M33.6,42.4 C33.6,36.4 38.5,31.6 44.5,31.6 C50.5,31.6 55.3,36.5 55.3,42.5 C55.3,48.5 50.4,53.3 44.4,53.3 C38.4,53.3 33.5,48.4 33.6,42.4 Z" id="Shape"></path>
                <path d="M36.4,39.4 C36.6,39.6 36.8,39.4 36.9,39.2 C37,39 37,39 36.9,38.8 C36.8,38.6 37,38.6 37.2,38.5 C37.4,38.4 37.7,38.2 37.9,38.1 C38.4,38 38.9,38 39.4,38.1 C39.7,38.3 40.1,38.2 40.4,38 C40.6,37.8 40.8,37.6 41.1,37.4 C41.2,37.3 40.8,36.9 40.4,37.4 C40,37.9 39.7,38 39.5,38 C39.3,38 38.2,37.7 38.1,37.4 C38,37.1 38.4,36.8 38.9,36.6 C39.5,36.5 40.1,36.4 40.7,36.4 C41.3,36.3 42,36 42.4,36.2 C42.8,36.4 40.8,36.9 41.5,37.2 C41.7,37.3 42.7,36.6 43.1,36.4 C43.9,36 42.3,35.8 42.5,35 C42.7,34.2 40.6,34.4 39.5,34.5 C39,34.8 38.5,35.2 38,35.7 C38.1,35.7 38.3,35.8 38.3,35.9 C38.3,36.1 38.3,36.3 38.2,36.5 C37.9,36.8 37.6,36.9 37.2,37 C37.1,37 37.1,37 37,36.9 C36.8,37.1 36.7,37.4 36.5,37.6 C36.7,37.5 37,37.4 37.2,37.4 C37.4,37.4 37.8,37.5 37.8,37.6 C37.8,37.7 37.2,38 37.1,38.2 C36.8,38.5 36.3,39.1 35.9,39.2 C35.8,39.2 35.7,39.2 35.7,39.2 C35.6,39.4 35.5,39.6 35.5,39.8 C35.7,39.3 36.1,39.3 36.4,39.4 Z" id="Path"></path>
                <path d="M49.8,46 C50.4,45.8 50.9,45.7 51.5,45.6 C52.7,45.3 52.9,44.6 53.1,45 L53.2,45.2 C53.3,45.4 53.3,45.6 53.3,45.8 C53.5,45.3 53.6,44.9 53.7,44.4 C53.4,44.3 52.4,42.8 53.2,41.9 C53.3,41.7 52.9,41.3 53,41.2 C53.4,41.2 53.7,41.4 53.8,41.8 C53.8,41.3 53.7,40.8 53.6,40.3 C53.6,40.4 53.6,40.5 53.6,40.6 C53.5,40.9 53.1,41.1 52.8,40.9 C52.7,40.8 52.6,40.8 52.5,40.6 C52.4,40.4 52,40.1 52,40.7 C52,41.3 52.7,41.4 52,41.8 C51.7,42 51.4,42.1 51,42.2 C50.7,42.5 50.5,42.9 50.5,43.4 C50.6,43.8 51.4,44.8 50.8,44.7 C50.2,44.4 49.7,44 49.3,43.4 C49.1,42.9 48.9,42.4 48.7,42 C48.6,41.7 48.3,41.5 48,41.6 C47.9,41.6 47.9,41.7 47.8,41.7 C47.5,41.9 47.9,42.2 47.6,42.7 C47.3,43.2 47.2,43.6 46.8,43.2 C45.9,42.1 44.5,42.6 44.3,41.5 C44.2,40.8 43.6,40.9 43.2,40.5 C42.8,40.1 42.5,39.9 42.4,40.2 C42.3,40.5 43.9,41.6 44,42 C44.1,42.4 43.5,42.9 43.1,43 C42.7,43.1 42.4,42.8 42,42.3 C41.6,41.8 41.4,41.5 41.3,41.9 C41.3,42.5 41.7,43.1 42.2,43.5 C42.6,43.7 43,43.9 42.9,44.3 C42.8,44.7 42.9,44.5 42.5,44.9 C42.1,45.2 41.9,45.6 42,46.1 C42,46.7 41.9,46.7 41.8,47.2 C41.7,47.7 41.5,47.3 41.3,48 C41.2,48.5 41,48.9 40.7,49.2 C40.3,49.5 39.9,49.7 39.4,49.7 C39,49.7 38.9,48.5 38.9,47.9 C38.9,47.7 38.6,48.3 38.5,47.1 C38.4,46.3 37.9,47.2 37.9,46.7 C37.9,46.2 37.6,46.3 37.3,45.9 C37,45.5 36.7,45.9 36.3,46.1 C35.9,46.3 36.1,46.3 35.6,46.2 L35.6,46.2 C36.7,48.8 39,50.9 41.7,51.7 C41.6,51.6 41.5,51.4 41.6,51.2 C42,50.5 42.7,50.1 43.5,50 C45,49.8 47.1,51 47.4,50.8 C47.7,50.6 48.4,49.8 49.4,49.8 C49.7,49.8 50,49.9 50.3,50 C50.7,49.8 51,49.5 51.3,49.2 C51.2,49.2 51.1,49.1 51,49.1 C50.5,48.8 50.5,49.3 50.3,49.2 C50.1,49.1 50.6,48.5 49.8,49 C49,49.5 49.2,48.9 48.9,48.1 C48.6,47.2 49,46.4 49.8,46 Z M52.3,44.8 C52,45 51.7,44.9 51.4,44.7 C51.2,44.5 51.6,44.2 51.7,44.2 C52,44.2 52.5,44.6 52.3,44.8 L52.3,44.8 Z M51,43.5 C50.9,43.4 51,43.3 51.1,43.2 C51.2,43.2 51.3,43.2 51.3,43.2 C51.5,43.3 51.7,43.5 51.8,43.8 C51.8,44 51.4,43.9 51.3,43.9 C51.2,43.9 51.1,43.8 51,43.5 Z M43.1,45.8 C43,46 42.6,47.6 42.4,47.4 C42.2,47.2 42.5,45.5 42.6,45.4 C42.9,44.7 43.8,44.7 43.1,45.8 Z M47,43.9 C46.7,44.1 46.4,44 46.1,43.8 C45.9,43.6 46.3,43.3 46.4,43.3 C46.8,43.2 47.2,43.7 47,43.9 Z" id="Shape"></path>
                <path d="M36,40.4 C36.5,40.5 37.1,40.6 37.6,40.8 C38.1,41 39,41.5 39.5,41.3 C40,41.1 40.2,40.9 40.1,40.6 C40,40.3 39.8,40.1 39.4,40.4 C39.3,40.5 39,39.8 38.7,39.8 C38.4,39.8 39,40.6 38.8,40.6 C38.6,40.6 38.2,39.8 38.2,39.7 C38.2,39.6 37.8,39.2 37.6,39.5 C37,40 36.1,40 35.9,40.1 C35.8,40.1 35.8,40.2 35.7,40.2 C35.3,40.4 35.2,40 35.2,39.7 C35,40.2 34.9,40.8 34.9,41.3 L34.9,41.2 C35.2,40.6 35.3,40.5 35.4,40.5 C35.5,40.5 35.8,40.4 35.8,40.4 L36,40.4 Z" id="Path"></path>
            </g>
        </g>
    </g>
</svg>