<?xml version="1.0" encoding="UTF-8"?>
<svg width="95px" height="95px" viewBox="0 0 95 95" version="1.1" xmlns="http://www.w3.org/2000/svg" xmlns:xlink="http://www.w3.org/1999/xlink">
    <!-- Generator: Sketch 53.2 (72643) - https://sketchapp.com -->
    <title>goal_16_target_16_6</title>
    <desc>Created with Sketch.</desc>
    <g id="goal_16_target_16_6" stroke="none" stroke-width="1" fill="none" fill-rule="evenodd">
        <g id="Group-136" fill-rule="nonzero">
            <rect id="Rectangle" fill="#00689D" x="1.45661261e-12" y="-2.13162821e-14" width="94.8" height="94.8"></rect>
            <g id="Group" transform="translate(11.700000, 13.000000)" fill="#FFFFFF">
                <g>
                    <path d="M1,26.4 L35.7,26.4 C36,26.4 36.3,26.7 36.3,27 L36.3,28.4 C36.3,28.7 36,29 35.7,29 L1,29 C0.7,29 0.4,28.7 0.4,28.4 L0.4,27 C0.4,26.7 0.6,26.4 1,26.4 Z" id="Path"></path>
                    <path d="M1,52.5 L35.7,52.5 C36,52.5 36.3,52.8 36.3,53.1 L36.3,55.9 C36.3,56.2 36,56.5 35.7,56.5 L1,56.5 C0.7,56.5 0.4,56.2 0.4,55.9 L0.4,53.1 C0.4,52.8 0.6,52.5 1,52.5 Z" id="Path"></path>
                    <path d="M1,24.8 L35.7,24.8 C36,24.8 36.2,24.5 36.2,24.3 L36.2,24 C34,14.2 24.2,8 14.4,10.2 C7.5,11.7 2.1,17.1 0.6,24 C0.6,24.1 0.5,24.2 0.5,24.2 L0.5,24.2 C0.5,24.5 0.7,24.7 1,24.8 Z" id="Path"></path>
                    <path d="M34.6,50.9 C34.9,50.9 35.2,50.6 35.2,50.3 L35.2,50.3 L35.2,31.5 C35.2,31.2 34.9,30.9 34.6,30.9 C34.6,30.9 34.6,30.9 34.6,30.9 L2.3,30.9 C2,30.9 1.7,31.2 1.7,31.5 C1.7,31.5 1.7,31.5 1.7,31.5 L1.7,50.3 C1.7,50.6 2,50.9 2.3,50.9 C2.3,50.9 2.3,50.9 2.3,50.9 L34.6,50.9 L34.6,50.9 Z M25.2,33.4 L30.7,33.4 L30.7,48.3 L25.2,48.3 L25.2,33.4 Z M15.8,33.4 L21.3,33.4 L21.3,48.3 L15.8,48.3 L15.8,33.4 Z M6.5,33.4 L12,33.4 L12,48.3 L6.5,48.3 L6.5,33.4 Z" id="Shape"></path>
                    <path d="M20.3,7.4 C21.5,7.4 22.8,7.8 23.7,8.6 C24.6,9.2 25.6,9.5 26.7,9.6 L29.3,9.6 L29.3,3 L26.7,3 C24.7,3 23.9,2.3 22.7,1.4 C21.8,0.9 20.8,0.6 19.8,0.6 L18.1,0.6 L18.1,7.2 C18.9,7.3 19.6,7.3 20.3,7.4 Z" id="Path"></path>
                </g>
                <path d="M48.6,21.2 L48.6,39.7 C48,39.9 47.4,40.1 46.9,40.4 L46.9,25.1 L45.3,25.1 L45.3,41.5 C44.9,41.8 44.6,42.1 44.3,42.4 L44.3,42.4 C41.9,44.9 41,48.5 41.9,51.8 C42.3,53.3 43,54.7 44.1,55.8 L36.1,66.1 C35.6,66.7 35.7,67.5 36.3,68 C36.3,68 36.3,68 36.3,68 C36.9,68.5 37.7,68.4 38.2,67.8 C38.2,67.8 38.2,67.8 38.2,67.8 L46,57.6 C49.8,60 54.7,59.6 57.9,56.6 L67.7,56.6 L67.7,54.7 L59.5,54.7 C59.9,54.1 60.2,53.5 60.5,52.8 L71.1,52.8 L71.1,21.2 L48.6,21.2 Z M54,56.7 L53.7,56.8 C53.5,56.8 53.4,56.9 53.2,56.9 L53,57 C52.8,57 52.6,57.1 52.4,57.1 L52.2,57.1 C52,57.1 51.8,57.1 51.6,57.1 L51.4,57.1 L50.8,57.1 L50.6,57.1 L50.2,57 L49.8,57 L49.6,57 L49.4,56.9 L49,56.8 L48.7,56.7 L48.4,56.6 L48.4,56.6 C47,56.1 45.9,55.1 45,53.9 L44.8,53.6 L44.6,53.3 L44.4,53 C44.3,52.9 44.3,52.8 44.2,52.6 C44.1,52.4 44.1,52.4 44.1,52.3 C44.1,52.2 44,52 44,51.8 L43.9,51.5 C43.9,51.3 43.8,51.2 43.8,51 C43.8,50.9 43.8,50.9 43.8,50.8 C43.8,50.6 43.7,50.4 43.7,50.3 L43.7,50.1 C43.7,49.9 43.7,49.7 43.7,49.6 C43.7,49.5 43.7,49.4 43.7,49.4 C43.7,49.2 43.7,49.1 43.7,48.9 C43.7,48.7 43.7,48.7 43.7,48.6 C43.7,48.5 43.7,48.3 43.7,48.2 C43.7,48.1 43.7,48 43.8,47.8 C43.8,47.7 43.8,47.7 43.8,47.6 C43.8,47.5 43.8,47.5 43.8,47.4 C43.8,47.3 43.9,47.1 43.9,47 C43.9,46.9 44,46.8 44,46.7 C44,46.6 44.1,46.4 44.2,46.3 C44.3,46.2 44.3,46.1 44.3,46 C44.3,45.9 44.4,45.8 44.5,45.6 L44.7,45.3 C44.8,45.2 44.8,45.1 44.9,45 L45.1,44.7 C45.1,44.7 45.1,44.6 45.2,44.6 L45.2,44.6 C45.7,44 46.2,43.5 46.9,43.1 L46.9,43.1 L47.2,42.9 L47.4,42.8 L47.8,42.6 L48.1,42.5 L48.5,42.3 C49.6,41.9 50.7,41.7 51.9,41.7 L52.2,41.7 L52.6,41.8 L53,41.9 L53.2,41.9 L53.4,41.9 L53.8,42 L54,42 L54.4,42.2 L54.7,42.4 L55,42.6 L55.3,42.8 L55.4,42.9 L55.4,42.9 C56.3,43.5 57,44.2 57.6,45 L57.6,45 C57.6,45.1 57.7,45.1 57.7,45.2 L57.9,45.4 C58,45.5 58.1,45.7 58.1,45.8 L58.2,46 C58.3,46.2 58.3,46.3 58.4,46.4 C58.5,46.5 58.5,46.6 58.5,46.7 C58.5,46.8 58.6,47 58.6,47.1 C58.6,47.2 58.7,47.3 58.7,47.5 C58.7,47.7 58.7,47.7 58.8,47.8 L58.8,47.8 C59,48.9 59,50 58.8,51 C58.7,51.6 58.5,52.2 58.2,52.7 L58.3,53 L58,53.4 C57.9,53.5 57.9,53.5 57.9,53.6 C57.9,53.7 57.7,53.9 57.6,54.1 L57.5,54.2 C56.6,55.3 55.4,56.2 54,56.7 Z M68.4,47.6 C68.4,47.7 68.3,47.7 68.2,47.7 L61,47.7 C60.8,46.7 60.5,45.7 60.1,44.8 L68.2,44.8 C68.3,44.8 68.4,44.8 68.4,44.9 L68.4,47.6 Z M68.4,42.6 C68.4,42.7 68.3,42.7 68.2,42.7 L58.6,42.7 C58.4,42.5 58.3,42.3 58.1,42.1 C57,41 55.6,40.2 54.1,39.8 L68.1,39.8 C68.2,39.8 68.3,39.9 68.3,39.9 L68.4,42.6 Z M68.4,37.8 C68.4,37.9 68.3,37.9 68.2,37.9 L51.5,37.9 C51.4,37.9 51.3,37.9 51.3,37.8 L51.3,35.1 C51.3,35 51.4,35 51.5,35 L68.2,35 C68.3,35 68.4,35 68.4,35.1 L68.4,37.8 Z" id="Shape"></path>
            </g>
        </g>
    </g>
</svg>