<?xml version="1.0" encoding="UTF-8"?>
<svg width="95px" height="95px" viewBox="0 0 95 95" version="1.1" xmlns="http://www.w3.org/2000/svg" xmlns:xlink="http://www.w3.org/1999/xlink">
    <!-- Generator: Sketch 53.2 (72643) - https://sketchapp.com -->
    <title>goal_17_target_17_19</title>
    <desc>Created with Sketch.</desc>
    <g id="goal_17_target_17_19" stroke="none" stroke-width="1" fill="none" fill-rule="evenodd">
        <g id="Group-161" fill-rule="nonzero">
            <rect id="Rectangle" fill="#19486A" x="1.45661261e-12" y="-2.13162821e-14" width="94.8" height="94.8"></rect>
            <g id="Group" transform="translate(13.700000, 14.000000)" fill="#FFFFFF">
                <g opacity="0.6" transform="translate(46.000000, 22.000000)" id="Path">
                    <path d="M10.4,44.6 L10.4,1.5 C10.4,1.2 10.2,0.9 9.9,0.9 C9.9,0.9 9.9,0.9 9.9,0.9 L1.1,0.9 C0.8,0.9 0.5,1.1 0.5,1.4 C0.5,1.4 0.5,1.4 0.5,1.4 L0.5,44.5 L10.4,44.6 Z"></path>
                </g>
                <g opacity="0.4" transform="translate(16.000000, 39.000000)" id="Path">
                    <path d="M10.3,27.8 L10.3,0.7 C10.3,0.4 10,0.1 9.7,0.1 L1,0.1 C0.7,0.1 0.4,0.4 0.4,0.7 L0.4,27.8 L10.3,27.8 L10.3,27.8 Z"></path>
                </g>
                <path d="M58.7,66.5 L46.6,66.5 L41.3,66.5 L41.3,32.4 C41.3,32.1 41,31.8 40.7,31.8 L32,31.8 C31.7,31.8 31.4,32.1 31.4,32.4 L31.4,66.5 L2.4,66.5 L2.4,53.8 L4.4,53.8 L4.4,53.3 L2.4,53.3 L2.4,39.6 L4.4,39.6 L4.4,39.1 L2.4,39.1 L2.4,35.6 L29.4,27.4 L43.6,18.1 L63.2,13.5 L63.4,14.5 L63.9,16.5 L63.9,16.6 C63.9,16.7 64.1,16.8 64.2,16.8 C64.3,16.8 64.3,16.8 64.3,16.7 L64.3,16.7 L68.5,11.3 L68.5,11.2 C68.5,11.1 68.5,11.1 68.5,11 C68.5,10.9 68.5,10.9 68.4,10.8 L68.4,10.8 L68.3,10.8 L62.1,8.1 L62.1,8.1 L62.1,8.1 C62,8.1 62,8.1 61.9,8.1 C61.8,8.1 61.7,8.3 61.7,8.4 L61.7,8.4 L61.7,8.4 L61.7,8.5 L62.2,10.5 L62.5,11.6 L43.2,16.1 L28.9,25.4 L2.2,33.5 L2.2,25.4 L4.2,25.4 L4.2,25 L2.2,25 L2.2,11.3 L4.2,11.3 L4.2,10.8 L2.2,10.8 L2.2,0.4 L-7.10542736e-15,0.4 L-7.10542736e-15,68.7 L68.6,68.7 L68.6,66.5 L58.7,66.5 Z" id="Path"></path>
            </g>
        </g>
    </g>
</svg>