<?xml version="1.0" encoding="UTF-8"?>
<svg width="95px" height="95px" viewBox="0 0 95 95" version="1.1" xmlns="http://www.w3.org/2000/svg" xmlns:xlink="http://www.w3.org/1999/xlink">
    <!-- Generator: Sketch 53.2 (72643) - https://sketchapp.com -->
    <title>goal_2_target_2_1</title>
    <desc>Created with Sketch.</desc>
    <g id="goal_2_target_2_1" stroke="none" stroke-width="1" fill="none" fill-rule="evenodd">
        <g id="Group-9" fill-rule="nonzero">
            <rect id="Rectangle" fill="#DDA63A" x="7.10542736e-15" y="-2.13162821e-14" width="94.8" height="94.8"></rect>
            <g id="Group" transform="translate(10.700000, 13.000000)" fill="#FFFFFF">
                <path d="M71.4,19.7 C70,18 68,17 65.8,16.8 C66,14.7 66.5,12.7 67.1,10.7 C67.6,9.2 68.6,8 69.8,7.1 L67.6,7 C65.9,8.7 64.9,11 64.6,13.4 L64.6,1 L62.7,0.7 L62.7,11.3 C62.3,9.7 61.7,8.1 61.1,6.6 C60.7,5.7 60.1,4.8 59.4,4 L57.5,4.1 C58.8,6 59.8,8.1 60.4,10.3 C61,12.4 61.2,14.6 61.1,16.8 C59,16.9 57,17.9 55.6,19.5 C53.1,22.3 54.1,27 54.1,27 C54.1,27 54.2,27.5 54.4,28.3 L62.3,28.3 C62.5,28.3 62.7,28.5 62.7,28.7 L62.7,29.4 C62.7,29.6 62.5,29.8 62.3,29.8 L62.3,29.8 L54.7,29.8 C55.1,31.7 55.6,34.3 56.2,37.4 L62.2,37.4 C62.4,37.4 62.6,37.6 62.6,37.8 L62.6,38.5 C62.6,38.7 62.4,38.9 62.2,38.9 L56.5,38.9 C57,41.3 57.5,43.9 58,46.5 L62.2,46.5 C62.4,46.5 62.6,46.7 62.6,46.9 L62.6,46.9 L62.6,47.6 C62.6,47.8 62.4,48 62.2,48 L62.2,48 L58.4,48 C60,56.1 61.5,63.6 61.5,64.1 C61.7,65.1 62.4,67.7 63.4,67.6 C64.7,67.5 65.1,64.8 65.1,64.8 L72.5,27.5 C72.5,27.5 73.9,22.8 71.4,19.7 Z" id="Path"></path>
                <path d="M39,56 C43.7,46.7 46.2,36.4 46.4,26 C46.3,10.5 38.6,3.5 36.8,2.1 L36.8,2.1 C36.7,2 36.6,2 36.5,2 C36.4,2 36.2,2 36.1,2.1 L35.8,2.3 C32,5.2 26,13.9 26,25 C26,36.8 34.7,55.8 34.7,55.8 C31.9,59.2 29.4,64.1 29,66.9 C29,67.1 29,67.2 29,67.3 L29,67.3 C29,67.3 29,67.4 29,67.4 C29,67.6 29.2,67.7 29.4,67.7 C29.5,67.7 29.6,67.7 29.7,67.6 L30,67.2 C31.6,65.3 33.9,64.1 36.4,64 C39.7,64 42,66.2 43.6,67.6 C44.1,68 44.1,68.2 44.6,68.1 C45.1,68 44.8,67.2 44.8,67.2 C43.6,61.5 39,56 39,56 Z M33.6,17.3 C32.2,17.3 31,16.2 31,14.8 C31,13.4 32.1,12.2 33.5,12.2 C34.9,12.2 36.1,13.3 36.1,14.7 C36.1,14.7 36.1,14.7 36.1,14.7 C36.2,16.2 35,17.3 33.6,17.3 C33.6,17.3 33.6,17.3 33.6,17.3 Z" id="Shape"></path>
                <g transform="translate(0.000000, 1.000000)">
                    <path d="M10,14.1 C10,14.1 6.4,17.9 6.4,20.7 C6.4,23.1 9.1,24.5 9.9,25 C9.9,25 13.5,23.1 13.5,20.7 C13.6,17.8 10,14.1 10,14.1 Z" id="Path"></path>
                    <path d="M2,21 C2,21 1.4,27.3 4.1,29.2 C4.1,29.2 5,30.4 9.3,31 C9.3,31 9.8,26.9 8.2,25.2 C8.2,25.3 7.4,24.1 2,21 Z" id="Path"></path>
                    <path d="M1.4,28.8 C1.4,28.8 0.7,35.7 3.7,37.8 C3.7,37.8 4.7,39.1 9.3,39.8 C9.3,39.8 9.8,35.4 8.1,33.5 C8.1,33.5 7.2,32.1 1.4,28.8 Z" id="Path"></path>
                    <path d="M1.6,37.7 C1.6,37.7 0.6,45.1 3.6,47.2 C3.6,47.2 4.8,48.6 9.4,49.3 C9.4,49.3 10.1,44.7 8.4,42.9 C8.3,43 7.4,41.1 1.6,37.7 Z" id="Path"></path>
                    <path d="M0.6,46.8 C0.6,46.8 0.1,54.5 3.1,56.6 C3.1,56.6 4.6,58.1 9.2,58.8 C9.2,58.8 9.8,53.8 8.1,52 C8.1,51.9 6.5,49.9 0.6,46.8 Z" id="Path"></path>
                    <path d="M18,21 C18,21 18.6,27.3 15.9,29.2 C15.9,29.2 15,30.4 10.7,31 C10.7,31 10.2,26.9 11.8,25.2 C11.8,25.3 12.6,24.1 18,21 Z" id="Path"></path>
                    <path d="M18.5,28.8 C18.5,28.8 19.2,35.7 16.2,37.8 C16.2,37.8 15.2,39.1 10.7,39.8 C10.7,39.8 10.2,35.4 11.9,33.5 C11.9,33.5 12.7,32.1 18.5,28.8 Z" id="Path"></path>
                    <path d="M18.4,37.7 C18.4,37.7 19.4,45.1 16.4,47.2 C16.4,47.2 15.2,48.6 10.6,49.3 C10.6,49.3 9.9,44.7 11.6,42.9 C11.7,43 12.6,41.1 18.4,37.7 Z" id="Path"></path>
                    <path d="M19.4,46.8 C19.4,46.8 19.9,54.5 16.9,56.6 C16.9,56.6 15.4,58.1 10.8,58.8 C10.8,58.8 10.2,53.8 11.9,52 C11.9,51.9 13.4,49.9 19.4,46.8 Z" id="Path"></path>
                    <rect id="Rectangle" x="9" y="59.9" width="2" height="7.2"></rect>
                    <path d="M3.5,7.2 C3.5,6.8 3.2,6.5 2.8,6.5 C2.4,6.5 2.1,6.8 2.1,7.2 L2.1,7.2 L2.1,19.7 L3.4,20.5 L3.4,7.2 L3.5,7.2 Z" id="Path"></path>
                    <path d="M6.3,5.1 C6.3,4.7 6.1,4.4 5.7,4.3 C5.3,4.3 5,4.5 4.9,4.9 C4.9,5 4.9,5 4.9,5.1 L4.9,20 C5.2,18.8 5.7,17.7 6.3,16.7 L6.3,5.1 L6.3,5.1 Z" id="Path"></path>
                    <path d="M9.1,1.6 C9.1,1.2 8.8,0.9 8.4,0.9 C8,0.9 7.7,1.2 7.7,1.6 L7.7,14.5 C8.2,13.8 8.7,13.2 9.1,12.7 L9.1,1.6 Z" id="Path"></path>
                    <path d="M16.5,7.2 C16.5,6.8 16.8,6.5 17.2,6.5 C17.6,6.5 17.9,6.8 17.9,7.2 L17.9,7.2 L17.9,19.7 L16.6,20.5 L16.6,7.2 L16.5,7.2 Z" id="Path"></path>
                    <path d="M13.7,5.1 C13.7,4.7 13.9,4.4 14.3,4.3 C14.7,4.3 15,4.5 15.1,4.9 C15.1,5 15.1,5 15.1,5.1 L15.1,20 C14.8,18.8 14.3,17.7 13.7,16.7 L13.7,5.1 L13.7,5.1 Z" id="Path"></path>
                    <path d="M10.9,1.6 C10.9,1.2 11.2,0.9 11.6,0.9 C12,0.9 12.3,1.2 12.3,1.6 L12.3,14.5 C11.8,13.8 11.3,13.2 10.9,12.7 L10.9,1.6 Z" id="Path"></path>
                </g>
            </g>
        </g>
    </g>
</svg>