<?xml version="1.0" encoding="UTF-8"?>
<svg width="95px" height="95px" viewBox="0 0 95 95" version="1.1" xmlns="http://www.w3.org/2000/svg" xmlns:xlink="http://www.w3.org/1999/xlink">
    <!-- Generator: Sketch 53.2 (72643) - https://sketchapp.com -->
    <title>goal_10_target_10_4</title>
    <desc>Created with Sketch.</desc>
    <g id="goal_10_target_10_4" stroke="none" stroke-width="1" fill="none" fill-rule="evenodd">
        <g id="Group-76" fill-rule="nonzero">
            <rect id="Rectangle" fill="#DD1367" x="-3.62376795e-13" y="-2.13162821e-14" width="94.8" height="94.8"></rect>
            <g id="Group" transform="translate(23.700000, 16.000000)">
                <polygon id="Path" fill="#FFFFFF" points="3 7.4 0.1 7.4 0.1 62.3 39.4 62.3 39.4 59 3 59"></polygon>
                <path d="M6,0.8 L6,55.6 L45.3,55.6 L45.3,0.8 L6,0.8 Z M20.7,18.7 L25.5,13.9 L25.6,13.9 L30.5,18.8 C30.6,18.9 30.5,18.9 30.5,18.8 L30.5,18.9 L20.8,18.9 C20.7,18.9 20.7,18.9 20.7,18.8 L20.7,18.7 L20.7,18.7 Z M16.4,23.3 L16.4,33 C16.4,33.1 16.4,33.1 16.3,33.1 L16.2,33.1 L11.4,28.3 L11.4,28.2 L16.2,23.4 C16.3,23.3 16.3,23.3 16.4,23.3 L16.4,23.3 Z M30.5,37.6 L25.7,42.4 L25.6,42.4 L20.8,37.6 L20.8,37.5 L30.5,37.6 L30.5,37.4 C30.6,37.4 30.6,37.4 30.6,37.5 C30.6,37.5 30.6,37.6 30.5,37.6 C30.5,37.6 30.5,37.6 30.5,37.6 Z M30.8,32.9 C30.8,33 30.8,33 30.8,32.9 L20.7,33 C20.6,33 20.6,33 20.6,32.9 L20.6,29.9 C20.6,29.8 20.6,29.8 20.7,29.8 L30.7,29.8 C30.8,29.8 30.8,29.8 30.8,29.9 L30.8,32.9 L30.8,32.9 Z M30.8,26.5 C30.8,26.6 30.8,26.6 30.8,26.5 L20.7,26.6 C20.6,26.6 20.6,26.6 20.6,26.5 L20.6,23.5 C20.6,23.4 20.6,23.4 20.7,23.4 L30.7,23.4 C30.8,23.4 30.8,23.4 30.8,23.5 L30.8,26.5 Z M34.9,33.2 L34.9,23.3 L39.9,28.2 L34.9,33.2 Z" id="Shape" fill="#FFFFFF"></path>
                <path d="" id="Path" fill="#DD1367"></path>
            </g>
        </g>
    </g>
</svg>