<?xml version="1.0" encoding="UTF-8"?>
<svg width="95px" height="95px" viewBox="0 0 95 95" version="1.1" xmlns="http://www.w3.org/2000/svg" xmlns:xlink="http://www.w3.org/1999/xlink">
    <!-- Generator: Sketch 53.2 (72643) - https://sketchapp.com -->
    <title>goal_15_target_15_5</title>
    <desc>Created with Sketch.</desc>
    <g id="goal_15_target_15_5" stroke="none" stroke-width="1" fill="none" fill-rule="evenodd">
        <g id="Group-124" fill-rule="nonzero">
            <rect id="Rectangle" fill="#56C02B" x="-3.62376795e-13" y="-2.13162821e-14" width="94.8" height="94.8"></rect>
            <g id="Group" transform="translate(6.700000, 6.000000)" fill="#FFFFFF">
                <path d="M22,25.3 C22.1,26.1 22.8,26.7 23.6,26.6 L27.7,26.6 C28.3,26.9 28.9,27.3 29.6,27.6 C30.7,28.1 31.8,28.7 32.9,29.1 C34,29.5 35.1,30 36.2,30.4 L34.8,59 C34.8,59 34.8,59 34.8,59.1 L34.8,59.1 C34.8,59.3 34.9,59.4 35.1,59.4 L43.1,59.4 C43.2,59.4 43.3,59.3 43.4,59.2 C43.4,59.2 43.4,59.1 43.4,59.1 C43.4,59.1 43.4,59 43.4,59 L42,30.9 C43.3,30 44.4,29.1 46.1,28.1 C47.1,27.5 48.8,26.4 50.3,25.3 L57,25.2 C58.2,25.2 59.2,24.5 59.2,23.7 C59.2,22.9 58.2,22.2 57,22.2 L52.7,22.2 C52.6,21.7 52.2,21.3 51.8,21.1 C50.1,20.2 46.8,20.4 45.8,21.2 C45.5,21.5 45.3,21.8 45.1,22.2 L44.1,22.2 C42.9,22.2 41.9,22.9 41.9,23.7 C41.9,24.5 42.9,25.2 44.1,25.2 L47.4,25.2 C46.5,25.6 45.6,26.1 44.8,26.5 C43.2,27.3 41.6,28.1 40,29 L39.5,28.8 L41.7,19.6 L45.2,19.6 C46.4,19.5 47.3,18.5 47.2,17.3 C47.1,16.2 46.3,15.4 45.2,15.3 L43.3,15.3 C43.6,14.4 43.1,13.5 42.3,13.2 C40.4,12.2 36.6,12.4 35.6,13.3 C35.4,13.5 35.2,13.7 35.1,14 C33.4,13.7 31.3,14 30.6,14.6 C30.3,14.8 30.1,15.2 30,15.5 L28,15.5 C26.8,15.4 25.8,16.3 25.7,17.5 C25.6,18.7 26.5,19.7 27.7,19.8 C27.8,19.8 27.9,19.8 28,19.8 L33.5,19.7 L39.1,23.8 L37.1,28.1 C35.9,27.7 34.7,27.4 33.4,27.1 C32.5,26.9 31.6,26.7 30.8,26.5 L33.1,26.5 C33.8,26.7 34.5,26.2 34.7,25.5 C34.9,24.8 34.4,24.1 33.7,23.9 C33.5,23.9 33.3,23.9 33.1,23.9 L33.1,23.9 C33.1,23.4 32.8,22.9 32.3,22.6 C30.9,21.8 28.2,21.8 27.4,22.6 C27.2,22.7 27.1,22.9 27,23.1 C26.1,22.9 25.2,23 24.4,23.3 C24.2,23.5 24.1,23.7 24,24 L23.4,24 C22.9,24 22.2,24.6 22,25.3 Z M41.1,19.7 L40.1,21.9 L35.8,19.7 L41.1,19.7 Z" id="Shape"></path>
                <path d="M4.4,53.8 C4.3,54.9 4.1,58.2 4.8,59.4 L5.9,59.4 C5.5,58.6 5.4,55.5 5.5,53.8 C7.7,53.8 9.4,53.2 9.4,52.6 C9.4,52 7.5,51.4 5.1,51.4 C2.7,51.4 0.8,51.9 0.8,52.6 C0.8,53.3 2.4,53.7 4.4,53.8 Z" id="Path"></path>
                <path d="M13.4,55.4 C13.4,54.9 12.4,54.4 11,54.4 C9.6,54.4 8.6,54.8 8.6,55.4 C8.6,56 9.5,56.3 10.6,56.4 C10.5,57.4 10.6,58.4 10.9,59.4 L11.6,59.4 C11.4,58.4 11.3,57.4 11.3,56.4 C12.5,56.3 13.4,55.9 13.4,55.4 Z" id="Path"></path>
                <g transform="translate(18.000000, 42.000000)">
                    <polygon id="Path" points="4.7 17.4 3.5 9.8 3.4 17.4"></polygon>
                    <polygon id="Path" points="9.1 17.4 10.3 9.8 10.5 17.4"></polygon>
                    <polygon id="Path" points="0 17.4 1.7 17.4 0.2 8.3"></polygon>
                    <path d="M3,7.2 C3.2,7.6 4.4,7.5 5.5,6.8 C5.9,6.6 6.2,6.3 6.5,6 L6.5,6.2 C6.6,7.3 6.6,7.3 6.5,9.6 L6.5,17.4 L7,17.4 L7,9.6 C7,7.5 7,7.3 7,6.5 C7.2,6.7 7.4,6.8 7.5,7 C8.6,7.8 9.7,8.1 10,7.7 C10.3,7.3 9.7,6.3 8.7,5.5 C8.6,5.4 8.4,5.3 8.3,5.2 C8.4,5.1 8.5,5.1 8.6,5 C9.8,4.3 10.5,3.4 10.2,3 C9.9,2.6 8.8,2.7 7.7,3.4 L7.7,3.4 C7.7,3.4 7.7,3.3 7.7,3.2 C7.8,1.9 7.4,0.8 6.9,0.8 C6.4,0.8 5.9,1.8 5.8,3.1 C5.8,3.2 5.8,3.3 5.8,3.4 L5.6,3.2 C4.5,2.4 3.4,2.1 3.1,2.5 C2.8,2.9 3.4,3.9 4.4,4.7 C4.5,4.8 4.7,4.9 4.8,5 L4.5,5.2 C3.5,5.8 2.8,6.7 3,7.2 Z M6.3,4.7 C6.3,4.4 6.5,4.2 6.8,4.2 C6.8,4.2 6.8,4.2 6.8,4.2 C7.1,4.2 7.3,4.5 7.3,4.7 C7.3,5 7,5.2 6.8,5.2 C6.4,5.2 6.2,5 6.3,4.7 Z" id="Shape"></path>
                </g>
                <path d="M80.8,52.2 L75.6,53.1 L75.2,52.6 C76,52.1 76.6,51.4 77.2,50.7 C77.2,50.7 74.8,51.3 74,50.6 L72.4,48.2 C72.8,47.6 72.8,46.9 72.5,46.3 C72.3,46 71.9,45.8 71.8,46.1 C71.8,46.1 71.8,46.2 71.8,46.3 C71.7,46.6 71.4,46.9 71,47 C71,46.7 70.8,46.5 70.7,46.2 C70.5,46 70,45.8 70,46.1 C70,46.2 70,46.2 70,46.3 C70,46.4 69.9,46.6 69.8,46.7 L67.8,45.8 C66.9,45.1 65.7,44.6 64.5,44.5 C64.2,44.5 63.9,44.5 63.6,44.5 C62.4,44.7 61.2,44.9 59.9,45 L54,45.2 C54,45.2 49,45.3 48.9,47.9 L48.7,56 C49.7,56.7 49.2,55 49.1,54.4 C49.2,53.6 49.4,52.7 49.7,52 L51,59.5 L54.3,59.5 C54.3,58.7 53.8,58 53,57.7 L53.5,55.3 L54.9,54.4 C56.7,55.2 58.8,55.3 60.6,54.6 L61.8,59.4 L65.8,59.4 C65.7,57.9 63.5,57.6 63.5,57.6 L64.5,53.6 L65.3,53.4 L65.9,53.3 C66,53.3 66,53.3 66.1,53.2 C66.7,52.9 67.2,52.6 67.8,52.2 C68.5,53.2 69.4,54.1 70.4,54.9 L73.1,56.1 C73.4,56.3 73.8,56.3 74.1,56.1 L74.5,55.8 C74.8,55.8 75.1,55.7 75.4,55.6 C75.6,55.4 75.8,55.2 76,54.9 C77.6,54.8 80.8,52.2 80.8,52.2 Z" id="Path"></path>
                <g transform="translate(4.000000, 29.000000)" id="Path">
                    <path d="M7.1,5.5 C7.4,6.3 7.8,7 8.4,7.5 C9.4,8.5 10.4,9 10.8,8.7 C11.2,8.4 10.8,7.9 10.2,7.2 C11,7.4 11.7,7.4 11.8,7.1 C11.9,6.8 11,6 9.8,5.4 C9.1,5 8.2,4.9 7.4,5 C7.4,4.9 7.5,4.8 7.5,4.6 C7.5,4.4 7.5,4.2 7.5,4 C7.5,3.8 7.4,3.6 7.4,3.4 L7.2,3.3 C7,3.3 6.8,3.4 6.6,3.5 C6.4,3.6 6.3,3.7 6.1,3.8 L5.8,4 C5.5,3.2 5,2.5 4.3,2 C3.2,1.1 2.1,0.6 1.9,1 C1.7,1.4 2,1.8 2.5,2.5 C1.6,2.3 1,2.4 0.9,2.7 C0.8,3 1.7,3.8 3.1,4.2 C3.9,4.5 4.7,4.6 5.5,4.5 L7.1,5.5 Z"></path>
                    <path d="M6.7,6 L5.2,5.1 C5.1,5.3 5.1,5.5 5,5.7 L6.3,6.5 C6.4,6.3 6.6,6.2 6.7,6 Z"></path>
                    <polygon points="5.9 7 4.8 6.3 4.6 6.9 5.4 7.4"></polygon>
                    <path d="M4.9,7.9 L4.4,7.6 C4.3,7.9 4.2,8.1 4.2,8.4 L4.4,8.5 L4.9,7.9 Z"></path>
                </g>
                <g transform="translate(1.000000, 0.000000)" id="Path">
                    <path d="M7.9,4 C5.4,4 3.4,6 3.4,8.5 C3.4,11 5.4,13 7.9,13 C10.4,13 12.4,11 12.4,8.5 C12.4,6 10.4,4 7.9,4 C7.9,4 7.9,4 7.9,4 Z"></path>
                    <path d="M0.4,8.9 L2.4,8.9 C2.6,8.9 2.7,8.7 2.8,8.5 C2.8,8.3 2.6,8.1 2.4,8.1 L0.4,8.1 C0.2,8.1 0.1,8.3 0.1,8.5 C0.1,8.7 0.2,8.9 0.4,8.9 Z"></path>
                    <path d="M13,8.5 C13,8.7 13.2,8.9 13.4,8.9 L15.4,8.9 C15.6,8.9 15.7,8.7 15.7,8.5 C15.7,8.3 15.6,8.2 15.4,8.1 L13.4,8.1 C13.2,8.1 13.1,8.3 13,8.5 Z"></path>
                    <path d="M7.9,3.3 C8.1,3.3 8.3,3.2 8.3,3 L8.3,1 C8.3,0.8 8.1,0.7 7.9,0.7 C7.7,0.7 7.6,0.8 7.6,1 L7.6,3 C7.5,3.2 7.7,3.3 7.9,3.3 Z"></path>
                    <path d="M7.9,13.6 C7.7,13.6 7.5,13.8 7.5,13.9 L7.5,15.9 C7.5,16.1 7.7,16.2 7.9,16.2 C8.1,16.2 8.2,16.1 8.2,15.9 L8.2,13.9 C8.3,13.8 8.1,13.7 7.9,13.6 Z"></path>
                    <path d="M1.2,5.1 L2.9,6.1 C3.1,6.2 3.3,6.1 3.4,5.9 C3.5,5.7 3.4,5.5 3.3,5.4 L1.6,4.4 C1.4,4.3 1.2,4.4 1.1,4.6 C1,4.8 1.1,5 1.2,5.1 Z"></path>
                    <path d="M12.5,11.5 L14.2,12.5 C14.4,12.6 14.6,12.5 14.7,12.3 C14.8,12.1 14.7,11.9 14.6,11.8 L12.9,10.8 C12.7,10.7 12.5,10.8 12.4,10.9 C12.3,11.2 12.3,11.4 12.5,11.5 Z"></path>
                    <path d="M10.9,3.9 L11.9,2.2 C12,2 11.9,1.8 11.8,1.7 C11.6,1.6 11.4,1.7 11.3,1.8 L10.3,3.5 C10.2,3.7 10.3,3.9 10.5,4 C10.7,4.1 10.8,4 10.9,3.9 L10.9,3.9 Z"></path>
                    <path d="M4.9,13.1 L3.9,14.8 C3.8,15 3.9,15.2 4.1,15.3 C4.3,15.4 4.5,15.3 4.6,15.2 L5.6,13.5 C5.7,13.3 5.6,13.1 5.5,13 C5.2,12.9 5,12.9 4.9,13.1 Z"></path>
                    <path d="M4.8,3.9 C4.9,4.1 5.1,4.1 5.3,4 C5.5,3.9 5.5,3.7 5.4,3.5 L4.4,1.8 C4.3,1.6 4.1,1.6 3.9,1.7 C3.7,1.8 3.7,2 3.8,2.2 L4.8,3.9 Z"></path>
                    <path d="M10.5,13 C10.3,13.1 10.3,13.3 10.4,13.5 L11.4,15.2 C11.5,15.4 11.7,15.4 11.9,15.3 C12.1,15.2 12.1,15 12,14.8 L11,13.1 C10.9,13 10.7,12.9 10.5,13 Z"></path>
                    <path d="M12.8,6.1 L14.5,5.1 C14.7,5 14.7,4.8 14.6,4.6 C14.5,4.4 14.3,4.4 14.1,4.5 L12.4,5.5 C12.2,5.6 12.2,5.8 12.3,6 C12.5,6.1 12.7,6.1 12.8,6.1 Z"></path>
                    <path d="M3,10.9 L1.3,11.9 C1.1,12 1.1,12.2 1.2,12.4 C1.3,12.6 1.5,12.6 1.7,12.5 L3.4,11.5 C3.6,11.4 3.6,11.2 3.5,11 C3.4,10.9 3.2,10.9 3,10.9 Z"></path>
                </g>
                <path d="M80.6,74.7 L80.5,74.7 L80.3,74.8 C77.8,76.1 69.9,79.1 62.8,72.3 C62.7,72.2 62.5,72.1 62.4,72.1 C62.3,72.1 62.1,72.2 62,72.3 C59.9,73.9 50.1,80.5 41.4,72.4 L41.3,72.3 C41.2,72.2 41.1,72.2 40.9,72.2 C40.8,72.2 40.7,72.3 40.6,72.3 L40.5,72.4 C31.8,80.5 22,73.9 19.9,72.3 C19.8,72.2 19.7,72.1 19.5,72.1 C19.3,72.1 19.2,72.2 19.1,72.3 C12,79.1 4.1,76 1.6,74.8 L1.4,74.7 L1.3,74.7 C1,74.7 0.8,74.9 0.8,75.2 L0.8,78.6 C0.8,78.7 0.9,78.8 0.9,78.9 C9.1,86.1 17,79.4 18.8,77.6 C18.9,77.5 18.9,77.5 19,77.4 C19.1,77.4 19.1,77.3 19.2,77.3 C19.3,77.3 19.5,77.4 19.5,77.5 C28.8,86.4 38.6,79.2 40.6,77.5 L40.8,77.3 C40.9,77.3 40.9,77.2 41,77.2 C41.1,77.2 41.1,77.2 41.2,77.3 L41.4,77.5 C43.4,79.2 53.2,86.4 62.5,77.5 L62.5,77.5 C62.6,77.4 62.7,77.4 62.8,77.4 C62.9,77.4 63,77.4 63.1,77.5 C63.2,77.5 63.2,77.6 63.2,77.6 C65,79.4 72.8,86.1 81,78.9 C81.1,78.8 81.1,78.7 81.2,78.6 L81.2,75.2 C81.1,75 80.9,74.8 80.6,74.7" id="Path"></path>
                <path d="M1.1,63.3 L80.7,63.3 C81,63.3 81.3,63.6 81.3,63.9 L81.3,67.5 C81.3,67.8 81,68.1 80.7,68.1 L1.1,68.1 C0.8,68.1 0.5,67.8 0.5,67.5 L0.5,63.9 C0.5,63.6 0.8,63.3 1.1,63.3 Z" id="Path"></path>
                <path d="M72.3,15.5 C71.1,14.4 69.6,13.7 67.9,13.5 C66.4,13.3 64.8,13.8 63.7,14.9 C63.4,15.1 63,15.7 63.4,16 C63.6,16.1 64,16 64.3,15.8 C65,15.5 65.7,15.5 66.4,15.6 C68.4,15.8 70.3,16.7 71.6,18.3 L71.7,18.3 C71.8,18.4 72,18.5 72.1,18.5 C72.3,18.5 72.5,18.4 72.6,18.3 C74.1,17 76.1,16.3 78.1,16.5 C78.8,16.5 79.5,16.7 80.2,17.1 C80.4,17.3 80.8,17.4 81.1,17.3 C81.4,17.1 81.3,16.6 81.1,16.3 C80.1,15 78.6,14.3 77,14.2 C75.3,14.1 73.7,14.6 72.3,15.5 Z" id="Path"></path>
                <path d="M58.8,3.9 C57.6,3.4 56.2,3.3 55,3.6 C53.8,3.9 52.8,4.8 52.2,5.9 C52.1,6.1 51.9,6.7 52.3,6.8 C52.7,6.9 52.7,6.6 53,6.4 C53.4,6 53.9,5.7 54.5,5.6 C56.1,5.2 57.7,5.3 59.1,6.1 L59.1,6.1 C59.2,6.1 59.4,6.1 59.5,6.1 C59.7,6.1 59.8,5.8 59.8,5.8 C60.6,4.4 61.9,3.3 63.4,2.8 C63.9,2.6 64.5,2.6 65.1,2.6 C65.3,2.7 65.6,2.7 65.8,2.5 C66,2.3 65.7,1.9 65.5,1.8 C64.4,1.2 63.1,1 61.8,1.4 C60.6,2 59.6,2.8 58.8,3.9 Z" id="Path"></path>
            </g>
        </g>
    </g>
</svg>