<?xml version="1.0" encoding="UTF-8"?>
<svg width="95px" height="95px" viewBox="0 0 95 95" version="1.1" xmlns="http://www.w3.org/2000/svg" xmlns:xlink="http://www.w3.org/1999/xlink">
    <!-- Generator: Sketch 53.2 (72643) - https://sketchapp.com -->
    <title>goal_5_target_5_a</title>
    <desc>Created with Sketch.</desc>
    <g id="goal_5_target_5_a" stroke="none" stroke-width="1" fill="none" fill-rule="evenodd">
        <g id="Group-36" fill-rule="nonzero">
            <rect id="Rectangle" fill="#FF3A21" x="-3.62376795e-13" y="-2.13162821e-14" width="94.8" height="94.8"></rect>
            <g id="Group" transform="translate(11.700000, 9.000000)" fill="#FFFFFF">
                <g>
                    <g>
                        <path d="M29.1,15.5 L2.1,15.5 C2,15.5 1.9,15.6 1.9,15.7 L1.9,33.4 C1.9,33.5 2,33.6 2.1,33.6 L17.6,33.6 L17.6,21.2 L24,21.2 L24,33.6 L29.1,33.6 C29.2,33.6 29.3,33.5 29.3,33.4 L29.3,15.7 C29.3,15.6 29.2,15.5 29.1,15.5 Z M12.9,27.2 L6.9,27.2 L6.9,21.2 L12.9,21.2 L12.9,27.2 Z" id="Shape"></path>
                        <path d="M15.6,0.2 C15.5,0.1 15.4,0 15.2,0 C15,0 14.9,0.1 14.8,0.2 L14.7,0.3 L0.2,13.9 C0.1,13.9 0.1,14 0.2,14.1 C0.2,14.1 0.3,14.2 0.3,14.2 L30.9,14.2 C31,14.2 31,14.2 31.1,14.1 C31.1,14.1 31.1,14 31,14 L15.7,0.3 L15.6,0.2 Z" id="Path"></path>
                    </g>
                    <g transform="translate(40.000000, 3.000000)" id="Shape">
                        <path d="M15.9,2 C8.4,2 2.4,8.1 2.4,15.6 C2.4,23.1 8.5,29.1 16,29.1 C23.5,29.1 29.5,23.1 29.5,15.6 C29.4,8.1 23.4,2 15.9,2 C15.9,2 15.9,2 15.9,2 Z M28,13.4 C28,13.6 28,13.7 27.9,13.8 C27.8,13.9 27.7,14 27.5,14 L27.4,14 C27.3,14 27.2,14 27.1,13.9 C27,13.8 26.9,13.7 26.9,13.5 C26.9,13.4 26.9,13.2 27,13.1 C27.1,13 27.2,12.9 27.4,12.9 C27.6,12.9 27.9,13.1 28,13.4 Z M27.4,11.4 C27.5,11.5 27.5,11.7 27.4,11.9 C27.3,12 27.2,12.2 27.1,12.2 C27,12.2 27,12.2 26.9,12.2 C26.7,12.2 26.4,12 26.3,11.8 C26.2,11.7 26.2,11.5 26.3,11.4 C26.4,11.3 26.5,11.1 26.6,11.1 C27,10.9 27.3,11 27.4,11.4 C27.5,11.3 27.5,11.3 27.4,11.4 L27.4,11.4 Z M25.4,9.5 C25.4,9.4 25.5,9.2 25.7,9.2 C26,9 26.3,9.1 26.5,9.4 C26.7,9.7 26.6,10 26.3,10.2 L26.3,10.2 C26.2,10.3 26.1,10.3 26,10.3 L25.8,10.3 C25.5,10.2 25.4,9.9 25.4,9.5 L25.4,9.5 Z M21.2,5.1 L21.2,5.1 C21.4,4.8 21.7,4.7 22,4.9 C22.1,5 22.2,5.1 22.3,5.3 C22.4,5.4 22.4,5.6 22.3,5.7 C22.2,5.8 22.1,5.9 21.9,6 C21.9,6 21.8,6 21.7,6 C21.6,6 21.5,6 21.4,5.9 C21.3,5.8 21.2,5.7 21.1,5.6 C21.2,5.4 21.2,5.2 21.2,5.1 L21.2,5.1 Z M20,14 C19.9,14 19.8,13.9 19.8,13.8 L19.8,13 L21.9,13 L21.9,13.8 C21.9,13.9 21.8,14 21.7,14 L21.7,14 L21.7,19 L20.1,19 L20,14 L20,14 Z M16,12.5 L9.4,12.5 L9.4,12 L22.4,12 L22.4,12.5 L16,12.5 Z M15.2,14 C15,14 15,14 15,13.8 L15,13 L17,13 L17,13.8 C17,13.9 16.9,14 16.8,14 L16.8,14 L16.8,19 L15.2,19 L15.2,14 Z M10.2,14 C10.1,14 10,14 10,13.8 L10,13 L12.1,13 L12.1,13.8 C12.1,13.9 12,14 11.9,14 L11.9,14 L11.9,19 L10.2,19 L10.2,14 L10.2,14 Z M16,11.6 L9,11.6 L8.7,11.3 C8.6,11.2 8.6,11.1 8.7,11 C8.7,11 8.7,11 8.8,11 L16,8.3 L23.1,11 C23.2,11.1 23.2,11.2 23.1,11.3 C23.1,11.3 23.1,11.3 23.1,11.3 L22.8,11.6 L16,11.6 Z M19.4,4.3 C19.5,4 19.9,3.9 20.2,4 C20.4,4.1 20.5,4.2 20.5,4.3 C20.6,4.4 20.6,4.6 20.5,4.7 C20.4,4.9 20.2,5.1 19.9,5.1 C19.8,5.1 19.8,5.1 19.7,5.1 C19.6,5 19.4,4.9 19.4,4.8 C19.3,4.7 19.3,4.5 19.4,4.3 L19.4,4.3 Z M17.6,3.5 C17.7,3.4 17.9,3.4 18,3.4 C18.3,3.5 18.5,3.7 18.5,4.1 C18.5,4.1 18.5,4.1 18.5,4.1 C18.5,4.3 18.4,4.4 18.3,4.5 C18.2,4.6 18.1,4.6 18,4.6 L17.9,4.6 C17.7,4.6 17.6,4.5 17.5,4.4 C17.4,4.3 17.4,4.1 17.4,4 C17.4,3.8 17.5,3.6 17.6,3.5 L17.6,3.5 Z M15.9,3.2 C16.2,3.2 16.5,3.5 16.5,3.8 L16.5,3.8 C16.5,4.1 16.2,4.4 15.9,4.4 C15.6,4.4 15.3,4.1 15.3,3.8 C15.3,3.5 15.6,3.3 15.9,3.2 L15.9,3.2 Z M13.4,3.7 C13.5,3.6 13.6,3.5 13.8,3.5 C14,3.5 14.1,3.5 14.2,3.6 C14.3,3.7 14.4,3.8 14.4,4 C14.4,4.2 14.4,4.3 14.3,4.4 C14.2,4.5 14.1,4.6 13.9,4.6 L13.8,4.6 C13.7,4.6 13.6,4.6 13.5,4.5 C13.4,4.4 13.3,4.3 13.3,4.1 C13.3,3.9 13.3,3.8 13.4,3.7 L13.4,3.7 Z M11.4,4.3 C11.5,4.2 11.6,4 11.7,4 C11.8,3.9 12,3.9 12.1,4 C12.2,4.1 12.3,4.2 12.4,4.3 C12.5,4.6 12.4,4.9 12.1,5 C12.1,5 12.1,5 12.1,5 C12,5 12,5 11.9,5 C11.8,5 11.7,5 11.7,4.9 C11.6,4.8 11.4,4.7 11.4,4.6 C11.3,4.6 11.3,4.4 11.4,4.3 L11.4,4.3 Z M9.8,4.9 C9.9,4.8 10.1,4.8 10.2,4.9 C10.3,4.9 10.5,5 10.5,5.2 C10.7,5.5 10.6,5.8 10.3,6 C10.3,6 10.3,6 10.3,6 C10.3,6 10.1,6 10,6 C9.8,6 9.6,5.9 9.5,5.7 C9.3,5.4 9.4,5.1 9.8,4.9 C9.7,4.9 9.7,4.9 9.8,4.9 L9.8,4.9 Z M8,6.1 C8.1,6 8.3,6 8.4,6 C8.6,6 8.7,6.1 8.8,6.2 C9,6.4 9,6.8 8.7,7 C8.7,7 8.7,7 8.7,7 C8.6,7.1 8.5,7.1 8.3,7.1 C8.1,7.1 8,7 7.8,6.9 C7.7,6.7 7.7,6.4 8,6.1 L8,6.1 Z M5.3,9.4 C5.5,9.2 5.9,9.1 6.1,9.3 C6.3,9.5 6.4,9.7 6.3,10 C6.1,10.3 5.8,10.4 5.5,10.2 C5.5,10.2 5.5,10.2 5.5,10.2 C5.2,10.1 5,9.7 5.3,9.4 C5.2,9.4 5.2,9.4 5.3,9.4 L5.3,9.4 Z M4.4,11.4 C4.5,11.1 4.8,10.9 5,11 C5.1,11.1 5.3,11.2 5.3,11.3 C5.4,11.4 5.4,11.6 5.3,11.7 C5.2,11.9 5,12.1 4.8,12.1 C4.7,12.1 4.7,12.1 4.6,12.1 C4.3,12 4.1,11.7 4.4,11.4 C4.3,11.4 4.3,11.4 4.4,11.4 L4.4,11.4 Z M4.4,13 C4.6,13 4.7,13.1 4.8,13.2 C4.9,13.3 4.9,13.5 4.9,13.6 C4.9,13.8 4.8,13.9 4.7,14 C4.6,14.1 4.5,14.1 4.4,14.1 L4.3,14.1 C4,14 3.8,13.7 3.8,13.4 C3.8,13.2 4.1,12.9 4.4,13 C4.4,13 4.4,13 4.4,13 Z M3.5,15.6 C3.5,15.3 3.7,15 4.1,15 C4.1,15 4.1,15 4.1,15 L4.1,15 C4.3,15 4.4,15.1 4.5,15.2 C4.6,15.3 4.7,15.5 4.7,15.6 C4.7,15.9 4.4,16.2 4,16.1 C3.8,16.1 3.6,15.9 3.5,15.6 Z M3.7,17.8 C3.6,17.5 3.9,17.2 4.2,17.1 C4.5,17.1 4.8,17.3 4.9,17.6 C4.9,17.9 4.7,18.2 4.4,18.3 L4.3,18.3 C4,18.2 3.8,18 3.7,17.8 L3.7,17.8 Z M4.8,20.2 C4.6,20.2 4.3,20.1 4.3,19.8 C4.2,19.5 4.3,19.2 4.6,19.1 C4.9,19 5.2,19.1 5.3,19.4 C5.4,19.7 5.3,20 5,20.1 C5,20.1 5,20.1 5,20.1 C5,20.2 4.9,20.2 4.8,20.2 L4.8,20.2 Z M6.3,21.6 C6.3,21.7 6.2,21.9 6,22 C5.9,22.1 5.8,22.1 5.7,22.1 C5.4,22.1 5.1,21.8 5.1,21.5 C5.1,21.2 5.4,20.9 5.7,20.9 C5.9,20.9 6.1,21 6.2,21.2 C6.3,21.3 6.3,21.5 6.3,21.6 L6.3,21.6 Z M6.4,7.6 C6.5,7.5 6.6,7.4 6.8,7.4 C7,7.4 7.1,7.4 7.2,7.5 C7.4,7.7 7.5,8.1 7.3,8.3 C7.3,8.3 7.3,8.3 7.3,8.3 C7.2,8.4 7,8.5 6.9,8.5 C6.8,8.5 6.6,8.5 6.5,8.4 C6.2,8.3 6.2,7.9 6.4,7.6 C6.4,7.7 6.4,7.7 6.4,7.6 Z M7.2,23.6 C7.1,23.7 7,23.7 6.8,23.7 C6.6,23.7 6.5,23.6 6.3,23.5 C6.1,23.3 6.1,22.9 6.4,22.7 C6.4,22.7 6.4,22.7 6.4,22.7 C6.5,22.6 6.7,22.6 6.8,22.6 C7,22.6 7.1,22.7 7.2,22.8 C7.5,23 7.5,23.4 7.2,23.6 C7.3,23.6 7.2,23.6 7.2,23.6 Z M8.8,25 C8.7,25.1 8.5,25.2 8.4,25.2 C8.3,25.2 8.1,25.2 8,25.1 C7.8,24.9 7.7,24.5 7.9,24.3 C8.1,24.1 8.5,24 8.7,24.2 C8.8,24.3 8.9,24.4 8.9,24.6 C8.9,24.7 8.9,24.9 8.8,25 Z M9,20.4 L9.5,20.4 L9.5,19.6 C9.5,19.6 9.5,19.5 9.6,19.5 L22.4,19.5 C22.4,19.5 22.5,19.5 22.5,19.6 L22.5,20.4 L23,20.4 L23,21.2 L9,21.2 L9,20.4 Z M10.5,26.1 C10.4,26.3 10.2,26.4 10,26.4 C9.9,26.4 9.8,26.4 9.7,26.3 C9.6,26.2 9.5,26.1 9.4,25.9 C9.4,25.8 9.4,25.6 9.5,25.5 C9.7,25.2 10,25.1 10.3,25.3 C10.3,25.3 10.3,25.3 10.3,25.3 C10.5,25.5 10.6,25.8 10.5,26.1 L10.5,26.1 Z M12.4,26.9 C12.3,27.1 12.1,27.3 11.8,27.3 C11.7,27.3 11.7,27.3 11.6,27.3 C11.3,27.2 11.1,26.9 11.2,26.6 C11.3,26.3 11.6,26.1 11.9,26.2 C12.3,26.2 12.5,26.6 12.4,26.9 C12.4,26.9 12.4,26.9 12.4,26.9 L12.4,26.9 Z M13.8,27.8 L13.7,27.8 C13.4,27.7 13.2,27.4 13.2,27.1 L13.2,27.1 C13.3,26.8 13.6,26.6 13.9,26.6 C13.9,26.6 13.9,26.6 13.9,26.6 C14.2,26.6 14.4,26.9 14.4,27.3 C14.4,27.3 14.4,27.3 14.4,27.3 C14.3,27.6 14.1,27.7 13.8,27.8 L13.8,27.8 Z M15.8,28 C15.5,28 15.2,27.7 15.2,27.4 C15.2,27.1 15.5,26.8 15.8,26.8 C16.1,26.8 16.4,27.1 16.4,27.4 C16.4,27.7 16.2,27.9 15.8,28 L15.8,28 Z M18.4,27.5 C18.3,27.6 18.2,27.7 18,27.7 L17.9,27.7 C17.6,27.7 17.4,27.5 17.3,27.2 C17.3,26.9 17.5,26.6 17.8,26.5 C18,26.5 18.1,26.5 18.2,26.6 C18.3,26.7 18.4,26.8 18.4,27 C18.5,27.2 18.5,27.4 18.4,27.5 L18.4,27.5 Z M20.4,26.9 C20.3,27 20.2,27.1 20.1,27.2 C20,27.2 20,27.2 19.9,27.2 C19.8,27.2 19.7,27.2 19.7,27.2 C19.6,27.1 19.5,27 19.4,26.9 C19.3,26.8 19.3,26.6 19.4,26.4 C19.5,26.3 19.6,26.2 19.7,26.1 C20,26 20.3,26.2 20.4,26.5 C20.4,26.6 20.4,26.8 20.4,26.9 L20.4,26.9 Z M22,26.3 C21.9,26.4 21.8,26.4 21.7,26.4 L21.5,26.4 C21.3,26.4 21.2,26.3 21.1,26.1 C21,26 21,25.8 21.1,25.7 C21.1,25.6 21.2,25.4 21.4,25.4 C21.5,25.3 21.7,25.3 21.8,25.3 C22,25.3 22.1,25.4 22.2,25.6 C22.4,25.8 22.3,26.1 22,26.3 L22,26.3 Z M23.8,25 C23.7,25.1 23.6,25.1 23.4,25.1 C23.2,25.1 23.1,25.1 23,25 C22.9,24.9 22.9,24.7 22.9,24.6 C22.9,24.4 23,24.3 23.1,24.2 C23.2,24.1 23.4,24.1 23.5,24.1 C23.7,24.1 23.8,24.2 23.9,24.3 C24.1,24.5 24,24.8 23.8,25 Z M23.9,7 C23.8,7.1 23.7,7.2 23.5,7.2 L23.5,7.2 C23.4,7.2 23.2,7.2 23.1,7.1 C23,7 22.9,6.9 22.9,6.7 C22.9,6.5 22.9,6.4 23,6.2 C23.2,6 23.6,5.9 23.8,6.1 C24.1,6.3 24.1,6.7 23.9,7 L23.9,7 Z M25.3,23.6 C25.2,23.7 25.1,23.8 24.9,23.8 L24.9,23.8 C24.8,23.8 24.6,23.8 24.5,23.7 C24.3,23.5 24.2,23.1 24.4,22.9 C24.5,22.8 24.6,22.7 24.8,22.7 C25,22.7 25.1,22.7 25.2,22.8 C25.3,22.9 25.4,23 25.4,23.2 C25.5,23.3 25.4,23.4 25.3,23.6 L25.3,23.6 Z M25.3,8.5 C25.2,8.6 25.1,8.6 24.9,8.6 L24.9,8.6 C24.7,8.6 24.6,8.5 24.5,8.4 C24.3,8.2 24.3,7.8 24.6,7.6 C24.8,7.4 25.2,7.4 25.4,7.7 C25.5,7.8 25.5,8 25.5,8.1 C25.5,8.3 25.4,8.4 25.3,8.5 L25.3,8.5 Z M26.6,21.8 C26.5,22 26.3,22.1 26.1,22.1 C26,22.1 25.9,22.1 25.8,22 C25.7,21.9 25.6,21.8 25.5,21.7 C25.5,21.6 25.5,21.4 25.6,21.3 C25.7,21.2 25.8,21.1 25.9,21 C26.1,21 26.2,21 26.3,21.1 C26.6,21.2 26.7,21.5 26.6,21.8 L26.6,21.8 Z M27.5,19.9 C27.4,20.1 27.2,20.3 26.9,20.3 C26.8,20.3 26.8,20.3 26.7,20.3 C26.6,20.2 26.4,20.1 26.4,20 C26.3,19.9 26.3,19.7 26.4,19.5 C26.5,19.4 26.6,19.2 26.7,19.2 C27,19.1 27.3,19.2 27.5,19.5 C27.5,19.6 27.5,19.7 27.5,19.9 L27.5,19.9 Z M27.8,18.2 C27.7,18.3 27.6,18.3 27.5,18.3 L27.4,18.3 C27.1,18.3 26.9,18 26.9,17.6 C26.9,17.6 26.9,17.6 26.9,17.6 C27,17.3 27.2,17.1 27.6,17.1 C27.6,17.1 27.6,17.1 27.6,17.1 C27.9,17.2 28.1,17.5 28.1,17.8 C28,17.9 27.9,18.1 27.8,18.2 L27.8,18.2 Z M27.6,16.2 C27.3,16.2 27,15.9 27,15.6 L27,15.6 C27,15.4 27.1,15.3 27.2,15.2 C27.3,15.1 27.5,15 27.6,15 C27.9,15 28.2,15.3 28.1,15.7 C28.1,16 27.9,16.2 27.6,16.2 Z"></path>
                        <path d="M15.9,0.1 C7.4,0.1 0.4,7 0.4,15.6 C0.4,24.2 7.3,31 15.9,31 C24.4,31 31.4,24.1 31.4,15.5 C31.4,15.5 31.4,15.5 31.4,15.5 C31.3,7.1 24.4,0.1 15.9,0.1 Z M15.9,29.8 C8,29.8 1.6,23.4 1.6,15.5 C1.6,7.6 8,1.3 15.9,1.3 C23.8,1.3 30.2,7.7 30.2,15.6 C30.2,15.6 30.2,15.6 30.2,15.6 C30.1,23.5 23.8,29.8 15.9,29.8 Z"></path>
                    </g>
                </g>
                <g transform="translate(1.000000, 41.000000)">
                    <g transform="translate(0.000000, 1.000000)">
                        <path d="M4.2,6.4 C4.2,6.4 2.6,8.1 2.6,9.4 C2.6,10.5 3.8,11.1 4.2,11.3 C4.2,11.3 5.8,10.4 5.8,9.3 C5.8,8 4.2,6.4 4.2,6.4 Z" id="Path"></path>
                        <path d="M0.6,9.5 C0.6,9.5 0.4,12.3 1.6,13.2 C1.6,13.2 2,13.7 3.9,14 C3.9,14 4.1,12.2 3.4,11.4 C3.4,11.4 3,10.9 0.6,9.5 Z" id="Path"></path>
                        <path d="M0.4,13 C0.4,13 0.1,16.1 1.5,17 C1.5,17 1.9,17.6 4,17.9 C4,17.9 4.2,15.9 3.4,15.1 C3.4,15.1 3,14.5 0.4,13 Z" id="Path"></path>
                        <path d="M0.5,17 C0.5,17 0.1,20.3 1.4,21.3 C1.4,21.3 1.9,21.9 4,22.2 C4,22.2 4.3,20.1 3.5,19.3 C3.5,19.4 3.1,18.5 0.5,17 Z" id="Path"></path>
                        <path d="M0.1,21.1 C0.1,21.1 -0.1,24.6 1.2,25.5 C2,26.1 3,26.4 4,26.4 C4,26.4 4.2,24.2 3.5,23.3 C2.5,22.4 1.3,21.7 0.1,21.1 Z" id="Path"></path>
                        <path d="M7.8,9.4 C7.8,9.4 8.1,12.2 6.9,13.1 C6.9,13.1 6.5,13.6 4.6,13.9 C4.6,13.9 4.4,12.1 5.1,11.3 C5,11.4 5.4,10.9 7.8,9.4 Z" id="Path"></path>
                        <path d="M8,13 C8,13 8.3,16.1 7,17 C7,17 6.6,17.6 4.5,17.9 C4.5,17.9 4.3,15.9 5,15.1 C5.1,15.1 5.5,14.5 8,13 Z" id="Path"></path>
                        <path d="M8,17 C8,17 8.5,20.3 7.2,21.3 C7.2,21.3 6.7,21.9 4.6,22.3 C4.6,22.3 4.3,20.3 5,19.4 C5,19.4 5.5,18.5 8,17 Z" id="Path"></path>
                        <path d="M8.5,21 C8.5,21 8.8,24.5 7.4,25.4 C6.6,26 5.6,26.3 4.7,26.4 C4.7,26.4 4.4,24.2 5.2,23.3 C6.1,22.4 7.3,21.6 8.5,21 Z" id="Path"></path>
                        <path d="M1.2,3.3 C1.2,3.1 1.1,3 0.9,3 C0.9,3 0.9,3 0.9,3 C0.7,3 0.6,3.1 0.6,3.3 C0.6,3.3 0.6,3.3 0.6,3.3 L0.7,9 L1.3,9.3 L1.2,3.3 Z" id="Path"></path>
                        <path d="M2.4,2.3 C2.4,2.1 2.3,2 2.1,2 L2.1,2 C1.9,2 1.8,2.1 1.8,2.3 C1.8,2.3 1.8,2.3 1.8,2.3 L1.9,9 L1.9,9 C2,8.5 2.2,8 2.5,7.5 L2.4,2.3 Z" id="Path"></path>
                        <path d="M3.7,0.8 C3.7,0.6 3.6,0.5 3.4,0.5 C3.2,0.5 3.1,0.6 3.1,0.8 L3.1,0.8 L3.1,6.6 L3.7,5.8 L3.7,0.8 Z" id="Path"></path>
                        <path d="M7,3.3 C7,3.1 7.1,3 7.3,3 C7.3,3 7.3,3 7.3,3 C7.5,3 7.6,3.1 7.6,3.3 C7.6,3.3 7.6,3.3 7.6,3.3 L7.7,8.9 L7.1,9.3 L7,3.3 Z" id="Path"></path>
                        <path d="M5.8,2.3 C5.8,2.1 5.9,2 6.1,2 C6.3,2 6.4,2.1 6.4,2.3 L6.4,2.3 L6.5,9 L6.5,9 C6.3,8.5 6.1,8 5.9,7.5 L5.8,2.3 Z" id="Path"></path>
                        <path d="M4.5,0.8 C4.5,0.6 4.6,0.5 4.8,0.5 C5,0.5 5.1,0.6 5.1,0.8 L5.1,0.8 L5.2,6.6 C5,6.3 4.7,6 4.6,5.8 L4.5,0.8 Z" id="Path"></path>
                        <rect id="Rectangle" x="3.9" y="27" width="1" height="7.9"></rect>
                    </g>
                    <g transform="translate(60.000000, 0.000000)">
                        <path d="M5.1,6.8 C5.1,6.8 3.5,8.5 3.5,9.8 C3.5,10.9 4.7,11.5 5.1,11.7 C5.1,11.7 6.7,10.8 6.7,9.7 C6.7,8.4 5.1,6.8 5.1,6.8 Z" id="Path"></path>
                        <path d="M1.5,9.9 C1.5,9.9 1.3,12.7 2.5,13.6 C2.5,13.6 2.9,14.1 4.8,14.4 C4.8,14.4 5,12.6 4.3,11.8 C4.3,11.8 3.9,11.3 1.5,9.9 Z" id="Path"></path>
                        <path d="M1.3,13.4 C1.3,13.4 1,16.5 2.4,17.4 C2.4,17.4 2.8,18 4.9,18.3 C4.9,18.3 5.1,16.3 4.3,15.5 C4.3,15.5 3.9,14.9 1.3,13.4 Z" id="Path"></path>
                        <path d="M1.4,17.4 C1.4,17.4 1,20.7 2.3,21.7 C2.3,21.7 2.8,22.3 4.9,22.6 C4.9,22.6 5.2,20.6 4.4,19.7 C4.4,19.8 4,18.9 1.4,17.4 Z" id="Path"></path>
                        <path d="M1,21.5 C1,21.5 0.8,25 2.1,25.9 C2.9,26.5 3.9,26.8 4.9,26.9 C4.9,26.9 5.1,24.7 4.4,23.8 C3.4,22.8 2.3,22.1 1,21.5 Z" id="Path"></path>
                        <path d="M8.7,9.8 C8.7,9.8 9,12.6 7.8,13.5 C7.8,13.5 7.4,14 5.5,14.3 C5.5,14.3 5.3,12.5 6,11.7 C5.9,11.8 6.2,11.2 8.7,9.8 Z" id="Path"></path>
                        <path d="M8.9,13.3 C8.9,13.3 9.2,16.4 7.9,17.3 C7.9,17.3 7.5,17.9 5.4,18.2 C5.4,18.2 5.2,16.2 5.9,15.4 C6,15.5 6.4,14.9 8.9,13.3 Z" id="Path"></path>
                        <path d="M8.9,17.4 C8.9,17.4 9.4,20.7 8.1,21.7 C8.1,21.7 7.6,22.3 5.5,22.7 C5.5,22.7 5.2,20.7 5.9,19.8 C5.9,19.8 6.3,18.9 8.9,17.4 Z" id="Path"></path>
                        <path d="M9.4,21.4 C9.4,21.4 9.6,24.9 8.3,25.8 C7.5,26.4 6.6,26.7 5.6,26.8 C5.6,26.8 5.3,24.6 6.1,23.7 C7,22.8 8.2,22 9.4,21.4 Z" id="Path"></path>
                        <path d="M2.1,3.7 C2.1,3.5 2,3.4 1.8,3.4 C1.6,3.4 1.5,3.5 1.5,3.7 C1.5,3.7 1.5,3.7 1.5,3.7 L1.5,9.3 L2.1,9.6 L2.1,3.7 Z" id="Path"></path>
                        <path d="M3.3,2.7 C3.3,2.5 3.2,2.4 3,2.4 C3,2.4 3,2.4 3,2.4 C2.8,2.4 2.7,2.5 2.7,2.7 L2.7,2.7 L2.8,9.4 L2.8,9.4 C2.9,8.9 3.1,8.4 3.4,7.9 L3.3,2.7 Z" id="Path"></path>
                        <path d="M4.6,1.2 C4.6,1 4.5,0.9 4.3,0.9 C4.1,0.9 4,1 4,1.2 C4,1.2 4,1.2 4,1.2 L4,7 L4.6,6.2 L4.6,1.2 Z" id="Path"></path>
                        <path d="M7.9,3.7 C7.9,3.5 8,3.4 8.1,3.3 C8.2,3.2 8.4,3.4 8.5,3.5 C8.5,3.5 8.5,3.6 8.5,3.6 L8.5,9.2 L8,9.6 L7.9,3.7 Z" id="Path"></path>
                        <path d="M6.7,2.7 C6.7,2.5 6.8,2.4 7,2.4 C7,2.4 7,2.4 7,2.4 C7.2,2.4 7.3,2.5 7.3,2.7 L7.4,9.4 L7.4,9.4 C7.2,8.9 7,8.4 6.8,7.9 L6.7,2.7 Z" id="Path"></path>
                        <path d="M5.4,1.2 C5.4,1 5.5,0.9 5.7,0.9 L5.7,0.9 C5.9,0.9 6,1 6,1.2 L6,7 L5.4,6.2 L5.4,1.2 Z" id="Path"></path>
                        <rect id="Rectangle" x="4.8" y="27.4" width="1" height="7.9"></rect>
                    </g>
                    <g transform="translate(15.000000, 0.000000)" id="Path">
                        <g transform="translate(24.000000, 0.000000)">
                            <path d="M7.8,6.1 C6.1,6.1 4.8,4.8 4.8,3.1 C4.8,1.4 6.1,0.1 7.8,0.1 C9.5,0.1 10.8,1.4 10.8,3.1 L10.8,3.1 C10.8,4.8 9.5,6.1 7.8,6.1 Z"></path>
                            <path d="M4.2,7.3 L4.4,7.3 L11.1,7.3 L11.3,7.3 C13.4,7.5 15,9.2 15,11.3 L15,19.7 C15,20.4 14.5,20.9 13.8,20.9 C13.1,20.9 12.6,20.4 12.6,19.7 L12.6,19.7 L12.6,12.5 C12.6,12.2 12.5,11.9 12,11.9 C11.7,11.9 11.6,12.3 11.6,12.5 L11.6,34.2 C11.7,35.1 11,36 10,36 C9.1,36.1 8.2,35.4 8.2,34.4 C8.2,34.3 8.2,34.2 8.2,34.1 L8.2,21.7 C8.2,21.4 8,21.2 7.8,21.2 C7.8,21.2 7.8,21.2 7.7,21.2 L7.7,21.2 C7.4,21.2 7.2,21.4 7.2,21.6 C7.2,21.6 7.2,21.6 7.2,21.7 L7.2,34.2 C7.3,35.1 6.6,36 5.6,36 C4.7,36.1 3.8,35.4 3.8,34.4 C3.8,34.3 3.8,34.2 3.8,34.1 L3.8,12.5 C3.8,12.3 3.7,11.9 3.4,11.9 C3.1,11.9 2.8,12.3 2.8,12.5 L2.8,19.7 C2.8,20.4 2.3,20.9 1.6,20.9 C0.9,20.9 0.4,20.4 0.4,19.7 L0.4,19.7 L0.4,11.3 C0.6,9.3 2.2,7.5 4.2,7.3 Z"></path>
                        </g>
                        <g>
                            <path d="M9.1,6.6 C10.8,6.6 12.1,5.3 12.1,3.6 C12.1,1.9 10.8,0.6 9.1,0.6 C7.4,0.6 6.1,1.9 6.1,3.6 C6.1,5.3 7.5,6.6 9.1,6.6 Z"></path>
                            <path d="M17.7,18.4 L15.2,10.3 C15.2,10.3 14.3,8 12.3,8 L5.9,8 C3.9,8 3,10.3 3,10.3 L0.5,18.4 C0.5,18.4 7.04991621e-15,19.9 1.3,20.2 C2.6,20.6 3,19.1 3,19.1 L5,12.4 C5,12.4 5.1,11.9 5.5,12 C5.9,12.1 5.7,12.7 5.7,12.7 L2.2,25.3 L5.5,25.3 L5.5,34.3 C5.5,35.2 6.2,35.9 7.1,35.9 C8,35.9 8.7,35.2 8.7,34.3 L8.7,25.3 L9.6,25.3 L9.6,34.3 C9.7,35.2 10.4,35.8 11.3,35.7 C12.1,35.6 12.7,35 12.7,34.3 L12.7,25.3 L16,25.3 L12.5,12.7 C12.5,12.7 12.4,12.1 12.7,12 C13,11.9 13.2,12.4 13.2,12.4 L15.2,19.1 C15.2,19.1 15.6,20.5 16.9,20.2 C18.2,19.9 17.7,18.4 17.7,18.4 Z"></path>
                        </g>
                    </g>
                </g>
            </g>
        </g>
    </g>
</svg>