<?xml version="1.0" encoding="UTF-8"?>
<svg width="95px" height="95px" viewBox="0 0 95 95" version="1.1" xmlns="http://www.w3.org/2000/svg" xmlns:xlink="http://www.w3.org/1999/xlink">
    <!-- Generator: Sketch 53.2 (72643) - https://sketchapp.com -->
    <title>goal_10_target_10_2</title>
    <desc>Created with Sketch.</desc>
    <g id="goal_10_target_10_2" stroke="none" stroke-width="1" fill="none" fill-rule="evenodd">
        <g id="Group-74" fill-rule="nonzero">
            <rect id="Rectangle" fill="#DD1367" x="-3.62376795e-13" y="-2.13162821e-14" width="94.8" height="94.8"></rect>
            <g id="Group" transform="translate(56.700000, 8.000000)" fill="#FFFFFF">
                <path d="M0.5,18.7 L25.6,18.7 C25.8,18.7 26,18.9 26,19.1 L26,20.1 C26,20.3 25.8,20.5 25.6,20.5 L0.5,20.5 C0.3,20.5 0.1,20.3 0.1,20.1 L0.1,19.1 C0.1,18.9 0.3,18.7 0.5,18.7 Z" id="Path"></path>
                <path d="M0.5,37.6 L25.6,37.6 C25.8,37.6 26,37.8 26,38 L26,40 C26,40.2 25.8,40.4 25.6,40.4 L0.5,40.4 C0.3,40.4 0.1,40.2 0.1,40 L0.1,38 C0.1,37.8 0.3,37.6 0.5,37.6 Z" id="Path"></path>
                <path d="M0.5,17.5 L25.7,17.5 C25.9,17.5 26.1,17.3 26.1,17.1 L26.1,16.9 C24.5,9.8 17.4,5.3 10.3,6.9 C5.3,8 1.4,11.9 0.3,16.9 C0.3,17 0.3,17 0.3,17.1 L0.3,17.1 C0.2,17.2 0.3,17.4 0.5,17.5 Z" id="Path"></path>
                <path d="M24.9,36.4 C25.1,36.4 25.3,36.2 25.3,36 C25.3,36 25.3,36 25.3,36 L25.3,22.4 C25.3,22.2 25.1,22 24.9,22 L24.9,22 L1.5,22 C1.3,22 1.1,22.2 1.1,22.4 L1.1,36 C1.1,36.2 1.3,36.4 1.5,36.4 L1.5,36.4 L24.9,36.4 Z M18.1,23.8 L22.1,23.8 L22.1,34.6 L18.1,34.6 L18.1,23.8 Z M11.3,23.8 L15.3,23.8 L15.3,34.6 L11.3,34.6 L11.3,23.8 Z M4.6,23.8 L8.6,23.8 L8.6,34.6 L4.6,34.6 L4.6,23.8 Z" id="Shape"></path>
                <path d="M14.6,4.8 C15.5,4.8 16.4,5.1 17.1,5.7 C17.7,6.1 18.5,6.4 19.3,6.4 L21.2,6.4 L21.2,1.6 L19.3,1.6 C18.2,1.6 17.2,1.2 16.4,0.5 C15.8,0.1 15,0 14.3,0 L13.1,0 L13.1,4.8 C13.6,4.8 14.1,4.8 14.6,4.8 Z" id="Path"></path>
            </g>
            <g id="Group" transform="translate(7.700000, 55.000000)" fill="#FFFFFF">
                <g id="Path">
                    <path d="M9.8,6.7 C11.2,6.7 12.4,5.6 12.4,4.1 C12.4,3.2 11.9,2.3 11.1,1.8 C11.2,1.7 11.2,1.5 11.2,1.4 C11.1,0.8 10.5,0.3 9.9,0.4 C9.3,0.3 8.7,0.8 8.6,1.4 C8.6,1.5 8.6,1.7 8.7,1.8 C7.4,2.4 6.9,3.9 7.5,5.2 C7.9,6.1 8.8,6.7 9.8,6.7 Z"></path>
                    <path d="M17.1,16.1 L15,9.2 C15,9.2 14.2,7.2 12.6,7.2 L7,7.2 C5.3,7.2 4.6,9.2 4.6,9.2 L2.5,16.1 C2.5,16.1 2.2,17.2 3,17.6 C3,17.6 2.9,17.7 2.9,17.7 L0.4,30.8 C0.4,31 0.5,31.2 0.7,31.3 L0.8,31.3 C1,31.3 1.2,31.2 1.2,31 L3.7,17.9 C3.7,17.9 3.7,17.8 3.7,17.8 C4.4,17.7 4.6,16.8 4.6,16.8 L6.3,11.1 C6.3,11.1 6.4,10.7 6.7,10.8 C7,10.9 6.9,11.4 6.9,11.4 L3.9,22.2 L6.7,22.2 L6.7,30 C6.6,30.7 7.2,31.4 7.9,31.5 C8.6,31.6 9.3,31 9.4,30.3 C9.4,30.2 9.4,30.1 9.4,30.1 L9.4,22 L10.2,22 L10.2,29.8 C10.1,30.5 10.7,31.2 11.4,31.3 C12.1,31.4 12.8,30.8 12.9,30.1 C12.9,30 12.9,29.9 12.9,29.9 L12.9,22 L15.7,22 L12.7,11.2 C12.7,11.2 12.6,10.7 12.9,10.6 C13.2,10.5 13.3,10.9 13.3,10.9 L15.1,16.7 C15.1,16.7 15.4,17.9 16.5,17.6 C17.6,17.3 17.1,16.1 17.1,16.1 Z"></path>
                </g>
                <g transform="translate(30.000000, 1.000000)" id="Path">
                    <path d="M7.7,5.3 C9.1,5.3 10.2,4.2 10.2,2.8 C10.2,1.4 9.1,0.3 7.7,0.3 C6.3,0.3 5.2,1.4 5.2,2.8 C5.2,2.8 5.2,2.8 5.2,2.8 C5.1,4.2 6.3,5.3 7.7,5.3 Z"></path>
                    <path d="M14.8,15.4 L12.7,8.6 C12.7,8.6 11.9,6.6 10.3,6.6 L5,6.6 C3.3,6.6 2.6,8.6 2.6,8.6 L0.5,15.4 C0.5,15.4 0.1,16.6 1.2,17 C2.3,17.4 2.6,16.1 2.6,16.1 L4.3,10.4 C4.3,10.4 4.4,10 4.7,10.1 C5,10.2 4.9,10.7 4.9,10.7 L2,21.4 L4.7,21.4 L4.7,29.1 C4.8,29.8 5.4,30.4 6.1,30.3 C6.7,30.2 7.2,29.7 7.3,29.1 L7.3,21.4 L8,21.4 L8,29.1 C8,29.8 8.6,30.4 9.3,30.4 C10,30.4 10.6,29.8 10.6,29.1 L10.6,21.4 L13.3,21.4 L10.4,10.7 C10.4,10.7 10.3,10.2 10.6,10.1 C10.9,10 11,10.4 11,10.4 L12.7,16.1 C12.7,16.1 13,17.3 14.1,17 C15.2,16.7 14.8,15.4 14.8,15.4 Z"></path>
                </g>
                <g transform="translate(18.000000, 13.000000)" id="Path">
                    <path d="M10.1,3.5 C9.7,3.3 9.2,3.4 9,3.8 C9,3.8 9,3.8 9,3.8 C8.6,4.5 8.1,5.2 7.7,5.9 C7.5,6.1 7.3,6.2 7,6.2 L4.4,6.2 C4.1,6.2 3.9,6.1 3.7,5.9 C3.4,5.6 2.4,3.8 2.3,3.8 C2.2,3.6 1.9,3.4 1.6,3.5 C1.2,3.5 0.8,3.8 0.8,4.3 C0.8,4.4 0.8,4.5 0.9,4.6 L3,8.5 C3.1,8.7 3.1,8.8 3.1,9 L3.1,9.6 L3.1,9.6 C3.1,9.8 3.1,10 3,10.3 L2,14.3 L3.1,14.3 L3.1,17.3 L3.1,17.3 C3.1,17.9 3.5,18.3 4.1,18.3 C4.7,18.3 5.1,17.9 5.1,17.3 L5.1,14.3 L6,14.3 C6,14.3 6,14.4 6,14.4 L6,17.3 C6,17.9 6.5,18.3 7,18.3 C7.6,18.3 8,17.8 8,17.3 L8,14.3 L9.1,14.3 L8.1,10.3 C8,10.1 8,9.9 8,9.8 L8,9.6 L8,9.6 L8,9.1 C8,8.9 8.1,8.7 8.1,8.6 L10.1,5 L10.3,4.6 C10.6,4.1 10.5,3.7 10.1,3.5 C10.1,3.5 10.1,3.5 10.1,3.5 Z"></path>
                    <path d="M5.8,4.9 C7,4.9 7.9,4 7.9,2.8 C7.9,1.6 7,0.7 5.8,0.7 C4.6,0.7 3.7,1.6 3.7,2.8 C3.7,2.8 3.7,2.8 3.7,2.8 C3.6,3.9 4.6,4.9 5.8,4.9 C5.8,4.9 5.8,4.9 5.8,4.9 Z"></path>
                </g>
                <g transform="translate(45.000000, 8.000000)" id="Path">
                    <path d="M9.6,5.2 C10.9,5.2 12,4.1 12,2.8 C12,1.5 10.9,0.4 9.6,0.4 C8.3,0.4 7.2,1.5 7.2,2.8 C7.2,4.1 8.2,5.2 9.6,5.2 C9.6,5.2 9.6,5.2 9.6,5.2 Z"></path>
                    <path d="M19.7,20.1 L18.7,18.1 L18.7,18.1 L16.3,13.3 C16.1,12.9 15.6,12.6 15.1,12.7 L11.6,12.7 L11.5,8.4 C11.5,7.1 11.2,6.3 10.2,6.1 C9.7,6 9.2,6 8.7,6.1 L8.6,6.1 L8.6,6.1 L4.5,7.4 L4.4,7.4 L4.3,7.4 L4.3,7.4 C4.1,7.5 3.9,7.7 3.9,7.9 L2.7,11.2 C2.5,11.7 2.8,12.3 3.3,12.5 C3.8,12.7 4.4,12.4 4.6,11.9 L4.6,11.9 L5.6,9.1 L7.1,8.6 L7.2,8.6 L7.2,13.2 C7.2,14.2 7.5,15.3 8.6,15.5 L8.9,15.6 C9.1,15.6 9.3,15.6 9.4,15.6 L14.5,15.6 L15.8,18.2 C15.8,18.2 15.8,18.3 15.8,18.3 L16.3,19.2 L16.8,20.1 L16.8,20.2 L16.8,20.2 L17.3,21.2 C17.6,21.8 18.3,22.1 19,21.9 C19.7,21.5 20,20.8 19.7,20.1 C19.7,20.1 19.7,20 19.7,19.9 L19.7,20.1 Z"></path>
                    <path d="M12.3,17.2 C12.3,17.3 12.3,17.4 12.3,17.4 C12.3,20.1 10.1,22.3 7.4,22.4 C4.7,22.4 2.5,20.2 2.4,17.5 C2.4,16.4 2.8,15.3 3.5,14.4 L2.3,13.4 C0.1,16.2 0.6,20.3 3.4,22.5 C6.2,24.7 10.3,24.2 12.5,21.4 C13.4,20.3 13.9,18.9 13.9,17.4 C13.9,17.3 13.9,17.2 13.9,17.2 L12.3,17.2 Z"></path>
                </g>
                <g transform="translate(64.000000, 0.000000)" id="Path">
                    <path d="M6.9,5.5 C8.3,5.5 9.5,4.3 9.5,2.9 C9.5,1.5 8.3,0.3 6.9,0.3 C5.5,0.3 4.3,1.5 4.3,2.9 C4.3,4.3 5.4,5.5 6.9,5.5 C6.9,5.5 6.9,5.5 6.9,5.5 Z"></path>
                    <path d="M9.9,6.5 L3.8,6.5 C2,6.7 0.6,8.2 0.6,10 L0.6,17.2 C0.6,17.8 1,18.2 1.6,18.2 C2.2,18.2 2.6,17.8 2.6,17.2 L2.6,11 C2.6,10.8 2.7,10.4 3.1,10.4 C3.5,10.4 3.4,10.7 3.5,10.9 L3.5,29.6 C3.5,30.4 4.2,31.1 5,31.1 C5.8,31.1 6.5,30.4 6.5,29.6 L6.5,18.9 C6.5,18.7 6.6,18.5 6.8,18.5 C6.8,18.5 6.8,18.5 6.9,18.5 L6.9,18.5 C7.1,18.5 7.3,18.7 7.3,18.9 C7.3,18.9 7.3,18.9 7.3,19 L7.3,29.8 C7.3,30.6 8,31.3 8.8,31.3 C9.6,31.3 10.3,30.6 10.3,29.8 L10.3,11 C10.3,10.8 10.4,10.5 10.7,10.5 C11,10.5 11.2,10.8 11.2,11.1 L11.2,17.3 C11.2,17.9 11.6,18.3 12.2,18.3 C12.8,18.3 13.2,17.9 13.2,17.3 L13.2,10 C13.1,8.2 11.7,6.7 9.9,6.5 Z"></path>
                </g>
            </g>
            <g id="Group" transform="translate(10.700000, 23.000000)" fill="#FFFFFF">
                <path d="M16.2,22.8 C15.7,23.1 15.1,23.4 14.5,23.6 C12.8,24.1 11,24.3 9.1,24.3 C8.2,24.3 7.3,24.2 6.4,24.1 C5.9,24 5.3,23.9 4.8,23.8 C4.5,23.7 4.3,23.7 4,23.6 C3.3,23.4 2.5,23.1 1.9,22.6 C1.7,22.4 1.5,22.2 1.3,22 L1.3,22.7 C1.3,22.9 1.3,23.7 1.3,23.7 C1.3,24.2 1.6,24.6 1.9,24.8 C3.1,25.7 4.6,26.2 6.1,26.3 C7.1,26.5 8.1,26.5 9.1,26.5 C10.6,26.5 12.1,26.3 13.5,26 L13.5,26 C14.3,25.8 15.1,25.6 15.9,25.2 L15.9,25.2 C16.6,24.8 17.1,24.2 17.1,23.7 C17.1,23.7 17.2,22.1 17.1,22 C16.9,22.3 16.6,22.6 16.2,22.8 Z" id="Path"></path>
                <path d="M8.5,17.5 C12.8,17.5 16.4,16.2 16.4,14.6 C16.4,14.6 16.5,13.1 16.5,12.8 C16.5,12.6 16.4,12.4 16.4,12.2 C16.9,11.9 17.2,11.4 17.3,10.9 C17.3,10.9 17.4,9.2 17.3,8.9 C17.1,6.9 13.1,5.9 9.4,5.9 C5.7,5.9 1.5,7 1.5,9.1 C1.5,9.2 1.6,10.9 1.6,10.9 C1.6,11 1.6,11.1 1.7,11.2 C1.1,11.5 0.7,12.1 0.7,12.8 C0.7,12.9 0.8,14.6 0.8,14.6 C0.8,15 1.1,15.5 1.4,15.7 C2.6,16.6 4.1,17.1 5.6,17.3 C6.5,17.5 7.5,17.5 8.5,17.5 Z M9.4,6.7 C13.6,6.7 16.5,7.9 16.5,9.1 C16.5,10.3 13.6,11.5 9.4,11.5 C5.2,11.5 2.3,10.3 2.3,9.1 C2.3,7.9 5.2,6.7 9.4,6.7 Z M1.4,12.8 C1.5,12.4 1.7,12.1 2,11.9 C2.2,12.1 2.5,12.3 2.8,12.5 C4.8,13.4 7.1,13.9 9.3,13.8 C11.2,13.8 13.1,13.5 14.8,13 C15,12.9 15.3,12.8 15.5,12.7 C15.5,12.8 15.5,12.8 15.5,12.9 C15.5,14 12.6,15.3 8.4,15.3 C4.2,15.3 1.4,13.9 1.4,12.8 Z" id="Shape"></path>
                <path d="M6.2,23.5 C7.2,23.7 8.2,23.7 9.2,23.7 C10.7,23.7 12.2,23.5 13.6,23.2 L13.6,23.2 C14.4,23 15.1,22.7 15.8,22.3 L15.8,22.3 C16,22.2 16.1,22.1 16.3,22 C16.6,21.8 16.8,21.5 16.9,21.2 C17,21.1 17,20.9 17,20.8 C17,20.8 17,19.2 17,19.1 C16.7,19.4 16.1,20.4 13,21.1 C11.7,21.3 10.3,21.4 9,21.4 C6.5,21.4 3.9,20.9 2.7,20.2 C2.3,20 2,19.8 1.7,19.5 C1.5,19.3 1.4,19.1 1.2,18.9 C1.2,18.9 1.2,19.7 1.2,19.7 L1.2,20.8 C1.3,21.2 1.5,21.6 1.9,21.9 C3.2,22.9 4.7,23.4 6.2,23.5 Z" id="Path"></path>
                <path d="M17,15.6 C16.8,15.4 16.7,15.3 16.5,15.3 C16.4,15.5 16.3,15.6 16.1,15.8 C16.2,15.8 16.3,15.9 16.4,16 C16.6,16.1 16.8,16.3 16.8,16.6 C16.8,16.8 16.7,17 16.5,17.1 C16.4,17.2 16.3,17.3 16.2,17.3 L15.7,17.6 C15.7,17.6 15.2,17.8 15,17.9 C15,17.9 14.5,18.1 14.3,18.1 C14.1,18.1 13.6,18.3 13.4,18.3 L12.2,18.5 L11,18.5 C10.9,18.5 9.7,18.6 9.2,18.6 C8.4,18.6 7.5,18.5 6.7,18.4 C6.1,18.3 5.5,18.2 4.9,18.1 C4.3,18 3.6,17.8 3,17.5 C2.6,17.3 2.3,17.1 2,16.8 C1.8,16.6 1.5,16.3 1.4,16 L1.4,17 L1.4,18 C1.4,18.5 1.7,18.9 2,19.1 C3.2,20 4.7,20.5 6.2,20.7 C7.2,20.8 8.2,20.9 9.2,20.9 C10.7,20.9 12.2,20.7 13.6,20.4 L13.6,20.4 C14.4,20.2 15.2,19.9 15.9,19.5 L15.9,19.5 C16.1,19.4 16.2,19.3 16.4,19.2 C16.7,19 16.9,18.7 17,18.4 C17.1,18.3 17.1,18.1 17.1,17.9 C17.1,17.9 17.2,16.2 17.2,16.2 C17.2,16.1 17.2,15.9 17.1,15.8 C17.2,15.8 17.1,15.7 17,15.6 Z" id="Path"></path>
                <path d="M26.6,11.9 C30.9,11.9 34.4,10.6 34.4,9 C34.4,9 34.5,7.5 34.5,7.2 C34.5,7 34.4,6.8 34.4,6.6 C34.9,6.3 35.2,5.8 35.3,5.3 C35.3,5.3 35.4,3.6 35.3,3.3 C35.1,1.3 31.1,0.3 27.4,0.3 C23.7,0.3 19.5,1.4 19.5,3.5 C19.5,3.6 19.6,5.3 19.6,5.3 C19.6,5.4 19.6,5.5 19.7,5.6 C19.1,5.9 18.7,6.5 18.7,7.2 C18.7,7.3 18.8,9 18.8,9 C18.8,9.4 19.1,9.9 19.4,10.1 C20.6,11 22.1,11.5 23.6,11.6 C24.5,11.8 25.6,11.9 26.6,11.9 Z M27.4,1 C31.6,1 34.5,2.2 34.5,3.4 C34.5,4.6 31.6,5.8 27.4,5.8 C23.2,5.8 20.3,4.5 20.3,3.4 C20.3,2.3 23.2,1 27.4,1 Z M19.5,7.1 C19.5,6.8 19.7,6.5 20.1,6.2 C20.3,6.4 20.6,6.6 20.9,6.8 C22.9,7.7 25.2,8.2 27.4,8.1 C29.3,8.1 31.2,7.8 33,7.2 C33.2,7.1 33.5,7 33.7,6.9 C33.7,7 33.7,7 33.7,7.1 C33.7,8.2 30.8,9.5 26.6,9.5 C22.4,9.5 19.5,8.3 19.5,7.1 Z" id="Shape"></path>
                <path d="M35.3,10.3 C35.3,10.2 35.2,10.1 35.1,10 C35,9.9 35,9.9 34.9,9.8 C34.8,9.7 34.7,9.7 34.6,9.6 C34.5,9.8 34.4,9.9 34.3,10.1 C34.4,10.1 34.5,10.2 34.6,10.3 C34.8,10.4 35,10.6 35,10.9 C35,11.1 34.9,11.3 34.7,11.4 C34.6,11.5 34.5,11.6 34.4,11.6 C34.4,11.6 34.1,11.8 33.9,11.8 C33.7,11.8 33.4,12 33.2,12.1 L32.5,12.3 C32.4,12.3 31.8,12.5 31.6,12.5 C31.6,12.5 30.8,12.7 30.4,12.7 C30.3,12.7 29.5,12.8 29.2,12.8 C29.1,12.8 27.9,12.9 27.4,12.9 C26.6,12.9 25.7,12.8 24.9,12.7 C24.3,12.6 23.7,12.5 23.1,12.4 C22.5,12.3 21.8,12.1 21.2,11.8 C20.8,11.6 20.5,11.4 20.2,11.1 C20,10.9 19.7,10.6 19.6,10.3 L19.6,11.3 L19.6,12.3 C19.6,12.7 19.9,13.2 20.2,13.4 C21.5,14.3 22.9,14.8 24.4,14.9 C25.4,15.1 26.4,15.1 27.5,15.1 C29,15.1 30.5,14.9 31.9,14.6 L31.9,14.6 C32.7,14.4 33.4,14.1 34.1,13.7 L34.1,13.7 C34.3,13.6 34.4,13.5 34.6,13.4 C34.9,13.2 35.1,12.9 35.2,12.6 C35.3,12.5 35.3,12.3 35.3,12.2 C35.3,12.2 35.4,10.5 35.4,10.5 C35.3,10.5 35.3,10.4 35.3,10.3 Z" id="Path"></path>
                <path d="M34.3,17.2 C33.8,17.5 33.2,17.8 32.6,18 C30.9,18.5 29.1,18.7 27.2,18.7 C26.3,18.7 25.4,18.6 24.5,18.5 C23.9,18.4 23.5,18.3 22.9,18.2 L22.1,18 C21.4,17.8 20.6,17.4 20,17 C19.8,16.8 19.6,16.6 19.4,16.4 L19.4,17 C19.4,17.2 19.4,18 19.4,18 C19.4,18.4 19.7,18.9 20,19.1 C21.2,20 22.7,20.5 24.2,20.7 C25.2,20.9 26.2,20.9 27.2,20.9 C28.7,20.9 30.2,20.7 31.6,20.4 L31.6,20.4 C32.4,20.2 33.1,19.9 33.8,19.5 L33.8,19.5 C34.5,19.1 35,18.5 35,18 C35,18 35.1,16.4 35,16.3 C34.9,16.6 34.6,16.9 34.3,17.2 Z" id="Path"></path>
                <path d="M20.1,16.3 C21.3,17.2 22.8,17.7 24.3,17.9 C25.3,18.1 26.3,18.1 27.3,18.1 C28.8,18.1 30.3,17.9 31.7,17.6 L31.7,17.6 C32.5,17.4 33.3,17.1 34,16.7 L34,16.7 C34.2,16.6 34.3,16.5 34.5,16.4 C34.8,16.2 35,15.9 35.1,15.6 C35.2,15.5 35.2,15.3 35.2,15.2 C35.2,15.2 35.2,13.6 35.2,13.5 C34.9,13.8 34.3,14.9 31.2,15.5 C29.9,15.7 28.5,15.8 27.2,15.8 C24.7,15.8 22.1,15.3 20.9,14.6 C20.5,14.4 20.2,14.2 19.9,13.9 C19.7,13.7 19.6,13.5 19.4,13.3 C19.4,13.3 19.4,14.1 19.4,14.1 L19.4,15.2 C19.5,15.7 19.7,16.1 20.1,16.3 Z" id="Path"></path>
                <path d="M35.3,21.9 C35,22.3 34.7,22.6 34.3,22.8 C33.8,23.1 33.2,23.4 32.6,23.6 C30.9,24.1 29.1,24.3 27.2,24.3 C26.3,24.3 25.5,24.2 24.6,24.1 C24.1,24 23.5,23.9 23,23.8 C22.7,23.7 22.5,23.7 22.2,23.6 C21.5,23.4 20.7,23.1 20.1,22.6 C19.9,22.4 19.7,22.2 19.5,22 L19.5,22.7 C19.5,22.9 19.5,23.7 19.5,23.7 C19.5,24.2 19.8,24.6 20.1,24.8 C21.3,25.7 22.8,26.2 24.3,26.4 C25.3,26.6 26.3,26.6 27.3,26.6 C28.8,26.6 30.3,26.4 31.7,26.1 L31.7,26.1 C32.5,25.9 33.2,25.6 33.9,25.2 L33.9,25.2 C34.6,24.8 35.1,24.2 35.1,23.7 C35.3,23.6 35.4,22 35.3,21.9 Z" id="Path"></path>
                <path d="M24.3,23.5 C25.3,23.6 26.3,23.7 27.4,23.7 C28.9,23.7 30.4,23.5 31.8,23.2 L31.8,23.2 C32.6,23 33.3,22.7 34,22.3 L34,22.3 C34.2,22.2 34.3,22.1 34.5,22 C34.8,21.8 35,21.5 35.1,21.2 C35.2,21.1 35.2,20.9 35.2,20.8 C35.2,20.8 35.2,19.2 35.2,19.1 C34.9,19.4 34.3,20.5 31.2,21.1 C29.9,21.3 28.5,21.4 27.2,21.4 C24.7,21.4 22.1,20.9 20.9,20.2 C20.5,20 20.2,19.8 19.9,19.5 C19.7,19.3 19.6,19.1 19.4,18.9 C19.4,18.9 19.4,19.7 19.4,19.7 L19.4,20.8 C19.4,21.3 19.7,21.7 20.1,21.9 C21.4,22.8 22.8,23.4 24.3,23.5 Z" id="Path"></path>
            </g>
        </g>
    </g>
</svg>