<?xml version="1.0" encoding="UTF-8"?>
<svg width="95px" height="95px" viewBox="0 0 95 95" version="1.1" xmlns="http://www.w3.org/2000/svg" xmlns:xlink="http://www.w3.org/1999/xlink">
    <!-- Generator: Sketch 53.2 (72643) - https://sketchapp.com -->
    <title>goal_3_target_3_3</title>
    <desc>Created with Sketch.</desc>
    <g id="goal_3_target_3_3" stroke="none" stroke-width="1" fill="none" fill-rule="evenodd">
        <g id="Group-19" fill-rule="nonzero">
            <rect id="Rectangle" fill="#4C9F38" x="9.23705556e-14" y="-2.13162821e-14" width="94.8" height="94.8"></rect>
            <g id="Group" transform="translate(4.700000, 7.000000)" fill="#FFFFFF">
                <g transform="translate(41.000000, 0.000000)" id="Shape">
                    <path d="M2.5,40.7 L0.8,40.7 L0.8,36 L2.5,36 L2.5,40.7 Z M2.5,31.9 L0.8,31.9 L0.8,27.2 L2.5,27.2 L2.5,31.9 Z M2.5,23.1 L0.8,23.1 L0.8,18.4 L2.5,18.4 L2.5,23.1 Z"></path>
                    <path d="M2.5,14.4 L0.8,14.4 L0.8,9.7 L2.5,9.7 L2.5,14.4 Z M2.5,5.5 L0.8,5.5 L0.8,0.8 L2.5,0.8 L2.5,5.5 Z"></path>
                </g>
                <g transform="translate(44.000000, 29.000000)">
                    <path d="M20.6,17.7 C25.2,17.7 29,14 29,9.3 C29,4.7 25.3,0.9 20.6,0.9 C16,0.9 12.2,4.6 12.2,9.3 C12.2,9.3 12.2,9.3 12.2,9.3 C12.2,13.9 16,17.7 20.6,17.7 Z" id="Path"></path>
                    <path d="M7.2,35.3 C7.2,34.5 7.4,33.5 8.8,33.5 C9.7,33.5 9.9,34.5 10,35.2 L10,51.1 L31.4,51.1 L31.4,35.2 C31.4,34.6 31.6,33.5 32.6,33.5 C34,33.5 34.2,34.5 34.2,35.3 L34.2,51.1 L40.7,51.1 L40.7,32.1 C40.7,26.3 36.3,21.5 30.6,20.9 C30.4,20.9 30.2,20.9 30,20.8 L11.5,20.8 C11.3,20.8 11.1,20.8 10.9,20.9 C5.1,21.4 0.7,26.3 0.7,32 L0.7,51 L7.2,51 L7.2,35.3 Z M24.5,31.6 C25.1,31.6 25.7,32.2 26.1,32.6 C26.5,32.1 27.1,31.7 27.7,31.6 C28.8,31.6 29.6,32.5 29.6,33.6 C29.6,33.6 29.6,33.7 29.6,33.7 C29.6,34.2 29.4,34.8 29,35.2 L29,35.2 L26.1,38 L23.3,35.2 C22.9,34.8 22.7,34.3 22.7,33.7 C22.6,32.6 23.4,31.7 24.5,31.6 C24.5,31.6 24.5,31.6 24.5,31.6 Z" id="Shape"></path>
                </g>
                <g transform="translate(0.000000, 29.000000)" id="Path">
                    <path d="M13.1,6.3 L17.8,1.6 C15.6,2.4 13.9,4.1 13.1,6.3 Z"></path>
                    <path d="M17.1,16.8 L28.3,5.6 C28,5.1 27.7,4.5 27.3,4 L15.6,15.8 C16.1,16.2 16.6,16.6 17.1,16.8 Z"></path>
                    <path d="M20.9,17.7 L21.1,17.7 L29.2,9.6 C29.2,9.5 29.2,9.4 29.2,9.3 C29.2,8.6 29.1,8 28.9,7.3 L18.8,17.4 C19.5,17.6 20.2,17.7 20.9,17.7 Z"></path>
                    <path d="M28.6,12.5 L24.1,17 C26.1,16.2 27.8,14.6 28.6,12.5 Z"></path>
                    <path d="M23,1.2 C22.3,1 21.6,1 20.9,1 L20.7,1 L12.5,9.2 C12.5,9.3 12.5,9.3 12.5,9.4 C12.5,10.1 12.6,10.8 12.8,11.5 L23,1.2 Z"></path>
                    <path d="M14.4,14.7 L26.2,2.9 C25.7,2.5 25.2,2.2 24.7,1.9 L13.4,13.1 C13.7,13.7 14,14.2 14.4,14.7 Z"></path>
                    <path d="M10.2,48.1 L35.6,22.7 C35.1,22.4 34.5,22.1 34,21.8 L10.2,45.6 L10.2,48.1 L10.2,48.1 Z"></path>
                    <polygon points="7.4 38.6 0.9 45.1 0.9 47.6 7.4 41.1"></polygon>
                    <path d="M10.2,43.2 L32.2,21.2 C31.7,21.1 31.2,21 30.7,20.9 C30.5,20.9 30.3,20.9 30.1,20.9 L30.1,20.9 L10.3,40.7 L10.2,43.2 Z"></path>
                    <polygon points="7.4 50.9 7.4 48.3 4.6 51.1 7.2 51.1"></polygon>
                    <path d="M7.4,35.3 C7.4,34.6 7.6,33.5 9,33.5 C9.3,33.5 9.6,33.6 9.8,33.8 L22.8,20.8 L20.3,20.8 L0.9,40.2 L0.9,42.7 L7.4,36.2 L7.4,35.3 Z"></path>
                    <path d="M11.7,20.9 C11.5,20.9 11.3,20.9 11.1,20.9 L10.4,21 L1.1,30.3 C1,30.9 1,31.5 1,32.1 L1,33 L13,20.9 L11.7,20.9 Z"></path>
                    <polygon points="15.4 20.9 0.9 35.3 0.9 36.1 0.9 37.9 17.9 20.9"></polygon>
                    <polygon points="7.4 46 7.4 43.4 0.9 49.9 0.9 51.1 2.3 51.1"></polygon>
                    <path d="M38.2,24.9 C37.8,24.4 37.4,24 37,23.6 L10.2,50.4 L10.2,51.1 L12.1,51.1 L38.2,24.9 Z"></path>
                    <polygon points="40.8 48.9 38.6 51.1 40.8 51.1"></polygon>
                    <path d="M31.5,36.5 L31.5,35.3 C31.5,34.6 31.7,33.6 32.7,33.6 C33.2,33.6 33.6,33.8 33.9,34.1 L40,28 C39.8,27.4 39.5,26.8 39.2,26.3 L14.4,51.1 L16.9,51.1 L31.5,36.5 Z"></path>
                    <polygon points="31.5 41.4 31.5 38.8 19.2 51.1 21.8 51.1"></polygon>
                    <path d="M2.2,26.8 L6.8,22.2 C4.9,23.3 3.3,24.9 2.2,26.8 Z"></path>
                    <polygon points="10.2 38.4 27.7 20.9 25.1 20.9 10.2 35.8"></polygon>
                    <polygon points="31.5 51.1 31.5 48.6 29 51.1"></polygon>
                    <path d="M34.3,38.6 L40.8,32.1 L40.8,32.1 C40.8,31.3 40.7,30.6 40.6,29.8 L34.3,36 L34.3,38.6 Z"></path>
                    <polygon points="31.5 46.2 31.5 43.7 24.1 51.1 26.7 51.1"></polygon>
                    <polygon points="34.3 48.3 40.8 41.8 40.8 39.3 34.3 45.8"></polygon>
                    <polygon points="40.8 46.6 40.8 44.2 34.3 50.7 34.3 51.1 36.3 51.1"></polygon>
                    <polygon points="40.8 36.1 40.8 34.9 40.8 34.4 34.3 40.9 34.3 43.5 40.8 37"></polygon>
                    <path d="M4,3.3 C4,4 3.4,4.7 2.7,4.7 C2,4.7 1.3,4.1 1.3,3.4 C1.3,2.7 1.9,2 2.6,2 C2.6,2 2.6,2 2.6,2 C3.4,2 4,2.6 4,3.3 Z"></path>
                    <path d="M5.4,10.5 C5.4,11.2 4.8,11.8 4.1,11.8 C3.4,11.8 2.8,11.2 2.8,10.5 C2.8,9.8 3.4,9.2 4.1,9.2 C4.8,9.2 5.4,9.8 5.4,10.5 L5.4,10.5 Z"></path>
                    <path d="M2.8,15.4 C2.8,15.9 2.4,16.3 1.9,16.3 C1.4,16.3 1,15.9 1,15.4 C1,14.9 1.4,14.5 1.9,14.5 C2.4,14.4 2.8,14.9 2.8,15.4 L2.8,15.4 Z"></path>
                    <path d="M11,9.6 C11,10.1 10.6,10.5 10.1,10.5 C9.6,10.5 9.2,10.1 9.2,9.6 C9.2,9.1 9.6,8.7 10.1,8.7 C10.6,8.7 11,9.2 11,9.6 L11,9.6 Z"></path>
                    <path d="M6.9,7 C6.9,7.3 6.6,7.6 6.3,7.6 C6,7.6 5.7,7.3 5.7,7 C5.7,6.7 6,6.4 6.3,6.4 C6.6,6.4 6.9,6.7 6.9,7 Z"></path>
                    <path d="M7.5,12.7 C7.5,13 7.2,13.3 6.9,13.3 C6.6,13.3 6.3,13 6.3,12.7 C6.3,12.4 6.6,12.1 6.9,12.1 C7.2,12.1 7.5,12.4 7.5,12.7 C7.5,12.7 7.5,12.7 7.5,12.7 Z"></path>
                    <path d="M11.3,15.2 C11.3,15.5 11.1,15.8 10.7,15.8 C10.7,15.8 10.7,15.8 10.7,15.8 C10.4,15.8 10.1,15.5 10.1,15.2 C10.1,14.9 10.4,14.6 10.7,14.6 C11,14.6 11.3,14.9 11.3,15.2 Z"></path>
                    <path d="M11.3,3.9 C11.3,4.2 11,4.5 10.7,4.5 L10.7,4.5 C10.4,4.5 10.1,4.2 10.1,3.9 C10.1,3.6 10.4,3.3 10.7,3.3 L10.7,3.3 C11,3.3 11.3,3.6 11.3,3.9 C11.3,3.9 11.3,3.9 11.3,3.9 Z"></path>
                    <path d="M36,7.9 C36,7.2 36.6,6.6 37.3,6.6 C38,6.6 38.6,7.2 38.6,7.9 C38.6,8.6 38,9.2 37.3,9.2 C37.3,9.2 37.3,9.2 37.3,9.2 C36.6,9.2 36,8.6 36,7.9 Z"></path>
                    <path d="M31.4,8.7 C31.4,8.2 31.8,7.8 32.3,7.8 C32.8,7.8 33.2,8.2 33.2,8.7 C33.2,9.2 32.8,9.6 32.3,9.6 C31.8,9.6 31.4,9.2 31.4,8.7 L31.4,8.7 Z"></path>
                    <path d="M35.3,1 C35.3,0.6 35.6,0.2 36.1,0.2 C36.1,0.2 36.1,0.2 36.1,0.2 C36.5,0.2 36.9,0.5 37,0.9 C37.1,1.3 36.7,1.7 36.3,1.8 C36.2,1.8 36.2,1.8 36.1,1.8 C35.6,1.8 35.3,1.4 35.3,1 L35.3,1 Z"></path>
                    <path d="M34.1,11.3 C34.1,11 34.4,10.7 34.7,10.7 C34.7,10.7 34.7,10.7 34.7,10.7 C35,10.7 35.3,11 35.2,11.4 C35.2,11.7 35,11.9 34.7,11.9 C34.4,11.9 34.1,11.7 34.1,11.3 C34.1,11.3 34.1,11.3 34.1,11.3 Z"></path>
                    <path d="M34.1,5 C34.1,4.7 34.4,4.4 34.7,4.4 C35,4.4 35.3,4.7 35.3,5 C35.3,5.3 35,5.6 34.7,5.6 C34.4,5.6 34.1,5.4 34.1,5 C34.1,5 34.1,5 34.1,5 Z"></path>
                    <path d="M31.2,4.1 C31.2,3.8 31.5,3.5 31.8,3.5 L31.8,3.5 C32.1,3.5 32.4,3.8 32.4,4.1 C32.4,4.4 32.1,4.7 31.8,4.7 C31.8,4.7 31.8,4.7 31.8,4.7 C31.5,4.7 31.2,4.4 31.2,4.1 C31.2,4.1 31.2,4.1 31.2,4.1 Z"></path>
                    <path d="M31.9,13.1 C31.9,12.8 32.2,12.5 32.5,12.5 C32.8,12.5 33.1,12.8 33.1,13.1 C33.1,13.4 32.8,13.7 32.5,13.7 C32.1,13.7 31.9,13.5 31.9,13.1 C31.9,13.1 31.9,13.1 31.9,13.1 Z"></path>
                    <path d="M38.8,3.9 C38.8,3.6 39.1,3.3 39.4,3.3 C39.7,3.3 40,3.6 40,3.9 C40,4.2 39.7,4.5 39.4,4.5 C39.1,4.5 38.8,4.2 38.8,3.9 Z"></path>
                    <path d="M38.3,14.6 C38.3,14.3 38.5,14 38.9,14 C38.9,14 38.9,14 38.9,14 C39.2,14 39.5,14.3 39.5,14.6 C39.5,14.9 39.2,15.2 38.9,15.2 C38.5,15.2 38.3,14.9 38.3,14.6 Z"></path>
                    <path d="M37.2,11.3 C37.2,10.9 37.6,10.5 38,10.5 C38.4,10.5 38.8,10.9 38.8,11.3 C38.8,11.7 38.4,12.1 38,12.1 C37.5,12.1 37.2,11.8 37.2,11.3 L37.2,11.3 Z"></path>
                </g>
                <g transform="translate(3.000000, 6.000000)" id="Path">
                    <polygon points="10.4 4.9 3.4 12 5.9 12 13 4.9"></polygon>
                    <polygon points="15.3 4.9 8.2 12 10.8 12 17.8 4.9"></polygon>
                    <polygon points="27.5 2.5 18 12 20.5 12 28.9 3.6"></polygon>
                    <polygon points="20.2 4.9 13.1 12 15.6 12 22.7 4.9"></polygon>
                    <polygon points="24.6 12.8 31.7 5.7 30.2 4.7 22.9 12 24.6 12"></polygon>
                    <path d="M26.1,1.5 L25.3,0.9 C25.2,0.8 25,0.8 24.9,0.8 C24.7,0.9 24.6,1 24.6,1.3 L24.6,3 L26.1,1.5 Z"></path>
                    <path d="M5.6,4.9 L0.7,9.8 L0.7,11.6 C0.7,11.8 0.8,11.9 1,12 L8.1,4.9 L5.6,4.9 Z"></path>
                    <path d="M1,4.9 C0.8,4.9 0.7,5.1 0.7,5.3 L0.7,7.4 L3.2,4.9 L1,4.9 Z"></path>
                    <path d="M34.5,7.9 L34.5,7.9 L33,6.8 L24.7,15.2 L24.7,15.8 C24.7,16.1 24.8,16.2 25,16.3 C25.1,16.3 25.3,16.3 25.4,16.2 L29.7,12.8 L34.7,8.9 C34.8,8.8 34.9,8.7 34.9,8.5 C34.8,8.2 34.7,8 34.5,7.9 Z"></path>
                </g>
            </g>
        </g>
    </g>
</svg>