<?xml version="1.0" encoding="UTF-8"?>
<svg width="95px" height="95px" viewBox="0 0 95 95" version="1.1" xmlns="http://www.w3.org/2000/svg" xmlns:xlink="http://www.w3.org/1999/xlink">
    <!-- Generator: Sketch 53.2 (72643) - https://sketchapp.com -->
    <title>goal_12_target_12_7</title>
    <desc>Created with Sketch.</desc>
    <g id="goal_12_target_12_7" stroke="none" stroke-width="1" fill="none" fill-rule="evenodd">
        <g id="Group-99" fill-rule="nonzero">
            <rect id="Rectangle" fill="#BF8B2E" x="-3.62376795e-13" y="-2.13162821e-14" width="94.8" height="94.8"></rect>
            <g id="Group" transform="translate(16.700000, 10.000000)" fill="#FFFFFF">
                <path d="M48.6,55.5 C46.6,54 44.2,53.2 41.7,53.2 C41.1,53.2 40.6,53.2 40,53.4 L39.8,53.4 C38.2,53.8 35.4,54.4 32.3,58.4 L32.2,58.5 C32.1,58.6 32.1,58.7 32.1,58.7 C32.1,58.8 32.1,58.8 32.2,58.9 L32.3,59 C32.8,59.9 33.3,60.6 33.6,61.3 C33.7,61.5 34,61.6 34.2,61.5 C34.2,61.5 34.3,61.4 34.3,61.4 L34.4,61.3 C37.2,57.5 39.3,57 40.7,56.6 L40.9,56.6 C41.2,56.6 41.5,56.5 41.8,56.5 C43.5,56.5 45.2,57 46.6,58 C48.2,59.3 49,61.3 49,64 C49,68.5 46.8,70.3 45,71 C44.3,71.3 43.5,71.4 42.8,71.4 C41.6,71.4 40.5,71.1 39.4,70.6 L39.3,70.5 C37.7,69.8 35.3,68.4 33.1,63.9 C28.5,54.7 24.6,53.8 22.1,53.2 L22,53.2 C21.5,53.1 20.9,53 20.3,53 C17.9,53 15.5,53.8 13.5,55.2 C11.8,56.5 9.9,59.1 9.9,63.9 C9.6,69.4 13.8,74.1 19.3,74.5 C19.5,74.5 19.8,74.5 20,74.5 C20.8,74.5 21.6,74.4 22.3,74.3 C23.8,74 25.1,73.4 26.3,72.5 L27.6,73.7 C27.8,73.8 28,73.8 28.1,73.7 C28.2,73.6 28.2,73.5 28.2,73.5 L29.2,67.1 L29.2,67 C29.2,66.9 29.2,66.8 29.1,66.7 C29,66.6 28.9,66.6 28.8,66.6 L28.8,66.6 L22.6,68.3 L22.5,68.3 C22.4,68.3 22.4,68.4 22.3,68.4 C22.2,68.5 22.2,68.6 22.2,68.7 C22.2,68.8 22.2,68.9 22.3,69 L23.6,70.2 C23,70.6 22.3,70.9 21.6,71 C21.1,71.1 20.5,71.2 19.9,71.2 C17.9,71.2 15.9,70.3 14.6,68.8 L14.6,68.8 C13.5,67.5 13,65.8 13.2,64 C13.2,61.3 14,59.3 15.6,58 C16.9,57 18.6,56.5 20.2,56.5 C20.5,56.5 20.8,56.5 21.1,56.6 L21.2,56.6 C23.2,57.1 26,57.7 29.9,65.5 C31.9,69.6 34.5,72.3 37.7,73.7 C39.2,74.4 40.9,74.8 42.6,74.8 C43.8,74.8 44.9,74.6 46,74.2 C47.9,73.5 52.3,71.1 52.3,64 C52.3,59.4 50.3,56.8 48.6,55.5 Z" id="Path"></path>
                <g>
                    <path d="M29.5,21.3 L1.1,21.3 C0.8,21.3 0.6,21.5 0.6,21.8 L0.6,23 C0.6,23.3 0.8,23.5 1.1,23.5 L29.5,23.5 C29.8,23.5 30,23.3 30,23 L30,21.8 C30,21.5 29.8,21.3 29.5,21.3 Z" id="Path"></path>
                    <path d="M29.5,42.7 L1.1,42.7 C0.8,42.7 0.6,42.9 0.6,43.2 C0.6,43.2 0.6,43.2 0.6,43.2 L0.6,45.5 C0.6,45.8 0.8,46 1.1,46 L29.5,46 C29.8,46 30,45.8 30,45.5 L30,43.2 C30,42.9 29.8,42.7 29.5,42.7 C29.5,42.7 29.5,42.7 29.5,42.7 Z" id="Path"></path>
                    <path d="M29.9,19.2 C28.1,11.1 20,6.1 11.9,7.9 C6.3,9.2 1.9,13.6 0.6,19.2 C0.6,19.3 0.6,19.3 0.6,19.4 L0.6,19.4 C0.6,19.6 0.8,19.8 1,19.8 L29.5,19.8 C29.7,19.8 29.9,19.6 29.9,19.3 L29.9,19.2 Z" id="Path"></path>
                    <path d="M28.7,24.9 L2.1,24.9 C1.8,24.9 1.6,25.1 1.6,25.4 L1.6,40.8 C1.6,41.1 1.8,41.3 2.1,41.3 L28.6,41.3 C28.9,41.3 29.1,41.1 29.1,40.8 L29.1,25.4 C29.2,25.2 28.9,24.9 28.7,24.9 Z M10.2,39.3 L5.7,39.3 L5.7,27 L10.3,27 L10.2,39.3 Z M17.8,39.3 L13.3,39.3 L13.3,27 L17.8,27 L17.8,39.3 Z M25.5,39.3 L21,39.3 L21,27 L25.5,27 L25.5,39.3 Z" id="Shape"></path>
                    <path d="M15.3,5.6 L15.3,0.1 L16.7,0.1 C17.5,0.1 18.4,0.3 19.1,0.7 C20,1.5 21.1,2 22.3,2 L24.4,2 L24.4,7.4 L22.3,7.4 C21.4,7.4 20.6,7.1 19.9,6.6 C19.1,5.9 18.1,5.6 17.1,5.6 C15.2,5.5 15.3,5.6 15.3,5.6 Z" id="Path"></path>
                </g>
                <g transform="translate(39.000000, 14.000000)">
                    <polygon id="Path" points="1.8 4.3 0.4 4.3 0.4 32 20.8 32 20.8 30.3 1.8 30.3"></polygon>
                    <path d="M3.4,0.9 L3.4,28.6 L23.3,28.6 L23.3,0.9 L3.4,0.9 Z M20.8,24.8 L20.8,24.8 C20.8,24.9 20.7,25 20.6,25 L6,25 C5.9,25 5.8,24.9 5.8,24.8 L5.8,22.7 C5.8,22.6 5.9,22.5 6,22.5 L20.6,22.5 C20.7,22.5 20.8,22.6 20.8,22.7 L20.8,22.7 L20.8,24.8 Z M20.8,20.4 L20.8,20.4 C20.8,20.5 20.7,20.6 20.6,20.6 L6,20.6 C5.9,20.6 5.8,20.5 5.8,20.4 L5.8,18.3 C5.8,18.2 5.9,18.1 6,18.1 C6,18.1 6,18.1 6,18.1 L20.6,18.1 C20.7,18.1 20.8,18.2 20.8,18.3 L20.8,18.3 L20.8,20.4 Z M20.8,16 C20.8,16 20.8,16.1 20.8,16 C20.8,16.2 20.7,16.2 20.6,16.2 L6.1,16.2 C6,16.2 5.9,16.1 5.9,16 L5.9,13.9 C5.9,13.8 6,13.7 6.1,13.7 L20.7,13.7 C20.8,13.7 20.9,13.8 20.9,13.8 C20.9,13.8 20.9,13.8 20.9,13.9 L20.8,16 Z" id="Shape"></path>
                </g>
            </g>
        </g>
    </g>
</svg>