<?xml version="1.0" encoding="UTF-8"?>
<svg width="95px" height="95px" viewBox="0 0 95 95" version="1.1" xmlns="http://www.w3.org/2000/svg" xmlns:xlink="http://www.w3.org/1999/xlink">
    <!-- Generator: Sketch 53.2 (72643) - https://sketchapp.com -->
    <title>goal_12_target_12_b</title>
    <desc>Created with Sketch.</desc>
    <g id="goal_12_target_12_b" stroke="none" stroke-width="1" fill="none" fill-rule="evenodd">
        <g id="Group-102">
            <rect id="Rectangle" fill="#BF8B2E" fill-rule="nonzero" x="-3.62376795e-13" y="-2.13162821e-14" width="94.8" height="94.8"></rect>
            <g id="Group" transform="translate(12.700000, 13.000000)">
                <g transform="translate(14.000000, 22.000000)" fill="#FFFFFF" fill-rule="nonzero">
                    <path d="M33.6,7.1 C35.4,7.1 36.8,5.7 36.8,3.9 C36.8,2.1 35.4,0.7 33.6,0.7 C31.8,0.7 30.4,2.1 30.4,3.9 L30.4,3.9 C30.3,5.7 31.8,7.1 33.6,7.1 Z" id="Path"></path>
                    <path d="M41.2,21.6 L41.2,12.6 C41.2,10.4 39.5,8.5 37.3,8.3 L37.1,8.3 L30,8.3 L29.8,8.3 C27.6,8.5 25.9,10.4 25.9,12.6 L25.9,21.6 C25.9,22.3 26.5,22.8 27.1,22.8 C27.7,22.8 28.3,22.2 28.3,21.6 L28.3,13.9 C28.3,13.6 28.4,13.2 28.9,13.2 C29.3,13.2 29.3,13.6 29.4,13.8 L29.4,36.8 C29.4,37.8 30.2,38.6 31.2,38.6 C32.2,38.6 33,37.8 33,36.8 L33,23.7 C33,23.4 33.2,23.2 33.4,23.2 C33.4,23.2 33.4,23.2 33.5,23.2 L33.5,23.2 C33.8,23.2 34,23.4 34,23.7 C34,23.7 34,23.7 34,23.8 L34,37.1 C34,38.1 34.8,38.9 35.8,38.9 C36.8,38.9 37.6,38.1 37.6,37.1 L37.6,14.1 C37.6,13.9 37.7,13.5 38,13.5 C38.5,13.5 38.6,13.9 38.6,14.2 L38.6,21.9 C38.7,22.6 39.3,23.1 40,23 C40.7,22.8 41.2,22.3 41.2,21.6 L41.2,21.6 Z" id="Path"></path>
                    <path d="M13.2,7.9 C14.9,7.9 16.3,6.5 16.3,4.8 C16.3,3.1 14.9,1.7 13.2,1.7 C11.5,1.7 10.1,3.1 10.1,4.8 L10.1,4.8 C10.1,6.4 11.5,7.9 13.2,7.9 C13.2,7.9 13.2,7.9 13.2,7.9 Z" id="Path"></path>
                    <path d="M19.5,11.8 C19.5,11.8 18.6,9.3 16.5,9.3 L9.9,9.3 C7.8,9.3 6.9,11.8 6.9,11.8 L4.3,20.3 C4.3,20.3 3.8,21.9 5.2,22.3 C6.6,22.7 6.9,21.2 6.9,21.2 L9,14.1 C9,14.1 9.1,13.5 9.5,13.7 C9.9,13.9 9.7,14.4 9.7,14.4 L6,27.6 L9.4,27.6 L9.4,37.1 C9.4,38 10.1,38.7 11,38.7 C11.9,38.7 12.6,38 12.6,37.1 L12.6,27.6 L13.5,27.6 L13.5,37.1 C13.6,38 14.4,38.7 15.3,38.6 C16.1,38.5 16.7,37.9 16.8,37.1 L16.8,27.6 L20.2,27.6 L16.5,14.3 C16.5,14.3 16.3,13.7 16.7,13.6 C17.1,13.5 17.2,14 17.2,14 L19.3,21.1 C19.3,21.1 19.7,22.6 21,22.2 C22.3,21.8 21.8,20.2 21.8,20.2 L19.5,11.8 Z" id="Path"></path>
                    <path d="M2.6,26 C1.8,26 1.1,26.7 1,27.5 L0.1,27.5 L0.1,38.3 L5.1,38.3 L5.1,27.5 L4.2,27.5 C4.2,26.6 3.4,26 2.6,26 Z M3.8,27.5 L1.4,27.5 C1.4,27.3 1.5,27.2 1.5,27.1 C1.8,26.5 2.5,26.3 3.1,26.6 C3.5,26.7 3.7,27.1 3.8,27.5 Z" id="Shape"></path>
                    <path d="M44.4,27.7 C44.3,26.9 43.6,26.2 42.8,26.2 C42,26.2 41.3,26.8 41.2,27.7 L40.3,27.7 L40.3,38.5 L45.3,38.5 L45.3,27.7 L44.4,27.7 Z M41.6,27.7 C41.7,27 42.3,26.6 43,26.6 C43.6,26.7 44,27.1 44.1,27.7 L41.6,27.7 Z" id="Shape"></path>
                </g>
                <g>
                    <rect id="Rectangle" fill="#FFFFFF" fill-rule="nonzero" x="32.6" y="53.2" width="2" height="1"></rect>
                    <rect id="Rectangle" fill="#FFFFFF" fill-rule="nonzero" x="66.6" y="53.2" width="2" height="1"></rect>
                    <rect id="Rectangle" fill="#FFFFFF" fill-rule="nonzero" x="36.6" y="53.2" width="2" height="1"></rect>
                    <rect id="Rectangle" fill="#FFFFFF" fill-rule="nonzero" x="40.6" y="53.2" width="2" height="1"></rect>
                    <rect id="Rectangle" fill="#FFFFFF" fill-rule="nonzero" x="62.6" y="36.9" width="2" height="1"></rect>
                    <rect id="Rectangle" fill="#FFFFFF" fill-rule="nonzero" x="66.6" y="36.9" width="2" height="1"></rect>
                    <rect id="Rectangle" fill="#FFFFFF" fill-rule="nonzero" x="62.6" y="53.2" width="2" height="1"></rect>
                    <rect id="Rectangle" fill="#FFFFFF" fill-rule="nonzero" x="58.6" y="36.9" width="2" height="1"></rect>
                    <rect id="Rectangle" fill="#FFFFFF" fill-rule="nonzero" x="36.6" y="36.9" width="2" height="1"></rect>
                    <rect id="Rectangle" fill="#FFFFFF" fill-rule="nonzero" x="10.6" y="36.9" width="2" height="1"></rect>
                    <rect id="Rectangle" fill="#FFFFFF" fill-rule="nonzero" x="14.6" y="36.9" width="2" height="1"></rect>
                    <rect id="Rectangle" fill="#FFFFFF" fill-rule="nonzero" x="6.6" y="36.9" width="2" height="1"></rect>
                    <rect id="Rectangle" fill="#FFFFFF" fill-rule="nonzero" x="10.6" y="53.2" width="2" height="1"></rect>
                    <rect id="Rectangle" fill="#FFFFFF" fill-rule="nonzero" x="20.2" y="53.2" width="2" height="1"></rect>
                    <rect id="Rectangle" fill="#FFFFFF" fill-rule="nonzero" x="6.6" y="53.2" width="2" height="1"></rect>
                    <rect id="Rectangle" fill="#FFFFFF" fill-rule="nonzero" x="26.6" y="20.6" width="2" height="1"></rect>
                    <rect id="Rectangle" fill="#FFFFFF" fill-rule="nonzero" x="22.6" y="20.6" width="2" height="1"></rect>
                    <rect id="Rectangle" fill="#FFFFFF" fill-rule="nonzero" x="34.6" y="20.6" width="2" height="1"></rect>
                    <rect id="Rectangle" fill="#FFFFFF" fill-rule="nonzero" x="30.6" y="20.6" width="2" height="1"></rect>
                    <rect id="Rectangle" fill="#FFFFFF" fill-rule="nonzero" x="6.6" y="20.6" width="2" height="1"></rect>
                    <rect id="Rectangle" fill="#FFFFFF" fill-rule="nonzero" x="54.6" y="20.6" width="2" height="1"></rect>
                    <rect id="Rectangle" fill="#FFFFFF" fill-rule="nonzero" x="66.6" y="20.6" width="2" height="1"></rect>
                    <rect id="Rectangle" fill="#FFFFFF" fill-rule="nonzero" x="38.6" y="20.6" width="2" height="1"></rect>
                    <rect id="Rectangle" fill="#FFFFFF" fill-rule="nonzero" x="58.6" y="20.6" width="2" height="1"></rect>
                    <rect id="Rectangle" fill="#FFFFFF" fill-rule="nonzero" x="62.6" y="20.6" width="2" height="1"></rect>
                    <rect id="Rectangle" fill="#FFFFFF" fill-rule="nonzero" x="50.6" y="20.6" width="2" height="1"></rect>
                    <rect id="Rectangle" fill="#FFFFFF" fill-rule="nonzero" x="42.6" y="20.6" width="2" height="1"></rect>
                    <rect id="Rectangle" fill="#FFFFFF" fill-rule="nonzero" x="46.6" y="20.6" width="2" height="1"></rect>
                    <rect id="Rectangle" fill="#FFFFFF" fill-rule="nonzero" x="58.6" y="4.2" width="2" height="1"></rect>
                    <rect id="Rectangle" fill="#FFFFFF" fill-rule="nonzero" x="54.6" y="4.2" width="2" height="1"></rect>
                    <rect id="Rectangle" fill="#FFFFFF" fill-rule="nonzero" x="22.6" y="4.2" width="2" height="1"></rect>
                    <rect id="Rectangle" fill="#FFFFFF" fill-rule="nonzero" x="26.6" y="4.2" width="2" height="1"></rect>
                    <rect id="Rectangle" fill="#FFFFFF" fill-rule="nonzero" x="50.6" y="4.2" width="2" height="1"></rect>
                    <rect id="Rectangle" fill="#FFFFFF" fill-rule="nonzero" x="18.6" y="4.2" width="2" height="1"></rect>
                    <rect id="Rectangle" fill="#FFFFFF" fill-rule="nonzero" x="30.6" y="4.2" width="2" height="1"></rect>
                    <rect id="Rectangle" fill="#FFFFFF" fill-rule="nonzero" x="42.6" y="4.2" width="2" height="1"></rect>
                    <rect id="Rectangle" fill="#FFFFFF" fill-rule="nonzero" x="38.6" y="4.2" width="2" height="1"></rect>
                    <rect id="Rectangle" fill="#FFFFFF" fill-rule="nonzero" x="46.6" y="4.2" width="2" height="1"></rect>
                    <rect id="Rectangle" fill="#FFFFFF" fill-rule="nonzero" x="10.6" y="4.2" width="2" height="1"></rect>
                    <rect id="Rectangle" fill="#FFFFFF" fill-rule="nonzero" x="34.6" y="4.2" width="2" height="1"></rect>
                    <rect id="Rectangle" fill="#FFFFFF" fill-rule="nonzero" x="6.6" y="4.2" width="2" height="1"></rect>
                    <rect id="Rectangle" fill="#FFFFFF" fill-rule="nonzero" x="14.6" y="4.2" width="2" height="1"></rect>
                    <path d="M56.8,48.6 C56.2,48.6 55.7,49.1 55.6,49.7 L58,49.7 C57.9,49.1 57.4,48.7 56.8,48.6 Z" id="Path"></path>
                    <polygon id="Path" fill="#FFFFFF" fill-rule="nonzero" points="62.4 66.4 62.4 63.8 61.6 63.8 61.6 66.4 46.2 66.4 46.2 63.8 45.4 63.8 45.4 66.4 30 66.4 30 63.7 29.2 63.7 29.2 66.4 13.8 66.4 13.8 63.5 13 63.5 13 66.4 2.6 66.4 2.6 53.7 4.6 53.7 4.6 53.2 2.6 53.2 2.6 37.4 4.6 37.4 4.6 36.9 2.6 36.9 2.6 25 29.8 18.1 44 10.4 69.1 5.5 69.1 3.8 43.7 8.7 29.5 16.5 2.6 23.3 2.6 21.1 4.6 21.1 4.6 20.6 2.6 20.6 2.6 4.7 4.6 4.7 4.6 4.2 2.6 4.2 2.6 0.2 0.4 0.2 0.4 68.6 69.1 68.6 69.1 66.4"></polygon>
                </g>
            </g>
        </g>
    </g>
</svg>