<?xml version="1.0" encoding="UTF-8"?>
<svg width="95px" height="95px" viewBox="0 0 95 95" version="1.1" xmlns="http://www.w3.org/2000/svg" xmlns:xlink="http://www.w3.org/1999/xlink">
    <!-- Generator: Sketch 53.2 (72643) - https://sketchapp.com -->
    <title>goal_3_target_3_a</title>
    <desc>Created with Sketch.</desc>
    <g id="goal_3_target_3_a" stroke="none" stroke-width="1" fill="none" fill-rule="evenodd">
        <g id="Group-23" fill-rule="nonzero">
            <rect id="Rectangle" fill="#4C9F38" x="9.23705556e-14" y="-2.13162821e-14" width="94.8" height="94.8"></rect>
            <g id="Group" transform="translate(12.700000, 18.000000)" fill="#000000">
                <rect id="Rectangle" x="17.3" y="27.4" width="50.5" height="8.9"></rect>
                <rect id="Rectangle" x="8.6" y="27.4" width="7.1" height="8.9"></rect>
                <path d="M4,0.2 C4,0.2 9.6,4.5 3.2,14.9 C-2.8,24.7 4,31 6.1,31.8 C4.1,26.4 4.7,20.3 7.6,15.4 C10.8,9.9 9.8,1.4 4,0.2 Z" id="Path"></path>
            </g>
            <g id="Group" transform="translate(9.700000, 9.000000)" fill="#1A1818" opacity="0.3">
                <g transform="translate(37.000000, 4.000000)" id="Path">
                    <path d="M17.5,9 C17.5,13.8 13.6,17.6 8.9,17.6 C4.2,17.6 0.3,13.7 0.3,9 C0.3,4.2 4.2,0.4 8.9,0.4 L8.9,0.4 C13.7,0.4 17.5,4.2 17.5,9 L17.5,9 Z"></path>
                </g>
                <g transform="translate(0.000000, 19.000000)" id="Path">
                    <path d="M22.8,11.1 C22.8,17.3 17.9,22.3 11.7,22.3 C5.5,22.3 0.5,17.4 0.5,11.2 C0.5,5 5.4,0 11.6,0 L11.6,0 C17.8,0 22.8,5 22.8,11.1 Z"></path>
                </g>
                <g transform="translate(24.000000, 11.000000)" id="Path">
                    <path d="M28.9,15.1 C28.9,22.9 22.5,29.3 14.7,29.3 C6.9,29.3 0.5,22.9 0.5,15.1 C0.5,7.3 6.9,0.9 14.7,0.9 C22.5,0.9 28.9,7.2 28.9,15.1 L28.9,15.1 Z"></path>
                </g>
                <g transform="translate(6.000000, 48.000000)" id="Path">
                    <path d="M22.2,11.5 C22.2,17.4 17.4,22.3 11.4,22.2 C5.5,22.2 0.7,17.4 0.7,11.4 C0.7,5.5 5.5,0.6 11.5,0.6 L11.5,0.6 C17.4,0.8 22.2,5.6 22.2,11.5 L22.2,11.5 Z"></path>
                </g>
                <g transform="translate(27.000000, 41.000000)" id="Path">
                    <path d="M15,7.8 C15,11.9 11.6,15.3 7.5,15.3 C3.4,15.3 0,11.9 0,7.8 C0,3.7 3.4,0.3 7.5,0.3 L7.5,0.3 C11.6,0.3 15,3.6 15,7.8 C15,7.7 15,7.8 15,7.8 Z"></path>
                </g>
                <g transform="translate(2.000000, 2.000000)" id="Path">
                    <path d="M28.4,15.1 C28.4,22.9 22,29.3 14.2,29.3 C6.4,29.3 0,22.9 0,15.1 C0,7.3 6.4,0.9 14.2,0.9 L14.2,0.9 C22,0.9 28.4,7.2 28.4,15.1 Z"></path>
                </g>
                <g transform="translate(2.000000, 23.000000)" id="Path">
                    <path d="M35.3,18.3 C35.3,28 27.5,35.8 17.8,35.8 C8.1,35.8 0.3,28 0.3,18.3 C0.3,8.6 8.1,0.8 17.8,0.8 L17.8,0.8 C27.4,0.8 35.3,8.7 35.3,18.3 Z"></path>
                </g>
                <g transform="translate(18.000000, 0.000000)" id="Path">
                    <path d="M13.4,6.6 C13.4,10.2 10.5,13.2 6.8,13.2 C3.1,13.2 0.2,10.3 0.2,6.6 C0.2,2.9 3.1,0 6.8,0 L6.8,0 C10.4,0 13.4,2.9 13.4,6.6 Z"></path>
                </g>
            </g>
            <polygon id="Path" fill="#FFFFFF" points="69.9 31.9 67.7 29.8 49.8 47.6 32 29.8 29.8 31.9 47.6 49.8 29.8 67.6 32 69.8 49.8 52 67.7 69.8 69.9 67.6 52 49.8"></polygon>
        </g>
    </g>
</svg>