<?xml version="1.0" encoding="UTF-8"?>
<svg width="95px" height="95px" viewBox="0 0 95 95" version="1.1" xmlns="http://www.w3.org/2000/svg" xmlns:xlink="http://www.w3.org/1999/xlink">
    <!-- Generator: Sketch 53.2 (72643) - https://sketchapp.com -->
    <title>goal_12_target_12_3</title>
    <desc>Created with Sketch.</desc>
    <g id="goal_12_target_12_3" stroke="none" stroke-width="1" fill="none" fill-rule="evenodd">
        <g id="Group-95" fill-rule="nonzero">
            <rect id="Rectangle" fill="#BF8B2E" x="-3.62376795e-13" y="-2.13162821e-14" width="94.8" height="94.8"></rect>
            <g id="Group" transform="translate(18.700000, 12.000000)" fill="#FFFFFF">
                <g>
                    <path d="M55.8,11.5 L1.6,11.5 C1.2,11.5 0.8,11.8 0.8,12.3 L0.8,12.3 L4.6,69.5 C4.6,69.9 4.9,70.3 5.3,70.3 C5.3,70.3 5.3,70.3 5.3,70.3 L52,70.3 C52.4,70.3 52.8,70 52.8,69.5 L56.6,12.3 C56.6,11.8 56.3,11.5 55.8,11.5 Z M49.9,67.2 L7.6,67.2 L4,14.5 L53.4,14.5 L49.9,67.2 Z" id="Shape"></path>
                    <path d="M56.6,3.7 L36.9,3.7 L36.9,1.4 C36.9,1 36.6,0.6 36.1,0.6 L36.1,0.6 L21.2,0.6 C20.8,0.6 20.4,0.9 20.4,1.4 L20.4,3.7 L0.9,3.7 C0.5,3.7 0.1,4 0.1,4.4 C0.1,4.4 0.1,4.4 0.1,4.4 L0.6,7.6 C0.6,8 0.9,8.4 1.4,8.4 L1.4,8.4 L56.1,8.4 C56.5,8.4 56.9,8.1 56.9,7.6 L57.4,4.4 C57.4,4.1 57,3.8 56.6,3.7 C56.6,3.7 56.6,3.7 56.6,3.7 Z" id="Path"></path>
                </g>
                <g transform="translate(14.000000, 26.000000)">
                    <path d="M16.3,3.7 L16.3,3.7 L16.3,3.7 L16.3,3.7 C16.7,4.3 19.1,7.3 22.4,7.3 C25.3,7.3 28.4,4.7 28.4,4.7 C29.1,6.1 30.4,7.1 32,7.3 L32,7.3 C32,7.3 32.1,7.3 32.1,7.2 L32.1,7.2 L32.1,7.2 C31.5,6.2 31.1,5 31,3.8 C31.1,2.6 31.4,1.4 32.1,0.4 C32.1,0.4 32.1,0.3 32.1,0.3 C32.1,0.3 32,0.2 32,0.2 L32,0.2 C30.5,0.5 29.2,1.4 28.4,2.8 C28.4,2.8 25.3,0.2 22.4,0.2 C19,0.1 16.6,3.1 16.3,3.7 M20.5,4.1 C19.9,4.1 19.5,3.7 19.5,3.1 C19.5,2.5 19.9,2.1 20.5,2.1 C21.1,2.1 21.5,2.5 21.5,3.1 C21.5,3.7 21.1,4.1 20.5,4.1" id="Shape"></path>
                    <g transform="translate(0.000000, 14.000000)">
                        <path d="M8.3,9.6 L8.3,13.6 C8.3,15.9 7.2,17.4 4.4,17.4 C1.6,17.4 0.6,15.8 0.6,13.3 L0.6,11.5 L3.1,11.5 L3.1,13.6 C3.1,14.6 3.4,15.2 4.4,15.2 C5.4,15.2 5.6,14.6 5.6,13.7 L5.6,9.7 C5.6,8.8 5.3,8.2 4.4,8.2 C3.5,8.2 3.2,8.7 3.2,9.7 L3.2,10 L0.7,10 L0.7,0.7 L8,0.7 L8,3 L3.2,3 L3.2,7.1 L3.2,7.1 C3.7,6.3 4.6,5.9 5.5,6 C6.9,6 8.3,7 8.3,9.6 Z" id="Path"></path>
                        <path d="M9.4,13 L9.4,5 C9.4,2.4 10.7,0.6 13.5,0.6 C16.3,0.6 17.6,2.5 17.6,5 L17.6,13 C17.6,15.6 16.3,17.4 13.5,17.4 C10.7,17.4 9.4,15.5 9.4,13 Z M14.8,13.4 L14.8,4.5 C14.8,3.5 14.4,2.8 13.5,2.8 C12.6,2.8 12.2,3.5 12.2,4.5 L12.2,13.3 C12.2,14.3 12.6,15 13.5,15 C14.4,15 14.8,14.4 14.8,13.4 L14.8,13.4 Z" id="Shape"></path>
                        <path d="M18.6,4.5 L18.6,3.8 C18.6,1.9 19.6,0.6 21.7,0.6 C23.8,0.6 24.8,1.9 24.8,3.8 L24.8,4.5 C24.8,6.4 23.8,7.7 21.7,7.7 C19.6,7.7 18.6,6.5 18.6,4.5 Z M29.8,0.8 L20.8,17.3 L19.1,17.3 L28.1,0.8 L29.8,0.8 Z M22.6,4.8 L22.6,3.5 C22.6,2.8 22.4,2.3 21.6,2.3 C20.8,2.3 20.6,2.8 20.6,3.5 L20.6,4.8 C20.6,5.5 20.8,6 21.6,6 C22.4,6 22.6,5.6 22.6,4.8 Z M24.2,14.2 L24.2,13.5 C24.2,11.6 25.2,10.3 27.3,10.3 C29.4,10.3 30.4,11.6 30.4,13.5 L30.4,14.2 C30.4,16.1 29.4,17.4 27.3,17.4 C25.2,17.4 24.2,16.1 24.2,14.2 Z M28.2,14.5 L28.2,13.2 C28.2,12.5 28,12 27.3,12 C26.6,12 26.3,12.5 26.3,13.2 L26.3,14.5 C26.3,15.2 26.5,15.7 27.3,15.7 C28.1,15.7 28.2,15.2 28.2,14.5 L28.2,14.5 Z" id="Shape"></path>
                    </g>
                </g>
                <g transform="translate(12.000000, 20.000000)" id="Path">
                    <path d="M5.1,12.6 L5.1,13 L5.1,13 C5.1,13.1 5.2,13.2 5.3,13.2 L9.8,13.2 C9.9,13.2 10,13.2 10,13.1 C10,13.1 10,13.1 10,13.1 L10,13.1 L10,12.7 C12.5,11.9 14.3,9.9 14.8,7.3 L14.8,7.3 L14.8,7.3 C14.8,7.2 14.7,7.1 14.6,7.1 L14.6,7.1 L0.3,7.1 C0.2,7.1 0.1,7.2 0.1,7.3 L0.1,7.3 L0.1,7.4 C0.7,9.9 2.6,11.9 5.1,12.6"></path>
                    <path d="M10,0.9 C9.9,1 8.6,3 10,4.6 C10.5,5.1 10.7,5.8 10.4,6.4 L11.3,6.4 C11.5,5.6 11.3,4.7 10.6,4.1 C9.5,2.9 10.6,1.3 10.6,1.3 C10.7,1.1 10.7,0.9 10.5,0.8 C10.5,0.8 10.5,0.8 10.4,0.8 C10.3,0.7 10.1,0.7 10,0.9"></path>
                    <path d="M7.6,6.4 L8.5,6.4 C8.7,5.6 8.5,4.7 7.8,4.1 C6.7,2.9 7.8,1.3 7.8,1.3 C7.9,1.1 7.9,0.9 7.7,0.8 C7.7,0.8 7.7,0.8 7.6,0.8 C7.4,0.7 7.1,0.7 7,0.9 C6.9,1 5.6,3 7,4.6 C7.6,5 7.8,5.8 7.6,6.4"></path>
                    <path d="M4.3,0.9 C4.2,1 2.9,3 4.3,4.6 C4.8,5.1 5,5.8 4.7,6.4 L5.6,6.4 C5.8,5.6 5.6,4.7 4.9,4.1 C3.8,2.9 4.9,1.3 4.9,1.3 C5,1.1 5,0.9 4.8,0.8 C4.8,0.8 4.8,0.8 4.7,0.8 C4.6,0.7 4.4,0.7 4.3,0.9"></path>
                </g>
            </g>
        </g>
    </g>
</svg>