<?xml version="1.0" encoding="UTF-8"?>
<svg width="95px" height="95px" viewBox="0 0 95 95" version="1.1" xmlns="http://www.w3.org/2000/svg" xmlns:xlink="http://www.w3.org/1999/xlink">
    <!-- Generator: Sketch 53.2 (72643) - https://sketchapp.com -->
    <title>goal_3_target_3_6</title>
    <desc>Created with Sketch.</desc>
    <g id="goal_3_target_3_6" stroke="none" stroke-width="1" fill="none" fill-rule="evenodd">
        <g id="Group-22" fill-rule="nonzero">
            <rect id="Rectangle" fill="#4C9F38" x="9.23705556e-14" y="-2.13162821e-14" width="94.8" height="94.8"></rect>
            <g id="Group" transform="translate(37.700000, 20.000000)" fill="#1A1818" opacity="0.3">
                <g transform="translate(9.000000, 0.000000)" id="Path">
                    <path d="M20.1,10.9 C20.1,16.4 15.6,20.9 10.1,20.9 C4.6,20.9 0.1,16.4 0.1,10.9 C0.1,5.4 4.6,0.9 10.1,0.9 C15.6,0.9 20.1,5.4 20.1,10.9 Z"></path>
                </g>
                <g transform="translate(3.000000, 6.000000)" id="Path">
                    <path d="M12.7,6.8 C12.7,10.1 10.1,12.7 6.8,12.7 C3.5,12.7 0.9,10.1 0.9,6.8 C0.9,3.5 3.5,0.9 6.8,0.9 C10.1,0.9 12.7,3.5 12.7,6.8 L12.7,6.8 Z"></path>
                </g>
                <g id="Path">
                    <path d="M12,5.8 C12,9.1 9.4,11.7 6.2,11.7 C2.9,11.7 0.3,9.1 0.3,5.9 C0.3,2.6 2.9,0 6.1,0 C6.1,0 6.2,0 6.2,0 C9.4,0 12,2.6 12,5.8 Z"></path>
                </g>
                <g transform="translate(22.000000, 13.000000)" id="Path">
                    <path d="M11.3,6.1 C11.3,9.1 8.9,11.5 5.9,11.5 C2.9,11.5 0.5,9.1 0.5,6.1 C0.5,3.1 2.9,0.7 5.9,0.7 C5.9,0.7 5.9,0.7 5.9,0.7 C8.9,0.6 11.3,3.1 11.3,6.1 C11.3,6.1 11.3,6.1 11.3,6.1 Z"></path>
                </g>
            </g>
            <g id="Group" transform="translate(19.700000, 26.000000)" fill="#000000">
                <g transform="translate(0.000000, 6.000000)" id="Shape">
                    <path d="M38,25.3 C40.9,26.8 44.5,25.6 46,22.6 C47.5,19.7 46.3,16.1 43.3,14.6 C40.4,13.1 36.8,14.3 35.3,17.2 C33.9,20.3 35.1,23.9 38,25.3 C38,25.3 38,25.3 38,25.3 Z M42.1,17.2 C43.6,18 44.3,19.9 43.5,21.4 C42.7,22.9 40.8,23.6 39.3,22.8 C37.8,22 37.1,20.1 37.9,18.6 C38.6,17.1 40.5,16.4 42.1,17.2 C42.1,17.2 42.1,17.2 42.1,17.2 L42.1,17.2 Z"></path>
                    <path d="M11.4,12 C14.3,13.5 17.9,12.3 19.4,9.3 C20.9,6.4 19.7,2.8 16.7,1.3 C13.8,-0.2 10.2,1 8.7,3.9 C7.3,6.9 8.4,10.5 11.4,12 C11.4,12 11.4,12 11.4,12 Z M15.5,3.9 C17,4.7 17.7,6.6 16.9,8.1 C16.1,9.6 14.2,10.3 12.7,9.5 C11.2,8.7 10.5,6.8 11.3,5.3 C12,3.7 13.9,3.1 15.5,3.9 C15.5,3.8 15.5,3.8 15.5,3.9 L15.5,3.9 Z"></path>
                    <path d="M1.2,10.1 C1.8,10.6 2.4,11.2 2.9,11.9 C2.9,11.9 3.1,12.2 3.3,12.7 C4.5,15.4 5.8,17.9 7.2,20.4 C9.1,23.4 11.9,25.7 15.1,27.2 C18.2,28.9 21.7,29.9 25.2,30.1 C28,30.2 32.1,28.2 32.4,28.2 C32.7,28.2 32.7,28.2 33.4,28.4 C34.1,28.6 42.3,31.6 46.3,30.8 C47.2,30.5 47.9,30.1 48.6,29.5 C49,29.1 49.3,28.6 49.5,28.2 C49.9,27.5 51.1,25 51.1,25 C51.1,25 51.5,24.1 51,23.8 L47.4,22 L47.4,22 L47.2,22 L47.2,22 L46.7,23.1 L46.7,23.1 C44.7,26.3 40.6,27.3 37.4,25.3 C34.6,23.6 33.5,20.1 34.7,17 L34.7,17 L35.2,16 L35.2,15.9 L35,15.6 L34.9,15.5 L21,8.5 L20.9,8.4 C20.8,8.3 20.6,8.4 20.6,8.5 L20.6,8.5 L20.5,8.6 L20,9.6 L20,9.7 C18,12.9 13.9,13.8 10.7,11.8 C7.9,10.1 6.8,6.6 8,3.6 C8,3.5 8.1,3.4 8.1,3.3 L8.4,2.7 L8.5,2.5 C8.6,2.4 8.5,2.2 8.4,2.2 L8.3,2.1 L6.1,1 C5.4,0.7 4.1,0.5 3.2,2.3 L0.7,7.3 C0.1,8.3 0.3,9.5 1.2,10.1 Z M30.5,25.9 C30.9,26.1 30.3,26.3 30.3,26.3 C29.5,26.7 24.7,29.1 17.8,25.9 L20.4,20.8 L30.5,25.9 Z M9,15.1 L18.8,20 L16.2,25.1 C12.5,23.1 9.7,19.6 8.7,15.5 C8.5,14.9 9,15.1 9,15.1 Z"></path>
                </g>
                <polygon id="Path" points="49.1 25.7 54.1 20.9 55.5 23.4"></polygon>
                <circle id="Oval" cx="49.9" cy="21.5" r="1"></circle>
                <circle id="Oval" cx="51.9" cy="16.9" r="1"></circle>
                <circle id="Oval" cx="55.2" cy="17" r="1"></circle>
                <circle id="Oval" cx="59.3" cy="12" r="1"></circle>
                <circle id="Oval" cx="50.4" cy="8.2" r="1"></circle>
                <circle id="Oval" cx="55" cy="12.3" r="1"></circle>
                <circle id="Oval" cx="22.3" cy="1.2" r="1"></circle>
                <circle id="Oval" cx="45.3" cy="6.6" r="1"></circle>
                <circle id="Oval" cx="49.8" cy="3.9" r="1"></circle>
                <circle id="Oval" cx="26.5" cy="8" r="1"></circle>
                <circle id="Oval" cx="47" cy="12.4" r="1"></circle>
                <path d="M3.9,37 L51.3,37 C51.6,37 51.8,37.2 51.8,37.5 L51.8,40.4 C51.8,40.7 51.6,40.9 51.3,40.9 L3.9,40.9 C3.6,40.9 3.4,40.7 3.4,40.4 L3.4,37.5 C3.4,37.2 3.6,37 3.9,37 Z" id="Path"></path>
            </g>
            <path d="M73.5,19.1 C58,4.6 33.7,5.4 19.2,20.9 C4.7,36.4 5.5,60.7 21,75.3 C36.5,89.9 60.8,89 75.4,73.5 C82,66.3 85.7,57 85.7,47.2 C85.7,36.6 81.3,26.4 73.5,19.1 Z M20.7,69.9 C8.3,55.1 10.4,33 25.2,20.6 C38.1,9.9 56.8,9.8 69.8,20.4 L20.7,69.9 Z M47.3,82.2 C38.3,82.2 29.6,78.7 23.1,72.5 L72.3,22.9 C85.7,36.8 85.4,59 71.5,72.4 C65,78.6 56.3,82.2 47.3,82.2 L47.3,82.2 Z" id="Shape" fill="#FFFFFF"></path>
        </g>
    </g>
</svg>