<?xml version="1.0" encoding="UTF-8"?>
<svg width="95px" height="95px" viewBox="0 0 95 95" version="1.1" xmlns="http://www.w3.org/2000/svg" xmlns:xlink="http://www.w3.org/1999/xlink">
    <!-- Generator: Sketch 53.2 (72643) - https://sketchapp.com -->
    <title>goal_17_target_17_14</title>
    <desc>Created with Sketch.</desc>
    <g id="goal_17_target_17_14" stroke="none" stroke-width="1" fill="none" fill-rule="evenodd">
        <g id="Group-156" fill-rule="nonzero">
            <rect id="Rectangle" fill="#19486A" x="1.45661261e-12" y="-2.13162821e-14" width="94.8" height="94.8"></rect>
            <g id="Group" transform="translate(7.700000, 10.000000)" fill="#FFFFFF">
                <g transform="translate(0.000000, 23.000000)">
                    <g transform="translate(24.000000, 0.000000)" id="Path">
                        <path d="M8.5,10.9 C8.9,10.3 9.3,9.7 9.8,9.2 L5.4,4.4 C4.3,5.5 3.3,6.7 2.6,8.1 L8.5,10.9 Z"></path>
                        <path d="M19.2,7.5 C19.9,7.8 20.5,8.2 21,8.7 L25.4,3.9 C24.2,2.9 22.9,2.1 21.5,1.5 L19.2,7.5 Z"></path>
                        <path d="M29.3,8.9 L23.5,11.8 C23.8,12.5 24,13.2 24.1,13.9 L30.6,13.3 C30.4,11.8 30,10.3 29.3,8.9"></path>
                        <path d="M23.1,11 L28.9,8.1 C28.2,6.8 27.2,5.5 26.2,4.5 L21.8,9.3 C22.3,9.8 22.7,10.4 23.1,11"></path>
                        <path d="M7.3,15.2 C7.3,15.1 7.3,14.9 7.3,14.8 L0.8,14.2 C0.8,14.5 0.8,14.9 0.8,15.2 C0.8,16.4 0.9,17.6 1.2,18.8 L7.5,17 C7.4,16.4 7.3,15.8 7.3,15.2"></path>
                        <path d="M22.3,20.5 C21.8,21.1 21.3,21.6 20.7,22 L24.1,27.6 C25.4,26.7 26.5,25.7 27.5,24.5 L22.3,20.5 Z"></path>
                        <path d="M24.2,15.2 C24.2,15.8 24.2,16.4 24,17 L30.3,18.8 C30.6,17.6 30.7,16.4 30.7,15.2 C30.7,14.9 30.7,14.6 30.7,14.3 L24.2,14.9 C24.2,15 24.2,15.1 24.2,15.2"></path>
                        <path d="M9.3,20.6 L4.1,24.6 C5.1,25.8 6.2,26.8 7.5,27.7 L11,22.1 C10.4,21.7 9.8,21.2 9.3,20.6"></path>
                        <path d="M7.4,13.8 C7.5,13.1 7.7,12.4 8,11.7 L2.2,8.8 C1.5,10.2 1.1,11.7 0.9,13.2 L7.4,13.8 Z"></path>
                        <path d="M23.3,28.1 L19.9,22.5 C19.3,22.9 18.6,23.1 17.9,23.3 L19.1,29.7 C20.6,29.4 22,28.8 23.3,28.1"></path>
                        <path d="M23.7,17.9 C23.5,18.6 23.2,19.2 22.8,19.8 L28,23.7 C28.9,22.5 29.5,21.1 30,19.7 L23.7,17.9 Z"></path>
                        <path d="M17,23.5 C16.6,23.6 16.2,23.6 15.8,23.6 C15.5,23.6 15.1,23.6 14.8,23.5 L13.5,30 C14.2,30.1 15,30.2 15.7,30.2 C16.5,30.2 17.3,30.1 18.1,30 L17,23.5 Z"></path>
                        <path d="M16.3,6.7 C17,6.7 17.7,6.9 18.4,7.1 L20.7,1 C19.3,0.5 17.8,0.2 16.3,0.2 L16.3,6.7 Z"></path>
                        <path d="M13.8,23.4 C13.1,23.2 12.4,23 11.7,22.6 L8.3,28.2 C9.6,29 11.1,29.5 12.6,29.8 L13.8,23.4 Z"></path>
                        <path d="M13.2,7.1 C13.9,6.9 14.6,6.8 15.3,6.7 L15.3,0.2 C13.8,0.2 12.2,0.5 10.8,1 L13.2,7.1 Z"></path>
                        <path d="M8.8,19.9 C8.4,19.3 8,18.6 7.8,17.9 L1.5,19.7 C2,21.2 2.7,22.6 3.6,23.8 L8.8,19.9 Z"></path>
                        <path d="M10.5,8.5 C11.1,8.1 11.7,7.7 12.3,7.4 L10,1.4 C8.6,2 7.3,2.8 6.2,3.8 L10.5,8.5 Z"></path>
                    </g>
                    <g transform="translate(62.000000, 4.000000)">
                        <polygon id="Path" points="1.6 2.8 0.6 2.8 0.6 22.1 14.8 22.1 14.8 20.9 1.6 20.9"></polygon>
                        <path d="M2.7,0.4 L2.7,19.7 L16.5,19.7 L16.5,0.4 L2.7,0.4 Z M14.9,17.1 L14.9,17.1 C14.9,17.2 14.9,17.2 14.9,17.1 L4.5,17.2 C4.4,17.2 4.4,17.2 4.4,17.1 L4.4,15.5 C4.4,15.5 4.4,15.4 4.5,15.4 L14.8,15.4 C14.8,15.4 14.9,15.4 14.9,15.5 L14.9,15.5 L14.9,17.1 Z M14.9,14 L14.9,14 C14.9,14.1 14.8,14.1 14.9,14 L4.5,14.1 C4.5,14.1 4.4,14.1 4.4,14 L4.4,12.4 C4.4,12.3 4.4,12.3 4.5,12.3 L14.8,12.3 C14.8,12.3 14.9,12.3 14.9,12.4 L14.9,12.4 L14.9,14 Z M14.9,11 L14.9,11 C14.9,11 14.9,11 14.9,11 L4.5,11 C4.4,11 4.4,11 4.4,10.9 L4.4,9.3 C4.4,9.3 4.4,9.2 4.5,9.2 C4.5,9.2 4.5,9.2 4.5,9.2 L14.7,9.2 C14.7,9.2 14.8,9.2 14.8,9.2 L14.8,9.2 L14.9,11 Z" id="Shape"></path>
                    </g>
                    <g transform="translate(0.000000, 4.000000)">
                        <polygon id="Path" points="1.9 2.8 0.9 2.8 0.9 22.1 15.2 22.1 15.2 20.9 1.9 20.9"></polygon>
                        <path d="M3,0.4 L3,19.7 L16.9,19.7 L16.9,0.4 L3,0.4 Z M15.2,17.1 L15.2,17.1 C15.2,17.2 15.2,17.2 15.2,17.1 L4.8,17.2 C4.7,17.2 4.7,17.2 4.7,17.1 L4.7,15.5 C4.7,15.5 4.7,15.4 4.8,15.4 C4.8,15.4 4.8,15.4 4.8,15.4 L15,15.4 C15,15.4 15.1,15.4 15.1,15.5 L15.1,15.5 L15.2,17.1 Z M15.2,14 L15.2,14 C15.2,14.1 15.1,14.1 15.2,14 L4.8,14.1 C4.8,14.1 4.7,14.1 4.7,14 C4.7,14 4.7,14 4.7,14 L4.7,12.4 C4.7,12.3 4.7,12.3 4.8,12.3 L15,12.3 C15,12.3 15.1,12.3 15.1,12.4 L15.1,12.4 L15.2,14 Z M15.2,11 L15.2,11 C15.2,11 15.2,11 15.2,11 L4.8,11 C4.7,11 4.7,11 4.7,10.9 L4.7,9.3 C4.7,9.2 4.7,9.2 4.8,9.2 L15,9.2 C15,9.2 15.1,9.2 15.1,9.2 L15.1,9.2 L15.2,11 Z" id="Shape"></path>
                    </g>
                </g>
                <path d="M62.3,63.4 L59.5,61.2 C59.3,61 58.9,60.9 58.7,61.2 C58.7,61.2 58.7,61.2 58.7,61.2 L58.7,61.2 C49.9,71.7 34.7,72.8 23.9,64.2 C23.6,63.9 23.3,63.7 23,63.4 L26.2,61.4 C26.5,61.2 26.1,60.9 26.1,60.9 L15.3,55.5 C15,55.3 14.9,55.5 14.9,55.7 L14.9,55.8 L14.9,55.8 L14.7,68 C14.7,68.1 14.8,68.4 15.1,68.2 L15.1,68.2 L18.6,66 C19.3,66.7 20,67.3 20.8,67.9 C33.6,78.2 51.7,76.8 62.3,64.4 L62.4,64.3 C62.6,64.1 62.6,63.7 62.3,63.4 C62.3,63.4 62.3,63.4 62.3,63.4 Z" id="Path"></path>
                <path d="M14.8,12.8 L17.7,14.9 C17.9,15.1 18.3,15.1 18.5,14.8 C18.5,14.8 18.5,14.8 18.5,14.8 L18.5,14.8 C26.7,3.8 41.8,1.8 53,9.8 C53.3,10 53.7,10.3 54,10.6 L51,12.8 C50.7,13 51.2,13.3 51.2,13.3 L62.4,18 C62.7,18.2 62.8,17.9 62.8,17.8 L62.8,17.7 L62.8,17.7 L62.1,5.4 C62.1,5.3 62,5 61.7,5.2 L61.7,5.2 L58.3,7.6 C57.6,7 56.8,6.4 56,5.8 C42.6,-3.7 24.6,-1.3 14.8,11.7 L14.7,11.8 C14.5,12.2 14.5,12.6 14.8,12.8 C14.8,12.8 14.8,12.8 14.8,12.8 Z" id="Path"></path>
            </g>
        </g>
    </g>
</svg>