<?xml version="1.0" encoding="UTF-8"?>
<svg width="95px" height="95px" viewBox="0 0 95 95" version="1.1" xmlns="http://www.w3.org/2000/svg" xmlns:xlink="http://www.w3.org/1999/xlink">
    <!-- Generator: Sketch 53.2 (72643) - https://sketchapp.com -->
    <title>goal_6_target_6_1</title>
    <desc>Created with Sketch.</desc>
    <g id="goal_6_target_6_1" stroke="none" stroke-width="1" fill="none" fill-rule="evenodd">
        <g id="Group-39" fill-rule="nonzero">
            <rect id="Rectangle" fill="#26BDE2" x="-3.62376795e-13" y="-2.13162821e-14" width="94.8" height="94.8"></rect>
            <g id="Group" transform="translate(7.700000, 10.000000)" fill="#FFFFFF">
                <path d="M55.4,1 C55.3,0.9 55.2,0.9 55.1,0.9 L24.3,0.9 C24.2,0.9 24.1,0.9 24,1 C24,1.1 24,1.2 24,1.3 L29.2,32.6 C29.2,32.8 29.4,32.9 29.6,32.9 L50.4,32.9 C50.6,32.9 50.7,32.8 50.7,32.6 L55.6,1.3 C55.5,1.2 55.5,1.1 55.4,1 L55.4,1 Z M43.5,26 C42.5,26.9 41.2,27.4 39.8,27.3 C38.4,27.4 37.1,26.9 36.1,26 C34.4,24.2 34.1,21.5 35.4,19.3 C35.9,18.4 39.4,13 39.7,12.6 L39.7,12.6 L39.7,12.6 L39.7,12.6 C40,13.1 43.5,18.4 44,19.3 C45.5,21.4 45.2,24.2 43.5,26 L43.5,26 Z M53.3,7.5 C52.3,7.2 51.3,7.2 50.4,7.7 C46.6,9.2 44,9.8 39.9,8.5 C37.4,7.7 35,6 32.2,7.1 C30.4,7.9 28.5,8.3 26.5,8.4 L25.3,2.2 L54.1,2.2 L53.3,7.5 Z" id="Shape"></path>
                <g transform="translate(0.000000, 41.000000)" id="Path">
                    <g transform="translate(65.000000, 0.000000)">
                        <path d="M4.8,3.4 C4.8,1.9 6,0.7 7.6,0.7 C9.1,0.7 10.3,1.9 10.3,3.5 C10.3,5 9.1,6.2 7.6,6.2 C6.1,6.2 4.8,4.9 4.8,3.4"></path>
                        <path d="M10.8,7.2 C12.7,7.4 14.1,9 14.1,10.9 L14.1,18.5 C14.1,19.1 13.6,19.6 13,19.6 C12.4,19.6 11.9,19.1 11.9,18.5 L11.9,12 C11.9,11.8 11.8,11.4 11.4,11.4 C11,11.4 11,11.7 11,11.9 L11,31.5 C10.9,32.3 10.2,33 9.3,32.9 C8.5,32.8 7.9,32.2 7.9,31.5 L7.9,20.2 C7.9,20 7.8,19.8 7.5,19.8 C7.5,19.8 7.5,19.8 7.4,19.8 L7.4,19.8 C7.2,19.8 7,20 7,20.2 C7,20.2 7,20.2 7,20.3 L7,31.6 C7,32.4 6.3,33.1 5.5,33.1 C4.7,33.1 4,32.4 4,31.6 C4,31.6 4,31.6 4,31.6 L4,11.9 C4,11.7 3.9,11.4 3.6,11.4 C3.3,11.4 3.1,11.7 3.1,12 L3.1,18.5 C3,19.1 2.5,19.5 1.9,19.5 C1.4,19.5 1,19 0.9,18.5 L0.9,10.9 C0.9,9 2.3,7.4 4.2,7.2 L4.4,7.2 L10.4,7.2 L10.8,7.2"></path>
                    </g>
                    <g transform="translate(41.000000, 2.000000)">
                        <path d="M11,2.9 C11,1.5 9.8,0.3 8.4,0.3 C7,0.3 5.8,1.5 5.8,2.9 C5.8,4.3 7,5.5 8.4,5.5 C8.4,5.5 8.4,5.5 8.4,5.5 C9.8,5.5 11,4.3 11,2.9"></path>
                        <path d="M3.2,8.8 L1,15.8 C1,15.8 0.6,17.1 1.7,17.4 C2.8,17.7 3.1,16.5 3.1,16.5 L4.8,10.6 C4.8,10.6 4.9,10.2 5.2,10.3 C5.5,10.4 5.4,10.9 5.4,10.9 L2.4,21.9 L5.2,21.9 L5.2,29.8 C5.1,30.5 5.7,31.2 6.4,31.3 C7.1,31.4 7.8,30.8 7.9,30.1 C7.9,30 7.9,29.9 7.9,29.9 L7.9,22.1 L8.7,22.1 L8.7,30 C8.6,30.7 9.2,31.4 9.9,31.5 C10.6,31.6 11.3,31 11.4,30.3 C11.4,30.2 11.4,30.1 11.4,30.1 L11.4,22.2 L14.2,22.2 L11.2,11.2 C11.2,11.2 11.1,10.7 11.4,10.6 C11.7,10.5 11.8,10.9 11.8,10.9 L13.5,16.8 C13.5,16.8 13.8,18.1 14.9,17.7 C16,17.3 15.6,16.1 15.6,16.1 L13.4,9.1 C13.4,9.1 12.6,7.1 10.9,7.1 L5.3,7.1 C4,6.8 3.2,8.8 3.2,8.8"></path>
                    </g>
                    <g transform="translate(26.000000, 2.000000)">
                        <path d="M10.5,2.8 C10.5,1.4 9.3,0.2 7.9,0.2 C6.5,0.2 5.3,1.4 5.3,2.8 C5.3,4.2 6.5,5.4 7.9,5.4 C7.9,5.4 7.9,5.4 7.9,5.4 C9.3,5.4 10.5,4.3 10.5,2.8"></path>
                        <path d="M2.6,8.7 L0.4,15.7 C0.4,15.7 -1.11022302e-16,17 1.1,17.3 C2.2,17.6 2.5,16.4 2.5,16.4 L4.2,10.5 C4.2,10.5 4.3,10.1 4.6,10.2 C4.9,10.3 4.8,10.8 4.8,10.8 L1.8,21.8 L4.6,21.8 L4.6,29.7 C4.5,30.4 5.1,31.1 5.8,31.2 C6.5,31.3 7.2,30.7 7.3,30 C7.3,29.9 7.3,29.8 7.3,29.8 L7.3,22 L8.1,22 L8.1,29.9 C8,30.6 8.6,31.3 9.3,31.4 C10,31.5 10.7,30.9 10.8,30.2 C10.8,30.1 10.8,30 10.8,30 L10.8,22.1 L13.6,22.1 L10.6,11.1 C10.6,11.1 10.5,10.6 10.8,10.5 C11.1,10.4 11.2,10.8 11.2,10.8 L12.9,16.7 C12.9,16.7 13.2,18 14.3,17.6 C15.4,17.2 15,16 15,16 L12.8,9 C12.8,9 12,7 10.3,7 L4.7,7 C3.4,6.8 2.6,8.8 2.6,8.7"></path>
                    </g>
                    <g transform="translate(0.000000, 1.000000)">
                        <path d="M3,17.7 C3,17.7 2.9,17.7 3,17.7 L0.4,31.3 C0.4,31.5 0.5,31.7 0.7,31.8 C0.7,31.8 0.7,31.8 0.7,31.8 L0.8,31.8 C1,31.8 1.2,31.7 1.2,31.5 L3.7,18 C3.7,18 3.6,17.9 3.6,17.8"></path>
                        <path d="M6.1,2.7 C6.1,1.2 7.3,0 8.8,0 C10.3,0 11.5,1.2 11.5,2.7 C11.5,4.2 10.3,5.4 8.8,5.4 C7.3,5.4 6.1,4.2 6.1,2.7 L6.1,2.7"></path>
                        <path d="M12,6.5 C13.9,6.7 15.3,8.2 15.3,10.1 L15.3,17.7 C15.2,18.3 14.7,18.7 14.1,18.7 C13.6,18.7 13.2,18.3 13.1,17.7 L13.1,11.2 C13.1,11 13,10.6 12.6,10.6 C12.2,10.6 12.2,10.9 12.2,11.1 L12.2,30.5 C12.3,31.3 11.8,32.1 10.9,32.2 C10.1,32.3 9.3,31.8 9.2,30.9 C9.2,30.7 9.2,30.6 9.2,30.4 L9.2,19.4 C9.2,19.2 9,19 8.8,19 C8.8,19 8.8,19 8.8,19 L8.8,19 C8.6,19 8.4,19.2 8.4,19.4 C8.4,19.4 8.4,19.4 8.4,19.5 L8.4,30.7 C8.5,31.5 8,32.3 7.1,32.4 C6.3,32.5 5.5,32 5.4,31.1 C5.4,30.9 5.4,30.8 5.4,30.6 L5.4,11.1 C5.4,10.9 5.3,10.6 5,10.6 C4.6,10.6 4.5,10.9 4.5,11.2 L4.5,17.7 C4.4,18.3 3.9,18.7 3.3,18.7 C2.8,18.7 2.4,18.3 2.3,17.7 L2.3,10.1 C2.3,8.2 3.7,6.7 5.6,6.5 L5.8,6.5 L11.8,6.5 L12,6.5"></path>
                    </g>
                    <g transform="translate(55.000000, 14.000000)">
                        <path d="M6.3,5.2 C7.5,5.2 8.5,4.2 8.5,3 C8.5,1.8 7.5,0.8 6.3,0.8 C5.1,0.8 4.1,1.8 4.1,3 C4.1,3 4.1,3 4.1,3 C4.1,4.2 5.1,5.2 6.3,5.2 Z"></path>
                        <path d="M11.6,11.6 C11.6,11.5 10.9,9.9 10.7,9.4 C9.4,6 9.2,6.1 8,6 L4.6,6 C3.4,6 3.2,6 1.8,9.4 C1.6,9.9 0.8,11.8 0.8,11.9 C0.8,12 0.5,12.7 1.2,13 C1.9,13.3 2.1,12.4 2.1,12.4 L3.5,9.1 C3.5,9.1 3.5,9 3.6,9 C3.7,9 3.6,9.1 3.6,9.1 L3.6,17.8 L3.6,17.8 C3.6,18.4 4.1,19 4.7,19 C4.7,19 4.7,19 4.7,19 C5.3,19 5.9,18.6 5.9,18 C5.9,18 5.9,17.9 5.9,17.9 L5.9,14.4 C5.9,14.4 5.9,13.9 6.2,13.9 C6.5,13.9 6.5,14.4 6.5,14.4 L6.5,17.9 C6.5,18.5 7,19.1 7.6,19.1 C7.6,19.1 7.6,19.1 7.6,19.1 C8.2,19.1 8.7,18.6 8.7,18 C8.7,18 8.7,18 8.7,18 L8.7,18 L8.7,9.3 C8.7,9.2 8.7,9.2 8.7,9.2 L8.8,9.3 L10,12.3 C10,12.3 10.3,13.1 11,12.8 C11.7,12.5 11.6,11.6 11.6,11.6 Z"></path>
                    </g>
                    <g transform="translate(16.000000, 14.000000)">
                        <path d="M7.5,8.9 L9.5,5.2 C9.5,5.2 9.6,4.9 9.7,4.8 C9.9,4.5 9.8,4 9.5,3.9 C9.5,3.9 9.4,3.9 9.4,3.8 C9,3.6 8.5,3.8 8.3,4.1 C7.9,4.8 7.4,5.5 6.9,6.2 C6.7,6.4 6.5,6.5 6.2,6.5 L3.6,6.5 C3.3,6.5 3.1,6.4 2.9,6.2 C2.6,5.9 1.5,4.1 1.5,4 C1.4,3.8 1.1,3.6 0.8,3.6 C0.4,3.6 -3.55271368e-15,4 -3.55271368e-15,4.4 C-3.55271368e-15,4.5 -3.55271368e-15,4.6 0.1,4.7 L2.3,8.7 C2.4,8.9 2.4,9 2.4,9.2 L2.4,10 L2.4,10 C2.4,10.2 2.4,10.5 2.3,10.7 L1.3,14.9 L2.5,14.9 L2.5,18 L2.5,18 C2.6,18.6 3.1,19 3.7,19 C4.2,19 4.6,18.5 4.7,18 L4.7,15 C4.7,15 4.7,14.9 4.7,14.9 L5.3,14.9 C5.3,14.9 5.3,15 5.3,15 L5.3,18 C5.4,18.6 5.9,19 6.5,19 C7,19 7.4,18.5 7.5,18 L7.5,14.9 L8.7,14.9 L7.6,10.7 C7.6,10.5 7.5,10.3 7.5,10.1 L7.5,10 L7.5,10 L7.5,9.4 C7.4,9.3 7.4,9.1 7.5,8.9 Z"></path>
                        <path d="M4.9,5.3 C6.1,5.3 7.1,4.3 7.1,3.1 C7.1,1.9 6.1,0.9 4.9,0.9 C3.7,0.9 2.7,1.9 2.7,3.1 C2.7,4.4 3.7,5.3 4.9,5.3 Z"></path>
                    </g>
                </g>
            </g>
        </g>
    </g>
</svg>