<?xml version="1.0" encoding="UTF-8"?>
<svg width="95px" height="95px" viewBox="0 0 95 95" version="1.1" xmlns="http://www.w3.org/2000/svg" xmlns:xlink="http://www.w3.org/1999/xlink">
    <!-- Generator: Sketch 53.2 (72643) - https://sketchapp.com -->
    <title>goal_17_target_17_10</title>
    <desc>Created with Sketch.</desc>
    <g id="goal_17_target_17_10" stroke="none" stroke-width="1" fill="none" fill-rule="evenodd">
        <g id="Group-152" fill-rule="nonzero">
            <rect id="Rectangle" fill="#19486A" x="1.45661261e-12" y="-2.13162821e-14" width="94.8" height="94.8"></rect>
            <path d="M64.4,56 L63.4,49.5 C39.4,60.2 22.6,50.7 16.1,45.5 L19,42.9 C19.1,42.8 19.2,42.7 19.1,42.6 C19.1,42.5 19,42.5 18.9,42.5 L18.9,42.5 L11.9,41.3 L11.8,41.3 C11.7,41.3 11.6,41.3 11.6,41.4 C11.6,41.5 11.5,41.5 11.5,41.6 L11.5,41.7 L12,48.6 L12,48.7 C12,48.8 12,48.8 12.1,48.9 C12.2,48.9 12.3,48.9 12.4,48.8 L12.5,48.7 L15,46.5 C23.6,63.1 46.5,64.7 64.4,56 Z" id="Path" fill="#FFFFFF"></path>
            <path d="M83.9,56.3 L83.2,48 L83.2,48 L83.2,48 C83.2,47.9 83.1,47.9 83,47.8 C82.9,47.7 82.8,47.7 82.7,47.7 L82.7,47.7 L74.7,50.5 L74.7,50.5 C74.6,50.5 74.5,50.6 74.5,50.7 C74.5,50.8 74.5,50.9 74.7,51.1 L78.6,53.6 C71,61 55.2,76.8 23.7,67.1 L23.8,74.9 C47,81.7 73,75.7 79.9,54.4 L83.3,56.6 L83.4,56.7 C83.6,56.8 83.7,56.8 83.8,56.7 C83.9,56.6 83.9,56.5 83.9,56.5 L83.9,56.3 Z" id="Path" fill="#FFFFFF"></path>
            <path d="M30.6,37.7 L30.8,43.6 C41.4,47 66.3,46.2 72.9,27.5 L75.5,29.1 L75.6,29.2 C75.7,29.3 75.8,29.3 75.9,29.2 C76,29.2 76,29.1 76,29 L76,28.9 L75.4,22.7 L75.4,22.6 C75.4,22.5 75.3,22.5 75.3,22.5 C75.2,22.5 75.2,22.5 75.1,22.5 L75,22.5 L69,24.7 L69,24.7 C68.9,24.7 68.9,24.8 68.8,24.8 C68.8,24.9 68.8,25 69,25.1 L71.9,26.9 C66.4,32.4 55.6,42.9 30.6,37.7 Z" id="Path" fill="#FFFFFF"></path>
            <path d="M22.2,17.6 L23.4,23.7 L23.4,23.8 C23.4,23.9 23.5,23.9 23.5,24 C23.6,24 23.7,24 23.8,23.9 L23.9,23.8 L25.8,21.7 C32.5,32.6 47.9,33.4 60.7,27.3 L60,22.6 C42.7,30.8 31.7,24.8 26.8,20.6 L29,18.1 C29.1,18 29.1,17.9 29.1,17.8 C29,17.8 29,17.7 28.9,17.7 L28.9,17.7 L22.5,17.4 L22.4,17.4 C22.3,17.4 22.3,17.4 22.2,17.5 C22.2,17.4 22.2,17.5 22.2,17.6 L22.2,17.6 L22.2,17.6 Z" id="Path" fill="#FFFFFF"></path>
        </g>
    </g>
</svg>