<svg width="104" height="104" viewBox="0 0 104 104" fill="none" xmlns="http://www.w3.org/2000/svg">
<rect width="104" height="104" fill="#F8F8F8"/>
<rect x="0.5" y="0.5" width="103" height="103" fill="#F8F8F8" stroke="#C31A2D"/>
<path fill-rule="evenodd" clip-rule="evenodd" d="M77.622 61.7776C78.9397 61.86 82.7093 62.1761 83.775 61.875C85.778 61.3087 85.0094 60.589 86.4269 58.9826C94.7321 60.7219 94.3208 72.1769 87.5119 74.5712C83.4018 76.0168 79.4343 74.2146 77.7086 71.8369C75.2065 68.3888 76.5517 65.3862 77.622 61.7776ZM71.3702 67.8072L69.379 68.2136L70.8921 65.4749L71.1462 62.6441C72.7764 62.7807 72.9655 63.2925 74.0834 63.8989L74.8617 65.2571C73.9553 66.8281 74.8913 65.2639 74.3983 66.8489L74.2122 67.7266L71.3702 67.8072ZM93.3881 48.7204C93.3729 48.731 93.2316 48.7851 93.2109 48.7789C92.7587 48.6432 91.7802 48.2188 91.1908 48.1967C90.8899 48.2198 90.6697 48.2671 90.4042 48.3243C90.0829 48.4217 89.8279 48.5415 89.5399 48.6501L87.4939 57.1225C89.2177 58.8285 92.4319 59.5538 93.6224 64.0396C96.7153 75.6932 79.9423 82.8296 74.7864 68.6486L71.0407 68.4354C70.9873 73.0413 71.4708 76.3099 69.1423 76.9169C67.629 77.3114 66.4961 76.242 66.2283 74.9573C65.7413 72.6216 67.2598 72.2883 68.2056 71.3776C67.1521 70.7998 64.9688 71.0534 63.3585 70.1243C62.4496 69.5997 60.8969 67.6461 62.8502 66.3747C64.5469 65.2708 63.5443 67.1828 64.9749 64.7885C65.5287 63.8616 65.5354 62.9571 66.2447 61.8594C67.2202 60.3497 67.0563 61.361 67.7956 59.6988C68.2276 58.7265 68.367 57.6229 68.5901 56.756C68.6407 56.5591 68.6569 56.4368 69.0767 56.3714L76.7155 55.1838C76.2423 53.68 76.9114 54.5049 75.291 53.2441C72.7684 51.2811 68.3896 50.4121 64.2598 47.6096C62.5967 46.4811 61.883 45.636 60.0612 44.9982L64.2997 62.0411L60.5772 62.2574C59.7439 68.2789 61.8107 76.1926 58.0879 76.0597C54.0837 75.9169 56.7982 65.6952 55.5616 62.6373C54.5551 65.2412 55.467 71.8493 54.5792 75.8547C49.3897 76.7218 50.781 72.2336 50.7508 62.285C46.0119 62.3074 46.1544 63.3803 48.3136 55.7118C49.0855 52.9697 50.7068 47.983 50.5085 45.2751C50.0408 47.0664 48.6529 53.2118 47.5362 54.2728C45.3468 56.6552 46.0092 54.0285 44.1337 56.1866C39.952 60.9997 42.2531 65.4634 42.9752 68.2161L41.8238 69.657C40.1384 73.093 43.4597 75.7199 38.7935 76.0746C37.4806 73.625 38.244 72.5301 37.5728 69.905C37.2146 73.8204 38.3734 76.0606 34.5367 75.8192C33.6623 73.8266 33.9784 74.1082 33.8368 71.8842C33.5555 67.4756 34.0846 70.7712 32.3339 68.2161C33.0442 65.7509 34.0833 62.9425 33.248 60.2772C31.7164 55.3888 31.3313 56.4533 27.8248 55.1969C26.7737 51.9398 27.2646 47.6522 27.0706 43.9481C24.5742 47.4771 27.7171 69.895 25.6232 75.705C23.4838 76.0202 23.5451 75.9368 21.8863 75.1219C21.3829 72.0052 21.6361 68.7447 21.6572 65.5816L20.7821 56.5037C20.6753 62.0909 21.7505 71.2812 19.8113 75.5585C17.7091 76.07 17.8647 76.0199 16.1254 75.2006C14.5608 68.1893 17.275 48.619 15.1353 43.9216C13.8832 50.8576 17.0333 55.5783 11.7975 56.2765C11.0491 53.1178 10.6607 44.5526 11.3856 41.2044C12.5352 35.8944 17.257 36.5767 22.8617 36.7466C29.5901 36.9504 30.7745 38.1263 30.8996 45.0271C31.1059 56.4253 31.0113 49.6806 34.9013 57.0021C35.8185 57.0276 38.5638 57.1356 39.3277 56.9785C41.1946 56.5948 40.4057 56.6067 41.6972 54.7547C44.0486 51.3832 43.9537 54.6922 45.518 49.174C47.3309 42.7772 46.9593 38.8002 54.4001 39.0871C62.0359 39.3817 60.7669 41.1512 66.977 45.3818C70.2574 47.6165 67.6241 47.6037 72.4392 49.2808C80.3014 52.0195 78.9769 54.5768 84.0111 45.5589C77.8291 40.4216 86.062 35.1872 88.1129 40.1677C89.5255 43.5983 86.0831 44.4826 87.7239 47.3464C88.7131 49.0726 90.9806 45.193 93.3881 48.7204Z" fill="#C31A2D"/>
<path fill-rule="evenodd" clip-rule="evenodd" d="M54.5289 29.6436C49.0358 31.6144 51.6332 38.5824 56.6506 37.3161C61.7159 36.0376 59.592 27.8271 54.5289 29.6436Z" fill="#C31A2D"/>
<path fill-rule="evenodd" clip-rule="evenodd" d="M34.4127 52.9357C35.2011 56.779 41.917 56.4031 40.9532 51.4674C40.1199 47.2016 33.3976 47.9879 34.4127 52.9357Z" fill="#C31A2D"/>
<path fill-rule="evenodd" clip-rule="evenodd" d="M70.8997 65.475L69.3867 68.2137L71.3778 67.8073C71.1081 66.2093 71.038 66.704 71.9676 66.6732L74.406 66.849C74.899 65.264 73.9629 66.8282 74.8694 65.2572L74.0911 63.899L74.0871 65.6648L70.8997 65.475Z" fill="#C01A2C"/>
<path d="M84.5996 68.5792C85.4247 68.5792 86.0936 67.897 86.0936 67.0555C86.0936 66.214 85.4247 65.5319 84.5996 65.5319C83.7744 65.5319 83.1055 66.214 83.1055 67.0555C83.1055 67.897 83.7744 68.5792 84.5996 68.5792Z" fill="#C32330"/>
<path fill-rule="evenodd" clip-rule="evenodd" d="M20.0367 27.2611C14.5436 29.2319 17.141 36.2 22.1584 34.9336C27.2237 33.6551 25.0999 25.4447 20.0367 27.2611Z" fill="#C31A2D"/>
</svg>
