<svg width="104" height="104" viewBox="0 0 104 104" fill="none" xmlns="http://www.w3.org/2000/svg">
<rect x="0.5" y="0.5" width="103" height="103" fill="#F8F8F8" stroke="#DC1267"/>
<path d="M29.2192 34.951C27.6193 35.7316 27 37.9694 27 42.8612C27 47.701 27.3613 49.4183 28.2902 49.4183C29.2192 49.4183 29.5805 47.701 29.5805 43.2775C29.5805 41.1439 29.7869 39.5306 30.0966 39.5306C30.7159 39.5306 30.6643 38.8541 31.0772 53.3214L31.3868 65.2908H32.6771C34.3802 65.2908 34.6383 64.0939 34.6899 56.3398C34.7415 52.749 34.9479 49.8867 35.2576 49.6786C35.8769 49.2622 35.8769 49.1581 35.9801 58.0051L36.0317 65.2908L37.4252 65.4469C38.5606 65.603 38.8187 65.3949 39.1283 63.9898C39.3348 63.053 39.3348 58.7337 39.1283 54.3102C38.7155 46.0877 39.1283 39.5306 39.9541 39.5306C40.2122 39.5306 40.4186 41.4561 40.4186 43.7979C40.4186 48.7939 40.9863 50.303 42.2765 48.6377C42.8959 47.8051 43.0507 46.452 42.8959 41.9765C42.6894 34.5867 42.4314 34.3265 35.3092 34.3786C32.5739 34.3786 29.8385 34.6388 29.2192 34.951Z" fill="#EC156B"/>
<path d="M63.1288 42.2368C61.4257 42.8612 61.2193 43.2255 59.671 47.8572C57.9679 52.9051 57.6066 54.8827 58.4323 55.351C59.4129 55.9755 60.6516 54.1021 61.6322 50.3551C62.2515 48.1174 62.9224 46.4 63.1288 46.5561C63.5933 46.8684 62.6644 51.2919 61.0644 56.8082C60.4967 58.6817 60.0322 60.5031 60.0322 60.8153C60.0322 61.1276 60.858 61.3878 61.8386 61.3878H63.5933L63.7482 67.2163L63.903 73.097H65.1932C66.4835 73.097 66.4835 73.0449 66.6383 67.8929C66.6899 65.0306 66.8964 62.3245 67.0512 61.9082C67.6705 60.1388 68.2898 62.897 68.2898 67.7368C68.2898 72.9408 68.5995 73.6694 70.3542 73.097C71.2832 72.7847 71.3864 72.3163 71.3864 67.0602V61.3878H73.1928C74.1734 61.3878 74.9991 61.2317 74.9991 60.9714C74.9991 60.7633 74.3282 58.2653 73.5541 55.4031C71.6961 48.898 71.18 46.2959 71.7993 46.2959C72.2638 46.2959 72.5735 47.2847 73.9669 52.9051C74.4314 54.7786 74.7411 55.1429 75.7733 55.1429C77.4764 55.1429 77.4248 54.4663 75.5152 48.2214C74.3798 44.5786 73.6057 43.0174 72.8315 42.601C71.18 41.7163 65.2449 41.5082 63.1288 42.2368Z" fill="#EC156B"/>
<path d="M31.1289 71.7959V77H35.5158H39.9026V71.7959V66.5918H35.5158H31.1289V71.7959Z" fill="#EC156B"/>
<path d="M41.9688 73.3571V77H46.0975H50.2263V73.3571V69.7143H46.0975H41.9688V73.3571Z" fill="#EC156B"/>
<path d="M52.2891 74.398V77H56.6759H61.0628V74.398V71.7959H56.6759H52.2891V74.398Z" fill="#EC156B"/>
<path d="M63.125 75.699C63.125 77 63.1766 77 67.5118 77C71.8471 77 71.8987 77 71.8987 75.699C71.8987 74.398 71.8471 74.398 67.5118 74.398C63.1766 74.398 63.125 74.398 63.125 75.699Z" fill="#EC156B"/>
<path fill-rule="evenodd" clip-rule="evenodd" d="M34.1911 26.2185C29.6373 27.8673 31.7905 33.697 35.95 32.6375C40.1492 31.5679 38.3886 24.6988 34.1911 26.2185Z" fill="#EC156B"/>
<path fill-rule="evenodd" clip-rule="evenodd" d="M66.7068 34.0246C62.1529 35.6734 64.3062 41.5032 68.4657 40.4437C72.6649 39.3741 70.9042 32.5049 66.7068 34.0246Z" fill="#EC156B"/>
</svg>
