<svg width="104" height="104" viewBox="0 0 104 104" fill="none" xmlns="http://www.w3.org/2000/svg">
<rect x="0.5" y="0.5" width="103" height="103" fill="#F8F8F8" stroke="#DCA43A"/>
<path fill-rule="evenodd" clip-rule="evenodd" d="M49.886 68.483C50.8946 68.9076 50.73 67.5731 50.9315 69.5535C51.1491 71.6918 50.4486 70.7717 49.886 71.0007C49.3534 70.2132 49.426 72.0491 49.3778 69.9532C49.3184 67.3743 49.4205 69.1541 49.886 68.483ZM46.7887 68.4511C48.1817 69.2983 48.2259 70.1901 46.7887 71.0303C46.0157 70.1947 46.1395 72.1231 46.0709 69.9573C45.984 67.2208 46.0742 69.2062 46.7887 68.4511ZM59.6709 62.6331C63.7649 62.7045 62.8254 62.3763 62.6706 67.3313L59.5309 67.3512C59.4334 65.0313 59.4868 64.8067 59.6709 62.6331ZM56.1941 62.619L56.5688 67.3531L53.6215 67.33C53.4359 61.7422 53.3033 62.6818 56.1941 62.619ZM50.9504 65.7945C50.8556 67.5628 51.1598 66.9381 49.3315 66.9571C49.34 65.1642 49.4123 64.5184 49.447 64.4491C49.8473 64.3748 51.0089 64.0238 50.9504 65.7945ZM47.4478 67.0373L46.341 66.8854C46.3236 66.8548 45.2787 66.4978 45.9422 64.9271C46.519 63.5629 46.5333 64.3614 47.3051 64.2054C47.7032 64.7979 47.8675 64.0865 47.9254 65.7933C48.022 68.6458 48.0717 65.8816 47.4478 67.0373ZM50.5852 60.2299C50.9644 63.0237 50.8471 62.7183 49.3315 62.7214C49.2584 60.1275 49.0569 60.3072 50.5852 60.2299ZM47.4478 62.7997L46.341 62.6518C46.3239 62.6219 45.2765 62.2736 45.9422 60.7001C46.5199 59.3356 46.5315 60.1344 47.3051 59.9784C47.6998 60.5659 47.8675 59.8579 47.9254 61.5638C48.0217 64.3932 48.0726 61.6521 47.4478 62.7997ZM59.9043 55.0708L62.6837 55.2446L62.6794 59.6894L59.8388 59.7213L59.9043 55.0708ZM53.9038 55.0274L56.5358 55.1482L56.5011 59.0804C56.3581 59.8464 56.8495 59.9194 53.7017 59.7768L53.9038 55.0274ZM50.6136 56.0016C51.0397 58.6513 50.7062 58.563 49.3315 58.4944C49.3437 55.9629 49.0974 55.9794 50.6136 56.0016ZM47.4478 58.5724L46.341 58.4245C46.3239 58.3945 45.2765 58.0463 45.9422 56.4727C46.5199 55.1086 46.5315 55.907 47.3051 55.751C49.2455 58.6385 47.4633 58.5437 47.4478 58.5724ZM50.9364 53.0657C50.7394 55.1707 50.9671 53.6982 49.886 54.169C49.2861 53.2891 49.3056 55.4658 49.3785 52.6648C49.4281 50.7514 49.487 52.2251 49.886 51.6454C50.4124 51.8519 51.1278 51.0157 50.9364 53.0657ZM47.3837 54.2043L46.4166 54.0945C46.1526 53.6979 44.5904 53.3032 46.7887 51.265C47.9979 52.0994 47.52 50.9006 47.8946 52.6205C48.3341 54.639 47.3846 54.2027 47.3837 54.2043ZM59.7504 47.1637L62.6767 47.3413L62.5053 51.8098L59.8288 51.8232L59.7504 47.1637ZM53.6407 47.2555L56.5752 47.2311L56.3645 51.8526L53.7071 51.7661L53.6407 47.2555ZM59.7504 39.2704L62.6733 39.442L62.5246 43.9059L59.8199 43.918L59.7504 39.2704ZM53.6407 39.359L56.5706 39.3353L56.3877 43.9524L53.7001 43.8569L53.6407 39.359ZM59.7529 31.2685L61.7598 31.1914L62.6465 31.417L62.6495 35.7848L59.7538 35.8057L59.7529 31.2685ZM53.5965 32.9881C53.8849 30.2304 53.3289 32.0894 54.5326 31.1774L56.5368 31.2885L56.534 35.8843L53.6474 35.6808C53.6474 35.0802 53.5486 33.4455 53.5965 32.9881ZM51.304 49.805L44.8141 49.9873L44.8148 67.0258C40.2011 64.6831 40.9408 62.8708 34.4016 62.8705C30.9087 62.8705 30.7554 62.464 28.2495 64.2578C26.73 65.3458 25.1995 66.1924 23.9531 67.3799L44.8154 67.3375L44.8778 75.0059L65.1003 74.8567L65.1009 28H51.3055L51.304 49.805Z" fill="#DCA43A"/>
<path fill-rule="evenodd" clip-rule="evenodd" d="M23 76.8926C23.8794 78.5536 23.6752 77.8596 29.2377 77.8381L76.7769 77.8899C79.2593 77.884 79.0999 78.3514 80 76.8926C78.9667 75.2183 78.8457 75.9272 73.633 75.9475L24.1708 76.0205C22.6985 76.4727 23.9461 76.0592 23 76.8926Z" fill="#D6A039"/>
<path fill-rule="evenodd" clip-rule="evenodd" d="M37.257 70.612L40.9886 70.588L40.9547 73.0811L37.2329 73.0717L37.257 70.612ZM27.391 70.7443L30.9211 70.7284L30.7385 73.0908L27.2953 73.0099L27.391 70.7443ZM25.7148 75.123L32.2148 75.1817L32.3821 70.5621L32.8555 70.5568L35.6265 70.5512L35.6656 75.0244L43.114 75.1945L43.2558 68.0188L25.7892 67.9926L25.7148 75.123Z" fill="#DCA33A"/>
<path fill-rule="evenodd" clip-rule="evenodd" d="M73.9283 71.324C73.9584 71.2766 73.9776 71.2404 73.9782 71.2185L74.0493 71.2229C74.2764 71.0538 74.5562 70.9542 74.8589 70.9542C75.6209 70.9542 76.2385 71.5864 76.2385 72.3665C76.2385 73.1465 75.6209 73.7787 74.8589 73.7787C74.0968 73.7787 73.4793 73.1465 73.4793 72.3665C73.4793 71.9537 73.6524 71.582 73.9283 71.324ZM69.1012 74.8533L69.0466 70.9221L72.613 70.8095L72.5697 74.8093L76.9432 74.8533L76.9249 68.7716H67.4375L67.4479 74.8533H69.1012Z" fill="#DCA33A"/>
<path fill-rule="evenodd" clip-rule="evenodd" d="M66.9727 67.3538C68.0797 67.966 72.8084 67.917 74.7016 67.8864C74.9049 67.8833 76.0583 67.8361 76.197 67.7971C77.6702 67.3837 76.511 67.9435 77.2316 67.1073L72.6133 62.7255C71.1023 63.5283 71.1419 63.6434 69.7776 65.0139C68.8165 65.9796 68.0673 66.4804 66.9727 67.3538Z" fill="#DCA43A"/>
<path fill-rule="evenodd" clip-rule="evenodd" d="M46.4173 54.0945L46.4033 51.7717C47.6768 52.5215 47.3516 50.7218 47.3845 54.2043C47.3854 54.2027 48.3349 54.639 47.8954 52.6205C47.5208 50.9006 47.9987 52.0994 46.7895 51.265C44.5912 53.3032 46.1534 53.6979 46.4173 54.0945Z" fill="#DCA43A"/>
<path fill-rule="evenodd" clip-rule="evenodd" d="M46.3387 58.4244V56.156H47.4439L47.4455 58.5723C47.461 58.5436 49.2433 58.6385 47.3028 55.751C46.5292 55.907 46.5176 55.1085 45.94 56.4727C45.2743 58.0462 46.3216 58.3945 46.3387 58.4244Z" fill="#DCA43A"/>
<path fill-rule="evenodd" clip-rule="evenodd" d="M46.3417 66.8854V64.6108H47.451L47.4485 67.0374C48.0725 65.8817 48.0228 68.6459 47.9262 65.7933C47.8683 64.0866 47.704 64.798 47.3059 64.2054C46.5341 64.3615 46.5197 63.563 45.943 64.9272C45.2794 66.4979 46.3244 66.8549 46.3417 66.8854Z" fill="#DCA43A"/>
<path fill-rule="evenodd" clip-rule="evenodd" d="M46.3387 62.6518V60.3834H47.4455V62.7997C48.0704 61.6521 48.0194 64.3933 47.9231 61.5638C47.8652 59.8579 47.6975 60.5659 47.3028 59.9784C46.5292 60.1344 46.5176 59.3356 45.94 60.7001C45.2743 62.2737 46.3216 62.6219 46.3387 62.6518Z" fill="#DCA43A"/>
</svg>
