<svg width="104" height="104" viewBox="0 0 104 104" fill="none" xmlns="http://www.w3.org/2000/svg">
<rect x="0.5" y="0.5" width="103" height="103" fill="#F8F8F8" stroke="#FA6825"/>
<path fill-rule="evenodd" clip-rule="evenodd" d="M81.8259 70.8795L81.0857 70.2483L75.5453 70.8637L76.4533 66.8259C56.2886 69.0404 56.2776 49.4649 43.9983 39.8674C39.2764 36.1765 34.4959 36.3343 27.5516 36.6014C26.749 35.1983 26.0674 34.2641 24.8789 33L20.6133 44.1928C24.185 44.0729 29.4717 44.3301 32.112 43.0743C32.894 42.7022 31.8035 41.6709 35.6695 42.7461C42.7642 44.7193 46.8056 51.8247 50.3369 58.3943C55.6899 68.353 66.5782 77.1877 81.8259 70.8795Z" fill="#FA6825"/>
<path fill-rule="evenodd" clip-rule="evenodd" d="M83.5155 57.8057L82.9565 59.1619C81.9702 59.2679 82.2225 59.4749 82.2225 58.5168L81.3756 57.329C80.8328 57.917 81.0654 57.5145 80.5892 58.465L77.971 68.7548L89.184 67.0471C90.6579 64.8599 86.7273 67.6479 88.8831 61.389C94.0328 46.439 80.535 32.3064 65.8073 37.0626C61.4512 38.469 56.1831 42.6705 55.1016 46.5258L60.1364 45.1033L59.9035 50.0919C63.1514 48.1048 68.6001 41.7459 75.7068 43.1123C82.1179 44.345 83.7668 50.595 83.5155 57.8057Z" fill="#FA6825"/>
<path fill-rule="evenodd" clip-rule="evenodd" d="M46.6413 71.4814L48.5172 59.8641L36.438 62.5913L38.3912 65.1637C30.3606 69.3943 20.1015 65.3482 20.3023 54.0251C20.3824 49.495 21.9087 48.3263 23.247 45.4846L17.9188 45.7058L19.1031 41.7491C11.3272 47.5538 13.2829 61.9073 19.3202 67.947C22.337 70.9647 26.6106 72.8547 32.6821 72.8352C35.8421 72.8253 37.6251 72.5299 40.1943 71.2741C44.6922 69.0757 42.866 70.0176 46.6413 71.4814Z" fill="#FA6825"/>
<path fill-rule="evenodd" clip-rule="evenodd" d="M81.8262 70.8796L83.1165 69.7952L81.0859 70.2484L81.8262 70.8796Z" fill="#FA6825"/>
<path fill-rule="evenodd" clip-rule="evenodd" d="M82.2203 58.5169C82.2203 59.4749 81.9681 59.2679 82.9543 59.162L83.5134 57.8058C82.5878 58.8893 83.2859 58.0567 82.2203 58.5169Z" fill="#FA6825"/>
</svg>
