<svg width="104" height="104" viewBox="0 0 104 104" fill="none" xmlns="http://www.w3.org/2000/svg">
<rect x="0.5" y="0.5" width="103" height="103" fill="#F8F8F8" stroke="#407A45"/>
<path fill-rule="evenodd" clip-rule="evenodd" d="M48.0064 36.0779C58.6844 34.181 68.3065 42.2915 67.8945 53.3626C67.6752 59.252 64.9686 63.0002 61.7437 65.8848C57.426 69.7475 45.9985 69.3998 45.9453 69.5201C46.4447 70.0791 59.5187 71.1754 70.3934 65.6736C73.7769 63.9618 84.8061 55.7031 84.9999 52.8449C83.584 48.3015 75.3192 42.3007 70.2072 39.6674C64.645 36.8024 51.8071 33.3091 47.709 35.9174L48.0064 36.0779Z" fill="#407A45"/>
<path fill-rule="evenodd" clip-rule="evenodd" d="M45.0496 69.5327L47.3847 69.6994L44.4805 67.9969C38.5691 65.3452 34.6023 59.1659 34.9062 51.9009C35.2835 42.8734 40.9489 38.5189 48.0014 36.078L47.7039 35.9175C37.5413 34.4093 20.6602 47.2825 19 52.845C20.9449 56.8108 25.8907 60.8838 29.7974 63.4178C35.2992 66.9862 38.2469 67.5485 45.0496 69.5327Z" fill="#407A45"/>
<path fill-rule="evenodd" clip-rule="evenodd" d="M40.8834 63.5115L44.4886 62.0438L43.19 53.6225L36.7812 53.3586C37.1057 58.3202 39.0643 60.8715 40.8834 63.5115Z" fill="#407A45"/>
<path fill-rule="evenodd" clip-rule="evenodd" d="M58.5898 61.8489L61.7424 63.4099C64.0318 60.7158 65.6377 58.3613 65.9898 53.3694H59.6792L58.5898 61.8489Z" fill="#407A45"/>
<path fill-rule="evenodd" clip-rule="evenodd" d="M36.8359 51.2702L38.6426 51.5014L41.5981 51.4628L43.3629 51.2554L44.5046 43.1547L41.7077 41.9476C39.1451 43.2986 37.371 47.0985 36.8359 51.2702Z" fill="#407A45"/>
<path fill-rule="evenodd" clip-rule="evenodd" d="M58.5078 43.7866L59.7977 51.2456L65.9513 51.4911C65.3692 46.4618 64.2214 45.2169 61.7693 42.2386C60.3403 42.5507 59.3828 42.8734 58.5078 43.7866Z" fill="#407A45"/>
<path fill-rule="evenodd" clip-rule="evenodd" d="M52.3164 59.8904C53.1647 61.1733 51.9974 60.4467 54.3502 60.9504C54.8409 61.0556 56.0618 61.1317 56.6199 61.1588L57.9762 53.435L52.3347 53.3541L52.3164 59.8904Z" fill="#407A45"/>
<path fill-rule="evenodd" clip-rule="evenodd" d="M46.5225 61.2129L50.3069 60.7207L50.4815 58.8863L50.453 55.3615L50.4353 53.3764L45.2266 53.3684C45.2742 55.8852 45.4113 59.0593 46.5225 61.2129Z" fill="#407A45"/>
<path fill-rule="evenodd" clip-rule="evenodd" d="M52.5128 44.7073L52.2891 51.4626L57.7647 51.4254L56.827 44.2374L52.5128 44.7073Z" fill="#407A45"/>
<path fill-rule="evenodd" clip-rule="evenodd" d="M45.2383 51.4529H50.4644L50.361 44.6022L46.5447 44.0938C45.5552 46.3633 45.362 48.9588 45.2383 51.4529Z" fill="#407A45"/>
<path fill-rule="evenodd" clip-rule="evenodd" d="M52.3402 67.4036C54.1311 66.6363 55.3646 65.1041 55.749 63.0625L52.3242 62.5452L52.3402 67.4036Z" fill="#407A45"/>
<path fill-rule="evenodd" clip-rule="evenodd" d="M52.3469 42.7239L55.8414 42.2891C55.2032 40.0674 54.2259 38.8496 52.3164 38.0137L52.3469 42.7239Z" fill="#407A45"/>
<path fill-rule="evenodd" clip-rule="evenodd" d="M47.695 63.0103C47.487 64.1698 47.0024 61.7425 47.6171 64.2744C47.9895 65.8087 49.1001 66.7653 50.3565 67.3329L50.4756 62.6552L47.695 63.0103Z" fill="#407A45"/>
<path fill-rule="evenodd" clip-rule="evenodd" d="M47.2422 41.8721L50.3459 42.7894L50.4947 38.0537C48.828 39.0056 48.139 39.9728 47.2422 41.8721Z" fill="#407845"/>
<path fill-rule="evenodd" clip-rule="evenodd" d="M43.1992 64.7828C44.2459 66.1248 45.1883 66.5626 46.834 66.7744L45.2528 63.8452L43.1992 64.7828Z" fill="#407444"/>
<path fill-rule="evenodd" clip-rule="evenodd" d="M43.1523 40.6669L45.036 41.4362C45.1307 41.3123 45.2686 41.0333 45.3052 41.1153L46.7148 38.636C44.6923 39.1679 44.2321 39.3242 43.1523 40.6669Z" fill="#407644"/>
<path fill-rule="evenodd" clip-rule="evenodd" d="M57.7194 41.5257L59.8566 40.8482C58.5441 39.5138 58.6545 39.3994 56.3281 38.7317L57.7194 41.5257Z" fill="#407644"/>
<path fill-rule="evenodd" clip-rule="evenodd" d="M56.3945 66.7221L59.9383 65.1536L58.3307 63.8796C57.1411 64.5551 56.8134 65.4086 56.3945 66.7221Z" fill="#407544"/>
</svg>
