<svg width="104" height="104" viewBox="0 0 104 104" fill="none" xmlns="http://www.w3.org/2000/svg">
<rect x="0.5" y="0.5" width="103" height="103" fill="#F8F8F8" stroke="#0B96DA"/>
<path fill-rule="evenodd" clip-rule="evenodd" d="M69.2264 50.5552C69.481 54.1026 66.2532 53.4362 66.9852 50.8852C67.4594 50.641 67.1174 50.6632 68.2006 50.4602C68.8431 50.3398 68.5561 50.4647 69.2264 50.5552ZM18.7852 56.6107C19.3207 62.6088 25.1471 60.4139 27.8184 64.601C26.5681 69.4006 21.6325 65.5346 25.5131 78.0001C26.7238 75.3265 26.558 73.9248 28.4051 71.9081C30.1974 69.9514 30.601 69.8297 32.2743 67.2787C42.1325 68.2253 56.6912 75.1817 68.693 64.4609C73.5737 60.101 73.5737 58.6306 75.5229 56.6222L72.6632 55.7042C74.4136 54.5934 75.2208 53.8015 75.9891 51.4411C69.613 47.9147 67.0613 46.64 58.2735 46.2632C54.8814 46.1178 51.5752 43.103 39.5837 48.2053C41.901 49.0455 43.8382 49.1414 45.3755 50.5092C45.2839 50.6102 45.1495 50.7356 45.0856 50.7963L44.2165 51.6111C43.8952 51.8925 43.6689 52.0672 43.3353 52.3321L31.1347 62.7876C26.4944 55.5917 26.5308 59.5832 18.7852 56.6107Z" fill="#0B96DA"/>
<path fill-rule="evenodd" clip-rule="evenodd" d="M43.6652 28.405C41.227 29.4116 39.4794 30.9553 36.3389 31.1069C32.4469 31.2949 31.5269 29.6825 29.0452 28.4495C26.1947 29.4005 25.8294 31.1948 21.7426 31.1021C17.5565 31.0071 16.9987 29.1934 13.9032 28.4098C12.0785 29.4802 10.7756 30.867 8.14434 31.2098C4.56811 31.6754 3.52382 30.1984 1.09856 30.3245C0.47328 33.9281 2.90471 35.3906 6.08197 35.4779C9.96374 35.585 11.497 33.35 13.8992 32.3927C24.0081 39.9973 26.1812 30.7727 30.3522 32.9682C34.3218 35.058 36.0876 37.1036 41.8887 33.5775C44.6386 31.906 44.9071 33.0848 47.4465 34.2401C53.7683 37.116 57.5486 33.156 59.8515 32.1274C62.2345 33.2449 63.7382 35.018 67.1501 34.936C70.9492 34.8445 73.3085 32.2558 74.9821 32.2672C76.7479 32.2793 78.7489 34.7556 82.3162 34.9386C86.6117 35.159 87.1115 33.1865 90.1352 32.183C92.4914 33.4209 94.0565 35.3115 97.4489 35.1352C102.832 34.8557 104.205 30.7454 101.98 30.3083C99.6075 29.8423 98.8691 31.5242 95.2007 30.753C92.1276 30.1069 91.0969 27.6319 88.9704 28.2919C86.5365 29.0476 85.7931 30.7546 81.7785 30.7555C78.4591 30.7562 77.1203 29.0825 74.9935 28C72.3173 28.9034 71.2807 31.022 67.1726 30.693C63.9507 30.435 61.1603 27.6862 59.3089 28.4234C56.5469 29.524 56.1948 31.6345 51.5173 31.5884C48.0523 31.5544 45.9968 29.6019 43.6652 28.405Z" fill="#0B96DA"/>
<path fill-rule="evenodd" clip-rule="evenodd" d="M80.6426 40.9406C82.1404 41.3525 81.8277 41.6324 83.3499 40.8529C85.4801 37.0441 79.3307 35.3335 80.6426 40.9406Z" fill="#0B96DA"/>
<path fill-rule="evenodd" clip-rule="evenodd" d="M76.2995 49.6877C76.7946 50.06 77.4088 50.9341 78.7272 50.0644C79.8319 49.3357 79.7262 48.5327 79.1847 47.2815C76.5384 45.6076 75.5071 47.2676 76.2995 49.6877Z" fill="#0B96DA"/>
<path fill-rule="evenodd" clip-rule="evenodd" d="M74.2461 39.5069L74.3636 42.3644L76.8006 42.4098C77.8057 39.7073 76.4626 38.5568 74.2461 39.5069Z" fill="#0B96DA"/>
</svg>
