<svg width="104" height="104" viewBox="0 0 104 104" fill="none" xmlns="http://www.w3.org/2000/svg">
<rect x="0.5" y="0.5" width="103" height="103" fill="#F8F8F8" stroke="#4E9B37"/>
<path fill-rule="evenodd" clip-rule="evenodd" d="M60.9794 63.637C61.3155 70.218 61.6463 72.0588 58.9685 72.4041C59.5716 70.6475 60.0778 70.5967 60.2004 68.3601C60.3109 66.3505 59.989 65.0424 60.9794 63.637ZM68.2654 72.8477C68.486 70.7741 68.0978 66.9142 70.0231 65.9529C70.3285 69.7036 70.5448 71.3021 68.2654 72.8477ZM66.7535 72.6456L62.2116 72.4452C62.3354 69.062 62.1072 62.4426 63.4011 59.3592C65.5712 59.0449 66.5343 58.982 67.5132 64.5044C67.9995 67.2466 67.6211 70.2233 66.7535 72.6456ZM39.4671 62.9201L37.9016 58.2468C38.5373 57.3611 39.1222 56.6011 39.9557 55.5649L43.8916 58.3959C41.2819 60.1629 41.8498 61.3733 39.4671 62.9201ZM27.7446 49.3543C26.5779 50.4023 25.687 50.4761 24.9348 52.373C23.6729 55.5552 24.8687 60.129 28.5364 59.5357C31.0413 59.1308 30.187 57.8233 33.4964 58.4334C35.4612 62.1873 36.7294 70.2065 33.91 73.5248L23 73.7426L23.041 77.9764L81.7866 78L82 73.7143L70.4442 73.052C70.5229 72.3661 72.2835 69.2069 71.5875 63.2908C71.3478 61.2543 69.5296 59.7727 70.8837 56.4689C71.7009 54.4758 71.1246 57.2741 71.5067 55.3899C69.0989 51.8485 71.2864 53.7793 67.4812 51.5613L63.3434 47.8045C61.6858 46.3125 59.2284 37.9633 59.7257 35.2418C58.1459 35.9475 56.1945 36.1122 53.9496 36.1603C55.0615 38.2458 57.1284 39.3301 58.4975 40.1645C58.88 43.089 58.4525 45.8152 59.1675 48.5754C60.8508 55.072 59.4514 67.3168 57.5532 72.2678C48.0251 73.0012 45.5625 75.3936 41.9159 71.2245C36.8283 65.4075 43.5536 60.7877 45.8172 58.307C50.2534 57.8006 53.6785 59.9135 55.2888 55.4147C57.2337 49.9811 53.4841 48.3706 49.9705 47.4866C50.7242 46.9772 51.6154 45.536 52.3073 44.3823C54.9799 39.9263 53.3148 37.3763 46.908 38.2511C49.5903 23.8228 34.957 26.3354 32.1881 35.2811C30.6984 40.0936 29.4155 37.007 26.019 40.4755C25.0764 41.438 23.7692 43.506 24.0046 45.6255C24.2604 47.9261 25.7429 48.4567 27.7446 49.3543Z" fill="#4E9B37"/>
</svg>
