<svg width="104" height="104" viewBox="0 0 104 104" fill="none" xmlns="http://www.w3.org/2000/svg">
<rect x="0.5" y="0.5" width="103" height="103" fill="#F8F8F8" stroke="#00669C"/>
<path fill-rule="evenodd" clip-rule="evenodd" d="M75.8974 32.9213L75.6051 32.9914C74.0985 33.2732 75.6975 32.229 74.1426 33.603C74.5471 30.2686 75.3082 28.1386 71.7439 28.0533C69.8843 31.1403 71.5254 32.0217 73.537 34.2122L72.0839 36.0026C71.0549 34.3713 70.6762 32.575 68.0915 32.7631C67.4272 36.4755 68.2085 36.534 70.3776 38.0602L69.3353 40.5447C65.7642 38.6047 65.0114 36.5402 58.8281 42.1427C49.1155 50.9426 44.2226 43.5223 37.8946 38.0914C34.4845 35.1646 30.1439 34.6974 24.7852 34.8431C26.5017 38.768 26.5813 32.7835 30.0446 47.5472C30.7142 50.4018 31.314 52.0438 32.9415 53.7512C35.5237 56.4601 35.8786 55.8267 37.4069 56.8839L38.3573 57.7821C34.4842 61.9941 28.3053 60.5484 24.7461 62.6258C31.5313 66.2931 32.3817 67.6909 41.6781 69.88L25.8319 72.9136L26.4593 77.6636C35.3504 76.1818 60.2693 68.4839 67.509 69.2946L68.361 72.7187C71.9045 72.7758 76.7156 71.0247 80.4562 70.4674C80.0015 67.0021 79.16 60.2322 77.8388 57.6031C74.2515 57.7332 69.67 59.4551 65.8127 60.0697L66.5377 64.0142C64.8237 65.2492 57.2269 67.0791 54.9037 67.2202C67.9681 61.4394 58.2974 46.8819 67.9784 44.2392C68.5116 45.3251 68.2876 45.6037 68.7891 46.8331C69.4842 48.5371 69.3378 48.0897 70.382 48.8046C69.8818 47.0504 69.2169 46.4474 69.1496 44.3133L71.6907 43.5033C70.6967 42.1504 70.4034 42.3844 69.95 40.9014L71.1639 39.3125C73.1341 40.5685 73.5778 41.7604 76.5764 40.5918C77.1426 37.2751 74.4725 37.9778 71.7949 38.5785C72.3728 37.2165 73.5736 35.9259 74.5521 35.1802C77.1875 37.0478 77.5244 36.7729 80.3101 35.3331C78.6786 31.8237 76.7051 34.6116 75.8974 32.9213Z" fill="#00669C"/>
<path fill-rule="evenodd" clip-rule="evenodd" d="M65.3633 57.782L65.6367 59.7084C67.6477 59.5243 69.8511 58.9159 71.8679 58.5018C73.5024 58.166 76.5468 57.9621 77.8064 56.8199L77.5302 55.2273C75.9287 55.0316 66.6218 56.9478 65.3633 57.782Z" fill="#016699"/>
<path fill-rule="evenodd" clip-rule="evenodd" d="M68.5703 74.1366C69.3156 76.4635 68.178 75.8141 75.2214 74.3158C76.3964 74.0659 77.6172 73.8366 78.7676 73.596C80.9743 73.1348 81.1892 73.625 80.8956 71.7313C80.3413 70.8028 78.7473 71.1848 77.6272 71.4356L69.8072 73.1305C68.3516 73.7986 69.4542 72.7862 68.5703 74.1366Z" fill="#016699"/>
<path fill-rule="evenodd" clip-rule="evenodd" d="M75.6055 32.9913L75.8977 32.9212C79.8681 32.2866 80.6489 32.6005 80.9586 28.1189C76.5057 27.3437 76.9039 30.5204 75.6055 32.9913Z" fill="#026598"/>
<path fill-rule="evenodd" clip-rule="evenodd" d="M25.8692 77.9999C25.7453 76.2096 25.5301 74.4741 24.779 73.1002C23.3392 73.3729 22.7187 73.5737 23.1196 75.877C23.4254 77.6349 23.958 77.8863 25.8692 77.9999Z" fill="#016699"/>
</svg>
