<svg width="104" height="104" viewBox="0 0 104 104" fill="none" xmlns="http://www.w3.org/2000/svg">
<rect x="0.5" y="0.5" width="103" height="103" fill="#F8F8F8" stroke="#2B5E84"/>
<path fill-rule="evenodd" clip-rule="evenodd" d="M37.8725 60.1641C38.2125 58.6264 38.8 58.2445 39.7544 57.3208C35.8719 55.2033 35.7931 54.4086 32.9656 54.389C32.2059 56.0487 29 66.3443 29 68.0482C30.7112 68.3661 31.956 68.9344 33.455 68.9839C35.7048 69.0581 32.8178 68.4025 35.7557 69.0452L41.282 70.5588C42.1877 70.9945 41.0594 70.5566 42.3517 71.0395C48.8903 73.4824 42.8824 72.4966 46.9756 75.8025C51.0537 79.096 51.8947 77.2967 52.9706 77.0286C57.2634 75.9589 57.0374 77.0759 54.5849 73.8482C58.0651 75.2932 59.0484 76.1755 61.4329 73.0792C60.8289 71.3347 60.804 71.7811 59.6117 70.6134C61.2115 71.6149 61.2456 72.1611 63.7113 71.9926C66.07 69.2145 64.2849 67.0741 61.5252 65.3817C58.8746 63.7562 56.6707 62.5714 54.0379 60.841C51.2907 59.0353 49.6118 57.3765 45.4453 59.244C42.5099 60.5598 40.582 62.8387 37.8725 60.1641Z" fill="#2B5E84"/>
<path fill-rule="evenodd" clip-rule="evenodd" d="M59.6081 36.5283C54.5047 38.0755 63.0608 43.6636 53.1501 50.629C47.2106 54.8035 39.784 52.1493 36.3697 48.0605C32.0656 42.9064 34.3332 35.6885 38.7627 32.7579C47.5153 26.9669 52.819 33.9729 55.7041 32.5623C55.384 28.1055 38.7918 24.974 33.2144 35.7549C31.0516 39.9352 31.5974 45.2516 34.0536 48.7494C35.3646 50.6167 36.6297 51.5687 38.5285 52.7241C40.217 53.7513 42.9215 54.1115 44.2635 54.9515C42.9755 55.9829 42.032 56.6282 40.8219 57.3916C39.2493 58.3833 38.4322 58.451 39.0592 60.2304C39.5461 60.4532 39.7849 60.7999 41.4771 60.4087C41.4973 60.4042 43.2269 59.6708 43.2885 59.6397C44.5339 59.0079 45.3127 58.3743 46.6259 57.9137C50.2343 56.6478 54.7156 60.583 60.2284 63.7277C65.2377 66.585 63.5768 66.4344 65.6801 68.1226C67.2524 67.3554 68.5852 65.9047 69.8236 65.3624C70.8283 64.9225 72.6725 65.1601 75.0008 64.5739C74.3558 60.6619 70.4088 53.9668 68.3666 51.7122C63.292 52.8089 64.9406 54.2066 63.6031 54.5821C60.3909 54.7788 56.0871 54.189 53.3764 53.1693C59.0231 48.9705 62.8504 44.3808 59.6081 36.5283Z" fill="#2B5E84"/>
<path fill-rule="evenodd" clip-rule="evenodd" d="M54.6857 38.5064C51.5345 39.5121 53.145 38.9807 52.9709 42.0459C52.6266 48.1087 44.4151 49.3231 41.0238 45.7024C37.033 41.4418 40.73 34.628 46.9786 35.3117C50.3902 35.6849 49.7301 37.63 52.1345 35.5226C50.6119 32.5794 43.9153 32.4224 40.2082 35.0248C37.4788 36.9411 35.7204 42.3843 38.4921 46.1199C44.5672 54.3082 58.8988 47.9326 54.6857 38.5064Z" fill="#2B5D82"/>
<path fill-rule="evenodd" clip-rule="evenodd" d="M63.1277 30.7672L62.0782 29.105C62.0236 29.0191 61.9335 28.8599 61.8455 28.7463L60.4575 31.9973C59.354 30.0405 60.9039 30.6528 59.1989 30.559C58.5329 33.5271 57.1219 33.7188 52.9491 36.6942C45.2006 42.2194 49.7153 38.06 44.224 39.6508C43.395 41.7979 43.8788 45.0179 47.2751 43.5354C50.3963 42.1732 46.4304 41.2629 51.3636 39.0649C53.1652 38.2621 54.877 37.2866 56.7326 36.3819C60.3753 34.6061 58.8034 35.0855 62.8864 34.8723C61.457 34.1069 62.2232 34.9125 61.6557 33.8417L64.137 34.2815L63.8439 33.0713C63.8546 33.0503 63.9543 32.9636 63.966 32.9431L64.1472 32.3779C64.1484 32.3633 64.1045 32.2715 64.1183 32.2198C64.2002 32.2422 65.2791 32.5083 65.3312 32.5088L66.7413 32.2055C62.8097 29.9717 65.0222 31.7768 63.5989 28C63.0802 28.6011 63.3601 27.7258 63.1366 28.9744C63.0164 29.6465 63.0882 30.0881 63.1277 30.7672Z" fill="#2B5D81"/>
<path fill-rule="evenodd" clip-rule="evenodd" d="M43.9535 75.4491C44.4199 74.9557 44.9304 73.274 43.921 72.4171C42.5744 71.274 41.7076 72.1225 41.1444 72.9144C38.9651 75.9774 42.6759 76.8017 43.9535 75.4491Z" fill="#2B5D82"/>
<path fill-rule="evenodd" clip-rule="evenodd" d="M37.6289 71.5589C37.6507 72.953 37.6366 74.759 39.6865 74.3854C41.4238 74.0689 41.1533 72.2092 40.5772 70.7566C39.5363 70.5093 39.3404 69.859 37.6289 71.5589Z" fill="#2B5E84"/>
<path fill-rule="evenodd" clip-rule="evenodd" d="M43.7227 76.9715C44.8096 77.6985 45.9667 78.4269 47.998 77.6977C47.6809 76.6581 47.9887 76.3694 44.8467 74.8351C44.1001 76.1167 44.3009 75.437 43.7227 76.9715Z" fill="#2B5D81"/>
</svg>
