<svg width="104" height="104" viewBox="0 0 104 104" fill="none" xmlns="http://www.w3.org/2000/svg">
<rect x="0.5" y="0.5" width="103" height="103" fill="#F8F8F8" stroke="#DDA33A"/>
<path fill-rule="evenodd" clip-rule="evenodd" d="M40.3005 76.9482L58.1169 77.0001C60.1606 74.9501 57.4042 75.8528 60.839 74.623C68.7393 71.7941 80.6587 66.6378 80.4414 55.0394H86C63.3334 55.0394 40.6666 55.0394 18 55.0394C18.0727 65.4814 28.4998 71.7897 37.1046 74.456C40.0415 75.3659 38.771 75.1496 40.3005 76.9482Z" fill="#DDA33A"/>
<path fill-rule="evenodd" clip-rule="evenodd" d="M45.6234 47.4434C42.1332 40.8031 34.9925 42.8512 29.8301 48.1932C24.8205 46.5944 21.931 47.2386 21.3516 52.787L76.9429 53.1863C77.8494 46.7208 71.9387 44.385 65.3892 45.4559C62.8537 43.0998 61.2436 40.2449 54.6759 40.8403C50.0637 41.2587 46.9241 43.3718 45.6234 47.4434Z" fill="#DDA33A"/>
<path fill-rule="evenodd" clip-rule="evenodd" d="M61.2635 40.0477C62.9537 39.4995 62.5599 41.7556 62.5569 34.2845C62.5541 27.137 63.1597 29.0969 61.2635 28.4543C60.7654 29.1682 60.9781 28.3211 60.7398 29.5732C60.668 29.9515 60.6458 30.6676 60.6354 31.0684C60.5858 33.0184 60.2639 38.6497 61.2635 40.0477Z" fill="#DDA33A"/>
<path fill-rule="evenodd" clip-rule="evenodd" d="M51.4718 38.5008C52.9471 37.9908 52.7934 39.9795 52.7195 33.7576C52.6933 31.5256 52.7161 29.2789 52.7161 27.0453C50.4246 27.3649 50.7597 25.3487 50.8336 32.1666C50.8452 33.2388 50.8026 34.3095 50.8044 35.3714C50.8047 35.5046 50.8224 36.9023 50.8285 36.9414C51.1684 39.1565 50.8391 37.6718 51.4718 38.5008Z" fill="#DDA33A"/>
<path fill-rule="evenodd" clip-rule="evenodd" d="M41.1652 40.5518C43.0778 40.3007 42.7519 41.2738 42.6445 32.6445C42.6113 29.9775 43.0425 30.7755 41.6807 30.0616C40.4607 30.6307 40.6528 28.5654 40.696 34.8111C40.71 36.817 40.3853 39.2051 41.1652 40.5518Z" fill="#D8A13A"/>
<path fill-rule="evenodd" clip-rule="evenodd" d="M72.8718 43.0036L74.1432 42.973L74.5401 34.2439C74.2896 32.2101 74.9403 33.0741 73.1122 32.7211C72.2568 34.0685 72.5702 35.8455 72.5778 37.4593C72.5873 39.4258 72.4099 41.1287 72.8718 43.0036Z" fill="#D8A13A"/>
<path fill-rule="evenodd" clip-rule="evenodd" d="M32.3867 42.0548L33.9478 42.0007C34.5735 40.5473 34.5735 34.3754 33.9469 32.9411L32.5574 32.8541L32.3867 42.0548Z" fill="#D69F39"/>
<path fill-rule="evenodd" clip-rule="evenodd" d="M23.9715 42.7567C23.9715 45.3577 24.0418 44.3417 25.1888 44.7007C25.8495 43.9677 25.8607 44.9177 25.8607 42.7567V41.0663H23.9648L23.9715 42.7567Z" fill="#DBA33A"/>
</svg>
