<svg width="104" height="104" viewBox="0 0 104 104" fill="none" xmlns="http://www.w3.org/2000/svg">
<rect x="0.5" y="0.5" width="103" height="103" fill="#F8F8F8" stroke="#4F9C38"/>
<path fill-rule="evenodd" clip-rule="evenodd" d="M74.6333 68.7082L70.6232 49.1119C67.9162 49.4188 65.728 55.7917 63.7379 59.9806L62.7476 55.9553L59.4723 54.7924C60.4058 49.4252 58.5617 44.8579 54.9549 43.067C49.2309 40.2246 46.5877 44.8935 43.4765 46.348C37.5745 40.279 30.8723 41.243 28.2801 48.1113C27.5032 50.1704 28.309 54.0435 27.6989 55.2482C25.9443 54.103 26.5598 49.6748 25.1542 47.561C21.9751 48.2451 21.5403 54.7316 18.5379 58.0215L17.5377 54.3237C15.4652 53.7811 10.772 53.0506 9 54.2728C9.25696 57.3358 9.06012 55.5695 15.149 56.1741L16.8368 64.1651C20.3694 63.655 20.803 57.1959 24.2445 53.7022C25.0358 58.6445 24.191 57.0667 29.2259 57.493C29.6554 57.6894 38.9714 70.1311 44.0382 72.4431L55.3979 60.7384C56.9758 58.6728 56.8946 57.5381 60.2282 57.5452L61.9695 65.7344C64.0847 65.2796 63.4959 65.6675 64.4949 63.768L69.1427 55.0051C71.0442 59.8989 71.129 74.3319 74.0138 77C76.1423 76.4595 75.9463 74.9838 76.6282 72.5386L88.7733 33.1832C93.4169 39.6077 91.3666 43.5231 96 43.447C95.774 40.4502 90.5191 28.3514 88.2644 27C84.9038 29.626 77.1809 64.9591 74.6333 68.7082Z" fill="#4F9C38"/>
</svg>
