<svg width="104" height="104" viewBox="0 0 104 104" fill="none" xmlns="http://www.w3.org/2000/svg">
<rect x="0.5" y="0.5" width="103" height="103" fill="#F8F8F8" stroke="#C41A2D"/>
<path fill-rule="evenodd" clip-rule="evenodd" d="M58.6557 72.6904C72.5118 64.4816 72.096 68.9961 79.5669 65.8984L79.0516 27C72.8685 27.5534 59.1637 35.0413 58.2319 39.2076C57.5289 42.3503 58.3616 67.9082 58.6557 72.6904Z" fill="#C41A2D"/>
<path fill-rule="evenodd" clip-rule="evenodd" d="M35.625 67.083C44.4561 67.0058 50.1226 69.4136 56.7034 72.7254C56.6084 63.0596 57.0876 49.7086 56.2156 40.4611C55.5783 33.7024 39.9102 28.7774 36.4893 28.7592L35.625 67.083Z" fill="#C41A2D"/>
<path fill-rule="evenodd" clip-rule="evenodd" d="M80.9633 67.6688C55.0573 70.7785 63.6105 73.7853 57.3844 74.4914C55.4157 74.7146 49.9019 71.1515 47.2133 70.0963C44.5288 69.0424 36.7402 65.8264 35.0156 69.4642C35.4573 71.3656 34.8464 70.649 36.9613 71.1501C37.3214 71.2354 39.8907 71.3789 40.625 71.4803C49.3303 72.6816 56.0802 77.6575 58.6172 76.9272C59.6641 76.6258 61.767 74.7367 63.2773 73.9443C68.973 70.9567 77.6102 70.69 83.999 71.1533L82.5575 31.4804C82.2927 28.8263 82.011 29.1909 80.3274 27.9226L80.9633 67.6688Z" fill="#C11A2D"/>
<path fill-rule="evenodd" clip-rule="evenodd" d="M21.2636 75.7923C25.1209 70.0749 24.7439 66.4195 25.8473 58.886C26.3894 55.1864 28.6773 42.2903 28.2735 39.5067L24.5503 38.9894C22.9307 42.1264 22.1465 53.0517 21.5112 57.4303C20.4749 64.5715 18.8326 68.861 21.2636 75.7923Z" fill="#C41A2D"/>
<path fill-rule="evenodd" clip-rule="evenodd" d="M24.6172 37.5726L28.8976 37.9888L29.3241 34.4373L24.9016 33.9958L24.6172 37.5726Z" fill="#BE1B2D"/>
<path fill-rule="evenodd" clip-rule="evenodd" d="M25.0781 32.5009L29.5346 33.0582C30.1723 29.4299 29.5095 28.4602 25.8936 29.2976L25.0781 32.5009Z" fill="#C11A2D"/>
</svg>
