<svg width="104" height="104" viewBox="0 0 104 104" fill="none" xmlns="http://www.w3.org/2000/svg">
<rect x="0.5" y="0.5" width="103" height="103" fill="#F8F8F8" stroke="#FD3A22"/>
<path fill-rule="evenodd" clip-rule="evenodd" d="M72.2133 34.4129C79.357 32.791 85.3417 38.2272 86.48 44.088C87.9205 51.5035 82.8981 57.5057 77.1112 58.7725C61.7563 62.1342 55.9822 38.098 72.2133 34.4129ZM68.0651 68.5404L67.9759 71.9977C70.2981 71.9977 71.9393 71.6073 73.1405 72.5756L73.1764 77.0001L76.4837 76.9468L76.8053 72.0864L82.2607 71.7276L82.2299 68.5871L76.7809 68.4193L76.8024 62.3889C84.4298 59.6573 90.577 55.6894 89.9571 45.4375C88.762 25.6759 59.3875 26.2819 59.1458 46.4005C59.0886 51.1702 61.0323 54.9863 63.3803 57.4559C64.7436 58.8896 65.8227 59.8362 67.8112 60.7772C73.5152 63.4758 73.1719 59.6968 73.1719 68.481L68.0651 68.5404Z" fill="#FD3A22"/>
<path fill-rule="evenodd" clip-rule="evenodd" d="M17.2326 46.8955C16.868 39.7682 21.7623 34.4227 28.1364 33.9285C43.8779 32.7081 45.4 56.9382 30.0528 58.1166C23.2804 58.6365 17.5614 53.3217 17.2326 46.8955ZM43.1421 31.1627C42.0935 32.2464 40.6892 33.4631 39.6567 34.5681C36.2639 33.0014 34.6946 30.65 29.1163 30.6254C17.1061 30.5729 8.89543 45.0786 17.6704 56.1597C27.4119 68.4615 51.2958 57.9479 41.7692 37.5701C43.1248 35.9434 43.9663 35.0165 46.0609 34.0085C46.8697 35.4698 47.3293 36.0767 48.7657 37.538L50.6661 27.2382L40.3266 27L43.1421 31.1627Z" fill="#FD3A22"/>
<path fill-rule="evenodd" clip-rule="evenodd" d="M45.774 48.3682C47.0872 49.0104 52.8005 48.8255 54.5668 48.7733C56.9011 48.7046 57.0154 49.3678 57.0081 45.6685L45.7383 45.7238L45.774 48.3682Z" fill="#FC3A22"/>
<path fill-rule="evenodd" clip-rule="evenodd" d="M45.7891 53.6332L56.7999 53.5808L56.9366 50.5243L46.0362 50.5652L45.7891 53.6332Z" fill="#F63922"/>
</svg>
