<svg width="104" height="104" viewBox="0 0 104 104" fill="none" xmlns="http://www.w3.org/2000/svg">
<rect x="0.5" y="0.5" width="103" height="103" fill="#F8F8F8" stroke="#25BCE1"/>
<path fill-rule="evenodd" clip-rule="evenodd" d="M54.0915 30.6958C56.5643 33.3646 71.3989 43.2273 73.6758 45.6875C73.775 45.7947 73.9157 45.9794 73.996 46.0702C74.0779 46.1627 74.2184 46.3276 74.3162 46.4669L68.145 46.4843L67.9643 74.1444L37.2687 74.0004L37.2393 46.4738L32.626 45.088L54.0915 30.6958ZM34.1978 77H70.6971C70.6472 74.5883 69.8648 51.8612 71.1928 49.5669L84 49.6089C81.1062 47.0425 78.2752 45.0675 75.2057 42.7435C72.3244 40.5622 68.7434 37.6582 65.7135 35.8453L65.6454 27.8177L61.7442 27.818L61.6632 32.4264C58.6779 30.7149 56.7969 28.7658 53.9104 27C51.54 27.9426 22.6475 48.2187 21 49.5383L34.2292 49.6591L34.1978 77Z" fill="#25BCE1"/>
<path fill-rule="evenodd" clip-rule="evenodd" d="M51.6663 46.3157C49.2527 50.2743 46.8343 52.4409 44.8132 58.25C42.7666 64.1315 45.8794 68.6249 51.6888 68.744C66.2102 69.0424 56.4531 50.0661 51.6663 46.3157Z" fill="#25BCE1"/>
</svg>
