<svg width="104" height="104" viewBox="0 0 104 104" fill="none" xmlns="http://www.w3.org/2000/svg">
<rect x="0.5" y="0.5" width="103" height="103" fill="#F8F8F8" stroke="#FCC10B"/>
<path fill-rule="evenodd" clip-rule="evenodd" d="M44.3191 62.0533C44.3191 62.0533 43.7646 62.0953 43.773 62.0743L46.08 53.5867L45.253 53.0252L43.2078 53.3957L42.8692 53.6068L43.0234 53.1883C43.7172 51.1318 45.1674 49.1502 46.3652 47.3329L48.9582 43.2495L49.0492 49.2144L52.7281 48.3992L44.3191 62.0533ZM74.9744 67.7886C75.6165 67.7886 76.1373 68.3163 76.1373 68.9669C76.1373 69.6175 75.6165 70.1452 74.9744 70.1452C74.3323 70.1452 73.8114 69.6175 73.8114 68.9669C73.8114 68.3163 74.3323 67.7886 74.9744 67.7886ZM73.7472 63.2888C74.3896 63.2888 74.9101 63.8162 74.9101 64.4671C74.9101 65.118 74.3896 65.6454 73.7472 65.6454C73.1048 65.6454 72.5842 65.118 72.5842 64.4671C72.5842 63.8162 73.1048 63.2888 73.7472 63.2888ZM78.269 63.8454C79.1963 63.8454 79.9486 64.6076 79.9486 65.5472C79.9486 66.4868 79.1963 67.249 78.269 67.249C77.3417 67.249 76.5894 66.4868 76.5894 65.5472C76.5894 64.6076 77.3417 63.8454 78.269 63.8454ZM52.7425 65.7969C55.2383 73.5232 66.2265 69.5521 72.3795 68.4954C72.7526 70.7067 72.656 70.6833 73.8811 72.0581C76.3285 71.304 81.4159 67.6937 80.9722 64.4036C79.108 62.3517 74.5388 61.8623 71.5747 62.0773C70.7534 64.2086 71.3775 64.3646 71.7605 66.4016C65.9092 68.0888 57.3588 70.9868 54.2452 65.3291C56.8842 62.7745 58.8679 62.1783 60.6549 58.2014C66.0968 46.0925 53.918 33.7457 42.0058 38.7984C29.1189 44.2645 29.2966 69.6035 52.7425 65.7969Z" fill="#FCC10B"/>
<path fill-rule="evenodd" clip-rule="evenodd" d="M23 51.5264C23.3752 53.8176 24.0393 53.4432 26.5858 53.4307C27.3708 53.4267 28.9195 53.4736 29.6171 53.3887C31.3003 53.184 30.7852 53.1947 31.5059 52.514C30.8662 48.8516 23.6871 50.6808 23 51.5264Z" fill="#FAC00C"/>
<path fill-rule="evenodd" clip-rule="evenodd" d="M61.7494 44.2361C64.4115 44.356 64.3176 43.8626 66.2268 42.75C68.4563 41.4506 69.5778 41.8868 69.0215 39.466C69.0029 39.4584 68.6109 38.6082 66.5138 39.3784C65.9527 39.5843 65.2175 40.2151 64.6117 40.5835C62.505 41.8643 61.6044 41.339 61.7494 44.2361Z" fill="#FCC10B"/>
<path fill-rule="evenodd" clip-rule="evenodd" d="M46.7926 68.8672C46.0595 70.4178 46.2898 71.1094 46.2783 73.1744C46.2633 75.8662 45.6741 76.2269 47.9555 77.0001C49.3244 75.6956 50.6032 67.4984 46.7926 68.8672Z" fill="#FCC10B"/>
<path fill-rule="evenodd" clip-rule="evenodd" d="M46.7314 35.2537L48.552 35.5737C49.2197 33.9428 49.0849 32.9691 49.0738 30.9075C49.0588 28.1795 49.5133 27.8072 47.45 27C45.8812 28.5725 45.8923 33.2192 46.7314 35.2537Z" fill="#FCC10B"/>
<path fill-rule="evenodd" clip-rule="evenodd" d="M63.9961 52.5564C65.3683 53.78 65.3314 53.4756 68.8298 53.4406C71.086 53.4181 71.9197 53.6955 72.1403 51.5262C70.5151 50.2308 66.0881 50.5486 65.389 50.7543C63.7274 51.2424 64.0681 50.6627 63.9961 52.5564Z" fill="#FAC00C"/>
<path fill-rule="evenodd" clip-rule="evenodd" d="M68.9881 64.5744C69.6146 62.1238 64.2496 59.6391 61.7319 59.8092C61.6956 62.0977 62.3278 62.4654 66.2597 64.4376C67.214 64.9163 66.193 64.7159 67.3722 64.8701L68.9881 64.5744Z" fill="#FCC10B"/>
<path fill-rule="evenodd" clip-rule="evenodd" d="M26.3818 39.5509C25.9951 41.4704 27.1929 41.7664 28.7443 42.6658C30.5211 43.696 31.2307 44.6352 33.6098 44.2194C33.7325 41.1228 28.1106 39.2559 27.9794 39.2361C24.9778 38.7856 27.3664 39.0627 26.3818 39.5509Z" fill="#FCC10B"/>
<path fill-rule="evenodd" clip-rule="evenodd" d="M39.823 37.6205C40.3405 36.0626 38.3815 30.2422 35.2478 30.4113C34.3115 32.385 36.7851 37.8931 39.823 37.6205Z" fill="#FBC10C"/>
<path fill-rule="evenodd" clip-rule="evenodd" d="M60.2563 30.2266C58.0097 30.549 57.7563 31.3632 56.753 33.1404C51.7401 42.0234 60.7186 36.9388 60.2563 30.2266Z" fill="#FBC10C"/>
<path fill-rule="evenodd" clip-rule="evenodd" d="M35.2469 73.6895C37.7052 73.4821 41.3801 68.2852 39.3139 66.1062C37.0847 66.8222 34.3314 71.4956 35.2469 73.6895Z" fill="#FBC10C"/>
<path fill-rule="evenodd" clip-rule="evenodd" d="M26.3383 64.6771C28.388 65.2119 34.0907 62.7241 33.4561 60.0451C32.419 59.5971 34.6776 59.5298 32.2437 59.7595L29.0908 61.2572C27.3535 62.2804 26.0117 62.3044 26.3383 64.6771Z" fill="#FCC10B"/>
<path fill-rule="evenodd" clip-rule="evenodd" d="M45.5522 54.8486L46.5158 52.558L43.9102 53.2691L45.5522 54.8486Z" fill="#FCC10B"/>
<path fill-rule="evenodd" clip-rule="evenodd" d="M43.215 53.3957L43.0306 53.1882L42.1055 54.087L43.215 53.3957Z" fill="#FCC10B"/>
</svg>
