<svg width="104" height="104" viewBox="0 0 104 104" fill="none" xmlns="http://www.w3.org/2000/svg">
<rect x="0.5" y="0.5" width="103" height="103" fill="#F8F8F8" stroke="#A01A41"/>
<path fill-rule="evenodd" clip-rule="evenodd" d="M61.9942 77.8648L73.3634 78.0001L73.6072 76.1762L73.5665 43.2162L61.9844 43.2598L61.9942 77.8648Z" fill="#A01A41"/>
<path fill-rule="evenodd" clip-rule="evenodd" d="M44.8555 77.8984L56.2477 77.9947C56.7059 75.0244 56.7595 52.4084 56.1593 50.0059L45.0551 50.0138L44.8555 77.8984Z" fill="#A01A41"/>
<path fill-rule="evenodd" clip-rule="evenodd" d="M68.7059 31.4146L26 49.2787L27.4334 53.152L70.0666 35.2935L71.6231 38.285L74.3236 34.5944C75.3277 33.0286 76.1725 31.8798 77 30.2667C76.8945 30.1954 76.7231 29.9773 76.6669 30.0822C76.6104 30.1868 76.4079 29.9393 76.3281 29.9075L72.8145 29.0206C70.9624 28.6264 69.5351 28.269 67.6591 28L68.7059 31.4146Z" fill="#A01A41"/>
<path fill-rule="evenodd" clip-rule="evenodd" d="M28.8047 77.8747L40.1774 77.999L40.3794 57.2339L28.8125 57.2704L28.8047 77.8747Z" fill="#A01A41"/>
</svg>
