<svg width="104" height="104" viewBox="0 0 104 104" fill="none" xmlns="http://www.w3.org/2000/svg">
<rect x="0.5" y="0.5" width="103" height="103" fill="#F8F8F8" stroke="#FB6825"/>
<path fill-rule="evenodd" clip-rule="evenodd" d="M64.2276 74.3287L64.2105 62.6693C67.6536 61.5854 70.3724 58.4172 74.1931 57.4209L74.0803 68.9835C71.4963 70.4882 67.0596 73.5309 64.2276 74.3287ZM28.6708 57.5421C30.6082 57.9576 37.2642 61.8421 38.6219 63.2536L38.7452 74.2958L28.7228 68.9318L28.6708 57.5421ZM52.402 56.9641L62.3275 62.1781L62.4853 74.2551C59.9862 73.2666 54.9821 70.0208 52.643 68.2806L52.402 56.9641ZM40.6691 74.7106L40.526 65.3745C40.5205 61.9508 42.1265 61.8374 44.5418 60.5415C46.4504 59.5174 48.4799 57.9995 50.7893 57.316L50.6438 68.4995C48.9721 69.9951 42.8309 73.726 40.6691 74.7106ZM52.3219 53.8062L52.4332 41.6588C54.5644 40.3801 60.2137 37.1054 62.5033 36.4736C62.4831 38.6872 62.4354 40.9014 62.4333 43.115C62.429 47.5478 63.1667 48.9113 52.3219 53.8062ZM40.3827 36.3759L50.2708 41.6024L50.5496 53.7092C47.6247 52.6775 43.1666 49.4035 40.5667 47.7882L40.3827 36.3759ZM38.6525 47.6802C37.344 49.097 29.1587 53.6744 27 54.7452L27.0174 70.1276C29.0621 71.1104 37.7467 76.809 39.0109 76.9828C41.9397 77.3851 49.2231 70.6063 51.716 70.9075C54.4455 71.2375 60.2168 77.5999 64.0998 76.8638C66.04 76.4959 75.1647 70.4745 75.9492 69.4281L76 55.3993L73.0843 53.1675C71.9369 52.4737 71.2753 52.1506 70.0927 51.4637C68.0544 50.2798 65.9177 48.8484 64.1249 48.1032C64.1044 45.1989 64.0705 42.2912 64.0674 39.3876C64.064 35.9457 64.8021 34.3774 62.403 32.8552C61.0584 32.002 52.8148 27.108 51.7169 27.0034C50.1714 26.856 42.6885 31.5145 41.0005 32.5198C37.4467 34.637 38.71 38.7257 38.6525 47.6802Z" fill="#FB6825"/>
</svg>
