<?xml version="1.0" encoding="UTF-8"?>
<svg width="1000px" height="1000px" viewBox="0 0 1000 1000" version="1.1" xmlns="http://www.w3.org/2000/svg" xmlns:xlink="http://www.w3.org/1999/xlink">
    <!-- Generator: Sketch 53.2 (72643) - https://sketchapp.com -->
    <title>_1</title>
    <desc>Created with Sketch.</desc>
    <g id="_1" stroke="none" stroke-width="1" fill="none" fill-rule="evenodd">
        <rect id="Rectangle" fill="#E5243B" fill-rule="nonzero" x="0" y="0" width="1000" height="1000"></rect>
        <g id="Group-2" transform="translate(119.000000, 336.000000)" fill="#FFFFFF" fill-rule="nonzero">
            <g id="Group" transform="translate(631.000000, 0.000000)">
                <path d="M38.13,28.09 C38.14105,12.8147964 50.528127,0.438171652 65.8033345,0.440016473 C81.078542,0.441861293 93.4626292,12.8214777 93.4699895,28.0966835 C93.4773499,43.3718894 81.1051987,55.7634345 65.83,55.78 C50.5356168,55.780001 38.1355214,43.3843822 38.13,28.09" id="Path"></path>
                <path d="M98.15,66.45 C117.143459,68.202808 131.668661,84.1458429 131.65,103.22 L131.65,180 C131.65,185.926015 126.846015,190.73 120.92,190.73 C114.993985,190.73 110.19,185.926015 110.19,180 L110.19,114.05 C110.19,111.57 109.48,108.23 104.96,108.23 C101.83,108.23 101.18,111.54 101.07,113.65 L101.07,311.19 C101.07,319.711754 94.1617537,326.62 85.64,326.62 C77.1182463,326.62 70.21,319.711754 70.21,311.19 L70.21,197.36 C70.21,196.1 69.75,192.84 65.83,192.84 L65.83,192.84 C61.9,192.84 61.42,196.1 61.38,197.36 L61.38,311.19 C61.5226651,316.790856 58.6161843,322.02841 53.7880818,324.870834 C48.9599792,327.713257 42.9700208,327.713257 38.1419182,324.870834 C33.3138157,322.02841 30.4073349,316.790856 30.55,311.19 L30.55,113.65 C30.45,111.54 29.77,108.23 26.67,108.23 C22.13,108.23 21.44,111.57 21.44,114.05 L21.44,180 C21.1919889,185.740535 16.4658895,190.266859 10.72,190.266859 C4.97411047,190.266859 0.248011146,185.740535 -4.23516474e-22,180 L-4.23516474e-22,103.22 C-0.00685332129,84.1320048 14.5412578,68.1876219 33.55,66.45 C34.2122134,66.3495025 34.8803249,66.292713 35.55,66.28 L96,66.28 C96.7062604,66.2911686 97.4110615,66.3479536 98.11,66.45" id="Path"></path>
            </g>
            <g id="Group" transform="translate(403.000000, 16.000000)">
                <path d="M101.5,26.63 C101.495952,16.0281362 95.1053605,6.47282647 85.3085802,2.42034229 C75.5117999,-1.63214189 64.2384855,0.616410281 56.7461276,8.11735055 C49.2537696,15.6182908 47.0181248,26.8941719 51.0818219,36.6863065 C55.145519,46.478441 64.7081385,52.8580892 75.31,52.85 C89.7814777,52.8389583 101.505526,41.1014809 101.5,26.63" id="Path"></path>
                <path d="M22.48,86 L0.69,157 C0.69,157 -3.19,170 7.84,173.25 C18.87,176.5 22.15,163.81 22.15,163.81 L39.72,104.6 C39.72,104.6 40.72,100.04 44.1,101.03 C47.48,102.02 46.24,106.88 46.24,106.88 L15.66,217.88 L44.1,217.88 L44.1,297.35 C44.3002085,304.747562 50.3547292,310.640439 57.755,310.640439 C65.1552708,310.640439 71.2097915,304.747562 71.41,297.35 L71.41,217.79 L79.17,217.79 L79.17,297.26 C79.3702832,304.663032 85.4292592,310.560304 92.835,310.560304 C100.240741,310.560304 106.299717,304.663032 106.5,297.26 L106.5,217.79 L134.93,217.79 L104.37,106.79 C104.37,106.79 103.08,102 106.5,101 C109.92,100 110.88,104.57 110.88,104.57 L128.45,163.78 C128.45,163.78 131.79,176.47 142.75,173.22 C153.71,169.97 149.9,157 149.9,157 L128.11,86 C128.11,86 120.33,65.49 103.11,65.49 L47.53,65.49 C30.29,65.49 22.53,86 22.53,86" id="Path"></path>
            </g>
            <g id="Group" transform="translate(246.000000, 16.000000)">
                <path d="M101.49,26.63 C101.484476,12.1546183 89.745383,0.424480617 75.2700013,0.430003815 C60.7946195,0.435527013 49.0644813,12.1746195 49.0700038,26.6500013 C49.0755263,41.125383 60.8146183,52.8555218 75.29,52.85 C89.763095,52.8389603 101.490004,41.1030992 101.49,26.63" id="Path"></path>
                <path d="M22.46,86 L0.68,157 C0.68,157 -3.22,170 7.82,173.25 C18.86,176.5 22.13,163.81 22.13,163.81 L39.7,104.6 C39.7,104.6 40.65,100.04 44.08,101.03 C47.51,102.02 46.21,106.88 46.21,106.88 L15.64,217.88 L44.08,217.88 L44.08,297.35 C44.08,304.89421 50.1957903,311.01 57.74,311.01 C65.2842097,311.01 71.4,304.89421 71.4,297.35 L71.4,217.79 L79.16,217.79 L79.16,297.26 C79.3602085,304.657562 85.4147292,310.550439 92.815,310.550439 C100.215271,310.550439 106.269791,304.657562 106.47,297.26 L106.47,217.79 L134.92,217.79 L104.36,106.79 C104.36,106.79 103.06,101.92 106.47,100.94 C109.88,99.96 110.86,104.51 110.86,104.51 L128.42,163.72 C128.42,163.72 131.76,176.41 142.73,173.16 C153.7,169.91 149.87,157 149.87,157 L128.08,86 C128.08,86 120.31,65.49 103.08,65.49 L47.51,65.49 C30.28,65.49 22.46,86 22.46,86" id="Path"></path>
            </g>
            <g id="Group" transform="translate(539.000000, 145.000000)">
                <path d="M53.54,44.35 C65.5882486,44.3499949 75.3563121,34.5849086 75.3599898,22.5366606 C75.3636675,10.4884125 65.6015675,0.717364591 53.5533211,0.710004072 C41.5050747,0.702643553 31.7310433,10.4617564 31.72,22.51 C31.7093698,28.3021141 34.0042023,33.8603483 38.0979757,37.9578741 C42.1917492,42.0553998 47.7478786,44.3553236 53.54,44.35" id="Path"></path>
                <path d="M1.23,112.13 C0.16,114.68 -0.71,120.13 4.41,122.45 C10.41,125.21 13.76,119.45 13.76,119.45 L25.62,81.62 C25.62,81.62 27.68,79.09 27.68,81.71 L27.68,170.76 L27.73,170.76 C27.9109162,176.812587 32.8697093,181.625373 38.925,181.625373 C44.9802907,181.625373 49.9390838,176.812587 50.12,170.76 L50.12,135.57 C50.12,135.57 49.47,130.57 53.48,130.57 C57.49,130.57 56.86,135.57 56.86,135.57 L56.86,170.72 C56.86,176.916635 61.8833651,181.94 68.08,181.94 C74.2766349,181.94 79.3,176.916635 79.3,170.72 L79.3,81.67 C79.3,79.05 80.68,80.92 80.68,80.92 L89.98,106.82 C89.98,106.82 93.98,118.39 95.26,118.9 C97.2859454,119.743932 99.5644607,119.746903 101.592599,118.908255 C103.620738,118.069607 105.231739,116.458299 106.07,114.43 C107.203608,111.794085 106.869471,108.756477 105.19,106.43 L105.27,106.35 C105,105.51 91.37,72.09 89.77,67.4 C84.85,53.03 75.89,53.16 67.27,52.92 C58.65,52.68 53.48,52.92 53.48,52.92 C53.48,52.92 47.97,52.7 36.58,53.03 C25.19,53.36 21.58,59.22 9.07,91.49 C7.28,96.14 1.23,111.17 1.15,112.07 L1.23,112.13 Z" id="Path"></path>
            </g>
            <g id="Group">
                <path d="M85.66,55.78 C96.8622816,55.7921368 106.968264,49.0533853 111.263604,38.707308 C115.558944,28.3612307 113.197316,16.4463508 105.280396,8.52084471 C97.3634768,0.595338588 85.4511639,-1.77920399 75.1004365,2.50491815 C64.7497091,6.78904029 58.0000066,16.8877118 58,28.09 C58.0164948,43.3642206 70.3858063,55.7469478 85.66,55.78 Z" id="Path"></path>
                <path d="M118.22,66.31 C117.487133,66.160799 116.745705,66.0572663 116,66 L55.5,66 C54.826585,66.0537361 54.158084,66.1573538 53.5,66.31 C34.4778548,68.1174566 19.9608005,84.112217 20,103.22 L20,180 C19.9733465,183.949048 22.1320715,187.589251 25.61,189.46 C25.4515668,189.75723 25.3306422,190.072978 25.25,190.4 L0.65,320.7 C0.433791266,321.757102 0.653815136,322.856716 1.26012748,323.749238 C1.86643982,324.64176 2.80761076,325.251482 3.87,325.44 C4.11707402,325.48805 4.36830151,325.511498 4.62,325.51 C6.57820897,325.518786 8.2622199,324.125267 8.62,322.2 L33.2,191.9 C33.2468043,191.391706 33.1958883,190.879152 33.05,190.39 C37.7718702,189.163751 41.0509731,184.878232 41,180 L41,114.05 C41,111.57 41.65,108.23 46.17,108.23 C49.29,108.23 50,111.54 50,113.65 L50,311.19 C50,319.750414 56.9395864,326.69 65.5,326.69 C74.0604136,326.69 81,319.750414 81,311.19 L81,197.36 C80.9787442,196.143977 81.4734345,194.975826 82.3615358,194.144898 C83.249637,193.313971 84.4480766,192.897992 85.66,193 L85.66,193 C89.59,193 89.99,196.1 89.99,197.36 L89.99,311.19 C89.99,319.750414 96.9295864,326.69 105.49,326.69 C114.050414,326.69 120.99,319.750414 120.99,311.19 L120.99,113.65 C120.99,111.54 121.73,108.23 124.82,108.23 C129.37,108.23 129.99,111.57 129.99,114.05 L129.99,180 C129.99,186.075132 134.914868,191 140.99,191 C147.065132,191 151.99,186.075132 151.99,180 L151.99,103.22 C151.898908,84.0634984 137.292957,68.099458 118.22,66.31 L118.22,66.31 Z" id="Path"></path>
            </g>
            <g id="Group" transform="translate(150.000000, 145.000000)">
                <path d="M75.16,80.41 L95.41,43.66 C95.41,43.66 97.85,38.38 97.85,37.12 C97.7931529,33.5972004 95.4383173,30.526304 92.0508807,29.5574788 C88.6634442,28.5886535 85.0409618,29.9500044 83.13,32.91 L83.04,32.91 C82.4,33.46 72.21,51.54 68.85,54.91 C65.3,58.5 62.11,58.05 62.11,58.05 L35.67,58.05 C35.67,58.05 32.47,58.5 28.93,54.91 C25.53,51.55 15.39,33.44 14.74,32.91 L14.67,32.97 C12.7507235,30.0653167 9.1732573,28.735379 5.82263131,29.6809544 C2.47200531,30.6265298 0.117602857,33.6304918 5.68434189e-14,37.11 C0.114080402,38.3012076 0.37609755,39.4735664 0.78,40.6 L22.73,80.41 C23.4826307,82.0645896 23.9201087,83.845023 24.02,85.66 L24.02,93.5 L12.5,136 L24,136 L24,171 L24.15,171 C24.210322,176.998994 29.0907031,181.830303 35.09,181.83 C41.0525712,181.885525 45.9340662,177.102465 46,171.14 L46,137.41 C45.6798082,137.014799 45.5417632,136.502579 45.62,136 L52.12,136 C52.1796343,136.473208 52.1387436,136.953675 52,137.41 L52,171.14 C52,177.215132 56.9248678,182.14 63,182.14 C69.0751322,182.14 74,177.215132 74,171.14 L74,136 L85.29,136 L74,93.25 L74,85.66 C74.0862212,83.8568902 74.4784808,82.0815773 75.16,80.41 L75.16,80.41 Z" id="Path"></path>
                <path d="M48.88,44.35 C60.9295488,44.3555172 70.7026267,34.592878 70.7099868,22.5433303 C70.7173468,10.4937825 60.9562025,0.719211556 48.906656,0.710008651 C36.8571095,0.700805746 27.0810458,10.460455 27.07,22.51 C27.0593748,28.30038 29.3528358,33.8570951 33.4444447,37.954332 C37.5360535,42.051569 43.0896108,44.3526659 48.88,44.35 Z" id="Path"></path>
            </g>
        </g>
    </g>
</svg>