<?xml version="1.0" encoding="UTF-8"?>
<svg width="1000px" height="1000px" viewBox="0 0 1000 1000" version="1.1" xmlns="http://www.w3.org/2000/svg" xmlns:xlink="http://www.w3.org/1999/xlink">
    <!-- Generator: Sketch 53.2 (72643) - https://sketchapp.com -->
    <title>_10</title>
    <desc>Created with Sketch.</desc>
    <g id="_10" stroke="none" stroke-width="1" fill="none" fill-rule="evenodd">
        <rect id="Rectangle" fill="#DD1367" fill-rule="nonzero" x="0" y="0" width="1000" height="1000"></rect>
        <g id="Group" transform="translate(238.000000, 238.000000)" fill="#FFFFFF" fill-rule="nonzero">
            <g transform="translate(167.000000, 173.000000)" id="Path">
                <path d="M187.3,118.55 L2.68,118.55 C1.51342449,118.625084 0.622960554,119.622403 0.68,120.79 L0.68,176.28 C0.617297478,177.451399 1.50932873,178.454934 2.68,178.53 L187.3,178.53 C188.470671,178.454934 189.362703,177.451399 189.3,176.28 L189.3,120.79 C189.357039,119.622403 188.466576,118.625084 187.3,118.55"></path>
                <path d="M187.3,0.48 L2.68,0.48 C1.51342449,0.555083519 0.622960554,1.55240313 0.68,2.72 L0.68,58.21 C0.611712798,59.3833453 1.50674063,60.3902516 2.68,60.46 L187.3,60.46 C188.473259,60.3902516 189.368287,59.3833453 189.3,58.21 L189.3,2.72 C189.357039,1.55240313 188.466576,0.555083519 187.3,0.48"></path>
            </g>
            <g id="Path">
                <path d="M351.7,89.61 L263.08,1 C262.480695,0.410421352 261.519305,0.410421352 260.92,1 L172.3,89.61 C171.863998,90.0475092 171.733827,90.7042687 171.969993,91.2750028 C172.206159,91.8457369 172.762336,92.2184906 173.38,92.22 L350.62,92.22 C351.237664,92.2184906 351.793841,91.8457369 352.030007,91.2750028 C352.266173,90.7042687 352.136002,90.0475092 351.7,89.61 L351.7,89.61 Z"></path>
                <path d="M434.9,352.21 L523.52,263.59 C523.808848,263.302819 523.971262,262.912316 523.971262,262.505 C523.971262,262.097684 523.808848,261.707181 523.52,261.42 L434.9,172.8 C434.462491,172.363998 433.805731,172.233827 433.234997,172.469993 C432.664263,172.706159 432.291509,173.262336 432.29,173.88 L432.29,351.13 C432.291509,351.747664 432.664263,352.303841 433.234997,352.540007 C433.805731,352.776173 434.462491,352.646002 434.9,352.21 L434.9,352.21 Z"></path>
                <path d="M172.3,435.41 L260.92,524 C261.205467,524.288248 261.594317,524.450421 262,524.450421 C262.405683,524.450421 262.794533,524.288248 263.08,524 L351.7,435.38 C352.143189,434.943455 352.277941,434.282033 352.040862,433.706897 C351.803783,433.131761 351.242078,432.757427 350.62,432.76 L173.38,432.76 C172.744263,432.74414 172.164996,433.123184 171.924989,433.71209 C171.684982,434.300996 171.834281,434.976965 172.3,435.41 L172.3,435.41 Z"></path>
                <path d="M89.1,172.8 L0.48,261.42 C0.1911518,261.707181 0.0287376882,262.097684 0.0287376882,262.505 C0.0287376882,262.912316 0.1911518,263.302819 0.48,263.59 L89.1,352.21 C89.5375092,352.646002 90.1942687,352.776173 90.7650028,352.540007 C91.3357369,352.303841 91.7084906,351.747664 91.71,351.13 L91.71,173.88 C91.7084906,173.262336 91.3357369,172.706159 90.7650028,172.469993 C90.1942687,172.233827 89.5375092,172.363998 89.1,172.8 Z"></path>
            </g>
        </g>
    </g>
</svg>