<?xml version="1.0" encoding="UTF-8"?>
<svg width="1000px" height="1000px" viewBox="0 0 1000 1000" version="1.1" xmlns="http://www.w3.org/2000/svg" xmlns:xlink="http://www.w3.org/1999/xlink">
    <!-- Generator: Sketch 53.2 (72643) - https://sketchapp.com -->
    <title>_11</title>
    <desc>Created with Sketch.</desc>
    <g id="_11" stroke="none" stroke-width="1" fill="none" fill-rule="evenodd">
        <rect id="Rectangle" fill="#FD9D24" fill-rule="nonzero" x="0" y="0" width="1000" height="1000"></rect>
        <g id="Group" transform="translate(160.000000, 246.000000)" fill="#FFFFFF" fill-rule="nonzero">
            <g transform="translate(0.000000, 262.000000)" id="Path">
                <path d="M5,105.31 L155.38,105.31 C156.842233,105.319563 158.170619,104.460174 158.761276,103.122511 C159.351932,101.784848 159.09214,100.224186 158.1,99.15 L157.89,98.93 L83.05,2.11 L82.32,1.3 C81.6231886,0.534236791 80.6353439,0.0984229709 79.6,0.1 C78.7058599,0.117968295 77.8475789,0.454896799 77.18,1.05 L76.73,1.57 L76.02,2.36 L3.02,98.17 L1.9,99.54 C1.48696854,100.147376 1.26734885,100.865498 1.27,101.6 C1.26998565,102.587428 1.66360376,103.534125 2.36369535,104.230463 C3.06378694,104.9268 4.01258613,105.315323 5,105.31 L5,105.31 Z"></path>
                <path d="M154.92,119 L4.2,119 C3.22135115,119 2.28278521,119.388767 1.59077598,120.080776 C0.898766741,120.772785 0.51,121.711351 0.51,122.69 L0.51,240.59 C0.507344248,241.571302 0.894619862,242.513467 1.58662987,243.209228 C2.27863988,243.904989 3.21869788,244.297351 4.2,244.3 L52.71,244.3 L52.71,170.09 C52.7073348,169.110537 53.0952456,168.170421 53.7878334,167.477833 C54.4804212,166.785246 55.4205365,166.397335 56.4,166.4 L101.4,166.4 C102.379463,166.397335 103.319579,166.785246 104.012167,167.477833 C104.704754,168.170421 105.092665,169.110537 105.09,170.09 L105.09,244.3 L154.89,244.3 C155.871302,244.297351 156.81136,243.904989 157.50337,243.209228 C158.19538,242.513467 158.582656,241.571302 158.58,240.59 L158.58,122.65 C158.558268,120.63934 156.930712,119.01623 154.92,119 Z"></path>
            </g>
            <path d="M675.83,350.08 L526.66,350.08 C525.704416,350.063969 524.781883,350.429628 524.096768,351.095973 C523.411653,351.762317 523.020514,352.674339 523.01,353.63 L523.01,504.26 C523.042882,506.244379 524.675544,507.827837 526.66,507.8 L675.83,507.8 C676.784818,507.816046 677.70689,507.452067 678.393302,506.78816 C679.079714,506.124253 679.474219,505.214822 679.49,504.26 L679.49,353.63 C679.479515,352.672574 679.087001,351.759007 678.399709,351.092371 C677.712417,350.425735 676.7873,350.061273 675.83,350.08 L675.83,350.08 Z M594.21,448.42 C594.19945,449.374798 593.81001,450.286292 593.127365,450.953934 C592.444719,451.621577 591.524797,451.990668 590.57,451.98 L546,451.98 C545.042542,451.993353 544.119003,451.625763 543.4326,450.958114 C542.746197,450.290465 542.353169,449.377461 542.34,448.42 L542.34,421.34 C542.350514,420.381687 542.742707,419.467122 543.429697,418.798902 C544.116687,418.130682 545.041764,417.763969 546,417.78 L590.57,417.78 C591.525582,417.766657 592.447045,418.134875 593.130275,418.803089 C593.813506,419.471304 594.202107,420.384358 594.21,421.34 L594.21,448.42 Z M594.21,398.36 C594.19945,399.314798 593.81001,400.226292 593.127365,400.893934 C592.444719,401.561577 591.524797,401.930668 590.57,401.92 L546,401.92 C545.042542,401.933353 544.119003,401.565763 543.4326,400.898114 C542.746197,400.230465 542.353169,399.317461 542.34,398.36 L542.34,371.26 C542.378321,369.274028 544.013854,367.692119 546,367.72 L590.57,367.72 C591.522154,367.706646 592.440606,368.072129 593.123259,368.736028 C593.805911,369.399926 594.196831,370.307843 594.21,371.26 L594.21,398.36 Z M662.33,448.42 C662.319486,449.378313 661.927293,450.292878 661.240303,450.961098 C660.553313,451.629318 659.628236,451.996031 658.67,451.98 L614.12,451.98 C613.161764,451.996031 612.236687,451.629318 611.549697,450.961098 C610.862707,450.292878 610.470514,449.378313 610.46,448.42 L610.46,421.34 C610.470514,420.381687 610.862707,419.467122 611.549697,418.798902 C612.236687,418.130682 613.161764,417.763969 614.12,417.78 L658.67,417.78 C659.628236,417.763969 660.553313,418.130682 661.240303,418.798902 C661.927293,419.467122 662.319486,420.381687 662.33,421.34 L662.33,448.42 Z M662.33,398.36 C662.319486,399.318313 661.927293,400.232878 661.240303,400.901098 C660.553313,401.569318 659.628236,401.936031 658.67,401.92 L614.12,401.92 C613.161764,401.936031 612.236687,401.569318 611.549697,400.901098 C610.862707,400.232878 610.470514,399.318313 610.46,398.36 L610.46,371.26 C610.475781,370.305178 610.870286,369.395747 611.556698,368.73184 C612.24311,368.067933 613.165182,367.703954 614.12,367.72 L658.67,367.72 C659.624818,367.703954 660.54689,368.067933 661.233302,368.73184 C661.919714,369.395747 662.314219,370.305178 662.33,371.26 L662.33,398.36 Z" id="Shape"></path>
            <path d="M329.06,0.44 L183.06,0.44 C182.113176,0.442648454 181.206184,0.821314726 180.538554,1.49269577 C179.870923,2.16407681 179.497344,3.073176 179.5,4.02 L179.5,502.92 C179.50546,504.885493 181.09453,506.479027 183.06,506.49 L329.06,506.49 C331.032668,506.484589 332.633568,504.892607 332.65,502.92 L332.65,4 C332.644488,2.02120411 331.038804,0.419992323 329.06,0.42 L329.06,0.44 Z M242.22,449.65 C242.22,450.159216 242.017715,450.647575 241.657645,451.007645 C241.297575,451.367715 240.809216,451.57 240.3,451.57 L206.88,451.57 C205.819613,451.57 204.96,450.710387 204.96,449.65 L204.96,412.41 C204.959993,411.901699 205.162597,411.414362 205.522957,411.055878 C205.883317,410.697395 206.371706,410.497339 206.88,410.5 L240.3,410.5 C240.808294,410.497339 241.296683,410.697395 241.657043,411.055878 C242.017403,411.414362 242.220007,411.901699 242.22,412.41 L242.22,449.65 Z M242.22,364.1 C242.217355,364.606566 242.013582,365.091332 241.653511,365.447653 C241.293439,365.803973 240.806566,366.002659 240.3,366 L206.88,366 C205.840751,365.983688 205.005314,365.139364 205,364.1 L205,326.87 C204.997323,326.359968 205.198748,325.870052 205.5594,325.5094 C205.920052,325.148748 206.409968,324.947323 206.92,324.95 L240.3,324.95 C240.810032,324.947323 241.299948,325.148748 241.6606,325.5094 C242.021252,325.870052 242.222677,326.359968 242.22,326.87 L242.22,364.1 Z M242.22,278.57 C242.22,279.079216 242.017715,279.567575 241.657645,279.927645 C241.297575,280.287715 240.809216,280.49 240.3,280.49 L206.88,280.49 C205.819613,280.49 204.96,279.630387 204.96,278.57 L204.96,241.31 C204.965503,240.253521 205.823506,239.399986 206.88,239.4 L240.3,239.4 C241.356494,239.399986 242.214497,240.253521 242.22,241.31 L242.22,278.57 Z M242.22,193.02 C242.22,194.080387 241.360387,194.94 240.3,194.94 L206.88,194.94 C205.82744,194.918126 204.988806,194.052728 205,193 L205,155.76 C205.002633,155.25434 205.206727,154.770589 205.567091,154.415855 C205.927456,154.061121 206.414361,153.86467 206.92,153.87 L240.3,153.87 C240.805639,153.86467 241.292544,154.061121 241.652909,154.415855 C242.013273,154.770589 242.217367,155.25434 242.22,155.76 L242.22,193.02 Z M242.22,107.49 C242.214497,108.546479 241.356494,109.400014 240.3,109.4 L206.88,109.4 C205.823506,109.400014 204.965503,108.546479 204.96,107.49 L204.96,70.23 C204.96,69.1696133 205.819613,68.31 206.88,68.31 L240.3,68.31 C240.809216,68.31 241.297575,68.5122851 241.657645,68.872355 C242.017715,69.2324248 242.22,69.7207843 242.22,70.23 L242.22,107.49 Z M307.77,449.65 C307.770007,450.160953 307.56635,450.650834 307.204114,451.011193 C306.841879,451.371552 306.350946,451.572661 305.84,451.57 L272.43,451.57 C271.919968,451.572677 271.430052,451.371252 271.0694,451.0106 C270.708748,450.649948 270.507323,450.160032 270.51,449.65 L270.51,412.41 C270.509993,411.901699 270.712597,411.414362 271.072957,411.055878 C271.433317,410.697395 271.921706,410.497339 272.43,410.5 L305.84,410.5 C306.35002,410.494659 306.84099,410.693531 307.203521,411.052306 C307.566053,411.41108 307.770028,411.899952 307.77,412.41 L307.77,449.65 Z M307.77,364.1 C307.772708,364.611779 307.569914,365.103236 307.207088,365.464182 C306.844262,365.825129 306.351758,366.025366 305.84,366.02 L272.43,366.02 C271.919146,366.025406 271.427639,365.824858 271.066391,365.463609 C270.705142,365.102361 270.504594,364.610854 270.51,364.1 L270.51,326.87 C270.504594,326.359146 270.705142,325.867639 271.066391,325.506391 C271.427639,325.145142 271.919146,324.944594 272.43,324.95 L305.84,324.95 C306.351758,324.944634 306.844262,325.144871 307.207088,325.505818 C307.569914,325.866764 307.772708,326.358221 307.77,326.87 L307.77,364.1 Z M307.77,278.57 C307.770007,279.080953 307.56635,279.570834 307.204114,279.931193 C306.841879,280.291552 306.350946,280.492661 305.84,280.49 L272.43,280.49 C271.919968,280.492677 271.430052,280.291252 271.0694,279.9306 C270.708748,279.569948 270.507323,279.080032 270.51,278.57 L270.51,241.31 C270.509993,240.801699 270.712597,240.314362 271.072957,239.955878 C271.433317,239.597395 271.921706,239.397339 272.43,239.4 L305.84,239.4 C306.349218,239.397341 306.838635,239.59708 307.200582,239.955276 C307.562528,240.313472 307.767355,240.800782 307.77,241.31 L307.77,278.57 Z M307.77,193.02 C307.770007,193.530953 307.56635,194.020834 307.204114,194.381193 C306.841879,194.741552 306.350946,194.942661 305.84,194.94 L272.43,194.94 C271.919968,194.942677 271.430052,194.741252 271.0694,194.3806 C270.708748,194.019948 270.507323,193.530032 270.51,193.02 L270.51,155.76 C270.512633,155.25434 270.716727,154.770589 271.077091,154.415855 C271.437456,154.061121 271.924361,153.86467 272.43,153.87 L305.84,153.87 C306.34736,153.861981 306.836847,154.05724 307.199387,154.412266 C307.561927,154.767292 307.767393,155.252584 307.77,155.76 L307.77,193.02 Z M307.77,107.49 C307.767355,107.999218 307.562528,108.486528 307.200582,108.844724 C306.838635,109.20292 306.349218,109.402659 305.84,109.4 L272.43,109.4 C271.921706,109.402661 271.433317,109.202605 271.072957,108.844122 C270.712597,108.485638 270.509993,107.998301 270.51,107.49 L270.51,70.23 C270.507323,69.7199683 270.708748,69.2300516 271.0694,68.8693997 C271.430052,68.5087479 271.919968,68.3073226 272.43,68.31 L305.84,68.31 C306.350946,68.3073388 306.841879,68.5084485 307.204114,68.8688072 C307.56635,69.2291659 307.770007,69.719047 307.77,70.23 L307.77,107.49 Z" id="Shape"></path>
            <path d="M679.32,334.92 C679.32,336.576854 677.976854,337.92 676.32,337.92 L526.17,337.92 C524.513146,337.92 523.17,336.576854 523.17,334.92 L523.17,304.92 C523.17,303.263146 524.513146,301.92 526.17,301.92 L676.32,301.92 C677.976854,301.92 679.32,303.263146 679.32,304.92 L679.32,334.92 Z" id="Path"></path>
            <path d="M505.4,94.65 C504.930206,93.0094084 503.436474,91.8738467 501.73,91.86 C500.980624,91.8793854 500.253617,92.119402 499.64,92.55 L499.37,92.73 L498.14,94.29 L354.66,276.29 L354,277.18 C353.230033,277.928208 352.781689,278.946845 352.75,280.02 L352.75,503.67 C352.752648,504.616824 353.131315,505.523816 353.802696,506.191446 C354.474077,506.859077 355.383176,507.232656 356.33,507.23 L502.17,507.23 C503.115902,507.232657 504.023973,506.85876 504.693767,506.190842 C505.363561,505.522925 505.740004,504.615906 505.74,503.67 L505.74,96.15 C505.732691,95.6317393 505.616869,95.1207604 505.4,94.65 L505.4,94.65 Z M445,193.49 L446,192.21 C455.81,179.61 472.36,159.21 480.42,149.35 L481.48,148.09 C482.26996,147.13021 483.446929,146.572891 484.69,146.57 C486.651818,146.579908 488.330274,147.981419 488.69,149.91 L488.69,196 C488.680157,198.221595 486.910675,200.035315 484.69,200.1 C484.62,200.1 484.57,200.1 484.51,200.1 C484.45,200.1 484.39,200.1 484.32,200.1 L448.51,200.1 C448.44,200.1 448.39,200.1 448.33,200.1 C448.27,200.1 448.21,200.1 448.15,200.1 C445.931578,200.030187 444.165024,198.219469 444.15,196 C444.152875,195.093167 444.451283,194.211986 445,193.49 L445,193.49 Z M422.3,448.39 C422.302666,449.337638 421.927398,450.247231 421.257314,450.917314 C420.587231,451.587398 419.677638,451.962666 418.73,451.96 L375.21,451.96 C374.262362,451.962666 373.352769,451.587398 372.682686,450.917314 C372.012602,450.247231 371.637334,449.337638 371.64,448.39 L371.64,421.16 C371.639996,420.214094 372.016439,419.307075 372.686233,418.639158 C373.356027,417.97124 374.264098,417.597343 375.21,417.6 L418.72,417.6 C419.665902,417.597343 420.573973,417.97124 421.243767,418.639158 C421.913561,419.307075 422.290004,420.214094 422.29,421.16 L422.3,448.39 Z M422.3,398.07 C422.302666,399.017638 421.927398,399.927231 421.257314,400.597314 C420.587231,401.267398 419.677638,401.642666 418.73,401.64 L375.21,401.64 C374.262362,401.642666 373.352769,401.267398 372.682686,400.597314 C372.012602,399.927231 371.637334,399.017638 371.64,398.07 L371.64,370.84 C371.634641,369.891545 372.009044,368.980384 372.679714,368.309714 C373.350384,367.639044 374.261545,367.264641 375.21,367.27 L418.72,367.27 C419.668455,367.264641 420.579616,367.639044 421.250286,368.309714 C421.920956,368.980384 422.295359,369.891545 422.29,370.84 L422.3,398.07 Z M422.3,347.75 C422.300004,348.695906 421.923561,349.602925 421.253767,350.270842 C420.583973,350.93876 419.675902,351.312657 418.73,351.31 L375.21,351.31 C374.264098,351.312657 373.356027,350.93876 372.686233,350.270842 C372.016439,349.602925 371.639996,348.695906 371.64,347.75 L371.64,320.51 C371.637334,319.562362 372.012602,318.652769 372.682686,317.982686 C373.352769,317.312602 374.262362,316.937334 375.21,316.94 L418.72,316.94 C419.667638,316.937334 420.577231,317.312602 421.247314,317.982686 C421.917398,318.652769 422.292666,319.562362 422.29,320.51 L422.3,347.75 Z M422.42,237.48 L422.42,297.48 C422.414507,299.449377 420.819377,301.044507 418.85,301.05 L375.35,301.05 C374.399717,301.055324 373.486527,300.681551 372.81269,300.011469 C372.138853,299.341386 371.759985,298.430298 371.76,297.48 L371.76,289.93 C371.776228,289.474833 371.867454,289.025463 372.03,288.6 C372.091827,288.454268 372.165403,288.313805 372.25,288.18 C372.341546,288.013556 372.448694,287.856182 372.57,287.71 C372.67,287.54 372.84,287.32 372.97,287.13 C378.53,279.13 403.63,248.25 414.17,235.33 L415.23,234.05 C416.020123,233.091667 417.197949,232.537612 418.44,232.54 C420.397263,232.55292 422.072451,233.947513 422.44,235.87 L422.42,237.48 Z M488.8,448.39 C488.8,449.336823 488.423876,450.244866 487.754371,450.914371 C487.084866,451.583876 486.176823,451.96 485.23,451.96 L441.73,451.96 C440.779717,451.965324 439.866527,451.591551 439.19269,450.921469 C438.518853,450.251386 438.139985,449.340298 438.14,448.39 L438.14,421.16 C438.142642,420.211436 438.522682,419.302922 439.196229,418.635003 C439.869776,417.967085 440.781447,417.594682 441.73,417.6 L485.23,417.6 C487.197758,417.599992 488.794488,419.19225 488.8,421.16 L488.8,448.39 Z M488.8,398.07 C488.8,400.041657 487.201657,401.64 485.23,401.64 L441.73,401.64 C440.779717,401.645324 439.866527,401.271551 439.19269,400.601469 C438.518853,399.931386 438.139985,399.020298 438.14,398.07 L438.14,370.84 C438.137294,369.888876 438.515302,368.976219 439.189727,368.305552 C439.864152,367.634884 440.778906,367.261981 441.73,367.27 L485.23,367.27 C487.201657,367.27 488.8,368.868343 488.8,370.84 L488.8,398.07 Z M488.8,347.75 C488.789027,349.71547 487.195493,351.30454 485.23,351.31 L441.73,351.31 C440.781447,351.315318 439.869776,350.942915 439.196229,350.274997 C438.522682,349.607078 438.142642,348.698564 438.14,347.75 L438.14,320.51 C438.139985,319.559702 438.518853,318.648614 439.19269,317.978531 C439.866527,317.308449 440.779717,316.934676 441.73,316.94 L485.23,316.94 C487.201657,316.94 488.8,318.538343 488.8,320.51 L488.8,347.75 Z M488.8,297.42 C488.794488,299.38775 487.197758,300.980008 485.23,300.98 L441.73,300.98 C440.781447,300.985318 439.869776,300.612915 439.196229,299.944997 C438.522682,299.277078 438.142642,298.368564 438.14,297.42 L438.14,270.19 C438.139985,269.239702 438.518853,268.328614 439.19269,267.658531 C439.866527,266.988449 440.779717,266.614676 441.73,266.62 L485.23,266.62 C487.201657,266.62 488.8,268.218343 488.8,270.19 L488.8,297.42 Z M488.8,247.09 C488.8,248.036823 488.423876,248.944866 487.754371,249.614371 C487.084866,250.283876 486.176823,250.66 485.23,250.66 L441.73,250.66 C440.779717,250.665324 439.866527,250.291551 439.19269,249.621469 C438.518853,248.951386 438.139985,248.040298 438.14,247.09 L438.14,219.86 C438.137318,218.90797 438.51501,217.994305 439.189138,217.322054 C439.863266,216.649804 440.777981,216.274663 441.73,216.28 L485.23,216.28 C486.178558,216.279996 487.08812,216.657493 487.757913,217.329162 C488.427706,218.000831 488.802657,218.911446 488.8,219.86 L488.8,247.09 Z" id="Shape"></path>
        </g>
    </g>
</svg>