<?xml version="1.0" encoding="UTF-8"?>
<svg width="1000px" height="1000px" viewBox="0 0 1000 1000" version="1.1" xmlns="http://www.w3.org/2000/svg" xmlns:xlink="http://www.w3.org/1999/xlink">
    <!-- Generator: Sketch 53.2 (72643) - https://sketchapp.com -->
    <title>_12</title>
    <desc>Created with Sketch.</desc>
    <g id="_12" stroke="none" stroke-width="1" fill="none" fill-rule="evenodd">
        <rect id="_Path_" fill="#BF8B2E" fill-rule="nonzero" x="1" y="0.968063872" width="998.003992" height="998.063872"></rect>
        <path d="M778.461078,363.608782 C737.762475,331.463074 688.96008,328 669.868263,328 C659.798403,328 650.477046,328.898204 643.650699,330.52495 L640.976048,331.143713 C615.197605,337.231537 572.053892,347.421158 521.824351,409.756487 L520.347305,411.582834 C519.545964,412.678915 519.106395,413.99762 519.08982,415.355289 C519.094008,416.51487 519.400129,417.653367 519.978044,418.658683 L521.115768,420.52495 C529.405855,434.397206 536.292083,446.443114 541.774451,456.662675 C542.761152,458.580039 544.617871,459.898503 546.7533,460.198178 C548.88873,460.497852 551.036635,459.741375 552.512974,458.169661 C552.862275,457.710579 553.221557,457.221557 553.510978,456.852295 C596.844311,396.862275 630.836327,388.878244 653.331337,383.558882 L656.155689,382.89022 C660.692852,382.019071 665.309079,381.627695 669.928144,381.722555 C680.387226,381.722555 716.744511,383.459082 745.107784,405.854291 C770.347305,425.814371 783.141717,457.590818 783.141717,500.41517 C783.141717,572.191617 748.421158,600.215569 719.269461,611.033932 C707.871148,615.239321 695.809882,617.362212 683.660679,617.301397 C665.167506,617.205735 646.920635,613.052834 630.207585,605.135729 L628.121756,604.137725 C603.061876,593.259481 565.646707,570.57485 530.267465,499.536926 C457.752495,353.828343 396.834331,340.075848 356.49501,330.944112 L354.379242,330.47505 C351.285429,329.766467 342.562874,328.139721 328.431138,328.139721 C305.077844,328.139721 260.147705,332.730539 221.644711,363.469062 C195.357285,384.427146 164,425.175649 164,500.195609 C164,545.874251 173.411178,576.043912 197.532934,607.770459 C202.063872,613.958084 244.08982,668.229541 324.778443,668.229541 C337.146909,668.188266 349.483818,666.978634 361.62475,664.616766 C376.355289,661.802395 399.08982,654.516966 424.499002,635.894212 L445.706587,655.035928 C448.241281,657.172338 451.993155,656.998439 454.319361,654.636727 C455.337156,653.560923 455.886345,652.125135 455.846307,650.644711 L472.253493,549.566866 L472.253493,548.389222 C472.238787,546.70341 471.51412,545.101897 470.257485,543.978044 C469.104869,542.911497 467.57507,542.347698 466.005988,542.411178 L466.005988,542.411178 L367.542914,569.516966 L365.666667,569.826347 C364.45801,570.076246 363.362383,570.70982 362.542914,571.632735 C361.441516,572.831218 360.865929,574.420853 360.944687,576.046657 C361.023446,577.672461 361.749991,579.199017 362.962076,580.285429 L383.351297,598.728543 C372.632735,605.305389 361.914172,609.706587 351.49501,611.702595 C342.891933,613.37204 334.150734,614.227448 325.387226,614.257485 C269.628743,614.257485 242.193613,577.660679 241.065868,576.113772 L240.516966,575.355289 C223.550898,553.06986 217.822355,534.097804 217.822355,500.165669 C217.822355,457.191617 230.397206,425.315369 255.197605,405.55489 C282.792415,383.538922 318.301397,381.822355 328.540918,381.822355 C333.225782,381.737824 337.907127,382.129051 342.512974,382.99002 L344.688623,383.479042 C376.884232,390.774451 420.976048,400.754491 482.113772,523.548902 C514.399202,588.419162 554.888224,630.774451 605.776447,653.129741 C611.694611,656.123752 643.261477,671.203593 683.720559,671.203593 C702.282065,671.263637 720.703958,667.995019 738.111776,661.552894 C767.832335,650.46507 836.994012,612.550898 836.994012,500.45509 C836.964072,425.52495 805.147705,384.686627 778.461078,363.608782 Z" id="_Path_4" fill="#FFFFFF" fill-rule="nonzero"></path>
    </g>
</svg>