<?xml version="1.0" encoding="UTF-8"?>
<svg width="1000px" height="1000px" viewBox="0 0 1000 1000" version="1.1" xmlns="http://www.w3.org/2000/svg" xmlns:xlink="http://www.w3.org/1999/xlink">
    <!-- Generator: Sketch 53.2 (72643) - https://sketchapp.com -->
    <title>_13</title>
    <desc>Created with Sketch.</desc>
    <g id="_13" stroke="none" stroke-width="1" fill="none" fill-rule="evenodd">
        <rect id="Rectangle" fill="#3F7E44" fill-rule="nonzero" x="0" y="0" width="1000" height="1000"></rect>
        <path d="M867.03,495.45 C840.68,458.54 721.5,311 499.94,311 C278.38,311 159.26,458.54 132.87,495.45 C131.75,497.03 130.78,498.45 130,499.56 C130.78,500.75 131.75,502.11 132.87,503.71 C159.26,540.68 278.4,688.23 499.94,688.23 C721.48,688.23 840.68,540.68 867.03,503.75 C868.18,502.15 869.13,500.75 869.88,499.6 C869.133333,498.44 868.183333,497.07 867.03,495.49 M376.39,404.29 C378.39,401.36 385.02,393 385.82,391.94 C387.53,389.74 390.92,389.29 393.29,388.87 C395.66,388.45 398.78,389.74 399.16,391.51 C399.54,393.28 398.25,400.14 397.09,401.32 C393.84,404.69 385.38,409.45 380.72,408.7 C377.11,408.15 375.72,405.36 376.39,404.29 M368.47,420.03 C368.82,419.61 369.14,419.27 369.27,419.1 C372.06,415.92 377.61,415.24 381.44,414.64 C385.27,414.04 390.44,415.92 391.02,418.47 C391.6,421.02 381.39,425.67 379.51,427.47 C374.18,432.38 365.84,442.38 360.96,443.47 C359.620041,443.809375 358.203247,443.664153 356.96,443.06 C360.140698,435.084017 363.987632,427.390148 368.46,420.06 M451.37,590.14 C448.37,601.94 444.87,606.19 441.89,609.91 C438.91,613.63 427.89,618.48 420.89,617.96 C413.89,617.44 412.89,598.71 412.89,589.07 C412.89,585.75 408.18,595.61 405.72,575.56 C404.15,562.73 395.91,576.9 395.33,568.34 C394.75,559.78 390.63,561.5 386.33,556.16 C382.03,550.82 376.65,556.68 370.63,559.38 C364.61,562.08 367.11,563.44 358.63,560.76 C358.41,560.69 358.3,560.63 358.09,560.55 C350.02293,541.540286 345.866972,521.100589 345.87,500.45 C345.87,495.24 346.15,490.11 346.64,485.05 C346.910865,484.541304 347.228929,484.059185 347.59,483.61 C355.75,473.95 355.59,471.69 355.59,471.69 L364.59,468.57 C364.59,468.57 379.01,470.79 389.87,474.88 C398.82,478.23 412.87,485.82 421.1,482.48 C427.03,480.04 431.66,476.8 431.1,471.87 C430.44,465.68 425.56,464.21 419.66,468.38 C417.49,469.92 412.85,459.05 409.21,459.61 C405.57,460.17 413.71,472.37 410.63,472.89 C407.55,473.41 401.32,460.15 400.26,458 C399.2,455.85 394.41,450.54 390.1,454.6 C381,463.25 366.22,462.72 363.25,464.95 C354.25,471.71 351.83,462.72 352.03,457.25 C352.39,456 352.76,454.74 353.16,453.5 C356.11,450.25 366.7,449.17 370.34,451.59 C374.34,454.26 377.2,450.91 378.76,449.29 C380.32,447.67 379.76,445.14 378.76,443.02 C377.76,440.9 380.76,439.3 382.82,438.75 C384.88,438.2 391.77,433.38 394.52,431.75 C397.27,430.12 411.52,428.42 417.95,431.62 C423.172659,434.379748 429.616463,433.079279 433.36,428.51 C436.506736,424.760555 440.295853,421.601264 444.55,419.18 C446.79,418.18 439.04,410.91 432.68,418.79 C426.32,426.67 423.05,427.35 420.05,427.35 C417.05,427.35 399.23,422.91 397.05,417.28 C394.87,411.65 402.63,407.44 409.2,404.28 C415.77,401.12 433.77,401.19 438.37,400.15 C447.72,398.1 459.68,393.4 465.7,397.5 C471.72,401.6 440.55,408.62 450.79,414.15 C454.43,416.15 470.89,404.68 476.54,401.74 C489.81,394.9 463.67,392.64 467.06,378.74 C470.89,363.02 434.99,369.1 417.06,370.44 C459.105865,343.54243 511.565607,338.644858 557.863722,357.294751 C604.161837,375.944644 638.578795,415.838049 650.24,464.37 C650.330804,466.776856 650.078268,469.184375 649.49,471.52 C648.09,477.08 637.49,481.86 631.42,472.91 C629.86,470.65 623.24,464.4 623.42,475.09 C623.6,485.78 633.82,486.88 623.95,493.3 C614.08,499.72 612.29,498.17 607.73,499.79 C603.17,501.41 598.73,512.42 599.86,518.31 C600.99,524.2 615.03,540.31 604.59,539.63 C602.14,539.44 583.7,526.85 580.66,518.75 C577.44,510.22 573.94,501.88 571.45,495.45 C568.96,489.02 562.45,487.45 556.91,491.18 C551.37,494.91 558.44,498.69 554.49,506.73 C550.54,514.77 547.73,521.92 541.94,515.29 C526.87,498.03 504.94,506.54 501.55,487.29 C499.7,476.88 490.73,477.88 483.23,471.98 C475.73,466.08 471.5,462.98 470.23,467.17 C469.12,470.9 493.82,490.49 495.58,495.5 C498.21,502.96 488.19,509.5 480.85,511.3 C473.51,513.1 470.33,507.19 463.13,499.69 C455.93,492.19 452.8,486.87 452.3,492.75 C451.58,501.24 459.13,513.75 466.45,518.37 C472.7,522.32 479.7,524.11 477.67,530.53 C475.64,536.95 477.67,533.33 470.67,540.25 C463.67,547.17 462.33,549.44 462.84,559.05 C463.35,568.66 460.84,569.24 459.33,577.25 C457.82,585.26 454.33,578.33 451.33,590.08 M616.94,528.57 C622.12,528.15 629.94,535.34 626.87,538.1 C623.8,540.86 616.06,539.84 612.15,536.78 C608.24,533.72 614.6,528.78 616.94,528.57 M610.37,523.83 C608.71,523.21 607.24,521.63 605.98,517.83 C604.72,514.03 607.91,511.83 610.98,513.4 C614.05,514.97 618.26,519.73 618.26,522.25 C618.26,524.77 612.03,524.48 610.33,523.81 M542.22,523.54 C539.17,526.26 531.37,525.26 527.47,522.22 C523.57,519.18 529.93,514.22 532.25,514.01 C537.44,513.54 545.25,520.8 542.25,523.54 M479.25,554.19 C477.13,557.66 471.32,583.61 467.43,580.59 C463.54,577.57 469.01,550.49 470.13,548.43 C476.23,537.25 489.41,537.8 479.25,554.19 M500.25,654.77 C485.571518,654.773826 470.967613,652.682743 456.88,648.56 C454.612686,646.765558 453.84395,643.665952 455.01,641.02 C459.78,628.57 474.01,623.69 485.23,622.61 C510.23,620.17 543.15,638.86 548.38,635.84 C553.61,632.82 564.21,619.07 579.73,619.65 C590.33,620.06 590.25,621.84 593.81,623.18 C566.945989,643.712476 534.062063,654.815546 500.25,654.77 M609.1,609.85 C607.43088,609.416648 605.809431,608.81698 604.26,608.06 C595.83,603.77 596.84,610.62 592.7,609.06 C588.56,607.5 597.37,597.91 584.93,606.06 C572.49,614.21 575.88,604.8 570.48,591.06 C565.08,577.32 576.7,561.63 586.48,558.06 C599.89,553.21 608.21,552.22 614.48,550.67 C633.02,546.04 636.94,535.04 640.3,541.73 C640.94,542.98 641.55,544.18 642.11,545.3 C643.612388,548.475152 644.410619,551.937564 644.45,555.45 C636.646323,575.898071 624.586673,594.454526 609.07,609.89 M651.35,531.98 C647.21,530.85 629.88,506.89 643.58,491.13 C645.86,488.54 638.98,480.91 640.86,480.76 C648.36,480.18 652.34,484.83 654.31,491.53 C654.46,494.53 654.58,497.47 654.58,500.53 C654.576752,511.11249 653.494489,521.667072 651.35,532.03" id="Shape" fill="#FFFFFF" fill-rule="nonzero"></path>
    </g>
</svg>