<?xml version="1.0" encoding="UTF-8"?>
<svg width="1000px" height="1000px" viewBox="0 0 1000 1000" version="1.1" xmlns="http://www.w3.org/2000/svg" xmlns:xlink="http://www.w3.org/1999/xlink">
    <!-- Generator: Sketch 53.2 (72643) - https://sketchapp.com -->
    <title>_14</title>
    <desc>Created with Sketch.</desc>
    <g id="_14" stroke="none" stroke-width="1" fill="none" fill-rule="evenodd">
        <rect id="Rectangle" fill="#0A97D9" fill-rule="nonzero" x="0" y="0" width="1000" height="1000"></rect>
        <g id="Group" transform="translate(229.000000, 270.000000)" fill="#FFFFFF" fill-rule="nonzero">
            <path d="M540.58,333.62 C528,316.62 446.7,213 332.72,213 C233.72,213 127.87,302.76 127.87,302.76 C127.87,302.76 88.1,221.36 6.74,213.54 C6.27,213.54 5.74,213.43 5.22,213.43 L4.71,213.43 C3.01,213.53 1.42,215.18 1.61,216.65 C1.84731602,217.718929 2.27769861,218.735581 2.88,219.65 C13.37,237 40.13,286.55 40.13,336 C40.13,385.64 13.21,435.3 2.82,452.63 L2.11,453.73 C1.78794574,454.246271 1.61490416,454.841534 1.61,455.45 C1.62138416,457.136234 2.92800577,458.529963 4.61,458.65 L5.49,458.58 C5.77565415,458.592156 6.06163025,458.565241 6.34,458.5 C87.95,450.9 127.87,369.25 127.87,369.25 C127.87,369.25 233.75,459.02 332.72,459.02 C446.72,459.02 527.99,355.38 540.58,338.41 C540.92,337.95 541.2,337.55 541.45,337.25 C541.619194,336.854461 541.710854,336.430109 541.72,336 C541.714227,335.572724 541.622399,335.150994 541.45,334.76 C541.2,334.41 540.92,334.01 540.58,333.59 M396.1,349.12 C377.737534,349.097916 362.867131,334.199172 362.88001,315.836698 C362.892888,297.474223 377.784174,282.596353 396.146653,282.600025 C414.509131,282.603697 429.394466,297.487522 429.4,315.85 C429.397349,324.678138 425.887157,333.143499 419.641908,339.383122 C413.396658,345.622745 404.928137,349.125306 396.1,349.12" id="Shape"></path>
            <path d="M4.18,18.17 C3.97482032,18.1038076 3.76390307,18.0569371 3.55,18.03 C2.67743271,18.0352882 1.84270607,18.3869942 1.22945864,19.0077431 C0.61621121,19.6284921 0.274679517,20.4674329 0.28,21.34 L0.28,44 C0.263236851,44.8800545 0.60635966,45.728832 1.23,46.35 C56.23,94.15 108.34,49.35 120.4,37.52 C120.62495,37.1609699 120.916933,36.8486164 121.26,36.6 C121.793837,36.2329512 122.422404,36.0280593 123.07,36.01 C123.892969,36.0053369 124.685493,36.3209124 125.28,36.89 C125.323122,36.9471877 125.377594,36.9948504 125.44,37.03 C187.59,96.33 252.75,48.3 266.31,37.03 L267.64,35.81 C268.029902,35.6364378 268.453306,35.551074 268.88,35.56 C269.323191,35.5469823 269.763758,35.6323634 270.17,35.81 L271.52,37.03 C285.07,48.3 350.23,96.33 412.37,37.03 C412.414491,36.9873788 412.454685,36.9404866 412.49,36.89 C413.086222,36.3235869 413.877624,36.0084586 414.7,36.01 C415.348394,36.0234022 415.978263,36.2287186 416.51,36.6 C416.866128,36.849522 417.174385,37.1611668 417.42,37.52 C429.47,49.36 481.51,94.15 536.57,46.35 C537.185937,45.7237499 537.527693,44.8783558 537.52,44 L537.52,21.34 C537.536059,20.4711554 537.203498,19.6320667 536.596589,19.0101259 C535.98968,18.3881851 535.158977,18.0351993 534.29,18.03 C534.052474,18.0524776 533.8179,18.0993925 533.59,18.17 C533.08,18.46 532.59,18.74 531.94,19.03 C515.02,27.5 462.54,47.66 414.94,2.59 C414.49,2.18 414.02,1.76 413.55,1.27 C413.112803,1.07371565 412.639235,0.971506619 412.16,0.97 C411.822993,0.991339531 411.488436,1.04152317 411.16,1.12 C410.494708,1.38243809 409.918611,1.83012748 409.5,2.41 C395.3,13.23 330.14,57.35 272.11,3.22 L271.26,2.39 C270.620592,1.78156336 269.78189,1.42618111 268.9,1.39 C268.045969,1.43226144 267.237612,1.78836578 266.63,2.39 L265.73,3.22 C207.73,57.35 142.49,13.22 128.31,2.41 C127.913314,1.8296883 127.352841,1.38061401 126.7,1.12 C126.370817,1.04543158 126.036574,0.995295016 125.7,0.97 C125.228443,0.982233898 124.763515,1.08404285 124.33,1.27 C123.899094,1.74293349 123.434549,2.18408417 122.94,2.59 C75.31,47.66 22.84,27.5 5.94,19.03 C5.35,18.74 4.78,18.46 4.27,18.17" id="Path"></path>
            <path d="M120.4,120.08 C120.634402,119.730836 120.928981,119.4261 121.27,119.18 C121.797679,118.80412 122.422774,118.588809 123.07,118.56 C123.900223,118.562888 124.696613,118.889336 125.29,119.47 C125.329784,119.526534 125.380859,119.574205 125.44,119.61 C187.57,178.84 252.75,130.83 266.31,119.61 L267.64,118.35 C268.035373,118.198666 268.456845,118.127288 268.88,118.14 C269.326109,118.125094 269.770904,118.196397 270.19,118.35 L271.52,119.61 C285.07,130.83 350.22,178.84 412.38,119.61 C412.38,119.61 412.45,119.53 412.49,119.47 C413.080317,118.890843 413.873031,118.564431 414.7,118.56 C415.348437,118.58236 415.975339,118.798293 416.5,119.18 C416.858517,119.421961 417.170219,119.726887 417.42,120.08 C429.42,131.93 481.5,176.73 536.57,128.88 C537.201844,128.285097 537.563106,127.457807 537.57,126.59 L537.57,103.84 C537.572667,102.977232 537.231114,102.149031 536.621041,101.538959 C536.010969,100.928886 535.182768,100.587333 534.32,100.59 C534.083474,100.613909 533.849339,100.657391 533.62,100.72 L531.97,101.55 C515.06,110.03 462.55,130.14 414.97,85.13 L413.59,83.83 C413.162872,83.5925414 412.678215,83.4783009 412.19,83.5 C411.840549,83.4945284 411.495764,83.5807246 411.19,83.75 C410.501292,83.9300085 409.907436,84.3664571 409.53,84.97 C395.35,95.77 330.17,139.9 272.13,85.77 L271.28,84.92 C270.644963,84.3223668 269.801917,83.9959104 268.93,84.01 C268.083104,84.0030016 267.267548,84.3299425 266.66,84.92 L265.76,85.77 C207.76,139.9 142.52,95.77 128.34,84.97 C127.980616,84.3710411 127.403839,83.9339803 126.73,83.75 C126.420503,83.5904069 126.078188,83.504828 125.73,83.5 C125.258393,83.4854677 124.791721,83.5995431 124.38,83.83 C123.93,84.28 123.45,84.71 122.96,85.13 C75.33,130.13 22.87,110.03 5.96,101.55 L4.29,100.72 C4.0867933,100.661552 3.87956964,100.618102 3.67,100.59 C2.80366454,100.584681 1.97084246,100.924422 1.35543132,101.534205 C0.740020176,102.143987 0.392641192,102.973652 0.39,103.84 L0.39,126.59 C0.377968059,127.451555 0.721631789,128.279965 1.34,128.88 C56.34,176.73 108.46,131.88 120.51,120.08" id="Path"></path>
        </g>
    </g>
</svg>