<?xml version="1.0" encoding="UTF-8"?>
<svg width="1000px" height="1000px" viewBox="0 0 1000 1000" version="1.1" xmlns="http://www.w3.org/2000/svg" xmlns:xlink="http://www.w3.org/1999/xlink">
    <!-- Generator: Sketch 53.2 (72643) - https://sketchapp.com -->
    <title>_15</title>
    <desc>Created with Sketch.</desc>
    <g id="_15" stroke="none" stroke-width="1" fill="none" fill-rule="evenodd">
        <rect id="Rectangle" fill="#56C02B" fill-rule="nonzero" x="0" y="0" width="1000" height="1000"></rect>
        <g id="Group" transform="translate(254.000000, 260.000000)" fill="#FFFFFF" fill-rule="nonzero">
            <path d="M165.19,279.12 C165.776128,279.12 166.338251,279.352839 166.752706,279.767294 C167.167161,280.181749 167.4,280.743872 167.4,281.33 L167.4,354.15 C167.402674,354.736944 167.170694,355.300621 166.755658,355.715658 C166.340621,356.130694 165.776944,356.362674 165.19,356.36 L135.73,356.36 C135.142141,356.36266 134.577446,356.130996 134.160826,355.716252 C133.744205,355.301508 133.509994,354.737865 133.51,354.15 L133.51,281.33 C133.509994,280.742135 133.744205,280.178492 134.160826,279.763748 C134.577446,279.349004 135.142141,279.11734 135.73,279.12 L165.19,279.12 Z" id="Path"></path>
            <path d="M488.8,387.62 L3.19,387.62 C1.95038805,387.652619 0.964132137,388.669973 0.97,389.91 L0.97,419.59 C0.986450886,420.802723 1.97717873,421.7756 3.19,421.77 L488.8,421.77 C490.010175,421.765031 490.997595,420.799751 491.03,419.59 L491.03,389.91 C491.025185,388.67047 490.038966,387.657716 488.8,387.62" id="Path"></path>
            <path d="M488.8,446.61 L3.19,446.61 C1.98724798,446.626146 1.01614649,447.597248 1,448.8 L1,478.57 C1.02173325,479.782066 2.00775094,480.754759 3.22,480.76 L488.8,480.76 C490.011807,480.749658 490.997728,479.781421 491.03,478.57 L491.03,448.8 C491.002913,447.586329 490.013963,446.615117 488.8,446.61" id="Path"></path>
            <path d="M396.39,198.52 C390.33,193.77 374.13,182.69 354.39,182.69 C340.27,182.69 327.14,188.25 315.39,199.26 C314.568286,200.042692 314.099192,201.125216 314.09,202.26 L314.09,205 C314.030205,206.259437 314.54074,207.478842 315.48,208.32 C316.42713,209.116925 317.697654,209.414124 318.9,209.12 C319.20956,209.0705 319.514096,208.99353 319.81,208.89 C320.721954,208.558675 321.551065,208.033231 322.24,207.35 C324.78,205.64 331.74,203.35 341.69,203.35 C351.97,203.35 372.19,206.11 391.69,224.35 L392.14,224.75 C393.250973,225.882917 394.773273,226.51781 396.36,226.51 C397.906159,226.515716 399.388773,225.895255 400.47,224.79 L400.87,224.38 C420.51,206.14 440.69,203.38 450.97,203.38 C460.97,203.38 467.97,205.72 470.47,207.38 C471.234806,208.118283 472.1534,208.678318 473.16,209.02 C474.094312,209.243473 475.068928,209.23661 476,209 C477.802902,208.505685 479.054636,206.869432 479.06,205 L479.06,202.66 C479.047399,201.525939 478.578855,200.444684 477.76,199.66 C465.9,188.36 452.63,182.66 438.29,182.66 C418.72,182.66 402.6,193.57 396.36,198.51" id="Path"></path>
            <path d="M366.26,5 C365.221211,5.51273983 364.450138,6.44384637 364.14,7.56 L363.65,9.18 C363.27162,10.4292666 363.509161,11.7839936 364.29,12.83 C364.994218,13.7980326 366.094977,14.3997806 367.29,14.47 C367.491428,14.5093698 367.698572,14.5093698 367.9,14.47 C368.716538,14.4583524 369.518602,14.2526951 370.24,13.87 C371.222505,13.6363566 372.230201,13.52551 373.24,13.54 C375.41,13.54 394.99,14.2 407.93,36.2 L408.1,36.52 C408.741093,37.7437745 409.865346,38.6431772 411.2,39 C411.703709,39.148509 412.224965,39.2292196 412.75,39.24 C413.603291,39.2420737 414.444228,39.03613 415.2,38.64 L415.52,38.48 C422.22386,35.0303756 429.641032,33.1949166 437.18,33.12 C449.45,33.12 457.46,38.12 459.33,40.21 C459.718974,40.9123083 460.254407,41.5227711 460.9,42 C461.406431,42.2934128 461.934652,42.5474934 462.48,42.76 C462.71557,42.8198259 462.957043,42.8533639 463.2,42.86 C463.342917,42.8754531 463.487083,42.8754531 463.63,42.86 C464.302435,42.8564313 464.964233,42.6918391 465.56,42.38 C466.558611,41.8670374 467.303197,40.9670282 467.62,39.89 L468.03,38.46 C468.149396,38.0782866 468.206792,37.6798929 468.2,37.28 C468.20586,36.5441657 468.008626,35.8209746 467.63,35.19 C458.2,18.82 444.52,15.4 434.69,15.4 C428.71751,15.4743902 422.803181,16.5841727 417.21,18.68 C412.77,12.68 401.52,0.33 384.46,0.33 C378.116599,0.415283199 371.882139,1.99102575 366.26,4.93" id="Path"></path>
            <path d="M263.65,79.69 L263.79,81.88 C263.865106,83.1227975 264.494232,84.266211 265.503836,84.9948309 C266.51344,85.7234508 267.796836,85.9602839 269,85.64 C269.241498,85.5832785 269.478741,85.5097664 269.71,85.42 C270.526011,85.0824662 271.246993,84.550313 271.81,83.87 C273.87,82.38 280.52,79.66 290.33,79.66 C299.76,79.66 314.1,82.18 328.72,94.19 L329.06,94.54 C330.101931,95.4420328 331.431877,95.9420925 332.81,95.95 L333.17,95.95 C334.627859,95.8518204 335.992075,95.1965667 336.98,94.12 L337.3,93.75 C353.49,76.62 370.92,74.08 379.87,74.08 C386.25,74.08 390.77,75.39 392.53,76.39 C393.265333,77.009509 394.129685,77.4570586 395.06,77.7 C395.985845,77.9325994 396.95969,77.8873852 397.86,77.57 C399.606424,76.9518587 400.729592,75.2487276 400.61,73.4 L400.5,71.5 C400.429276,70.3774749 399.901607,69.3329786 399.04,68.61 C389.38,60.48 378.95,56.39 367.98,56.39 C350.9,56.39 337.27,66.47 331.63,71.39 C326.47,67.87 313.93,60.63 299.23,60.63 C286.31,60.63 274.73,66 264.78,76.55 C264.003578,77.3944388 263.596753,78.5141059 263.65,79.66" id="Path"></path>
            <path d="M17.91,118.67 C17.9046944,104.702887 23.4493897,91.3060148 33.3237551,81.4278984 C43.1981206,71.549782 56.5928859,65.999999 70.56,66 C71.7,66 72.81,66.1 73.93,66.17 C76.0545324,37.5736915 95.1285899,13.0435767 122.319775,3.93852529 C149.51096,-5.16652611 179.510528,2.93113508 198.426935,24.4818209 C217.343341,46.0325066 221.483391,76.8287108 208.93,102.61 C248.612387,111.367485 275.321998,148.616334 270.88426,189.01054 C266.446521,229.404745 232.287187,259.966485 191.65,259.9 C188.44,259.9 85.42,259.28 85.42,259.28 L85.42,259.28 C62.9270576,259.314326 42.5729578,245.954965 33.6561432,225.304928 C24.7393286,204.65489 28.9717918,180.678899 44.42,164.33 C28.0299506,154.969945 17.9127749,137.544436 17.91,118.67 L17.91,118.67 Z" id="Path"></path>
        </g>
    </g>
</svg>