<?xml version="1.0" encoding="UTF-8"?>
<svg width="1000px" height="1000px" viewBox="0 0 1000 1000" version="1.1" xmlns="http://www.w3.org/2000/svg" xmlns:xlink="http://www.w3.org/1999/xlink">
    <!-- Generator: Sketch 53.2 (72643) - https://sketchapp.com -->
    <title>_16</title>
    <desc>Created with Sketch.</desc>
    <g id="_16" stroke="none" stroke-width="1" fill="none" fill-rule="evenodd">
        <rect id="Rectangle" fill="#00689D" fill-rule="nonzero" x="0.2997003" y="0.14985015" width="998.811189" height="998.851149"></rect>
        <g id="Group" transform="translate(295.000000, 298.000000)" fill="#FFFFFF" fill-rule="nonzero">
            <path d="M350.789211,3.996004 C350.789211,3.996004 342.387612,15.1548452 344.795205,26.033966 C347.202797,36.9130869 359.66034,43.3766234 359.66034,43.3766234 C359.66034,43.3766234 368.061938,32.2177822 365.654346,21.3486513 C363.246753,10.4795205 350.789211,3.996004 350.789211,3.996004" id="Path"></path>
            <path d="M337.092907,67.7722278 C337.092907,67.7722278 345.494505,56.6033966 343.086913,45.7342657 C340.679321,34.8651349 328.231768,28.3916084 328.231768,28.3916084 C328.231768,28.3916084 319.82018,39.5504496 322.237762,50.4295704 C324.655345,61.3086913 337.102897,67.7722278 337.102897,67.7722278" id="Path"></path>
            <path d="M371.628372,55.8241758 C371.628372,55.8241758 380.4995,64.8151848 390.609391,63.8761239 C400.719281,62.9370629 408.201798,52.5774226 408.201798,52.5774226 C408.201798,52.5774226 399.340659,43.5864136 389.220779,44.5154845 C379.100899,45.4445554 371.628372,55.8241758 371.628372,55.8241758" id="Path"></path>
            <path d="M386.173826,7.99200799 C377.952048,16.3336663 379.110889,31.0989011 379.110889,31.0989011 C379.110889,31.0989011 393.606394,32.3576424 401.848152,24.025974 C410.08991,15.6943057 408.911089,0.919080919 408.911089,0.919080919 C408.911089,0.919080919 394.405594,-0.33966034 386.173826,7.99200799" id="Path"></path>
            <path d="M368.031968,89.000999 C378.101898,90.1998002 387.572428,81.5484515 387.572428,81.5484515 C387.572428,81.5484515 380.709291,70.9290709 370.629371,69.7802198 C360.549451,68.6313686 351.078921,77.2427572 351.078921,77.2427572 C351.078921,77.2427572 357.942058,87.8121878 368.011988,89.000999" id="Path"></path>
            <path d="M377.022977,263.966034 L301.748252,263.966034 C295.866778,263.966034 291.098901,268.733911 291.098901,274.615385 C291.098901,280.496859 295.866778,285.264735 301.748252,285.264735 L377.022977,285.264735 C382.904451,285.264735 387.672328,280.496859 387.672328,274.615385 C387.672328,268.733911 382.904451,263.966034 377.022977,263.966034" id="Path"></path>
            <path d="M377.022977,381.358641 L301.748252,381.358641 C295.866778,381.358641 291.098901,386.126518 291.098901,392.007992 C291.098901,397.889466 295.866778,402.657343 301.748252,402.657343 L377.022977,402.657343 C382.904451,402.657343 387.672328,397.889466 387.672328,392.007992 C387.672328,386.126518 382.904451,381.358641 377.022977,381.358641" id="Path"></path>
            <path d="M38.4715285,238.111888 C36.7554992,237.571257 35.0113306,237.124376 33.2467532,236.773227 C33.2467532,236.773227 35.1748252,237.372627 38.4715285,238.111888" id="Path"></path>
            <path d="M374.255744,292.707293 L304.495504,292.707293 C301.150383,292.707288 298.437079,295.416121 298.431568,298.761239 L298.431568,319.89011 L252.897103,324.885115 L186.373626,323.366633 L186.373626,282.717283 C195.315238,281.580567 204.16054,279.784125 212.837163,277.342657 C276.883117,259.280719 290.849151,206.333666 289.450549,169.7003 C288.061938,132.387612 300,117.902098 317.152847,111.458541 C321.761152,109.754739 326.521231,108.493636 331.368631,107.692308 C331.558442,116.853147 333.366633,127.512488 337.512488,140.1998 C339.040959,140.11988 340.509491,139.99001 342.057942,139.83017 C337.732268,126.843157 335.884116,116.163836 335.784216,107.052947 C340.819694,106.417284 345.904328,106.263407 350.969031,106.593407 C345.844565,103.614989 341.005576,100.170511 336.513487,96.3036963 C339.390609,78.6413586 349.92008,67.7922078 360.759241,56.6933067 C366.753247,50.5894106 372.877123,44.2857143 377.742258,36.7732268 L373.966034,34.3356643 C369.370629,41.4685315 363.346653,47.6123876 357.542458,53.5564436 C346.973027,64.3756244 336.293706,75.4245754 332.677323,92.967033 C328.815841,89.4836018 325.144221,85.795307 321.678322,81.9180819 C305.884116,64.2157842 285.554446,77.2127872 256.573427,104.205794 C227.592408,131.198801 191.098901,132.107892 155.474525,95.6643357 C108.521479,47.5524476 67.4825175,47.8321678 39.3706294,50.5594406 C58.6013986,58.7512488 65.3446553,76.7232767 75.0649351,122.397602 C85.2647353,170.34965 111.028971,192.007992 146.183816,194.995005 C126.613387,201.918082 125.644356,212.977023 99.4205794,231.078921 C78.9310689,245.204795 50.1198801,240.739261 38.4815185,238.071928 C59.9200799,244.765235 85.3246753,267.252747 108.051948,275.034965 C121.461059,279.605881 135.394479,282.462383 149.52048,283.536464 L149.52048,322.437562 L30.3396603,319.72028 L30.3396603,346.853147 L252.907093,341.758242 L298.441558,346.753247 L298.441558,367.862138 C298.447039,371.210505 301.157141,373.925072 304.505495,373.936064 L374.265734,373.936064 C377.615718,373.925098 380.328695,371.212122 380.33966,367.862138 L380.33966,298.761239 C380.328643,295.410605 377.606392,292.701764 374.255744,292.707293 L374.255744,292.707293 Z M160.46953,284.195804 C165.464535,284.275724 170.40959,284.125874 175.394605,283.786214 L175.394605,323.116883 L160.46953,322.777223 L160.46953,284.195804 Z" id="Shape"></path>
            <path d="M23.8161838,342.457542 C23.8161838,348.181818 19.8201798,352.817183 14.9050949,352.817183 L9.54045954,352.817183 C4.62537463,352.817183 0.619380619,348.181818 0.619380619,342.457542 L0.619380619,323.676324 C0.619380619,317.952048 4.61538462,313.316683 9.54045954,313.316683 L14.9050949,313.316683 C19.8201798,313.316683 23.8161838,317.952048 23.8161838,323.676324 L23.8161838,342.457542 Z" id="Path"></path>
        </g>
    </g>
</svg>