<?xml version="1.0" encoding="UTF-8"?>
<svg width="1000px" height="1000px" viewBox="0 0 1000 1000" version="1.1" xmlns="http://www.w3.org/2000/svg" xmlns:xlink="http://www.w3.org/1999/xlink">
    <!-- Generator: Sketch 53.2 (72643) - https://sketchapp.com -->
    <title>_17</title>
    <desc>Created with Sketch.</desc>
    <g id="_17" stroke="none" stroke-width="1" fill="none" fill-rule="evenodd">
        <rect id="Rectangle" fill="#19486A" fill-rule="nonzero" x="0" y="0" width="1000" height="1000"></rect>
        <path d="M748.52,474.025048 C748.52,403.795048 692.65,346.425048 623.05,343.885048 C604.672719,291.818501 555.459579,257 500.245,257 C445.030421,257 395.817281,291.818501 377.44,343.885048 C307.85,346.425048 252,403.805048 252,474.025048 C252.003695,514.169752 270.554341,552.060904 302.26,576.685048 C298.858795,588.437566 297.128493,600.61027 297.12,612.845048 C297.12,684.625048 355.55,743.055048 427.38,743.055048 C453.624592,743.080229 479.25715,735.128905 500.88,720.255048 C522.252545,734.583844 547.408708,742.221904 573.14,742.195048 C644.96,742.195048 703.39,683.765048 703.39,611.975048 C703.38815,599.994226 701.729095,588.07124 698.46,576.545048 C730.039388,551.904876 748.506024,514.089956 748.52,474.035048 M604.26,387.245048 C604.26,439.385048 565.67,482.545048 515.58,490.005048 C514.709937,484.715363 514.255216,479.365695 514.22,474.005048 C514.297739,422.533745 551.99392,378.852423 602.9,371.245048 C603.765921,376.535248 604.220615,381.884593 604.26,387.245048 M500.73,686.475048 C480.689838,667.099836 469.291006,640.474334 469.102883,612.600125 C468.91476,584.725916 479.953179,557.948985 499.73,538.305048 C519.777722,557.67612 531.181845,584.303116 531.369986,612.179884 C531.558126,640.056652 520.514436,666.835148 500.73,686.475048 M397.59,371.255048 C447.68,378.705048 486.26,421.875048 486.26,474.025048 C486.221479,479.385957 485.763413,484.735627 484.89,490.025048 C434.82,482.545048 396.26,439.385048 396.26,387.245048 C396.300305,381.884635 396.754993,376.535361 397.62,371.245048 M475.15,520.545048 C462.761227,545.45918 440.874059,564.344765 414.41429,572.951525 C387.954522,581.558285 359.145208,579.163111 334.47,566.305048 C346.858773,541.390916 368.745941,522.505331 395.20571,513.898571 C421.665478,505.291811 450.474792,507.686984 475.15,520.545048 M525.02,519.845048 C549.830983,506.812748 578.861314,504.380821 605.494755,513.103523 C632.128196,521.826224 654.095446,540.960337 666.39,566.145048 C641.579017,579.177348 612.548686,581.609275 585.915245,572.886573 C559.281804,564.163871 537.314554,545.029759 525.02,519.845048 M500.26,283.235048 C541.647647,283.280272 579.079599,307.831864 595.61,345.775048 C553.828778,353.243941 518.275302,380.534542 500.26,418.965048 C482.258197,380.523689 446.698217,353.228095 404.91,345.775048 C421.442476,307.833613 458.873131,283.282872 500.26,283.235048 M278.26,474.025048 C278.328978,420.918735 318.337017,376.365796 371.13,370.605048 C365.594759,412.743009 381.07629,454.916447 412.56,483.465048 C370.215599,488.35601 332.929285,513.620502 312.69,551.135048 C290.791348,531.481845 278.274771,503.449513 278.26,474.025048 M323.35,612.845048 C323.349179,605.598697 324.110026,598.37233 325.62,591.285048 C363.627359,609.66766 408.194622,608.448325 445.14,588.015048 C437.306532,629.544389 450.207538,672.28527 479.71,702.545048 C447.58173,721.389098 407.821233,721.58023 375.513281,703.04593 C343.20533,684.511629 323.300308,650.091813 323.35,612.845048 M677.17,611.975048 C677.224265,649.010536 657.551047,683.272148 625.537837,701.894306 C593.524628,720.516463 554.016823,720.680587 521.85,702.325048 C550.867112,671.856117 563.296811,629.202191 555.19,587.915048 C592.224031,608.482375 636.959747,609.702745 675.06,591.185048 C676.463658,598.026003 677.170602,604.991572 677.17,611.975048 M588.75,482.695048 C615.374626,458.097065 630.510401,423.49324 630.5,387.245048 C630.486118,381.681007 630.122065,376.123355 629.41,370.605048 C670.131798,374.921529 704.513047,402.769553 717.192664,441.706992 C729.87228,480.644431 718.481668,523.397638 688.11,550.865048 C668.091148,513.295932 631.006303,487.852354 588.75,482.695048" id="Shape" fill="#FFFFFF" fill-rule="nonzero"></path>
    </g>
</svg>