<?xml version="1.0" encoding="UTF-8"?>
<svg width="1000px" height="1000px" viewBox="0 0 1000 1000" version="1.1" xmlns="http://www.w3.org/2000/svg" xmlns:xlink="http://www.w3.org/1999/xlink">
    <!-- Generator: Sketch 53.2 (72643) - https://sketchapp.com -->
    <title>_2</title>
    <desc>Created with Sketch.</desc>
    <g id="_2" stroke="none" stroke-width="1" fill="none" fill-rule="evenodd">
        <rect id="_Path_" fill="#DDA63A" fill-rule="nonzero" x="0" y="-0.02" width="1000" height="1000.04"></rect>
        <g id="Group" transform="translate(230.000000, 270.000000)" fill="#FFFFFF" fill-rule="nonzero">
            <path d="M183.12,438.72 L183.12,452.79 C183.092815,452.89136 183.076061,452.995233 183.07,453.1 C183.075331,453.211421 183.092086,453.322001 183.12,453.43 C183.267643,456.919332 186.108067,459.689623 189.6,459.75 C189.6,459.75 189.68,459.75 189.73,459.75 L189.89,459.75 L354.89,459.75 C354.89,459.75 354.98,459.75 355.03,459.75 L355.18,459.75 C358.779143,459.679449 361.664403,456.749801 361.68,453.15 C361.68,453.15 361.68,453.15 361.68,453.15 C361.673845,453.133902 361.673845,453.116098 361.68,453.1 L361.68,437.14 C454.54,406.7 524.11,331.44 539.41,239.72 C539.41,239.52 539.47,239.34 539.5,239.17 C539.55422,238.866187 539.584314,238.558561 539.59,238.25 C539.592659,236.480192 538.890783,234.782106 537.639339,233.530661 C536.387894,232.279217 534.689808,231.577341 532.92,231.58 L7.14,231.58 C5.3675433,231.574685 3.66586014,232.275068 2.41066353,233.526513 C1.15546692,234.777957 0.449992032,236.477535 0.45,238.25 L0.8,241.25 C16.87,333.84 88.34,409.52 183.12,438.72" id="_Path_3"></path>
            <path d="M361.49,7.2 C359.32,10.28 308.49,83.41 362.62,142.54 C387.43,169.68 385.28,193.62 378.2,209.79 L412.9,209.79 C419.9,185.92 417.02,155.97 388.9,125.19 C349.04,81.61 389.41,22.72 390.02,21.81 C394.78,15.09 392.23,6.43 384.39,2.39 C376.55,-1.65 366.32,0.52 361.54,7.2" id="_Path_4"></path>
            <path d="M273.61,209.79 L308.32,209.79 C315.32,185.91 312.43,155.97 284.26,125.19 C244.38,81.61 284.72,22.74 285.36,21.78 C290.09,15.09 287.59,6.44 279.72,2.39 C271.85,-1.66 261.66,0.51 256.9,7.2 C254.72,10.27 203.9,83.41 258.03,142.54 C282.84,169.68 280.67,193.63 273.61,209.79" id="_Path_5"></path>
            <path d="M152.29,7.2 C150.09,10.28 99.29,83.41 153.41,142.54 C178.23,169.69 176.08,193.63 169.01,209.79 L203.71,209.79 C210.71,185.93 207.83,155.98 179.63,125.19 C139.76,81.61 180.13,22.72 180.77,21.79 C185.48,15.09 182.97,6.43 175.1,2.39 C167.23,-1.65 157.05,0.51 152.29,7.2" id="_Path_6"></path>
        </g>
    </g>
</svg>