<?xml version="1.0" encoding="UTF-8"?>
<svg width="1000px" height="1000px" viewBox="0 0 1000 1000" version="1.1" xmlns="http://www.w3.org/2000/svg" xmlns:xlink="http://www.w3.org/1999/xlink">
    <!-- Generator: Sketch 53.2 (72643) - https://sketchapp.com -->
    <title>_3</title>
    <desc>Created with Sketch.</desc>
    <g id="_3" stroke="none" stroke-width="1" fill="none" fill-rule="evenodd">
        <rect id="_Path_" fill="#4C9F38" fill-rule="nonzero" x="1" y="0.978043912" width="998.003992" height="998.033932"></rect>
        <g id="Group" transform="translate(164.000000, 265.000000)" fill="#FFFFFF" fill-rule="nonzero">
            <g transform="translate(0.862275, 0.411178)">
                <path d="M668.922156,248.502994 C668.922156,220.419162 650.958084,197.60479 623.612774,197.60479 C609.97006,197.60479 593.502994,212.57485 584.560878,221.746507 C575.578842,212.53493 560.249501,197.58483 546.636727,197.58483 C519.351297,197.58483 500.219561,220.349301 500.219561,248.483034 C500.177169,261.889155 505.373494,274.781484 514.700599,284.411178 L514.700599,284.411178 L584.660679,354.500998 L654.520958,284.491018 L654.461078,284.441118 C663.779685,274.803416 668.968267,261.908948 668.922156,248.502994 Z" id="_Path_3"></path>
                <g id="_Group_">
                    <path d="M371.067864,468.942116 L370.349301,468.942116 C365.028899,468.622495 360.63164,464.676131 359.740519,459.421158 L324.201597,252.42515 L270.369261,352.225549 C268.014288,356.585973 263.128391,358.94454 258.249336,358.076195 C253.370281,357.207851 249.598151,353.30838 248.892216,348.403194 L226.037924,188.672655 L184.231537,282.58483 C182.385844,286.734313 178.273977,289.411716 173.732535,289.421158 L11.2275449,289.421158 C5.15151056,289.062657 0.407712393,284.030713 0.407712393,277.944112 C0.407712393,271.85751 5.15151056,266.825567 11.2275449,266.467066 L166.267465,266.467066 L221.267465,142.944112 C223.341651,138.268056 228.257978,135.527031 233.326131,136.220982 C238.394284,136.914933 242.39285,140.876618 243.133733,145.938124 L266.696607,310.608782 L319.780439,212.175649 C322.112851,207.870098 326.916414,205.514357 331.748684,206.306237 C336.580954,207.098118 340.381375,210.863823 341.217565,215.688623 L374.151697,407.37525 L494.061876,8.98203593 C495.432295,4.44683288 499.444404,1.21666888 504.167605,0.845875536 C508.890806,0.475082195 513.357823,3.03959513 515.419162,7.30538922 L578.522954,138.133733 C580.398494,141.841824 580.125164,146.273743 577.808192,149.72327 C575.491219,153.172796 571.491891,155.102043 567.349887,154.768279 C563.207883,154.434516 559.569069,151.889786 557.834331,148.113772 L507.55489,43.9121756 L382.055888,460.758483 C380.601666,465.6131 376.135612,468.939317 371.067864,468.942116 L371.067864,468.942116 Z" id="_Path_4"></path>
                </g>
            </g>
        </g>
    </g>
</svg>