<?xml version="1.0" encoding="UTF-8"?>
<svg width="1000px" height="1000px" viewBox="0 0 1000 1000" version="1.1" xmlns="http://www.w3.org/2000/svg" xmlns:xlink="http://www.w3.org/1999/xlink">
    <!-- Generator: Sketch 53.2 (72643) - https://sketchapp.com -->
    <title>_4</title>
    <desc>Created with Sketch.</desc>
    <g id="_4" stroke="none" stroke-width="1" fill="none" fill-rule="evenodd">
        <rect id="Rectangle" fill="#C5192D" fill-rule="nonzero" x="0" y="0" width="999.96" height="1000"></rect>
        <g id="Group" transform="translate(220.000000, 271.000000)" fill="#FFFFFF" fill-rule="nonzero">
            <polygon id="Path" points="218.3 134.19 38.96 30.63 38.96 365.63 218.3 419.74"></polygon>
            <polygon id="Path" points="238.03 134.87 238.03 419.86 418.53 365.59 418.53 30.64"></polygon>
            <path d="M559.32,22.15 C559.486949,14.4608106 555.480304,7.28317122 548.847702,3.38957362 C542.215101,-0.504023975 533.994899,-0.504023975 527.362298,3.38957362 C520.729696,7.28317122 516.723051,14.4608106 516.89,22.15 L516.89,45 L559.32,45 L559.32,22.15 Z" id="Path"></path>
            <polygon id="Path" points="522.16 359.69 516.89 359.69 538.12 433.85 559.31 359.69 554.04 359.69 559.31 359.69 559.31 61.64 554.04 61.64 548.77 61.64 543.19 61.64 532.63 61.64 527.42 61.64 522.16 61.64 516.88 61.64 516.88 359.69"></polygon>
            <polygon id="Path" points="457.06 45.02 437.83 29.83 437.83 374.72 238.56 439.11 229.34 439.11 227.51 439.11 218.3 439.11 19.92 383.68 19.92 29.83 0.68 45.02 0.68 397.17 217.39 457.17 227.51 457.17 229.34 457.17 239.46 457.17 439.4 393.69 457.06 388.49"></polygon>
        </g>
    </g>
</svg>