<?xml version="1.0" encoding="UTF-8"?>
<svg width="1000px" height="1000px" viewBox="0 0 1000 1000" version="1.1" xmlns="http://www.w3.org/2000/svg" xmlns:xlink="http://www.w3.org/1999/xlink">
    <!-- Generator: Sketch 53.2 (72643) - https://sketchapp.com -->
    <title>_5</title>
    <desc>Created with Sketch.</desc>
    <g id="_5" stroke="none" stroke-width="1" fill="none" fill-rule="evenodd">
        <rect id="Rectangle" fill="#FF3A21" fill-rule="nonzero" x="0" y="0" width="999.95" height="1000"></rect>
        <g id="Group" transform="translate(303.000000, 234.000000)" fill="#FFFFFF" fill-rule="nonzero">
            <path d="M393.35,0.38 L269.07,0.38 C268.198045,0.390883673 267.495382,1.09799401 267.49,1.97 L267.49,43.26 C267.489983,44.1342423 268.195775,44.8445016 269.07,44.85 L318.55,44.85 L263.6,99.85 C235.009741,77.3099384 199.656821,65.0641235 163.25,65.09 C73.5,65.09 0.47,138.09 0.47,227.87 C0.47,310.51 62.38,378.87 142.24,389.24 L142.24,436.83 L93.24,436.83 C92.8184367,436.821943 92.4113505,436.98379 92.1103978,437.2791 C91.809445,437.57441 91.639923,437.97836 91.64,438.4 L91.64,482.67 C91.6372258,483.093372 91.8055603,483.499918 92.1068126,483.797405 C92.4080649,484.094892 92.8166967,484.258099 93.24,484.25 L142.24,484.25 L142.24,531 C142.237317,531.419859 142.402919,531.823299 142.69981,532.12019 C142.996701,532.417081 143.400141,532.582683 143.82,532.58 L188.06,532.58 C188.481697,532.582661 188.887178,532.417689 189.187238,532.12138 C189.487298,531.825071 189.657356,531.421697 189.66,531 L189.66,484.21 L238.66,484.21 C239.078128,484.210008 239.478987,484.043226 239.773708,483.746628 C240.068429,483.450029 240.232663,483.04812 240.23,482.63 L240.23,438.36 C240.23,437.94361 240.06459,437.544274 239.770158,437.249842 C239.475726,436.95541 239.07639,436.79 238.66,436.79 L189.66,436.79 L189.66,388.43 C266.89,375.76 326,308.59 326,227.83 C326.0283,194.296928 315.639669,161.583046 296.27,134.21 L350.45,80 L350.45,126.22 C350.46098,127.099745 351.180204,127.805567 352.06,127.8 L393.35,127.8 C394.229796,127.805567 394.94902,127.099745 394.96,126.22 L394.96,2 C394.957356,1.57565102 394.786244,1.1697335 394.484309,0.871548872 C394.182374,0.573364245 393.774349,0.407339531 393.35,0.41 M163.25,347.65 C97.0752413,347.65 43.43,294.004759 43.43,227.83 C43.43,161.655241 97.0752413,108.01 163.25,108.01 C229.424759,108.01 283.07,161.655241 283.07,227.83 C283.003853,293.97734 229.39734,347.583853 163.25,347.65" id="Shape"></path>
            <path d="M237.65,178.65 L92.32,178.65 C91.4950831,178.615667 90.7936037,179.246111 90.74,180.07 L90.74,215.25 C90.7554868,215.651571 90.9314617,216.030133 91.2284804,216.300834 C91.525499,216.571535 91.9187188,216.711732 92.32,216.69 L237.65,216.69 C238.055615,216.717318 238.45511,216.57993 238.758125,216.30891 C239.06114,216.037891 239.242073,215.656138 239.26,215.25 L239.26,180.07 C239.201174,179.236417 238.484401,178.604233 237.65,178.65" id="Path"></path>
            <path d="M237.65,241.47 L92.32,241.47 C91.4806592,241.447337 90.7778599,242.101207 90.74,242.94 L90.74,278.12 C90.7606605,278.518028 90.9388799,278.891469 91.2353167,279.157887 C91.5317535,279.424305 91.9220322,279.561793 92.32,279.54 L237.65,279.54 C238.052319,279.567368 238.448871,279.432678 238.751297,279.165942 C239.053723,278.899206 239.236895,278.522586 239.26,278.12 L239.26,242.94 C239.216835,242.0916 238.498818,241.436019 237.65,241.47" id="Path"></path>
        </g>
    </g>
</svg>