<?xml version="1.0" encoding="UTF-8"?>
<svg width="1000px" height="1000px" viewBox="0 0 1000 1000" version="1.1" xmlns="http://www.w3.org/2000/svg" xmlns:xlink="http://www.w3.org/1999/xlink">
    <!-- Generator: Sketch 53.2 (72643) - https://sketchapp.com -->
    <title>_6</title>
    <desc>Created with Sketch.</desc>
    <g id="_6" stroke="none" stroke-width="1" fill="none" fill-rule="evenodd">
        <rect id="Rectangle" fill="#26BDE2" fill-rule="nonzero" x="0" y="0" width="1000" height="1000"></rect>
        <path d="M684.323729,246.432894 C683.483836,245.511009 682.290786,244.990868 681.043729,245.002894 L318.243729,245.002894 C316.997556,244.956033 315.798086,245.480269 314.986033,246.426691 C314.173979,247.373113 313.838073,248.638308 314.073729,249.862894 L375.073729,618.492894 C375.418881,620.534984 377.1827,622.032964 379.253729,622.042894 L454.063729,622.042894 L459.183729,682.042894 L427.703729,682.042894 L500.953729,755.282894 L574.373729,681.872894 L542.903729,681.872894 L547.963729,622.072894 L624.093729,622.072894 C626.192578,622.08177 627.97256,620.532843 628.253729,618.452894 L685.253729,249.892894 C685.453812,248.659583 685.115172,247.399697 684.323729,246.432894 Z M544.103729,541.542894 C532.347605,552.287351 516.701958,557.744714 500.813729,556.642894 C484.909062,557.755109 469.243982,552.297271 457.473729,541.542894 C430.293729,514.392894 439.993729,480.612894 449.473729,463.152894 C455.313729,452.222894 497.073729,389.512894 500.673729,384.152894 L500.673729,383.732894 L500.833729,383.932894 L500.973729,383.732894 L500.973729,384.152894 C504.473729,389.492894 546.303729,452.152894 552.143729,463.152894 C561.593729,480.612894 571.263729,514.392894 544.103729,541.542894 Z M659.193729,323.992894 C649.363729,319.662894 636.893729,321.222894 624.933729,326.062894 C579.933729,344.312894 549.273729,350.872894 501.933729,336.062894 C472.113729,326.722894 444.213729,307.182894 411.243729,319.062894 C389.353729,326.932894 368.963729,334.442894 344.243729,334.252894 L329.953729,260.992894 L669.463729,260.992894 L659.193729,323.992894 Z" id="Shape" fill="#FFFFFF" fill-rule="nonzero"></path>
    </g>
</svg>