<?xml version="1.0" encoding="UTF-8"?>
<svg width="1000px" height="1000px" viewBox="0 0 1000 1000" version="1.1" xmlns="http://www.w3.org/2000/svg" xmlns:xlink="http://www.w3.org/1999/xlink">
    <!-- Generator: Sketch 53.2 (72643) - https://sketchapp.com -->
    <title>_7</title>
    <desc>Created with Sketch.</desc>
    <g id="_7" stroke="none" stroke-width="1" fill="none" fill-rule="evenodd">
        <rect id="_Path_" fill="#FCC30B" fill-rule="nonzero" x="1" y="0.978043912" width="998.003992" height="998.033932"></rect>
        <g id="Group" transform="translate(245.000000, 245.000000)" fill="#FFFFFF" fill-rule="nonzero">
            <path d="M255.489022,110.269461 C196.31493,110.245239 142.95422,145.872745 120.293422,200.535913 C97.6326248,255.199082 110.1354,318.130514 151.970667,359.980056 C193.805933,401.829599 256.733095,414.353845 311.403992,391.7117 C366.074889,369.069554 401.720599,315.721003 401.716567,256.546906 C401.722081,175.777306 336.258619,110.291505 255.489022,110.269461 L255.489022,110.269461 Z M244.660679,168.053892 C244.660679,163.193613 249.540918,157.824351 255.548902,157.824351 C261.556886,157.824351 266.377246,163.193613 266.377246,168.053892 L266.377246,218.283433 C266.377246,223.123752 261.536926,228.433134 255.548902,228.433134 C249.560878,228.433134 244.660679,223.123752 244.660679,218.283433 L244.660679,168.053892 Z M255.489022,331.497006 C217.928341,331.437527 186.030745,303.978411 180.385859,266.844282 C174.740973,229.710152 197.037928,194.012737 232.884232,182.794411 L232.884232,211.127745 C212.363398,221.58906 201.696689,244.760134 207.093461,267.152512 C212.490233,289.54489 232.541559,305.312632 255.575067,305.276945 C278.608574,305.241258 298.610944,289.411459 303.938303,267.002465 C309.265662,244.593471 298.527204,221.455561 277.974052,211.057884 L277.974052,182.724551 C313.916203,193.85124 336.329011,229.577229 330.706333,266.77974 C325.083656,303.982252 293.114031,331.489041 255.489022,331.497006 L255.489022,331.497006 Z" id="_Compound_Path_"></path>
            <path d="M87.5548902,255.269461 C87.5548902,248.632735 81.6766467,243.293413 76.3173653,243.293413 L12.255489,243.293413 C6.85628743,243.293413 0.928143713,248.662675 0.928143713,255.269461 C0.928143713,261.876248 6.85628743,267.315369 12.255489,267.315369 L76.3173653,267.315369 C81.6766467,267.315369 87.5548902,261.916168 87.5548902,255.269461" id="_Path_3"></path>
            <path d="M510.0499,255.269461 C510.0499,248.632735 504.171657,243.293413 498.812375,243.293413 L434.760479,243.293413 C429.361277,243.293413 423.433134,248.662675 423.433134,255.269461 C423.433134,261.876248 429.361277,267.315369 434.760479,267.315369 L498.812375,267.315369 C504.171657,267.315369 510.0499,261.916168 510.0499,255.269461" id="_Path_4"></path>
            <path d="M255.489022,87.3552894 C262.105788,87.3552894 267.46507,81.4770459 267.46507,76.1177645 L267.46507,12.0558882 C267.46507,6.65668663 262.085828,0.728542914 255.489022,0.728542914 C248.892216,0.728542914 243.423154,6.65668663 243.423154,12.0558882 L243.423154,76.1177645 C243.423154,81.4770459 248.842315,87.3552894 255.489022,87.3552894" id="_Path_5"></path>
            <path d="M255.489022,509.840319 C262.105788,509.840319 267.46507,503.962076 267.46507,498.602794 L267.46507,434.550898 C267.46507,429.161677 262.085828,423.223553 255.489022,423.223553 C248.892216,423.223553 243.423154,429.161677 243.423154,434.550898 L243.423154,498.602794 C243.423154,503.962076 248.842315,509.840319 255.489022,509.840319" id="_Path_6"></path>
            <path d="M109.780439,171.846307 C113.083832,166.087824 110.658683,158.512974 105.988024,155.878244 L50.3992016,124.061876 C45.7085828,121.377246 37.9041916,123.063872 34.6007984,128.852295 C31.2974052,134.640719 33.7724551,142.255489 38.4530938,144.94012 L94.0518962,176.756487 C98.7025948,179.421158 106.487026,177.654691 109.780439,171.876248" id="_Path_7"></path>
            <path d="M476.437126,381.706587 C479.720559,375.968064 477.295409,368.373253 472.644711,365.738523 L417.055888,333.922156 C412.365269,331.247505 404.550898,332.924152 401.257485,338.722555 C397.964072,344.520958 400.419162,352.125749 405.0998,354.800399 L460.698603,386.616766 C465.349301,389.281437 473.133733,387.51497 476.437126,381.736527" id="_Path_8"></path>
            <path d="M338.932136,109.550898 C344.680639,112.834331 352.255489,110.409182 354.9002,105.758483 L386.706587,50.1596806 C389.401198,45.4690619 387.704591,37.6546906 381.926148,34.3612774 C376.147705,31.0678643 368.512974,33.5229541 365.838323,38.2135729 L334.051896,93.8123752 C331.387226,98.4730539 333.153693,106.257485 338.932136,109.560878" id="_Path_9"></path>
            <path d="M129.071856,476.237525 C134.820359,479.520958 142.39521,477.095808 145.03992,472.43513 L176.846307,416.846307 C179.530938,412.165669 177.844311,404.341317 172.055888,401.047904 C166.267465,397.754491 158.682635,400.199601 156.007984,404.9002 L124.191617,460.489022 C121.526946,465.139721 123.293413,472.934132 129.071856,476.237525" id="_Path_10"></path>
            <path d="M171.796407,109.690619 C177.53493,106.387226 179.271457,98.6127745 176.596806,93.9620758 L144.660679,38.4331337 C141.966068,33.752495 134.361277,31.2974052 128.612774,34.6007984 C122.864271,37.9041916 121.117764,45.748503 123.822355,50.4291417 L155.758483,105.948104 C158.443114,110.598802 166.037924,113.003992 171.816367,109.690619" id="_Path_11"></path>
            <path d="M382.40519,475.948104 C388.153693,472.644711 389.88024,464.870259 387.215569,460.229541 L355.279441,404.700599 C352.58483,400.00998 344.98004,397.55489 339.221557,400.858283 C333.463074,404.161677 331.726547,412.005988 334.441118,416.696607 L366.377246,472.215569 C369.051896,476.866267 376.656687,479.261477 382.42515,475.948104" id="_Path_12"></path>
            <path d="M401.087824,171.586826 C404.391218,177.335329 412.155689,179.061876 416.806387,176.397206 L472.325349,144.461078 C477.015968,141.766467 479.491018,134.151697 476.177645,128.403194 C472.864271,122.654691 465.03992,120.918164 460.349301,123.612774 L404.830339,155.548902 C400.169661,158.223553 397.774451,165.838323 401.087824,171.596806" id="_Path_13"></path>
            <path d="M34.8303393,382.235529 C38.1337325,387.984032 45.8982036,389.710579 50.5588822,387.035928 L106.077844,355.0998 C110.758483,352.40519 113.233533,344.790419 109.91018,339.041916 C106.586826,333.293413 98.7724551,331.556886 94.0918164,334.241517 L38.5728543,366.177645 C33.9121756,368.842315 31.5169661,376.467066 34.8303393,382.225549" id="_Path_14"></path>
        </g>
    </g>
</svg>