<?xml version="1.0" encoding="UTF-8"?>
<svg width="1000px" height="1000px" viewBox="0 0 1000 1000" version="1.1" xmlns="http://www.w3.org/2000/svg" xmlns:xlink="http://www.w3.org/1999/xlink">
    <!-- Generator: Sketch 53.2 (72643) - https://sketchapp.com -->
    <title>_8</title>
    <desc>Created with Sketch.</desc>
    <g id="_8" stroke="none" stroke-width="1" fill="none" fill-rule="evenodd">
        <rect id="_Path_" fill="#A21942" fill-rule="nonzero" x="2" y="0.978043912" width="998.003992" height="998.033932"></rect>
        <g id="Group" transform="translate(259.000000, 246.000000)" fill="#FFFFFF" fill-rule="nonzero">
            <path d="M434.291417,120.758483 L332.854291,217.235529 C329.031936,221.037924 327.065868,223.842315 327.065868,231.726547 L327.065868,502.185629 C327.076865,505.374689 329.665212,507.954111 332.854291,507.954092 L437.644711,507.954092 C440.832163,507.954097 443.417649,505.373077 443.423154,502.185629 L443.423154,123.173653 C443.423154,119.98004 440.928144,114.191617 434.301397,120.738523" id="_Path_2"></path>
            <path d="M142.055888,246.506986 L40.6087824,342.944112 C36.7964072,346.756487 34.8203593,349.550898 34.8203593,357.42515 L34.8203593,502.135729 C34.8368345,505.320888 37.4235805,507.894254 40.6087824,507.894212 L145.399202,507.894212 C148.582769,507.894231 151.166648,505.319277 151.177645,502.135729 L151.177645,248.882236 C151.177645,245.678643 148.652695,239.840319 142.055888,246.457086" id="_Path_3"></path>
            <path d="M480.399202,3.71257485 C480.445475,2.89080104 480.132239,2.08949868 479.540918,1.51696607 C479.029693,1.03281648 478.366876,0.740190072 477.664671,0.688622754 L477.105788,0.688622754 L476.277445,0.688622754 L398.602794,18.2934132 L397.195609,18.4431138 C396.626653,18.560245 396.101451,18.8332118 395.678643,19.2315369 C394.544003,20.394512 394.544003,22.2501985 395.678643,23.4131737 L396.556886,24.2914172 L414.301397,42.0259481 L238.293413,218.033932 L157.005988,136.726547 C156.570288,136.280293 155.972982,136.028683 155.349301,136.028683 C154.725621,136.028683 154.128315,136.280293 153.692615,136.726547 L131.636727,158.792415 L1.30738523,289.111776 C0.409874183,290.033899 0.409874183,291.503027 1.30738523,292.42515 L23.3932136,314.500998 C23.8277904,314.937975 24.4186458,315.18367 25.0349301,315.18367 C25.6512144,315.18367 26.2420698,314.937975 26.6766467,314.500998 L155.419162,185.838323 L214.401198,244.840319 C214.457488,244.937977 214.520865,245.031374 214.590818,245.11976 L236.656687,267.155689 C237.09066,267.601365 237.686322,267.85275 238.308383,267.85275 C238.930444,267.85275 239.526106,267.601365 239.96008,267.155689 L439.670659,67.4051896 L458.293413,86.0179641 C458.839398,86.573258 459.585522,86.8860135 460.364271,86.8860135 C461.143021,86.8860135 461.889145,86.573258 462.43513,86.0179641 C462.95575,85.5134617 463.259929,84.8263762 463.283433,84.1017964 L463.283433,83.8622754 L480.339321,4.57085828 L480.399202,3.71257485 Z" id="_Path_4"></path>
            <path d="M288.752495,263.393214 L239.670659,312.874251 C238.744161,313.659491 237.371467,313.607528 236.506986,312.754491 L192.045908,267.46507 C183.902196,259.361277 182.145709,265.938124 182.145709,269.121756 L182.145709,502.165669 C182.143059,503.692914 182.747216,505.15866 183.82527,506.240457 C184.903324,507.322254 186.366966,507.931487 187.894212,507.934132 L292.684631,507.934132 C295.864288,507.923153 298.437641,505.345341 298.443114,502.165669 L298.443114,265.219561 C298.443114,262.035928 295.938124,256.177645 288.732535,263.393214" id="_Path_5"></path>
        </g>
    </g>
</svg>