<?xml version="1.0" encoding="UTF-8"?>
<svg width="1000px" height="1000px" viewBox="0 0 1000 1000" version="1.1" xmlns="http://www.w3.org/2000/svg" xmlns:xlink="http://www.w3.org/1999/xlink">
    <!-- Generator: Sketch 53.2 (72643) - https://sketchapp.com -->
    <title>_9</title>
    <desc>Created with Sketch.</desc>
    <g id="_9" stroke="none" stroke-width="1" fill="none" fill-rule="evenodd">
        <rect id="_Path_" fill="#FD6925" fill-rule="nonzero" x="1" y="0.988023952" width="998.003992" height="998.023952"></rect>
        <path d="M749.814371,528.379325 L631.171657,459.906271 L631.171657,322.930223 C631.176725,320.057674 629.657026,317.398199 627.179641,315.944195 L504.52495,245.085912 C502.021269,243.638029 498.934819,243.638029 496.431138,245.085912 L373.686627,315.924235 C371.209242,317.378239 369.689542,320.037713 369.694611,322.910263 L369.694611,459.906271 L251.051896,528.379325 C248.552973,529.819688 247.00938,532.481054 247,535.365353 L247,677.08192 C247.011423,679.965664 248.554467,682.626086 251.051896,684.067947 L373.716567,754.926231 C376.222988,756.363867 379.303958,756.363867 381.810379,754.926231 L500.433134,686.393297 L619.035928,754.866351 C621.542349,756.303987 624.62332,756.303987 627.129741,754.866351 L749.814371,684.008067 C752.3118,682.566206 753.854845,679.905784 753.866267,677.022039 L753.866267,535.305472 C753.839721,532.441498 752.297882,529.80594 749.814371,528.379325 Z M492.329341,663.030023 L393.946108,606.213656 L492.339321,549.407269 L492.329341,663.030023 Z M606.9002,464.58691 L508.516966,521.363357 L508.516966,407.770542 L606.9002,464.58691 Z M492.339321,521.373337 L393.956088,464.576929 L492.339321,407.770542 L492.339321,521.373337 Z M516.620758,535.345393 L623.087824,473.928227 L729.58483,535.385313 L623.087824,596.872339 L516.620758,535.345393 Z M614.994012,450.515053 L516.620758,393.698686 L614.994012,336.902279 L614.994012,450.515053 Z M484.255489,393.698686 L385.862275,450.515053 L385.862275,336.952179 L484.255489,393.698686 Z M369.694611,733.838407 L263.207585,672.371341 L263.207585,549.407269 L369.694611,610.934215 L369.694611,733.838407 Z M385.872255,733.838407 L385.872255,620.235612 L484.265469,677.051979 L385.872255,733.838407 Z M737.698603,672.371341 L631.171657,733.838407 L631.171657,610.934215 L737.678643,549.447189 L737.698603,672.371341 Z" id="_Compound_Path_2" fill="#FFFFFF" fill-rule="nonzero"></path>
    </g>
</svg>