<svg width="169" height="100" viewBox="0 0 169 100" fill="none" xmlns="http://www.w3.org/2000/svg">
<path fill-rule="evenodd" clip-rule="evenodd" d="M135.652 69.5551C138.335 69.72 146.01 70.3523 148.18 69.7499C152.259 68.6173 150.694 67.178 153.58 63.9651C170.491 67.4437 169.653 90.3539 155.789 95.1424C147.421 98.0335 139.342 94.4292 135.828 89.6737C130.734 82.7775 133.473 76.7724 135.652 69.5551ZM122.922 81.6144L118.868 82.4271L121.949 76.9498L122.466 71.2882C125.786 71.5614 126.171 72.585 128.447 73.7979L130.032 76.5142C128.186 79.6561 130.092 76.5279 129.088 79.6978L128.709 81.4533L122.922 81.6144ZM167.754 43.4408C167.723 43.462 167.435 43.5702 167.393 43.5578C166.473 43.2865 164.48 42.4377 163.28 42.3935C162.667 42.4395 162.219 42.5341 161.678 42.6486C161.024 42.8434 160.505 43.083 159.919 43.3002L155.753 60.2451C159.263 63.6571 165.807 65.1076 168.231 74.0792C174.529 97.3863 140.376 111.659 129.878 83.2971L122.251 82.8708C122.143 92.0826 123.127 98.6197 118.386 99.8338C115.305 100.623 112.998 98.4841 112.453 95.9146C111.461 91.2431 114.553 90.5766 116.479 88.7552C114.334 87.5996 109.888 88.1068 106.609 86.2486C104.759 85.1994 101.597 81.2921 105.574 78.7494C109.029 76.5415 106.988 80.3655 109.901 75.577C111.028 73.7232 111.042 71.9142 112.486 69.7188C114.472 66.6995 114.139 68.7219 115.644 65.3976C116.524 63.453 116.808 61.2457 117.262 59.512C117.365 59.1181 117.398 58.8735 118.253 58.7429L133.806 56.3676C132.843 53.3601 134.205 55.0098 130.906 52.4883C125.769 48.5622 116.854 46.8242 108.445 41.2193C105.058 38.9622 103.605 37.2721 99.8958 35.9964L108.526 70.0822L100.946 70.5147C99.2497 82.5578 103.458 98.3851 95.8777 98.1194C87.7246 97.8337 93.2517 77.3904 90.7338 71.2745C88.6844 76.4824 90.5413 89.6986 88.7335 97.7093C78.167 99.4436 80.9998 90.4671 80.9383 70.5701C71.2893 70.6149 71.5794 72.7605 75.9759 57.4236C77.5476 51.9394 80.8488 41.966 80.445 36.5502C79.4926 40.1327 76.6667 52.4235 74.393 54.5455C69.935 59.3104 71.2837 54.057 67.465 58.3732C58.9504 67.9994 63.6358 76.9267 65.1062 82.4321L62.7617 85.3139C59.33 92.1859 66.0927 97.4398 56.5916 98.1492C53.9184 93.25 55.4728 91.0601 54.1061 85.8099C53.3767 93.6408 55.7362 98.1212 47.9242 97.6384C46.1437 93.6532 46.7873 94.2164 46.4991 89.7683C45.9263 80.9511 47.0035 87.5424 43.4389 82.4321C44.8851 77.5017 47.001 71.885 45.3001 66.5545C42.1815 56.7777 41.3975 58.9065 34.2577 56.3937C32.1176 49.8796 33.1171 41.3045 32.722 33.8962C27.6391 40.9541 34.0384 85.79 29.7749 97.41C25.4188 98.0404 25.5437 97.8736 22.166 96.2438C21.141 90.0104 21.6567 83.4894 21.6995 77.1632L19.9178 59.0073C19.7004 70.1818 21.8896 88.5623 17.9411 97.1169C13.6608 98.1399 13.9776 98.0397 10.436 96.4013C7.25029 82.3786 12.7768 43.2379 8.42006 33.8433C5.87053 47.7153 12.2847 57.1567 1.62379 58.5531C0.0999125 52.2356 -0.690915 35.1052 0.785131 28.4088C3.12593 17.7888 12.7401 19.1535 24.1521 19.4933C37.8522 19.9009 40.2638 22.2525 40.5185 36.0543C40.9384 58.8505 40.7459 45.3612 48.6666 60.0042C50.534 60.0553 56.1238 60.2712 57.6793 59.957C61.4807 59.1897 59.8742 59.2133 62.5038 55.5094C67.2917 48.7663 67.0985 55.3844 70.2836 44.3481C73.9749 31.5545 73.2183 23.6004 88.3688 24.1741C103.916 24.7635 101.333 28.3024 113.977 36.7637C120.657 41.2329 115.295 41.2074 125.099 44.5616C141.108 50.0389 138.411 55.1535 148.661 37.1177C136.074 26.8431 152.837 16.3744 157.013 26.3354C159.889 33.1967 152.88 34.9653 156.221 40.6928C158.235 44.1453 162.852 36.3859 167.754 43.4408V43.4408Z" fill="#C31A2D"/>
<path fill-rule="evenodd" clip-rule="evenodd" d="M88.6297 5.28711C77.4451 9.22868 82.7336 23.1648 92.9498 20.6321C103.263 18.0751 98.9391 1.65419 88.6297 5.28711Z" fill="#C31A2D"/>
<path fill-rule="evenodd" clip-rule="evenodd" d="M47.6729 51.8715C49.2782 59.558 62.9527 58.8063 60.9902 48.935C59.2937 40.4034 45.6061 41.9759 47.6729 51.8715Z" fill="#C31A2D"/>
<path fill-rule="evenodd" clip-rule="evenodd" d="M121.956 76.9498L118.875 82.4272L122.929 81.6145C122.38 78.4184 122.237 79.4079 124.13 79.3463L129.095 79.6979C130.099 76.5279 128.193 79.6562 130.039 76.5142L128.454 73.7979L128.446 77.3294L121.956 76.9498V76.9498Z" fill="#C31A2D"/>
<path d="M149.863 83.1583C151.543 83.1583 152.905 81.794 152.905 80.111C152.905 78.428 151.543 77.0637 149.863 77.0637C148.182 77.0637 146.82 78.428 146.82 80.111C146.82 81.794 148.182 83.1583 149.863 83.1583Z" fill="#C31A2D"/>
<path fill-rule="evenodd" clip-rule="evenodd" d="M18.3993 0.522245C7.2146 4.46382 12.5031 18.3999 22.7193 15.8672C33.033 13.3103 28.7086 -3.11067 18.3993 0.522245Z" fill="#C31A2D"/>
</svg>
