<svg width="100" height="100" viewBox="0 0 100 100" fill="none" xmlns="http://www.w3.org/2000/svg">
<path fill-rule="evenodd" clip-rule="evenodd" d="M43.0889 5.24766C69.8401 0.664475 90.861 20.3198 94.6704 42.3005C99.3543 69.3262 80.21 90.3036 58.55 94.5272C31.2168 99.8574 9.4427 80.125 5.48973 58.308C0.394895 30.1911 20.1513 9.17765 43.0889 5.24766V5.24766ZM39.3678 1.3742C15.3971 7.00574 -5.68623 29.9277 1.38779 61.3291C6.65922 84.7304 30.6708 105.26 60.6902 98.7928C84.7732 93.6045 105.201 69.4104 98.8179 39.1915C93.8444 15.6428 69.4521 -5.69305 39.3678 1.3742V1.3742Z" fill="#DE1269"/>
<path fill-rule="evenodd" clip-rule="evenodd" d="M25.0628 84.3594L74.0193 84.6246L74.2265 72.4918L24.9727 72.5532L25.0628 84.3594Z" fill="#DE1269"/>
<path fill-rule="evenodd" clip-rule="evenodd" d="M44.5198 33.7434C44.5198 33.7704 42.0289 34.9084 41.7844 35.0155C41.5129 35.137 41.2366 35.235 40.9591 35.3625L39.27 36.1865C39.0418 36.2972 38.6585 36.4265 38.4141 36.637C41.2762 39.0441 45.0832 43.5569 49.3317 46.9486L59.7359 36.1306C58.036 35.617 55.4357 34.3051 53.9418 33.6622L60.921 8.90696L38.6219 8.52924L44.5198 33.7434V33.7434Z" fill="#DE1269"/>
<path fill-rule="evenodd" clip-rule="evenodd" d="M74.371 63.5359L74.5013 52.3126H24.9688L25.0054 63.5359H74.371Z" fill="#DE1269"/>
</svg>
