<svg width="117" height="100" viewBox="0 0 117 100" fill="none" xmlns="http://www.w3.org/2000/svg">
<path fill-rule="evenodd" clip-rule="evenodd" d="M55.1876 80.9658C57.2579 81.8152 56.9201 79.1461 57.3337 83.107C57.7804 87.3836 56.3426 85.5433 55.1876 86.0013C54.0945 84.4262 54.2434 88.0982 54.1446 83.9064C54.0226 78.7486 54.2322 82.3082 55.1876 80.9658ZM48.8301 80.9022C51.6895 82.5965 51.7802 84.38 48.8301 86.0606C47.2434 84.3894 47.4975 88.246 47.3567 83.9145C47.1784 78.4416 47.3636 82.4124 48.8301 80.9022ZM75.2724 69.2661C83.6759 69.409 81.7475 68.7525 81.4297 78.6625L74.9852 78.7024C74.785 74.0626 74.8945 73.6133 75.2724 69.2661ZM68.1359 69.238L68.9049 78.7062L62.8553 78.66C62.4742 67.4844 62.202 69.3635 68.1359 69.238ZM57.3724 75.589C57.1778 79.1255 57.8023 77.8762 54.0495 77.9142C54.067 74.3284 54.2153 73.0366 54.2866 72.8981C55.1082 72.7496 57.4926 72.0475 57.3724 75.589ZM50.1829 78.0746L47.911 77.7707C47.8753 77.7095 45.7305 76.9956 47.0926 73.8541C48.2764 71.1258 48.3058 72.7227 49.89 72.4107C50.7071 73.5958 51.0444 72.1729 51.1633 75.5865C51.3616 81.2916 51.4636 75.7631 50.1829 78.0746V78.0746ZM56.6229 64.4597C57.4012 70.0474 57.1604 69.4365 54.0495 69.4427C53.8993 64.255 53.4858 64.6144 56.6229 64.4597ZM50.1829 69.5994L47.911 69.3036C47.876 69.2436 45.7261 68.5472 47.0926 65.4001C48.2783 62.6711 48.302 64.2687 49.89 63.9567C50.7002 65.1318 51.0444 63.7158 51.1633 67.1275C51.361 72.7864 51.4655 67.3041 50.1829 69.5994ZM75.7516 54.1416L81.4566 54.4892L81.4478 63.3788L75.6172 63.4425L75.7516 54.1416ZM63.4346 54.0548L68.8373 54.2963L68.766 62.1606C68.4726 63.6927 69.4812 63.8387 63.0198 63.5535L63.4346 54.0548ZM56.6811 56.0031C57.5558 61.3026 56.8713 61.126 54.0495 60.9887C54.0745 55.9257 53.569 55.9588 56.6811 56.0031ZM50.1829 61.1447L47.911 60.8489C47.876 60.789 45.7261 60.0925 47.0926 56.9454C48.2783 54.2171 48.302 55.814 49.89 55.502C53.873 61.277 50.2148 61.0873 50.1829 61.1447ZM57.3437 50.1314C56.9395 54.3413 57.4069 51.3964 55.1876 52.3381C53.9563 50.5782 53.9963 54.9316 54.1459 49.3295C54.2479 45.5028 54.3686 48.4502 55.1876 47.2907C56.2681 47.7038 57.7366 46.0314 57.3437 50.1314ZM50.0514 52.4086L48.0662 52.1889C47.5244 51.3957 44.3178 50.6063 48.8301 46.53C51.3122 48.1987 50.3311 45.8011 51.1 49.2409C52.0023 53.2779 50.0533 52.4055 50.0514 52.4086V52.4086ZM75.4357 38.3274L81.4422 38.6825L81.0905 47.6196L75.5965 47.6464L75.4357 38.3274ZM62.8947 38.5109L68.918 38.4622L68.4857 47.7051L63.0311 47.5322L62.8947 38.5109ZM75.4357 22.5408L81.4353 22.884L81.13 31.8117L75.5784 31.836L75.4357 22.5408ZM62.8947 22.718L68.9087 22.6706L68.5333 31.9047L63.0167 31.7137L62.8947 22.718V22.718ZM75.4407 6.53695L79.5601 6.38281L81.3803 6.834L81.3865 15.5695L75.4426 15.6113L75.4407 6.53695V6.53695ZM62.804 9.97611C63.3958 4.46074 62.2546 8.17884 64.7254 6.35473L68.8392 6.5769L68.8336 15.7686L62.9084 15.3617C62.9084 14.1604 62.7057 10.891 62.804 9.97611V9.97611ZM58.0983 43.6101L44.777 43.9745L44.7783 78.0515C35.3081 73.3661 36.8266 69.7416 23.4039 69.741C16.2343 69.741 15.9196 68.9279 10.7759 72.5156C7.65695 74.6916 4.51542 76.3847 1.95703 78.7598L44.7795 78.6749L44.9077 94.0117L86.417 93.7134L86.4182 0H58.1014L58.0983 43.6101V43.6101Z" fill="#DEA53A"/>
<path fill-rule="evenodd" clip-rule="evenodd" d="M0 97.7853C1.80507 101.107 1.38585 99.7193 12.8038 99.6762L110.384 99.7798C115.48 99.7679 115.152 100.703 117 97.7853C114.879 94.4366 114.631 95.8545 103.931 95.895L2.40323 96.0411C-0.618783 96.9453 1.9421 96.1185 0 97.7853Z" fill="#DEA53A"/>
<path fill-rule="evenodd" clip-rule="evenodd" d="M29.2621 85.2238L36.9217 85.1757L36.8522 90.1619L29.2127 90.1432L29.2621 85.2238ZM9.01092 85.4884L16.2568 85.4566L15.882 90.1813L8.81441 90.0196L9.01092 85.4884V85.4884ZM5.57031 94.2457L18.9122 94.363L19.2557 85.1239L20.2274 85.1133L25.9154 85.1021L25.9955 94.0485L41.2845 94.3886L41.5754 80.0373L5.72294 79.9849L5.57031 94.2457Z" fill="#DEA53A"/>
<path fill-rule="evenodd" clip-rule="evenodd" d="M104.534 86.6478C104.596 86.553 104.635 86.4806 104.637 86.4369L104.782 86.4457C105.249 86.1074 105.823 85.9084 106.444 85.9084C108.008 85.9084 109.276 87.1727 109.276 88.7328C109.276 90.2929 108.008 91.5573 106.444 91.5573C104.88 91.5573 103.612 90.2929 103.612 88.7328C103.612 87.9072 103.968 87.1639 104.534 86.6478V86.6478ZM94.6259 93.7065L94.5139 85.8441L101.834 85.6188L101.745 93.6185L110.723 93.7065L110.685 81.5431H91.2109L91.2323 93.7065H94.6259V93.7065Z" fill="#DEA53A"/>
<path fill-rule="evenodd" clip-rule="evenodd" d="M90.2617 78.7074C92.5342 79.9318 102.24 79.8339 106.126 79.7727C106.544 79.7665 108.911 79.6722 109.196 79.5942C112.22 78.7674 109.84 79.8869 111.319 78.2145L101.84 69.4509C98.7384 71.0566 98.8197 71.2868 96.0192 74.0277C94.0465 75.9591 92.5085 76.9607 90.2617 78.7074V78.7074Z" fill="#DEA53A"/>
<path fill-rule="evenodd" clip-rule="evenodd" d="M48.0674 52.1889L48.0386 47.5435C50.6527 49.0431 49.985 45.4436 50.0526 52.4086C50.0545 52.4055 52.0035 53.2779 51.1012 49.2409C50.3323 45.8011 51.3134 48.1987 48.8313 46.53C44.319 50.6063 47.5256 51.3958 48.0674 52.1889V52.1889Z" fill="#DEA53A"/>
<path fill-rule="evenodd" clip-rule="evenodd" d="M47.9092 60.8489V56.312H50.1779L50.1811 61.1447C50.213 61.0873 53.8713 61.277 49.8882 55.502C48.3002 55.814 48.2765 54.2171 47.0908 56.9454C45.7243 60.0925 47.8742 60.789 47.9092 60.8489V60.8489Z" fill="#DEA53A"/>
<path fill-rule="evenodd" clip-rule="evenodd" d="M47.9153 77.7707V73.2214H50.1921L50.1871 78.0747C51.4679 75.7632 51.3659 81.2917 51.1676 75.5866C51.0487 72.173 50.7114 73.5958 49.8943 72.4108C48.3101 72.7228 48.2807 71.1258 47.0969 73.8542C45.7348 76.9957 47.8796 77.7096 47.9153 77.7707V77.7707Z" fill="#DEA53A"/>
<path fill-rule="evenodd" clip-rule="evenodd" d="M47.9092 69.3035V64.7667H50.1811V69.5993C51.4637 67.3041 51.3592 72.7864 51.1615 67.1275C51.0426 63.7158 50.6985 65.1318 49.8882 63.9567C48.3002 64.2687 48.2765 62.6711 47.0908 65.4001C45.7243 68.5472 47.8742 69.2436 47.9092 69.3035V69.3035Z" fill="#DEA53A"/>
</svg>
