<svg width="156" height="85" viewBox="0 0 156 85" fill="none" xmlns="http://www.w3.org/2000/svg">
<path fill-rule="evenodd" clip-rule="evenodd" d="M138.339 80.494L136.829 79.1527L125.529 80.4603L127.381 71.8799C86.2541 76.5858 86.2316 34.988 61.1872 14.5932C51.5567 6.7501 41.8065 7.08544 27.6434 7.65297C26.0063 4.67148 24.6162 2.68615 22.1922 0L13.4922 23.7846C20.7768 23.5299 31.5595 24.0764 36.9445 21.4078C38.5394 20.6172 36.3153 18.4256 44.2003 20.7105C58.6703 24.9035 66.9129 40.0025 74.1152 53.9629C85.033 75.1252 107.24 93.8988 138.339 80.494V80.494Z" fill="#FC6925"/>
<path fill-rule="evenodd" clip-rule="evenodd" d="M141.776 52.712L140.636 55.5939C138.624 55.8191 139.139 56.259 139.139 54.2231L137.412 51.699C136.305 52.9485 136.779 52.0933 135.808 54.113L130.468 75.9789L153.337 72.3499C156.343 67.7023 148.327 73.6267 152.724 60.3264C163.227 28.5577 135.697 -1.47395 105.659 8.63296C96.7747 11.6215 86.03 20.5498 83.8242 28.7422L94.0931 25.7194L93.618 36.3201C100.242 32.0977 111.355 18.5848 125.85 21.4885C138.926 24.108 142.289 37.3893 141.776 52.712V52.712Z" fill="#FC6925"/>
<path fill-rule="evenodd" clip-rule="evenodd" d="M66.5738 81.7729L70.3998 57.0861L45.7636 62.8814L49.7473 68.3477C33.3685 77.3378 12.4443 68.7399 12.854 44.6782C13.0172 35.0518 16.1303 32.5684 18.8597 26.5296L7.99258 26.9997L10.4081 18.5919C-5.45126 30.9268 -1.46265 61.4278 10.8509 74.2623C17.0037 80.675 25.72 84.6912 38.1032 84.6498C44.5481 84.6288 48.1848 84.0009 53.4248 81.3323C62.5985 76.6608 58.8739 78.6623 66.5738 81.7729V81.7729Z" fill="#FC6925"/>
<path fill-rule="evenodd" clip-rule="evenodd" d="M138.338 80.494L140.97 78.1895L136.828 79.1527L138.338 80.494Z" fill="#FC6925"/>
<path fill-rule="evenodd" clip-rule="evenodd" d="M139.137 54.2232C139.137 56.259 138.623 55.8192 140.634 55.594L141.774 52.7121C139.887 55.0145 141.31 53.2453 139.137 54.2232V54.2232Z" fill="#FC6925"/>
</svg>
