<svg width="136" height="70" viewBox="0 0 136 70" fill="none" xmlns="http://www.w3.org/2000/svg">
<path fill-rule="evenodd" clip-rule="evenodd" d="M59.3294 2.15576C81.1721 -1.63794 100.855 14.5829 100.012 36.7252C99.5633 48.5039 94.0267 56.0004 87.43 61.7697C78.5978 69.495 55.222 68.7996 55.1133 69.0403C56.1348 70.1583 82.8787 72.3508 105.124 61.3471C112.045 57.9237 134.606 41.4062 135.002 35.6898C132.106 26.6029 115.2 14.6013 104.743 9.33484C93.3648 3.60476 67.1039 -3.38175 58.7209 1.83481L59.3294 2.15576Z" fill="#417C46"/>
<path fill-rule="evenodd" clip-rule="evenodd" d="M53.2864 69.0652L58.0629 69.3986L52.1222 65.9936C40.03 60.6903 31.9156 48.3315 32.5372 33.8016C33.3091 15.7466 44.898 7.03767 59.3245 2.15572L58.7159 1.83477C37.9275 -1.18152 3.3961 24.5649 0 35.6898C3.97846 43.6213 14.0954 51.7674 22.0868 56.8354C33.3412 63.9723 39.371 65.0968 53.2864 69.0652V69.0652Z" fill="#417C46"/>
<path fill-rule="evenodd" clip-rule="evenodd" d="M44.7702 57.0233L52.1448 54.0878L49.4885 37.2453L36.3789 36.7175C37.0427 46.6407 41.0491 51.7432 44.7702 57.0233V57.0233Z" fill="#417C46"/>
<path fill-rule="evenodd" clip-rule="evenodd" d="M80.9844 53.6979L87.4331 56.82C92.1163 51.4317 95.4013 46.7227 96.1215 36.7389H83.2128L80.9844 53.6979V53.6979Z" fill="#417C46"/>
<path fill-rule="evenodd" clip-rule="evenodd" d="M36.4922 32.5404L40.1878 33.0028L46.2336 32.9256L49.8436 32.5107L52.1791 16.3095L46.4577 13.8953C41.2158 16.5972 37.5868 24.197 36.4922 32.5404V32.5404Z" fill="#417C46"/>
<path fill-rule="evenodd" clip-rule="evenodd" d="M80.8203 17.573L83.4588 32.491L96.0466 32.982C94.8557 22.9233 92.5079 20.4336 87.4919 14.4771C84.5688 15.1011 82.6102 15.7466 80.8203 17.573V17.573Z" fill="#417C46"/>
<path fill-rule="evenodd" clip-rule="evenodd" d="M68.1523 49.7812C69.8875 52.3469 67.4999 50.8938 72.3126 51.9012C73.3163 52.1116 75.8139 52.2637 76.9554 52.3178L79.7299 36.8702L68.1898 36.7086L68.1523 49.7812V49.7812Z" fill="#417C46"/>
<path fill-rule="evenodd" clip-rule="evenodd" d="M56.2955 52.4254L64.0367 51.4412L64.3938 47.7723L64.3356 40.7228L64.2993 36.7526L53.6445 36.7365C53.742 41.77 54.0225 48.1182 56.2955 52.4254V52.4254Z" fill="#417C46"/>
<path fill-rule="evenodd" clip-rule="evenodd" d="M68.5552 19.4143L68.0977 32.9249L79.2986 32.8506L77.3803 18.4746L68.5552 19.4143Z" fill="#417C46"/>
<path fill-rule="evenodd" clip-rule="evenodd" d="M53.6641 32.906H64.3545L64.1429 19.2046L56.3364 18.1876C54.3124 22.7266 53.9172 27.9176 53.6641 32.906V32.906Z" fill="#417C46"/>
<path fill-rule="evenodd" clip-rule="evenodd" d="M68.1967 64.8074C71.8602 63.2728 74.3834 60.2083 75.1696 56.1252L68.1641 55.0905L68.1967 64.8074Z" fill="#417C46"/>
<path fill-rule="evenodd" clip-rule="evenodd" d="M68.2148 15.4477L75.3629 14.5782C74.0574 10.1348 72.0583 7.69923 68.1523 6.02734L68.2148 15.4477Z" fill="#417C46"/>
<path fill-rule="evenodd" clip-rule="evenodd" d="M58.6962 56.0206C58.2707 58.3397 57.2795 53.4851 58.5369 58.5489C59.2987 61.6175 61.5705 63.5307 64.1406 64.6659L64.3843 55.3104L58.6962 56.0206Z" fill="#417C46"/>
<path fill-rule="evenodd" clip-rule="evenodd" d="M57.7695 13.7443L64.1184 15.579L64.4227 6.10754C61.0135 8.01123 59.604 9.94582 57.7695 13.7443V13.7443Z" fill="#417C46"/>
<path fill-rule="evenodd" clip-rule="evenodd" d="M49.5039 59.5653C51.645 62.2493 53.5726 63.1248 56.939 63.5486L53.7046 57.6901L49.5039 59.5653Z" fill="#417C46"/>
<path fill-rule="evenodd" clip-rule="evenodd" d="M49.4062 11.3336L53.2593 12.8724C53.453 12.6245 53.7353 12.0664 53.8101 12.2305L56.6934 7.27185C52.5563 8.33573 51.6151 8.64835 49.4062 11.3336V11.3336Z" fill="#417C46"/>
<path fill-rule="evenodd" clip-rule="evenodd" d="M79.1974 13.0513L83.5693 11.6962C80.8845 9.02758 81.1103 8.79875 76.3516 7.46326L79.1974 13.0513Z" fill="#417C46"/>
<path fill-rule="evenodd" clip-rule="evenodd" d="M76.4961 63.4439L83.7452 60.307L80.4567 57.759C78.0233 59.11 77.353 60.8169 76.4961 63.4439Z" fill="#417C46"/>
</svg>
