<svg width="210" height="100" viewBox="0 0 210 100" fill="none" xmlns="http://www.w3.org/2000/svg">
<path fill-rule="evenodd" clip-rule="evenodd" d="M140.467 45.1102C140.991 52.2051 134.346 50.8723 135.852 45.7703C136.829 45.2818 136.125 45.3262 138.355 44.9203C139.678 44.6795 139.087 44.9292 140.467 45.1102ZM36.6172 57.2213C37.7198 69.2174 49.7153 64.8275 55.215 73.2019C52.641 82.801 42.4794 75.0689 50.4687 100C52.9615 94.6528 52.62 91.8493 56.423 87.8159C60.113 83.9026 60.9439 83.6593 64.3889 78.5573C84.6853 80.4504 114.659 94.3631 139.369 72.9217C149.417 64.2018 149.417 61.2611 153.43 57.2442L147.543 55.4082C151.146 53.1866 152.808 51.6028 154.39 46.882C141.263 39.8291 136.009 37.2797 117.917 36.5263C110.933 36.2353 104.126 30.2058 79.4376 40.4104C84.2086 42.0907 88.197 42.2826 91.362 45.0181C91.1734 45.2201 90.8967 45.4711 90.7653 45.5924L88.9758 47.2219C88.3144 47.7848 87.8485 48.1342 87.1616 48.664L62.0427 69.575C52.4893 55.1833 52.5642 63.1663 36.6172 57.2213Z" fill="#0B97DB"/>
<path fill-rule="evenodd" clip-rule="evenodd" d="M87.8402 0.809987C82.8203 2.8232 79.2224 5.91068 72.7565 6.21371C64.7437 6.5898 62.8494 3.3651 57.7401 0.898928C51.8715 2.80097 51.1193 6.38969 42.7053 6.20418C34.0869 6.01423 32.9386 2.38676 26.5654 0.819518C22.8088 2.96042 20.1262 5.73407 14.7089 6.41954C7.34611 7.35087 5.1961 4.3968 0.202913 4.64901C-1.08442 11.8563 3.92145 14.7811 10.4629 14.9558C18.4548 15.1699 21.6115 10.7001 26.5571 8.78534C47.3696 23.9947 51.8436 5.54539 60.431 9.93647C68.6038 14.116 72.2391 18.2072 84.1826 11.1549C89.8442 7.81209 90.397 10.1696 95.6251 12.4801C108.641 18.232 116.424 10.3119 121.165 8.25488C126.071 10.4898 129.167 14.036 136.191 13.8721C144.013 13.6891 148.871 8.51153 152.316 8.5344C155.952 8.55854 160.071 13.5112 167.416 13.8771C176.259 14.318 177.288 10.3729 183.514 8.36605C188.365 10.8418 191.587 14.623 198.571 14.2704C209.655 13.7113 212.481 5.49076 207.899 4.61661C203.015 3.68465 201.495 7.04848 193.943 5.50601C187.616 4.21384 185.494 -0.736294 181.115 0.583826C176.105 2.09517 174.574 5.50918 166.309 5.51109C159.475 5.51236 156.718 2.16505 152.34 0C146.83 1.80675 144.696 6.04409 136.238 5.38594C129.604 4.87009 123.86 -0.627659 120.048 0.846834C114.361 3.04809 113.636 7.26892 104.006 7.1768C96.8725 7.10883 92.6404 3.20374 87.8402 0.809987V0.809987Z" fill="#0B97DB"/>
<path fill-rule="evenodd" clip-rule="evenodd" d="M163.964 25.8814C167.048 26.7054 166.404 27.2651 169.538 25.7061C173.924 18.0884 161.263 14.6674 163.964 25.8814Z" fill="#0B97DB"/>
<path fill-rule="evenodd" clip-rule="evenodd" d="M155.032 43.3752C156.052 44.1198 157.316 45.8681 160.03 44.1287C162.305 42.6713 162.087 41.0653 160.972 38.563C155.524 35.215 153.401 38.535 155.032 43.3752Z" fill="#0B97DB"/>
<path fill-rule="evenodd" clip-rule="evenodd" d="M150.801 23.0138L151.043 28.7288L156.06 28.8197C158.129 23.4147 155.364 21.1137 150.801 23.0138Z" fill="#0B97DB"/>
</svg>
