<svg width="120" height="100" viewBox="0 0 120 100" fill="none" xmlns="http://www.w3.org/2000/svg">
<path fill-rule="evenodd" clip-rule="evenodd" d="M77.2463 71.274C77.9297 84.4361 78.6026 88.1176 73.1563 88.8083C74.383 85.2949 75.4125 85.1934 75.6618 80.7202C75.8865 76.701 75.2318 74.0849 77.2463 71.274ZM92.0652 89.6955C92.514 85.5482 91.7244 77.8284 95.6402 75.9059C96.2614 83.4072 96.7014 86.6042 92.0652 89.6955ZM88.9901 89.2911L79.7524 88.8903C80.0041 82.1239 79.54 68.8851 82.1717 62.7185C86.5855 62.0898 88.5443 61.9641 90.5353 73.0088C91.5243 78.4931 90.7547 84.4467 88.9901 89.2911ZM33.4925 69.8402L30.3083 60.4937C31.6012 58.7223 32.7909 57.2023 34.4863 55.1298L42.4914 60.7918C37.1836 64.3258 38.3387 66.7465 33.4925 69.8402V69.8402ZM9.65007 42.7085C7.27715 44.8046 5.46505 44.9522 3.93512 48.7459C1.36861 55.1103 3.80079 64.2579 11.2604 63.0714C16.3553 62.2616 14.6177 59.6466 21.3487 60.8667C25.3448 68.3745 27.9242 84.413 22.1899 91.0496L0 91.4852L0.0833256 99.9528L119.566 100L120 91.4285L96.4966 90.1039C96.6568 88.7321 100.238 82.4138 98.822 70.5816C98.3345 66.5086 94.6364 63.5454 97.3907 56.9378C99.0526 52.9517 97.8805 58.5481 98.6578 54.7798C93.7606 47.697 98.2096 51.5586 90.4701 47.1226L82.0543 39.609C78.683 36.6251 73.6849 19.9266 74.6963 14.4836C71.4833 15.895 67.5142 16.2244 62.9484 16.3206C65.2099 20.4915 69.4136 22.6602 72.1984 24.3289C72.9762 30.178 72.1069 35.6304 73.5611 41.1507C76.9847 54.144 74.1384 78.6336 70.2778 88.5356C50.8984 90.0024 45.8898 94.7872 38.473 86.4489C28.1254 74.8151 41.8039 65.5754 46.4078 60.6141C55.4307 59.6012 62.397 63.827 65.6721 54.8293C69.6278 43.9623 62.0016 40.7411 54.8553 38.9732C56.3881 37.9544 58.2008 35.072 59.6081 32.7646C65.0439 23.8526 61.6572 18.7526 48.6264 20.5022C54.0821 -8.35432 24.3194 -3.32929 18.6877 14.5621C15.6578 24.1873 13.0484 18.0141 6.14029 24.9511C4.22318 26.876 1.56455 31.0121 2.04324 35.2509C2.56358 39.8521 5.57886 40.9135 9.65007 42.7085V42.7085Z" fill="#4F9D38"/>
</svg>
