<svg width="119" height="100" viewBox="0 0 119 100" fill="none" xmlns="http://www.w3.org/2000/svg">
<path fill-rule="evenodd" clip-rule="evenodd" d="M108.524 9.84231L107.924 9.98264C104.833 10.5462 108.114 8.45789 104.924 11.2057C105.754 4.53698 107.315 0.276931 100.003 0.106506C96.1872 6.28044 99.5542 8.0432 103.681 12.4243L100.7 16.0049C98.5889 12.7424 97.8118 9.14983 92.5089 9.5259C91.1459 16.9508 92.749 17.0678 97.1992 20.1201L95.0608 25.0891C87.7339 21.2091 86.1895 17.0803 73.5034 28.2852C53.5762 45.8849 43.5376 31.0443 30.5545 20.1826C23.5581 14.329 14.6527 13.3945 3.65833 13.686C7.18013 21.5358 7.34341 9.5668 14.449 39.0941C15.8228 44.8033 17.0533 48.0874 20.3925 51.5022C25.6902 56.92 26.4184 55.6531 29.5539 57.7675L31.5039 59.5638C23.5576 67.9879 10.8806 65.0964 3.57812 69.2514C17.4992 76.5859 19.2439 79.3814 38.3172 83.7596L5.80577 89.8268L7.09311 99.3268C25.3347 96.3631 76.4603 80.9675 91.3138 82.5888L93.0619 89.4371C100.332 89.5513 110.203 86.049 117.877 84.9344C116.944 78.0038 115.218 64.4641 112.507 59.2059C105.147 59.4661 95.7474 62.9098 87.8335 64.1392L89.321 72.0281C85.8044 74.4982 70.2182 78.1578 65.4517 78.4401C92.2558 66.8785 72.4146 37.7636 92.2768 32.4782C93.3707 34.65 92.9111 35.2072 93.9402 37.6659C95.3663 41.0738 95.0659 40.1791 97.2083 41.609C96.182 38.1005 94.8179 36.8945 94.6797 32.6264L99.8933 31.0063C97.8539 28.3005 97.2521 28.7686 96.322 25.8026L98.8125 22.6248C102.855 25.1368 103.765 27.5205 109.917 25.1834C111.079 18.5499 105.601 19.9553 100.107 21.1568C101.293 18.4329 103.756 15.8515 105.764 14.3603C111.171 18.0954 111.862 17.5455 117.577 14.6659C114.23 7.64725 110.181 13.223 108.524 9.84231V9.84231Z" fill="#00689D"/>
<path fill-rule="evenodd" clip-rule="evenodd" d="M86.918 59.5639L87.4789 63.4166C91.6048 63.0485 96.1255 61.8317 100.263 61.0034C103.617 60.3319 109.863 59.924 112.447 57.6397L111.881 54.4545C108.595 54.0631 89.5 57.8954 86.918 59.5639Z" fill="#00689D"/>
<path fill-rule="evenodd" clip-rule="evenodd" d="M93.5 92.2729C95.0291 96.9267 92.6951 95.628 107.146 92.6314C109.557 92.1315 112.061 91.673 114.422 91.1918C118.949 90.2693 119.39 91.2498 118.787 87.4624C117.65 85.6053 114.38 86.3694 112.082 86.871L96.0377 90.2608C93.0512 91.5969 95.3135 89.5722 93.5 92.2729V92.2729Z" fill="#00689D"/>
<path fill-rule="evenodd" clip-rule="evenodd" d="M107.93 9.98262L108.529 9.84229C116.675 8.57319 118.277 9.20094 118.913 0.237717C109.777 -1.31258 110.594 5.04086 107.93 9.98262Z" fill="#00689D"/>
<path fill-rule="evenodd" clip-rule="evenodd" d="M5.88675 99.9999C5.63247 96.4193 5.19104 92.9483 3.65 90.2005C0.69592 90.7459 -0.577192 91.1475 0.245378 95.7541C0.872829 99.2699 1.9656 99.7727 5.88675 99.9999Z" fill="#00689D"/>
</svg>
