<svg width="95" height="114" viewBox="0 0 95 114" fill="none" xmlns="http://www.w3.org/2000/svg">
<path fill-rule="evenodd" clip-rule="evenodd" d="M18.3238 73.6573C19.026 70.1794 20.2393 69.3154 22.2104 67.2261C14.1921 62.4367 14.0294 60.6392 8.18994 60.5949C6.62085 64.3488 0 87.6363 0 91.4902C3.53394 92.2092 6.10478 93.4947 9.20054 93.6067C13.847 93.7745 7.88473 92.2915 13.9521 93.7453L25.3651 97.1689C27.2356 98.1543 24.9054 97.1638 27.5743 98.2562C41.0781 103.782 28.6704 101.552 37.1237 109.029C45.546 116.479 47.2829 112.409 49.5049 111.803C58.3704 109.383 57.9038 111.91 52.8387 104.609C60.0263 107.877 62.057 109.873 66.9814 102.87C65.734 98.924 65.6827 99.9335 63.2202 97.2923C66.5243 99.5576 66.5946 100.793 71.6868 100.412C76.5581 94.1283 72.8715 89.287 67.172 85.459C61.6979 81.7823 57.1465 79.1025 51.7091 75.1884C46.0355 71.1041 42.5681 67.3521 33.9634 71.5763C27.9011 74.5523 23.9195 79.7069 18.3238 73.6573V73.6573Z" fill="#2B5F85"/>
<path fill-rule="evenodd" clip-rule="evenodd" d="M63.2096 20.1962C52.6699 23.6957 70.3402 36.3353 49.8724 52.0903C37.6059 61.5323 22.2683 55.529 15.2169 46.2806C6.32793 34.6226 11.0111 18.2968 20.1591 11.6681C38.2353 -1.43043 49.1885 14.4163 55.147 11.2257C54.4859 1.14497 20.2192 -5.93816 8.70056 18.4468C4.23391 27.9022 5.36102 39.9272 10.4337 47.8389C13.1413 52.0624 15.7539 54.2157 19.6753 56.829C23.1624 59.1525 28.7479 59.9671 31.5195 61.8672C28.8594 64.2002 26.911 65.6597 24.4117 67.3863C21.164 69.6294 19.4765 69.7826 20.7714 73.8074C21.7769 74.3112 22.2702 75.0954 25.7649 74.2106C25.8067 74.2005 29.3786 72.5416 29.5059 72.4713C32.078 71.0421 33.6863 69.6092 36.3983 68.5674C43.8506 65.704 53.1056 74.6049 64.4907 81.7178C74.836 88.1807 71.4059 87.8402 75.7497 91.6586C78.9968 89.9231 81.7494 86.642 84.3069 85.4154C86.3819 84.4204 90.1907 84.9578 94.9992 83.6318C93.667 74.7834 85.5157 59.6399 81.2979 54.5404C70.8177 57.0208 74.2224 60.1823 71.4603 61.0317C64.8262 61.4766 55.9379 60.1424 50.3397 57.836C62.0015 48.3389 69.9058 37.9575 63.2096 20.1962V20.1962Z" fill="#2B5F85"/>
<path fill-rule="evenodd" clip-rule="evenodd" d="M53.0464 24.6704C46.5383 26.9451 49.8645 25.7432 49.5048 32.6763C48.7937 46.3894 31.8352 49.1364 24.8313 40.9469C16.5894 31.3098 24.2246 15.8979 37.1294 17.4442C44.1751 18.2885 42.8118 22.688 47.7775 17.9214C44.6329 11.2642 30.803 10.9092 23.1469 16.7954C17.5101 21.1298 13.8786 33.4415 19.6028 41.8912C32.1492 60.412 61.7473 45.9913 53.0464 24.6704Z" fill="#2B5F85"/>
<path fill-rule="evenodd" clip-rule="evenodd" d="M70.4803 7.16538L68.3128 3.40576C68.2001 3.21145 68.014 2.85131 67.8322 2.59434L64.9657 9.94775C62.6867 5.52166 65.8876 6.9065 62.3663 6.69447C60.991 13.408 58.077 13.8415 49.459 20.5715C33.4566 33.0687 42.7806 23.6608 31.4398 27.2591C29.7276 32.1155 30.7269 39.3987 37.7409 36.0454C44.187 32.9643 35.9964 30.9054 46.1847 25.9337C49.9055 24.1178 53.4407 21.9114 57.2729 19.8652C64.796 15.8486 61.5495 16.9328 69.982 16.4505C67.03 14.7194 68.6123 16.5416 67.4402 14.1194L72.5648 15.1144L71.9595 12.3769C71.9816 12.3295 72.1874 12.1333 72.2115 12.0871L72.5857 10.8085C72.5883 10.7756 72.4977 10.568 72.5262 10.4509C72.6953 10.5016 74.9235 11.1035 75.0311 11.1047L77.9433 10.4186C69.8236 5.36595 74.3929 9.44899 71.4535 0.906311C70.3821 2.26585 70.9603 0.286042 70.4987 3.11018C70.2505 4.63049 70.3986 5.62926 70.4803 7.16538V7.16538Z" fill="#2B5F85"/>
<path fill-rule="evenodd" clip-rule="evenodd" d="M30.8841 108.23C31.8472 107.114 32.9015 103.31 30.817 101.372C28.036 98.7867 26.2458 100.706 25.0826 102.497C20.5818 109.425 28.2455 111.29 30.8841 108.23V108.23Z" fill="#2B5F85"/>
<path fill-rule="evenodd" clip-rule="evenodd" d="M17.8203 99.431C17.8653 102.584 17.8362 106.669 22.0698 105.824C25.6576 105.108 25.0991 100.902 23.9093 97.6164C21.7595 97.0569 21.3549 95.586 17.8203 99.431Z" fill="#2B5F85"/>
<path fill-rule="evenodd" clip-rule="evenodd" d="M30.4062 111.674C32.651 113.318 35.0407 114.966 39.2357 113.316C38.581 110.965 39.2167 110.312 32.7276 106.841C31.1857 109.74 31.6005 108.203 30.4062 111.674Z" fill="#2B5F85"/>
</svg>
