<svg width="140" height="100" viewBox="0 0 140 100" fill="none" xmlns="http://www.w3.org/2000/svg">
<path fill-rule="evenodd" clip-rule="evenodd" d="M45.9127 99.8962L82.5936 100C86.8013 95.9 81.1262 97.7055 88.1979 95.2458C104.463 89.588 129.003 79.2754 128.556 56.0787H140C93.3335 56.0787 46.6665 56.0787 0 56.0787C0.149741 76.9628 21.6172 89.5793 39.3329 94.9119C45.3796 96.7318 42.7638 96.299 45.9127 99.8962V99.8962Z" fill="#DDA33A"/>
<path fill-rule="evenodd" clip-rule="evenodd" d="M56.866 40.8869C49.6803 27.6063 34.9788 31.7025 24.3503 42.3866C14.0364 39.189 8.08744 40.4773 6.89453 51.5741L121.347 52.3727C123.214 39.4417 111.045 34.77 97.5603 36.912C92.3401 32.1997 89.0251 26.49 75.5034 27.6807C66.0077 28.5175 59.5438 32.7438 56.866 40.8869V40.8869Z" fill="#DDA33A"/>
<path fill-rule="evenodd" clip-rule="evenodd" d="M89.0732 26.0954C92.5529 24.9991 91.7422 29.5112 91.7359 14.5689C91.7303 0.273919 92.9771 4.19381 89.0732 2.90865C88.0475 4.3364 88.4854 2.64223 87.9948 5.14627C87.847 5.90298 87.8013 7.33511 87.78 8.13685C87.6778 12.0367 87.015 23.2993 89.0732 26.0954V26.0954Z" fill="#DDA33A"/>
<path fill-rule="evenodd" clip-rule="evenodd" d="M68.9143 23.0016C71.9517 21.9816 71.6353 25.959 71.4831 13.5151C71.4292 9.05116 71.4762 4.55779 71.4762 0.0906738C66.7584 0.729815 67.4482 -3.30267 67.6005 10.3332C67.6243 12.4776 67.5366 14.6189 67.5403 16.7427C67.541 17.0091 67.5773 19.8046 67.5898 19.8828C68.2897 24.313 67.6117 21.3437 68.9143 23.0016Z" fill="#DDA33A"/>
<path fill-rule="evenodd" clip-rule="evenodd" d="M47.6894 27.1035C51.6272 26.6013 50.9562 28.5475 50.735 11.2888C50.6667 5.95487 51.5545 7.55086 48.7508 6.12311C46.239 7.26131 46.6343 3.13064 46.7233 15.622C46.7521 19.6339 46.0836 24.4099 47.6894 27.1035Z" fill="#DDA33A"/>
<path fill-rule="evenodd" clip-rule="evenodd" d="M112.979 32.0071L115.597 31.9458L116.414 14.4876C115.898 10.4201 117.238 12.1481 113.474 11.442C111.713 14.1368 112.359 17.6908 112.374 20.9184C112.394 24.8515 112.028 28.2573 112.979 32.0071V32.0071Z" fill="#DDA33A"/>
<path fill-rule="evenodd" clip-rule="evenodd" d="M29.625 30.1097L32.8391 30.0015C34.1272 27.0947 34.1272 14.7509 32.8372 11.8823L29.9764 11.7084L29.625 30.1097V30.1097Z" fill="#DDA33A"/>
<path fill-rule="evenodd" clip-rule="evenodd" d="M12.2911 31.5137C12.2911 36.7156 12.4358 34.6837 14.7972 35.4017C16.1574 33.9358 16.1806 35.8357 16.1806 31.5137V28.1328H12.2773L12.2911 31.5137Z" fill="#DDA33A"/>
</svg>
