<svg width="178" height="100" viewBox="0 0 178 100" fill="none" xmlns="http://www.w3.org/2000/svg">
<path fill-rule="evenodd" clip-rule="evenodd" d="M134.284 83.4164L126.08 44.2237C120.541 44.8376 116.064 57.5834 111.992 65.9612L109.966 57.9106L103.265 55.5847C105.175 44.8505 101.402 35.7159 94.0227 32.1341C82.3115 26.4493 76.9035 35.7871 70.5381 38.6961C58.4628 26.5579 44.7501 28.486 39.4467 42.2226C37.8572 46.3409 39.5057 54.087 38.2575 56.4963C34.6677 54.2061 35.927 45.3495 33.0512 41.122C26.5468 42.4902 25.6571 55.4632 19.5143 62.043L17.4679 54.6474C13.2276 53.5621 3.62541 52.1012 0 54.5455C0.525734 60.6717 0.123014 57.139 12.5808 58.3483L16.034 74.3303C23.2615 73.3101 24.1487 60.3918 31.1899 53.4044C32.8089 63.2891 31.0804 60.1333 41.3817 60.986C42.2604 61.3788 61.3209 86.2622 71.6874 90.8863L94.9291 67.4767C98.1573 63.3456 97.9913 61.0762 104.812 61.0903L108.374 77.4689C112.702 76.5592 111.497 77.3351 113.541 73.536L123.051 56.0101C126.941 65.7979 127.114 94.6639 133.017 100C137.371 98.919 136.971 95.9677 138.366 91.0772L163.214 12.3665C172.715 25.2155 168.52 33.0463 178 32.894C177.538 26.9005 166.786 2.70275 162.173 0C155.297 5.25204 139.497 75.9183 134.284 83.4164V83.4164Z" fill="#4F9D38"/>
</svg>
