<svg width="130" height="100" viewBox="0 0 130 100" fill="none" xmlns="http://www.w3.org/2000/svg">
<path fill-rule="evenodd" clip-rule="evenodd" d="M78.5207 91.3807C106.667 74.9633 105.822 83.9921 120.997 77.7967L119.951 0C107.391 1.10685 79.5526 16.0827 77.66 24.4153C76.2319 30.7005 77.9233 81.8163 78.5207 91.3807Z" fill="#C51A2D"/>
<path fill-rule="evenodd" clip-rule="evenodd" d="M31.7383 80.1662C49.6769 80.0118 61.1872 84.8273 74.5545 91.4509C74.3617 72.1193 75.335 45.4173 73.5639 26.9223C72.2693 13.405 40.4428 3.55496 33.494 3.51846L31.7383 80.1662V80.1662Z" fill="#C51A2D"/>
<path fill-rule="evenodd" clip-rule="evenodd" d="M123.833 81.3376C71.2105 87.5569 88.5846 93.5705 75.9376 94.9827C71.9385 95.4291 60.7384 88.303 55.277 86.1925C49.824 84.0848 34.003 77.6528 30.5 84.9284C31.3971 88.7312 30.1562 87.2979 34.4522 88.3002C35.1837 88.4707 40.4027 88.7578 41.8943 88.9607C59.5772 91.3632 73.2883 101.315 78.4416 99.8544C80.5683 99.2515 84.8398 95.4733 87.9076 93.8885C99.4773 87.9135 117.022 87.38 129.999 88.3065L127.071 8.96078C126.533 3.65253 125.961 4.38177 122.541 1.84521L123.833 81.3376V81.3376Z" fill="#C51A2D"/>
<path fill-rule="evenodd" clip-rule="evenodd" d="M2.56669 97.5845C10.4021 86.1497 9.63633 78.839 11.8776 63.7719C12.9787 56.3728 17.6261 30.5805 16.8059 25.0132L9.243 23.9787C5.95304 30.2527 4.36015 52.1033 3.06974 60.8606C0.964696 75.1429 -2.37139 83.7219 2.56669 97.5845Z" fill="#C51A2D"/>
<path fill-rule="evenodd" clip-rule="evenodd" d="M9.37891 21.1452L18.0737 21.9777L18.94 14.8747L9.95673 13.9918L9.37891 21.1452Z" fill="#C51A2D"/>
<path fill-rule="evenodd" clip-rule="evenodd" d="M10.3203 11.0018L19.3728 12.1164C20.6681 4.85974 19.3218 2.92048 11.9768 4.59514L10.3203 11.0018V11.0018Z" fill="#C51A2D"/>
</svg>
