<svg width="156" height="100" viewBox="0 0 156 100" fill="none" xmlns="http://www.w3.org/2000/svg">
<path fill-rule="evenodd" clip-rule="evenodd" d="M119.489 14.8256C134.152 11.5819 146.436 22.4543 148.773 34.176C151.73 49.0068 141.421 61.0113 129.542 63.5449C98.025 70.2682 86.173 22.1958 119.489 14.8256ZM110.974 83.0807L110.791 89.9953C115.558 89.9953 118.927 89.2145 121.392 91.1511L121.466 100L128.254 99.8934L128.914 90.1727L140.112 89.4551L140.049 83.174L128.864 82.8384L128.909 70.7777C144.564 65.3146 157.182 57.3786 155.91 36.8748C153.457 -2.6484 93.1627 -1.43636 92.6666 38.801C92.5492 48.3402 96.539 55.9724 101.358 60.9116C104.157 63.7791 106.372 65.6722 110.453 67.5543C122.161 72.9514 121.457 65.3934 121.457 82.9619L110.974 83.0807V83.0807Z" fill="#FE3A22"/>
<path fill-rule="evenodd" clip-rule="evenodd" d="M6.63517 39.791C5.88694 25.5363 15.9329 14.8453 29.0164 13.857C61.3274 11.4161 64.4516 59.8763 32.9498 62.2332C19.0489 63.273 7.3102 52.6435 6.63517 39.791ZM59.817 8.32546C57.6647 10.4928 54.7821 12.9261 52.6629 15.1363C45.6988 12.0027 42.4776 7.30006 31.0276 7.25079C6.37553 7.14587 -10.4776 36.1572 7.53389 58.3194C27.5293 82.9231 76.5533 61.8958 56.9989 21.1403C59.7815 17.8867 61.5086 16.033 65.808 14.017C67.4683 16.9396 68.4117 18.1534 71.3599 21.0759L75.2608 0.476468L54.0379 0L59.817 8.32546V8.32546Z" fill="#FE3A22"/>
<path fill-rule="evenodd" clip-rule="evenodd" d="M65.2178 42.7362C67.9133 44.0207 79.6403 43.6509 83.2659 43.5465C88.0573 43.4091 88.292 44.7354 88.2769 37.3368L65.1445 37.4475L65.2178 42.7362V42.7362Z" fill="#FE3A22"/>
<path fill-rule="evenodd" clip-rule="evenodd" d="M65.2539 53.2666L87.8547 53.1617L88.1353 47.0487L65.7611 47.1305L65.2539 53.2666Z" fill="#FE3A22"/>
<path fill-rule="evenodd" clip-rule="evenodd" d="M121.397 91.1511C118.932 89.2146 115.563 89.9953 110.797 89.9953L110.979 83.0807C109.355 84.1525 110.194 81.5812 109.756 85.9262C109.604 87.4339 109.951 88.9236 110.192 90.375L121.397 91.1511Z" fill="#FE3A22"/>
<path fill-rule="evenodd" clip-rule="evenodd" d="M128.258 99.8934L129.257 90.9059C134.789 90.9059 137.654 91.8235 140.116 89.4551L128.918 90.1727L128.258 99.8934Z" fill="#FE3A22"/>
</svg>
