<svg width="129" height="100" viewBox="0 0 129 100" fill="none" xmlns="http://www.w3.org/2000/svg">
<path fill-rule="evenodd" clip-rule="evenodd" d="M67.7587 7.39155C72.8221 12.7292 103.198 32.4545 107.86 37.375C108.063 37.5894 108.351 37.9588 108.516 38.1404C108.683 38.3255 108.971 38.6553 109.171 38.9339L96.5351 38.9687L96.1649 94.2889L33.312 94.0007L33.2518 38.9475L23.8056 36.1759L67.7587 7.39155V7.39155ZM27.0241 100H101.761C101.659 95.1765 100.057 49.7224 102.776 45.1339L129 45.2179C123.075 40.0851 117.278 36.135 110.993 31.487C105.093 27.1244 97.7603 21.3163 91.5562 17.6906L91.4168 1.63537L83.4286 1.63606L83.2628 10.8528C77.1501 7.4298 73.2984 3.53156 67.3879 0C62.5342 1.88527 3.37335 42.4374 0 45.0765L27.0883 45.3182L27.0241 100V100Z" fill="#25BDE2"/>
<path fill-rule="evenodd" clip-rule="evenodd" d="M62.7867 38.6313C57.8443 46.5487 52.8926 50.8819 48.754 62.5001C44.5634 74.2631 50.9373 83.2497 62.8326 83.488C92.567 84.0848 72.588 46.1321 62.7867 38.6313Z" fill="#25BDE2"/>
</svg>
