<svg width="118" height="100" viewBox="0 0 118 100" fill="none" xmlns="http://www.w3.org/2000/svg">
<path fill-rule="evenodd" clip-rule="evenodd" d="M43.3759 70.1065C43.3759 70.1065 42.2479 70.1904 42.265 70.1485L46.9583 53.1733L45.2758 52.0503L41.115 52.7913L40.4261 53.2134L40.74 52.3764C42.1514 48.2635 45.1018 44.3003 47.5385 40.6656L52.8138 32.4989L52.9989 44.4287L60.4832 42.7984L43.3759 70.1065V70.1065ZM105.741 81.577C107.048 81.577 108.107 82.6324 108.107 83.9336C108.107 85.2348 107.048 86.2903 105.741 86.2903C104.435 86.2903 103.375 85.2348 103.375 83.9336C103.375 82.6324 104.435 81.577 105.741 81.577ZM103.245 72.5775C104.552 72.5775 105.611 73.6323 105.611 74.9341C105.611 76.2359 104.552 77.2908 103.245 77.2908C101.938 77.2908 100.879 76.2359 100.879 74.9341C100.879 73.6323 101.938 72.5775 103.245 72.5775ZM112.444 73.6907C114.33 73.6907 115.861 75.2152 115.861 77.0943C115.861 78.9734 114.33 80.4978 112.444 80.4978C110.557 80.4978 109.027 78.9734 109.027 77.0943C109.027 75.2152 110.557 73.6907 112.444 73.6907ZM60.5125 77.5937C65.59 93.0463 87.9445 85.104 100.462 82.9907C101.221 87.4132 101.025 87.3664 103.517 90.116C108.496 88.608 118.846 81.3872 117.943 74.807C114.151 70.7033 104.855 69.7245 98.825 70.1546C97.1541 74.4171 98.4237 74.7291 99.203 78.803C87.299 82.1774 69.904 87.9735 63.5697 76.6581C68.9385 71.5488 72.9741 70.3565 76.6096 62.4027C87.6806 38.1849 62.9041 13.4913 38.6697 23.5967C12.4524 34.5289 12.814 85.2068 60.5125 77.5937V77.5937Z" fill="#FDC20C"/>
<path fill-rule="evenodd" clip-rule="evenodd" d="M0 49.0525C0.763391 53.635 2.1143 52.8862 7.29498 52.8612C8.89199 52.8533 12.0426 52.947 13.4619 52.7773C16.8862 52.3679 15.8382 52.3892 17.3045 51.0278C16.0031 43.703 1.39792 47.3614 0 49.0525V49.0525Z" fill="#FAC00C"/>
<path fill-rule="evenodd" clip-rule="evenodd" d="M78.8392 34.4723C84.255 34.712 84.0638 33.7253 87.948 31.5001C92.4837 28.9013 94.7653 29.7737 93.6337 24.932C93.5958 24.9168 92.7983 23.2166 88.5318 24.7568C87.3904 25.1687 85.8948 26.4303 84.6623 27.167C80.3764 29.7286 78.5442 28.6781 78.8392 34.4723V34.4723Z" fill="#FDC20C"/>
<path fill-rule="evenodd" clip-rule="evenodd" d="M48.4063 83.7341C46.915 86.8353 47.3834 88.2186 47.3602 92.3485C47.3297 97.7321 46.1308 98.4536 50.7723 100C53.5571 97.3909 56.1587 80.9966 48.4063 83.7341V83.7341Z" fill="#FDC20C"/>
<path fill-rule="evenodd" clip-rule="evenodd" d="M48.2751 16.5074L51.9791 17.1473C53.3373 13.8855 53.0631 11.9383 53.0405 7.81509C53.01 2.35906 53.9346 1.61448 49.7372 0C46.5456 3.14502 46.5682 12.4383 48.2751 16.5074V16.5074Z" fill="#FDC20C"/>
<path fill-rule="evenodd" clip-rule="evenodd" d="M83.4062 51.1129C86.1978 53.5602 86.1227 52.9513 93.24 52.8813C97.8301 52.8363 99.526 53.3911 99.9749 49.0525C96.6685 46.4617 87.6623 47.0974 86.24 47.5086C82.8597 48.485 83.5528 47.3255 83.4062 51.1129V51.1129Z" fill="#FAC00C"/>
<path fill-rule="evenodd" clip-rule="evenodd" d="M93.5619 75.1489C94.8365 70.2476 83.9218 65.2783 78.7998 65.6183C78.7259 70.1953 80.0121 70.9308 88.0112 74.8751C89.9526 75.8326 87.8756 75.4317 90.2745 75.7401L93.5619 75.1489Z" fill="#FDC20C"/>
<path fill-rule="evenodd" clip-rule="evenodd" d="M6.88325 25.1018C6.09665 28.9409 8.53335 29.5328 11.6895 31.3316C15.3043 33.3919 16.7481 35.2704 21.588 34.4389C21.8377 28.2456 10.4003 24.5117 10.1334 24.4722C4.02693 23.5712 8.88639 24.1254 6.88325 25.1018V25.1018Z" fill="#FDC20C"/>
<path fill-rule="evenodd" clip-rule="evenodd" d="M34.2283 21.2414C35.2812 18.1255 31.2957 6.4847 24.9204 6.82293C23.0156 10.7703 28.0479 21.7864 34.2283 21.2414Z" fill="#FBC10C"/>
<path fill-rule="evenodd" clip-rule="evenodd" d="M75.795 6.45306C71.2245 7.09788 70.709 8.72636 68.668 12.2808C58.4697 30.0468 76.7355 19.8775 75.795 6.45306V6.45306Z" fill="#FBC10C"/>
<path fill-rule="evenodd" clip-rule="evenodd" d="M24.922 93.379C29.9231 92.9642 37.3994 82.5704 33.1959 78.2124C28.6607 79.6444 23.0593 88.9912 24.922 93.379Z" fill="#FBC10C"/>
<path fill-rule="evenodd" clip-rule="evenodd" d="M6.78372 75.3545C10.9537 76.4239 22.5554 71.4485 21.2644 66.0904C19.1543 65.1943 23.7494 65.0599 18.7977 65.5192L12.3834 68.5146C8.84918 70.561 6.11927 70.609 6.78372 75.3545V75.3545Z" fill="#FDC20C"/>
<path fill-rule="evenodd" clip-rule="evenodd" d="M45.8836 55.6972L47.8439 51.116L42.543 52.5382L45.8836 55.6972Z" fill="#FDC20C"/>
<path fill-rule="evenodd" clip-rule="evenodd" d="M41.1205 52.7913L40.7455 52.3764L38.8633 54.174L41.1205 52.7913Z" fill="#FDC20C"/>
</svg>
