<svg width="104" height="100" viewBox="0 0 104 100" fill="none" xmlns="http://www.w3.org/2000/svg">
<path fill-rule="evenodd" clip-rule="evenodd" d="M73.3989 99.7295L96.5833 100L97.0803 96.3524L96.9975 30.4323L73.3789 30.5195L73.3989 99.7295Z" fill="#A21A42"/>
<path fill-rule="evenodd" clip-rule="evenodd" d="M38.4492 99.7967L61.6805 99.9894C62.6147 94.0489 62.724 48.8167 61.5002 44.0117L38.8564 44.0276L38.4492 99.7967V99.7967Z" fill="#A21A42"/>
<path fill-rule="evenodd" clip-rule="evenodd" d="M87.0865 6.82918L0 42.5574L2.92301 50.3041L89.8614 14.5871L93.0353 20.5701L98.5423 13.1887C100.59 10.0573 102.313 7.75966 104 4.53334C103.785 4.39074 103.435 3.95467 103.321 4.16445C103.206 4.37365 102.793 3.87865 102.63 3.81501L95.4648 2.04127C91.6881 1.25281 88.7774 0.538015 84.9519 0L87.0865 6.82918V6.82918Z" fill="#A21A42"/>
<path fill-rule="evenodd" clip-rule="evenodd" d="M5.71484 99.7495L28.9062 99.9982L29.3181 58.468L5.73068 58.541L5.71484 99.7495Z" fill="#A21A42"/>
</svg>
