<svg width="100" height="100" viewBox="0 0 100 100" fill="none" xmlns="http://www.w3.org/2000/svg">
<path fill-rule="evenodd" clip-rule="evenodd" d="M75.9747 94.6573L75.9398 71.3386C82.9666 69.1708 88.5152 62.8344 96.3125 60.8418L96.0823 83.967C90.8088 86.9765 81.7542 93.0618 75.9747 94.6573ZM3.40983 61.0842C7.36371 61.9151 20.9474 69.6842 23.7183 72.5071L23.9697 94.5916L3.51591 83.8637L3.40983 61.0842V61.0842ZM51.8409 59.9282L72.097 70.3561L72.4189 94.5102C67.3188 92.5333 57.1063 86.0416 52.3326 82.5612L51.8409 59.9282ZM27.8962 95.4213L27.6041 76.7489C27.5929 69.9015 30.8705 69.6748 35.7996 67.083C39.6948 65.0348 43.8364 61.999 48.5497 60.632L48.2527 82.9989C44.841 85.9902 32.308 93.4519 27.8962 95.4213ZM51.6774 53.6125L51.9045 29.3175C56.254 26.7602 67.7831 20.2109 72.4558 18.9472C72.4146 23.3744 72.3172 27.8028 72.3129 32.23C72.3041 41.0956 73.8097 43.8226 51.6774 53.6125V53.6125ZM27.3115 18.7518L47.4915 29.2048L48.0605 53.4183C42.0913 51.355 32.9931 44.807 27.6871 41.5765L27.3115 18.7518V18.7518ZM23.7806 41.3604C21.1102 44.1939 4.40561 53.3488 0 55.4904L0.0355838 86.2551C4.20846 88.2207 21.932 99.618 24.5119 99.9655C30.4892 100.77 45.3532 87.2126 50.4408 87.8149C56.0113 88.475 67.7893 101.2 75.7139 99.7276C79.6734 98.9918 98.2954 86.9489 99.8964 84.8562L100 56.7985L94.0495 52.335C91.7079 50.9474 90.3577 50.3012 87.9443 48.9273C83.7845 46.5597 79.4239 43.6967 75.7651 42.2064C75.7233 36.3979 75.654 30.5824 75.6478 24.7752C75.6409 17.8915 77.1471 14.7549 72.2511 11.7103C69.507 10.004 52.6832 0.215997 50.4427 0.00684973C47.2887 -0.288086 32.0173 9.02899 28.5725 11.0397C21.3199 15.274 23.8979 23.4514 23.7806 41.3604V41.3604Z" fill="#FC6925"/>
</svg>
